<svg width="26" height="27" viewBox="0 0 26 27" fill="none" xmlns="http://www.w3.org/2000/svg">
<path d="M13.6209 0.773382C11.6041 0.748352 9.57907 1.23353 7.81426 2.20893C6.79089 3.00169 5.96604 4.15529 5.82988 5.46674C5.75851 6.05422 5.89149 6.67751 6.26152 7.15034C7.48253 5.70785 9.09052 4.58381 10.8924 3.98432C13.1796 3.21012 15.7458 3.2841 17.9803 4.19916C20.2883 5.12952 22.2193 6.9263 23.3338 9.13862C24.4505 11.3193 24.7565 13.8905 24.2107 16.2753C23.8286 17.9646 23.0203 19.5597 21.8729 20.8613C21.6214 21.1081 21.7109 21.4971 21.6385 21.8105C23.9312 19.6484 25.3281 16.5829 25.4412 13.4414C25.5752 10.5553 24.6488 7.63365 22.8514 5.36127C21.0824 3.09326 18.4698 1.48387 15.6248 0.970648C14.9641 0.848348 14.2932 0.781725 13.6209 0.773382ZM6.98223 2.27338C6.554 2.41971 6.16392 2.65681 5.81035 2.93744C4.63217 3.87872 3.72771 5.22373 3.50371 6.72846C3.24677 8.39371 3.76437 10.1091 4.71855 11.4785C5.89345 13.1863 7.67895 14.39 9.58184 15.1718C11.8548 16.1044 14.3229 16.478 16.7693 16.5566L13.3357 11.9902C11.8413 11.9476 10.3942 11.4842 9.02715 10.9121C7.659 10.306 6.30533 9.51711 5.38848 8.31049C4.77687 7.51227 4.48909 6.44756 4.75371 5.46479C5.08092 4.1719 6.02474 3.15569 6.98223 2.27338Z" fill="#008CC6"/>
<path d="M2.16362 6.73981C2.58307 5.77342 3.22757 4.89001 4.08733 4.26541C3.31541 5.27548 2.80372 6.49411 2.73015 7.76625C2.59839 9.68483 3.32091 11.6023 4.54851 13.0688C5.92105 14.7231 7.77676 15.9199 9.73894 16.7717C12.1557 17.7992 14.8085 18.3714 17.4438 18.1759L19.6266 21.0631L16.5049 23.33C13.0209 22.902 9.5599 21.763 6.73577 19.6424C4.41014 17.9062 2.5326 15.4711 1.79363 12.6451C1.27975 10.7069 1.35437 8.5885 2.16362 6.73981Z" fill="#0AB4EB"/>
<path d="M0.232227 12.2378C0.272854 10.6993 0.597802 9.11482 1.44109 7.80337C0.914034 9.4031 0.766973 11.1328 1.13152 12.7838C1.74312 15.6655 3.54934 18.1617 5.72564 20.0989C8.37408 22.4226 11.6485 24.1042 15.1523 24.6557L11.8943 26.6048C8.77922 25.6417 5.87169 23.8967 3.747 21.4136C1.56521 18.8835 0.174031 15.5978 0.232227 12.2378Z" fill="#85CEF2"/>
</svg>
