<svg xmlns="http://www.w3.org/2000/svg" xmlns:xlink="http://www.w3.org/1999/xlink" version="1.1" id="_x35_star_logo" x="0px" y="0px" enable-background="new 0 0 820 301.71" xml:space="preserve" viewBox="10 10 800 281.71"> <path fill="#00CE62" d="M73.855,90.594H15.353l24.571-74.299c1.417-4.239,3.564-6.246,7.741-6.246h52.873L73.855,90.594z   M109.433,10.049h69.018c4.239,0,7.942,2.53,7.822,7.574c0,24.775,0,25.698,0,38.875c0,4.42-3.316,7.412-7.66,7.412H91.567  L109.433,10.049z M15.246,98.995l21.85,44.645c1.836,4.245,5.328,8.969,12.708,8.969h57.158c59.416,0,88.274,55.808,84.003,89.687  c0,0,12.625-19.646,12.625-48.163c0-51.811-44.627-95.138-95.146-95.138H15.246z M111.409,291.708v-59.791  c20.191-2.817,32.452-18.641,32.452-36.864c0-14.119-7.658-24.836-18.754-31.544c28.03,5.741,56.98,34.111,56.98,67.712  C182.088,258.778,162.474,288.441,111.409,291.708L111.409,291.708z M102.021,231.917v59.791C42.968,288.062,10,239.792,10,196.062  c0-5.091,3.083-8.37,7.523-8.37h44.463c4.302,0,7.053,3.301,7.257,7.494C69.561,211.689,79.896,227.716,102.021,231.917z   M290.87,194.348h30.078c31.635,0,48.758-20.466,48.758-49.382v-10.945c0-28.643-15.619-42.4-35.11-47.34  c-10.205-2.781-24.33-5.668-36.495-5.959c-7.879-0.884-14.993-2.792-14.993-12.506V61.62c0-9.303,2.625-13.78,15.085-13.78h10.965  c13.058,0,15.368,4.476,15.368,14.684c0,8.369,3.887,11.513,10.005,11.513h21.888c7.52,0,10.771-3.51,10.771-12.033v-4.115  C367.191,25.593,346.6,10,317.067,10H288.93c-33.587,0-48.513,22.167-48.513,49.586v9.6c0,15.538,5.455,30.911,14.309,38.328  c12.299,11.288,31.984,13.319,46.958,15.657c19.87,2.748,25.084,5.801,25.084,15.896l0.001,2.887  c0,12.208-4.001,14.111-15.866,14.111h-13.507c-12.339,0-13.875-4.875-13.875-15.345c0-7.451-3.226-10.41-10.064-10.41H251.09  c-7.236,0-10.265,2.525-10.265,11.543v4.593C240.825,175.962,259.134,194.348,290.87,194.348L290.87,194.348z M427.676,47.84  h-31.048c-6.199,0-9.217-4.374-9.217-9.702V19.161c0-5.25,3.298-9.161,9.217-9.161h103.817c6.391,0,10.188,4.498,10.188,9.703  v18.435c0,6.553-3.829,9.702-9.218,9.702h-31.048v135.723c0,6.889-4.089,10.785-10.673,10.785h-22.081  c-6.975,0-9.938-4.058-9.938-9.702V47.84z M562.541,10c-7.605,0-10.894,4.744-12.461,10.322l-40.902,155.591  c0,0-2.426,7.592-2.426,10.838c0,5.771,3.863,7.597,8.395,7.597h24.108c7.313,0,9.332-3.112,10.683-8.075l7.361-27.824h46.963  l7.13,27.056c1.756,5.216,2.684,8.844,8.715,8.844h26.917c4.787,0,7.908-2.838,7.908-7.338c0-3.987-2.123-9.529-2.123-9.529  L611.841,21.215C610.189,14.468,606.811,10,599.411,10H562.541z M580.976,60.453l15.156,62.097h-30.681L580.976,60.453z M689.645,10  c-6.209,0-9.702,3.889-9.702,9.702v164.944c0,5.45,3.52,9.702,8.731,9.702h24.257c6.494,0,9.702-4.344,9.702-9.702v-55.305h15.524  l25.712,56.022c2.466,5.369,5.696,8.984,12.128,8.984h25.227c6.192,0,8.776-3.583,8.776-7.771c0-3.019-3.51-9.962-3.51-9.962  l-25.598-52.714c14.769-7.97,23.534-21.628,23.534-40.162V55.602c0-25.597-18.614-45.602-47.835-45.602H689.645z M722.633,47.84  h26.891c6.154,0,12.212,2.863,12.212,10.933v23.026c0,9.839-6.147,11.643-11.251,11.643h-27.852V47.84z M244.792,219.575h560.79  c2.416,0,4.375,1.959,4.375,4.375v33.942c0,2.415-1.959,4.375-4.375,4.375h-560.79c-2.416,0-4.375-1.96-4.375-4.375V223.95  C240.417,221.534,242.376,219.575,244.792,219.575z"/> </svg>