<svg xmlns="http://www.w3.org/2000/svg" fill="none" viewBox="172.41 83.33 651.76 626.09"> <g clip-path="url(#clip0_1402_157137)">  <path d="M191.978 356.971L312.108 378.369L376.932 466.1L302.071 529.498L239.876 525.85L215.386 489.897L191.978 356.971Z" fill="url(#paint1_linear_1402_157137)"/> <path d="M486.573 250.655L509.369 395.202L493.712 432.859L301.268 628.137L294.758 615.387L387.647 457.137L284.175 307.378L295.129 256.498L486.573 250.655Z" fill="url(#paint2_linear_1402_157137)"/> <path d="M497.647 89.8994L511.74 408.362L590.453 489.631L691.888 534.807L736.749 430.399L567.999 204.344L535.036 117.103L497.647 89.8994Z" fill="url(#paint3_linear_1402_157137)"/> <path d="M817.146 353.113L748.554 366.428L561.35 214.779L553.692 144.085H593.757L817.146 353.113Z" fill="url(#paint4_linear_1402_157137)"/> <path d="M381.037 564.075L344.833 600.278L493.667 434.565L492.25 443.195L381.037 564.075Z" fill="#8D8484"/> <path d="M605.648 705.342L548.426 528.176L520.898 554.796L551.889 680.065L605.648 705.342Z" fill="url(#paint5_linear_1402_157137)"/> <path d="M403.46 662.063L459.321 537.295L479.293 542.758L522.849 666.832L445.367 670.082L403.46 662.063Z" fill="url(#paint6_linear_1402_157137)"/> <path d="M455.627 534.11L494.664 452.98L546.673 462.073L544.108 489.36L455.627 534.11Z" fill="url(#paint7_linear_1402_157137)"/> <path d="M390.738 666.833L495.312 455.815L486.765 454.176L354.534 630.629L390.738 666.833Z" fill="url(#paint8_linear_1402_157137)"/> <path d="M354.535 630.631L318.332 666.834L434.813 521.094L425.544 548.307L354.535 630.631Z" fill="#8D8484"/> <path d="M473.769 373.525L501.037 400.488L490.204 412.701L437.565 409.729L440.51 381.053L473.769 373.525Z" fill="url(#paint9_linear_1402_157137)"/> <path d="M381.036 564.076L497.647 432.752L493.666 453.317L417.24 600.28L390.638 596.261L381.036 564.076Z" fill="url(#paint10_linear_1402_157137)"/> <path d="M484.84 261.408C483.423 266.584 467.979 323.13 467.562 324.102C465.192 329.63 464.803 333.972 453.747 332.398C448.775 331.685 317.673 293.417 315.192 292.75C312.025 291.889 309.803 294.028 312.683 297.491C315.136 300.445 435.164 449.787 437.553 452.815C441.608 457.945 441.608 459.528 437.553 464.565C436.238 466.204 304.09 624.834 301.997 627.371C299.775 630.074 297.923 629.065 295.331 627.037C293.562 625.648 176.96 534.343 174.21 531.741C172.349 529.991 172.21 528.519 172.562 524.741C172.729 522.963 188.868 360.88 189.016 359.648C189.349 356.824 190.562 356.389 193.321 357.352C194.645 357.815 236.303 372.361 237.784 373.139C239.405 373.982 239.164 376.269 239.192 378.574C239.238 381.871 241.729 496.741 241.803 499.528C241.858 501.537 242.136 502.787 243.766 503.769C245.405 504.75 278.701 519.963 280.988 521.26C283.266 522.574 284.701 522.269 286.321 521.121C287.951 519.982 354.534 468.028 355.312 467.426C360.053 463.769 359.164 462.195 356.701 458.435C355.414 456.482 205.738 267.084 204.831 265.38C202.46 260.935 202.312 259.611 204.09 256.648C205.155 254.871 230.627 208.454 231.71 206.861C234.053 203.408 235.534 203.037 238.738 203.528C241.451 203.945 404.09 239.046 406.645 239.574C412.738 240.824 413.164 239.037 413.164 234.982C413.164 230.926 410.997 117.898 410.46 89.6668C410.395 86.1946 413.192 83.3428 416.673 83.3428H462.988C466.155 83.3428 468.821 85.7224 469.164 88.8798C473.229 125.88 485.664 244.972 486.562 250.667C487.201 254.759 486.155 256.574 484.84 261.417V261.408Z" fill="#F8F8F8"/> <path d="M822.858 429.5C821.747 431.231 706.784 625.666 705.265 627.333C701.922 630.99 699.904 630.759 695.867 627.935C693.274 626.111 571.552 526.379 570.219 525.296C565.385 521.324 564.145 522.314 561.293 524.916C559.626 526.435 535.339 551.074 534.358 552.046C533.395 553.027 532.413 554.25 533.395 557.176C534.358 560.064 597.978 690.444 603.858 701.324C605.774 704.87 607.867 709.426 602.284 709.426H438.441C433.432 709.426 432.654 709.426 429.247 704.972C428.08 703.453 405.061 667.898 403.95 666.027C402.534 663.648 402.839 661.203 405.728 660.611C408.126 660.12 498.237 657.972 499.737 657.639C504.487 656.602 503.747 655.111 501.663 649.629C501.08 648.092 456.422 539.037 455.987 537.805C454.922 534.75 455.45 533.601 457.219 532.148C458.432 531.148 532.497 473.203 533.895 471.898C535.015 470.824 534.895 470.037 533.413 469.787C531.959 469.546 496.691 463.166 495.219 462.861C492.7 462.342 492.182 461.083 492.034 458.703C491.941 457.314 488.098 398.018 488.015 396.555C487.709 391.064 487.256 389.657 493.348 388.166C498.496 386.907 621.635 362.064 623.395 361.759C625.987 361.314 627.774 361.611 629.108 365.694C629.728 367.611 647.348 426.722 647.867 428.814C648.691 432.074 648.83 432.824 646.978 434.676C645.747 435.907 609.83 469 608.746 470.129C606.274 472.74 607.284 474.194 609.376 475.463C611.126 476.527 669.052 511.879 671.821 513.49C673.858 514.676 675.459 514.713 676.228 513.379C677.385 511.379 728.422 443.148 729.339 441.444C730.367 439.555 730.311 438.592 729.293 437.352C727.654 435.324 537.071 232.407 513.274 205.935C511.589 204.064 510.534 201.713 510.246 199.213L497.635 89.8978C497.228 86.3978 499.969 83.333 503.487 83.333H547.339C550.339 83.333 553.274 84.1293 555.858 85.6386C599.858 111.333 771.45 211.527 774.043 213.453C776.978 215.657 777.654 217.657 778.506 219.713C779.117 221.185 817.404 347.166 817.932 348.935C818.534 350.99 818.913 355.889 813.08 351.074L570.969 152.259C569.256 150.852 566.728 152.407 567.209 154.574C569.617 165.342 574.247 186.342 576.293 195.639C576.959 198.657 578.515 201.398 580.765 203.509C638.719 257.87 820.885 421.685 822.848 423.453C825.071 425.639 824.089 427.416 822.848 429.5H822.858Z" fill="#F8F8F8"/> <path d="M437.563 337.319L401.357 373.525L437.563 409.732L473.77 373.525L437.563 337.319Z" fill="#F8F8F8"/> <path d="M381.039 564.068L344.832 600.274L381.039 636.481L417.245 600.274L381.039 564.068Z" fill="#F8F8F8"/> <path d="M354.532 630.627L318.326 666.834L354.532 703.04L390.739 666.834L354.532 630.627Z" fill="#F8F8F8"/>               </g> <defs> <linearGradient id="paint0_linear_1402_157137" x1="1000" y1="500" x2="0" y2="500" gradientUnits="userSpaceOnUse"> <stop stop-color="#D23030"/> <stop offset="1" stop-color="#922222"/> </linearGradient> <linearGradient id="paint1_linear_1402_157137" x1="191.978" y1="443.23" x2="376.932" y2="443.23" gradientUnits="userSpaceOnUse"> <stop offset="0.26" stop-color="#867C7C"/> <stop offset="0.52" stop-color="#5E5656"/> <stop offset="0.89" stop-color="#3F3B3B"/> </linearGradient> <linearGradient id="paint2_linear_1402_157137" x1="261.407" y1="306.877" x2="450.295" y2="495.766" gradientUnits="userSpaceOnUse"> <stop offset="0.34" stop-color="#867C7C"/> <stop offset="0.61" stop-color="#5E5656"/> <stop offset="0.96" stop-color="#3F3B3B"/> </linearGradient> <linearGradient id="paint3_linear_1402_157137" x1="535.703" y1="409.094" x2="636.017" y2="244.798" gradientUnits="userSpaceOnUse"> <stop stop-color="#3F3B3B"/> <stop offset="0.36" stop-color="#5E5656"/> <stop offset="0.67" stop-color="#867C7C"/> </linearGradient> <linearGradient id="paint4_linear_1402_157137" x1="659.831" y1="276.826" x2="718.303" y2="212.316" gradientUnits="userSpaceOnUse"> <stop stop-color="#3F3B3B"/> <stop offset="0.26" stop-color="#5E5656"/> <stop offset="0.5" stop-color="#867C7C"/> </linearGradient> <linearGradient id="paint5_linear_1402_157137" x1="563.269" y1="528.176" x2="563.269" y2="705.342" gradientUnits="userSpaceOnUse"> <stop stop-color="#3F3B3B"/> <stop offset="0.25" stop-color="#5E5656"/> <stop offset="0.72" stop-color="#867C7C"/> </linearGradient> <linearGradient id="paint6_linear_1402_157137" x1="463.154" y1="653.813" x2="463.154" y2="538.563" gradientUnits="userSpaceOnUse"> <stop offset="0.07" stop-color="#867C7C"/> <stop offset="0.33" stop-color="#5E5656"/> <stop offset="0.73" stop-color="#3F3B3B"/> </linearGradient> <linearGradient id="paint7_linear_1402_157137" x1="493.266" y1="531.471" x2="519.007" y2="454.536" gradientUnits="userSpaceOnUse"> <stop offset="0.2" stop-color="#867C7C"/> <stop offset="0.54" stop-color="#5E5656"/> <stop offset="0.9" stop-color="#3F3B3B"/> </linearGradient> <linearGradient id="paint8_linear_1402_157137" x1="370.914" y1="645.148" x2="510.469" y2="471.018" gradientUnits="userSpaceOnUse"> <stop stop-color="#867C7C"/> <stop offset="0.23" stop-color="#5E5656"/> <stop offset="0.96" stop-color="#3F3B3B"/> </linearGradient> <linearGradient id="paint9_linear_1402_157137" x1="442.917" y1="383.887" x2="496.621" y2="416.488" gradientUnits="userSpaceOnUse"> <stop offset="0.23" stop-color="#867C7C"/> <stop offset="0.49" stop-color="#5E5656"/> <stop offset="0.92" stop-color="#3F3B3B"/> </linearGradient> <linearGradient id="paint10_linear_1402_157137" x1="389.592" y1="594.132" x2="508.944" y2="444.641" gradientUnits="userSpaceOnUse"> <stop offset="0.09" stop-color="#867C7C"/> <stop offset="0.47" stop-color="#5E5656"/> <stop offset="0.96" stop-color="#3F3B3B"/> </linearGradient> <clipPath id="clip0_1402_157137"> <rect width="1000" height="1000" fill="white"/> </clipPath> </defs> </svg>