<svg xmlns:dc="http://purl.org/dc/elements/1.1/" xmlns:cc="http://creativecommons.org/ns#" xmlns:rdf="http://www.w3.org/1999/02/22-rdf-syntax-ns#" xmlns:svg="http://www.w3.org/2000/svg" xmlns="http://www.w3.org/2000/svg" xmlns:sodipodi="http://sodipodi.sourceforge.net/DTD/sodipodi-0.dtd" xmlns:inkscape="http://www.inkscape.org/namespaces/inkscape" version="1.1" id="svg8" sodipodi:docname="blocks-colour_default.svg" inkscape:version="0.92.4 (5da689c313, 2019-01-14)" viewBox="0 0 1000 561.7">   <metadata id="metadata14">     <rdf:rdf>       <cc:work rdf:about="">         <dc:format>image/svg+xml</dc:format>         <dc:type rdf:resource="http://purl.org/dc/dcmitype/StillImage"/>         <dc:title/>       </cc:work>     </rdf:rdf>   </metadata>   <defs id="defs12"/>   <sodipodi:namedview pagecolor="#ffffff" bordercolor="#111111" borderopacity="1" objecttolerance="10" gridtolerance="10" guidetolerance="10" inkscape:pageopacity="0" inkscape:pageshadow="2" inkscape:window-width="1920" inkscape:window-height="1017" id="namedview10" showgrid="false" fit-margin-top="0" fit-margin-left="0" fit-margin-right="0" fit-margin-bottom="0" inkscape:zoom="0.39404762" inkscape:cx="159.969" inkscape:cy="89.860787" inkscape:window-x="1912" inkscape:window-y="-8" inkscape:window-maximized="1" inkscape:current-layer="svg8"/>   <path d="M 0.00313,556.73148 H 167.70802 V 514.72321 H 50.53807 v -57.76138 h 98.45689 V 414.95356 H 50.53807 V 364.08105 H 161.46616 V 322.07278 H 0 Z m 321.30075,-3.77575 a 71.298412,71.298412 0 0 0 33.14715,-25.2706 68.260314,68.260314 0 0 0 11.48976,-39.8766 66.400573,66.400573 0 0 0 -6.07307,-29.86213 53.979377,53.979377 0 0 0 -17.06586,-20.01956 101.17617,101.17617 0 0 0 -25.43625,-12.96506 q -14.44035,-5.08537 -31.17802,-9.35184 -13.12758,-3.27877 -22.80761,-6.72945 a 38.338798,38.338798 0 0 1 -14.93419,-8.85799 20.078953,20.078953 0 0 1 -5.25104,-14.606 21.935569,21.935569 0 0 1 10.99592,-19.6945 q 10.98966,-6.89198 31.01235,-6.89198 a 139.77127,139.77127 0 0 1 36.59471,4.92284 123.97441,123.97441 0 0 1 32.6533,13.78396 v -44.63378 a 149.68572,149.68572 0 0 0 -32.48764,-11.48664 159.48765,159.48765 0 0 0 -36.76037,-4.26647 126.61868,126.61868 0 0 0 -49.22844,8.69547 72.186087,72.186087 0 0 0 -32.00005,24.77987 64.981543,64.981543 0 0 0 -11.3241,38.40131 63.959467,63.959467 0 0 0 5.24791,27.07409 52.657242,52.657242 0 0 0 15.42491,19.36318 99.582105,99.582105 0 0 0 24.94866,13.9465 243.73861,243.73861 0 0 0 34.13172,10.50207 219.64012,219.64012 0 0 1 21.33232,6.40126 40.964315,40.964315 0 0 1 15.25926,9.18931 21.529239,21.529239 0 0 1 5.74801,15.91563 23.723421,23.723421 0 0 1 -11.6523,21.00413 q -11.65542,7.55462 -33.96919,7.55149 a 141.13716,141.13716 0 0 1 -74.50216,-21.33232 v 45.29016 a 146.15377,146.15377 0 0 0 36.26651,13.45578 173.04344,173.04344 0 0 0 38.23565,4.26334 140.0682,140.0682 0 0 0 52.18215,-8.69547 z m 199.86122,0 a 71.298412,71.298412 0 0 0 33.15028,-25.2706 68.260314,68.260314 0 0 0 11.48664,-39.8766 66.400573,66.400573 0 0 0 -6.06995,-29.86213 53.979377,53.979377 0 0 0 -17.06898,-20.01956 101.17304,101.17304 0 0 0 -25.43626,-12.96506 q -14.44034,-5.08537 -31.17801,-9.35184 -13.12759,-3.27877 -22.80449,-6.72945 a 38.338798,38.338798 0 0 1 -14.93732,-8.85799 20.078953,20.078953 0 0 1 -5.25103,-14.606 21.935569,21.935569 0 0 1 10.99904,-19.6945 q 10.98654,-6.89198 31.00923,-6.89198 a 139.77127,139.77127 0 0 1 36.5947,4.92284 123.97441,123.97441 0 0 1 32.65643,13.78396 v -44.63378 a 149.68572,149.68572 0 0 0 -32.49077,-11.48664 159.48765,159.48765 0 0 0 -36.76036,-4.26647 126.61868,126.61868 0 0 0 -49.22844,8.69547 72.198589,72.198589 0 0 0 -31.9938,24.77987 64.981543,64.981543 0 0 0 -11.32411,38.40131 63.959467,63.959467 0 0 0 5.24791,27.07409 52.657242,52.657242 0 0 0 15.42491,19.36318 99.547723,99.547723 0 0 0 24.94241,13.94962 243.73861,243.73861 0 0 0 34.13172,10.50207 219.64012,219.64012 0 0 1 21.33233,6.39814 40.964315,40.964315 0 0 1 15.26238,9.18931 21.529239,21.529239 0 0 1 5.74488,15.91875 23.723421,23.723421 0 0 1 -11.6523,21.00414 q -11.65542,7.55461 -33.96918,7.54836 a 141.12153,141.12153 0 0 1 -74.49592,-21.33232 v 45.29016 a 146.19128,146.19128 0 0 0 36.26339,13.45578 173.04344,173.04344 0 0 0 38.23253,4.26646 140.0682,140.0682 0 0 0 52.18214,-8.69859 z m 73.51448,3.77575 H 762.3876 V 514.72321 H 645.21765 V 456.96183 H 743.6777 V 414.95356 H 645.21765 V 364.08105 H 756.1489 V 322.07278 H 594.67958 Z m 405.32042,0 Q 980.6243,525.8879 960.2828,495.36002 939.935,464.83526 918.934,434.64494 q 19.3632,-27.88986 37.9075,-56.12355 18.5349,-28.2243 36.5916,-56.44861 h -58.746 q -10.8333,19.69138 -22.3169,38.89203 -11.4897,19.19753 -23.3014,37.57615 -12.1493,-18.70368 -23.464,-37.90746 -11.3241,-19.19753 -22.1544,-38.56072 h -60.0587 q 17.7223,28.22743 36.4291,56.7768 18.7068,28.55562 38.3982,56.44861 -21.6606,30.52164 -41.6832,60.71508 -20.0196,30.20282 -39.7079,60.71821 h 58.746 q 11.8148,-21.66052 24.9424,-43.32103 13.1182,-21.66052 27.2397,-43.32103 13.784,21.33858 26.9116,42.99284 13.1182,21.66051 25.2706,43.64922 z" id="path4" inkscape:connector-curvature="0" style="fill: #9647e6;stroke-width:3.12561536"/>   <path d="M 89.76455,0.00312 V 234.42427 H 324.1857 V 0.00312 Z m 162.30383,165.43882 a 38.301291,38.301291 0 0 1 -17.12212,13.09008 69.619956,69.619956 0 0 1 -26.71464,4.61028 H 155.69628 V 51.28197 h 49.48474 q 21.87306,0 33.88792,8.75797 a 29.265137,29.265137 0 0 1 12.01487,25.17371 30.255957,30.255957 0 0 1 -4.30398,16.32196 29.637085,29.637085 0 0 1 -12.73063,10.97404 35.15067,35.15067 0 0 1 17.84102,12.26491 33.394074,33.394074 0 0 1 6.18559,20.37901 34.194232,34.194232 0 0 1 -6.00743,20.28525 z M 218.5399,100.97925 a 15.481173,15.481173 0 0 0 5.46983,-12.63374 q 0,-15.67183 -21.33858,-15.67496 h -20.26024 v 32.82834 h 20.26024 a 24.348544,24.348544 0 0 0 15.86875,-4.51964 z m -12.46183,25.17371 h -23.66716 v 35.5945 h 23.30772 a 31.965668,31.965668 0 0 0 18.46926,-4.51963 14.899808,14.899808 0 0 0 6.45439,-13.00256 q 0,-18.06919 -24.56421,-18.07231 z M 382.79099,0 V 234.42115 H 617.21214 V 0 Z m 162.30383,165.43882 a 38.301291,38.301291 0 0 1 -17.12213,13.09007 69.619956,69.619956 0 0 1 -26.71463,4.61029 H 448.72272 V 51.28197 h 49.48474 q 21.87306,0 33.88792,8.75797 a 29.265137,29.265137 0 0 1 12.01487,25.17371 30.255957,30.255957 0 0 1 -4.30398,16.32196 29.637085,29.637085 0 0 1 -12.73063,10.97404 35.15067,35.15067 0 0 1 17.84102,12.26491 33.394074,33.394074 0 0 1 6.18559,20.37901 34.194232,34.194232 0 0 1 -6.00743,20.28525 z m -33.52848,-64.45957 a 15.481173,15.481173 0 0 0 5.46983,-12.63374 q 0,-15.67183 -21.33858,-15.67496 h -20.26024 v 32.82834 h 20.26024 a 24.348544,24.348544 0 0 0 15.86875,-4.51964 z m -12.46183,25.17371 h -23.66716 v 35.5945 h 23.30772 a 31.965668,31.965668 0 0 0 18.46926,-4.51963 14.899808,14.899808 0 0 0 6.45439,-13.00256 q 0,-18.06919 -24.56421,-18.07231 z M 675.81743,234.42115 H 910.2386 V 0 H 675.81743 Z M 844.1818,174.78441 a 76.499436,76.499436 0 0 1 -18.985,7.1389 96.037657,96.037657 0 0 1 -22.7076,2.62239 82.7913,82.7913 0 0 1 -28.4743,-4.61028 58.161451,58.161451 0 0 1 -21.4074,-13.28386 57.567584,57.567584 0 0 1 -13.39947,-21.24169 81.006573,81.006573 0 0 1 -4.65717,-28.28994 75.65552,75.65552 0 0 1 4.84471,-27.74921 59.267918,59.267918 0 0 1 13.95583,-21.23856 61.480854,61.480854 0 0 1 21.87,-13.55892 82.150548,82.150548 0 0 1 28.5681,-4.70093 91.989986,91.989986 0 0 1 20.7541,2.25982 77.083926,77.083926 0 0 1 18.1473,6.59818 v 25.67068 a 60.818224,60.818224 0 0 0 -16.5658,-7.68277 66.484964,66.484964 0 0 0 -18.7974,-2.62239 49.075287,49.075287 0 0 0 -23.1733,5.0635 34.663074,34.663074 0 0 0 -14.7029,14.64038 48.91588,48.91588 0 0 0 -5.1166,23.31709 51.003791,51.003791 0 0 0 4.9322,23.41086 33.694134,33.694134 0 0 0 14.3309,14.73415 47.509353,47.509353 0 0 0 22.8014,5.06037 70.654535,70.654535 0 0 0 37.7824,-10.6646 z" id="path6" inkscape:connector-curvature="0" style="stroke-width:3.12561536" fill="#fff"/> </svg>