<svg xmlns:dc="http://purl.org/dc/elements/1.1/" xmlns:cc="http://creativecommons.org/ns#" xmlns:rdf="http://www.w3.org/1999/02/22-rdf-syntax-ns#" xmlns:svg="http://www.w3.org/2000/svg" xmlns="http://www.w3.org/2000/svg" xmlns:sodipodi="http://sodipodi.sourceforge.net/DTD/sodipodi-0.dtd" xmlns:inkscape="http://www.inkscape.org/namespaces/inkscape" version="1.1" id="svg8" sodipodi:docname="blocks-colour_default.svg" inkscape:version="0.92.4 (5da689c313, 2019-01-14)" viewBox="0 0 1000 330.06">   <metadata id="metadata14">     <rdf:rdf>       <cc:work rdf:about="">         <dc:format>image/svg+xml</dc:format>         <dc:type rdf:resource="http://purl.org/dc/dcmitype/StillImage"/>         <dc:title/>       </cc:work>     </rdf:rdf>   </metadata>   <defs id="defs12"/>   <sodipodi:namedview pagecolor="#ffffff" bordercolor="#111111" borderopacity="1" objecttolerance="10" gridtolerance="10" guidetolerance="10" inkscape:pageopacity="0" inkscape:pageshadow="2" inkscape:window-width="1920" inkscape:window-height="1017" id="namedview10" showgrid="false" fit-margin-top="0" fit-margin-left="0" fit-margin-right="0" fit-margin-bottom="0" inkscape:zoom="0.39404762" inkscape:cx="272.23" inkscape:cy="89.859842" inkscape:window-x="1912" inkscape:window-y="-8" inkscape:window-maximized="1" inkscape:current-layer="svg8"/>   <path d="m 194.71771,324.92746 a 41.88003,41.88003 0 0 0 19.47802,-14.84774 40.113141,40.113141 0 0 0 6.7498,-23.43422 39.011132,39.011132 0 0 0 -3.56683,-17.54767 31.695626,31.695626 0 0 0 -10.03013,-11.76211 59.411162,59.411162 0 0 0 -14.94508,-7.61856 q -8.48731,-2.98644 -18.32274,-5.49719 -7.71223,-1.92484 -13.40044,-3.95254 a 22.530582,22.530582 0 0 1 -8.7775,-5.20883 11.793337,11.793337 0 0 1 -3.08563,-8.58282 12.888,12.888 0 0 1 6.46329,-11.5711 q 6.45594,-4.04804 18.22172,-4.04988 a 82.075822,82.075822 0 0 1 21.50572,2.89277 72.852003,72.852003 0 0 1 19.18782,8.09977 v -26.22782 a 87.958715,87.958715 0 0 0 -19.09232,-6.74981 93.790182,93.790182 0 0 0 -21.59938,-2.5089 74.380123,74.380123 0 0 0 -28.92775,5.11332 42.425524,42.425524 0 0 0 -18.80211,14.55938 38.186462,38.186462 0 0 0 -6.6543,22.56548 37.574847,37.574847 0 0 0 3.08379,15.90934 30.92973,30.92973 0 0 0 9.06402,11.38008 58.494658,58.494658 0 0 0 14.65673,8.19528 143.22816,143.22816 0 0 0 20.05841,6.17125 128.67062,128.67062 0 0 1 12.53535,3.76153 24.086252,24.086252 0 0 1 8.96669,5.39801 12.656578,12.656578 0 0 1 3.37582,9.35422 13.938582,13.938582 0 0 1 -6.84715,12.34251 q -6.84716,4.43742 -19.95923,4.43742 a 82.928043,82.928043 0 0 1 -43.77732,-12.53719 v 26.61352 a 86.011832,86.011832 0 0 0 21.30919,7.90692 101.60343,101.60343 0 0 0 22.46813,2.50523 82.309081,82.309081 0 0 0 30.66341,-5.10965 z m 137.11568,-1.92851 a 47.784963,47.784963 0 0 0 20.34677,-20.34493 q 7.03816,-13.30493 7.04184,-32.01154 v -81.38523 h -29.70283 v 84.66187 q 0,14.65673 -7.61672,22.4663 -7.62223,7.81325 -21.69489,7.81325 -14.08184,0 -21.69673,-7.81325 -7.62223,-7.80957 -7.61856,-22.4663 v -84.66187 h -29.69915 v 81.38523 q 0,18.70661 7.04,32.01154 a 47.926388,47.926388 0 0 0 20.24759,20.34493 q 13.20942,7.03816 31.72685,7.03816 a 66.770748,66.770748 0 0 0 31.62583,-7.03816 z m 104.33274,-45.99604 h 2.89461 q 14.84774,24.69052 28.7349,50.1451 h 34.1329 q -8.48547,-14.46387 -16.96911,-28.25552 -8.49098,-13.78613 -17.16379,-27.48044 a 41.362085,41.362085 0 0 0 18.41641,-14.85141 40.930465,40.930465 0 0 0 6.46145,-23.33138 q 0,-21.21919 -14.56122,-32.5956 -14.56489,-11.37641 -41.7533,-11.37641 h -50.33244 v 137.89076 h 29.31345 V 277.00108 Z M 415.33815,212.59046 H 434.818 q 13.6888,0 20.73064,5.01415 7.03816,5.01781 7.04,15.62465 0,10.60501 -7.13735,15.52364 -7.13551,4.91496 -20.82797,4.91864 h -19.28517 z m 151.77241,64.41245 h 2.89461 q 14.84774,24.69052 28.73489,50.1451 h 34.13658 q -8.48731,-14.46387 -16.97094,-28.25552 -8.49282,-13.78613 -17.16564,-27.48044 a 41.385962,41.385962 0 0 0 18.41825,-14.85141 40.930465,40.930465 0 0 0 6.46329,-23.33138 q 0,-21.21919 -14.56489,-32.5956 -14.56489,-11.37641 -41.7533,-11.37641 h -50.33244 v 137.89076 h 29.31345 v -50.14693 z m -20.82798,-64.41245 h 19.47985 q 13.6888,0 20.73064,5.01415 7.03816,5.01781 7.04,15.62465 0,10.60501 -7.13735,15.52364 -7.13551,4.91496 -20.82798,4.91864 h -19.28516 z m 101.63833,114.55755 h 98.54535 v -24.69052 h -68.84804 v -33.94005 h 57.85549 v -24.68501 h -57.85549 v -29.892 h 65.18386 v -24.68501 h -94.88117 z m 213.48489,-94.883 q 12.9174,-21.41021 25.4565,-43.00776 h -32.9795 q -8.09978,15.23896 -16.3924,30.37505 -8.29446,15.14161 -16.97095,30.18037 -8.48731,-14.85141 -16.87544,-30.08669 -8.38629,-15.22977 -16.2932,-30.47056 h -33.74904 q 12.33699,21.59938 25.26356,43.00775 12.91739,21.4102 26.42068,42.62021 v 52.26463 h 29.69731 v -52.26463 q 13.49962,-21.21184 26.42248,-42.62021 z" id="path4" inkscape:connector-curvature="0" style="fill:#9647e6;stroke-width:1.83668232"/>   <path d="M 0,0 V 137.75117 H 137.75117 V 0 Z m 95.3734,97.215594 a 22.506705,22.506705 0 0 1 -10.06134,7.693866 40.910262,40.910262 0 0 1 -15.69996,2.7091 H 38.74298 V 30.13261 h 29.07835 q 12.8531,0 19.91331,5.14822 a 17.196856,17.196856 0 0 1 7.06021,14.792639 17.779085,17.779085 0 0 1 -2.52911,9.591155 17.415422,17.415422 0 0 1 -7.48081,6.446755 20.655329,20.655329 0 0 1 10.48378,7.207141 19.623114,19.623114 0 0 1 3.6348,11.975169 20.093304,20.093304 0 0 1 -3.53011,11.920068 z M 75.67131,59.339531 a 9.0970874,9.0970874 0 0 0 3.21419,-7.423869 q 0,-9.209125 -12.53903,-9.210962 H 54.4411 v 19.288837 h 11.90537 a 14.307755,14.307755 0 0 0 9.32484,-2.654006 z M 68.34846,74.130334 H 54.4411 v 20.916138 h 13.69614 a 18.78375,18.78375 0 0 0 10.85296,-2.654006 8.7554645,8.7554645 0 0 0 3.79274,-7.640598 q 0,-10.619697 -14.43632,-10.621534 z M 172.18897,0 V 137.75117 H 309.94014 V 0 Z m 95.3734,97.215594 a 22.506705,22.506705 0 0 1 -10.06135,7.693866 40.910262,40.910262 0 0 1 -15.69996,2.7091 H 210.93194 V 30.13261 h 29.07836 q 12.8531,0 19.91331,5.14822 a 17.196856,17.196856 0 0 1 7.0602,14.792639 17.779085,17.779085 0 0 1 -2.52911,9.591155 17.415422,17.415422 0 0 1 -7.48081,6.446755 20.655329,20.655329 0 0 1 10.48379,7.207141 19.623114,19.623114 0 0 1 3.63479,11.975169 20.093304,20.093304 0 0 1 -3.5301,11.920068 z M 247.86028,59.339531 a 9.0970874,9.0970874 0 0 0 3.21419,-7.423869 q 0,-9.209125 -12.53903,-9.210962 h -11.90537 v 19.288837 h 11.90537 a 14.307755,14.307755 0 0 0 9.32484,-2.654006 z m -7.32286,14.790803 h -13.90735 v 20.916138 h 13.69614 a 18.78375,18.78375 0 0 0 10.85295,-2.654006 8.7554645,8.7554645 0 0 0 3.79275,-7.640598 q 0,-10.619697 -14.43632,-10.621534 z M 344.37793,137.75117 H 482.1291 V 0 H 344.37793 Z m 98.93289,-35.0439 a 44.952799,44.952799 0 0 1 -11.15417,4.19499 56.4339,56.4339 0 0 1 -13.3435,1.54097 48.650041,48.650041 0 0 1 -16.73401,-2.7091 34.176984,34.176984 0 0 1 -12.5776,-7.805903 33.828015,33.828015 0 0 1 -7.87385,-12.482093 47.601295,47.601295 0 0 1 -2.73666,-16.623812 44.456895,44.456895 0 0 1 2.84686,-16.306065 34.82717,34.82717 0 0 1 8.20078,-12.480257 36.127541,36.127541 0 0 1 12.85127,-7.967527 48.273521,48.273521 0 0 1 16.78727,-2.760534 54.055397,54.055397 0 0 1 12.19558,1.327921 45.296259,45.296259 0 0 1 10.66377,3.8754 v 15.084672 a 35.738164,35.738164 0 0 0 -9.73441,-4.514565 39.069906,39.069906 0 0 0 -11.04581,-1.53914 28.837749,28.837749 0 0 0 -13.61716,2.973589 20.368807,20.368807 0 0 0 -8.63976,8.60302 28.744078,28.744078 0 0 0 -3.00665,13.701649 29.970982,29.970982 0 0 0 2.89829,13.756751 19.799435,19.799435 0 0 0 8.42119,8.65812 27.917571,27.917571 0 0 0 13.39676,2.975426 41.518203,41.518203 0 0 0 22.20181,-6.268597 z M 559.31017,82.986816 v 37.554644 h -21.9557 V 17.264813 h 37.69974 q 20.36697,0 31.27319,8.522206 10.90254,8.522206 10.90438,24.409508 a 29.285899,29.285899 0 0 1 -18.63314,28.600817 q 6.50002,10.25787 12.85677,20.581862 6.35493,10.329504 12.70985,21.162254 h -25.56662 q -10.3993,-19.0666 -21.52224,-37.556481 h -17.76623 z m 0,-17.477869 h 14.4455 q 10.2542,0 15.59895,-3.684384 5.34291,-3.682548 5.34474,-11.626199 0,-7.943651 -5.27311,-11.699667 -5.27312,-3.756015 -15.52731,-3.756015 h -14.58877 z m 152.53095,55.032513 q -3.75785,-11.40947 -7.51203,-22.389158 h -41.88737 q -3.75786,11.124788 -7.51204,22.389158 H 631.0969 q 9.82074,-27.153512 20.00698,-53.010325 10.18256,-25.853141 20.58186,-50.266322 h 23.97788 q 10.68766,25.713553 20.87206,51.638323 10.18073,25.928444 19.71679,51.638324 z M 668.79847,79.664258 h 29.03244 q -3.46766,-10.1091 -7.1502,-20.148405 -3.68439,-10.039305 -7.29531,-19.718621 -7.51203,19.792088 -14.58693,39.867026 z m 80.01874,-62.399445 h 39.43357 a 59.747275,59.747275 0 0 1 27.94879,6.066562 40.994749,40.994749 0 0 1 17.6946,17.549499 58.858321,58.858321 0 0 1 6.06656,27.805534 59.165047,59.165047 0 0 1 -6.13819,27.950631 41.740442,41.740442 0 0 1 -17.6946,17.764391 59.041989,59.041989 0 0 1 -28.02226,6.14003 h -39.28847 z m 38.1332,84.211887 q 14.43999,0 22.17243,-8.452415 7.72325,-8.448739 7.72692,-24.337877 0,-15.740368 -7.58366,-24.049518 -7.58183,-8.305478 -22.17243,-8.305478 h -16.0324 V 101.47486 Z M 857.58,17.264813 h 22.2459 V 120.54146 H 857.58 Z m 91.1454,-2.167284 a 56.938988,56.938988 0 0 1 21.1586,3.756015 45.237485,45.237485 0 0 1 16.1811,10.761121 47.74272,47.74272 0 0 1 10.324,16.899314 70.546967,70.546967 0 0 1 0,44.561586 48.323111,48.323111 0 0 1 -10.3258,17.044415 44.736071,44.736071 0 0 1 -16.1775,10.83275 61.492123,61.492123 0 0 1 -42.3208,0 44.710357,44.710357 0 0 1 -16.1794,-10.83275 48.293724,48.293724 0 0 1 -10.3276,-17.044415 70.546967,70.546967 0 0 1 0,-44.561586 47.717006,47.717006 0 0 1 10.3276,-16.899314 45.211772,45.211772 0 0 1 16.1794,-10.761121 56.922458,56.922458 0 0 1 21.1585,-3.756016 z m 0,88.254421 a 27.296772,27.296772 0 0 0 15.1655,-4.114169 25.867834,25.867834 0 0 0 9.6793,-11.773133 53.928666,53.928666 0 0 0 0,-37.266284 25.436213,25.436213 0 0 0 -9.6793,-11.699667 30.455866,30.455866 0 0 0 -30.3328,0 25.401316,25.401316 0 0 0 -9.6775,11.699667 53.906626,53.906626 0 0 0 0,37.266284 25.8311,25.8311 0 0 0 9.6775,11.773133 27.283916,27.283916 0 0 0 15.1673,4.114169 z" id="path6" inkscape:connector-curvature="0" style="stroke-width:1.83668232" fill="#fff"/> </svg>