<svg xmlns:dc="http://purl.org/dc/elements/1.1/" xmlns:cc="http://creativecommons.org/ns#" xmlns:rdf="http://www.w3.org/1999/02/22-rdf-syntax-ns#" xmlns:svg="http://www.w3.org/2000/svg" xmlns="http://www.w3.org/2000/svg" xmlns:sodipodi="http://sodipodi.sourceforge.net/DTD/sodipodi-0.dtd" xmlns:inkscape="http://www.inkscape.org/namespaces/inkscape" version="1.1" id="svg8" sodipodi:docname="BBC_Radio_London_(2022).svg" inkscape:version="0.92.4 (5da689c313, 2019-01-14)" viewBox="0 0 1000 330.04">   <metadata id="metadata14">     <rdf:rdf>       <cc:work rdf:about="">         <dc:format>image/svg+xml</dc:format>         <dc:type rdf:resource="http://purl.org/dc/dcmitype/StillImage"/>         <dc:title/>       </cc:work>     </rdf:rdf>   </metadata>   <defs id="defs12"/>   <sodipodi:namedview pagecolor="#ffffff" bordercolor="#111111" borderopacity="1" objecttolerance="10" gridtolerance="10" guidetolerance="10" inkscape:pageopacity="0" inkscape:pageshadow="2" inkscape:window-width="1920" inkscape:window-height="1017" id="namedview10" showgrid="false" fit-margin-top="0" fit-margin-left="0" fit-margin-right="0" fit-margin-bottom="0" inkscape:zoom="0.39404762" inkscape:cx="272.23" inkscape:cy="89.847" inkscape:window-x="1912" inkscape:window-y="-8" inkscape:window-maximized="1" inkscape:current-layer="svg8"/>   <path d="m 90.77254,327.14811 h 95.07589 v -25.84213 h -65.3804 V 189.25731 H 90.7707 Z m 142.22905,-135.7676 a 60.338705,60.338705 0 0 0 -21.60307,14.36654 63.681468,63.681468 0 0 0 -13.78797,22.56365 94.18326,94.18326 0 0 0 0,59.49566 64.473079,64.473079 0 0 0 13.78797,22.75651 59.684846,59.684846 0 0 0 21.60123,14.46387 82.108907,82.108907 0 0 0 56.50555,0 59.719743,59.719743 0 0 0 21.59939,-14.46387 64.511649,64.511649 0 0 0 13.78798,-22.75651 94.18326,94.18326 0 0 0 0,-59.49566 63.720039,63.720039 0 0 0 -13.78798,-22.56365 60.375439,60.375439 0 0 0 -21.59939,-14.36837 82.088704,82.088704 0 0 0 -56.50555,0 z m 8.00059,107.32106 a 34.474537,34.474537 0 0 1 -12.91923,-15.7165 71.970418,71.970418 0 0 1 0,-49.75574 33.905166,33.905166 0 0 1 12.91923,-15.62282 40.660485,40.660485 0 0 1 40.49886,0 33.958429,33.958429 0 0 1 12.9229,15.62282 72.010825,72.010825 0 0 1 0,49.75574 34.529638,34.529638 0 0 1 -12.9229,15.7165 40.04887,40.04887 0 0 1 -40.49886,0 z m 226.79176,28.44654 v -137.8908 h -28.54205 v 94.30632 Q 424.20946,259.459 409.07152,236.02476 393.9299,212.59236 378.31259,189.25731 h -30.08487 v 137.8908 h 28.54022 v -95.26874 q 15.04427,22.75834 30.47057,46.95847 15.4263,24.20748 30.47057,48.31027 z m 26.61354,0 h 52.45566 q 21.98326,0 37.41323,-8.19711 a 55.717611,55.717611 0 0 0 23.62341,-23.72076 q 8.19528,-15.51997 8.19896,-37.31589 0,-21.7904 -8.10345,-37.12487 a 54.723966,54.723966 0 0 0 -23.62341,-23.4324 q -15.52548,-8.09977 -37.31773,-8.09977 h -52.64667 z m 29.69916,-25.45642 v -86.97796 h 21.40654 q 19.47618,0 29.60365,11.08989 10.1238,11.09357 10.1238,32.11073 0,21.21552 -10.31849,32.49459 -10.31848,11.28275 -29.60365,11.28091 z m 148.786,-110.31118 a 60.338705,60.338705 0 0 0 -21.60122,14.36654 63.681468,63.681468 0 0 0 -13.78982,22.56365 94.18326,94.18326 0 0 0 0,59.49566 64.473079,64.473079 0 0 0 13.78982,22.75651 59.684846,59.684846 0 0 0 21.59939,14.46387 82.108907,82.108907 0 0 0 56.50738,0 59.719743,59.719743 0 0 0 21.59939,-14.46387 64.511649,64.511649 0 0 0 13.78798,-22.75651 94.18326,94.18326 0 0 0 0,-59.49566 63.720039,63.720039 0 0 0 -13.78981,-22.56365 60.375439,60.375439 0 0 0 -21.5994,-14.36837 82.088704,82.088704 0 0 0 -56.50371,0 z m 8.00059,107.32106 a 34.476374,34.476374 0 0 1 -12.91922,-15.7165 71.970418,71.970418 0 0 1 0,-49.75574 33.905166,33.905166 0 0 1 12.91922,-15.62282 40.660485,40.660485 0 0 1 40.49886,0 33.958429,33.958429 0 0 1 12.9229,15.62282 72.010825,72.010825 0 0 1 0,49.75574 34.531474,34.531474 0 0 1 -12.92106,15.7165 40.04887,40.04887 0 0 1 -40.49886,0 z m 228.33637,28.44654 v -137.8908 h -28.542 v 94.30632 Q 865.6415,259.459 850.50539,236.02476 835.36377,212.59236 819.74462,189.25731 h -30.08486 v 137.8908 h 28.54205 v -95.26874 q 15.04427,22.75834 30.47057,46.95847 15.42442,24.20748 30.47052,48.31027 z" id="path4" inkscape:connector-curvature="0" style="fill:#9647e6;stroke-width:1.83668292"/>   <path d="M 0,0.0018367 V 137.75305 H 137.75121 V 0.0018367 Z M 95.37343,97.215624 a 22.506712,22.506712 0 0 1 -10.06135,7.695706 40.910274,40.910274 0 0 1 -15.69996,2.70726 H 38.74299 V 30.134456 h 29.07836 q 12.85311,0 19.91332,5.146385 a 17.196862,17.196862 0 0 1 7.06021,14.792644 17.77909,17.77909 0 0 1 -2.52912,9.591158 17.415427,17.415427 0 0 1 -7.48081,6.446757 20.655335,20.655335 0 0 1 10.48379,7.207143 19.62312,19.62312 0 0 1 3.6348,11.975172 20.093311,20.093311 0 0 1 -3.53011,11.920072 z M 75.67133,59.337713 a 9.0970902,9.0970902 0 0 0 3.2142,-7.423872 q 0,-9.209128 -12.53903,-9.210965 H 54.44112 V 61.993557 H 66.3465 a 14.307759,14.307759 0 0 0 9.32483,-2.655844 z M 68.34848,74.130357 H 54.44112 v 20.916144 h 13.69614 a 18.783756,18.783756 0 0 0 10.85296,-2.655843 8.7554672,8.7554672 0 0 0 3.79275,-7.640601 q 0,-10.617863 -14.43633,-10.6197 z M 172.18902,0 V 137.75121 H 309.94023 V 0 Z m 95.37343,97.213787 a 22.506712,22.506712 0 0 1 -10.06135,7.695703 40.910274,40.910274 0 0 1 -15.69996,2.70727 H 210.93201 V 30.134456 h 29.07836 q 12.85311,0 19.91332,5.146385 a 17.196862,17.196862 0 0 1 7.0602,14.792644 17.77909,17.77909 0 0 1 -2.52911,9.591158 17.415427,17.415427 0 0 1 -7.48081,6.446757 20.655335,20.655335 0 0 1 10.48379,7.207143 19.62312,19.62312 0 0 1 3.63479,11.975172 20.093311,20.093311 0 0 1 -3.5301,11.920072 z m -19.7021,-37.876074 a 9.0970902,9.0970902 0 0 0 3.2142,-7.423872 q 0,-9.209128 -12.53904,-9.210965 h -11.90537 v 19.290681 h 11.90537 a 14.307759,14.307759 0 0 0 9.32484,-2.655844 z m -7.32285,14.792644 h -13.90736 v 20.916144 h 13.69614 a 18.783756,18.783756 0 0 0 10.85296,-2.655843 8.7554672,8.7554672 0 0 0 3.79275,-7.640601 q 0,-10.617863 -14.43633,-10.6197 z M 344.37804,137.75121 H 482.12925 V 0 H 344.37804 Z m 98.93476,-35.0439 a 44.952813,44.952813 0 0 1 -11.15602,4.19498 56.433918,56.433918 0 0 1 -13.3435,1.53914 48.650056,48.650056 0 0 1 -16.73218,-2.70727 34.176995,34.176995 0 0 1 -12.57944,-7.80774 33.828025,33.828025 0 0 1 -7.87386,-12.482097 47.60131,47.60131 0 0 1 -2.73666,-16.62198 44.456909,44.456909 0 0 1 2.84686,-16.30607 34.82718,34.82718 0 0 1 8.20079,-12.482097 36.127552,36.127552 0 0 1 12.85127,-7.965693 48.273536,48.273536 0 0 1 16.78728,-2.762371 54.055413,54.055413 0 0 1 12.19558,1.327921 45.296273,45.296273 0 0 1 10.66378,3.877238 v 15.08284 a 35.738175,35.738175 0 0 0 -9.73442,-4.51273 39.068081,39.068081 0 0 0 -11.04581,-1.540977 28.837758,28.837758 0 0 0 -13.61717,2.975426 20.368813,20.368813 0 0 0 -8.63975,8.603023 28.744087,28.744087 0 0 0 -3.00665,13.701654 29.970991,29.970991 0 0 0 2.89828,13.756754 19.799441,19.799441 0 0 0 8.42119,8.658123 27.91758,27.91758 0 0 0 13.3986,2.97359 41.518216,41.518216 0 0 0 22.20183,-6.266762 z M 559.31034,82.985005 V 120.53966 H 537.35463 V 17.262982 h 37.69975 q 20.36698,0 31.2732,8.522209 10.90255,8.524045 10.90439,24.409515 a 29.285908,29.285908 0 0 1 -18.63315,28.600825 q 6.50002,10.259711 12.85678,20.583705 6.35492,10.329504 12.70985,21.160424 h -25.56663 q -10.3993,-19.06477 -21.52225,-37.554655 z m 0,-17.477874 h 14.44551 q 10.2542,0 15.59895,-3.682549 5.34291,-3.682549 5.34474,-11.628039 0,-7.941817 -5.27311,-11.69967 -5.27312,-3.75418 -15.52732,-3.756017 h -14.58877 z m 152.531,55.032529 q -3.75785,-11.40764 -7.51203,-22.389165 h -41.88739 q -3.75786,11.126625 -7.51203,22.389165 h -23.8328 q 9.82074,-27.15352 20.00698,-53.010341 10.18257,-25.853148 20.58187,-50.266337 h 23.9779 q 10.68766,25.71356 20.87206,51.640175 10.18073,25.926616 19.71679,51.636503 z M 668.79868,79.662446 h 29.03244 q -3.46765,-10.107266 -7.1502,-20.148411 -3.68439,-10.037472 -7.29531,-19.716791 -7.51203,19.790258 -14.58693,39.865202 z m 80.01876,-62.399464 h 39.43358 a 59.747294,59.747294 0 0 1 27.9488,6.066564 40.994761,40.994761 0 0 1 17.69461,17.551341 58.858339,58.858339 0 0 1 6.06656,27.803705 59.165065,59.165065 0 0 1 -6.13819,27.95064 41.740455,41.740455 0 0 1 -17.69461,17.766228 59.042007,59.042007 0 0 1 -28.02227,6.1382 h -39.28848 z m 38.13321,84.211908 q 14.44184,0 22.17243,-8.450577 7.72326,-8.448741 7.72693,-24.339721 0,-15.740372 -7.58366,-24.049525 -7.58183,-8.303643 -22.17244,-8.30548 H 771.06334 V 101.47489 Z M 857.5803,17.262982 h 22.2459 V 120.53966 h -22.2459 z m 91.1454,-2.167286 a 56.939005,56.939005 0 0 1 21.1586,3.757853 45.237499,45.237499 0 0 1 16.1811,10.759289 47.742734,47.742734 0 0 1 10.324,16.901155 70.546989,70.546989 0 0 1 0,44.559763 48.323126,48.323126 0 0 1 -10.3258,17.044414 44.736084,44.736084 0 0 1 -16.1775,10.83276 61.492142,61.492142 0 0 1 -42.3208,0 44.710371,44.710371 0 0 1 -16.1794,-10.83276 48.293739,48.293739 0 0 1 -10.3277,-17.044414 70.546989,70.546989 0 0 1 0,-44.559763 47.717021,47.717021 0 0 1 10.3277,-16.901155 45.211785,45.211785 0 0 1 16.1794,-10.759289 56.922475,56.922475 0 0 1 21.1585,-3.756016 z m 0,88.256284 a 27.296781,27.296781 0 0 0 15.1655,-4.116005 25.867841,25.867841 0 0 0 9.6793,-11.773137 53.928682,53.928682 0 0 0 0,-37.266295 25.436221,25.436221 0 0 0 -9.6793,-11.69967 30.455875,30.455875 0 0 0 -30.3329,0 25.401324,25.401324 0 0 0 -9.6774,11.69967 53.906642,53.906642 0 0 0 0,37.266295 25.831108,25.831108 0 0 0 9.6774,11.773137 27.283924,27.283924 0 0 0 15.1674,4.114175 z" id="path6" inkscape:connector-curvature="0" style="stroke-width:1.83668292" fill="#fff"/> </svg>