<svg xmlns:dc="http://purl.org/dc/elements/1.1/" xmlns:cc="http://creativecommons.org/ns#" xmlns:rdf="http://www.w3.org/1999/02/22-rdf-syntax-ns#" xmlns:svg="http://www.w3.org/2000/svg" xmlns="http://www.w3.org/2000/svg" xmlns:sodipodi="http://sodipodi.sourceforge.net/DTD/sodipodi-0.dtd" xmlns:inkscape="http://www.inkscape.org/namespaces/inkscape" version="1.1" id="svg8" sodipodi:docname="blocks-colour_default.svg" inkscape:version="0.92.4 (5da689c313, 2019-01-14)" viewBox="0 0 1000 311.13">   <metadata id="metadata14">     <rdf:rdf>       <cc:work rdf:about="">         <dc:format>image/svg+xml</dc:format>         <dc:type rdf:resource="http://purl.org/dc/dcmitype/StillImage"/>         <dc:title/>       </cc:work>     </rdf:rdf>   </metadata>   <defs id="defs12"/>   <sodipodi:namedview pagecolor="#ffffff" bordercolor="#111111" borderopacity="1" objecttolerance="10" gridtolerance="10" guidetolerance="10" inkscape:pageopacity="0" inkscape:pageshadow="2" inkscape:window-width="1920" inkscape:window-height="1017" id="namedview10" showgrid="false" fit-margin-top="0" fit-margin-left="0" fit-margin-right="0" fit-margin-bottom="0" inkscape:zoom="0.39404762" inkscape:cx="745.60058" inkscape:cy="-21.800847" inkscape:window-x="1912" inkscape:window-y="-8" inkscape:window-maximized="1" inkscape:current-layer="svg8"/>   <path d="m 97.52842,250.84054 a 35.681762,35.681762 0 0 0 -18.08846,-12.08956 29.821366,29.821366 0 0 0 12.90673,-10.81706 29.19291,29.19291 0 0 0 4.36283,-16.08709 q 0,-16.17885 -12.17958,-24.81622 -12.18131,-8.63045 -34.35906,-8.63392 H 0 v 129.97788 h 53.26295 a 72.371132,72.371132 0 0 0 27.08421,-4.54462 38.730553,38.730553 0 0 0 17.36478,-12.90846 33.046748,33.046748 0 0 0 6.08892,-19.99633 32.276327,32.276327 0 0 0 -6.27071,-20.08462 z M 27.08594,199.48373 h 20.54168 q 21.63066,0 21.63239,15.45344 a 15.072558,15.072558 0 0 1 -5.54357,12.4514 q -5.55049,4.45632 -16.08882,4.45286 H 27.08594 Z m 0,52.71933 h 23.99559 q 24.90106,0 24.90452,17.81491 a 14.554904,14.554904 0 0 1 -6.54425,12.81497 q -6.54425,4.45632 -18.72557,4.45459 H 27.08421 Z m 93.07555,56.17151 h 92.89031 v -23.26846 h -64.89718 v -31.99413 h 54.53545 v -23.26845 h -54.53545 v -28.17838 h 61.44327 v -23.26846 h -89.4364 z m 158.15279,-47.26405 h 2.72678 q 13.9957,23.27018 27.08593,47.26405 h 32.17418 q -7.99853,-13.63386 -15.9936,-26.63234 -8.00372,-12.99329 -16.18058,-25.90347 a 38.99544,38.99544 0 0 0 17.35959,-13.99743 38.592051,38.592051 0 0 0 6.09065,-21.99597 q 0,-19.99806 -13.72561,-30.72336 -13.72909,-10.72358 -39.35555,-10.72531 h -47.44584 v 129.97788 h 27.63129 v -47.26405 z m -19.63276,-60.71786 h 18.36027 q 12.90326,0 19.541,4.7264 6.63428,4.72987 6.63601,14.7263 0,9.9999 -6.72777,14.63281 -6.72603,4.63638 -19.63276,4.63638 h -18.17848 z m 154.5171,80.16883 q 11.45417,13.63386 22.90488,27.81308 h 35.62983 q -14.90809,-17.81318 -29.5409,-34.81093 -14.63454,-16.99774 -29.53917,-33.90373 13.9957,-15.44825 27.44951,-30.63161 13.45208,-15.17643 26.54058,-30.63161 h -33.63019 q -10.36,12.72494 -20.99701,24.99628 -10.63182,12.27134 -22.26604,25.35985 h -7.27313 v -50.35613 h -27.99486 v 129.97788 h 27.99486 v -55.98973 h 6.72777 q 12.54142,14.54279 23.99387,28.17665 z m 138.33651,25.72169 a 39.492318,39.492318 0 0 0 18.362,-13.9957 37.80951,37.80951 0 0 0 6.36247,-22.08772 36.779396,36.779396 0 0 0 -3.36389,-16.54242 29.899274,29.899274 0 0 0 -9.45281,-11.08888 56.03993,56.03993 0 0 0 -14.08919,-7.18136 q -7.99853,-2.8168 -17.26956,-5.18 -7.27139,-1.81439 -12.63317,-3.72746 a 21.235929,21.235929 0 0 1 -8.27208,-4.90646 11.121768,11.121768 0 0 1 -2.90856,-8.09029 12.150151,12.150151 0 0 1 6.09066,-10.90882 q 6.08719,-3.81748 17.1778,-3.81748 a 77.419556,77.419556 0 0 1 20.26987,2.72678 68.669647,68.669647 0 0 1 18.08846,7.63496 v -24.72274 a 82.911189,82.911189 0 0 0 -17.9967,-6.36247 88.340495,88.340495 0 0 0 -20.36163,-2.3632 70.134313,70.134313 0 0 0 -27.26772,4.81643 39.990928,39.990928 0 0 0 -17.72316,13.72562 35.993393,35.993393 0 0 0 -6.27071,21.27056 35.427264,35.427264 0 0 0 2.90683,14.99638 29.166941,29.166941 0 0 0 8.54389,10.7253 55.139663,55.139663 0 0 0 13.81564,7.72672 135.00725,135.00725 0 0 0 18.90562,5.81712 121.65386,121.65386 0 0 1 11.81602,3.54394 22.690208,22.690208 0 0 1 8.45385,5.08997 11.925084,11.925084 0 0 1 3.1821,8.81743 13.140445,13.140445 0 0 1 -6.45422,11.63423 q -6.45596,4.18451 -18.8156,4.18105 a 78.167471,78.167471 0 0 1 -41.26342,-11.81601 v 25.0863 a 80.975613,80.975613 0 0 0 20.08463,7.45318 95.849074,95.849074 0 0 0 21.17879,2.3632 77.585759,77.585759 0 0 0 28.90379,-4.81816 z m 155.42775,2.09139 V 178.39669 h -27.99486 v 49.80904 h -56.53681 v -49.80904 h -27.99486 v 129.97788 h 27.99486 V 252.5649 h 56.53681 v 55.80967 z m 25.0863,0 h 27.99486 V 178.39669 h -27.99486 z m 98.88921,-47.26405 h 2.7285 q 13.9957,23.27018 27.08767,47.26405 h 32.17414 q -7.9985,-13.63386 -15.9936,-26.63234 -8.0037,-12.99329 -16.18054,-25.90347 a 38.99544,38.99544 0 0 0 17.35954,-13.99743 38.592051,38.592051 0 0 0 6.0907,-21.99597 q 0,-19.99806 -13.7239,-30.72336 -13.72907,-10.72358 -39.36072,-10.72531 h -47.44411 v 129.97788 h 27.63129 v -47.26405 z m -19.63276,-60.71786 h 18.362 q 12.90326,0 19.541,4.7264 6.63428,4.72987 6.63601,14.7263 0,9.9999 -6.72777,14.63281 -6.72604,4.63638 -19.63276,4.63638 H 811.30563 Z M 907.108,308.37284 H 1000 v -23.26846 h -64.8989 v -31.9924 h 54.5354 v -23.26845 h -54.5354 v -28.17838 h 61.4433 V 178.39669 H 907.108 Z" id="path4" inkscape:connector-curvature="0" style="fill:#9647e6;stroke-width:1.7312839"/>   <path d="M 28.69257,0.001731 V 129.84803 h 129.8463 V 0.001731 Z m 89.90038,91.635128 a 21.215154,21.215154 0 0 1 -9.48397,7.25408 38.562619,38.562619 0 0 1 -14.79902,2.551911 H 65.21227 V 28.405176 h 27.40969 q 12.11553,0 18.77058,4.851058 a 16.210012,16.210012 0 0 1 6.65506,13.94376 16.758829,16.758829 0 0 1 -2.38398,9.040765 16.416034,16.416034 0 0 1 -7.05152,6.076807 19.470019,19.470019 0 0 1 9.88217,6.795289 18.497038,18.497038 0 0 1 3.42621,11.287972 18.940246,18.940246 0 0 1 -3.32753,11.236032 z M 100.02147,55.932591 a 8.5750494,8.5750494 0 0 0 3.02974,-6.99785 q 0,-8.680658 -11.81947,-8.682389 H 80.00956 v 18.183675 h 11.22218 a 13.486702,13.486702 0 0 0 8.78973,-2.503436 z M 93.11884,69.876352 H 80.00956 v 19.715857 h 12.91018 a 17.705841,17.705841 0 0 0 10.23016,-2.503432 8.2530306,8.2530306 0 0 0 3.5751,-7.202141 q 0,-10.008553 -13.60789,-10.010284 z M 191.00044,0 v 129.8463 h 129.8463 V 0 Z m 89.90038,91.635129 a 21.215154,21.215154 0 0 1 -9.48397,7.25408 38.562619,38.562619 0 0 1 -14.79902,2.551911 H 227.52014 V 28.405176 h 27.40969 q 12.11553,0 18.77058,4.851058 a 16.210012,16.210012 0 0 1 6.65506,13.94376 16.758829,16.758829 0 0 1 -2.38398,9.040765 16.416034,16.416034 0 0 1 -7.05152,6.076807 19.470019,19.470019 0 0 1 9.88217,6.795289 18.497038,18.497038 0 0 1 3.42621,11.287972 18.940246,18.940246 0 0 1 -3.32753,11.236032 z M 262.32934,55.932591 a 8.5750494,8.5750494 0 0 0 3.02975,-6.99785 q 0,-8.680658 -11.81948,-8.682389 h -11.22218 v 18.183675 h 11.22218 a 13.486702,13.486702 0 0 0 8.78973,-2.503436 z m -6.90263,13.943761 h -13.10928 v 19.715857 h 12.91018 a 17.705841,17.705841 0 0 0 10.23016,-2.503432 8.2530306,8.2530306 0 0 0 3.5751,-7.202141 q 0,-10.008553 -13.60789,-10.010284 z m 97.8816,59.969948 h 129.8463 V 0 h -129.8463 z m 93.25734,-33.032901 a 42.373175,42.373175 0 0 1 -10.51582,3.954251 53.195431,53.195431 0 0 1 -12.57777,1.45082 45.858249,45.858249 0 0 1 -15.77373,-2.551911 32.215732,32.215732 0 0 1 -11.85584,-7.35969 31.886788,31.886788 0 0 1 -7.42201,-11.765808 44.869686,44.869686 0 0 1 -2.57961,-15.66812 41.905728,41.905728 0 0 1 2.68349,-15.370339 32.828606,32.828606 0 0 1 7.73018,-11.765806 34.054355,34.054355 0 0 1 12.11379,-7.508578 45.503336,45.503336 0 0 1 15.82394,-2.603851 50.953418,50.953418 0 0 1 11.49572,1.251718 42.696925,42.696925 0 0 1 10.05184,3.654741 v 14.217303 a 33.687323,33.687323 0 0 0 -9.17581,-4.253764 36.826141,36.826141 0 0 0 -10.41194,-1.452548 27.182889,27.182889 0 0 0 -12.83574,2.80468 19.199939,19.199939 0 0 0 -8.14396,8.109335 27.094594,27.094594 0 0 0 -2.83411,12.915378 28.251092,28.251092 0 0 0 2.73197,12.967317 18.663241,18.663241 0 0 0 7.93794,8.159541 26.315516,26.315516 0 0 0 12.62798,2.804681 39.135674,39.135674 0 0 0 20.92776,-5.908873 z M 555.90662,78.222872 V 113.62244 H 535.21085 V 16.272338 h 35.53634 q 19.19821,0 29.47857,8.033157 10.2769,8.034889 10.27863,23.008764 a 27.605323,27.605323 0 0 1 -17.56387,26.959554 q 6.12701,9.670952 12.11898,19.402496 5.99025,9.736741 11.98049,19.946131 H 592.94052 Q 583.13799,95.651709 572.65333,78.222872 Z m 0,-16.474898 h 13.61655 q 9.66576,0 14.70379,-3.471225 5.03631,-3.472955 5.03804,-10.960758 0,-7.486072 -4.97052,-11.028279 -4.97051,-3.538745 -14.63627,-3.540476 h -13.75159 z m 143.77794,51.874466 q -3.54221,-10.75301 -7.08095,-21.104361 H 653.11995 Q 649.57774,103.0062 646.039,113.62244 h -22.46515 q 9.25718,-25.595311 18.85888,-49.968323 9.59824,-24.369553 19.40077,-47.381779 h 22.60191 q 10.07434,24.237975 19.67431,48.67678 9.59651,24.438801 18.58534,48.673322 z M 659.11192,75.090979 h 27.36641 q -3.26867,-9.527256 -6.73989,-18.992185 -3.47296,-9.461467 -6.87666,-18.585333 -7.08095,18.654584 -13.74986,37.577518 z m 75.42685,-58.818641 h 37.17067 a 56.318667,56.318667 0 0 1 26.34494,5.718431 38.642258,38.642258 0 0 1 16.67919,16.544149 55.480726,55.480726 0 0 1 5.71843,26.208177 55.76985,55.76985 0 0 1 -5.78595,26.346684 39.345159,39.345159 0 0 1 -16.67919,16.746701 55.653854,55.653854 0 0 1 -26.4142,5.78596 h -37.03389 z m 35.94492,79.379371 q 13.61135,0 20.90006,-7.96564 7.28005,-7.963905 7.28351,-22.942974 0,-14.837104 -7.14847,-22.669432 -7.14674,-7.827135 -20.90006,-7.828866 h -15.11238 v 61.406912 z m 66.57652,-79.379371 h 20.96931 v 97.350102 h -20.96931 z m 85.91499,-2.042915 a 53.669803,53.669803 0 0 1 19.9444,3.542207 42.641524,42.641524 0 0 1 15.2526,10.141861 45.002995,45.002995 0 0 1 9.7315,15.931275 66.498617,66.498617 0 0 1 0,42.00268 45.550081,45.550081 0 0 1 -9.7333,16.066314 42.168883,42.168883 0 0 1 -15.2491,10.21112 57.963387,57.963387 0 0 1 -39.8922,0 42.144645,42.144645 0 0 1 -15.2509,-10.21112 45.52238,45.52238 0 0 1 -9.735,-16.066314 66.498617,66.498617 0 0 1 0,-42.00268 44.978757,44.978757 0 0 1 9.735,-15.931275 42.617286,42.617286 0 0 1 15.2509,-10.141861 53.655952,53.655952 0 0 1 19.9443,-3.540476 z m 0,83.191656 a 25.730342,25.730342 0 0 0 14.2952,-3.87981 24.383403,24.383403 0 0 0 9.1239,-11.097527 50.833959,50.833959 0 0 0 0,-35.127751 23.976551,23.976551 0 0 0 -9.1239,-11.028279 28.708151,28.708151 0 0 0 -28.5922,0 23.943657,23.943657 0 0 0 -9.1221,11.028279 50.813184,50.813184 0 0 0 0,35.127751 24.348778,24.348778 0 0 0 9.1221,11.097527 25.718223,25.718223 0 0 0 14.297,3.87808 z" id="path6" inkscape:connector-curvature="0" style="stroke-width:1.7312839" fill="#fff"/> </svg>