<svg xmlns:dc="http://purl.org/dc/elements/1.1/" xmlns:cc="http://creativecommons.org/ns#" xmlns:rdf="http://www.w3.org/1999/02/22-rdf-syntax-ns#" xmlns:svg="http://www.w3.org/2000/svg" xmlns="http://www.w3.org/2000/svg" xmlns:sodipodi="http://sodipodi.sourceforge.net/DTD/sodipodi-0.dtd" xmlns:inkscape="http://www.inkscape.org/namespaces/inkscape" version="1.1" id="svg8" sodipodi:docname="blocks-colour_default.svg" inkscape:version="0.92.4 (5da689c313, 2019-01-14)" viewBox="0 0 1000 201.9">   <metadata id="metadata14">     <rdf:rdf>       <cc:work rdf:about="">         <dc:format>image/svg+xml</dc:format>         <dc:type rdf:resource="http://purl.org/dc/dcmitype/StillImage"/>         <dc:title/>       </cc:work>     </rdf:rdf>   </metadata>   <defs id="defs12"/>   <sodipodi:namedview pagecolor="#ffffff" bordercolor="#111111" borderopacity="1" objecttolerance="10" gridtolerance="10" guidetolerance="10" inkscape:pageopacity="0" inkscape:pageshadow="2" inkscape:window-width="1920" inkscape:window-height="1017" id="namedview10" showgrid="false" fit-margin-top="0" fit-margin-left="0" fit-margin-right="0" fit-margin-bottom="0" inkscape:zoom="0.39404762" inkscape:cx="333.782" inkscape:cy="67.395348" inkscape:window-x="1912" inkscape:window-y="-8" inkscape:window-maximized="1" inkscape:current-layer="svg8"/>   <path d="M 0.001498,131.57409 H 26.54401 v 68.53806 h 18.16587 v -68.53806 h 26.544 V 115.76602 H 0 Z m 153.946252,68.53806 v -84.34613 h -18.16886 v 32.32317 H 99.09363 V 115.76602 H 80.92777 v 84.34613 h 18.16586 v -36.21639 h 36.68676 v 36.21639 z m 44.11519,-30.67091 h 1.7706 q 9.08218,15.09953 17.57716,30.67091 h 20.87869 q -5.19046,-8.8485 -10.37942,-17.28206 -5.19346,-8.43357 -10.50077,-16.81021 a 25.305187,25.305187 0 0 0 11.26623,-9.08368 25.044541,25.044541 0 0 0 3.95314,-14.27265 q 0,-12.9784 -8.90693,-19.93796 -8.90842,-6.95807 -25.54036,-6.95957 h -30.78776 v 84.34613 h 17.93069 v -30.67091 z m -12.73873,-39.40107 h 11.91484 q 8.37365,0 12.68031,3.06634 4.30516,3.06934 4.30666,9.55704 0,6.4877 -4.36658,9.49563 -4.36358,3.00792 -12.73873,3.00792 h -11.7965 z m 62.64056,70.07198 h 60.27827 v -15.09952 h -42.1109 v -20.76185 h 35.38951 v -15.09953 h -35.38951 v -18.2857 h 39.87143 v -15.09953 h -58.0373 z m 71.95793,0 h 60.27827 v -15.09952 h -42.1139 v -20.76185 h 35.38951 v -15.09953 h -35.38951 v -18.2857 H 377.96 v -15.09953 h -58.0358 z m 152.17416,0.0599 a 47.675854,47.675854 0 0 0 12.03318,-4.66018 v -16.39826 a 43.82907,43.82907 0 0 1 -23.94653,6.95956 29.38865,29.38865 0 0 1 -14.4509,-3.30302 21.692087,21.692087 0 0 1 -9.08219,-9.61397 34.11624,34.11624 0 0 1 -3.12776,-15.27628 32.708149,32.708149 0 0 1 3.24461,-15.21637 22.304756,22.304756 0 0 1 9.31886,-9.55704 30.363828,30.363828 0 0 1 14.68609,-3.30302 41.042848,41.042848 0 0 1 11.91484,1.71068 38.031931,38.031931 0 0 1 10.49926,5.0137 v -16.75029 a 47.935002,47.935002 0 0 0 -11.5014,-4.30666 56.69063,56.69063 0 0 0 -13.15367,-1.474 50.698755,50.698755 0 0 0 -18.10744,3.06634 38.138286,38.138286 0 0 0 -22.70921,22.70921 50.692763,50.692763 0 0 0 -3.06634,18.10745 54.271411,54.271411 0 0 0 2.9495,18.46246 37.744321,37.744321 0 0 0 8.49348,13.86071 36.7272,36.7272 0 0 0 13.56561,8.67024 51.110696,51.110696 0 0 0 18.04753,3.00792 59.219202,59.219202 0 0 0 14.39248,-1.71068 z m 43.23438,-83.10731 a 36.909952,36.909952 0 0 0 -13.21209,8.78709 38.953181,38.953181 0 0 0 -8.43506,13.80228 57.611881,57.611881 0 0 0 0,36.39315 39.437025,39.437025 0 0 0 8.43356,13.91913 36.508496,36.508496 0 0 0 13.21359,8.847 50.225397,50.225397 0 0 0 34.56413,0 36.530966,36.530966 0 0 0 13.21208,-8.847 39.487956,39.487956 0 0 0 8.43507,-13.91913 57.611881,57.611881 0 0 0 0,-36.39315 39.004112,39.004112 0 0 0 -8.43656,-13.80228 36.930923,36.930923 0 0 0 -13.21209,-8.78859 50.211915,50.211915 0 0 0 -34.56263,0 z m 4.89386,65.64699 a 21.088405,21.088405 0 0 1 -7.90179,-9.61397 44.022308,44.022308 0 0 1 0,-30.43423 20.739378,20.739378 0 0 1 7.90179,-9.55704 24.870776,24.870776 0 0 1 24.77341,0 20.772334,20.772334 0 0 1 7.90478,9.55704 44.047773,44.047773 0 0 1 0,30.43423 21.12136,21.12136 0 0 1 -7.90478,9.61397 24.497782,24.497782 0 0 1 -24.77341,0 z m 120.67787,14.86434 a 29.232862,29.232862 0 0 0 12.44512,-12.44662 41.381389,41.381389 0 0 0 4.30666,-19.58145 v -49.78199 h -18.16736 v 51.78777 q 0,8.96535 -4.65869,13.74237 -4.66317,4.77853 -13.272,4.77853 -8.61332,0 -13.27051,-4.77853 -4.66317,-4.77852 -4.66018,-13.74237 v -51.78776 h -18.16587 v 49.782 a 41.361915,41.361915 0 0 0 4.30517,19.58145 29.32274,29.32274 0 0 0 12.3867,12.44662 45.75396,45.75396 0 0 0 38.75096,0 z m 103.92907,2.53607 v -84.34612 h -17.46032 v 57.68678 q -9.20202,-14.746 -18.46097,-29.08007 -9.26194,-14.33406 -18.81449,-28.60671 h -18.40404 v 84.34613 h 17.45883 v -58.27698 q 9.20202,13.92213 18.63922,28.72505 9.43421,14.80593 18.63773,29.55044 z m 9.67089,-68.53806 h 26.54401 v 68.53806 h 18.16587 v -68.53806 h 26.54251 v -15.80806 h -71.25239 z m 80.92327,68.53806 h 18.16587 V 115.76602 H 835.4262 Z m 33.03022,0 h 60.28128 v -15.09952 h -42.11691 v -20.76185 h 35.39101 v -15.09953 h -35.39101 v -18.2857 h 39.87291 v -15.09952 h -58.03878 z m 115.48888,-1.35717 a 25.627251,25.627251 0 0 0 11.9149,-9.08218 24.536729,24.536729 0 0 0 4.1284,-14.33407 23.867137,23.867137 0 0 0 -2.1826,-10.73444 19.40319,19.40319 0 0 0 -6.1342,-7.19623 36.366189,36.366189 0 0 0 -9.1421,-4.6587 q -5.1919,-1.82751 -11.2078,-3.36294 -4.7186,-1.1774 -8.1969,-2.41772 a 13.781313,13.781313 0 0 1 -5.3687,-3.18468 7.2172138,7.2172138 0 0 1 -1.8874,-5.25038 7.8853079,7.8853079 0 0 1 3.9531,-7.0794 21.001523,21.001523 0 0 1 11.1449,-2.47613 50.240377,50.240377 0 0 1 13.1552,1.7691 44.561577,44.561577 0 0 1 11.7381,4.95378 v -16.04324 a 53.802546,53.802546 0 0 0 -11.6782,-4.12841 57.327267,57.327267 0 0 0 -13.2136,-1.53242 45.512787,45.512787 0 0 0 -17.6955,3.12476 25.950812,25.950812 0 0 0 -11.4999,8.90693 23.35633,23.35633 0 0 0 -4.07,13.80228 22.989328,22.989328 0 0 0 1.8875,9.73231 18.926836,18.926836 0 0 0 5.5424,6.95956 35.781981,35.781981 0 0 0 8.9669,5.0137 87.608707,87.608707 0 0 0 12.2684,3.77488 78.951945,78.951945 0 0 1 7.6681,2.30088 14.725034,14.725034 0 0 1 5.484,3.30302 7.738507,7.738507 0 0 1 2.0672,5.72224 8.5279365,8.5279365 0 0 1 -4.1898,7.54977 q -4.1883,2.71432 -12.2084,2.71282 a 50.725718,50.725718 0 0 1 -26.7777,-7.6696 v 16.28142 a 52.547249,52.547249 0 0 0 13.0323,4.83544 62.20016,62.20016 0 0 0 13.7439,1.53392 50.346732,50.346732 0 0 0 18.7575,-3.12627 z" id="path4" inkscape:connector-curvature="0" style="fill:#9647e6;stroke-width:1.49796879"/>   <path d="m 194.15024,0 v 84.260745 h 84.26075 V 0 Z m 58.3399,59.464865 a 13.766334,13.766334 0 0 1 -6.15516,4.70662 25.023569,25.023569 0 0 1 -9.60198,1.65825 h -18.88339 v -47.39723 h 17.78688 q 7.86284,0 12.18148,3.14873 a 10.518737,10.518737 0 0 1 4.31715,9.04773 10.875254,10.875254 0 0 1 -1.54591,5.86755 10.652056,10.652056 0 0 1 -4.57629,3.94415 12.633869,12.633869 0 0 1 6.41131,4.40852 12.003224,12.003224 0 0 1 2.22448,7.32507 12.289336,12.289336 0 0 1 -2.15857,7.29061 z m -12.05266,-23.16758 a 5.5634562,5.5634562 0 0 0 1.96683,-4.54035 q 0,-5.63386 -7.6696,-5.63535 h -7.28312 v 11.7995 h 7.28312 a 8.7511339,8.7511339 0 0 0 5.70277,-1.6238 z m -4.47893,9.04773 h -8.50696 v 12.79415 h 8.37814 a 11.489421,11.489421 0 0 0 6.63899,-1.6238 5.3552386,5.3552386 0 0 0 2.32036,-4.67366 q 0,-6.49519 -8.83053,-6.49669 z M 299.47692,0.001498 v 84.260747 h 84.26075 V 0.001498 Z m 58.3384,59.463367 a 13.766334,13.766334 0 0 1 -6.15366,4.70662 25.023569,25.023569 0 0 1 -9.60198,1.65825 h -18.88489 v -47.39723 h 17.78838 q 7.86134,0 12.17999,3.14873 a 10.518737,10.518737 0 0 1 4.31864,9.04773 10.875254,10.875254 0 0 1 -1.5474,5.86755 10.652056,10.652056 0 0 1 -4.5763,3.94415 12.633869,12.633869 0 0 1 6.41281,4.40852 12.003224,12.003224 0 0 1 2.22448,7.32507 12.289336,12.289336 0 0 1 -2.16007,7.29061 z m -12.05116,-23.16758 a 5.5634562,5.5634562 0 0 0 1.96534,-4.54035 q 0,-5.63386 -7.6696,-5.63535 h -7.28163 v 11.7995 h 7.28163 a 8.7511339,8.7511339 0 0 0 5.70426,-1.6238 z m -4.47893,9.04773 h -8.50846 v 12.79415 h 8.37964 a 11.489421,11.489421 0 0 0 6.6375,-1.6238 5.3552386,5.3552386 0 0 0 2.32035,-4.67366 q 0,-6.49519 -8.82903,-6.49669 z m 63.51688,38.91723 h 84.26074 V 0.001498 h -84.26074 z m 60.51794,-21.43593 a 27.496716,27.496716 0 0 1 -6.82475,2.56452 34.519194,34.519194 0 0 1 -8.16093,0.94372 29.758649,29.758649 0 0 1 -10.23562,-1.65825 20.905653,20.905653 0 0 1 -7.69357,-4.77553 20.691443,20.691443 0 0 1 -4.81747,-7.63365 29.117518,29.117518 0 0 1 -1.67323,-10.16971 27.194126,27.194126 0 0 1 1.74064,-9.97347 21.304113,21.304113 0 0 1 5.0182,-7.63365 22.099534,22.099534 0 0 1 7.85984,-4.87289 29.527962,29.527962 0 0 1 10.26858,-1.68971 33.064666,33.064666 0 0 1 7.45988,0.8119 27.706431,27.706431 0 0 1 6.52216,2.37128 v 9.22749 a 21.861357,21.861357 0 0 0 -5.95443,-2.76226 23.898595,23.898595 0 0 0 -6.75584,-0.94222 17.640081,17.640081 0 0 0 -8.32871,1.82003 12.460105,12.460105 0 0 0 -5.28633,5.26237 17.583158,17.583158 0 0 0 -1.8395,8.38113 18.332143,18.332143 0 0 0 1.77359,8.41559 12.111078,12.111078 0 0 0 5.15152,5.29532 17.076845,17.076845 0 0 0 8.19389,1.81854 25.396564,25.396564 0 0 0 13.58208,-3.83331 z m 70.95429,-12.06464 v 22.97285 h -13.42929 v -63.17384 h 23.05973 q 12.45861,0 19.12906,5.21293 6.67046,5.21293 6.67046,14.93175 a 17.912711,17.912711 0 0 1 -11.39805,17.49478 q 3.97561,6.27499 7.86434,12.59043 3.88723,6.31693 7.77446,12.94245 h -15.6388 q -6.36187,-11.66169 -13.16415,-22.97135 z m 0,-10.69101 h 8.83502 a 16.789235,16.789235 0 0 0 9.54206,-2.25294 8.0291129,8.0291129 0 0 0 3.27007,-7.11236 8.1878976,8.1878976 0 0 0 -3.22513,-7.1558 q -3.22513,-2.29638 -9.49712,-2.29788 h -8.9249 z m 93.30099,33.66386 q -2.29789,-6.98054 -4.59427,-13.69593 H 599.3583 q -2.29788,6.80527 -4.59427,13.69593 H 580.1858 q 6.00685,-16.60948 12.2384,-32.42654 6.22856,-15.81405 12.58893,-30.7473 h 14.66661 q 6.53714,15.72867 12.76719,31.58617 6.22856,15.86049 12.06015,31.58767 z m -26.3283,-25.0041 h 17.75842 q -2.12113,-6.18362 -4.37407,-12.32529 -2.25295,-6.14167 -4.46095,-12.06164 -4.59577,12.10658 -8.9234,24.38693 z m 48.94613,-38.16825 h 24.12179 a 36.547443,36.547443 0 0 1 17.09632,3.70897 25.075998,25.075998 0 0 1 10.82282,10.73595 40.816655,40.816655 0 0 1 -0.0449,34.10425 25.531381,25.531381 0 0 1 -10.82282,10.86777 36.116028,36.116028 0 0 1 -17.13976,3.75541 H 652.1932 Z m 23.32637,51.50916 q 8.83352,0 13.56261,-5.16799 4.72459,-5.16949 4.72609,-14.88981 0,-9.62745 -4.63921,-14.71006 -4.63771,-5.07811 -13.56261,-5.07961 h -9.8057 v 39.84747 z m 43.20292,-51.51065 H 732.33 v 63.17384 h -13.60755 z m 55.7514,-1.32571 a 34.827775,34.827775 0 0 1 12.94395,2.29789 27.67048,27.67048 0 0 1 9.89708,6.58207 29.2044,29.2044 0 0 1 6.31544,10.33749 43.151988,43.151988 0 0 1 0,27.25704 29.557921,29.557921 0 0 1 -6.31544,10.42586 27.363397,27.363397 0 0 1 -9.89708,6.62701 37.613997,37.613997 0 0 1 -25.8864,0 27.348417,27.348417 0 0 1 -9.89708,-6.62701 29.539945,29.539945 0 0 1 -6.31693,-10.42586 43.151988,43.151988 0 0 1 0,-27.25704 29.187923,29.187923 0 0 1 6.31693,-10.33599 27.655501,27.655501 0 0 1 9.89708,-6.58357 34.818787,34.818787 0 0 1 12.94245,-2.29789 z m 0,53.9853 a 16.697859,16.697859 0 0 0 9.27842,-2.51808 15.823045,15.823045 0 0 0 5.91997,-7.20074 32.986772,32.986772 0 0 0 0,-22.79609 15.559402,15.559402 0 0 0 -5.91997,-7.1558 18.630238,18.630238 0 0 0 -18.55534,0 15.536933,15.536933 0 0 0 -5.91997,7.1558 32.97329,32.97329 0 0 0 0,22.79609 15.800575,15.800575 0 0 0 5.91997,7.20074 16.688871,16.688871 0 0 0 9.27842,2.51658 z" id="path6" inkscape:connector-curvature="0" style="stroke-width:1.49796879" fill="#fff"/> </svg>