<svg xmlns="http://www.w3.org/2000/svg" xmlns:xlink="http://www.w3.org/1999/xlink" version="1.1" viewBox="22.22 25.47 190.33 73.78">     <title>Brand Website/Header Logo</title>     <g id="Brand-Website/Header-Logo" stroke="none" stroke-width="1" fill="none" fill-rule="evenodd">         <g id="Regional/CapitalUK/Strapline/Colour" transform="translate(-66.975000, -60.000000)" fill-rule="nonzero">             <g id="Group-2" transform="translate(68.475000, 85.475000)">                 <g id="Capital_logo_strap_RGB" transform="translate(20.720930, 0.000000)">                     <path d="M190.324123,37.666516 L174.683881,38.4521057 L170.674647,11.3987227 L176.72423,11.3143445 L179.730061,31.182491 L189.252174,30.7940605 L190.325581,37.6679708 L190.324123,37.666516 Z M88.1798107,12.5567402 L102.482669,42.0818213 L94.4379492,42.4862545 L92.499691,38.2746206 L83.2736402,38.6906922 L82.159397,43.1030879 L73.8769527,43.5191595 L82.2804469,12.6396635 L88.1783523,12.5567402 L88.1798107,12.5567402 Z M90.0261877,31.8226012 L86.4267736,24.0830874 L84.4505961,32.0291822 L90.0261877,31.8211464 L90.0261877,31.8226012 Z M67.0835691,31.3032391 C66.1910078,34.1910088 63.6533333,36.3091915 60.4637391,36.4415779 C56.1686522,36.619063 52.3256798,33.1362818 51.9391949,28.6933354 C51.5541684,24.2707561 54.7452211,20.6075802 59.0125977,20.5115637 C62.4924202,20.4330047 65.6397199,22.7504944 66.8735547,25.9874151 L74.6338797,25.7590122 C72.8618829,18.1897096 65.9984945,12.4461757 58.2862978,12.550921 C49.685915,12.6673046 43.1623416,19.9922016 43.9076012,28.9493794 C44.6586945,37.9880258 52.4948581,45.0365116 61.2060818,44.5942536 C68.7272237,44.2130971 74.3684448,38.3517248 75.0174477,31.0195539 L67.0835691,31.3017843 L67.0835691,31.3032391 Z M160.433527,11.5427475 L173.607557,38.5073879 L166.903138,38.8449006 L165.110723,35.0027848 L157.434987,35.3490262 L156.692645,39.3584435 L149.820506,39.7032301 L155.515689,11.6125777 L160.433527,11.5442023 L160.433527,11.5427475 Z M162.778688,29.1166809 L159.452001,22.055102 L158.136494,29.2898016 L162.77723,29.1166809 L162.778688,29.1166809 Z M151.747096,18.7439868 L153.049478,11.6474928 L130.712109,11.9602739 L131.639673,19.2095214 L139.083518,19.0364007 L141.857458,40.1018442 L148.502082,39.7672411 L145.68293,18.8821924 L151.748555,18.7410772 L151.747096,18.7439868 Z M121.271669,21.7190442 C121.964424,27.3767451 118.540022,31.6538448 113.060688,31.8633354 L109.949849,31.9826287 L111.072843,41.6512017 L103.767549,42.0178102 L100.43357,12.3850743 L110.74907,12.2410495 C116.190486,12.1654001 120.587663,16.1399023 121.271669,21.7190442 L121.271669,21.7190442 Z M114.71601,21.8892553 C114.524955,20.2889799 113.218198,19.155694 111.56871,19.1920639 L108.027633,19.2720777 L108.683928,24.926869 L112.232297,24.8221237 C113.884702,24.7726606 114.912898,23.5346294 114.717468,21.8892553 L114.71601,21.8892553 Z M121.809831,12.0853863 L125.368408,40.9325326 L132.294509,40.5848364 L128.667385,11.9893698 L121.809831,12.0853863 L121.809831,12.0853863 Z" id="Shape" fill="#FF6130"/>                     <path d="M61.8332082,55.6579758 C52.8988442,56.0347679 44.0782379,51.3925145 38.7899578,44.2960205 C30.4025063,33.2744874 30.8662882,16.4032203 42.0291387,7.41840134 C49.6392451,1.29371095 58.9469682,2.1825912 68.1103063,2.13167334 C73.6538123,2.10112263 79.1987768,2.0778459 84.7422828,2.05602396 C95.75929,2.01238008 106.922141,2.50119148 117.924563,1.91199917 C117.924563,1.91199917 57.8487677,-0.421493316 53.769529,0.0673180783 C49.6902903,0.556129473 48.1443507,0.941650364 45.8866955,1.81743745 C42.6562652,3.05546869 39.739398,4.98598273 37.2746453,7.38785063 L6.37481315,35.4625003 C2.4282919,39.5286546 0,45.0685171 0,51.1742951 C0,63.6520788 10.1404886,73.7672741 22.6494734,73.7672741 C27.0028976,73.7672741 20.8001796,74.3681048 77.8963956,65.0355897 C125.705307,57.2218813 184.156407,47.7002427 184.156407,47.7002427 L61.8332082,55.656521 L61.8332082,55.6579758 Z" id="Path" fill="#2E6BF6"/>                                      </g>             </g>         </g>     </g> </svg>