<svg xmlns="http://www.w3.org/2000/svg" fill="none" viewBox="6 1.57 107 21.63"> <g clip-path="url(#clip0_817_453859)"> <g clip-path="url(#clip1_817_453859)"> <path d="M102.984 3.51454C102.984 3.87006 102.866 4.19738 102.636 4.51463C102.323 4.83088 101.962 4.99303 101.533 4.99303C101.329 4.99303 101.155 4.95576 100.979 4.85605C100.603 4.64053 100.414 4.30213 100.414 3.84388C100.414 3.57799 100.483 3.33829 100.618 3.13687C100.847 2.77127 101.223 2.55575 101.734 2.4933C101.786 2.19015 101.557 2.00081 101.049 1.93636C100.525 1.93636 100.12 2.02398 99.8379 2.17706C99.4361 2.39058 99.1125 2.66855 98.8864 3.03515C98.7086 3.30204 98.5082 3.73209 98.3218 4.33536C98.1717 4.80469 97.9853 5.47444 97.7281 6.34662H99.6943V6.77163H97.6221C97.2181 8.17559 96.6695 9.89578 95.972 11.902C95.2198 14.0633 94.6262 15.7191 94.1001 16.8289C93.4026 18.2963 92.8379 19.2803 92.4897 19.8373C91.9529 20.6722 91.3325 21.3651 90.6607 21.9845C90.1903 22.4145 89.7595 22.7529 89.3299 22.9705C89.0191 23.1236 88.658 23.1971 88.2391 23.1971C87.3969 23.185 86.829 22.9302 86.5333 22.4145C86.3844 22.1486 86.3061 21.8586 86.3061 21.5665C86.3061 21.3772 86.3319 21.215 86.4004 21.0609C86.4947 20.8222 86.6683 20.6339 86.8955 20.4798C87.1387 20.3157 87.3958 20.2391 87.6755 20.2391C88.0248 20.2391 88.3205 20.3499 88.5509 20.5926C88.7759 20.8343 88.9131 21.1103 88.9388 21.4386C88.9645 21.7831 88.8745 22.0721 88.6313 22.3118C88.4277 22.5022 88.1877 22.626 87.9048 22.6663C87.8909 22.7278 87.9048 22.7791 87.9605 22.8174C88.0259 22.8557 88.1062 22.8688 88.2123 22.8688C88.4845 22.8688 88.7759 22.7801 89.1016 22.6019C89.4209 22.4256 89.6235 22.2232 89.7585 22.0318C90.0542 21.5907 90.3596 20.8575 90.6596 19.8111C90.8728 19.0396 91.0903 18.2822 91.2907 17.5239C91.6411 16.2468 92.1897 14.4914 92.945 12.2696C93.6833 10.069 94.3283 8.23602 94.8919 6.76962H92.8904V6.34461H95.0816C95.3902 5.68392 95.7534 5.06755 96.1724 4.47334C96.7349 3.67669 97.3553 3.02004 98.0378 2.54165C98.9775 1.8719 99.8658 1.55566 100.699 1.56875C101.021 1.57983 101.345 1.62918 101.653 1.73291C102.273 1.92024 102.661 2.32612 102.867 2.91932C102.93 3.12176 102.985 3.3111 102.985 3.51152" fill="#E31C24"/> <path d="M111.752 15.4169L111.385 7.38196C111.371 7.19363 111.469 6.99018 111.683 6.80084C111.899 6.61251 112.194 6.47251 112.559 6.39597V6.33252H110.42L106.793 14.72C104.506 9.12532 103.363 6.33252 103.363 6.33252H100.946V6.39597C101.455 6.42014 101.845 6.57323 102.103 6.83911C102.301 7.04155 102.408 7.27923 102.396 7.56023L101.914 15.2638C101.857 16.0222 101.417 16.4271 100.703 16.4764V16.5409H103.39V16.4764C103.054 16.4764 102.784 16.3515 102.569 16.1118C102.408 15.9225 102.342 15.7201 102.359 15.5307L102.706 7.8251L106.346 16.5409L110.232 7.56023L110.566 15.6194C110.581 15.8581 110.448 16.0595 110.203 16.2246C109.977 16.3878 109.722 16.4654 109.439 16.4764V16.5409H113V16.4764C112.193 16.4654 111.774 16.1118 111.751 15.4169" fill="#e2e1e3"/> <path d="M78.7672 16.0595C77.6764 15.858 76.8182 15.29 76.1592 14.3906C75.5377 13.5316 75.2324 12.5617 75.2559 11.4891C75.3106 9.95822 75.7649 8.72045 76.6156 7.77273C77.2478 7.05162 78.0782 6.59841 79.1004 6.45942C79.5344 6.39496 80.0165 6.43525 80.5394 6.52287C81.4148 6.67394 82.0577 7.02745 82.4745 7.58339C82.6363 7.7969 82.7467 8.00135 82.812 8.21487C82.8388 8.28939 82.8656 8.45456 82.8935 8.69527H82.9738V6.34561H82.8935C82.8388 6.50776 82.7992 6.61049 82.7692 6.63466C82.6931 6.69912 82.5163 6.72128 82.2624 6.69912C81.6548 6.55913 81.2252 6.44331 80.9552 6.38086C80.3273 6.24087 79.679 6.2167 79.0243 6.28015C77.9593 6.38086 77.0057 6.76056 76.1463 7.39103C75.6492 7.75762 75.1649 8.25213 74.7481 8.91986C74.3291 9.58961 74.0869 10.21 74.0077 10.777C73.9423 11.2574 73.9134 11.763 73.9969 12.2797C74.1298 13.2687 74.6291 14.2134 75.4863 15.0725C76.2374 15.8198 77.2221 16.3113 78.4147 16.5389C78.9408 16.6376 79.5194 16.6144 80.1494 16.5389C81.1577 16.414 82.1413 15.9296 83.1088 15.1108V14.8328C82.017 15.5529 81.1309 15.9698 80.4333 16.0585C79.8012 16.1471 79.2365 16.1471 78.7683 16.0585" fill="#e2e1e3"/> <path d="M65.6779 6.40705C66.0948 6.44532 66.3648 6.53596 66.5244 6.66085C66.743 6.82501 66.878 7.05263 66.878 7.34369V15.5035C66.878 15.7946 66.7291 16.0484 66.4323 16.2488C66.2705 16.3626 66.0155 16.415 65.6779 16.4392V16.5147H69.1999V16.4392C68.8892 16.4261 68.6331 16.3757 68.4327 16.2619C68.1509 16.0998 68.0159 15.846 68.0159 15.5035V7.34369C68.0159 7.05263 68.1509 6.82501 68.3674 6.66085C68.541 6.52388 68.8088 6.44532 69.201 6.40705V6.34662H65.679V6.40705H65.6779Z" fill="#e2e1e3"/> <path d="M58.5826 11.5495C57.9108 11.1577 57.2389 10.7911 56.5682 10.4014C55.9071 9.91895 55.5728 9.35293 55.5728 8.69628C55.5728 8.03962 55.7614 7.52095 56.1364 7.11406C56.4985 6.72228 57.0096 6.50877 57.6675 6.52287C58.0586 6.53596 58.3544 6.59841 58.5558 6.67394C58.7562 6.7384 58.9726 6.87638 59.1869 7.06673C59.5233 7.36887 59.7644 7.81201 59.9144 8.40421H59.9809V6.34763H59.9144C59.8994 6.50978 59.8319 6.61251 59.713 6.63668C59.5651 6.66085 59.323 6.61251 58.9865 6.49769C58.5976 6.37079 58.154 6.26907 57.6836 6.28216C56.85 6.29526 56.1514 6.57323 55.6017 7.04054C55.1024 7.47059 54.7542 8.01344 54.632 8.68117C54.5656 9.01252 54.5913 9.33984 54.6599 9.6309C54.7938 10.2986 55.2642 10.9059 56.1107 11.4246C56.835 11.8668 57.6054 12.2323 58.3147 12.6745C59.1076 13.167 59.4987 13.7723 59.5105 14.442C59.5105 14.7572 59.458 15.011 59.3776 15.2115C59.1483 15.7946 58.6104 16.1481 57.7372 16.2992C57.51 16.3374 57.1854 16.3616 56.7568 16.2992C56.1246 16.2105 55.6017 15.9588 55.1688 15.5539C54.7392 15.1631 54.4842 14.6726 54.4038 14.0754H54.3352V16.5157H54.4038C54.4434 16.1622 54.5495 15.986 54.7392 15.986C54.7692 15.986 54.7938 15.986 54.8206 15.997C55.3028 16.1622 55.7067 16.3123 56.0421 16.4513C56.3518 16.553 56.7825 16.5912 57.3343 16.5782C58.6479 16.553 59.5512 16.0998 60.0752 15.2387C60.237 14.9728 60.3559 14.72 60.3837 14.4702C60.4373 13.9123 60.3837 13.458 60.208 13.1045C59.9402 12.5486 59.4033 12.0178 58.5826 11.5495Z" fill="#e2e1e3"/> <path d="M46.7802 11.5495C46.1062 11.1577 45.4366 10.7911 44.7615 10.4014C44.1036 9.91895 43.7693 9.35293 43.7693 8.69628C43.7693 8.03962 43.9568 7.52095 44.3329 7.11406C44.694 6.72228 45.204 6.50877 45.8651 6.52287C46.2552 6.53596 46.5509 6.59841 46.7534 6.67394C46.9548 6.7384 47.1691 6.87638 47.3856 7.06673C47.7199 7.36887 47.961 7.81201 48.1099 8.40421H48.1785V6.34763H48.1099C48.0949 6.50978 48.0306 6.61251 47.9085 6.63668C47.7595 6.66085 47.5174 6.61251 47.182 6.49769C46.7909 6.37079 46.3495 6.26907 45.878 6.28216C45.0465 6.29526 44.3469 6.57323 43.7961 7.04054C43.2989 7.47059 42.9486 8.01344 42.8286 8.68117C42.7621 9.01252 42.7868 9.33984 42.8554 9.6309C42.9904 10.2986 43.4586 10.9059 44.3061 11.4246C45.0337 11.8668 45.7998 12.2323 46.5102 12.6745C47.3031 13.167 47.6942 13.7723 47.7081 14.442C47.7081 14.7572 47.6535 15.011 47.5731 15.2115C47.3459 15.7946 46.8059 16.1481 45.9327 16.2992C45.7034 16.3374 45.3808 16.3616 44.9501 16.2992C44.3201 16.2105 43.7961 15.9588 43.3665 15.5539C42.9379 15.1631 42.6818 14.6726 42.5993 14.0754H42.5328V16.5157H42.5993C42.6389 16.1622 42.7482 15.986 42.9368 15.986C42.9604 15.986 42.9893 15.986 43.0171 15.997C43.5004 16.1622 43.9033 16.3123 44.2397 16.4513C44.5494 16.553 44.9812 16.5912 45.5298 16.5782C46.8456 16.553 47.7477 16.0998 48.2706 15.2387C48.4314 14.9728 48.5535 14.72 48.5803 14.4702C48.6349 13.9123 48.5803 13.458 48.4056 13.1045C48.1378 12.5486 47.601 12.0178 46.7813 11.5495" fill="#e2e1e3"/> <path d="M31.5534 12.1075L33.1263 7.40613L34.8321 12.1075H31.5534ZM37.3865 15.7815C37.1861 15.3384 37.079 15.0241 37.0222 14.86C36.015 12.0571 35.4921 10.6421 35.4771 10.6038L33.9438 6.33353H33.1391L30.4904 14.155C30.3715 14.5206 30.2494 14.8982 30.1165 15.2638C30.0201 15.5428 29.9011 15.7573 29.7522 15.9316C29.4704 16.275 29.1222 16.4402 28.7321 16.4523V16.5278H31.2715V16.4523C30.9083 16.4029 30.6683 16.3002 30.5472 16.1632C30.4647 16.0605 30.4122 15.8852 30.4122 15.6445C30.5044 15.1641 30.5987 14.8096 30.6801 14.5699L31.4462 12.4116H34.9124C35.2221 13.2576 35.3828 13.6736 35.3828 13.6625L35.8393 14.8862C36 15.3293 36.0546 15.6204 36.0546 15.7453C36.0686 16.0232 35.9593 16.2126 35.7461 16.3143C35.5971 16.3777 35.356 16.4281 34.9917 16.4664V16.5288H38.4601V16.4664C37.963 16.4281 37.589 16.2126 37.3844 15.7835" fill="#e2e1e3"/> <path d="M24.4366 16.2105H22.6086C22.285 16.2105 22.0579 16.1249 21.895 16.0111C21.6936 15.8581 21.5725 15.6949 21.5468 15.4794V7.30643C21.5736 7.0909 21.7064 6.90357 21.9357 6.72329C22.165 6.56114 22.4468 6.44532 22.7683 6.40705V6.34662H19.1938V6.40705C19.4349 6.43626 19.6245 6.47151 19.7735 6.53596C19.8378 6.56013 19.9353 6.62258 20.0563 6.71322C20.2835 6.90256 20.4185 7.10298 20.4185 7.30542V15.5408C20.4185 15.7946 20.2578 16.0212 19.9481 16.2357C19.7745 16.3364 19.5313 16.4009 19.2377 16.4382V16.5137H25.6205L26.0395 14.858H25.957C25.6881 15.7171 25.1791 16.2085 24.4398 16.2085" fill="#e2e1e3"/> <path d="M10.8212 16.0595C9.73259 15.858 8.87326 15.29 8.21216 14.3906C7.59391 13.5316 7.2864 12.5617 7.31211 11.4891C7.36676 9.95822 7.82321 8.72045 8.66861 7.77273C9.30079 7.05162 10.1344 6.59841 11.1555 6.45942C11.5863 6.39496 12.0684 6.43525 12.5945 6.52287C13.4656 6.67394 14.1128 7.02745 14.5307 7.58339C14.6914 7.7969 14.7975 8.00135 14.8661 8.21487C14.8918 8.28939 14.9186 8.45456 14.9464 8.69527H15.0279V6.34561H14.9464C14.8918 6.50776 14.8521 6.61049 14.8264 6.63466C14.7439 6.69912 14.5682 6.72128 14.3153 6.69912C13.711 6.55913 13.2803 6.44331 13.0113 6.38086C12.3792 6.24087 11.7352 6.2167 11.0773 6.28015C10.0144 6.38086 9.0597 6.76056 8.20144 7.39103C7.70213 7.75762 7.21889 8.25213 6.80423 8.91986C6.38528 9.58961 6.14313 10.21 6.06276 10.777C5.9974 11.2574 5.96847 11.763 6.04884 12.2797C6.18384 13.2687 6.68101 14.2134 7.54034 15.0725C8.29359 15.8198 9.27293 16.3113 10.4708 16.5389C10.9959 16.6376 11.5723 16.6144 12.2034 16.5389C13.2117 16.414 14.1921 15.9296 15.1607 15.1108V14.8328C14.0721 15.5529 13.186 15.9698 12.4863 16.0585C11.8563 16.1471 11.2905 16.1471 10.8212 16.0585" fill="#e2e1e3"/> </g> </g> <defs> <clipPath id="clip0_817_453859"> <rect width="118" height="25" fill="white"/> </clipPath> <clipPath id="clip1_817_453859"> <rect width="107" height="22.385" fill="white" transform="translate(6 1.26562)"/> </clipPath> </defs> </svg>