<svg xmlns="http://www.w3.org/2000/svg" viewBox="0 0 72.48 100"><g fill-rule="evenodd" transform="translate(-338.75984 -482.36218)"><path d="m357.31511 582.36218v-8.1178h8.11779v8.1178zm26.67245-13.3364v-14.4967h8.1178v14.4967zm1.2015-86.6636 6.30822 5.1083-7.50993 9.2742v-12.8985zm12.13488 66.949v-8.1178h13.91622v8.1178zm-13.33638 33.051v-8.1178h20.29449v8.1178zm-13.33638 0v-27.8321h8.11749v27.8321zm8.1178-79.1734-1.26201 1.5586h-10.4457l11.70771-14.4571zm13.33638 1.5587h-7.8833l7.8833-9.7349z" fill="#fff" /><path d="m392.5241 530.54448v-1.812c0-1.9071-1.54584-3.4529-3.45317-3.4529h-25.60779c-.72602 0-1.1277-.8424-.6709-1.4067l3.68371-4.5489c.32768-.4047.82073-.6398 1.3418-.6398h21.25318c1.90733 0 3.45317-1.5462 3.45317-3.4532v-1.8117c0-1.9073-1.54584-3.4532-3.45317-3.4532h-23.76471c-1.5626 0-3.04174.7057-4.0251 1.9199l-21.36708 26.3858c-.74673.9225-1.1542 2.073-1.1542 3.2598v3.8945c0 2.1455 1.73922 3.8847 3.8847 3.8847h46.42639c1.90733 0 3.45317-1.5459 3.45317-3.4529v-1.812c0-1.907-1.54584-3.4532-3.45317-3.4532h-38.00832c-.72602 0-1.1277-.842-.67089-1.4063l3.6837-4.5489c.32768-.4048.82073-.6399 1.3418-.6399h33.65371c1.90733 0 3.45317-1.5461 3.45317-3.4531" fill="#8700ff"/></g></svg>