<svg xmlns="http://www.w3.org/2000/svg" viewBox="0 0 105.49 100"><g fill="none" transform="scale(.30487805)"><path d="m152.4573 0 20.714 16.755355-24.66 30.419149v-42.3069207zm-21.0812 68.310883-4.145 5.11331-34.299-.000999 38.444-47.419231zm43.792 5.113011h-25.886l25.886-31.930468zm-26.6571 210.832786v-91.29041h26.657v91.29041zm.001 43.74332v-26.62637h66.64v26.62637zm43.792-108.40736v-26.62637h45.696v26.62637zm-87.584 108.40736v-135.03373h26.655v135.03373zm-43.791 0v-26.62637h26.656v26.62637zm-60.929-108.40736v-26.62637h43.793v26.62637zm43.7935-85.554v41.81047h-33.896z" fill="#fff"/><path d="m131.56381 116.52921h-43.86361l-.001 23.29161h43.86461v25.52921h-43.86461v54.64997h-26.6992v-129h70.56381zm17.16442 59.74622v-85.274432h26.6992v85.274432zm70.56572-22.92347h19.07057v22.92317h-45.77178v-85.274431h26.70121zm97.42257-62.351261h29.28348v85.274431h-24.01876v-51.49276l-16.45124 33.12667h-13.81887l-16.45124-32.14316v50.50925h-24.01876v-85.274431h29.28348l18.4245 35.421181z" fill="#e30613"/></g></svg>