<svg width="25" height="18" viewBox="0 0 25 18" fill="none" xmlns="http://www.w3.org/2000/svg">
<path d="M22.6075 6.93374C23.8387 6.36374 24.5162 5.33999 23.8775 3.95874C23.1937 2.47999 22.0775 2.23374 20.7237 2.85999L20.4937 2.96624L22.3775 7.03999L22.6075 6.93374Z" fill="white"/>
<path d="M7.07248 9.43501L4.60873 11.9463C4.07873 11.5475 3.42123 11.5125 2.82498 11.7888C1.49873 12.4025 1.30998 13.9125 1.89623 15.1825C2.43248 16.34 3.63998 17.1025 4.84498 16.545C5.42623 16.2763 6.04248 15.6525 5.92123 14.93L4.24248 15.7063L3.09373 13.2225L7.39873 11.2313C7.19248 10.625 7.08623 10.0225 7.07248 9.43501Z" fill="white"/>
<path d="M20.1262 11.9087L19.445 10.435C19.0512 12.27 17.7162 13.8087 15.81 14.69C13.7725 15.6325 11.585 15.5937 9.87875 14.51C9.85375 14.87 9.78875 15.2425 9.6675 15.6362C9.4175 16.4587 8.9725 17.2137 8.4025 17.8587H24.755V9.76874L20.1262 11.9087Z" fill="white"/>
<path d="M7.09875 8.75C7.305 6.64 8.6925 4.805 10.7887 3.835C12.6887 2.95625 14.7525 2.9825 16.4188 3.89375L15.26 1.38875L18.2612 0H0V9.33625C0.36875 9.07625 0.77125 8.8425 1.20625 8.64125C2.8525 7.88 5.4325 7.63625 7.09875 8.75Z" fill="white"/>
<path d="M14.17 11.1463C15.17 10.6838 15.5313 9.6275 15.0375 8.55875C14.5775 7.565 13.5413 7.03375 12.4925 7.52C11.4438 8.00375 11.1775 9.1375 11.6375 10.1313C12.1313 11.2 13.17 11.6088 14.17 11.1463Z" fill="white"/>
</svg>
