<svg xmlns="http://www.w3.org/2000/svg" aria-label="Hobbycraft" role="img" viewBox="0 0 280 75.16"> <path d="M0 0h280v75.16H0z" fill="#45132C"/> <path d="M276.86 70.57c-.13.07-.28.1-.43.09a.801.801 0 0 1-.4-.17c-.68-.4-1.3-.87-1.87-1.42-.75-.75-1.54-1.42-2.34-2.14-.32-.3-.38-.28-.69 0-.17.19-.36.36-.57.51-.84.53-1.54 1.27-2.01 2.14a2.494 2.494 0 0 1-1.58 1.16c-.62-.52-.67-.81-.18-1.42.48-.61.82-.92 1.27-1.35.72-.72 1.34-1.53 1.86-2.41.1-.15.15-.32.13-.5a.728.728 0 0 0-.23-.46c-.4-.42-.78-.85-1.2-1.23-.83-.81-1.56-1.73-2.17-2.72-.16-.21-.37-.45-.17-.74.2-.28.54-.18.88.07.44.32.86.67 1.26 1.05.81.81 1.59 1.64 2.38 2.46.45.5.75.54 1.23 0 .33-.35.65-.72.95-1.1.34-.46.76-.85 1.25-1.15.34-.25.65-.53.93-.85.13-.16.29-.28.48-.36.19-.08.39-.1.6-.08.07.01.14.03.2.07.06.04.12.09.15.16.04.06.06.13.07.21.01.07 0 .15-.03.22-.26.65-.64 1.24-1.12 1.76-.57.45-1.05 1.01-1.6 1.42-.31.24-.57.57-.86.85-.1.09-.17.21-.19.35-.02.13 0 .27.06.39.24.57.59 1.09 1.03 1.52.62.61 1.25 1.2 1.86 1.83.49.5.86 1.14 1.05 1.84zM15.65 4.27c.01.29-.08.58-.24.82-.17.24-.41.41-.69.5-.54.18-1.1.27-1.67.25-1.16 0-2.31-.24-3.46-.41-.41-.09-.84-.09-1.25 0-.52.13-1.08.2-1.59.3-.2 1.57-.4 3.1-.55 4.63-.11.84 0 1.7.31 2.49.22.55.27 1.16.13 1.74-.14.54-.37.62-.88.38-.18-.08-.34-.2-.47-.35-.13-.15-.21-.33-.25-.53a3.44 3.44 0 0 1-.17-1.56c.02-.1.02-.21 0-.31-.17-1.68-.07-3.38.3-5.03.13-.56.13-1.14 0-1.7-.24-1.1-.13-1.3.95-1.57.51-.11 1.03-.18 1.56-.2 1.39-.09 2.79.06 4.14.44.31.07.62.11.93.11h.2c.47.1.94.16 1.42.18.43-.03.86-.09 1.28-.18zm259.77 1.41-1.08-.21c-.96-.16-1.91-.35-2.83-.45-.84-.06-1.68-.06-2.52 0-.34.05-.66.18-.93.38-.27.15-.58.2-.88.12-.3-.08-.55-.27-.7-.54a.438.438 0 0 1-.07-.19c-.01-.07 0-.14.02-.21.02-.07.06-.13.11-.17.05-.05.11-.09.18-.11.55-.2 1.05-.62 1.71-.52.28 0 .55-.03.82-.08 1.1-.06 2.21.05 3.27.34a5.6 5.6 0 0 0 2.93 0c.92-.25 1.2-.14 1.69.67.12.24.18.51.17.78-.02.54 0 1.09.06 1.63.07.47.1.94.1 1.42.02.19-.01.38-.08.55-.07.18-.17.34-.31.47-.2.18-.16.65-.2 1.01-.08.65-.16 1.3-.2 1.95a2.1 2.1 0 0 0 0 .79c.11.37.23.68-.21.89 0 0-.09.13-.13.2-.35-.11-.66-.35-.87-.66-.21-.31-.3-.68-.27-1.06.07-1.48.24-2.95.5-4.41.04-.44-.01-.88-.14-1.3a6.29 6.29 0 0 1-.14-1.29zM5 60.05c.25.06.47.19.65.37.18.18.31.4.37.65.18.63.28 1.27.28 1.93a25.39 25.39 0 0 1-.38 3.14c-.11.86-.04 1.74.2 2.58.07.17.19.3.35.38.22.08.45.14.68.17.85.1 1.71.18 2.58.31 1.23.24 2.5.15 3.68-.27.3-.14.63-.19.95-.14.33.05.63.19.87.41.14.13.31.37.27.51-.04.14-.26.34-.44.4-1.24.45-2.56.62-3.87.5-1.05-.14-2.1-.28-3.13-.47-.47-.11-.95-.11-1.42 0l-.62.13c-.96.2-1.3 0-1.56-.98a.964.964 0 0 1 0-.24c-.18-1.56-.13-3.13.16-4.67.23-.72.34-1.48.31-2.24a.808.808 0 0 1 0-.31c.17-.55.17-1.14 0-1.69.02-.16.04-.32.07-.47zm85.65 10.04c-.38.23-.69.43-1.02.59a.75.75 0 0 1-.42 0c-.76-.11-1.53-.11-2.29 0-.25.03-.5.03-.75 0-.31 0-.61-.2-.89.08h-3.19a6.55 6.55 0 0 1-2.11-.23c-.27-.78 0-1.33.98-1.33.65 0 1.3.1 1.95.16.06.01.12.01.18 0 1.28.04 2.56.01 3.84-.08.68-.14 1.39-.14 2.07 0 .33.06.67.09 1.01.08.64.07.64.07.64.73zM23.75 4.41c.42-.34.95-.52 1.49-.51.92-.08 1.86-.17 2.83-.18.98-.01 1.97.07 2.96.1h2.03c.27-.01.55-.01.82 0 .68.08.84.3.75.96 0 .13-.09.24-.14.42h-4.64c-1.16-.04-2.32 0-3.47.11-.65.01-1.31-.04-1.95-.14-.46-.01-.68-.26-.68-.76zm168.18-.03c.7-.43 1.53-.6 2.34-.48.47.03.95-.01 1.42-.1h2.45l3.8.13c.85 0 1.15.55.81 1.42-1.61.17-3.23-.18-4.84 0-.3.04-.6.04-.89 0-.52-.08-1.06-.03-1.56.13-.46.13-.95.13-1.42 0-.38-.06-.75-.09-1.13-.1-.67-.2-.82-.35-.98-1zM174.54 70.6c-.01-.2-.01-.41 0-.61-.01-.1-.01-.19.02-.29.03-.09.07-.18.14-.25a.671.671 0 0 1 .51-.23c.29-.02.59-.02.88 0l2.21.08 1.96.07c.37.01.75-.01 1.12-.07.98-.19 1.98-.19 2.96 0 .19.04.37.09.55.16.34.11.54.33.43.69l-1.01.51c-.08.01-.16.01-.24 0-.63-.04-1.26-.04-1.88 0-.58.07-1.17.07-1.76 0-.92.44-1.9-.08-2.83.11-.15.02-.29.02-.44 0l-2.62-.17zM98.2 4.38c.66-.41 1.44-.59 2.21-.51.47.04.95.01 1.42-.07.21-.04.41-.07.62-.08l2.96.1h2.03c.36 0 .72.04 1.08.1.38 0 .48.21.48.67 0 .45-.11.61-.51.65-.44.04-.88.04-1.32 0-1.07-.15-2.15-.15-3.21 0-1.16-.05-2.32-.01-3.47.13-.53 0-1.05-.05-1.57-.14-.6-.1-.63-.17-.72-.85zm56.39 66.18c-.08-.08-.15-.18-.21-.28a.61.61 0 0 1-.07-.58c.04-.1.1-.18.18-.25.08-.07.17-.11.27-.13.38-.12.78-.15 1.18-.1 1.03.14 2.07 0 3.09.11s2.35-.11 3.53-.17c.61-.01 1.23.05 1.83.17.2.03.4.11.57.23a.348.348 0 0 1 0 .62c-.54.38-1.2.56-1.85.51-1.15-.12-2.32-.12-3.47 0-.74.05-1.47.05-2.21 0a3.45 3.45 0 0 0-1.5 0h-.31l-1.03-.13zm96.12-1.3c2.12.07 4.24.04 6.36-.1.63.01 1.26.06 1.88.17.21.02.41.1.58.23a.348.348 0 0 1 0 .62c-.48.33-1.04.5-1.61.5-1.2-.07-2.4-.03-3.6.13-.25.02-.5.02-.75 0h-2.66c-.41 0-.84 0-1.26-.08a.672.672 0 0 1-.52-.17.773.773 0 0 1-.25-.49.654.654 0 0 1 .16-.5c.06-.07.13-.12.22-.16.08-.04.17-.05.26-.05.4-.07.79-.1 1.19-.1zm-124.05 1.58c-.31 0-.62-.11-.93-.13-.31-.01-.76 0-1.13 0h-.48c-.37-.06-.75-.09-1.13-.08-1.64.16-3.29 0-4.93 0a.75.75 0 0 1-.42 0 .79.79 0 0 1-.35-.45c.01-.1.04-.2.09-.28a.53.53 0 0 1 .21-.21c.82-.43 1.76-.58 2.68-.44 1.01.08 2.02.08 3.03 0 .4-.02.8-.02 1.2 0 .52.09 1.05.09 1.57 0 .37-.07.75-.03 1.1.1.1.03.2.07.29.14.08.06.16.14.21.24.05.09.09.19.1.3.01.11.01.21-.02.32 0 .31-.27.48-.75.52h-.33v-.03zm149.55-18.58c-.24-.05-.45-.19-.6-.38-.15-.19-.22-.43-.21-.68 0-.99-.08-1.97 0-2.96.11-1.94 0-3.88 0-5.82-.01-.23.02-.46.11-.68.1-.17.33-.4.5-.4a.878.878 0 0 1 .63.33c.14.24.22.5.23.78v5.38c-.05.86-.05 1.72 0 2.58-.05.49-.18.97-.4 1.42l-.26.43zm-62.54 17h5.56c.47 0 .92 0 1.42-.1.49-.07.99.03 1.42.28a.726.726 0 0 1 .38.81.62.62 0 0 1-.24.37c-.12.09-.26.14-.41.14h-2.91c-.76-.16-1.55-.19-2.32-.09-.59.04-1.18.04-1.77 0h-2.32c-.38 0-.61-.13-.67-.41-.06-.28.09-.5.45-.64.37-.14.43-.2.65-.27l.71-.18.05.09zm17.72-65.33 1.42-.13c.19-.01.38-.01.57 0 1.47.18 2.95.18 4.42 0 .47-.06.95-.06 1.42 0 .22.05.42.17.57.34.03.04.06.09.07.14.01.05.01.1 0 .15-.01.05-.03.1-.07.14a.4.4 0 0 1-.12.1c-.62.24-1.26.47-1.9.68-.1.03-.2.03-.3 0-.76-.19-1.56-.19-2.32 0-.79.14-1.6.14-2.39 0-.59-.11-1.19-.11-1.77 0-.25.05-.5.04-.75-.02-.24-.06-.47-.18-.67-.34a.444.444 0 0 1-.19-.17.42.42 0 0 1-.07-.24c0-.09.02-.17.07-.24a.52.52 0 0 1 .19-.17c.26-.14.54-.24.82-.3.08-.01.17-.01.26 0h.69l.05.06zm-94.38-.13c.75.13 1.52.13 2.27 0 .15-.01.29-.01.44 0 .78 0 1.56.07 2.34 0 1.03 0 2.07 0 3.1-.13a.986.986 0 0 1 .8.26c.24.24.25.51 0 .67-.26.16-.64.2-.84.52h-.37c-.13 0-.48.1-.74.13-.23.03-.46.03-.68 0a4.77 4.77 0 0 0-1.88-.1c-.94.16-1.9.16-2.83 0-.37-.07-.75-.07-1.12 0a2.06 2.06 0 0 1-1.52-.34.436.436 0 0 1-.17-.16.465.465 0 0 1 0-.46c.04-.07.1-.12.17-.16.33-.16.68-.24 1.03-.23zm-73.84.13 1.42-.13h.69c.78 0 1.56.08 2.34.08 1.08 0 2.15-.07 3.22-.11.14-.01.28.01.4.05.13.05.25.12.35.22.21.23.2.48-.07.62s-.65.2-.84.54c-.65-.11-1.26.33-1.93.11-.76-.2-1.55-.2-2.31 0-.63.08-1.26.08-1.88 0a4.42 4.42 0 0 0-1.7 0c-.25.05-.5.05-.74 0-.25-.06-.47-.17-.67-.32a.54.54 0 0 1-.25-.45c0-.09.02-.18.07-.26.04-.08.11-.15.18-.19.22-.13.47-.21.72-.24h1.01v.08zM5.88 43.02c0 .52-.1 1.05-.14 1.57v.26c0 1.42.1 2.83.14 4.16v2.2c-.01.21-.05.41-.13.61-.03.07-.08.14-.15.18a.44.44 0 0 1-.22.07.34.34 0 0 1-.22-.07.376.376 0 0 1-.15-.18c-.44-.73-.59-1.6-.42-2.44.06-.41.06-.83 0-1.25v-5.86c.01-.19.04-.37.08-.55 0-.28.2-.52.54-.52.16-.02.32.02.45.12.13.09.22.24.24.39.03.29.03.59 0 .88v.45l-.02-.02zM43 70.66c-.34-.61-.28-.88.31-1.08.5-.17 1.02-.27 1.54-.31h2.22c.81 0 1.42 0 2.08-.11.17-.01.34-.01.51 0 .68.13 1.39.13 2.07 0 .4-.03.8.04 1.16.21.13.05.24.14.32.25.08.11.13.25.14.39.03.1.02.21-.03.31-.05.09-.13.17-.23.2a1.9 1.9 0 0 1-1.42.18 3.34 3.34 0 0 0-1.88 0h-4.1c-.19-.04-.38-.04-.57 0-.7.11-1.42.09-2.12-.04zm5.91-65.48c-.61 0-1.22.13-1.84.17-.44.04-.88.04-1.32 0-.73-.09-1.48-.09-2.21 0-.1.01-.21.01-.31 0-.33 0-.44-.31-.51-.58-.01-.06-.01-.11 0-.17s.03-.11.06-.15c.03-.05.07-.09.12-.12.05-.03.1-.05.16-.06.4-.12.81-.2 1.23-.24 1.32 0 2.62-.08 3.94-.16 1.32-.07 2.39-.23 3.58-.28.36 0 .71.08 1.03.23.13.06.23.16.29.29.06.13.07.27.04.4 0 .17-.47.44-.67.45l-1.52.13-2.03.17-.04-.08zm71.39.22h-2.57a.686.686 0 0 1-.39-.19.67.67 0 0 1-.18-.4c0-.35.21-.44.44-.51.46-.12.94-.21 1.42-.27.83-.07 1.68-.07 2.53-.11l4.05-.17c.14-.01.29-.04.43-.08.22-.05.44-.06.66-.02.22.04.43.12.61.25.12.06.21.15.25.28.04.12.04.26-.01.38-.04.12-.11.22-.21.3-.1.07-.22.11-.34.11h-.88l-3.21.23c-.8.12-1.62.15-2.6.2zm101.13-.92c-.09.14-.21.25-.35.32-.14.07-.31.1-.47.09-.28-.02-.55.01-.82.07-1.01.2-2.04.3-3.07.3h-3.43c-.28 0-.58 0-.88.1-.21.03-.42.02-.63-.04-.2-.06-.39-.17-.55-.31-.37-.34-.33-.69.14-.86.36-.11.74-.16 1.12-.17 1.49-.07 2.96-.08 4.45-.17 1.02 0 2.05-.17 3.09-.27.4-.05.81.06 1.13.31.12.18.18.42.27.63zM67.54 69.26l1.06-.1c.13-.02.26-.02.38 0 .62.12 1.26.12 1.88 0 .15-.04.3-.02.44.04s.25.17.31.31c.07.21.07.44 0 .65-.07.24-.31.31-.57.31-1.32 0-2.63 0-3.95.14-.88.06-1.77.06-2.65 0-.54-.03-1.09.03-1.61.18-.24.06-.49.06-.74.02-.24-.05-.48-.14-.68-.29-.3-.16-.21-.72.14-.86.28-.1.56-.17.85-.21.48 0 .98-.09 1.42-.11l2.83-.18h.82l.07.1zm208.67-35.97c-.78-.18-.96-.35-.91-.96.03-.76 0-1.52-.08-2.28.01-.53.06-1.05.13-1.57 0-1.05.11-2.11.17-3.16 0-.64.08-1.27.16-1.9.03-.2.12-.4.25-.55.04-.06.1-.1.16-.13a.34.34 0 0 1 .2-.03c.07.01.14.03.19.07s.1.09.13.16a1.834 1.834 0 0 1 .31 1.55c-.04.51-.04 1.03 0 1.54-.13.49-.17 1-.1 1.5.06.25.06.5 0 .75-.17.93-.22 1.89-.15 2.83.04.38.04.76 0 1.13-.13.36-.28.71-.46 1.05zM98.54 70.5a.46.46 0 0 1-.03-.58c.04-.06.1-.1.16-.14.23-.18.5-.32.78-.4.62-.11 1.24-.19 1.87-.23h.58c.69-.05 1.38-.05 2.07 0 .95 0 1.88-.08 2.83-.1.4.01.79.08 1.18.2.18.05.33.17.42.32.09.16.12.35.08.53 0 .3-.25.48-.69.52-.23.02-.46.02-.69 0h-4.52l-3.67.11c-.14-.06-.26-.14-.37-.23zm66.39-65.88-1.08.57s-.11.07-.17 0c-.62 0-1.23.27-1.87.14-.33-.06-.67-.06-1.01 0-.99.12-1.99.12-2.97 0-.35-.02-.71.02-1.05.1-.32.09-.65.09-.97-.02-.31-.1-.59-.3-.79-.56a.58.58 0 0 1-.1-.21c.17-.33.46-.59.82-.7a1.4 1.4 0 0 1 1.08.08c.22.04.46.04.68 0 .77-.13 1.56-.16 2.34-.08.35.04.71.04 1.06 0l3.15-.17c.13-.02.26 0 .38.04.12.05.22.12.3.22.09.19.16.39.2.59zm93.81-.02c-.35.23-.72.42-1.11.58-.46.15-.94.22-1.42.2-.67-.04-1.34-.04-2.01 0h-2.41c-.44-.01-.88.02-1.32.1a1.606 1.606 0 0 1-1.6-.51c-.27-.28-.25-.57.09-.71.34-.14 1.05-.57 1.67-.18.2.05.41.05.61 0 .76-.11 1.53-.11 2.29 0 .32.04.63.04.95 0 1.05 0 2.1-.11 3.16-.2.24-.04.48.01.69.15.21.12.36.33.41.57zm-55.72 65.66a1.777 1.777 0 0 1-1.76.21c-.3-.1-.63-.1-.93 0-.52.06-1.04.06-1.56 0-1.32 0-2.65.14-3.98.18-.47.04-.95.04-1.42 0a.34.34 0 0 1-.22-.07.376.376 0 0 1-.15-.18.36.36 0 0 1-.02-.23c.01-.08.05-.15.11-.2.18-.22.43-.39.71-.47.64-.13 1.29-.17 1.94-.24h2.65c.96 0 1.93-.1 2.83-.1.4.01.79.08 1.16.21.2.04.37.15.49.32s.17.37.15.57zM90.37 4.72l-.84.42c-.11 0-.24.16-.35.14-.56.06-1.13.06-1.69 0-.21-.04-.42-.04-.62 0-1.19.17-2.4.17-3.6 0-.33-.05-.67-.05-1.01 0-.24.05-.49.06-.73.01-.24-.04-.48-.14-.68-.27a.627.627 0 0 1-.26-.22c-.07-.1-.1-.21-.1-.33 0-.25.23-.34.41-.41a1.856 1.856 0 0 1 1.65-.13c.28.14.74 0 1.1 0h2.77l3.03-.18c.13-.02.26-.02.38 0 .45.18.62.52.54.97zm93.86-.08-1.03.57c-.06.01-.12.01-.18 0-.58-.08-1.13.18-1.73.13-.7-.04-1.4-.04-2.1 0h-2.01c-.4 0-.8.05-1.19.14-.3.09-.61.07-.9-.04a1.45 1.45 0 0 1-.7-.57c-.21-.25-.18-.5.11-.61.55-.23 1.08-.64 1.73-.21.24.08.5.08.74 0 .79-.12 1.59-.15 2.39-.11.88-.01 1.76-.07 2.63-.18.53-.03 1.06-.03 1.59 0 .4.14.56.42.65.88zm53.59 65.82-3.34.16h-1.26l-1.57.14c-.25.03-.5.03-.75 0a.692.692 0 0 1-.44-.24.733.733 0 0 1-.17-.47c0-.24.24-.45.65-.5 1.09-.11 2.18-.23 3.27-.3 1.09-.07 2.39-.11 3.6-.17.15-.01.29-.01.44 0h1.26c.27-.03.54-.03.81 0 .14.05.26.14.35.27.08.13.12.28.1.43 0 .33-.28.41-.54.43-.81 0-1.6.08-2.41.11v.14zM6.02 29.3c0 .55-.11 1.1-.14 1.64v.95c.02.29-.02.59-.11.86-.03.09-.09.17-.16.23-.08.06-.17.09-.27.09s-.19-.03-.27-.09a.406.406 0 0 1-.16-.23c-.15-.25-.24-.53-.27-.82 0-1.42 0-2.83-.11-4.25s-.11-2.29-.27-3.5c-.08-.44-.02-.89.17-1.29.04-.11.12-.2.23-.25s.23-.06.34-.03c.13.03.25.1.34.2.09.1.14.23.16.36l.18 1.76c.01.11.01.22 0 .33.08 1.3.16 2.61.23 3.91v.13h.11zm135.87 39.97 1.19-.11c.15-.02.29-.02.44 0 .54.13 1.09.13 1.63 0 .21-.02.42.01.61.11.23.1.45.25.4.57-.02.15-.08.29-.17.4-.1.11-.22.2-.37.24-.17.04-.34.04-.51 0-1.14-.12-2.28-.12-3.41 0-1.02.07-2.05.07-3.09.11a9.37 9.37 0 0 0-1.06 0c-.51.15-1.05.16-1.56.03a.425.425 0 0 1-.23-.14.392.392 0 0 1-.09-.26c-.02-.11.01-.22.07-.31.06-.09.15-.15.26-.18.26-.08.53-.15.79-.2l5.06-.34.04.08zm-117.91.81c.07-.18.19-.33.34-.45.15-.12.33-.19.51-.22.64-.13 1.29-.18 1.94-.27.08.01.17.01.25 0 1.13-.13 2.27-.17 3.41-.11h.82c.29.03.58.03.86 0 .27-.06.55-.06.82 0 .27.06.53.17.75.33.4.3.37.68-.07.89-.24.14-.5.23-.77.26s-.55.01-.81-.07c-.55-.18-1.14-.18-1.69 0-.24.07-.5.07-.74 0-.59-.08-1.18-.08-1.77 0-1.02.13-2.05.17-3.09.21-.09.02-.18.02-.27 0a.796.796 0 0 1-.25-.11c-.07-.05-.13-.12-.18-.2s-.05-.17-.06-.26z" fill="#ed4a7e"/> <path d="M128.81 34.01a10.97 10.97 0 0 0-4.91-7.08 11.103 11.103 0 0 0-7.46-1.54c-1.68.13-3.27.83-4.52 1.97h-.17v-9.81a1.1 1.1 0 0 0-.07-.44c-.05-.14-.14-.26-.24-.37-.11-.1-.23-.19-.37-.24-.14-.05-.29-.07-.44-.06h-5.75a.988.988 0 0 0-.99.62c-.05.13-.08.26-.08.4v30c-.01.12-.01.25 0 .37-.02.15 0 .31.06.46.05.15.14.28.25.39s.24.19.39.25c.15.05.3.07.46.06h5.66c.14.02.29.01.43-.04a.95.95 0 0 0 .38-.21c.11-.09.2-.21.26-.34.06-.13.1-.27.1-.42v-.18c.65.38 1.26.81 1.93 1.12.87.38 1.8.62 2.75.69 2.33.31 4.7-.14 6.76-1.27 2.06-1.13 3.71-2.89 4.7-5.02 1.33-2.91 1.65-6.2.87-9.31zm-7.88 3.56a4.77 4.77 0 0 1-1.35 3.25c-.85.87-2 1.38-3.21 1.43-.61-.04-1.19-.2-1.73-.45-.09-.04-.17-.1-.26-.15-.43-.24-.84-.54-1.18-.91-.21-.22-.39-.46-.55-.72-.47-.76-.72-1.63-.71-2.53v-.03c.02-1.21.5-2.38 1.35-3.25.85-.87 2-1.38 3.21-1.43.51.03 1 .17 1.47.36.27.11.53.25.78.4.34.22.65.46.93.76.18.19.33.4.47.62.51.78.79 1.69.78 2.63v.02zm-19.53-3.09a11.048 11.048 0 0 0-11.26-9.2c-2.08-.05-4.1.67-5.67 2.04h-.18V18c.01-.21.01-.42 0-.62-.02-.27-.15-.52-.35-.7-.2-.18-.46-.27-.73-.27h-5.84a.995.995 0 0 0-.72.27c-.2.18-.31.44-.32.7V47.7c0 .93.35 1.3 1.3 1.3h5.53c.14.02.28 0 .41-.04.13-.04.26-.11.36-.2.11-.09.19-.2.25-.33.06-.12.1-.26.1-.4.03-.12.05-.24.07-.37.74.77 1.68 1.32 2.71 1.6.61.15 1.23.27 1.86.35 2.27.3 4.58-.11 6.61-1.17a11.06 11.06 0 0 0 4.72-4.78c1.42-2.83 1.83-6.07 1.15-9.18zm-7.99 4.97a4.77 4.77 0 0 1-4.49 2.8h-.02c-.94 0-1.85-.27-2.63-.79a4.734 4.734 0 0 1-2.02-4.9 4.732 4.732 0 0 1 3.78-3.71c.35-.06.7-.08 1.05-.06.35 0 .7.03 1.04.1.92.21 1.75.68 2.4 1.37.65.68 1.08 1.54 1.23 2.47.16.91.04 1.86-.34 2.72zm47.43 9.65c-.76-.01-1.52-.06-2.28-.14-.96-.09-1.87-.47-2.6-1.09a4.588 4.588 0 0 1-1.48-2.39c-1.3-4.47-2.61-8.93-3.92-13.39-.4-1.42-.81-2.75-1.2-4.14-.11-.34-.19-.69-.23-1.05a.79.79 0 0 1 .19-.66.797.797 0 0 1 .62-.28h6.53c.98 0 1.42.18 1.7 1.3.48 1.86.93 3.73 1.42 5.6.55 2.22 1.12 4.46 1.68 6.69.09.31.2.61.31.91.05.14.14.26.26.34.12.08.27.13.41.12.15 0 .3-.05.43-.13.13-.09.22-.21.28-.35.07-.17.13-.35.17-.52 1.1-4.15 2.21-8.29 3.3-12.44 0-.17.09-.33.14-.5.06-.32.24-.61.5-.79.26-.19.6-.26.92-.21h5.98c.12-.01.25-.01.37 0 .12 0 .24.02.35.07.11.05.2.12.28.21.08.09.13.2.16.31.03.11.04.24.02.35-.04.34-.11.67-.21.99-2.52 8.5-5.05 17-7.59 25.5-.35 1.23-.88 2.39-1.59 3.46a9.184 9.184 0 0 1-5.67 3.75c-2.75.72-5.67.38-8.19-.95-.61-.34-1.18-.74-1.7-1.2-.14-.1-.25-.22-.34-.37-.09-.14-.15-.3-.18-.47a1.2 1.2 0 0 1 .02-.5c.04-.16.11-.32.21-.46.85-1.29 1.71-2.56 2.59-3.84.09-.14.2-.27.34-.36.13-.1.29-.17.45-.21s.33-.04.49-.02c.16.03.32.09.46.17.37.21.71.47 1.08.67.76.49 1.66.67 2.55.52.49-.05.95-.25 1.33-.57.38-.32.65-.74.78-1.21l.86-2.72zM29.83 27.64h.16a9.864 9.864 0 0 1 7-2.32c1.12 0 2.24.16 3.31.48 1.23.38 2.35 1.03 3.3 1.91.94.88 1.67 1.95 2.14 3.15.76 1.89 1.13 3.91 1.09 5.95v10.92c0 .93-.35 1.3-1.3 1.32h-5.45c-.98 0-1.32-.37-1.32-1.42V37.47c0-.57-.07-1.13-.21-1.69-.26-1-.9-1.87-1.77-2.44-.87-.56-1.92-.78-2.95-.61-1.09.08-2.12.57-2.85 1.39-.74.81-1.13 1.88-1.1 2.98v10.79c.01.14-.01.28-.05.41-.05.13-.12.25-.21.35a1.003 1.003 0 0 1-.73.33h-5.67c-1.02 0-1.42-.35-1.42-1.42V17.58c-.02-.16 0-.32.06-.47.06-.15.14-.29.26-.4a1.076 1.076 0 0 1 .88-.28h5.58c.89 0 1.27.38 1.27 1.26v9.92l-.02.03zm42.08 2.9a12.103 12.103 0 0 0-4.14-3.75c-1.65-.91-3.49-1.43-5.38-1.51-2.65-.13-5.28.48-7.59 1.78-1.68.95-3.11 2.3-4.16 3.93a11.908 11.908 0 0 0-1.86 5.41c-.18 1.93.12 3.87.86 5.65s1.9 3.37 3.38 4.61c2.34 1.92 5.26 2.99 8.29 3.03 3.03.03 5.97-.97 8.35-2.84 2.41-1.9 4-4.66 4.42-7.7.42-3.04-.36-6.13-2.17-8.61zm-7.16 10.23c-.87.87-2.05 1.36-3.29 1.36-1.23 0-2.41-.49-3.29-1.36a4.64 4.64 0 0 1-1.31-2.8c-.02-.14-.04-.29-.04-.43 0-.02-.01-.04-.01-.06 0-.04.01-.08.01-.11 0-.61.12-1.21.35-1.78.36-.84.95-1.56 1.72-2.07a4.621 4.621 0 0 1 4.37-.4c.57.24 1.08.59 1.51 1.03.43.44.77.96 1 1.53.23.57.33 1.17.33 1.78v.06c-.01.23-.03.45-.07.67-.14.97-.58 1.88-1.28 2.58z" fill="#F5EEE4"/> <path d="M222.65 47.73V27.22c0-.89-.37-1.25-1.29-1.25h-5.45c-.15-.02-.31-.01-.46.04s-.28.13-.4.23c-.11.11-.2.24-.26.38s-.08.3-.07.45c-.07.13-.07.27-.07.41-.06-.01-.11-.04-.16-.07a6.78 6.78 0 0 0-4.45-2.07 11.322 11.322 0 0 0-11.81 6.96c-.87 2.13-1.18 4.45-.89 6.73.22 2.68 1.35 5.21 3.22 7.15 1.87 1.94 4.36 3.17 7.03 3.48 1.5.17 3.01 0 4.43-.5a5.82 5.82 0 0 0 2.61-1.78c.01.1.01.21 0 .31.13 1.05.4 1.32 1.42 1.32h5.33c.17.02.35 0 .51-.06.16-.06.31-.15.43-.27.12-.12.22-.27.27-.44s.08-.34.06-.51zm-9.34-6.93c-.87.88-2.04 1.38-3.28 1.4-.92.01-1.82-.25-2.58-.76-.77-.5-1.37-1.22-1.73-2.06-.31-.71-.41-1.49-.34-2.25.03-.53.14-1.05.35-1.54.36-.84.96-1.56 1.72-2.07.77-.5 1.66-.77 2.58-.76a4.736 4.736 0 0 1 3.29 1.41c.43.44.77.96.99 1.53.23.57.34 1.18.33 1.79.02 1.24-.46 2.43-1.33 3.31zm-45.6-15.54c3.09-.06 6.1.98 8.5 2.92.62.54 1.19 1.15 1.67 1.81.14.14.24.3.3.49s.07.38.04.57c-.04.19-.12.37-.24.52-.12.15-.28.27-.46.35-1.32.92-2.63 1.83-3.94 2.83-.15.13-.32.23-.51.29-.19.06-.39.08-.59.06-.2-.02-.39-.09-.56-.19-.17-.1-.32-.24-.43-.4-.38-.47-.85-.86-1.38-1.15s-1.12-.47-1.72-.53a4.52 4.52 0 0 0-1.79.17c-.58.17-1.12.46-1.59.84a4.91 4.91 0 0 0-1.66 2.81c-.21 1.1-.04 2.24.49 3.22a4.703 4.703 0 0 0 5.57 2.16c.75-.26 1.41-.71 1.93-1.3.08-.08.16-.2.24-.28a1.24 1.24 0 0 1 .86-.5 1.263 1.263 0 0 1 .96.28c1.42.96 2.83 1.95 4.25 2.97a1.07 1.07 0 0 1 .54.72c.03.15.03.31 0 .46-.03.15-.1.3-.19.42-.25.42-.54.81-.88 1.16a11.554 11.554 0 0 1-5.45 3.2c-2.91.92-6.05.84-8.91-.24a11.314 11.314 0 0 1-7.45-9.23c-.36-1.85-.27-3.76.25-5.57a12.03 12.03 0 0 1 2.75-4.85c1.19-1.3 2.64-2.33 4.26-3.02 1.63-.7 3.38-1.03 5.14-.99zm60.62.71V23.9c-.01-1.1.15-2.2.47-3.26a7.861 7.861 0 0 1 2.49-3.91 7.847 7.847 0 0 1 4.27-1.82c1.83-.25 3.69-.1 5.45.45.96.28 1.2.72.94 1.71-.4 1.42-.79 2.95-1.18 4.42l-.11.37c-.04.14-.12.27-.21.39-.1.11-.21.21-.35.27s-.28.11-.42.12c-.15.01-.3-.01-.44-.06-.37-.1-.74-.17-1.12-.18-.39-.03-.77.09-1.07.32-.3.24-.51.58-.57.96-.14.74-.14 1.5 0 2.24h2.82c.16-.02.32-.01.48.04.15.05.29.14.41.25.11.11.2.25.25.41.05.15.07.32.05.48v4.5a1.042 1.042 0 0 1-.3.87c-.11.11-.25.2-.4.26s-.31.07-.47.06h-2.91v15.16c0 .14-.03.27-.08.4s-.13.24-.23.34-.22.17-.35.22c-.13.05-.27.07-.4.07h-5.6a1.251 1.251 0 0 1-1.06-.35 1.251 1.251 0 0 1-.35-1.06V32.85h-2.75c-.16.02-.32 0-.47-.06a.958.958 0 0 1-.4-.26 1.042 1.042 0 0 1-.3-.87V27.1c-.01-.15.01-.3.06-.44.05-.14.13-.27.24-.37.11-.11.23-.19.37-.24.14-.05.29-.07.44-.06h2.1l.7-.02zm25.63 0h4.29c.16-.02.32 0 .47.06.15.05.29.14.4.26.11.11.2.25.26.4.05.15.07.31.06.47v4.5c.02.16 0 .32-.05.47-.05.15-.14.29-.26.4-.11.11-.25.2-.41.25-.15.05-.31.07-.47.05h-4.22c-.03.17-.06.35-.07.52v6.23c-.01.4.05.79.16 1.18.08.31.27.59.52.78.26.19.57.29.9.28.42.01.84-.04 1.25-.14.16-.07.33-.1.5-.09.17.01.33.06.48.14a1.125 1.125 0 0 1 .57.81c.45 1.61.88 3.23 1.3 4.84.06.14.08.29.08.44-.01.15-.05.3-.11.43-.07.13-.16.25-.28.35-.12.09-.26.16-.4.2-2.28.79-4.75.87-7.08.23a7.712 7.712 0 0 1-3.76-2.39 7.813 7.813 0 0 1-1.83-4.06c-.15-.86-.23-1.72-.24-2.59v-7.15h-2.8c-.15.01-.3-.01-.44-.06s-.27-.13-.37-.24c-.1-.11-.19-.23-.24-.37-.05-.14-.07-.29-.06-.44v-4.5a1.114 1.114 0 0 1 .32-.94c.12-.12.27-.21.43-.27.16-.05.34-.07.51-.04h2.61v-5.34c0-.29.06-.58.17-.85.1-.19.26-.34.44-.45.19-.1.4-.14.62-.12h5.6c.82 0 1.22.41 1.23 1.27.01.86 0 2.11 0 3.17l-.08 2.31zm-65.74 2.12c.09-.05.18-.11.26-.18.68-.76 1.52-1.37 2.45-1.78.94-.41 1.95-.62 2.97-.61h1.53c.27-.01.53.08.74.26.2.18.33.42.35.69.02.23.02.46 0 .69v5.65a1.272 1.272 0 0 1-.44.93c-.13.12-.29.21-.46.26-.17.05-.35.07-.52.06h-2.54c-.68.02-1.35.09-2.01.23-.57.09-1.08.37-1.46.8-.38.43-.59.98-.6 1.55-.03.47-.03.94 0 1.42v9.52c0 1.06-.34 1.42-1.42 1.42h-5.21c-1.05 0-1.42-.35-1.42-1.42V27.4a2.41 2.41 0 0 1 0-.38c0-.14.02-.28.08-.4.05-.13.13-.24.23-.34.1-.1.21-.17.34-.23.13-.05.26-.08.4-.08h5.58c.15-.01.3.01.44.07.14.05.26.14.37.25.1.11.18.24.23.38.05.14.07.29.05.44.07.29.06.59.06.98z" fill="#ed4a7e"/> </svg>