<svg xmlns="http://www.w3.org/2000/svg" version="1.1" viewBox="237 148 1029 961.5" style="background: white;"><path d="M 237 628.500 L 237 1109 304.500 1109 L 372 1109 372 1033 L 372 957 341 957 L 310 957 310 589 L 310 221 749.500 221 L 1189 221 1189 589 L 1189 957 1159.535 957 L 1130.070 957 1130.446 992.250 C 1130.653 1011.637, 1130.863 1045.838, 1130.911 1068.250 L 1131 1109 1198.500 1109 L 1266 1109 1266 898.666 C 1266 782.983, 1265.700 566.758, 1265.334 418.166 L 1264.668 148 750.834 148 L 237 148 237 628.500 M 321 588.500 L 321 947 351.994 947 L 382.988 947 383.244 1028.250 L 383.500 1109.500 751.500 1109.500 L 1119.500 1109.500 1119.756 1028.250 L 1120.012 947 1149.506 947 L 1179 947 1179 588.500 L 1179 230 750 230 L 321 230 321 588.500 M 481.244 489.750 L 481.500 564.500 497.750 564.775 L 514 565.050 514 490.025 L 514 415 497.494 415 L 480.987 415 481.244 489.750 M 532 490.025 L 532 565.050 548.036 564.775 L 564.071 564.500 564.019 511.750 C 563.990 482.738, 564.337 459, 564.790 459 C 565.243 459, 580.213 482.851, 598.057 512.002 L 630.500 565.003 652 564.752 L 673.500 564.500 673.500 490 L 673.500 415.500 657.250 415.225 L 641 414.950 640.968 467.225 C 640.940 514.106, 640.780 519.294, 639.424 517.500 C 638.592 516.400, 624.093 492.892, 607.205 465.261 L 576.500 415.021 554.250 415.011 L 532 415 532 490.025 M 691.244 489.750 L 691.500 564.500 725 564.458 C 748.159 564.430, 760.352 564.024, 764.500 563.144 C 806.225 554.295, 829.063 528.412, 829.065 489.972 C 829.067 458.191, 816.853 437.443, 790.816 424.996 C 773.862 416.891, 760.555 415.007, 720.244 415.003 L 690.987 415 691.244 489.750 M 839 490 L 839 565 855.500 565 L 872 565 872 490 L 872 415 855.500 415 L 839 415 839 490 M 906.500 489.088 C 888.900 529.831, 874.347 563.589, 874.159 564.106 C 873.952 564.677, 880.977 564.939, 892.056 564.773 L 910.294 564.500 916.397 548.750 L 922.500 533 951.829 533.250 L 981.159 533.500 987.436 549 L 993.712 564.500 1012.472 564.772 C 1027.358 564.989, 1031.117 564.782, 1030.678 563.772 C 1027.391 556.206, 972.858 431.161, 969.832 424.250 L 965.782 415 952.141 415.005 L 938.500 415.010 906.500 489.088 M 724.750 445.549 C 724.337 445.980, 724 466.058, 724 490.167 L 724 534 738.750 533.983 C 761.410 533.956, 773.092 530.671, 782.792 521.598 C 791.806 513.166, 795.555 501.980, 794.778 485.840 C 794.373 477.426, 793.865 475.167, 791.123 469.599 C 785.743 458.670, 775.991 451.387, 761.500 447.474 C 755.018 445.725, 726.034 444.206, 724.750 445.549 M 950.394 460.500 C 949.970 461.600, 945.935 471.950, 941.426 483.500 L 933.230 504.500 942.063 504.787 C 946.921 504.945, 955.107 504.945, 960.253 504.787 L 969.610 504.500 960.387 481.500 C 953.358 463.971, 950.982 458.976, 950.394 460.500 M 563.539 586.112 C 546.355 588.616, 528.965 596.290, 515.970 607.105 C 485.089 632.804, 476.069 684.201, 495.541 723.500 C 511.402 755.510, 545.370 773.524, 586.438 771.705 C 625.950 769.956, 656.726 750.190, 669.979 718.051 C 679.925 693.932, 679.997 663.112, 670.163 639.364 C 664.489 625.663, 656.289 614.666, 645.110 605.765 C 632.431 595.670, 615.248 588.393, 598.636 586.082 C 589.663 584.834, 572.210 584.849, 563.539 586.112 M 354 606.500 L 354 624 379.500 624 L 405 624 405 696 L 405 768 424.500 768 L 444 768 444 696 L 444 624 469.500 624 L 495 624 495 606.500 L 495 589 424.500 589 L 354 589 354 606.500 M 684.506 590.132 C 684.219 590.884, 684.100 631.100, 684.242 679.500 L 684.500 767.500 723 767.457 C 754.514 767.421, 763.136 767.111, 770.516 765.747 C 823.103 756.029, 853.508 717.744, 848.102 668.049 C 846.577 654.035, 844.707 647.219, 839.310 636 C 835.371 627.814, 833.477 625.255, 825.619 617.500 C 810.693 602.769, 796.632 596.093, 770.500 591.328 C 758.818 589.198, 685.253 588.175, 684.506 590.132 M 911.716 594.750 C 910.309 597.913, 894.016 635.600, 875.509 678.500 C 857.002 721.400, 840.766 758.917, 839.430 761.871 C 838.093 764.825, 837 767.421, 837 767.640 C 837 767.860, 846.737 767.918, 858.638 767.770 L 880.277 767.500 887.527 749 L 894.778 730.500 929.670 730.237 L 964.563 729.975 972.158 748.737 L 979.753 767.500 1001.991 767.769 C 1019.649 767.983, 1024.123 767.777, 1023.715 766.769 C 1021.639 761.645, 947.908 592.697, 947.039 591.073 C 945.988 589.110, 945.091 589, 930.101 589 L 914.273 589 911.716 594.750 M 976 589.451 C 976 589.719, 989.351 610.314, 1005.669 635.219 C 1021.987 660.124, 1037.062 683.157, 1039.169 686.405 L 1043 692.310 1043 730.177 L 1043 768.043 1062.250 767.772 L 1081.500 767.500 1081.762 729.328 L 1082.024 691.155 1114.570 641.508 C 1132.470 614.203, 1147.363 591.218, 1147.665 590.431 C 1148.131 589.215, 1144.772 589, 1125.351 589 L 1102.488 589 1082.356 622.573 L 1062.224 656.146 1048.458 631.823 C 1040.886 618.445, 1032.374 603.450, 1029.542 598.500 L 1024.394 589.500 1000.197 589.232 C 986.889 589.085, 976 589.183, 976 589.451 M 569.500 621.956 C 563.032 623.361, 554.630 626.810, 549.664 630.099 C 521.659 648.649, 517.818 696.254, 542.373 720.475 C 549.735 727.736, 556.240 731.376, 566.585 734.022 C 597.071 741.819, 625.746 726.006, 634.629 696.500 C 637.351 687.457, 637.172 668.763, 634.274 659.500 C 628.827 642.092, 617.814 630.360, 601.179 624.245 C 593.816 621.539, 577.015 620.325, 569.500 621.956 M 723.667 625.667 C 723.300 626.033, 723 649.934, 723 678.780 L 723 731.227 743.750 730.759 C 761.681 730.355, 765.451 729.987, 771.500 728.048 C 786.740 723.163, 797.515 714.629, 802.698 703.335 C 807.832 692.150, 809.308 676.648, 806.441 664.041 C 804.838 656.991, 799.915 647.652, 795.183 642.683 C 787.162 634.259, 771.906 627.822, 755.789 626.061 C 744.990 624.881, 724.702 624.632, 723.667 625.667 M 918.226 668.775 C 912.575 683.474, 907.962 695.837, 907.976 696.250 C 907.989 696.663, 917.723 697, 929.607 697 C 947.376 697, 951.122 696.759, 950.694 695.645 C 943.764 677.585, 929.370 642.011, 929 642.028 C 928.725 642.040, 923.877 654.077, 918.226 668.775" stroke="none" fill="#ce2126" fill-rule="evenodd"/></svg>