<svg xmlns="http://www.w3.org/2000/svg" xmlns:xlink="http://www.w3.org/1999/xlink" version="1.1" viewBox="0 0 239 78.89"> <g id="surface1"> <path style=" stroke:none;fill-rule:nonzero;fill:rgb(86.666667%,25.098039%,86.666667%);fill-opacity:1;" d="M 201.128906 0 C 204.785156 0.00390625 209.332031 0.421875 212.082031 1.015625 C 213.824219 1.390625 216.207031 1.972656 217.335938 2.339844 C 218.46875 2.707031 220.640625 3.582031 222.066406 4.28125 C 223.496094 4.984375 225.585938 6.308594 226.769531 7.238281 C 227.949219 8.167969 229.632812 9.828125 230.46875 10.820312 C 231.304688 11.808594 232.546875 13.714844 233.226562 15.097656 C 233.90625 16.480469 234.625 18.523438 234.878906 19.648438 C 235.429688 22.011719 235.652344 24.265625 235.632812 26.585938 C 235.609375 29.441406 235.292969 31.628906 234.324219 34.367188 C 233.921875 35.46875 233.109375 37.164062 232.523438 38.136719 C 231.9375 39.105469 230.546875 40.882812 229.441406 42.078125 C 228.332031 43.269531 226.074219 45.300781 224.394531 46.554688 C 223.574219 47.167969 222.503906 47.90625 221.429688 48.613281 L 221.410156 48.628906 L 221.414062 48.632812 C 220.453125 49.257812 219.488281 49.859375 218.519531 50.449219 C 218.472656 50.472656 218.414062 50.515625 218.367188 50.542969 L 218.363281 50.539062 L 218.34375 50.550781 C 215.769531 52.105469 213.121094 53.574219 210.246094 55.066406 L 210.242188 55.066406 L 196.734375 62.261719 C 196.59375 62.332031 196.527344 62.484375 196.554688 62.621094 C 196.578125 62.757812 196.699219 62.878906 196.910156 62.882812 L 237.316406 63.691406 C 237.871094 63.722656 238.335938 63.800781 238.617188 64.105469 C 238.898438 64.410156 239 64.863281 239 65.585938 L 239 77.152344 C 239 77.707031 238.953125 78.136719 238.664062 78.449219 C 238.378906 78.761719 237.917969 78.894531 237.132812 78.894531 L 166.28125 78.894531 C 165.109375 78.894531 163.808594 78.515625 163.054688 77.753906 C 162.296875 76.996094 161.839844 75.851562 161.839844 74.367188 L 161.839844 65.777344 C 161.839844 62.804688 162.949219 61.3125 165.019531 60.171875 L 203.800781 39.59375 L 203.800781 39.589844 C 205.332031 38.710938 206.304688 38.152344 207.515625 37.328125 C 208.503906 36.660156 209.414062 35.953125 210.507812 35 C 212.144531 33.46875 213.011719 32.1875 213.640625 30.90625 C 214.078125 30.007812 214.554688 28.429688 214.675781 27.203125 C 214.746094 26.480469 214.832031 24.660156 214.613281 23.273438 C 214.375 21.765625 213.894531 20.65625 213.425781 19.808594 C 212.960938 18.957031 212.003906 17.898438 211.378906 17.410156 C 210.757812 16.925781 210.1875 16.519531 209.332031 16.085938 C 208.796875 15.816406 207.65625 15.371094 206.53125 15.074219 C 205.105469 14.703125 202.996094 14.429688 200.90625 14.421875 C 198.808594 14.417969 197.042969 14.632812 195.511719 14.984375 C 193.792969 15.382812 192.402344 15.941406 191.179688 16.539062 C 189.578125 17.320312 188.332031 18.28125 187.417969 19.046875 C 186.414062 19.894531 185.242188 21.253906 184.605469 22.210938 C 183.855469 23.332031 183.382812 24.066406 182.554688 26.074219 C 182.210938 26.910156 181.949219 27.972656 181.703125 28.644531 C 181.441406 29.347656 181.101562 29.949219 180.34375 30.363281 C 180.035156 30.523438 179.425781 30.777344 178.480469 30.777344 L 167.007812 30.777344 C 165.914062 30.777344 165.234375 30.816406 164.632812 30.722656 C 163.894531 30.644531 163.449219 30.429688 163.054688 30.109375 C 162.660156 29.789062 162.34375 29.285156 162.226562 28.683594 C 162.078125 27.804688 162.164062 26.945312 162.339844 26.058594 C 162.546875 24.742188 163.015625 22.773438 163.460938 21.535156 C 164.089844 19.789062 165.035156 17.65625 166.082031 16.054688 C 168.34375 12.382812 171.316406 9.503906 174.691406 7.15625 L 174.695312 7.15625 C 176.65625 5.855469 178.855469 4.621094 181.078125 3.699219 C 184.492188 2.269531 186.625 1.734375 189.675781 1.066406 C 192.832031 0.429688 196.761719 -0.0078125 201.128906 0 Z M 201.128906 0 "/> <path style=" stroke:none;fill-rule:nonzero;fill:rgb(86.666667%,25.098039%,86.666667%);fill-opacity:1;" d="M 10.332031 0.816406 C 3.914062 0.816406 0.0117188 5.378906 0.00390625 11.039062 L 0 11.039062 L 0 11.054688 C 0 11.066406 0 11.074219 0 11.082031 C 0 11.085938 0 11.097656 0 11.105469 L 0 11.113281 L 0.00390625 11.117188 C 0.015625 13.882812 0.957031 16.453125 2.714844 18.328125 C 4.476562 20.207031 7.054688 21.394531 10.332031 21.394531 C 13.59375 21.394531 16.167969 20.238281 17.941406 18.367188 C 19.703125 16.507812 20.660156 13.945312 20.675781 11.121094 L 20.675781 11.105469 C 20.675781 11.097656 20.675781 11.085938 20.675781 11.082031 C 20.675781 11.074219 20.675781 11.066406 20.675781 11.054688 L 20.675781 11.039062 C 20.660156 8.226562 19.726562 5.699219 17.964844 3.851562 C 16.191406 1.988281 13.59375 0.816406 10.332031 0.816406 Z M 53.390625 6.152344 C 49.527344 6.152344 46.375 6.828125 44.746094 8.316406 C 43.570312 9.390625 43.191406 10.644531 43.191406 12.9375 L 43.191406 51.445312 C 43.191406 54.714844 42.898438 57.082031 42.320312 59.03125 C 41.761719 60.914062 40.933594 62.304688 39.847656 63.445312 C 37.988281 65.503906 34.984375 66.792969 31.339844 66.792969 C 27.984375 66.792969 25.050781 65.652344 23.179688 63.738281 C 22.222656 62.691406 21.5625 61.507812 21.144531 60.0625 C 20.746094 58.679688 20.566406 57.148438 20.566406 55.1875 L 20.566406 29.917969 C 20.566406 29.363281 20.441406 28.953125 20.175781 28.683594 C 19.910156 28.414062 19.511719 28.289062 18.902344 28.289062 L 1.808594 28.289062 C 1.199219 28.289062 0.765625 28.40625 0.507812 28.679688 C 0.246094 28.949219 0.125 29.359375 0.125 29.925781 L 0.125 52.640625 C 0.125 56.6875 0.589844 60.351562 1.796875 63.589844 C 2.890625 66.523438 4.597656 69.140625 7.121094 71.507812 C 8.199219 72.5 9.445312 73.4375 10.875 74.269531 C 16.109375 77.335938 22.832031 78.777344 29.59375 78.777344 C 35.582031 78.777344 41.554688 77.316406 46.519531 74.816406 C 48.785156 73.675781 50.816406 72.320312 52.480469 70.789062 C 55.007812 73.0625 58.230469 74.839844 61.964844 76.179688 C 66.589844 77.835938 71.984375 78.78125 77.535156 78.78125 C 85.023438 78.78125 91.363281 77.101562 96.527344 74.078125 C 101.042969 71.429688 104.609375 67.839844 107.359375 63.378906 C 109.273438 66.308594 111.382812 69.496094 113.832031 73.222656 C 115.207031 75.257812 116.558594 76.652344 118.207031 77.527344 C 119.929688 78.4375 121.898438 78.757812 124.695312 78.757812 C 127.636719 78.757812 130.195312 78.445312 132.5625 76.835938 C 134.03125 75.78125 134.882812 74.765625 135.988281 73.074219 C 140.519531 66.179688 144.796875 58.214844 148.359375 50.476562 C 150.664062 45.46875 152.855469 40.1875 154.554688 35.582031 L 154.554688 35.578125 C 154.878906 34.570312 155.152344 33.796875 155.429688 32.796875 L 155.429688 32.792969 C 155.515625 32.421875 155.558594 32.097656 155.53125 31.816406 C 155.503906 31.535156 155.40625 31.289062 155.207031 31.074219 C 154.871094 30.714844 154.53125 30.535156 153.902344 30.265625 L 153.898438 30.261719 L 153.445312 30.128906 L 148.6875 28.761719 L 148.6875 28.757812 C 147.582031 28.382812 146.683594 28.09375 145.996094 27.902344 C 145.308594 27.707031 144.832031 27.609375 144.558594 27.609375 C 144.054688 27.609375 143.570312 27.738281 143.257812 28.03125 C 142.945312 28.324219 142.699219 28.753906 142.523438 29.335938 C 140.832031 34.941406 139.074219 39.789062 137.5 43.847656 C 136.53125 46.347656 135.53125 48.777344 134.464844 51.191406 C 132.71875 55.148438 131.082031 58.476562 129.117188 61.894531 C 127.59375 58.933594 126.546875 57.050781 124.527344 53.414062 C 123.824219 52.140625 123.183594 50.984375 122.601562 49.945312 L 122.601562 49.941406 C 122.226562 49.21875 121.605469 48.183594 121.019531 47.199219 C 119.671875 44.871094 119.488281 44.578125 116.917969 40.121094 C 115.171875 37.113281 114.070312 35.089844 111.992188 31.5625 L 111.949219 31.484375 L 111.949219 31.5 C 110.945312 29.867188 110.082031 28.847656 109.15625 28.210938 C 108.210938 27.5625 107.039062 27.363281 105.832031 27.363281 C 103.191406 27.363281 99.695312 28.546875 96.941406 30.382812 C 95.972656 31.011719 95.082031 31.726562 94.328125 32.492188 C 92.878906 33.964844 92.03125 35.484375 92.03125 37.007812 C 92.03125 38.675781 92.53125 39.910156 94.105469 42.566406 C 95.960938 45.742188 96.898438 48.339844 96.898438 51.507812 C 96.898438 54.679688 95.941406 57.734375 94.054688 60.25 C 92.839844 61.871094 91.296875 63.222656 89.441406 64.25 C 86.847656 65.691406 83.644531 66.550781 79.597656 66.550781 C 73.878906 66.550781 69.8125 64.832031 67.3125 62.164062 C 64.949219 59.734375 63.5 56.328125 63.5 50.34375 L 63.5 39.960938 L 63.503906 39.964844 C 65.402344 40.765625 67.777344 41.226562 70.5625 41.226562 L 79.527344 41.226562 C 80.140625 41.226562 80.582031 41.121094 80.851562 40.851562 C 81.125 40.578125 81.207031 40.148438 81.207031 39.59375 L 81.207031 29.921875 C 81.207031 29.367188 81.125 28.9375 80.851562 28.664062 C 80.582031 28.394531 80.140625 28.289062 79.527344 28.289062 L 63.5 28.289062 L 63.5 12.894531 C 63.5 11.667969 63.398438 10.789062 63.15625 10.082031 C 62.910156 9.375 62.519531 8.84375 61.953125 8.316406 C 60.324219 6.832031 57.230469 6.152344 53.390625 6.152344 Z M 53.390625 6.152344 "/> </g> </svg>