<svg xmlns="http://www.w3.org/2000/svg" xmlns:xlink="http://www.w3.org/1999/xlink" version="1.1" viewBox="0 16.18 512 172.67"> <g id="surface1"> <path style=" stroke:none;fill-rule:nonzero;fill:rgb(71.372549%,50.980392%,92.156863%);fill-opacity:1;" d="M 431.988281 16.1875 C 436.78125 16.195312 442.3125 16.59375 446.972656 17.210938 C 449.5 17.511719 452.605469 18.050781 454.515625 18.445312 C 462.621094 20.058594 470.34375 22.578125 477.296875 26.078125 C 482.40625 28.679688 487.25 31.980469 491.113281 35.613281 C 494.011719 38.273438 496.5625 41.535156 498.378906 44.460938 C 500.222656 47.570312 501.617188 50.613281 502.503906 54.164062 C 503.15625 56.800781 503.53125 59.191406 503.597656 62.617188 C 503.566406 66.46875 503.089844 70.589844 501.769531 74.28125 C 500.34375 78.535156 498.09375 82.035156 495.324219 85.03125 C 491.578125 89.03125 487.492188 91.542969 484.207031 93.34375 C 480.800781 95.15625 476.875 96.808594 472.558594 98.261719 C 477.78125 99.425781 481.609375 100.554688 484.886719 101.804688 C 487.675781 102.871094 490.074219 104.027344 492.59375 105.40625 C 497.5625 108.28125 502.617188 112.089844 506.398438 117.933594 C 507.257812 119.277344 508.617188 121.574219 509.371094 123.648438 C 512.566406 131.3125 512.886719 142.113281 510.136719 150.929688 C 508.175781 156.96875 504.800781 162.167969 501.019531 166.222656 C 496.574219 170.957031 491.28125 174.863281 484.363281 178.292969 C 479.140625 180.898438 474.402344 182.515625 470.046875 183.8125 C 466.078125 184.855469 463.128906 185.699219 458.386719 186.539062 C 456.332031 186.929688 453.71875 187.328125 451.011719 187.628906 C 446.007812 188.242188 440.121094 188.800781 434.976562 188.804688 C 432 188.832031 429.277344 188.890625 426.410156 188.824219 C 418.714844 188.75 408.597656 187.757812 402.324219 186.65625 L 402.300781 186.65625 C 396.699219 185.59375 390.535156 184.242188 384.4375 182.027344 C 380.390625 180.601562 376.761719 179.011719 373.339844 177.132812 C 369.921875 175.257812 366.816406 173.253906 363.613281 170.699219 L 363.613281 170.695312 C 359.46875 167.238281 356.136719 163.648438 353.097656 159.199219 L 353.089844 159.179688 C 351.363281 156.605469 349.070312 152.144531 347.890625 148.949219 C 347.402344 147.621094 346.863281 145.859375 346.410156 144.226562 C 344.890625 138.53125 346.554688 135.535156 349.242188 133.699219 C 351.152344 132.394531 354.34375 131.832031 356.960938 131.832031 L 376.742188 131.875 C 379.796875 131.875 381.949219 131.773438 383.542969 131.976562 C 385.136719 132.179688 386.550781 132.992188 387.09375 133.582031 C 388.28125 134.675781 388.859375 135.554688 389.382812 136.65625 C 389.90625 137.757812 389.875 138.234375 391.253906 140.628906 C 391.800781 141.785156 392.925781 143.519531 393.976562 144.839844 C 397.242188 148.90625 399.953125 150.886719 403.136719 152.792969 C 405.199219 153.933594 406.515625 154.613281 408.617188 155.378906 C 412.199219 156.753906 415.03125 157.332031 418.25 157.980469 L 418.273438 157.984375 C 420.613281 158.328125 423.023438 158.652344 425.0625 158.78125 C 428.546875 158.953125 432 158.90625 435.566406 158.90625 C 437.648438 158.90625 439.671875 158.609375 441.632812 158.316406 C 443.441406 158.152344 445.195312 157.765625 446.917969 157.382812 C 448.460938 157.03125 449.851562 156.621094 451.363281 156.15625 C 453.667969 155.308594 455.867188 154.277344 457.90625 153.09375 L 457.914062 153.09375 C 461.335938 150.792969 463.15625 148.921875 465.050781 145.722656 L 465.050781 145.71875 C 465.5625 144.714844 466.207031 143.1875 466.601562 141.71875 C 466.90625 140.289062 467.304688 138.5625 467.296875 137.15625 C 467.261719 133.957031 466.902344 131.644531 466.152344 129.804688 C 464.386719 125.894531 462.109375 123.800781 458.722656 121.851562 C 455.03125 119.71875 448.90625 118.367188 445.53125 117.902344 C 442.378906 117.46875 438.910156 117.136719 435.949219 116.808594 C 427.4375 115.886719 417.242188 114.777344 407.683594 113.765625 L 407.679688 113.765625 C 407.335938 113.765625 406.9375 113.613281 406.59375 113.488281 C 405.042969 112.925781 404.117188 111.527344 404.082031 109.96875 C 404.082031 109.90625 404.082031 109.847656 404.082031 109.789062 L 404.082031 95.230469 C 404.074219 94.761719 404.09375 94.277344 404.265625 93.804688 C 404.789062 92.363281 405.96875 91.476562 407.398438 91.316406 C 415.234375 90.128906 424.351562 89.042969 433.492188 87.628906 C 438.175781 86.902344 442.199219 86.0625 445.820312 84.699219 C 447.652344 84.09375 449.414062 83.261719 451.132812 82.230469 C 452.324219 81.464844 453.824219 80.316406 454.878906 79.144531 C 456.398438 77.4375 457.449219 75.539062 458.117188 73.320312 C 458.648438 71.601562 458.789062 69.300781 458.800781 67.933594 C 458.875 64.992188 458.027344 61.820312 456.90625 59.460938 C 454.824219 55.738281 453.082031 53.894531 449.742188 51.519531 L 449.738281 51.519531 L 449.738281 51.515625 C 446.902344 49.753906 445.652344 49.226562 443.402344 48.351562 L 443.398438 48.351562 C 441.925781 47.867188 440.460938 47.449219 438.953125 47.082031 C 436.925781 46.605469 434.316406 46.324219 432.15625 46.117188 C 429.214844 46.117188 426.886719 46.070312 424.011719 46.242188 C 417.453125 46.886719 411.933594 48.300781 406.621094 51.675781 C 403.109375 53.933594 400.214844 57.066406 398.175781 60.445312 C 397.308594 61.761719 396.589844 63.136719 396.140625 64.296875 C 395.808594 64.949219 395.417969 65.925781 394.972656 67.105469 C 394.304688 69.46875 393.027344 71.109375 391.300781 72.039062 C 390.703125 72.335938 389.453125 72.925781 387.628906 72.925781 L 364.515625 72.925781 C 362.414062 72.890625 359.851562 72.261719 358.070312 70.367188 C 356.046875 68.167969 355.261719 64.679688 356.558594 60.453125 C 357.074219 58.527344 357.578125 56.703125 358.246094 55.011719 C 359.351562 52.035156 361.023438 48.585938 362.769531 45.832031 C 365.429688 41.554688 368.78125 37.625 372.804688 34.113281 C 378.441406 29.207031 384.78125 25.660156 391.1875 23.054688 C 396.292969 21.015625 400.914062 19.65625 407.078125 18.371094 C 414.726562 16.894531 421.792969 16.21875 429.21875 16.21875 C 430.121094 16.207031 431.074219 16.171875 431.988281 16.1875 Z M 431.988281 16.1875 "/> <path style=" stroke:none;fill-rule:nonzero;fill:rgb(71.372549%,50.980392%,92.156863%);fill-opacity:1;" d="M 22.191406 17.855469 C 8.40625 17.855469 0.0234375 27.644531 0.0078125 39.789062 L 0 39.789062 L 0 39.828125 C 0 39.84375 0 39.863281 0 39.878906 C 0 39.894531 0 39.914062 0 39.929688 L 0 39.953125 L 0.0078125 39.957031 C 0.03125 45.890625 2.058594 51.40625 5.835938 55.429688 C 9.613281 59.464844 15.15625 62.011719 22.191406 62.011719 C 29.199219 62.011719 34.730469 59.527344 38.539062 55.511719 C 42.324219 51.527344 44.375 46.03125 44.40625 39.964844 L 44.410156 39.957031 L 44.410156 39.929688 C 44.410156 39.914062 44.410156 39.894531 44.410156 39.878906 C 44.410156 39.863281 44.410156 39.84375 44.410156 39.828125 L 44.410156 39.789062 L 44.40625 39.789062 C 44.375 33.753906 42.367188 28.332031 38.585938 24.367188 C 34.773438 20.371094 29.203125 17.855469 22.191406 17.855469 Z M 114.679688 29.300781 C 106.378906 29.300781 99.605469 30.761719 96.113281 33.949219 C 93.582031 36.257812 92.773438 38.941406 92.773438 43.863281 L 92.773438 126.484375 C 92.773438 133.496094 92.140625 138.574219 90.898438 142.757812 C 89.699219 146.792969 87.925781 149.777344 85.585938 152.230469 C 81.59375 156.648438 75.136719 159.410156 67.3125 159.410156 C 60.109375 159.410156 53.808594 156.957031 49.789062 152.855469 C 47.738281 150.613281 46.316406 148.074219 45.414062 144.964844 C 44.554688 142.007812 44.175781 138.714844 44.175781 134.507812 L 44.175781 80.296875 C 44.175781 79.105469 43.90625 78.226562 43.335938 77.648438 C 42.765625 77.066406 41.914062 76.796875 40.597656 76.796875 L 3.882812 76.796875 C 2.578125 76.796875 1.648438 77.054688 1.089844 77.636719 C 0.53125 78.214844 0.269531 79.09375 0.269531 80.3125 L 0.269531 129.046875 C 0.269531 137.730469 1.265625 145.59375 3.859375 152.535156 C 6.210938 158.832031 9.875 164.449219 15.296875 169.519531 C 17.613281 171.65625 20.285156 173.664062 23.363281 175.449219 C 34.601562 182.027344 49.046875 185.121094 63.5625 185.121094 C 76.425781 185.121094 89.253906 181.988281 99.925781 176.625 C 104.789062 174.175781 109.144531 171.265625 112.71875 167.980469 C 118.15625 172.863281 125.074219 176.675781 133.09375 179.546875 C 143.03125 183.097656 154.613281 185.132812 166.535156 185.132812 C 182.625 185.132812 196.238281 181.53125 207.332031 175.035156 C 217.03125 169.363281 224.695312 161.65625 230.601562 152.082031 C 234.707031 158.367188 239.238281 165.203125 244.507812 173.207031 C 247.457031 177.574219 250.355469 180.566406 253.902344 182.4375 C 257.59375 184.390625 261.828125 185.078125 267.839844 185.078125 C 274.15625 185.078125 279.652344 184.40625 284.730469 180.953125 C 287.886719 178.695312 289.71875 176.515625 292.09375 172.886719 C 301.828125 158.09375 311.007812 141.003906 318.660156 124.40625 C 323.613281 113.660156 328.324219 102.324219 331.96875 92.445312 L 331.96875 92.441406 C 332.667969 90.28125 333.257812 88.621094 333.847656 86.46875 C 334.03125 85.664062 334.125 84.976562 334.070312 84.367188 C 334.011719 83.761719 333.796875 83.238281 333.367188 82.777344 C 332.65625 82.007812 331.925781 81.617188 330.570312 81.035156 L 330.566406 81.035156 L 329.59375 80.75 L 319.371094 77.808594 L 319.367188 77.808594 C 316.992188 77.003906 315.070312 76.386719 313.59375 75.96875 C 312.113281 75.550781 311.089844 75.339844 310.5 75.339844 C 309.414062 75.339844 308.378906 75.617188 307.703125 76.246094 C 307.035156 76.871094 306.507812 77.796875 306.132812 79.046875 C 302.496094 91.074219 298.71875 101.46875 295.34375 110.183594 C 293.261719 115.546875 291.109375 120.753906 288.816406 125.9375 C 285.066406 134.429688 281.550781 141.566406 277.335938 148.898438 C 274.058594 142.546875 271.808594 138.507812 267.476562 130.707031 C 265.96875 127.976562 264.585938 125.488281 263.34375 123.261719 L 263.339844 123.257812 C 262.53125 121.707031 261.199219 119.480469 259.945312 117.367188 C 257.046875 112.371094 256.65625 111.75 251.136719 102.1875 L 251.136719 102.183594 C 247.382812 95.726562 245.011719 91.390625 240.550781 83.824219 L 240.550781 83.820312 L 240.460938 83.65625 L 240.460938 83.6875 C 238.300781 80.191406 236.449219 77.996094 234.457031 76.632812 C 232.429688 75.242188 229.90625 74.8125 227.320312 74.8125 C 221.644531 74.8125 214.140625 77.355469 208.222656 81.289062 C 206.144531 82.636719 204.226562 84.175781 202.613281 85.816406 C 199.496094 88.976562 197.675781 92.238281 197.675781 95.507812 C 197.675781 99.089844 198.75 101.738281 202.132812 107.425781 C 206.117188 114.25 208.128906 119.820312 208.128906 126.613281 C 208.128906 133.421875 206.074219 139.972656 202.023438 145.375 C 199.417969 148.847656 196.09375 151.746094 192.113281 153.957031 C 186.539062 157.050781 179.660156 158.890625 170.96875 158.890625 C 158.6875 158.890625 149.949219 155.199219 144.582031 149.480469 L 144.582031 149.476562 C 139.507812 144.261719 136.390625 136.960938 136.390625 124.117188 L 136.390625 101.84375 L 136.40625 101.84375 C 140.472656 103.566406 145.574219 104.550781 151.5625 104.550781 L 170.816406 104.550781 C 172.132812 104.550781 173.089844 104.332031 173.667969 103.75 C 174.246094 103.167969 174.425781 102.242188 174.425781 101.050781 L 174.425781 80.300781 C 174.425781 79.113281 174.246094 78.191406 173.667969 77.605469 C 173.089844 77.023438 172.132812 76.800781 170.816406 76.800781 L 136.394531 76.800781 L 136.394531 43.769531 C 136.394531 41.140625 136.175781 39.253906 135.652344 37.738281 C 135.125 36.21875 134.289062 35.078125 133.070312 33.949219 C 129.570312 30.761719 122.925781 29.300781 114.679688 29.300781 Z M 114.679688 29.300781 "/> </g> </svg>