<svg xmlns="http://www.w3.org/2000/svg" xmlns:xlink="http://www.w3.org/1999/xlink" version="1.1" id="Logo" x="0px" y="0px" style="enable-background:new 0 0 312 107;" xml:space="preserve" viewBox="5.14 6.25 300.95 94.95"> <style type="text/css"> 	.st0{fill:#FFFFFF;} 	.st1{fill:#106044;} 	.st2{fill:#311074;} 	.st3{fill:#2B10BF;} 	.st4{fill:#144E66;} 	.st5{fill:#102C3D;} 	.st6{fill:#80104B;} 	.st7{fill:#10EB82;} 	.st8{fill:#B682EB;} 	.st9{fill:#DD40DD;} 	.st10{fill:#1CCBD4;} 	.st11{fill:#DEEB52;} 	.st12{fill:#EB917D;} </style> <g> 	<path class="st7" d="M17.7,6.25c7.76,0,12.56,5.5,12.56,12.42c0,7.05-4.8,12.56-12.56,12.56S5.14,25.72,5.14,18.67   C5.14,11.75,9.94,6.25,17.7,6.25z M13.18,91.61c-4.94-4.94-7.9-11.29-7.9-22.29V41.66c0-1.41,0.56-1.98,1.98-1.98h20.88   c1.41,0,1.98,0.56,1.98,1.98v30.62c0,4.94,0.99,8.18,3.25,10.58c2.26,2.26,5.78,3.67,9.88,3.67c4.23,0,8.04-1.41,10.44-4.09   c2.82-2.96,4.09-7.2,4.09-14.96V20.5c0-2.4,0.56-3.95,1.83-5.08c1.98-1.83,5.78-2.68,10.58-2.68c4.66,0,8.47,0.85,10.44,2.68   c1.27,1.13,1.83,2.68,1.83,5.08v19.19h19.61c1.55,0,1.98,0.56,1.98,1.98v11.71c0,1.41-0.42,1.98-1.98,1.98H91.06   c-3.39,0-6.21-0.56-8.61-1.55v12.28c0,7.34,1.55,11.71,4.8,14.96c3.25,3.39,8.32,5.22,14.96,5.22c13.83,0,21.02-8.75,21.02-18.34   c0-3.81-1.13-7.05-3.39-10.86c-1.98-3.39-2.54-4.8-2.54-6.77c0-5.64,10.02-11.71,16.79-11.71c3.25,0,4.94,0.99,7.48,5.08   c2.4,4.09,7.34,12.84,12.42,21.45c3.1,5.64,6.63,11.85,8.47,15.52c5.78-9.88,12.13-25.68,16.37-39.65c0.42-1.41,1.13-2.12,2.4-2.12   c0.56,0,1.69,0.28,4.66,1.27c1.83,0.57,5.5,1.55,6.77,1.98c1.41,0.57,1.98,1.13,1.98,2.12c0,0.85-0.56,2.26-1.13,4.09   c-5.64,15.24-13.54,31.89-22.72,45.85c-3.39,5.36-7.34,6.91-13.69,6.91c-6.91,0-9.88-1.83-13.26-6.77l-7.9-11.99   c-7.2,11.71-19.47,18.77-36.26,18.77c-12.7,0-24.27-3.95-30.62-9.74c-6.49,5.93-17.35,9.74-27.94,9.74   C30.68,101.06,19.67,98.1,13.18,91.61z"/> 	<path class="st7" d="M264.32,95.7V80.75h-57.71c-2.68,0-4.23-1.55-4.23-4.23V64.66c0-2.12,0.71-3.81,2.26-5.22l51.5-49.52   c1.98-1.98,3.95-2.68,6.77-2.68h20.74c3.53,0,5.5,1.98,5.5,5.5v50.09l14.96,0.28c1.13,0,1.98,0.85,1.98,1.98v13.69   c0,1.13-0.85,1.97-1.98,1.97h-14.96V95.7c0,3.53-1.98,5.5-5.5,5.5h-13.83C266.3,101.21,264.32,99.23,264.32,95.7z M264.32,62.41   V27.27h-1.98l-34.99,33.58v0.85L264.32,62.41z"/> </g> </svg>