<svg viewBox="0 0 800 190" fill="none" xmlns="http://www.w3.org/2000/svg">
<path d="M0.639999 50.89H14.72V54.52C14.72 63.76 19.78 66.84 25.06 66.84C30.34 66.84 35.07 63.65 35.07 55.18V12.61H14.94V0.400024H49.26V55.4C49.26 72.45 36.94 79.82 24.84 79.82C12.74 79.82 0.639999 72.23 0.639999 55.4V50.89Z" fill="#ced9dd"/>
<path d="M90.4 21.08C106.57 21.08 115.26 32.85 115.26 47.7C115.26 49.35 114.93 53.09 114.93 53.09H76.21C77.09 62.88 84.68 67.94 93.04 67.94C102.06 67.94 109.21 61.78 109.21 61.78L114.6 71.79C114.6 71.79 106.02 79.82 92.05 79.82C73.46 79.82 61.91 66.4 61.91 50.45C61.91 33.18 73.68 21.08 90.4 21.08ZM101.18 43.52C100.96 35.93 96.23 31.86 90.07 31.86C82.92 31.86 77.97 36.26 76.65 43.52H101.18Z" fill="#ced9dd"/>
<path d="M120.65 22.4H135.39L145.18 59.25C145.95 62.22 146.28 65.19 146.28 65.19H146.5C146.5 65.19 147.05 62.22 147.82 59.25L158.16 22.51H170.59L180.93 59.25C181.7 62.22 182.14 65.19 182.14 65.19H182.36C182.36 65.19 182.8 62.22 183.57 59.25L193.36 22.4H207.88L190.83 78.5H175.32L165.86 46.49C164.98 43.52 164.43 40.44 164.43 40.44H164.21C164.21 40.44 163.77 43.52 162.89 46.49L153.43 78.5H137.81L120.65 22.4Z" fill="#ced9dd"/>
<path d="M241.65 21.08C257.82 21.08 266.51 32.85 266.51 47.7C266.51 49.35 266.18 53.09 266.18 53.09H227.46C228.34 62.88 235.93 67.94 244.29 67.94C253.31 67.94 260.46 61.78 260.46 61.78L265.85 71.79C265.85 71.79 257.27 79.82 243.3 79.82C224.71 79.82 213.16 66.4 213.16 50.45C213.16 33.18 224.93 21.08 241.65 21.08ZM252.43 43.52C252.21 35.93 247.48 31.86 241.32 31.86C234.17 31.86 229.22 36.26 227.9 43.52H252.43Z" fill="#ced9dd"/>
<path d="M277.29 0.400024H291.15V58.92C291.15 65.08 293.24 66.62 296.87 66.62C297.97 66.62 298.96 66.51 298.96 66.51V78.72C298.96 78.72 296.87 79.05 294.56 79.05C286.86 79.05 277.29 77.07 277.29 61.01V0.400024Z" fill="#ced9dd"/>
<path d="M308.53 0.400024H322.39V58.92C322.39 65.08 324.48 66.62 328.11 66.62C329.21 66.62 330.2 66.51 330.2 66.51V78.72C330.2 78.72 328.11 79.05 325.8 79.05C318.1 79.05 308.53 77.07 308.53 61.01V0.400024Z" fill="#ced9dd"/>
<path d="M365.07 21.08C381.24 21.08 389.93 32.85 389.93 47.7C389.93 49.35 389.6 53.09 389.6 53.09H350.88C351.76 62.88 359.35 67.94 367.71 67.94C376.73 67.94 383.88 61.78 383.88 61.78L389.27 71.79C389.27 71.79 380.69 79.82 366.72 79.82C348.13 79.82 336.58 66.4 336.58 50.45C336.58 33.18 348.35 21.08 365.07 21.08ZM375.85 43.52C375.63 35.93 370.9 31.86 364.74 31.86C357.59 31.86 352.64 36.26 351.32 43.52H375.85Z" fill="#ced9dd"/>
<path d="M401.48 22.4H414.9V32.08C414.9 34.17 414.68 36.04 414.68 36.04H414.9C417.43 28.01 424.14 21.63 432.72 21.63C434.04 21.63 435.25 21.85 435.25 21.85V35.6C435.25 35.6 433.82 35.38 431.95 35.38C426.01 35.38 419.3 38.79 416.66 47.15C415.78 49.9 415.45 52.98 415.45 56.28V78.5H401.48V22.4Z" fill="#ced9dd"/>
<path d="M444.15 87.52C444.15 87.52 447.23 89.83 450.42 89.83C454.27 89.83 458.01 87.52 460.1 82.57L462.19 77.62L438.54 22.4H454.27L466.04 54.74C467.14 57.71 468.13 62.33 468.13 62.33H468.35C468.35 62.33 469.23 57.93 470.22 54.96L481.22 22.4H496.51L471.43 86.97C467.47 97.2 459.66 101.6 451.19 101.6C444.48 101.6 439.53 97.97 439.53 97.97L444.15 87.52Z" fill="#ced9dd"/>
<path d="M511.69 1.17004H519.61L539.85 46.6C541.61 50.56 543.59 56.06 543.59 56.06H543.81C543.81 56.06 545.9 50.56 547.66 46.6L567.9 1.17004H575.71L581.87 78.5H574.28L569.99 24.38C569.66 20.2 569.77 13.6 569.77 13.6H569.55C569.55 13.6 567.24 20.42 565.48 24.38L547.33 64.09H540.18L522.03 24.38C520.27 20.53 517.85 13.38 517.85 13.38H517.63C517.63 13.38 517.74 20.2 517.41 24.38L513.12 78.5H505.53L511.69 1.17004Z" fill="#ced9dd"/>
<path d="M629.06 44.29H632.14V42.86C632.14 32.19 626.31 28.56 618.39 28.56C609.26 28.56 602.77 33.84 602.77 33.84L599.25 28.12C599.25 28.12 606.51 21.85 618.94 21.85C632.25 21.85 639.62 29.22 639.62 43.08V78.5H632.47V72.45C632.47 69.7 632.69 67.83 632.69 67.83H632.47C632.47 67.83 627.85 79.82 613.99 79.82C604.75 79.82 595.18 74.43 595.18 63.43C595.18 44.73 619.49 44.29 629.06 44.29ZM615.2 73.44C625.76 73.44 632.14 62.44 632.14 52.87V50.45H628.95C620.26 50.45 602.88 50.78 602.88 62.99C602.88 68.16 606.95 73.44 615.2 73.44Z" fill="#ced9dd"/>
<path d="M656.89 1.17004H664.37V44.29H673.17L689.78 23.17H698.8L679.55 47.26V47.48L700.67 78.5H691.76L673.28 50.78H664.37V78.5H656.89V1.17004Z" fill="#ced9dd"/>
<path d="M734.66 21.85C749.95 21.85 757.76 33.62 757.76 47.37C757.76 48.69 757.54 51.22 757.54 51.22H715.08C715.41 65.41 725.09 73.11 736.53 73.11C746.65 73.11 753.36 66.4 753.36 66.4L756.77 72.12C756.77 72.12 748.74 79.82 736.31 79.82C719.81 79.82 707.38 67.94 707.38 50.89C707.38 32.74 719.7 21.85 734.66 21.85ZM750.17 45.06C749.73 33.51 742.69 28.12 734.44 28.12C725.2 28.12 717.17 33.95 715.41 45.06H750.17Z" fill="#ced9dd"/>
<path d="M772.06 23.17H779.43V32.96C779.43 35.38 779.21 37.36 779.21 37.36H779.43C782.07 29 788.23 22.62 796.92 22.62C798.46 22.62 799.89 22.95 799.89 22.95V30.32C799.89 30.32 798.57 30.1 797.14 30.1C789.33 30.1 783.5 36.26 781.08 44.4C779.98 47.92 779.54 51.66 779.54 55.18V78.5H772.06V23.17Z" fill="#ced9dd"/>
<path d="M465.34 149.69H695.74" stroke="#ced9dd" stroke-width="9" stroke-linecap="round" stroke-linejoin="round"/>
<path d="M102.34 149.69H332.74" stroke="#ced9dd" stroke-width="9" stroke-linecap="round" stroke-linejoin="round"/>
<mask id="mask0_910_1535" style="mask-type:luminance" maskUnits="userSpaceOnUse" x="358" y="109" width="81" height="81">
<path d="M438.62 109.58H358.39V189.81H438.62V109.58Z" fill="white"/>
</mask>
<g mask="url(#mask0_910_1535)">
<path d="M438.61 149.69C408.53 155.23 404.04 159.72 398.5 189.8C392.96 159.72 388.47 155.23 358.39 149.69C388.47 144.15 392.96 139.66 398.5 109.58C404.04 139.66 408.53 144.15 438.61 149.69Z" fill="#ced9dd"/>
</g>
</svg>
