<svg width="800" height="470" viewBox="0 0 800 470" fill="none" xmlns="http://www.w3.org/2000/svg">
<path fill-rule="evenodd" clip-rule="evenodd" d="M661.774 108.354C646.034 101.832 668.528 86.0174 668.528 86.0174C688.224 72.8721 690.221 56.3759 662.605 54.4879C605.748 50.6004 564.885 107.1 556.269 120.093C539.44 110.924 512.825 109.475 474.408 142.042C436.115 174.504 360.405 174.839 295.433 167.383C295.433 167.383 242.283 156.244 226.273 172.692C210.262 189.141 153.134 199.192 126.037 204.447C98.9428 209.701 9.55838 231.173 1.46974 282.829C-8.67579 347.626 37.0279 431.354 37.0279 431.354C37.0279 431.354 62.1335 489.622 128.689 461.305C201.492 430.327 239.226 418.575 281.184 409.977C323.141 401.383 363.522 374.518 404.505 336.068C456.576 287.208 528.998 283.589 548.996 281.141C567.319 278.899 599.769 269.78 605.583 234.221C611.414 244.958 618.905 255.218 628.465 262.723C660.976 288.256 682.793 273.505 675.542 250.415C668.296 227.324 690.002 243.284 690.002 243.284C690.002 243.284 735.588 277.047 759.64 254.536C783.691 232.026 740.273 201.8 726.982 189.841C713.69 177.883 757.466 179.572 757.466 179.572C773.133 179.824 783.274 175.421 786.139 164.539C795.835 127.724 674.528 113.639 661.774 108.354Z" fill="white"/>
<path fill-rule="evenodd" clip-rule="evenodd" d="M740.323 3.18214C721.067 10.5145 695.926 35.4744 701.207 50.2211C706.487 64.969 738.186 65.9314 757.527 58.8295C777.045 51.6632 789.014 35.2461 782.989 19.2711C777.465 4.6162 762.951 -5.43359 740.324 3.18423L740.323 3.18214Z" fill="white"/>
<path fill-rule="evenodd" clip-rule="evenodd" d="M756.54 114.372C768.669 114.405 778.464 107.84 778.292 97.8644C778.135 88.7144 772.137 80.265 758.017 80.3948C746 80.5039 727.29 89.0789 727.297 98.2286C727.302 107.379 744.525 114.339 756.54 114.372Z" fill="white"/>
<path fill-rule="evenodd" clip-rule="evenodd" d="M799.545 215.232C801.147 220.165 798.447 225.461 793.514 227.064C788.582 228.667 783.284 225.969 781.681 221.036C780.078 216.103 782.778 210.806 787.711 209.204C792.644 207.601 797.942 210.299 799.545 215.232Z" fill="white"/>
<path fill-rule="evenodd" clip-rule="evenodd" d="M719.148 175.879C691.877 200.517 669.725 215.025 656.889 222.619C649.816 226.804 640.891 225.628 635.081 219.815C629.356 214.091 627.176 205.631 629.39 197.752L640.778 157.245C642.467 151.24 639.47 144.923 633.812 142.552C630.205 141.04 626.05 142.586 624.23 146.112L592.519 210.779C588.961 217.682 581.534 221.061 574.486 219.795C574.602 220.471 574.722 221.105 574.835 221.793C579.075 247.545 563.673 260.151 537.904 258.31C512.139 256.467 474.5 268.561 416.003 310.486C357.509 352.409 266.73 388.557 266.73 388.557C266.73 388.557 136.766 439.006 110.096 442.398C83.4276 445.785 60.4057 438.764 54.4359 405.561C48.4671 372.36 33.6092 332.402 33.6092 332.402C22.6916 304.068 18.514 280.426 70.7436 261.854C122.974 243.283 194.731 213.741 231.125 198.234C267.518 182.726 306.976 179.317 361.988 181.847C417.001 184.375 476.666 164.009 476.666 164.009C476.666 164.009 493.771 159.729 501.219 149.673C508.665 139.618 535.911 141.376 535.911 141.376C535.911 141.376 552.862 139.788 566.491 184.678L596.371 137.337C599.364 132.762 597.481 126.562 592.482 124.535C584.777 121.409 582.348 111.531 587.687 105.03C592.832 98.7631 601.452 96.7759 608.709 100.181L662.719 125.525C670.269 129.069 674.158 137.669 671.902 145.838L663.946 174.65C663.291 177.026 666.145 178.774 667.897 177.063C674.592 170.519 685.185 158.925 689.833 154.064C698.458 145.047 709.473 141.178 720.297 145.701C720.503 145.788 720.712 145.874 720.92 145.961C730.98 150.164 736.708 160.016 719.147 175.885L719.148 175.879Z" fill="#E10613"/>
<path fill-rule="evenodd" clip-rule="evenodd" d="M155.522 362.194C154.437 359.267 151.208 357.805 148.368 359.035C143.014 361.358 133.622 361.943 122.513 347.548C120.739 345.249 120.077 342.221 120.762 339.371C122.227 333.279 126.291 322.345 137.379 313.705C141.162 310.758 142.439 305.529 140.718 301.027L125.368 260.9C123.747 256.661 118.387 255.368 115.141 258.522C106.609 266.811 94.121 286.71 98.061 330.684C98.155 331.739 96.6769 332.042 96.3988 331.021L83.5447 283.697C82.073 278.275 75.7404 276.023 71.2388 279.32L53.8039 292.086C46.7472 297.254 44.2317 306.743 47.827 314.759C54.83 330.371 66.5428 359.998 78.621 405.965C81.2129 415.83 89.8282 422.824 99.8682 423.188L115.766 423.763C121.513 423.971 125.671 418.198 123.738 412.695L113.095 382.39C112.698 381.261 114.232 380.493 114.837 381.521C123.25 395.806 139.722 417.737 162.587 420.166C169.456 420.895 174.702 413.964 172.268 407.393L155.522 362.194Z" fill="white"/>
<path fill-rule="evenodd" clip-rule="evenodd" d="M189.833 296.619L176.764 305.47C175.14 306.569 172.956 305.621 172.617 303.673C172.224 301.413 172.056 298.831 172.14 296.127C172.432 286.804 176.629 279.358 181.515 279.494C186.4 279.63 190.124 287.297 189.833 296.619ZM280.938 314.771C279.935 312.467 276.99 312.034 275.261 313.85C271.14 318.173 263.655 321.114 255.949 299.578C254.22 294.741 252.513 289.393 250.863 283.804C250.381 282.172 251.173 280.416 252.702 279.71L259.403 276.617C263.237 274.847 265.336 270.587 264.429 266.415L259.351 243.082C258.472 239.048 254.05 236.997 250.465 238.959L243.164 242.955C241.92 243.634 240.378 242.925 240.062 241.528C238.028 232.538 236.396 224.757 235.334 219.54C234.575 215.81 230.847 213.564 227.251 214.654L220.341 216.747C214.384 218.552 210.555 224.471 211.318 230.735C211.998 236.334 212.989 243.783 214.346 252.338C214.9 255.842 213.212 259.342 210.133 261.027L200.28 266.418C192.741 249.844 184.128 240.051 171.747 243.707C149.028 250.415 140.498 291.022 152.69 334.403C164.884 377.784 188.098 400.21 211.707 399.15C222.104 398.684 230.169 386.593 233.541 370.293C234.78 364.311 233.121 358.093 229.322 353.382L215.746 336.546C213.394 333.629 208.79 334.954 208.202 338.69C207.084 345.771 204.34 353.791 197.635 353.709C190.18 353.62 184.793 346.76 181.785 341.587C180.015 338.541 180.909 334.615 183.802 332.623L210.827 314.016C213.867 311.924 215.173 308.035 214.032 304.499C213.377 302.462 212.726 300.451 212.078 298.461L219.253 295.15C220.966 294.359 222.944 295.326 223.415 297.174C235.681 345.347 257.819 392.773 295.318 361.863C297.852 359.213 298.552 355.268 297.088 351.899L280.938 314.771Z" fill="white"/>
<path fill-rule="evenodd" clip-rule="evenodd" d="M332.702 285.134C330.285 281.604 324.963 282.438 323.632 286.537C319.858 298.161 312.409 311.755 302.523 284.264C290.583 251.065 307.048 249.317 317.241 250.708C319.878 251.068 322.058 248.636 321.498 245.989L312.553 203.65C311.412 198.248 306.659 194.483 301.226 194.617C285.218 195.013 256.336 205.088 272.128 277.038C290.329 359.953 333.473 359.75 347.453 330.369C351.648 321.555 350.449 311.074 344.972 303.069L332.702 285.134Z" fill="white"/>
<path fill-rule="evenodd" clip-rule="evenodd" d="M358.574 232.817C358.119 234.578 355.651 234.596 355.225 232.832C352.294 220.669 351.032 208.444 350.486 200.481C350.144 195.462 346.012 191.618 341.066 191.743L323.445 192.186C319.392 192.289 316.724 196.548 318.385 200.301C324.992 215.248 339.641 252.761 356.632 324.083C357.919 329.487 364.066 331.983 368.663 328.944L378.737 322.285C382.181 320.009 383.461 315.508 381.712 311.746C374.608 296.452 358.941 259.138 372.825 254.468C386.586 249.837 394.041 286.699 396.61 302.745C397.162 306.199 400.95 307.982 403.919 306.196L415.467 299.251C421.206 295.801 423.892 288.825 422.001 282.345C411.973 247.97 379.816 150.516 358.574 232.817Z" fill="white"/>
<path fill-rule="evenodd" clip-rule="evenodd" d="M472.407 184.41C471.018 179.745 466.447 176.861 461.711 177.659L448.702 179.851C444.602 180.541 442.366 185.076 444.214 188.851C453.122 207.052 458.357 223.988 454.151 234.014C444.206 257.735 434.352 214.161 430.49 193.795C429.436 188.248 424.551 184.348 418.999 184.633L403.092 185.448C399.111 185.651 396.268 189.463 397.173 193.407C402.229 215.436 418.611 277.947 441.708 277.97C461.198 277.989 465.592 261.897 466.462 252.084C466.56 250.978 468.097 250.865 468.367 251.939L470.409 260.087C471.363 263.884 475.572 265.745 478.969 263.873L483.674 261.28C489.496 258.07 492.305 251.139 490.389 244.715L472.407 184.41Z" fill="white"/>
<path fill-rule="evenodd" clip-rule="evenodd" d="M515.88 206.45C509.162 206.264 503.891 200.57 504.104 193.734C504.318 186.899 509.937 181.508 516.655 181.695C523.373 181.882 528.646 187.574 528.43 194.411C528.217 201.247 522.597 206.637 515.88 206.45ZM528.536 155.745C516.586 154.147 505.229 160.891 498.996 171.929L498.981 171.88C498.183 169.126 495.358 167.542 492.639 168.335L481.686 171.528C478.204 172.544 476.298 176.358 477.549 179.804L501.56 245.898C503.213 250.444 507.892 253.058 512.561 252.043L528.02 248.683C531.305 247.968 532.712 243.988 530.597 241.346C527.632 237.645 523.609 231.881 519.061 223.373C519.204 223.394 519.34 223.435 519.485 223.455C535.834 225.642 551.112 212.258 553.608 193.56C556.109 174.861 544.883 157.934 528.536 155.745Z" fill="white"/>
</svg>
