<svg xmlns="http://www.w3.org/2000/svg" viewBox="0 0 35.27 26.46"><g fill-rule="evenodd" transform="translate(-53.423739 -112.16964)"><path d="m65.708139 112.16964 1.66905 1.35158-1.987 2.45378v-3.41271zm-7.37498 26.45834v-2.14784h2.14775v2.14784zm7.05708-3.52859v-7.36408h2.14784v7.36408zm0 3.52859v-2.14784h5.36959v2.14784zm-3.52858 0v-7.36392h2.14775v7.36392zm7.05717-8.74475v-2.14784h3.682v2.14784zm-15.49509 0v-2.14784h10.58576v2.14784zm10.58567-12.203-1.07375 1.32579-1.3818-1.70643 2.45555-3.03232zm-7.05701 5.30172v3.37267h-2.73121z" fill="#fff" /><path d="m83.746009 122.27213c.18524-.84693.68812-1.24393 1.42918-1.24393.6882 0 1.2175.397 1.45568 1.24393zm-11.53685 2.32908c-.89988 0-1.50863-.68813-1.50863-1.69388 0-1.03217.60875-1.69386 1.50863-1.69386.89987 0 1.50854.66169 1.50854 1.69386 0 1.00575-.60867 1.69388-1.50854 1.69388m0-5.3463c-2.17032 0-3.67894 1.45568-3.67894 3.65242 0 2.17024 1.50862 3.65243 3.67894 3.65243 2.17023 0 3.67885-1.48219 3.67885-3.65243 0-2.19674-1.50862-3.65242-3.67885-3.65242m16.48615 3.62597c0 .26461-.0265.55582-.0529.74106h-4.86985c.23818.74106.79399 1.16457 1.66735 1.16457.60876 0 1.16457-.21176 1.53506-.60876l1.32338 1.24394c-.58232.74105-1.6145 1.13805-2.85844 1.13805-2.32904 0-3.78473-1.45569-3.78473-3.65243 0-2.11729 1.45569-3.65243 3.52004-3.65243 2.03793 0 3.52012 1.53514 3.52012 3.626zm-9.87212-2.03796c.23818-.87344.95281-1.45568 1.95856-1.45568.15881 0 .31755.0265.42343.0529v2.11737c-.15882-.0265-.42343-.0529-.58225-.0529-1.03218 0-1.66744.58224-1.66744 1.79975v3.05028h-2.09086v-6.88135h1.95856zm-18.34224 5.51178h-2.14783v-9.4755c0-.34397.18548-.52914.42383-.52914.13246 0 .26493.0264.50336.31747l3.68191 4.52442 3.6621-4.52442c.1987-.24471.35099-.31747.52318-.31747.23843 0 .41054.18517.41054.52914v9.4755h-2.14784v-4.88323l-1.99764 2.5184c-.13907.17203-.25824.24479-.45034.24479-.11917 0-.29136-.0463-.45034-.24479l-2.01093-2.5051z" fill="#56be3c"/></g></svg>