<svg class="svg-icon text-white sm:max-h-[100px] max-h-[50px] mb-8" data-icon="brand-radio" fill="white" version="1.1" xmlns="http://www.w3.org/2000/svg" xmlns:xlink="http://www.w3.org/1999/xlink" xml:space="preserve" xmlns:serif="http://www.serif.com/" style="fill-rule:evenodd;clip-rule:evenodd;stroke-linejoin:round;stroke-miterlimit:2;" viewBox="0 0 511.69 111"><path d="M211.195,108.686c-3.283,1.573 -6.871,2.363 -10.495,2.312c-7.668,-0 -11.215,-3.969 -11.215,-13.817l-0,-18.86l-6.472,0l-0,-11.672l6.472,0l-0,-11.004l14.125,-5.864l-0,16.868l9.203,0l-0,11.672l-9.176,0l0,15.712c0,3.315 1.21,4.304 3.63,4.304c2.13,-0.114 4.169,-0.925 5.818,-2.312l-1.89,12.661Zm46.817,1.407l-0,-2.898c-2.962,2.372 -6.588,3.705 -10.346,3.803c-8.225,-0 -13.717,-5.21 -13.717,-14.974c0,-9.346 6.295,-14.151 15.253,-14.151c3.033,-0.074 6.043,0.549 8.81,1.824l-0,-2.159c-0,-3.802 -2.026,-5.125 -5.982,-5.125c-4.137,-0.092 -8.218,0.998 -11.786,3.147l-3.793,-9.847c5.694,-2.766 11.943,-4.125 18.244,-3.97c11.868,0 17.034,6.045 17.034,16.13l-0,28.22l-13.717,-0Zm-232.182,0.904c-16.79,-0 -25.83,-12.745 -25.83,-29.863c0,-18.623 10.658,-29.864 25.83,-29.864c13.88,0 19.372,6.115 23.247,17.035l-14.207,5.711c-2.025,-5.376 -3.956,-8.775 -9.122,-8.775c-6.539,-0 -9.366,6.7 -9.366,15.893c-0,8.844 2.719,15.878 9.516,15.878c4.908,0 7.015,-2.785 10.087,-8.19l13.241,7.201c-3.697,7.55 -10.005,14.974 -23.396,14.974Zm137.811,-0.001c-6.056,-0.061 -12.048,-1.269 -17.673,-3.565l3.384,-11.241c4.6,2.183 9.556,3.472 14.615,3.803c2.827,-0 3.875,-0.669 3.875,-1.992c-0,-1.324 -0.64,-1.978 -3.386,-2.786c-13.078,-3.552 -17.673,-6.282 -17.673,-15.322c-0,-9.039 5.737,-14.235 17.279,-14.235c5.584,-0.03 11.123,1.039 16.314,3.148l-3.236,11.491c-5.573,-2.479 -9.774,-3.635 -13.486,-3.635c-2.814,0 -3.549,0.585 -3.549,1.908c0,1.323 0.49,1.811 4.201,2.967c11.95,3.232 16.79,6.129 16.79,14.723c0.068,10.098 -6.634,14.736 -17.455,14.736Zm188.038,-0.366l-9.258,-19.627l-6.321,0l-0,19.627l-15.512,-0l0,-58.223l25.408,0c13.31,0 22.173,5.154 22.173,18.957c0,8.733 -3.982,14.152 -10.236,17.063l11.365,22.203l-17.619,-0Zm82.797,-0.907l-0,-3.064c-2.737,2.562 -6.313,3.978 -10.02,3.97c-7.912,-0 -14.043,-6.366 -14.043,-22.495c0,-15.558 5.438,-22.746 14.614,-22.746c3.511,0.077 6.882,1.424 9.517,3.803l-0,-13.817l14.6,-5.962l-0,60.311l-14.668,0Zm-40.949,-0.001l-0,-2.896c-2.962,2.369 -6.589,3.702 -10.345,3.803c-8.157,-0 -13.717,-5.21 -13.717,-14.974c-0,-9.346 6.293,-14.138 15.266,-14.138c3.027,-0.076 6.032,0.543 8.796,1.811l-0,-2.173c-0,-3.817 -2.026,-5.126 -5.982,-5.126c-4.135,-0.09 -8.214,0.995 -11.787,3.134l-3.793,-9.834c5.694,-2.77 11.944,-4.13 18.245,-3.969c11.868,-0 17.034,6.031 17.034,16.129l-0,28.206l-13.717,0.027Zm97.976,0.906c-11.705,-0 -20.093,-7.689 -20.093,-22.663c-0,-14.973 8.388,-22.578 20.093,-22.578c11.705,-0 20.187,7.41 20.187,22.578c0,15.169 -8.468,22.663 -20.187,22.663Zm-415.468,-0.536l0,-24.626c0,-5.572 -1.849,-7.118 -4.839,-7.118c-2.991,0 -4.922,1.491 -4.922,6.965l0,24.82l-14.532,0l-0,-54.321l14.532,-5.962l0,19.765c2.994,-2.534 6.776,-3.883 10.659,-3.802c9.285,-0 13.717,6.379 13.717,17.787l-0,26.561l-14.615,-0.069Zm223.904,-0.001l-0,-24.626c-0,-5.572 -1.863,-7.118 -4.84,-7.118c-2.977,0 -4.935,1.491 -4.935,6.965l0,24.82l-14.478,0l0,-43.443l14.532,0l0,2.897c3.002,-2.529 6.787,-3.878 10.673,-3.802c9.285,-0 13.717,6.379 13.717,17.787l-0,26.561l-14.669,-0.041Zm-83.651,-0l-0,-43.444l14.533,0l-0,43.444l-14.533,-0Zm-88.401,-0l-0,-43.444l14.573,0l0,43.444l-14.573,-0Zm-6.31,-27.059c-0.809,-1.074 -1.835,-1.955 -3.008,-2.583c-1.174,-0.628 -2.466,-0.987 -3.789,-1.053c-3.548,0 -5.723,1.741 -5.723,6.965l0,23.678l-14.533,0l0,-43.443l14.533,-0l0,3.147c2.024,-2.145 4.692,-3.53 7.576,-3.935c2.885,-0.404 5.819,0.197 8.33,1.707l-3.386,15.517Zm332.109,26.693l0,-43.43l14.506,0l-0,43.43l-14.506,-0Zm-195.674,-17.35c-1.961,-0.879 -4.088,-1.302 -6.227,-1.24c-0.61,-0.071 -1.229,-0 -1.809,0.208c-0.581,0.208 -1.108,0.547 -1.542,0.994c-0.434,0.446 -0.764,0.986 -0.965,1.582c-0.202,0.595 -0.268,1.229 -0.197,1.854c-0.083,0.631 -0.024,1.273 0.172,1.877c0.197,0.605 0.525,1.155 0.961,1.609c0.434,0.454 0.966,0.8 1.552,1.012c0.586,0.212 1.211,0.284 1.828,0.21c2.248,-0.009 4.431,-0.761 6.227,-2.145l-0,-5.961Zm135.515,-0.356c-1.958,-0.886 -4.087,-1.31 -6.226,-1.239c-0.611,-0.074 -1.23,-0.005 -1.811,0.202c-0.58,0.206 -1.108,0.544 -1.544,0.989c-0.436,0.445 -0.766,0.984 -0.97,1.579c-0.204,0.594 -0.272,1.228 -0.202,1.854c-0.07,0.63 -0.002,1.268 0.2,1.868c0.202,0.599 0.532,1.145 0.966,1.598c0.433,0.452 0.96,0.799 1.541,1.017c0.582,0.217 1.203,0.299 1.82,0.239c2.246,-0.009 4.43,-0.762 6.226,-2.145l-0,-5.962Zm97.976,-14.556c-3.793,-0 -5.723,3.134 -5.723,10.502c-0,7.368 1.93,10.586 5.723,10.586c3.793,-0 5.737,-3.385 5.737,-10.586c-0,-7.201 -1.863,-10.502 -5.737,-10.502Zm-57.027,2.23c-1.404,-1.335 -3.251,-2.072 -5.167,-2.061c-3.004,-0 -4.608,1.894 -4.608,10c0,8.692 1.604,10.753 4.676,10.753c1.89,-0.017 3.706,-0.752 5.099,-2.061l-0,-16.631Zm-88.887,-14.151l-9.517,-0l0,12.731l9.245,-0c5.125,-0 7.151,-2.326 7.151,-6.491c0.028,-3.663 -1.917,-6.24 -6.879,-6.24Zm-122.028,-2.029c-4.772,0 -8.32,-2.785 -8.32,-7.368c0,-4.179 3.548,-7.201 8.32,-7.201c5.003,-0 8.469,2.981 8.469,7.201c0,4.555 -3.466,7.368 -8.469,7.368Zm-88.415,0c-4.772,0 -8.319,-2.785 -8.319,-7.368c-0,-4.179 3.547,-7.201 8.319,-7.201c5.003,-0 8.469,2.981 8.469,7.201c0,4.555 -3.466,7.368 -8.469,7.368Zm325.799,-0.366c-4.757,0 -8.306,-2.786 -8.306,-7.368c-0,-4.179 3.549,-7.187 8.306,-7.187c5.004,-0 8.484,2.981 8.484,7.187c-0,4.555 -3.48,7.368 -8.484,7.368Zm-338.158,-63.147l-0,41.911l31.267,0l-0,15.963l11.27,-15.963l70.515,0l0,-41.911l-113.052,-0Zm91.859,22.592l-0,0.223l-9.368,0c0,2.062 0.816,4.443 3.209,4.443c0.645,0.008 1.271,-0.229 1.756,-0.667c0.485,-0.437 0.793,-1.043 0.867,-1.7l3.345,-0c-0.231,3.175 -3.291,4.708 -6.145,4.708c-1.006,-0.033 -1.998,-0.26 -2.923,-0.669c-0.865,-0.39 -1.608,-1.016 -2.147,-1.811c-1.047,-1.505 -1.582,-3.32 -1.524,-5.167c0,-3.956 2.189,-7.41 6.431,-7.41c0.908,-0.051 1.816,0.094 2.667,0.425c0.849,0.331 1.621,0.841 2.268,1.497c1.04,1.404 1.59,3.126 1.564,4.889c0.04,0.412 0.04,0.827 -0,1.239Zm-45.774,0l0,0.223l-9.367,0c0,2.062 0.816,4.443 3.222,4.443c0.643,0.005 1.266,-0.235 1.748,-0.671c0.481,-0.438 0.789,-1.041 0.863,-1.696l3.344,-0c-0.231,3.175 -3.29,4.708 -6.145,4.708c-1.011,-0.035 -2.006,-0.262 -2.936,-0.669c-0.857,-0.398 -1.593,-1.023 -2.135,-1.811c-1.045,-1.505 -1.581,-3.32 -1.522,-5.167c-0,-3.956 2.189,-7.41 6.43,-7.41c0.907,-0.051 1.816,0.094 2.666,0.425c0.85,0.331 1.623,0.841 2.268,1.497c1.04,1.404 1.592,3.126 1.564,4.889c0.04,0.412 0.04,0.827 0,1.239Zm60.292,6.714l-3.588,0l-0,-3.566l3.588,0l-0,3.566Zm-86.666,-8.594c-1.401,0.914 -3.068,1.303 -4.717,1.1l-2.488,0l0,5.029l2.719,-0l0,2.437l-8.605,0l-0,-2.437l2.216,-0l0,-14.514l-2.216,-0l-0,-2.41l8.972,0c0.819,-0.098 1.649,-0.007 2.431,0.265c0.78,0.272 1.492,0.72 2.083,1.309c1.057,1.184 1.628,2.741 1.591,4.346c0.046,0.917 -0.112,1.833 -0.464,2.678c-0.35,0.844 -0.885,1.596 -1.562,2.197l0.04,-0Zm50.627,8.566l-6.893,0l0,-2.312l1.659,-0l0,-6.407c0,-1.463 -0.177,-3.385 -2.08,-3.385c-0.464,-0.026 -0.924,0.093 -1.32,0.342c-0.396,0.249 -0.708,0.615 -0.896,1.051c-0.372,0.876 -0.526,1.833 -0.448,2.786l-0,5.571l1.631,0l-0,2.298l-6.797,0l-0,-2.256l1.604,-0l-0,-6.658c0.058,-0.746 -0.059,-1.496 -0.34,-2.187c-0.153,-0.285 -0.377,-0.523 -0.649,-0.689c-0.273,-0.167 -0.583,-0.256 -0.901,-0.258c-0.642,-0.011 -1.267,0.211 -1.764,0.626c-0.498,0.416 -0.837,0.998 -0.955,1.644c-0.148,0.695 -0.207,1.407 -0.176,2.118l-0,5.404l1.685,-0l0,2.298l-7.042,0l0,-2.298l1.849,-0l0,-9.75l-1.849,-0l0,-2.298l5.112,-0l-0,2.298c0.385,-0.854 1.012,-1.57 1.801,-2.052c0.789,-0.482 1.7,-0.709 2.617,-0.65c0.857,-0.09 1.716,0.131 2.43,0.625c0.712,0.494 1.234,1.229 1.471,2.077c0.322,-0.829 0.887,-1.535 1.618,-2.019c0.731,-0.484 1.591,-0.723 2.461,-0.683c0.873,-0.057 1.741,0.175 2.474,0.661c0.735,0.487 1.297,1.202 1.604,2.041c0.235,0.721 0.314,1.487 0.231,2.242l0,7.508l1.727,-0l0.136,2.312Zm8.007,0l-7.015,0l-0,-2.312l1.876,-0l0,-9.75l-1.876,-0l-0,-2.298l5.438,-0l-0,12.048l1.645,-0l-0.068,2.312Zm-45.624,-11.115c-0.401,-0.126 -0.817,-0.196 -1.237,-0.209c-0.623,-0.005 -1.234,0.186 -1.749,0.547c-0.515,0.361 -0.911,0.875 -1.133,1.473c-0.282,1.075 -0.397,2.189 -0.339,3.301l-0,3.691l2.283,-0l-0,2.298l-7.586,0l0,-2.298l1.836,-0l0,-9.75l-1.836,-0l0,-2.298l5.139,-0l0,3.064c0.078,-0.54 0.262,-1.059 0.544,-1.523c0.281,-0.463 0.653,-0.863 1.092,-1.172c0.439,-0.31 0.936,-0.524 1.459,-0.628c0.523,-0.104 1.062,-0.097 1.582,0.022l-0.055,3.482Zm69.578,0c-0.402,-0.126 -0.817,-0.196 -1.237,-0.209c-0.622,-0.002 -1.23,0.19 -1.742,0.551c-0.513,0.361 -0.905,0.873 -1.127,1.469c-0.293,1.073 -0.412,2.188 -0.353,3.301l0,3.691l2.244,-0l-0,2.298l-7.6,0l0,-2.298l1.849,-0l-0,-9.75l-1.849,-0l0,-2.298l5.152,-0l-0,3.064c0.075,-0.54 0.259,-1.058 0.538,-1.522c0.281,-0.463 0.651,-0.863 1.089,-1.173c0.438,-0.31 0.934,-0.524 1.457,-0.628c0.522,-0.104 1.06,-0.097 1.579,0.022l0,3.482Zm-62.456,-1.378c-2.215,-0 -2.922,2.061 -3.072,3.955l5.751,0c-0.027,-1.629 -0.667,-3.955 -2.679,-3.955Zm45.789,-0c-2.216,-0 -2.936,2.061 -3.1,3.955l5.765,0c-0.028,-1.629 -0.653,-3.955 -2.665,-3.955Zm-71.302,-4.43l-1.822,0l0,6.965l1.822,-0c0.497,0.074 1.002,0.04 1.484,-0.099c0.483,-0.139 0.931,-0.381 1.317,-0.709c0.622,-0.782 0.924,-1.78 0.843,-2.786c0.031,-0.493 -0.038,-0.987 -0.203,-1.452c-0.163,-0.465 -0.418,-0.89 -0.749,-1.25c-0.379,-0.297 -0.814,-0.509 -1.277,-0.624c-0.464,-0.115 -0.945,-0.13 -1.415,-0.045Zm58.862,-2.953l3.576,-0l-0,3.301l-3.507,-0l-0.069,-3.301Z" style="fill-rule:nonzero;"/></svg>