<svg width="178" height="217" viewBox="0 0 178 217" fill="none" xmlns="http://www.w3.org/2000/svg">
<path d="M88.6185 0C41.194 0 0.0976562 37.2227 0.0976562 89.706C0.0976562 120.669 12.9039 137.816 31.1954 157.797L88.4937 216.28L145.667 158.046C168.507 134.138 177.139 118.465 177.139 89.3941C177.139 41.1894 139.537 0 88.6185 0ZM88.8056 50.4362C110.136 50.4362 127.42 67.7516 127.42 89.0822C127.42 110.413 110.136 127.697 88.8056 127.697C67.475 127.697 50.1908 110.413 50.1908 89.0822C50.1908 67.7516 67.475 50.4362 88.8056 50.4362Z" fill="url(#paint0_linear_2075_6)"/>
<defs>
<linearGradient id="paint0_linear_2075_6" x1="-0.0628136" y1="95.9901" x2="176.356" y2="95.9901" gradientUnits="userSpaceOnUse">
<stop stop-color="#F8AE1F"/>
<stop offset="1" stop-color="#F89D21"/>
</linearGradient>
</defs>
</svg>
