<svg width="1722" height="500" viewBox="0 0 1722 500" fill="none" xmlns="http://www.w3.org/2000/svg">
<g clip-path="url(#clip0_2074_2)">
<path d="M298.865 28.75C253.346 28.5904 245.664 53.0534 245.664 76.2559V381.088C250.664 381.888 255.965 382.289 261.965 382.289C306.965 382.289 315.757 369.087 315.764 346.084L315.865 30.5508C310.665 29.3507 304.665 28.7704 298.865 28.75ZM472.865 117.66C441.789 117.66 423.683 129.231 405.482 149.033L319.021 243.438L388.465 352.486C401.465 372.489 418.135 382.889 445.535 382.889C463.735 382.889 479.188 378.818 485.988 375.418L402.213 249.361L461.529 186.535C475.094 208.006 488.752 229.356 502.426 250.686L558.82 339.123L499.467 464.098C505.467 467.098 517.605 470.582 532.605 471.182C558.806 471.782 573.066 461.897 583.666 438.494L669.447 247.381C687.552 207.045 705.026 168.353 723.764 126.369C717.964 123.369 705.082 120 694.682 119.6C676.682 119.2 652.466 123.061 637.066 159.865L591.717 266.439L502.865 121.949C497.065 120.349 483.065 117.66 472.865 117.66ZM117.279 118.266C106.069 118.372 94.9328 118.91 84.3848 120.061C27.9124 126.181 0 160.173 0 199.869C0 232.873 23.6958 263.575 68.6875 272.576L123.178 282.979C142.974 286.779 153.172 291.279 153.172 302.08C153.172 310.281 144.615 318.881 119.979 318.881C96.9827 318.881 65.7885 315.281 45.9922 315.281C26.9957 315.281 6.79883 323.883 6.79883 361.287C6.79883 366.088 7.39862 371.687 8.39844 376.287C36.9932 379.688 96.6818 384.789 138.074 380.389C195.064 374.388 223.158 343.085 223.158 300.08C223.158 263.076 200.901 233.008 147.174 223.07L96.082 213.52C79.4851 210.919 68.6582 206.87 68.6582 197.469C68.6582 188.668 79.5853 181.268 105.98 181.268C131.776 181.268 154.573 183.918 169.17 183.918C188.366 183.918 207.963 175.867 207.963 138.463C207.963 133.462 207.361 128.861 206.361 124.061C185.215 121.51 150.911 117.947 117.279 118.266Z" fill="url(#paint0_linear_2074_2)"/>
<path d="M1688.1 0H831.9C813.6 0 798.6 15 798.6 33.3V466.7C798.6 485 813.6 500 831.9 500H1688.1C1706.4 500 1721.4 485 1721.4 466.7V33.3C1721.4 15 1706.4 0 1688.1 0Z" fill="url(#paint1_linear_2074_2)"/>
<path opacity="0.25" d="M822.3 248.1L825.6 247.9L1696.4 217.54C1708.9 217.14 1721.4 207.94 1721.4 192.14V33.3C1721.4 15 1706.4 0 1688.1 0H831.9C813.6 0 798.6 15 798.6 33.3V274.3C798.6 271.6 799 250.7 822.3 248.1Z" fill="url(#paint2_linear_2074_2)"/>
<path d="M1242 226.557V370.132C1242 380.124 1236.51 385.63 1219.89 385.63C1212.81 385.63 1204.81 384.61 1200.71 383.59V230.655C1200.71 211.118 1194.96 195.988 1184.81 186.576C1176.74 179.091 1165.97 175.288 1152.38 175.288C1125.71 175.288 1103.55 194.144 1094.52 213.108V370.234C1094.52 380.226 1088.98 385.731 1072.36 385.731C1065.28 385.731 1057.28 384.712 1053.17 383.692V230.655C1053.17 195.581 1035.93 175.288 1004.85 175.288C978.174 175.288 956.014 194.244 946.985 213.208V370.234C946.985 380.226 941.445 385.731 924.824 385.731C917.745 385.731 909.743 384.712 905.639 383.692V143.574C909.64 142.554 917.745 141.534 925.235 141.534C940.829 141.534 946.639 147.55 946.639 158.052V174.068C962.234 153.575 986.177 138.487 1015.42 138.487C1047.63 138.487 1072.87 154.695 1085.39 182.223C1102.01 157.142 1127.14 138.487 1162.95 138.487C1188.79 138.436 1209.13 148.416 1222.42 164.637C1235.41 180.494 1242 202.314 1242 226.557Z" fill="white"/>
<path d="M1527.85 262.341L1614.95 378.103C1609.41 381.662 1596.83 385.692 1586.25 385.692C1576.69 385.692 1570.21 384.308 1561.99 373.184L1503.13 291.708L1442.22 373.692C1434.91 384.141 1428.72 385.665 1417.43 385.692C1409.83 385.71 1397.35 383.086 1391.81 378.103L1479.4 263.867L1391.82 149.111C1397.37 145.653 1408.5 141.563 1419.59 141.563C1430.17 141.563 1435.58 142.757 1443.31 152.865L1503.61 234.088L1564.98 153.073C1567.36 149.998 1569.16 147.877 1571.35 146.2C1576.28 142.433 1581.63 141.533 1589.24 141.533C1597.35 141.533 1608.4 144.02 1614.98 149.104L1527.85 262.341Z" fill="white"/>
<path d="M1327.07 72.2226C1314.27 72.1248 1303.88 82.5144 1303.98 95.3003C1303.98 107.243 1314.63 118.35 1327.07 118.35C1339.87 118.3 1350.3 108.094 1350.59 95.3003C1350.59 81.9399 1340.38 72.2226 1327.07 72.2226ZM1328.59 139.213C1311.9 139.213 1306.34 145.257 1306.34 154.808L1306.33 383.541C1312.64 384.871 1319.07 385.552 1325.52 385.577C1342.14 385.577 1347.2 380.111 1347.2 370.002V141.183C1341.09 139.874 1334.85 139.214 1328.59 139.213Z" fill="white"/>
<path opacity="0.25" d="M298.865 28.8496C253.305 28.6505 245.664 52.8533 245.664 76.2559V285.277C245.664 275.676 253.263 267.876 262.863 267.676C270.463 267.476 291.664 266.677 298.064 266.477C305.065 266.277 315.665 261.475 315.865 248.674V30.6504C310.265 29.4503 304.665 28.8496 298.865 28.8496ZM472.865 117.66C441.765 117.746 423.683 129.231 405.482 149.033L319.021 243.438L326.008 254.363C329.008 258.364 334.865 264.976 346.465 264.576C350.665 264.376 392.311 263.229 395.711 263.029C406.511 262.629 413.495 267.046 417.695 272.646L402.213 249.361L461.529 186.535L501.459 249.18C508.659 258.581 519.465 258.676 521.865 258.676C523.865 258.676 576.267 256.876 578.467 256.676C582.067 256.476 586.507 258.573 589.707 263.174L502.865 121.949C497.065 120.149 483.065 117.66 472.865 117.66ZM121.578 117.859C108.98 118.259 96.3826 118.859 84.3848 119.859C28.3851 126.22 0 159.464 0 199.668C0 220.27 9.12245 240.074 27.1191 254.275C40.7166 263.276 54.9897 266.877 68.7871 269.277C80.185 271.278 106.78 273.075 126.576 272.275C132.775 272.075 178.368 270.476 188.166 270.076C210.859 269.293 223.304 288.412 222.711 307.783C222.908 305.264 223.158 302.587 223.158 300.08C223.158 263.076 201.003 232.827 147.174 222.871L96.082 213.52C79.4413 210.865 68.6582 206.87 68.6582 197.469C68.6582 188.668 79.7853 181.268 105.98 181.268C131.976 181.268 154.573 183.918 169.17 183.918C188.166 183.918 207.963 175.467 207.963 138.062C207.963 133.262 207.361 128.861 206.361 124.061C186.165 121.86 153.772 117.859 121.578 117.859ZM222.711 307.783C222.704 307.877 222.697 307.977 222.689 308.07V309.07C222.715 308.641 222.698 308.212 222.711 307.783ZM692.268 119.568C674.467 119.768 651.866 124.461 637.066 159.865L592.275 265.119C592.275 265.119 595.466 256.05 604.066 255.65C604.066 255.65 647.667 254.051 650.867 254.051C665.33 253.638 670.832 243.966 672.432 240.766L723.764 126.369C717.964 123.369 704.867 119.794 694.467 119.594L692.268 119.568Z" fill="url(#paint3_linear_2074_2)"/>
</g>
<defs>
<linearGradient id="paint0_linear_2074_2" x1="562.715" y1="27.2923" x2="562.715" y2="470.663" gradientUnits="userSpaceOnUse">
<stop stop-color="#9C6EFF"/>
<stop offset="1" stop-color="#894AFF"/>
</linearGradient>
<linearGradient id="paint1_linear_2074_2" x1="993.954" y1="443.158" x2="1694.75" y2="30.3545" gradientUnits="userSpaceOnUse">
<stop stop-color="#7100FC"/>
<stop offset="1" stop-color="#4F00FA"/>
</linearGradient>
<linearGradient id="paint2_linear_2074_2" x1="1306.91" y1="244.035" x2="1295.34" y2="21.8432" gradientUnits="userSpaceOnUse">
<stop stop-color="white" stop-opacity="0.97"/>
<stop offset="0.711888" stop-color="white" stop-opacity="0.29"/>
<stop offset="0.863107" stop-color="white" stop-opacity="0.29"/>
<stop offset="1" stop-color="white" stop-opacity="0.23"/>
</linearGradient>
<linearGradient id="paint3_linear_2074_2" x1="408.79" y1="275.48" x2="397.226" y2="53.2886" gradientUnits="userSpaceOnUse">
<stop stop-color="white" stop-opacity="0.97"/>
<stop offset="0.061588" stop-color="white" stop-opacity="0.99798"/>
<stop offset="0.18" stop-color="white" stop-opacity="0.866667"/>
<stop offset="0.711888" stop-color="white" stop-opacity="0.29"/>
<stop offset="0.863107" stop-color="white" stop-opacity="0.29"/>
<stop offset="1" stop-color="white" stop-opacity="0.23"/>
</linearGradient>
<clipPath id="clip0_2074_2">
<rect width="1721.4" height="500" fill="white"/>
</clipPath>
</defs>
</svg>
