<svg xmlns="http://www.w3.org/2000/svg" width="131" height="32" viewBox="0 0 131 32" fill="none">
<path d="M128.277 0H52.4829C51.3265 0 50.3804 0.96 50.3804 2.13333V29.8667C50.3804 31.04 51.3265 32 52.4829 32H128.277C129.433 32 130.379 31.04 130.379 29.8667V2.13333C130.379 0.96 129.433 0 128.277 0Z" fill="url(#paint0_linear_11_130)"/>
<path opacity="0.35" d="M51.8784 15.8667H52.0887C58.3172 15.6533 128.803 13.1467 128.803 13.1467C129.591 13.12 130.379 12.5333 130.379 11.52V2.13333C130.379 0.96 129.433 0 128.277 0H52.4829C51.3265 0 50.3804 0.96 50.3804 2.13333V17.5467C50.3804 17.36 50.4067 16.0267 51.8784 15.8667Z" fill="url(#paint1_linear_11_130)"/>
<path fill-rule="evenodd" clip-rule="evenodd" d="M19.9209 22.16C19.9209 23.6267 19.3427 24.48 16.5044 24.48C16.1365 24.48 15.7948 24.4533 15.4794 24.4V4.88C15.4794 3.38667 15.9788 1.84 18.8434 1.84C19.2113 1.84 19.5792 1.86667 19.9209 1.94667V22.16ZM31.5108 29.7067C31.8787 29.8933 32.6408 30.1333 33.6132 30.16C35.2689 30.1867 36.1625 29.5467 36.8195 28.0533L45.6499 8.10669C45.2819 7.92002 44.4672 7.68002 43.8102 7.68002C42.6801 7.65336 41.1558 7.89336 40.1834 10.24L37.3188 17.0667L31.721 7.81336C31.3531 7.70669 30.4595 7.54669 29.8288 7.54669C27.8314 7.54669 26.7276 8.29336 25.5976 9.54669L20.1311 15.5733L24.52 22.56C25.3348 23.84 26.386 24.48 28.1205 24.48C29.2506 24.48 30.1967 24.2133 30.6435 24L25.361 15.9733L29.0929 11.9467L35.2426 21.7067L31.5108 29.7067ZM8.69897 24.3467C12.2994 23.9467 14.0603 21.9467 14.0603 19.2C14.0603 16.8267 12.6148 14.9067 9.30343 14.3467L6.0446 13.7333C4.99336 13.5467 4.33634 13.3067 4.33634 12.6933C4.33634 12.1067 5.01965 11.6533 6.67534 11.6533C7.62397 11.6533 8.49495 11.7058 9.23886 11.7507C9.79334 11.7841 10.2772 11.8133 10.67 11.8133C11.879 11.8133 13.1142 11.3067 13.1142 8.90666C13.1142 8.58666 13.0616 8.26666 13.009 7.97333C11.2219 7.73333 7.9631 7.41333 5.30873 7.70666C1.7871 8.08 0 10.24 0 12.8C0 14.9067 1.52429 16.9067 4.36262 17.44L7.77914 18.1067C9.04062 18.3733 9.67136 18.64 9.67136 19.3333C9.67136 19.84 9.17202 20.4 7.56889 20.4C6.80081 20.4 5.89674 20.3419 5.03223 20.2863C4.24024 20.2354 3.48146 20.1867 2.8909 20.1867C1.68198 20.1867 0.420494 20.72 0.420494 23.12C0.420494 23.4133 0.473056 23.7867 0.525617 24.08C2.31272 24.2933 6.09716 24.64 8.69897 24.3467Z" fill="#EBEBEB"/>
<path fill-rule="evenodd" clip-rule="evenodd" d="M18.8434 1.84C15.9788 1.84 15.5057 3.38667 15.5057 4.88V18.2667C15.5057 17.7333 15.9262 17.1733 16.5832 17.1467C16.8095 17.1339 17.2341 17.1212 17.6587 17.1084C18.1218 17.0945 18.5852 17.0806 18.7908 17.0667C19.2376 17.04 19.8946 16.7467 19.9209 15.92V1.94667C19.5793 1.89333 19.2113 1.84 18.8434 1.84ZM31.721 7.81336L37.1874 16.8267C36.9772 16.5333 36.7144 16.4 36.4778 16.4C36.3954 16.4 35.4583 16.4365 34.5638 16.4712C33.7473 16.503 32.9663 16.5333 32.9036 16.5333C32.746 16.5333 32.0627 16.5333 31.6159 15.92L29.0929 11.92L25.361 15.9467L26.3334 17.44C26.0706 17.0933 25.6501 16.8 24.9668 16.8267C24.8676 16.8267 24.2295 16.8505 23.5557 16.8756C22.8024 16.9036 22.0044 16.9333 21.8657 16.9333C21.1298 16.96 20.7619 16.5333 20.5779 16.2667L20.1311 15.5733L25.5976 9.54669C26.7276 8.29336 27.8314 7.54669 29.8288 7.54669C30.4595 7.54669 31.3531 7.70669 31.721 7.81336ZM42.4173 15.4133L45.6499 8.10667C45.2819 7.89333 44.4672 7.68 43.8365 7.68C42.7064 7.65333 41.1821 7.89333 40.2097 10.24L37.4362 16.8773C37.4342 16.8819 37.4324 16.8859 37.4309 16.8895C37.4297 16.8922 37.4287 16.8947 37.4278 16.8968L37.424 16.9067L37.4362 16.8773C37.485 16.7689 37.6847 16.3961 38.1335 16.3733C38.1335 16.3733 40.8667 16.2667 41.077 16.2667C41.953 16.2405 42.2986 15.6248 42.4109 15.4248L42.4173 15.4133ZM6.01832 13.68L9.27714 14.2933C12.6148 14.9066 14.0603 16.8266 14.0865 19.2C14.0865 19.3666 14.0865 19.512 14.0678 19.6551C14.1088 18.4222 13.3011 17.2551 11.9052 17.3066C11.647 17.3176 11.0143 17.3374 10.33 17.3589C9.3429 17.3899 8.24847 17.4242 8.01566 17.44C6.75418 17.4933 5.09849 17.3866 4.36262 17.2533C3.46907 17.0933 2.60181 16.8533 1.73454 16.2933C0.578179 15.3866 0 14.1066 0 12.8C0 10.24 1.7871 8.07999 5.28245 7.65332C7.9631 7.35999 11.1956 7.70666 12.9827 7.91999C13.0616 8.23999 13.0879 8.53332 13.0879 8.85332C13.0879 11.2533 11.8527 11.76 10.6437 11.76C10.2491 11.76 9.75778 11.7305 9.19666 11.6969C8.44984 11.6521 7.57944 11.6 6.64906 11.6C4.99336 11.6 4.31006 12.08 4.31006 12.64C4.31006 13.2533 4.96708 13.4933 6.01832 13.68ZM14.0678 19.6551C14.0656 19.6723 14.0631 19.6895 14.0603 19.7066V19.7333V19.7866C14.0639 19.7428 14.0664 19.6989 14.0678 19.6551Z" fill="url(#paint2_linear_11_130)"/>
<path d="M70.17 14.7733V22.9067C70.17 23.4933 69.8284 23.8933 68.8034 23.8933C68.3829 23.8933 67.8836 23.84 67.6208 23.76V15.12C67.6208 12.1067 66.1753 10.6667 63.9677 10.6667C62.2595 10.6667 60.4198 11.8667 59.6577 13.28V22.9333C59.6577 23.52 59.316 23.92 58.2911 23.92C57.8706 23.92 57.3712 23.8667 57.1084 23.7867V8.64001C57.345 8.58668 57.8443 8.50668 58.2911 8.50668C59.316 8.50668 59.6577 8.88001 59.6577 9.49335V10.7733C60.7352 9.41335 62.3909 8.34668 64.5722 8.34668C67.6208 8.34668 70.17 10.2933 70.17 14.7733Z" fill="white"/>
<path fill-rule="evenodd" clip-rule="evenodd" d="M75.7941 17.12H87.3051C87.384 16.5867 87.4103 16.0533 87.3577 15.6C87.3577 11.9467 85.0975 8.34668 80.5247 8.34668C76.4774 8.34668 73.166 11.6 73.166 16.1333C73.166 20.8533 76.2935 24.0267 80.9452 24.0267C83.1002 24.0267 85.1238 23.36 86.4642 22.7733C86.5956 21.3867 86.1225 20.8 85.4129 20.8C85.1983 20.8 84.9838 20.8711 84.5546 21.0133C84.4581 21.0453 84.3508 21.0809 84.2303 21.12C83.3104 21.44 82.3118 21.68 81.0503 21.68C78.1068 21.68 76.1358 20.0533 75.7941 17.12ZM84.9399 15.12H75.7941C76.1883 12.1333 78.2645 10.5333 80.5772 10.5333C83.2053 10.5333 84.8347 12.5333 84.9399 15.12Z" fill="white"/>
<path d="M110.748 8.88004L106.805 22.7734C106.569 23.6534 105.912 23.8667 104.966 23.8667C104.44 23.8667 103.915 23.76 103.468 23.6534L99.7097 11.44L96.1881 22.7734C95.899 23.6534 95.2157 23.8667 94.401 23.8667C93.8753 23.8667 93.2972 23.76 92.8504 23.6534L88.6455 8.88004C89.0134 8.69337 89.6967 8.50671 90.2486 8.50671C90.9582 8.50671 91.3261 8.72004 91.5101 9.41337L94.4798 21.0134H94.5061L98.1854 8.88004C98.6059 8.64004 99.1841 8.50671 99.7623 8.50671C100.735 8.50671 101.26 8.72004 101.523 9.62671L104.939 20.9867H104.966L107.857 9.38671C108.041 8.69337 108.409 8.48004 109.118 8.48004C109.749 8.50671 110.38 8.69337 110.748 8.88004Z" fill="white"/>
<path d="M112.43 22.9867C112.246 21.68 112.64 20.9867 113.402 20.9867C114.112 20.9867 115.846 21.76 118.264 21.76C120.813 21.76 121.759 20.8533 121.759 19.6533C121.759 18.8 121.391 18.0533 119.105 17.4133L116.477 16.6933C113.56 15.92 112.43 14.4267 112.43 12.6133C112.43 10.3467 114.19 8.34668 118.185 8.34668C119.972 8.34668 122.206 8.74668 123.573 9.28001C123.809 10.56 123.415 11.2533 122.653 11.2533C121.969 11.2533 120.419 10.5867 118.238 10.5867C115.872 10.5867 115.005 11.4133 115.005 12.48C115.005 13.2267 115.347 13.92 117.449 14.5333L120.13 15.28C123.126 16.1333 124.335 17.5467 124.335 19.5467C124.335 21.8933 122.548 24 118.211 24C116.267 24.0267 113.875 23.5467 112.43 22.9867Z" fill="white"/>
<defs>
<linearGradient id="paint0_linear_11_130" x1="50.3701" y1="0" x2="50.3701" y2="32" gradientUnits="userSpaceOnUse">
<stop offset="0.4" stop-color="#E90E10"/>
<stop offset="1" stop-color="#BC0000"/>
</linearGradient>
<linearGradient id="paint1_linear_11_130" x1="126.877" y1="14.9546" x2="126.85" y2="-0.982532" gradientUnits="userSpaceOnUse">
<stop stop-color="white"/>
<stop offset="1" stop-color="white" stop-opacity="0.25"/>
</linearGradient>
<linearGradient id="paint2_linear_11_130" x1="36.6748" y1="16.772" x2="36.6177" y2="6.05274" gradientUnits="userSpaceOnUse">
<stop stop-color="white"/>
<stop offset="1" stop-color="white" stop-opacity="0.25"/>
</linearGradient>
</defs>
</svg>