<svg xmlns="http://www.w3.org/2000/svg" xmlns:xlink="http://www.w3.org/1999/xlink" version="1.1" viewBox="1.9 11.77 295.2 88.52">     <title>Web Brandsite/Station Logo/Strapline Desktop/Smooth Logo</title>     <g id="Web-Brandsite/Station-Logo/Strapline-Desktop/Smooth-Logo" stroke="none" stroke-width="1" fill="none" fill-rule="evenodd">         <g id="gold" transform="translate(1.900000, 11.770000)" fill="#8A0DD9" fill-rule="nonzero">             <g id="221201_Smooth_VisID_Logo_Tag_Purple_RGB_AW" transform="translate(-0.000000, 0.000000)">                 <path d="M0,66.3087533 L7.38778406,57.4858664 C12.5030259,61.6956899 17.8608879,64.3691698 24.355021,64.3691698 C29.4702629,64.3691698 32.5555826,62.344906 32.5555826,59.0262424 L32.5555826,58.8649465 C32.5555826,55.7075788 30.606534,54.0865548 21.1079545,51.6590512 C9.66032629,48.7436274 2.27254222,45.5862598 2.27254222,34.3318369 L2.27254222,34.1705409 C2.27254222,23.8879259 10.5539772,17.0852705 22.1633522,17.0852705 C30.4447872,17.0852705 37.5090777,19.6781024 43.2753503,24.2911658 L36.7812172,33.6826208 C31.7468488,30.2026613 26.7933537,28.0977495 22.0056491,28.0977495 C17.2179445,28.0977495 14.6987384,30.2833092 14.6987384,33.0374371 L14.6987384,33.198733 C14.6987384,36.9246688 17.1330274,38.1384206 26.9591441,40.6465722 C38.4876457,43.6426439 44.9858225,47.7718195 44.9858225,57.6511947 L44.9858225,57.8124906 C44.9858225,69.0669135 36.3808939,75.3816488 24.1204882,75.3816488 C15.511516,75.3816488 6.82571401,72.3855771 0.00404366944,66.3127857 L0,66.3087533 Z M123.08121,49.5743014 L123.08121,49.4130055 C123.08121,36.9448308 133.149947,26.8235117 146.708371,26.8235117 C160.266795,26.8235117 170.173785,36.7835349 170.173785,49.2517096 L170.173785,49.4130055 C170.173785,61.8811802 160.105048,72.0024993 146.546624,72.0024993 C132.9882,72.0024993 123.08121,62.0424761 123.08121,49.5743014 Z M157.994252,49.5743014 L157.994252,49.4130055 C157.994252,43.0176222 153.364251,37.4287185 146.546624,37.4287185 C139.728997,37.4287185 135.260743,42.8522939 135.260743,49.2517096 L135.260743,48.2718369 C135.260743,54.6672201 139.890744,61.3972925 146.708371,61.3972925 C153.525998,61.3972925 157.994252,55.9737171 157.994252,49.5743014 L157.994252,49.5743014 Z M173.740301,40.3884987 L173.740301,40.2272028 C173.740301,27.7590281 183.809038,17.637709 197.367462,17.637709 C210.925885,17.637709 220.832875,28.7389008 220.832875,41.2070755 L220.832875,41.3683714 C220.832875,53.8365461 210.764138,62.8166966 197.205715,62.8166966 C183.647291,62.8166966 173.740301,52.8566734 173.740301,40.3884987 Z M208.653343,40.3884987 L208.653343,40.2272028 C208.653343,33.8318195 204.023342,28.2429158 197.205715,28.2429158 C190.388088,28.2429158 185.919833,33.6664912 185.919833,40.0659069 L185.919833,40.2272028 C185.919833,46.6225861 190.549835,52.2114897 197.367462,52.2114897 C204.185088,52.2114897 208.653343,46.7879144 208.653343,40.3884987 L208.653343,40.3884987 Z M226.918598,43.7152271 L226.918598,23.1499971 L221.722483,23.2225803 L221.722483,12.6980214 L226.918598,12.6254382 L226.918598,1.20568701 L239.259877,0.427434191 L239.259877,12.6214058 L249.490361,12.6214058 L249.490361,23.1459647 L239.259877,23.1459647 L239.259877,41.6869309 C239.259877,44.5217067 240.477021,45.8967544 243.238848,45.8967544 C245.51139,45.8967544 247.541312,45.3281863 249.328614,44.3604108 L249.328614,54.2397859 C246.728534,55.780162 243.728132,56.7519699 239.587414,56.7519699 C232.037883,56.7519699 226.922642,53.7558982 226.922642,43.7152271 L226.918598,43.7152271 Z M255.333463,0 L267.674742,0.407272201 L267.674742,21.8596297 C270.517442,18.2143419 274.168875,14.8956783 280.424432,14.8956783 C289.761265,14.8956783 295.2,21.0491177 295.2,31.0091409 L295.2,60.7561412 L282.858721,59.1068904 L282.858721,34.8963726 C282.858721,29.065525 280.096895,26.0694533 275.390063,26.0694533 C270.683232,26.0694533 267.674742,29.065525 267.674742,34.8963726 L267.674742,57.5342551 L255.333463,57.2600521 L255.333463,0 Z M102.438278,27.5130518 C96.7043546,27.5130518 92.2603619,29.7873243 88.5199677,33.968921 L87.6910154,35.0334741 C85.2607701,31.7148105 81.3869348,29.8397454 76.4819638,29.8397454 C70.2304508,29.8397454 66.4941002,33.158409 63.6554443,36.8036968 L63.6554443,30.6502574 L51.3141652,30.6502574 L51.3141652,77.4583338 L63.6554443,77.4583338 L63.6554443,49.8404397 C63.6554443,44.0095921 66.4981439,41.0135204 71.1241017,41.0135204 C75.7500596,41.0135204 78.350139,44.0095921 78.350139,49.8404397 L78.350139,77.4583338 L90.6914182,76.659919 L90.6914182,50.8122476 C90.7237675,44.1144345 91.9247373,38.7876367 97.5656562,38.6868267 C102.608112,38.598114 104.791693,41.6828985 104.791693,47.513746 L104.791693,75.2122881 L117.132973,73.2928666 L117.132973,43.4652184 C117.132973,33.0213075 111.613364,27.5130518 102.434234,27.5130518 L102.438278,27.5130518 Z" id="Shape"/>                                  <path d="M220.667085,68.9782008 L229.470153,68.9782008 C231.916573,68.9782008 233.817098,69.6637084 235.082766,70.925849 C236.154339,71.9944345 236.732584,73.5065837 236.732584,75.3171305 L236.732584,75.373584 C236.732584,78.4744981 235.054461,80.4221464 232.603997,81.3294359 L237.310828,88.188545 L232.357333,88.188545 L228.228747,82.0431704 L224.900807,82.0431704 L224.900807,88.188545 L220.663041,88.188545 L220.663041,68.9822332 L220.667085,68.9782008 Z M229.195184,78.3091698 C231.257455,78.3091698 232.44225,77.2123575 232.44225,75.5913335 L232.44225,75.53488 C232.44225,73.7243332 231.176582,72.7888169 229.11431,72.7888169 L224.90485,72.7888169 L224.90485,78.3051374 L229.195184,78.3051374 L229.195184,78.3091698 Z M237.986121,83.9625918 L237.986121,83.9061383 C237.986121,80.6963494 240.432541,79.212427 243.930315,79.212427 C245.414342,79.212427 246.489958,79.4584032 247.537268,79.8172867 L247.537268,79.5713104 C247.537268,77.8414116 246.465696,76.8817009 244.371075,76.8817009 C242.773826,76.8817009 241.645642,77.1841307 240.2991,77.6760833 L239.25179,74.4945213 C240.873301,73.7807868 242.470551,73.3130286 244.973582,73.3130286 C247.258255,73.3130286 248.908072,73.9178883 249.955383,74.958247 C251.055261,76.0550593 251.552632,77.6760833 251.552632,79.6519583 L251.552632,88.1845126 L247.508963,88.1845126 L247.508963,86.5917154 C246.489958,87.7167544 245.086805,88.4587156 243.052839,88.4587156 C240.274838,88.4587156 237.990165,86.8659184 237.990165,83.9585594 L237.986121,83.9625918 Z M247.589836,83.0028811 L247.589836,82.2609199 C246.874107,81.9302632 245.940019,81.7125137 244.921014,81.7125137 C243.133712,81.7125137 242.029791,82.4262482 242.029791,83.7448423 L242.029791,83.8012959 C242.029791,84.926335 242.967922,85.5836159 244.314464,85.5836159 C246.267556,85.5836159 247.589836,84.5150304 247.589836,83.0069135 L247.589836,83.0028811 Z M254.075882,80.8616778 L254.075882,80.8052242 C254.075882,75.8937634 257.294643,73.2041539 260.788373,73.2041539 C263.016435,73.2041539 264.395326,74.2203182 265.381982,75.3977784 L265.381982,68.1515592 L269.563136,68.1515592 L269.563136,88.1804802 L265.381982,88.1804802 L265.381982,86.0675036 C264.362977,87.4385189 262.959824,88.4546833 260.788373,88.4546833 C257.351254,88.4546833 254.075882,85.7650738 254.075882,80.853613 L254.075882,80.8616778 Z M265.438593,80.8616778 L265.438593,80.8052242 C265.438593,78.361591 263.817081,76.7445994 261.859945,76.7445994 C259.902809,76.7445994 258.257036,78.3373966 258.257036,80.8052242 L258.257036,80.8616778 C258.257036,83.305311 259.906853,84.9223026 261.859945,84.9223026 C263.813038,84.9223026 265.438593,83.305311 265.438593,80.8616778 Z M272.555451,68.1555916 L276.959007,68.1555916 L276.959007,71.8613653 L272.555451,71.8613653 L272.555451,68.1555916 Z M272.66463,73.478357 L276.845784,73.478357 L276.845784,88.1845126 L272.66463,88.1845126 L272.66463,73.478357 Z M279.231549,80.9140989 L279.231549,80.8576454 C279.231549,76.6316922 282.644406,73.2041539 287.238015,73.2041539 C291.831623,73.2041539 295.191913,76.579271 295.191913,80.8052242 L295.191913,80.8616778 C295.191913,85.0876309 291.779056,88.5151692 287.185447,88.5151692 C282.591839,88.5151692 279.235593,85.1400521 279.235593,80.9140989 L279.231549,80.9140989 Z M291.063326,80.9140989 L291.063326,80.8576454 C291.063326,78.6882152 289.494382,76.7970205 287.185447,76.7970205 C284.876512,76.7970205 283.360136,78.635794 283.360136,80.8052242 L283.360136,80.8616778 C283.360136,83.0311079 284.92908,84.9223026 287.238015,84.9223026 C289.54695,84.9223026 291.063326,83.0835291 291.063326,80.9140989 Z" id="Shape"/>             </g>         </g>     </g> </svg>