<svg class="h-8 w-auto content-center" id="Layer_2" data-name="Layer 2" xmlns="http://www.w3.org/2000/svg" viewBox="0 0.01 1090.79 248.09">   <defs>     <style>       .cls-1 {         fill: #fff;         stroke-width: 0px;       }     </style>   </defs>   <g id="LOGO">     <g>       <g>         <path class="cls-1" d="M0,19.92h219.45v63.75h-71.99v161.64h-75.4V83.67H0V19.92Z"/>         <path class="cls-1" d="M331.88,154.84v33.47h37.7c8.17,0,14.32-1.5,18.53-4.49,4.18-3,6.28-6.98,6.28-11.92v-.64c0-4.94-2.04-8.89-6.12-11.92-4.08-3-10.2-4.49-18.37-4.49h-38.02ZM331.88,76.91v31.56h32.85c15.89,0,23.86-5.16,23.86-15.46v-.64c0-10.3-8.07-15.46-24.15-15.46h-32.57ZM258.42,19.92h126.28c15.66,0,28.61,1.72,38.82,5.16,10.2,3.44,18.63,8.48,25.29,15.14,4.08,4.08,7.4,9.02,9.98,14.82,2.58,5.8,3.86,12.56,3.86,20.27v.64c0,13.52-3.64,24.42-10.94,32.67-7.3,8.26-17.06,14.54-29.31,18.84,14.7,4.3,26.38,10.61,35.02,19,8.64,8.38,12.98,20.27,12.98,35.73v.64c0,9.02-1.82,17.34-5.49,24.96-3.64,7.62-9.12,14.22-16.46,19.79-7.31,5.58-16.39,9.95-27.27,13.04-10.85,3.12-23.38,4.65-37.57,4.65h-125.19V19.92Z"/>         <path class="cls-1" d="M660.15,19.92h74.74v225.36h-67.02l-83.76-104v104h-74.73V19.92h70.56l80.22,99.47V19.92Z"/>       </g>       <g>         <path class="cls-1" d="M920.96,200.67h8.51c-11.49,31.62-27.03,47.43-46.62,47.43-6.62,0-11.59-1.82-14.9-5.47-3.31-3.65-4.97-9.12-4.97-16.42,0-10.27,3.65-26.69,10.95-49.26-23.65,47.43-47.03,71.15-70.14,71.15-8.51,0-15.2-2.63-20.07-7.9-4.86-5.27-7.3-11.82-7.3-19.66s3.04-20.47,9.12-38.31l24.93-72.77c3.65-10.81,5.47-17.3,5.47-19.46,0-3.51-1.76-5.27-5.27-5.27-8.51,0-17.84,11.42-27.97,34.26h-9.73c5.4-14.19,12.5-25.78,21.28-34.77,8.78-8.98,17.43-13.48,25.95-13.48,5.27,0,9.76,1.66,13.48,4.97,3.72,3.31,5.57,8.28,5.57,14.9,0,4.73-2.37,14.19-7.1,28.38l-25.54,75c-4.87,14.59-7.3,24.19-7.3,28.78,0,4.19.94,7.37,2.84,9.53,1.89,2.16,4.66,3.24,8.31,3.24,11.89,0,26.01-12.64,42.37-37.91,16.35-25.27,32.03-62.84,47.03-112.71l3.44-11.55h24.33l-35.47,116.35c-5.68,18.92-8.51,30.34-8.51,34.26,0,3.38.68,5.91,2.03,7.6,1.35,1.69,3.38,2.53,6.08,2.53,10.27,0,20-11.15,29.19-33.45Z"/>         <path class="cls-1" d="M1071.34,196.21h8.51c-4.46,18.52-10.88,31.79-19.26,39.83-8.38,8.04-16.96,12.06-25.74,12.06-17.3,0-25.95-11.01-25.95-33.04,0-2.84.47-9.53,1.42-20.07,1.35-17.03,2.03-26.69,2.03-28.99,0-12.97-5.14-19.46-15.41-19.46-5,0-9.83,1.69-14.49,5.07-4.66,3.38-8.04,7.57-10.13,12.57-2.1,5-5.37,14.73-9.83,29.19l-15.81,52.1h-24.12l60.6-199.45c3.65-12.03,5.47-19.05,5.47-21.08,0-3.24-.88-5.54-2.64-6.89-1.76-1.35-6.22-2.03-13.38-2.03h-7.3l2.64-8.51c21.89-.41,37.97-2.91,48.24-7.5h5.07l-44.39,146.34c31.76-34.73,53.55-56.01,65.37-63.85,11.82-7.84,21.99-11.76,30.51-11.76,12.03,0,18.04,4.39,18.04,13.18,0,3.38-1.18,6.22-3.55,8.51-2.37,2.3-5.1,3.45-8.21,3.45-2.71,0-6.35-1.42-10.95-4.26-2.97-1.89-6.08-2.84-9.33-2.84-12.97,0-34.39,17.16-64.26,51.49,2.57-.67,4.59-1.01,6.08-1.01,21.49,0,33.11,21.89,34.86,65.68.54,11.62,1.52,18.99,2.94,22.09,1.42,3.11,4.02,4.66,7.8,4.66,4.73,0,9.53-3.48,14.39-10.44,4.87-6.96,8.44-15.31,10.74-25.03Z"/>       </g>     </g>   </g> </svg>