<svg fill="none" xmlns="http://www.w3.org/2000/svg" viewBox="0 0.05 50 47.27"> <g clip-path="url(#clip0_326_264)"> <path d="M9.14114 0.0507812H6.06252V8.36307H0V11.2128H6.06252V31.5317C6.06252 31.5317 5.70729 42.7963 17.8244 38.3836L17.2719 35.676C17.2719 35.676 9.14904 39.3861 9.14904 31.4922C9.14904 23.5983 9.14904 11.2128 9.14904 11.2128H19.6164L19.64 38.3678C19.64 38.3678 19.6321 38.6204 19.64 39.0546C19.6558 40.886 18.9533 45.6223 12.7013 43.9804L12.1487 46.7827C12.1487 46.7827 22.7344 50.4928 22.7344 38.3915C22.7344 26.2901 22.7344 11.2128 22.7344 11.2128L38.9012 11.2049L38.9091 8.36307H9.15693V0.0507812H9.14114Z" fill="white"/> <path d="M47.7984 33.0555C47.7984 33.0555 44.8619 36.5446 39.3519 36.5446C34.2288 36.5446 27.2348 32.6055 27.2348 23.8907C27.2348 15.1679 34.2288 11.221 39.3519 11.221C44.8619 11.221 47.7984 14.7101 47.7984 14.7101L50.0008 12.6655C50.0008 12.6655 46.7643 8.35547 39.3519 8.35547C32.8237 8.35547 24.1641 12.6892 24.1641 23.8749C24.1641 35.0606 32.8237 39.3943 39.3519 39.3943C46.7643 39.3943 50.0008 35.0842 50.0008 35.0842L47.7984 33.0555Z" fill="white"/> </g> <defs> <clipPath id="clip0_326_264"> <rect width="50" height="47.3684" fill="white"/> </clipPath> </defs> </svg>