<svg xmlns="http://www.w3.org/2000/svg" width="226" height="90" fill="none" viewBox="0 0 226 90"><path fill="#fff" d="M118.4 39.3c-2.3 0-4.2.9-5.9 2.6S110 46 110 49.2s.8 5.6 2.3 7.6c1.6 1.9 3.5 2.9 5.9 2.9s4.3-.9 5.8-2.7 2.2-4.3 2.2-7.5-.7-5.7-2.2-7.4c-1.4-1.9-3.3-2.8-5.6-2.8M43.3 48.9h11.9c-3.3-11.2-5.3-18.5-5.9-22-.3 2.1-2.3 9.4-6 22"/><path fill="#fff" d="M.8 89.7H217v-68h-21L225.3.3H.8zm60.1-21.6-3-10.1H40.6l-3 10.1H25.8l16.5-49.4h14.2L73 68.1zm29.3 0H79.5V16.2h10.7zm42.8-5q-4.2 5.4-11.7 5.4c-5 0-8.7-2-11.2-5.9v19.2H99.4V30.9H110v5.7c2.6-4.1 6.3-6.2 11.1-6.2s8.7 1.7 11.6 5.1 4.4 7.9 4.4 13.6-1.3 10.4-4.1 14m40.5 5H163v-4.5c-1.6 3.2-4.6 4.8-9.2 4.8-3.6 0-6.4-1-8.5-3.1-2-2.1-3-4.7-3-8.1 0-3.3 1.3-6 3.9-8s6.5-3 11.6-3h4.7v-2.6c0-3.1-2-4.7-6.1-4.7s-7.8 1.1-11.3 3.4v-9.6c2.9-1.7 7.1-2.5 12.5-2.5s9.4 1.1 12 3.4 3.9 5.8 3.9 10.6z"/><path fill="#fff" d="M154.9 54q-1.5 1.2-1.5 3c0 2.5 1.4 3.7 4.3 3.7 1.5 0 2.7-.5 3.5-1.4s1.2-2.2 1.2-3.8v-2.7H159c-1.7 0-3.1.4-4.1 1.2"/></svg>