<svg xmlns="http://www.w3.org/2000/svg" width="1507" height="819" fill="none" viewBox="0 0 1507 819"><path fill="#787778" d="m1117.14 135.701 54.11-25.331c51.47 156.058 37.19 241.623-64.94 390.82H1054c72.68-122.685 88.97-201.679 63.14-365.489M1227.17 86.848l73.96-32.568c76.24 148.601 84.08 291.199-39.68 446.91h-52.31c70.54-135.55 87.59-213.504 66.74-336.54-7.36-43.424-19.59-44.521-39.69-47.043z"/><path fill="#787778" d="M1416.58 0c64.94 86.848 167.77 276.83-3.6 503h-55.92c138.9-215.314 72.15-477.67-14.44-427.008l-16.23-32.568z"/><path fill="#c20b21" d="M0 45h76v124H0z"/><path fill="#c20b21" d="M0 45h895l-165.5 77H0zM369.5 228h128.501L181 373c-39.5 19-51 38.5-11 64H53.5C20 410 23 399.5 56 373s313.5-145 313.5-145M280.5 400c368-27.5 593 19.5 603.5 161.5 0 130-159 254.5-446 257.5-78.5 0-252-7-407-88.5l223 35c311 23 545.5-90.5 548-204 0-89-113-161.5-521.5-161.5"/><path fill="#c20b21" d="M31 730.5c224 26 460.5-41 518-124.5-38.5 83.5-135.5 136.5-290 161z"/></svg>