<svg xmlns="http://www.w3.org/2000/svg" width="598" height="211" fill="none" viewBox="0 0 598 211"><path fill="#000" d="M61.625 70.686q-4.707.624-15.232 1.373-10.401.623-15.23 1.56-11.208 18.713-14.18 21.958-2.91 3.243-7.244 3.243-3.343 0-5.572-2.058Q2 94.702 2 91.772q0-3.307 12.693-22.895-.372-.936-.372-1.684 0-4.617 6.873-6.613Q62.8 5.123 68.62 5.123q6.625 0 7.863 8.297 0 11.602 1.548 35.932Q79.58 73.68 80.2 76.425q.62 2.745 1.61 6.426 1.053 4.305 1.053 6.8 0 3.804-3.22 6.737-3.158 2.932-7.12 2.932-7.74 0-10.898-28.634m-2.167-35.37a1340 1340 0 0 1-16.841 22.707q3.157-.624 8.977-.998 6.811-.375 8.606-.624 0-8.235-.742-21.085M111.281 99.819l-3.963 25.389q-.557 3.681-3.343 6.051-2.787 2.433-6.501 2.433-3.405 0-5.387-1.996-1.981-1.934-1.981-4.929 0-1.746 3.9-24.765 5.82-35.808 7.306-56.768.495-7.86 3.963-12.164 3.529-4.305 7.925-4.304 3.468 0 5.449 2.37 1.98 2.308 1.486 5.677l-.248.624q9.04-4.554 17.398-4.554 21.113 0 21.113 24.266 0 21.46-10.959 32.688-10.897 11.229-25.137 11.229-5.945 0-11.021-1.248m6.315-42.92q-1.114 9.858-3.405 25.64a32.6 32.6 0 0 0 10.773 1.809q8.606 0 12.445-7.61 3.9-7.611 3.901-17.343 0-9.918-6.563-9.919-7.864 0-17.151 7.424M179.14 99.819l-3.963 25.389q-.557 3.681-3.343 6.051-2.787 2.433-6.501 2.433-3.405 0-5.387-1.996-1.981-1.934-1.981-4.929 0-1.746 3.9-24.765 5.821-35.808 7.306-56.768.496-7.86 3.963-12.164 3.53-4.305 7.925-4.304 3.468 0 5.449 2.37 1.981 2.308 1.486 5.677l-.248.624q9.04-4.554 17.398-4.554 21.113 0 21.113 24.266 0 21.46-10.959 32.688-10.896 11.229-25.137 11.229-5.944 0-11.021-1.248m6.315-42.92q-1.114 9.858-3.405 25.64a32.6 32.6 0 0 0 10.773 1.809q8.607 0 12.445-7.61 3.901-7.611 3.901-17.343 0-9.918-6.563-9.919-7.863 0-17.151 7.424M245.947 78.609q5.324 6.487 15.85 6.487 8.172 0 14.55-3.43 5.696-3.057 8.792-3.057 5.449 0 5.449 4.74 0 7.3-9.783 12.103-9.783 4.74-21.423 4.741-14.302 0-22.413-6.425-8.049-6.488-8.049-17.405 0-15.284 10.773-29.694 10.836-14.41 28.667-14.41 11.702 0 18.203 3.93 6.563 3.867 6.563 11.042 0 6.8-5.201 11.478-5.139 4.616-19.689 10.542zm1.114-15.845 14.984-5.989q8.172-3.556 14.426-7.174-3.654-2.308-10.34-2.308-11.454 0-19.07 15.47M326.932 39.745q10.463-9.17 20.432-9.17 15.603 0 15.603 18.09 0 4.929-1.053 11.541l-.743 4.492q-1.548 9.357-1.548 16.593 0 8.484-.433 11.977-.433 3.432-3.22 5.99-2.724 2.619-6.563 2.619-7.368 0-7.368-7.174 0-15.783.929-23.144.928-7.422 3.096-16.468.867-3.494.867-4.928 0-3.12-2.106-3.12-5.882 0-12.506 7.05-6.626 6.986-10.031 14.347-3.343 7.3-4.086 18.59-.248 5.428-.991 7.548-.743 2.06-3.281 3.93-2.477 1.935-6.006 1.934-3.22 0-5.325-1.871-2.043-1.872-2.043-4.803l.495-6.738q.495-6.861 3.963-21.833 3.343-13.85 3.839-19.152.495-5.863.99-8.983.558-3.118 3.344-5.427 2.848-2.37 6.625-2.37 8.049 0 7.12 9.731zM393.305 39.745q10.464-9.17 20.432-9.17 15.603 0 15.603 18.09 0 4.929-1.053 11.541l-.743 4.492q-1.548 9.357-1.548 16.593 0 8.484-.433 11.977-.433 3.432-3.22 5.99-2.724 2.619-6.563 2.619-7.368 0-7.368-7.174 0-15.783.929-23.144.929-7.422 3.096-16.468.867-3.494.867-4.928 0-3.12-2.105-3.12-5.883 0-12.507 7.05-6.625 6.986-10.031 14.347-3.343 7.3-4.086 18.59-.247 5.428-.991 7.548-.743 2.06-3.281 3.93-2.477 1.935-6.006 1.934-3.219 0-5.325-1.871-2.043-1.872-2.043-4.803l.495-6.738q.496-6.861 3.963-21.833 3.344-13.85 3.839-19.152.495-5.863.99-8.983.558-3.118 3.344-5.427 2.848-2.37 6.625-2.37 8.049 0 7.12 9.731zM451.506 14.543q0-4.305 3.529-7.424T462.774 4q3.53 0 6.006 2.308 2.477 2.246 2.477 5.49 0 4.179-3.53 7.423-3.466 3.182-7.863 3.182-3.591 0-6.006-2.308-2.352-2.31-2.352-5.552m-6.44 84.777q-3.405 0-5.448-1.934-2.043-1.996-2.043-5.053l1.733-12.726a281 281 0 0 1 4.458-25.265q2.168-9.17 2.786-14.036.496-3.43 3.344-5.864 2.91-2.495 6.563-2.495 3.22 0 5.201 1.934 2.043 1.934 2.043 5.053 0 2.495-2.724 14.41t-4.149 23.019q-1.361 11.105-2.105 14.847-.681 3.742-3.467 5.926-2.724 2.184-6.192 2.184M495.218 39.745q10.464-9.17 20.432-9.17 15.603 0 15.603 18.09 0 4.929-1.053 11.541l-.743 4.492q-1.548 9.357-1.548 16.593 0 8.484-.433 11.977-.433 3.432-3.22 5.99-2.724 2.619-6.563 2.619-7.368 0-7.368-7.174 0-15.783.929-23.144.928-7.422 3.096-16.468.867-3.494.866-4.928 0-3.12-2.105-3.12-5.881 0-12.507 7.05-6.625 6.986-10.03 14.347-3.344 7.3-4.086 18.59-.248 5.428-.991 7.548-.743 2.06-3.281 3.93-2.477 1.935-6.006 1.934-3.22 0-5.325-1.871-2.043-1.872-2.043-4.803l.495-6.738q.495-6.861 3.963-21.833 3.343-13.85 3.839-19.152.495-5.863.99-8.983.558-3.118 3.344-5.427 2.848-2.37 6.625-2.37 8.049 0 7.12 9.731zM535.711 75.427q0-15.596 11.206-29.132 11.27-13.537 28.915-13.537 10.154 0 15.912 6.987 5.82 6.925 5.82 18.34 0 16.407-10.65 29.694-10.587 13.287-26.437 13.287-11.021 0-17.894-7.236-6.872-7.299-6.872-18.403m17.336-2.495q0 5.302 2.538 8.484 2.601 3.18 7.43 3.181 8.049 0 12.817-6.8 4.767-6.861 4.767-17.591 0-10.98-8.358-10.98-8.173 0-13.684 7.986-5.51 7.922-5.51 15.72"/><path fill="#fff" d="M59.625 66.686q-4.707.624-15.232 1.373-10.401.623-15.23 1.56-11.208 18.713-14.18 21.958-2.91 3.243-7.244 3.243-3.343 0-5.572-2.058Q0 90.702 0 87.772q0-3.307 12.693-22.895-.372-.936-.372-1.684 0-4.617 6.873-6.613Q60.8 1.123 66.62 1.123q6.625 0 7.863 8.297 0 11.602 1.548 35.932Q77.58 69.68 78.2 72.425q.62 2.745 1.61 6.426 1.053 4.305 1.053 6.8 0 3.804-3.22 6.737-3.158 2.932-7.12 2.932-7.74 0-10.898-28.634m-2.167-35.37a1340 1340 0 0 1-16.841 22.707q3.157-.624 8.977-.998 6.811-.375 8.606-.624 0-8.235-.742-21.085M109.281 95.819l-3.963 25.389q-.557 3.681-3.343 6.051-2.787 2.433-6.501 2.433-3.405 0-5.387-1.996-1.981-1.934-1.981-4.929 0-1.746 3.9-24.765 5.82-35.807 7.306-56.768.495-7.86 3.963-12.164 3.529-4.305 7.925-4.304 3.468 0 5.449 2.37 1.98 2.308 1.486 5.677l-.248.624q9.04-4.554 17.398-4.554 21.113 0 21.113 24.266 0 21.46-10.959 32.688-10.897 11.23-25.137 11.23-5.945 0-11.021-1.248m6.315-42.92q-1.114 9.858-3.405 25.64a32.6 32.6 0 0 0 10.773 1.809q8.606 0 12.445-7.61 3.9-7.611 3.901-17.343 0-9.918-6.563-9.919-7.864 0-17.151 7.424M177.14 95.819l-3.963 25.389q-.557 3.681-3.343 6.051-2.787 2.433-6.501 2.433-3.405 0-5.387-1.996-1.981-1.934-1.981-4.929 0-1.746 3.9-24.765 5.821-35.807 7.306-56.768.496-7.86 3.963-12.164 3.53-4.305 7.925-4.304 3.468 0 5.449 2.37 1.981 2.308 1.486 5.677l-.248.624q9.04-4.554 17.398-4.554 21.113 0 21.113 24.266 0 21.46-10.959 32.688-10.896 11.23-25.137 11.23-5.944 0-11.021-1.248m6.315-42.92q-1.114 9.858-3.405 25.64a32.6 32.6 0 0 0 10.773 1.809q8.607 0 12.445-7.61 3.901-7.611 3.901-17.343 0-9.918-6.563-9.919-7.863 0-17.151 7.424M243.947 74.609q5.324 6.487 15.85 6.487 8.172 0 14.55-3.43 5.696-3.057 8.792-3.057 5.449 0 5.449 4.74 0 7.3-9.783 12.103-9.783 4.74-21.423 4.74-14.302 0-22.413-6.424-8.049-6.488-8.049-17.405 0-15.284 10.773-29.694 10.835-14.41 28.667-14.41 11.702 0 18.203 3.93 6.563 3.867 6.563 11.042 0 6.8-5.201 11.478-5.139 4.616-19.689 10.542zm1.114-15.845 14.984-5.989q8.172-3.556 14.426-7.174-3.654-2.308-10.34-2.308-11.454 0-19.07 15.47M324.932 35.745q10.463-9.17 20.432-9.17 15.603 0 15.603 18.09 0 4.929-1.053 11.541l-.743 4.491q-1.548 9.358-1.548 16.594 0 8.484-.433 11.977-.433 3.432-3.22 5.99-2.724 2.62-6.563 2.62-7.368 0-7.368-7.175 0-15.783.929-23.144.928-7.422 3.096-16.468.867-3.494.867-4.928 0-3.12-2.106-3.12-5.882 0-12.506 7.05-6.626 6.986-10.031 14.347-3.343 7.3-4.086 18.59-.248 5.428-.991 7.548-.743 2.06-3.281 3.93-2.477 1.935-6.006 1.934-3.22 0-5.325-1.871-2.043-1.872-2.043-4.803l.495-6.738q.495-6.861 3.963-21.833 3.343-13.85 3.839-19.152.495-5.863.99-8.983.558-3.118 3.344-5.427 2.848-2.37 6.625-2.37 8.049 0 7.12 9.731zM391.305 35.745q10.464-9.17 20.432-9.17 15.603 0 15.603 18.09 0 4.929-1.053 11.541l-.743 4.491q-1.548 9.358-1.548 16.594 0 8.484-.433 11.977-.433 3.432-3.22 5.99-2.724 2.62-6.563 2.62-7.368 0-7.368-7.175 0-15.783.929-23.144.929-7.422 3.096-16.468.867-3.494.867-4.928 0-3.12-2.105-3.12-5.883 0-12.507 7.05-6.625 6.986-10.031 14.347-3.343 7.3-4.086 18.59-.247 5.428-.991 7.548-.743 2.06-3.281 3.93-2.477 1.935-6.006 1.934-3.219 0-5.325-1.871-2.043-1.872-2.043-4.803l.495-6.738q.496-6.861 3.963-21.833 3.344-13.85 3.839-19.152.495-5.863.99-8.983.558-3.118 3.344-5.427 2.848-2.37 6.625-2.37 8.049 0 7.12 9.731zM449.506 10.543q0-4.305 3.529-7.424T460.774 0q3.53 0 6.006 2.308 2.477 2.246 2.477 5.49 0 4.179-3.53 7.423-3.466 3.182-7.863 3.182-3.591 0-6.006-2.308-2.352-2.31-2.352-5.552m-6.44 84.777q-3.405 0-5.448-1.934-2.043-1.996-2.043-5.053l1.733-12.726a281 281 0 0 1 4.458-25.265q2.168-9.17 2.786-14.036.496-3.43 3.344-5.864 2.91-2.495 6.563-2.495 3.22 0 5.201 1.934 2.043 1.934 2.043 5.053 0 2.495-2.724 14.41t-4.149 23.019q-1.361 11.105-2.105 14.847-.681 3.742-3.467 5.926-2.724 2.184-6.192 2.184M493.218 35.745q10.464-9.17 20.432-9.17 15.603 0 15.603 18.09 0 4.929-1.053 11.541l-.743 4.491q-1.548 9.358-1.548 16.594 0 8.484-.433 11.977-.433 3.432-3.22 5.99-2.724 2.62-6.563 2.62-7.368 0-7.368-7.175 0-15.783.929-23.144.929-7.422 3.096-16.468.867-3.494.866-4.928 0-3.12-2.105-3.12-5.881 0-12.507 7.05-6.625 6.986-10.03 14.347-3.344 7.3-4.086 18.59-.248 5.428-.991 7.548-.743 2.06-3.281 3.93-2.477 1.935-6.006 1.934-3.22 0-5.325-1.871-2.043-1.872-2.043-4.803l.495-6.738q.495-6.861 3.963-21.833 3.343-13.85 3.839-19.152.495-5.863.99-8.983.558-3.118 3.344-5.427 2.848-2.37 6.625-2.37 8.049 0 7.12 9.731zM533.711 71.427q0-15.596 11.206-29.132 11.27-13.537 28.915-13.537 10.154 0 15.912 6.987 5.82 6.924 5.82 18.34 0 16.407-10.65 29.694-10.587 13.287-26.437 13.287-11.021 0-17.894-7.236-6.872-7.299-6.872-18.403m17.336-2.495q0 5.302 2.538 8.484 2.601 3.18 7.43 3.181 8.049 0 12.817-6.8 4.767-6.861 4.767-17.591 0-10.98-8.358-10.98-8.173 0-13.684 7.986-5.51 7.921-5.51 15.72"/><path fill="#000" d="m262.851 128.968-2.91 29.195q-1.486 15.22-2.538 21.896-.31 1.434-.619 6.238-.744 11.727-4.582 15.658-3.777 3.93-7.244 3.93-3.406 0-5.573-2.121-2.105-2.121-2.105-5.053 0-1.06.805-3.806.929-3.118 1.176-6.862.31-3.805 2.167-22.27l3.653-35.745-6.624.25q-11.269.436-17.894-.998-6.563-1.498-6.563-6.55 0-4.056 2.786-7.237 2.849-3.243 7.368-3.243l17.522 1.122q4.644 0 15.665-.686Q268.3 112 272.324 112l19.442.374q4.892 0 6.315.25t3.034 1.996q1.61 1.684 1.61 4.429 0 3.93-3.096 7.049t-6.749 3.119l-26.623-.249zM332.196 179.185l20.432-37.678 7.616-14.972q1.548-3.057 6.687-9.919 5.2-6.924 10.587-6.924 3.22 0 5.387 2.183 2.229 2.12 2.229 5.116 0 3.306-2.6 6.113a65.6 65.6 0 0 0-7.678 11.416l-30.215 55.894q-5.633 10.667-9.473 15.284-3.839 4.678-8.42 4.678-2.787 0-4.644-1.185-1.857-1.123-2.91-3.431-.99-2.309-3.715-16.968-2.662-14.66-5.201-36.805-.743-5.677-2.538-16.843-1.115-7.548-1.115-12.477 0-7.111 3.344-9.669t6.934-2.558q2.663 0 4.334 1.248 1.734 1.186 2.477 3.244.743 1.996.991 7.361.248 5.302.681 7.798.495 2.433 2.414 17.529 1.734 17.03 4.396 31.565"/><path fill="#fff" d="m260.851 124.968-2.91 29.195q-1.486 15.22-2.538 21.896-.31 1.434-.619 6.238-.744 11.727-4.582 15.658-3.777 3.93-7.244 3.93-3.406 0-5.573-2.121-2.105-2.121-2.105-5.053 0-1.06.805-3.806.929-3.118 1.176-6.862.31-3.805 2.167-22.27l3.653-35.745-6.624.25q-11.269.436-17.894-.998-6.563-1.498-6.563-6.55 0-4.056 2.786-7.237 2.849-3.243 7.368-3.243l17.522 1.122q4.644 0 15.665-.686Q266.3 108 270.324 108l19.442.374q4.892 0 6.315.25t3.034 1.996q1.61 1.684 1.61 4.429 0 3.93-3.096 7.049t-6.749 3.119l-26.623-.249zM330.196 175.185l20.432-37.678 7.616-14.972q1.548-3.057 6.687-9.919 5.2-6.924 10.587-6.924 3.22 0 5.387 2.183 2.229 2.12 2.229 5.116 0 3.306-2.6 6.113a65.6 65.6 0 0 0-7.678 11.416l-30.215 55.894q-5.633 10.667-9.473 15.284-3.839 4.678-8.42 4.678-2.787 0-4.644-1.185-1.857-1.123-2.91-3.431-.99-2.309-3.715-16.968-2.662-14.66-5.201-36.805-.743-5.677-2.538-16.843-1.115-7.548-1.115-12.477 0-7.111 3.344-9.669t6.934-2.558q2.663 0 4.334 1.248 1.734 1.186 2.477 3.244.743 1.996.991 7.361.248 5.302.681 7.798.495 2.433 2.414 17.529 1.734 17.03 4.396 31.565"/></svg>