<svg xmlns="http://www.w3.org/2000/svg" width="137" height="69" fill="none" viewBox="0 0 137 69"><path fill="#ab3d47" d="M0 0h137v69H0z"/><path fill="#fff" d="M1 1h67v67H1z"/><path fill="#ab3d47" d="M60.6 51.575h-4.122c-.13 0-.26-.01-.39-.014-.057-.1-.032-.21-.032-.315q0-16.5-.003-32.998c0-.233.034-.448.174-.64.12-.103.266-.077.406-.077q1.699-.001 3.398-.002.488-.002.962-.122c.017-.466.04-.4-.382-.407h-20.6q-.141 0-.284.002c-.08 0-.136.03-.135.123l.008.285c.136.16.324.117.495.118 1.296.004 2.591 0 3.887.003.15 0 .309-.035.445.07.135.15.096.336.096.51.002 10.913 0 21.827.008 32.74 0 .365-.06.631-.455.713q-.604.008-1.208.01c-.417 0-.339.05-.506-.346q-2.15-5.108-4.303-10.216c-2.257-5.354-4.518-10.705-6.695-16.092-.271-.672-.538-1.346-.868-1.993-.52-1.02-1.099-1.998-1.857-2.862a9.55 9.55 0 0 0-3.251-2.435c-.988-.448-2.03-.629-3.109-.63h-8.815c-.28 0-.26.021-.256.291.001.087.052.124.135.13.071.003.142.014.212.021.094.123.24.148.372.195.325.118.63.274.909.48a11 11 0 0 1 1.912 1.854c.987 1.198 1.753 2.54 2.547 3.866.12.2.078.38.019.58-.49 1.628-.988 3.255-1.475 4.884-.886 2.963-1.784 5.922-2.675 8.884-1.025 3.405-2.06 6.807-3.079 10.215-.246.824-.492 1.642-1.088 2.296-.06.055-.117.117-.184.165-.617.453-1.297.718-2.07.715-.768-.004-1.536-.001-2.303-.001q-.141-.002-.283.001c-.122.005-.149.031-.154.141-.013.238.012.268.246.27.437.002.874-.002 1.31 0 .437.003 5.552.001 5.717 0h2.702q.124.002.25-.001c.143-.006.169-.03.176-.162.01-.223-.008-.244-.229-.249h-.213q-.996.002-1.991-.001c-.166 0-.334 0-.496-.025-.564-.086-.914-.448-.976-1.018a2.7 2.7 0 0 1 .07-1.06c.783-2.743 2.392-8.388 2.42-8.466.044-.199.12-.318.298-.385.14-.025.282-.016.424-.016h9.56c.825.002.72-.097 1.067.73.689 1.642 1.37 3.29 2.251 4.843.9 1.586 2.018 2.984 3.517 4.053 1.891 1.35 4.039 1.705 6.303 1.758 1.207.028 17.373 0 17.503 0l4.656-.001q.16 0 .32-.006c.07-.002.104-.049.108-.114q.005-.09 0-.179c-.002-.07-.043-.107-.111-.109a9 9 0 0 0-.285-.004M25.31 40.078h-9.997.147c-.147 0-.155-.123-.142-.176.014-.059.035-.113.052-.167q1.667-5.538 3.339-11.074l.99-3.271c.084-.143.161-.076.227.013.082.112.12.247.172.375 1.828 4.588 3.675 9.168 5.492 13.76.065.163.248.54-.28.54"/><path fill="#fff" d="M92.172 20.992V52h-3.744V20.992H81.3V17h18v3.992z"/><path fill="#fff" d="m99.903 17 9.618 24.597L119.097 17h4.403l-13.979 35L95.5 17z"/></svg>