<svg xmlns="http://www.w3.org/2000/svg" width="800" height="305" fill="none" viewBox="0 0 800 305"><path fill="#e2e2e4" d="M421.56 205.32c-21.05-4.71-36.26-17.12-36.95-63.25h87.49l-.07-6.09h-.02c-.94-54.95-29.75-69.62-61.38-70.89v2.9c11.26 4.5 14.79 31.52 14.79 67.86h-40.84c0-27.34 5.79-61.1 17.37-67.86v-2.9c-36.72 1.24-74.3 22.32-77.29 70.89h-92.7v6.09h20.26v80.41c0 38.92 28.94 49.2 54.35 49.2 23.8 0 42.45-14.79 46.31-31.83l-1.93-1.29c-3.86 4.5-10.29 9.65-19.62 9.65-18.66 0-25.09-8.68-25.09-26.69v-79.45h18.21v.21c0 43.42 34.09 76.86 76.22 76.86 40.2 0 63.68-22.83 67.86-46.63l-2.9-.64c-6.44 27.34-27.99 36.99-44.07 33.45M70.012 64.338c.685.009 1.058.032 1.058.032 42.13 0 65.61 26.37 65.61 64.32v47.92s.02 19.98 12.42 22.28c2.57.35 8.64-.14 8.73-12.53.05-2.22.06-4.51.06-6.86v-78.47c0-11.25-3.86-15.76-17.05-20.58v-2.57l71.72-13.51v45.02c22.83-34.41 32.48-38.27 42.13-42.77 9-4.18 22.51-2.25 30.87 5.15 12.54 10.94 14.15 30.23 3.21 42.42-10.93 12.55-29.59 13.83-42.45 3.22-6.11-5.79-10.29-12.54-10.29-19.94 0-4.18-10.29-1.93-23.48 18.01v64c0 17.69 1.61 30.55 13.19 33.77v5.61l-103.45-.13H122c-2.97-.06-38.7-1.32-38.7-31.84v-49.53c-26.37 5.79-26.05 25.4-26.05 40.52 0 0-.32 21.23 12.54 21.23 2.57 0 6.11-.32 8.36-2.57l1.93 1.61C73 210.37 58.85 218.73 40.2 218.73c-12.22 0-40.2-5.46-40.2-32.8 0-32.16 26.05-38.27 83.3-51.78v-20.58c0-29.26-14.48-46.63-33.13-42.77l-1.61-2.89c9.297-3.266 17.807-3.589 21.084-3.575zM45.01 123.87c11.9-5.15 17.37-18.01 12.54-29.91-2.57-5.79-6.11-10.29-11.58-12.22-10.29-3.54-4.82-7.4-4.18-8.04l-1.29-2.25c-11.9 6.11-17.69 11.9-21.23 16.08-5.47 5.79-7.07 15.44-3.86 23.8 4.84 11.58 18.03 17.04 29.6 12.54"/><path fill="#404040" d="M647.45 304.9c84.196 0 152.45-68.254 152.45-152.45S731.646 0 647.45 0 495 68.254 495 152.45 563.254 304.9 647.45 304.9"/><path fill="#171717" d="M799.9 152.45c0-12.86-1.61-25.34-4.61-37.27l-49.73-41.1v149.81l-96-79.49v72.36h-37.91V99.81l-29-24.05c3.83 3.39 5.76 7.79 5.76 13.2 0 5.44-1.97 9.82-5.91 13.15s-8.7 4.99-14.27 4.99c-5.51 0-10.22-1.64-14.14-4.9l24.83 20.8h6.42v93.76h-34.21l106.12 87.79c79.63-5.06 142.65-71.2 142.65-152.1"/><path fill="#fff" d="M745.56 74.08v149.81l-96-79.49v72.36h-37.91V66.95l95.59 79.49V74.08zM585.36 123v93.76h-34.24V123zm-31.29-47.29c4.01-3.39 8.8-5.09 14.37-5.09s10.29 1.7 14.17 5.09c3.87 3.4 5.81 7.82 5.81 13.25 0 5.44-1.97 9.82-5.91 13.15s-8.7 4.99-14.27 4.99-10.33-1.66-14.27-4.99-5.91-7.71-5.91-13.15c-.01-5.43 2-9.85 6.01-13.25"/></svg>