<svg xmlns="http://www.w3.org/2000/svg" width="111" height="454" fill="none" viewBox="0 0 111 454"><path fill="#fa481c" d="M0 204.132v-44.866c6.64-.04 13.28-.053 19.934.027.146-8.894.026-17.8.066-26.707q14.14-.02 28.28 0c.054 8.893-.013 17.787.054 26.667 20.333.08 40.666-.094 60.999-.254.574 10.387 1.774 20.96-.453 31.24-1.347 7.2-7.987 13.027-15.373 13.12-15.027.987-30.107.76-45.173.733-.04 6.134-.04 12.267-.04 18.4-9.427.04-18.854.027-28.294.014 0-6.16.094-12.32-.146-18.48-6.614.16-13.24.093-19.854.106M18.52 400.998c-2-17.707-1.16-36.666 7.4-52.666 4.347-8.734 13.16-15.987 23.347-15.467 20.12.267 40.226-.44 60.346-.28.04 14.96.014 29.907.014 44.853-8.44.027-16.894.053-25.347-.027 1.853 6.92 3.747 13.894 6.76 20.4 2.053 3.84 5.48 8.134 10.36 7.56 3.227-.746 5.653-3.133 8.187-5.093.12 13.987 0 27.96.066 41.933.614 5.2-4.253 8.88-8.613 10.453-6.707 1.267-14.387.96-19.933-3.506-9.334-6.907-11.974-19.04-14.174-29.76-.653-7.813-2.493-15.453-3.44-23.227-.613-5.12-1.613-10.213-3.28-15.106-1.413-3.56-6.093-4.454-9.186-2.627-2.88 1.453-3.947 4.867-4.547 7.813-.813 5.44-.6 11.534 2.667 16.187 1.907 2.573 5.24 3.147 8.16 3.76.04 14.333.026 28.667.013 42.986-10.066-1.373-20.013-5.933-26.44-13.999-8.08-9.494-10.773-22.16-12.36-34.187M30.6 267.305c-11.8-6.72-15.066-22.56-10.56-34.679 9.427-.107 18.84-.04 28.254-.04.2 7.466-.8 15.253 1.92 22.399 2.453 5.867 8.786 9.227 14.973 9.254 14.813.173 29.64-.04 44.453.106-.147 15.16.28 30.334-.213 45.494-29.667-.174-59.347-.067-89.013-.054.053-13.946.026-27.893.013-41.84 3.4.094 6.88.36 10.173-.64M22.214 89.666c-5.494-17.56-5.987-37.04.24-54.48 3.28-10.16 9.813-19.226 18.6-25.333C54.254.573 71.28-1.133 86.947.613c.04 26.294.04 52.6 0 78.893 7.453.08 14.92.027 22.386.04-.12 11.147.24 22.307-.16 33.427-2.16 2.88-5.573 4.36-8.626 6.04-13.64 7.533-30.427 8.52-45.227 4.093-15.92-4.32-28.4-17.853-33.106-33.44m25.16-18.933c2.226 6.8 9.466 10.56 16.36 10.24.146-12.32-.307-24.613-.307-36.92-4.014.987-8.387 1.6-11.533 4.547-6.56 5.173-6.654 14.76-4.52 22.133"/></svg>