<svg xmlns="http://www.w3.org/2000/svg" width="380" height="226" fill="none" viewBox="0 0 380 226"><path fill="#f8cd05" d="M207.33 103.67a103.675 103.675 0 0 0-63.993-95.787A103.669 103.669 0 0 0 7.883 143.337a103.672 103.672 0 0 0 169.086 33.632 103.66 103.66 0 0 0 30.361-73.299"/><path fill="#f8cd05" d="M232.34 112.94h-26.67V91.35h77.98v21.59h-26.67v67.31h-24.64zM284.66 91.35h27.56l20.2 56.26 20.19-56.26h27.05l-36.07 89.53h-22.86z"/><path fill="#fff" d="M104 225.08H86v-37.77h17.54c7.71 0 12.46 3.83 12.46 9.77v.11a8.77 8.77 0 0 1-5 8.14c4.37 1.67 7.07 4.21 7.07 9.28v.11c0 6.91-5.62 10.36-14.14 10.36m3.78-26.6c0-2.48-2-3.88-5.45-3.88h-8.2v8h7.66c3.67 0 6-1.19 6-4v-.11m2.1 15.11c0-2.54-1.89-4.1-6.15-4.1h-9.6v8.31H104c3.67 0 5.88-1.3 5.88-4.1v-.11M122.08 225.08v-37.77h28.48v7.39h-20.23v7.67h17.81v7.39h-17.81v7.93h20.51v7.39zM178.25 225.08l-8.1-12.08h-6.53v12.09h-8.3v-37.78h17.26c8.9 0 14.25 4.7 14.25 12.47v.1a11.744 11.744 0 0 1-8.1 11.71l9.27 13.49h-9.71m.16-24.87c0-3.56-2.48-5.4-6.53-5.4h-8.26v10.85H172c4.05 0 6.37-2.16 6.37-5.35v-.1M209.6 225.73c-11.77 0-19.86-8.26-19.86-19.43v-.1a19.38 19.38 0 0 1 5.769-13.955 19.393 19.393 0 0 1 14.031-5.585c6.8 0 10.9 1.84 14.84 5.18l-5.23 6.32c-2.92-2.43-5.51-3.83-9.88-3.83-6 0-10.84 5.34-10.84 11.76v.11c0 6.9 4.75 12 11.44 12a13.24 13.24 0 0 0 7.82-2.26v-5.4h-8.36v-7.17h16.4v16.4a24.54 24.54 0 0 1-16.13 6M258.92 225.08l-3.46-8.47h-16l-3.46 8.47h-8.47l16.18-38h7.67l16.18 38h-8.68M247.48 197l-5 12.25h10zM300.03 225.08v-24.66l-10.63 16.14h-.21l-10.52-15.97v24.49h-8.15v-37.77h8.96l9.92 15.97 9.93-15.97h8.96v37.77zM332.79 225.73c-11.66 0-20-8.69-20-19.43v-.1c0-10.74 8.47-19.54 20.12-19.54s20 8.69 20 19.43v.11c0 10.73-8.47 19.53-20.12 19.53m11.43-19.53c0-6.48-4.74-11.87-11.43-11.87s-11.33 5.28-11.33 11.76v.11c0 6.47 4.74 11.87 11.43 11.87s11.33-5.29 11.33-11.77z"/><path fill="#fff" d="M116 196.25h-9c-.86-1.07-2.47-1.65-4.72-1.65h-8.2v1.65H86v-8.94h17.54c7.35 0 12 3.48 12.43 8.94M130.33 196.25h-8.25v-8.94h28.48v7.39h-20.23zM186.41 196.25h-9.65a7.47 7.47 0 0 0-4.88-1.44h-8.26v1.44h-8.3v-8.94h17.26c7.46 0 12.42 3.3 13.83 8.94M85.82 62.65h60.7c14.88 0 25.37 3.7 32.3 10.59a25.66 25.66 0 0 1 7.61 19v.34c0 13.6-7.78 21.67-18.26 26.2 14.37 4.71 23.5 12.77 23.5 28.73v.34c0 20.16-16.57 32.42-44.81 32.42h-61V62.65m52.59 46.87c10 0 15.55-3.36 15.55-10.24v-.34c0-6.38-5.07-10.08-14.88-10.08h-21.3v20.66zm4.69 44.48c10 0 15.73-3.86 15.73-10.75V143c0-6.39-5.08-10.59-16.07-10.59h-25V154z"/></svg>