<svg xmlns="http://www.w3.org/2000/svg" width="251" height="94" fill="none" viewBox="0 0 251 94"><path fill="#db502b" fill-rule="evenodd" d="M235.6 0c-8.169 0-14.781 6.632-14.781 14.781 0 8.198 6.612 14.844 14.781 14.844 8.166 0 14.781-6.646 14.781-14.844C250.391 6.632 243.77 0 235.6 0m0 2.188c6.934 0 12.625 5.64 12.625 12.593 0 7.001-5.691 12.689-12.625 12.689s-12.625-5.687-12.625-12.688c0-6.954 5.691-12.594 12.625-12.594M67.79 5.844a1 1 0 0 0-1 1v62.812c0 .543.441 1 1 1h8.875c.56 0 1-.458 1-1V6.844a1 1 0 0 0-1-1zm67.658.031a1 1 0 0 0-1 1v62.781c0 .558.44 1 1 1h8.906c.559 0 1-.443 1-1V50.25c0-7.417 4.343-13.719 9.875-13.719 4.003 0 5.188 2.632 5.188 7.063l-.032 26.062c0 .557.459 1 1 1h8.844c.542 0 1-.444 1-1V40.967c0-7.403-3.062-13.53-12.594-13.53-6.545 0-11.405 3.146-13.875 7.906l-.2-.093c.6-2.473.782-6.036.782-8.594V6.875c0-.544-.442-1-1-1h-8.907zm106.16.094-14.938 5.375v3.687l4.937-1.781v11.125l10-3.562zM25.758 25.906c-8.188 0-16.046 8.08-20.219 14.812C3.596 44.133 1 49.562.258 54.937c-.747 5.358.129 11.175 5.5 14.219 8.133 4.63 16.803.614 22.875-4.032.545-.385 1.09-.877 1.719-1.406a46 46 0 0 0 3.906-3.75c.029-.043.096-.113.125-.156 1.27-1.33 2.593-2.78 3.906-4.281l.156.312c4.416 7.89 10.233 15.483 19.094 14.812 1.072-.185 1.05-1.106 1.063-2.25.014-2.23-.063-7.25-.063-7.25.03-.8-.582-1.212-1.625-1.312-.486-.043-1.42-.055-1.937-.313-2.357-1.157-3.478-3.29-5.406-6.406-1.274-2.058-2.458-4.296-3.688-6.625 2.502-3.073 12.312-15.469 12.312-15.469 2.76-3.774 1.233-4.032-1.28-4.032l-7.97-.031c-1.156.057-1.933.471-2.218.844-.674.843-1.764 2.291-2.907 3.75-1.229 1.6-2.404 3.172-3.593 4.687-3.502-5.687-7.579-10.344-14.47-10.344zm177.78.437c-8.202 0-16.012 8.08-20.188 14.812-1.958 3.416-4.552 8.863-5.281 14.25-.743 5.36.126 11.143 5.5 14.188 11.232 6.388 23.484-3.685 28.5-9.187.357-.386.527-1.323.125-1.938l-4.719-6.062c-.857-1.016-1.777-1.13-2.937 0-2.986 2.915-4.589 5.334-9.375 7.406-3.516 1.515-5.485.72-6.188-.437-1.829-2.974 3.261-11.258 3.875-12.345 3.915-6.273 8.029-9.277 10.656-9.406.544-.029 1.544.28 2.531 1.281.97.972 1.994 2.435 3.094 4.25 2.232 3.716 4.55 8.554 7.125 13.157 4.401 7.888 10.03 15.046 18.906 14.374 1.057-.17 1.031-1.074 1.031-2.218.015-2.244-.062-7.282-.062-7.282.043-.786-.566-1.196-1.594-1.28-.487-.044-1.421-.07-1.938-.313-2.37-1.158-3.195-2.9-5.125-6-2.045-3.316-3.671-7.3-5.843-11.188-4.486-8.062-8.889-16.062-18.094-16.062zm-92.25.688c-6.388 0-10.892 2.96-13.281 7.906h-.187c.244-1.63.377-3.598.406-5.312.014-.044 0-.938 0-.938 0-.557-.424-1-.969-1h-8.125c-.556 0-1 .443-1 1v63.344c0 .557.444 1 1 1h8.875c.56 0 1.031-.443 1.031-1V70.437c1.801.257 3.394.344 5.438.344 14.635 0 22.312-9.28 22.312-24-.001-12.52-5.452-19.75-15.5-19.75m-3.156 8.937c4.928 0 7.25 4.083 7.25 12 0 10.476-4.524 14.375-10.656 14.375-2.199 0-3.975-.235-5.688-.75v-11.75c0-7.232 3.391-13.875 9.094-13.875M25.7 37.186c.527-.029 1.544.28 2.531 1.281.973.972 2.086 2.42 3.188 4.25a75 75 0 0 1 1.593 2.75c-2.001 2.416-3.942 4.642-5.875 6.657-2.945 2.872-5.035 5.191-9.78 7.25-3.517 1.515-5.458.705-6.157-.438-1.815-2.973 3.261-11.288 3.875-12.375 3.918-6.273 8.01-9.246 10.625-9.375" clip-rule="evenodd"/></svg>