<svg xmlns="http://www.w3.org/2000/svg" id="Layer_2" viewBox="-3.5 -3.5 2208.01 299.78"><defs><linearGradient id="Sfumatura_senza_nome_10" x1="793.6" x2="793.6" y1="0" y2="292.77" data-name="Sfumatura senza nome 10" gradientUnits="userSpaceOnUse"><stop offset="0" stop-color="#736e72"/><stop offset=".32" stop-color="#716c70"/><stop offset=".43" stop-color="#6a666a"/><stop offset=".51" stop-color="#605e61"/><stop offset=".87" stop-color="#5e5c5f"/><stop offset="1" stop-color="#58585a"/></linearGradient><linearGradient id="Sfumatura_senza_nome_4" x1="1919.13" x2="1919.13" y1="0" y2="292.77" data-name="Sfumatura senza nome 4" gradientUnits="userSpaceOnUse"><stop offset="0" stop-color="#f79e59"/><stop offset=".23" stop-color="#f79d57"/><stop offset=".32" stop-color="#f79b50"/><stop offset=".38" stop-color="#f89844"/><stop offset=".43" stop-color="#fa9433"/><stop offset=".47" stop-color="#fc8f1d"/><stop offset=".5" stop-color="#fe8803"/><stop offset=".51" stop-color="#f80"/><stop offset=".74" stop-color="#ff8801"/><stop offset=".83" stop-color="#ff8a08"/><stop offset=".89" stop-color="#ff8d14"/><stop offset=".94" stop-color="#ff9125"/><stop offset=".98" stop-color="#ff963b"/><stop offset="1" stop-color="#ff9a48"/></linearGradient><style>.cls-1{fill:url(#Sfumatura_senza_nome_10)}.cls-2{fill:url(#Sfumatura_senza_nome_4)}.cls-3,.cls-4{stroke:#1d1d1b;fill:none;stroke-width:7px}.cls-4{stroke:#000}</style></defs><g id="Livello_1"><path d="M69.14 292.77C23.04 292.77 0 275.69 0 241.54V53.55C0 17.85 23.04 0 69.14 0H237.7v73.58H102.45c-10.09 0-15.14 3.85-15.14 11.56v122.5c0 7.7 5.05 11.56 15.14 11.56h136.26v73.58H69.14ZM330.06 292.77c-43.07 0-64.6-17.08-64.6-51.23v-33.51c0-34.92 21.53-52.39 64.6-52.39h99.42c5.72 0 11.27.9 16.66 2.7v-16.95c0-7.7-5.05-11.56-15.14-11.56H277.07V66.65h185.72q70.65 0 70.65 53.16v119.8q0 53.16-68.13 53.16zm116.07-85.52c0-5.13-3.37-7.7-10.09-7.7h-73.68c-6.73 0-10.09 2.57-10.09 7.7v15.79c0 5.14 3.36 7.7 10.09 7.7h73.68c6.73 0 10.09-2.56 10.09-7.7zM753.98 292.77V145.23c0-7.71-5.05-11.56-15.14-11.56h-61.57c-10.09 0-15.14 3.85-15.14 11.56v147.54h-87.31V119.8c0-35.44 23.04-53.16 69.14-53.16h127.68c45.75 0 68.64 17.85 68.64 53.54v172.58h-86.3ZM943.74 292.77c-43.07 0-64.6-17.08-64.6-51.23v-33.51c0-34.92 21.53-52.39 64.6-52.39h99.42q8.58 0 16.65 2.7v-16.95c0-7.7-5.05-11.56-15.14-11.56H890.74V66.65h185.72c47.1 0 70.66 17.72 70.66 53.16v119.8q0 53.16-68.13 53.16zm116.07-85.52c0-5.13-3.37-7.7-10.09-7.7h-73.68c-6.73 0-10.09 2.57-10.09 7.7v15.79c0 5.14 3.36 7.7 10.09 7.7h73.68c6.73 0 10.09-2.56 10.09-7.7zM1189.51 292.77V0h87.31v292.77zM1389.86 292.77c-47.11 0-70.66-17.72-70.66-53.16v-119.8q0-53.16 68.13-53.16h135.25c43.06 0 64.6 17.21 64.6 51.62v33.13c0 34.93-21.54 52.39-64.6 52.39h-100.43c-6.06 0-11.28-.9-15.64-2.7v16.95c0 7.71 5.05 11.56 15.14 11.56h152.92v63.18h-184.71Zm110.53-156.4c0-5.13-3.37-7.7-10.09-7.7h-73.68c-6.73 0-10.09 2.57-10.09 7.7v15.79c0 5.14 3.36 7.7 10.09 7.7h73.68c6.73 0 10.09-2.56 10.09-7.7z"/><path d="M69.14 292.77C23.04 292.77 0 275.69 0 241.54V53.55C0 17.85 23.04 0 69.14 0H237.7v73.58H102.45c-10.09 0-15.14 3.85-15.14 11.56v122.5c0 7.7 5.05 11.56 15.14 11.56h136.26v73.58H69.14Z" class="cls-1"/><path d="M330.06 292.77c-43.07 0-64.6-17.08-64.6-51.23v-33.51c0-34.92 21.53-52.39 64.6-52.39h99.42c5.72 0 11.27.9 16.66 2.7v-16.95c0-7.7-5.05-11.56-15.14-11.56H277.07V66.65h185.72q70.65 0 70.65 53.16v119.8q0 53.16-68.13 53.16zm116.07-85.52c0-5.13-3.37-7.7-10.09-7.7h-73.68c-6.73 0-10.09 2.57-10.09 7.7v15.79c0 5.14 3.36 7.7 10.09 7.7h73.68c6.73 0 10.09-2.56 10.09-7.7z" class="cls-1"/><path d="M753.98 292.77V145.23c0-7.71-5.05-11.56-15.14-11.56h-61.57c-10.09 0-15.14 3.85-15.14 11.56v147.54h-87.31V119.8c0-35.44 23.04-53.16 69.14-53.16h127.68c45.75 0 68.64 17.85 68.64 53.54v172.58h-86.3Z" class="cls-1"/><path d="M943.74 292.77c-43.07 0-64.6-17.08-64.6-51.23v-33.51c0-34.92 21.53-52.39 64.6-52.39h99.42q8.58 0 16.65 2.7v-16.95c0-7.7-5.05-11.56-15.14-11.56H890.74V66.65h185.72c47.1 0 70.66 17.72 70.66 53.16v119.8q0 53.16-68.13 53.16zm116.07-85.52c0-5.13-3.37-7.7-10.09-7.7h-73.68c-6.73 0-10.09 2.57-10.09 7.7v15.79c0 5.14 3.36 7.7 10.09 7.7h73.68c6.73 0 10.09-2.56 10.09-7.7z" class="cls-1"/><path d="M1189.51 292.77V0h87.31v292.77z" class="cls-1"/><path d="M1389.86 292.77c-47.11 0-70.66-17.72-70.66-53.16v-119.8q0-53.16 68.13-53.16h135.25c43.06 0 64.6 17.21 64.6 51.62v33.13c0 34.93-21.54 52.39-64.6 52.39h-100.43c-6.06 0-11.28-.9-15.64-2.7v16.95c0 7.71 5.05 11.56 15.14 11.56h152.92v63.18h-184.71Zm110.53-156.4c0-5.13-3.37-7.7-10.09-7.7h-73.68c-6.73 0-10.09 2.57-10.09 7.7v15.79c0 5.14 3.36 7.7 10.09 7.7h73.68c6.73 0 10.09-2.56 10.09-7.7z" class="cls-1"/><path d="M69.14 292.77C23.04 292.77 0 275.69 0 241.54V53.55C0 17.85 23.04 0 69.14 0H237.7v73.58H102.45c-10.09 0-15.14 3.85-15.14 11.56v122.5c0 7.7 5.05 11.56 15.14 11.56h136.26v73.58H69.14ZM330.06 292.77c-43.07 0-64.6-17.08-64.6-51.23v-33.51c0-34.92 21.53-52.39 64.6-52.39h99.42c5.72 0 11.27.9 16.66 2.7v-16.95c0-7.7-5.05-11.56-15.14-11.56H277.07V66.65h185.72q70.65 0 70.65 53.16v119.8q0 53.16-68.13 53.16zm116.07-85.52c0-5.13-3.37-7.7-10.09-7.7h-73.68c-6.73 0-10.09 2.57-10.09 7.7v15.79c0 5.14 3.36 7.7 10.09 7.7h73.68c6.73 0 10.09-2.56 10.09-7.7zM753.98 292.77V145.23c0-7.71-5.05-11.56-15.14-11.56h-61.57c-10.09 0-15.14 3.85-15.14 11.56v147.54h-87.31V119.8c0-35.44 23.04-53.16 69.14-53.16h127.68c45.75 0 68.64 17.85 68.64 53.54v172.58h-86.3ZM943.74 292.77c-43.07 0-64.6-17.08-64.6-51.23v-33.51c0-34.92 21.53-52.39 64.6-52.39h99.42q8.58 0 16.65 2.7v-16.95c0-7.7-5.05-11.56-15.14-11.56H890.74V66.65h185.72c47.1 0 70.66 17.72 70.66 53.16v119.8q0 53.16-68.13 53.16zm116.07-85.52c0-5.13-3.37-7.7-10.09-7.7h-73.68c-6.73 0-10.09 2.57-10.09 7.7v15.79c0 5.14 3.36 7.7 10.09 7.7h73.68c6.73 0 10.09-2.56 10.09-7.7zM1189.51 292.77V0h87.31v292.77zM1389.86 292.77c-47.11 0-70.66-17.72-70.66-53.16v-119.8q0-53.16 68.13-53.16h135.25c43.06 0 64.6 17.21 64.6 51.62v33.13c0 34.93-21.54 52.39-64.6 52.39h-100.43c-6.06 0-11.28-.9-15.64-2.7v16.95c0 7.71 5.05 11.56 15.14 11.56h152.92v63.18h-184.71Zm110.53-156.4c0-5.13-3.37-7.7-10.09-7.7h-73.68c-6.73 0-10.09 2.57-10.09 7.7v15.79c0 5.14 3.36 7.7 10.09 7.7h73.68c6.73 0 10.09-2.56 10.09-7.7z" class="cls-4"/><path d="M1706.41 292.77c-46.1 0-69.14-18.23-69.14-54.7V55.86c0-37.23 22.54-55.86 67.63-55.86h201.37v73.58h-160.49c-13.12 0-19.68 5.53-19.68 16.56v37.37c5.38-6.93 13.63-10.4 24.73-10.4h104.47c40.38 0 60.56 16.82 60.56 50.46v73.58c0 34.42-22.38 51.62-67.12 51.62h-142.32Zm122.63-104.4c0-7.71-5.05-11.56-15.14-11.56h-72.67c-10.09 0-15.14 3.85-15.14 11.56v20.42c0 7.71 5.05 11.56 15.14 11.56h72.67c10.09 0 15.14-3.85 15.14-11.56zM1950.67 292.77v-73.58h148.38c9.75 0 14.64-3.85 14.64-11.56v-20.42c0-7.7-4.88-11.56-14.64-11.56h-143.33v-58.94h143.33c9.75 0 14.64-3.85 14.64-11.56V85.12c0-7.7-4.88-11.56-14.64-11.56h-144.84V0h176.64c46.09 0 69.14 18.24 69.14 54.7v46.23c0 26.45-14.13 41.6-42.39 45.46q22.71 3.855 33.06 14.25c6.89 6.93 10.35 16.18 10.35 27.74v50.08c0 36.21-23.05 54.32-69.14 54.32h-181.18Z"/><path d="M1706.41 292.77c-46.1 0-69.14-18.23-69.14-54.7V55.86c0-37.23 22.54-55.86 67.63-55.86h201.37v73.58h-160.49c-13.12 0-19.68 5.53-19.68 16.56v37.37c5.38-6.93 13.63-10.4 24.73-10.4h104.47c40.38 0 60.56 16.82 60.56 50.46v73.58c0 34.42-22.38 51.62-67.12 51.62h-142.32Zm122.63-104.4c0-7.71-5.05-11.56-15.14-11.56h-72.67c-10.09 0-15.14 3.85-15.14 11.56v20.42c0 7.71 5.05 11.56 15.14 11.56h72.67c10.09 0 15.14-3.85 15.14-11.56z" class="cls-2"/><path d="M1950.67 292.77v-73.58h148.38c9.75 0 14.64-3.85 14.64-11.56v-20.42c0-7.7-4.88-11.56-14.64-11.56h-143.33v-58.94h143.33c9.75 0 14.64-3.85 14.64-11.56V85.12c0-7.7-4.88-11.56-14.64-11.56h-144.84V0h176.64c46.09 0 69.14 18.24 69.14 54.7v46.23c0 26.45-14.13 41.6-42.39 45.46q22.71 3.855 33.06 14.25c6.89 6.93 10.35 16.18 10.35 27.74v50.08c0 36.21-23.05 54.32-69.14 54.32h-181.18Z" class="cls-2"/><path d="M1706.41 292.77c-46.1 0-69.14-18.23-69.14-54.7V55.86c0-37.23 22.54-55.86 67.63-55.86h201.37v73.58h-160.49c-13.12 0-19.68 5.53-19.68 16.56v37.37c5.38-6.93 13.63-10.4 24.73-10.4h104.47c40.38 0 60.56 16.82 60.56 50.46v73.58c0 34.42-22.38 51.62-67.12 51.62h-142.32Zm122.63-104.4c0-7.71-5.05-11.56-15.14-11.56h-72.67c-10.09 0-15.14 3.85-15.14 11.56v20.42c0 7.71 5.05 11.56 15.14 11.56h72.67c10.09 0 15.14-3.85 15.14-11.56zM1950.67 292.77v-73.58h148.38c9.75 0 14.64-3.85 14.64-11.56v-20.42c0-7.7-4.88-11.56-14.64-11.56h-143.33v-58.94h143.33c9.75 0 14.64-3.85 14.64-11.56V85.12c0-7.7-4.88-11.56-14.64-11.56h-144.84V0h176.64c46.09 0 69.14 18.24 69.14 54.7v46.23c0 26.45-14.13 41.6-42.39 45.46q22.71 3.855 33.06 14.25c6.89 6.93 10.35 16.18 10.35 27.74v50.08c0 36.21-23.05 54.32-69.14 54.32h-181.18Z" class="cls-3"/></g></svg>