<svg xmlns="http://www.w3.org/2000/svg" width="2643" height="658" fill="none" viewBox="0 0 2643 658"><path fill="#fff" d="M819.27 181.362q-15.386 16.953-35.111 27.993Q764.433 220 732.873 220q-23.671 0-44.185-8.674-20.12-8.673-34.717-23.261-14.597-14.983-22.882-34.696-8.284-20.107-8.284-42.58V110q0-22.474 8.284-42.58 8.285-20.109 22.882-35.09 14.596-14.983 34.717-23.656Q709.202 0 733.662 0q29.983 0 49.708 9.462 19.726 9.463 34.717 26.022l-36.69 39.426q-10.257-10.644-21.303-16.953-10.651-6.309-26.827-6.308-11.44 0-20.909 4.73-9.074 4.338-16.175 12.223-6.706 7.886-10.651 18.53-3.55 10.251-3.551 22.079V110q0 12.222 3.551 22.867 3.945 10.645 11.046 18.531t16.964 12.616q9.863 4.337 22.092 4.337 14.992 0 26.038-5.914 11.44-6.308 22.487-16.559zM1040.31 215.269h-57.993v-22.868q-11.046 12.223-26.432 19.714-15.386 7.096-37.479 7.096-14.991 0-28.404-3.942-13.02-4.337-22.882-12.617-9.863-8.279-15.78-20.107-5.523-12.222-5.523-27.993v-.789q0-17.347 6.312-29.964t17.358-20.896q11.44-8.28 26.827-12.222 15.78-4.337 34.717-4.337 16.175 0 28.01 2.366a174 174 0 0 1 23.67 6.308v-3.549q0-18.924-11.44-28.78-11.442-9.858-33.928-9.858-17.36 0-30.772 3.155-13.018 2.76-27.616 8.28L863.964 18.53q17.359-7.492 36.295-12.223t45.763-4.731q49.313 0 71.798 24.05c14.99 16.034 22.49 38.375 22.49 67.025zm-56.81-74.516v-10.645q-7.89-3.549-17.753-5.52-9.468-2.366-20.514-2.366-19.33 0-30.377 7.491t-11.047 21.685v.788q0 12.223 9.074 18.925 9.073 6.703 23.671 6.703 21.303 0 33.928-10.251 13.018-10.251 13.018-26.81M1246.95 151.004c0 11.828-2.1 22.078-6.31 30.752-3.94 8.411-9.6 15.377-16.96 20.896q-11.055 8.28-26.04 12.617-14.595 3.942-31.56 3.942c-14.99 0-30.38-2.497-46.16-7.491q-23.28-7.885-44.58-24.444l25.64-39.427c11.58 8.411 23.02 14.72 34.33 18.925 11.57 4.206 22.35 6.308 32.35 6.308q13.02 0 18.93-4.336c4.21-2.892 6.31-6.703 6.31-11.434v-.789c0-3.154-1.18-5.914-3.55-8.279-2.36-2.366-5.65-4.337-9.86-5.914-3.94-1.84-8.55-3.549-13.81-5.126s-10.78-3.285-16.57-5.125c-7.36-2.103-14.86-4.6-22.48-7.491-7.37-3.154-14.07-7.097-20.12-11.828-6.05-4.994-11.05-11.04-14.99-18.136-3.69-7.097-5.53-15.771-5.53-26.022v-.788c0-10.777 1.98-20.24 5.92-28.387 4.21-8.411 9.73-15.508 16.57-21.29 7.1-5.783 15.25-10.12 24.46-13.012 9.47-2.89 19.59-4.336 30.38-4.336 13.41 0 26.95 2.234 40.63 6.702 13.94 4.206 26.7 10.12 38.27 17.742l-22.88 41.398c-10.52-6.046-20.78-10.777-30.77-14.194-10-3.68-18.81-5.52-26.44-5.52-7.36 0-12.88 1.446-16.57 4.337q-5.52 3.943-5.52 10.251v.789c0 2.891 1.18 5.52 3.55 7.885 2.37 2.103 5.52 4.206 9.47 6.308 3.94 1.84 8.42 3.68 13.41 5.52a619 619 0 0 0 16.57 5.52c7.37 2.365 14.86 5.257 22.49 8.674 7.63 3.154 14.46 7.096 20.51 11.828s11.05 10.513 14.99 17.347c3.95 6.834 5.92 15.114 5.92 24.839zM1471.8 215.269h-57.99v-22.868q-11.04 12.223-26.43 19.714c-10.26 4.731-22.75 7.096-37.48 7.096-9.99 0-19.46-1.314-28.4-3.942q-13.02-4.337-22.89-12.617-9.855-8.279-15.78-20.107-5.52-12.222-5.52-27.993v-.789c0-11.565 2.11-21.553 6.31-29.964 4.21-8.411 10-15.376 17.36-20.896 7.63-5.52 16.57-9.594 26.83-12.222 10.52-2.891 22.09-4.337 34.72-4.337 10.78 0 20.12.789 28.01 2.366a174 174 0 0 1 23.67 6.308v-3.549c0-12.616-3.82-22.21-11.44-28.78q-11.445-9.858-33.93-9.858c-11.57 0-21.83 1.052-30.77 3.155-8.68 1.84-17.89 4.6-27.62 8.28l-14.99-45.735c11.57-4.995 23.67-9.069 36.29-12.223 12.63-3.154 27.88-4.731 45.77-4.731 32.87 0 56.81 8.017 71.8 24.05s22.48 38.375 22.48 67.025zm-56.8-74.516v-10.645q-7.89-3.549-17.76-5.52c-6.31-1.577-13.15-2.366-20.51-2.366-12.89 0-23.02 2.497-30.38 7.491s-11.05 12.222-11.05 21.685v.788c0 8.149 3.03 14.457 9.08 18.925q9.075 6.703 23.67 6.703 21.3 0 33.93-10.251 13.02-10.251 13.02-26.81M.781 273.65h124.137V645H.781zM326.168 651.366q-53.58 0-81.697-24.934-27.586-25.464-27.586-78.514v-99.734h-33.952v-92.837h33.952v-72.679h120.424v72.679h66.843v92.837h-66.843v73.209q0 16.446 7.427 23.342 7.427 6.367 21.75 6.367 16.976 0 36.605-9.019v92.838q-14.324 7.427-34.483 11.67-20.159 4.775-42.44 4.775M592.102 582.401q15.915 0 26.525-11.671 10.61-12.201 10.61-32.891v-12.202q-5.306-2.121-12.732-3.183a70.7 70.7 0 0 0-14.854-1.591q-18.037 0-27.586 9.549-9.549 9.018-9.549 22.812v1.06q0 12.732 7.958 20.69 7.957 7.427 19.628 7.427m-47.745 69.495q-20.69 0-38.196-5.835t-30.238-16.976q-12.732-11.671-19.629-28.116-6.896-16.446-6.896-38.197v-1.061q0-43.5 29.707-66.843 29.709-23.342 80.637-23.342 9.018 0 19.098 1.061 10.078.53 19.098 2.122 9.549 1.591 17.506 3.714 7.957 1.592 12.732 3.713v-4.774q0-20.159-12.732-30.769-12.732-11.14-40.848-11.141-22.281 0-41.91 4.775-19.098 4.244-38.196 11.671l-21.22-80.106q25.464-9.549 54.641-15.384 29.178-5.835 67.374-5.835 44.562 0 73.74 9.548 29.708 9.02 48.806 28.117 16.445 16.446 23.342 38.196t6.896 53.58V645H627.646v-29.177q-15.385 16.445-36.074 26.525-20.16 9.548-47.215 9.548M812.496 257.735h120.423V645H812.496zM1330.7 582.401c10.61 0 19.46-3.89 26.53-11.671 7.07-8.134 10.61-19.098 10.61-32.891v-12.202c-3.54-1.414-7.78-2.475-12.73-3.183a70.8 70.8 0 0 0-14.86-1.591c-12.02 0-21.22 3.183-27.58 9.549-6.37 6.012-9.55 13.616-9.55 22.812v1.06c0 8.488 2.65 15.385 7.96 20.69q7.95 7.427 19.62 7.427m-47.74 69.495c-13.79 0-26.53-1.945-38.2-5.835s-21.75-9.549-30.23-16.976c-8.49-7.781-15.04-17.153-19.63-28.116q-6.9-16.446-6.9-38.197v-1.061c0-29 9.9-51.281 29.71-66.843 19.8-15.561 46.68-23.342 80.63-23.342 6.02 0 12.38.354 19.1 1.061 6.72.354 13.09 1.061 19.1 2.122 6.37 1.061 12.2 2.299 17.51 3.714 5.3 1.061 9.55 2.299 12.73 3.713v-4.774c0-13.439-4.25-23.696-12.73-30.769-8.49-7.427-22.11-11.141-40.85-11.141q-22.29 0-41.91 4.775c-12.73 2.829-25.47 6.72-38.2 11.671l-21.22-80.106c16.98-6.366 35.19-11.494 54.64-15.384 19.46-3.89 41.91-5.835 67.38-5.835q44.565 0 73.74 9.548c19.8 6.013 36.07 15.385 48.8 28.117 10.97 10.964 18.75 23.696 23.35 38.196 4.59 14.5 6.89 32.36 6.89 53.58V645h-120.42v-29.177c-10.26 10.963-22.28 19.805-36.08 26.525-13.44 6.366-29.17 9.548-47.21 9.548M1000.2 369.35h120.43V645H1000.2zm-2.12-111.615h124.67v76.922H998.08zM1820.99 657.659c-112.13 0-190.8-38.882-256.81-100.371l100.37-117.553c51.54 43.404 100.37 68.723 153.73 68.723 57.87 0 93.13-28.936 93.13-74.148v-1.809c0-45.212-37.98-73.244-93.13-73.244-38.89 0-71.44 13.564-101.28 31.649l-103.99-57.872 18.09-321.009h423.18v144.68h-284.83l-5.43 95.85c28.94-13.563 58.78-22.606 101.28-22.606 113.93 0 217.02 63.298 217.02 200.744v1.808c0 141.063-107.61 225.158-261.33 225.158M2397.9 657.659c-122.07 0-207.98-44.308-269.47-112.127l110.32-110.318c45.21 46.117 93.14 72.34 151.01 72.34 49.73 0 81.38-25.319 81.38-64.202v-1.808c0-40.692-37.07-65.106-103.08-65.106h-74.15l-25.32-91.33 145.59-131.116h-242.34V12.025h457.55v125.691l-151.01 129.307c90.42 19.894 163.67 70.532 163.67 178.138v1.808c0 128.404-103.09 210.69-244.15 210.69"/></svg>