<svg xmlns="http://www.w3.org/2000/svg" width="86" height="14" fill="none" viewBox="0 0 86 14"><path fill="#000" d="M0 0h86v14H0z"/><path fill="#fff" d="m7.848 7.88 2.257.791q-.227 1.1-.717 1.84a3.2 3.2 0 0 1-1.216 1.113Q7.45 12 6.331 12q-1.36 0-2.222-.455-.859-.461-1.484-1.615T2 6.977q0-2.4 1.097-3.685Q4.199 2 6.21 2q1.575 0 2.473.738.904.739 1.341 2.268l-2.273.587q-.12-.442-.25-.646a1.6 1.6 0 0 0-.529-.528 1.35 1.35 0 0 0-.7-.184q-.875 0-1.34.817-.353.607-.353 1.905 0 1.609.42 2.208.421.594 1.183.594.74 0 1.114-.481.381-.482.551-1.398M11.372 2.165h2.575v3.381h2.813V2.165h2.586v9.664H16.76v-3.91h-2.814v3.91h-2.574zM26.183 10.233H23.25l-.403 1.596h-2.632l3.132-9.664h2.807l3.132 9.664h-2.694zm-.54-2.09-.92-3.473-.916 3.474zM30.133 2.165h2.404l3.137 5.346V2.165h2.427v9.664h-2.427l-3.12-5.307v5.307h-2.421zM39.829 2.165h2.404L45.37 7.51V2.165h2.427v9.664H45.37l-3.12-5.307v5.307h-2.421zM49.502 2.165h6.9v2.063h-4.32v1.536h4.007v1.971h-4.007V9.64h4.444v2.189h-7.024zM57.919 2.165h2.575v7.284h4.018v2.38h-6.593zM75.97 11.829h-6.946a5.6 5.6 0 0 1 .722-2.242q.609-1.054 2.273-2.485 1.018-.876 1.302-1.331t.284-.864q0-.441-.284-.751a.9.9 0 0 0-.705-.317.93.93 0 0 0-.727.323q-.279.324-.375 1.14l-2.32-.217q.137-1.134.5-1.767a2.4 2.4 0 0 1 1.024-.975Q71.383 2 72.554 2q1.221 0 1.898.323.682.323 1.068.995.392.666.392 1.497 0 .883-.449 1.687-.442.804-1.62 1.767a19 19 0 0 0-.937.784q-.233.225-.551.587h3.614zM80.937 10.022H76.72V7.814L80.937 2h2.017v5.94H84v2.082h-1.046v1.807h-2.017zm0-2.083V4.9l-2.228 3.04z"/></svg>