<svg xmlns="http://www.w3.org/2000/svg" width="129" height="85" fill="none" viewBox="0 0 129 85"><path fill="#1e1e1e" d="M0 0h129v85H0z"/><path fill="#fff" d="M0 0h129v85H0z"/><path fill="#000" d="M0 0h129v43H0zM0 48h39v37H0zM45 48h39v37H45zM90 48h39v37H90z"/><path fill="#fff" d="M26.093 24.288q0 3.072-1.35 5.569-1.337 2.496-3.567 3.873a11.1 11.1 0 0 1-3.46 1.377q-1.898.424-5.01.424H7V13h5.646q3.309 0 5.251.484 1.958.47 3.309 1.302a10.1 10.1 0 0 1 3.597 3.828q1.29 2.39 1.29 5.674m-3.142-.045q0-2.648-.925-4.464-.926-1.815-2.763-2.86a9.3 9.3 0 0 0-2.838-1.044q-1.502-.303-3.597-.303h-2.823V32.96h2.823q2.17 0 3.78-.318a8.5 8.5 0 0 0 2.974-1.18q1.685-1.075 2.52-2.83.85-1.755.85-4.388M45.062 35.53h-14.89V13h14.89v2.663H33.178v6.174h11.884V24.5H33.178v8.368h11.884zM63.362 35.53H49.065V13h3.006v19.868h11.291zM82.604 26.482q0 2.451-.546 4.283-.531 1.815-1.76 3.026a7.1 7.1 0 0 1-2.733 1.68q-1.563.53-3.642.529-2.125 0-3.704-.56-1.578-.56-2.656-1.65-1.23-1.24-1.775-2.995-.531-1.755-.531-4.313V13h3.005v13.634q0 1.83.242 2.89.258 1.059.85 1.921a4.14 4.14 0 0 0 1.806 1.483q1.154.5 2.763.5 1.623 0 2.762-.485a4.2 4.2 0 0 0 1.821-1.498 5.5 5.5 0 0 0 .835-1.967q.258-1.12.258-2.769V13h3.005zM104.821 13l-7.802 11.137 7.786 11.394h-3.475l-6.162-9.276-6.314 9.276h-3.278l7.877-11.258L85.758 13h3.46l6.087 9.155L101.527 13zM123 35.53h-14.889V13H123v2.663h-11.884v6.174H123V24.5h-11.884v8.368H123zM28 80H12v-4.005h5.054V63.87H12v-3.744q1.16 0 2.221-.123 1.063-.138 1.771-.462.837-.385 1.255-1.001.42-.617.483-1.541h5.328v18.995H28zM71.86 69.19q.752.623 1.196 1.453t.444 2.21a6.7 6.7 0 0 1-.643 2.906q-.63 1.35-1.946 2.313-1.287.934-3.033 1.439-1.73.489-4.213.489-2.834 0-4.871-.43-2.022-.43-3.294-.964v-4.85h.597q1.319.772 3.14 1.336 1.84.563 3.356.563.888 0 1.93-.133 1.041-.15 1.762-.623.567-.37.904-.89.337-.534.337-1.527 0-.964-.46-1.483-.46-.534-1.21-.757-.75-.237-1.808-.252-1.057-.03-1.96-.03H60.83v-3.944h1.302q1.196 0 2.114-.074.92-.075 1.563-.341.675-.282 1.01-.742.338-.474.338-1.379 0-.666-.353-1.067a2.44 2.44 0 0 0-.888-.653 4.7 4.7 0 0 0-1.41-.356 13 13 0 0 0-1.393-.089q-1.44 0-3.125.49a14.4 14.4 0 0 0-3.264 1.379h-.566v-4.79q1.256-.49 3.416-.934 2.16-.46 4.381-.46 2.16 0 3.784.37 1.624.357 2.68.965 1.257.726 1.87 1.764.612 1.038.613 2.432 0 1.84-1.18 3.292-1.18 1.439-3.11 1.84v.207a8 8 0 0 1 1.655.415q.873.312 1.593.905M118.937 67.46q0 2.83-.727 5.267-.726 2.437-2.21 4.102-1.605 1.8-3.981 2.71-2.376.893-5.54.893a23 23 0 0 1-2.422-.137q-1.302-.135-1.71-.242v-4.435h.605q.454.212 1.287.454.847.243 2.301.242 1.18 0 2.315-.287 1.135-.303 1.953-.939a5.5 5.5 0 0 0 1.468-1.695q.576-1.03.772-2.467-1.317.757-2.452 1.165-1.12.394-2.8.394-1.272 0-2.437-.303a7 7 0 0 1-2.104-.969q-1.257-.892-2.013-2.346-.742-1.468-.742-3.693 0-3.618 2.513-5.888Q105.541 57 109.627 57q2.104 0 3.724.56a7.4 7.4 0 0 1 2.816 1.68q1.377 1.302 2.073 3.315t.697 4.905m-5.798-.848q0-1.847-.363-3.027-.348-1.196-.969-1.847a2.55 2.55 0 0 0-1.014-.697 3.5 3.5 0 0 0-1.211-.211 3.1 3.1 0 0 0-1.135.212q-.53.196-1.03.696-.469.484-.771 1.271-.288.787-.288 1.877 0 1.06.318 1.786.318.712.878 1.136.53.408 1.241.575a7 7 0 0 0 1.574.166q.681 0 1.484-.166.801-.181 1.241-.364 0-.165.015-.469.03-.318.03-.938"/></svg>