<svg xmlns="http://www.w3.org/2000/svg" width="150" height="150" viewBox="60 2 960 960"><defs><linearGradient id="b" x1="0" x2="0" y1="962" y2="749.4" gradientUnits="userSpaceOnUse"><stop offset="0" stop-color="#594c9e"/><stop offset="1" stop-color="#47388f"/></linearGradient><clipPath id="a"><path d="M60 2h960v960H60z"/></clipPath></defs><g clip-path="url(#a)"><path d="M0 0h1080v1080H0z" style="fill:#fff"/><path fill-rule="evenodd" d="M1080 0v658.9H951.7V409.7H768.2l-231.6 249H260.5c58-75.1 326.1-35 326.1-189.6 0-92.1-86.9-137.5-223.4-137.5-132.4 0-230.5 37.2-238.7 157.8h145.1c4.2-47.1 42.4-66.7 92.8-66.7 53.1.4 78.5 18.8 78.5 44.9 0 20.3-19 35-42.7 41.4l-98.5 27.8c-76.3 21.3-139.6 53.1-170.2 122.3H0V0zM132.4 96.7c-3.4 0-5.6 2.2-5.6 5.6l.4 147c0 3 2.2 5.1 5.2 5.1h220.3c43.7 0 78.9-35.5 78.9-78.8s-35.2-78.9-78.9-78.9zm316.7 5.6.5 147c0 3.4 2.1 5.1 5.1 5.1h68.2c3.4 0 5.1-2.1 5.1-5.1v-147c0-3.4-2.1-5.6-5.1-5.6h-68.6c-3.5 0-5.2 2.2-5.2 5.6m98.6 73.3c0 43.3 35.2 78.8 78.9 78.8h222.9c3.4 0 5.1-2.1 5.1-5.1v-78c0-3.4-2.1-5.6-5.6-5.6h-68.1c-3.5 0-5.6 2.2-5.6 5.6l.4 63.4h-90.4c-22.7 0-59.1-17.5-59.1-58.7 0-41.1 33-59.6 58.7-59.6h89.4c2.1 0 3.3-.9 4-2.1l5.6-9.9c2-3.3-.5-8.1-5-7.7H626.6c-43.7 0-78.9 35.2-78.9 78.9m326.6-73.3.4 147c0 3 2.2 5.1 5.2 5.1H948c3 0 5.2-1.7 5.2-5.1v-147c0-3.4-2.2-5.6-5.6-5.6h-67.7c-3.4 0-5.6 2.2-5.6 5.6m-580.8 14.6c33.9 0 58.8 28.2 58.8 59.1 0 30-24.5 59.2-58.8 59.2h-87.8V116.9zm537.8 542.2H681.8L831.3 499z" style="fill:#352d83"/><path d="M0 749.4V1080h1080V749.4H951.5v119.1H830V749.4z" style="fill:url(#b)"/></g></svg>