<svg xmlns="http://www.w3.org/2000/svg" width="259" height="294" fill="none" viewBox="0 0 259 294"><path fill="#fff" d="M83.5 158.2c0 .6.1 1.3.3 1.6.2.2.4.7.4.9.1.3.2.5.3.5.3 0 .2-.3-.2-1.1-.2-.4-.4-1.1-.4-1.5-.1-1.3-.4-1.6-.4-.4m-2.6-38.9c-.3 0-.7.1-.7.2-.1.1.2.2.5.2s.6-.1.7-.2c0 0-.2-.1-.5-.2m.3-15.5c.5 0 .5-.5-.1-.9s-.6-.4-.7-.1c-.2.3.4 1 .8 1m2-.7c0-.1-.1-.4-.3-.8q-.3-.45-.3-.3c0 .2 0 .2-.2.1-.4-.2-.2.2.2.7q.45.45.6.3m14.5 14c.1-.3.1-.5-.1-.7-.2-.3-.2-.4-.2-.7.1-.3 0-.3-.3-.3-.6 0-1 .8-.9 1.6.1.5.2.6 1 .8.4.1.6.1.5-.1zm-12.5 36c.2-.2.3-.4.2-.5s-.2 0-.4.2-.3.4-.2.5c0 .1.2 0 .4-.2m9.7-32.1c0-.1-.1-.2-.2-.2s-.3-.2-.3-.4.1-.4.2-.3c.2.1.3 0 .4 0 .1-.1.1-.2-.2-.6-.4-.5-.5-.5-.7-.3-.2.3-.2.2-.2-.2 0-.3-.1-.5-.2-.5s-.4-.4-.8-.8c-.4-.5-.6-.8-.5-.8s.3-.1.3-.3c.1-.2.2-.3.4-.2.3.1.4-.3.3-.8-.2-.7-1-.7-1.9 0-.9.8-1.1 1.2-.6 1.9.2.3.3.6.4.7 0 .1.4.6.8 1.2.3.4.4.6.7 1-.1.3-.1.5-.1.7-.1.4-.1.9 0 1.2.3.8 2 1.6 2.6 1.1.2-.2 0-1.6-.3-1.9 0-.2-.1-.4-.1-.5m-10.9.1c-.1 0-.1.1 0 .2l.2.2s.1-.1 0-.2c0-.1-.1-.2-.2-.2m.7-15.8c0-.1-.2-.3-.3-.5-.2-.2-.3-.2-.2 0 .1.6.6 1 .5.5m5.5 3.2c.1-.2.1-.4.1-.4 0-.1-.1.1-.2.3-.1.4.1 1.3.3 1.1.1-.1 0-.2-.1-.3-.2-.4-.2-.5-.1-.7m.6 13.5s0 .2.1.4.2.4.3.4.1-.1-.1-.4c-.1-.2-.3-.4-.3-.4m1.8-16.4c.1 0 .1-.1.1-.2s-.1-.2-.1-.2-.1.1-.1.2.1.2.1.2m-3.1 15.9c-.2 0-.2.1-.1.1.1.1.3.1.3 0 .1 0-.1-.1-.2-.1m-3.4-4.9c-.4-.3-.7-.6-.8-.7 0-.1.1-.1.2 0 .2.1.4-.6.3-.8 0 0 .1-.2.3-.4l.3-.3H86c-.2 0-.5.1-.7.2s-.5.3-.9.4c-.6.3-.6.3-.3.6.2.2.5.2.7.2.2-.1.3 0 .3.2 0 .1-.2.2-.4.2s-.4.1-.6.2c-.2.2-.4.1-.7-.2-.4-.5-.4-.5-.1-.7.2-.2.1-.2-.3-.3-.3 0-.5-.1-.6-.2-.1-.7-1.1.1-1.2 1 0 .2-.1.4-.2.3-.2-.2-.7 1.9-.6 2.3.3.7 1.8.9 2.6.3.6-.4 1.2-.3 2 .2s2.6.7 3 .4c1-1.2-1.2-2.4-1.9-2.9m27-16.4s0-.1-.1-.2-.1-.2-.2-.2c0 0 0 .1.1.2zm-1.5 12.9c-.1-.1 0 0 .1.3.1.2.1.3.1.1 0-.1-.1-.3-.2-.4m-2.5.2c-.1 0-.1.1 0 .2 0 .1.2.2.2.2.1 0 .1-.1 0-.2 0-.1-.1-.2-.2-.2m26.4 43.6c-.1.1-.1.2-.1.2s.1-.1.1-.2m-.3.6c-.1 0-.1.1-.1.2 0 .2.1.2.1 0zm-.5-4.1v.2zc0-.2 0-.3 0 0m-.1.4s0-.1-.1-.1c0 0-.1 0-.1.1s0 .1.1.1zm-.5-1.8c0-.2-.1-.2-.1-.1v.6c.1-.1.2-.3.1-.5m-.2-1c-.1.2-.1.3-.1.3l.1-.1zm-.3.7c-.1.2-.2.4-.4.5l-.2.2c0 .1.1.1.1.1.1.1.1.1.2 0l.5-1c0-.3-.1-.2-.2.2m-.8 9.1c-.1-.6-.1-.6-.1.1 0 .3.1.5.1.5zm-.3-5.8c.1 0 .2.1.2.1.1 0 .1-.1 0-.4 0-.2-.1-.4-.1-.4v-.6c-.1-.4 0-.7.1-.9.1-.1.1-.2-.1-.3-.1-.1-.2-.3-.1-.4.1-.3-.1-.6-.5-1-.2-.2-.5-.4-.5-.5-.1-.1-.1-.1-.5.5-.4.7-.4.7-.4.4v-.7c0-.3.1-.5 0-.5 0-.2-.4-.1-.6.1-.1.1-.1.2-.2.3.1 0 .1.1.1.1.1.1.1.2.2.3 0 .1.1.2.2.2s.1.1-.1.1c-.2.1-.2.1-.1.2v.6s.1-.1.1-.2.2 0 .3.2.3.3.3.3c.1 0 .2.9.1 1.2 0 .1-.1.2-.1.2-.1 0-.1.2-.2.3-.1.3-.1.3.1.1.2-.1.3-.1.3.1.1.4.5.2.6-.2 0-.1.1-.4.2-.5.2-.3.4-.1.4.5.1.5.2.8.3.8m-2.4-1.2c.2-.4.3-.7.2-.6 0 0-.1.1-.1.2-.1 0-.1.2-.1.4q-.3.45 0 0m-.6 4.3s-.1.1-.1.2-.1.2 0 .2c0 0 .1-.1.1-.2zm1.6-1.2c.1-1 .1-1.1 0-.8-.1.2-.3 1.1-.7 2.3-.1.5-.4 1.2-.5 1.4-.2.5-.4.6-.4.4 0-.1-.1-.3-.2-.5-.3-.6-.4-.6-.1-1.3.1-.3.2-.6.3-.7 0-.1.1-.2.2-.4s0-.2-.2-.2c-.1 0-.3-.1-.4-.2-.2-.2-.3-.2-.2 0s-.1.5-.3.6-.4.3-.4.5c0 .1-.1.3-.2.5s-.2.4-.2.5-.1.3-.3.4c-.1.1-.2.1-.2-.1v-.4c-.1-.2-.4.1-.4.3 0 .1-.1.2-.1.2-.1 0-.5.8-.6 1 0 .1-.1.2-.2.3-.1 0-.2.1-.2.3 0 .1-.1.3-.1.3-.1 0-.1-.1-.1-.2 0-.3-.2.2-.4.6-.1.4-.5 1.1-.7 1.3-.1.1-.5.4-.9.7s-.8.7-1 .9c-.1.2-.3.4-.3.4-.1 0-.1.1-.2.2 0 .1-.1.2-.2.1s-.7 1.6-.8 2.1c0 .3 0 .4-.2.6-.1.1-.2.4-.3 1.1-.1.5-.2 1.1-.3 1.4s-.1.5-.1.6c.1.1-.4 1.3-.6 1.5-.3.2-.3.4-.1.6.2.3.3.2.9-.4.4-.4.6-.5 1-.7.4-.1.5-.2.7-.5.2-.5.7-.9 2-1.7.3-.2.5-.3.5-.2s.1.1.2.1c.2 0 .2.9 0 1.3-.1.3 0 .2.5-.6s.6-.7.1.1c-.3.6-.4.9-.1.4.2-.4.2-.2 0 .3-.1.2-.1.3 0 .2.2-.2.2.1 0 .6s-.2.7.1.7c.1 0 .2.1.2.1 0 .1.1 0 .3-.2.2-.3.3-.3.3-.1s0 .2.4-.2c.2-.3.5-.5.6-.6s.2-.2.3-.4c.2-.5 1.2-2.6 1.5-3.1.1-.2.3-.6.4-.9s.3-.8.4-1.1c.1-.4.3-.8.3-1 .1-.2.2-.6.2-.9.1-.3.2-.7.2-1.1 0-.3 0-.7.1-.8v-1c.1-.3 0-.7 0-.9-.1-.2-.1-.5 0-.8s.1-.6.1-.8.1-.5.2-.7q.15-.45 0-.6c.1.1.1-.1.2-.8m0 13.1c0-.1 0 0-.1.1s-.2.1-.1-.1c0-.2 0-.2-.1-.2 0 .1 0-.1.1-.4s.1-.6.1-.6c0-.2-.1-.1-.2.2 0 .2-.1.4-.1.4 0 .2-.2.9-.4 1.3-.1.2-.2.4-.2.5-.1 0-.2.3-.1.4 0 .1 0 .2-.1.5s-.2.4-.2.4c0 .1.6-1 .8-1.4.1-.1.1-.3.2-.3 0 .1.3-.5.4-.8m-1.6 2.5c-.1-.2-.2 0-.5.5s-.6 1-.8 1.4c-.5.7-1 1.4-1.1 1.7-.1.1 0 .2.1.2.2 0 .5-.4.9-1.1.2-.5.6-1 .6-.9l.1-.1c0-.1.2-.4.4-.7.3-.7.4-1.1.3-1m-3.5 1.8-.4.2c-.1.2-.1.4-.2.6-.2.8-.1 1 .1.5.1-.2.2-.3.2-.2 0 0 .1-.1.2-.4.5-.9.5-.9.1-.7m-.9-2.4c-.1 0-.1.1-.1.1 0 .1.1.1.1-.1q.15 0 0 0m-3.8-59.3c-.1-.1-.1-.2-.2-.2v.2c0 .1.1.2.2.2s.1-.1 0-.2m3.7-1.1c0-.1-.1-.2-.1-.2v.1c0 .1.1.2.1.2.1.1.1 0 0-.1M76.8 105c.2-.2.1-.2-.1-.2s-.3.1-.3.2c-.1.3.1.3.4 0m-2.4.9c.1 0 .2-.1.2-.2s-.1-.2-.1-.2c-.1 0-.2.1-.2.2-.1.1 0 .2.1.2m-3.7 1.6c.2.1.6-.2.6-.6 0-.2-.1-.2-.5 0-.3.2-.4.5-.1.6m-.6-.3c-.1 0-.2.1-.2.2.1.1.2.2.2.1.3-.1.3-.3 0-.3m14 17.5c.2 0 .5-.1.5-.2s-.1-.2-.4-.2c-.2 0-.5.1-.5.2s.2.2.4.2m-5.1-.5c.2.1.5.1.6 0 .2-.1 0-.1-.3-.1s-.5.1-.3.1m-7.5-1.9c.4.2.7.4.8.4.1.1.2-.2.2-.5.1-.6.1-.6-.8-.6-.5 0-.9.1-.9.2s.3.3.7.5m-2.7-3.6c.1 0 .2-.2.2-.5 0-.5-.2-.6-.4-.3-.1.2 0 .8.2.8m-.6 1.4c0 .5 0 .8.1.8.4 0 .7-.4.7-1 0-.7-.1-.9-.5-.8-.1.1-.2.4-.3 1m-3.4.4c.1.1.2.2.3.1.3-.2.2-.4-.1-.4-.2 0-.3.1-.2.3m54.3 19.6c.2.5.5 1.2.7 1.7.3.6.4 1.2.7 2.4.2.9.4 1.7.4 1.7.1 0 1 1.5 1.1 1.9.3 1.1.6 2.7 1.1 2.7.1 0 .1-.1.1-.6 0-.3 0-.8.1-1.2.1-.7-.8-1.7-1.3-1.9-.2-.1-.3-.3-.4-.6-.1-.2-.2-.7-.4-.9-.4-.5-.4-.7-.5-2.1-.1-1.1 0-1.7.2-1 0 .2.1.3.2.3s.4.3.7.8c.3.4.6.8.8.9q.15.15.3.6c.1.3.2.5.2.5.1 0 .3-.8.2-1 0-.1 0-.2.1-.2s.2-.2.3-.5c.1-.4.1-.6-.1-1.5-.3-1.1-.5-1.4-1.4-2.8-.8-1.2-1-1.7-.8-2.6.2-.8.7-1 .8-.3.1.2.2.5.3.6.1.2.1.2 0 .3-.3 0-.3.9.1 1.1.2.2.3 0 .3-.5 0-.3-.1-.5-.2-.7-.4-.5-.4-1 0-1.3.3-.2.3-.5.3-.7-.1-.2-.1-.3 0-.1.2.4.7 0 .9-.7s.2-1.3.2-1.6c0-.1-.1-.2-.1-.3v-.8c0-1.3-.1-1.9-.5-2h-.2c0-.1.1-.1.1-.2q.15-.45-.6-1.8c-.6-1-.7-1.2-.9-1.4s-.1-1.3.2-1.4q.3-.3-.3-.6c-.2-.1-.4-.1-.4.1 0 .3-.3.2-.4-.2-.1-.2-.2-.3-.3-.4-.3-.1-.5-.7-.3-.7.1 0 .2-.3.3-.7s.2-.6.3-.5c.2.1.2.2.2.5 0 .6.2.8.4.5.1-.2.2-.2.4-.1.3.2.3.2.4.7.1.6.2.7.5.8.2 0 .4.4.4.6 0 .1.3 1.2.5 1.7 0 .1.2 0 .3-.1.2-.2.2-.2 0-.9-.2-.6-.3-.9-.8-1.6-.3-.5-.6-.9-.5-1 .1-.2.2-.8.1-1.1-.1-.1-.1-.5 0-.8.1-.4.1-.4.3-.2.4.4.5-.1.4-2-.1-1.5-.1-1.8-.4-2.5-.2-.5-.3-1-.3-1.1-.1-.9-1.2-2.4-1.3-1.8 0 .3-.1.3-.2.1-.1-.4-.2-.5-.2-.3.1.2 0 .2-.1-.1-.1-.2-.2-.4-.4-.4-.1-.1-.2-.1-.3-.1.1-.1.1-.2.1-.3.1-.2.1-.5.2-.8.1-1.6-.5-1.9.4-1.5.2.1.4.1.4.1 0-.2.6.2.7.4 0 .1.1.2.3.2h.3c.1 0 .1 0-.1-.1-.1-.1-.2-.3-.2-.7 0-.5.1-.5.3-.5.2.1.3.2.4.4.2.4.3.5.4.2 0-.2.1-.2.1-.1s0 0-.1-.3c-.1-.2-.1-.4 0-.3.2.1.4.9.4 1.4 0 .2-.1.5 0 .7 0 .2 0 .3-.1.4-.1.2 0 .9.3 1.6.1.3.5 1 .7 1.6.3.5.5 1.1.6 1.2.2.3.2-.3 0-.7-.1-.1-.1-.3 0-.4 0 0 0-.2-.1-.4s-.1-.4 0-.4.1-.1-.1-.4c-.2-.4-.2-.7 0-.5.1.1.1 0 0-.1s-.1-.2-.1-.2l-.2-.4c-.1-.3-.2-.4-.2-.4-.1-.1-.2-.2-.3-.8-.1-.3-.1-.5 0-.5h.2c0-.1.1 0 .1.1.1.1.1.1.1 0 0-.2.2-.2.4.1.1.1.1.1.2.1-1.4-2.2-2.8-4.2-4.4-6.2 0 .1 0 0-.2-.2v-.1l-.2-.2s-.1 0-.1-.1c-.1 0-.2-.1-.2-.3-.1-.2-.3-.3-.4-.5-.2-.1-.4-.3-.8-.4-.8-.4-.4-.3-.7-.7s-1-.8-.9-.4c.1.2 0 .1-.1-.1s-.2-.3-.6-.5c-.2-.1-.5-.2-.6-.3-.1 0-.2-.1-.3-.1s-.1 0 .1.4.2.4 0 .2c-.1-.1-.2-.1-.2 0s0 .1-.2 0c-.1-.1-.5-.3-.8-.4-.4-.2-.5-.2-.5.1s-.2.1-.8-.5c-.3-.3-.3-.3-.2-.3.2.1-.1-.3-.3-.4s-.2-.1-.1-.2.1-.1-.2-.2c-.1-.1-.5-.3-.8-.5-.5-.2-.6-.3-.5 0 .1.2.1.3-.3.1-.3-.1-.7-.3-.8-.4-.2-.2-.7-.4-1.1-.6-.4-.1-1-.4-1.3-.5-.4-.2-.5-.2-.4-.1s0 .2-.3.2c-.4 0-.7-.2-.4-.3.1 0 .3-.1.5-.2s.4-.2.6-.2c.2-.1.2-.2 0-.6l-.2-.2c-.1 0-.3-.2-.5-.3s-.5-.3-.8-.3c-.5-.1-1.2-.4-1.2-.6-.1-.3-.8-.6-1.1-.5-.1 0-.2.2-.2.3s-.1.1-.2.1-.2 0-.1.1-.2.1-.5 0c-1.1-.3-2.9-.2-3.1.2-.1.1-.1.1-.1.2l.3.2c.2.2-.1.2-.8.1-.6 0-1.1-.1-1.1-.1-.2 0 .5.8.8 1s.4.2.2.3c-.1 0-.4-.1-.6-.2-.3-.1-.7-.4-.9-.5-.4-.2-.4-.2-.1.2.3.3.3.3-.1.2-.5-.2-.5 0 0 .3.2.2.2.2-.1.1s-.4-.2-.5-.6c-.1-.2-.2-.5-.3-.6s-.1 0 0 .2 0 .3-.1.3-.2.1-.3.1c-.1.1-.1.2.2.5.2.3.3.4.3.6 0 .5.2.8.8.9s1.1.5 1.1 1c0 .3 0 .3-.1-.1s-.6-.7-.9-.7c-.2 0-.2.1 0 .5.1.4.1.6-.1.8-.3.4-1.2.4-1.4 0-.1-.2 0-.2.3-.1.4.2.5.1.6-.4s.1-.6-.1-.9c-.2-.2-.3-.5-.5-1-.1-.4-.3-.8-.4-.9s-.2-.2-.2-.5c0-.4-.2-.7-.6-.8-.2 0-.3-.1-.2-.2s0-.2-.1-.2-.2.1-.2.2 0 .2-.1.2-.2.1-.2.4c0 .2-.1.5-.2.6s-.2.3-.1.3.2.2.2.4c.1.2 0 .3 0 .3-.1 0 .1.2.5.5.9.8.7 1-.4.3-.5-.3-1.3-.7-1.8-.8-.5-.2-1-.4-1.2-.4-.2-.1-.2-.1.1.2.6.5.7.7.5 1-.1.1-.2.1-.3-.1s-.4-.2-1.1-.1-1 .1-1.1-.1c-.1-.1-.2-.2-.3-.1s-.3.2-.5.2c-.7.1-1.4.5-1.4.7 0 .3-.6.3-.9.1s-.2-.5.1-.5.2-.3-.1-.5-1.1-.2-.9 0c.1.1.2.4.2.5 0 .2.1.4.2.5.3.3.1.7-.4.5-.2-.1-.5-.1-.8.1-.5.3-.6.4-.3.8.2.3.2.4-.4.2-.3-.1-.7-.2-.9-.3s-.3-.1-.3.1c0 .1.2.3.3.4.3.1.4.5.2.5-.3 0-1.1-.5-1.3-.9-.1-.2-.2-.5-.2-.6 0-.2-.1-.4-.3-.5-.7-.3-.2-.3 1 0 1.1.3 1.3.3 1.7 0q.45-.3.3-.6c-.1-.2-.7-.6-1.4-1-1.2-.6-1.5-.7-3.3-1.1-.6-.2-.7-.2-.5-.4.3-.2.3-.2-.2-.4-.2-.1-.5-.2-.6-.1-.1 0-.2 0-.2-.1 0-.2-.1-.2-.2-.1s-.3.2-.5.2-.3.2-.4.3c-.1.2-.2.2-.2.1s.1-.3.2-.4c.2-.2.1-.3-.3-.1-.3.1-.5.3-.6.4s-.3.1-.4.1c-.2-.1-.4 0-.6.2s-.4.2-.6.1c-.4-.2-.5-.2-.4 0 0 .1 0 .2-.1.2h-.5c-.3 0-.3.1-.1.2.3.3-.2.5-.5.2-.2-.2-.3-.2-.2 0s0 .2-.2.1-.3-.1-.1.1c.1.1.3.2.4.1.5-.3.2.3-.6.8-.5.4-.9.9-1 1.3s-.4.6-.5.6-.2.1-.2.2-.1.2-.1.1c-.1-.1-.3.1-.5.3-.2.3-.5.4-.6.3s-.2 0-.2.2q0 .3-.3.3c-.1 0-.5.2-.9.4-.7.4-.9 1.1-.5 1.7.1.2.1.3-.1.6-.2.2-.2.3.1.2s.4-.1.1.2c-.3.4-.3.5.4.7.4.1.7 0 1.2-.3.3-.3.6-.6.6-.7 0-.2.1-.2.2 0s.2.4.2.6.1.3.1.3.1.1.1.3.1.5.3.7.3.5.2.5c0 .1 0 .3.1.5.1.4.8.4.8 0 0-.1.2-.2.4-.2.6 0 1-.4.9-1.2-.1-.5 0-.7.4-.9.2-.2.5-.4.6-.6.2-.3.2-.3-.1-.6-.1-.2-.4-.3-.5-.3s-.2-.2-.2-.4c0-.7.4-1.3 1.1-1.7.8-.4 1-.7.9-1-.2-.4.6-.9 1.2-.8.7.1.9.4.5.8-1.5 1.3-1.7 1.4-1.6 1.8.1.2.1.6.1.8 0 .7.7 1.1 1.8.9.5-.1 1.1-.2 1.3-.2.4-.1.9.3.8.5-.1.1-.5.2-1.1.2-1.3.1-1.7.2-1.7.5 0 .1.1.3.3.4s.3.3.2.5q-.15.9-.6.3c-.6-.6-1-.1-1 1.1 0 .6 0 .8-.3.8-.2 0-.3.1-.3.2 0 .3-.7.3-.9 0-.1-.1-.5-.1-1.2.2-.6.2-1.2.4-1.3.3s-.6-.2-1-.2c-.9 0-1.4-.4-1.2-.9 0-.2.2-.4.4-.5s.3-.2.2-.5c-.1-.2-.1-.4-.1-.6.2-.4-.3-.3-.6.1-.1.2-.3.3-.4.2s-.2.1-.1.7c.1 1.7.1 1.8-.3 1.8-1.1.1-1.3.1-1.4.6-.1.3-.2.4-.2.2-.1-.2-.2-.1-.5.4-.3.4-.7.8-1 .9s-.5.3-.6.5-.4.5-.7.7c-.4.3-.6.3-.8.1s-.3-.2-.4.2-.2.5-.5.5c-.8-.1-1.1 0-1.2.4 0 .2.1.4.3.4.7 0 1.4 1.1 1.3 1.9 0 .3-.2.9-.3 1.2-.2.5-.3.6-1.7.5-.8 0-1.5-.1-1.6-.2s-.4 0-.6.2c-.4.2-.4.4-.5 1.3-.1.6-.2 1.4-.4 1.8-.2.6-.3.8-.2 1 .1.1.1.5 0 .8-.1.5 0 .6.5.4.4-.1.6 0 .8.3.2.4.4.4.8.2.3-.1.8-.3 1.1-.3.4 0 .7-.1.8-.4.1-.2.2-.4.4-.4.3 0 .8-1 .8-1.5s.8-1.5 1.6-1.8c.4-.2.6-.4.7-.9.1-.8.8-1.1 1.3-.7.3.2.6.1 1.2-.3.5-.3 1-.6 1.1-.6s.5.4.9 1 1.3 1.4 1.9 1.8c1.2.7 1.5 1.2 1.3 2.2-.1.5-.1.5.4-.1.4-.6.5-.7.3-.9s-.2-.3 0-.5.3-.2.6 0c.2.2.4.3.5.2s-1.1-1.1-1.4-1.1c-.1 0-.2-.1-.2-.2s-.1-.2-.3-.2c-.1 0-.6-.4-1-.9s-.7-1-.8-1-.2-.3-.2-.6c0-.7.7-1 .8-.5.1.2.2.3.4.2s.4.1.5.6c.2.4.5.7.8.8.2.1.8.4 1.2.8.5.4.7.8.7 1.2s.3.9.7 1.6c.4.5.7 1 .6 1-.2.1.6 1.2.9 1.2.2 0 .2-.1.1-.4q-.15-.3.3-.6c.7-.4.4-.9-.4-.8-.1 0-.1-.1-.1-.3.1-.2 0-.4-.1-.5-.3-.3-.2-.7.1-.5.2.1.4 0 .5-.2.4-.7 1.7-.2 1.5.5 0 .2 0 .3.1.3s.2.2.2.6c0 .3 0 .6.1.6s.2.2.2.4.2.5.5.6c.3.2.7.4.9.5.3.2.5.2.7-.1.2-.4.3-.4.8 0 .6.4 1.3.5 1.4.2 0-.1.3-.3.6-.3.2 0 .3-.1.6-.1v1c0 .5-.1 1.6-.3 2.3-.4 1.5-.9 2-1.7 1.4-.4-.3-.6-.3-1.1 0-.6.4-1.1.4-2 0-.4-.1-1.2-.4-1.8-.6s-1.1-.4-1.1-.5-.2-.2-.5-.3c-.7-.2-1.5.3-1.5 1 0 .3-.1.7-.2.9-.2.3-.3.3-1.1-.1-.5-.2-1.1-.4-1.3-.4s-.5-.2-.6-.4c-.2-.4-1.5-1.1-1.8-.9-.2.1-1.9-.8-1.9-1 0-.1.2-.3.4-.6.4-.4.4-.5.2-.8s-.2-.5 0-.8c.2-.4.2-.4 0-.2-.2.1-.3.1-.3-.1s-.2-.2-.7-.1c-.4.1-1.6.2-2.6.3-1.4.1-3.2.4-4.2 1.4-.2.2-2 .1-2.2-.2-.2-.4-.3-.3-.7.5-.2.4-.6.9-1 1.2-.8.5-1.7 1.9-1.7 2.6 0 .6-.6 1.4-1.6 2-.7.4-2 2.1-2.1 2.6 0 .1-.2.5-.4.8s-.7 1-1 1.5c-.5 1-.6 1.1-.4 1.5s.2.9 0 2.3c-.1.8-.8 2.5-1 2.6-.1.1-.2.3-.1.6s.1.8 0 1.2c-.1.5-.1.7.2.8.2.1.4.2.4.4 0 .1.2.6.6 1.2.3.5.5 1.3.5 1.5.1 1 1.6 2.2 2.5 3.1.5.4.6.5 2.4 0 .6-.1 1.3-.1 1.7 0 .6.2 1 .1 2.1-.4 1-.5 2.6-1.2 3.8-.5.3.2.5.5.5.7 0 .6.4.8 1.4.7.9-.1 1-.1 1.6.5.4.4.6.7.5 1-.1.2-.2.9-.2 1.5s-.1 1.3-.2 1.4c-.3.4.2 1.1 1.4 2.4 1.1 1.2 2 2.8 2.3 4.4.1.4.2 1.1.3 1.6.1.7.1.9-.3 1.3-.5.5-1 2.3-.9 3.1.2 1.1 1.1 2.4 1.8 3.4.2.3.5 1.1.6 1.8.2 1.4.6 2.3 1.1 2.6s1.6 2.5 1.5 2.8c-.2.3.3 1.1.8 1.3.3.1.5.1.8 0 .2-.1.9-.3 1.5-.3 1.7-.1 3.4-.8 4.5-2.3.3-.4.8-1 1.1-1.3.4-.4.6-.8.7-1.5.1-.9.2-.9 1-1.3s.8-.5.9-1.2c.1-.4 0-1.1 0-1.5-.1-.7-.1-.8.3-1.1.3-.2.7-.6 1-.9s.8-.7 1.1-.9c.3-.1.8-.5 1.1-.8.5-.5.5-.7.7-2.4.1-1.4.1-1.9-.1-2.1-.1-.1-.2-.7-.2-1.3s0-1.3-.1-1.5c-.1-.4 0-.7.5-1.6.4-.7.9-1.5 1.2-1.8.3-.4 1-1.2 1.6-1.9s1.3-1.4 1.6-1.6c1.3-1.1 2-2.4 2.4-4.1.2-.8.4-1.6.4-1.7.1-.1.1-.8.1-1.4-.1-1.1-.1-1.1-.4-.9-.2.1-1 .4-2 .7-.7.2-1 .3-1.8.5-.2-.2-.3-.4-.5-.6-.3-.4-.5-.7-.3-.7.3-.1-1.1-1.7-2.1-2.5-.5-.4-.8-.8-1.1-1.5-.2-.5-.5-1.2-.8-1.4-.4-.3-.6-.8-.8-1.7-.2-.8-.4-1.4-.8-1.8-.3-.3-.6-.8-.6-1s-.3-.8-.6-1.3-.7-1.3-.9-1.7-.6-1.1-.8-1.6c-.2-.4-.4-.8-.3-.8s.3.4.6.8c.5 1 .9 1.2.9.4 0-.4 0-.4.1-.2s.5.9 1 1.6.8 1.4.9 1.5c0 .1.2.4.5.7.6.4 1 1.3 1.1 2.2 0 .4.3.8.8 1.2.4.3.7.8.8.9 0 .2.3.7.7 1.3.4.5.7 1.2.7 1.5.1.9.8 2.7 1 2.8.1.1.4-.1.7-.2.2-.2.5-.3.7-.3.1 0 .4-.1.6-.2s.4-.2.5-.2.3-.2.5-.4.7-.5 1-.7.7-.5.9-.9c.1-.3.5-.6.9-.7s.6-.3.6-.5q0-.3.3-.3c.2 0 .3-.1.3-.2s.1-.4.3-.5.3-.3.2-.4c-.2-.3-.1-.9.1-.9.1 0 .2-.4.4-.8.1-.3.1-.5.2-.8-.2-.2-.2-.3-.4-.5-.2-.3-.6-.6-.9-.7-.6-.2-.8-.5-1.1-1.4-.1-.3-.1-.4-.2-.7-.2.3-.2.5-.4.8-.7 1.3-2.1 1.3-2.1-.1 0-.7-.4-.9-.4-.3 0 .5-.1.5-.4-.4-.2-.5-.5-1-.6-1-.1-.1-.5-.6-.7-1.1-.5-.9-.5-.9-.2-1.2.5-.4.9-.3 1.4.7.5.9 1.7 2.3 2.8 2 .1-.1.3-.2.4-.1s.1 0 .1-.1c-.1-.5.2-.3.5.3.1.3.3.6.4.7 1.2.5 3.1.7 4.3.3.1-.1.4.2.7.7.8 1 1.5 1.7 1.7 1.5.1-.1.1 0 .2.1 0 .1-.1.3-.2.3-.3 0-.3 0 .3.7.7.8 1.1.8 1.1-.1 0-.5 0-.5.3.1.2.4.3.8.3.9.3 1.5.9 3 1.6 4.3.3.6.6 1.1.6 1.3s.3.7.6 1.2.7 1.3.9 1.8c.5 1.2.7 1.2 1.1.1.4-1.3.1-2.7-.2-3.9-.2-.9-.2-1.1-.1-1.2s.2-.2.2-.3 0-.2.1-.2.5-.8.8-2c.1-.4.3-.7.4-.7.2 0 .3-.5.2-.9-.1-.2 0-.4 0-.4.1 0 .3-.1.5-.1.2-.1.4-.1.5-.1s.1-.2.1-.4c-.1-.6.3-.2.7.7.2.5.5.9.7 1.1.2.1.3.4.4.6 0 .2.1.3.1.3.2 0 .6 1.1.7 1.6 0 .4.1.5.2.6.3.2.5.1.6-.4.1-.2.1-.3.1-.5q.15-.3.3.3m-5.1 6.1c-.5-.9-.6-1-.6-.5s.3 1.9.5 2.2.2.3.4 0c.4-.3.3-.7-.3-1.7m-8.6 50s.1 0 .2-.1 0-.1-.1-.1c-.1.1-.1.1-.1.2m-6.1-52.7c.1.1.2.2.3.1.2-.2.1-.4-.2-.4-.1.1-.2.2-.1.3m-.8 25.8c.1 0 .1-.1.1-.2s-.1-.2-.1-.2-.1.1-.1.2 0 .2.1.2m-.5 21.1c-.1.3.2.3.5 0 .1-.1.1-.2-.1-.2s-.3.1-.4.2m-5.9-20.9c-.4.5-.5.8-.5 1.5-.1 1.2.3 1.7 1.1 1.4.4-.1.7-.3.7-.3.9-1.3 1.6-3.4 2.2-5.1l.3-.6c.1-.2.2-.4.1-.7 0-.3 0-.4.2-.3s.2 0 .3-.7c0-.7-.2-1.9-.3-1.9l-.2.2c-.1.1-.2.3-.2.5s-.2.5-.4.7-.5.6-.7.8c-.2.3-.6.6-1 .8-1 .4-1.4 1.1-1.3 2.2.1.8.1 1-.3 1.5m-25 38.8c.1 0 .1-.1.1-.2s-.1-.2-.1-.2-.1.1-.1.2 0 .2.1.2m-6.1 1.2c0 .1.1.2.1.2.1 0 .1-.1 0-.2s-.1-.2-.1-.2zm48.6-9c-.4.2-.5.2-.6.1-.1 0-.2 0-.4.1s-.3.1-.2 0 0-.1-.1 0c0 .1-.2.1-.3.2s-.2.1-.2 0 0-.1-.1 0c-.4.1-.6 0-.5-.1s0-.1 0-.1c-.1.1-.4.1-1 .3-.3.1-.5.1-.7.2-.1 0-.1 0 .1-.2.1-.2.2-.3.1-.2q-.15 0-.3.3c-.2.2-.2.3-.6.4-.3.1-.5.2-.7.4-.3.3-.6.4-.6.2 0-.1-.1-.1-.2 0s-1.2.6-1.9.8c-.4.1-.8.1-.9-.1-.1-.1-.7.1-1 .4-.2.2-.3.2-1.1.3-.7 0-.9 0-1.3.3-.2.1-.2.1-.2.2-.1.2-.4.3-.5.3-.8.2-1.3.4-1.6.5-.1.1-.4.2-.5.2s-.4.2-.8.5c-.3.2-.9.5-1.2.7-.4.1-.8.4-.9.5s-.2.2-.2.1c0 0-.2.1-.3.3-.4.4-1 .8-1.2.8-.2-.1.1-.5.3-.5.1 0 .2-.1.4-.3l.1-.1c-.2.1-.4.1-.2-.1.1-.1.2-.1.2-.2.2 0 .8-.6.8-.8 0-.1-.3-.1-.8-.1-1.4.1-2.7 0-2.6-.1 0-.1-.1-.2-.2-.3-.3-.3-1.9.1-2 .5 0 .1-.1.2-.4.2-.2 0-.3 0-.3.1s-.1.2-.4.1c-.2 0-.5 0-.7.1s-.5.2-.7.3c-.8.2-1.4.5-1.5.7-.2.3-.7.4-.7.2 0-.1-.1-.1-.2 0s-.3 0-.5-.2c-.2-.3-.3-.3-.5-.1-.5.4-.8.5-2.1.8-.9.2-1.6.2-2.2.1-1-.1-2-.2-3 0-.1.1-.3.1-.4 0-.4-.2-2.5-.2-2.9 0-.6.2-1.1.3-2 .2-.6-.1-1-.2-1-.3.1-.3-.3-.2-.6.1-.2.3-.3.3-.5 0-.2-.2-.3-.3-.5-.1-.2.1-.4.1-.5 0-.2-.1-.2-.1 0 .2.2.2.2.3-.1.4-.1.1-.3.1-.4.1s-.2 0-.2.1c-.1.1-.2.1-.4.2-.2 0-.3.1-.4.2 0 .1.1.2.4.2.4-.1.3 0-.2.2-.4.2-.6.4-.7.4 0 .1-.3.1-.6.1-1.2-.2-5-.1-5.2.6 0 .1 1.2.7 1.4.7h.7c.6 0 .6 0 .4.2l-.2.2c.1 0 .2 0 .3.1.2 0 .3.2.3.2 0 .1-.1.1-.3.1 3.8.7 7.7 1.1 11.7 1.1 14.5-.1 28.1-4.9 39-12.9m-55.1-6.6c-.1-.1-.3-.2-.5-.3-.4-.1-.4-.1 0 .1.4.4.7.5.5.2m-.8 16.7c-.1-.2-.2-.4-.3-.4-.1-.3-1.1-.7-1.7-.6-.2 0-.4.2-.4.4q0 .3-.6.3h-.3c.9.3 1.8.5 2.7.8h.6c.2-.2.2-.2 0-.5M50.2 103c.2-.1.3 0 .3.1s0 .2.1.2.2.1.1.2c0 .1.1.2.3.2.3 0 .5-.2.8-.8.3-.4.5-.9.5-1s.2-.4.6-.6c.6-.4.8-.7.6-.8-.1-.1 0-.1.1-.1.2 0 .2-.1.2-.3 0-.3.1-.3.5-.5.3-.1.7-.3.9-.5.3-.3.3-.3.1 0s-.2.4.1.2c.2-.1.5-.3.8-.4s.8-.4 1.1-.7-1.9-.5-1.8-.5 2.6-.2 2.6-.4c0-.3.1-.3.2-.1.2.3 1.8-.1 3.2-.7.8-.4.9-.5.7-.6s-.5-.2-.8-.2c-.3-.1-.4-.1-.2-.2s.3-.2.3-.4c0-.3.1-.3.3-.2.1.1.3.3.3.4 0 .3 1 .4 1.1.1.1-.4-.3-1-.7-1.1-.4-.2-.7-.8-.3-.8.1 0 .2.1.1.2 0 .2.6.7.8.5s.2-.5-.3-.7c-.2-.2-.4-.3-.4-.4.1-.1.2 0 .4.1.4.2 1.2.1 1.2-.3 0-.1.2-.3.4-.3.2-.1.2-.1.4-.1h-.4c-.4 0-.4-.5 0-.5.2 0 .3-.1.3-.1.1-.3-.2-.7-.5-.7-.6 0-.5-.3.1-.4 0 .1 0 .1.1.1s.1-.1.2-.1c.3 0 .5.1.5.2 0 .2 0 .1.2 0 .3-.4.2-.5-.2-.5-.2 0-.4-.1-.4-.3 0-.1-.1-.2-.3-.1-.1.1-.2.1-.3.1.1-.2.2-.3.3-.4.2-.2.4-.4.5-.4q.15 0 .3-.3c.1-.2.2-.3.4-.3.1 0 .4-.1.5-.2.6-.4.9-.7 1.5-.9.3-.1.4-.2.7-.2-.3-.1-.4-.1-.7-.2-.4-.1-.9-.1-1.2.1-.3.1-.7.2-.9.1s-.6 0-.9.2l-.6.2c0-.1 0-.1.1-.1s.2-.2.4-.3c.3-.3.2-.3-.4-.2-.4.1-.7.1-.6-.1.1-.1.3-.2.6-.2s.6-.1.6-.2c.1-.1-.1-.2-.4-.2s-.7-.1-.8-.2c-1.3-.3-2.7-.2-4-.1-.4.1-.7.2-.8.3 0 .1-.7.2-1.4.2-.8 0-1.2.1-1 .2.3.1.5.4.2.4-.1 0-.1.1-.1.2 0 .2-.1.2-.9 0-1-.3-1.1-.3-1.1.1 0 .3-.1.4-.5.2-.2-.1-.3-.1-.4.1s-.2.2-.2 0c-.1-.3-2.6.4-2.7.7-.1.2-.2.3-.6.3-.5.1-1.6.6-1.9.9-.1.1 0 .1.2.1s.4 0 .3.1c-.1.2-.4.4-1.2.6-1.5.5-1.9.6-1.9.8-.1.2.9.4 1.1.3.1-.1.1 0 .1.1-.1.1-.3.3-.6.3-.4.1-.5.1-.3.2.1.1.3.2.3.3.1.1.5.1 1.3-.1 1.3-.3 2.2-.1 2.2.4 0 .1.1.2.2.2s.2.3.2.7c.1.7.1.8-.2 1-.5.5-.5.7.1.5.3-.1.6-.1.8.1.2.3.3.8 0 .6-.1-.1-.3-.1-.5-.1s-.3-.1-.2-.2.1-.1-.1-.1c-.1.1-.2.2-.2.3s-.1.2-.1.2c-.1 0-.2.1-.2.3-.1.4.2.5.6.3.1-.1.2-.1.3-.1-.1-.1-.1-.2-.2-.3-.1-.3-.1-.3.2-.2q.3.15.3.3c0 .1.1.1.2-.1.2-.2.2-.2-.1.3-.2.3-.4.6-.6.6-.1 0-.5.2-.7.5-.4.4-.5.5-.4.7s.1.3-.1.4q-.15.15 0 .6c.1.3.1.6 0 .8-.1.4-.1.4.4 0 .4-.2.4-.2 0 .2-.4.5-.4.5-.2 1.4.3 1 .6 1.2 1.1 1.1m-2.1 106.4c0-.1 0-.1-.1-.2-.2-.2-.4-.2-.4-.1h-.1c.2.2.4.2.6.3m-2.2-8.1c-.1 0-.1 0-.1.1s.1.2.2.2.1 0 .1-.1c0-.2-.1-.2-.2-.2m1 4.6c-.1-.1-.2-.2-.4-.3s-.3-.3-.3-.4 0-.1-.1-.1-.1-.2-.2-.4-.1-.4-.3-.5c-.1-.1-.2-.2-.2-.3 0-.2-.9-1-1.1-1-.1 0-.3-.1-.4-.3l-.2-.4c.3-.4.5-.5.6-.4s.2 0 .2-.1c0-.3.5-.6.8-.5.1 0 .2 0 .2-.1s.1-.2.3-.2c.1 0 .2 0 .3-.1-.1 0-.2-.1-.3-.1-.2-.1-.3-.1-.4 0 0 0-.2.1-.4.1-.5.1-1.2.3-1.3.4s-.3.2-.5.4c-.2.1-.4.3-.3.4 0 .1.1.2.2.1.1 0 .1.1.2.4.1.4.1.4-.2.3s-.4-.2.5 1c.2.3.4.5.4.6.1.2-.3.3-1.2.1-.9-.1-1-.2-1.2-.5-.2-.2-.3-.3-.4-.2s-.1.1 0 .1.2.1.2.2-.1.1-.3-.1c-.2-.1-.5-.3-.7-.3-.1-.1-.4-.2-.5-.3-.2-.1-.3-.1-.4 0 0 .2-.2.1-.8-.1-.4-.2-.7-.4-.8-.4-.1-.1-.3-.2-.5-.2-.2-.1-.5-.2-.5-.3-.1-.1-.2-.1-.4-.1-1.4-.3-2.8-.9-4-1.6-.2-.1-.3-.1-.2-.1.1.1.3.2.6.4.3.1.5.3.6.3 0 .1-.2 0-.4-.1-.3-.1-.4-.2-.3-.1s.3.2.4.3.2.2.3.2l.2.2c2.6 1.7 5.2 3.3 8 4.6h.2c-.1-.1-.4-.3-.7-.4-.2-.1-.5-.2-.6-.3s0-.1.3.1c1 .5 2.2.9 2.2.8.1-.1-.1-.2-.5-.3-.7-.3-1.6-1-1.4-1.1.1 0 .4.1.8.3.8.5 1.7.8 2.2.8.2 0 .7 0 1.1.1.5 0 .7 0 .8-.1 0-.1.1-.1.2-.1.1.1.2 0 .3-.2s.1-.3 0-.4c-.1 0-.2-.1-.2-.2q0-.15.3 0c0 .5.1.5.2.5m-2.4 1.8c-.2 0-.4 0-.4.1.2.1.3.1.5.2.1 0 .3 0 .4-.1.3 0 .1-.2-.5-.2M33.3 201c-.5-.2-.7-.3-.5-.2s.3.2.3.2c0 .1.1.1.2.2.1 0 .4.1.7.2.8.3.2-.1-.7-.4m.1-15.9c-.1 0-.1.1-.1.2s.1.2.2.2.1-.1.1-.2-.1-.2-.2-.2m2.7 17.2c0-.1-.1-.1-.2-.2 0 0-.1 0 0 .1 0 .1.1.2.2.2zm.9-11.1c-.1 0-.2.1-.2.2 0 .2.1.2.2.1q.45-.15 0-.3m.8.2c-.2 0-.3.1-.4.2-.1.2-.1.3.2.2.5-.1.6-.4.2-.4m2.4 12.2c-.2-.1-.3 0-.2.1s.2.2.3.2.2 0 .2-.1-.1-.2-.3-.2m2.5-1.4c.1-.1.1-.2.1-.2-.1-.2-.2-.2-.3-.1-.1.2 0 .4.2.3m-1.9.5c.1.1.2.1.2 0zq-.15-.15 0 0m-.2.4c0 .1.2.1.4.2.5.1.5 0 0-.2-.2-.1-.4-.1-.4 0m1.8 1.1c-.4.1-.3.1.3.2 1.1.3 1.1-.1.1-1.2-.6-.7-.7-.8-1-.7q-.15 0 0 .3c.1.2.1.3.1.4-.1.1 0 .1.2.2.4.1.3.2-.1.2-.2 0-.4 0-.5-.1h-.3c-.1 0-.1 0 0 .2s.3.2.5.2.4 0 .6.1.2.2.1.2m1.3-3.2c-.1.1-.1.1.1.2.1 0 .2 0 .1-.1 0-.2 0-.2-.2-.1m-18.3-62.8c-.1.2 1.2.5 1.4.4.1-.1.4-.1.7-.1s.6-.1.6-.1-.1-.3-.3-.6c-.4-.6-1.6-.8-1.5-.4.1.5-.2.9-.5.8-.1-.1-.3-.1-.4 0m.2-4.9c.1 0 .2-.1.2-.2.1-.1 0-.2 0-.2-.1 0-.2.1-.2.2-.1 0-.1.1 0 .2m-1.2 5c-.1-.3-.7-.4-.7-.1 0 .1.2.2.4.3.3 0 .3 0 .3-.2m.3-1.7c-.1.3-.1.4.4.4.6.1 1.1-.3.8-.6-.1-.1-.4-.4-.6-.7-1.2-1.5-1.5-1.8-2.2-1.5-.2.1-.6.3-.7.5-.3.3-.3.3 0 .2.2-.1.4-.2.5-.3.2-.3.6-.2.5.1 0 .1 0 .2.2.2s.3.1.3.2q0 .15.3.3c.1 0 .2.2.2.4s.1.4.2.4c.2 0 .2.2.1.4m4.4 1.9c-.2 0-.4.1-.4.2q0 .15.3.3c.2 0 .4-.1.4-.2q0-.3-.3-.3m.6 6.5c-.1 0-.2.1-.2.2s0 .2.1.2.2-.1.2-.2c.1-.1 0-.2-.1-.2m9.6-29.2c-.1-.1-.3-.3-.4-.3-.1-.1-.1 0 0 .2s.2.4.4.3.2-.1 0-.2m1.4-2.4c-.1-.4-.6-.5-.6-.1 0 .1.2.2.3.3.3.1.4.1.3-.2m3.5-.1c-.3.1-.5 0-.5-.2s-.1-.3-.3-.2c-.2.2.1-.3.6-.9.6-.7 0-.5-.6.2-.3.3-.7.8-.8 1-.2.2-.3.4-.4.4s-.2.2-.2.3q-.15.3-.3.3c-.1 0-.2.1-.2.2-.1.1.3.2.9.2.8 0 1 0 .7.2-.5.5 0 .3.7-.4l.5-.5c-.2.1-.2 0 .1-.4.2-.3.2-.3-.2-.2m.1 1.3c.2-.4.1-.2-.4.2-.4.4-.4.4-.2.6.1.1.3 0 .4-.1.1-.2.2-.4.1-.4 0 0 0-.2.1-.3m-10-4.1c-.1 0-.2.1-.2.1s0 .1.1.2.1 0 .2-.1c0-.1 0-.2-.1-.2m1.9-2.4c-.1 0-.2.1-.3.2s0 .1.1.1c.1-.1.2-.2.3-.2s0-.1-.1-.1m1.3-4.7c-.1 0-.3.1-.4.2s-.1.2.1.2c.1 0 .3-.1.4-.2s.1-.2-.1-.2m.9.3c-.1 0-.2.1-.3.2s-.1.2 0 .2.2-.1.3-.2.1-.2 0-.2m.2-1c.1-.1 0-.2-.1-.2s-.2-.1-.1-.2c.1-.2-.2-.5-.6-.6q-.15 0 0-.3c.1-.1.1-.2.1-.2s-.1.1-.3.1l-.6.6c-.2.3-.5.7-.7.8-.3.3-.3.3 0 .2.2-.1.3-.1.3.1s.1.2.5-.2c.5-.3.6-.4.7-.2.5.4.6.4.8.1m.8.1c-.1 0-.2.1-.1.1.1.1.2.1.1-.1.2.1.2 0 0 0m2-4.1-.3.3c.1 0 .2-.2.4-.3.4-.5.4-.5-.1 0m1 .8h.3c.1-.1.1-.1-.1-.1s-.2.1-.2.1m0-.5s-.2.1-.5.2c-.5.2-1 .9-.6.8.3 0 .6-.2.9-.7.2-.1.3-.3.2-.3m-24.2 13.8s.2-.2.3-.5c.2-.4.2-.5.1-.4-.1 0-.2.1-.3.2 0 .1-.1.7-.1.7m-1.3-2.6c.2-.2.2-.2.1-.2s-.2.1-.2.2c-.1.1-.2.2-.4.3-.3.2-.5.5-.2.3.2-.1.6-.5.5-.5 0 .1.1 0 .2-.1m15.3 81.2c0-.3.1-.5.2-.4.2 0 .2.1.1.3s0 .2.1.3c.2.1.2.1.1.3s-.2.3-.2.2c-.1 0-.1 0-.1.1s.1.1.4.2c.2.1.4.1.4.2s.1.2.3.2c.2.1.3 0 .2-.2s-.1-.2.1 0c.2.1.5.3.8.3.6 0 .8-.2.3-.3-.4-.1-1.4-.9-1.5-1.1 0-.1-.2-.3-.4-.4-.3-.2-.3-.2-.1-.2s.2 0-.1-.5-.3-.8-.1-.7c.1 0 .2-.1.2-.4 0-.2.1-.5.3-.6.4-.2.3-.7-.1-.8-.7-.1-1-1.2-.4-1.3q.3 0 .3-.3v-1.1c0-.1 0-.1.1-.1s.1 0 0-.1-.3-.3-.4-.6c-.2-.4-.2-.4.4-.2s.7.2.7-.2c0-.2 0-.6-.1-.7-.1-.2 0-.2.4-.2 1 .1 1.5 0 1.7-.5s.2-.9 0-1c-.1 0-.2-.2-.2-.4-.1-.2-.2-.5-.4-.6s-.4-.4-.4-.5 0-.1.2.1.6.4 1.1.5c.7.2.9.2 1.2-.2.2-.3.4-.8.4-1.1.1-.8.4-1.4.5-1.2.1.1.1.2.1.4-.1.1 0 .1.1-.1s.3-.6.5-.9c.2-.4.3-.9.2-1.5-.1-.5-.1-1.1.1-1.3.3-.5 1.9-1.3 2.5-1.3.5 0 1.1-.4 1.1-.7 0-.1.1-.5.3-.9s.3-.8.2-.9v-.9c.1-.5 0-1.4 0-2.1-.1-1-.1-1.4.1-1.7.7-1 1.5-2.2 1.8-3.4 0-.3-.1-1-.2-1.6-.2-.8-.4-1-.7-1-.2 0-.9-.5-1.5-1.1-.9-.9-1.2-1.1-1.9-1.2-.4-.1-.9-.2-1.1-.4s-.5-.2-.8-.1c-.3.2-.4.1-.4-.3s-.3-.6-1.1-1.1c-.4-.2-.6-.4-1-.6-.1.3-.2.4-.3.7-.2.4-.4.6-.5.5s0-.4.2-.6c.4-.5.2-.9-.4-1.1-.3-.1-.5 0-.7.4-.2.5-.2.6-.3.1 0-.3.1-.8.3-1.2.3-.6.4-.7.1-1-.2-.2-.4-.7-.5-1.1s-.5-1.2-.7-1.7c-.4-.7-.6-.9-1.5-1.1-1-.2-1.1-.3-1.5-1.3-.3-.7-.5-1.1-.8-1.1s-.3-.1-.2-.5c.2-.3.1-.5-.1-.6s-.3-.4-.3-.6c0-.3-.1-.4-.7-.1-.5.2-.7.2-.8 0-.1-.1-.4-.2-.6-.2-.3 0-.5-.1-.5-.4-.1-.3-.2-.5-.3-.5s-.2-.1-.2-.2 0 0-.1.1c0 .2-.2.3-.3.3s-.3.1-.5.2c-.4.4-.4 0 0-.5.5-.7.3-.8-.3-.3-.3.2-.6.4-.7.4s-.3 0-.3.1c-.1.1-.2.2-.3.2h-.3c-.1 0-.2.1-.2.3-.1.2-.4.6-.6 1-.6.7-.5.6-.7.2-.2-.7-.5-.8-1.1-.5-.5.3-.5.3-.7 0-.1-.2-.2-.6-.2-1 0-.6 0-.8.6-2.1s.6-1.5.5-1.9c-.1-.3-.3-.4-.9-.5-1.1-.1-1.1-.1-.8-.4.1-.1.4-.7.5-1.1.2-.4.3-.7.4-.7 0 .1.2-.2.3-.5.2-.3.4-.8.5-1 .5-.8.5-.9-.2-.8s-1 .4-1.3 1.1c-.2.5-.8 1.3-.9 1.1 0-.1-.2 0-.5.1-.7.3-.9-.2-.8-1.5.1-1 .2-1.3.6-2.5.3-.7.6-1.4.7-1.5s.2-.4.4-.8c.3-.8.9-1.7 1.2-1.7.1 0 .3-.2.5-.4.4-.4 1.1-.4 1.8-.1.3.2.4.2.5-.3.2-.5.2-.5.8-.5.4 0 .7.2.7.3.1.2.2.2.4.1.4-.3.6.6.2 1.3-.1.2-.2.7-.2 1s0 .6-.1.7c-.1.2 0 .8.2.8.1 0 .2-.2.4-.5.3-.5.4-1.2.7-2.8.1-.4.2-.8.2-1 .2-.4.8-1.4 1-1.4.1 0 .4-.2.7-.6.3-.3.6-.6.7-.6s.3-.2.4-.3c.2-.2.4-.3.5-.3.2 0 .2-.1.3-.4.1-.2.1-.3.1-.2.1.1.1.1.2-.1.1-.1.1-.2 0-.2s-.1-.1.1-.3.3-.4.2-.5c0-.3.3-1.3.6-1.6.2-.2.1-.1 0 .5-.2.7-.2.7.1.3.2-.2.3-.6.4-.8q.15-.3.3-.3.3 0 .6-.6t.6-.6c.2 0 .3-.1.2-.2s.2-.2.6-.3c.6-.1.7-.2.7-.5 0-.5.7-1.4 1.4-1.7.3-.2.8-.4 1-.5s.4-.2.5-.3c.1 0 .3-.1.6-.2.4-.1.4-.1.1.2-.2.2-.4.4-.5.4s-.4.6-.3.8c0 .1.3 0 .6-.3.3-.2.6-.4.8-.5.5-.1 1.4-.7 1.5-1 .1-.2.1-.2.1 0s.1.2.3.1c.2-.2.2-.2.1-.2s-.1-.2 0-.4c.1-.3.1-.3-.4.2-.4.5-.6.6-.9.5-.5-.1-.8-.6-.5-1.2.1-.3.1-.5-.1-.5s-.2-.1.2-.2c.2-.1.5-.3.6-.5s0-.3-.5-.3c-.7.1-1.4.5-2.3 1.3-.4.4-.3.3.2-.3.4-.4.9-.9 1.2-1.1s.7-.5.9-.7c.4-.3.7-.3 1.6-.2 1 .1 1.3.1 1.8-.3.3-.2.9-.6 1.2-.7.6-.2.7-.3.9-.9.2-.5.2-.7-.1-.9s-.3-.4-.1-.5.2-.2.1-.2c-.2 0-.3-.1-.3-.2 0 0-.1-.1-.3-.1-.1 0-.3-.2-.3-.3s-.1-.3-.1-.4c-.1-.2-.1-.4.1-.6.1-.2.1-.9.1-1.6 0-.5 0-.7-.1-1.2-.2.3-.4.4-.6.7-.7.8-1.4 1.1-1.4.7 0-.2-.2-.2-.3-.2-.2.1-.2 0 .1-.7.4-.8.4-.8 0-.9q-.3-.15-.3-.3c.1-.3-.2-.6-.7-.6-.2 0-.5 0-.7-.1s-.4 0-.5.1-.3.6-.5 1.1c-.3.8-.4 1-.7 1.3-.4.4-.4.4-.2.7s-.1 1-.4 1.6c-.1.2-.5.5-.9.8-.3.2-.4.3-.7.5-.1.3-.1.5-.2.8-.4 1.1-.5 1.3-.9 1.6-.3.2-.4.1-.5-.4-.1-.4 0-.8 0-.9.7-1.4.7-1.5.1-1.4-.3 0-.5-.1-.5-.2s-.1-.2-.2-.2-.3-.2-.4-.4-.4-.4-.7-.4c-.4 0-.5-.1-.3-.5.1-.3.1-.5-.1-.6-.3-.1-.1-.5.8-1.5.7-.8 1.6-1.6 1.9-1.6.1 0 .2-.1.3-.2.1-.3.6-.7 1-.7.3 0 1.9-1.6 1.8-1.8q0-.15.3 0c.2 0 .3.2.3.3s0 .1.1-.1.2-.3.4-.4c.2 0 .5-.2.7-.4.1-.1.2-.2.4-.3 0-.1 0-.2-.1-.3-.1-.3.1-.6.2-.6 0 0 .2-.1.2-.2.1-.1 0-.3-.1-.4-.2-.1-.3-.2-.3-.2s.4-.1.9-.1c.7-.1 1-.1 1-.3.1-.3.2-.3.4 0 .1.2.1.4 0 .4-.1.1 0 .1.2 0s.3 0 .2.1.1.3.3.4c.6.3.3 1.1-.6 1.6-.2.1-.3.2-.3.4s-.1.3-.5.4c-.3.1-.5.1-.6.1-.2-.1-.7.3-.8.6-.1.1.3.1.8 0 .6-.1.9-.1.9.1 0 .1.1.3.2.3s.1.1.1.2c-.2.3.1.7.3.5.1-.1.2-.1.2 0s.2.3.3.3c.2.1.4.2.5.2.3.2.3-.4 0-.8-.4-.5-.2-.7.3-.2.4.3.4.4.7 0 .3-.3.3-.5.3-.8s-.1-.5-.2-.5q-.15 0-.3-.3c-.1-.3-.1-.3.3-.6s.5-.2.7.4c.1.4.4.5.6.1.1-.2.2-.3.2-.2s.3-.1.6-.4l.5-.5c-.2 0-.3-.1-.4-.1-.2-.1-.4-.2-.4-.3s-.1-.3-.3-.3c-.8-.1-1-.8-.3-.9.2 0 .2-.1 0-.2s-.2-.1 0-.2q.3 0 .3-.3c0-.1-.1-.2-.3-.1s-.2.1-.1-.1c.2-.2.1-.2-.3-.2-.1 0-.2 0-.2-.1.1-.3-.4-.5-.6-.3-.1.1-.3 0-.4-.3-.1-.2-.2-.5-.3-.4-.1 0-.1-.1-.1-.2.2-.3-.2-.5-.7-.5-.3.1-.5.1-.6.3s-.1.2-.1 0q.15-.3-.6 0c-.8.3-1.1.5-1.4 1-.1.2-.1.4-.1.4.1 0 .1.1 0 .2-.2.3-.2.3-.3 0-.1-.1 0-.3 0-.4.1-.1.2-.3.2-.4s.2-.3.4-.4c.4-.3.4-.3-.1-.2-.6.1-1 .4-1.6 1-.5.5-.5.5-.5.9 0 .3.1.4.6.5.3 0 .5.1.4.2-.2.1-.5.5-.3.5.1 0-.1.2-.4.4-.2.2-.5.4-.5.4-.1-.1-.1 0-.2.2-.2.4-.4.5-.4.2 0-.2 0-.3.2-.5s.2-.3.1-.4c-.1-.2-.2-.1-.5.1-.5.5-.5.5-.3 0 .1-.3.1-.4-.1-.3-.2 0-.2-.2.1-.4.2-.1.1-1-.1-1-.1 0 .1-.2.3-.4.3-.3.5-.4.6-.4s1.1-.7 1.3-.9c.1-.1-1.5.2-1.7.4s-.3.3-.4.6c-.2.5-.3.7-.7 1q-.3.15-.6.6-.3.6.3.6s0 .1-.1.2-.1.2 0 .2c.2 0-.1.3-.5.5-.3.1-.4.3-.5.5-.1.3-.2.3-.3.3s-.1-.2 0-.3.1-.3.1-.4 0-.2.1-.2.2 0 .3-.1c.2-.1.2-.1.2-.3 0-.4-.3-.4-.8-.1-.4.3-.4.4-.3.3.3 0 .2.1-.2.5s-1.8.5-1.9.2-.9 0-1 .3c0 .1.2 0 .4-.1.3-.2.5-.2.5-.2 0 .1-.2.2-.4.3-.3.1-.4.3-.6.5-.1.2-.2.4-.3.5s-.1 0 0-.2c.3-.4-.1-.5-1.1-.2-.6.2-.7.2-.6 0 .1-.1.3-.2.4-.3.4-.1.1-.3-.3-.2-.2 0-.5 0-.7-.1s-.5-.1-.7.1c-.2.1-.4.1-.4 0s0-.1-.2 0c-.3.3-.5.3-.4 0 0-.2 0-.2-.2 0-.1.1-.4.3-.7.4-.7.3-1.4.6-1.7.9-.2.2-.4.3-.6.2-.4-.1 0-.5-1-.2-.1 0-.3.1-.4.1s-.2 0-.4.1c-.1 0-.2.1-.3.1 0 0-.1.1-.2.1-.1.1-.3.2-.5.3-.3.2-.6.4-.8.6-.6.7-1.1 1.3-1.7 2 0 0 .1 0 .1-.1.1-.2 0 .1-.2.4-.1.1-.2.1-.2.2l-.7.8c.1-.1.2-.1.2-.2.2-.1.2-.1.1.1s-.2.3-.3.4-.4.4-.6.5c-.5.7-1 1.3-1.4 2 .1 0 0 .1-.1.3-.2.3-.2.4 0 .2.1-.1.2-.1.2 0s0 .1.1 0c0-.1.2-.2.3-.2.2-.1.2 0-.2.4-.2.2-.6.7-.9.9-.3.3-.6.5-.7.6l-.1.1s-.1 0-.2.1-.1.2-.2.3c.1-.1.2-.2.4-.3s.5-.4.7-.6.5-.4.5-.4c.1 0 .1-.1.2-.2l.5-.5c.2-.2.5-.4.7-.6l.2-.2c-.2.1.1-.3.4-.5.1-.1.3-.2.3-.3.2-.2.9-.8 1-.9.1 0 .1 0-.1.1-.2.2-.9.9-.8.9s0 0-.1.2c-.4.3 0 .2.4-.2.2-.2.4-.3.5-.4q.15 0 .3-.3c.2-.3.2-.4.3-.2 0 .1-.1.2.2.2.1 0-.1.5-.1.7s.2.2.4-.1c.1-.1.1 0-.1.2-.3.4-.7 1.3-.5 1.3.1 0 .5-1 .5-1.1s.1-.1.1-.1c.1 0 .1-.1.2-.3q.15-.3 0 0c0 .1-.1.3-.2.4s-.2.2-.2.4c-.1.1-.1.2 0 .2 0 0 .1-.1.2-.3s.2-.3.2-.2c.1.1-.3.7-.4.7s-.2.1-.2.2c-.1.1-.1.1 0 .1.1-.1.1.1-.1.3-.1.2-.2.5-.2.6 0 .2 0 .1.2-.2.1-.2.2-.3.1-.3-.1.1-.1-.1 0-.2.1-.3.1-.4.3-.4.1 0 .1 0 0 .1-.2.2-.3 1-.1.8.1-.1 0 .2-.3.6-.4.7-.5.8 0 .4.2-.2.2-.2-.1.2s-.3.4-.2.3q.15-.15 0 .3c-.1.2-.2.4-.2.5-.2.3-.2.5-.1.4.1 0 .1.1.1.2-.1.2-.2.2-.3-.1 0-.1-.1 0-.1.1-.1.2.1 1.5.3 1.4.1-.1.1-.2.1-.4 0-.3.1-.8.3-.8v.2c-.1.1 0 .2 0 .3.1.1.1.4-.1.9-.2.4-.2.4-.5.1-.1-.1-.1-.1-.2.4-.1.4-.3.8-.9 1.8-.7 1.2-1.4 2.4-2 3.7 0 .1-.1.2-.1.4-.2.4-.3 1.1-.2 1s.1 0-.1.2c-.1.2-.3.7-.4 1.2s-.2.9-.2 1 0 .2.1.3c.3.2.3.6-.1 2-.2.7-.3 1.5-.3 1.8 0 .5 0 .6-.2.8-.3.3-.3.2 0 1.2 0 .2 0 .5-.1.7-.2.4-.1 1.9.1 1.7.1-.2.2-.7.1-.8s0-.5.1-.9.2-.9.2-.9c0-.1 0-.5.1-1.1.1-.5.1-1.1.1-1.2s.1-.5.2-.9c.3-.7.3-.7.4-.5.1.1.1.5-.1 1-.1.4-.2 1.3-.2 1.8 0 .6 0 1.1-.1 1.2v1.3c.1 1.3-.1 2.3-.4 2.8-.1.2-.2.5-.3.6 0 .4.2 1.3.4 1.5.1.1.2.3.3.4.1.2.3.6.6.9.5.6.6.7 1 .4.5-.3.6-.2.8.8.1.6.8 1.4 1.3 1.5.1 0 .2.1.2.2s0 .5.1.9.1.9 0 1.1c-.1.3-.1.5-.1.5.4.1.6.5.5.9-.1.3-.1.3.3.5.1 0 .3.3.4.5.2.5.5.5.5.1s.7-1.1.8-.9c.1.1.1.6.1 1.1 0 1-.3 3.9-.7 4.1 0 0-.1.2-.2.6 0 .3-.1.6-.2.6-.2 0-.4 1.8-.3 2.5.1.3.2.5.3.5.3 0 .3.6 0 .9-.3.5-.1 1.7.4 2.5.2.3.7 1.3 1 2.1.4.9.9 2.1 1.1 2.6.3.6.5 1.2.5 1.3 0 .4.8 1.4 1.8 2.3 1.1.8 1.7 1.9 1.9 3.2.3 1.7.6 3.3.7 5 0 .5.1 1.1.2 1.2.1.2.1.3 0 .4s0 .4.1.9c.3.8.4 1.7.2 3.1-.1.7 0 1.1.2 1.5.1.3.2.7.2.8s0 .5.1.9.1.8.2 1c0 .2.1.3.2.3s.1-.3.1-.5c-.1-.3 0-.5.1-.4.2 0 .3.5.5 1.5 0 .1.1.4.1.8.1.4 0 .5-.2.4s-.4-.1-.5.1c-.1.1-.1.2 0 .2.5 0 .7.3.9 1.3l-.3-.3c-.2-.2-.3-.3-.3-.2 0 0 0 .2.2.3.1.1.2.4.3.7.1.4.1.5.2.2 0-.2.1-.3.1-.3.1 0 .2.8.1.9s0 .1.1.1c.2 0 .4.2.7.8.3.4.4.8.4.8-.1 0-.1.1 0 .2s.3.2.4.2c.2 0 .3 0 .3.1s.1.2.2.2c.2 0 .3-.2.2-.5m-16.7-38.9c0-.1-.1-.3-.1-.4-.1-.1-.1 0-.1.2s.1.4.1.4c.1 0 .1-.1.1-.2M6.3 135s-.1.1-.2.3-.1.4 0 .3c0 0 .1-.2.2-.3zM27 99.3c.1.1.1.1.2.1.2.2.8-.1 1.1-.4.1-.2.5-.5 1-.8.1-.1.2-.1.3-.2-.2.2-.3.3-.5.4-.2.2-.3.3-.5.4h.2c.3 0 .3.1 0 .2-.2.1-.3.2-.4.3 0 .1.3.1.7-.1.4-.1.8-.2.7-.1 0 .1-.2.2-.4.2s-.5.1-.8.3c-.2.1-.3.2-.5.3 0 .1.1.1.1.2.1.1.2.1.4.1.2-.1.3 0 .2.1-.1.2 1.5-.3 2-.7.2-.2.4-.2.5-.1.4.2 1.4-.2 1.2-.5 0 0 .1-.1.3-.2.1 0 .2-.1.3-.1l-.2-.2c-.1-.1-.2-.2-.3-.1q-.15 0 0-.6c.2-.5.2-.7.5-.9.1-.1.3-.3.3-.4.1-.2-.5 0-.7.2-.1.1-.3.2-.4.3-.2.1-.2.1-.4.5-.2.5-.4.7-.3.2.1-.4 0-.4-.5 0-.2.2-.3.2-.2 0 .1-.1-.1-.1-.4 0q-.45.3-.3 0c.1-.1.1-.2-.2-.1-.2.1-.2.1-.1-.1.2-.2-.1-.4-.4-.3-.1.1-.4.1-.6.2-.2 0-.6.2-.7.3-.2.1-.4.3-.4.3 0 .1-.2.3-.6.7.2.2 0 .3-.2.6m2.5-2.7h.3c.2 0 .4-.1.5-.2s.2-.1.1-.1c-.1.1.1 0 .3-.2s.3-.3.3-.1c-.1.2.5-.2.8-.5.3-.4-.6 0-1.5.7-.4 0-.5.1-.8.4m1.1-.3c.2-.2.2-.2.1-.2s-.2.1-.3.2c-.3.4-.1.3.2 0m1.2-.7c-.3.1-.5.2-.9.6l-.4.4c.1 0 .1 0 .2-.1.1 0 .3-.1.3-.1.1 0 .3-.1.4-.2s.2-.1.2 0 0 .1-.2.2-.2.1-.2.2.2 0 .8-.3c.4-.2.9-.5 1.1-.5.4-.1.8-.4 1-.7q.15-.15-.3 0c-.3.1-.4.1-.3-.1q.15-.45-.3 0c-.2.1-.2.2-.2.4s0 .2-.3.3c-.2.1-.4 0-.4-.1zm.6-.8s.1 0 .2-.1q.15-.15 0 0c-.2 0-.2 0-.2.1m.6-.1c.2-.1.5-.2.6-.3s0-.1-.3-.1q-.45.15-.6.3c0 .2.1.2.3.1m.6-.6c.4-.1.5-.2.5-.3s-.1-.1-.1-.1-.2.1-.5.3c-.4.2-.4.2.1.1m.7 1.4c.2-.2.3-.3.1-.2 0 0-.1.1-.1.2q-.15.15 0 0m.3 1c.1 0 .1 0-.1.2-.1.1-.3.2-.3.1-.1-.1-.2-.1-.3.1-.1.1-.1.2 0 .2s.2.2.3.3c.1.2.2.2.3.1s.3-.2.4-.3c.4-.1.7-.6.5-.7s-.2-.1.1-.4c.2-.2.3-.3.2-.4s-.5.1-1 .3c-.1.2-.3.5-.1.5m.1-1.7c0 .1 0 .1.1.1s.2 0 .1.1c0 .1.1.1.4-.1.4-.2.4-.2.2.1-.2.2-.2.3 0 .2.4-.1.8-.4 1-.9.2-.3.1-.3-.3-.2-.3.1-.4.2-.4.3 0 .2-.2.2-.3.1 0-.1-.1-.1-.2.1-.2.2-.2.2-.3.1 0-.2-.2-.2-.3.1m.2-.5c.1 0 .2-.1.1-.2 0-.2-.1-.1-.2.1 0 0 0 .1.1.1m.8-1.1c.2-.1.2-.1-.1.1q-.3.15.3 0c.3-.1.6-.1.5 0-.1.2.3.1.4-.1.2-.3 0-.5-.3-.5h-.6c-.2 0-.4.1-.5.2.1.3.1.3.3.3m1.8 1.3c-.1-.2-.1-.2-.6.2l-.3.3c.1 0 .1.1.1.1.4.1 1-.2.8-.6m.3-.6c.2 0 .4 0 .4.2 0 .1 0 .2-.1.3 0 0-.1.1-.1.3s.3.1 1.7-.1c1-.2 2-.4 2.2-.5.1-.1.2-.1.3-.2 0-.1-.1-.1-.1-.2-.1-.1-.5-.1-1.6.2-1.3.3-1.4.4-1.5.1-.1-.2-.3-.3-.7-.2h-.7c-.1 0-.2 0-.3.1-.1 0 .1.1.5 0m-.1-.8.1.1c0 .1.2 0 .4 0 .4-.1.4-.1.1-.1-.2 0-.2-.1-.1-.3s.1-.2 0-.2h-.4c-.1 0-.2 0-.3.1-.1.2 0 .4.2.4m-.2-.9s.1 0 .2-.1.1-.1-.1-.1c-.1.1-.2.1-.1.2m1.8 1.1s-.1.1-.1.2c-.1.1-.1.2 0 .2 0 0 .1-.1.1-.2zm.1-.2c.2 0 .2-.1.2-.2 0-.2-.2-.2-.3.1-.1 0 0 .1.1.1m-.2-1.2c.4-.1.4-.1.1 0-.4.2-.4.4 0 .5.2.1.5 0 1.6-.6.2-.1.3-.1.1 0-.3.3-.2.4.2.2.2-.1.3-.1.2 0s-.1.2-.1.2c0 .1-.2.1-.5.1s-.5.1-.5.2c.1.1 0 .2-.4.3-1 .5-.6.5 1.1.1 2.1-.5 2.3-.5 2-.7-.2-.1-.2-.1.1-.3.2-.1.3-.2.4-.3s.3-.2.5-.2.5-.2.7-.4c.3-.3.3-.3.1-.3-.3.1-.2-.2.2-.3s1.6-.6 2.3-1c.4-.2.9-.5 1.2-.6s.5-.3.5-.4.3-.2.8-.4c.4-.1.8-.3.9-.4-1.5-.6-4.3.3-5.7.8-.5.2-1.1.4-1.3.6-.2.1-.4.2-.6.2s-.4.1-.7.2c-.2.1-.6.3-.9.4-.6.2-.8.4-.7.6.2.2.6.2.8 0 .1-.1.2-.2.3-.2s.1 0-.1.2-.1.2.2.1c.9-.2 1.3-.3 1.2-.2s-.5.2-1 .3c-.6.1-.9.2-.9.4 0 .1-.1.2-.2.1s-.2-.1-.3-.1h-.2c-.3-.2-.7-.3-.9-.2-.5.2-.7.3-.7.4s-.1.2-.3.2c-.1.1-.3.2-.4.3.1.3.4.4.9.2M55 86.1c-.1.2.6.1.7 0s-.1-.1-.3-.1-.4.1-.4.1m13.6 13.5c0-.1-.9-1.1-1.1-1.1 0 0-.1.1-.1.2s-.4.2-.8.3-.9.2-1 .3c-.2.1-.3.1-.4-.2-.1-.2-.3-.3-.5-.2-.6.2-.7.6-.2.6.4 0 .4 0 .2.3s-.2.3 0 .3.2.4 0 .5c-.1.1.2.2.7.2.9.2 2.9-.3 3.2-1.2m-7 6c.1 0 .2-.1.3-.2s.1-.2 0-.2-.2.1-.3.2c-.1 0-.1.2 0 .2m-.3 3.4c0-.1 0-.4.2-.4.1-.1.2-.4.2-.6-.1-.5-1.1-.5-1.3 0-.1.2-.3.4-.5.4s-.4.1-.4.4 0 .5.1.6 0 .2-.2.5c-.3.3-.3.4-.2.6.1.1.3.2.5.1s.6-.2.8-.3c.5-.2.9-.9.8-1.3m3.7 1.2c.3-.4.3-.8-.1-.8-.2 0-.3-.2-.4-.6-.1-.3-.2-.6-.4-.7-.1-.1-.3-.3-.3-.6 0-.2-.1-.5-.3-.6-.3-.1-.2-.2 0-.5.5-.7.4-1-.1-.9-.6.1-.6 0-.2-.4.2-.3.2-.3-.1-.3-.2 0-.5.1-.6.2s-.3.5-.5.9c-.3.6-.3.8-.2.7.2-.1.2 0 .1.4-.1.3-.1.4 0 .2.2-.5.4-.3.2.3s-.2.6.2.5.5-.1.4.2c0 .2 0 .4.1.3.1 0 .1.2 0 .4s-.3.4-.5.4c-.3 0-.4.1-.2.4.1.3.1.4-.2.5-.2.1-.4.2-.4.4 0 .1 0 .2.1.1.1 0 .3 0 .6.1.4.1.4.2.1.2-.2 0-.6.3-.8.5-.3.4-.4.5-.1.4.2-.1.7-.2 1.2-.3s1.1-.2 1.3-.2c.3 0 .6-.1.7-.1s.2-.1.1-.3c.1-.4.2-.6.3-.8m3.9-22.5c0 .1.1.2.2.2s.1.1.1.2c-.1.3.7.5 1.1.3q.3-.15.6 0c.2.1.2.2-.4.3-.6.2-.6.2-.3.3.2.1.3.2.1.2-.1 0 0 .2.3.4.5.3.6.3.7 0 .1-.2.2-.4.3-.4s.2-.2.4-.4c.1-.2.3-.4.4-.4.3 0 .7.4.6.7s1 .3 1.2 0c.1-.1.1-.2 0-.1-.1 0-.4-.1-.7-.3s-.8-.5-1-.5c-.2-.1-.5-.2-.5-.3s-.1-.1-.2-.1c-.1.1-.2 0-.2-.1-.1-.2-.6-.3-.6-.1v.3c0 .1-.1.1-.2 0-.4-.4-2-.5-1.9-.2m3.8 0c.4.1.8.2 1 .3.3.2 1.7-.3 1.5-.5-.1-.2-1.6-.5-1.7-.3 0 0-.4.1-.9 0-1.1-.2-1 .2.1.5m12.5 1.2c0 .3.1.3.7.1.2-.1.3-.1.5-.2h-.6c-.3-.1-.5 0-.6.1m2.1 8.3c0 .1 0 .2.1.3.2.2.6 0 .5-.3 0-.2-.5-.3-.6 0m1.4-1.5c.2 0 .4.2.5.4s.5.3.9.4h.6l-.5-.5c-.3-.3-.6-.6-.6-.7-.1-.3.8-1.7 1.1-1.6.1 0 .2-.1.2-.2 0-.2.6-.4 2-.5.4-.1.7-.2.7-.3-.1-.2-.8-.3-1.1-.2-.1.1-.5.1-.8.1-1-.1-2.1.3-2.3.8-.1.2-.3.5-.4.4-.1 0-.1.1-.1.3.1.2 0 .3-.1.3s-.2.2-.2.4c-.1.2-.2.4-.3.4-.4 0 0 .5.4.5m-.1-6.2q.15.45.3 0c.1-.1.1-.2-.1-.2-.1 0-.2 0-.2.2m.7-.1c.1.2.9.3.9.1 0-.1-.2-.2-.5-.2-.3-.1-.4-.1-.4.1m1.4.2c.1 0 .3 0 .4-.1.2-.1.2-.1 0-.1-.1 0-.3 0-.4.1-.1 0-.1 0 0 .1m10 2.6c.3 0 .5.1.4.2-.1.2.3.5 1.2.8.8.3.8.3.6-.1-.2-.3-.2-.4-.6-.5-.2-.1-.4-.2-.5-.3-.1-.4-1.4-.9-1.6-.6-.1.1-.1.2 0 .2s0 .1-.1.2c.2 0 .3 0 .6.1m2.6 1.7c.3 0 .5.1.8.1.5.1.8.1.8.1 0-.1-.2-.3-.6-.4-.2-.1-.4-.2-.4-.3-.1-.3-.5-.2-.6.1.1.2.1.3 0 .4m5.1 3.4c-.1 0-.1 0-.1.1s.1.2.2.2.1-.1.1-.1c0-.1-.1-.1-.2-.2m6.6 2.1c.3.3 1.5.6 1.5.5 0-.2-.2-.3-.8-.6-.4-.2-.7-.4-.8-.4-.1-.1-.2-.1-.2-.1-.2 0-.1.3.3.6m1.1 1c0 .1 0 .2.2.3.3.3.6.3.4.1s-.6-.5-.6-.4m.8-.3c.1.1.3.2.5.3l-.3-.3c-.1-.1-.2-.1-.2-.1-.1-.1-.1 0 0 .1m8.9 16.5c.1.1 0 .1 0 0 .1 0 .1-.1 0-.2zm0 3.9c-.1 0-.3-.3-.4-.5-.5-.7-.5-.7-.4-.2.3.7.4 1.1.3 1.1s0 .6.1 1c.1.2.2.3.2.1s0-.2-.1-.2-.1-.1-.1-.1c0-.2.2-.2.5.1.2.2.2.2.2-.1 0-.2 0-.3.1-.3.2-.1-.1-.7-.4-.9m.8 3.6c-.1-.5-.1-.6-.4-1.3-.2-.4-.4-.7-.4-.7s0 .1.1.2.1.2 0 .1c-.2-.1-.1.2.2.9.2.6.3 1.4.2 1.8-.1.3-.1.3-.2-.1-.1-.3-.1-.3-.1-.1.2 1 .2 1.2-.2 1.1-.3 0-.5.3-.6 1.2 0 .4.1.8.2.7 0-.1.1 0 .2.5.2.9.4.8.3 0-.1-.6-.1-.7-.3-.9-.2-.3-.2-.5-.1-.4s.1 0 .1-.1 0-.2.1-.2c.2 0 .3.1.1.4-.1.1-.1.3 0 .5.1.3.2.3.2 0 0-.2.1-.2.1-.2.2.2.1-.2-.1-.6-.2-.3-.2-.3 0-.3.1 0 .2.1.3.4.1.5.3.5.2 0-.1-.3 0-.4.2-.4.1 0 .3-.1.3-.2 0-.2 0-.2.1 0 .2.3.1 0-.1-.7-.3-.8-.4-1.1-.4-1.6m.4 17.1c-.3-.1-.7-.9-.6-1.4 0-.2-.1-.6-.1-.9-.1-.5-.2-.6-.4-.6-.1 0-.2.1-.2.3s.1.5.2.8.1.5.1.5c-.1 0 0 .2.2.6.1.3.3.5.3.4s.1 0 .1.2c.1.2.1.3.2.3s.2.1.3.1c.1.1.1.1.1-.1 0-.1.1 0 .2.2.3.4.3.4.1 0-.2-.2-.4-.3-.5-.4m.4 1.2.2.2c.1.1.1 0 .1-.1-.2-.2-.4-.3-.3-.1m.4.1c.1.2.1.3.1.4s0 .2.1.5c.2.3.2.3.1-.1-.1-.8-.2-1.1-.4-1.1 0 0-.1.1.1.3m-1.7 13.6c0 .1.1.1.2.1.4-.1.4-.4.1-.3-.1 0-.2.1-.3.2m1.7-12.4c0 .2 0 .2.1.2 0-.1.1 0 .1.1s.1.2.1.1-.1-.3-.2-.4c-.1-.3-.1-.2-.1 0m0 .3c-.1-.7-.3-1.1-.5-1.2-.1-.1-.1 0-.1.4.1.4.1.5.2.2.1-.2.1-.2.1.3 0 .4 0 .5.1.7.3.1.3.1.2-.4m-1-1.8c.2.4.2.4.1 0-.1-.2-.2-.5-.3-.5-.1-.1-.1 0-.1 0 0 .1.1.3.3.5m-.2 2.1c.1-.4.1-.8.1-.8-.1 0-.1.3-.2.7-.1 1 0 1.1.1.1m-2.1-11-.1.1v.7c.1.5.1.7.3 1 .1.2.1.3.2.4v-.4c0-.4-.3-1.9-.4-1.8m-1.8-19.5c-.1 0 .3.9.4 1.2.1.2.5 1.1.9 2.1.6 1.5.7 1.8.7 1.6 0-.1.1-.1.2 0s.1.1-.2-.3c-.2-.3-.4-.6-.4-.7-.2-.4-.2-.9-.1-.9s.1-.2-.1-.5-.9-1.7-.9-1.9c0-.1-.2-.4-.4-.7-.2-.4-.3-.5-.2-.2.1.2.2.3.1.3m1.7 41.8s.1 0 .2-.1 0-.1-.1-.1c-.1.1-.2.2-.1.2m-1-2.3q.3-.3 0-.3c-.1 0-.1.1-.1.2s.1.1.1.1m-.5 0s.1-.2.1-.5c0-.5-.1-.5-.2-.3-.1.1 0 .8.1.8m-.1 3c.2 0 .5.1.7.1.4.1 1.4 0 1.5-.2 0-.1-.1-.2-.3-.2s-.4-.2-.4-.3c0-.2-.1-.3-.6-.1-.4.1-.6.1-.7-.1-.2-.3-.7-.2-.8.1-.2.4.1.7.6.7m-2.3-5.3c0-.1 0-.2-.1-.2s-.1.1-.1.2.1.2.1.2c.1 0 .1-.1.1-.2m.1 1.8c.1.1.1 0 .1-.1v-.3c0-.1-.1 0-.1.1-.1.1-.1.3 0 .3m.4-1.9c0 .1 0 .5.1.7.1.3.1.9.1 1.2 0 .8.6 2.5.9 2.3.2-.1.3-.3.5-1 .2-.8.2-.9 0-1.6-.1-.4-.2-.9-.2-1 .1-.2 0-.4-.1-.6s-.2-.5-.3-.6c-.1-.2-.2-.3-.2-.3-.1 0-.3-.4-.5-1s-.9-1-1-1-.3 0-.4-.1-.2 0-.2.1.6.8.8 1.4c.3.8.5 1.4.5 1.5m4.2 5.3s-.1.1-.1.2v.2c.1 0 .1-.1.1-.2zm.9-4.1c0-.1.1-.3.2-.5s.3-.6.3-.8q.15-.45.3-.6c.2-.1.3-.4.2-.4 0 0-.1-.3-.1-.7s0-.7.1-.7c0 0 .1-.1.1-.2s0-.2.1-.2.1-.2.1-.3 0-.3.1-.3.1 0-.1-.2c-.1-.1-.3-.4-.4-.5-.3-.5-.4-.4-.4.4 0 .4-.1.7-.2.7s-.1.2-.2.5c-.2.3-.4.7-.6.8-.2.2-.4.4-.4.6q0 .3-.3.3c-.2 0-.3 0-.4.2-.2.4-.3 1.5-.2 1.6 0 0 .1.3 0 .7-.1.5 0 .6.2.5.1 0 .2 0 .2.1s.1.1.4.1c.3-.1.4 0 .4.1 0 .2.1.2.2 0 .1-.3.4-.9.4-1.2m-.4 3.9c-.1 0-.1 0-.1.1s-.1.2-.1.1c-.1 0-.2.1-.2.2-.1.2-.1.2.1.1.1-.1.2-.2.3-.2.1.1.2-.2 0-.3m0 .7c0 .1.1.1.1.2.1.3.2.2.2-.1 0-.1-.1-.2-.2-.1zm2.1-1.1c-.4.4-.8.8-.8 1-.1.4-.1.3.4-.3.2-.3.4-.5.5-.6.1 0 .1-.1.2-.2 0-.1-.1-.1-.3.1m.9-6c-.2.3-.7.3-.8.1s-.5.6-.6 1c0 .2-.1.5-.2.5-.2.2-.5 1.5-.4 1.7 0 .1 0 .4-.1.8s-.2.6-.1.5.2-.5.4-1c.1-.5.2-.8.3-.8 0 0 .1.1 0 .2v.6c0 .3.1.3.1.2.2-.3.3-.3.1 0-.1.2-.1.5 0 .5s.2-.6.2-.9v-1.4c.1-.2.2-.3.3-.5.3-.4.3-.5.2-.4-.1 0-.3.2-.4.3q-.3.45-.3 0c0-.2 0-.4.1-.6.1-.3.2-.3.6-.3s.5-.1.7-.4c.1-.3.1-.5-.1-.1m0 7.3-.2.2c-.2.2-.2.2 0 .2.1 0 .2-.1.2-.2zm0-4.5c0-.1 0-.2-.1-.1-.1 0-.1.1-.1.2s.1.2.1.1c.1 0 .1-.1.1-.2m-.6-7.4c0-.1-.1-.1-.2.1s-.1.5-.1.6c0 .2.1.2.1.1s.1-.3.2-.3c.1-.1.2 0 .3.4.1.5.3.7.5.7.1 0 .1-.1 0-.4q-.15-.45 0-.3c.1 0 .1 0 .1-.1 0-.2-.5-1.7-.5-1.6 0 0-.1.2-.1.5q-.15.6-.3.3m1.1 9.5c0 .1-.1.2-.1.3s0 .1.1-.1c.1 0 .1-.2 0-.2.1 0 .1-.1 0 0m-.2-2.4c0 .1.1.1.1.1h.3c.1.1.2 0 .2-.2s-.1-.2-.3-.2q-.3.15-.3.3m.2-1.5s.5-1.4.4-1.4l-.1.2c0 .1-.1.1 0-.1 0-.3 0-.3-.1-.1 0 .2-.2 1.4-.2 1.4m.7-.4h.1c0-.1 0-.1-.1-.1zm4.6 2.8c0 .2 0 .1 0 0s-.1-.1 0 0m6.5-6c0 38.9-31.6 70.5-70.5 70.5S0 185.9 0 147s31.6-70.5 70.5-70.5S141 108.1 141 147m-25.7-23.1c-.1 0-.1.1 0 .2 0 .1.1.2.2.2s.1-.1 0-.2zm-2-13.6v.7c.1.8-.2 1.8-.4 2-.2.1-.2.1 0 .2.1 0 .3-.1.4-.3s.2-.4.3-.4c.2 0 .2-.9 0-1.6-.1-.3-.2-.6-.3-.6m-8.7 5.8c.1.1.3.1.4 0 0-.1-.1-.1-.2-.1-.3-.1-.3 0-.2.1m.4-19.4c.2.2.2.2.1 0-.2-.3-.6-.7-.5-.4zm-1.3 18.9s-.2.1-.3.2c-.4.2-.5.4-.4.8.1.5.3.4.3-.1 0-.2.1-.4.3-.4s.3-.1.2-.2c0-.2-.1-.3-.1-.3m1.6 3.5c-.2 0-.3.1-.3.2s.1.2.3.2.3-.1.3-.2-.1-.2-.3-.2m-5.4-21.7c0 .2 0 .3.1.3s.2.2.2.3c0 .2.1.3.1.2.1-.1 0-.3-.1-.6-.2-.6-.3-.7-.3-.2m5.9-1.2s-.1.1 0 .2c0 .1.1.2.2.2s0-.1 0-.2c-.1-.1-.2-.1-.2-.2m.5 18.5c-.1 0 0 .1.1.2s.3.2.4.3c.1 0 0-.1-.1-.2-.2-.1-.3-.3-.4-.3M44.5 89.9c.2-.2.1-.2-.3.1-.1.1-.2.1-.3.2h.2c.1-.1.3-.2.4-.3m-12.7 28.4q.6 0 .9-.3c.3-.3.3-.7.1-.4-.1.1-.4.2-.7.2-.8.1-1 .5-.3.5m-5-15.2-.5.5-.5.5h.2c.1 0 .3-.1.4-.2s.2-.2.3-.2 0 .1-.1.2c-.1.2 0 .1.2-.1s.5-.4.7-.5c.5-.2.6-.6.2-.4-.3.1-.4.1-.2 0 .4-.3-.1-.2-1 .3-.3.2-.4.2-.7.4.2-.1.3-.1.5-.2.1-.1.2-.2.5-.3m1.1 10.7c-.2.3-.3.3-.1.3.1 0 .2-.2.3-.3.1-.2.1-.3.1-.3zm-.5-1.6c-.2.3-.3 1-.2.9s.2-.3.2-.6zm1.3-1.8s-.1.1-.2.1c-.1.1-.3.2-.3.3-.2.3-.2.8-.1 1.1.1.1 0 .5-.1.8-.2.4-.2.5 0 .2.2-.2.4-.8.5-1.4s.2-1.1.2-1.1m-1 .4c-.3.4-.3.5-.3.6s0 .2-.1.3-.2.2-.1.3c0 .1.1-.1.3-.4.1-.3.3-.7.4-.9.1-.3.1-.3-.2.1m.8-2.5s-.1.1-.2.3c-.2.2-.3.3-.2.3s.8-.8 1-1.1c.1-.3-.1-.2-.4.2-.2.2-.3.3-.2.3m-1.5-3.1c-.1-.1-.1-.1-.1.1s-.2.3-.6.7c-.2.2-.3.2-.5.4.2 0 .2 0 .4-.1.2 0 .5-.2.7-.3.1-.1.5-.4.7-.6.3-.2.5-.4.6-.4s.2-.1.3-.2c.3-.3-.1-.2-.6.2-.5.5-.8.5-.9.2m.5 1.8c-.2 0-.5.2-.6.4-.4.4-.4.4.4-.1.5-.3.5-.4.2-.3m4.1-3c.1-.2-.1-.2-.3.1-.1.1-.1.2-.1.3zm-2.5 12.6c-.4.4-1.5 2.6-1.5 2.9 0 .4.6-.3 1-1.2.3-.7.5-1 1-1.4.7-.7.7-.7.8-.2 0 .4 0 .5-.2.7s-.3.4-.4.5 0 .1.2-.1.3-.2.2.2c0 .2 0 .3-.1.5.2-.3.3-.5.5-.8.3-.4.5-.9.6-1 0-.1.1 0 .2.2.1.5.5 0 .4-.5s-.4-.6-.4-.2c0 .1-.1.2-.1.2-.1 0-.1-.1 0-.2.1-.4-1.7-.1-2.2.4m.1-1.2c.3-.2.4-.2.3-.1-.2.3.1.5.7.5h.5c.1-.2.1-.4.2-.6.1-.3.1-.6 0-.5s-.2 0-.2-.2c-.1-.6-.4-.5-1.5.3-.6.4-1.1.8-1.2.9-.2.2.7 0 1.2-.3m1.3-2.1c.1-.3.1-.5-.1-.3s-.3.5-.2.5.3-.1.3-.2m-.7 5.8c-.5.2-.7.5-.3.5.3 0 1.6-.7 1.8-.9.3-.3.1-.2-1.5.4m13.3-9c.1 0 .3-.1.4-.2.2-.2.2-.2-.2 0-.3.1-.3.2-.2.2m-4.6 2.1c.1 0 .2-.2.3-.3.2-.3.1-.4-.2-.2-.2.1-.2.5-.1.5m3-2.3c.1 0 .1-.1.1-.2s0-.2-.1-.2-.1.1-.2.2zm1.7-19.2c.1 0 .1-.1 0 0-.2 0-.2 0-.2.1.1 0 .2 0 .2-.1m-8.7 10c.1-.1.1-.2 0-.2l-.2.2v.2c.1 0 .2-.1.2-.2m2.8 79.2c.1-.2.1-.3.1-.4-.1-.1-.4.2-.3.5 0 .1.1.1.2-.1m4.3-88.3c.4-.1.6-.3.5-.5-.2 0-.2 0-.2.2-.1 0-.2.2-.3.3q-.45.15 0 0M36.7 112c-.1 0-.3.1-.4.3-.3.4-.2.4.2.1.3-.4.3-.4.2-.4m-.3-10c.1.1.1 0 .2-.1.1-.3-.2-.4-.3-.2-.1.1-.1.2 0 .2-.1 0 0 0 .1.1m2.6-4.1c-.1 0-.2.1-.2.1s.1 0 .2-.1q.15 0 0 0m3.2-1.2c.2 0 .4-.1.5-.2 0-.1.2-.2.3-.2.1-.1.1-.1-.1-.1s-.4 0-.5-.1c-.1 0-.1 0-.1.1s-.1.2-.2.4c-.3.2-.2.2.1.1m2.3.7c.1-.1.3-.2.3-.2 0-.2-.3-.1-.3.2q-.3 0 0 0m-1.4 3.3c.1-.1.3-.1.4-.2.1 0 .2-.1.1-.2-.2-.2-.4-.2-.5.2-.1.2-.1.2 0 .2m35.4.8c-.1 0-.1.1-.1.2s.1.2.1.1c.1-.1.1-.2.1-.2.1 0 0-.1-.1-.1m.1-4.8c-.1 0-.2.1-.2.2s.1.2.1.2c.1 0 .2-.1.2-.2.1-.1 0-.2-.1-.2m7.3 59.7c.3-.1.6-.1.8-.1s.2-.1.2-.2c-.1-.1.1-.5.3-.9.4-.7.4-.8.1-.9-.5-.2-1.3-.1-1.4.2-.1.1-.2.7-.3 1.2-.2.7-.1.8.3.7m-6-54.6s-.1.1 0 .2c0 .1-.1.2-.2.1s-.2 0-.3.2c0 .2-.1.3-.2.2s-.2 0-.2.1 0 .2.1.2c.4 0 .9-.5.8-.8.1-.1 0-.2 0-.2m-62.8 7.5c-.1 0-.2.1-.3.2-.2.2-.1.2.2-.1.2-.1.2-.1.1-.1m54.5-4.9c-.1.2-.3.4-.3.4 0 .2.6-.1.7-.3.2-.3-.1-.4-.4-.1m51.3 15.1s.1-.1 0-.2c0-.1-.1-.2-.1-.2-.1 0-.1.1 0 .2 0 .1 0 .2.1.2m-45.1-17.2c0 .1 0 .3.1.4s.1 0 .1-.2c0-.4-.1-.5-.2-.2m9.2 60.2c0-.3 0-.5-.1-.6s-.2.4-.2 1-.1 1.2 0 1.4c0 .2.1.5.2.7.2.3.2.2.3-.7v-1.2c-.2-.1-.2-.4-.2-.6m1.9-11.5c0 .4.1.8.3.9.3.3.3.3.1 0-.1-.2-.2-.6-.3-1 0-.2-.1-.4-.1-.6zm.3-6.7c.1-.1.2-.2.2-.3s-.1-.1-.2-.1-.2.1-.2.3c0 .1.1.2.2.1m-28.8 3.3c-.2-.1-.3-.1-.3-.1 0 .1.1.2.3.4s.3.2.3.1-.1-.3-.3-.4m0 1.1c-.1.1 0 .2.1.2s.2-.1.3-.2c0-.1 0-.2-.1-.2-.2 0-.3.1-.3.2m11.2-5.9c-.6-.3-.7-.2-.4.4.2.4.9.4.9 0 0 0-.2-.2-.5-.4M98.2 97v.2c0 .1.1.2.2.2s0-.1 0-.2zM31 190.4c0 .1.1.2.1.2.1 0 .1-.1.1-.1 0-.1-.1-.2-.1-.2-.1-.1-.1 0-.1.1m-1.2-2.8c-.1 0-.1.1 0 .2l.2.2v-.2c-.1-.1-.2-.1-.2-.2m-3.4-21.3c.1.2.2.4.4.4.2.1.2.1 0-.3-.3-.4-.6-.5-.4-.1m-2-21.4c-.2.2-.2.9-.1 1q.15 0 .3-.3c.2-.4 0-1-.2-.7M19 120.4c.1-.1.1-.3.1-.3 0-.1-.1 0-.1.1-.1.1-.1.3-.1.3 0 .1 0 0 .1-.1m-.1 22.4c-.2 0-.2 0-.1.4s.3.3.3-.1c0-.1-.1-.3-.2-.3m12.7 48.5c-.2.2-.1.2.1.2.1 0 .3-.1.3-.2 0-.3-.2-.3-.4 0m18.6-93.7c.1-.1 0-.1-.1-.1s-.2.1-.1.1c.1.1.2 0 .2 0m3 112.6c-.1 0-.2 0 0 0 .1.1.1.1.2.1-.1 0-.1-.1-.2-.1M47.3 91.3s0 .1.1.2c.1 0 .1 0 .2-.1s0-.2-.1-.2-.2.1-.2.1m18.1-2.9c.1-.1.2-.1.2-.2 0-.2-.3-.1-.4.1 0 .2 0 .2.2.1m56.6 54.2c.1.1.1 0 0-.2-.2-.4-.2-.4-.2-.1.1.1.2.2.2.3M60.6 95.5c.1-.1.2-.2.2-.3 0-.3-.1-.2-.2.1-.2.2-.2.2 0 .2M258.2 147c0 84.7-67.2 147-152.4 147H17.5v-58.8h88.2c48.7 0 87.9-39.5 87.9-88.2s-39.2-88.2-87.9-88.2H17.5V0h88.2C191 0 258.2 62.3 258.2 147"/></svg>