<svg xmlns="http://www.w3.org/2000/svg" width="38" height="32" fill="none" viewBox="0 0 38 32"><path fill="#fff" d="M13.34.514h1.845q1.788 0 2.415.164.632.164.96.539.33.375.41.838.083.457.083 1.804v3.323q0 1.277-.123 1.71-.117.428-.416.674-.3.24-.739.34-.44.094-1.324.094H13.34zm2.467 1.623v6.24q.533 0 .656-.211.123-.217.123-1.166V3.314q0-.645-.041-.826a.38.38 0 0 0-.188-.263q-.145-.088-.55-.088M22.27 2.225l-.094 1.02q.516-1.097 1.494-1.161V4.82q-.65 0-.955.176a.74.74 0 0 0-.375.492q-.07.31-.07 1.442V10h-2.368V2.225zM24.936 8.066V10h-1.788V8.066zM.848 11.514h2.484q1.008 0 1.547.158.545.158.814.457.276.3.37.726.1.423.1 1.313v.826q0 .909-.188 1.324t-.692.639q-.498.222-1.306.223h-.663V21H.848zm2.466 1.623v2.414q.105.006.182.006.34 0 .469-.164.135-.17.135-.698v-.779q0-.486-.153-.633-.151-.147-.633-.146M10.826 11.514 12.238 21H9.713l-.123-1.705h-.885L8.56 21H6.004l1.254-9.486zm-1.306 6.1q-.187-1.612-.375-3.98-.375 2.72-.47 3.98zM15.127 11.514v7.588h1.5V21H12.66v-9.486zM24.842 11.514V21h-2.156v-6.404L21.824 21h-1.53l-.907-6.258V21H17.23v-9.486h3.194q.14.855.299 2.015l.34 2.414.562-4.43zM30.092 11.514 31.504 21h-2.526l-.123-1.705h-.884L27.824 21H25.27l1.254-9.486zm-1.307 6.1q-.188-1.612-.375-3.98-.375 2.72-.469 3.98zM37.152 14.385h-2.29v-.703q0-.492-.089-.627-.087-.135-.293-.135a.38.38 0 0 0-.34.182q-.11.18-.11.55 0 .475.128.715.123.24.697.58 1.647.98 2.075 1.606.427.627.427 2.021 0 1.014-.24 1.494-.233.48-.914.809-.68.322-1.582.322-.99 0-1.693-.375-.698-.375-.914-.955t-.217-1.646v-.621h2.29v1.154q0 .533.095.685.099.153.345.153a.4.4 0 0 0 .364-.194q.123-.192.123-.574 0-.837-.229-1.096-.233-.258-1.154-.86-.92-.61-1.219-.886-.3-.275-.498-.761-.193-.487-.193-1.243 0-1.089.275-1.593.282-.504.902-.785.621-.287 1.5-.287.961 0 1.635.31.68.31.897.785.222.47.222 1.6zM18.402 22.514v1.898h-1.465V32h-2.466v-7.588h-1.46v-1.898zM25.129 22.514 23.875 32h-3.744l-1.424-9.486h2.602q.45 3.92.644 6.627.194-2.737.404-4.864l.17-1.763z"/></svg>