<svg xmlns="http://www.w3.org/2000/svg" width="1348" height="271" fill="none" viewBox="0 0 1348 271"><path fill="#fff" d="M.312 1.499h22.365v81.977h30.801V106H.312zm56.274 0h23.32v19.897q0 6.288-2.07 12.257-2.07 5.89-9.232 14.963l-9.472-6.686q7.88-8.516 8.357-17.112H56.585zm40.673 0h58.817v20.693h-36.293v21.091h36.293v20.375h-36.293v21.649h36.293V106H97.259zm82.22 0h26.742L225.8 64.136l19.579-62.637h25.867L284.617 106h-21.489l-9.153-73.541L230.973 106h-10.267l-23.558-74.178L188.472 106h-21.807zm117.239 0h22.444V106h-22.444zm40.673 0h22.365v81.977h30.801V106h-53.166zm64.71 0h22.444V106h-22.444zm76.409 0h17.431L538.601 106h-22.604l-8.516-20.534h-40.034L459.25 106h-22.524zm8.755 34.223-12.177 30.801h24.752zm55.716 25.787h45.924v20.534h-45.924zM598.936 1.5h34.383q15.68 0 24.752 8.277 9.153 8.277 9.153 22.365 0 8.038-4.218 16.714-4.138 8.675-15.361 13.61L676.855 106h-25.787l-27.061-40.432h-2.547V106h-22.524zm22.683 18.624v27.22h4.855q17.59 0 17.59-14.407 0-5.89-4.617-9.311-4.536-3.502-12.654-3.502zm59.298 33.587q0-23.161 15.281-38.204Q711.559.384 732.571.384q23.24 0 38.442 15.202 15.201 15.122 15.201 38.283 0 23-15.042 38.203-15.043 15.201-37.885 15.201t-37.646-15.122Q680.917 77.03 680.917 53.71m52.688-32.473q-13.131-.24-21.17 9.073-8.04 9.312-8.039 24.036 0 13.93 8.198 23.081 8.198 9.153 20.693 9.153 13.132 0 21.171-8.994 8.118-9.072 8.118-23.876 0-14.565-7.959-23.4-7.88-8.835-21.012-9.073m75.614-19.738h26.742l19.579 62.637 19.579-62.637h25.867L914.357 106h-21.489l-9.153-73.541L860.714 106h-10.268l-23.558-74.178L818.213 106h-21.808zm154.567 0h17.43L1023.88 106h-22.61l-8.514-20.534h-40.033L944.525 106h-22.524zm8.754 34.223-12.177 30.801h24.753zm149.47-11.54-14.96 14.008c-3.13-5.413-7-9.445-11.62-12.098-4.62-2.706-9.44-4.06-14.48-4.06-8.18 0-15.29 3.105-21.34 9.313-5.99 6.208-8.99 13.53-8.99 21.967 0 8.967 3 16.58 8.99 22.842q9.075 9.312 21.81 9.312 6.93 0 13.29-3.502 6.45-3.502 10.35-13.132h-24.75V48.457h48.23v13.53c0 6.95-2.39 14.432-7.16 22.444q-7.17 11.94-18.87 17.51c-7.8 3.661-15.68 5.492-23.63 5.492-14.44 0-26.61-5.227-36.54-15.68q-14.88-15.679-14.88-38.76c0-14.591 5.09-27.06 15.28-37.407Q1058.1.066 1079.67.066c18.36 0 32.47 8.038 42.34 24.116m89.23-22.683h22.04V106h-21.8l-48-67.651V106h-22.44V1.499h22.12l48.08 67.173zm76.09 0h17.43L1347.42 106h-22.61l-8.51-20.534h-40.04L1268.07 106h-22.53zm8.75 34.223-12.17 30.801h24.75zM308.096 166.5h22.444V271h-22.444zm109.28 0h22.046V271h-21.807l-47.993-67.651V271h-22.444V166.499h22.126l48.072 67.173zm79.596 0h35.656q22.842 0 36.771 14.405 13.928 14.406 13.928 37.965 0 23.638-14.406 37.884Q554.595 271 530.718 271h-33.746zm22.683 19.738v64.547h8.914q13.849 0 22.763-7.561 8.914-7.562 8.914-25.23 0-10.267-4.298-18.146-4.298-7.96-12.495-10.745-8.119-2.865-15.521-2.865zm76.887-19.738h22.444V271h-22.444zm40.037 0h34.383q15.679 0 24.752 8.277 9.153 8.277 9.153 22.365 0 8.039-4.218 16.713-4.139 8.676-15.361 13.61L714.497 271H688.71l-27.06-40.432h-2.547V271h-22.524zm22.683 18.624v27.219h4.855q17.589 0 17.589-14.405 0-5.89-4.616-9.312-4.536-3.502-12.655-3.502zm69.406-18.624h58.816v20.693h-36.292v21.091h36.292v20.375h-36.292v21.649h36.292V271h-58.816zm67.575 0h70.277v22.205h-23.956V271H820.04v-82.296h-23.797zm74.897 0h70.278v22.205h-23.957V271h-22.524v-82.296H871.14zm106.813 0h17.43L1038.04 271h-22.6l-8.52-20.534h-40.03L958.692 271h-22.524zm8.754 34.223-12.177 30.801h24.753z"/></svg>