<svg xmlns="http://www.w3.org/2000/svg" width="422" height="800" fill="none" viewBox="0 0 422 800"><path fill="#fff" d="M420.755 446.589c-6.013-14.4-29.988-33.575-29.988-33.575s-41.961-65.962-56.354-71.95c-14.4-6.012-51.36-35.039-68.147-41.026s-41.368-12.025-46.775-22.788c-2.4-4.8-3.6-11.394 0-16.194 3.587-4.8 13.793-19.175 13.793-26.981 0-7.794.594-18.594.594-20.981 0-2.4 4.8-16.182-1.2-29.381-8.792-19.365-50.361-28.788-68.35-6-5.67 3.246-9.864 12.089-13.667 22.345-1.453-7.53-2.388-13.2-2.539-15.145-.581-7.807 39.284-98.047 43.175-108.227 3.891-10.194-.581-24.884-9.285-33.588-8.689-8.69-21.587-32.98-22.482-38.968-.897-6.013-6.91-4.8-7.794-.607-.909 4.196.606 16.194 4.194 25.188-16.485-5.103-28.182 6.29-27.588 14.097.506 6.569 1.478 12.86 5.356 13.25-.442 2.134.594 5.267 4.244 8.93 9.6 9.6 25.188 3.6 21.588 10.787-3.6 7.2-50.363 99.536-49.175 109.136.783 6.202 4.079 36.48 7.604 61.97-10.787 2.375-22.584 4.535-27.992 20.778-8.387 25.188-25.186 38.375-25.186 38.375-16.775 2.4-23.975-4.787-16.775 2.4 7.2 7.2 29.986 25.188 46.761 14.388 7.049 4.495 18.897 10.308 31.68 12.594-4.381 13.806-7.628 25.009-4.092 34.181 12.001 31.187 13.187 68.35 4.548 95.684-4.826 15.247-35.167 43.994-69.94 97.956C22.187 617.212 19.433 678.728.03 753.353c0 0-2.034 15.488 37.188 13.188 54.037-3.183 29.987 12 100.723 23.998 65.76 11.116 161.481-27.486 186.821-96.503a4943 4943 0 0 0 19.698 31.326l6.947 44.135s-2.955 19.275-6.038 23.165c-3.082 3.891 3.563 8.59 12.025 7.024 8.489-1.58 22.864-9.498 24-16.623 1.138-7.125-.506-27.79-3.031-32.565-2.527-4.775-1.516-6.089 2.956-3.184 4.85 3.159 4.622 7.883 7.352 10.663 4.244 4.306 8.134.543 7.655-1.719-.455-2.25-4.143-15.26-9.55-27.764-4.572-10.586-13.315-19.63-14.475-22.713l-20.16-32.337c24.428-6.746 54.872-4.055 49.642-10.042-16.8-19.188-51.309-67.238-63.309-90.024-11.994-22.787-55.419-97.061-103.394-128.236 0 0 18.164-75.612 25.364-81.6 7.2-6 60.771 14.703 66.771 15.891 6.012 1.187 40.793 46.762 41.981 52.75 1.187 6-3.613 24 0 40.775 3.587 16.8 9.575 2.4 11.975-9.6 0 0 24 33.6 28.8 34.787 4.775 1.2 5.987-10.787 2.4-17.987-3.617-7.194 14.37-19.18 8.383-33.569M142.742 55.392c-1.49-1.49-3.147-2.248-4.623-2.375.303-3.99-4.244-10.71 2.223-14.412 8.4-4.788 15.586 0 19.188 8.4 3.6 8.387-10.8 14.387-16.788 8.387"/></svg>