<svg xmlns="http://www.w3.org/2000/svg" width="506" height="96" fill="none" viewBox="0 0 506 96"><path fill="#929292" d="M61.878 21.634h-39.37v15.999h36.497v16.634H22.508V91H.552V5h61.326zM166.828 91h-21.956V33.416l-15.863 37.37h-15.231l-15.863-37.37V91H77.11V5h25.634l19.254 43.144L141.194 5h25.634zM255.684 21.634h-26.726V91h-22.07V21.634h-26.726V5h75.522zM346.552 5l-31.208 86h-24.715L259.42 5h23.163l20.691 60.414L323.965 5z"/><path fill="#c5000b" fill-rule="evenodd" d="M362.552 0h143v96h-177zm68.166 21.71L375.822 92h-25.27l56.814-70.932h-44.324L366.76 5h67.792zm36.14 68.23q7.718-2.061 13.449-6.125 5.789-4.12 9.194-10.589 3.46-6.466 3.461-15.225 0-6.41-2.61-10.703-2.61-4.35-7.037-7.04t-10.101-3.892-12.144-1.202h-3.007q-1.25 0-2.043.057l3.177-13.908h39.61L502.552 5h-60.095l-11.009 48.079h2.497q3.802-1.145 8.512-1.946t8.909-.801q9.534 0 14.13 2.747 4.654 2.69 4.654 8.128 0 7.155-5.618 10.588-5.562 3.435-14.755 3.435-6.128 0-11.576-1.775-5.448-1.83-10.952-5.437h-2.384l-4.313 18.83q4.484 2.118 11.917 3.607Q439.959 92 450.515 92q8.682 0 16.343-2.06" clip-rule="evenodd"/></svg>