<svg xmlns="http://www.w3.org/2000/svg" width="84" height="75" fill="none" viewBox="0 0 84 75"><path fill="#037a35" d="M16.427 62.39c-6.57-5.72-13.8-13.47-15.8-22.2-1.92-8.4.52-16.91 8.02-21.56 8.79-5.44 18.07-1.64 24.19 5.67l.26.08c5.75-6.84 14.64-10.97 23.21-6.38 12.07 6.46 11.77 21.18 4.99 31.53-6.72 10.27-17.95 18.25-28.34 24.48-5.83-3.29-11.48-7.21-16.54-11.61"/><path fill="#54a433" d="m54.577 70.02 4.61 4.01c.51.51 1.37-.07 2.55-.77 1.84-1.08 2.25-1.48 3.77-2.72.55-.45 1.55-1.33 1.29-1.8-1.16-2.1-2.26-3.36-3.22-5.11-.23-.41-.33-1.14.15-1.69.57-.67 1.91-1.91 2.08-2.08.89-.86 1.47-.42 2.01-.25 1.89.6 3.88 1.66 5.77 2.21.71.21 1.08.26 1.51-.45l3.78-5.72c.07-.25-.03-.62-.15-.84-1.33-1.86-3.18-3.63-4.45-5.5-.35-.52-.52-.83-.38-1.49.11-.5.44-1.5.62-2 .19-.54.43-.88.97-1.09 2-.77 4.86-.87 6.94-1.59.28-.1.43-.22.66-.39l.15-.61.23-6.87c-.08-1.09-1.33-1.11-2.1-1.37-1.87-.64-3.74-1.27-5.62-1.87-.23-.16-.43-.34-.56-.6-.15-.3-.55-1.86-.59-2.21-.06-.45.03-.82.31-1.18l5.14-5.27c.14-.2.21-.48.22-.73 0-.41-2.08-3.76-2.45-4.41-.33-.58-.98-2.23-1.56-2.48-.24-.1-.48-.05-.73 0-2.27.42-4.69 1.48-6.98 1.95-.34.06-.66-.05-.94-.24-.27-.19-1.32-1.26-1.53-1.55-.15-.21-.33-.47-.33-.74 0-.32.2-1.25.28-1.63.34-1.68.88-3.42 1.18-5.1.07-.39.21-1.21.03-1.52l-6.43-3.6-.5-.13-.57.25c-1.58 1.63-2.97 3.48-4.55 5.11-.86.88-.89.92-2.14.69-.45-.08-1.17-.25-1.59-.4-.5-.18-.6-.41-.82-.87-.97-2.05-1.5-4.71-2.45-6.81-.13-.31-.43-.5-.74-.56-2.19.36-4.89.13-7.02.6-.64.14-.74.54-.87 1.14-.4 1.91-.55 4-.96 5.91-.13.61-.23 1.38-.76 1.74-.1.07-.43.21-.82.37-.64.26-1.44.55-1.66.61-.35.09-.76.14-1.07-.06l-5.89-4.45c-.31-.22-.71-.25-1.06-.13l-4.44 6.07 10.12 9.28c4.1-4.46 9.64-6.56 11.43-6.96 5.77-1.28 11.72.08 17.05 4.54 8.08 6.77 11.3 22.64-2.43 37.83-2.7 2.87-6.22 6.23-9.16 9"/><path fill="#fdc62a" d="M32.927 56.08c-.98-1.09-1.04-2.9-1.81-4.32-1.99-3.68-6.43-5.44-10.45-5.49-.82 16.34 24.44 16.27 24.17 0-5.82-.22-11.64 3.64-11.91 9.81"/><path fill="#fdc62a" d="m32.927 66.94-1.81-4.31c-2-3.66-6.45-5.44-10.45-5.49-.76 16.37 24.42 16.33 24.17 0-5.72-.15-11.67 3.79-11.91 9.81M32.757 33.67c-4.66 3.91-5.47 10.51-1.73 15.38 1.23 1.6 1.41 1.82 2.78.38 4.19-4.43 3.23-11.72-1.05-15.76"/></svg>