<svg xmlns="http://www.w3.org/2000/svg" width="172" height="38" fill="none" viewBox="0 0 172 38"><path fill="#fff" d="M137.6 33.7c-2.6 0-3.3-1-3.3-3.6V14.3h5.9l.7-3.2h-6.6V4.2h-3.2c-.6 1.6-1.4 3.1-2.5 4.4 1.5 1.1 2.4 2.8 2.4 4.7 0 3-2.4 5.5-5.4 5.8h-.1v11.5c0 5.2 2.5 7.3 7.3 7.3 4.4 0 7-1.9 8.3-3.1v-1.5c-.8.1-2.4.4-3.5.4M155.9 17.7c-.4-1.2-.7-2-.7-2.7 0-1.4.6-1.9 1.7-2.2l1.4-.4V11h-16v1.5l1 .3c1.3.4 1.8 1.1 3.1 4.1l8.4 20.4h4.7l1.9-4.9zM161.7 11v1.5l1.4.4c1.1.3 1.6.9 1.6 2.1 0 .8-.2 1.6-.7 2.8l-2.9 8.5 1.3 3.4 4.8-12.2c1.4-3.5 2-4.2 3.3-4.6l.9-.3V11zM.3 34.3c0-1.2.4-3.2.8-4.7l3-11.3c.1-.7.2-1.3.2-1.6 0-1.2-.9-1-2.7.3l-.7.4-.9-1.1c2.4-2.7 6.3-5.8 9.9-5.8 2.5 0 3.3 1.7 3.3 3.7 0 .8-.2 2.8-.9 5.3L9.5 30.1c-.1.5-.3 1.2-.3 1.6 0 1.2.7 1.3 2.3.3l1.2-.7.9 1.2c-2.1 2.1-6.1 5.2-9.9 5.2-2.5 0-3.4-1.8-3.4-3.4M16.3 24.2c0-10.4 8.2-13.7 15.4-13.7 5 0 8.2 1.6 8.2 4.8 0 2.1-1.4 3.6-3.6 3.6-2.8 0-3.6-2-3.8-4.2-.2-1.8-.4-2.1-2.1-2.1-2.5 0-5.4 1.4-5.4 9.3 0 7.3 2.1 11.2 7.7 11.2 3 0 5.1-.8 7-1.8V33c-1.4 1.9-5.1 4.7-10.7 4.7-8.2 0-12.7-5.3-12.7-13.5M69.2 35.7l1.1-.3c1.8-.5 1.9-.7 1.9-2.9V17.2c0-2.1-.2-2.3-1.6-3.4L69 12.7v-1l11.2-1.2.6.4-.1 3.6h.2c1.5-1.7 4.3-4 7.3-4 2.4 0 4 1.3 4 3.9 0 2.5-1.6 3.9-3.6 3.9-2.4 0-3-.6-4.1-2.3-.2-.5-.6-.6-1-.6-.8 0-1.8.5-2.4 1.1v15.9c0 2.4.1 2.6 1.7 2.9l1.4.2V37h-15zM93 24.2c0-9.8 6.9-13.7 13.8-13.7 7.2 0 13.8 4.3 13.8 13.5 0 9.8-6.8 13.8-13.8 13.8-7.3-.1-13.8-4.5-13.8-13.6m18.5.2c0-10.4-1.8-11.9-4.9-11.9-2.9 0-4.6 2-4.6 10.8 0 10.5 1.5 12.3 4.9 12.3 2.7 0 4.6-1.3 4.6-11.2M14.6 3.2c-.3-1.1-1-2-1.9-2.6-.7-.4-1.4-.6-2.2-.6-.3 0-.7 0-1 .1Q7.85.55 7.1 1.9c-.7.9-.9 2.1-.6 3.3.6 2.2 2.8 3.6 5.1 3 .5-.1.9-.3 1.3-.6.5-.3.9-.8 1.2-1.3.6-.9.7-2.1.5-3.1M64.3 30.9V17.4c0-5-3.9-6.9-10.2-6.9-7.6 0-11.5 2-11.5 5.2 0 2.1 1.3 3.2 3.6 3.2 2.7 0 3.9-1.2 4.1-4.6.1-1.4.5-1.7 1.9-1.7 2.5 0 3.3 1 3.3 5.3v14.8c-.4.7-1.2 1.2-2.4 1.2-1.7 0-3.1-.9-3.1-4.2 0-3.5 1.1-4.6 3.5-4.8v-2.3l-2.5.6c-6.1 1.5-9.4 3.5-9.4 7.9 0 4.2 2.8 6.6 7.5 6.6 3.3 0 5.4-1.5 6.7-3.1h.2c.6 2 2.4 3.1 5.4 3.1 3.1 0 5.2-1.1 6.2-1.8v-1.3c-.6 0-1.7-.2-2.3-.5-.8-.6-1-1.3-1-3.2"/><path fill="#1173cb" d="M127.9 9.4q-.15 0 0 0c-.7-.5-1.4-.7-2.1-.8h-.5c-2.6 0-4.7 2.1-4.7 4.7 0 2.5 1.9 4.5 4.4 4.7h.6c2.4-.2 4.3-2.2 4.3-4.7 0-1.6-.8-3-2-3.9"/></svg>