<svg xmlns="http://www.w3.org/2000/svg" width="1142" height="631" fill="none" viewBox="0 0 1142 631"><path fill="#005095" d="M7.899 285h58c19.882 0 36 16.118 36 36v310h-52c-23.196 0-42-18.804-42-42zM.899 201c0-15.464 12.536-28 28-28h42c15.464 0 28 12.536 28 28v35c0 15.464-12.536 28-28 28h-42c-15.464 0-28-12.536-28-28zM137.899 226h58c20.987 0 38 17.013 38 38v240.5c0 37 7.5 43.5 35 43.5h43c17.673 0 32 14.327 32 32v51h-119c-87 0-87-54.5-87-104.5zM352.899 100c0-55.228 44.771-100 100-100H1041.9c55.23 0 100 44.772 100 100v431c0 55.228-44.77 100-100 100H452.899c-55.229 0-100-44.772-100-100z"/><path fill="#fff" d="m471.899 215 137.5 2.5c10-2.5 15-2.5 26.5-2.5 125 0 184 88 184 187.5 0 119-87 189.5-211.5 189.5h-8.5c-109.352 0-198-88.648-198-198v-9.5c0-88 70-169.5 70-169.5"/><path fill="#fff" d="M594.899 47h141l-127 170.5-137-2.5zM989.899 47h75.001v535H948.899V238.5l-73 67-78.5-81.5z"/><path fill="#005095" d="M516.899 403c0-50.81 41.19-92 92-92h6c50.81 0 92 41.19 92 92s-41.19 92-92 92h-6c-50.81 0-92-41.19-92-92"/></svg>