<svg xmlns="http://www.w3.org/2000/svg" width="466" height="298" fill="none" viewBox="0 0 466 298"><path fill="#000" d="M33.053 61c6.5-32 28.5-61 75-61h355.5v13h-355.5c-36 0-56 28-60 48L17.335 285l-1.782 13h-15z"/><path fill="#000" d="M433.053 237c-6.5 32-28.5 61-75 61H2.553v-13h355.5c36 0 56-28 60-48L448.77 13l1.783-13h15z"/><path fill="#fff" d="M48.053 61 17.335 285h340.718c36 0 56-28 60-48L448.77 13H108.053c-36 0-56 28-60 48"/><path fill="#fe0002" d="M80.553 43h54l-30 209h-54z"/><path fill="#008510" d="M176.553 43h54l-30 209h-54z"/><path fill="#008510" d="M145.553 43h116l-8 54h-116z"/><path fill="#005ed0" d="M270.553 43h53l1 130 38-130h54l-74 209h-59z"/></svg>