<svg xmlns="http://www.w3.org/2000/svg" width="333" height="293" fill="none" viewBox="0 0 333 293"><path fill="url(#a)" d="M75.1 292.7h194.6c29.5 0 62.9-33.4 62.9-74.7V74.7c0-41.2-33.4-74.7-74.7-74.7H75.1C33.9 0 .4 33.4.4 74.7V218c0 41.2 21.7 74.7 74.7 74.7"/><path fill="url(#b)" d="M101.372 285.268v-1.732c0-48.674 27.405-96.049 50.488-127.228 19.624-26.588 39.507-46.248 47.115-53.437H62.815V61.819h204.542v35.25l-.605.519c-85.24 77.168-94.058 127.487-102.444 176.074l-1.815 10.134-.259 1.385h-60.862z"/><path fill="#4f4f4f" d="M265.542 63.55V96.29c-91.551 82.884-95.182 133.983-104.778 187.247h-57.663c0-93.364 100.283-182.397 100.283-182.397H64.544V63.551h201.084M269 60.087H61v44.516h133.566c-9.164 8.921-26.8 27.109-44.176 50.666-14.697 19.92-26.454 39.753-34.84 58.98-10.547 24.164-15.993 47.461-15.993 69.287V287h63.973l.519-2.858c.605-3.378 1.21-6.842 1.816-10.22 8.817-50.579 17.117-98.3 101.925-175.122l1.124-1.039V60z"/><path fill="#fdcb30" d="M62.792 56.366a1 1 0 0 1-.79-.359c-.198-.239-.238-.557-.198-.837l9.047-38.974c.118-.439.513-.758.948-.758h11.22a.99.99 0 0 1 .79.359c.197.24.236.558.197.837l-9.047 38.975c-.118.438-.513.757-.948.757zM92.658 56.366a1 1 0 0 1-.79-.359c-.198-.239-.238-.557-.198-.837l7.11-30.685H84.323a.99.99 0 0 1-.79-.359c-.198-.24-.237-.558-.198-.837l1.62-7.054c.119-.438.514-.757.948-.757h42.824a.99.99 0 0 1 .79.359c.198.239.237.558.198.837l-1.62 7.054c-.119.438-.514.757-.948.757h-15.131l-7.229 31.164c-.119.438-.514.757-.948.757h-11.22.04zM162.74 56.366a.99.99 0 0 1-.79-.359c-.198-.239-.237-.557-.198-.837l9.047-38.974c.119-.439.514-.758.948-.758h11.22c.316 0 .592.12.79.359.197.24.237.558.197.837l-7.111 30.686h25.086a.99.99 0 0 1 .79.358c.198.24.237.558.198.837l-1.62 7.054c-.118.438-.513.757-.948.757H162.74zM203.391 56.366a.99.99 0 0 1-.79-.359c-.198-.239-.237-.557-.198-.837l9.047-38.974c.119-.439.514-.758.948-.758h11.22c.316 0 .592.12.79.359.197.24.237.558.197.837l-9.046 38.975c-.119.438-.514.757-.948.757zM110.079 56.326a.95.95 0 0 1-.869-.558c-.158-.319-.118-.717.079-1.036l27.891-38.935a.92.92 0 0 1 .79-.399c.316 0 12.563.12 12.563.12.474 0 .83.319.948.757l9.086 38.856a.94.94 0 0 1-.197.837 1 1 0 0 1-.79.358h-11.417a.94.94 0 0 1-.949-.797l-1.422-7.054H127.62l-5.017 7.413a.98.98 0 0 1-.83.438c-.356 0-11.733-.04-11.733-.04zm33.936-16.578-2.41-11.836-8.02 11.836zM217.336 56.326a.95.95 0 0 1-.869-.558c-.158-.319-.118-.717.079-1.036l27.891-38.935a.92.92 0 0 1 .79-.399c.316 0 12.563.12 12.563.12.474 0 .829.319.948.757l9.086 38.856a.94.94 0 0 1-.197.837 1 1 0 0 1-.79.358H255.42a.94.94 0 0 1-.949-.797l-1.422-7.054h-18.172l-5.017 7.413a.98.98 0 0 1-.83.438c-.356 0-11.733-.04-11.733-.04h.039zm33.975-16.578-2.41-11.836-8.019 11.836z"/><path fill="#72251f" d="M127.373 26.079c.909 0 1.699-.638 1.936-1.554l1.62-7.054c.118-.598 0-1.196-.395-1.674a1.94 1.94 0 0 0-1.541-.757H86.169c-.592 0-1.106.239-1.461.677a1.89 1.89 0 0 0-1.462-.677h-11.22c-.908 0-1.698.638-1.935 1.554L61.044 55.57c-.119.598 0 1.196.395 1.674a1.94 1.94 0 0 0 1.54.757H74.2c.909 0 1.699-.638 1.936-1.554l7.15-30.845c.356.318.79.478 1.264.478h13.235l-6.835 29.45c-.118.598 0 1.196.395 1.674a1.94 1.94 0 0 0 1.541.757h11.22c.908 0 1.698-.638 1.935-1.554l7.032-30.367h14.341-.04zM74.199 55.968H62.98l9.047-38.975h11.22zm29.866 0h-11.22l7.388-31.922H84.51l1.62-7.053h42.824l-1.62 7.053h-15.921l-7.387 31.922zM131.916 41.342h13.511l-3.121-15.303zm3.753-1.993 5.65-8.329 1.698 8.33zM239.213 41.342h13.511l-3.121-15.303zm3.713-1.993 5.65-8.329 1.698 8.33z"/><path fill="#72251f" d="m269 55.53-9.086-38.856c-.198-.877-.988-1.515-1.896-1.554L245.455 15c-.632 0-1.225.319-1.62.837L217.643 52.34l8.099-34.91c.118-.598 0-1.196-.395-1.674a1.94 1.94 0 0 0-1.541-.757h-11.22c-.908 0-1.698.638-1.935 1.554l-7.19 31.005c-.356-.399-.869-.598-1.423-.598h-23.861l6.835-29.45c.118-.598 0-1.196-.395-1.674a1.94 1.94 0 0 0-1.541-.757h-11.22c-.908 0-1.698.637-1.935 1.554l-8.652 37.38-8.731-37.3c-.197-.877-.987-1.515-1.896-1.555l-12.563-.12c-.632 0-1.224.32-1.619.838l-27.891 38.935a1.96 1.96 0 0 0-.158 2.072 1.97 1.97 0 0 0 1.738 1.076h11.733a1.81 1.81 0 0 0 1.62-.837l4.74-6.974h16.83l1.264 6.257c.197.916.988 1.594 1.936 1.594h11.417a1.94 1.94 0 0 0 1.54-.757c.356.478.949.757 1.541.757h37.53c.632 0 1.185-.319 1.58-.797.356.478.949.757 1.541.757h11.22c.553 0 1.027-.239 1.382-.598.356.32.83.518 1.344.558H229.1a1.8 1.8 0 0 0 1.619-.837l4.741-6.974h16.829l1.264 6.257c.198.917.988 1.594 1.936 1.594h11.417c.593 0 1.185-.279 1.541-.757s.513-1.116.355-1.714H269zm-120.61.438-1.58-7.851h-19.516l-5.333 7.85h-11.733c0-.04 27.891-38.974 27.891-38.974l12.562.12 9.087 38.855h-11.417zm14.499 0 9.046-38.975h11.22l-7.388 31.92h26.35l-1.619 7.055zm40.69 0 9.047-38.975h11.219l-9.046 38.975zm52.108 0-1.581-7.851h-19.515l-5.333 7.85h-11.733c0-.04 27.89-38.974 27.89-38.974l12.563.12 9.086 38.855h-11.417z"/><defs><linearGradient id="a" x1=".4" x2="332.6" y1="146.4" y2="146.4" gradientUnits="userSpaceOnUse"><stop offset=".2" stop-color="#fff" stop-opacity="0"/><stop offset="1" stop-color="#fbdc33"/></linearGradient><linearGradient id="b" x1="-10.832" x2="306.075" y1="189.234" y2="-37.163" gradientUnits="userSpaceOnUse"><stop stop-color="#bebebf"/><stop offset=".5" stop-color="#e1e1e1"/><stop offset=".8" stop-color="#f7f7f7"/><stop offset="1" stop-color="#fff"/></linearGradient></defs></svg>