<svg xmlns="http://www.w3.org/2000/svg" width="616" height="215" fill="none" viewBox="0 0 616 215"><path fill="#015b63" d="M21 0C8.648 0 0 12.09 0 22v170c0 14.056 10.002 23 23 23h57v-44l46 40c3.354 2.897 6.421 4 12 4h26.812c8.012 0 14.711-3.561 18.813-8.75 3.906 5.216 10.172 8.75 18.375 8.75h18c4.358 0 9.42-2.27 14-6l16-13.031V215h57c14.335 0 23-10.729 23-23v-21l44 38c3.899 3.367 7.892 6 14 6h26.812c7.717 0 14.18-3.529 18.313-8.844C436.933 211.512 443.453 215 453 215h55v-63h29v63h56c14.112 0 23-8.889 23-23V22c0-12.274-8.459-22-22-22H489l-51 40.656V22c0-10.55-9.397-22-22-22h-28c-6.328 0-9.438 2.06-14 6l-44 38V22c0-10.568-9.587-22-22-22H201c-7.494 0-13.702 3.3-17.594 8.469C179.414 3.313 173.157 0 166 0h-28c-4.741 0-8.877 1.285-12 4L80 44V0zm487 60h29v27h-29zm-79 3.25v88.312L374 107.5zm-250 .094v88.125L125 107.5z"/><path fill="#ffeb1b" d="M21 8C14.445 8 8 14.89 8 22v170c0 9.824 5.176 15 15 15h49v-54l60 52c1.503 1.31 3.595 2 6 2h26.812c8.967 0 15.188-5.052 15.188-15v-29.219L111 107.5 180 52V22c0-9.228-6.158-14-14-14h-28c-2.89 0-4.394.608-6 2L72 62V8zm180 0c-8.126 0-14 5.694-14 14v30h64V8zm57 0v199h49c10.367 0 15-6.432 15-15v-39l60 52c1.503 1.31 3.595 2 6 2h26.812c8.967 0 15.188-5.052 15.188-15v-29.219L361 107.5 430 52V22c0-8.963-6.951-14-14-14h-28c-2.89 0-4.394.608-6 2l-60 52V22c0-7.659-4.755-14-14-14zm233 0-54 43.844V192c0 8.845 5.795 15 16 15h47v-63h45v63h48c10.118 0 15-5.708 15-15V22c0-7.778-6.276-14-14-14zm9 44h45v43h-45zm-313 8v132c0 8.79 4.172 15 15 15h18c2.242 0 4.281-.624 6-2l25-20V74c0-8.306-5.874-14-14-14z"/></svg>