<svg xmlns="http://www.w3.org/2000/svg" width="2049" height="1541" fill="none" viewBox="0 0 2049 1541"><path fill="#0196d0" d="M.898 106c0-58.542 47.458-106 106-106H1942.9c58.54 0 106 47.458 106 106v1329c0 58.54-47.46 106-106 106H106.898c-58.542 0-106-47.46-106-106z"/><path fill="#fff" d="M30.898 107c0-41.974 34.027-76 76-76H1942.9c41.97 0 76 34.026 76 76v1327c0 41.97-34.03 76-76 76H106.898c-41.973 0-76-34.03-76-76z"/><path fill="#231f20" d="M204.898 904.475V659.521h86.638v104.407l56.079-104.407h100.069l-74.212 120.637 84.622 124.317H351.141l-59.605-102.399v102.399zM469.512 904.475V659.521h89.827v244.954zM584.86 883.56l28.208-68.6q19.98 13.553 34.084 19.241 14.607 6.19 27.536 6.191 9.402 0 14.439-3.346 5.037-3.681 5.037-9.37 0-10.04-26.025-15.728-5.54-1.004-13.096-2.677c-18.357-4.573-36.794-12.493-46.645-23.759q-14.439-16.9-14.439-42.499 0-38.985 28.543-64.417C641.419 662.199 670.49 654 701.048 654q21.827 0 41.64 5.521 20.988 5.522 41.304 16.732l-26.865 64.083q-13.432-9.705-25.353-14.389-14.103-4.853-25.185-4.853-9.235 0-14.44 3.179-4.869 3.18-4.869 8.534 0 10.54 36.939 18.07 4.869 1.506 8.898 2.175 25.353 5.521 39.793 23.257 14.775 17.234 14.775 42.499 0 40.826-29.55 66.425-14.776 13.051-34.084 19.409Q704.741 911 681.572 911q-23.675 0-48.188-6.86t-48.524-20.58M795.073 883.56l28.208-68.6q19.98 13.553 34.084 19.241 14.607 6.19 27.536 6.191 9.402 0 14.439-3.346 5.037-3.681 5.037-9.37 0-10.04-26.025-15.728-5.54-1.004-13.096-2.677-27.536-6.86-42.311-23.759-14.44-16.9-14.44-42.499 0-38.985 28.544-64.417Q865.424 654 911.261 654q21.828 0 41.64 5.521 20.988 5.522 41.304 16.732l-26.865 64.083q-13.433-9.705-25.353-14.389-14.103-4.853-25.185-4.853-9.235 0-14.44 3.179-4.869 3.18-4.869 8.534 0 10.54 36.939 18.07 4.869 1.506 8.898 2.175 25.354 5.521 39.793 23.257 14.775 17.234 14.775 42.499 0 40.826-29.55 66.425-14.776 13.051-34.084 19.409-19.31 6.358-42.48 6.358-23.673 0-48.187-6.86t-48.524-20.58M1049.9 904.475V659.521h86.64v104.407l56.07-104.407h100.07l-74.21 120.637 84.62 124.317h-106.95l-59.6-102.399v102.399zM1314.51 904.475V659.521h89.83v244.954zM1429.86 883.56l28.21-68.6q19.98 13.553 34.08 19.241 14.61 6.19 27.54 6.191c6.27 0 11.08-1.116 14.44-3.346 3.36-2.454 5.03-5.578 5.03-9.37 0-6.693-8.67-11.936-26.02-15.728-3.69-.669-8.06-1.562-13.1-2.677-18.35-4.573-36.79-12.493-46.64-23.759-9.63-11.266-14.44-25.433-14.44-42.499 0-25.99 9.51-47.462 28.54-64.417 18.92-16.397 47.99-24.596 78.55-24.596q21.825 0 41.64 5.521c13.99 3.681 27.76 9.259 41.3 16.732l-26.86 64.083c-8.96-6.47-17.41-11.266-25.36-14.389-9.4-3.235-17.79-4.853-25.18-4.853-6.16 0-10.97 1.06-14.44 3.179-3.25 2.12-4.87 4.964-4.87 8.534 0 7.027 12.31 13.05 36.94 18.07 3.24 1.004 6.21 1.729 8.9 2.175 16.9 3.681 30.16 11.433 39.79 23.257 9.85 11.489 14.78 25.656 14.78 42.499 0 27.217-9.85 49.359-29.56 66.425q-14.775 13.051-34.08 19.409T1526.57 911c-15.78 0-31.84-2.287-48.19-6.86-16.34-4.573-32.51-11.433-48.52-20.58M1640.07 883.56l28.21-68.6q19.98 13.553 34.08 19.241 14.61 6.19 27.54 6.191c6.27 0 11.08-1.116 14.44-3.346q5.04-3.681 5.04-9.37c0-6.693-8.68-11.936-26.03-15.728-3.69-.669-8.06-1.562-13.09-2.677-18.36-4.573-32.46-12.493-42.32-23.759q-14.43-16.9-14.43-42.499c0-25.99 9.51-47.462 28.54-64.417 18.92-16.397 43.65-24.596 74.21-24.596q21.825 0 41.64 5.521c13.99 3.681 27.76 9.259 41.3 16.732l-26.86 64.083c-8.95-6.47-17.41-11.266-25.35-14.389-9.41-3.235-17.8-4.853-25.19-4.853-6.15 0-10.97 1.06-14.44 3.179-3.24 2.12-4.87 4.964-4.87 8.534 0 7.027 12.32 13.05 36.94 18.07 3.25 1.004 6.21 1.729 8.9 2.175 16.9 3.681 30.17 11.433 39.79 23.257 9.85 11.489 14.78 25.656 14.78 42.499q0 40.826-29.55 66.425c-9.85 8.701-21.21 15.17-34.09 19.409Q1759.955 911 1736.78 911q-23.67 0-48.18-6.86c-16.35-4.573-32.52-11.433-48.53-20.58"/><path fill="#0196d0" d="M316.398 369h318.5l101.5 167h6.5l-4-256H1250.4v59.5H798.898l3 275.5h-87l-113.5-187h-173.5l125 187h-71z"/><path fill="#0196d0" d="M1733.9 369h-309.5l-110.5 167h-6.5l4-256h-61v59.5l-2 275.5h84l124.5-187h165.5l-125 187h71zM316.398 1194h318.5l101.5-167h6.5l-4 256H1250.4v-59.5H798.898l3-275.5h-87l-113.5 187h-173.5l125-187h-71z"/><path fill="#0196d0" d="M1733.9 1194h-309.5l-110.5-167h-6.5l4 256h-61v-59.5l-2-275.5h84l124.5 187h165.5l-125-187h71z"/></svg>