<svg xmlns="http://www.w3.org/2000/svg" width="246" height="184" fill="none" viewBox="0 0 246 184"><path fill="#fff" d="M201.1 0c4.1 1.2 8.2 2.9 12.6 5.3 1.7.9 6.5 4 6.7 4.1.4.3.7.8.7 1.3v37.6c0 .9-.7 1.6-1.6 1.6h-29c-.7 0-1.3-.4-1.5-1l-.3-.9c-3.8-10.2-7-14.5-17.6-14.5-16.5 0-24.9 11.8-24.9 35 0 21 11.8 34 30.8 34 8.4 0 15.6-1.2 23.9-4.2l10.5-3.6c.8-.3 1.7.1 2 1l10.7 29.7c.3.7 0 1.5-.6 1.9-7.5 4.9-17.9 8.7-28.1 11.1h50.2V0zM63.5 87.7c0 2.2 2 3.5 4.5 3.5 4.2 0 6.8-3.8 6.8-7.5-1.4-.1-3-.2-4.6-.2-3.7 0-6.7 1.1-6.7 4.2"/><path fill="#fff" d="M98.9 71.1c0-20.1 7.5-38.8 21.2-52.6 8.7-8.8 19.4-15 31.3-18.5H0v138.3h146.1c-10.6-2.8-19.6-7.5-26.8-14.1-13.6-12.2-20.4-30.1-20.4-53.1M75.7 97.8c-.1-1.7-.2-3.4-.2-5h-.1c-2.5 4-5.6 5.7-10.1 5.7-5.7 0-10.8-2.5-11.7-8v7.3h-29V55.1h11.3v34.2h17.5v-.9c0-9.7 10.6-10.9 16.4-10.9 1.8 0 3.7.2 5.1.4-.1-4.3-3.3-5.5-7.3-5.5-3.5 0-7.1.7-10.1 2.4l-.2-7.5c3.9-1.6 8-2.3 12.7-2.3 8.1 0 15.2 3.5 15.2 13.2v11.9c0 2.5.1 5 .6 7.5H75.7zM24.4 150.8h10.9l10.9 21.8h.1l-.1-21.8h7.7v32.1H43.3L32.1 161H32l.3 21.9h-7.9zM65.9 173.3c.5 3.3 3 4.6 7 4.6 2.3 0 4.8-.5 7.3-1.8v5.8c-2.7 1.1-5.7 1.5-8.8 1.5-7.9 0-13.9-4.6-13.9-12.6 0-7.9 5.4-12.5 12.8-12.5 8.9 0 12.1 6.3 12.1 13.4v1.5H65.9zm9.1-4.7c0-2.8-1.3-5-4.6-5-3 0-4.4 2.3-4.6 5zM83.8 158.9h4.9v-5.4l8.1-2.5v7.9h5.8v5.8h-5.8v8.8c0 2.9.7 4.4 3.3 4.4.8 0 1.7-.2 2.5-.3l.3 5.4c-1.6.2-3.1.5-5.2.5-7.4 0-9.2-3.3-9.2-9v-9.8h-4.7zM103.3 158.9h8.6l3.9 17.2h.1l4.1-17.2h9.9l4 17.2h.1l3.8-17.2h8l-7.3 24h-9.6l-4-17.3h-.1l-4.6 17.3h-9.6zM146.8 170.9c0-8 6-12.6 13.9-12.6s13.9 4.6 13.9 12.6c0 7.9-6 12.5-13.9 12.5s-13.9-4.6-13.9-12.5m19.3 0c0-3.6-1.6-6.8-5.4-6.8s-5.4 3.2-5.4 6.8c0 3.5 1.6 6.7 5.4 6.7s5.4-3.1 5.4-6.7M194.9 165.6c-.9-.3-1.8-.3-2.8-.3-3.9 0-6 2.8-6 7.5v10.1h-8.3v-24h7.5v4.4h.1c1.4-3 3.5-5 7.1-5 1 0 2 .1 2.8.3zM197.4 148.4h8.3V169h.1l6.9-10.1h9.1l-8.3 11 9 13h-10l-6.6-11.9h-.1v11.9h-8.3v-34.5z"/></svg>