<svg xmlns="http://www.w3.org/2000/svg" width="300" height="353" fill="none" viewBox="0 0 300 353"><path fill="url(#a)" d="M299.7 184H0v168.5h299.7z"/><path fill="#fff" d="M67.7 242.7c16.9 0 25.8 10.1 25.8 26.5 0 16.3-9 26.5-25.8 26.5s-25.8-10.2-25.8-26.5c0-16.4 8.8-26.5 25.8-26.5m0 43c8.3 0 11.7-7.9 11.7-16.4 0-8.9-3.3-16.4-11.7-16.4-8.3 0-11.7 7.5-11.7 16.4 0 8.4 3.3 16.4 11.7 16.4M112.3 256.6v7h.1c2.7-5.5 7.9-7.9 14-7.9 10.4 0 14.6 7.3 14.6 15.3v24h-13.2v-18.5c0-7.2-2.6-9.6-6.1-9.6-5.5 0-8.3 3.8-8.3 12v16.2h-13.2v-38.5zM165.2 243.6H182l19.8 51.3h-14.9l-3.8-10.9h-19.2l-4 10.9H146zm8.4 10.6h-.1l-6.6 20h12.9zM221.2 250.3H208v-9.7h13.2zm-13.2 6.3h13.2v38.3H208zM258.4 267.2c-1.5-.5-2.9-.5-4.5-.5-6.2 0-9.6 4.5-9.6 12v16.2h-13.2v-38.3h12v7h.1c2.3-4.9 5.6-7.9 11.3-7.9 1.6 0 3.2.2 4.5.5zM260.8 6.9C255.4 4.1 250.4 2 245.4.5h54.4v168.4h-61.2c12.5-2.9 25.1-7.6 34.3-13.5.8-.5 1.1-1.4.8-2.3L260.6 117c-.4-1-1.5-1.6-2.5-1.2l-12.7 4.4c-10.2 3.6-19 5.1-29.2 5.1-23.2 0-37.6-15.9-37.6-41.4 0-28.3 10.2-42.7 30.3-42.7 12.9 0 16.9 5.2 21.5 17.6l.4 1.1c.3.8 1 1.3 1.8 1.3H268c1 0 1.9-.8 1.9-1.9V13.5c0-.6-.4-1.2-.9-1.6-.051-.025-.47-.29-1.101-.688l-.002-.001c-1.853-1.17-5.531-3.49-7.097-4.311M91.3 102.4c0 4.6-3.2 9.2-8.3 9.2-3.1 0-5.5-1.6-5.5-4.3 0-3.7 3.6-5.1 8.1-5.1 2 0 4 .1 5.7.2"/><path fill="#fff" fill-rule="evenodd" d="M146.6 23.1c-16.7 16.7-25.9 39.5-25.9 64 0 28.1 8.3 49.9 24.8 64.8 8.8 8 19.8 13.7 32.7 17.1H0V.6h184.8c-14.5 4.2-27.6 11.8-38.2 22.5M43.8 67.6H30v52h35.3v-8.906c1.176 6.731 7.374 9.806 14.3 9.806 5.5 0 9.2-2.2 12.3-7h.1c0 1.305.085 2.61.172 3.942.046.71.093 1.428.128 2.158l12.2-.1c-.6-3.1-.7-6.1-.7-9.2V95.9c0-11.9-8.6-16.1-18.5-16.1-5.7 0-10.7.9-15.5 2.8l.2 9.1c3.8-2.1 8.1-2.9 12.4-2.9 4.9 0 8.8 1.4 8.9 6.7-1.8-.3-4.1-.5-6.3-.5-7.1 0-20 1.5-19.9 13.3q0 .511.033 1H43.8z" clip-rule="evenodd"/><defs><linearGradient id="a" x1="266.9" x2="32.8" y1="151.2" y2="385.3" gradientUnits="userSpaceOnUse"><stop stop-color="#00a6e6"/><stop offset=".003" stop-color="#00a5e5"/><stop offset=".111" stop-color="#007dc4"/><stop offset=".197" stop-color="#0065af"/><stop offset=".25" stop-color="#005ca8"/><stop offset=".516" stop-color="#522974"/><stop offset=".75" stop-color="#82256c"/><stop offset=".793" stop-color="#8b226c"/><stop offset=".863" stop-color="#a3186a"/><stop offset=".951" stop-color="#cb0a68"/><stop offset="1" stop-color="#e40067"/></linearGradient></defs></svg>