<svg xmlns="http://www.w3.org/2000/svg" width="184" height="184" fill="none" viewBox="0 0 184 184"><path fill="#13b0e7" d="M0 50C0 22.386 22.386 0 50 0h84c27.614 0 50 22.386 50 50v84c0 27.614-22.386 50-50 50H50c-27.614 0-50-22.386-50-50z"/><path fill="#fff" d="M17 50c0-18.225 14.775-33 33-33h84c18.225 0 33 14.775 33 33v84c0 18.225-14.775 33-33 33H50c-18.225 0-33-14.775-33-33z"/><path fill="#13b0e7" d="M60.642 140q-5.634 0-8.638-3.03Q49 133.751 49 127.882V56.308q0-5.87 3.004-8.9t8.45-3.03 8.45 3.03 3.004 8.9v12.875l-2.065-4.733q4.131-10.035 12.768-15.148Q91.437 44 102.515 44q11.079 0 18.214 4.166 7.136 4.166 10.703 12.686Q135 69.183 135 82.06v45.823q0 5.87-3.004 9.088-3.004 3.03-8.638 3.03-5.633 0-8.825-3.03-3.005-3.219-3.005-9.088V83.195q0-10.793-4.131-15.716-3.942-4.923-12.393-4.923-10.327 0-16.524 6.627-6.008 6.438-6.008 17.231v41.468q0 12.118-11.83 12.118"/></svg>