<svg xmlns="http://www.w3.org/2000/svg" width="927" height="352" fill="none" viewBox="0 0 927 352"><path fill="#fff" d="M0 150.679h3.15c11.758 0 11.758-2.944 11.758-27.508V40.578c0-24.529 0-27.543-11.758-27.543H0V7.008h68.873v6.028h-3.15c-11.759 0-11.759 2.943-11.759 27.542v108.629h18.688c23.308 0 38.006-8.235 38.496-33.254h9.239v40.718H0zm110.028-98.958c6.72-.84 18.688-5.046 18.688-12.825 0-1.892-.84-2.733-3.499-2.733-9.029 0-20.368-4.205-20.368-19.133C104.989 7.008 113.388 0 124.517 0c13.998 0 21.418 10.302 21.418 24.81 0 20.394-15.959 31.537-34.997 34.27zm192.76-38.685c-13.439 0-15.958 3.153-15.958 34.27V99.87c0 40.788-20.158 60.131-59.494 60.131-34.996 0-55.644-20.569-55.644-49.058V41.419c0-23.337 0-28.383-15.119-28.383V7.007h69.153v6.028c-12.389 0-15.118 1.05-15.118 13.455v88.936c0 16.189 5.039 33.465 31.706 33.465 29.397 0 35.277-28.033 35.277-49.864V55.716c0-42.05-3.5-42.68-17.498-42.68V7.007h42.695z"/><path fill="#fff" d="M300.968 150.679c14.489 0 14.699-17.03 14.699-26.912V40.578c0-24.529 0-27.543-11.759-27.543h-3.15V7.008h53.965a613 613 0 0 0 32.756 53.824l34.226 53.193h.21V39.947c0-9.881-.21-26.912-14.698-26.912h-2.73V7.008h41.366v6.028c-14.489 0-14.699 17.03-14.699 26.911v118.406h-26.247l-79.651-121.98h-.42v87.254c0 9.882.21 26.912 14.698 26.912h2.73v6.132h-41.296zm145.235 0h3.15c11.758 0 11.758-2.944 11.758-27.508V40.578c0-24.529 0-27.543-11.758-27.543h-3.15V7.008h68.873v6.028h-3.15c-11.759 0-11.759 2.943-11.759 27.542v82.453c0 24.529 0 27.508 11.759 27.508h3.15v6.132h-68.873zm73.492-68.892c0-44.363 21.838-78.283 69.083-78.283s69.152 33.92 69.152 78.283S636.093 160 588.848 160s-69.153-33.85-69.153-78.213m97.22 0c0-34.27 0-72.116-27.997-72.116s-27.997 37.845-27.997 72.116 0 72.116 27.997 72.116 27.997-37.845 27.997-72.116m43.255 68.892c14.489 0 14.699-17.03 14.699-26.912V40.578c0-24.529 0-27.543-11.759-27.543h-3.15V7.008h53.965a613 613 0 0 0 32.756 53.824l34.227 53.193h.209V39.947c0-9.881-.209-26.912-14.698-26.912h-2.73V7.008h41.226v6.028c-14.488 0-14.699 17.03-14.699 26.911v118.406h-26.247l-79.441-121.98h-.42v87.254c0 9.882.21 26.912 14.698 26.912h2.73v6.132H660.17z"/><path fill="#fff" d="M802.955 150.679h3.15c11.759 0 11.759-2.944 11.759-27.508V40.578c0-24.529 0-27.543-11.759-27.543h-3.15V7.008h121.367v35.883h-9.239c-3.149-18.292-10.499-28.594-30.237-28.594h-27.997V75.69h18.479c13.228 0 23.517-2.733 25.197-23.128h7.559v54.035h-7.559c-1.89-20.184-12.179-23.548-25.617-23.548h-18.059v66.263h19.528c20.788 0 39.476-2.347 40.946-31.152h9.239v38.546H802.955z"/><path fill="#009be7" d="M521.806 352a376 376 0 0 0-16.576-46.634l-37.502-97.909c-3.525-8.907-7.5-8.907-16.801-8.907V192h79.204v6.55c-7.5 0-17.101 0-17.101 8.084 0 5.352 14.476 38.25 16.276 44.762h48.602c3.751-9.207 13.876-34.657 13.876-40.982 0-11.864-8.55-11.864-18.451-11.864V192h49.728v6.55c-9.226 0-13.051 5.165-17.101 12.351-16.201 28.519-37.802 88.701-51.078 119.766-1.35 3.368-7.2 17.74-8.1 21.108zm7.5-100.604 22.726 61.081 25.876-61.081z"/><path fill="#009be7" d="M451.035 192v43.531h-9.901l-.035-1.241c-.984-25.78-16.631-34.311-41.217-34.311h-.812v116.132c0 26.298 0 29.446 12.601 29.446h2.947v5.049l.428 1.394h-75.459v-6.443h3.431c12.81 0 12.81-3.148 12.81-29.446V199.979h-.825c-25.391 0-41.404 8.804-41.938 35.552H303V192z"/></svg>