<svg xmlns="http://www.w3.org/2000/svg" width="557" height="180" fill="none" viewBox="0 0 557 180"><path fill="#0063af" d="M148.932 96.907c5.468-6.328 23.247-23.902 53.293-23.902 16.629 0 30.411 8.186 37.899 21.506 3.889 6.94 6.08 14.9 6.08 26.104v28.145h-29.047v-26.491c0-5.854-.57-9.088-1.655-11.977-2.793-7.455-9.034-10.667-17.843-10.667-13.309 0-24.578 9.378-33.956 18.154-9.432 8.82-22.924 22.838-29.595 30.39-.677.774-1.483 1.075-2.353.806-.838-.279-1.128-.924-1.128-2.213v-25.857c0-14.48-7.691-21.28-20.131-21.28-14.846 0-27.017 11.687-41.562 25.932-11.355 11.118-21.764 22.258-36.385 37.576-.709.752-1.482 1.075-2.363.795-.838-.268-1.128-.913-1.128-2.202v-54.84c0-5.757-2.782-9.646-9.647-9.646H0V75.41h45.88c7.703 0 12.236 4.373 12.236 12.171v12.58s25.696-27.157 54.002-27.157c24.041 0 33.624 14.524 36.814 23.902m189.377-23.902c-47.889 0-70.223 41.337-70.223 67.602 0 19.143 5.006 30.261 10.248 38.812h32.464c-5.833-8.605-13.589-21.184-13.589-38.812 0-21.378 17.091-40.982 40.971-40.982 18.273 0 31.325 12.096 38.845 18.025 10.946 8.637 28.37 22.935 36.524 30.251.762.698 1.471 1.095 2.352.805.838-.257 1.128-.923 1.128-2.191V12.171C417.029 4.372 412.496 0 404.804 0h-45.88v21.84h18.724c6.864 0 9.646 3.877 9.646 9.646v61.973c-16.522-16.716-34.762-20.454-48.985-20.454m156.162 27.157v-12.58c0-7.798-4.534-12.17-12.225-12.17h-45.881V97.24h19.401c6.875 0 9.657 3.889 9.657 9.646v55.034c0 1.278.29 1.933 1.118 2.212.88.269 1.654-.064 2.374-.816 6.488-6.811 21.699-23.107 31.582-32.721 22.409-21.786 40.187-30.97 55.721-30.97v-26.62c-19.702 0-26.416 2.9-38.06 9.088-8.551 4.544-18.348 12.697-23.687 18.069"/></svg>