<svg xmlns="http://www.w3.org/2000/svg" width="1235" height="754" fill="none" viewBox="0 0 1235 754"><path fill="#fff" d="m911.3 352.3-.5.3c-5 3.4-10.4 6.1-16 8.1-6.8 2.4-13.8 3.7-20.8 3.7-7.9 0-14.9-1.3-20.7-3.8-3.3-1.4-6.4-3.2-9.2-5.4L840 352l-4.3 2.9c-3.9 2.6-8.1 4.7-12.4 6.4-.9.4-1.9.7-2.8 1l-7.8 2.5 3.5 7.5c1.9 4.2 2.9 8.8 2.9 13.8 0 7.6-2.2 14.3-6.6 19.8l-3.2 4 2.7 4.3c1.4 2.2 2 4.9 1.8 7.6l-3.6 34.1 15.7-20.2c3.2-4.1 6.7-7.8 10.7-10.9 5.9-4.8 13-8.7 21-11.4 7.9-2.7 17.1-4.1 27.2-4.1 8.5 0 16.5.5 23.8 1.4.6.1 1.3.2 1.9.3 1.3-11.3 2-22.8 2-34.5-.2-8.1-.6-16.2-1.2-24.2M346.5 295.7l10.6-3.4c.5-.1 1-.3 1.4-.4 4.2-.8 8.6.8 11.3 4.1 1.9 2.3 3.8 4.6 5.8 6.9 2 2.4 4 4.8 6 7.1 2.6 3.2 3.4 7.6 2.1 11.5-2 5.6-5.1 11.1-9.3 16.3l-.2.2c-.2.2-.3.4-.5.6l-10 12.1 17.2-.2h2.7c11.4 0 21.5 1.7 30.2 5s16 7.7 22 13l.3.3 2.2 2.1.1.1c4.7 4.8 8.5 10.1 11.1 15.8 3.1 6.7 4.8 13.5 5 20.2.2 6.9-.5 13.6-2.2 19.9l-3.6 13.1-8 10.5c-1.3 1.7-2.7 3.4-4.2 4.9l-3.4 3.7 2.2 4.5c.5 1.1 1 2.3 1.6 3.7l8.3 22.4 5.6-23.2c.8-3.1 1.6-6.3 2.6-9.3l4.6-14.1 7.2-10c1.9-2.6 4-5.1 6.1-7.2 4.4-4.5 9.7-8.1 15.6-10.8 6.1-2.7 13-4.1 20.5-4.1 4 0 7.8.4 11.5 1.3 1.1.3 2.2.5 3.2.9l3.8 1.1 3-2.6c2.3-2 5.3-3 8.2-2.8l47.2 2.1c3.2.1 6.3 1.6 8.4 4.1s3.1 5.7 2.8 8.9l-3.5 34.2 16.3-25c1.9-3 4-5.7 6.2-8.1 4.4-4.9 9.6-8.8 15.4-11.7 6.2-3 13.2-4.6 20.9-4.6 4.2 0 7.9.3 11.2.9l7.7 1.3 4.9-48.5h-44.1c-1.8 0-3.6-.4-5.3-1.3l-3.3-1.6-3.3 1.6c-1.7.8-3.4 1.3-5.3 1.3h-50.4c-3.4 0-6.6-1.4-8.8-4-2.2-2.5-3.3-5.9-2.9-9.2l2.2-19.4-2.8-2.5c-1.4-1.3-2.8-2.5-4.3-3.8-4-3.6-8.3-7.2-12.8-10.8-3-2.4-6.2-4.9-9.4-7.3l-7.9-5.8-3.3 9.3c-1.6 4.5-3 9-4.2 13.3-1.5 5.4-2.7 10.7-3.6 15.6q-1.2 7.05-1.2 12.9c0 6.5-5.3 11.8-11.8 11.8h-36.9c-2.6 0-5.1-.9-7.2-2.5l-1.6-1.6c0-.1-.1-.1-.1-.2-1.8-2.1-2.8-4.9-2.8-7.7 0-5.4.6-11.4 1.8-18.3.9-5 2-10.3 3.4-15.8l3-11.8-11.8 2.9c-2.9.7-5.8 1.1-8.9 1.1-4.8 0-9.4-.9-13.9-2.7-4.4-1.8-8.4-4.3-11.8-7.5s-6.2-7.1-8.3-11.5c-2.2-4.6-3.2-9.7-3.2-15.1 0-8 1.9-15.1 5.6-21.1 3.6-5.8 8.5-10.5 14.6-14.1 5.5-3.2 12-5.6 19.2-7.1 12.1-2.5 26-2.9 40.9-.4 2 .3 4.1.8 6.2 1.2l5 1.1 2.7-4.3c4.9-7.6 10.2-15.2 15.7-22.4 8.7-11.4 18.4-21.5 28.6-30.2 10.5-8.8 21.8-16 33.7-21.3 17-7.6 35.3-10.1 54.2-7.1 5.1.8 10.3 2.1 15.5 3.8 5.3 1.8 8.6 6.9 8 12.4l-4.6 46.9 51.8-2.3c2.7-.1 5.5.7 7.6 2.4l2.9 2.2 3.5-1c4.5-1.3 9.2-2 14.1-2 11.3 0 20.7 2.8 28 8.3l4 3 4.2-2.6c1.5-.9 3-1.8 4.6-2.5 8-4 16.4-6 24.9-6 7.6 0 14.3 1.2 20.1 3.4 6.1 2.4 11.3 6 15.3 10.6.6.7 1.2 1.4 1.9 2.3l11.1 14.9 2.1-20.2c.3-3.3 2.1-6.3 4.7-8.3l5.4-4-3.6-5.7c-3.1-5-4.7-10.8-4.7-17.3 0-1.5.1-2.9.3-4.3-54.1-60.7-132.8-99-220.3-99-116.8 0-218 68.2-265.7 166.9zM825 555.4c-.1-.1-.3-.3-.5-.4l-4.1-3.1-4.3 2.8c-4.7 3-9.7 5.5-14.9 7.4-6.8 2.4-13.8 3.7-20.8 3.7-7.9 0-14.9-1.3-20.7-3.8-3.6-1.5-7-3.6-10-6l-4-3.3-4.4 2.7c-4.6 2.9-9.4 5.1-14.3 6.8-6.3 2.1-12.7 3.2-18.9 3.2-10.8 0-19.8-2.5-26.9-7.4-.4-.2-.7-.5-1.1-.8l-4.2-3.1-4.3 2.9c-1.1.8-2.3 1.5-3.7 2.3-3.2 1.9-6.9 3.5-11.1 4.7-4.4 1.4-9.5 2-15 2-8.6 0-16.2-1.6-22.7-4.7-3.9-1.8-7.5-4.2-10.7-7l-4.2-3.7-4.6 3.1c-5 3.4-10.3 6.1-15.7 8.1-6.6 2.5-13.4 3.7-20.1 3.7-11.5 0-21.4-2.9-28.8-8.3l-4.1-3-4.2 2.8c-1 .7-2 1.3-3.1 2q-4.8 2.85-11.1 4.8c-4.4 1.4-9.5 2-15 2-8.7 0-16.5-1.6-23.1-4.9-3.1-1.5-6-3.3-8.6-5.4l-4.1-3.3-4.4 2.9c-5.4 3.6-11.1 6.4-16.8 8.4-6.3 2.2-12.5 3.3-18.4 3.3h-.5c-12.2.9-21.8-.3-29.7-3.5-1.3-.5-2.6-1.1-3.8-1.8 54.1 66.8 136.8 109.6 229.3 109.6 91.4 0 173.2-41.8 227.4-107.3-7.7-1.2-14.3-4.2-19.8-8.4"/><path fill="#fff" d="M618 699.2c-14.1 0-28.3-.9-42.6-2.8-50.2-6.6-96.7-24.2-138.4-52.3l8.1-12c39.8 26.9 84.3 43.7 132.2 50 48.5 6.4 96.4 1.4 142.3-14.8l4.8 13.7c-34.6 12.1-70.2 18.2-106.4 18.2M789.4 121.2c-39.8-26.9-84.3-43.7-132.2-50-48.5-6.4-96.3-1.4-142.2 14.8l-4.8-13.7c48-16.9 98.2-22.2 149-15.5 50.2 6.6 96.7 24.2 138.4 52.3zM617.3 753.2c-56.8 0-111.4-12.3-162.3-36.7l6.3-13.1c48.9 23.4 101.4 35.3 156 35.3 55.3 0 108.4-12.2 157.9-36.1l6.3 13.1c-51.5 24.9-106.7 37.5-164.2 37.5M459.4 50.7l-6.3-13.1C504.5 12.7 559.7 0 617.3 0c56.8 0 111.4 12.3 162.3 36.7l-6.3 13.1c-48.9-23.4-101.4-35.3-156-35.3-55.4 0-108.5 12.2-157.9 36.2"/><path fill="#fff" d="M617.5 726.9c-26.3 0-52.6-3-78.7-9-52.3-12-99.8-35.1-141.2-68.5l9.1-11.3c39.7 32 85.3 54.1 135.4 65.7 50.7 11.7 102 11.5 152.3-.4l3.3 14.1c-26.5 6.3-53.3 9.4-80.2 9.4M827.8 115.1c-39.7-32-85.3-54.1-135.4-65.7-50.7-11.7-102-11.5-152.3.4l-3.3-14.1c52.5-12.4 106-12.6 158.9-.4 52.3 12 99.8 35.1 141.2 68.5zM414.1 582.1c-10.6 0-19.7-1.6-27.7-4.8-5.1-2.1-9.7-4.7-13.9-7.8-4.9 5.6-12.1 9-19.8 9H303c-7.4 0-14.6-3.2-19.6-8.7s-7.4-12.9-6.7-20.3l6.9-68.8c-2.7.5-5.5.7-8.3.7-8 0-15.5-1.8-22.2-5.2-6.2-3.2-11.6-7.6-16-13.1-4.1-5-7.2-10.8-9.2-17.1-1.9-5.9-2.9-12.1-2.9-18.4 0-12 2.8-23.2 8.2-33.3 2.9-5.4 6.5-10.5 10.8-15.2-8.2-.4-15.6-2.1-22.3-4.9-7.9-3.3-14.7-8.1-20.2-14.2l-.2.5c-4 10.2-13.6 16.8-24.6 16.8h-39.5c-6 0-11.8-2.1-16.4-5.7-4.6 3.7-10.4 5.7-16.4 5.7H59.8c-8.1 0-15.6-3.6-20.6-10-5-6.3-6.9-14.5-5.1-22.4L49 280.3c-7.6-.2-14.7-1.9-21.1-5.2-6.3-3.3-11.7-7.7-16.1-13.3-3.9-5-6.9-10.7-9-16.8C1 238.9 0 232.7 0 226.4c0-10.5 2.3-20.5 6.7-29.8 4-8.4 9.6-16.2 16.5-23.2 6.5-6.5 14.1-12.2 22.6-17.1q12-6.9 25.8-11.7c9-3.1 18.6-5.5 28.3-7.1s19.6-2.4 29.5-2.4c7.5 0 14.9.6 21.7 1.7 11.1 1.9 19.8 10.5 21.7 21.6l5.3 31.5 16.2-37.6c4.2-9.7 13.7-15.9 24.2-15.9h49.8c7.2 0 14.2 3 19.2 8.3.6.7 1.3 1.4 1.8 2.2 8.9-6.4 19.9-9.7 32.7-9.7 14.5 0 26.6 4.1 36.1 12.2 10.5 9 16.1 21.3 16.1 35.4 0 9.2-2.4 17.7-7 25 1.5 3.9 2.1 8.1 1.6 12.3l-5.9 55.2c7 .6 13.5 4 18 9.5.3.4.6.7.9 1.1-1.6-5-2.5-10.3-2.5-15.8 0-10.7 2.6-20.4 7.7-28.7 4.8-7.8 11.4-14.2 19.6-19 6.9-4 14.8-7 23.6-8.8 13.8-2.8 29.6-3.3 46.2-.5.6.1 1.3.2 1.9.3 4.3-6.5 8.9-13 13.7-19.2 9.4-12.2 19.7-23.1 30.8-32.4 11.5-9.7 24-17.6 37.2-23.5 19.5-8.7 40.7-11.7 62.4-8.2 5.9.9 11.9 2.4 17.8 4.4 11.7 3.9 19.1 15.3 17.9 27.6l-3 30.2 35.1-1.6h1.2c4.4 0 8.8 1.1 12.7 3.3 4.8-1.2 9.8-1.7 14.9-1.7 12.6 0 23.6 2.8 32.7 8.4.5-.3 1-.5 1.6-.8 10-5 20.6-7.5 31.3-7.5 9.4 0 18 1.5 25.4 4.4 5.4 2.1 10.2 4.9 14.5 8.4.6-.9 1.2-1.8 1.9-2.7-2.8-6-4.1-12.6-4.1-19.8 0-14.1 5.6-26.4 16.1-35.4 9.5-8.1 21.6-12.2 35.9-12.2 14.5 0 26.6 4.1 36.1 12.2 10.5 9 16.1 21.3 16.1 35.4 0 9.2-2.4 17.7-7 25 .1.4.3.8.4 1.1 3.9-3.2 8.2-6.1 12.8-8.6 9.9-5.3 21.6-8 34.7-8 4.3 0 8.5.5 12.5 1.4 4-2 8.5-3 13.1-2.8l47.6 2.3c7.2.3 14 3.7 18.7 9.1.7.8 1.3 1.6 1.9 2.5 5.5-3.4 11.5-6.3 18-8.5 9.4-3.2 20.2-4.8 31.9-4.8 9.1 0 17.7.5 25.7 1.5 10.1 1.3 19.3 4.1 27.3 8.5 9.4 5.1 17.1 12.5 22.8 22 1.3 2.2 2.5 4.6 3.6 7.1 1.3-.2 2.5-.5 3.7-.8 2.9-.6 4.3-1.1 4.9-1.3q4.2-1.5 8.7-1.5c6.2 0 12.2 2.2 16.9 6.1 7.1 5.9 10.6 15.3 9.1 24.4l-4.6 28.5c-1.5 9.2-7.8 17-16.4 20.4-6.9 2.7-13.9 4.7-20.8 6.1-1.5 5.5-3.5 10.8-5.9 16-3.1 6.6-7.1 12.8-11.8 18.6-5.2 6.4-11.6 11.9-18.9 16.6-7.2 4.6-15.7 8.2-25.1 10.7-9.1 2.4-19.3 3.6-30.5 3.6-10.6 0-20.3-.8-28.7-2.4-8.1-1.5-15.5-4.2-22-8 0 .1-.1.2-.1.3-1 4-2.3 7.9-3.7 11.8-5.6 17-14.9 30.2-27.7 39.1-7.8 5.4-16.6 9.3-26.5 11.4 2.4 1 4.6 2.4 6.7 4.1 7.1 5.9 10.6 15.3 9.1 24.4l-4.6 28.5c-1.5 9.2-7.8 17-16.4 20.4-6.9 2.7-13.9 4.7-20.8 6.1-1.5 5.5-3.5 10.8-5.9 16-3.1 6.6-7.1 12.8-11.8 18.6-5.2 6.4-11.6 11.9-18.9 16.6-7.2 4.6-15.7 8.2-25.1 10.7-9.1 2.4-19.3 3.6-30.5 3.6-10.6 0-20.3-.8-28.7-2.4-9.3-1.7-17.6-5-24.7-9.7-4.4 2.5-8.9 4.6-13.6 6.3-8.3 3-17 4.5-25.7 4.5-9.8 0-18.7-1.7-26.4-4.9-3.3-1.4-6.4-3.1-9.4-5.1-4.2 2.3-8.6 4.2-13 5.7-7.8 2.7-15.8 4-23.6 4-12.5 0-23.4-2.8-32.4-8.2-.1.1-.2.1-.3.2-4.2 2.4-8.9 4.5-14.2 6.1-5.8 1.8-12.3 2.7-19.3 2.7-10.7 0-20.5-2-28.9-6.1-3.4-1.6-6.7-3.5-9.7-5.7-4.6 2.7-9.4 5-14.3 6.8-8.3 3.1-16.7 4.6-25.1 4.6-12.6 0-24-2.9-33.2-8.3-4.1 2.4-8.8 4.4-13.9 5.9-5.8 1.8-12.3 2.7-19.3 2.7-10.9 0-20.9-2.1-29.5-6.4-2.4-1.2-4.8-2.5-7-4-5.1 3-10.5 5.5-15.9 7.4-7.7 2.6-15.4 4-22.8 4.1-2.5.7-5.2.8-7.9.8m412.3-171c.3.8.6 1.6.8 2.4 7.3-5.9 15.8-10.6 25.5-13.8 9.4-3.2 20.2-4.8 31.9-4.8 9.1 0 17.7.5 25.7 1.5.3 0 .6.1 1 .1q-.75-5.4.9-10.8l-.7-16.3c-.9-.6-1.7-1.2-2.6-1.8-4.7 2.7-4 5-9 6.9-8.3 3-17 4.5-25.7 4.5-9.8 0-18.7-1.7-26.4-4.9-2.9-1.2-5.6-2.7-8.2-4.3-2.4 1.4-5 2.7-7.5 3.8 1.1 4 1.6 8.2 1.6 12.6-.3 9.1-2.7 17.7-7.3 24.9m-433.5-74.8c9.6.7 18.3 2.6 26.2 5.6 3.5 1.4 6.9 2.9 10.1 4.5.2-5 .9-10.4 1.9-16.4.4-2.1.8-4.3 1.3-6.6-7 .2-13.9-1.1-20.4-3.7-5.1-2-9.7-4.8-13.9-8.2 1.2 4.9 1 10-.7 14.8-1.2 3.4-2.7 6.7-4.5 10m55.3 23.7.1.1c2.1 1.6 4.6 2.5 7.2 2.5h36.9c6.5 0 11.8-5.3 11.8-11.8q0-5.85 1.2-12.9c.8-4.9 2-10.2 3.6-15.6 1.2-4.3 2.6-8.8 4.2-13.3l3.3-9.3 7.9 5.8c3.3 2.4 6.4 4.9 9.4 7.3 4.5 3.6 8.8 7.3 12.8 10.8 1.5 1.3 2.9 2.6 4.3 3.8l2.8 2.5-2.2 19.4c-.4 3.4.7 6.7 2.9 9.2s5.5 4 8.8 4h50.4c1.9 0 3.7-.4 5.3-1.3l3.3-1.6 3.3 1.6c1.7.8 3.5 1.3 5.3 1.3h44.1L670 411l-7.7-1.3c-3.3-.6-7-.9-11.2-.9-7.7 0-14.7 1.5-20.9 4.6-5.8 2.9-11 6.8-15.4 11.7-2.2 2.4-4.2 5.1-6.2 8.1l-16.3 25 3.5-34.2c.3-3.2-.7-6.5-2.8-8.9-2.1-2.5-5.2-3.9-8.4-4.1l-47.2-2.1c-2.9-.1-6 .9-8.2 2.8l-3 2.6-3.8-1.1c-1.1-.3-2.1-.6-3.2-.9-3.6-.9-7.5-1.3-11.5-1.3-7.5 0-14.5 1.4-20.5 4.1-5.9 2.6-11.2 6.2-15.6 10.8-2.1 2.2-4.2 4.6-6.1 7.2l-7.2 10-4.6 14.1c-1 3-1.9 6.1-2.6 9.3l-5.6 23.2-8.3-22.4c-.5-1.4-1-2.6-1.6-3.7l-2.2-4.5 3.4-3.7c1.4-1.5 2.8-3.2 4.2-4.9l8-10.5 3.6-13.1c1.7-6.3 2.5-13.1 2.2-19.9-.3-6.7-2-13.5-5-20.2-2.6-5.7-6.3-11-11.1-15.8l-.1-.1-2.2-2.1-.3-.3c-5.9-5.3-13.3-9.7-22-13s-18.8-5-30.2-5h-2.7l-17.2.2 10-12.1c.2-.2.3-.4.5-.6l.2-.2c4.2-5.2 7.3-10.7 9.3-16.3 1.4-3.9.6-8.3-2.1-11.5-2-2.4-4-4.7-6-7.1-1.9-2.3-3.9-4.6-5.8-6.9-2.7-3.3-7.1-4.9-11.3-4.1-.5.1-1 .2-1.4.4l-10.6 3.4 8-75.1c.3-2.6-.3-5.3-1.8-7.6l-2.7-4.3 3.2-4c4.4-5.5 6.6-12.2 6.6-19.8 0-9.8-3.8-18.2-11-24.4-6.8-5.8-15.7-8.7-26.6-8.7-10.8 0-19.7 2.9-26.5 8.7-1.1.9-2.2 2-3.2 3.1l-9.5 10.6-3-13.9c-.5-2.1-1.5-4.1-2.9-5.6-2.2-2.4-5.4-3.7-8.6-3.7H219c-4.7 0-9 2.8-10.9 7.2L172 241l-13.5-80.1c-.8-5-4.8-8.9-9.7-9.7-6.1-1-12.6-1.5-19.4-1.5-9.1 0-18.2.7-27.1 2.2-9 1.5-17.7 3.7-25.9 6.5-8.3 2.9-16.1 6.4-23.3 10.5-7.4 4.3-14 9.3-19.6 14.8-5.8 5.8-10.4 12.2-13.7 19.1-3.5 7.3-5.3 15.2-5.3 23.5 0 4.8.7 9.5 2.2 13.9 1.5 4.6 3.7 8.7 6.6 12.4 3.1 3.9 6.9 7.1 11.4 9.4 4.6 2.4 9.9 3.6 15.5 3.6 2.3 0 4.6-.2 6.8-.6l11-2.1-19.7 85.2c-.8 3.5 0 7.2 2.3 10s5.6 4.5 9.3 4.5h44.6c4.1 0 8-2.2 10.2-5.8l6.2-10.4 6.2 10.4c2.1 3.6 6 5.8 10.2 5.8h39.5c4.9 0 9.2-3 11-7.5l10.9-27.8 7.4 14c1.5 2.8 3.3 5.5 5.3 7.9 4.2 5 9.6 8.8 16 11.5 6.1 2.6 13.3 3.9 21.3 3.9 3 0 6.4-.7 9.9-1.4 2.6-.5 5.2-1.1 7.9-1.4l22.2-2.7-16.4 15.2c-1.9 1.7-4 3.1-5.9 4.3-1.2.8-2.4 1.6-3.3 2.3-7.2 5.8-12.9 12.6-17 20.2-4.3 7.9-6.5 16.8-6.5 26.4 0 4.8.7 9.5 2.2 13.9 1.5 4.6 3.8 8.8 6.7 12.5q4.65 5.85 11.4 9.3c4.6 2.4 9.9 3.6 15.5 3.6 4.8 0 9.4-.9 13.8-2.8l11.2-4.7-9.2 91.5c-.3 3.3.8 6.7 3 9.1 2.2 2.5 5.4 3.9 8.8 3.9h49.7c5.1 0 9.6-3.3 11.3-8.1l3.9-11.9 8.4 9.3c4.1 4.5 9.3 8.1 15.6 10.6 7.9 3.2 17.5 4.3 29.7 3.5h.5c6 0 12.2-1.2 18.4-3.3q8.7-3 16.8-8.4l4.4-2.9 4.1 3.3c2.7 2.1 5.6 3.9 8.6 5.4 6.6 3.2 14.4 4.9 23.1 4.9 5.5 0 10.6-.7 15-2q6.3-1.95 11.1-4.8c1.1-.6 2.2-1.3 3.1-2l4.2-2.8 4.1 3c7.4 5.4 17.3 8.3 28.8 8.3 6.7 0 13.4-1.3 20.1-3.7 5.4-2 10.7-4.8 15.7-8.1l4.6-3.1 4.2 3.7c3.2 2.8 6.8 5.1 10.7 7 6.5 3.1 14.2 4.7 22.7 4.7 5.5 0 10.6-.7 15-2 4.2-1.3 7.9-2.9 11.1-4.7 1.3-.8 2.5-1.5 3.7-2.3l4.3-2.9 4.2 3.1c.3.3.7.5 1.1.8 7 4.9 16.1 7.4 26.9 7.4 6.3 0 12.6-1.1 18.9-3.2 4.9-1.7 9.7-3.9 14.3-6.8l4.4-2.7 4 3.3c3 2.4 6.3 4.4 10 6 5.9 2.5 12.9 3.8 20.7 3.8 7.1 0 14.1-1.2 20.8-3.7 5.2-1.9 10.2-4.4 14.9-7.4l4.3-2.8 4.1 3.1c.2.1.3.2.5.4 6 4.7 13.5 7.9 22.1 9.5 7.5 1.4 16.3 2.1 26 2.1 9.9 0 19-1.1 26.8-3.1 8-2.1 15.1-5.1 21.1-8.9s11.2-8.4 15.4-13.5c4-4.9 7.3-10.2 9.9-15.6 2.5-5.4 4.5-11 5.9-16.7l1.3-5.9 4.9-.8c1.1-.2 2.1-.3 3.2-.5 6.4-1.2 13-3 19.4-5.5 3.9-1.5 6.7-5 7.4-9.2l4.6-28.5c.7-4.1-.9-8.3-4.1-11-3.2-2.6-7.6-3.5-11.5-2.1-1.6.6-3.8 1.2-6.5 1.8-3 .7-6.1 1.3-9.4 1.8l-7.1 1.1-1.9-5.9c-1.2-3.7-2.7-7-4.5-10-1.2-2-2.6-3.9-4.1-5.8 0 0-2-3.3-9.1-8.1s-13-6.6-13-6.6c-4.2-1.4-8.7-2.4-13.3-3-7.3-.9-15.4-1.4-23.8-1.4-10.1 0-19.3 1.4-27.2 4.1-8 2.7-15.1 6.6-21 11.4-3.9 3.2-7.5 6.9-10.7 10.9L809.9 456l3.6-34.1c.3-2.6-.3-5.3-1.8-7.6L809 410l3.2-4c4.4-5.5 6.6-12.2 6.6-19.8 0-5-1-9.6-2.9-13.8l-3.5-7.5 7.8-2.5c.9-.3 1.9-.6 2.8-1 4.4-1.7 8.5-3.8 12.4-6.4l4.3-2.9 4.1 3.2c2.8 2.2 5.9 4 9.2 5.4 5.9 2.5 12.9 3.8 20.7 3.8 7.1 0 14.1-1.2 20.8-3.7 5.6-2 11-4.7 16-8.1l4.7-3.1 4.2 3.7c2.7 2.3 5.6 4.4 8.7 6.1l5.7 3-8.1 27.5c-1.2 4.1-.1 8.5 2.8 11.6l3.7 3.7s4.6 3.8 8.7 6.6 10.6 5.2 10.6 5.2c2.4.8 4.9 1.5 7.3 1.9 3.7.7 8 1 12.5 1 15 0 27.8-3.6 38-10.8s17.7-17.9 22.2-31.9l.1-.3c1.3-3.4 2.4-6.9 3.3-10.4s1.6-6.9 2.2-10.1l.1-.3 2.3-13 9.8 8.9c.8.7 1.6 1.4 2.4 2 6.1 4.7 13.5 7.9 22.2 9.5 7.5 1.4 16.3 2.1 26 2.1 9.9 0 19-1.1 26.8-3.1 8-2.1 15.1-5.1 21.1-8.9s11.2-8.4 15.4-13.5c4-4.9 7.3-10.2 9.9-15.6 2.5-5.4 4.5-11 5.9-16.7l1.3-5.9 4.9-.8c1.1-.2 2.1-.3 3.2-.5 6.4-1.2 13-3 19.4-5.5 3.9-1.5 6.7-5 7.4-9.2l4.6-28.5c.7-4.1-.9-8.3-4.1-11-3.2-2.6-7.6-3.5-11.5-2.1-1.6.6-3.8 1.2-6.5 1.8-3 .7-6.1 1.3-9.4 1.8l-7.1 1.1-1.9-5.9c-1.2-3.7-2.7-7-4.5-10-4.4-7.3-10.1-12.9-17.2-16.7-6.5-3.5-13.9-5.8-22.2-6.8-7.3-.9-15.4-1.4-23.8-1.4-10.1 0-19.3 1.4-27.2 4.1-8 2.7-15.1 6.6-21 11.4l-.1.1-9.5 7.9-2.3-12.1c-.4-2.1-1.3-4-2.7-5.5-2.1-2.5-5.2-3.9-8.4-4.1l-47.6-2.3c-2.5-.1-5.1.6-7.3 2.1l-2.9 2-3.4-1.1-.9-.3c-3.2-.9-6.7-1.4-10.4-1.4-10.7 0-20.1 2.1-27.8 6.3-7.5 4-13.8 9.3-18.9 15.7-.6.8-1.2 1.5-1.7 2.3l-16 21.9 3.7-34.5c.3-2.6-.3-5.3-1.8-7.6l-2.7-4.3 3.2-4c4.4-5.5 6.6-12.2 6.6-19.8 0-9.8-3.8-18.2-11-24.4-6.8-5.8-15.7-8.7-26.6-8.7-10.8 0-19.7 2.9-26.5 8.7-7.2 6.2-11 14.6-11 24.3 0 6.5 1.6 12.3 4.7 17.3l3.6 5.7-5.4 4c-2.7 2-4.4 5-4.7 8.3l-2.1 20.2-11.1-14.9c-.7-.9-1.3-1.7-1.9-2.3-4-4.6-9.2-8.2-15.3-10.6-5.7-2.3-12.5-3.4-20.1-3.4-8.5 0-16.9 2-24.9 6-1.6.8-3.1 1.6-4.6 2.5l-4.2 2.6-4-3c-7.3-5.5-16.8-8.3-28-8.3-4.8 0-9.6.7-14.1 2l-3.5 1-2.9-2.2c-2.2-1.6-4.9-2.5-7.6-2.4l-51.8 2.3 4.6-46.9c.5-5.5-2.8-10.6-8-12.4-5.2-1.7-10.4-3-15.5-3.8-18.9-3-37.3-.4-54.2 7.1-11.9 5.3-23.2 12.5-33.7 21.3-10.3 8.7-19.9 18.8-28.6 30.2-5.5 7.2-10.8 14.7-15.7 22.4l-2.7 4.3-5-1.1c-2.1-.5-4.2-.9-6.2-1.2-14.9-2.5-28.8-2.1-40.9.4-7.2 1.5-13.7 3.9-19.2 7.1-6.1 3.6-11 8.3-14.6 14.1-3.7 6-5.6 13.1-5.6 21.1 0 5.4 1.1 10.5 3.2 15.1 2.1 4.4 4.9 8.3 8.3 11.5s7.4 5.7 11.8 7.5 9.1 2.7 13.9 2.7c3 0 6-.4 8.9-1.1l11.8-2.9-3 11.8c-1.4 5.5-2.6 10.8-3.4 15.8-1.2 6.9-1.8 12.9-1.8 18.3 0 2.8 1 5.5 2.8 7.7 0 .1.1.1.1.2zm88.6 34.4h1.2l47.2 2.1c7.2.3 14.1 3.6 18.8 9.1 1.6 1.8 2.8 3.8 3.9 5.9 4.8-4.5 10.1-8.2 16-11.1 8.2-4 17.4-6.1 27.3-6.1 2.1 0 4.1.1 6 .2l1.8-17.4h-28.1c-2.9 0-5.8-.5-8.5-1.4-2.8.9-5.7 1.4-8.6 1.4h-50.4c-7.5 0-14.7-3.2-19.7-8.8s-7.4-13.1-6.5-20.6l1.4-12c-.5-.4-.9-.8-1.4-1.3-3.8-3.4-8-6.9-12.3-10.4-.3-.2-.6-.5-.9-.7-.3.9-.5 1.8-.8 2.7-1.4 5-2.5 9.7-3.2 14.2-.7 3.8-1 7.3-1 10.4 0 14.5-11.8 26.4-26.4 26.4h-31.3l1.8 3.6c3.9 8.5 6 17.1 6.3 25.7v2.2c3.7-2.7 7.6-4.9 11.9-6.8 8-3.5 16.9-5.3 26.4-5.3 5.1 0 10.1.6 14.9 1.7.1 0 .3.1.4.1 4-2.4 8.8-3.8 13.8-3.8"/><path fill="#fff" d="m560.3 270.2-10-6.9c-1.8-1.2-3.5-2.4-5.3-3.6l-6.1-4 4-6.1 3.3-4.8c1.3-1.9 2.6-3.7 4-5.5l15.9-21.3z"/><path fill="#ef4136" d="M251.4 427.5c0-7.6 1.7-14.6 5-20.8 3.4-6.2 8-11.7 14.1-16.6 6-4.8 13.2-9 21.5-12.5s17.3-6.4 27.1-8.7 20.1-4 31.1-5c10.9-1.1 22.1-1.6 33.5-1.6 10 0 18.6 1.4 26 4.2 7.3 2.8 13.4 6.4 18.3 10.7 4.8 4.3 8.5 9.2 10.9 14.5s3.8 10.6 4 15.8c.2 5.8-.4 11.3-1.9 16.6s-3.6 10.1-6.3 14.5-5.9 8.2-9.5 11.5-7.5 5.9-11.7 7.9c4.7 2 8.2 5.2 10.6 9.5q3.6 6.45 3.6 14.7c0 3.3-.2 6.9-.7 11s-.5 7.9 0 11.5 1.8 6.7 3.9 9.2 5.8 3.7 11 3.7c1.7 0 3.3-.3 4.7-.9s2.8-1.5 4.3-2.7c1.4-1.2 2.9-2.7 4.4-4.4s3.2-3.7 5-6c2 2.4 4.1 4.9 6.3 7.3 2.1 2.4 4.2 4.9 6.3 7.3-1.9 5.6-4.8 10.7-8.6 15.3s-8.1 8.5-12.8 11.8-9.7 5.8-14.9 7.6q-7.8 2.7-15 2.7h-.3c-10.4.8-18.7-.1-25.1-2.6-6.3-2.5-11.1-6.4-14.2-11.6s-5-11.5-5.6-19-.3-15.7.7-24.8c.7-6.8-.1-12.4-2.5-16.6q-3.6-6.45-13.5-6.6l-.5.6-7.9 77.2H303l15.4-153.3c-5.8.2-11.1 1.2-15.9 2.9s-9.4 4.8-13.9 9.3q5.4 3.15 8.4 8.7c2 3.7 3.1 7.3 3.1 11 0 3.3-.7 6.4-2 9.3-1.3 3-3.1 5.5-5.4 7.8-2.3 2.2-4.9 4-7.9 5.3s-6.1 1.9-9.4 1.9c-3.8 0-7.1-.8-10.1-2.3s-5.5-3.6-7.6-6.2-3.7-5.5-4.7-8.8-1.6-6.7-1.6-10.3m125.8-32c-1.1 0-2.5.1-4.3.2-1.7.2-3.2.3-4.4.5l-4.6 45.6h4.7c4.9 0 9.1-.9 12.7-2.7s6.5-4.1 8.8-6.8 4-5.6 5-8.7c1.1-3.1 1.6-6 1.5-8.6-.1-2.1-.6-4.4-1.5-6.6-.9-2.3-2.1-4.4-3.7-6.3s-3.6-3.5-6-4.7c-2.4-1.3-5.1-1.9-8.2-1.9"/><path fill="#ef4136" d="M602.4 504.9c1.9 2.3 3.9 4.7 5.9 7s3.9 4.7 5.9 7c-1.5 4.5-4 8.8-7.4 13s-7.4 7.9-12 11.2-9.5 6-14.9 7.9c-5.3 2-10.7 3-16 3-17 0-27.4-6.7-31.1-20.2-.8 1.4-1.6 2.7-2.4 4-.8 1.2-1.8 2.4-2.9 3.5-.8.8-2 2-3.7 3.4-1.6 1.5-3.7 2.9-6.1 4.4-2.4 1.4-5.3 2.6-8.6 3.7-3.3 1-7.2 1.5-11.5 1.5-6.9 0-12.9-1.2-17.9-3.7-5-2.4-9.1-5.8-12.3-10s-5.6-9.2-7.1-14.9-2.3-11.9-2.3-18.5c0-1.6.1-4.1.2-7.4q.15-4.95.9-11.4c.5-4.3 1.2-8.9 2.1-13.7.9-4.9 2.2-9.8 3.8-14.7s3.7-9.6 6.1-14c2.4-4.5 5.4-8.4 8.8-11.9s7.4-6.2 12-8.2 9.8-3.1 15.7-3.1c3.1 0 6 .3 8.7 1s5.3 1.5 7.6 2.4c2.3 1 4.5 2 6.4 3.1s3.6 2.2 5 3.2l1.4-11.9 47.2 2.1-8.1 80c-.2 1.7-.3 3.6-.2 5.5s.3 3.7.8 5.3 1.4 2.9 2.6 3.9 2.9 1.5 5 1.5c2 0 4-.5 6-1.4s3.8-2.1 5.5-3.4c1.7-1.4 3.1-2.9 4.3-4.6 1.3-1.5 2.1-3.1 2.6-4.6m-70.1-46.1c-.4-.8-1.1-1.8-2.1-3.1-1-1.2-2.6-1.8-4.9-1.8-2.7 0-5.4 1.1-7.9 3.4q-3.75 3.3-6.6 9.3t-4.5 14.4c-1.1 5.6-1.7 11.8-1.7 18.5 0 4.4.3 7.8.9 10.3s1.4 4.4 2.3 5.6 1.9 2 2.9 2.2c1 .3 1.9.4 2.7.4 2.4 0 5.1-.8 7.9-2.3s4.9-4.1 6.2-7.8z"/><path fill="#ef4136" d="M745.6 504.9c1.9 2.3 3.9 4.7 5.9 7s3.9 4.7 5.9 7q-2.55 7.5-7.8 13.8c-3.5 4.2-7.5 7.9-12 11s-9.3 5.5-14.4 7.3c-5.1 1.7-10.1 2.6-15.1 2.6-8.3 0-15-1.8-20.1-5.3-5-3.5-8.7-8.3-10.9-14.4l-2.4 3.9c-.8 1.3-1.7 2.5-2.8 3.6-.8.9-2 2.1-3.7 3.5-1.6 1.4-3.7 2.9-6.1 4.3s-5.3 2.6-8.6 3.7c-3.3 1-7.2 1.5-11.5 1.5-6.8 0-12.7-1.2-17.6-3.5s-9-5.6-12.3-9.7-5.7-9-7.3-14.7-2.4-11.9-2.4-18.5c0-1.1.1-3.2.2-6.3s.4-6.7.8-11.1c.5-4.3 1.1-9 2-14.1s2.1-10.2 3.7-15.4 3.5-10.2 5.9-15c2.3-4.8 5.2-9.1 8.6-12.9s7.4-6.8 11.9-9 9.7-3.4 15.6-3.4c5.2 0 9.5.5 12.8 1.5 3.4 1 6.1 2.2 8.2 3.4 2.1 1.3 3.7 2.5 4.8 3.8s2.1 2.2 2.9 2.7l6.4-63.7 48.1-4c-1.2 10.5-2.4 21.6-3.6 33.4s-2.4 23.7-3.6 35.8-2.4 24-3.7 35.7c-1.2 11.8-2.4 22.9-3.5 33.4-.3 1.4-.5 2.9-.5 4.4 0 1.3.1 2.6.4 4 .3 1.3.7 2.5 1.5 3.5.7 1 1.6 1.9 2.7 2.5 1.1.7 2.5 1 4.3 1 2 0 4-.4 5.9-1.2s3.6-1.9 5.1-3.2 2.8-2.8 3.9-4.4c1.1-1.4 1.9-3 2.4-4.5m-68.7-46.1c-.4-.8-1.1-1.8-2.1-3.1-1-1.2-2.6-1.8-4.9-1.8-2.7 0-5.4 1.1-7.9 3.4q-3.75 3.3-6.6 9.3t-4.5 14.4c-1.1 5.6-1.7 11.8-1.7 18.5 0 4.4.3 7.8.9 10.3s1.4 4.4 2.3 5.6 1.9 2 2.9 2.2c1 .3 1.9.4 2.7.4 2.4 0 5.1-.8 7.9-2.3s4.9-4.1 6.2-7.8z"/><path fill="#ef4136" d="M819.8 504.9c1.9 2.3 3.9 4.7 5.9 7s3.9 4.7 5.9 7c-1.5 4.4-4 8.7-7.3 12.8-3.4 4.2-7.3 7.9-11.9 11.2s-9.6 6-15.1 7.9q-8.25 3-16.8 3c-6.3 0-11.7-.9-16.1-2.8s-8.1-4.6-11-8.1-5-7.7-6.3-12.5-2-10.3-2-16.3c0-2.8.1-5.5.4-8s.4-5.2.4-8l7.9-75.6 48.1-2-9.2 86.3c0 1.5.1 3 .4 4.4s.7 2.6 1.4 3.7 1.6 1.9 2.7 2.5c1.2.6 2.6.9 4.4.9q3 0 6-1.2c2-.8 3.8-1.9 5.5-3.2s3.1-2.8 4.3-4.4c1.1-1.5 1.9-3.1 2.4-4.6M807 386.1c0 6.4-2.3 11.6-6.9 15.4-4.6 3.9-10.9 5.8-18.9 5.8-7.9 0-14.2-1.9-18.8-5.8s-6.9-9-6.9-15.4q0-9.45 6.9-15.3c4.6-3.9 10.8-5.9 18.8-5.9s14.3 2 18.9 5.9q6.9 5.85 6.9 15.3"/><path fill="#ef4136" d="M884.5 421.3c8 0 15.5.4 22.4 1.3s12.9 2.7 18.1 5.5 9.4 6.9 12.7 12.4c3.3 5.4 5.3 12.7 6.1 21.9 2.5.2 5.5.2 8.9-.2 3.4-.3 6.9-.7 10.5-1.3s6.9-1.2 10.2-1.9c3.2-.7 5.8-1.4 7.9-2.1l-4.6 28.5c-5.7 2.2-11.4 3.9-17.1 4.9s-11.1 1.6-16.3 1.8c-.5 4.6-1.4 9.3-2.5 14.3-1.2 4.9-2.9 9.7-5 14.4q-3.3 6.9-8.4 13.2c-3.4 4.2-7.6 7.8-12.6 11s-10.9 5.6-17.8 7.5q-10.35 2.7-23.7 2.7c-9.1 0-17-.6-23.8-1.9s-12.5-3.7-17.1-7.3-8-8.6-10.4-15c-2.3-6.5-3.5-14.9-3.5-25.3 0-6.8.4-13.6 1.2-20.5.8-6.8 2.2-13.4 4.1-19.6 1.9-6.3 4.6-12.1 7.9-17.5s7.4-10.1 12.3-14c4.9-4 10.7-7.1 17.4-9.4 6.5-2.3 14.3-3.4 23.1-3.4m14.4 58.7c-4.7-3-8.9-6.2-12.7-9.6-3.8-3.5-7.1-7-9.8-10.7-2.3 2.4-4.3 5.4-6 8.9-1.6 3.5-3 7.2-4 11q-1.65 5.7-2.4 11.1c-.5 3.6-.8 6.7-.8 9.2 0 1.1 0 2.8.1 5 0 2.2.4 4.4 1.1 6.7s1.9 4.3 3.5 6 4 2.5 7 2.5c4.6 0 8.4-1.4 11.5-4.2s5.5-6.2 7.3-10.3 3.1-8.4 3.8-13.1c.7-4.6 1.2-8.8 1.4-12.5"/><path fill="#f7941d" d="M299.2 317.3c-1.7 5-4.4 9.6-8 13.9s-7.7 8-12.4 11.2c-4.6 3.2-9.6 5.7-14.8 7.6-5.2 1.8-10.4 2.7-15.3 2.7-6.4 0-12-1-16.6-3-4.7-2-8.5-4.8-11.6-8.3-3.1-3.6-5.3-7.9-6.8-13s-2.2-10.7-2.2-16.8c0-3 .2-5.6.6-7.9l3.7-51.9c-.7 1.7-1.5 3.6-2.2 5.6s-1.7 4.5-2.9 7.5-2.6 6.7-4.4 11.1-4 10-6.6 16.7-5.8 14.8-9.5 24.3-8.1 20.7-13.2 33.7h-39.5c-.8-5.6-1.7-11.5-2.7-17.6-1-6.2-2-13-3.1-20.5s-2.2-15.9-3.4-25.2-2.6-20-4.1-32l-19.5 95.3H59.8l35.4-153.1c-5.8.2-11.4 1.1-16.8 2.8s-10.4 4.8-15 9.4q5.4 3.15 8.4 8.7c2 3.7 3.1 7.3 3.1 11 0 3.3-.7 6.4-2 9.3-1.3 3-3.1 5.5-5.4 7.8-2.3 2.2-4.9 4-7.9 5.3s-6.1 1.9-9.4 1.9c-3.8 0-7.1-.8-10.1-2.3s-5.4-3.6-7.5-6.2c-2-2.6-3.6-5.5-4.7-8.8s-1.6-6.7-1.6-10.2c0-6.5 1.4-12.6 4.1-18.4q4.05-8.55 11.4-15.9 7.2-7.2 17.1-12.9t21.3-9.6c7.6-2.6 15.6-4.7 24-6q12.45-2.1 25.2-2.1c6.1 0 11.9.5 17.4 1.4L167 282.5l51.6-119.7h49.8c-1.4 24-2.8 48-4 72.1-1.3 24-2.6 48.1-3.9 72.4.1 3.2.8 5.5 2 7.1q1.8 2.4 6.6 2.4 3 0 6-1.2c2-.8 3.8-1.9 5.5-3.2s3.1-2.8 4.3-4.4 2-3.1 2.5-4.7z"/><path fill="#f7941d" d="M360.7 303.6c1.9 2.3 3.9 4.7 5.9 7s3.9 4.7 5.9 7c-1.5 4.4-4 8.7-7.3 12.8-3.4 4.2-7.3 7.9-11.9 11.2s-9.6 6-15.1 7.9q-8.25 3-16.8 3c-6.3 0-11.7-.9-16.1-2.8s-8.1-4.6-11-8.1-5-7.7-6.3-12.5-2-10.3-2-16.3c0-2.8.1-5.5.4-8s.4-5.2.4-8l7.9-75.6 48.1-2-9.2 86.3c0 1.5.1 3 .4 4.4s.7 2.6 1.4 3.7 1.6 1.9 2.7 2.5c1.2.6 2.6.9 4.4.9q3 0 6-1.2c2-.8 3.8-1.9 5.5-3.2s3.1-2.8 4.3-4.4c1.1-1.5 1.9-3.1 2.4-4.6m-12.8-118.8c0 6.4-2.3 11.6-6.9 15.4-4.6 3.9-10.9 5.8-18.9 5.8-7.9 0-14.2-1.9-18.8-5.8s-6.9-9-6.9-15.4q0-9.45 6.9-15.3c4.6-3.9 10.8-5.9 18.8-5.9s14.4 2 18.9 5.9q6.9 5.85 6.9 15.3M431.2 297c-3.3 0-6.4-.6-9.5-1.8q-4.65-1.8-8.1-5.1c-2.3-2.2-4.2-4.8-5.6-7.9s-2.1-6.4-2.1-10.1c0-5.8 1.3-10.8 3.8-14.9s6-7.5 10.5-10.1q6.6-3.9 15.6-5.7c6-1.2 12.4-1.8 19.3-1.8 5.5 0 11.2.5 17.2 1.5s12.1 2.6 18.5 4.7c6.7-11.6 14.2-22.8 22.4-33.5s17.2-20.2 26.9-28.3 20-14.7 30.9-19.5c10.9-4.9 22.4-7.3 34.3-7.3 4.4 0 8.8.4 13.3 1.1s9 1.8 13.6 3.4l-18.5 189.2h-50.4l2.9-25.3c-3.6-3.4-7.4-6.9-11.6-10.6s-8.6-7.5-13.3-11.2q-7.05-5.7-14.7-11.1c-5.1-3.6-10.2-6.9-15.4-10-2.9 6.2-5.4 12.4-7.7 18.5-2.3 6.2-4.3 12.2-5.9 18-1.6 5.9-2.9 11.4-3.8 16.8-.9 5.3-1.4 10.3-1.4 14.9h-36.9c0-4.7.5-10.1 1.6-16.3s2.6-12.8 4.6-19.8c2-7.1 4.5-14.5 7.4-22.4 3-7.8 6.3-15.8 10.1-23.8q-8.85-2.1-16.5-2.1c-2.4 0-4.9.2-7.3.5q.6 2.55.6 6c0 3.4-.7 6.5-2 9.5s-3.1 5.5-5.3 7.7-4.9 3.9-7.9 5.2c-3 1-6.2 1.6-9.6 1.6m91.3-36.9c8.5 4.7 16.7 9.8 24.4 15.3s15.3 11.4 22.7 17.6l10.2-93.6c-4.5.8-9.2 3-14 6.5-4.9 3.5-9.8 8-14.8 13.4s-9.9 11.7-14.7 18.6q-7.2 10.65-13.8 22.2M771.4 274.7c0-2.1-.1-4.3-.4-6.6-.3-2.2-.7-4.2-1.3-6s-1.5-3.2-2.5-4.4c-1.1-1.1-2.5-1.7-4.2-1.7-2 0-3.9 1.1-5.6 3.4-1.7 2.2-3.1 4.9-4.4 8.1l-8.2 83.2h-47l8.1-76c.2-1.2.4-2.9.5-5s-.1-4.2-.5-6.2-1.2-3.7-2.3-5.2-2.7-2.2-4.9-2.2c-2.7 0-5.1 1.1-7.1 3.4-2 2.2-3.6 5-5 8.2l-8.5 83h-47.3l13-129.5 47.9-2.1-1.7 15.6c3.9-4.6 8.3-8.1 13.3-10.5s10.3-3.6 16-3.6c15.3 0 25.2 6.1 29.9 18.3 4.4-5.8 9.7-10.3 16.1-13.4 6.4-3.2 12.9-4.7 19.6-4.7 6.1 0 11.3.9 15.7 2.6s8 4.2 10.8 7.4 4.9 7.1 6.3 11.8c1.4 4.6 2.1 9.9 2.1 15.8 0 4.2-.3 8.5-.8 13-.6 4.5-1.2 8.8-1.8 13.1-.7 4.2-1.3 8.2-1.8 11.9-.6 3.7-.8 6.9-.8 9.7 0 2.6.6 5 1.8 7.1s3.4 3.1 6.6 3.1c2.3 0 4.3-.3 6-.8 1.6-.6 3-1.4 4.1-2.5s2.1-2.4 3-4c.9-1.5 1.7-3.3 2.5-5.3l11.9 14c-1.7 5-4.2 9.6-7.3 14-3.2 4.3-6.8 8.1-10.8 11.2-4.1 3.2-8.5 5.6-13.3 7.5-4.8 1.8-9.6 2.7-14.5 2.7-7.7 0-14-1.1-18.8-3.4-4.8-2.2-8.5-5.1-11.2-8.7s-4.5-7.6-5.4-12.1-1.4-9-1.4-13.5c0-3.1.2-6.3.6-9.8s.8-7 1.3-10.5c.5-3.6.9-7.1 1.3-10.5.2-3.5.4-6.8.4-9.9"/><path fill="#f7941d" d="M913.3 303.6c1.9 2.3 3.9 4.7 5.9 7s3.9 4.7 5.9 7c-1.5 4.4-4 8.7-7.3 12.8-3.4 4.2-7.3 7.9-11.9 11.2s-9.6 6-15.1 7.9q-8.25 3-16.8 3c-6.3 0-11.7-.9-16.1-2.8s-8.1-4.6-11-8.1-5-7.7-6.3-12.5-2-10.3-2-16.3c0-2.8.1-5.5.4-8s.4-5.2.4-8l7.9-75.6 48.1-2-9.2 86.3c0 1.5.1 3 .4 4.4s.7 2.6 1.4 3.7 1.6 1.9 2.7 2.5c1.2.6 2.6.9 4.4.9q3 0 6-1.2c2-.8 3.8-1.9 5.5-3.2s3.1-2.8 4.3-4.4c1.1-1.5 1.9-3.1 2.4-4.6m-12.8-118.8c0 6.4-2.3 11.6-6.9 15.4-4.6 3.9-10.9 5.8-18.9 5.8-7.9 0-14.2-1.9-18.8-5.8s-6.9-9-6.9-15.4q0-9.45 6.9-15.3c4.6-3.9 10.8-5.9 18.8-5.9s14.3 2 18.9 5.9q6.9 5.85 6.9 15.3"/><path fill="#f7941d" d="M943.9 371.1c1.2 1.1 2.8 2.1 4.7 2.9s3.8 1.5 5.8 1.9c2 .5 3.8.8 5.4 1s2.8.3 3.5.3c3.7 0 6.5-.9 8.4-2.8s3.4-4.4 4.4-7.6 1.7-6.8 2.1-11 .9-8.5 1.5-13.1c-1 1-2.1 2.1-3.4 3.3-1.2 1.2-2.8 2.3-4.8 3.4s-4.5 2-7.4 2.7c-3 .7-6.7 1.1-11.3 1.1-7.4 0-13.7-1.4-18.7-4.1s-9.1-6.4-12.2-11q-4.65-6.9-6.6-15.6c-1.3-5.9-2-11.9-2-18.1 0-3.2.2-7.4.5-12.7s1-11.1 2.1-17.3 2.8-12.5 5.1-18.8 5.5-12 9.5-17.2c4.1-5.1 9.1-9.3 15.2-12.6s13.5-4.9 22.2-4.9q3.9 0 7.2.9c2.2.6 4.1 1.4 5.8 2.4s3.4 2.1 5 3.4c1.6 1.2 3.2 2.5 4.8 3.8l1.5-11.9 47.6 2.3-12 117.2c-.3 2-.6 4.4-.9 7q-.45 3.9-1.2 8.4c-.5 3-1.2 6-2 9.2s-1.8 6.4-3.1 9.5c-3.8 11.8-9.7 20.6-17.9 26.3s-18.6 8.6-31.2 8.6c-3.9 0-7.3-.3-10.4-.8-3.1-.6-5.9-1.5-8.5-2.7s-5.2-2.8-7.7-4.7-5-4.1-7.6-6.8zm43.9-113.6c-.4-.8-1.1-1.8-2.1-3.1-1-1.2-2.6-1.8-4.9-1.8-2.7 0-5.4 1.1-7.9 3.4q-3.75 3.3-6.6 9.3t-4.5 14.4c-1.1 5.6-1.7 11.8-1.7 18.5 0 4.4.3 7.8.9 10.3s1.4 4.4 2.3 5.6 1.9 2 2.9 2.2c1 .3 1.9.4 2.7.4 2.4 0 5.1-.8 7.9-2.3s4.9-4.1 6.2-7.8zM1111.5 219.9c8 0 15.5.4 22.4 1.3s12.9 2.7 18.1 5.5 9.4 6.9 12.7 12.4c3.3 5.4 5.3 12.7 6.1 21.9 2.5.2 5.5.2 8.9-.2 3.4-.3 6.9-.7 10.5-1.3s6.9-1.2 10.2-1.9c3.2-.7 5.8-1.4 7.9-2.1l-4.6 28.5c-5.7 2.2-11.4 3.9-17.1 4.9s-11.1 1.6-16.3 1.8c-.5 4.6-1.4 9.3-2.5 14.3-1.2 4.9-2.9 9.7-5 14.4q-3.3 6.9-8.4 13.2c-3.4 4.2-7.6 7.8-12.6 11s-10.9 5.6-17.8 7.5q-10.35 2.7-23.7 2.7c-9.1 0-17-.6-23.8-1.9s-12.5-3.7-17.1-7.3-8-8.6-10.4-15c-2.3-6.5-3.5-14.9-3.5-25.3 0-6.8.4-13.6 1.2-20.5.8-6.8 2.2-13.4 4.1-19.6 1.9-6.3 4.6-12.1 7.9-17.5s7.4-10.1 12.3-14c4.9-4 10.7-7.1 17.4-9.4 6.5-2.2 14.2-3.4 23.1-3.4m14.4 58.8c-4.7-3-8.9-6.2-12.7-9.6-3.8-3.5-7.1-7-9.8-10.7-2.3 2.4-4.3 5.4-6 8.9-1.6 3.5-3 7.2-4 11q-1.65 5.7-2.4 11.1c-.5 3.6-.8 6.7-.8 9.2 0 1.1 0 2.8.1 5 0 2.2.4 4.4 1.1 6.7s1.9 4.3 3.5 6 4 2.5 7 2.5c4.6 0 8.4-1.4 11.5-4.2s5.5-6.2 7.3-10.3 3.1-8.4 3.8-13.1c.7-4.6 1.1-8.8 1.4-12.5"/></svg>