<svg xmlns="http://www.w3.org/2000/svg" width="519" height="496" fill="none" viewBox="0 0 519 496"><path fill="#22377e" d="M161.487 0h24.793v196.95h-24.793zM161.487 406.31h24.793v89.444h-24.793zM117.076 196.95h44.41v209.365h-49.305L44.409 284.246v122.069H0V196.94l46.331.005 70.745 130.408z"/><path fill="#22377e" fill-rule="evenodd" d="M260.357 196.923c50.33 0 74.877 23.22 78.203 72.965v63.005c-3.808 53.267-27.873 73.411-78.203 73.411h-74.082V196.949zm-4.362 39.638-22.215-.015v130.311h22.215c22.015 0 37.479-9.206 37.479-38.458v-53.846c0-27.776-14.054-37.992-37.479-37.992M434.976 234.031l-29.478-.01v54.102h29.478c17.976 0 29.683-10.185 29.683-28.371 0-18.191-8.293-25.721-29.683-25.721m-3.383 91.843 37.351 80.438h50.022l-44.373-88.757c25.054-9.929 34.983-30.109 34.47-57.239-.774-41.267-21.379-63.364-75.989-63.364H360.11v209.359h46.29v-80.284z" clip-rule="evenodd"/></svg>