<svg xmlns="http://www.w3.org/2000/svg" width="349" height="348" fill="none" viewBox="0 0 349 348"><path fill="#b11119" d="M188.13.01c8.13 1.4 16.32 2.5 24.36 4.25C286.67 20.4 342.42 84.5 348.24 159.89c1.3 16.88.1 33.52-2.93 50.1-.29 1.58-.94 3.1-1.62 4.57 9.44-81.94-57.28-157.77-137.84-162.58-74.56-4.45-140.32 45.17-155.38 118.41-17.3 84.13 36.74 159.54 110.24 177.03-9.05 0-17.91-1.64-26.65-3.76C52.66 323.93-2.59 250.98.39 167.29 3.46 80.94 71.07 9.26 157.25.95c1.27-.12 2.68.19 3.7-.95 9.06.01 18.12.01 27.18.01"/><path fill="#b11119" d="M313.19 203.64c-16.11-64.78-84.55-100.13-145.11-80.16-56.43 18.61-88.16 76.86-74.48 136.84-17.72-25.25-24.86-76.55.03-119.22 26.86-46.06 82.24-68.99 133.31-54.52 51.95 14.71 88.02 63.53 86.25 117.06"/></svg>