<svg xmlns="http://www.w3.org/2000/svg" width="622" height="205" fill="none" viewBox="0 0 622 205"><path fill="#ec1b24" d="M0 0h476.7v204.1H0z"/><path fill="#e2001a" d="M0 0h476.7v204.1H0z"/><path fill="#fff" d="M159.3 102c0-33.3-27-59-60.7-59s-60.7 25.7-60.7 59 27 59 60.7 59c33.7.1 60.7-25.6 60.7-59m-28.8 0c0 17.9-15.4 32.2-31.9 32.2-16.7 0-31.9-14.3-31.9-32.2s15.2-32.2 31.9-32.2c16.5 0 31.9 14.3 31.9 32.2M199.5 158.9h27.9v-33.1h20.8l21.9 33.1H305l-28.1-39.8c13.2-5.8 22.5-18.3 22.5-33.7 0-22.6-16.7-40.2-42-40.2h-57.8v113.7zM255.7 99h-28.3V72h28.3c12.1 0 15.8 6 15.8 13.4-.1 7.6-3.7 13.6-15.8 13.6M346.3 158.8h27.9v-38.3h52.7V93.8h-52.7V72h64.7V45.2h-92.5z"/><path fill="#e2001a" d="M621.1 78.7c0-20.6-16.9-38.2-43.6-38.2-20.2 0-35.8 7.8-48.2 28l24.8 11.9c5.4-9.6 13-14.5 22.3-14.5s16.2 6.1 16.2 12.4c0 4.3-1.9 8.3-7.7 12.8l-53 41.9v26.1h88.8v-26.5h-47.1l27.7-20.9c11.8-8.9 19.8-19.8 19.8-33"/></svg>