<svg xmlns="http://www.w3.org/2000/svg" width="1027" height="305" fill="none" viewBox="0 0 1027 305"><path fill="#ec1b24" d="M.95 1.013h708.69v303.426H.95z"/><path fill="#fff" d="M237.775 152.651c0-49.505-40.14-87.712-90.24-87.712s-90.24 38.207-90.24 87.712 40.14 87.713 90.24 87.713c50.1.149 90.24-38.058 90.24-87.713m-42.816 0c0 26.612-22.894 47.871-47.424 47.871-24.827 0-47.424-21.259-47.424-47.871 0-26.611 22.597-47.87 47.424-47.87 24.53 0 47.424 21.259 47.424 47.87M297.539 237.242h41.477v-49.208h30.923l32.558 49.208h51.735l-41.775-59.169c19.624-8.622 33.45-27.206 33.45-50.1 0-33.598-24.827-59.764-62.44-59.764h-85.928zm83.55-89.051h-42.073v-40.139h42.073c17.988 0 23.489 8.92 23.489 19.921 0 11.299-5.501 20.218-23.489 20.218M515.78 237.094h41.478v-56.939h78.346v-39.843h-78.346v-32.26h96.186V68.209H515.928c-.148 0-.148 168.885-.148 168.885M817.8 304.3c-.6-.3-9.6-4.3-20-8.8s-19.7-8.6-20.6-9-1.7-.7-1.7-.7-.9-.4-1.9-.8c-1-.5-2.8-1.3-4-1.8-1.2-.6-2.3-1-2.4-1-.4 0-8.5-3.8-8.9-4.2-.5-.4-.5-6.7-.5-125 0-107.1.1-124.6.4-125 .2-.2 2.5-1.3 5.1-2.5 2.6-1.1 4.9-2.1 5-2.3s.6-.3 1-.4 1.5-.6 2.4-1 2.7-1.2 3.9-1.8 2.3-1 2.3-1c.1 0 2-.8 3.9-1.7 5-2.3 36.8-16.1 37.2-16.2.6 0 .6.2.6 151.9.1 144.6 0 151.9-.4 151.9-.2-.1-.9-.3-1.4-.6m104.1.3c-.2-.1-2.2-1.1-4.6-2.2-2.4-1-5-2.2-5.8-2.6s-1.5-.7-1.6-.7-.9-.4-1.9-.8c-4-1.8-6.2-2.8-6.3-2.8s-.8-.3-1.6-.7-9.9-4.4-20.2-8.9-18.8-8.3-19-8.4c-.4-.4-.3-249 .1-249.5.2-.2.4-.4.6-.4s1.2-.4 2.4-1c1.2-.5 2.2-1 2.3-1s.8-.3 1.6-.7 9.6-4.2 19.5-8.6c17.8-7.8 19.8-8.7 23.1-10.2.9-.4 2-.9 2.4-1s2-.8 3.5-1.5c5.5-2.6 6.7-3 6.9-2.5.2.2 1.4 61.6.2 152l-.1 151.6-.6.1c-.4 0-.7 0-.9-.2m103 0c-.2-.1-2.1-1.1-4.4-2s-4.9-2.1-5.8-2.6-1.8-.8-1.9-.8-1-.4-1.9-.8c-1-.5-3-1.3-4.5-2-3.9-1.7-6.9-3.1-9-4-1-.4-1.8-.8-1.9-.8s-.7-.3-1.3-.6-7.7-3.4-15.7-6.9-14.6-6.4-14.7-6.6c-.1-.1-.2-55.9-.2-124.7 0-99.4.1-124.5.4-124.8.2-.2 8.7-4 18.9-8.4s19.4-8.5 20.4-8.9c1-.5 2.4-1.1 3.1-1.4s1.3-.5 1.3-.5 1.2-.5 2.6-1.2c1.4-.6 3.2-1.5 4.2-1.9.9-.4 2.3-1 3-1.3 5.1-2.3 8.3-3.6 8.6-3.5s.4 24.6.3 151.9l-.1 151.8-.6.1c-.3.1-.6.1-.8-.1"/></svg>