<svg xmlns="http://www.w3.org/2000/svg" width="199" height="58" fill="none" viewBox="0 0 199 58"><path fill="#e60000" d="M142.18 11.3a8.47 8.47 0 0 0-6.6-2.61 11.52 11.52 0 0 0-6.79 2.13.77.77 0 0 1-1.19-.79.76.76 0 0 0-.74-.92h-6.15a.76.76 0 0 0-.75.62l-6.38 32.54a.78.78 0 0 0 .158.637.77.77 0 0 0 .592.283h6.41a.77.77 0 0 0 .75-.62l3.92-20c.78-3.93 3.6-6.54 6.75-6.54a4.1 4.1 0 0 1 3.17 1.49.76.76 0 0 0 1.09.06l5.71-5.16a.8.8 0 0 0 .232-.555.8.8 0 0 0-.06-.3.8.8 0 0 0-.172-.255M95.36 21.43c1.57-4.26 4.14-6.07 7.16-6.07s4.76 2 4.76 5.49v1.12a1.27 1.27 0 0 1-1.35 1.17h-9.4a1.27 1.27 0 0 1-1.2-1.71m-.4 7.14h15.66a4 4 0 0 0 3.91-3.32c.248-1.454.382-2.925.4-4.4 0-7.39-4.75-12.16-11.89-12.16-11.5 0-17 11.45-17 22.89 0 9 6.55 12 12.4 12a18.57 18.57 0 0 0 12.11-4.14 1.29 1.29 0 0 0 .2-1.78l-2.61-3.34a1.28 1.28 0 0 0-1.83-.19 10.48 10.48 0 0 1-7 2.58c-3.92 0-5.72-2.35-5.72-5.69a9 9 0 0 1 .1-1.3 1.27 1.27 0 0 1 1.27-1.15m-18.07-6.55a1.27 1.27 0 0 1-1.26 1.11h-9.43a1.26 1.26 0 0 1-1.19-1.69c1.57-4.27 4.14-6.09 7.17-6.09s4.71 2 4.76 5.5v1.17M72.65 8.68c-11.5 0-17 11.45-17 22.89 0 9 6.55 12 12.4 12a18.6 18.6 0 0 0 12.12-4.15 1.26 1.26 0 0 0 .19-1.76l-2.61-3.35a1.28 1.28 0 0 0-1.84-.18 10.48 10.48 0 0 1-7 2.57c-3.92 0-5.72-2.35-5.72-5.69q.003-.659.1-1.31a1.26 1.26 0 0 1 1.25-1.11h15.71a3.91 3.91 0 0 0 3.87-3.29c.243-1.461.377-2.939.4-4.42 0-7.39-4.75-12.17-11.89-12.17M45.52 4.15a12.5 12.5 0 0 0-7.59 2.38 1.14 1.14 0 0 1-1.57-.2 1.18 1.18 0 0 1-.21-1 .56.56 0 0 0-.09-.51.45.45 0 0 0-.37-.18h-7.27a.56.56 0 0 0-.49.38l-1.44 6.22 7.56 3.85q.523.263 1 .6a7.22 7.22 0 0 1 6.47-3.84 4.66 4.66 0 0 1 3.5 1.25c.92 1 1.33 2.4 1.26 4.44a43 43 0 0 1-1 6.39c-1.56 6.62-3.35 12.09-9.35 12.09a4.63 4.63 0 0 1-3.48-1.25c-.94-1-1.36-2.44-1.29-4.51 0-.38 0-.81.1-1.27L21.2 34.02l-5.27 23a.54.54 0 0 0 .263.615.45.45 0 0 0 .207.045h7.53a.56.56 0 0 0 .53-.45l3.62-15.7a1.18 1.18 0 0 1 1.15-.94 1.12 1.12 0 0 1 .82.35 10 10 0 0 0 7.42 2.79 12.91 12.91 0 0 0 9.75-3.71c3.18-3.11 5-8.7 6.65-16.14a44.3 44.3 0 0 0 1.49-9.14c.07-1.89-.19-5.43-2.58-7.91-1.69-1.74-4.13-2.63-7.26-2.63"/><path fill="#e60000" d="m32.08 19.02-19.5-9.91a4.35 4.35 0 0 0-1.94-.52c-1.65 0-2.8 1.28-2.8 3.43v11.41l-4.48-2.28A3 3 0 0 0 2 20.78c-1.16 0-2 .9-2 2.41v13.2c0 1.51.8 2.4 2 2.4a3 3 0 0 0 1.36-.36l28.72-14.6c2.61-1.33 2.61-3.5 0-4.82"/><path fill="#fff" d="M137.09 43.55a5.381 5.381 0 1 1 5.34-5.35 5.33 5.33 0 0 1-5.34 5.35m27.54-27.29h-3.7a1.12 1.12 0 0 0-1.1.9l-3.09 16c-.098.399-.142.81-.13 1.22 0 1.35.84 2.06 2.58 2.06h1.53a1.12 1.12 0 0 1 1.1 1.34l-.9 4.46a1.13 1.13 0 0 1-1.1.9h-3.21c-4.63 0-8.11-2.71-8.11-7.28 0-.93.087-1.857.26-2.77l3-15.51a1.12 1.12 0 0 0-1.09-1.34h-.69a1.11 1.11 0 0 1-1.1-1.33l.78-4.08a1.11 1.11 0 0 1 1.09-.9h1.59a1.114 1.114 0 0 0 1.09-.91L155.06.9a1.13 1.13 0 0 1 1.1-.9h5.7a1.12 1.12 0 0 1 1.1 1.34l-1.46 7.24a1.11 1.11 0 0 0 1.1 1.33h2.81a1.12 1.12 0 0 1 1.079.851c.04.16.043.327.011.489l-.78 4.07a1.11 1.11 0 0 1-1.09.9m15.3 26.94h-5.63a.54.54 0 0 1-.53-.46l-4.94-33a.526.526 0 0 1 .124-.43.54.54 0 0 1 .406-.19h6.94a.54.54 0 0 1 .53.48L179 29.25a.533.533 0 0 0 .763.416.53.53 0 0 0 .237-.236l10-20.05a.55.55 0 0 1 .48-.3h7.47a.53.53 0 0 1 .46.79l-18 33a.56.56 0 0 1-.47.28"/></svg>