<svg xmlns="http://www.w3.org/2000/svg" width="307" height="66" fill="none" viewBox="0 0 307 66"><mask id="a" width="306" height="66" x=".752" y=".392" fill="#000" maskUnits="userSpaceOnUse"><path fill="#fff" d="M.752.392h306v66h-306z"/><path d="M37.472 18.946q0 4.402-2.48 7.936-2.418 3.534-6.324 5.518-2.295 1.178-4.712 1.55a33 33 0 0 1-5.022.372q-.558 0-1.302-.062-.744-.061-.744-.868 0-.682.372-.93.372-.31.868-.372.495-.061 1.054 0 .62.062 1.116.062 2.542 0 4.526-.93 2.046-.992 3.472-2.604 1.425-1.612 2.17-3.782t.744-4.588q0-2.295-.62-4.402-.62-2.17-1.922-3.782a8.45 8.45 0 0 0-3.162-2.604q-1.86-.992-4.34-.992-.992 0-2.48.31t-2.294.868q-.682.495-.93 1.364a13 13 0 0 0-.248 1.612 125 125 0 0 0-.186 4.03q0 2.046-.062 4.154l-.248 9.982a785 785 0 0 0-.062 9.92v3.162q0 1.55.248 3.1.186 1.055.496 1.488.31.372 1.426.372 1.365 0 2.542-.372 1.24-.372 2.17-.372.682 0 .682.868 0 .495-.248.62a2.8 2.8 0 0 1-.496.248q-.495.124-1.054.186-.558 0-1.116.124-.992.186-1.922.434-.93.186-1.922.434-1.364.31-2.666.682-1.302.435-2.604.93-.434.124-1.302.434-.805.372-1.24.372-.558 0-.558-.558 0-.31.186-.62l.434-.434q.62-.744.806-1.488.186-.806.31-1.674.124-1.116.186-2.232l.124-2.232q.186-4.898.434-9.734.248-4.898.31-9.734 0-2.355-.124-4.65-.062-2.295-.186-4.65v-.992q.062-.806 0-1.612a6.8 6.8 0 0 0-.248-1.426q-.186-.62-.62-.62-.682 0-1.488.248-.744.248-1.55.558-.744.31-1.426.558-.62.248-.992.248-.495 0-.496-.62 0-.682.62-.93a17 17 0 0 1 2.294-1.116q1.302-.558 2.418-1.054a43 43 0 0 1 6.572-1.984 30 30 0 0 1 6.82-.806q1.985 0 4.34.372 2.355.31 4.216 1.116 3.534 1.55 5.456 4.65 1.984 3.038 1.984 6.944M42.198 9.15q-.992 0-.992-.868 0-.683.682-.744a6.7 6.7 0 0 1 1.178-.124h3.224a84 84 0 0 1 3.224-.062h3.224a90 90 0 0 1 3.348-.062q2.046 0 4.092-.062a68 68 0 0 1 4.092-.124h.868q.744 0 1.488.124a6.8 6.8 0 0 1 1.426.248q.62.186.62.558 0 .186-.186.806a7.7 7.7 0 0 1-.372 1.178q-.187.62-.496 1.116-.248.434-.434.434-.124 0-.31-.124-.125-.186-.248-.186-.807-.558-2.232-.682a28 28 0 0 0-2.356-.124q-2.48 0-4.96.062-2.418 0-4.898.186-.372 3.967-.434 7.936 0 3.967-.062 7.936 2.294 0 4.526-.124a85 85 0 0 1 4.588-.124q1.797 0 3.596.062h3.658q.248 0 .434.062.186 0 .186.31t-.31 1.054q-.31.682-.496.992a6 6 0 0 1-.434.62q-.186.31-.62.31h-3.906a119 119 0 0 0-3.844-.062q-1.86 0-3.72.062t-3.72.248a351.12 351.12 0 0 0-.248 13.268v2.046q-.001.991.124 2.046 3.162.558 6.262.744 3.162.186 6.324.186 1.983 0 3.906-.062a43 43 0 0 0 3.968-.31l1.612-.248a8 8 0 0 1 1.674-.186q.372 0 .372.372 0 .31-.31.62-.249.248-.372.434-.558.558-1.116.992-.496.434-1.302.62-.87.186-1.86.31-.93.124-1.798.248-3.906.31-7.688.372t-7.688.062q-1.923 0-3.844-.124-1.86-.061-3.782-.372.495-7.626.744-15.066.248-7.502.248-15.19 0-.558-.062-2.108 0-1.612-.062-3.348 0-1.736-.124-3.224-.063-1.488-.186-1.922a2.2 2.2 0 0 0-.372-.682q-.186-.31-.682-.31zM130.871 15.66q0 7.935-.496 15.5a255 255 0 0 1-1.488 15.376l-.248 2.48a27 27 0 0 1-.372 2.418q-.186 1.302-1.612 1.302-.434 0-.682-.124a13 13 0 0 0-.496-.31 21 21 0 0 1-1.364-1.054 45.8 45.8 0 0 1-2.914-2.666l-1.24-1.24a115 115 0 0 1-3.968-3.782l-3.906-3.906-8.37-8.37q-4.03-4.154-8.122-8.494-.124-.062-.744-.744a41 41 0 0 0-1.364-1.55q-.743-.805-1.364-1.488-.62-.682-.682-.682-.186 0-.186.248-.248.744-.434 1.55-.123.744-.31 1.426a240 240 0 0 1-2.976 11.656 833 833 0 0 1-3.224 11.532 221 221 0 0 1-1.798 6.2 88 88 0 0 1-2.108 6.076q-.186.495-.558.93-.31.496-.868.496-.62 0-.62-.682 0-.186.186-1.054.247-.806.496-1.86.248-.991.434-1.86.248-.868.31-1.178a190 190 0 0 1 1.55-6.138 136 136 0 0 0 1.488-6.2q.868-3.968 1.736-7.874t1.674-7.998l1.612-8.928a24 24 0 0 0-2.232-3.162 54 54 0 0 0-2.48-2.914q-.372-.372-.372-.62 0-.186.434-.744.495-.558 1.054-1.116a8.7 8.7 0 0 1 1.116-1.054q.558-.495.744-.496.248 0 .62.372t.744.868q.372.435.682.868.372.434.558.62.31.31 1.116.31a21 21 0 0 1 1.612-.062q.868-.062 1.488.124.682.124.682.806 0 .868-.248 1.798-.247.869-.496 1.674.682.992 1.488 1.86a65 65 0 0 0 1.674 1.736q2.355 2.48 4.588 4.96a503 503 0 0 0 4.65 4.96q5.022 5.27 9.982 10.354a598 598 0 0 0 10.292 10.044q.124.124.248.31.186.124.31.124t.186-.31q.062-.372.124-.682.372-3.72.558-7.502.248-3.782.248-7.502v-4.216q0-2.79-.124-5.766a73 73 0 0 0-.31-5.58q-.248-2.604-.682-3.658-.372-.868-1.178-1.24a3.26 3.26 0 0 0-1.674-.434q-.806 0-1.55.372t-1.302.372q-.434 0-.496-.434-.062-.496-.062-.806 0-.495.31-.62.372-.124.806-.31l1.86-.62q1.116-.434 2.294-.806a34 34 0 0 1 2.356-.62q1.116-.31 1.798-.31t.806.31q.186.248.31.806.186.93.248 2.108.125 1.117.186 2.356.062 1.177.062 2.356zM187.34 47.094q0 .247-.434.558-.372.31-.93.682a72 72 0 0 1-1.24.806 9 9 0 0 0-1.24.806q-1.179.868-1.922 1.426-.683.62-1.116.992a6 6 0 0 1-.744.558.83.83 0 0 1-.496.186.7.7 0 0 1-.31-.062q-.124 0-.31-.186-.249-.248-.62-1.054a55 55 0 0 0-.744-1.55 144 144 0 0 1-1.798-3.596 224 224 0 0 0-1.612-3.41 187 187 0 0 1-1.922-4.216l-1.736-4.216q-.93-.062-1.86-.062-.93-.062-1.86-.062-.558 0-2.232.062-1.613 0-3.782.124a91 91 0 0 0-4.464.248 39 39 0 0 0-4.216.558q-1.054.186-2.17.558a5.7 5.7 0 0 0-1.922.992q-.373.31-.868.806l-.992.992-.868.992-.558.744a230 230 0 0 1-2.542 3.534 262 262 0 0 1-2.604 3.534q-1.302 1.675-2.418 3.1a69 69 0 0 1-1.86 2.294 9 9 0 0 0-.682.806q-.435.558-.868.558-.744 0-.744-.682 0-.434.31-.992.248-.495.62-1.054.31-.495.682-.93.372-.496.558-.806a129 129 0 0 0 3.534-5.208 377 377 0 0 0 3.41-5.208 502 502 0 0 0 8.308-13.206 147 147 0 0 0 7.502-13.764q.496-.992.868-2.17.434-1.24.558-1.922l.124-.62q.062-.372.186-.682.186-.495.434-.62.31-.186.806-.496.558-.31 1.426-.682t1.426-.372q.372 0 .496.124.186.062.496.434.061.124.186.496.186.31.31.744.186.435.31.868.185.435.248.682a168 168 0 0 0 5.208 14.632 441 441 0 0 0 4.03 9.858 125 125 0 0 0 4.526 9.548q.372.744.868 1.488.495.744 1.054 1.364.62.558 1.364.992a3.7 3.7 0 0 0 1.674.372q.93 0 1.488-.248.558-.31 1.054-.31.372 0 .496.31.123.248.124.558m-18.662-15.686a87 87 0 0 1-3.534-8.37 235 235 0 0 1-2.79-8.68l-.248-.868a1.7 1.7 0 0 0-.434-.744.7.7 0 0 0-.186.124q0 .062-.124.186a47 47 0 0 0-1.178 2.542 38 38 0 0 1-1.24 2.604 79 79 0 0 1-3.906 6.82 447 447 0 0 0-4.216 6.572q2.418.31 4.836.434t4.774.124q2.046 0 4.154-.062a19.3 19.3 0 0 0 4.092-.682M222.611 47.838q0 .372-.62 1.116-.62.682-.93.93-.433.31-1.984.558-1.487.186-3.596.372a69 69 0 0 1-4.464.248q-2.418.125-4.65.186-2.17.062-3.968.062a80 80 0 0 1-2.48.062q-1.611 0-3.348-.062-1.674 0-3.286-.248.558-6.51.744-12.958.125-2.108.186-4.154l.248-4.154a581 581 0 0 0 .248-17.112V11.32q.063-.992-.062-1.984a7.6 7.6 0 0 0-.434-1.86q-.31-.806-1.054-.806-.31 0-.62.124a1.7 1.7 0 0 1-.62.124q-.372 0-.496-.186a1.6 1.6 0 0 1-.062-.496q0-.372.372-.558.373-.248.682-.372l3.472-1.24a23 23 0 0 0 3.41-1.488q.372-.186.62-.186.496 0 .682.434.186.435.186.868 0 .495-.248 1.612-.186 1.116-.186 1.798a268 268 0 0 0-.558 9.858q-.186 5.828-.31 11.532a535 535 0 0 0-.124 11.532q0 3.348.186 6.696 3.534.558 6.51.868a81 81 0 0 0 6.572.248q1.922 0 3.782-.124l3.844-.248q.496-.062.93-.062.497-.062.992-.062.434 0 .434.496M219.868 7.414q4.836 0 9.486.062a726 726 0 0 0 18.848 0q4.713-.062 9.424-.248a20 20 0 0 1 1.55-.062h1.612q.62 0 1.054.248.434.186.434.868 0 .868-.496 1.116-.434.186-1.178.31-.682.124-1.426.186-.744 0-1.426.062l-4.65.372q-1.86.186-3.72.434-1.797.186-3.596.434a5 5 0 0 1-1.116.124h-1.116q-.248.062-.434.124-.124.061-.124.372 0 .992-.124 1.984l-.124 1.86-.248 4.464a167 167 0 0 0-.186 4.464 401 401 0 0 1-.372 10.044 266 266 0 0 0-.186 9.982q0 1.55.682 2.604t2.356 1.054q.62 0 1.178-.062a5.4 5.4 0 0 1 1.178-.124q.249 0 .372.248a.66.66 0 0 1 .124.372q0 .495-.248.682-.247.186-.744.31a38 38 0 0 0-3.596.806q-1.797.495-3.472 1.178l-.744.372q-.496.248-1.054.434-.495.248-.93.434-.434.186-.62.186-.744 0-.744-.62 0-.186.124-.62.125-.435.248-.93l.248-1.116q.186-.558.248-.992.31-2.79.31-5.456.063-2.728.186-5.518.186-5.085.186-10.23v-1.55q0-1.178-.062-2.728v-3.224q0-1.736-.062-3.224a38 38 0 0 0-.186-2.666q-.061-1.117-.186-1.426a2.7 2.7 0 0 0-.248-.496q-.123-.248-.434-.434-.309-.186-1.116-.31a9.4 9.4 0 0 0-1.612-.248 24 24 0 0 0-1.674-.062q-.805-.062-1.24-.062-2.107 0-4.278.124a17 17 0 0 0-4.092.62q-1.24.31-1.922.744-.681.372-1.488 1.364a3 3 0 0 1-.372.434.59.59 0 0 1-.496.248q-.558 0-.558-.682v-1.116q0-1.24-.062-2.48a54 54 0 0 1-.062-2.542q0-.495.372-.496z"/><path d="M304.387 9.956q0 .683-.062 1.364a6.6 6.6 0 0 1-.248 1.302q-.31 1.116-1.054 2.232t-1.364 2.17a267 267 0 0 0-3.844 6.448 413 413 0 0 1-3.782 6.51 840 840 0 0 0-16.616 29.326q-.495.868-.992 1.798-.495.93-1.116 1.798-.31.434-.62.434-.248.062-.744.062-.186 0-.496-.062-.31 0-.31-.31 0-.062.124-.496.186-.372.372-.868l.372-.868.372-.558a121 121 0 0 1 3.906-8.06q2.109-3.906 4.092-7.998.186-.372.434-.992.31-.682.31-1.116 0-1.054-.682-2.914-.681-1.86-1.798-4.092a101 101 0 0 0-2.356-4.774 121 121 0 0 0-2.604-4.712 497 497 0 0 0-2.418-4.216 558 558 0 0 0-1.674-3.038 30 30 0 0 0-1.178-1.922l-1.24-1.984-.992-1.736a11 11 0 0 0-1.116-1.612 4.9 4.9 0 0 0-1.364-1.24 3.25 3.25 0 0 0-1.736-.496q-.558 0-1.116.062a10 10 0 0 1-1.116.062q-.806 0-.806-.868 0-.744.682-.868t1.24-.186q1.178-.124 2.294-.186l2.356-.248a43 43 0 0 0 1.86-.31q1.054-.248 1.86-.248.496 0 .682.372t.372.682l1.116 2.418q2.295 4.712 4.712 9.362 2.418 4.65 5.022 9.176.558.992 1.116 1.922.62.868 1.24 1.798.063.124.31.496.249.372.496.806.31.434.558.744t.31.31q.124 0 .31-.248.186-.31.372-.682t.31-.682l.248-.496q3.163-6.014 6.262-11.904a578 578 0 0 1 6.448-11.904l.372-.744q.249-.558.558-1.054.372-.496.744-.868.373-.434.682-.434.372 0 .558.62.186.558.248 1.302a9 9 0 0 1 .124 1.488z"/></mask><path fill="#fff" d="M37.472 18.946q0 4.402-2.48 7.936-2.418 3.534-6.324 5.518-2.295 1.178-4.712 1.55a33 33 0 0 1-5.022.372q-.558 0-1.302-.062-.744-.061-.744-.868 0-.682.372-.93.372-.31.868-.372.495-.061 1.054 0 .62.062 1.116.062 2.542 0 4.526-.93 2.046-.992 3.472-2.604 1.425-1.612 2.17-3.782t.744-4.588q0-2.295-.62-4.402-.62-2.17-1.922-3.782a8.45 8.45 0 0 0-3.162-2.604q-1.86-.992-4.34-.992-.992 0-2.48.31t-2.294.868q-.682.495-.93 1.364a13 13 0 0 0-.248 1.612 125 125 0 0 0-.186 4.03q0 2.046-.062 4.154l-.248 9.982a785 785 0 0 0-.062 9.92v3.162q0 1.55.248 3.1.186 1.055.496 1.488.31.372 1.426.372 1.365 0 2.542-.372 1.24-.372 2.17-.372.682 0 .682.868 0 .495-.248.62a2.8 2.8 0 0 1-.496.248q-.495.124-1.054.186-.558 0-1.116.124-.992.186-1.922.434-.93.186-1.922.434-1.364.31-2.666.682-1.302.435-2.604.93-.434.124-1.302.434-.805.372-1.24.372-.558 0-.558-.558 0-.31.186-.62l.434-.434q.62-.744.806-1.488.186-.806.31-1.674.124-1.116.186-2.232l.124-2.232q.186-4.898.434-9.734.248-4.898.31-9.734 0-2.355-.124-4.65-.062-2.295-.186-4.65v-.992q.062-.806 0-1.612a6.8 6.8 0 0 0-.248-1.426q-.186-.62-.62-.62-.682 0-1.488.248-.744.248-1.55.558-.744.31-1.426.558-.62.248-.992.248-.495 0-.496-.62 0-.682.62-.93a17 17 0 0 1 2.294-1.116q1.302-.558 2.418-1.054a43 43 0 0 1 6.572-1.984 30 30 0 0 1 6.82-.806q1.985 0 4.34.372 2.355.31 4.216 1.116 3.534 1.55 5.456 4.65 1.984 3.038 1.984 6.944M42.198 9.15q-.992 0-.992-.868 0-.683.682-.744a6.7 6.7 0 0 1 1.178-.124h3.224a84 84 0 0 1 3.224-.062h3.224a90 90 0 0 1 3.348-.062q2.046 0 4.092-.062a68 68 0 0 1 4.092-.124h.868q.744 0 1.488.124a6.8 6.8 0 0 1 1.426.248q.62.186.62.558 0 .186-.186.806a7.7 7.7 0 0 1-.372 1.178q-.187.62-.496 1.116-.248.434-.434.434-.124 0-.31-.124-.125-.186-.248-.186-.807-.558-2.232-.682a28 28 0 0 0-2.356-.124q-2.48 0-4.96.062-2.418 0-4.898.186-.372 3.967-.434 7.936 0 3.967-.062 7.936 2.294 0 4.526-.124a85 85 0 0 1 4.588-.124q1.797 0 3.596.062h3.658q.248 0 .434.062.186 0 .186.31t-.31 1.054q-.31.682-.496.992a6 6 0 0 1-.434.62q-.186.31-.62.31h-3.906a119 119 0 0 0-3.844-.062q-1.86 0-3.72.062t-3.72.248a351.12 351.12 0 0 0-.248 13.268v2.046q-.001.991.124 2.046 3.162.558 6.262.744 3.162.186 6.324.186 1.983 0 3.906-.062a43 43 0 0 0 3.968-.31l1.612-.248a8 8 0 0 1 1.674-.186q.372 0 .372.372 0 .31-.31.62-.249.248-.372.434-.558.558-1.116.992-.496.434-1.302.62-.87.186-1.86.31-.93.124-1.798.248-3.906.31-7.688.372t-7.688.062q-1.923 0-3.844-.124-1.86-.061-3.782-.372.495-7.626.744-15.066.248-7.502.248-15.19 0-.558-.062-2.108 0-1.612-.062-3.348 0-1.736-.124-3.224-.063-1.488-.186-1.922a2.2 2.2 0 0 0-.372-.682q-.186-.31-.682-.31zM130.871 15.66q0 7.935-.496 15.5a255 255 0 0 1-1.488 15.376l-.248 2.48a27 27 0 0 1-.372 2.418q-.186 1.302-1.612 1.302-.434 0-.682-.124a13 13 0 0 0-.496-.31 21 21 0 0 1-1.364-1.054 45.8 45.8 0 0 1-2.914-2.666l-1.24-1.24a115 115 0 0 1-3.968-3.782l-3.906-3.906-8.37-8.37q-4.03-4.154-8.122-8.494-.124-.062-.744-.744a41 41 0 0 0-1.364-1.55q-.743-.805-1.364-1.488-.62-.682-.682-.682-.186 0-.186.248-.248.744-.434 1.55-.123.744-.31 1.426a240 240 0 0 1-2.976 11.656 833 833 0 0 1-3.224 11.532 221 221 0 0 1-1.798 6.2 88 88 0 0 1-2.108 6.076q-.186.495-.558.93-.31.496-.868.496-.62 0-.62-.682 0-.186.186-1.054.247-.806.496-1.86.248-.991.434-1.86.248-.868.31-1.178a190 190 0 0 1 1.55-6.138 136 136 0 0 0 1.488-6.2q.868-3.968 1.736-7.874t1.674-7.998l1.612-8.928a24 24 0 0 0-2.232-3.162 54 54 0 0 0-2.48-2.914q-.372-.372-.372-.62 0-.186.434-.744.495-.558 1.054-1.116a8.7 8.7 0 0 1 1.116-1.054q.558-.495.744-.496.248 0 .62.372t.744.868q.372.435.682.868.372.434.558.62.31.31 1.116.31a21 21 0 0 1 1.612-.062q.868-.062 1.488.124.682.124.682.806 0 .868-.248 1.798-.247.869-.496 1.674.682.992 1.488 1.86a65 65 0 0 0 1.674 1.736q2.355 2.48 4.588 4.96a503 503 0 0 0 4.65 4.96q5.022 5.27 9.982 10.354a598 598 0 0 0 10.292 10.044q.124.124.248.31.186.124.31.124t.186-.31q.062-.372.124-.682.372-3.72.558-7.502.248-3.782.248-7.502v-4.216q0-2.79-.124-5.766a73 73 0 0 0-.31-5.58q-.248-2.604-.682-3.658-.372-.868-1.178-1.24a3.26 3.26 0 0 0-1.674-.434q-.806 0-1.55.372t-1.302.372q-.434 0-.496-.434-.062-.496-.062-.806 0-.495.31-.62.372-.124.806-.31l1.86-.62q1.116-.434 2.294-.806a34 34 0 0 1 2.356-.62q1.116-.31 1.798-.31t.806.31q.186.248.31.806.186.93.248 2.108.125 1.117.186 2.356.062 1.177.062 2.356zM187.34 47.094q0 .247-.434.558-.372.31-.93.682a72 72 0 0 1-1.24.806 9 9 0 0 0-1.24.806q-1.179.868-1.922 1.426-.683.62-1.116.992a6 6 0 0 1-.744.558.83.83 0 0 1-.496.186.7.7 0 0 1-.31-.062q-.124 0-.31-.186-.249-.248-.62-1.054a55 55 0 0 0-.744-1.55 144 144 0 0 1-1.798-3.596 224 224 0 0 0-1.612-3.41 187 187 0 0 1-1.922-4.216l-1.736-4.216q-.93-.062-1.86-.062-.93-.062-1.86-.062-.558 0-2.232.062-1.613 0-3.782.124a91 91 0 0 0-4.464.248 39 39 0 0 0-4.216.558q-1.054.186-2.17.558a5.7 5.7 0 0 0-1.922.992q-.373.31-.868.806l-.992.992-.868.992-.558.744a230 230 0 0 1-2.542 3.534 262 262 0 0 1-2.604 3.534q-1.302 1.675-2.418 3.1a69 69 0 0 1-1.86 2.294 9 9 0 0 0-.682.806q-.435.558-.868.558-.744 0-.744-.682 0-.434.31-.992.248-.495.62-1.054.31-.495.682-.93.372-.496.558-.806a129 129 0 0 0 3.534-5.208 377 377 0 0 0 3.41-5.208 502 502 0 0 0 8.308-13.206 147 147 0 0 0 7.502-13.764q.496-.992.868-2.17.434-1.24.558-1.922l.124-.62q.062-.372.186-.682.186-.495.434-.62.31-.186.806-.496.558-.31 1.426-.682t1.426-.372q.372 0 .496.124.186.062.496.434.061.124.186.496.186.31.31.744.186.435.31.868.185.435.248.682a168 168 0 0 0 5.208 14.632 441 441 0 0 0 4.03 9.858 125 125 0 0 0 4.526 9.548q.372.744.868 1.488.495.744 1.054 1.364.62.558 1.364.992a3.7 3.7 0 0 0 1.674.372q.93 0 1.488-.248.558-.31 1.054-.31.372 0 .496.31.123.248.124.558m-18.662-15.686a87 87 0 0 1-3.534-8.37 235 235 0 0 1-2.79-8.68l-.248-.868a1.7 1.7 0 0 0-.434-.744.7.7 0 0 0-.186.124q0 .062-.124.186a47 47 0 0 0-1.178 2.542 38 38 0 0 1-1.24 2.604 79 79 0 0 1-3.906 6.82 447 447 0 0 0-4.216 6.572q2.418.31 4.836.434t4.774.124q2.046 0 4.154-.062a19.3 19.3 0 0 0 4.092-.682M222.611 47.838q0 .372-.62 1.116-.62.682-.93.93-.433.31-1.984.558-1.487.186-3.596.372a69 69 0 0 1-4.464.248q-2.418.125-4.65.186-2.17.062-3.968.062a80 80 0 0 1-2.48.062q-1.611 0-3.348-.062-1.674 0-3.286-.248.558-6.51.744-12.958.125-2.108.186-4.154l.248-4.154a581 581 0 0 0 .248-17.112V11.32q.063-.992-.062-1.984a7.6 7.6 0 0 0-.434-1.86q-.31-.806-1.054-.806-.31 0-.62.124a1.7 1.7 0 0 1-.62.124q-.372 0-.496-.186a1.6 1.6 0 0 1-.062-.496q0-.372.372-.558.373-.248.682-.372l3.472-1.24a23 23 0 0 0 3.41-1.488q.372-.186.62-.186.496 0 .682.434.186.435.186.868 0 .495-.248 1.612-.186 1.116-.186 1.798a268 268 0 0 0-.558 9.858q-.186 5.828-.31 11.532a535 535 0 0 0-.124 11.532q0 3.348.186 6.696 3.534.558 6.51.868a81 81 0 0 0 6.572.248q1.922 0 3.782-.124l3.844-.248q.496-.062.93-.062.497-.062.992-.062.434 0 .434.496M219.868 7.414q4.836 0 9.486.062a726 726 0 0 0 18.848 0q4.713-.062 9.424-.248a20 20 0 0 1 1.55-.062h1.612q.62 0 1.054.248.434.186.434.868 0 .868-.496 1.116-.434.186-1.178.31-.682.124-1.426.186-.744 0-1.426.062l-4.65.372q-1.86.186-3.72.434-1.797.186-3.596.434a5 5 0 0 1-1.116.124h-1.116q-.248.062-.434.124-.124.061-.124.372 0 .992-.124 1.984l-.124 1.86-.248 4.464a167 167 0 0 0-.186 4.464 401 401 0 0 1-.372 10.044 266 266 0 0 0-.186 9.982q0 1.55.682 2.604t2.356 1.054q.62 0 1.178-.062a5.4 5.4 0 0 1 1.178-.124q.249 0 .372.248a.66.66 0 0 1 .124.372q0 .495-.248.682-.247.186-.744.31a38 38 0 0 0-3.596.806q-1.797.495-3.472 1.178l-.744.372q-.496.248-1.054.434-.495.248-.93.434-.434.186-.62.186-.744 0-.744-.62 0-.186.124-.62.125-.435.248-.93l.248-1.116q.186-.558.248-.992.31-2.79.31-5.456.063-2.728.186-5.518.186-5.085.186-10.23v-1.55q0-1.178-.062-2.728v-3.224q0-1.736-.062-3.224a38 38 0 0 0-.186-2.666q-.061-1.117-.186-1.426a2.7 2.7 0 0 0-.248-.496q-.123-.248-.434-.434-.309-.186-1.116-.31a9.4 9.4 0 0 0-1.612-.248 24 24 0 0 0-1.674-.062q-.805-.062-1.24-.062-2.107 0-4.278.124a17 17 0 0 0-4.092.62q-1.24.31-1.922.744-.681.372-1.488 1.364a3 3 0 0 1-.372.434.59.59 0 0 1-.496.248q-.558 0-.558-.682v-1.116q0-1.24-.062-2.48a54 54 0 0 1-.062-2.542q0-.495.372-.496z"/><path fill="#fff" d="M304.387 9.956q0 .683-.062 1.364a6.6 6.6 0 0 1-.248 1.302q-.31 1.116-1.054 2.232t-1.364 2.17a267 267 0 0 0-3.844 6.448 413 413 0 0 1-3.782 6.51 840 840 0 0 0-16.616 29.326q-.495.868-.992 1.798-.495.93-1.116 1.798-.31.434-.62.434-.248.062-.744.062-.186 0-.496-.062-.31 0-.31-.31 0-.062.124-.496.186-.372.372-.868l.372-.868.372-.558a121 121 0 0 1 3.906-8.06q2.109-3.906 4.092-7.998.186-.372.434-.992.31-.682.31-1.116 0-1.054-.682-2.914-.681-1.86-1.798-4.092a101 101 0 0 0-2.356-4.774 121 121 0 0 0-2.604-4.712 497 497 0 0 0-2.418-4.216 558 558 0 0 0-1.674-3.038 30 30 0 0 0-1.178-1.922l-1.24-1.984-.992-1.736a11 11 0 0 0-1.116-1.612 4.9 4.9 0 0 0-1.364-1.24 3.25 3.25 0 0 0-1.736-.496q-.558 0-1.116.062a10 10 0 0 1-1.116.062q-.806 0-.806-.868 0-.744.682-.868t1.24-.186q1.178-.124 2.294-.186l2.356-.248a43 43 0 0 0 1.86-.31q1.054-.248 1.86-.248.496 0 .682.372t.372.682l1.116 2.418q2.295 4.712 4.712 9.362 2.418 4.65 5.022 9.176.558.992 1.116 1.922.62.868 1.24 1.798.063.124.31.496.249.372.496.806.31.434.558.744t.31.31q.124 0 .31-.248.186-.31.372-.682t.31-.682l.248-.496q3.163-6.014 6.262-11.904a578 578 0 0 1 6.448-11.904l.372-.744q.249-.558.558-1.054.372-.496.744-.868.373-.434.682-.434.372 0 .558.62.186.558.248 1.302a9 9 0 0 1 .124 1.488z"/><path stroke="#fff" stroke-width="4" d="M37.472 18.946q0 4.402-2.48 7.936-2.418 3.534-6.324 5.518-2.295 1.178-4.712 1.55a33 33 0 0 1-5.022.372q-.558 0-1.302-.062-.744-.061-.744-.868 0-.682.372-.93.372-.31.868-.372.495-.061 1.054 0 .62.062 1.116.062 2.542 0 4.526-.93 2.046-.992 3.472-2.604 1.425-1.612 2.17-3.782t.744-4.588q0-2.295-.62-4.402-.62-2.17-1.922-3.782a8.45 8.45 0 0 0-3.162-2.604q-1.86-.992-4.34-.992-.992 0-2.48.31t-2.294.868q-.682.495-.93 1.364a13 13 0 0 0-.248 1.612 125 125 0 0 0-.186 4.03q0 2.046-.062 4.154l-.248 9.982a785 785 0 0 0-.062 9.92v3.162q0 1.55.248 3.1.186 1.055.496 1.488.31.372 1.426.372 1.365 0 2.542-.372 1.24-.372 2.17-.372.682 0 .682.868 0 .495-.248.62a2.8 2.8 0 0 1-.496.248q-.495.124-1.054.186-.558 0-1.116.124-.992.186-1.922.434-.93.186-1.922.434-1.364.31-2.666.682-1.302.435-2.604.93-.434.124-1.302.434-.805.372-1.24.372-.558 0-.558-.558 0-.31.186-.62l.434-.434q.62-.744.806-1.488.186-.806.31-1.674.124-1.116.186-2.232l.124-2.232q.186-4.898.434-9.734.248-4.898.31-9.734 0-2.355-.124-4.65-.062-2.295-.186-4.65v-.992q.062-.806 0-1.612a6.8 6.8 0 0 0-.248-1.426q-.186-.62-.62-.62-.682 0-1.488.248-.744.248-1.55.558-.744.31-1.426.558-.62.248-.992.248-.495 0-.496-.62 0-.682.62-.93a17 17 0 0 1 2.294-1.116q1.302-.558 2.418-1.054a43 43 0 0 1 6.572-1.984 30 30 0 0 1 6.82-.806q1.985 0 4.34.372 2.355.31 4.216 1.116 3.534 1.55 5.456 4.65 1.984 3.038 1.984 6.944Z" mask="url(#a)"/><path stroke="#fff" stroke-width="4" d="M42.198 9.15q-.992 0-.992-.868 0-.683.682-.744a6.7 6.7 0 0 1 1.178-.124h3.224a84 84 0 0 1 3.224-.062h3.224a90 90 0 0 1 3.348-.062q2.046 0 4.092-.062a68 68 0 0 1 4.092-.124h.868q.744 0 1.488.124a6.8 6.8 0 0 1 1.426.248q.62.186.62.558 0 .186-.186.806a7.7 7.7 0 0 1-.372 1.178q-.187.62-.496 1.116-.248.434-.434.434-.124 0-.31-.124-.125-.186-.248-.186-.807-.558-2.232-.682a28 28 0 0 0-2.356-.124q-2.48 0-4.96.062-2.418 0-4.898.186-.372 3.967-.434 7.936 0 3.967-.062 7.936 2.294 0 4.526-.124a85 85 0 0 1 4.588-.124q1.797 0 3.596.062h3.658q.248 0 .434.062.186 0 .186.31t-.31 1.054q-.31.682-.496.992a6 6 0 0 1-.434.62q-.186.31-.62.31h-3.906a119 119 0 0 0-3.844-.062q-1.86 0-3.72.062t-3.72.248a351.12 351.12 0 0 0-.248 13.268v2.046q-.001.991.124 2.046 3.162.558 6.262.744 3.162.186 6.324.186 1.983 0 3.906-.062a43 43 0 0 0 3.968-.31l1.612-.248a8 8 0 0 1 1.674-.186q.372 0 .372.372 0 .31-.31.62-.249.248-.372.434-.558.558-1.116.992-.496.434-1.302.62-.87.186-1.86.31-.93.124-1.798.248-3.906.31-7.688.372t-7.688.062q-1.923 0-3.844-.124-1.86-.061-3.782-.372.495-7.626.744-15.066.248-7.502.248-15.19 0-.558-.062-2.108 0-1.612-.062-3.348 0-1.736-.124-3.224-.063-1.488-.186-1.922a2.2 2.2 0 0 0-.372-.682q-.186-.31-.682-.31z" mask="url(#a)"/><path stroke="#fff" stroke-width="4" d="M130.871 15.66q0 7.935-.496 15.5a255 255 0 0 1-1.488 15.376l-.248 2.48a27 27 0 0 1-.372 2.418q-.186 1.302-1.612 1.302-.434 0-.682-.124a13 13 0 0 0-.496-.31 21 21 0 0 1-1.364-1.054 45.8 45.8 0 0 1-2.914-2.666l-1.24-1.24a115 115 0 0 1-3.968-3.782l-3.906-3.906-8.37-8.37q-4.03-4.154-8.122-8.494-.124-.062-.744-.744a41 41 0 0 0-1.364-1.55q-.743-.805-1.364-1.488-.62-.682-.682-.682-.186 0-.186.248-.248.744-.434 1.55-.123.744-.31 1.426a240 240 0 0 1-2.976 11.656 833 833 0 0 1-3.224 11.532 221 221 0 0 1-1.798 6.2 88 88 0 0 1-2.108 6.076q-.186.495-.558.93-.31.496-.868.496-.62 0-.62-.682 0-.186.186-1.054.247-.806.496-1.86.248-.991.434-1.86.248-.868.31-1.178a190 190 0 0 1 1.55-6.138 136 136 0 0 0 1.488-6.2q.868-3.968 1.736-7.874t1.674-7.998l1.612-8.928a24 24 0 0 0-2.232-3.162 54 54 0 0 0-2.48-2.914q-.372-.372-.372-.62 0-.186.434-.744.495-.558 1.054-1.116a8.7 8.7 0 0 1 1.116-1.054q.558-.495.744-.496.248 0 .62.372t.744.868q.372.435.682.868.372.434.558.62.31.31 1.116.31a21 21 0 0 1 1.612-.062q.868-.062 1.488.124.682.124.682.806 0 .868-.248 1.798-.247.869-.496 1.674.682.992 1.488 1.86a65 65 0 0 0 1.674 1.736q2.355 2.48 4.588 4.96a503 503 0 0 0 4.65 4.96q5.022 5.27 9.982 10.354a598 598 0 0 0 10.292 10.044q.124.124.248.31.186.124.31.124t.186-.31q.062-.372.124-.682.372-3.72.558-7.502.248-3.782.248-7.502v-4.216q0-2.79-.124-5.766a73 73 0 0 0-.31-5.58q-.248-2.604-.682-3.658-.372-.868-1.178-1.24a3.26 3.26 0 0 0-1.674-.434q-.806 0-1.55.372t-1.302.372q-.434 0-.496-.434-.062-.496-.062-.806 0-.495.31-.62.372-.124.806-.31l1.86-.62q1.116-.434 2.294-.806a34 34 0 0 1 2.356-.62q1.116-.31 1.798-.31t.806.31q.186.248.31.806.186.93.248 2.108.125 1.117.186 2.356.062 1.177.062 2.356z" mask="url(#a)"/><path stroke="#fff" stroke-width="4" d="M187.34 47.094q0 .247-.434.558-.372.31-.93.682a72 72 0 0 1-1.24.806 9 9 0 0 0-1.24.806q-1.179.868-1.922 1.426-.683.62-1.116.992a6 6 0 0 1-.744.558.83.83 0 0 1-.496.186.7.7 0 0 1-.31-.062q-.124 0-.31-.186-.249-.248-.62-1.054a55 55 0 0 0-.744-1.55 144 144 0 0 1-1.798-3.596 224 224 0 0 0-1.612-3.41 187 187 0 0 1-1.922-4.216l-1.736-4.216q-.93-.062-1.86-.062-.93-.062-1.86-.062-.558 0-2.232.062-1.613 0-3.782.124a91 91 0 0 0-4.464.248 39 39 0 0 0-4.216.558q-1.054.186-2.17.558a5.7 5.7 0 0 0-1.922.992q-.373.31-.868.806l-.992.992-.868.992-.558.744a230 230 0 0 1-2.542 3.534 262 262 0 0 1-2.604 3.534q-1.302 1.675-2.418 3.1a69 69 0 0 1-1.86 2.294 9 9 0 0 0-.682.806q-.435.558-.868.558-.744 0-.744-.682 0-.434.31-.992.248-.495.62-1.054.31-.495.682-.93.372-.496.558-.806a129 129 0 0 0 3.534-5.208 377 377 0 0 0 3.41-5.208 502 502 0 0 0 8.308-13.206 147 147 0 0 0 7.502-13.764q.496-.992.868-2.17.434-1.24.558-1.922l.124-.62q.062-.372.186-.682.186-.495.434-.62.31-.186.806-.496.558-.31 1.426-.682t1.426-.372q.372 0 .496.124.186.062.496.434.061.124.186.496.186.31.31.744.186.435.31.868.185.435.248.682a168 168 0 0 0 5.208 14.632 441 441 0 0 0 4.03 9.858 125 125 0 0 0 4.526 9.548q.372.744.868 1.488.495.744 1.054 1.364.62.558 1.364.992a3.7 3.7 0 0 0 1.674.372q.93 0 1.488-.248.558-.31 1.054-.31.372 0 .496.31.123.248.124.558Zm-18.662-15.686a87 87 0 0 1-3.534-8.37 235 235 0 0 1-2.79-8.68l-.248-.868a1.7 1.7 0 0 0-.434-.744.7.7 0 0 0-.186.124q0 .062-.124.186a47 47 0 0 0-1.178 2.542 38 38 0 0 1-1.24 2.604 79 79 0 0 1-3.906 6.82 447 447 0 0 0-4.216 6.572q2.418.31 4.836.434t4.774.124q2.046 0 4.154-.062a19.3 19.3 0 0 0 4.092-.682Z" mask="url(#a)"/><path stroke="#fff" stroke-width="4" d="M222.611 47.838q0 .372-.62 1.116-.62.682-.93.93-.433.31-1.984.558-1.487.186-3.596.372a69 69 0 0 1-4.464.248q-2.418.125-4.65.186-2.17.062-3.968.062a80 80 0 0 1-2.48.062q-1.611 0-3.348-.062-1.674 0-3.286-.248.558-6.51.744-12.958.125-2.108.186-4.154l.248-4.154a581 581 0 0 0 .248-17.112V11.32q.063-.992-.062-1.984a7.6 7.6 0 0 0-.434-1.86q-.31-.806-1.054-.806-.31 0-.62.124a1.7 1.7 0 0 1-.62.124q-.372 0-.496-.186a1.6 1.6 0 0 1-.062-.496q0-.372.372-.558.373-.248.682-.372l3.472-1.24a23 23 0 0 0 3.41-1.488q.372-.186.62-.186.496 0 .682.434.186.435.186.868 0 .495-.248 1.612-.186 1.116-.186 1.798a268 268 0 0 0-.558 9.858q-.186 5.828-.31 11.532a535 535 0 0 0-.124 11.532q0 3.348.186 6.696 3.534.558 6.51.868a81 81 0 0 0 6.572.248q1.922 0 3.782-.124l3.844-.248q.496-.062.93-.062.497-.062.992-.062.434 0 .434.496Z" mask="url(#a)"/><path stroke="#fff" stroke-width="4" d="M219.868 7.414q4.836 0 9.486.062a726 726 0 0 0 18.848 0q4.713-.062 9.424-.248a20 20 0 0 1 1.55-.062h1.612q.62 0 1.054.248.434.186.434.868 0 .868-.496 1.116-.434.186-1.178.31-.682.124-1.426.186-.744 0-1.426.062l-4.65.372q-1.86.186-3.72.434-1.797.186-3.596.434a5 5 0 0 1-1.116.124h-1.116q-.248.062-.434.124-.124.061-.124.372 0 .992-.124 1.984l-.124 1.86-.248 4.464a167 167 0 0 0-.186 4.464 401 401 0 0 1-.372 10.044 266 266 0 0 0-.186 9.982q0 1.55.682 2.604t2.356 1.054q.62 0 1.178-.062a5.4 5.4 0 0 1 1.178-.124q.249 0 .372.248a.66.66 0 0 1 .124.372q0 .495-.248.682-.247.186-.744.31a38 38 0 0 0-3.596.806q-1.797.495-3.472 1.178l-.744.372q-.496.248-1.054.434-.495.248-.93.434-.434.186-.62.186-.744 0-.744-.62 0-.186.124-.62.125-.435.248-.93l.248-1.116q.186-.558.248-.992.31-2.79.31-5.456.063-2.728.186-5.518.186-5.085.186-10.23v-1.55q0-1.178-.062-2.728v-3.224q0-1.736-.062-3.224a38 38 0 0 0-.186-2.666q-.061-1.117-.186-1.426a2.7 2.7 0 0 0-.248-.496q-.123-.248-.434-.434-.309-.186-1.116-.31a9.4 9.4 0 0 0-1.612-.248 24 24 0 0 0-1.674-.062q-.805-.062-1.24-.062-2.107 0-4.278.124a17 17 0 0 0-4.092.62q-1.24.31-1.922.744-.681.372-1.488 1.364a3 3 0 0 1-.372.434.59.59 0 0 1-.496.248q-.558 0-.558-.682v-1.116q0-1.24-.062-2.48a54 54 0 0 1-.062-2.542q0-.495.372-.496z" mask="url(#a)"/><path stroke="#fff" stroke-width="4" d="M304.387 9.956q0 .683-.062 1.364a6.6 6.6 0 0 1-.248 1.302q-.31 1.116-1.054 2.232t-1.364 2.17a267 267 0 0 0-3.844 6.448 413 413 0 0 1-3.782 6.51 840 840 0 0 0-16.616 29.326q-.495.868-.992 1.798-.495.93-1.116 1.798-.31.434-.62.434-.248.062-.744.062-.186 0-.496-.062-.31 0-.31-.31 0-.062.124-.496.186-.372.372-.868l.372-.868.372-.558a121 121 0 0 1 3.906-8.06q2.109-3.906 4.092-7.998.186-.372.434-.992.31-.682.31-1.116 0-1.054-.682-2.914-.681-1.86-1.798-4.092a101 101 0 0 0-2.356-4.774 121 121 0 0 0-2.604-4.712 497 497 0 0 0-2.418-4.216 558 558 0 0 0-1.674-3.038 30 30 0 0 0-1.178-1.922l-1.24-1.984-.992-1.736a11 11 0 0 0-1.116-1.612 4.9 4.9 0 0 0-1.364-1.24 3.25 3.25 0 0 0-1.736-.496q-.558 0-1.116.062a10 10 0 0 1-1.116.062q-.806 0-.806-.868 0-.744.682-.868t1.24-.186q1.178-.124 2.294-.186l2.356-.248a43 43 0 0 0 1.86-.31q1.054-.248 1.86-.248.496 0 .682.372t.372.682l1.116 2.418q2.295 4.712 4.712 9.362 2.418 4.65 5.022 9.176.558.992 1.116 1.922.62.868 1.24 1.798.063.124.31.496.249.372.496.806.31.434.558.744t.31.31q.124 0 .31-.248.186-.31.372-.682t.31-.682l.248-.496q3.163-6.014 6.262-11.904a578 578 0 0 1 6.448-11.904l.372-.744q.249-.558.558-1.054.372-.496.744-.868.373-.434.682-.434.372 0 .558.62.186.558.248 1.302a9 9 0 0 1 .124 1.488z" mask="url(#a)"/></svg>