<svg xmlns="http://www.w3.org/2000/svg" width="351" height="91" fill="none" viewBox="0 0 351 91"><path fill="#00687c" d="M12.9 19.8v5.7c2.1-2.1 4.8-3.9 7.5-5.1s5.7-1.8 8.7-1.8c6.6 0 12.9 2.7 17.1 7.5 4.8 5.4 7.2 12.3 6.9 19.5.3 7.2-2.4 14.1-7.2 19.2-4.5 4.8-10.8 7.8-17.4 7.8-2.7 0-5.7-.6-8.4-1.5-2.7-1.2-5.4-3-7.5-5.1v24.3H0V19.8zm13.5 10.8c-3.9 0-7.5 1.5-9.9 4.2-2.7 3-4.2 6.9-3.9 10.8-.3 4.2 1.2 8.1 3.9 11.1 2.7 2.7 6.3 4.5 9.9 4.2 3.9 0 7.5-1.5 9.9-4.2 2.7-3 4.2-6.9 3.9-11.1.3-3.9-1.2-7.8-3.9-10.8-2.4-2.7-6-4.5-9.9-4.2m33 40.8H72V50.7c0-3.6 0-7.2.6-10.5.6-2.7 1.8-5.1 3.9-6.9 1.8-1.8 4.2-2.7 6.6-2.7 1.8 0 3.6.6 5.1 1.5 1.5 1.2 2.4 2.7 3 4.8.6 3.9.9 8.1.9 12v22.5H105V37.5c.3-4.8-1.2-9.9-4.5-13.5s-8.1-5.4-12.9-5.4c-2.7 0-5.4.6-7.8 1.5-2.7 1.2-5.4 3-7.5 4.8V0H59.4zm77.4-52.8c4.8 0 9.6 1.2 13.8 3.6q6.3 3.6 9.9 9.9t3.6 13.5c0 4.8-1.2 9.6-3.6 13.8q-3.6 6.3-9.9 9.9c-4.2 2.4-9 3.6-13.8 3.6-7.2 0-14.1-2.7-18.9-7.8-5.1-5.1-8.1-12-7.8-19.2-.3-7.8 3-15 9-20.1 4.5-4.8 11.1-7.2 17.7-7.2m.3 12c-3.9 0-7.5 1.5-9.9 4.2-2.7 3-4.2 6.9-3.9 10.8-.3 3.9 1.2 7.8 3.9 10.8 2.7 2.7 6.3 4.2 9.9 4.2 3.9 0 7.5-1.5 10.2-4.2 2.7-3 4.2-6.9 3.9-10.8.3-3.9-1.2-7.8-3.9-10.8-2.7-2.7-6.6-4.2-10.2-4.2m85.2 18.9h-41.4c.3 3.3 2.1 6.6 4.8 8.7 2.7 2.4 6.3 3.3 9.9 3.3 4.8 0 9.3-1.8 12.6-5.1l10.8 5.1c-2.4 3.6-5.7 6.6-9.9 8.4s-8.7 3-13.5 2.7c-7.5.3-14.4-2.4-19.8-7.5-5.1-5.1-7.8-12-7.5-19.2-.3-7.2 2.4-14.4 7.5-19.5s12-8.1 19.2-7.8c7.5-.3 14.7 2.4 19.8 7.8s8.1 12.9 7.5 20.7zm-12.9-10.2c-.9-3-2.7-5.4-5.1-6.9-2.7-1.8-5.7-2.7-8.7-2.7-3.3 0-6.9.9-9.6 3-2.1 1.8-3.6 4.2-4.8 6.6zM228 71.4h12.9V50.7c0-3.6 0-6.9.6-10.5.6-2.7 1.8-5.4 3.9-7.2 1.8-1.8 4.2-2.7 6.6-2.4 1.8 0 3.6.6 5.1 1.5 1.5 1.2 2.4 3 3 4.8.6 3.9.9 8.1.9 12.3v22.5h12.9V37.5c.3-4.8-1.2-9.6-4.5-13.5-3.3-3.6-8.1-5.4-12.9-5.4-2.4 0-5.1.6-7.2 1.5-3 1.2-5.7 3-8.1 5.1v-5.4H228zm52.5 0h12.9V19.8h-12.9zm35.7-27-19.5 27h14.7l12.3-16.8L336 71.4h15l-19.8-27.3 17.4-24.3h-14.7l-10.2 14.1-10.2-14.1h-15z"/></svg>