<svg xmlns="http://www.w3.org/2000/svg" width="517" height="222" fill="none" viewBox="0 0 517 222"><g clip-path="url(#a)"><path fill="#fefefe" fill-rule="evenodd" d="m266.957 52.507-.093-32.737 29.231-.088c8.903-.025 16.137 7.281 16.163 16.323.031 9.041-7.168 16.39-16.07 16.415zm53.364 9.531a35.9 35.9 0 0 0 7.178-9.71 36.1 36.1 0 0 0 3.852-16.38c-.021-5.9-1.442-11.462-3.945-16.358C321.521 8.097 309.673.26 296.038.3l-48.323.144.314 108.249 19.087-.057-.103-36.743 29.314-.088c8.866.016 16.06 7.307 16.085 16.317l.057 20.38 19.088-.056-.057-20.38c-.021-5.901-1.442-11.462-3.944-16.359a35.9 35.9 0 0 0-7.235-9.67" clip-rule="evenodd"/><path fill="#fefefe" fill-rule="evenodd" d="m266.958 52.509.056 19.381 27.713-.082-.052-19.387zM203.334 52.698l-.093-32.738 28.892-.087c8.799-.026 15.951 7.28 15.977 16.322s-7.085 16.39-15.885 16.415zm59.744-32.918C257.265 8.287 245.551.45 232.076.492L188.917.62l-4.598.016.309 108.248 18.866-.056-.103-36.744 28.891-.087c13.475-.042 25.138-7.945 30.884-19.48 2.451-4.912 3.826-10.483 3.81-16.378-.02-5.901-1.426-11.462-3.898-16.359" clip-rule="evenodd"/><path fill="#fefefe" fill-rule="evenodd" d="m203.336 52.694.051 19.386 27.393-.077-.051-19.386zM336.064.182l.309 108.248 21.142-.067L357.201.12zm180.039 19.611L516.046.407 444.33.618l.309 108.249 71.722-.211-.057-19.386-52.629.16-.072-25.05 52.629-.155-.057-19.387-52.628.16-.072-25.05z" clip-rule="evenodd"/><path fill="#fefefe" fill-rule="evenodd" d="m463.548 44.997.052 19.38 26.579-.077-.056-19.386zM397.448 88.863l-16.158.046-.201-69.476 16.158-.046c18.892-.057 34.257 15.452 34.308 34.637.057 19.186-15.215 34.782-34.107 34.839M397.191 0l-35.246.103.314 108.249 35.246-.103c29.432-.088 53.225-24.391 53.143-54.281C450.56 24.072 426.628-.087 397.191 0" clip-rule="evenodd"/><path fill="#fefefe" fill-rule="evenodd" d="m362.122 61.978.078 26.991 19.092-.056-.082-26.992zM516.398 132.706l-.057-19.386-71.716.211.309 108.249 71.721-.211-.057-19.386-52.628.159-.072-25.05 52.628-.154-.056-19.387-52.629.16-.072-25.05z" clip-rule="evenodd"/><path fill="#fefefe" fill-rule="evenodd" d="m463.842 157.91.056 19.386 26.575-.082-.052-19.381zM444.801 175.406l.077 26.992 19.088-.057-.078-26.986zM227.26 202.211l-.257-88.816-19.078.057.309 108.192 90.778-.227-.051-19.376-31.616.052z" clip-rule="evenodd"/><path fill="#fefefe" fill-rule="evenodd" d="m208.104 175.293.072 26.976 19.082-.057-.077-26.975zM267.348 202.137l-.257-88.816-19.077.057.309 105.885 50.97-.149-.057-17.069z" clip-rule="evenodd"/><path fill="#fefefe" fill-rule="evenodd" d="m248.189 175.201.078 26.975 19.082-.056-.077-26.976zM440.289 158.258l.134 47.299c-5.34 5.453-11.817 9.758-19.041 12.512a52.3 52.3 0 0 1-18.583 3.44c-29.427.088-53.349-24.061-53.432-53.936-.087-29.875 23.696-54.163 53.118-54.251 14.711-.046 28.047 5.973 37.722 15.731l-13.455 13.737c-6.204-6.261-14.767-10.123-24.211-10.097-18.886.057-34.148 15.648-34.097 34.823.057 19.175 15.412 34.679 34.298 34.622a33.7 33.7 0 0 0 18.578-5.633l-.057-18.814-29.39.087-.057-19.376z" clip-rule="evenodd"/><path fill="#fefefe" fill-rule="evenodd" d="m393.454 158.399.057 19.371 27.707-.082-.062-19.376zM318.892 182.818l13.444-26.991 13.604 26.909zm13.326-69.667-53.983 108.352 21.415-.062 9.577-19.221 46.491-.139 9.685 19.164 21.415-.067z" clip-rule="evenodd"/><path fill="#fefefe" fill-rule="evenodd" d="m318.891 182.821-9.665 19.402 27.239-.083 9.474-19.401zM143.889 18.261l.391 134.365-45.373-32.769-63.555-45.893L.004 92.104l63.554 45.893 80.856 58.385 35.472 25.617L179.237.121z" clip-rule="evenodd"/><mask id="b" width="65" height="54" x="80" y="123" maskUnits="userSpaceOnUse" style="mask-type:luminance"><path fill="#fff" d="m104.078 123.592 39.956 28.85.073 23.562-63.73-45.441z"/></mask><g mask="url(#b)"><path fill="#fefefe" fill-rule="evenodd" d="m144.009 144.811.098 31.193-63.73-45.441 24.216-7.121z" clip-rule="evenodd"/></g><mask id="c" width="180" height="223" x="0" y="0" maskUnits="userSpaceOnUse" style="mask-type:luminance"><path fill="#fff" d="m143.885 18.263.397 134.359-45.379-32.763-63.55-45.9L0 92.106 63.56 138l80.85 58.385L179.887 222 179.238.117"/></mask><g mask="url(#c)"><path fill="#3fbfef" fill-rule="evenodd" d="M129.161 185.842c-7.173-5.18-14.345-10.355-21.518-15.535-.021-.01-.057-.005-.082-.005q.052-.047.097-.093c1.715 1.226 3.43 2.446 5.227 3.728-.078-6.884-.16-13.578-.237-20.272l16.415 11.688c.031 6.828.067 13.661.098 20.489" clip-rule="evenodd"/></g><mask id="d" width="180" height="223" x="0" y="0" maskUnits="userSpaceOnUse" style="mask-type:luminance"><path fill="#fff" d="m143.885 18.263.397 134.359-45.379-32.763-63.55-45.9L0 92.106 63.56 138l80.85 58.385L179.887 222 179.238.117"/></mask><g mask="url(#d)"><path fill="#512c12" fill-rule="evenodd" d="M112.649 153.666c.078 6.693.155 13.387.237 20.271-1.797-1.282-3.517-2.502-5.226-3.727q-5.584-4.033-11.173-8.074-.131-10.095-.268-20.19c5.478 3.909 10.952 7.812 16.43 11.72" clip-rule="evenodd"/></g><mask id="e" width="180" height="223" x="0" y="0" maskUnits="userSpaceOnUse" style="mask-type:luminance"><path fill="#fff" d="m143.885 18.263.397 134.359-45.379-32.763-63.55-45.9L0 92.106 63.56 138l80.85 58.385L179.887 222 179.238.117"/></mask><g mask="url(#e)"><path fill="#3457a4" fill-rule="evenodd" d="M63.846 118.854c5.402 3.852 10.803 7.709 16.204 11.56-.015.541-.056 1.081-.056 1.622q.085 9.147.18 18.295-8.52-6.127-17.038-12.245c-.021-.015-.047-.02-.073-.031a.2.2 0 0 0 .026-.056c.227.144.459.293.896.576-.02-1.668-.046-3.156-.056-4.644q-.045-7.538-.083-15.077" clip-rule="evenodd"/></g><mask id="f" width="180" height="223" x="0" y="0" maskUnits="userSpaceOnUse" style="mask-type:luminance"><path fill="#fff" d="m143.885 18.263.397 134.359-45.379-32.763-63.55-45.9L0 92.106 63.56 138l80.85 58.385L179.887 222 179.238.117"/></mask><g mask="url(#f)"><path fill="#6f2381" fill-rule="evenodd" d="M80.174 150.331c-.062-6.097-.123-12.198-.18-18.295-.005-.541.036-1.081.057-1.622q8.087 5.763 16.168 11.534.137 10.095.268 20.189c-5.438-3.934-10.875-7.873-16.313-11.806" clip-rule="evenodd"/></g><mask id="g" width="180" height="223" x="0" y="0" maskUnits="userSpaceOnUse" style="mask-type:luminance"><path fill="#fff" d="m143.885 18.263.397 134.359-45.379-32.763-63.55-45.9L0 92.106 63.56 138l80.85 58.385L179.887 222 179.238.117"/></mask><g mask="url(#g)"><path fill="#0d8036" fill-rule="evenodd" d="M63.846 118.854q.038 7.539.082 15.077c.01 1.488.037 2.976.057 4.644-.438-.283-.67-.432-.896-.576l-15.643-11.272c.016-1.369.052-2.739.047-4.109-.01-5.154-.036-10.313-.057-15.467 5.468 3.903 10.942 7.8 16.41 11.703" clip-rule="evenodd"/></g><mask id="h" width="180" height="223" x="0" y="0" maskUnits="userSpaceOnUse" style="mask-type:luminance"><path fill="#fff" d="m143.885 18.263.397 134.359-45.379-32.763-63.55-45.9L0 92.106 63.56 138l80.85 58.385L179.887 222 179.238.117"/></mask><g mask="url(#h)"><path fill="#fae91c" fill-rule="evenodd" d="M47.435 107.15c.02 5.159.046 10.314.057 15.473.005 1.37-.031 2.734-.046 4.104-5.381-3.877-10.762-7.76-16.143-11.637l-.247-19.623z" clip-rule="evenodd"/></g><mask id="i" width="180" height="223" x="0" y="0" maskUnits="userSpaceOnUse" style="mask-type:luminance"><path fill="#fff" d="m143.885 18.263.397 134.359-45.379-32.763-63.55-45.9L0 92.106 63.56 138l80.85 58.385L179.887 222 179.238.117"/></mask><g mask="url(#i)"><path fill="#f08819" fill-rule="evenodd" d="m31.057 95.467.247 19.623c-5.504-4.006-11.008-8.007-16.513-12.013.082-.195.237-.396.232-.592-.036-6.184-.088-12.368-.14-18.552q8.088 5.763 16.174 11.534" clip-rule="evenodd"/></g><mask id="j" width="180" height="223" x="0" y="0" maskUnits="userSpaceOnUse" style="mask-type:luminance"><path fill="#fff" d="m143.885 18.263.397 134.359-45.379-32.763-63.55-45.9L0 92.106 63.56 138l80.85 58.385L179.887 222 179.238.117"/></mask><g mask="url(#j)"><path fill="#f2abcc" fill-rule="evenodd" d="M129.161 185.842c-.031-6.828-.067-13.661-.098-20.489 5.031 3.589 10.066 7.183 15.149 10.808.133 6.813.267 13.64.401 20.705-5.283-3.769-10.365-7.4-15.452-11.024" clip-rule="evenodd"/></g><mask id="k" width="180" height="223" x="0" y="0" maskUnits="userSpaceOnUse" style="mask-type:luminance"><path fill="#fff" d="m143.885 18.263.397 134.359-45.379-32.763-63.55-45.9L0 92.106 63.56 138l80.85 58.385L179.887 222 179.238.117"/></mask><g mask="url(#k)"><path fill="#e10f14" fill-rule="evenodd" d="M15.026 102.488c0 .196-.155.392-.237.587L-1.374 91.546c4.155-2.126 8.1-4.242 12.146-6.158 1.293-.607 2.343-2.106 4.11-1.457.05 6.184.102 12.368.143 18.557" clip-rule="evenodd"/></g><mask id="l" width="16" height="32" x="129" y="165" maskUnits="userSpaceOnUse" style="mask-type:luminance"><path fill="#fff" d="m129.288 165.232 14.721 10.921.463 20.277-.062-.046-15.122-10.921z"/></mask><g mask="url(#l)"><path fill="#fefefe" fill-rule="evenodd" d="m144.009 176.153.479 20.895-15.2-11.395v-20.421z" clip-rule="evenodd"/></g></g><defs><clipPath id="a"><path fill="#fff" d="M0 0h516.655v222H0z"/></clipPath></defs></svg>