<svg xmlns="http://www.w3.org/2000/svg" width="651" height="585" fill="none" viewBox="0 0 651 585"><path fill="#fff" d="M0 137.691V2.309h69.856q19.43 0 29.7 3.324 10.27 3.325 16.562 12.375 6.291 8.958 6.291 21.887 0 11.266-4.811 19.485-4.811 8.127-13.231 13.206-5.366 3.231-14.711 5.356 7.494 2.494 10.918 4.987 2.313 1.662 6.662 7.11 4.44 5.45 5.921 8.404l20.263 39.248H86.048L63.657 96.319Q59.4 88.285 56.07 85.884q-4.534-3.14-10.27-3.14h-3.701v54.947zm42.099-80.527H59.77q2.868 0 11.103-1.847 4.163-.831 6.754-4.248 2.683-3.417 2.683-7.85 0-6.557-4.164-10.066t-15.636-3.51H42.099z"/><path fill="#fff" d="M230.385 115.343h-47.742l-6.57 22.348h-42.838L184.216 2.309h45.707l50.98 135.382h-43.856zm-8.79-29.274L206.606 37.4 191.71 86.07zM294.967 2.309h62.269q18.413 0 29.7 4.987 11.38 4.986 18.782 14.314 7.403 9.327 10.733 21.701t3.331 26.227q0 21.702-4.996 33.707-4.904 11.913-13.694 20.04-8.79 8.034-18.875 10.712-13.786 3.694-24.981 3.694h-62.269zm41.913 30.66v73.97h10.271q13.138 0 18.69-2.862 5.55-2.956 8.697-10.159 3.146-7.295 3.146-23.549 0-21.516-7.032-29.459-7.032-7.941-23.316-7.942zM443.561 2.309h42.006V137.69h-42.006zM510.456 70.092q0-33.154 18.505-51.622Q547.465 0 580.497 0q33.863 0 52.183 18.193Q651 36.293 651 68.984q0 23.734-8.05 38.971-7.957 15.145-23.131 23.641Q604.739 140 582.162 140q-22.946 0-38.027-7.296-14.99-7.295-24.334-23.087-9.345-15.79-9.345-39.525m41.913.185q0 20.501 7.587 29.46 7.68 8.957 20.818 8.957 13.509 0 20.911-8.773 7.401-8.774 7.402-31.49 0-19.117-7.772-27.89-7.68-8.865-20.911-8.865-12.676 0-20.355 8.957t-7.68 29.644"/><path fill="#048bab" d="M69.679 353.863q-27.303-14.499-39.817-32.41-17.064-24.45-17.064-56.291 0-52.312 49.202-85.575Q100.394 154 163.532 154q83.615 0 123.431 31.842 40.101 31.841 40.101 80.173 0 28.145-15.926 52.595-11.945 18.195-37.542 35.253 33.844 16.206 50.34 42.93 16.78 26.725 16.78 59.134 0 31.273-14.505 58.566-14.22 27.009-35.266 41.793-20.762 14.783-52.046 21.607-31 7.107-66.266 7.107-66.266 0-101.248-15.637-34.981-15.636-53.183-46.056T0 455.359q0-36.675 17.064-61.978 17.064-25.586 52.615-39.518m52.046-81.878q0 21.606 13.367 34.969 13.651 13.078 36.119 13.078 19.908 0 32.706-13.078 12.8-13.078 12.799-33.832 0-21.607-13.367-34.969-13.368-13.647-34.129-13.646-21.045 0-34.413 13.362-13.082 13.077-13.082 34.116m-6.257 179.394q0 27.576 16.78 45.203 16.779 17.343 38.394 17.343 20.762 0 37.257-17.627 16.495-17.91 16.495-45.204 0-27.576-16.779-45.203-16.495-17.628-38.395-17.627-21.615 0-37.825 17.058-15.927 17.058-15.927 46.057M651 154v423.893H533.826V300.131q-28.441 21.606-55.175 34.969-26.45 13.362-66.55 25.587V265.73q59.156-19.048 91.862-45.772Q536.67 193.234 555.156 154z"/></svg>