<svg xmlns="http://www.w3.org/2000/svg" width="331" height="140" fill="none" viewBox="0 0 331 140"><path fill="#fff" d="m301.3 113.5 5 9.6H296zm27.2 25.6c.7 0 1.2-.2 1.5-.7s.3-1.1 0-1.7l-21.3-39.8c-.1-.3-.4-.5-.7-.7s-.6-.3-.8-.3h-9.7c-.2 0-.5.1-.8.3s-.6.4-.7.6l-22.6 39.8c-.4.6-.4 1.2-.1 1.7s.9.8 1.6.8h11.4q.45 0 .9-.3c.3-.2.5-.4.7-.7l2.8-5.4h20.7l2.8 5.4c.1.3.3.5.6.7q.45.3.9.3zm-53.1-43.2q-.45 0-.9.3c-.3.2-.5.4-.6.7l-9.6 21.4-10-21.4c-.1-.3-.4-.5-.7-.7q-.45-.3-.9-.3h-12.5c-.7 0-1.2.2-1.5.7s-.3 1-.1 1.7l19.9 40.5c.1.3.3.5.7.7q.45.3.9.3h7.2c.3 0 .5-.1.9-.3.3-.2.5-.4.7-.7l20-40.5c.3-.6.3-1.2 0-1.7s-.8-.7-1.5-.7zm-40 43.2c.4 0 .7-.2 1-.5s.4-.7.4-1.2V97.5c0-.4-.1-.8-.4-1.2-.3-.3-.6-.5-1-.5h-10.2c-.4 0-.7.2-1 .5s-.4.7-.4 1.2v39.9c0 .4.1.8.4 1.2.3.3.6.5 1 .5zm-27.7 0c.5 0 .9-.2 1.2-.5s.5-.7.5-1.2v-30.7h11.3c.5 0 .9-.2 1.2-.5s.5-.7.5-1.2v-7.5c0-.4-.2-.8-.5-1.2-.3-.3-.7-.5-1.2-.5h-38.1c-.5 0-.9.2-1.2.5s-.5.7-.5 1.2v7.5c0 .5.2.9.5 1.2s.7.5 1.2.5H194v30.7c0 .4.2.8.5 1.2.3.3.7.5 1.2.5zm-49.9-33.3c2 0 3.6.3 4.6.9 1.1.6 1.6 1.6 1.6 3 0 1.6-.7 2.7-2.1 3.4s-3.4.9-6.1.9h-6.6v-8.2zm-2.9 18.1c2 0 3.1.1 3.4.3.2.1.4.3.5.4.2.2.3.4.5.6l-.1-.1 7 13.1c.1.3.4.5.6.7q.45.3.9.3h14c.7 0 1.2-.3 1.5-.8s.3-1.1-.1-1.7l-7.5-12.7c-.6-.7-1.2-1.5-2.1-2.2-.8-.7-1.8-1.4-3-2 1-.3 1.9-.7 2.7-1.1s1.6-.9 2.2-1.3c2.5-1.9 3.8-4.9 3.8-9.1 0-3.7-1.5-6.7-4.6-9-2.9-2.1-6.7-3.1-11.4-3.1h-27.6c-.4 0-.8.2-1.2.5-.3.3-.5.7-.5 1.2v39.9c0 .4.2.8.5 1.2.3.3.7.5 1.2.5h12.2c.5 0 .9-.2 1.2-.5s.5-.7.5-1.2v-13.6h5.4zm-37.9-6.4c0 3.2-.9 5.5-2.7 7.1s-4.5 2.4-7.9 2.4c-3.5 0-6.1-.8-7.9-2.4s-2.7-4-2.7-7.1.9-5.5 2.7-7.1 4.4-2.4 7.9-2.4 6.1.8 7.9 2.4 2.7 3.9 2.7 7.1m15.2 0q0-11.25-6.6-16.8c-4.4-3.7-10.8-5.5-19.3-5.5s-15 1.8-19.3 5.5q-6.6 5.55-6.6 16.8t6.6 16.8c4.4 3.7 10.8 5.5 19.3 5.5s15-1.8 19.3-5.5c4.5-3.7 6.6-9.3 6.6-16.8m-73.7-11.7c2-.1 3.5.2 4.6.9 1.1.8 1.7 1.8 1.7 3.2 0 2.9-2.2 4.2-6.7 4l-2.8-.1V106zm2.5 18c6 .1 10.6-1 13.7-3.3s4.6-5.9 4.6-10.8c0-2.5-.4-4.6-1.3-6.3s-2.2-3.2-4-4.3q-2.7-1.65-6.6-2.4c-2.6-.5-5.7-.7-9.2-.7H42c-.4 0-.8.2-1.2.5-.3.3-.5.7-.5 1.2v39.9c0 .4.2.8.5 1.2.3.3.7.5 1.2.5h11.7c.5 0 .9-.2 1.2-.5s.5-.7.5-1.2v-13.8zm-22.4 1.4c0-3.7-1.2-6.7-3.7-9-2.2-2.2-6.3-3.9-12.2-5.1-1.7-.3-3.1-.6-4.3-1-1.2-.3-2.2-.7-3.1-1s-1.4-.8-1.4-1.4.4-1.1 1.3-1.3c.9-.3 2.2-.4 3.8-.4 2.2 0 4.6.4 7.3 1.2 1.4.4 2.7.8 3.9 1.3l3.6 1.5c.6.3 1.2.3 1.7-.1s.7-.9.7-1.6l-1.1-9.6c0-.3-.2-.6-.4-.9s-.5-.5-.8-.6c-.7-.2-1.6-.4-2.6-.7-1-.2-2.3-.5-3.7-.7-2.9-.5-5.6-.8-8.2-.8-5.9 0-10.5 1.2-13.7 3.6-3.3 2.4-4.9 5.9-4.9 10.5 0 4 1.3 7 4 9.3 2.5 2.1 6.9 3.7 13.2 5 3.4.7 5.5 1.3 6.5 1.9q.9.6.9 1.2 0 1.2-1.5 1.8c-1 .4-2.3.6-4 .6-2.7 0-5.7-.6-9-1.7q-4.8-1.65-7.5-3c-.6-.3-1.2-.3-1.7.1-.5.3-.7.9-.7 1.6l.9 10.5c0 .3.2.6.4.9q.45.45.9.6c.4.1 1 .2 1.7.4.8.2 1.7.3 2.7.5v-.1c.3.1.6.1.9.2.3 0 .6.1 1 .2 1.6.3 3.2.4 4.8.6 1.6.1 3.2.2 4.8.2 3 0 5.7-.3 8.1-1 2.4-.6 4.4-1.6 6.1-2.8s3-2.8 3.9-4.6c.9-1.9 1.4-4 1.4-6.3M163 76.8q0 3.15-1.5 4.8c-1 1.2-2.5 1.7-4.4 1.7-1.8 0-3.3-.6-4.3-1.7q-1.5-1.8-1.5-4.8 0-3.15 1.5-4.8c1-1.2 2.5-1.7 4.3-1.7 1.9 0 3.3.6 4.4 1.7q1.5 1.8 1.5 4.8m11.7 0c0-5.1-1.6-9.2-4.8-12.2-3.2-2.9-7.5-4.4-12.8-4.4s-9.5 1.5-12.7 4.4c-3.2 3-4.8 7-4.8 12.2 0 5.1 1.6 9.1 4.8 12.1 3.2 2.9 7.4 4.4 12.7 4.4 5.4 0 9.6-1.5 12.8-4.4s4.8-7 4.8-12.1m-47.9-23.7c0 1.6.5 2.9 1.4 3.8s2.2 1.4 3.8 1.4c1.7 0 2.9-.5 3.9-1.4.9-.9 1.4-2.2 1.4-3.8s-.5-2.9-1.4-3.8-2.2-1.4-3.9-1.4c-1.6 0-2.9.5-3.8 1.4s-1.4 2.2-1.4 3.8m9.7 39.6c.4 0 .7-.2.9-.5.3-.3.4-.7.4-1.2V61.8q0-.3-.3-.6c-.2-.2-.4-.4-.7-.5s-.5-.3-.8-.4-.5-.1-.7-.1h-7.8c-.4 0-.7.2-1 .5s-.4.7-.4 1.2V91c0 .4.1.8.4 1.2.3.3.6.5 1 .5zM106.4 83q-1.8 1.2-3.3 1.2c-1.7 0-2.9-.6-3.8-1.9s-1.3-3-1.3-5.2q0-3.75 1.5-6c1-1.5 2.5-2.2 4.5-2.2 1.1 0 2.1.3 2.9.8.3.1.6.3.8.4l.6.3v11.3c-.2.1-.4.3-.7.5s-.7.5-1.2.8m6.5 8.8q.15.3.6.6t.9.3h5.1c.4 0 .8-.2 1.2-.5.3-.3.5-.7.5-1.2V51.1c0-.4-.2-.8-.5-1.2-.3-.3-.7-.5-1.2-.5H110c-.5 0-.9.2-1.2.5s-.5.7-.5 1.2v10.5c-.3-.2-.7-.3-1-.5-.3-.1-.7-.3-1-.5-1.9-.8-3.9-1.3-5.9-1.3-4.6 0-8.2 1.6-10.8 4.7-2.5 3-3.8 7.1-3.8 12.2s1.3 9.2 3.9 12.2c2.7 3.2 6.3 4.7 10.8 4.7 3.2 0 5.8-.7 7.8-2 .6-.4 1.1-.8 1.7-1.2l1.5-1.2zM69.3 84c-1.2.5-2.5.7-4 .7-1.9 0-2.8-.5-2.8-1.4q0-2.7 8.4-2.7h.2v2.6c-.3.1-.5.2-.8.4-.3.1-.7.3-1 .4M85 88.4c.2-.3.5-.6.6-.9s.1-.6-.1-.9c-.1-.3-.3-.5-.6-.7s-.6-.3-1-.3c0 0-.1-.1-.4-.3s-.4-.3-.4-.3V73.7c0-2.4-.3-4.5-.9-6.2s-1.6-3.1-2.9-4.2-2.9-1.8-4.9-2.3-4.3-.7-7-.7c-1.7 0-3.3.1-4.8.4s-3 .7-4.4 1.2c-1.4.6-2.5 1.1-3.4 1.5-.9.5-1.5.9-1.9 1.2-.2.2-.3.5-.4.8-.1.4-.1.7 0 1l2.1 4.8c.2.4.5.7 1 .9s.9.1 1.3-.1c.6-.3 1.3-.6 2-.9s1.5-.6 2.3-.9c.9-.4 1.8-.6 2.7-.8.9-.1 1.8-.2 2.8-.2 1.3 0 2.3.3 3 .8.7.6 1.1 1.4 1.2 2.5l-4.6-.2q-3.45-.15-6.3.6c-1.9.5-3.6 1.3-5.1 2.3-3 2.1-4.6 4.8-4.6 8 0 3 1 5.5 3 7.3q3 2.7 8.7 2.7c1.9 0 3.9-.3 5.7-.8 8.7-2.4 10.3 6 17.3-4m-60.3-29c2 0 3.6.3 4.6.9 1.1.6 1.6 1.6 1.6 3 0 1.6-.7 2.7-2.1 3.4-1.4.6-3.4.9-6.1.9h-6.6v-8.2zm-3 18c2 0 3.1.1 3.4.3.2.1.4.3.5.4.2.2.3.4.5.6l-.1-.1 7 13.1c.1.3.4.5.6.7q.45.3.9.3h14c.7 0 1.2-.3 1.5-.8s.3-1.1-.1-1.7l-7.5-12.7c-.6-.7-1.2-1.5-2.1-2.2-.8-.7-1.8-1.4-3-2 1-.3 1.9-.7 2.7-1.1s1.6-.9 2.2-1.3C44.7 69 46 66 46 61.8c0-3.7-1.5-6.7-4.6-9-2.9-2.1-6.7-3.1-11.4-3.1H2.5c-.4 0-.8.2-1.2.5-.3.3-.5.7-.5 1.2V91c0 .4.2.8.5 1.2.3.3.7.5 1.2.5h12.2c.5 0 .9-.2 1.2-.5s.5-.7.5-1.2V77.4z"/><path fill="#f58221" fill-rule="evenodd" d="M208.4 44.3c-8.6 0-15.6-7-15.6-15.6s7-15.6 15.6-15.6 15.6 7 15.6 15.6c-.1 8.7-7.1 15.6-15.6 15.6" clip-rule="evenodd"/><path fill="#ee1c25" fill-rule="evenodd" d="M216.5 70.3c-5.6 0-10.2-4.6-10.2-10.2s4.6-10.2 10.2-10.2 10.2 4.6 10.2 10.2c0 5.7-4.6 10.2-10.2 10.2" clip-rule="evenodd"/><path fill="#919bc3" fill-rule="evenodd" d="M244.9 48.1c-4.5 0-8.1-3.6-8.1-8.1s3.6-8.1 8.1-8.1 8.1 3.6 8.1 8.1-3.6 8.1-8.1 8.1" clip-rule="evenodd"/><path fill="#00adee" fill-rule="evenodd" d="M244 18c-2.9 0-5.3-2.4-5.3-5.3s2.4-5.3 5.3-5.3 5.3 2.4 5.3 5.3-2.4 5.3-5.3 5.3" clip-rule="evenodd"/><path fill="#ec008d" fill-rule="evenodd" d="M258.9 23.8c-1.9 0-3.4-1.5-3.4-3.4s1.5-3.4 3.4-3.4 3.4 1.5 3.4 3.4-1.5 3.4-3.4 3.4" clip-rule="evenodd"/><path fill="#ffe700" fill-rule="evenodd" d="M233.4 32.5c-1.9 0-3.4-1.5-3.4-3.4s1.5-3.4 3.4-3.4 3.4 1.5 3.4 3.4-1.5 3.4-3.4 3.4" clip-rule="evenodd"/><path fill="#6bcacd" fill-rule="evenodd" d="M230 51.8c-2.7 0-5-2.2-5-5 0-2.7 2.2-5 5-5 2.7 0 5 2.2 5 5s-2.3 5-5 5" clip-rule="evenodd"/><path fill="#8dd8f8" fill-rule="evenodd" d="M261.7 5.5c-1.4 0-2.5-1.1-2.5-2.5s1.1-2.5 2.5-2.5 2.5 1.1 2.5 2.5-1.1 2.5-2.5 2.5" clip-rule="evenodd"/><path fill="#fff" fill-rule="evenodd" d="M209.2 75.8c5.1 5.6 8 9.2 6 10.7s-8.5.6-16-3.2c-17.6-9-29.2-29-28.2-48.8.4-8.4 2.9-14.4 5.2-15.4s4 3.3 6.3 10.5c5.7 17.7 14.3 32.6 26.7 46.2" clip-rule="evenodd"/></svg>