<svg xmlns="http://www.w3.org/2000/svg" width="455" height="362" fill="none" viewBox="0 0 455 362"><path fill="#fff" d="M355.663 235.44c6.773 56.376-31.211 109.581-87.803 120.684-56.593 11.102-111.863-23.812-126.89-78.569l-95.087 18.652L2.96 81.543 403.57 2.958l42.922 214.664"/><path fill="#000" d="M332.942 311.262c15.415-21.188 23.078-47.943 19.771-75.477-.162-1.363 1.032-2.997 2.381-3.262l87.899-17.244L401.235 6.442 6.459 83.883l41.758 208.838 92.184-18.083c1.35-.265 3.073.812 3.437 2.137 7.338 26.738 24.535 48.611 46.803 62.4 22.105 13.688 49.216 19.413 76.65 14.032 27.424-5.38 50.355-20.922 65.651-41.945m25.965-73.434c2.679 28.09-5.401 55.261-21.157 76.917-16.15 22.2-40.365 38.61-69.32 44.291-28.945 5.678-57.56-.369-80.899-14.821-22.777-14.104-40.527-36.207-48.662-63.224L46.453 299.12c-1.453.285-3.194-.885-3.484-2.334L.045 82.123c-.292-1.461.883-3.208 2.346-3.495L403.001.043c1.453-.285 3.194.884 3.483 2.334l42.923 214.663c.292 1.461-.883 3.209-2.347 3.495z"/><path fill="#0069b4" d="m168.012 258.102-3.48-18.061 6.244-1.203-.611-70.167 37.341-7.195 25.386 65.394 5.848-1.127 3.48 18.062-27.838 5.364-6.695-20.393-13.83 2.664 1.539 21.387m-2.888-37.421 10.768-2.075-12.012-33.63zM78.91 185.872l3.456 17.938-6.658 1.283 9.602 49.831 6.658-1.283 3.48 18.061-36.531 7.039-3.48-18.061 6.657-1.281-9.601-49.832-6.658 1.282-3.456-17.939M403.927 90.784c1.033 5.274.354 9.772-2.061 13.499-2.39 3.743-6.101 6.096-11.087 7.074l-27.567 5.408c-5.068.994-9.414.221-13.031-2.301-3.6-2.525-5.932-6.454-6.975-11.77l-10.039-51.18c-1.027-5.233-.344-9.711 2.066-13.458 2.395-3.722 6.126-6.08 11.152-7.066l27.567-5.408c5.027-.986 9.354-.208 12.972 2.313 3.598 2.525 5.926 6.433 6.961 11.708m-26.424 57.586 11.991-2.353-9.769-49.799-11.991 2.352zm-50.663-60.393 3.516 17.925-6.943 1.362 9.77 49.799 6.943-1.362 3.541 18.049-38.097 7.473-3.541-18.049 6.942-1.362-9.767-49.798-6.943 1.362-3.517-17.926zm-72.203 84.494 12.979-2.546-9.769-49.799-12.98 2.546zm-27.488 24.136-3.541-18.049 6.943-1.362-9.769-49.799-6.943 1.362-3.516-17.926 51.303-10.063c5.049-.99 9.354-.208 12.971 2.312 3.599 2.525 5.928 6.434 6.963 11.708l10.039 51.18c1.033 5.274.354 9.773-2.019 13.491-2.391 3.743-6.079 6.092-11.128 7.083zm-91.401 17.93-3.541-18.049 6.511-1.277-.305-70.271 38.941-7.639 26.142 65.203 6.099-1.197 3.541 18.049-29.031 5.695-6.88-20.347-14.422 2.83 1.502 21.401zm25.726-43.048 11.229-2.203-12.357-33.544zM73.151 84.591c5.089-.999 9.43-.245 13.028 2.28 3.594 2.504 5.902 6.417 6.945 11.732l2.606 13.289c.679 3.461.195 6.338-1.465 8.675s-4.549 4.188-8.681 5.597c4.744.075 8.237.866 10.487 2.415s3.732 4.082 4.428 7.626l2.522 12.856 6.819-1.337 3.541 18.048-20.315 3.985c-3.152.618-5.626.44-7.418-.513-1.795-.975-2.955-2.737-3.459-5.312l-5.388-27.465-13.825 2.712 6.891 35.13-31.153 6.111-3.541-18.049 6.943-1.362-9.769-49.799-6.943 1.362-3.517-17.925zm-13.323 38.538 12.856-2.522-3.27-16.668-12.857 2.522zM153.032 241.873l3.48 18.061-36.116 6.959-3.48-18.061 6.362-1.224-9.602-49.832-7.804 1.503 2.733 14.184-16.853 3.247-6.189-32.121 72.707-14.01 6.189 32.12-16.853 3.248-2.733-14.183-7.804 1.504 9.602 49.831"/><path fill="#e30613" d="M288.525 296.107c2.206-.326 3.712-1.38 4.536-3.212.827-1.807 1.222-5.431 1.161-10.872l-.698-63.323c-.06-5.391-.533-9.006-1.399-10.817-.865-1.812-2.395-2.833-4.605-3.062l-.104-9.264c10.633.87 18.993 6.092 25.041 15.672 6.066 9.575 9.18 22.502 9.359 38.748.179 16.274-2.693 29.291-8.588 39.103-5.919 9.812-14.1 15.24-24.602 16.293m-4.049-9.222.103 9.265c-10.588-.819-18.95-6.067-25.062-15.745-6.112-9.679-9.271-22.629-9.448-38.903-.181-16.247 2.668-29.237 8.523-38.946s14.123-15.115 24.775-16.22l.102 9.188c-2.188.327-3.713 1.407-4.538 3.239-.823 1.83-1.196 5.455-1.138 10.847l.697 63.322q.093 8.162 1.355 10.845c.845 1.81 2.394 2.829 4.631 3.108m-73.476 9.922q-15.951-1.381-25.083-15.745c-6.069-9.553-9.202-22.478-9.382-38.752-.179-16.248 2.667-29.264 8.524-38.996q8.814-14.639 24.73-16.297l.038 9.265c-2.208.276-3.714 1.333-4.539 3.164-.827 1.832-1.219 5.454-1.159 10.846l.698 63.297c.06 5.441.532 9.058 1.398 10.846.865 1.812 2.394 2.832 4.608 3.112zm3.883.11-.111-10.072.26-.003q2.568-.028 3.492-1.784c.595-1.172.862-4.288.807-9.324l-.233-21.134c-.04-3.592-.458-6.246-1.257-7.907-.799-1.688-2.022-2.509-3.669-2.49-1.149.013-2.144.276-2.963.767-.818.516-1.719 1.387-2.725 2.637l-.109-9.869c2.428-2.053 4.818-3.546 7.127-4.482a19.7 19.7 0 0 1 7.226-1.445c7.111-.08 12.908 2.591 17.391 8.033q6.724 8.164 6.874 21.793c.109 9.896-2.834 18.129-8.832 24.751-5.999 6.618-13.765 10.121-23.278 10.529m-1.211-109.789.628-.007c7.739-.086 14.072 2.072 19.022 6.497 4.926 4.426 7.438 9.94 7.511 16.571q.073 6.646-3.521 10.976-3.629 4.291-9.321 4.354-5.721.063-9.273-3.391c-2.387-2.277-3.592-5.328-3.634-9.072-.029-2.657.725-5.248 2.258-7.694 1.533-2.474 2.296-4.022 2.29-4.657-.014-1.24-.479-2.223-1.419-2.945-.941-.75-2.422-1.289-4.442-1.674z"/><path fill="#e30613" d="M337.9 267.281c-3.541 18.172-12.492 34.812-25.402 47.768-12.539 12.582-28.804 21.69-47.464 25.351-24.94 4.894-49.582-.84-69.211-14.03-19.637-13.196-34.258-33.852-39.151-58.796a92 92 0 0 1-1.658-21.573 91.7 91.7 0 0 1 3.458-21.359l8.203 2.334a83 83 0 0 0-3.125 19.358 83.6 83.6 0 0 0 1.491 19.606c4.442 22.646 17.706 41.393 35.516 53.359 17.817 11.974 40.19 17.175 62.843 12.731 16.943-3.323 31.697-11.581 43.062-22.983 11.725-11.766 19.854-26.875 23.066-43.366m-168.912-47.603a93.15 93.15 0 0 1 26.843-38.545 91.7 91.7 0 0 1 42.04-20.323c24.94-4.893 49.581.84 69.211 14.032 19.637 13.196 34.258 33.851 39.15 58.795a92 92 0 0 1 1.699 15.139 91.5 91.5 0 0 1-.84 15.164l-8.438-1.167c.618-4.466.873-9.065.739-13.765a84 84 0 0 0-1.531-13.736c-4.442-22.646-17.706-41.393-35.517-53.361-17.817-11.973-40.19-17.175-62.843-12.73-14.595 2.863-27.563 9.385-38.138 18.423a84.6 84.6 0 0 0-24.375 35.01z"/><path fill="#0069b4" d="m336.468 136.625 3.457 17.937-6.657 1.283 9.602 49.832 6.658-1.283 3.479 18.059-36.53 7.039-3.48-18.059 6.658-1.282-9.603-49.833-6.657 1.283-3.457-17.937M358.736 221.35l-3.479-18.061 6.242-1.203-.611-70.167 37.342-7.195 25.387 65.394 5.85-1.127 3.479 18.062-27.838 5.364-6.695-20.393-13.83 2.664 1.539 21.387m-2.889-37.421 10.768-2.075-12.013-33.63zM248.181 242.654l-3.478-18.061 6.657-1.282-9.602-49.832-6.658 1.283-3.456-17.937 36.412-7.017 3.455 17.938-6.775 1.305 9.604 49.832 11.062-2.132-2.978-15.464 21.296-4.103 6.459 33.524"/><path fill="#fff" d="m274.593 233.25-3.608.708-.274-1.398-10.025 1.968.273 1.397-3.635.713-1.505-7.67 3.635-.713.273 1.397 10.026-1.968-.273-1.397 3.609-.707m-.548-2.797-3.609.707-.269-1.373-13.661 2.68-.893-4.546 7.744-6.4-8.666 1.699-1.168-5.957 3.634-.713.274 1.397 10.025-1.967-.273-1.398 3.608-.707 1.169 5.957-7.732 6.397 8.654-1.696zm-3.801-19.375-3.607.707-.271-1.373-13.661 2.681-.892-4.547 7.743-6.4-8.666 1.7-1.168-5.957 3.634-.713.274 1.398 10.026-1.967-.274-1.398 3.608-.708 1.169 5.956-7.73 6.398 8.652-1.697zm-24.132-31.592 3.634-.713.258 1.311 14.148-.062 1.538 7.84-13.13 5.265.242 1.229-3.635.714-1.146-5.847 4.096-1.385-.569-2.904-4.309.302zm8.667 5.179.443 2.261 6.754-2.488z"/><path fill="#000" d="m140.934 287.192-70.169 13.766-1.241-6.362 69.343-13.603a113 113 0 0 0 2.067 6.199M367.533 242.74c6.489 54.01-29.898 104.979-84.113 115.614a105 105 0 0 1-22.84 1.937 113 113 0 0 0 7.85-1.255c28.955-5.681 53.17-22.092 69.32-44.291 15.756-21.656 23.836-48.827 21.157-76.917l88.153-17.293c1.464-.286 2.639-2.034 2.347-3.495L408.52 12.56l4.27-.837 41.758 213.949"/></svg>