<svg xmlns="http://www.w3.org/2000/svg" width="323" height="233" fill="none" viewBox="0 0 323 233"><path fill="#ffff50" d="M177.6 74.8c0-41.3-33.5-74.8-74.8-74.8-4.7 0-9.4.4-13.9 1.3 34.5 6.6 60.6 37 60.6 73.4 0 35.2-24.3 64.7-57 72.6l49.3 49.3 11.4-16.7-32.5-32.5c32.7-8 56.9-37.5 56.9-72.6M74.8 28.2c-25.7 0-46.6 20.8-46.6 46.6v143.9c0 .4 0 .9-.1 1.3.6 7.2 6.7 12.9 14 12.9 7.8 0 14.1-6.3 14.1-14.1v-67.7l-5.9-5.9c-2.4-2.5-3.9-5.9-3.9-9.7 0-6.3 4.1-11.6 9.8-13.4V74.9c.1-21 13.8-38.6 32.7-44.5-4.5-1.5-9.2-2.2-14.1-2.2M321.8 16.7C320.4 9 313 4 305.3 5.5c-3.8.7-7 2.9-9 5.9l-2.8 4.2c.1.4.2.7.3 1.1.7 3.8-.2 7.6-2.2 10.6L157.3 224l4.7 4.7c2.5 2.5 6.1 4.1 10 4.1 4.8 0 9.1-2.4 11.7-6.2L319.6 27.3c2-3 2.9-6.8 2.2-10.6"/><path fill="#0037ff" d="M89 1.3C84.4.4 79.7 0 74.8 0 33.5 0 0 33.4 0 74.7v143.9c0 7.8 6.3 14.1 14.1 14.1 7.4 0 13.4-5.6 14-12.8 0-.4-.1-.8-.1-1.3V74.8c.1-36.6 26.3-67 61-73.5M277.2 5.4c-3.8.7-7 2.9-9 5.9L153.2 180l16.7 16.7L293.4 15.5c-1.9-7-8.9-11.5-16.2-10.1"/><path fill="#0037ff" d="M78.5 145.2c-2.4-2.6-3.8-6-3.8-9.7 0-7.3 5.6-13.4 12.8-14h.1c.4 0 .8-.1 1.3-.1h14.2c25.7 0 46.6-20.8 46.6-46.6 0-25.7-20.8-46.6-46.6-46.6-4.9 0-9.6.8-14 2.1 18.8 6 32.4 23.6 32.4 44.4 0 25.7-20.8 46.6-46.6 46.6H60.7c-.4 0-.8 0-1.3.1h-.1q-1.5.15-3 .6v29.1l77.6 77.6c2.5 2.5 6.1 4.1 10 4.1 4.8 0 9.1-2.4 11.7-6.2l1.7-2.5z"/><path fill="#8cc63f" d="M46.6 135.4c0 3.8 1.5 7.2 3.9 9.7l5.9 5.9v-29.1c-5.7 1.9-9.8 7.2-9.8 13.5"/><path fill="#8cc63f" d="M293.7 16.6c-.1-.4-.2-.7-.3-1.1L169.9 196.7 153.2 180l-11.4 16.7-49.3-49.3c32.7-8 57-37.5 57-72.6 0-36.4-26.1-66.8-60.6-73.4C54.2 7.9 28 38.3 28 74.9v143.9c0 .4 0 .8.1 1.3 0-.4.1-.9.1-1.3V74.7C28.2 49 49 28.1 74.8 28.1c4.9 0 9.7.8 14.1 2.2 4.4-1.4 9.1-2.1 14-2.1 25.7 0 46.6 20.8 46.6 46.6 0 25.7-20.8 46.6-46.6 46.6H88.7c-.4 0-.8 0-1.3.1h-.1c-7.2.7-12.8 6.7-12.8 14 0 3.8 1.5 7.2 3.9 9.7l78.8 78.8L291.4 27.2c2.1-3 3-6.8 2.3-10.6"/></svg>