<svg xmlns="http://www.w3.org/2000/svg" width="153" height="153" fill="none" viewBox="0 0 153 153"><path fill="#e72f56" d="M76.5 153c42.25 0 76.5-34.25 76.5-76.5S118.75 0 76.5 0 0 34.25 0 76.5 34.25 153 76.5 153"/><path fill="#fff" d="M76.5 137.2c-33.5 0-60.8-27.3-60.8-60.8S43 15.6 76.5 15.6s60.8 27.3 60.8 60.8-27.3 60.8-60.8 60.8m0-114.5c-29.7 0-53.8 24.1-53.8 53.8s24.1 53.8 53.8 53.8 53.8-24.1 53.8-53.8-24.2-53.8-53.8-53.8"/><path fill="#fff" d="M106.6 50.6h-9.1c-.5 0-1.5.5-1.6.9l-17 36.2 7.3 11.5c3.2-6.4 6.4-12.9 9.6-19.3v26.4c0 .7.7 1.4 1.8 1.4h9c1.1 0 1.8-.7 1.8-1.4V52.1c0-.8-.8-1.5-1.8-1.5"/><path fill="#fff" d="M86.6 105.5 73.9 85.2v.1l-1.9-3-.4-.6c-.1-.2-.1-.4-.1-.6v-.3c0-.5.3-1 .7-1.3.3-.2.6-.3 1-.3h7.3c.5 0 .7-.2.7-.7v-6.4c0-1 .5-1.6 1.4-1.9.1 0 .3-.1.5-.1.3 0 .7-.1 1-.2h.1c.6-.1.7-.4.4-.9-.1-.2-.3-.5-.4-.7-.4-.6-.8-1.3-1.2-1.9-.1-.1-.1-.2-.2-.3-.3-.5-.6-1.1-.7-1.7 0-1.4-.3-2.7-.7-4-.5-1.7-1.4-3.2-2.5-4.5-.3-.3-.6-.7-.9-1l-.3-.3-.2-.2c-.5-.5-1.1-.9-1.7-1.3-1.4-.9-2.8-1.5-4.4-1.9h-.3c-.6-.1-1.3-.2-1.9-.3h-23c-1 0-1.7.7-1.7 1.5v9.2l4.2 6.7c1.1 1.8 2.4 3.4 3.4 5.2h-5.9c-1 0-1.7.7-1.7 1.5v31.6c0 .7.7 1.4 1.7 1.4h9c1.1 0 1.7-.7 1.7-1.4V85.1h2.4L73 106.9l-.1-.1c.2.4 1.1.8 1.5.8h10.7c1.5.1 2.2-1.1 1.5-2.1M66.7 75.3l-2.6-4.2c.2 0 .4.1.7.1 2.1 0 3.9-1.7 3.9-3.9s-1.7-3.9-3.9-3.9c-1.8 0-3.3 1.2-3.7 2.8l-2.7-4.3c1.5-1.8 3.8-3 6.4-3 4.6 0 8.3 3.7 8.3 8.3-.1 3.9-2.7 7.2-6.4 8.1"/></svg>