<svg xmlns="http://www.w3.org/2000/svg" width="2510" height="978" fill="none" viewBox="0 0 2510 978"><path fill="#ed1c24" d="M2458.58 125.718c-129.15-180.78-461.22-164.669-741.79 35.924-34.83 24.904-67.2 51.487-96.98 79.284 26.6 11.674 47.93 27.577 63.72 47.484 11.26-9.064 22.86-17.937 34.88-26.537 205.86-147.232 444.84-165.639 533.85-41.182 88.86 124.451-5.89 344.717-211.74 491.939-205.86 147.219-444.76 165.655-533.79 41.178a174 174 0 0 1-7.91-12.169c-30.34 6.812-63.72 10.509-99.94 11.09 7.99 35.995 22.45 69.546 43.89 99.547 129.18 180.784 461.24 164.694 741.83-35.944 280.52-200.635 403.18-509.836 273.98-690.614"/><path fill="#fff" d="m423.648 384.336-162.241-.238c-96.468-.152-133.088 47.339-143.361 95.561-11.051 48.992 2.775 99.46 98.486 99.613l70.887.098 11.808-56.278-122.798-10.427 17.654-79.698 239.02.366-50.061 236.844-90.617-1.582-9.507-19.044s-73.134 24.041-116.964 23.983c-127.906-.205-183.319-89.5-161.21-194.04 23.546-111.106 114.992-190.683 250.232-190.47 51.169.081 122.031 9.685 185.601 19.277zM703.17 669.918l-271.175-.395 80.222-374.275 114.783.17-61.1 281.436 154.913 9.73zM989.188 382.243c-95.741-.155-123.59 48.071-134.658 100.704-11.738 52.63-3.777 100.921 91.249 101.053 97.211.153 124.321-48.08 135.361-99.988 11.79-53.357 5.25-101.633-91.952-101.769M926.62 675.39c-170.273-.259-211.816-83.686-189.023-192.617 23.57-108.915 101.918-192.169 270.733-191.913 171.77.252 212.57 83.699 189.74 193.334-23.56 108.18-100.43 191.446-271.45 191.196M1510.26 412.996c-.76 2.926-8.8 16.797-17.59 29.227L1367 434.721l10.28-47.509 66.52 2.289c56.55 1.916 67.56 5.28 67.54 16.03-.01 2.172-.46 4.643-1.08 7.465m-16.27 139.651c-2.75 13.648-15.1 25.383-71.5 28.569-3.97.226-8.16.401-12.57.538l-74.57 2.09 13.24-62.85 75.97 3.034c58.09 2.669 70.02 11.541 70 23.635-.01 1.608-.23 3.268-.57 4.984m134.69-149.712c2.58-9.359 3.89-18.12 3.91-26.276.1-52.372-53.3-79.821-169.67-80.003l-181.26-.266-53.72 252.191-26.5 122.797 186.44.288c.29.006.56.006.85.006 133.9 0 207.51-47.368 222.91-118.121 1.18-5.625 1.76-11.077 1.76-16.357 0-.444 0-.894-.01-1.333v-.201c-.59-27.029-16.46-49.6-44.73-67.725 30-16.776 51.95-35.76 60.02-65"/><path fill="#fff" fill-rule="evenodd" d="M1840.96 676.743c-170.31-.252-211.83-83.686-189.02-192.608 23.57-108.909 101.9-192.171 270.73-191.913 171.75.243 212.54 83.677 189.74 193.325-23.55 108.17-100.44 191.45-271.45 191.196m-97.2-282.133h184.4l5.88 121.413 81.39-121.413h46.39l-118.14 179.563h-46l-20.64-138.65h-44.68l-37.48 138.65h-46.01l35.97-138.65h-51.3z" clip-rule="evenodd"/></svg>