<svg xmlns="http://www.w3.org/2000/svg" viewBox="0 0 283.46 212.6"><defs><style>.cls-1{fill:#ff8d00}.cls-2{fill:#fff}</style></defs><g id="Layer_1" data-name="Layer 1"><path d="M0 0v212.57h206.93V0ZM283.46 0v212.57H212.6V0Z" class="cls-1"/><path d="M132 56.9c-3.4-12.33-9-22.45-24.2-26.45a12 12 0 0 1-1.32-.56.55.55 0 0 1-.37-.51v-3.9a.57.57 0 0 1 .55-.55h3.38a.56.56 0 0 0 .55-.55v-4.81a.56.56 0 0 0-.55-.55h-3.38a.57.57 0 0 1-.55-.55v-3a.57.57 0 0 0-.55-.55h-4.63a.57.57 0 0 0-.55.55v3a.57.57 0 0 1-.55.55h-3.16a.56.56 0 0 0-.55.55v4.85a.55.55 0 0 0 .55.55h3.19a.56.56 0 0 1 .55.55v3.9a.56.56 0 0 1-.33.51 10 10 0 0 1-1 .48c-12.67 3.31-23 13.82-24.73 26.64 19.52-4.12 38.52-3.75 57.65-.15M86.71 95.44h33a1.85 1.85 0 0 0 1.47-.73c1.73-4.3 3.35-8.6 5.15-13.34a141 141 0 0 0-46.12 0c1.8 4.74 3.38 9 5 13.27a1.85 1.85 0 0 0 1.5.8" class="cls-2"/><path d="m173.06 97.91-3.75 3.74-4.48-4.48 3.74-3.75-3.89-3.85 4.7-4.71 3.86 3.86 3.76-3.75 4.48 4.49-3.75 3.74 8.45 8.45 8.71-8.78Q183 81.08 171 69.25c.84-.92 1.51-1.69 2.13-2.36-1.87-1.94-3.64-3.74-5.51-5.69-1.1 1-2.17 2-3.42 3.23a13.74 13.74 0 0 0-6.58-6.5 22.23 22.23 0 0 0-26.23 6.1 2.08 2.08 0 0 1-2.32.81c-8.85-1.55-17.82-2.94-26.82-2.5-8.3.4-16.53 1.65-24.8 2.46a2.28 2.28 0 0 1-1.69-.44 20.6 20.6 0 0 0-16-8.23c-7-.37-13.3 1.25-17.05 8-.07.11-.29.18-.47.29l-3.42-3.2c-1.95 1.91-3.75 3.64-5.62 5.48.81.92 1.5 1.72 2.46 2.83C27.72 77.39 12 93.01 12 93.01l8.34 8.45 8.26-8.27-3.74-3.75 4.48-4.48 3.75 3.75L37 84.9l4.7 4.7-3.86 3.86 3.75 3.75-4.48 4.48-3.75-3.75-8.31 8.27 8.75 8.86s15.72-15.88 23.7-23.92c.62.58 1.1 1.06 1.73 1.69-1.81 2-3.5 4-5.22 5.84-4.89 5.36-9.37 11-12 17.89-4.67 12.42.15 23.41 12.38 28.44.33.15.66.37 1.1.63-17.38 6-22.41 24.43-15.91 37.22a26.6 26.6 0 1 0 45.55-27.19c6.1-6.14 12.16-12.24 18.15-18.23q9 9 18.23 18.12a26.87 26.87 0 0 0 8.08 38.39c11.72 7 27.37 3.83 35.16-7.34a25.79 25.79 0 0 0 3.53-23.92c-2.79-8.49-8.82-13.89-17.45-17.09a21.94 21.94 0 0 0 10.06-6c6.47-7.05 7.17-15.1 3.68-23.7-2.65-6.5-6.95-11.9-11.61-17.05-1.8-2-3.53-4-5.37-6.06.63-.59 1.07-1 1.51-1.43a4.7 4.7 0 0 1 .62.51c7.17 7.21 14.37 14.37 21.54 21.57.88.88 1.72 1.69 1.72 1.69s.85-.77 1.66-1.61l3-3c.41-.44 1.95-2 3.93-4Zm-38.47-30.68c2.35-3.75 6.1-5.08 9.59-4-1.44 2-3.35 3.89-4.38 6.17-1.91 4.26-1.43 8.86-.84 13.37a18 18 0 0 0 .77 2.5c2 4-4.34 8.93-5.07 9.52-2.98-9.12-5.59-18.78-.07-27.56m.91 37.73c1.25 1.76 2.54 3.68 3.94 5.51 2.53 3.38 5.29 6.58 7.68 10.07 1.94 2.83 3 6 2 9.55-.7 2.5-1.36 2.83-3.75 1.91-5.77-2.24-10.1-6.35-14.07-10.87-1.84-2.1-3.49-4.41-5.33-6.73Zm-12.86 12.86c2.87 3.31 5.48 6.8 8.6 9.78s6.54 5.36 9.81 8c-10.54 1.1-17.19-5.33-23.26-12.64 1.73-1.91 3.35-3.56 4.85-5.14m-5.43-6.25-4.49 4.6c-2-3.35-3.82-6.43-5.76-9.74 2.64-.48 5-.92 7.31-1.21a1.78 1.78 0 0 1 1.43.73c.92 1.44 1.65 3 2.5 4.49-.37.4-.66.8-.99 1.13m-41.45-15c3.12-7.38 4.74-15 3.64-23.44a155.6 155.6 0 0 1 48 0c-1.06 8.34.52 15.83 3.57 23.11a2.06 2.06 0 0 1-.26 1.73c-2.86 3.08-5.8 6.13-9 9.48-1.21-2.32-2.28-4.08-3.09-5.92-.51-1.18-1-1.65-2.46-1.32-2.9.66-5.88 1-8.82 1.58-5.14.95-10.07-.48-15.06-1.21a8.2 8.2 0 0 1-1.8-.37c-1.14-.44-1.62.11-2.06 1.06-1 2-2 3.9-3.12 6.1-.7-.66-1.25-1.17-1.8-1.72-2.39-2.39-4.82-4.71-7.1-7.17a2.2 2.2 0 0 1-.64-1.91m24.1 9.81c-1.94 3.31-3.82 6.47-5.91 10a35.6 35.6 0 0 0-3.71-3.9c-1.77-1.36-1.55-2.57-.48-4.26 2-3.27 1.95-3.31 5.69-2.68 1.33.34 2.72.56 4.41.85Zm-16 11.47c1.73 1.73 3.31 3.34 4.93 5-3.13 7.42-15.51 14.18-23.56 12.45 7.99-4.1 13.54-10.53 18.61-17.44Zm-22.92 14.4c-1.62.63-2.36.08-2.91-1.32a10 10 0 0 1 .74-8.67 45.5 45.5 0 0 1 3.67-5.48c2.9-3.86 5.88-7.64 9.08-11.76 2.86 2.91 5.77 5.81 8.6 8.75a1.39 1.39 0 0 1 .11 1.25c-5.13 7.25-10.75 13.86-19.31 17.24ZM72.4 67.33c3.05 4.48 3.49 9.51 2.76 14.62-.56 3.82-1.88 7.57-2.87 11.32-.07.22-.29.36-.74.95-1.54-1.72-3.08-3.3-4.44-5a2.52 2.52 0 0 1-.19-1.94 36.3 36.3 0 0 0 1.33-12.9c-.33-4.48-1.88-8.34-6.25-10.91 4.17-1.35 7.81.1 10.38 3.87Zm-24.53-2.86c1.62-2 4.48-3.42 8.23-3.71a17.27 17.27 0 0 0-7.27 10.1c-3.16-2.5-3.27-3.45-.96-6.39m5 10.62a1.19 1.19 0 0 1-.26-1c.84-2.21 1.69-4.41 2.72-6.51a2.45 2.45 0 0 1 2.09-.84 6.31 6.31 0 0 1 5.29 4c1.88 4.63 1.1 9.26.11 14.51Zm-2.54 62.39c-5.18-4.48-6.8-10.25-4.92-16.9 1.72-6.18 5.29-11.25 9.37-16 2.42-2.83 4.92-5.59 7.42-8.38l5.8 5.92c-2.83 3.74-5.73 7.71-8.81 11.57-2.76 3.49-5.33 7-6 11.54-1.14 7.42 2.76 13 10.18 14.44 1.91.36 3.86.4 6.24.66-7.26 2.62-13.61 1.96-19.24-2.85Zm12.86 51.51a17.91 17.91 0 0 1 .26-35.82c9.81 0 18 8.23 17.93 17.86a18 18 0 0 1-18.15 17.96Zm15.58-39.83q-4-1.87-8.93-4.19c10-3.34 16.09-11.17 22.27-19 1.8 1.87 3.38 3.53 4.85 5.07C91.05 137 85 143.06 78.81 149.16Zm24.32-24.06c-1.72-1.8-3.63-3.75-5.69-5.88 1.91-3.16 3.89-6.47 6-9.89 2 3.35 4 6.58 5.92 9.85-2.07 1.99-4.13 3.93-6.19 5.92Zm6.14 6c1.65-1.51 3.42-3.16 5.33-4.93 1.17 1.32 2.57 2.76 3.78 4.34 4.74 6.24 10.36 11.35 17.79 14.22a1.5 1.5 0 0 1 .47.33c-3.12 1.47-6.17 2.86-9.22 4.3-5.91-6.04-11.97-12.1-18.11-18.27Zm51.88 39.83A18.07 18.07 0 0 1 143.4 189c-9.85.08-18.08-7.75-18.19-17.3-.11-10.4 7.61-18.41 17.9-18.52a18.07 18.07 0 0 1 18.04 17.74Zm-.33-52.18c2.43 6.69 1.65 12.86-3.53 17.93-5.51 5.4-12.16 6.36-19.36 3.86-.15 0-.26-.18-.22-.15 2.46-.4 5.14-.48 7.57-1.28 7.35-2.43 10.51-9.15 7.68-16.61a35.6 35.6 0 0 0-4.26-7.42c-2.91-4.16-6-8.16-9.12-12.2-.8-1-.66-1.73.3-2.61 1.5-1.4 2.86-3 4.37-4.56 6.4 7.38 13.34 13.92 16.61 23.03Zm-9.44-41.3c-2.35 2.39-4.63 4.85-6.91 7.28-.22-.11-.4-.26-.62-.37-1-4.3-1.33-8.64-.08-12.94a6 6 0 0 1 2.1-3.08c3.85-2.65 5.25-2.5 6.94 1.54 1.88 4.25 1.88 4.22-1.39 7.56Zm6.66-6.88c-1.4-3.94-3.31-7.35-6.73-9.74 3.38.33 6.32 1.43 8.2 4.37 1.65 2.61 1.53 2.87-1.47 5.37M262.72 59.57s0-.1.08-.13q7.23-4.18 14.46-8.4c.31-.18.72-.55.73-.84.07-1.86 0-3.73 0-5.63h-24.83v5.86h15.52c-.88.43-1.63.74-2.32 1.14-3.84 2.26-7.63 4.6-11.52 6.77-1.31.74-2 1.52-1.77 3.07a33 33 0 0 1 0 4.1H278v-5.94Zm-9.61 103.66 24.89 8.46v-5.83c0-.21-.37-.52-.63-.6q-1.85-.58-3.72-1.05c-.65-.16-1-.4-.94-1.16.07-2 .05-4 0-6a.91.91 0 0 1 .78-1.07c1.51-.4 3-.86 4.47-1.3v-6.21l-.65.18-14.09 4.78c-3.05 1-6.12 2.06-9.17 3.11-.44.15-1 .18-1 .94.09 1.89.06 3.79.06 5.76ZM278 85.3c-1.52-.44-3-.85-4.51-1.31-.28-.09-.7-.42-.71-.65-.05-2.4 0-4.82 0-7.25l5.22-1.52v-6.19l-.82.23-11.09 3.75c-4.09 1.39-8.17 2.77-12.24 4.19a1.16 1.16 0 0 0-.7.76c-.06 1.94 0 3.87 0 5.84L278 91.57Zm-21.78 7.62c-5 5-4.61 14.38.68 19.12a13.33 13.33 0 0 0 18.9-1.46c4.35-5.43 3.25-14.34-1.54-18.31l-4.34 3c.53.7 1.09 1.34 1.54 2.05 1.57 2.48 2.11 5.12.7 7.83-1.81 3.5-6.56 4.81-10.32 3-3.28-1.6-4.55-5.74-2.86-9.44.47-1 1.11-2 1.71-3Zm-3.09 101.26 1.09-.35 7.3-2.59q7.88-2.78 15.74-5.58c.3-.11.74-.42.75-.64.06-2 0-4 0-6l-24.91-8.77v6.05c0 .22.36.55.61.63q7.38 2.34 14.77 4.63c.77.24 1.58.36 2.49.55-.21.16-.25.22-.31.24-5.63 1.67-11.27 3.32-16.89 5a1.13 1.13 0 0 0-.66.79c-.03 1.98 0 3.92 0 6.04Zm5.28-52H278v-6.09h-19.64v-7.52h-5.17v21h5.2ZM278 119.4h-24.83v6H278Zm0-77.83c-1.64-.54-3.18-1-4.71-1.55-6.37-2.16-12.73-4.35-19.11-6.47-.86-.29-1.17-.66-1.12-1.57.09-1.49 0-3 0-4.49a.83.83 0 0 1 .64-1q12-4 23.93-8.1a2 2 0 0 1 .35 0v5.85c0 .17-.39.4-.64.48-1.27.39-2.54.76-3.82 1.09a.91.91 0 0 0-.81 1.06v6.12a.9.9 0 0 0 .8 1c1.28.34 2.56.68 3.82 1.08.27.09.65.44.65.68.07 1.96.02 3.82.02 5.82m-10.15-14-8.76 2.36 8.76 2.39Zm-35.54 76.05a14.64 14.64 0 1 1 .1-29.28 14.87 14.87 0 0 1 15.16 14.68c-.02 8.13-6.82 14.64-15.26 14.63Zm13.49-14.7c0-7.18-6-12.77-13.54-12.75a12.79 12.79 0 1 0 .2 25.56c7.54-.01 13.36-5.61 13.34-12.78Zm-28 54c.19-4.26 0-8.44.62-12.53.86-6.16 5.36-10.11 11.56-10.85a17.7 17.7 0 0 1 9.49 1.21 11.62 11.62 0 0 1 7.17 9.4c.55 4.18.4 8.46.55 12.77Zm27.63-1.8c-.23-3.94.45-7.84-.68-11.63a10.6 10.6 0 0 0-6-7 15.85 15.85 0 0 0-8.39-1.09 11.26 11.26 0 0 0-10.45 10.38c-.27 3-.14 6-.18 9.07a.8.8 0 0 0 .13.3Zm-27.34 52.71c0-3.61-.14-7.11 0-10.61.28-5.74 5.6-7.91 10-6.79a7.55 7.55 0 0 1 5.76 5.44l13-7c.43 1.67.32 1.94-1 2.64-3.63 1.94-7.27 3.87-10.88 5.83-.32.17-.73.55-.73.84-.06 2.58 0 5.16 0 7.86H247v1.76Zm14.42-1.81v-7.65a6 6 0 0 0-.06-1.21 7.2 7.2 0 0 0-.48-1.66c-1.17-2.52-3.84-3.78-7.11-3.39a5.52 5.52 0 0 0-5 5.17c-.14 2.78-.1 5.57-.14 8.36a1.3 1.3 0 0 0 .13.38Zm14.43-43.68c.2 1.75.2 1.77-1.24 2.33-2.64 1-5.28 2-7.93 3a1 1 0 0 0-.81 1.17v10.63c0 .46 0 .8.58 1 2.69 1 5.35 2 8 2.94 1.55.56 1.56.54 1.35 2.39l-3.22-1.16-24.93-9.3c-.54-.2-.87-.39-.83-1.06s0-1.18.84-1.48c4.79-1.74 9.55-3.54 14.33-5.33l13-4.83c.29-.07.55-.19.86-.29Zm-26.52 11.71 14.84 5.52v-10.94ZM247 110.57v1.68h-28.95v-1.68Zm12.11 49.44 8.73-2.36v4.75Zm0-80.12 8.73-2.36v4.75Z" class="cls-2"/></g></svg>