<svg xmlns="http://www.w3.org/2000/svg" width="976" height="500" fill="none" viewBox="0 0 976 500"><path fill="#fff" d="m282.075 477.918 12.245-15.055c12.247 11.643 26.7 19.272 45.375 19.272 19.071 0 28.907-10.04 28.907-21.08 0-13.05-11.445-18.071-34.531-23.289-28.105-6.624-46.778-15.055-46.778-39.953 0-23.088 20.076-40.552 47.782-40.552 21.28 0 37.139 7.827 50.391 19.476l-11.645 15.259c-11.643-10.643-25.495-16.867-39.55-16.867-15.457 0-26.3 9.837-26.3 20.881 0 12.85 11.844 17.265 34.529 22.683 27.506 6.426 46.577 15.662 46.577 40.352 0 23.289-17.666 40.957-50.189 40.957-23.088-.002-42.159-8.033-56.813-22.084M159.278 500c-12.143 0-15.717-3.57-15.717-15.715V268.573h27.145v207.14h15.715V252.857h-27.143c-12.143 0-15.717-3.572-15.717-15.717V15.715C143.561 3.572 147.135 0 159.278 0h39.284c12.145 0 15.715 3.572 15.715 15.715v197.142h-27.143V24.286h-15.713v204.286h27.141c12.145 0 15.715 3.568 15.715 15.713v240c0 12.145-3.57 15.715-15.715 15.715zm-65.712 0V24.286H79.281V0h56.429v24.286h-14.288V500zm-50 0V267.145h-15.71V500H0V0h55.716c12.141 0 15.713 3.572 15.713 15.715V235c0 12.145-3.572 15.713-12.858 15.713h-1.428v8.572h1.428c9.285 0 12.858 3.57 12.858 15.715v225zm-15.71-257.143h15.715V24.286H27.856zm921.681 254.934-12.044-28.105h-71.871l-12.046 28.105h-22.484l59.223-137.92H912.8l59.221 137.92zm-76.085-46.373h56.214l-28.107-65.448zm-173.441 46.373V359.872h47.581c44.567 0 76.286 28.5 76.286 68.858s-31.719 69.06-76.286 69.06zm20.278-18.47h28.506c31.921 0 54.2-20.877 54.2-50.59 0-29.51-22.284-50.39-54.2-50.39h-28.507zm-69.248 18.47-33.729-47.978h-31.719v47.978h-20.278V359.87h58.02c29.111 0 51.195 18.669 51.195 44.97 0 21.28-14.457 37.542-35.335 42.961l35.134 49.989zm-65.448-66.853h34.932c19.877 0 33.326-9.835 33.326-26.1s-13.449-26.1-33.326-26.1h-34.932zm-63.024 66.853-12.046-28.105h-71.872l-12.046 28.105H404.12l59.225-137.92h22.485l59.223 137.92zm-76.087-46.373h56.212l-28.1-65.448zM746.418 257.43c0-20.618 17.521-37.923 38.136-37.923s37.925 17.3 37.925 37.923-17.306 38.031-37.925 38.031-38.136-17.415-38.136-38.031m11.109 0c0 15.276 12.394 28.094 27.027 28.094s26.921-12.818 26.921-28.094c0-15.169-12.283-27.991-26.921-27.991s-27.027 12.821-27.027 27.991M652.1 283.6l6.517-8.013c6.513 6.2 14.206 10.255 24.139 10.255 10.148 0 15.382-5.34 15.382-11.217 0-6.943-6.088-9.614-18.373-12.39-14.956-3.529-24.89-8.013-24.89-21.259 0-12.285 10.683-21.58 25.424-21.58 11.323 0 19.765 4.165 26.812 10.365l-6.194 8.116c-6.2-5.658-13.567-8.972-21.046-8.972-8.224 0-13.993 5.236-13.993 11.11 0 6.837 6.3 9.185 18.373 12.072 14.635 3.416 24.786 8.329 24.786 21.47 0 12.39-9.4 21.789-26.708 21.789-12.285.003-22.435-4.271-30.229-11.746m265.979 10.574v-73.387h53.948v10.042h-43.055v20.938h38.883v10.042h-38.883v22.325h43.052v10.042zm-28.09 0-42.2-55.655v55.655H837v-73.387h10.787l42.2 55.657v-55.657h10.787v73.389zm-167.6 0v-73.387h10.787v73.389zm-93.252 0v-73.387h10.787v73.389zm-54.372 0-31.516-73.389h11.964l25.533 59.5 25.531-59.5h11.966l-31.514 73.389zm-93.788 0v-73.387h53.948v10.042h-43.058v20.938h38.883v10.042h-38.883v22.325h43.052v10.042zm-61.1 0v-73.387h10.9v63.347h38.883v10.042zm-66.55 0v-73.387h53.943v10.042h-43.052v20.938H403.1v10.042h-38.882v22.325h43.052v10.042zm-47.214 0v-63.345h-24.038v-10.042h58.967v10.042H316.9v63.347zM817.2 78.688C817.2 35.907 853.547 0 896.329 0s78.686 35.907 78.686 78.688-35.91 78.912-78.686 78.912S817.2 121.468 817.2 78.688m23.052 0c0 31.7 25.713 58.294 56.081 58.294s55.856-26.6 55.856-58.294c0-31.478-25.493-58.077-55.856-58.077s-56.085 26.599-56.085 58.077zM600.889 154.94V2.662h52.529c49.212 0 84.235 31.472 84.235 76.028s-35.023 76.25-84.235 76.25zm22.388-20.394h31.474c35.242 0 59.849-23.054 59.849-55.856 0-32.584-24.607-55.636-59.849-55.636h-31.473zm144.057 20.392V2.66h22.384v152.278zm-216.3 0-13.3-31.033h-79.351l-13.3 31.033h-24.826L485.646 2.662h24.824l65.39 152.276zm-84.011-51.2h62.067l-31.033-72.26zm-87.311 51.2-37.238-52.976h-35.021v52.976h-22.386V2.662h64.058c32.137 0 56.524 20.614 56.524 49.651 0 23.493-15.96 41.449-39.012 47.43l38.788 55.195zm-72.26-73.813h38.568c21.945 0 36.8-10.861 36.8-28.812s-14.85-28.818-36.8-28.818h-38.567z"/></svg>