<svg xmlns="http://www.w3.org/2000/svg" width="127" height="97" fill="none" viewBox="0 0 127 97"><path fill="#00a3cb" fill-rule="evenodd" d="M60.8 12.4c0-1.2-.3-4.5-.4-5.5s.1-.9-.4-1.5-.5-1.2-1.1-1.6-1.8-.7-2.9-.9-1.3-.3-2.1 0-.7.7-1.3.3-1.4-.8-1.9-.6-.9.7-1.1.9c-.2.1-.6-.3-1-.1-.3.3-.4.5-.8.7-.3.1-.2-.1-.8.4s-1.2 1.1-1.5 1.4c-.3.4-.5.6-.8 1.2s-.5 1.6-.7 2.2c-.3.6-.6 1.1-1 1.4s-1 .7-1.5 1.5c-.5.9-.8 2.7-.8 4.1s-1.5 4.8-1.8 6.7-4.1 29.5-4.2 30.3-1.8 9.3-2.1 11-1.6 7.8-1.6 9.3 0 2.2.3 1.7.7-2.8.9-3.2.4-.7.3-.1-.5 2.5-.5 2.9.5-.2.7-.7.2-.8.4-1.2.3-.6.1.5-.8 2.6-.8 2.9.1.9 0 1.2c-.1.4-.2.9-.1 1.1s.7-.4.7-.7c.1-.3.2-.8.3-1.4s-.1-.3.1-1.1.4-1.1.4-1.1.1.7.1 1.1-.2.9-.1 1.2c.1.4.3.3.3.7 0 .3-.7 3.2-.7 3.6s-.2.8 0 .6.4-1.1.5-1.2 0 .8-.1 1.1c-.1.4-1.1 6.2-1.2 6.6s-.1 1.1.1.8c.1-.3 1-3.4 1-3.7s.9-4.9 1-5.3.2.5.1.7c0 .2.1.5.5 0s.8-.6 1.2-1 .4-.7.4-.7-.1.9-.1 1.1c-.1.2-.1.1-.1.5 0 .5 0 .7-.1 1.1 0 .4.3-.5.4-1.1.2-.5.2-.7.4-1s0 .4-.1.8c-.1.7-.3 1.5-.3 1.7v1.6c0 .3 0 .3.2.1s.4-.2.1.2c-.2.4-.3.1-.1.6s.1 1.1.1 1.2c0 .2-.1.5.1.5s.2-.3.3-.6.2-1.1.3-1.3.1 0 .1.4.1.5.1.7-.1.4-.3.7c-.1.3-.1.8 0 1s.2.4.3.4c.1.1.2.2.2.4s-.1.6.1.9c.1.3.3-.2.4-.6s.2-1.5.4-1.8c.1-.4.2-.3.2.2-.1.5-.2 2-.2 2.3s.1.1.3-.5.2-1.4.3-1.6c.2-.3.4-.4.5-1.2s0-1.1.2-1.5.2-.5.2 0-.6 2.9-.6 3.2.2.4.4-.1c.1-.6.2-1.2.4-1.9.2-.6.3-1.2.3-1.2s.1.3.3.3.2-.2.3-.5.1-.6.3-1 .1.2.1.8.3.8-.1 1.2c-.5.4-.5.7-.4 1.1s.1 1.4.1 1.7-.4 2.4-.2 2.7c.1.3.2.1.3-.2s.6-.8.8-1.4.2-1 .3-1.4c.1-.3.3-.4.2.1-.1.6-.2 1.3-.2 1.5 0 .3.2.5.4-.4s.3-1.3.4-1.8c0-.5-.2.1.1-.8s.5-1.8.6-2.3c.2-.5.2.2.1.8s-.1 1.4-.2 1.7-.1.7-.2 1c0 .3-.1.8-.1 1.1.1.3.3.4.6-.4s.4-1.6.5-1.8c.1-.3.2-.3.4-1s.1-.7.2-.9.2.4.1.7c0 .3 0 .8.2.4.2-.5.5-.8.6-1.4s2.5-11.4 2.7-12.8 2-15.6 2-16.5 1.1-7.8 1.3-8.3c.1-.5 3.2-6.1 3.3-6.7 0-.6 1.4-8.3 1.6-8.9s1-4.3 1.6-5.9 1.3-4.1 1.5-5.1c.1-1 .2-6.5 0-7.3M33.3 66.5c0 .4-.1.6 0 1.3s.2-.2.4 0 0 .4-.3.7c-.2.3-.5.3-.7.4s-.2-.3-.1-.9.3-1.4.4-1.7c.4-.9.4-.2.3.2m-.6 3.9c-.1.6-.2.5-.4.8s-.2-.5.1-1.3c.3-1.1.4-.1.3.5m.9-.4c0 .7-.3.5-.4.4s0-.7.1-1.1c.1-.5.4 0 .3.7m.9 3.8c-.1.6-.3.9-.3.3s-.1-.4-.2-.6 0-.1.2-.4c.5-.8.3.1.3.7m4 7.6c0 .7-.2.7-.5 1-.3.4-.4-.2-.3-.5.1-.4.3-.6.4-1 .3-.7.4-.2.4.5m1.3-1.7c.1.3 0 .6-.1 1-.1.3-.2-.1-.1-.8 0-.7.1-.5.2-.2m1.8 2.9c.1.3-.2.8-.4 1-.1.1-.2-.2-.2-.6 0-.8.5-.7.6-.4m1.5 8.5c0 1.2-.3.7-.5.5s0-1.1.1-1.3c.1-.4.4-.4.4.8m-6.6-2.2c.2.1.1.4 0 .6s-.6-.2-.4-.7c0-.2.2 0 .4.1m1.2-.7c.1.1 0 .3-.1.6s-.3.1-.3-.2c-.1-.4.3-.5.4-.4m-.9-.9c0 .6-.3.9-.3.7-.1-.2 0-.8 0-1 .1-.9.3-.4.3.3M37 85c.1.2 0 .4-.2.6s-.2-.2-.1-.6c-.1-.7.1-.2.3 0m-4.4-4.6c0 .3-.5 1.2-.6 1s.2-1.3.3-1.6c.3-.9.3.3.3.6m3.4 9.7c.1.3-.1.6-.1.9s-.3.7-.4.4.2-1.2.2-1.4c0-.8.2-.1.3.1m-1.7-1c.1.1.3.4.2.7 0 .4-.3.2-.4-.1 0-.4.1-.8.2-.6m3.5 2c.1.3.1.4.1 1.1s0 1.6-.2 2.9c-.3 1.3-.4.9-.6 1.2s-.2-.7-.1-1.2.1-.7.2-1.1.2-.6.3-1.3c0-.8.2-1.9.3-1.6m-1 2.3c0 .9-.3.9-.5 1s0-.6.2-1.1.4-.7.3.1m-1.4 0c.2.1.4 0 .3.7 0 .7-.3.3-.4 0 0-.3-.1-.8.1-.7m-4.5-16.1c.1.3 0 .6 0 .8s-.5 1.9-.7 2.1 0-1.6.1-2.5c.2-.8.5-.7.6-.4m36.8-17.8c.3-2 7.5-43.3 7.8-45.2s3.2-6.7 3.7-7.7 1.4-1.9 1.9-2.4c.5-.6.7-.3 1.1-.5s.5-.3.9-.3.3.3.6.2c.2-.2.5-.6.7-.8.3-.2 1.2.3 1.4.4s1.9-.3 3-.5 2.2.3 2.8.5c.6.3 1.4.8 1.7 1.3s.5.8.7 1.1.2 1.6.2 2.2c.1.6.3.3.7-.1s1.2-1 1.6-1 .2.8.3 1.6-.3 1.9-.7 2.2-.8.4-.9.9-.6 4.2-.5 4.2.4-.2.5-.1 0 .4 0 .8.1.1.4.7.4.2.6 0 .5.3.6.7 0 1.1-.1 1.8.2 0 .4-.2c.1-.3.6-.6.6-.4.1.2-.4 1.7-.5 2.3s-.2 1.1-.4 1.8-1.3 2.1-1.5 2.5-6.2 27.4-6.3 27.6-.2 1.1-.3 1.7-.2 1.5-.1 2-.4 2-.5 2.4-.8 2.2-.8 3.1-.5 1.4-.5.8-.1-1.2-.2-.8-.2.7-.6 1.5c-.4.9 0 1-.2 1s-.3 0-.4.2-.2 1.2-.2 1.5-.6 1.6-.7 2-.7 2.5-.8 2.7c-.1.3-1.5 6.1-2 7.8-.5 1.6-.4.8-.6 1.4-.2.5-.6 2.8-.9 3.7s-.5 1.3-.5 1.1-.1-1-.2-.9-.1.4-.2 1c-.1.5-.4 1-.5 1.4s-.3 1.2-.7 1.9c-.5.7 0-.3 0-.6s0-.9.1-1.5 0-.8.1-1.4.1-1.7-.1-1.1-.3 1.2-.5 2.1-.1.8-.2 1.4c-.1.5-.3 1.7-.5 1.8s0-.7 0-1.3-.1-.8-.1-.8-.1.8-.3 1.6c-.2.7-.6.8-.7.9s-.5 1.2-.5.8 0-1.8.1-2c0-.2.2-2 .2-2.3s.2-1 .3-1.2.3-1 .3-1.7-.3-.4-.4-.1-.1 1.2-.2 1.4-.2.1-.5-.1-.2.1-.3.5-.3 1.6-.3 2.2c0 .7-.4.7-.4.3s.4-2.3.4-2.9 0-1-.3-.4c-.3.5-.1.6-.2 1.2s-.1.9-.3 1.5-.1.5-.2.8c0 .3-.4 1.5-.5 1.3s-.1-1 0-1.7.2-1.2.1-1c-.1.3-.5 2-.7 2.3-.2.4-.3.7-.4.3s0-.9-.2-1.1-.3-.6-.3-1.1c.1-.5.2-1 .2-1.4 0-.3-.2-.9-.3-.7s-.2 1.4-.2 1.6c-.1.2-.2.1-.2-.4s.1-.8.1-1.2c-.1-.4.1-.5.1-.5s.1-.5-.1-.4c-.2.2-.3.3-.4 0 0-.2 0-.6.1-1s-.1-.5-.1-.7.3-1.3.4-1.9-.1-.4-.4.3c-.3.8-.5 1.8-.7 1.8s0-.6 0-.9c.1-.3 0-1.1.1-1.3 0-.2.4-1.2.2-1.1s-.4.7-.8 1.1-.4.3-.5.6c-.1.2-.5.9-.7.9s-.2-1.4-.2-1.9c-1-1.1-.8-18.2-.5-20.1M70.9 87c.2.5 0 1.1-.3 1.5s-.2-.9-.1-1.3c0-.7.1-.7.4-.2m-.6-1.8c0-.4.3-.4.5-.1s0 .5-.1.7c-.1.1-.3-.1-.3-.4 0-.1-.1.2-.1-.2m2.1-4.3c.1.2-.2 1-.4 1.7-.1.6-.5-.1-.5-.3-.1-.2.2-.5.3-.8.1-.6.5-.8.6-.6m1.3-1.5c.1.3-.1.5-.2.8s-.2 0-.2-.4c.1-.5.3-.7.4-.4m2.7.6c0 .3-.1.2-.3.4-.2.1-.1-.2 0-.7.1-.4.3 0 .3.3m-.7 2.5c.1.3-.4 1-.4 1s-.1-.4 0-.6c-.1-.8.3-.7.4-.4m-5.1 6.6c.1.2-.1.2-.2.4-.2.2-.2-.2-.1-.5-.1-.5.2 0 .3.1m1.2-.5c.1.2 0 .2-.3.4-.3.1-.2-.2-.2-.4.1-.5.5-.2.5 0m-.1 2.9c.1.5 0 .7 0 1.2s-.1 2.8-.5 3.4 0-.4-.1-.9 0-.8 0-1.2.1-1 .2-1.3c.1-1.4.3-1.7.4-1.2m-1 1.7c.1.2-.2 1.1-.4 1.2-.3 0-.3-.4-.2-.9 0-.8.5-.5.6-.3m-1 .5c.1.2.1.7 0 .9s-.2-.1-.3-.4c0-.4.2-.7.3-.5m.4-3.1c0 .2-.4 1-.6.9-.1-.1 0-.7.1-1.2.1-.9.5.1.5.3m6.9-.2c.2.4 0 .1-.1.6-.1.4-.3.9-.4 1-.2.1-.1-.7 0-1.4 0-.4.3-.6.5-.2m9.4-21.8c0 .4-.9 1.5-1.2 1.4s.3-1.6.4-1.9c.5-1.2.9.2.8.5m.7-4.5c.1.1.1.3.1.6s-.2 1.2-.7 1 0-.9.1-1.2c.3-.9.4-.6.5-.4m1.2-1.5c.1.5-.5 1.1-.7 1-.2 0 0-.8 0-1.3.1-.6.6-.2.7.3m3.1-10.8c.1.3 0 .1 0 .6s-.3 1.6-.4 1.9-.6 3.3-.8 3.6c-.1.3-.8 1.4-1 1.3-.2-.2.2-1.2.4-2.6.3-1.3.8-3.4.8-3.5.3-1.1.9-1.6 1-1.3m-.9 7.9c0 .4-.5.4-.7.4s-.1-.4.2-1.1c.1-.3.4.3.5.7" clip-rule="evenodd"/><path fill="#fff" fill-rule="evenodd" d="M48.9 85.7c-.2.1-.4.3-.2.4s.2.1.3.1.3.2.3-.1v-.5zM71.7 71c0 .4-.1.2-.2.2s-.1-.5 0-.6.2.1.2.4m-.2 1.1c0 .1-.2.3-.3.4s0-.3.1-.6c.1-.1.2.1.2.2m-6.3 15.8c-.1 1.5-.3.7-.5.9-.2.1-.1-.3 0-.7s.5-2 .6-2.5c.3-.4 0 .8-.1 2.3m.7-4.4c0 .2 0 .5-.2.6s-.1-.2-.1-.5c.1-.1.2-.2.3-.1m.6-2.5c0 .5-.1.4-.1.6s-.2.9-.3 1-.1-.5-.1-.9.2-1 .3-1.2c.1-.3.2 0 .2.5m-1.1 1.7c-.2.3-.1 0-.1-.2s.1-.9.2-1.1c.2-.6.1 1-.1 1.3m-.7-.3c-.1.1-.1-.1 0-.4.3-.3.1.3 0 .4m-.1.5c.1.2 0 .2-.1.4-.2.1-.2-.3-.1-.4.1-.2.2-.2.2 0m-2-1.5c-.1.4-.1.4-.2.5s-.3 0-.4-.2.2-.4.4-.8c.4-.5.2.1.2.5m-.2-1.4c.2.3-.1.3-.1.5s-.3.1-.3-.3c0-.7.2-.5.4-.2m.4-4.3c.1.3.1.3.1.4s.2-.1.4-.2.2.4.2.6-.3 1-.5 1.5-.1.3-.4.6-.5 0-.5-.1c0-.2.2-2.3.3-2.8 0-.4.3-.2.4 0m1.8-.6c.1.1-.1.3-.2.8-.2.5-.2.5-.4.5-.1 0 0-.5.1-1 .1-.6.3-.4.5-.3m1-1.4c-.1.5-.1 1.4-.2 1.8s-.6 2.8-.6 2.7 0-.5.1-.9c0-.5.3-4 .8-4.9.2-.3 0 .9-.1 1.3m-.1-7.6c.1-.3.5-1 .4 0s-.4 2.8-.4 3.2c-.1.5-.5 3-.6 3.6-.1.7.1.7-.2 1.1-.4.4-.5.4-.9.4-.3.1-.1.3-.8.2-.6-.1-.7-.3-.7-.5s.3-.9.4-1 .1.1.1.5-.3.7.3.5 1.2-.2 1.3-.5c.2-.3.3-1.4.3-2.2 0-.7-.1-.7.1-1.5.3-.8.4-1.6.4-2 .1-.3.2-1.5.3-1.8m-.7 1.1c.1.5-.2.3-.4.1-.2-.1-.4-.4-.1-1 .3-.5.4.4.5.9m-.5.9c.2.2.4.4.3.7 0 .3-.3.2-.4.4 0 .2.2.4.3.8 0 .5-.7.7-.7.4s.1-.9.1-1.3c.1-.8.2-1.1.4-1m-.8 1.2c0 .2-.1.2-.4.3-.3.2-.1-.1.1-.4.2-.2.3-.1.3.1m-.1 1.1c.1.2-.1.3-.2.5s-.2 0-.1-.5c0-.3.2-.3.3 0m-.9 14.2c0 .6-.4 1.3-.4 1.2s0-.6.1-1.2c.1-.4.3-.6.3 0m-5.1-72c.4-1 .4-1.6.5-2.3s.1-1.9.3-2.2c.2-.4 1.3-1 1.5-1.3s0-.6.1-1.2 2.5-3 4-3.9 5.4-.7 6.4-.9.7-.1 2-.1 5.3.3 5.7.3h1.5c.8 0 1.5.4 2.3.7s1.6 1.1 2.1 1.6c.5.4 1.3 1.5 1.6 1.8s.5.7.7 1.2c.2.4-.3 2-.6 2.8s-.4.7-.6.5-.7-.9-.9-1.2-.3-.4-.7-.6-1.2-.5-2-.6-1.3.2-1.5.4-.7.5-1 .8c-.3.2-.9.7-.9.8s-.4 1.7-.4 2c-.1.3-.6 1.6-.7 1.7s.1.4.1 1c.1.6 0 1.3-.1 1.7s0 .8-.1 1.3-.2.5-.4.8c-.1.3 0 .7.1.9s.3.1 1.1.1h12.1c1.5 0 14.5-.3 17.9-.3s10.2 0 11.5.2 5.4-.1 5.9-.1 1.7.3 1.9.4.2.4-.3.7c-.5.4-1.2.3-1.5.6s-.7.9-1.4 1.3-1.1.5-1.6.9-1 .6-.8.7 1.1-.1 1.1 0-.5.7-.9.7-1.3.2-2 .4c-.6.2-4.3.5-5.7.4s-6.8-.1-8.3-.1h-5.9c-.7 0-1 0-1.2.2s.2.5.7.6 3.2.4 4.5.4c1.2 0 8.5.5 9.1.5.7 0 3.9.1 6.4.2s6.5.1 6.7.2c.3.1.1.5-.5.6s-1.7.2-2 .3c-.4 0-1.7.2-2 .1h-1.3c-.4 0-.9.1.4.2s3.7 0 4.1 0 .7.3.4.5-.4.2-.7.1h-1.5c-.4 0-.6 0-.9.1s-.2.2.5.2c.6 0 1.1.2 1.3.2.2.1.2.2-.2.3s-.6.2-.8.3-.4.4-.2.5.3.4.1.6c-.3.2-1.6.9-1.9 1-.3.2-.5.4-.9.6s.2.2-1 .4c-1.2.1-1.5 0-2.1.2-.5.2-.1.2-1 .3s-7.3.2-7.8.3-2.7.1-3.2.1-2.7.1-3.1 0c-.4 0-1.2-.1-1.5-.1s-1.5.6-1.1.7l2.4.6c.9.1 3.2.1 4.5.1s7 .3 7.6.3 2.9-.1 3.6-.1 4.6-.1 6 .1 1.3.3 1.3.5c-.1.2 0 .7-.5 1.2s-1.1.8-1.4.8-3.2.1-3.6.1-2.4 0-2.7.1c-.4.1-.7.1-.4.2s3.7.2 4.1.2-.4.4-1.1.4h-3.4c-.2 0-.3.1-.1.2.3.1 1.2.2 2.1.2.8 0 3.1-.1 3.5 0 .4 0 1.4.1.9.5s-1.3 1.1-1.8 1.2c-.4.1-.6-.1-1.1 0-.4.1-1.5.3-1.9.4-.3.1-.5.1-1.1.2s-3.3.4-4 .4-5.2-.1-5.7-.1h-5.4c-.5 0-1.7.1-2.1.3s-.7.2 0 .4c.8.2 1.9.4 3.8.5s3.8.2 4 .2 5.9.1 6.6.2 1.2 0 1.7 0h1.2c.4 0 4 .2 4.9.2s2.4 0 2.7.1.6.4 0 .6-.8.1-1.5.1-1.6 0-2.2.1c-.6 0-.9.1-.7.2s.6.3 1.2.3c.5 0 2.5 0 2.6.1s.4.5-.4 1.1-1.3 1.1-1.6 1.4c-.3.2-1 .4-1.4.5s-1.2.2-.6.4 1.1.4.7.6-1.2.4-1.8.7-.8.4-1.2.5c-.3.1-5 .2-6.9.2h-7.7c-.3 0-2.8-.1-4.9-.1-1.9 0-3.5.1-4.2.1-1.4 0-3.8 0-4.1.1-.4 0-5.1-.2-7-.4s-5.7-.1-6.3 0c-.7.1-.5.2-.7.6-.1.4-.2 1.2-.3 1.5s-.7 2.8-.8 3.1-.9 2.2-1 2.5-.6 6.1-.7 6.7c0 .6-.3 1.5-.4 2.3s-.9 1.6-1.3 2.3-.4 1.1-.7 1.8-1.7 5.5-1.8 5.9-2.2 10.4-2.3 10.8c-.1.3-.6 1.2-.7 1.2s0-.3.2-1-.1-.6-.1-.6l-.2.4c-.1.2-.6 2.6-.8 2.8s-.1-.1 0-.5c.1-.3-.1-.2-.1-.2s-.4.5-.6.7 0-.8 0-1.1.4-2.2.5-2.7.1-1-.4-.4-.2.2-.4.4-.1.3 0 1.2c.1 1 .1.8-.1 1-.1.1-.1.2-.4.4.7.4.8.2.7-.1s.6-3.9.7-4.7c.2-.8 0-.9 0-.7-.1.3-.5 2.6-.7 3.1-.1.5-.4 1-.4.8v-.9c0-.3.1-1.3.1-1.6s.4-.7.6-1.2c.1-.5.7-4.2.9-5.6s-.2-1.1-.2-1-.7 2.7-.8 3.2 0 .9-.1 1.5-.2.5-.5.7c-.3.3-.5-.1-.6 0s0 .2 0 .4-.2.6-.4 1.1-.1.6-.2 1-.3.8-.5 1.1-.7 1.3-.9 1.4-.1-.5 0-1.2.1-1.3.1-1.5c-.1 0-.1-.9 0-.9s.3.7.4.5.1-.8.1-1.3 0-.6-.1-.9.2-.5.1-.7c0-.2-.3-.4-.6.2-.2.6-.5 1.8-.8 2.5s-.7 1.6-.9 2 0 .5 0 1.1-.4.9-.4 1 .2.3.2.7-.2 1.2-.3 1.1-.2-.4-.4-.2-.2.4-.2.7.1.5.4.7.3.5-.1.8-.4.1-.5.1-.1-.6-.1-1.4.2-1.9.3-2.1c0-.3.1-.5.1-.7 0-.1-.3.1-.4.3s0 .3 0 .4c0 .2 0 1.1-.1 1.4 0 .3-.2 1.3-.3.7s-.1-1.7-.1-1.8-.1-.4-.3-.2c-.2.1-.7.5-.8.5-.1.1-1.8.7-1.9.8-.2.1-1 .8-1.2 1s-.8.2-1 .1c-.1-.1-.2-1-.3-1.3s-.2-.1-.4.2c-.1.3-.4.9-.5 1.3-.2.4-.2.6-.7.6s-.1-.3-.1-.7.3-.8.2-1 .1-.7.2-.9.1.2.1.4c0 .1.1 0 .2-.2s.3-.7.2-.9c0-.2-.2-.5-.5-.7s-.6-.1-.1-.5.5-.5.4-.5-1.1-.1-1.2-.1-.5.5-.7.5-.7-.9-.9-1.4c-.1-.5.2-.4.1-.6s-.2-.2-.3-.5-.1-.8-.3-1.1-.3-1-.2-1.2c.1-.3.6 0 .9 0s.4.2.5.7.2.4.3.3.2-1.4.2-1.6-.3-.2-.6-.1-.2.1-.5 0-1-.5-1-1.2c0-.6.1-1.2.1-1.7s-.2-.8-.2-1.3c.1-.5.5-.6.5-.7s.1-.9.1-1.4c.1-.6.8-5.1.8-5.5-.1-.4.2-2.8.1-3.5-.1-.8 0-3.4 0-3.8.1-.4.6-4.6.5-4.9s.2-1.1.3-1.6 1-5.5 1.1-5.8-.1-.3-.2-.4-1.8 0-2 0-4.4.1-5.9.3c-1.5.1-6.3 0-6.7 0s-2.7 0-4.1-.1c-.7 0-2.2-.1-4.1-.1-2.1 0-4.6.1-4.9.1h-7.7c-1.8 0-6.5-.1-6.9-.2-.3-.1-.5-.2-1.1-.5s-1.4-.5-1.7-.7.3-.4.9-.6-.2-.4-.6-.5-1-.2-1.3-.5c-.3-.2-.7-.8-1.3-1.4s-.4-1-.2-1.1 2.1-.1 2.6-.1 1-.2 1.2-.3-.1-.2-.7-.2-1.5 0-2.2-.1-.9.1-1.5-.1c-.4-.1-.1-.4.3-.5s1.8-.1 2.7-.1 4.5-.2 4.9-.2.8-.1 1.2 0c.5 0 1 .1 1.7 0s6.4-.2 6.7-.2c.2 0 2.1-.1 4-.2s5.1-.3 5.9-.5.5-.2.1-.4-1.6-.3-2.1-.3H19c-.5 0-5 .1-5.7.1s-3.3-.3-3.9-.4-.8-.1-1.1-.2-1.4-.3-1.8-.4-.7.1-1.1 0c-.3-.1-1-.8-1.4-1.2s.5-.5 1-.5c.4 0 2.7.1 3.5 0 .9 0 1.9-.1 2.1-.2.3-.1.2-.2-.1-.2H7.1c-.8 0-1.4-.4-1-.4s3.8-.1 4.1-.2.1-.1-.3-.2-2.3 0-2.7-.1c-.4 0-3.2 0-3.5-.1-.3 0-.8-.3-1.2-.8s-.2-1-.3-1.2c0-.2-.1-.3 1.4-.5 1.4-.2 5.4-.1 6.1-.1s2.9.1 3.6.1 6.4-.3 7.7-.3 4.5 0 5.4-.1 2.1-.4 2.5-.6c.5-.1-.6-.7-1-.7s-1.1.1-1.5.1-2.6-.1-3.1 0c-.5 0-3.6-.1-4.1-.1-.5-.1-6.9-.2-7.8-.3s-.4-.1-1-.3c-.5-.2-.8 0-2-.2s-.6-.1-1-.4c-.4-.2-.5-.4-.8-.6s-1.4-.8-1.7-1c-.2-.2 0-.4.2-.6s0-.4-.1-.5c-.2-.1-.3-.2-.7-.3-.3 0-.2-.2-.1-.3s.7-.2 1.3-.2.8-.1.5-.2-.5-.1-.9-.1-1.2-.1-1.5 0c-.3 0-.4 0-.6-.1-.2-.2.1-.5.5-.5s2.7.1 4.1 0c1.3-.1.9-.2.5-.2s-.9-.1-1.2 0c-.3 0-1.6-.1-1.9-.1-.4 0-1.4-.1-2-.3-.6-.1-.7-.5-.4-.6s4.3-.1 6.8-.2 5.8-.2 6.5-.2 8-.5 9.2-.5 3.8-.4 4.2-.4c.5-.1.9-.4.8-.6s-.4-.2-1.2-.2h-5.6c-1.5 0-7 .1-8.3.1-1.4.1-5-.2-5.6-.4s-1.5-.4-1.9-.4c-.4-.1-.8-.6-.7-.7s.9.1 1.1 0-.3-.3-.6-.7c-.3-.5-.7-.6-1.3-1s-.9-1-1.1-1.3c-.3-.3-1-.2-1.4-.6-.5-.4-.4-.6-.2-.7s1.5-.4 2-.4 4.6.3 5.9.1 8.2-.2 11.6-.2 16.4.3 17.8.3c1.5 0 15.5-.2 15.8-.2s1.1-.2 1.2-.3.2-.2.3-.4.3-1.6.5-2.1.8-2 .8-2.4c.1-.4 0-.4 0-.4s-.3-.1-.4-.1-.4.3-.4.3.1.9 0 1.4-.6 1.6-.7 1.9-.2.5-.2.7-.2.7-.3.8c-.2.1-.5.1-.6 0s-.1-.6-.1-1 .5-3.3.9-4.3m1.4-.7c-.2-.1.2-1.6.4-1.7.2-.2.7-.3.7.2s-.4 1.3-.4 1.3-.4.3-.7.2m13.2-9c.2 0 1.2-.1 2.4-.1 1.6 0 3.5.1 3.8.1.4.1-.5.4-.9.6s-.7.8-1 .9-.6-.1-.8-.2-.1-.3-.5-.3-.6 0-.8-.1-1.6-.8-2.2-.9" clip-rule="evenodd"/><path fill="#16182f" d="m52.6 26.1-.6 3.1-.2 1.1h-2.4l.2-1.1 1.5-8.6.2-1.1h2.9c2.6 0 2.9 1.5 2.6 3.4-.2 1.1-.6 2-1.6 2.6l.5 4.8h-2.5l-.3-4.2zm.4-1.9h.3c.9 0 1.2-.6 1.3-1.3s0-1.4-.8-1.4h-.3zM58.3 30.4H56l3.7-10.8H63l-.1 10.8h-2.3l.1-2H59zm1.3-4.1h1.2l.1-2.4c0-.6.1-1.3.1-1.8h-.1c-.1.5-.3 1.2-.5 1.8zM70.5 20.2c.5.5.7 1.3.4 2.9l-.6 3.6c-.3 1.7-.7 2.4-1.4 2.9-.6.5-1.4.7-2.2.7h-3.2l.2-1.1 1.5-8.6.2-1.1h3.2c.8 0 1.5.2 1.9.7m-3.1 1.3-1.2 7h.5c.8 0 1.1-.8 1.2-1.5l.7-3.9c.1-.6.2-1.5-.7-1.5h-.5zM75 19.5l-.2 1.1-1.5 8.6-.3 1.2h-2.4l.2-1.1 1.5-8.6.2-1.1H75zM75.1 29.9c-.5-.6-.7-1.6-.3-3.7l.5-2.6c.4-2.1.9-3.1 1.6-3.6.5-.4 1.3-.7 2.3-.7s1.6.2 2 .7c.5.6.7 1.6.3 3.6l-.5 2.6c-.4 2.1-.9 3.1-1.6 3.7-.6.4-1.3.7-2.3.7-1-.1-1.6-.3-2-.7m3.4-3.2.6-3.5c.2-1 .3-1.7-.4-1.7s-.9.8-1 1.7l-.7 3.5c-.2 1-.3 1.7.4 1.7.8 0 .9-.7 1.1-1.7M30 48.3l.3-1.7 2.4-13.4.3-1.7h3.7l-.3 1.7-2.1 12.1h3.6l-.6 3.1H30zM41.9 48.3h-3.6l5.8-16.9h5L49 48.3h-3.6l.1-3.1h-2.7zm2-6.2h1.8l.1-3.7c0-.9.1-2 .2-2.7h-.1c-.2.7-.5 1.9-.8 2.7zM58.7 48.3H50l.5-3 6.6-10.8H53l.6-3.1h8.2l-.5 3-6.5 10.8h4.6zM67.4 31.4l-.3 1.7-2.4 13.4-.3 1.7h-3.7l.3-1.7 2.4-13.4.3-1.7zM69.6 48.3H66l5.8-16.9h5l-.1 16.9h-3.6l.1-3.1h-2.7zm2-6.2h1.8l.1-3.7c0-.9.1-2 .2-2.7h-.1c-.2.7-.5 1.9-.8 2.7zM78.3 48.3l.3-1.7L81 33.2l.3-1.7H85l-.3 1.7-2.1 12.1h3.6l-.6 3.1h-7.3zM92.3 41.1l-.7 4.1h4l-.6 3.1h-7.7l.3-1.7L90 33.2l.3-1.7H98l-.6 3.1h-3.9l-.6 3.4h3.3l-.6 3.2h-3.3z"/></svg>