<svg xmlns="http://www.w3.org/2000/svg" width="255" height="62" fill="none" viewBox="0 0 255 62"><path fill="#fff" d="M49.2 32.2V18.4c0-5.2-4-7.1-10.4-7.1-7.8 0-11.7 2-11.7 5.4 0 2.1 1.4 3.3 3.7 3.3 2.8 0 4-1.3 4.2-4.7.2-1.5.6-1.8 1.9-1.8 2.6 0 3.4 1.1 3.4 5.5v15.2c-.4.8-1.2 1.3-2.5 1.3-1.7 0-3.2-.9-3.2-4.3 0-3.6 1.2-4.7 3.6-5v-2.4l-2.7.7c-6.1 1.4-9.5 3.5-9.5 8 0 4.3 2.9 6.7 7.7 6.7 3.4 0 5.6-1.5 6.9-3.2h.3c.6 2 2.5 3.2 5.6 3.2 3.2 0 5.3-1.1 6.3-1.9V36c-.6-.1-1.7-.2-2.3-.5-1.1-.5-1.3-1.3-1.3-3.3M97.7 33.8v-16c0-2.4.1-4.1.2-6.1l-.6-.4-11.8 1.2v1.1l1.7 1.2c1.5 1.1 1.7 1.3 1.7 3.5v15.6c0 2.3-.2 2.5-2 3l-1.2.3v1.5h15.2v-1.5l-1.2-.3c-1.8-.5-2-.7-2-3.1M115.9 11.3c-7 0-14.1 4-14.1 14 0 9.4 6.6 13.9 14.1 13.9 7.1 0 14.1-4.1 14.1-14.1 0-9.3-6.7-13.8-14.1-13.8m.1 25.8c-3.4 0-5-1.8-5-12.6 0-8.9 1.8-11 4.7-11 3.1 0 5 1.5 5 12.1.1 10.2-1.9 11.5-4.7 11.5M21.1 11.7c-3.1 0-6.2 2.4-7.9 4.1v-3.9l-.8-.5-2.4.3c.4.8.6 1.6.6 2.5 0 3.3-2.6 5.9-5.9 5.9h-.3v13.8c0 2.3-.2 2.5-2 3l-1.2.3v1.5H16v-1.5l-1-.3c-1.6-.5-1.7-.5-1.7-3.1V18c.8-.6 2-1.4 3-1.4.5 0 .8.1 1.1.7 1 1.7 1.7 2.4 4.2 2.4 2.1 0 3.7-1.5 3.7-4 0-2.6-1.6-4-4.2-4M141.3 49.4c0 .6-.5 1.2-1.2 1.2-.6 0-1.2-.5-1.2-1.2s.5-1.2 1.2-1.2c.6 0 1.2.5 1.2 1.2M143.7 51.6c0 .8-.6 1.4-1.4 1.4s-1.4-.6-1.4-1.4.6-1.4 1.4-1.4 1.4.6 1.4 1.4M147.6 48.7c0 .8-.6 1.4-1.4 1.4s-1.4-.6-1.4-1.4.6-1.4 1.4-1.4c.8-.1 1.4.6 1.4 1.4M151.7 45.7c0 .8-.6 1.4-1.4 1.4s-1.4-.6-1.4-1.4.6-1.4 1.4-1.4c.7 0 1.4.6 1.4 1.4M155.3 47.3c0 .8-.7 1.5-1.5 1.5s-1.5-.7-1.5-1.5.7-1.5 1.5-1.5 1.5.6 1.5 1.5M159.4 48.3c0 1-.8 1.8-1.8 1.8s-1.8-.8-1.8-1.8.8-1.8 1.8-1.8 1.8.8 1.8 1.8M154.9 52.2c0 1-.8 1.8-1.8 1.8s-1.8-.8-1.8-1.8.8-1.8 1.8-1.8 1.8.8 1.8 1.8M150.7 55.7c0 1-.8 1.8-1.8 1.8s-1.8-.8-1.8-1.8.8-1.8 1.8-1.8c1 .1 1.8.9 1.8 1.8M155.3 57.3c0 1.2-1 2.2-2.2 2.2s-2.2-1-2.2-2.2 1-2.2 2.2-2.2 2.2 1 2.2 2.2M159.7 53.4c0 1.2-1 2.2-2.2 2.2s-2.2-1-2.2-2.2 1-2.2 2.2-2.2 2.2 1 2.2 2.2M164.3 48.9c0 1.2-1 2.2-2.2 2.2s-2.2-1-2.2-2.2 1-2.2 2.2-2.2 2.2 1 2.2 2.2M151 50.7c0 .8-.7 1.5-1.5 1.5s-1.5-.7-1.5-1.5.7-1.5 1.5-1.5 1.5.7 1.5 1.5M146.9 53.9c0 .8-.7 1.5-1.5 1.5s-1.5-.7-1.5-1.5.7-1.5 1.5-1.5 1.5.7 1.5 1.5M144.9 46.6c0 .6-.5 1.2-1.2 1.2-.6 0-1.2-.5-1.2-1.2 0-.6.5-1.2 1.2-1.2s1.2.6 1.2 1.2M148.8 44c0 .6-.5 1.2-1.2 1.2-.6 0-1.2-.5-1.2-1.2s.5-1.2 1.2-1.2c.6 0 1.2.5 1.2 1.2M183.1 53c.8.3 1.6.6 2.2 1.2.9.8 1.1 1.9 1 3.1-.1 1.8-1 3.1-2.7 3.7-.7.3-1.4.4-2.1.4h-6.6V45.7h.2c2.3 0 4.6-.1 6.9 0 2.5.1 4 2 3.7 4.5-.2 1.2-.7 2.1-1.9 2.6-.2.1-.4.2-.7.2m-4.7 1.1v4.7h2.6c.9-.1 1.6-.6 1.7-1.5.1-.3.1-.7.1-1.1 0-1.1-.6-1.9-1.7-2-.8-.2-1.7-.1-2.7-.1m-.1-1.6h2.4c.7-.1 1.2-.4 1.4-1.1.1-.4.2-.9.2-1.3 0-.9-.7-1.7-1.6-1.8-.7-.1-1.5-.1-2.2-.1-.1 0-.2.2-.2.3v4M195.4 50.4v6.5c0 1.1.6 1.7 1.8 1.7.8 0 1.4-.3 2-.8.2-.1.3-.3.3-.5v-7h3.1v11h-3.1v-1.2l-.6.3c-.9.6-1.8 1-2.9 1-1.7.1-3.3-.6-3.7-2.7-.1-.4-.1-.8-.1-1.3v-7zM167.4 51.7v.9c.4-.2.8-.5 1.2-.6 1.3-.6 2.6-.8 4-.1.9.5 1.4 1.4 1.4 2.4v7.2h-2.8v-5.9c0-.9-.5-1.4-1.4-1.5-.8-.1-1.5.2-2.1.7-.1.1-.2.3-.2.5v6h-2.8v-9c0-.4.1-.5.4-.5.7 0 1.5 0 2.3-.1M191.8 59.6c-.7.6-1.4 1.2-2.2 1.9-1-.6-2-1.3-2.4-2.5-.1-.4-.2-.8-.2-1.1V45.7h3.2v10.8c0 1.3.4 2.2 1.4 3 .1 0 .1.1.2.1M163.7 61.4h-2.9v-9.6c.9 0 1.9-.1 2.8-.1v9.7zM82.6 35.8c-1.6-.7-1.7-.9-1.7-3.5V6.4c0-3.5.2-6 .2-6l-.7-.4-12.1 1.1v1.3l2.1 1.1c1.3.8 1.6 1 1.6 3.4v27c-.7.3-2 1-3.9 1-3.6 0-5.5-2.4-5.5-10.5 0-8.4 2.3-11 5.7-11 .7 0 1.2.2 1.7.4v-2.4c-.5-.1-1.1-.1-1.6-.1-8.1 0-15 4.1-15 14.9 0 9.2 4.8 13 10 13 3.7 0 6.4-1.5 8.6-3.4h.3l-.1 3 .6.4L84 37.7v-1.3zM132.6 35.6c0-1.3.4-3.3.8-4.8l3-11.4c.2-.7.2-1.3.2-1.7 0-1.3-.9-1-2.7.3l-.7.5-1-1.2c2.5-2.7 6.4-5.9 10.1-5.9 2.5 0 3.3 1.7 3.3 3.7 0 .8-.2 2.8-1 5.4l-2.8 10.7c-.2.6-.3 1.3-.3 1.7 0 1.2.8 1.4 2.4.4l1.2-.8 1 1.2c-2.2 2.2-6.2 5.3-10 5.3-2.6.1-3.5-1.8-3.5-3.4M148.8 25.3c0-10.5 8.4-13.9 15.6-13.9 5.1 0 8.3 1.6 8.3 4.9 0 2.2-1.5 3.7-3.7 3.7-2.8 0-3.7-2-3.9-4.3-.2-1.8-.5-2.1-2.1-2.1-2.5 0-5.5 1.4-5.5 9.5 0 7.4 2.1 11.4 7.8 11.4 3 0 5.2-.9 7.1-1.8v1.7c-1.4 1.9-5.2 4.8-10.8 4.8-8.2-.1-12.8-5.5-12.8-13.9M202.6 37l1.2-.3c1.8-.5 2-.7 2-3V18.3c0-2.2-.2-2.4-1.7-3.4l-1.7-1.2v-1.1l11.3-1.2.6.4-.1 3.6h.2c1.5-1.7 4.4-4.1 7.4-4.1 2.5 0 4.1 1.4 4.1 4 0 2.5-1.6 4-3.7 4-2.4 0-3-.7-4.2-2.4-.3-.5-.6-.6-1.1-.6-.9 0-1.8.6-2.4 1.2v16.1c0 2.5.2 2.7 1.8 3l1.5.3v1.5h-15.2zM226.7 25.3c0-9.9 7-13.9 14-13.9 7.3 0 14 4.4 14 13.7 0 9.9-6.9 14-14 14-7.4 0-14-4.5-14-13.8m18.8.3c0-10.5-1.9-12-5-12-2.9 0-4.7 2.1-4.7 10.9 0 10.7 1.6 12.5 5 12.5 2.8 0 4.7-1.4 4.7-11.4M147.1 4c-.3-1.1-1-2-1.9-2.6-.7-.4-1.4-.6-2.2-.6-.4 0-.7 0-1.1.1-1.1.3-1.9.9-2.5 1.8-.6 1-.9 2.2-.6 3.4.6 2.3 2.9 3.7 5.2 3.1.5-.1.9-.3 1.4-.6s.9-.8 1.3-1.3c.5-1.1.6-2.2.4-3.3M197.5 32.1V18.4c0-5.1-3.9-7-10.3-7-7.7 0-11.6 2-11.6 5.3 0 2.1 1.4 3.3 3.6 3.3 2.7 0 3.9-1.3 4.2-4.7.2-1.5.6-1.8 1.9-1.8 2.5 0 3.4 1.1 3.4 5.4v15c-.4.8-1.2 1.3-2.4 1.3-1.7 0-3.1-.9-3.1-4.3 0-3.6 1.2-4.7 3.6-4.9v-2.3l-2.7.7c-6.2 1.5-9.5 3.5-9.5 8.1 0 4.3 2.8 6.7 7.6 6.7 3.4 0 5.5-1.5 6.8-3.1h.3c.6 2 2.5 3.1 5.5 3.1 3.2 0 5.3-1.1 6.3-1.9v-1.4c-.6-.1-1.7-.2-2.3-.5-1.1-.6-1.3-1.3-1.3-3.3"/><path fill="#fff" d="M147.1 4c-.3-1.1-1-2-1.9-2.6-.7-.4-1.4-.6-2.2-.6-.4 0-.7 0-1.1.1-1.1.3-1.9.9-2.5 1.8-.6 1-.9 2.2-.6 3.4.6 2.3 2.9 3.7 5.2 3.1.5-.1.9-.3 1.4-.6s.9-.8 1.3-1.3c.5-1.1.6-2.2.4-3.3M97.2 3.7c-.3-1.1-1-2-1.9-2.6-.7-.4-1.4-.6-2.2-.6-.4 0-.7 0-1.1.1-1.1.3-1.9.9-2.5 1.8-.6 1-.9 2.2-.6 3.4.6 2.3 2.9 3.7 5.2 3.1.5-.1.9-.3 1.4-.6s.9-.8 1.3-1.3c.5-1.1.7-2.2.4-3.3"/><path fill="#1173cb" d="M9.5 14.2c0 2.6-2.1 4.7-4.7 4.7S0 16.8 0 14.2s2.1-4.7 4.7-4.7 4.8 2.1 4.8 4.7"/></svg>