<svg xmlns="http://www.w3.org/2000/svg" width="315" height="139" fill="none" viewBox="0 0 315 139"><path fill="#e31818" d="M0 0v138.255h285.514L314.929 0z"/><path fill="#fff" d="M260.662 101.626s-7.4 6.166-36.013 6.166a319 319 0 0 1-34.039-2.158V30.401h11.531v25.284a144 144 0 0 1 19.055-1.419c26.455 0 39.405 7.4 39.405 7.4s2.775 3.577 2.775 19.548c0 15.972-2.714 20.412-2.714 20.412"/><path fill="#e31818" d="M202.141 67.771v26.886c8.819.802 16.342 1.234 22.693 1.234a96.8 96.8 0 0 0 26.332-2.59c.438-3.746.664-7.514.678-11.285 0-4.378-.555-8.757-.801-11.347a108 108 0 0 0-48.902-2.898"/><path fill="#fff" d="M92.93 66.414a159.8 159.8 0 0 0-49.764 6.969v33.669H31.141V65.551S48.716 54.76 92.807 54.513zM175.748 101.626s-7.4 6.166-36.013 6.166a319 319 0 0 1-34.039-2.158V30.401h11.47v25.284a145 145 0 0 1 19.116-1.419c26.455 0 39.405 7.4 39.405 7.4s2.775 3.577 2.775 19.548c0 15.972-2.714 20.412-2.714 20.412"/><path fill="#e31818" d="M117.166 67.771v26.886c8.818.802 16.403 1.234 22.754 1.234a96.8 96.8 0 0 0 26.578-2.59c.438-3.746.665-7.514.679-11.285 0-4.378-.555-8.757-.802-11.347a108.16 108.16 0 0 0-49.209-2.898"/></svg>