<svg xmlns="http://www.w3.org/2000/svg" width="862" height="504" fill="none" viewBox="0 0 862 504"><path fill="#fff" d="M14.832 6.5h54.39q54.391 0 73.556 4.199 19.347 4.199 31.393 21.537 12.23 17.156 12.229 54.939 0 34.495-8.578 46.359-8.579 11.865-33.767 14.237 22.816 5.658 30.664 15.149t9.673 17.522q2.008 7.848 2.008 43.622V302h-71.365v-98.195q0-23.728-3.833-29.386-3.651-5.658-19.53-5.658V302h-76.84zm76.84 50.559v65.707q12.96 0 18.07-3.468 5.293-3.65 5.293-23.18V79.874q0-14.054-5.111-18.435-4.928-4.38-18.252-4.38M395.75 135.36h-76.841V83.89q0-22.45-2.555-27.926-2.373-5.658-10.769-5.658-9.491 0-12.046 6.753t-2.555 29.203v137.255q0 21.537 2.555 28.108 2.554 6.57 11.499 6.57 8.578 0 11.133-6.57 2.738-6.572 2.738-30.846v-37.052h76.841v11.499q0 45.813-6.571 64.977-6.388 19.164-28.655 33.584-22.086 14.419-54.574 14.419-33.766 0-55.668-12.229-21.903-12.23-29.021-33.766-7.118-21.72-7.118-65.16V110.72q0-31.941 2.19-47.82 2.19-16.062 12.959-30.846 10.951-14.784 30.116-23.18Q278.755.294 303.76.295q33.948 0 56.034 13.142 22.084 13.14 29.02 32.853 6.936 19.53 6.936 60.962zM627.915 134.447q16.244 6.571 25.005 19.712 8.761 12.959 8.761 62.057 0 35.774-6.936 52.748t-27.013 27.925q-20.077 10.77-53.843 10.769-32.854 0-52.018-10.404t-27.561-27.56q-8.213-17.157-8.213-57.129 0-26.83 4.015-46.542 4.198-19.712 25.918-31.576-13.69-6.57-20.624-20.807-6.754-14.419-6.754-36.504 0-38.146 21.173-57.129Q530.996.843 573.159.843q48.732 0 67.35 20.26 18.617 20.259 18.617 57.858 0 23.91-6.206 34.496-6.024 10.587-25.005 20.99M586.483 70.93q0-14.966-2.738-19.712-2.556-4.928-10.039-4.928-7.3 0-9.856 5.293-2.555 5.11-2.555 19.347v22.45q0 13.325 2.92 18.435t9.856 5.11q7.302 0 9.857-4.928 2.555-5.11 2.555-20.807zm1.46 122.836q0-16.975-3.468-22.45-3.468-5.658-10.951-5.658-7.3 0-10.586 5.475-3.103 5.293-3.103 22.633v38.329q0 19.165 3.468 24.64 3.65 5.476 11.316 5.476 7.848 0 10.586-5.476 2.738-5.658 2.738-25.188zM827.956 134.447q16.245 6.571 25.005 19.712 8.761 12.959 8.761 62.057 0 35.774-6.936 52.748-6.935 16.974-27.012 27.925-20.077 10.77-53.844 10.769-32.853 0-52.018-10.404t-27.56-27.56q-8.214-17.157-8.214-57.129 0-26.83 4.016-46.542 4.198-19.712 25.918-31.576-13.689-6.57-20.625-20.807-6.753-14.419-6.753-36.504 0-38.146 21.172-57.129Q731.038.843 773.2.843q48.733 0 67.35 20.26 18.617 20.259 18.617 57.858 0 23.91-6.206 34.496-6.023 10.587-25.005 20.99M786.524 70.93q0-14.966-2.738-19.712-2.555-4.928-10.038-4.928-7.301 0-9.856 5.293-2.556 5.11-2.556 19.347v22.45q0 13.325 2.921 18.435t9.856 5.11q7.3 0 9.856-4.928 2.555-5.11 2.555-20.807zm1.46 122.836q0-16.975-3.468-22.45-3.467-5.658-10.951-5.658-7.3 0-10.586 5.475-3.102 5.293-3.103 22.633v38.329q0 19.165 3.468 24.64 3.651 5.476 11.316 5.476 7.849 0 10.587-5.476 2.737-5.658 2.737-25.188z"/><path fill="#fe0000" d="M92 356h642v2h120l-92 146H251v-2H0z"/></svg>