<svg xmlns="http://www.w3.org/2000/svg" width="128" height="75" fill="none" viewBox="0 0 128 75"><path fill="#ef3824" fill-rule="evenodd" d="m20.27 0-1.588 8.746-8.001.018L0 69.835l55.316.002-.932 5.132 61.882.031 11.629-66.236-27.706-.018L101.751 0z" clip-rule="evenodd"/><path fill="#fefefe" fill-rule="evenodd" d="M27.387 13.368v14.678h2.483q2.578-.015 3.718-1.96 1.143-1.943 1.12-5.61-.032-3.944-1.34-5.552-1.306-1.613-3.498-1.556zm-8.76 43.421L18.62 8.837l.688-3.583H29.87q3.48-.055 5.745.465t3.931 2.318q1.99 2.294 2.852 4.806.863 2.515 1.051 4.602t.15 3.107q-.05 4.815-1.023 7.607-.977 2.79-2.29 4.207-1.312 1.413-2.375 2.094l6.604 22.33H35.1l-4.904-20.244h-2.81V56.79zm37.52-42.593v33.532h2.614q.817.106 2.467-.426 1.651-.53 2.567-2.974.452-1.618.695-4.086t.331-4.91c.058-1.628.089-2.957.084-3.985q-.004-7.686-.72-11.383-.717-3.694-2.088-4.79-1.37-1.093-3.336-.978zm-8.761 42.571V5.234h8.367q3.736-.08 6.635.493 2.902.571 5.46 2.75 2.992 2.75 4.394 6.907 1.407 4.156 1.798 8.26.393 4.104.344 6.7.035 7.621-1.463 13.492-1.498 5.867-4.942 9.608-1.21 1.275-3.391 2.27-2.18.998-5.5 1.053zm53.068-40.406-6.669 3.477q-.819-3.671-2.165-4.896-1.346-1.224-2.803-1.13-1.768.069-2.582 1.114-.812 1.042-1.026 2.228-.213 1.185-.185 1.68-.032 1.84.594 2.993t2.322 2.255q1.695 1.101 4.864 2.787 1.42.726 3.344 2.251 1.924 1.528 3.403 4.434 1.477 2.905 1.555 7.763-.033 7.305-3.44 11.744-3.404 4.437-9.765 4.559-4.907-.12-7.564-2.49-2.655-2.371-3.786-5.581-1.13-3.209-1.463-5.836l7.126-2.935c.5 2.713 1.184 4.661 2.06 5.842q1.312 1.768 3.627 1.729 1.996-.066 2.955-1.128.958-1.063 1.24-2.33.281-1.269.251-1.951-.069-2.562-1.192-3.892-1.124-1.331-2.468-1.98-4.057-2.312-6.383-4.018a12.5 12.5 0 0 1-3.686-4.25q-.895-1.65-1.42-3.882a20.6 20.6 0 0 1-.54-4.693q.005-3.975 1.37-7.535 1.364-3.558 4.014-5.818 2.652-2.258 6.513-2.331 4.43.138 6.907 2.41 2.474 2.278 3.576 5.04 1.105 2.765 1.416 4.37m3.37 2.954q.006.778.336 1.369a2.42 2.42 0 0 0 2.142 1.265 2.42 2.42 0 0 0 2.14-1.265q.333-.59.341-1.369-.008-.78-.34-1.37a2.47 2.47 0 0 0-.892-.924 2.4 2.4 0 0 0-1.249-.34 2.42 2.42 0 0 0-2.142 1.264q-.33.59-.336 1.37m-.784 0q.013-1.012.462-1.765a3.24 3.24 0 0 1 1.188-1.176 3.268 3.268 0 0 1 3.225 0q.738.42 1.187 1.176.45.753.464 1.765-.014 1.012-.464 1.765-.45.756-1.187 1.175a3.25 3.25 0 0 1-1.613.426 3.25 3.25 0 0 1-1.612-.426 3.2 3.2 0 0 1-1.188-1.175q-.45-.754-.462-1.765m2.668-1.251v1.045h.63q.33.013.547-.089.22-.098.227-.456-.015-.313-.25-.41a1.2 1.2 0 0 0-.516-.09zm-.676 3.135v-3.652h1.387q.667-.006 1.017.247.35.254.352.825-.01.49-.269.718-.257.229-.646.263l.977 1.599h-.729l-.916-1.57h-.497v1.57zM19.192 65.94v-4.579h-1.187v-1.02h.064q.643 0 1.026-.268.381-.267.51-.803h.91v6.67zm2.523-1.521q.061.557.207.819.224.409.618.624.395.216.913.215.625 0 1.081-.325.457-.33.573-.858.076-.344.108-.886.033-.537.033-1.625 0-.999-.068-1.51-.07-.509-.226-.794a1.5 1.5 0 0 0-.607-.6 1.9 1.9 0 0 0-.894-.21q-.505 0-.895.208-.39.205-.61.595-.162.28-.23.82-.065.54-.065 1.78 0 1.192.062 1.747m1.279-2.223q0-1.154.098-1.45.095-.3.361-.3.26 0 .356.288.097.29.096 1.354v1.077q.002 1.138-.096 1.438-.096.3-.356.3-.266 0-.361-.3-.098-.3-.098-1.438zm3.032 2.223q.062.557.208.819.221.409.617.624.394.216.913.215.623 0 1.083-.325.455-.33.57-.858.078-.344.11-.886.031-.537.031-1.625.001-.999-.068-1.51-.067-.509-.226-.794a1.5 1.5 0 0 0-.607-.6 1.86 1.86 0 0 0-.893-.21q-.504 0-.894.208a1.5 1.5 0 0 0-.611.595q-.163.28-.228.82-.067.54-.067 1.78.001 1.192.062 1.747m1.28-2.223q-.001-1.154.097-1.45.096-.3.361-.3.261 0 .357.288.098.29.098 1.354v1.077q0 1.138-.098 1.438-.096.3-.357.3-.265 0-.361-.3-.098-.3-.097-1.438zm3.268.131q.298.4.993.4.689 0 .988-.4t.3-1.335q0-.931-.297-1.327-.298-.396-.991-.395-.696 0-.993.395-.297.396-.297 1.327 0 .935.297 1.335m.712-2.03q.08-.197.28-.198.195.001.278.197t.083.698q0 .505-.083.704t-.277.199q-.201 0-.281-.2-.083-.198-.083-.703 0-.502.083-.697m.906 5.763 2.826-6.79h-.753l-2.834 6.79zm1.702-.395q.298.395.993.395.697 0 .993-.395.296-.394.296-1.33 0-.937-.298-1.333-.3-.397-.99-.398-.693.001-.991.398-.303.397-.301 1.334-.001.934.298 1.329m.71-2.032q.081-.198.279-.199.2 0 .28.203.084.204.084.7 0 .497-.083.695-.082.199-.281.199-.198 0-.279-.194-.08-.195-.08-.7t.08-.704m8.287-1.322v3.629h-.955l-.06-.41q-.212.27-.463.399-.255.131-.571.13-.365.001-.671-.148a1.6 1.6 0 0 1-.533-.436q-.284-.35-.399-.94-.114-.587-.115-2 0-1.002.082-1.606.08-.604.249-.905.246-.436.655-.655.407-.219.963-.219.88 0 1.321.532.444.53.445 1.589l-.004.119-.005.126h-1.314v-.082q-.001-.58-.11-.827-.11-.248-.359-.249-.293 0-.404.304-.108.304-.109 1.42v1.112q0 1.111.101 1.401.106.291.387.291a.43.43 0 0 0 .41-.256q.127-.254.127-.828 0-.13-.003-.2l-.007-.133h-.551v-1.158zm2.357 3.629v-2.662h.288q.369 0 .514.226.144.225.144.832-.001.07-.008.297-.009.226-.007.385 0 .261.022.488.026.225.08.434h1.615q-.302-.287-.318-1.408l-.008-.362v-.022q-.035-1.195-.68-1.515.373-.249.552-.636.18-.39.179-.96 0-.468-.126-.807a1.4 1.4 0 0 0-.38-.572 1.2 1.2 0 0 0-.56-.273q-.347-.08-1.119-.08h-1.564v6.635zm0-5.487q.033 0 .092-.003.058-.004.083-.004.433 0 .611.177.176.177.176.602-.001.458-.176.652-.178.192-.61.192-.026 0-.084-.004l-.092-.005zm4.302 5.487.17-1.278h1.096l.17 1.278h1.392l-1.28-6.636h-1.655l-1.296 6.636zm.717-5.365.398 2.894h-.797l.4-2.895zm2.729 5.365v-6.636h1.446l1.15 4.093a75 75 0 0 1-.104-1.783q-.032-.75-.032-1.266v-1.044h1.237v6.636h-1.445l-1.155-4.218q.077.824.118 1.596.04.774.04 1.501v1.121zm6.278 0q.837 0 1.24-.163.406-.16.644-.554.186-.309.26-.79.08-.485.079-1.81 0-1.329-.078-1.812-.075-.485-.26-.791a1.3 1.3 0 0 0-.644-.553q-.404-.163-1.241-.163h-1.526v6.636zm-.064-5.406.114-.002q.245 0 .4.069a.47.47 0 0 1 .233.211q.077.108.103.4.026.291.026 1.121v.301q0 1.012-.028 1.357-.027.346-.104.468a.6.6 0 0 1-.243.22.9.9 0 0 1-.37.068h-.119a.3.3 0 0 1-.082-.009v-4.199q.03-.004.07-.005M62.428 65.94h1.393v-6.636h-1.393zm4.437-2.247h1.273v.194q.001.55.116.775t.39.224a.41.41 0 0 0 .346-.17q.126-.172.127-.465-.001-.483-.626-.928a4 4 0 0 0-.156-.116q-.016-.014-.063-.049-.835-.628-1.04-.947a2 2 0 0 1-.221-.542 2.6 2.6 0 0 1-.077-.66q0-.869.449-1.364.45-.496 1.243-.495.858 0 1.312.485.45.487.45 1.407 0 .04-.002.108a1 1 0 0 0-.005.106h-1.246v-.08q-.001-.437-.123-.661-.124-.225-.352-.226a.38.38 0 0 0-.316.157.68.68 0 0 0-.121.418q.001.422.686.898.12.091.19.137l.15.108q.725.517.932.869.124.229.192.519.067.292.068.63 0 .994-.462 1.532-.465.538-1.323.539-.9 0-1.353-.514-.456-.514-.455-1.528 0-.063.002-.136 0-.07.015-.225m4.41-4.389h1.412v4.156q-.001.944.104 1.168t.374.224q.275 0 .378-.233.107-.233.107-1.16v-4.155h1.375v4.234q-.001.72-.056 1.074a2.1 2.1 0 0 1-.185.618q-.21.445-.613.657-.405.208-1.046.209-.597 0-.97-.197a1.4 1.4 0 0 1-.59-.626 2.3 2.3 0 0 1-.225-.784q-.065-.477-.065-1.614zm7.212 4.062h1.358q.009.06.012.129.005.068.004.207 0 1.216-.475 1.804-.475.59-1.459.59-.579 0-.99-.216a1.7 1.7 0 0 1-.667-.652q-.174-.31-.253-.86-.078-.554-.077-1.751 0-1.195.077-1.744.078-.55.253-.86.252-.43.659-.647.408-.216.972-.216.975 0 1.458.602.486.6.486 1.803v.065l-1.34-.003q-.008-.677-.139-.95a.45.45 0 0 0-.439-.273q-.332 0-.455.333-.12.334-.121 1.764v.126q0 1.539.121 1.887.122.348.452.348.31 0 .436-.253.127-.255.127-.94zm4.784 0h1.36q.007.06.013.129.004.068.004.207-.001 1.216-.475 1.804-.477.59-1.46.59-.578 0-.989-.216a1.67 1.67 0 0 1-.668-.652q-.175-.31-.253-.86-.078-.554-.077-1.751 0-1.195.077-1.744.076-.55.252-.86.253-.43.659-.647.409-.216.973-.216.974 0 1.46.602.483.6.484 1.803v.065l-1.342-.003q-.004-.677-.137-.95a.45.45 0 0 0-.439-.273q-.332 0-.455.333-.121.334-.122 1.764v.126q0 1.539.122 1.887.12.348.453.348.31 0 .434-.253.127-.255.126-.94zm2.361 2.574v-6.636h3.234v1.28h-1.857v1.226h1.715v1.331h-1.715v1.452h1.857v1.347zm3.98-2.247h1.271v.194q0 .55.117.775t.392.224a.41.41 0 0 0 .347-.17q.127-.172.127-.465 0-.483-.627-.928l-.155-.116-.066-.049q-.833-.628-1.038-.947a2 2 0 0 1-.221-.542 2.6 2.6 0 0 1-.08-.66q.001-.869.452-1.364.45-.496 1.243-.495.86 0 1.31.485.454.487.453 1.407.001.04-.004.108-.004.067-.005.106h-1.245v-.08q-.001-.437-.122-.661-.124-.225-.353-.226a.38.38 0 0 0-.317.157.68.68 0 0 0-.12.418q0 .422.685.898.123.091.193.137l.148.108q.727.517.931.869.125.229.193.519.069.292.068.63 0 .994-.463 1.532t-1.323.539q-.9 0-1.354-.514t-.454-1.528l.002-.136q.003-.07.015-.225m4.222 0h1.273v.194q.001.55.116.775t.391.224a.41.41 0 0 0 .348-.17q.125-.172.126-.465 0-.483-.626-.928-.1-.078-.156-.116l-.064-.049q-.834-.628-1.039-.947a2 2 0 0 1-.224-.542 2.7 2.7 0 0 1-.075-.66q0-.869.45-1.364.448-.496 1.242-.495.86 0 1.314.485.45.487.451 1.407l-.004.108q-.005.067-.005.106h-1.247v-.08q0-.437-.122-.661c-.08-.15-.2-.226-.352-.226a.38.38 0 0 0-.318.157.68.68 0 0 0-.119.418q0 .422.686.898.123.091.191.137l.15.108q.725.517.93.869.124.229.192.519.07.292.069.63 0 .994-.464 1.532-.461.538-1.321.539-.902 0-1.356-.514t-.454-1.528l.003-.136a5 5 0 0 1 .014-.225m4.412 2.247h1.394v-6.636h-1.394z" clip-rule="evenodd"/></svg>