<svg xmlns="http://www.w3.org/2000/svg" width="1841" height="1778" fill="none" viewBox="0 0 1841 1778"><path fill="#fff" d="M1840.97 889c0 490.98-411.89 889-919.996 889-508.102 0-920-398.02-920-889s411.898-889 920-889c508.106 0 919.996 398.019 919.996 889"/><path fill="#0076cd" d="M1796.97 889c0 467.23-392.19 846-875.996 846-483.802 0-876-378.77-876-846 0-467.233 392.198-846 876-846 483.806 0 875.996 378.767 875.996 846"/><path fill="#fff" d="M457.974 264h878.996v216H457.974zM1336.97 480h-269L610.974 1617h309L1336.97 530z"/></svg>