<svg xmlns="http://www.w3.org/2000/svg" width="165" height="88" fill="none" viewBox="0 0 165 88"><path fill="#1e7bd3" d="M.898 0h164l-10 20h-144zM12.898 24h26s0 46 44 46 44-46 44-46h26c0 34.939-28.058 63.4-62.993 63.9l-7.007.1-7.006-.1C40.957 87.4 12.898 58.939 12.898 24"/><path fill="#1e7bd3" fill-rule="evenodd" d="M83.398 66.5c-17.397 0-31.5-14.103-31.5-31.5s14.103-31.5 31.5-31.5 31.5 14.103 31.5 31.5-14.103 31.5-31.5 31.5M68.898 35c0-7.732 6.269-14 14-14 7.732 0 14 6.268 14 14s-6.268 14-14 14c-7.731 0-14-6.268-14-14" clip-rule="evenodd"/></svg>