<svg xmlns="http://www.w3.org/2000/svg" width="133" height="81" fill="none" viewBox="0 0 133 81"><path fill="#fff" d="M0 0h133v81H0z"/><path fill="#004076" d="M3 4h127v40H3z"/><path fill="#fff" d="M6.943 40V8h15.02q4.53 0 6.887.873 2.357.852 3.766 3.034 1.41 2.183 1.41 4.824 0 3.405-2.334 5.741t-7.21 2.969q1.78.808 2.704 1.593 1.965 1.703 3.72 4.257L36.8 40H31.16l-4.483-6.658q-1.965-2.88-3.236-4.409t-2.287-2.139a6.8 6.8 0 0 0-2.034-.851q-.762-.153-2.495-.153h-5.2V40zm4.483-17.877h9.636q3.074 0 4.807-.59 1.733-.61 2.634-1.92.901-1.332.901-2.882 0-2.27-1.756-3.732-1.732-1.463-5.5-1.463H11.426zM41.166 40V8h24.495v3.776H45.649v9.801h18.74v3.754H45.65v10.893h20.798V40zM81.259 40V11.776H70.098V8h26.851v3.776H85.742V40zM101.663 40V8h24.495v3.776h-20.012v9.801h18.741v3.754h-18.741v10.893h20.797V40z"/><path fill="#004076" d="M7 72V48h3.93v24zM25.434 72V50.832H15.65V48h23.538v2.832h-9.825V72zM36.899 72l11.404-24h4.234L64.69 72h-4.477l-3.464-7.269H44.333L41.072 72zm8.568-9.855h10.068l-3.1-6.647q-1.417-3.03-2.106-4.977a26 26 0 0 1-1.6 4.584zM67.669 72V48h3.93v21.168h14.624V72zM91.592 72V48h3.93v24zM99.208 72l11.404-24h4.234L127 72h-4.477l-3.464-7.269h-12.417L103.381 72zm8.569-9.855h10.067l-3.099-6.647q-1.419-3.03-2.107-4.977a26 26 0 0 1-1.6 4.584z"/></svg>