<svg xmlns="http://www.w3.org/2000/svg" width="712" height="240" fill="none" viewBox="0 0 712 240"><path fill="#fff" d="M597.5 82C619 82 621 89.5 621 95c0 3.5-2 12-23.5 12S574 99.5 574 95c0-5.5 2-13 23.5-13"/><path fill="#fff" fill-rule="evenodd" d="M50 0C22.386 0 0 22.386 0 50v140c0 27.614 22.386 50 50 50h612c27.614 0 50-22.386 50-50V50c0-27.614-22.386-50-50-50zm37 59H53v124h34v-42h14.5l30.5 41h38v-2l-32.277-40.454C154.607 134.86 167 119.377 167 101c0-23.196-18.804-42-42-42zm47 42c0-7.5-7-14-13-14H87v27.333h34c6 0 13-6.19 13-13.333m45-42h102v28h-69v20h65v28h-65v19h69v28H179V59m113 0h122v28h-44v96h-34V87h-44zm167 0h-33v123h102v-28h-69v-19h65v-28h-65V87h69V59zm130-3c-23.5 0-49 15-49 38 0 10 10 23 18 23h3.5c-13.5 0-24.5 16.5-24.5 29 0 22 21 39 60.5 39s60.5-17 60.5-39c0-12.5-10.5-29-24-29h3c8 0 18-13 18-23 0-23-25.5-38-49-38h-17" clip-rule="evenodd"/><path fill="#fff" d="M597.5 130c20.5 0 27.5 9 27.5 14.04 0 2.46-4 12.96-27.5 12.96S570 146.5 570 143s7-13 27.5-13"/></svg>