<svg xmlns="http://www.w3.org/2000/svg" width="1135" height="300" fill="none" viewBox="0 0 1135 300"><path fill="#ce2886" d="M199.9 127.5c.1 5.8-1.5 11.4-4.5 16.3-3 4.8-7.4 8.7-12.5 11.2-5.6 2.8-11.8 4.2-18 4.1h-29.4V94.5h29.4c6.3-.1 12.5 1.3 18.1 4.2 5.2 2.7 9.5 6.7 12.4 11.7 3 5.2 4.5 11.1 4.5 17.1M315.4 159.2c-3.3-6.2-8.3-11.3-14.3-14.8-12.8-7.2-28.4-7.2-41.3 0-6.1 3.5-11.1 8.7-14.5 14.8-7 13.3-7 29.2 0 42.6 3.4 6.2 8.4 11.3 14.5 14.8 12.8 7.2 28.4 7.2 41.3 0 6-3.5 11-8.7 14.3-14.8 6.9-13.3 6.9-29.2 0-42.6m-19.1 23.4-24.6 12.5c-1.6.8-3.5.2-4.3-1.3-.2-.5-.4-1-.4-1.5v-24.6c0-1.8 1.4-3.2 3.2-3.2.5 0 .9.1 1.3.3l24.6 12.2c1.6.7 2.3 2.6 1.5 4.2-.2.5-.7 1.1-1.3 1.4m19.1-23.4c-3.3-6.2-8.3-11.3-14.3-14.8-12.8-7.2-28.4-7.2-41.3 0-6.1 3.5-11.1 8.7-14.5 14.8-7 13.3-7 29.2 0 42.6 3.4 6.2 8.4 11.3 14.5 14.8 12.8 7.2 28.4 7.2 41.3 0 6-3.5 11-8.7 14.3-14.8 6.9-13.3 6.9-29.2 0-42.6m-19.1 23.4-24.6 12.5c-1.6.8-3.5.2-4.3-1.3-.2-.5-.4-1-.4-1.5v-24.6c0-1.8 1.4-3.2 3.2-3.2.5 0 .9.1 1.3.3l24.6 12.2c1.6.7 2.3 2.6 1.5 4.2-.2.5-.7 1.1-1.3 1.4m19.1-23.4c-3.3-6.2-8.3-11.3-14.3-14.8-12.8-7.2-28.4-7.2-41.3 0-6.1 3.5-11.1 8.7-14.5 14.8-7 13.3-7 29.2 0 42.6 3.4 6.2 8.4 11.3 14.5 14.8 12.8 7.2 28.4 7.2 41.3 0 6-3.5 11-8.7 14.3-14.8 6.9-13.3 6.9-29.2 0-42.6m-19.1 23.4-24.6 12.5c-1.6.8-3.5.2-4.3-1.3-.2-.5-.4-1-.4-1.5v-24.6c0-1.8 1.4-3.2 3.2-3.2.5 0 .9.1 1.3.3l24.6 12.2c1.6.7 2.3 2.6 1.5 4.2-.2.5-.7 1.1-1.3 1.4m19.1-23.4c-3.3-6.2-8.3-11.3-14.3-14.8-12.8-7.2-28.4-7.2-41.3 0-6.1 3.5-11.1 8.7-14.5 14.8-7 13.3-7 29.2 0 42.6 3.4 6.2 8.4 11.3 14.5 14.8 12.8 7.2 28.4 7.2 41.3 0 6-3.5 11-8.7 14.3-14.8 6.9-13.3 6.9-29.2 0-42.6m-19.1 23.4-24.6 12.5c-1.6.8-3.5.2-4.3-1.3-.2-.5-.4-1-.4-1.5v-24.6c0-1.8 1.4-3.2 3.2-3.2.5 0 .9.1 1.3.3l24.6 12.2c1.6.7 2.3 2.6 1.5 4.2-.2.5-.7 1.1-1.3 1.4m19.1-23.4c-3.3-6.2-8.3-11.3-14.3-14.8-12.8-7.2-28.4-7.2-41.3 0-6.1 3.5-11.1 8.7-14.5 14.8-7 13.3-7 29.2 0 42.6 3.4 6.2 8.4 11.3 14.5 14.8 12.8 7.2 28.4 7.2 41.3 0 6-3.5 11-8.7 14.3-14.8 6.9-13.3 6.9-29.2 0-42.6m-19.1 23.4-24.6 12.5c-1.6.8-3.5.2-4.3-1.3-.2-.5-.4-1-.4-1.5v-24.6c0-1.8 1.4-3.2 3.2-3.2.5 0 .9.1 1.3.3l24.6 12.2c1.6.7 2.3 2.6 1.5 4.2-.2.5-.7 1.1-1.3 1.4m19.1-23.4c-3.3-6.2-8.3-11.3-14.3-14.8-12.8-7.2-28.4-7.2-41.3 0-6.1 3.5-11.1 8.7-14.5 14.8-7 13.3-7 29.2 0 42.6 3.4 6.2 8.4 11.3 14.5 14.8 12.8 7.2 28.4 7.2 41.3 0 6-3.5 11-8.7 14.3-14.8 6.9-13.3 6.9-29.2 0-42.6m-19.1 23.4-24.6 12.5c-1.6.8-3.5.2-4.3-1.3-.2-.5-.4-1-.4-1.5v-24.6c0-1.8 1.4-3.2 3.2-3.2.5 0 .9.1 1.3.3l24.6 12.2c1.6.7 2.3 2.6 1.5 4.2-.2.5-.7 1.1-1.3 1.4m19.1-23.4c-3.3-6.2-8.3-11.3-14.3-14.8-12.8-7.2-28.4-7.2-41.3 0-6.1 3.5-11.1 8.7-14.5 14.8-7 13.3-7 29.2 0 42.6 3.4 6.2 8.4 11.3 14.5 14.8 12.8 7.2 28.4 7.2 41.3 0 6-3.5 11-8.7 14.3-14.8 6.9-13.3 6.9-29.2 0-42.6m-19.1 23.4-24.6 12.5c-1.6.8-3.5.2-4.3-1.3-.2-.5-.4-1-.4-1.5v-24.6c0-1.8 1.4-3.2 3.2-3.2.5 0 .9.1 1.3.3l24.6 12.2c1.6.7 2.3 2.6 1.5 4.2-.2.5-.7 1.1-1.3 1.4m19.1-23.4c-3.3-6.2-8.3-11.3-14.3-14.8-12.8-7.2-28.4-7.2-41.3 0-6.1 3.5-11.1 8.7-14.5 14.8-7 13.3-7 29.2 0 42.6 3.4 6.2 8.4 11.3 14.5 14.8 12.8 7.2 28.4 7.2 41.3 0 6-3.5 11-8.7 14.3-14.8 6.9-13.3 6.9-29.2 0-42.6m-19.1 23.4-24.6 12.5c-1.6.8-3.5.2-4.3-1.3-.2-.5-.4-1-.4-1.5v-24.6c0-1.8 1.4-3.2 3.2-3.2.5 0 .9.1 1.3.3l24.6 12.2c1.6.7 2.3 2.6 1.5 4.2-.2.5-.7 1.1-1.3 1.4m19.1-23.4c-3.3-6.2-8.3-11.3-14.3-14.8-12.8-7.2-28.4-7.2-41.3 0-6.1 3.5-11.1 8.7-14.5 14.8-7 13.3-7 29.2 0 42.6 3.4 6.2 8.4 11.3 14.5 14.8 12.8 7.2 28.4 7.2 41.3 0 6-3.5 11-8.7 14.3-14.8 6.9-13.3 6.9-29.2 0-42.6m-19.1 23.4-24.6 12.5c-1.6.8-3.5.2-4.3-1.3-.2-.5-.4-1-.4-1.5v-24.6c0-1.8 1.4-3.2 3.2-3.2.5 0 .9.1 1.3.3l24.6 12.2c1.6.7 2.3 2.6 1.5 4.2-.2.5-.7 1.1-1.3 1.4"/><path fill="#ce2886" d="M243.7 31.9c-38.2 0-80.8 11.2-119.5 28.6l47.5-42.3c-.4-.4-.8-.9-1.2-1.4l-102.2 75C27.9 119.6 0 153 0 182.5c0 65.7 85.3 112.9 190.6 112.9s148.7-47.6 161.1-112.1c13-67.8-2.7-151.4-108-151.4m-27.1 201.2c-1.7 1.2-3.7 1.9-5.8 1.8-1.4.1-2.8-.3-4-1-1.2-.8-2.1-1.8-2.8-3L168.2 174h-32.8v53.1c.1 4.3-3.2 7.9-7.5 8s-7.9-3.2-8-7.5V87.3c-.1-4.1 3.1-7.6 7.3-7.8h37.7c9-.2 17.9 1.9 25.9 6.1 7.4 3.9 13.6 9.8 17.8 17 4.4 7.5 6.6 16.1 6.5 24.9.4 19.6-12 37.2-30.6 43.4L217 223c1.1 1.6 1.7 3.5 1.8 5.4 0 1.8-.8 3.6-2.2 4.7M328.5 209c-4.6 8.3-11.5 15.1-19.8 19.8-17.7 9.6-39 9.6-56.7 0-8.3-4.6-15.1-11.5-19.8-19.8-9.5-17.7-9.5-39.1 0-56.8 4.6-8.3 11.5-15.2 19.8-19.9 8.7-4.8 18.4-7.3 28.3-7.2 9.9-.2 19.6 2.3 28.2 7.2 8.3 4.7 15.1 11.6 19.8 19.9 9.8 17.7 9.8 39 .2 56.8"/><path fill="#ce2886" d="M190 13.1c-1.3 5.8-7 9.5-12.8 8.2-2.1-.5-4-1.5-5.5-3.1-.4-.4-.8-.9-1.2-1.4-3.3-4.9-1.9-11.6 3-14.9s11.6-1.9 14.9 3c1.7 2.3 2.2 5.3 1.6 8.2M515 146.3c-3.1-6.5-8-12-14.1-15.8-6.3-3.8-13.5-5.7-20.8-5.6-7.2-.1-14.4 1.6-20.8 5-6.1 3.3-11.3 8.1-15 13.9-3.3-5.8-8.1-10.6-13.9-13.9-11.2-6.1-24.6-6.6-36.3-1.5-5.1 2.3-9.6 5.6-13.2 9.9v-4.4c.1-2.1-.7-4.1-2.1-5.6s-3.4-2.3-5.5-2.2c-4.1-.1-7.6 3.1-7.8 7.3v94c-.1 2.1.7 4 2.2 5.5 1.5 1.4 3.5 2.2 5.6 2.1 4 .2 7.4-2.8 7.6-6.8v-59.6c-.3-7.8 2.6-15.3 8-20.9 5.3-5.4 12.7-8.4 20.3-8.2 7.2-.2 14.2 2.8 19 8.3s7.3 13 7.3 22.4v57.3c-.1 2.1.7 4 2.2 5.5 1.5 1.4 3.5 2.2 5.6 2.1 4 .2 7.4-2.8 7.6-6.8v-58.5c-.5-8 2.2-15.9 7.6-21.9 5.2-5.6 12.6-8.6 20.3-8.4 7.2-.2 14.2 2.8 19 8.3s7.3 13 7.3 22.4v57.3c-.1 2.1.7 4 2.2 5.5 1.5 1.4 3.5 2.2 5.6 2.1 4 .2 7.3-2.8 7.6-6.8v-58.1c-.3-8.3-2-16.5-5.5-23.9M646.4 152.4c-4.7-8.3-11.6-15.2-19.9-20a58.1 58.1 0 0 0-56.3 0c-8.3 4.7-15.2 11.6-19.9 20-9.6 17.6-9.7 38.8-.2 56.4 9.3 17 27.3 27.4 46.6 27.2 8.2.1 16.3-1.8 23.7-5.5 7-3.5 13.1-8.7 17.7-15v11.9c-.1 2.1.7 4 2.2 5.5 1.5 1.4 3.5 2.2 5.6 2.1 2.1.1 4.1-.7 5.6-2.2 1.4-1.4 2.2-3.4 2.2-5.4v-46.7c.1-10-2.4-19.7-7.3-28.3m-13.1 49.4c-3.4 6.1-8.4 11.3-14.4 14.8-6.2 3.6-13.3 5.5-20.5 5.4-7.2.1-14.3-1.8-20.6-5.4-6.1-3.5-11.1-8.6-14.5-14.8-7-13.2-7-29.1 0-42.4 3.4-6.2 8.4-11.3 14.5-14.9 6.2-3.7 13.4-5.6 20.6-5.5 14.5-.2 27.9 7.7 34.9 20.4 7 13.3 7 29.2 0 42.4M773 148.3c-4-7.4-10.1-13.5-17.6-17.4-7.8-4.1-16.6-6.1-25.4-6-7-.1-13.9 1.4-20.3 4.2-6.1 2.7-11.5 6.6-15.9 11.5v-6.8c.1-2.1-.7-4.1-2.1-5.6s-3.4-2.3-5.5-2.2c-4.1-.1-7.6 3.1-7.8 7.3v94c-.1 2.1.7 4 2.2 5.5 1.5 1.4 3.5 2.2 5.6 2.1 4 .2 7.3-2.8 7.6-6.8v-59.6c0-5.3 1.6-10.5 4.6-14.8 3.1-4.5 7.4-8.1 12.4-10.4 5.5-2.6 11.5-3.9 17.6-3.8 9.5-.4 18.7 2.9 25.8 9.3 6.6 6.2 9.8 15.1 9.8 26.9v51.7c0 2 .8 4 2.2 5.4 1.5 1.5 3.5 2.2 5.6 2.2 4.1 0 7.5-3.3 7.6-7.4v-51.9c.2-9.6-2-19-6.4-27.4M856.3 221.8c-1.3-1.5-3.2-2.3-5.2-2.2h-5.4c-5.8.2-11.4-2.2-15.3-6.5-4.1-4.5-6.2-10.5-6-16.6v-53.1H847c1.9.1 3.7-.6 5.1-1.9 1.2-1.2 1.9-2.9 1.9-4.7.1-1.8-.6-3.6-1.9-4.9-1.4-1.3-3.2-2-5.1-1.9h-22.5V99.3c.1-4.1-3.1-7.6-7.2-7.8h-.5c-2-.1-4 .7-5.5 2.2-1.4 1.5-2.2 3.5-2.1 5.6v30.9h-12.9c-1.9-.1-3.7.6-5.1 1.9-1.3 1.3-2 3.1-1.9 4.9 0 1.8.6 3.4 1.9 4.7 1.4 1.3 3.2 2 5.1 1.9h12.9v53.1c-.1 6.8 1.5 13.5 4.7 19.6 6.3 11.8 18.6 19 31.9 18.8h4.2c2.2.1 4.3-.7 6-2.2 1.5-1.4 2.4-3.3 2.4-5.4 0-2.2-.7-4.2-2.1-5.7M889.6 128.3c-1.4-1.5-3.4-2.3-5.5-2.2-4.1-.1-7.6 3.1-7.8 7.3v93.8c-.2 4.1 3.1 7.6 7.2 7.8h.6c2.1.1 4-.7 5.5-2.2 1.4-1.5 2.2-3.5 2.1-5.6v-93.3c.1-2.1-.6-4.1-2.1-5.6m2.1-41.5c-2-2-4.7-3-7.6-3-2.9-.1-5.7 1-7.8 3s-3.3 4.8-3.2 7.7c-.1 2.9 1 5.7 3.1 7.8 2 2.1 4.8 3.3 7.6 3.2 6 0 10.9-4.8 10.9-10.8v-.1c.3-3-.8-5.8-3-7.8M1004.7 212.9c-1.2-1-2.8-1.6-4.4-1.6-2 .1-3.9.8-5.4 2.2-6.5 5.7-15.1 8.6-25.7 8.6-7.2.1-14.3-1.7-20.5-5.4-5.9-3.5-10.8-8.7-13.9-14.8-3.4-6.5-5.1-13.8-5-21.2-.1-7.4 1.5-14.8 4.7-21.5 2.9-6.1 7.5-11.3 13.2-14.8 5.9-3.6 12.6-5.4 19.5-5.3 5.5-.1 10.9 1.1 15.9 3.3 5 2.4 9.5 5.7 13.1 9.9 1.4 1.8 3.5 2.8 5.8 3 1.4 0 2.7-.4 3.8-1.2 2-1.2 3.3-3.3 3.4-5.6 0-1.5-.6-3-1.6-4.2-9.7-12.4-24.6-19.5-40.4-19.1-9.4-.1-18.7 2.3-26.8 7.2-7.9 4.7-14.4 11.6-18.7 19.8-4.6 8.8-6.9 18.6-6.8 28.5-.1 9.8 2.3 19.5 7.1 28.1 4.5 8.3 11.3 15.1 19.4 19.9 8.5 4.9 18.1 7.4 27.8 7.3 14.6 0 26.6-4.4 36.2-13.3 1.3-1.1 2-2.7 2-4.3 0-2.3-1-4.3-2.7-5.5M1126.9 152.4c-4.7-8.3-11.6-15.2-19.9-20a58.1 58.1 0 0 0-56.3 0c-8.3 4.7-15.2 11.6-19.9 20-4.9 8.6-7.4 18.4-7.2 28.2-.1 9.8 2.3 19.5 7.1 28.1 9.3 17 27.3 27.4 46.6 27.2 8.2.1 16.3-1.8 23.7-5.5 7-3.5 13.1-8.7 17.7-15v11.9c-.1 2.1.7 4 2.2 5.5 1.5 1.4 3.5 2.2 5.6 2.1 2.1.1 4.1-.7 5.6-2.2 1.4-1.4 2.2-3.4 2.2-5.4v-46.7c0-9.9-2.5-19.6-7.4-28.2m-13.1 49.4c-3.4 6.2-8.4 11.3-14.4 14.8-6.2 3.6-13.3 5.5-20.5 5.4-7.2.1-14.3-1.8-20.6-5.4-6.1-3.5-11.1-8.6-14.5-14.8-7-13.2-7-29.1 0-42.4 3.4-6.2 8.4-11.3 14.5-14.9 6.2-3.7 13.4-5.6 20.6-5.5 14.5-.2 27.9 7.7 34.9 20.4 7 13.3 7 29.2 0 42.4M370.8 252.1c-1.9-.7-3.8-1-5.8-.9-3 0-5.9.7-8.5 2s-4.8 3.3-6.5 5.7V255c-.1-1.9-1.7-3.4-3.6-3.3-.8 0-1.6.3-2.2.9q-.9 1.05-.9 2.4v41.2c-.2 1.7 1.1 3.2 2.7 3.3h.6c1.7.2 3.2-1 3.3-2.7v-26.7c-.1-3.5 1.4-6.9 4.2-9.1 3-2.4 6.8-3.7 10.7-3.5.7 0 1.4 0 2.1.1 1.3.1 2.2.2 2.7.2.7 0 1.4-.1 2-.4.6-.4 1-1 1.1-1.7.1-.3.1-.5.1-.8.1-1.3-.8-2.4-2-2.8M416.8 263.2c-2.1-3.7-5.1-6.7-8.8-8.8-7.7-4.3-17.1-4.3-24.8 0-3.7 2.1-6.7 5.1-8.8 8.8-4.2 7.7-4.2 17.1-.1 24.8 4.1 7.5 12 12.1 20.5 11.9 3.6 0 7.2-.8 10.4-2.4 3.1-1.5 5.8-3.8 7.8-6.6v5.2c0 .9.3 1.8 1 2.4s1.5 1 2.4.9c.9 0 1.8-.3 2.4-1 .6-.6 1-1.5 1-2.4v-20.6c.3-4.1-.8-8.4-3-12.2m-5.7 21.8c-1.5 2.7-3.7 5-6.3 6.5-5.6 3.1-12.5 3.1-18.1 0-2.7-1.5-4.9-3.8-6.4-6.5-3.1-5.8-3.1-12.8 0-18.6 4.9-8.6 15.9-11.5 24.4-6.6 2.7 1.6 4.8 3.9 6.3 6.6 3.2 5.8 3.2 12.8.1 18.6"/><path fill="#ce2886" d="M474.2 254.2v-19.6c0-.9-.3-1.8-.9-2.5-.6-.6-1.5-1-2.4-.9-1.8-.1-3.3 1.3-3.4 3.1v25.9c-2-2.8-4.7-5.1-7.8-6.6-3.2-1.6-6.8-2.5-10.4-2.4-8.5-.1-16.4 4.5-20.5 11.9-2.1 3.8-3.2 8.1-3.1 12.4-.1 4.3 1.1 8.6 3.2 12.4 2.1 3.7 5.1 6.7 8.8 8.8 7.7 4.3 17.1 4.3 24.8 0 3.7-2.1 6.7-5.1 8.8-8.8 2.2-3.8 3.3-8.1 3.2-12.4V255c-.2-.3-.2-.5-.3-.8m-8.9 30.7c-4.8 8.5-15.5 11.5-24 6.8-2.8-1.6-5.2-3.9-6.8-6.8-3.1-5.8-3.1-12.8 0-18.6 1.5-2.7 3.7-5 6.4-6.5 2.8-1.6 5.9-2.4 9.1-2.4 4.3-.1 8.5 1.5 11.8 4.4 3.2 2.9 5.3 6.9 5.7 11.2 0 .1 0 .3.1.4.1.7.1 1.5.1 2.2 0 3.2-.8 6.4-2.4 9.3M492.3 252.6c-.6-.7-1.5-1-2.4-1-1.8-.1-3.3 1.4-3.4 3.2V296c-.1 1.8 1.4 3.3 3.2 3.4h.2c.9 0 1.8-.3 2.4-1s1-1.5.9-2.4v-41c0-.8-.3-1.7-.9-2.4m.9-18.2c-.9-.9-2.1-1.3-3.3-1.3-1.3 0-2.5.4-3.4 1.3s-1.4 2.1-1.4 3.4.5 2.5 1.3 3.4c.9.9 2.1 1.4 3.4 1.4 2.6 0 4.8-2.1 4.8-4.8 0-1.3-.5-2.6-1.4-3.4M548.3 263.1a23.7 23.7 0 0 0-8.7-8.8c-3.8-2.1-8.1-3.2-12.4-3.1-4.4-.1-8.7 1-12.5 3.1-3.7 2.1-6.7 5.1-8.7 8.8-2.1 3.8-3.2 8.1-3.1 12.5-.1 4.4 1 8.7 3.1 12.5 2 3.6 5.1 6.7 8.7 8.7 7.8 4.2 17.2 4.2 24.9 0 3.6-2 6.7-5.1 8.7-8.7 4.2-7.8 4.2-17.2 0-25m-5.8 21.9c-1.5 2.7-3.6 5-6.3 6.5-5.6 3.1-12.5 3.1-18.2 0-2.7-1.6-4.9-3.8-6.4-6.5-3.1-5.9-3.1-12.9 0-18.7 1.5-2.7 3.7-5 6.4-6.5 5.6-3.1 12.5-3.1 18.2 0 2.7 1.6 4.8 3.8 6.3 6.5 3.1 5.8 3.1 12.8 0 18.7"/></svg>