<svg xmlns="http://www.w3.org/2000/svg" xml:space="preserve" viewBox="0 0 721.9 250"><path fill="#ffc92f" d="M0 5.9h332.8v244H0z"/><path fill="#fff" d="m83.7 126-1.8 7.6c-.6 2.1-.7 3.2-.7 3.9 0 1.8.6 3.2 1.8 5.4l21.4 38.5c1.8 3 3.3 4.3 7.6 4.3h19.6c2.5 0 5.6-1.7 2.7-6.1l-26.2-43.5c8.8-5.6 18.7-13.5 18.7-30.9 0-22.5-12.6-35.1-40.3-35.1H46.3c-3.6 0-4.7 1.3-4.7 4.9v105.9c0 3.6 1.1 4.9 4.7 4.9h16.5c3.6 0 4.7-1.3 4.7-4.9V91.6h17.1c10.8 0 16 3.9 16 14 0 9.2-4.2 12-8.3 13.8-5.2 2.2-7-.2-8.6 6.6m68.4 41.2L150 181c-.4 2.7.9 3.8 3.2 4.2 5.2.7 18.3 1.6 31.1 1.6 28.6 0 49.5-9.4 49.5-36 0-15.6-6.8-27.3-30.6-33.5l-13.3-3.4c-9-2.3-13.1-5.2-13.1-11.8 0-9.3 8.6-11.2 16.9-11.2 11.2 0 22.5.9 27 1.3 4.7.4 5.9-.2 6.7-4.1l2.1-13.5c.3-2.7-.9-3.8-3.3-4.1-5.2-.7-16.7-1.6-31.3-1.6-29.7 0-44.1 13-44.1 33.5 0 18.5 10 29.4 27.5 33.9l13.3 3.4c11 2.9 15.6 6.1 15.6 13 0 10.1-6.8 11.9-23.4 11.9-7.6 0-20.7-1.1-25.2-1.4-4.6-.5-5.8 0-6.5 4m110.8 13.6c0 3.6 1.1 4.9 4.7 4.9h16.5c3.6 0 4.7-1.3 4.7-4.9V75c0-3.6-1.1-4.9-4.7-4.9h-16.5c-3.6 0-4.7 1.3-4.7 4.9z"/><path fill="#ffc92f" d="M522.8 139.7c-1.1 0-2.3-.2-3.3-.5l-138.7-43c-4.1-1.2-6.6-4-6.4-8.6V53.4c-.2-4.7 2.3-7.6 6.5-8.8L519.6 1.5c.9-.2 2.1-.5 3.2-.5 1.7 0 3.3.5 4.3 1.6 1.1 1.1 1.7 2.6 1.7 4.2V31c-.1 3.8-2.9 7.1-6.5 8.1l-21.7 6v52.5l21.7 6.1c3.6 1.1 6.4 4.3 6.5 7.9V134c0 1.6-.6 3.2-1.7 4.2-1 .9-2.6 1.5-4.3 1.5m-52.5-85.9-61.5 17.3L470.3 89zm22.7 99.9c0-1.6.6-3.2 1.7-4.2 1.1-1.1 2.7-1.6 4.3-1.6 1.1 0 2.3.2 3.3.5l20 6.2c3.6 1.1 6.4 4.3 6.5 8v80.5c0 3.9-3.1 6.9-6.9 6.9H381.2c-3.9 0-6.9-3.1-6.9-6.9v-24.2c0-3.9 3.1-6.9 6.9-6.9h111.7v-58.3zm75-94c-.7.3-1.5.5-2.3.5-3.3 0-6-2.7-6-6.1v-.5l2.7-32.8c.2-3.6 2.5-6.7 5.7-7.8.8-.3 1.6-.6 2.5-.9 4.4-1.6 9.8-3.4 16.5-5.2 6.7-1.9 14.3-3.5 22.6-4.9s17-2 26-2c27.4 0 48.5 6.6 63.1 19.9 14.7 13.3 22 31.9 22 55.9 0 13.9-3 26.1-8.9 36.6s-13.5 19.3-22.6 26.2q-13.65 10.5-24.9 18.6c-5.1 3.7-10.3 7.4-15.8 11.2-5.5 3.7-10.4 7.5-14.9 11.3-4.5 3.9-8.4 7.7-11.8 11.7s-5.7 8-6.9 11.9h98.4c4.7 0 8.6 3.9 8.6 8.7 0 .5 0 1-.1 1.4l-4.6 29.3c-.7 4.2-4.2 7.4-8.4 7.4H564.2c-4.7 0-8.5-3.9-8.5-8.7v-18.7c0-20.3 5.4-36.7 16.2-49q16.2-18.6 53.7-45.3c5.9-4.2 11.2-8 16.2-11.3s9.3-6.8 12.9-10.4 6.5-7.6 8.5-12.1c2-4.4 3.1-9.9 3.1-16.3 0-9.7-3-17.1-8.9-22.4-6-5.3-15.5-8-28.6-8-9.2 0-20.2 1.3-32.9 3.9s-21.7 5.8-27.7 8.2z"/></svg>