<svg xmlns="http://www.w3.org/2000/svg" xml:space="preserve" id="Layer_1" x="0" y="0" viewBox="0 0 598.6 283.5"><style>.st0{fill-rule:evenodd;clip-rule:evenodd;fill:#fff}</style><g id="loghi"><path d="M336.7 146.1h9.2c4.3 0 9.5.5 13.2 3.4 2.2 1.7 4.3 4.6 4.3 9.3 0 4.6-1.9 8.6-4.4 11.1-4.6 4.3-11.3 4.9-16.8 4.9h-8.9zm4.8-39.3h4.1c3.3 0 8.5.5 11.7 3.6 1.6 1.6 3.2 4.3 3.2 8.4 0 4.9-2 9.2-4.8 11.7-2.2 1.8-6 3.8-12.9 3.8h-4.4zm-12.9-13.9-11.8 95.8h22.5c9.2 0 22.1-.6 30.8-9.6 3.8-4.1 7.6-10.8 7.6-20.9 0-4.4-.9-8.9-4.2-13.2-1-1.2-4.3-5.3-10.5-7.5 4.6-2.5 7.1-5.9 8.5-8.4 2.3-4.3 2.7-8.9 2.7-12.5 0-6-1.5-11.5-6-16.2-5.9-5.9-14.4-7.5-25-7.5zM457 92.9h-52.9l-11.7 95.8h52.8l1.8-13.8h-38.2l3.7-30.1h37l1.8-13.8h-37.1l3-24.2h38.1zM527.4 107.3c-1.2-3.7-3.8-8.2-9.1-11.7-5.5-3.7-11.8-4.4-16.5-4.4-10.2 0-17.7 3.7-22.9 9.2-7.6 8-7.6 17.2-7.6 18.6 0 5.8 2.3 10.6 5.3 14 3.3 3.6 7.9 6 11.3 7.6l7.4 3.3c3.2 1.5 7 3.2 9.7 6 2.3 2.5 3.7 5.2 3.7 9.1 0 4.9-1.7 10.8-5.4 14-2.6 2.3-6.2 4.1-11.3 4.1-6.2 0-10-2-12.2-5-2.6-3.4-3.4-9.2-3.3-12.9l-14.8 3.2c.3 9.2 4.2 17 8.9 21.5 5.3 5.2 11.8 6.8 19.2 6.8 7.5 0 17.2-1.6 25-9.6 4.9-5.2 8.7-12.7 8.7-23.7 0-5.9-1.1-10.9-5-15.6-2.2-2.7-5.9-6-12.1-8.7l-7.8-3.4c-3.6-1.6-6.3-2.3-9.3-5-2-1.9-3.4-4.1-3.4-7.4 0-3.4 1.7-6.6 4.1-8.6 1.9-1.7 5.3-3.7 10.9-3.7 2.8 0 6.8.7 9.5 2.7 2 1.6 3.6 4.1 4.3 6.8zM596.9 106.6l1.7-13.7h-58.5l-1.7 13.7h22l-10.1 82.1h14.6l10.1-82.1z" class="st0"/><path d="M0 141.5C0 63.4 63.4 0 141.5 0S283 63.4 283 141.5 219.6 283 141.5 283 0 219.6 0 141.5" style="fill:red"/><path d="M27.4 58h228.3L141.5 283.5z" style="fill-rule:evenodd;clip-rule:evenodd"/><path d="M86 96.6h2c4.4 0 8.4.7 8.4 6.1 0 5.3-4.3 6-8.5 6H86zm-28.8 51.9h25.4v-22.9h.4l11.4 23h30l-15.5-23.2c-1.5-2-3.1-3.2-4.3-4.3v-.6c9.6-3.2 13.8-7.8 13.8-18.6 0-18-13.7-24.8-29.8-24.8H57.2zM120.3 100.3l14.3-.7v48.9h26V99.6l14.3.7V77.1h-54.6zM180 148.5h47.8v-22.8H206V77.1h-26zM103.9 171.4c4.6 0 5.7 5.3 5.7 8.8 0 3.3-1.2 9.5-5.7 9.5s-5.7-6.2-5.7-9.5c.1-3.5 1-8.8 5.7-8.8m0-13.4c-13 0-20.6 9.6-20.6 21.8 0 12.9 7.2 22.6 20.6 22.6s20.6-9.7 20.6-22.6c0-12.1-7.6-21.8-20.6-21.8M165.8 202v-13.2l-8.4.6-7.4 1v-.5c7.6-2.4 15.2-7.7 15.2-16.4 0-10.1-9.5-15.3-18.5-15.3-13 0-18.6 5.7-19.8 18.2h15.4c.1-2.6.6-5.4 3.8-5.4 1.9 0 3.5 1.5 3.5 3.4 0 3.8-6.8 10-9.5 12.3l-17 15.3zM179.7 188.3c-4.2 0-8.5 2.7-8.5 7.2s4.3 7.1 8.5 7.1 8.5-2.6 8.5-7.1c-.1-4.6-4.4-7.2-8.5-7.2M57.4 173.1l6.7-.5V202h15.5v-43.3l-22.2.7zM198.7 158.7l-3.7 25.6c3.6-1.2 7.6-1.9 11.4-1.9 2.5 0 8.6.8 8.6 4.3 0 3.4-5 4.3-7.6 4.3-3.5 0-9.7-1.8-12.9-3.5l-1.7 11.7c4.1 2 12.7 3.5 17.2 3.5 9.2 0 20.7-5 20.7-15.6 0-8.3-6.9-13.5-14.8-13.5-2.2 0-5.9.5-7.4 2.3h-.5c.8-1.6 1.1-3.3 1.4-5h18.5v-12.1z" class="st0"/></g></svg>