<svg xmlns="http://www.w3.org/2000/svg" id="Layer_1" viewBox="0 0 694.2 283.5"><defs><linearGradient id="linear-gradient" x1="-13" x2="764" y1="154" y2="154" gradientUnits="userSpaceOnUse"><stop offset="0" stop-color="#fff"/><stop offset="0" stop-color="#231f20"/></linearGradient><style>.st0,.st1{fill:#fff}.st1{fill-rule:evenodd}</style></defs><g id="loghi"><path d="M0 141.5C0 63.4 63.4 0 141.5 0S283 63.4 283 141.5 219.6 283 141.5 283 0 219.6 0 141.5" style="fill:red"/><path d="M27.4 58h228.3L141.5 283.5z" style="fill-rule:evenodd"/><path d="M86 96.6h2c4.4 0 8.4.7 8.4 6.1s-4.3 6-8.5 6H86zm-28.8 51.9h25.4v-22.9h.4l11.4 23h30l-15.5-23.2c-1.5-2-3.1-3.2-4.3-4.3v-.6c9.6-3.2 13.8-7.8 13.8-18.6 0-18-13.7-24.8-29.8-24.8H57.2zM120.3 100.3l14.3-.7v48.9h26V99.6l14.3.7V77.1h-54.6zM180 148.5h47.8v-22.8H206V77.1h-26zM103.9 171.4c4.6 0 5.7 5.3 5.7 8.8s-1.2 9.5-5.7 9.5-5.7-6.2-5.7-9.5c0-3.5 1-8.8 5.7-8.8m0-13.4c-13 0-20.6 9.6-20.6 21.8s7.2 22.6 20.6 22.6 20.6-9.7 20.6-22.6-7.6-21.8-20.6-21.8M165.8 202v-13.2l-8.4.6-7.4 1v-.5c7.6-2.4 15.2-7.7 15.2-16.4s-9.5-15.3-18.5-15.3c-13 0-18.6 5.7-19.8 18.2h15.4c.1-2.6.6-5.4 3.8-5.4s3.5 1.5 3.5 3.4c0 3.8-6.8 10-9.5 12.3l-17 15.3zM179.7 188.3c-4.2 0-8.5 2.7-8.5 7.2s4.3 7.1 8.5 7.1 8.5-2.6 8.5-7.1c0-4.6-4.4-7.2-8.5-7.2M57.4 173.1l6.7-.5V202h15.5v-43.3l-22.2.7zM198.7 158.7l-3.7 25.6c3.6-1.2 7.6-1.9 11.4-1.9s8.6.8 8.6 4.3-5 4.3-7.6 4.3-9.7-1.8-12.9-3.5l-1.7 11.7c4.1 2 12.7 3.5 17.2 3.5 9.2 0 20.7-5 20.7-15.6s-6.9-13.5-14.8-13.5-5.9.5-7.4 2.3h-.5c.8-1.6 1.1-3.3 1.4-5h18.5v-12.1h-29.2Z" class="st1"/></g><path d="m311.8 188 11.6-87.9h18.4c10.4 0 17.8.3 22.1 1s7.9 1.8 10.9 3.3c6.2 3.2 10.9 8 14.2 14.4s4.9 14 4.9 22.8-1.5 15.9-4.4 22-7.6 11.5-13.8 16c-4.2 3-9.1 5.2-14.7 6.5s-14.2 2-26 2h-23.2Zm20.4-15.7h1.1c4.2.2 7.2.2 9 .2 6.4 0 11.5-.5 15.1-1.7 3.7-1.1 6.8-2.9 9.2-5.5 2.7-2.8 4.8-6.4 6.2-10.6s2.1-9 2.1-14.3c0-8.6-1.8-14.9-5.5-18.7s-9.7-5.7-18.1-5.7h-11.8l-7.4 56.2ZM403.3 188l11.5-87.9h18.4L421.7 188zM446.6 164.4c2.1 3.6 4.5 6.3 7.2 8s5.9 2.6 9.6 2.6 7-1.1 9.2-3.2 3.3-5 3.3-8.8-.6-4.5-1.9-6.4-3.2-3.5-5.8-5c-.6-.4-1.6-.9-2.8-1.6-7.2-3.9-12.1-7.3-14.5-10-1.8-2-3.2-4.4-4.1-7s-1.4-5.5-1.4-8.5c0-7.6 2.7-13.9 8.2-18.9 5.4-5.1 12.3-7.6 20.6-7.6s9.4.9 13.3 2.8q5.85 2.85 9.9 8.4l-9.4 12.2c-1.6-2.9-3.5-5.1-5.8-6.5s-4.9-2.2-7.9-2.2-6.2 1-8.4 2.9q-3.3 3-3.3 7.5c0 4.5 3.6 8 10.9 12.1 1.4.8 2.5 1.4 3.2 1.9q9.9 5.85 13.5 11.4c2.4 3.7 3.5 8.5 3.5 14.4s-2.8 14.8-8.3 19.9c-5.5 5-12.9 7.6-22.1 7.6s-10.5-1.1-14.9-3.3-8.2-5.6-11.7-10.1l10-12.6ZM574.4 184.8c-3.7 1.8-7.7 3.2-11.9 4.1-4.3.9-8.8 1.4-13.7 1.4-12.9 0-23.3-3.8-31.1-11.5-7.9-7.7-11.8-17.8-11.8-30.3s1.1-12.8 3.3-18.7 5.4-11.2 9.5-15.9c4.6-5.2 10.1-9.2 16.5-11.9s13.4-4.1 20.9-4.1 10.4.7 15 2q7.05 1.95 13.2 6l-2.6 17.2c-4.4-3.2-8.8-5.6-13-7.1s-8.4-2.3-12.7-2.3c-9.2 0-16.8 3.2-22.7 9.5s-8.8 14.4-8.8 24.3 2.3 14.6 7 19.4 10.9 7.2 18.7 7.2 9.8-.7 14.1-2.1 8.4-3.5 12.1-6.3l-2.1 19ZM636.1 190.3c-13.2 0-23.7-3.8-31.7-11.5s-11.9-17.9-11.9-30.7 1.1-12.3 3.4-18.3c2.2-5.9 5.4-11.2 9.5-15.9 4.6-5.2 10.2-9.1 16.5-11.9 6.4-2.7 13.3-4.1 20.8-4.1 13.2 0 23.7 3.8 31.7 11.4 7.9 7.6 11.9 17.6 11.9 30.2s-1 12.7-3 18.4-5 10.8-8.8 15.3c-4.8 5.6-10.5 9.9-17.1 12.8-6.5 2.9-13.6 4.4-21.3 4.4Zm5.6-76.4c-8.7 0-16 3.2-21.7 9.6-5.8 6.4-8.6 14.4-8.6 24.1s2.3 14.7 7 19.5 10.9 7.2 18.7 7.2 15.9-3.2 21.7-9.7 8.7-14.5 8.7-24.1-2.3-14.6-7-19.4c-4.6-4.8-10.9-7.2-18.7-7.2Z" class="st0"/></svg>