<svg xmlns="http://www.w3.org/2000/svg" width="43" height="27" fill="none" viewBox="0 0 43 27"><path fill="#0087d9" d="M23.2 5.5h7.9c.1 0 .2.1.2.2v1.9c.9-.5 1.9-.6 2.8-.6.6 0 1.2 0 1.8.1 2.7.5 5 2.8 5.8 5.5 0 .1.2 1 .3 1.3v.2c.1.3 0 .5.1.8-.1 1.8-.1 1.8-.4 2.9-.4 1.3-1.7 2.8-1.8 2.9-.6.6-1.4 1.2-2.1 1.6-.9.4-1.8.7-2.8.7-.6 0-1.3 0-1.9-.1-.5-.1-1.1-.2-1.6-.5h-.1v3.7c0 .1-.1.2-.2.2h-7.9c-.1 0-.1-.1-.1-.2M31.3 12c-.1 1.4 0 2.7 0 4v.2c.2.1.3.1.5.1.6 0 1.2 0 1.7-.3.4-.2.9-.5 1.1-.9s.2-.9.2-1.3-.2-.8-.5-1c-.4-.4-.9-.6-1.4-.6-.3-.2-.6-.2-.9-.2z"/><path fill="#00d60f" d="M22 0v3.9h3v5h-3v3.9c0 .1 0 .3.1.4.3.4.6.8 1.1.8.2 0 .5-.2.6-.3.4-.5.7-1 1.1-1.4v7c0 .1-.1.2-.2.2-.5.3-1.1.7-1.6 1-2.5.9-4.8.5-6.4.1s-2.9-1.5-3.7-2.9c-.5-1-.8-2.1-.8-3.3V10H8.6v-.5C9.3 8.9 20.2 1.3 22 0"/><path fill="#fe0000" d="M0 0h8.4v3.1c.2 0 .3-.1.5-.1.3-.7.8-1.3 1.4-1.8.8-.5 1.8-.7 2.7-.7.8 0 1.6.3 2.2.8.7.6 1.2 1.5 1.4 2.4.1.3.1.6.1.9s-.1.6-.2.8c-.2.8-.6 1.6-1.3 2.2-.6.6-1.6 1-2.4 1s-1.7-.1-2.4-.5c-.3-.2-.6-.5-.7-.8-.3-.1-.7-.2-1 0-.2.1-.2.3-.2.5v9.5H0V0"/></svg>