<svg xmlns="http://www.w3.org/2000/svg" width="86" height="143" fill="none" viewBox="0 0 86 143"><path fill="#b6f" d="M85.5 57.5H.5v85h85z"/><path fill="#000" d="M85.5.5H.5v57h85z"/><path fill="#f2f2f2" d="m20.3 28.6-.4 1.8c-.1.5-.2.8-.2.9 0 .4.1.8.4 1.3l5 9c.4.7.8 1 1.8 1h4.6c.6 0 1.3-.4.6-1.4L26 30.9c2.1-1.3 4.4-3.1 4.4-7.2 0-5.2-2.9-8.2-9.4-8.2h-9.4c-.8 0-1.1.3-1.1 1.1v24.7c0 .8.2 1.1 1.1 1.1h3.9c.8 0 1.1-.3 1.1-1.1V20.5h4c2.5 0 3.7.9 3.7 3.3 0 2.1-1 2.8-1.9 3.2-1.3.5-1.7 0-2.1 1.6m20.4 12.8c0 .8.2 1.1 1.1 1.1h3.9c.8 0 1.1-.3 1.1-1.1V20.6h7.1c.8 0 1.1-.3 1.1-1.1v-2.9c0-.8-.2-1.1-1.1-1.1H33.6c-.8 0-1.1.3-1.1 1.1v2.9c0 .8.2 1.1 1.1 1.1h7.1zm16.7-3.2-.5 3.2c-.1.6.2.9.8 1 1.2.2 4.3.4 7.3.4 6.7 0 11.5-2.2 11.5-8.4 0-3.7-1.6-6.4-7.1-7.8l-3.1-.8c-2.1-.6-3.1-1.2-3.1-2.8 0-2.2 2-2.6 4-2.6 2.6 0 5.2.2 6.3.3s1.4 0 1.6-1l.5-3.2c.1-.6-.2-.9-.8-1-1.2-.2-3.9-.4-7.3-.4-6.9 0-10.3 3-10.3 7.8 0 4.3 2.3 6.9 6.4 7.9l3.1.8c2.6.7 3.7 1.4 3.7 3 0 2.3-1.6 2.8-5.5 2.8-1.8 0-4.8-.2-5.9-.3-1.1 0-1.4.2-1.6 1.1"/><path fill="#000" d="M19.4 117.8c.3-1.1.7-2.1 1.3-3.2.6-1 1.3-2.1 2.1-3.1.8-1.1 1.8-2.1 2.9-3.1s2.3-2.1 3.7-3.1 2.9-2.1 4.5-3.1 3.3-2.1 5.2-3.1L43 97c1-.6 1.9-1.1 2.7-1.6s1.5-1.1 2.2-1.6 1.2-1 1.6-1.6c.4-.5.8-1 1.1-1.6s.5-1.1.6-1.7.2-1.2.2-1.9q0-1.65-.6-2.7c-.4-.8-.9-1.4-1.6-1.9s-1.6-.9-2.6-1.2c-1-.2-2.2-.4-3.4-.4-1.3 0-2.5.2-3.7.5s-2.2.9-3.1 1.7q-1.35 1.2-2.1 3.3c-.5 1.4-.8 3.2-.8 5.3h-14c0-3.8.7-7.1 1.9-9.8s3-5 5.1-6.8c2.2-1.8 4.8-3.1 7.7-3.9s6.1-1.2 9.5-1.2 6.3.3 9 1.1c2.7.7 5.1 1.7 7.1 3.1s3.5 3.1 4.6 5.1 1.7 4.4 1.7 7.2v.1c0 1.4-.1 2.7-.4 3.9s-.7 2.4-1.2 3.4c-.5 1.1-1.2 2.1-2 3-.8 1-1.7 1.9-2.8 2.8s-2.3 1.8-3.6 2.8c-1.4.9-2.8 1.9-4.5 2.8l-3.5 2.1c-1.2.7-2.2 1.4-3.1 1.9-.9.6-1.8 1.1-2.5 1.6s-1.4.9-2 1.3-1.1.8-1.6 1.2-.9.8-1.3 1.3-.8 1-1.1 1.5h29.9v12h-47z"/></svg>