<svg xmlns="http://www.w3.org/2000/svg" width="445" height="339" fill="none" viewBox="0 0 445 339"><path fill="#007796" d="M338.607 58.362 64.034 0 0 301.255l304.194 37.35z"/><path fill="#fff" d="M203.854 139.97s4.748-.379 9.115-.379c13.67 0 19.555 6.834 19.555 16.707 0 11.012-7.785 17.088-20.316 17.088-4.176 0-8.354-.189-8.354-.189zm68.733 104.426-25.252-40.631c-3.987-6.646-9.305-14.049-9.305-14.049 14.809-4.937 25.633-16.519 25.633-35.885 0-27.342-18.227-38.543-48.985-38.543-22.215 0-40.443.949-40.443.949v128.159h29.619v-49.174h4.936l27.912 49.174zm-125.12-127.59c-8.733-1.709-17.467-2.848-26.012-2.848-30.188 0-48.416 16.518-48.416 38.924 0 41.77 52.594 35.313 52.594 56.01 0 8.164-6.266 12.151-16.709 12.151-10.063 0-22.215-3.039-30.758-6.645l-3.225 28.1c9.112 2.279 21.072 4.176 32.653 4.176 31.33 0 49.367-17.276 49.367-40.631 0-41.96-52.782-35.315-52.782-56.009 0-7.597 5.694-11.582 16.137-11.582 7.784 0 16.33 1.709 24.303 4.366z"/><path fill="#007796" d="M400.202 57.61c-24.515 0-44.387 19.874-44.387 44.388 0 24.515 19.872 44.389 44.387 44.389s44.388-19.874 44.388-44.389c0-24.514-19.872-44.387-44.388-44.387m0 80.795c-20.107 0-36.407-16.3-36.407-36.407s16.3-36.405 36.407-36.405 36.407 16.298 36.407 36.405-16.3 36.407-36.407 36.407"/><path fill="#007796" d="M414.516 115.288V78.834l-36.592 13.163v9.097l12.127-4.411v27.358z"/></svg>