<svg xmlns="http://www.w3.org/2000/svg" width="1582" height="500" fill="none" viewBox="0 0 1582 500"><path fill="#ffb600" d="M1581.7 0h-1217v500h1217z"/><path fill="#fff" d="M1466.8 117.4h-92.1V385h92.1zM1261.9 221.2c-.7-16-3.5-28.2-8.4-36.8-4.9-8.5-14.4-12.8-28.6-12.8-12.9 0-22.5 3.4-28.9 10.2-6.5 6.7-10.3 19.9-11.7 39.4zm68.7 156.5c-2.1.6-6.1 1.7-12.2 3.1-6 1.3-13.4 2.8-21.9 4.4-8.5 1.5-17.9 3-28.1 4.1-10.2 1.2-20.7 1.9-31.5 1.9-24.6 0-45.9-2.6-63.7-7.6-17.9-5-32.5-13-44-24-11.4-11-19.9-25.3-25.5-43-5.6-17.8-8.4-39.3-8.4-64.7 0-46.3 10.9-81.2 32.8-105.1 21.8-23.9 54.1-35.8 96.8-35.8 20.1 0 37.5 2.4 52.3 7 14.7 4.7 27.1 12.1 36.9 22.4 9.9 10.3 17.3 23.5 22.2 39.7 4.9 16.1 7.3 35.9 7.3 59.2v38h-159.2c1 8.7 2.9 15.9 5.7 21.7 2.8 5.7 6.8 10.4 12 13.8s11.6 5.8 19.2 7.3c7.6 1.4 17 2.1 28.1 2.1 22.2 0 40.9-1.3 55.9-4.1q22.65-4.2 31.5-5.7zM997.1 117.4l-18.9 121.8-32-121.8H872l-32 121.8-18.9-121.8H719.7L782.1 385h87l37.3-135.7L944.1 385h87l62.5-267.6zM475.6 117.4v84.7h95.9l-100.1 125V385h234.1v-84.7H600.9l101-124.9-5.7-58z"/><path fill="#ffb600" d="M328.3 0H0v500h328.3z"/><path fill="#fff" d="M116.4 127.3V63.9c0-4.9-1.7-6.3-6.5-6.3h-17c-4.8 0-6.5 1.4-6.5 6.3v92c0 4.8 1.7 6.2 6.5 6.2h142.5c4.9 0 6.6-1.4 6.6-6.2v-22.3c0-4.8-1.7-6.3-6.6-6.3h-56.1V69.7c0-4.8-1.7-6.3-6.5-6.3h-16.9c-4.8 0-6.5 1.5-6.5 6.3v57.6zM161.6 252.3l10.2 2.4c2.9.7 4.3.9 5.3.9 2.4 0 4.3-.7 7.3-2.4l51.8-28.8c4.1-2.4 5.8-4.3 5.8-10.1v-26.4c0-3.4-2.2-7.5-8.2-3.7l-58.6 35.3c-7.5-11.8-18.1-25.2-41.6-25.2-30.3 0-47.2 16.9-47.2 54.2v53.9c0 4.9 1.7 6.3 6.5 6.3h142.5c4.8 0 6.5-1.5 6.5-6.3v-22.2c0-4.9-1.7-6.3-6.5-6.3H115.2v-23c0-14.5 5.4-21.5 18.9-21.5 12.3 0 16.2 5.6 18.6 11.1 2.9 7.2-.2 9.6 8.9 11.8M217 439.4l18.7 2.9c3.6.5 5.1-1.3 5.6-4.4 1-7 2.2-24.7 2.2-41.8 0-38.5-12.6-66.6-48.4-66.6-21.1 0-36.8 9.2-45 41.1l-4.6 17.9c-3.2 12.1-7 17.7-15.9 17.7-12.6 0-15-11.6-15-22.8 0-15 1.2-30.2 1.7-36.2.5-6.3-.2-8-5.6-9l-18.1-2.9c-3.6-.5-5.1 1.2-5.6 4.3-1 7-2.2 22.5-2.2 42.1 0 39.9 17.4 59.2 45 59.2 24.9 0 39.7-13.5 45.7-37l4.6-17.9c3.9-14.8 8.2-21.1 17.4-21.1 13.6 0 16 9.2 16 31.5 0 10.1-1.5 27.8-1.9 33.8-.6 6.6.1 8.3 5.4 9.2"/></svg>