<svg xmlns="http://www.w3.org/2000/svg" width="496" height="347" fill="none" viewBox="0 0 496 347"><path fill="#fff500" stroke="#000" stroke-linecap="square" stroke-width="3.281" d="M38.112 1.64h419.776c19.929 0 35.972 15.937 35.972 35.733v237.901c0 19.796-16.294 32.606-35.972 35.733L248 344.36 38.112 311.007C18.434 307.88 2.14 295.07 2.14 275.274v-237.9C2.14 17.576 18.183 1.64 38.112 1.64Z"/><path fill="#0678bb" d="M455.577 11.676c-3.194.16-6.88 5.443-21.859 27.64-9.848 14.595-18.18 26.638-18.516 26.747s-1.482-1.08-2.546-2.632c-3.807-5.553-12.032-10.154-21.318-11.93-5.641-1.078-5.523-.97-4.244-3.346.866-1.606 1.493-1.659 17.076-1.38l16.15.282 2.314-4.267c2.462-4.548 5.794-16.444 6.712-24.013l.54-4.572-21.91-.588c-12.062-.324-22.148-.377-22.399-.128-.25.25-5.037 15.595-10.646 34.104-11.289 37.246-11.458 38.318-6.147 38.293 1.662-.008 6.157-.53 10.004-1.15 14.295-2.301 22.128 1.708 23.556 12.058.555 4.018-1.904 12.456-4.552 15.583-2.096 2.477-7.561 4.542-12.009 4.548-6.168.008-6.523-.444-7.046-9.044-.436-7.157-.563-7.595-3.086-9.835-3.641-3.23-6.906-3.135-10.133.307-3.525 3.76-4.215 5.888-4.217 13.054-.003 11.396 4.47 17.586 15.533 21.458 12.171 4.261 26.163-.972 34.434-12.9l3.266-4.726 4.552.255 4.551.23-.283 7.587-.257 7.562 3.935 1.737c3.395 1.492 4.889 1.654 10.955 1.226 11.02-.777 10.391-.243 12.138-9.784 1.312-7.164 1.784-8.425 3.498-9.273 2.903-1.438 3.213-2.357 4.269-13.029 1.524-15.415 1.44-18.178-.618-19.798l-1.774-1.38 2.289-27.793c3.373-41.049 3.347-38.968.591-40.286-1.053-.504-1.909-.862-2.803-.818m-171.502 1.456c-18.82 0-18.824.003-20.136 1.992-1.001 1.518-1.084 2.38-.412 3.628.485.9.875 1.769.875 1.941s-2.679-1.002-5.941-2.606l-5.914-2.912-16.922.102c-9.298.053-22.728.358-29.856.69l-12.962.613v2.453c0 1.57.895 3.48 2.469 5.262 2.362 2.673 2.474 3.113 2.469 10.32-.003 4.144-.724 13.606-1.594 21.025s-1.835 16.247-2.135 19.62c-.807 9.09-3.478 26.417-4.963 32.11-2.583 9.902-5.916 13.696-12.035 13.667-5.74-.026-6.573-2.184-7.047-18.341-.311-10.64 0-16.601 1.723-31.524 1.169-10.116 2.352-21.152 2.623-24.524 1.058-13.144 3.218-19.93 6.584-20.769 2.317-.578 4.09-5.528 2.829-7.868-.97-1.8-6.164-2.099-59.971-3.372-35.927-.85-39.91-.799-40.76.357-.785 1.066-3.508 1.333-16.15 1.559-15.205.271-15.223.256-20.702 2.938-12.808 6.269-19.57 19.867-19.57 39.34 0 16.357 3.42 23.407 15.764 32.418 13.654 9.966 16.416 14.238 14.89 23.119-.715 4.163-1.448 5.876-3.086 7.281-2.935 2.516-8.508 2.465-14.17-.154-4.715-2.181-6.617-4.615-9.31-11.904-2.287-6.194-3.29-8.009-4.73-8.558-.681-.259-1.359-.337-1.518-.179-.577.574-3.882 29.992-3.42 30.451.26.259 5.243 2.458 11.058 4.879 9.086 3.783 11.344 4.412 16.02 4.445 15.926.112 28.51-6.802 34.975-19.185 6.393-12.243 7.523-34.42 2.289-44.68-3.015-5.91-6.74-9.598-16.433-16.247-4.776-3.276-9.223-6.714-9.875-7.638-1.404-1.992-1.578-10.89-.309-15.43 1.528-5.463 7.98-7.059 15.533-3.832l3.96 1.712.155 7.894c.19 10.268 2.185 13.919 5.529 10.04 1.333-1.547 1.37-1.55 2.674.05 1.097 1.346 1.704 1.48 3.523.792 2.31-.872 2.163-.371 3.78-12.262.503-3.693 1.034-4.734 3.395-6.54l2.803-2.145-.514 13.897c-.296 7.643-1.836 25.116-3.42 38.83-1.585 13.712-2.902 26.424-2.906 28.253-.014 5.952-2.128 11.175-5.35 13.233-2.712 1.733-3.306 2.972-2.905 5.927.29 2.136 1.008 2.327 13.5 3.627 13.412 1.396 20.031.902 26.617-1.993 4.336-1.905 4.539-3.691.849-7.868-2.31-2.614-2.651-3.591-2.572-7.178.095-4.326 8.306-82.892 9.001-86.115.768-3.562 7.444-1.357 10.004 3.295 2.156 3.92 1.856 17.075-.926 38.6-1.983 15.34-2.268 19.848-1.903 30.655.571 16.878 1.553 20.059 7.818 24.958 8.941 6.993 19.492 9.138 32.325 6.566 4.127-.827 7.632-2.028 8.641-2.964 2.003-1.856 3.53-2.014 4.14-.434.348.901 4.388 1.253 19.519 1.712 20.998.636 26.151.03 34.28-4.062 2.244-1.13 4.26-2.069 4.474-2.069s.503 1.379.643 3.065l.257 3.066 21.679.23c20.781.209 21.695.15 22.091-1.354.404-1.535.494-1.54 4.243.127 5.819 2.589 16.526 2.917 23.736.716 6.698-2.046 11.219-4.934 17.77-11.317 10.901-10.622 18.696-35.613 18.696-59.93 0-26.365-6.614-40.755-22.219-48.385-4.713-2.304-6.181-2.623-12.344-2.657-7.846-.042-12.334 1.04-16.818 4.062-3.242 2.185-4.578 2.063-4.578-.409 0-4.173.318-4.112-19.827-4.112M240.306 32.93c1.087-.085 3.59 1.603 4.757 3.372 4.706 7.135 3.894 35.179-1.723 60.058-2.427 10.749-4.82 16.111-8.589 19.262-3.675 3.072-4.849 2.822-4.372-.92.215-1.686 2.361-20.642 4.758-42.125s4.56-39.247 4.809-39.494a.54.54 0 0 1 .36-.153m83.038.23c.819-.068 1.658.28 2.623.996 3.264 2.42 3.694 5.093 3.729 23.119.034 17.842-.746 24.522-4.938 42.023-2.361 9.858-4.538 15.481-7.098 18.265-.93 1.012-2.373 1.84-3.189 1.84-3.979 0-5.996-9.075-5.914-26.568.098-21.016 3.544-41.039 9.026-52.497 2.315-4.839 3.958-7.028 5.761-7.178m106.208 35.33v14.382h-10.184zm35.206 73.802c-13.599 0-13.599-.003-14.401 2.094-1.467 3.834-.981 5.944 1.671 7.307 2.024 1.039 2.44 1.748 2.34 3.908-.104 2.27-1.942 4.392-13.244 15.302l-13.115 12.671.592-4.496c.327-2.473 1.443-8.699 2.494-13.846 1.911-9.359 1.914-9.368 6.146-13.233 3.52-3.214 4.133-4.169 3.652-5.748-.318-1.044-.875-2.22-1.234-2.605-.681-.73-35.432-.779-37.34-.051-1.145.436-2.964 3.819-2.958 5.492.003.541 1.148 2.197 2.546 3.678 2.45 2.597 2.532 2.878 1.98 7.766-.315 2.79-2.165 13.151-4.114 23.043-1.95 9.891-5.503 28.558-7.895 41.486-2.392 12.929-4.625 23.229-4.964 22.889-.815-.818-8.103-19.806-11.443-29.837l-2.649-7.945 4.989-5.288c14.113-14.987 20.09-39.206 13.449-54.489-3.152-7.256-6.761-8.516-22.707-7.843-6.358.268-16.288.918-22.039 1.456-11.3 1.058-11.656 1.271-10.415 5.85.778 2.87-.016 2.855-3.06-.102-4.886-4.745-15.866-6.284-24.199-3.372-5.67 1.981-5.761 1.981-5.761 0 0-1.543-.544-1.621-9.669-1.609-5.318.006-10.097.282-10.621.613s-1.321 1.876-1.774 3.448l-.823 2.862-.078-2.529-.077-2.53-16.998-.459c-9.356-.249-17.449-.278-17.976-.077s-2.234 3.571-3.78 7.485l-2.803 7.102-.412-6.668c-.226-3.673-.683-6.965-1.028-7.306-1.11-1.096-147.349 2.032-148.075 3.168-.349.545-.636 2.575-.643 4.496-.01 2.937.3 3.636 2.032 4.419 1.776.805 2.057 1.455 2.057 4.829 0 3.273-2.556 19.859-4.629 30.067-.71 3.498-.11 4.648-10.595-20.769-4.813-11.666-9.255-22.009-9.875-22.966-1.076-1.659-1.82-1.754-15.996-1.89-8.172-.078-14.864.072-14.864.307s.747 1.865 1.672 3.627c3.314 6.317 3.367 10.25.308 32.392-6.75 48.873-11.557 68.555-17.358 71.095-3.852 1.686-4.696 7.243-1.286 8.481 2.959 1.073 15.13 1.179 17.847.153 1.167-.441 2.55-1.722 3.06-2.836.816-1.778.625-2.387-1.645-4.955-1.422-1.609-2.601-3.546-2.598-4.318s1.24-8.394 2.752-16.937c1.511-8.542 4.2-23.901 5.966-34.129s3.4-18.577 3.626-18.572 2.332 5.065 4.68 11.24c2.349 6.176 8.724 22.715 14.17 36.761s9.712 26.052 9.464 26.695c-.838 2.168 2.647 4.557 6.866 4.701 15.427.526 64.918-.415 65.808-1.252 1.034-.972 5.992-26.307 5.992-30.629 0-1.306-.555-2.838-1.234-3.398-1.787-1.473-3.128-.069-6.172 6.412-5.077 10.807-12.355 15.747-23.865 16.247-3.847.167-7.407.027-7.921-.332-.678-.474-.079-5.312 2.238-17.678 1.755-9.366 3.42-17.367 3.677-17.78.739-1.187 6.783-.878 9.438.486 2.61 1.341 3.141 2.674 3.472 8.966.181 3.439.483 4.138 1.928 4.343.945.134 2.118-.234 2.598-.817 1.634-1.987 7.931-39.591 7.149-42.687-.897-3.551-4.064-1.077-7.381 5.773-2.133 4.406-3.606 6.344-5.529 7.332-2.611 1.341-8.294 1.953-9.258.996-.729-.724 4.585-32.75 5.658-34.104.703-.886 2.902-1.022 10.364-.69 13.051.581 12.737.357 11.932 7.46-1.119 9.876-.983 13.104.592 13.411.764.15 2.117-.468 3.008-1.354 1.584-1.573 1.631-1.575 2.032-.051.424 1.61 2.644 2.039 4.5.869.582-.367 1.802-4.303 2.701-8.762.898-4.46 1.804-8.704 2.031-9.427.424-1.353 6.657-4.576 7.406-3.832.319.317-7.137 45.889-13.218 80.751-.819 4.696-2.879 8.699-5.4 10.55-3.02 2.218-4.916 5.84-4.295 8.201.484 1.836.48 1.838 19.365 1.558 18.695-.278 18.913-.287 20.47-2.197 2.234-2.742 1.948-5.156-.9-7.638-1.425-1.242-2.47-2.958-2.469-4.062.003-3.277 10.674-66.27 14.067-83.05.838-4.148.943-4.291 3.6-4.291 4.937 0 7.822 4.977 9.104 15.71.547 4.586 2.001 6.985 3.6 6.004 1.658-1.019 1.963 8.198 1.44 42.15-.481 31.198-.394 34.957.772 35.918 2.354 1.94 3.816-.25 8.743-13.182 2.644-6.939 8.404-21.816 12.807-33.056l7.998-20.437.591 19.21c.64 21.235 1.926 40.776 2.957 44.553.448 1.638 1.283 2.557 2.495 2.733 2.107.306 3.908-3.245 8.255-16.222 4-11.941 4.485-12.196 7.483-3.908 7.923 21.9 18.873 27.381 35.592 17.805 3.146-1.802 6.027-3.102 6.377-2.886.351.215.439 1.397.206 2.605l-.411 2.197 17.59-.587c21.081-.686 23.003-1.008 24.507-4.113 1.008-2.08.931-2.506-.643-4.445-3.68-4.537-3.774-5.274-2.134-15.302.843-5.156 1.776-9.11 2.083-8.762.491.556 3.01 14.797 4.552 25.75.298 2.121.985 4.24 1.543 4.7 1.309 1.08 44.106 1.17 48.552.102 2.073-.498 3.776-.508 4.732 0 1.219.649 1.492.485 1.492-.894 0-.929-.556-1.887-1.235-2.146-1.587-.605-1.57-3.893.052-14.918 1.382-9.397 4.924-26.039 6.274-29.455l.849-2.12.797 2.044c1.591 4.067 6.352 25.102 7.278 32.111 1.074 8.129.433 10.091-4.14 12.441-1.354.695-2.469 1.875-2.469 2.605 0 1.203 1.659 1.271 17.487.741 19.699-.659 20.367-.878 20.367-6.31 0-2.224-.45-3.339-1.568-3.934-3.792-2.015-6.623-12.504-12.858-47.771-2.615-14.788-2.871-17.36-1.929-19.108.598-1.11 5.169-5.761 10.158-10.346 11.696-10.751 12.308-11.296 17.924-16.222 4.531-3.973 4.732-4.318 4.732-8.098v-3.959zm-92.759 12.543c1.899.071 3.621 1.658 5.323 4.853 2.591 4.865 2.661 18.016.129 23.477-2.25 4.852-5.439 8.521-8.744 10.04-4.042 1.856-6.181 2.379-6.66 1.609-.237-.381 1.026-8.967 2.803-19.057 1.777-10.091 3.233-18.608 3.24-18.955s.88-1.047 1.955-1.533c.68-.308 1.321-.458 1.954-.434m-60.099 8.864c.854-.034 1.495.898 2.366 2.912 1.864 4.313 1.112 25.196-1.312 36.582-3.424 16.086-10.1 32.675-13.989 34.742-.841.447-1.741.818-1.981.818-3.216 0-3.616-25.319-.617-39.136 3.542-16.316 8.699-29.947 12.91-34.13 1.159-1.151 1.959-1.761 2.623-1.788"/><path fill="#000" d="M455.566 11.614c-3.194.161-6.88 5.469-21.859 27.667-9.848 14.594-18.181 26.637-18.516 26.746-.335.11-1.482-1.08-2.546-2.631-3.807-5.553-12.033-10.155-21.319-11.93-5.64-1.078-5.522-.971-4.243-3.346.865-1.606 1.493-1.659 17.076-1.38l16.175.281 2.315-4.266c2.461-4.549 5.768-16.445 6.686-24.013l.566-4.573-21.936-.588c-12.063-.323-22.149-.402-22.399-.153-.251.249-5.037 15.62-10.647 34.13-11.288 37.246-11.458 38.318-6.146 38.293 1.661-.008 6.157-.53 10.004-1.15 14.295-2.302 22.154 1.707 23.582 12.058.554 4.017-1.93 12.455-4.578 15.583-2.096 2.476-7.561 4.541-12.009 4.547-6.168.008-6.497-.444-7.021-9.043-.436-7.157-.588-7.595-3.112-9.835-3.64-3.231-6.905-3.136-10.132.306-3.526 3.761-4.215 5.889-4.217 13.054-.004 11.396 4.47 17.586 15.532 21.459 12.172 4.26 26.164-.972 34.435-12.901 3.263-4.706 3.263-4.71 7.817-4.471l4.552.23-.257 7.588-.283 7.561 3.935 1.737c3.395 1.492 4.914 1.654 10.981 1.226 11.02-.777 10.365-.242 12.112-9.784 1.312-7.163 1.784-8.424 3.497-9.273 2.904-1.438 3.214-2.357 4.269-13.028 1.525-15.416 1.44-18.178-.617-19.798-1.759-1.385-1.77-1.38.514-29.174 3.374-41.048 3.348-38.993.592-40.311-1.054-.504-1.909-.863-2.803-.818m-171.4 1.482c-18.892 0-18.901.004-20.213 1.993-1.001 1.518-1.109 2.379-.437 3.627.485.9.875 1.77.875 1.942s-2.653-1.002-5.915-2.606l-5.941-2.912-16.895.102c-9.298.052-22.754.358-29.883.69l-12.961.613v2.452c0 1.57.894 3.481 2.469 5.263 2.362 2.672 2.474 3.112 2.469 10.32-.004 4.143-.699 13.606-1.569 21.025s-1.835 16.247-2.134 19.619c-.808 9.09-3.504 26.418-4.989 32.111-2.583 9.902-5.916 13.695-12.036 13.667-5.739-.027-6.573-2.185-7.046-18.342-.312-10.64.025-16.6 1.749-31.524 1.168-10.116 2.351-21.152 2.623-24.524 1.058-13.143 3.192-19.93 6.558-20.769 2.317-.577 4.115-5.527 2.854-7.868-.97-1.8-6.163-2.099-59.97-3.372-35.927-.85-39.936-.798-40.787.358-.784 1.066-3.508 1.333-16.15 1.558-15.204.272-15.196.256-20.675 2.938-12.809 6.269-19.596 19.868-19.596 39.34 0 16.358 3.445 23.408 15.79 32.418 13.653 9.966 16.39 14.239 14.864 23.119-.716 4.163-1.448 5.876-3.086 7.281-2.936 2.517-8.508 2.465-14.17-.153-4.716-2.181-6.617-4.616-9.31-11.905-2.287-6.194-3.29-8.008-4.731-8.557-.68-.26-1.358-.338-1.517-.179-.578.573-3.857 29.992-3.395 30.45.26.26 5.217 2.459 11.032 4.88 9.086 3.782 11.345 4.412 16.022 4.445 15.925.111 28.508-6.802 34.974-19.185 6.393-12.244 7.548-34.42 2.314-44.68-3.015-5.91-6.765-9.598-16.458-16.247-4.776-3.277-9.198-6.715-9.85-7.639-1.404-1.991-1.603-10.89-.334-15.43 1.528-5.463 8.006-7.058 15.559-3.831l3.934 1.711.155 7.894c.19 10.268 2.21 13.92 5.554 10.04 1.333-1.547 1.37-1.549 2.675.05 1.096 1.346 1.703 1.48 3.523.793 2.309-.872 2.137-.372 3.754-12.262.503-3.693 1.06-4.734 3.42-6.54l2.804-2.146-.54 13.897c-.296 7.643-1.836 25.117-3.42 38.83-1.585 13.713-2.877 26.424-2.88 28.254-.014 5.951-2.129 11.175-5.35 13.232-2.713 1.733-3.332 2.972-2.931 5.927.29 2.137 1.007 2.328 13.5 3.628 13.412 1.395 20.057.901 26.643-1.993 4.336-1.905 4.512-3.691.823-7.868-2.31-2.615-2.651-3.591-2.572-7.179.095-4.326 8.306-82.892 9.001-86.115.767-3.562 7.47-1.357 10.029 3.296 2.157 3.92 1.831 17.074-.951 38.6-1.983 15.34-2.269 19.847-1.903 30.655.57 16.878 1.578 20.058 7.843 24.958 8.941 6.992 19.467 9.137 32.3 6.565 4.127-.827 7.657-2.028 8.666-2.963 2.003-1.857 3.53-2.014 4.141-.434.348.901 4.388 1.252 19.518 1.711 20.998.637 26.151.03 34.28-4.062 2.244-1.129 4.235-2.069 4.449-2.069s.528 1.38.669 3.066l.231 3.065 21.679.23c20.78.209 21.694.151 22.09-1.354.405-1.535.494-1.54 4.244.128 5.819 2.588 16.526 2.917 23.736.715 6.698-2.045 11.219-4.933 17.77-11.317 10.901-10.622 18.696-35.613 18.696-59.93 0-26.22-6.638-40.835-21.962-48.257-10.307-4.991-22.576-3.88-31.966 2.887-1.547 1.115-1.673 1.07-1.8-.613-.445-5.913 1.044-5.518-19.956-5.518m171.477 1.635h2.392l-.54 7.97c-.301 4.384-1.5 19.56-2.649 33.72-2.09 25.748-2.077 25.745-.386 27.105 2.009 1.616 2.16 5.257.772 18.036-.977 8.99-1.71 11.265-3.652 11.265-1.587 0-2.487 2.234-4.063 10.193-.709 3.576-1.729 6.774-2.263 7.102-2.104 1.291-12.55 1.639-15.867.536l-3.292-1.098.309-7.383c.345-8.756-.082-9.361-6.944-9.912-5.162-.414-6.519.35-9.875 5.595-2.848 4.451-6.772 7.851-12.292 10.678-12.902 6.607-28.892 1.635-32.429-10.091-3.057-10.138.738-20.879 6.969-19.696 3.023.574 4.475 4.061 4.475 10.73 0 7.665 1.861 10.051 7.895 10.141 10.117.152 15.954-3.564 18.953-12.083 2.991-8.495 2.367-15.042-1.877-20.053-4.811-5.68-12.047-7.219-24.328-5.186-5.538.916-8.402 1.08-8.975.51-.573-.568.2-4.203 2.443-11.367a1633 1633 0 0 0 6.326-20.743c4.693-15.875 10.326-33.862 10.75-34.283.532-.529 37.604-.012 38.497.536 1.579.97-1.421 15.178-4.809 22.787l-1.98 4.42H403.13c-15.462 0-16.103.066-17.718 1.788-2.096 2.234-2.253 6.129-.258 6.719.793.234 4.043.999 7.201 1.711 8.908 2.01 16.734 7.234 20.316 13.565 2.081 3.679 2.705 3.9 4.063 1.38.54-1.003 1.409-2.271 1.903-2.81s8.471-12.42 17.744-26.39c15.707-23.66 17.032-25.392 19.262-25.392m-167.645.894c5.477-.012 10.136.096 11.187.358 2.905.724 2.964 3.333.18 7.408-2.306 3.375-2.488 4.477-1.055 5.901 1.563 1.552 2.057 1.246 5.529-3.423 3.997-5.375 7.265-7.473 14.402-9.222 13.462-3.3 27.358 4.02 34.151 17.984 3.282 6.748 4.472 14.73 4.5 29.966.023 11.866-.276 15.72-1.8 22.557-4.134 18.543-8.521 28.266-16.201 35.968-10.615 10.645-24.043 14.237-36.646 9.81-8.047-2.827-8.457-2.873-9.438-.664-.832 1.872-.849 1.872-19.776 1.635l-18.927-.23-.103-3.142c-.193-4.853-1.003-5.001-8.178-1.405-10.136 5.08-21.478 5.974-46.16 3.602-5.089-.49-5.098-.491-3.549-2.632 4.254-5.883 8.114-27.119 10.698-58.96 2.797-34.481 2.774-34.333 1.8-34.333-1.432 0-1.648.804-2.598 9.835-.494 4.705-1.442 13.34-2.108 19.185s-1.989 18.304-2.932 27.692c-2.636 26.251-4.729 32.674-12.292 37.731-11.55 7.722-30.426 6.447-40.349-2.734-3.894-3.602-4.209-4.2-5.349-10.243-1.848-9.797-1.467-22.49 1.285-44.271 3.26-25.79 3.328-31.365.515-37.272-2.385-5.009-5.761-7.28-10.852-7.28-3.835 0-4.158.897-5.761 16.758-.727 7.193-1.677 16.39-2.109 20.436-2.676 25.099-5.016 47.24-5.426 51.271-.528 5.195.681 9.205 3.163 10.525 2.982 1.585 1.831 3.776-2.751 5.288-3.587 1.183-6.136 1.343-15.842.919-14.55-.635-17.744-1.167-17.744-2.937 0-.744 1.134-2.012 2.495-2.81 3.952-2.32 4.988-5.388 6.197-18.419.61-6.574 2.07-19.864 3.266-29.531 2.461-19.873 3.789-51.5 2.16-51.5-1.793 0-9.168 5.89-9.566 7.638-.22.967-.805 4.325-1.286 7.46-.48 3.133-1.073 5.893-1.311 6.13-.239.237-1.177-.578-2.084-1.814-2.058-2.807-2.933-2.82-4.191-.076-.994 2.166-.972 2.166-1.466.204-.272-1.079-.579-4.726-.669-8.098-.147-5.538-.374-6.288-2.34-7.894-4.86-3.97-15.127-4.761-19.081-1.456-3.112 2.602-4.186 6.316-4.192 14.434-.006 7.67 1.15 9.307 11.65 16.349 14.602 9.796 18.129 15.32 18.644 29.301.56 15.206-2.149 26.078-8.41 33.746-4.157 5.092-9.892 9.051-15.61 10.806v.026c-5.039 1.547-17.548 2.3-19.878 1.2-.905-.427-4.979-2.14-9.052-3.806-4.074-1.666-7.874-3.456-8.461-3.985-.872-.786-.809-2.865.36-11.291.786-5.67 1.668-10.164 1.954-9.989.286.176 1.874 3.046 3.524 6.361 2.578 5.183 3.555 6.329 6.969 8.175 11.016 5.956 20.168 3.785 22.322-5.288 2.745-11.567-.315-17.406-14.53-27.82-3.734-2.735-6.79-5.344-6.79-5.799 0-.454-.227-.59-.514-.306-.775.77-3.361-2.817-5.889-8.175-2.107-4.468-2.216-5.416-2.186-16.196.044-15.68 2.873-24.63 10.133-32.06 6.64-6.797 12.287-8.366 30.088-8.38 10.548-.007 13.367-.252 14.478-1.25 1.219-1.097 5.465-1.167 36.286-.435 19.191.456 40.056 1.028 46.392 1.252s12.169.405 12.961.408c2.408.01 1.629 2.542-1.749 5.646-3.847 3.535-4.77 6.433-5.914 18.47-.47 4.945-1.605 15.437-2.52 23.298-3.259 27.97-3.445 44.889-.592 52.726 2.369 6.509 13.941 6.109 18.567-.638 3.625-5.287 6.634-19.936 9.335-45.395.939-8.846 2.059-18.67 2.469-21.817s.732-10.156.746-15.583c.025-9.83.024-9.874-2.443-12.62-1.362-1.515-2.195-3.005-1.852-3.32.344-.316 12.282-1.054 26.539-1.61 27.565-1.075 28.699-.982 36.132 2.836 2.903 1.491 7.483 6.18 7.483 7.638 0 1.653 2.824.856 3.163-.894.158-.814-.553-3.52-1.568-6.003-1.274-3.119-1.553-4.7-.926-5.084.773-.474 12.166-.822 21.293-.843m-48.167 14.638c-2.313 0-2.508.256-2.957 3.474-.609 4.367-2.677 22.26-3.755 32.494-.449 4.272-1.95 17.696-3.317 29.813s-2.283 22.509-2.057 23.093c.61 1.579 4.405 1.271 7.432-.587 6.412-3.937 10.486-15.128 13.964-38.421 2.7-18.084 2.281-36.941-.977-43.94-1.585-3.401-5.129-5.926-8.333-5.926m83.296.255c-2.088.138-3.867 1.574-5.787 4.496-11.266 17.15-15.926 75.152-6.814 84.787 2.48 2.623 6.009 2.64 8.64.026 8.826-8.767 16.205-54.298 12.704-78.35-.924-6.346-2.378-8.996-5.657-10.345-1.111-.458-2.138-.676-3.086-.614m-82.807 2.376c1.088-.084 3.565 1.603 4.732 3.372 4.706 7.135 3.92 35.18-1.697 60.059-2.427 10.748-4.82 16.11-8.59 19.261-3.675 3.072-4.849 2.823-4.371-.919.215-1.686 2.335-20.642 4.731-42.126s4.561-39.247 4.809-39.494a.6.6 0 0 1 .386-.153m83.012.23c.82-.068 1.684.28 2.649.996 3.264 2.421 3.694 5.093 3.729 23.12.034 17.841-.746 24.521-4.937 42.022-2.362 9.858-4.564 15.481-7.124 18.266-.93 1.011-2.347 1.839-3.163 1.839-3.98 0-6.022-9.074-5.94-26.568.098-21.016 3.544-41.038 9.026-52.497 2.315-4.839 3.958-7.028 5.76-7.178m105.386 34.41a1.28 1.28 0 0 0-.926.588l-8.589 14.05a1.26 1.26 0 0 0 .432 1.766c.196.115.42.176.648.176h8.615c.337-.004.659-.141.896-.38.236-.24.367-.562.364-.898v-14.05a1.27 1.27 0 0 0-.905-1.207 1.3 1.3 0 0 0-.535-.045m-1.106 5.774v8.251h-5.066zm37.16 68.948c-13.598 0-13.598-.002-14.401 2.095-1.467 3.833-1.006 5.944 1.646 7.306 2.024 1.04 2.465 1.748 2.366 3.909-.104 2.269-1.942 4.392-13.244 15.302l-13.141 12.67.591-4.496c.327-2.473 1.47-8.698 2.521-13.846 1.91-9.359 1.914-9.367 6.146-13.232 3.519-3.215 4.133-4.195 3.652-5.774-.319-1.044-.875-2.195-1.235-2.58-.681-.73-35.457-.778-37.366-.051-1.144.436-2.938 3.819-2.931 5.492.002.541 1.148 2.197 2.546 3.679 2.449 2.596 2.506 2.877 1.954 7.766-.315 2.79-2.165 13.151-4.115 23.042-1.949 9.892-5.503 28.558-7.895 41.487s-4.624 23.229-4.963 22.889c-.815-.819-8.077-19.807-11.418-29.838l-2.649-7.944 4.964-5.288c14.113-14.988 20.09-39.206 13.449-54.49-3.153-7.256-6.761-8.515-22.707-7.842-6.358.268-16.263.918-22.013 1.456-11.358 1.062-11.681 1.256-10.39 6.003.892 3.278.613 3.299-2.674.128-5.334-5.146-15.991-6.776-24.637-3.756-5.67 1.982-5.76 1.982-5.76 0 0-1.542-.544-1.621-9.669-1.609-5.319.007-10.073.283-10.57.613-.497.331-1.485 2.795-2.211 5.493l-1.312 4.904.437-4.572.463-4.573-17.101-.46c-9.399-.25-17.526-.277-18.053-.076-.527.2-2.209 3.57-3.755 7.484l-2.829 7.102-.411-6.667c-.226-3.674-.684-6.966-1.029-7.306-1.109-1.096-147.348 2.032-148.074 3.167-.35.545-.637 2.576-.643 4.496-.01 2.938.3 3.637 2.031 4.42 1.777.804 2.058 1.455 2.058 4.828 0 3.274-2.53 19.859-4.604 30.068-.71 3.497-.135 4.622-10.62-20.795-4.813-11.666-9.255-21.983-9.876-22.94-1.075-1.659-1.82-1.754-15.995-1.89-8.173-.079-14.864.046-14.864.281 0 .234.773 1.891 1.697 3.653 3.315 6.317 3.342 10.249.283 32.392-6.751 48.872-11.558 68.554-17.358 71.094-3.852 1.687-4.697 7.244-1.286 8.481 2.958 1.074 15.156 1.18 17.873.154 1.166-.441 2.523-1.722 3.034-2.836.816-1.779.625-2.387-1.646-4.956-1.421-1.608-2.575-3.546-2.571-4.317.003-.771 1.24-8.395 2.751-16.937s4.2-23.901 5.966-34.129c1.767-10.229 3.374-18.578 3.6-18.572.227.005 2.358 5.064 4.707 11.24s8.723 22.714 14.17 36.76 9.686 26.052 9.437 26.696c-.837 2.168 2.648 4.556 6.867 4.7 15.426.526 64.944-.415 65.834-1.251 1.033-.972 5.966-26.307 5.966-30.63 0-1.306-.556-2.838-1.235-3.398-1.786-1.472-3.102-.094-6.146 6.387-5.076 10.807-12.38 15.773-23.89 16.273-3.848.167-7.407.027-7.921-.332-.679-.474-.054-5.313 2.263-17.678 1.755-9.366 3.395-17.367 3.652-17.78.739-1.188 6.808-.879 9.463.485 2.611 1.341 3.115 2.675 3.446 8.967.181 3.438.484 4.138 1.929 4.343.945.134 2.117-.234 2.597-.818 1.635-1.986 7.932-39.591 7.15-42.687-.897-3.551-4.064-1.076-7.381 5.773-2.134 4.407-3.581 6.345-5.503 7.332-2.612 1.342-8.295 1.954-9.258.996-.729-.724 4.558-32.749 5.632-34.103.702-.887 2.927-1.048 10.389-.716 5.215.232 10.112.699 10.904 1.022 1.715.7 1.794 2.452.463 11.598-.756 5.192-.765 7.032-.026 7.766 1.32 1.311 5.109-.413 5.22-2.376.053-.935.276-.733.643.588.59 2.118 2.983 3.002 4.861 1.788.582-.376 1.775-4.328 2.674-8.788s1.831-8.703 2.058-9.426c.424-1.354 6.631-4.602 7.38-3.858.319.317-7.137 45.915-13.218 80.776-.819 4.697-2.854 8.699-5.375 10.551-3.019 2.217-4.916 5.839-4.294 8.2.483 1.836.479 1.839 19.364 1.558 18.696-.277 18.888-.286 20.445-2.197 2.233-2.741 1.948-5.155-.901-7.638-1.424-1.242-2.443-2.957-2.443-4.062.004-3.277 10.649-66.269 14.042-83.049.838-4.149.968-4.292 3.626-4.292 4.937 0 7.821 4.977 9.103 15.711.548 4.586 1.975 6.985 3.575 6.003 1.658-1.018 1.989 8.198 1.465 42.151-.48 31.197-.419 34.957.746 35.917 2.354 1.941 3.817-.249 8.744-13.181 2.644-6.94 8.404-21.817 12.807-33.057l7.997-20.437.592 19.211c.64 21.235 1.951 40.775 2.983 44.552.447 1.638 1.256 2.532 2.469 2.708 2.107.306 3.908-3.22 8.255-16.196 3.999-11.941 4.485-12.196 7.483-3.909 4.509 12.463 10.567 20.088 17.41 21.919 6.078 1.625 11.262.091 22.656-6.693l2.597-1.533-.411 3.014-.411 3.015 17.564-.588c21.043-.685 22.952-1.008 24.456-4.113 1.007-2.08.956-2.531-.617-4.47-3.681-4.537-3.801-5.248-2.16-15.277.843-5.155 1.802-9.109 2.108-8.762.491.556 2.984 14.797 4.527 25.75.298 2.121 1.01 4.24 1.568 4.701 1.31 1.079 44.081 1.17 48.527.102 2.073-.498 3.775-.509 4.732 0 1.219.648 1.491.485 1.491-.894 0-.929-.555-1.887-1.234-2.146-.773-.295-1.234-1.547-1.234-3.347 0-7.076 5.336-35.552 7.766-41.486.936-2.285 1.19-1.604 4.397 11.444 1.876 7.631 3.83 17.104 4.346 21.05 1.064 8.128.404 10.094-4.166 12.441-1.353.695-2.468 1.875-2.468 2.606 0 1.202 1.658 1.27 17.487.741 19.698-.659 20.367-.879 20.367-6.31 0-2.225-.424-3.34-1.543-3.934-3.791-2.016-6.622-12.505-12.858-47.771-2.615-14.789-2.871-17.36-1.929-19.108.598-1.111 5.17-5.761 10.158-10.347 11.696-10.75 12.282-11.296 17.899-16.221 4.53-3.973 4.732-4.318 4.732-8.098v-3.96zm-89.878 2.555c9.898-.052 12.863 2.153 15.018 9.477 1.066 3.623 1.307 6.737 1.003 13.31-.651 14.096-6.052 26.431-15.841 36.224-2.728 2.728-4.798 5.521-4.655 6.233 1.436 7.129 14.336 41.95 15.713 42.406.484.161.874 1.003.874 1.865 0 1.471-.712 1.558-11.829 1.558h-11.83l-.951-6.744c-1.467-10.353-4.974-30.152-5.478-30.961-.458-.737-2.829-1.013-2.829-.333 0 .206-.936 5.816-2.109 12.467-1.172 6.651-2.242 13.003-2.365 14.127-.279 2.542 1.938 7.357 3.394 7.357.595 0 1.08.87 1.08 1.941 0 1.825-.376 1.989-5.966 2.478-3.281.288-11.428.718-18.104.946-12.138.413-12.138.403-12.138-1.508 0-1.05-.502-2.618-1.132-3.474-1.103-1.498-1.331-1.431-5.786 1.507-17.32 11.424-28.107 7.471-35.437-12.977-2.623-7.317-3.249-8.205-6.275-8.941-2.084-.507-2.258-.263-5.22 7.919-1.681 4.642-3.901 10.618-4.938 13.284l-1.877 4.854-.952-5.467c-.892-5.088-2.511-41.898-2.546-57.964-.013-6.071-.208-7.052-1.286-6.642-1.525.582-2.758 2.9-6.609 12.313-2.654 6.489-16.915 43.158-20.521 52.778-.806 2.151-1.799 4.115-2.212 4.369-.45.276-.477-7.323-.077-19.032.771-22.558.718-50.902-.103-55.051-.311-1.574-.621-3.321-.669-3.883-.085-.999-.922-1.322-2.803-1.099-.514.061-1.181-1.632-1.491-3.781-1.541-10.669-5.17-15.757-11.238-15.736-1.983.007-4.063.272-4.603.613-1.416.894-2.952 8.886-11.753 61.08-5.001 29.66-5.035 30.56-1.466 33.874 4.587 4.259 2.943 4.78-16.87 5.339-14.747.417-17.075.305-17.075-.74 0-1.137 3.957-5.365 5.015-5.365 1.667 0 4.359-9.62 6.891-24.524 12.459-73.324 12.127-70.302 8.23-70.302-2.668 0-8.325 2.853-9.31 4.7-.418.785-1.384 4.557-2.16 8.379-1.895 9.338-2.854 10.753-2.674 3.934.079-3.013-.124-5.743-.437-6.054-.935-.929-2.932 1.248-3.498 3.806-.777 3.514-2.392 4.142-1.774.69.273-1.526.736-4.65 1.028-6.949.53-4.166.519-4.184-2.237-5.211-3.056-1.139-20.846-2.145-24.019-1.354-1.84.459-2.172 1.279-3.755 9.707-2.08 11.079-4.217 25.196-4.217 27.897 0 2.47 2.572 3.234 8.486 2.478 3.571-.457 4.815-1.101 7.458-3.832 1.745-1.804 3.855-4.801 4.68-6.642.986-2.2 1.506-2.786 1.543-1.712.063 1.784-4.728 29.962-5.169 30.4-.148.148-.941-1.185-1.748-2.964-.942-2.074-2.413-3.681-4.141-4.496-3.237-1.526-10.233-1.676-12.163-.255-1.251.92-5.396 20.41-7.613 35.866l-.54 3.807 5.298.894c13.694 2.369 24.673-3.311 32.583-16.861 1.594-2.732 2.56-3.845 2.314-2.656-.232 1.124-1.202 6.826-2.16 12.67s-2.097 11.476-2.52 12.492c-.769 1.849-.749 1.849-34.203 1.635l-33.457-.23-1.132-4.393c-.621-2.415-1.682-5.542-2.34-6.949s-2.367-5.681-3.806-9.503c-3.241-8.612-5.46-14.338-9.798-25.342-1.86-4.72-5.41-13.917-7.895-20.436-4.776-12.53-5.798-14.256-7.946-13.437-1.552.591-1.824 1.787-6.429 28.56-1.856 10.79-4.26 24.769-5.349 31.064-2.465 14.244-2.483 15.247.051 18.239 2.474 2.921 2.589 3.917.489 5.033-1.595.848-12.751 1.081-14.684.307-1.66-.666-1.165-2.783 1.029-4.497 5.877-4.592 11.374-24.63 16.355-59.547 4.98-34.912 5-35.031 3.523-40.72-.738-2.847-1.363-5.537-1.363-5.952 0-.424 2.622-.594 5.967-.409 3.281.181 8.679.362 11.983.409 6.009.084 6.023.076 7.252 3.142.677 1.686 1.576 3.801 2.006 4.7 1.538 3.211 13.315 31.979 15.224 37.195 1.826 4.985 3.654 6.88 4.835 4.982 1.395-2.243 7.335-37.983 6.815-41.027-.123-.72-1.24-2.242-2.469-3.372-1.228-1.131-2.237-2.778-2.237-3.679 0-1.601.71-1.651 32.3-2.171 17.764-.293 38.965-.712 47.112-.92 56.96-1.451 64.357-1.462 64.882-.102.279.722.331 4.949.129 9.401-.28 6.146-.096 8.323.746 9.017.884.73 1.649-.19 3.806-4.598 1.486-3.039 2.978-6.279 3.317-7.178s1.085-2.839 1.646-4.317 1.61-2.962 2.34-3.296 7.824-.469 15.764-.306l14.427.281-.566 4.649c-.869 6.905-.851 14.842.052 14.842 1.257 0 2.517-2.904 5.04-11.674 1.293-4.492 2.549-8.357 2.777-8.584.705-.699 8.929-1.13 11.727-.613 2.425.449 2.607.695 2.16 2.912-.631 3.138.512 3.144 7.149.026 11.355-5.334 20.345-4.042 28.443 4.087 7.002 7.029 8.878 6.526 5.94-1.584-.99-2.732-1.616-5.138-1.414-5.339.443-.44 19.054-2.014 31.657-2.682a99 99 0 0 1 4.706-.153m91.473.306c8.872 0 8.984.018 9.129 1.942.095 1.258-.73 2.705-2.314 4.087-7.567 6.603-15.122 13.636-22.605 21.024-6.994 6.905-8.435 8.729-8.435 10.781 0 6.811 9.7 54.51 12.421 61.08.558 1.349.97 2.737.9 3.065-.07.329.8 1.182 1.929 1.916 2.213 1.441 2.657 3.723 1.003 5.033-1.496 1.184-27.774 2.224-27.774 1.098 0-.484.348-.894.746-.894.397 0 1.172-1.122 1.748-2.503 1.917-4.597-2.028-26.341-7.56-41.614-2.444-6.749-4.105-7.3-5.966-1.916-3.098 8.958-7.895 34.581-7.895 42.227 0 4.394.012 4.411-3.806 4.93-2.1.286-7.335.511-11.624.511-7.701 0-7.792-.023-7.252-1.839.301-1.012 1.04-4.598 1.646-7.97s2.823-15.369 4.912-26.67 4.754-26.752 5.914-34.334 2.828-16.123 3.704-18.981c2.302-7.517 2.106-12.146-.592-14.944-4.609-4.779-1.835-5.62 18.722-5.62 16.259 0 17.327.408 11.932 4.496-3.908 2.961-5.738 7.882-8.281 22.378-2.226 12.692-2.259 14.817-.205 14.817 2.096 0 29.972-27.97 30.422-30.527.618-3.507-.181-5.371-2.855-6.745-3.052-1.568-2.743-3.796.592-4.393 1.355-.243 6.504-.435 11.444-.435m-94.765 6.949c-5.084 0-5.663 1.304-8.872 20.028-1.618 9.442-3.26 18.826-3.652 20.845-.391 2.02-.502 4.001-.257 4.394.66 1.061 6.831.145 10.389-1.533 9.851-4.643 15.176-19.115 12.087-32.826-1.284-5.7-5.912-10.908-9.695-10.908m0 2.452c1.839 0 4.056 1.984 5.735 5.135 2.591 4.864 2.66 18.015.128 23.477-2.24 4.833-5.427 8.507-8.743 10.065-3.199 1.502-7.227 2.568-7.227 1.916 0-.257 1.516-9.047 3.344-19.517 3.233-18.524 4.053-21.076 6.763-21.076m-59.405 6.795c-1.319-.005-2.834.755-4.474 2.351-3.457 3.362-5.349 7.049-9.001 17.473-7.987 22.795-10.122 52.251-4.218 58.117 2.647 2.629 4.201 2.412 7.51-1.073 7.092-7.47 13.82-29.245 15.867-51.398 1.453-15.735-.972-25.453-5.684-25.47m-209.022.562c-.719-.073-1.728.478-1.98 1.431-2.31 8.716-7.29 32.159-9.593 45.165-3.14 17.74-6.623 37.11-7.097 39.443-.402 1.976-.197 2.248 1.62 2.248 1.258 0 2.236-.56 2.494-1.431 2.03-6.846 15.302-81.437 15.302-85.987 0-.54-.315-.824-.746-.869m208.739 1.789c.854-.035 1.47.897 2.341 2.912 1.864 4.312 1.111 25.196-1.312 36.582-3.424 16.085-10.1 32.674-13.99 34.742-.84.447-1.714.817-1.954.817-3.217 0-3.617-25.318-.617-39.136 3.541-16.316 8.699-29.947 12.909-34.129 1.16-1.152 1.959-1.762 2.623-1.788m8.41 111.38c-.482-.005-1.073.175-1.801.562-2.322 1.234-8.246 9.706-10.003 14.305-1.059 2.771-2.257 4.42-3.703 5.058-1.177.52-6.169 3.971-11.084 7.69-12.434 9.408-13.871 10.343-15.919 10.397-2.248.059-2.889-.937-3.034-4.726-.168-4.392-2.376-4.281-8.769.485-6.952 5.183-11.496 7.901-11.496 6.872 0-1.082 10.633-10.555 16.665-14.842 2.602-1.85 4.731-3.725 4.731-4.164 0-1.174-2.192-1.795-4.371-1.252-2.146.535-15.437 9.05-19.622 12.569-1.507 1.267-4.323 3.371-6.275 4.675-4.055 2.709-8.161 7.184-6.943 7.587.45.149 2.677-.796 4.937-2.12l4.115-2.402-.926 2.427c-.798 2.102-.708 2.602.669 3.602.878.638 2.093 1.15 2.7 1.15 1.73 0 8.449-3.805 12.935-7.332l4.089-3.219 1.003 2.35c1.663 3.93 7.003 5.451 10.595 3.015a210 210 0 0 1 3.935-2.58c2.299-1.469 2.301-1.463 1.337.638-.53 1.156-.718 3.105-.411 4.318.503 1.99.844 2.152 3.42 1.737 3.346-.54 5.412-2.049 12.833-9.273l5.503-5.339 1.286 2.477c2.86 5.494 7.755 6.55 11.623 2.504 2.119-2.215 2.214-2.499.772-2.35-3.672.378-4.628-.108-5.786-2.861-1.95-4.637-1.495-7.738 2.083-13.821 1.81-3.077 3.291-6.03 3.291-6.565s.335-1.31.721-1.737 1.184-2.574 1.774-4.752c.901-3.325.569-5.069-.874-5.083m-198.505 1.89c-.375-.014-.808.022-1.363.077-2.949.29-3.891.931-6.069 4.24-2.009 3.053-4.871 12.444-3.96 13.003.468.288.314 2.747-.412 6.208-2.666 12.72-2.504 14.259 1.723 15.353 2.6.673 18.547-.122 21.448-1.073 2.006-.658 2.623-1.347 2.623-2.887 0-1.107-.417-2.027-.926-2.043-1.556-.049 3.093-2.371 4.809-2.402 1.248-.022 1.385.208.617.971-1.422 1.412-1.251 2.066.952 3.5 2.507 1.632 7.947.576 14.684-2.887 2.584-1.328 4.852-2.427 5.04-2.427s.555 1.098.823 2.427c.553 2.745 4.012 4.93 7.766 4.93 4.218 0 13.836-5.517 12.293-7.05-.26-.258-2.606.292-5.221 1.226-4.299 1.536-4.929 1.596-6.634.485-1.349-.877-1.903-2.015-1.903-3.985 0-4.086-1.714-4.187-9.747-.587-8.726 3.91-10.004 4.325-10.004 3.423 0-.812 3.075-2.753 13.579-8.609 4.063-2.265 7.396-4.481 7.406-4.93.038-1.694-5.31-1.264-10.389.843-12.913 5.354-27.054 12.889-27.054 14.407 0 1.218-.616 1.508-3.163 1.508-1.747 0-4.823.236-6.841.511-5.614.764-6.636-.661-5.117-7.128.647-2.758 2.046-7.284 3.111-10.039 2.364-6.116 4.087-13.508 3.652-15.66-.193-.955-.599-1.363-1.723-1.405m94.353 2.555c-3.095.088-4.339.708-6.043 2.401-2.307 2.292-2.303 2.281-1.877 13.36.425 11.08.421 11.083-1.749 11.624-2.584.644-2.802 2.591-.566 4.956 1.467 1.551 1.513 2.207.72 8.098-.885 6.58-.627 7.547 2.135 8.021 1.328.228 1.801-.584 2.906-4.981 1.398-5.562 2.541-6.687 4.809-4.752 2.955 2.522 18.203 11.251 22.45 12.85 2.455.924 5.004 2.037 5.683 2.478 1.65 1.071 2.287 1.017 2.701-.205.648-1.914-.338-3.583-2.958-5.083-1.439-.824-7.244-4.556-12.909-8.277-9.934-6.526-14.746-10.463-13.836-11.368.239-.237 3.015-1.156 6.146-2.018 6.478-1.783 15.78-5.752 19.313-8.251 4.923-3.482 2.253-10.235-5.58-14.153-3.409-1.705-13.914-4.462-17.564-4.624-1.53-.067-2.749-.106-3.781-.076m123.773 4.291c-3.584.188-9.333 4.337-8.435 6.642 1.201 3.083 8.755.422 10.158-3.576.678-1.933.602-2.52-.36-2.887-.398-.152-.851-.205-1.363-.179m-124.441 2.529c.92-.041 2.047.021 3.42.179 9.666 1.118 18.329 4.952 18.31 8.098-.008 1.398-4.785 4.394-11.212 7.025-6.471 2.65-10.184 3.647-10.184 2.734 0-.347.739-3.148 1.62-6.208s1.382-6.096 1.132-6.744c-.532-1.377-3.663-1.573-4.938-.306-.625.621-.999.287-1.286-1.201-.455-2.365.378-3.453 3.138-3.577m152.292 8.814c-1.837.147-5.831 1.963-9.798 4.675-6.452 4.41-8.806 6.657-5.272 5.058 2.562-1.16 3.957-.384 1.955 1.098-2.314 1.713-2.675 5.901-.669 7.894 2.026 2.012 3.867 2.124 9.772.562 7.829-2.07 16.639-8.776 16.639-12.645 0-2.76-3.109-4.599-7.792-4.599-3.387 0-4.229-.249-3.884-1.149.267-.695-.116-.961-.951-.894m-62.696 3.908c.356-.024.428.458.437 1.278.019 1.823-1.386 3.671-6.635 8.787-3.655 3.564-7.014 6.463-7.458 6.463-1.545 0 2.225-5.264 8.126-11.393 3.514-3.649 4.936-5.094 5.53-5.135m28.982 1.789c-1.503.145-3.327 1.275-5.581 3.346-1.981 1.821-2.814 2.925-1.825 2.452 2.866-1.369 3.75-1.11 2.725.792-.514.956-.536 1.556-.077 1.431.436-.119 2.058 1.149 3.626 2.836 2.366 2.543 3.405 3.063 6.044 3.039 1.749-.015 4.089-.564 5.22-1.226 2.057-1.204 2.057-1.22-.411-.689l-2.469.536 1.954-2.095c1.886-2.042 1.897-2.1.206-1.66-2.291.595-3.909-.812-5.118-4.496-.991-3.022-2.361-4.454-4.294-4.266m36.363.894c.908.034 1.77.24 2.443.664 1.767 1.113-.777 5.13-4.629 7.28-1.803 1.007-4.266 1.814-5.478 1.814-1.987 0-2.187-.252-1.954-2.631.172-1.758.879-2.946 2.109-3.551 1.015-.5 2.538-1.527 3.368-2.274 1.015-.912 2.627-1.36 4.141-1.302"/><path fill="#000" fill-rule="evenodd" d="M441.262 290.488v-10.092h4.284c1.104 0 1.873.1 2.376.267.502.2.869.499 1.171.965.301.467.435 1 .435 1.599 0 .766-.201 1.366-.669 1.865-.435.499-1.105.8-2.009.932.469.267.837.533 1.105.834.301.332.669.865 1.171 1.664l1.239 1.966h-2.443l-1.473-2.199q-.803-1.199-1.104-1.498a1.2 1.2 0 0 0-.603-.4c-.2-.1-.569-.133-1.037-.133h-.401v4.23zm2.042-5.829h1.505c.971 0 1.607-.033 1.841-.133a1 1 0 0 0 .569-.4c.134-.233.2-.466.2-.766 0-.333-.066-.633-.267-.832-.168-.2-.435-.333-.77-.4-.168 0-.669-.033-1.472-.033h-1.606zm1.773-6.827c-4.283 0-7.764 3.464-7.764 7.727 0 4.262 3.481 7.726 7.764 7.726 4.25 0 7.73-3.464 7.73-7.726s-3.48-7.727-7.73-7.727m0-1.266c-4.986 0-9.069 4.03-9.069 8.993 0 4.962 4.083 8.992 9.069 8.992 4.953 0 9.035-4.03 9.035-8.992s-4.082-8.993-9.035-8.993" clip-rule="evenodd"/></svg>