<svg xmlns="http://www.w3.org/2000/svg" width="144" height="57" fill="none" viewBox="0 0 144 57"><mask id="a" width="144" height="57" x="-.252" y=".364" fill="#000" maskUnits="userSpaceOnUse"><path fill="#fff" d="M-.252.364h144v57h-144z"/><path d="M12.604 32.552q-3.036 0-5.888-1.15a15.4 15.4 0 0 1-4.968-3.266l3.128-3.634a13.9 13.9 0 0 0 3.68 2.484q2.07.92 4.14.92 2.575 0 3.91-1.058 1.335-1.057 1.334-2.806 0-1.886-1.334-2.714-1.289-.829-3.312-1.702l-4.14-1.794a16.3 16.3 0 0 1-2.898-1.656 8.5 8.5 0 0 1-2.3-2.576q-.874-1.564-.874-3.772 0-2.392 1.288-4.278 1.334-1.932 3.588-3.036 2.3-1.15 5.244-1.15 2.622 0 5.06 1.058 2.437 1.013 4.186 2.76l-2.714 3.404A12.2 12.2 0 0 0 16.698 6.7q-1.564-.69-3.496-.69-2.115 0-3.45.966-1.288.92-1.288 2.576 0 1.15.644 1.932.69.736 1.794 1.288 1.104.506 2.346 1.012l4.094 1.702q2.668 1.15 4.37 3.036 1.702 1.84 1.702 5.106 0 2.438-1.288 4.462T18.4 31.356q-2.392 1.196-5.796 1.196M31.046 32 21.662 1.916h5.658l4.232 15.134q.737 2.53 1.334 4.876.6 2.346 1.334 4.922h.184a80 80 0 0 0 1.334-4.922q.599-2.347 1.288-4.876l4.186-15.134h5.474L37.348 32z"/><path d="M57.927 32.552q-3.45 0-6.026-1.38T47.9 26.756q-1.38-3.036-1.38-7.958V1.916h5.336v17.296q0 3.266.736 5.198.782 1.886 2.162 2.714 1.38.782 3.174.782 1.84 0 3.22-.782 1.427-.828 2.208-2.714.828-1.931.828-5.198V1.916h5.106v16.882q0 4.922-1.38 7.958t-3.956 4.416q-2.53 1.38-6.026 1.38M85.264 32.552q-3.91 0-6.9-1.886-2.99-1.932-4.692-5.428-1.656-3.541-1.656-8.418 0-4.875 1.656-8.326 1.703-3.45 4.692-5.29 2.99-1.84 6.9-1.84 3.956 0 6.946 1.84t4.646 5.29q1.702 3.45 1.702 8.326t-1.702 8.418q-1.656 3.496-4.646 5.428-2.99 1.886-6.946 1.886m0-4.646q3.542 0 5.658-2.99 2.115-3.036 2.116-8.096t-2.116-7.912Q88.806 6.01 85.264 6.01t-5.658 2.898Q77.49 11.76 77.49 16.82t2.116 8.096q2.116 2.99 5.658 2.99M106.215 32V6.424h-8.694V1.916h22.724v4.508h-8.694V32zM126.357 15.992l-1.058 3.68h7.682l-1.058-3.68a158 158 0 0 1-1.426-4.922q-.645-2.53-1.288-5.014h-.184a154 154 0 0 1-1.288 5.06q-.645 2.484-1.38 4.876M116.283 32l9.798-30.084h6.256L142.135 32h-5.612l-2.346-8.142h-10.12L121.711 32zM2 55.628V35.372h4.116l3.645 9.911q.345.96.66 1.983.345.99.66 1.982h.125q.345-.992.66-1.982.315-1.023.629-1.983l3.55-9.911h4.148v20.256H16.83v-9.26q0-.96.062-2.076L17.082 42q.126-1.146.22-2.075h-.126l-1.665 4.708-3.362 9.106H9.98l-3.394-9.106-1.633-4.708h-.126q.095.93.188 2.075.126 1.146.189 2.292.094 1.115.094 2.075v9.261zM27.423 44.85l-.723 2.477h5.248l-.723-2.477q-.503-1.611-.974-3.315a763 763 0 0 0-.88-3.376h-.125a102 102 0 0 1-.88 3.407 76 76 0 0 1-.943 3.284m-6.881 10.778 6.692-20.256h4.274L38.2 55.628h-3.833l-1.602-5.482h-6.913l-1.602 5.482zM46.836 56q-2.765 0-4.964-1.208t-3.456-3.53q-1.257-2.355-1.257-5.7 0-3.315 1.288-5.668 1.288-2.385 3.488-3.624Q44.134 35 46.868 35q2.2 0 3.707.805 1.54.775 2.514 1.766l-1.948 2.323a7.5 7.5 0 0 0-1.76-1.24q-.942-.526-2.388-.526-2.733 0-4.43 1.983-1.665 1.95-1.665 5.358 0 3.47 1.602 5.451 1.604 1.952 4.682 1.952.88 0 1.665-.217.786-.248 1.289-.681v-4.368h-3.897v-2.942h7.164v8.92q-1.036 1.022-2.765 1.735-1.695.681-3.802.681M59.784 44.85l-.723 2.477h5.247l-.722-2.477q-.503-1.611-.974-3.315a763 763 0 0 0-.88-3.376h-.126a102 102 0 0 1-.88 3.407 76 76 0 0 1-.942 3.284m-6.881 10.778 6.692-20.256h4.274l6.692 20.256h-3.833l-1.602-5.482h-6.913l-1.602 5.482z"/><path d="M69.39 55.628V53.46l9.93-15.053h-9.018v-3.035h13.542v2.168l-9.96 15.053h10.023v3.035z"/><path d="M83.73 55.628V53.46l9.929-15.053H84.64v-3.035h13.542v2.168l-9.96 15.053h10.023v3.035zM99.85 55.628V35.372h3.645v20.256zM106.518 55.628V35.372h3.739l6.41 11.398 2.105 4.305h.126a162 162 0 0 0-.314-3.376 41 41 0 0 1-.157-3.53v-8.797h3.487v20.256h-3.739l-6.41-11.398-2.105-4.305h-.125q.125 1.61.282 3.376.189 1.765.189 3.469v8.858zM132.919 56q-2.67 0-4.713-1.27-2.042-1.3-3.205-3.655-1.131-2.386-1.131-5.668t1.131-5.606q1.163-2.323 3.205-3.562Q130.249 35 132.919 35q2.703 0 4.745 1.239t3.173 3.562Q142 42.124 142 45.407t-1.163 5.668q-1.13 2.355-3.173 3.655-2.043 1.27-4.745 1.27m0-3.128q2.42 0 3.865-2.014 1.446-2.044 1.446-5.45 0-3.408-1.446-5.328-1.445-1.952-3.865-1.952t-3.864 1.952q-1.446 1.92-1.446 5.327t1.446 5.451q1.445 2.014 3.864 2.014"/></mask><path fill="#01cc08" d="M12.604 32.552q-3.036 0-5.888-1.15a15.4 15.4 0 0 1-4.968-3.266l3.128-3.634a13.9 13.9 0 0 0 3.68 2.484q2.07.92 4.14.92 2.575 0 3.91-1.058 1.335-1.057 1.334-2.806 0-1.886-1.334-2.714-1.289-.829-3.312-1.702l-4.14-1.794a16.3 16.3 0 0 1-2.898-1.656 8.5 8.5 0 0 1-2.3-2.576q-.874-1.564-.874-3.772 0-2.392 1.288-4.278 1.334-1.932 3.588-3.036 2.3-1.15 5.244-1.15 2.622 0 5.06 1.058 2.437 1.013 4.186 2.76l-2.714 3.404A12.2 12.2 0 0 0 16.698 6.7q-1.564-.69-3.496-.69-2.115 0-3.45.966-1.288.92-1.288 2.576 0 1.15.644 1.932.69.736 1.794 1.288 1.104.506 2.346 1.012l4.094 1.702q2.668 1.15 4.37 3.036 1.702 1.84 1.702 5.106 0 2.438-1.288 4.462T18.4 31.356q-2.392 1.196-5.796 1.196M31.046 32 21.662 1.916h5.658l4.232 15.134q.737 2.53 1.334 4.876.6 2.346 1.334 4.922h.184a80 80 0 0 0 1.334-4.922q.599-2.347 1.288-4.876l4.186-15.134h5.474L37.348 32z"/><path fill="#01cc08" d="M57.927 32.552q-3.45 0-6.026-1.38T47.9 26.756q-1.38-3.036-1.38-7.958V1.916h5.336v17.296q0 3.266.736 5.198.782 1.886 2.162 2.714 1.38.782 3.174.782 1.84 0 3.22-.782 1.427-.828 2.208-2.714.828-1.931.828-5.198V1.916h5.106v16.882q0 4.922-1.38 7.958t-3.956 4.416q-2.53 1.38-6.026 1.38M85.264 32.552q-3.91 0-6.9-1.886-2.99-1.932-4.692-5.428-1.656-3.541-1.656-8.418 0-4.875 1.656-8.326 1.703-3.45 4.692-5.29 2.99-1.84 6.9-1.84 3.956 0 6.946 1.84t4.646 5.29q1.702 3.45 1.702 8.326t-1.702 8.418q-1.656 3.496-4.646 5.428-2.99 1.886-6.946 1.886m0-4.646q3.542 0 5.658-2.99 2.115-3.036 2.116-8.096t-2.116-7.912Q88.806 6.01 85.264 6.01t-5.658 2.898Q77.49 11.76 77.49 16.82t2.116 8.096q2.116 2.99 5.658 2.99M106.215 32V6.424h-8.694V1.916h22.724v4.508h-8.694V32zM126.357 15.992l-1.058 3.68h7.682l-1.058-3.68a158 158 0 0 1-1.426-4.922q-.645-2.53-1.288-5.014h-.184a154 154 0 0 1-1.288 5.06q-.645 2.484-1.38 4.876M116.283 32l9.798-30.084h6.256L142.135 32h-5.612l-2.346-8.142h-10.12L121.711 32zM2 55.628V35.372h4.116l3.645 9.911q.345.96.66 1.983.345.99.66 1.982h.125q.345-.992.66-1.982.315-1.023.629-1.983l3.55-9.911h4.148v20.256H16.83v-9.26q0-.96.062-2.076L17.082 42q.126-1.146.22-2.075h-.126l-1.665 4.708-3.362 9.106H9.98l-3.394-9.106-1.633-4.708h-.126q.095.93.188 2.075.126 1.146.189 2.292.094 1.115.094 2.075v9.261zM27.423 44.85l-.723 2.477h5.248l-.723-2.477q-.503-1.611-.974-3.315a763 763 0 0 0-.88-3.376h-.125a102 102 0 0 1-.88 3.407 76 76 0 0 1-.943 3.284m-6.881 10.778 6.692-20.256h4.274L38.2 55.628h-3.833l-1.602-5.482h-6.913l-1.602 5.482zM46.836 56q-2.765 0-4.964-1.208t-3.456-3.53q-1.257-2.355-1.257-5.7 0-3.315 1.288-5.668 1.288-2.385 3.488-3.624Q44.134 35 46.868 35q2.2 0 3.707.805 1.54.775 2.514 1.766l-1.948 2.323a7.5 7.5 0 0 0-1.76-1.24q-.942-.526-2.388-.526-2.733 0-4.43 1.983-1.665 1.95-1.665 5.358 0 3.47 1.602 5.451 1.604 1.952 4.682 1.952.88 0 1.665-.217.786-.248 1.289-.681v-4.368h-3.897v-2.942h7.164v8.92q-1.036 1.022-2.765 1.735-1.695.681-3.802.681M59.784 44.85l-.723 2.477h5.247l-.722-2.477q-.503-1.611-.974-3.315a763 763 0 0 0-.88-3.376h-.126a102 102 0 0 1-.88 3.407 76 76 0 0 1-.942 3.284m-6.881 10.778 6.692-20.256h4.274l6.692 20.256h-3.833l-1.602-5.482h-6.913l-1.602 5.482z"/><path fill="#01cc08" d="M69.39 55.628V53.46l9.93-15.053h-9.018v-3.035h13.542v2.168l-9.96 15.053h10.023v3.035z"/><path fill="#01cc08" d="M83.73 55.628V53.46l9.929-15.053H84.64v-3.035h13.542v2.168l-9.96 15.053h10.023v3.035zM99.85 55.628V35.372h3.645v20.256zM106.518 55.628V35.372h3.739l6.41 11.398 2.105 4.305h.126a162 162 0 0 0-.314-3.376 41 41 0 0 1-.157-3.53v-8.797h3.487v20.256h-3.739l-6.41-11.398-2.105-4.305h-.125q.125 1.61.282 3.376.189 1.765.189 3.469v8.858zM132.919 56q-2.67 0-4.713-1.27-2.042-1.3-3.205-3.655-1.131-2.386-1.131-5.668t1.131-5.606q1.163-2.323 3.205-3.562Q130.249 35 132.919 35q2.703 0 4.745 1.239t3.173 3.562Q142 42.124 142 45.407t-1.163 5.668q-1.13 2.355-3.173 3.655-2.043 1.27-4.745 1.27m0-3.128q2.42 0 3.865-2.014 1.446-2.044 1.446-5.45 0-3.408-1.446-5.328-1.445-1.952-3.865-1.952t-3.864 1.952q-1.446 1.92-1.446 5.327t1.446 5.451q1.445 2.014 3.864 2.014"/><path stroke="#000" stroke-width="2" d="M12.604 32.552q-3.036 0-5.888-1.15a15.4 15.4 0 0 1-4.968-3.266l3.128-3.634a13.9 13.9 0 0 0 3.68 2.484q2.07.92 4.14.92 2.575 0 3.91-1.058 1.335-1.057 1.334-2.806 0-1.886-1.334-2.714-1.289-.829-3.312-1.702l-4.14-1.794a16.3 16.3 0 0 1-2.898-1.656 8.5 8.5 0 0 1-2.3-2.576q-.874-1.564-.874-3.772 0-2.392 1.288-4.278 1.334-1.932 3.588-3.036 2.3-1.15 5.244-1.15 2.622 0 5.06 1.058 2.437 1.013 4.186 2.76l-2.714 3.404A12.2 12.2 0 0 0 16.698 6.7q-1.564-.69-3.496-.69-2.115 0-3.45.966-1.288.92-1.288 2.576 0 1.15.644 1.932.69.736 1.794 1.288 1.104.506 2.346 1.012l4.094 1.702q2.668 1.15 4.37 3.036 1.702 1.84 1.702 5.106 0 2.438-1.288 4.462T18.4 31.356q-2.392 1.196-5.796 1.196Z" mask="url(#a)"/><path stroke="#000" stroke-width="2" d="M31.046 32 21.662 1.916h5.658l4.232 15.134q.737 2.53 1.334 4.876.6 2.346 1.334 4.922h.184a80 80 0 0 0 1.334-4.922q.599-2.347 1.288-4.876l4.186-15.134h5.474L37.348 32z" mask="url(#a)"/><path stroke="#000" stroke-width="2" d="M57.927 32.552q-3.45 0-6.026-1.38T47.9 26.756q-1.38-3.036-1.38-7.958V1.916h5.336v17.296q0 3.266.736 5.198.782 1.886 2.162 2.714 1.38.782 3.174.782 1.84 0 3.22-.782 1.427-.828 2.208-2.714.828-1.931.828-5.198V1.916h5.106v16.882q0 4.922-1.38 7.958t-3.956 4.416q-2.53 1.38-6.026 1.38Z" mask="url(#a)"/><path stroke="#000" stroke-width="2" d="M85.264 32.552q-3.91 0-6.9-1.886-2.99-1.932-4.692-5.428-1.656-3.541-1.656-8.418 0-4.875 1.656-8.326 1.703-3.45 4.692-5.29 2.99-1.84 6.9-1.84 3.956 0 6.946 1.84t4.646 5.29q1.702 3.45 1.702 8.326t-1.702 8.418q-1.656 3.496-4.646 5.428-2.99 1.886-6.946 1.886Zm0-4.646q3.542 0 5.658-2.99 2.115-3.036 2.116-8.096t-2.116-7.912Q88.806 6.01 85.264 6.01t-5.658 2.898Q77.49 11.76 77.49 16.82t2.116 8.096q2.116 2.99 5.658 2.99Z" mask="url(#a)"/><path stroke="#000" stroke-width="2" d="M106.215 32V6.424h-8.694V1.916h22.724v4.508h-8.694V32z" mask="url(#a)"/><path stroke="#000" stroke-width="2" d="m126.357 15.992-1.058 3.68h7.682l-1.058-3.68a158 158 0 0 1-1.426-4.922q-.645-2.53-1.288-5.014h-.184a154 154 0 0 1-1.288 5.06q-.645 2.484-1.38 4.876ZM116.283 32l9.798-30.084h6.256L142.135 32h-5.612l-2.346-8.142h-10.12L121.711 32z" mask="url(#a)"/><path stroke="#000" stroke-width="2" d="M2 55.628V35.372h4.116l3.645 9.911q.345.96.66 1.983.345.99.66 1.982h.125q.345-.992.66-1.982.315-1.023.629-1.983l3.55-9.911h4.148v20.256H16.83v-9.26q0-.96.062-2.076L17.082 42q.126-1.146.22-2.075h-.126l-1.665 4.708-3.362 9.106H9.98l-3.394-9.106-1.633-4.708h-.126q.095.93.188 2.075.126 1.146.189 2.292.094 1.115.094 2.075v9.261z" mask="url(#a)"/><path stroke="#000" stroke-width="2" d="m27.423 44.85-.723 2.477h5.248l-.723-2.477q-.503-1.611-.974-3.315a763 763 0 0 0-.88-3.376h-.125a102 102 0 0 1-.88 3.407 76 76 0 0 1-.943 3.284Zm-6.881 10.778 6.692-20.256h4.274L38.2 55.628h-3.833l-1.602-5.482h-6.913l-1.602 5.482z" mask="url(#a)"/><path stroke="#000" stroke-width="2" d="M46.836 56q-2.765 0-4.964-1.208t-3.456-3.53q-1.257-2.355-1.257-5.7 0-3.315 1.288-5.668 1.288-2.385 3.488-3.624Q44.134 35 46.868 35q2.2 0 3.707.805 1.54.775 2.514 1.766l-1.948 2.323a7.5 7.5 0 0 0-1.76-1.24q-.942-.526-2.388-.526-2.733 0-4.43 1.983-1.665 1.95-1.665 5.358 0 3.47 1.602 5.451 1.604 1.952 4.682 1.952.88 0 1.665-.217.786-.248 1.289-.681v-4.368h-3.897v-2.942h7.164v8.92q-1.036 1.022-2.765 1.735-1.695.681-3.802.681Z" mask="url(#a)"/><path stroke="#000" stroke-width="2" d="m59.784 44.85-.723 2.477h5.247l-.722-2.477q-.503-1.611-.974-3.315a763 763 0 0 0-.88-3.376h-.126a102 102 0 0 1-.88 3.407 76 76 0 0 1-.942 3.284Zm-6.881 10.778 6.692-20.256h4.274l6.692 20.256h-3.833l-1.602-5.482h-6.913l-1.602 5.482z" mask="url(#a)"/><path stroke="#000" stroke-width="2" d="M69.39 55.628V53.46l9.93-15.053h-9.018v-3.035h13.542v2.168l-9.96 15.053h10.023v3.035z" mask="url(#a)"/><path stroke="#000" stroke-width="2" d="M83.73 55.628V53.46l9.929-15.053H84.64v-3.035h13.542v2.168l-9.96 15.053h10.023v3.035z" mask="url(#a)"/><path stroke="#000" stroke-width="2" d="M99.85 55.628V35.372h3.645v20.256z" mask="url(#a)"/><path stroke="#000" stroke-width="2" d="M106.518 55.628V35.372h3.739l6.41 11.398 2.105 4.305h.126a162 162 0 0 0-.314-3.376 41 41 0 0 1-.157-3.53v-8.797h3.487v20.256h-3.739l-6.41-11.398-2.105-4.305h-.125q.125 1.61.282 3.376.189 1.765.189 3.469v8.858z" mask="url(#a)"/><path stroke="#000" stroke-width="2" d="M132.919 56q-2.67 0-4.713-1.27-2.042-1.3-3.205-3.655-1.131-2.386-1.131-5.668t1.131-5.606q1.163-2.323 3.205-3.562Q130.249 35 132.919 35q2.703 0 4.745 1.239t3.173 3.562Q142 42.124 142 45.407t-1.163 5.668q-1.13 2.355-3.173 3.655-2.043 1.27-4.745 1.27Zm0-3.128q2.42 0 3.865-2.014 1.446-2.044 1.446-5.45 0-3.408-1.446-5.328-1.445-1.952-3.865-1.952t-3.864 1.952q-1.446 1.92-1.446 5.327t1.446 5.451q1.445 2.014 3.864 2.014Z" mask="url(#a)"/></svg>