<svg xmlns="http://www.w3.org/2000/svg" width="704" height="326" fill="none" viewBox="0 0 704 326"><path fill="#fff" d="m303.4 88.134-105.014.34-55.788 236.836-83.705.04 56.871-241.592L0 81.6 19.329 1.827l305.789-.797zM447.153.3c77.63-.023 136.053.332 142.111.603 60.852 2.719 96.918 22.775 109.371 60.822 6.467 19.758 6.887 50.547.984 72-11.997 43.591-63.326 87.224-116.633 99.144l-107.817 3.003-21.002 88.978-83.301-.602zm161.871 91.1-98.717-4.175-14.519 62.278 94.584.722c24.637-8.346 43.185-45.525 18.652-58.825"/><path fill="#fff" d="m198.386 88.475 20.579-87.36L530.915 0l-20.608 87.225zM256.134 150.725l239.654-1.222-21.359 89.584-237.688-4.612zM58.893 325.35l6.178-26.243 395.15.119-6.054 25.624z"/></svg>