<svg xmlns="http://www.w3.org/2000/svg" width="125" height="124" fill="none" viewBox="0 0 125 124"><path fill="#ef543f" d="M0 39C0 17.46 17.46 0 39 0v39z"/><path fill="#f48043" d="M0 39c0 21.54 17.46 39 39 39V39z"/><path fill="#00857d" d="M125 39c0-21.54-17.461-39-39-39v39z"/><path fill="#2ebcb6" d="M47 0c0 21.54 17.46 39 39 39V0z"/><path fill="#8b1a49" d="M0 85c0 21.539 17.46 39 39 39V85z"/><path fill="#c33d5b" d="M78 124c0-21.539-17.46-39-39-39v39z"/><path fill="#3e6bb2" d="M125 85c0 21.539-17.461 39-39 39V85z"/><path fill="#29387f" d="M125 85c0-21.54-17.461-39-39-39v39z"/></svg>