<svg xmlns="http://www.w3.org/2000/svg" width="457" height="52" fill="none" viewBox="0 0 457 52"><path fill="#fff" d="M139.852 51.143V.858h21.481q8.103 0 11.757 1.372 3.69 1.337 5.896 4.802 2.208 3.464 2.207 7.923 0 5.66-3.344 9.364-3.345 3.67-10 4.63 3.31 1.922 5.448 4.22 2.172 2.298 5.827 8.164l6.172 9.81H173.09L165.712 40.2q-3.931-5.865-5.379-7.374-1.449-1.544-3.069-2.093-1.62-.582-5.138-.583h-2.068v20.993zm10.206-29.019h7.551q7.344 0 9.172-.617 1.827-.617 2.861-2.127t1.035-3.773q0-2.538-1.379-4.082-1.346-1.578-3.828-1.99-1.241-.17-7.447-.17h-7.965zM190.848 51.143V.858h37.48v8.506h-27.274v11.148h25.377v8.472h-25.377V42.67h28.239v8.472zM261.463 32.654v-8.472h21.998v20.032q-3.206 3.087-9.309 5.453Q268.083 52 261.842 52q-7.93 0-13.826-3.293-5.897-3.327-8.862-9.467-2.964-6.174-2.965-13.412 0-7.855 3.31-13.96t9.689-9.364Q254.049 0 261.291 0q9.412 0 14.688 3.945 5.31 3.91 6.827 10.839l-10.137 1.886q-1.069-3.704-4.034-5.831-2.931-2.16-7.344-2.16-6.69 0-10.655 4.218-3.93 4.22-3.93 12.52 0 8.952 3.999 13.446 4 4.46 10.482 4.459 3.207 0 6.414-1.235 3.24-1.27 5.551-3.053v-6.38zM292.599 51.143V.858h10.206v50.285zM310.494 26.309q0-7.684 2.31-12.897a23.8 23.8 0 0 1 4.689-6.895q3-3.052 6.552-4.528Q328.769 0 334.94 0q11.172 0 17.861 6.894 6.724 6.895 6.724 19.175 0 12.177-6.655 19.07Q346.215 52 335.078 52q-11.275 0-17.93-6.826-6.654-6.86-6.654-18.865m10.516-.343q0 8.54 3.965 12.965 3.966 4.39 10.069 4.39 6.102 0 9.999-4.355 3.93-4.39 3.931-13.138 0-8.643-3.828-12.897-3.793-4.253-10.102-4.253T324.872 13q-3.862 4.287-3.862 12.966M367.627 51.143V.858h9.931l20.688 33.58V.858h9.482v50.285h-10.241L377.109 18.35v32.792zM418.555 51.143V.858h37.48v8.506h-27.274v11.148h25.377v8.472h-25.377V42.67H457v8.472z"/><path fill="#0d63ae" d="M14.999 51.143V9.363H0V.858h40.17v8.506H25.204v41.778zM62.685 39.549l9.654 1.612q-1.86 5.282-5.896 8.06-3.999 2.745-10.033 2.745-9.552 0-14.137-6.209-3.62-4.973-3.62-12.554 0-9.055 4.758-14.166 4.758-5.145 12.033-5.145 8.172 0 12.896 5.385 4.723 5.35 4.517 16.43H48.583q.103 4.287 2.344 6.689 2.241 2.367 5.586 2.367 2.276 0 3.827-1.235t2.345-3.98m.552-9.742q-.104-4.185-2.173-6.345-2.069-2.196-5.034-2.195-3.171 0-5.24 2.298t-2.035 6.242zM80.787 51.143V.858h9.689v50.285zM121.646 39.549l9.654 1.612q-1.861 5.282-5.896 8.06-4 2.745-10.033 2.745-9.552 0-14.137-6.209-3.62-4.973-3.62-12.554 0-9.055 4.758-14.166 4.758-5.145 12.033-5.145 8.172 0 12.896 5.385 4.724 5.35 4.517 16.43h-24.274q.103 4.287 2.344 6.689 2.241 2.367 5.586 2.367 2.276 0 3.827-1.235t2.345-3.98m.552-9.742q-.103-4.185-2.173-6.345-2.068-2.196-5.034-2.195-3.171 0-5.241 2.298-2.068 2.298-2.034 6.242z"/></svg>