<svg xmlns="http://www.w3.org/2000/svg" width="697" height="694" fill="none" viewBox="0 0 697 694"><path fill="#a4bac8" d="M0 0h206v623c0 36.5 30 71 30 71H0z"/><path fill="#a4bac8" d="M0 0h373c41.974 0 76 34.026 76 76v130H0z"/><path fill="#608bab" d="M456 0h118v206h-88V65c0-24-30-65-30-65"/><path fill="#608bab" d="M486 0h133c43.078 0 78 34.922 78 78v50c0 43.078-34.922 78-78 78H486z"/><path fill="#3a7499" d="M243 243h374c44.183 0 80 35.817 80 80v127H323c-44.183 0-80-35.817-80-80z"/><path fill="#3a7499" d="M623 391h74v90.5c0-31.5-74-31.5-74-31.5z"/><path fill="#0f6187" d="M243 487h374c44.183 0 80 35.817 80 80v47c0 44.183-35.817 80-80 80H323c-44.183 0-80-35.817-80-80z"/></svg>