<svg xmlns="http://www.w3.org/2000/svg" width="592" height="140" fill="none" viewBox="0 0 592 140"><path fill="#fff" d="M.553 0h591v140h-591z"/><path fill="#000" d="m306.553 82.75 23.04-1.442q.747 5.61 3.047 8.549 3.741 4.755 10.691 4.755 5.186 0 7.965-2.404 2.833-2.459 2.833-5.664 0-3.045-2.673-5.45-2.673-2.404-12.402-4.541-15.93-3.58-22.719-9.51-6.842-5.932-6.842-15.122 0-6.037 3.475-11.38 3.528-5.397 10.53-8.442Q330.555 29 342.796 29q15.021 0 22.88 5.61 7.911 5.557 9.408 17.739l-22.826 1.336q-.909-5.29-3.849-7.694-2.886-2.405-8.018-2.405-4.224 0-6.362 1.817-2.138 1.763-2.138 4.328 0 1.87 1.764 3.366 1.711 1.55 8.126 2.885 15.876 3.42 22.719 6.946 6.895 3.472 9.996 8.656 3.154 5.183 3.154 11.594 0 7.534-4.17 13.892-4.169 6.358-11.653 9.671-7.483 3.26-18.87 3.259-19.993 0-27.691-7.694-7.698-7.695-8.713-19.555M389.25 30.336h21.757v14.8H389.25zm0 21.586h21.757v56.742H389.25zM425.119 51.922h20.367v9.296q2.941-6.037 6.041-8.281 3.154-2.298 7.751-2.298 4.812 0 10.531 2.992l-6.735 15.495q-3.85-1.603-6.094-1.603-4.277 0-6.629 3.526-3.368 4.97-3.368 18.594v19.021h-21.864zM474.353 30.336h21.757v14.8h-21.757zm0 21.586h21.757v56.742h-21.757zM507.336 80.453q0-12.984 8.767-21.372 8.766-8.442 23.681-8.442 17.052 0 25.766 9.885 7.003 7.96 7.003 19.609 0 13.09-8.714 21.478-8.66 8.336-24.002 8.336-13.685 0-22.131-6.946-10.37-8.603-10.37-22.548m21.81-.053q0 7.587 3.047 11.22 3.1 3.633 7.751 3.633 4.704 0 7.698-3.58 3.047-3.579 3.047-11.487 0-7.374-3.047-10.953-3.047-3.633-7.537-3.633-4.758 0-7.859 3.686-3.1 3.633-3.1 11.114M18.553 19h273v102h-273z"/><path fill="#fff" d="M32.553 30h73.593v19.193H81.455v58.535h-24.21V49.193H32.552zM172.097 84.929h-43.611q.589 5.196 2.833 7.74 3.153 3.66 8.231 3.66 3.206 0 6.092-1.591 1.764-1.008 3.795-3.553l21.431 1.962q-4.917 8.483-11.865 12.195Q152.056 109 139.069 109q-11.277 0-17.744-3.128-6.466-3.181-10.743-10.021-4.222-6.892-4.222-16.171 0-13.203 8.498-21.367 8.551-8.166 23.569-8.165 12.186 0 19.24 3.658 7.055 3.659 10.743 10.604 3.687 6.945 3.687 18.08zm-22.126-10.34q-.64-6.255-3.42-8.96-2.726-2.704-7.215-2.704-5.184 0-8.284 4.083-1.978 2.545-2.512 7.582zM182.84 30h21.805v77.728H182.84zM281.553 84.929h-43.611q.588 5.196 2.832 7.74 3.153 3.66 8.231 3.66 3.206 0 6.093-1.591 1.763-1.008 3.794-3.553l21.432 1.962q-4.917 8.483-11.865 12.195Q261.511 109 248.524 109q-11.277 0-17.744-3.128-6.467-3.181-10.742-10.021-4.223-6.892-4.223-16.171 0-13.203 8.498-21.367 8.551-8.166 23.569-8.165 12.185 0 19.241 3.658t10.742 10.604q3.688 6.945 3.688 18.08zm-22.126-10.34q-.642-6.255-3.421-8.96-2.726-2.704-7.215-2.704-5.184 0-8.284 4.083-1.978 2.545-2.512 7.582z"/></svg>