<svg xmlns="http://www.w3.org/2000/svg" width="67" height="42" fill="none" viewBox="0 0 67 42"><path fill="#fff" fill-rule="evenodd" d="M25.867 0c1.377 2.526 2.567 5.242 3.778 7.944-2.93-.144-5.771-.387-8.581-.662 1.56-2.47 3.284-4.767 4.806-7.282M13.389 2.381a374 374 0 0 1 7.152 4.767c-2.401 1.487-5.062 2.706-7.672 3.97.18-2.906.28-5.897.523-8.74M37.705 13.102a70 70 0 0 1-7.153-5.027c2.568-1.177 5.107-2.389 7.533-3.703.135-.025.263.025.263.127.121 2.515-.74 5.792-.643 8.603M4.156 10.593c2.883.198 5.737.427 8.585.66-1.522 2.504-3.242 4.819-4.81 7.281-1.363-2.54-2.56-5.246-3.771-7.94M7.28 27.666C4.756 26.172 2.458 24.453 0 22.899c2.325-1.469 5.028-2.558 7.412-3.967.613 2.52-.263 5.81-.128 8.734M60.322 23.17c.187.053-.014.113 0 .257-2.45 3.386-6.007 6.592-11.44 7.025-10.416.81-23.735-1.208-31.981 1.973 2.63-3.685 5.81-6.8 11.828-7.271 4.71-.377 10.726.127 16.381-.134 5.502-.26 12.073-.05 15.212-1.846M7.15 28.057c1.383 2.476 2.422 5.298 3.768 7.813-2.73.215-5.776-.38-8.579-.528 1.513-2.523 3.284-4.777 4.81-7.285M54.08 31.9c.193.06-.01.113 0 .268-2.46 3.488-6.105 6.598-11.7 7.014-10.336.768-23.621-1.24-31.722 1.987 2.658-3.551 5.665-6.813 11.565-7.275 4.7-.37 10.817-.053 16.513-.14 5.301-.089 12.402-.265 15.343-1.85M66.696 14.426c.145.032.066.134 0 .134-2.19 3.615-5.782 6.116-9.886 6.884-3.322.677-7.136.088-11.44.268-7.783.306-16.15-.328-21.97 2.117 1.546-3.026 3.837-4.774 6.886-6.095 3.232-1.391 6.99-1.32 11.703-1.32 4.024 0 8.585.006 13-.128 4.326-.14 9.184-.458 11.704-1.86" clip-rule="evenodd"/></svg>