<svg xmlns="http://www.w3.org/2000/svg" width="1557" height="451" fill="none" viewBox="0 0 1557 451"><path fill="#fff" d="M26 127h1515v210H26z"/><path fill="#0d469d" d="M0 0h1557v451H0zm551.138 290.558c9.226-1.955 20.371-6.803 26.716-11.62 2.944-2.235 5.59-3.828 5.878-3.539s-.883 2.719-2.603 5.401-3.129 5.408-3.129 6.06c0 .88 4.677 1.115 18.164.913l18.164-.273 7.318-12c4.024-6.6 8.087-12.562 9.027-13.25 2.468-1.805 49.634-1.79 51.133.015.578.697 1.77 5.534 2.648 10.75s1.846 10.721 2.151 12.234l.554 2.75h16.92c13.776 0 16.921-.259 16.921-1.39 0-2.173-24.992-133.788-25.587-134.752-.781-1.263-30.789-1.082-32.065.194-.579.578-17.431 26.889-37.45 58.469-20.019 31.579-36.861 57.431-37.428 57.448-.566.015-4.591-4.244-8.944-9.469s-8.343-9.5-8.867-9.5-2.799 1.511-5.056 3.358c-20.036 16.403-47.668 12.371-56.93-8.308-2.514-5.612-3.389-19.285-1.742-27.219 2.992-14.409 14.632-29.995 26.44-35.401 14.45-6.616 29.363-5.086 39.475 4.049 2.255 2.038 4.533 3.551 5.062 3.363 2.647-.942 22.092-19.335 22.092-20.897 0-2.475-8.255-9.301-15.658-12.947-18.267-8.997-43.562-9.444-63.375-1.12-24.631 10.349-42.732 32.858-48.509 60.322-1.873 8.902-1.847 26.523.05 34.569 4.873 20.671 19.873 35.491 41.712 41.213 8.939 2.342 27.238 2.629 36.918.577m95.285-56.899c-.571-1.487 23.65-43.159 25.085-43.159 1.406 0 7.348 42.244 6.115 43.476-1.644 1.645-30.561 1.351-31.2-.317m543.767 55.889c29.03-6.154 51.29-27.617 59.84-57.722 2.93-10.286 3.67-27.991 1.59-37.826-4.52-21.32-18.32-36.125-40.12-43.018-9.9-3.132-29.98-3.876-41.52-1.538-31.62 6.408-55.81 30.741-62.4 62.764-2.02 9.869-2.06 27.51-.06 35.332 5.61 21.97 21.65 36.612 45.98 41.978 8.06 1.778 28.36 1.795 36.69.03m-27.19-29.44c-13.96-4.502-21.95-15.253-22.79-30.639-1.09-20.073 9.59-39.318 26.43-47.618 6.01-2.961 7.91-3.39 16.33-3.684 12.7-.444 19.37 1.885 26.65 9.302 6.89 7.022 8.92 12.926 8.77 25.531-.24 20.411-10.16 36.86-26.96 44.72-5.08 2.379-7.36 2.804-15.93 2.985-5.5.115-11.13-.153-12.5-.597M86.9 282.75c.573-2.887 4.898-27.059 9.61-53.715 4.953-28.018 9.079-48.79 9.779-49.235.666-.423 8.947-.776 18.402-.785 10.296-.007 17.437-.414 17.805-1.009.68-1.1 4.487-22.479 4.497-25.256.008-1.645-3.202-1.75-53.434-1.75-35.875 0-53.652.341-54.083 1.039-.807 1.306-4.476 21.493-4.476 24.63V179l17.25.015c9.487.008 17.834.386 18.549.839 1.031.655-.56 11.424-7.75 52.424C58.072 260.658 54 284.805 54 285.939c0 1.995.51 2.061 15.93 2.061h15.928zm143.566 4.304c.771-1.247 4.534-21.786 4.534-24.747V260l-29.25-.015c-16.087-.008-29.861-.402-30.607-.875-1.128-.715-.986-2.95.837-13.235 1.207-6.806 2.654-12.93 3.216-13.608.752-.908 7.93-1.304 27.163-1.5l26.141-.267 1.682-8.5c.925-4.675 1.825-10.3 2-12.5l.318-4-25.788-.267c-22.43-.232-25.867-.473-26.395-1.848-.743-1.938 2.597-22.405 3.937-24.119.715-.914 8.134-1.303 28.606-1.5l27.64-.266 1.672-8.5c.919-4.675 1.974-10.637 2.344-13.25l.672-4.75h-43.535c-26.784 0-43.764.37-44.129.962-.821 1.327-23.497 129.879-23.512 133.288l-.011 2.75h45.941c27.79 0 46.171-.374 46.524-.946m106.88.195c.56-.907 4.654-23.514 4.654-25.702 0-1.356-3.144-1.547-25.377-1.547-19.114 0-25.62-.309-26.357-1.25-.662-.846 2.027-18.216 8.313-53.701 5.11-28.848 9.069-52.81 8.797-53.25-.712-1.153-31.135-.998-31.852.162-.821 1.328-23.497 129.879-23.512 133.289l-.011 2.75h42.441c23.342 0 42.649-.338 42.904-.751m108.12-.195c.771-1.247 4.534-21.786 4.534-24.747V260l-29.25-.015c-16.087-.008-29.861-.402-30.607-.875-1.128-.715-.986-2.95.837-13.235 1.207-6.806 2.654-12.93 3.216-13.608.752-.908 7.93-1.304 27.163-1.5l26.141-.267 1.682-8.5c.925-4.675 1.825-10.3 2-12.5l.318-4-25.788-.267c-22.43-.232-25.867-.473-26.395-1.848-.743-1.938 2.597-22.405 3.937-24.119.715-.914 8.134-1.303 28.606-1.5l27.64-.266 1.672-8.5c.919-4.675 1.974-10.637 2.343-13.25l.673-4.75h-43.535c-26.784 0-43.764.37-44.129.962-.821 1.327-23.497 129.879-23.512 133.288l-.011 2.75h45.941c27.79 0 46.171-.374 46.524-.946m318.943-1.804c.312-1.512 3.751-22.1 7.642-45.75 7.447-45.264 7.619-46.163 8.64-45.142.354.354 4.507 21.456 9.227 46.893l8.584 46.249h23.641l24.832-45.854c13.658-25.219 25.326-46.347 25.929-46.95.795-.795 1.082-.697 1.046.354-.027.797-3.77 21.475-8.316 45.95-4.545 24.475-8.075 45.062-7.842 45.75.313.927 4.389 1.25 15.796 1.25 15.116 0 15.383-.038 15.915-2.25 2.532-10.533 23.331-133.316 22.691-133.956-.457-.457-11.339-.711-24.18-.563l-23.348.269-21.878 41.994c-21.115 40.533-23.257 44.381-24.178 43.439-.233-.238-3.621-18.433-7.529-40.433s-7.36-41.238-7.672-42.75l-.568-2.75h-22.362c-13.232 0-22.603.392-22.955.961-.821 1.328-23.497 129.879-23.512 133.289l-.011 2.75h29.841zm185.004 1.891c.291-.472 2.421-11.61 4.732-24.75s4.595-24.341 5.075-24.891 8.615-1.262 18.077-1.581c11.569-.391 19.332-1.153 23.703-2.328 20.29-5.45 32.05-17.573 35.02-36.091 3.71-23.132-8.14-40.029-31.54-44.986-8.188-1.735-61.934-2.207-62.956-.552-.821 1.327-23.497 129.878-23.512 133.288l-.011 2.75h15.441c8.493 0 15.679-.386 15.971-.859m15.778-77.938c-1.063-.726-.834-3.567 1.221-15.098 1.392-7.812 2.795-14.631 3.118-15.154.777-1.257 19.98-1.215 24.544.053 6.946 1.93 10.766 9.317 8.956 17.351-1.18 5.254-5.167 9.111-11.36 10.989-6.095 1.848-24.595 3.147-26.479 1.859m108.239 76.047c2.6-12.106 23.37-132.759 22.97-133.411-.73-1.18-31.14-1.063-31.88.122-.82 1.328-23.49 129.879-23.51 133.289L1041 288h31.84zM1301.74 245c3.98-23.375 7.48-43.138 7.78-43.917.32-.832.89-1.039 1.37-.5.46.504 8.61 19.817 18.12 42.917s17.72 42.563 18.26 43.25c1.28 1.636 35.27 1.8 36.28.175.94-1.533 24.1-133.486 23.65-134.82-.25-.742-5.39-1.105-15.68-1.105-12.76 0-15.4.253-15.89 1.518-.53 1.391-14.63 83.196-14.63 84.903 0 3.958-4.74-6.263-19.93-42.944l-17.79-42.977-17.82-.274c-9.79-.15-18.19.101-18.64.559-.93.927-23.79 129.109-23.81 133.491l-.01 2.775 31.5-.551zm205.73 42.054c.77-1.247 4.53-21.786 4.53-24.747V260l-29.25-.015c-16.09-.008-29.86-.402-30.61-.875-1.12-.715-.98-2.95.84-13.235 1.21-6.806 2.65-12.93 3.22-13.608.75-.908 7.93-1.304 27.16-1.5l26.14-.267 1.68-8.5c.93-4.675 1.83-10.3 2-12.5l.32-4-25.79-.267c-22.43-.232-25.86-.473-26.39-1.848-.75-1.938 2.59-22.405 3.93-24.119.72-.914 8.14-1.303 28.61-1.5l27.64-.266 1.67-8.5c.92-4.675 1.98-10.637 2.35-13.25l.67-4.75h-43.54c-26.78 0-43.76.37-44.13.962-.82 1.327-23.49 129.879-23.51 133.288L1415 288h45.94c27.79 0 46.17-.374 46.53-.946"/></svg>