<svg xmlns="http://www.w3.org/2000/svg" width="118" height="75" fill="none" viewBox="0 0 118 75"><path fill="#004f80" d="M35.6 64.2c-1.2-.2-2.4-.5-3.5-1-.1 0-.1-.1-.2-.1-.1-.1-.3-.1-.4-.2-.1 0-.2-.1-.3-.1-.1-.1-.2-.1-.3-.2-.1 0-.2-.1-.3-.1-.1-.1-.2-.1-.3-.2-.1 0-.2-.1-.3-.2s-.2-.1-.3-.2-.2-.1-.3-.2-.2-.2-.4-.2c-.1 0-.1-.1-.2-.1-.2-.1-.3-.2-.5-.4l-.2-.2c-.1-.1-.2-.2-.3-.2-.1-.1-.2-.1-.2-.2-.1-.1-.2-.2-.3-.2l-.2-.2-.3-.3-.2-.2-.3-.3-.2-.2c-.1-.2-.3-.3-.4-.5 0-.1-.1-.1-.1-.2-.1-.1-.2-.2-.3-.4l-.2-.2c-.1-.1-.2-.2-.2-.3-.1-.1-.1-.2-.2-.2-.1-.1-.2-.2-.2-.3-.1-.1-.1-.2-.2-.2-.1-.1-.2-.2-.2-.4 0-.1-.1-.1-.1-.2-.1-.2-.2-.3-.3-.5v-.1l-.3-.6c0-.1-.1-.1-.1-.2-.1-.1-.1-.3-.2-.4 0-.1-.1-.2-.1-.2-.1-.1-.1-.3-.2-.4 0-.1-.1-.2-.1-.3s-.1-.3-.1-.4-.1-.2-.1-.2c-.1-.2-.1-.3-.1-.5 0-.1 0-.1-.1-.2-.1-.2-.1-.4-.2-.7v-.2c0-.2-.1-.3-.1-.5v-.2c0-.1-.1-.3-.1-.4v-.3c0-.1 0-.3-.1-.4V29.7h10c5.6 0 10.1-4.5 10.1-10.1H21.8V9.4c0-3-1.4-5.6-3.6-7.3C16.7.9 14.7.2 12.6.2h-.9v19.3h-1.5C4.5 19.7 0 24.2 0 29.8h11.6v19.7c0 .3 0 .6.1.9 0 .2 0 .3.1.5 0 .3.1.5.1.8 0 .2 0 .3.1.5 0 .3.1.5.1.8 0 .2.1.3.1.5.1.3.1.6.2.8 0 .1.1.2.1.4l.3 1.2v.1c.1.4.2.7.4 1 0 .1.1.3.1.4.1.3.2.5.3.8.1.1.1.3.2.4.1.2.2.5.3.7.1.1.1.3.2.4.1.2.2.5.4.7.1.1.1.3.2.4.1.3.3.5.4.7.1.1.1.2.2.3.2.3.4.7.6 1 0 .1.1.1.1.2.2.3.4.5.6.8l.3.3c.2.2.3.4.5.6.1.1.2.2.3.4.2.2.3.4.5.6l.3.3c.2.2.3.4.5.6l.3.3.6.6c.1.1.2.1.2.2.3.3.6.5.9.8l.2.2c.2.2.5.4.7.6l.3.3c.2.2.4.3.6.4.1.1.3.2.4.3.2.1.4.3.6.4.1.1.3.2.4.2.2.1.4.3.7.4.1.1.3.1.4.2.3.1.5.3.8.4.1 0 .2.1.3.1.4.2.7.3 1.1.5.1 0 .2.1.3.1.3.1.6.2.8.3.1.1.3.1.4.1.2.1.5.2.7.3.2 0 .3.1.5.1"/><path fill="url(#a)" d="M103.6 68.9 88.7 39.6 78 55.9 68.6 32 50.9 66.7c-2.9 5.7-9.3 8.7-15.6 7.3L69.9 6.4l10.5 26.8 9.5-14.5 27.9 54.9c-5.2 2.6-11.6.5-14.2-4.7"/><defs><linearGradient id="a" x1="35.375" x2="117.756" y1="40.507" y2="40.534" gradientUnits="userSpaceOnUse"><stop stop-color="#eec22f"/><stop offset=".178" stop-color="#edb233"/><stop offset=".554" stop-color="#ea8437"/><stop offset="1" stop-color="#e63833"/></linearGradient></defs></svg>