<svg xmlns="http://www.w3.org/2000/svg" width="290" height="298" fill="none" viewBox="0 0 290 298"><path fill="#fecd07" d="M129 76h51v137c0 34.5-27 99-107 77v-49.5c28.5 13.5 56 1.5 56-40.5zM177 29c0 14.36-11.193 26-25 26s-25-11.64-25-26 11.193-26 25-26 25 11.64 25 26"/><path fill="#3956a6" d="M179.5 259H217v39h-81.5c5.5-3 25.5-9.5 44-39M191 220h25.75v25H185c1.398-3.463 2.5-4 6-25M74 220h40c-6.5 21.5-31 16-40 11zM192 181h25v25h-25zM74 181h44v25H74zM192 94h25v73h-25z"/><path fill="#3956a6" d="M192 94h98v34h-98zM118 94H74v73h44z"/><path fill="#3956a6" d="M118 94H0v34h118zM0 57h129.5l11.5 5.5v1h-15c-5.5 0-8 3.5-8 15.5H0zM290 57H180.5L169 62.5v1h15c5.5 0 8 3.5 8 15.5h98zM189 26h100v15H187c.792-6.033 2-8 2-15M117 26H0v15h119c-.792-6.033-2-8-2-15M0 0h134c-8.723 6.784-8.521 7.592-9.804 10H0zM289 0H172c8.723 6.784 8.521 7.592 9.804 10H289z"/></svg>