<svg xmlns="http://www.w3.org/2000/svg" width="82" height="82" fill="none" viewBox="0 0 82 82"><path fill="#f8a628" d="M0 28h82v9H0z"/><path fill="#f8a628" d="M0 28 28.13 0h2.37l3.994 6.364-29.13 29.13zM81.995 28 53.865 0h-2.37L47.5 6.364l29.13 29.13z"/><path fill="#f8a628" d="M0 28 28.13 0h2.37l3.994 6.364-29.13 29.13zM81.995 28 53.865 0h-2.37L47.5 6.364l29.13 29.13z"/><path fill="#f8a628" d="M28.5 82V0h9v82zM44.5 82V0h9v82z"/><path fill="#f8a628" d="M82 54H0v-9h82z"/><path fill="#f8a628" d="M82 54 53.87 82H51.5l-3.994-6.364 29.13-29.13zM.005 54l28.13 28h2.37l3.994-6.364-29.13-29.13z"/><path fill="#f8a628" d="M82 54 53.87 82H51.5l-3.994-6.364 29.13-29.13zM.005 54l28.13 28h2.37l3.994-6.364-29.13-29.13z"/><path fill="#f8a628" d="M53.5 0v82h-9V0zM37.5 0v82h-9V0z"/></svg>