<svg xmlns="http://www.w3.org/2000/svg" width="155" height="107" fill="none" viewBox="0 0 155 107"><path fill="#fff" d="M68.804 48.515V35.453h3.393s-3.223 6.616-3.393 13.061m74.449 18.79s-7.124-2.561-13.738-.046c-3.675 1.399-7.26 3.866-12.173 3.32-1.564-.174-3.477-.352-6.953-1.916 0 0-9.5-4.259-8.453-18.565 0 0 .096-13.49 16.301-14.885 0 0 6.514-.195 11.217 2.93 2.528 1.68 5.313 2.456 9.495 2.615 0 0 4.924-.2 9.443-4.024.695-.52 5.297-5.855 5.297-13.157.174-3.129-.886-7.228-2.799-10.184-.521-.868-6.779-13.219-27.638-13.393H17.928S.528.013.008 17.396c0 0-.87 16.17 15.992 17.735h19.469v56.838s.695 14.6 16.34 14.949c0 0 14.775.874 16.86-14.598V59.45s2.26 42.067 44.675 47.281l4.345.174 4.694-.174s29.725-3.303 31.81-22.771c-.173-.348 2.446-11.44-10.94-16.654"/></svg>