<svg xmlns="http://www.w3.org/2000/svg" width="202" height="201" fill="none" viewBox="0 0 202 201"><path fill="#ff5a01" d="M202 100.5c0 55.505-45.219 100.5-101 100.5S0 156.005 0 100.5 45.22 0 101 0s101 44.995 101 100.5"/><path fill="#000" d="M180 100.5c0 43.354-35.37 78.5-79 78.5s-79-35.146-79-78.5S57.37 22 101 22s79 35.146 79 78.5"/><path fill="#fff" d="M159 100.5c0 31.756-25.967 57.5-58 57.5-32.032 0-58-25.744-58-57.5S68.968 43 101 43c32.033 0 58 25.744 58 57.5"/><path fill="#000" d="M140 100.5c0 21.263-17.461 38.5-39 38.5s-39-17.237-39-38.5S79.46 62 101 62s39 17.237 39 38.5"/><path fill="#fff" d="m85 75 43.5 25.5L85 126z"/></svg>