<svg xmlns="http://www.w3.org/2000/svg" width="742" height="742" fill="none" viewBox="0 0 742 742"><path fill="#c11a12" d="M39 292.5c0 10.77-8.73 19.5-19.5 19.5S0 303.27 0 292.5 8.73 273 19.5 273 39 281.73 39 292.5M39 449.5c0 10.77-8.73 19.5-19.5 19.5S0 460.27 0 449.5 8.73 430 19.5 430 39 438.73 39 449.5M742 292.5c0 10.77-8.73 19.5-19.5 19.5s-19.5-8.73-19.5-19.5 8.73-19.5 19.5-19.5 19.5 8.73 19.5 19.5M742 449.5c0 10.77-8.73 19.5-19.5 19.5s-19.5-8.73-19.5-19.5 8.73-19.5 19.5-19.5 19.5 8.73 19.5 19.5M292.5 0C303.27 0 312 8.73 312 19.5S303.27 39 292.5 39 273 30.27 273 19.5 281.73 0 292.5 0M449.5 0C460.27 0 469 8.73 469 19.5S460.27 39 449.5 39 430 30.27 430 19.5 438.73 0 449.5 0M292.5 703c10.77 0 19.5 8.73 19.5 19.5s-8.73 19.5-19.5 19.5-19.5-8.73-19.5-19.5 8.73-19.5 19.5-19.5M449.5 703c10.77 0 19.5 8.73 19.5 19.5s-8.73 19.5-19.5 19.5-19.5-8.73-19.5-19.5 8.73-19.5 19.5-19.5"/><path fill="#fe3f34" d="M175 293c0 21.539-17.237 39-38.5 39S98 314.539 98 293s17.237-39 38.5-39 38.5 17.461 38.5 39M175 449c0 21.539-17.237 39-38.5 39S98 470.539 98 449s17.237-39 38.5-39 38.5 17.461 38.5 39M293 98c21.539 0 39 17.237 39 38.5S314.539 175 293 175s-39-17.237-39-38.5S271.461 98 293 98M449 98c21.539 0 39 17.237 39 38.5S470.539 175 449 175s-39-17.237-39-38.5S427.461 98 449 98M293 567c21.539 0 39 17.237 39 38.5S314.539 644 293 644s-39-17.237-39-38.5 17.461-38.5 39-38.5M449 567c21.539 0 39 17.237 39 38.5S470.539 644 449 644s-39-17.237-39-38.5 17.461-38.5 39-38.5M644 449c0-21.539-17.237-39-38.5-39S567 427.461 567 449s17.237 39 38.5 39 38.5-17.461 38.5-39M644 293c0-21.539-17.237-39-38.5-39S567 271.461 567 293s17.237 39 38.5 39 38.5-17.461 38.5-39"/><path fill="#c11a12" d="M176 136.5c0 21.263-17.461 38.5-39 38.5s-39-17.237-39-38.5S115.461 98 137 98s39 17.237 39 38.5M176 605.5c0 21.263-17.461 38.5-39 38.5s-39-17.237-39-38.5 17.461-38.5 39-38.5 39 17.237 39 38.5M644 136.5c0 21.263-17.461 38.5-39 38.5s-39-17.237-39-38.5S583.461 98 605 98s39 17.237 39 38.5M644 605.5c0 21.263-17.461 38.5-39 38.5s-39-17.237-39-38.5 17.461-38.5 39-38.5 39 17.237 39 38.5"/><path fill="#fe5543" d="M351 293c0 32.033-26.191 58-58.5 58S234 325.033 234 293s26.191-58 58.5-58 58.5 25.967 58.5 58M351 449c0 32.033-26.191 58-58.5 58S234 481.033 234 449s26.191-58 58.5-58 58.5 25.967 58.5 58M508 293c0 32.033-26.191 58-58.5 58S391 325.033 391 293s26.191-58 58.5-58 58.5 25.967 58.5 58M508 449c0 32.033-26.191 58-58.5 58S391 481.033 391 449s26.191-58 58.5-58 58.5 25.967 58.5 58"/></svg>