<svg xmlns="http://www.w3.org/2000/svg" width="172" height="37" fill="none" viewBox="0 0 172 37"><path fill="#fff" d="m2 15 1.5-7h28l4 6-4 14h-27zM148.98 24.61c-2.88.04-5.76.02-8.64.02-.48 0-1 .12-1.69-.29 1.7-.81 3.25-1.51 4.76-2.26 2.29-1.14 4.59-2.3 6.34-4.16 3-3.18 2.65-8.14-.73-10.38-5.32-3.53-13.29-1-15.2 4.82-.85 2.58-.84 2.59 2.06 2.59.8 0 1.65.15 2.4-.04 1.05-.26.45-1.41.95-2.02.06-.07.09-.16.13-.24.72-1.48 2.03-2.02 3.67-1.99 1.35.03 2.44.54 2.85 1.79.47 1.45-.08 2.7-1.27 3.69-.28.23-.6.43-.92.61-2.49 1.35-5.01 2.65-7.46 4.06-2.95 1.7-5.21 3.92-5.85 7.3-.19.99.02 1.32 1.16 1.3 4.53-.06 9.06-.03 13.59-.03 4.02 0 3.99 0 4.73-3.77.16-.79-.04-1.01-.88-1M170.32 19.68c-1.26.19-1.49-.29-1.23-1.4.82-3.54 1.5-7.11 2.3-10.66.21-.94.16-1.4-1.07-1.29-1.22.1-2.45.08-3.67 0-.95-.06-1.57.26-2.19.91-3.27 3.42-6.47 6.92-9.92 10.17-1.82 1.72-2.63 3.65-3.01 5.92-.15.87.19.97.95.95 1.41-.04 2.83-.01 4.24-.01s2.83.04 4.24-.01c.94-.04 1.15.29.94 1.1-.27 1.03-.43 2.08-.69 3.12-.18.72.06.95.84.91 1.22-.05 2.45-.04 3.68.01.85.04 1.16-.28 1.27-1.04.16-1.09.46-2.17.66-3.26.1-.57.37-.81 1.02-.86 2.24-.15 2.24-.18 2.7-2.25.07-.3.08-.62.18-.91.37-1.08.06-1.6-1.22-1.4zm-6.98-.74c-.11.51-.34.76-.93.75-1.64-.02-3.27 0-5.29 0 2.63-2.66 5.05-5.11 7.46-7.56.08.04.15.08.22.12-.49 2.23-.99 4.46-1.47 6.7zM107.85 17.37c2.38-1.62 3.23-3.49 2.53-5.6-.55-1.66-2.19-2.41-5.31-2.42-2.36 0-4.72.02-7.08-.02-.76-.01-1.07.22-1.22.93-1.06 5.12-2.17 10.23-3.27 15.35-.13.59-.04.9.73.89 2.88-.04 5.76-.02 8.63-.05 1.18-.02 2.33-.3 3.43-.72 3.53-1.35 5.03-6.09 1.55-8.34zm-4.27 5.39c-.82.15-1.68.13-2.52.19-2.4-.05-2.29-.03-1.94-2.34.19-1.23.67-1.68 1.96-1.51.74.1 1.5 0 2.25.05 1.04.07 1.81.47 1.85 1.59.04 1.07-.49 1.81-1.61 2.02zm1.14-6.88c-.77.25-1.58.17-2.47.18-.58-.13-1.61.35-1.89-.21-.38-.76.22-1.68.38-2.54.02-.13.24-.32.38-.33 1.36-.02 2.73-.23 4.06.16.6.18.84.69.78 1.28-.07.74-.51 1.23-1.24 1.46M54.15 9.32c-.71.02-1.03.24-1.13.87-.16 1.01-.36 2.01-.56 3.01-.42 2.19-.85 4.38-1.29 6.6-.61-.23-.59-.62-.7-.94-.82-2.21-1.63-4.43-2.44-6.64-1.05-2.89-1.05-2.82-4.29-2.92-1.26-.04-1.58.42-1.78 1.44-.85 4.26-1.77 8.5-2.68 12.75-.65 3.05-.67 3.01 2.65 3.01.97 0 1.29-.33 1.44-1.18.51-2.88 1.1-5.74 1.67-8.61.05-.26-.08-.66.52-.67.88 2.44 1.77 4.91 2.66 7.37 1.14 3.13 1.14 3.11 4.72 3.08.81 0 1.16-.22 1.32-.99.89-4.38 1.86-8.75 2.75-13.14.64-3.18.6-3.16-2.86-3.04M88.23 9.35c-2.69-.05-5.38 0-8.07-.03-.71 0-1 .24-1.13.87-1.06 5.12-2.13 10.25-3.24 15.36-.17.77.1.9.83.93 3.53.15 3.53.16 4.24-3.1.05-.22.12-.43.16-.65q.53-2.55 3.22-2.48c1.83.05 2.48.65 2.48 2.34 0 .97-.08 1.95-.11 2.92-.01.53.1.97.84.95 1.04-.02 2.08-.01 3.11 0 .46 0 .74-.11.64-.61-.29-1.45 0-2.91-.02-4.37-.02-1.1-.18-2.12-1.36-2.86 2.96-1.24 4.02-3.23 3.41-6.11-.45-2.12-1.96-3.12-5.01-3.17zm-1.03 7.36c-.87.27-1.77.19-2.66.2-2.32 0-2.3 0-1.86-2.15.45-2.21.15-1.87 2.46-1.9.56 0 1.13-.02 1.69.03 1.03.09 1.85.46 1.92 1.57.07 1.08-.39 1.89-1.54 2.25zM70.85 9.47c-4.17-1.39-8.79.07-11.16 3.57-1.84 2.72-2.25 5.71-1.49 8.8.64 2.6 2.46 4.21 5.26 4.8 4.21.9 8.39-.85 10.45-4.4 1.04-1.79 1.44-3.73 1.47-5.15.04-4.34-1.42-6.59-4.54-7.63zm-1.68 11.95c-1.13 1.42-2.78 1.99-4.34 1.55-1.51-.43-2.3-1.61-2.36-3.55-.04-1.35.27-2.64.85-3.87.31-.65.73-1.24 1.31-1.72 1.27-1.07 2.72-1.45 4.32-.84 1.71.65 1.78 2.13 1.85 3.49-.04 1.85-.5 3.5-1.63 4.94M126.51 24.43c-.68-4.06-1.37-8.11-2.04-12.17-.48-2.92-.47-2.87-3.58-2.94-1.08-.03-1.69.25-2.22 1.17-2.51 4.35-5.14 8.64-7.67 12.98-.55.94-1.87 2.06-1.34 2.81.47.67 2.19.1 3.35.2.69.06 1.25-.11 1.44-.77.62-2.12 2.2-2.6 4.29-2.3.32.05.66 0 .99 0 2.06 0 2.13 0 2.31 1.89.1 1 .52 1.32 1.52 1.18.32-.05.66 0 .99 0q2.31.01 1.96-2.04zm-6.13-4.35c-2.9.06-2.89.09-1.6-2.31.57-1.06 1.12-2.12 1.69-3.18.04-.07.15-.1.37-.24.17 1.68.28 3.21.48 4.73.1.75-.11.98-.94 1"/><path fill="#a90210" d="M18.4 0c9.45-.01 17.27 6.93 18.26 16.19 1.01 9.47-5.82 18.22-15.35 19.68C10.9 37.48.91 30.09.09 20.2-.53 12.8 2.11 6.81 8.76 2.61 11.65.78 14.9-.09 18.4 0m9.4 24.97c.12.7-.27 1.64.84 1.46.76-.12 1.91.6 2.21-.73.58-2.6 1.13-5.2 1.69-7.8.11-.49-.02-.74-.64-.73-1.89.03-3.78.02-5.66 0-.5 0-.83.18-.89.65-.09.83-.74 1.72-.3 2.43.32.51 1.32.16 2.02.18.67.01.87.22.57.8-.61 1.19-1.62 1.8-3.01 1.9-1.45.1-2.75-.12-3.57-1.39-1.57-2.42.08-7.44 2.81-8.61 1.99-.86 3.74-.27 4.59 1.61.22.47.5.6.96.55 1.1-.12 2.25.3 3.28-.29.12-.07.08-.41.07-.63-.09-2.22-1.43-4.05-3.71-4.7-3.67-1.04-7.09-.7-9.97 1.96-.15.14-.29.36-.64.16.1-.49.2-1 .33-1.51.13-.5 0-.76-.59-.76H4.88c-.67 0-.76.47-.79.9-.05.94-.73 1.84-.26 2.8.06.12.53.07.81.07.99 0 1.98.03 2.97 0 .79-.03.96.22.8.94-.7 3.07-1.34 6.15-2.01 9.23-.66 3.03-.66 2.99 2.63 3 .94 0 1.32-.26 1.49-1.14.58-2.96 1.25-5.9 1.88-8.85.7-3.26.69-3.24 4.2-3.19.84.01 1.1.08.66.95a11.46 11.46 0 0 0-1.14 6.85c.34 2.45 1.48 4.47 4.09 5.27 2.6.8 5.21.8 7.57-1.38"/></svg>