<svg xmlns="http://www.w3.org/2000/svg" width="981" height="466" fill="none" viewBox="0 0 981 466"><path fill="#0d469d" d="M0 0h981v466H0z"/><path fill="#fffefe" d="M28 26h925v414H28z"/><path fill="#0d469d" d="M322.815 154.857h-90.687L177.99 390.698h-75.442l54.138-235.841H66l12.9-56.555h256.814zM605.624 171.941q0 35.15-21.304 59.108t-57.851 36.132l67.233 123.517h-83.846L455.131 283.48h-42.216l-24.626 107.218h-75.051l67.233-292.396h113.554q53.356 0 82.477 18.262 29.122 18.067 29.122 55.377m-80.914 12.568q0-17.674-11.336-24.939-11.14-7.462-33.031-7.462h-37.134l-18.176 78.744h36.939q29.903 0 46.32-12.175 16.418-12.371 16.418-34.168M733.249 396q-37.33 0-66.646-6.48-29.122-6.48-50.425-16.103l15.049-70.104h8.209q20.13 18.46 47.297 28.67 27.168 10.015 58.439 10.015 32.052 0 47.102-8.64 15.05-8.837 15.049-25.136 0-6.087-2.541-10.407-2.345-4.517-9.381-8.837t-19.349-8.444q-12.118-4.32-31.467-9.819-21.303-5.89-38.307-12.764-16.809-6.873-28.73-16.298-11.923-9.623-18.177-22.19-6.059-12.568-6.059-30.045 0-43.987 38.503-70.104Q730.513 93 797.551 93q32.249 0 60.783 5.302 28.731 5.302 48.666 14.335l-14.268 67.355h-8.013q-15.244-14.138-40.261-23.564-24.822-9.622-54.334-9.622-28.926 0-44.757 8.444-15.831 8.443-15.831 23.368 0 6.873 2.345 11.389 2.346 4.517 9.577 8.837 6.255 3.927 19.74 8.64 13.486 4.517 31.662 9.426 48.861 13.157 69.774 30.83t20.913 47.915q0 25.33-11.336 44.576-11.336 19.244-31.271 31.223-20.913 12.763-47.494 18.655-26.58 5.89-60.197 5.891"/></svg>