<svg xmlns="http://www.w3.org/2000/svg" width="909" height="386" fill="none" viewBox="0 0 909 386"><path fill="#fff" d="M672.111.014c-34.99-.187-69.86 1.496-104.48 6.416-18.24 2.593-36.341 6.081-54.262 10.35a637 637 0 0 0-45.244 12.556 39.109 39.109 0 0 0-23.365 23.365 486 486 0 0 0-3.274 19.324c-5.653 37.965-6.806 76.398-6.746 114.77.034 22.524.488 45.076 1.61 67.543 1.101 22.028 2.842 44.015 6.982 65.721q.673 3.519 1.428 7.023a39.1 39.1 0 0 0 9.092 14.274 39.1 39.1 0 0 0 14.273 9.091 521 521 0 0 0 14.982 5.217c60.515 20.05 124.038 28.955 187.774 29.35 61.036.381 122.025-7.058 180.16-25.711a481 481 0 0 0 25.172-8.856 39.09 39.09 0 0 0 23.363-23.365 280 280 0 0 0 2.754-14.594c3.137-19.414 4.244-39.019 4.984-58.64.812-21.628 1.181-43.316 1.405-64.979.422-40.654.344-81.457-6.389-121.572q-1.23-7.327-2.754-14.596a39.105 39.105 0 0 0-23.363-23.365 605 605 0 0 0-68.248-17.143C763.205 3.685 717.671.257 672.111.014m-489.39 74.32 105.418 236.61h19.41l104.416-236.61h-50.869a8552 8552 0 0 0-31.961 71.453 35077 35077 0 0 0-31.625 71.783L233.588 74.334zM0 74.336v46.518h64.088v190.09h46.519v-190.09h63.42V74.336zm509.486 5.617h156.18v38.229l-58.635 55.693a117.6 117.6 0 0 1 22.977 6.26c7.405 2.859 14.042 6.813 19.902 11.865 5.859 5.056 10.555 11.369 14.098 18.947 3.537 7.58 5.308 16.757 5.308 27.52v.658q0 16.481-5.808 30.152c-3.874 9.119-9.397 17.086-16.586 23.893q-10.78 10.218-26.322 15.818c-10.364 3.734-21.921 5.602-34.661 5.602q-31.31-.001-53.222-11.117-21.916-11.12-36.742-29.047l34.931-33.324c7.911 9.012 16.2 15.875 24.881 20.597 8.676 4.726 18.95 7.084 30.813 7.084q14.497.001 23.562-7.543 9.062-7.549 9.063-20.339v-.659q-.001-14.103-11.864-21.646-11.864-7.549-33.283-7.549h-21.092l-7.91-32.152 55.035-55.112h-90.625zm181.905 0H847.57v38.229l-58.634 55.693a117.6 117.6 0 0 1 22.976 6.26c7.404 2.859 14.044 6.813 19.902 11.865 5.86 5.056 10.555 11.369 14.098 18.947 3.537 7.58 5.309 16.757 5.309 27.52v.658q0 16.481-5.807 30.152c-3.873 9.119-9.398 17.086-16.588 23.893q-10.78 10.218-26.322 15.818-15.547 5.601-34.658 5.602-31.311-.001-53.223-11.117c-14.613-7.414-26.857-17.095-36.742-29.047l34.93-33.324c7.91 9.012 16.199 15.875 24.88 20.597 8.676 4.726 18.95 7.084 30.813 7.084q14.497.001 23.562-7.543 9.062-7.549 9.063-20.339v-.659q0-14.103-11.861-21.646-11.866-7.549-33.286-7.549h-21.091l-7.909-32.152 55.034-55.112h-90.625z"/></svg>