<svg xmlns="http://www.w3.org/2000/svg" width="345" height="178" fill="none" viewBox="0 0 345 178"><path fill="#1c6aff" d="M267.639 99.746h-1.323V77.028h1.323c7.773 0 12.509 3.499 12.509 11.73 0 7.715-5.438 10.98-12.509 10.98m-.929-41.074h-21.695v58.654h26.972c17.176 0 29.456-11.053 29.456-28.47 0-21.553-15.079-30.184-34.736-30.184M304.835 58.664v58.652h40.028v-16.031h-18.575v-5.758h16.399V80.285h-16.399v-5.598h17.954v-16.03zM220.206 91.17l-17.969-32.506h-20.435v58.639h20.424v-30.81l17.97 30.81h20.356V58.664h-20.356zM83.76 58.664 74.047 84.09l-9.827-25.425zM83.76 0l-9.714 33.178L64.21 0H0v18.552h13.672v40.112h22.056V18.445h13.099l15.384 40.217h-20.47l-9.479 58.641h20.593l3.036-32.132 9.954 32.132H80.28l9.941-32.132 2.883 32.132H113.7l-9.629-58.641h-20.31L106.29 0z"/><path fill="#1c6aff" d="M145.718 100.158a12.18 12.18 0 0 1-11.247-7.518 12.176 12.176 0 1 1 23.425-4.66 12.18 12.18 0 0 1-12.178 12.178m0-44.196c-.634 0-1.273.023-1.886.058a19.35 19.35 0 0 0 12.781-17.302c.764-12.105-12.163-18.341-19.387-18.341-9.045 0-12.61 2.252-12.61 2.252l1.214-6.176h27.007V0h-42.659l-5.758 34.878a77.4 77.4 0 0 1 14.114-2.39c7.537-.45 15.212 1.329 15.013 6.298-.165 4.267-9.351 6.38-16.636 4.886a68.5 68.5 0 0 1-13.12-4.27l-2.587 15.56s13.87 4.799 23.997 4.552a70 70 0 0 0 6.847-.491 32.024 32.024 0 0 0-2 56.91 32.02 32.02 0 0 0 41.696-9.315 32.021 32.021 0 0 0-26.026-50.648M34.813 136.412v40.558H62.99v-4.544H40.21v-14.031h21.077v-4.544H40.21v-12.894h22.61v-4.545zM107.596 162.315v-25.903h-5.397v25.903q0 5.453-2.727 8.293-2.67 2.784-7.84 2.784-5.454 0-8.352-2.784-2.897-2.84-2.897-8.293v-25.903h-5.397v25.903q0 8.123 4.375 11.872 4.431 3.692 12.27 3.692 7.671 0 11.817-3.863 4.148-3.92 4.148-11.701M121.939 136.412v40.558h5.397v-17.325h13.18q1.988 0 3.181.625 1.194.569 1.932 1.59.738.966 1.079 2.329.342 1.306.568 2.784.284 1.477.341 3.01.057 1.535.114 2.897.057 1.307.227 2.386.228 1.08.796 1.704h6.021a7.4 7.4 0 0 1-1.306-2.329 22 22 0 0 1-.625-2.84 26 26 0 0 1-.284-3.01 76 76 0 0 0-.171-3.011 22 22 0 0 0-.511-2.84 7.3 7.3 0 0 0-.966-2.443 5.7 5.7 0 0 0-1.761-1.931q-1.079-.795-2.84-1.136v-.114q3.692-1.022 5.34-3.806 1.704-2.783 1.704-6.475 0-4.942-3.295-7.782-3.238-2.841-9.033-2.841zm16.645 18.689h-11.248v-14.144h13.407q3.807 0 5.511 1.931t1.704 4.999q0 2.215-.795 3.635a6.05 6.05 0 0 1-2.045 2.216q-1.25.794-2.955 1.079a22 22 0 0 1-3.579.284M169.68 156.691q0-3.067.796-6.021.795-3.01 2.499-5.396t4.375-3.806q2.67-1.477 6.363-1.477 3.692 0 6.363 1.477 2.67 1.42 4.374 3.806 1.704 2.385 2.5 5.396.795 2.953.795 6.021a23.7 23.7 0 0 1-.795 6.078q-.796 2.954-2.5 5.34t-4.374 3.863q-2.671 1.42-6.363 1.42t-6.363-1.42q-2.67-1.478-4.375-3.863-1.704-2.386-2.499-5.34a23.7 23.7 0 0 1-.796-6.078m-5.397 0q0 4.147 1.193 8.01 1.25 3.806 3.693 6.759t6.079 4.715q3.636 1.704 8.465 1.704t8.465-1.704q3.635-1.761 6.078-4.715t3.636-6.759a25.9 25.9 0 0 0 1.25-8.01q0-4.146-1.25-7.952-1.192-3.862-3.636-6.817-2.443-2.953-6.078-4.714t-8.465-1.761-8.465 1.761q-3.636 1.76-6.079 4.714t-3.693 6.817q-1.193 3.806-1.193 7.952M220.786 155.839v-14.882h10.567q4.602 0 6.704 1.931 2.159 1.874 2.159 5.51t-2.159 5.567q-2.102 1.93-6.704 1.874zm-5.397-19.427v40.558h5.397v-16.586h12.385q6.136.056 9.26-3.125 3.182-3.18 3.182-8.861 0-5.68-3.182-8.805-3.124-3.18-9.26-3.181zM257.898 136.412v40.558h28.178v-4.544h-22.781v-14.031h21.077v-4.544h-21.077v-12.894h22.611v-4.545z"/></svg>