<svg xmlns="http://www.w3.org/2000/svg" width="397" height="172" fill="none" viewBox="0 0 397 172"><path fill="#fff" d="M0 2a2 2 0 0 1 2-2h84a2 2 0 0 1 2 2v167a2 2 0 0 1-2 2H47a2 2 0 0 1-2-2V45H2a2 2 0 0 1-2-2zM104 2a2 2 0 0 1 2-2h86a2 2 0 0 1 2 2v41a2 2 0 0 1-2 2h-42a2 2 0 0 0-2 2v58h7L262.418.566A2 2 0 0 1 263.812 0h53.239c1.799 0 2.683 2.189 1.39 3.438L145 171h-39a2 2 0 0 1-2-2zM335 161H182.921c-1.795 0-2.681-2.181-1.395-3.433l33.892-33a2 2 0 0 1 1.395-.567H295v-2.5l-36.567-36.086a2 2 0 0 1-.009-2.838l24.181-24.18a2 2 0 0 1 2.809-.02l110.981 108.035a2 2 0 0 1 .605 1.433V170a2 2 0 0 1-2 2h-58a2 2 0 0 1-2-2z"/></svg>