<svg xmlns="http://www.w3.org/2000/svg" width="150.548" height="40.52" viewBox="0 0 150.548 40.52"><g data-name="Group 5"><g data-name="Group 4"><g data-name="Group 2"><g fill="#fff" data-name="Group 1"><path d="M25.073 0a2.9 2.9 0 0 1 1.3 1.5q4.335 8.3 8.691 16.585c.63 1.2.465 1.705-.746 2.336l-8.457 4.4c-1.287.669-2.147.149-2.143-1.3.023-7.207.061-14.414.062-21.621 0-.885.173-1.566 1.063-1.9Z" data-name="Path 1"/><path d="M22.14 26.315a1.78 1.78 0 0 1-1.017 1.509q-4.249 2.645-8.491 5.3Q7.464 36.342 2.29 39.55a7 7 0 0 1-.353.209 1.276 1.276 0 0 1-1.571-.108 1.175 1.175 0 0 1-.14-1.556c.753-1.278 1.534-2.539 2.314-3.8q4.078-6.6 8.163-13.2a6 6 0 0 1 .358-.535 1.175 1.175 0 0 1 1.732-.388c1.184.639 2.348 1.315 3.518 1.981q2.465 1.406 4.924 2.825c.498.29.961.632.905 1.337" data-name="Path 2"/><path d="M35.001 40.096H25.33c-1.195 0-1.632-.431-1.633-1.615v-9.736c0-1.379.869-1.9 2.095-1.263Q35.47 32.538 45.145 37.6c.507.265 1.016.529 1 1.233a1.045 1.045 0 0 1-1.011 1.134q-.993.081-1.99.085c-2.716.009-5.431 0-8.147 0Z" data-name="Path 3"/></g></g><g fill="#fff" data-name="Group 3"><path d="M67.613 9.35v1.8c-.029 9.131-.082 18.262-.062 27.392 0 1.29-.342 1.761-1.672 1.691a53 53 0 0 0-5.96 0c-1.426.085-1.738-.47-1.742-1.789-.028-9.085-.127-18.17-.2-27.255v-1.8H45.59c0-2.015-.147-3.868.04-5.687.2-1.9 1.64-2.912 3.783-2.919C54.789.766 60.165.777 65.541.777h15.721c2.407 0 3.3.627 4.112 2.921q4.27 12.05 8.521 24.106c.086.244.225.469.487 1.005.283-.89.461-1.507.673-2.112q4.111-11.749 8.235-23.493a3.34 3.34 0 0 1 3.264-2.409c2.526-.055 5.055-.014 7.792-.014-.2.568-.345 1.019-.521 1.456q-7.395 18.249-14.771 36.506a1.937 1.937 0 0 1-2.184 1.479 51 51 0 0 0-5.283 0 1.857 1.857 0 0 1-2.111-1.379c-3.779-9.42-7.634-18.81-11.417-28.229a1.66 1.66 0 0 0-1.843-1.294c-2.794.08-5.59.03-8.603.03" data-name="Path 4"/><path d="M150.549 40.458c-2.9 0-5.692.094-8.475-.04a3.11 3.11 0 0 1-2.663-2.407c-.6-1.7-1.2-3.4-1.756-5.12a1.34 1.34 0 0 0-1.486-1.049q-5.826.048-11.652 0a1.4 1.4 0 0 0-1.582 1.106 117 117 0 0 1-1.673 4.854 3.52 3.52 0 0 1-3.737 2.706c-2.424.026-4.849.006-7.485.006.184-.65.27-1.075.423-1.475q7.139-18.707 14.268-37.417a1.545 1.545 0 0 1 1.746-1.2c2.617.07 5.239.053 7.857.006a1.317 1.317 0 0 1 1.476 1q7.228 19.032 14.506 38.045a8 8 0 0 1 .233.985m-24.671-15.962h8.861l-4.233-12.464-.355-.007Z" data-name="Path 5"/></g></g></g></svg>