<svg xmlns="http://www.w3.org/2000/svg" width="1631" height="318" fill="none" viewBox="0 0 1631 318"><path fill="#fff" d="M1429.9 206.4c0 20.6-7.4 37.5-22.1 50.6s-31.8 19.7-51.1 19.7-36.3-6.6-51.1-19.7c-14.7-13.1-22.1-30-22.1-50.6v-54.6c0-20.6 7.4-37.5 22.1-50.6s31.8-19.7 51.1-19.7 36.3 6.6 51.1 19.7c14.7 13.1 22.1 30 22.1 50.6zm-100.6 0c0 7.9 2.7 14.5 8 20.1 5.3 5.5 11.8 8.2 19.4 8.2s13.8-2.7 19.2-8.2 8.2-12.1 8.2-20.1v-54.6c0-7.9-2.7-14.5-8-20.1-5.3-5.5-11.8-8.2-19.4-8.2s-14.1 2.7-19.4 8.2-8 12.1-8 20.1zM1216.1 253c0 5.9-2.2 10.9-6.5 15-4.3 4.2-9.8 6.3-16.4 6.3s-12-2.1-16.3-6.1c-4.3-4.1-6.5-9.2-6.5-15.2V125.1h-21c-4.1 0-7.6-1.6-10.7-4.9s-4.6-7.5-4.6-12.6 1.5-9.4 4.6-13 6.5-5.6 10.3-6.1l21-3.1h.4V69.3c0-19.6 6.6-35.6 19.9-48.1 13.2-12.5 29.6-18.6 49.2-18.6s11.1.1 13.2 1.5c7 4.7 6.8 15.7 6.7 18.4 0 2.3-.3 9.5-5.2 14.7-3.4 3.7-8 5.6-13.9 5.6s-12.9 2.5-17.4 7.2c-4.4 4.8-6.7 11.3-6.7 19.5v15.2h25.5c5.2 0 9.4 2 13 5.8s5.3 8.8 5.3 14.9-1.7 10.3-5.3 14.1-7.9 5.8-13 5.8h-25.5v127.9-.2zM962.6 101.9c0-5.4 2-9.7 5.8-13s8.3-4.9 13.7-4.9 9.9 2.3 14.5 6.7 8.1 6.7 10.7 6.7 7.6-2.6 16.8-7.8c9.2-5.3 18-7.8 26.6-7.8 15.7 0 29.3 6.4 40.6 19 11.3 12.8 17 29.1 17 49.2v103.1c0 5.9-2.2 10.9-6.5 15-4.3 4.2-9.8 6.3-16.4 6.3s-12-2.1-16.3-6.1c-4.3-4.1-6.5-9.2-6.5-15.2V150.9c0-8.1-2.6-14.7-7.8-19.7-5.2-4.9-11.6-7.4-19.2-7.4s-14.4 2.5-19.4 7.2c-5.1 4.8-7.6 11.4-7.6 19.9v102.2c0 5.9-2.2 10.9-6.5 15-4.3 4.2-9.8 6.3-16.4 6.3s-12-2.1-16.4-6.1c-4.3-4-6.5-9.2-6.5-15.2V101.9zM870.8 8Q878.45.8 889.4.8c7.3 0 13.3 2.5 18.5 7.2q7.8 7.2 7.8 18.6c0 7.6-2.6 13.9-7.8 18.6-5.2 4.8-11.4 7.2-18.5 7.2s-13.6-2.5-18.6-7.2c-5.1-4.8-7.6-11-7.6-18.6s2.6-13.9 7.6-18.6m41.5 245c0 5.9-2.2 10.9-6.5 15-4.3 4.2-9.8 6.3-16.4 6.3s-12-2.1-16.4-6.1c-4.3-4.1-6.5-9.2-6.5-15.2V105.3c0-6.1 2.2-11.2 6.5-15.2 4.3-4.1 9.8-6.1 16.4-6.1s12 2.1 16.4 6.3c4.3 4.2 6.5 9.3 6.5 15z"/><path fill="#ba2324" d="M758.3 252.3c0 6.4-2.3 11.6-6.7 15.9-4.4 4.2-10.1 6.3-17 6.3s-12.5-2.1-17-6.3c-4.4-4.2-6.7-9.5-6.7-15.9V35.5c0-6.4 2.3-11.6 6.7-15.9 4.4-4.2 10.1-6.3 17-6.3s12.5 2.1 17 6.3c4.4 4.2 6.7 9.5 6.7 15.9zM1477.9 317.8c-5.3 0-9.9-2-13.5-5.9-3.7-3.9-5.5-8.9-5.5-14.7s1.8-11 5.5-14.9 8.2-5.8 13.5-5.8H1612c5.5 0 10.2 2 13.7 5.8s5.3 8.8 5.3 14.9-1.7 10.7-5.3 14.7c-3.6 3.9-8.1 5.9-13.7 5.9z"/><path fill="#fff" d="M114.1 252.3c0 6.4-2.3 11.6-6.7 15.9-4.4 4.2-10.1 6.3-17 6.3s-12.5-2.1-17-6.3c-4.4-4.2-6.7-9.5-6.7-15.9V56.9H20.6c-5.6 0-10.3-2.1-14.1-6.1S.7 41.6.7 35.6s2-11.2 5.8-15.2c3.8-4.1 8.5-6.1 14.1-6.1h139.5c6.1 0 10.9 2.1 14.5 6.1s5.3 9.2 5.3 15.2-1.7 11.2-5.3 15.2-8.3 6.1-14.5 6.1H114v195.3h.1zM288.5 268.1q-8.4-7.05-11.4-17.4L213.8 41.2c-.7-3.1-1.1-5.4-1.1-6.9 0-6.4 2.5-11.4 7.2-15.2 4.8-3.8 10.8-5.8 17.9-5.8s9.6 1.5 13.5 4.6 6.6 7 7.8 11.8l40.4 149.2 8.7 40.9 8.7-40.9 40.4-149.2c1.2-4.8 3.9-8.8 7.8-11.8 3.9-3.1 8.4-4.6 13.5-4.6s13.1 2 17.9 5.8 7.2 8.9 7.2 15.2-.4 3.8-1.1 6.9l-63.3 209.5q-3.15 10.35-11.4 17.4c-5.6 4.7-12.2 7.1-19.9 7.1s-14.2-2.4-19.9-7.1zM497.2 252.3c0 6.4-2.3 11.6-6.7 15.9-4.4 4.2-10.1 6.3-17 6.3s-12.5-2.1-17-6.3c-4.4-4.2-6.7-9.5-6.7-15.9V35.5c0-6.4 2.1-11.5 6.1-15.4 4.1-3.9 9.2-5.9 15.2-5.9h54.1c24.9 0 45.4 7.6 61.4 22.9 16 15.2 24 35.6 24 61.1s-7.8 45.7-23.5 60.9c-15.6 15.1-36.3 22.8-61.9 22.8H497v70.6h.1zm56-183.6c-6.9-7.9-16.1-11.8-27.9-11.8h-28.2V139h28.2c12.2 0 21.6-3.9 28.2-11.6s9.9-17.5 9.9-29.1S560 76.8 553.1 69h.1z"/></svg>