<svg xmlns="http://www.w3.org/2000/svg" width="987" height="568" fill="none" viewBox="0 0 987 568"><path fill="#fff" d="m.32 335.87 103.52-90.26c86.69-75.98 112.19-97.91 112.19-134.63 0-38.76-31.11-66.8-80.57-66.8s-79.55 29.07-89.24 74.96H3.38C13.58 48.26 65.08 3.89 137.5 3.89s120.86 45.9 120.86 105.56c0 53.03-37.74 85.67-119.84 157.06l-68.33 59.15h197.86v40.8H.32v-30.6zM312.93 243.57c0-62.22 37.74-111.17 130.04-234.07h49.47L390.96 145.66c18.87-11.22 39.78-19.38 66.8-19.38 63.74 0 121.88 42.33 121.88 118.82S521 372.08 446.03 372.08s-133.1-47.43-133.1-128.51m224.37 1.53c0-53.54-40.29-85.67-90.77-85.67s-90.77 32.64-90.77 86.18 40.29 86.18 90.26 86.18 91.28-34.17 91.28-86.69M147.09 382v109.414c0 50.682-31.703 75.621-73.545 75.621S0 542.082 0 491.414V382h29.881v107.592c0 35.347 18.457 49.383 43.664 49.383s43.664-14.036 43.664-49.383V382zM188.41 382h75.113c39.498 0 61.852 23.385 61.852 57.687 0 30.149-16.889 49.383-45.739 54.834l54.311 69.393h-36.123l-51.713-67.826h-28.328v67.826H188.41zm71.992 88.105c24.176 0 35.346-12.47 35.346-30.15s-11.438-29.881-35.346-29.881h-42.619v60.031zM420.484 382h37.423l70.424 181.914H497.15l-18.457-48.86h-79.01l-18.457 48.86h-31.18L420.47 382zm47.548 105.248-28.851-76.398-28.85 76.398h57.701M681.917 522.594l-2.598-64.45V382h29.373v181.914h-34.824L582.911 423.32l2.852 64.451v76.143H556.39V382h34.57zM749.997 382h29.373v181.914h-29.373zM879.153 382h37.423L987 563.914h-31.181l-18.456-48.86h-79.011l-18.457 48.86h-31.18L879.139 382zm47.562 105.248-28.85-76.398-28.851 76.398h57.701M972.91 119.23c39.16 99.13-6.44 203.38-104.13 241.98-97.69 38.59-202.71-6.15-241.88-105.28-39.16-99.13 7.4-203.76 104.61-242.17 97.69-38.59 202.23 6.34 241.4 105.47M649.19 234.78c33.09 83.77 121.38 121.66 202.79 89.5 80.93-31.97 119.96-120.16 86.39-203.74C905.75 36.58 816.99-1.12 736.06 30.85c-81.4 32.16-119.96 120.16-86.86 203.93z"/><path fill="url(#a)" d="M903.61 171.99c-43.16 50.12-99.29 88.7-163.23 110.49-21.65-62.62-26.94-130.68-13.69-197.15 64.89 12.42 126.23 41.99 176.92 86.66"/><defs><linearGradient id="a" x1="719" x2="904" y1="184" y2="173" gradientUnits="userSpaceOnUse"><stop stop-color="#58abdb"/><stop offset="1" stop-color="#1b3d73"/></linearGradient></defs></svg>