<svg xmlns="http://www.w3.org/2000/svg" width="579" height="579" fill="none" viewBox="0 0 579 579"><path fill="#197ae9" d="M0 0v578.574l578.395-.002V0z"/><path fill="#fff" d="M367.089 155.025c-9.267-33.715-24.63-61.132-65.902-72.035-1.158-.306-2.617-1.102-3.595-1.489a1.52 1.52 0 0 1-.962-1.415V69.471a1.52 1.52 0 0 1 1.511-1.521l9.25-.061a1.52 1.52 0 0 0 1.511-1.521v-13.08c0-.84-.681-1.521-1.521-1.521h-9.23c-.84 0-1.521-.681-1.521-1.521v-8.144c0-.84-.681-1.521-1.521-1.521h-12.584c-.84 0-1.521.681-1.521 1.521v8.144c0 .84-.681 1.521-1.521 1.521h-8.615c-.84 0-1.521.681-1.521 1.521v13.151c0 .84.681 1.521 1.521 1.521h8.713c.84 0 1.521.681 1.521 1.521v10.636a1.52 1.52 0 0 1-.916 1.396c-.856.369-2.021 1.092-2.704 1.269-34.528 8.983-62.655 37.582-67.266 72.509 53.064-11.055 104.737-10.069 156.873-.266M243.773 259.906c29.969.123 59.938.123 89.907.015 1.365-.005 3.544-.911 3.961-1.952 4.682-11.669 9.093-23.446 14.012-36.336-42.247-6.922-83.24-6.897-125.471.015 4.855 12.88 9.169 24.548 13.746 36.11.43 1.084 2.521 2.143 3.845 2.148"/><path fill="#fff" d="m478.788 266.619-10.187 10.187-12.231-12.231 10.187-10.187-10.536-10.536 12.786-12.786 10.536 10.536 10.187-10.187 12.231 12.231-10.187 10.187 23.024 23.024c9.724-9.83 19.635-19.837 23.678-23.88l-65.023-64.254 5.78-6.383-15.003-15.519-9.323 8.801c-4.324-8.288-10.11-14.072-17.896-17.748-24.023-11.344-54.972-4.236-71.393 16.604-1.89 2.398-3.537 2.648-6.319 2.168-24.143-4.167-48.471-7.957-72.961-6.814-22.556 1.053-45 4.457-67.505 6.701-1.499.149-3.774-.238-4.557-1.25-11.022-14.252-25.808-21.459-43.425-22.366-19.117-.983-36.188 3.384-46.351 21.883-.192.35-.79.476-1.336.784l-9.311-8.654-15.291 14.9 6.669 7.659-64.397 63.867 22.696 22.968 22.49-22.49-10.187-10.187 12.231-12.231 10.187 10.187 10.536-10.536 12.786 12.786-10.536 10.536 10.187 10.187-12.231 12.231-10.187-10.187-22.566 22.566 23.767 24.051 64.523-65.105 4.721 4.6c-4.949 5.542-9.541 10.753-14.206 15.898-13.267 14.628-25.536 29.953-32.591 48.698-12.717 33.787.378 63.66 33.733 77.372.939.386 1.781 1.005 3.005 1.709-47.336 16.345-60.975 66.477-43.336 101.266 18.536 36.558 62.484 50.782 97.954 32.285 35.607-18.569 52.891-66.005 25.868-106.314l49.352-49.566 49.561 49.321c-26.068 38.385-10.885 84.953 21.958 104.458 31.869 18.927 74.533 10.394 95.715-19.988 13.935-19.987 17.322-41.855 9.632-65.094-7.65-23.117-23.992-37.849-47.541-46.516 11.294-3.646 20.282-8.644 27.395-16.417 17.611-19.245 19.486-41.091 9.963-64.528-7.196-17.71-18.916-32.404-31.601-46.42-4.878-5.389-9.633-10.889-14.579-16.491l4.146-3.934c.731.587 1.281.95 1.737 1.406a154362 154362 0 0 1 58.595 58.676 267 267 0 0 0 4.676 4.558s2.274-2.118 4.532-4.396c2.698-2.722 5.44-5.399 8.129-8.129a13596 13596 0 0 1 10.735-10.871zm-104.651-83.542c6.426-10.198 16.558-13.83 26.081-10.842-3.924 5.401-9.099 10.553-11.88 16.775-5.174 11.58-3.914 24.076-2.342 36.361.126.986 1.713 5.957 2.145 6.815 5.471 10.862-11.798 24.264-13.751 25.927-8.219-24.842-15.311-51.139-.253-75.036m2.469 102.734c3.445 4.846 6.933 10.004 10.679 14.968 6.91 9.158 14.353 17.939 20.85 27.375 5.298 7.696 8.088 16.427 5.436 26.014-1.87 6.76-3.711 7.701-10.204 5.196-15.703-6.06-27.499-17.258-38.315-29.6-5.027-5.737-9.499-11.959-14.488-18.298zm-34.973 34.962c7.785 8.978 14.926 18.452 23.359 26.588 8.252 7.962 17.82 14.561 26.684 21.656-28.742 3.032-46.778-14.492-63.321-34.403zm-14.862-16.939c-3.797 3.918-7.625 7.807-12.177 12.458l-15.701-26.51c7.245-1.255 13.553-2.491 19.914-3.323 1.215-.159 3.178.933 3.868 2.031 2.462 3.917 4.524 8.084 6.787 12.248-.956 1.106-1.773 2.15-2.691 3.096m-112.748-40.87c8.546-20.108 12.857-40.851 9.941-63.768 43.557-6.733 86.761-6.733 130.567.111-2.948 22.674 1.429 43.09 9.69 62.917.541 1.299.241 3.739-.669 4.727-7.764 8.435-15.76 16.658-24.509 25.803-3.319-6.262-6.156-11.07-8.444-16.127-1.443-3.188-2.795-4.524-6.673-3.645-7.929 1.798-16.044 2.755-24.045 4.257-13.996 2.628-27.423-1.301-41.017-3.34-1.642-.246-3.343-.416-4.877-.994-3.111-1.174-4.403.34-5.639 2.929-2.568 5.381-5.426 10.624-8.536 16.642-1.922-1.838-3.433-3.233-4.89-4.683-6.487-6.46-13.059-12.842-19.346-19.492-1.165-1.233-2.129-3.982-1.553-5.337m65.597 26.776-16.147 27.304c-3.887-4.151-6.583-7.888-10.089-10.565-4.844-3.699-4.188-7.028-1.346-11.576 5.542-8.87 5.341-9 15.468-7.269 3.739.64 7.476 1.299 12.114 2.106m-43.653 31.163 13.448 13.521c-8.493 20.226-42.207 38.616-64.115 33.945 21.786-11.168 36.871-28.697 50.667-47.466m-62.328 39.149c-4.404 1.737-6.435.226-7.909-3.582-3.169-8.187-1.963-16.148 2.01-23.565 2.806-5.239 6.387-10.107 9.977-14.874 7.894-10.482 16.014-20.794 24.659-31.975 7.826 7.932 15.669 15.807 23.367 23.823.64.666.84 2.669.323 3.397-13.89 19.586-29.17 37.603-52.427 46.776m31.133-176.647c8.294 12.199 9.496 25.936 7.509 39.773-1.499 10.44-5.101 20.579-7.817 30.839-.151.569-.752 1.019-2.002 2.632-4.239-4.674-8.42-8.964-12.148-13.617-.943-1.178-.987-3.67-.518-5.29 3.328-11.488 4.458-23.182 3.592-35.061-.888-12.19-5.085-22.7-16.968-29.75 11.475-3.748 21.425.285 28.352 10.474m-66.637-7.804c4.362-5.499 12.224-9.261 22.431-10.135-10.949 7.013-16.352 16.549-19.83 27.493-8.618-6.74-8.942-9.363-2.601-17.358m13.63 28.859c-.574-.589-.95-1.972-.669-2.696 2.32-5.986 4.553-12.037 7.444-17.749.723-1.427 3.852-2.58 5.674-2.339 6.669.881 11.84 4.468 14.399 10.833 5.062 12.586 2.991 25.244.305 39.514-9.772-9.886-18.504-18.684-27.153-27.563m-6.876 169.814c-14.107-12.179-18.464-27.896-13.407-46.033 4.674-16.764 14.433-30.557 25.493-43.551 6.573-7.723 13.437-15.199 20.17-22.787 4.963 5.077 9.931 10.142 15.751 16.076-7.727 10.186-15.639 21.029-24 31.514-7.539 9.454-14.478 19.079-16.39 31.418-3.122 20.154 7.548 35.474 27.673 39.265 5.192.978 10.54 1.13 16.995 1.78-19.627 7.266-37.119 5.411-52.285-7.682m35.026 140.25c-26.963-.188-48.449-22.165-48.277-49.383.169-26.671 22.139-48.245 49-48.117 26.734.127 49.062 22.387 48.754 48.604-.321 27.404-22.261 49.085-49.477 48.896m42.429-108.399-24.331-11.39c27.12-9.107 43.807-30.396 60.64-51.678l13.165 13.757zm66.178-65.557-15.47-15.955 16.237-26.89 16.128 26.787zm16.693 16.361 14.488-13.441c3.167 3.611 7.012 7.487 10.273 11.804 12.862 17.027 28.185 30.885 48.399 38.676.541.208.998.632 1.338.853l-25.076 11.68zm141.184 108.414c.216 26.589-21.69 48.931-48.214 49.174-26.785.245-49.228-21.079-49.543-47.073-.344-28.343 20.673-50.085 48.711-50.393 26.491-.291 48.831 21.705 49.046 48.292m-.859-142.035c6.57 18.193 4.46 35.027-9.615 48.844-15.019 14.745-33.07 17.287-52.679 10.521-.401-.138-.711-.542-.577-.436 6.687-1.068 13.952-1.289 20.576-3.463 20.01-6.567 28.557-24.946 20.863-45.21-2.725-7.176-7.162-13.849-11.619-20.188-7.935-11.287-16.431-22.182-24.805-33.155-2.151-2.819-1.83-4.719.769-7.132 4.112-3.818 7.805-8.087 11.889-12.39 17.364 20.042 36.221 37.751 45.198 62.609m-25.774-112.42c-6.383 6.487-12.557 13.18-18.825 19.781l-1.69-1.002c-2.612-11.7-3.635-23.506-.202-35.212.922-3.144 3.11-6.611 5.749-8.434 10.467-7.228 14.266-6.829 18.924 4.177 4.958 11.716 4.974 11.616-3.956 20.69M437.68 192.3c-3.825-10.673-9.039-19.95-18.299-26.487 9.191.904 17.153 3.911 22.348 11.877 4.549 6.975 4.279 7.755-4.049 14.61"/></svg>