<svg xmlns="http://www.w3.org/2000/svg" width="194" height="51" fill="none" viewBox="0 0 194 51"><path fill="#fff" d="m12.5 40.5 5-34.2h6L17 48.2H7.2L.8 6.4h6.6zM33.2 24h9v6h-9v12.3h11.4v6h-18V6.4h18v6H33.2zM62.4 48.3c-.4-1.1-.6-1.7-.6-5.1v-6.6c0-3.9-1.3-5.3-4.3-5.3h-2.3v17.1h-6.6v-42h9.9c6.8 0 9.8 3.2 9.8 9.6v3.3c0 4.3-1.4 7.1-4.3 8.5 3.3 1.4 4.4 4.5 4.4 8.9v6.5c0 2 .1 3.5.7 5.1zm-7.2-35.9v12.9h2.6c2.5 0 4-1.1 4-4.4v-4.1c0-3-1-4.3-3.4-4.3h-3.2zM94 48.3h-6.6l-1.1-7.6h-8.1L77 48.3h-6l6.7-41.9h9.6zM79 35h6.3l-3.2-21.2z"/><path fill="#009cde" d="M92.8 6.4h20.4v6h-6.9v35.9h-6.6V12.4h-6.9zM126 40.5l5-34.2h6l-6.5 41.9h-9.8l-6.5-41.9h6.6z"/><path fill="#fff" d="M163.5 44.6c1.7 0 3.1 1.4 3.1 3.1s-1.4 3.1-3.1 3.1H155c-3.4 0-6.4-1.4-8.6-3.6s-3.6-5.3-3.6-8.6V12.4c0-3.4 1.4-6.4 3.6-8.6S151.7.2 155 .2h26.2c3.4 0 6.4 1.4 8.6 3.6s3.6 5.3 3.6 8.6v8.7c0 1.7-1.4 3.1-3.1 3.1s-3.1-1.4-3.1-3.1v-8.7c0-1.6-.7-3.1-1.8-4.2s-2.6-1.8-4.2-1.8H155c-1.6 0-3.1.7-4.2 1.8s-1.8 2.6-1.8 4.2v26.2c0 1.6.7 3.1 1.8 4.2s2.6 1.8 4.2 1.8z"/><path fill="#009cde" d="M187.2 30.1c0-1.7 1.4-3.1 3.1-3.1s3.1 1.4 3.1 3.1v8.5c0 3.4-1.4 6.4-3.6 8.6s-5.3 3.6-8.6 3.6H173c-1.7 0-3.1-1.4-3.1-3.1s1.4-3.1 3.1-3.1h8.2c1.6 0 3.1-.7 4.2-1.8s1.8-2.6 1.8-4.2z"/><path fill="#009cde" fill-rule="evenodd" d="M183.3 40.7c-.6.6-1.4.9-2.2.9s-1.6-.3-2.2-.9l-7.8-7.8c-.9.4-1.9.6-2.9.6-4.4 0-7.9-3.5-7.9-7.9s3.5-7.9 7.9-7.9 7.9 3.5 7.9 7.9c0 1-.2 2-.5 2.9l7.8 7.8c1.1 1.2 1.1 3.2-.1 4.4" clip-rule="evenodd"/></svg>