<svg xmlns="http://www.w3.org/2000/svg" xml:space="preserve" id="teleradio-regione" x="0" y="0" viewBox="0 0 100 53"><style>.st0{fill:#d6222a}.st1{fill:#fff}.st2{fill:#e82}</style><path d="M80.57 34.54V30l9.15-18.33h5.18l-9.14 18.24h5.92v-6.98l4.69-1.58v8.56H99v4.63h-2.63v6.59h-4.69v-6.59zM70.87 11.82h6.26v29.29h-5.29V19.44h-4.17z" class="st0"/><path d="M62.46 19.8v-1.06c-.03-2.64-.17-5.27-.54-7.89-.17-1.2-.38-2.39-.69-3.57-.18-.67-.4-1.32-.7-1.94a3.4 3.4 0 0 0-.94-1.18c-.62-.5-1.29-.9-2.01-1.24-1.39-.65-2.85-1.05-4.35-1.35-1.23-.25-2.47-.42-3.72-.54-1.1-.11-2.19-.19-3.29-.22-1.16-.03-2.31-.02-3.47-.03-1.26-.01-2.51.06-3.77.13-.98.07-1.95.16-2.92.24-.73.06-1.46.12-2.19.2-1.04.12-2.07.25-3.11.39-1.21.17-2.43.34-3.64.54-1.83.31-3.66.66-5.48 1.06-3.07.67-6.11 1.47-9.09 2.47-2.03.69-4.04 1.47-5.96 2.45-1.05.53-2.06 1.11-2.99 1.83-.56.43-1.08.9-1.52 1.46-.31.4-.57.84-.71 1.34-.35 1.21-.44 2.44-.33 3.69.11 1.26.42 2.47.87 3.65.65 1.71 1.53 3.29 2.55 4.8 1.26 1.86 2.71 3.57 4.26 5.2 2.43 2.54 5.09 4.84 7.88 6.98 5 3.82 10.32 7.12 15.96 9.91 2.78 1.38 5.62 2.61 8.56 3.59 2.04.68 4.1 1.24 6.25 1.44.83.08 1.66.08 2.49-.07 1.12-.21 2.16-.64 3.11-1.27.93-.61 1.73-1.36 2.44-2.21 1.02-1.2 1.82-2.54 2.51-3.95 1.03-2.11 1.77-4.32 2.37-6.59.69-2.61 1.16-5.25 1.51-7.92.23-1.78.39-3.56.5-5.35.11-1.66.15-3.32.16-4.99" class="st1"/><path d="M62.46 19.8c-.01 1.66-.04 3.33-.14 4.99-.11 1.79-.27 3.57-.5 5.35-.35 2.67-.82 5.32-1.51 7.92-.6 2.26-1.35 4.48-2.37 6.59-.69 1.41-1.49 2.75-2.51 3.95-.71.85-1.51 1.6-2.44 2.21-.95.63-1.99 1.06-3.11 1.27-.82.15-1.66.15-2.49.07-2.15-.2-4.21-.76-6.25-1.44-2.95-.98-5.79-2.21-8.56-3.59a97.2 97.2 0 0 1-15.96-9.91c-2.79-2.14-5.45-4.44-7.88-6.98-1.55-1.62-3-3.34-4.26-5.2-1.02-1.51-1.91-3.09-2.55-4.8-.44-1.18-.76-2.39-.87-3.65-.11-1.25-.02-2.48.33-3.69.14-.49.39-.93.71-1.34.44-.56.96-1.03 1.52-1.46.93-.71 1.94-1.3 2.99-1.83 1.93-.98 3.93-1.76 5.98-2.44 2.98-1 6.02-1.8 9.09-2.47 1.82-.4 3.64-.75 5.48-1.06a155.286 155.286 0 0 1 6.75-.93c.73-.08 1.46-.14 2.19-.2.97-.08 1.94-.17 2.91-.22 1.25-.07 2.51-.13 3.77-.13 1.16 0 2.31 0 3.47.03 1.1.03 2.2.11 3.29.22 1.25.12 2.49.29 3.72.54 1.49.3 2.96.7 4.35 1.35.72.33 1.39.74 2.01 1.24.4.33.71.72.94 1.18.31.62.52 1.28.7 1.94.32 1.17.53 2.36.69 3.57.36 2.62.5 5.25.54 7.89-.03.33-.03.68-.03 1.03m-3.94 12.11c-.01-1.31-.09-2.4-.2-3.48-.17-1.77-.43-3.53-.76-5.27-.58-3.09-1.34-6.14-2.29-9.14-.65-2.06-1.36-4.09-2.25-6.06-.36-.8-.75-1.58-1.22-2.32-.36-.56-.83-.99-1.4-1.32-.56-.33-1.17-.55-1.8-.71-1.08-.26-2.17-.35-3.27-.33-1.77.03-3.51.27-5.25.61-2.16.43-4.27 1.02-6.36 1.7a86 86 0 0 0-12.26 5.13c-2.49 1.27-4.91 2.65-7.22 4.22-1.2.82-2.37 1.68-3.45 2.66-.65.59-1.26 1.21-1.8 1.91-.7.91-1 1.94-1.03 3.07-.02.89.15 1.74.46 2.56.37.97.93 1.83 1.58 2.64.78.96 1.67 1.8 2.62 2.58 1.6 1.3 3.34 2.4 5.15 3.4 2.83 1.56 5.79 2.84 8.82 3.97 3.56 1.33 7.2 2.44 10.89 3.36 3.19.79 6.41 1.45 9.67 1.82 1.14.13 2.27.24 3.42.25.73.01 1.47 0 2.2-.09 1.57-.2 2.82-.93 3.76-2.19.41-.56.73-1.17.98-1.82.55-1.39.79-2.85.93-4.33.08-1.02.1-2.03.08-2.82" class="st0"/><path d="M58.52 31.91c.02.79 0 1.8-.09 2.82-.14 1.48-.38 2.93-.93 4.33-.25.65-.57 1.26-.98 1.82-.94 1.27-2.19 2-3.76 2.19-.73.09-1.46.09-2.2.09-1.14-.01-2.28-.12-3.42-.25-3.27-.38-6.48-1.04-9.67-1.82-3.69-.91-7.33-2.02-10.89-3.36-3.02-1.13-5.98-2.41-8.82-3.97-1.81-.99-3.55-2.09-5.15-3.4-.95-.78-1.84-1.62-2.62-2.58-.65-.8-1.2-1.67-1.58-2.64-.32-.82-.49-1.68-.46-2.56.03-1.13.33-2.16 1.03-3.07.54-.69 1.15-1.32 1.8-1.91 1.08-.97 2.25-1.84 3.45-2.66 2.31-1.57 4.74-2.95 7.22-4.22 3.96-2.02 8.04-3.75 12.26-5.13 2.09-.69 4.21-1.27 6.36-1.7 1.73-.35 3.48-.58 5.25-.61 1.1-.02 2.2.07 3.27.33.63.15 1.24.38 1.8.71.57.33 1.04.76 1.4 1.32.47.74.86 1.52 1.22 2.32.89 1.97 1.6 4 2.25 6.06.94 3 1.7 6.05 2.29 9.14.33 1.75.59 3.5.76 5.27.12 1.08.2 2.17.21 3.48M30.6 11.46c-1.62 0-3.24.03-4.86.17-1.32.11-2.64.27-3.94.54-.88.18-1.76.41-2.6.74-.43.17-.85.38-1.23.65a2.9 2.9 0 0 0-1.12 1.5c-.14.45-.24.9-.26 1.37-.05.86.05 1.72.22 2.56.27 1.31.75 2.54 1.35 3.72.9 1.77 2.03 3.38 3.29 4.91 2.15 2.6 4.59 4.89 7.25 6.96 2.12 1.65 4.35 3.13 6.74 4.36 1.32.68 2.67 1.27 4.1 1.69.76.22 1.53.38 2.32.44.88.07 1.74-.09 2.58-.35 1.2-.38 2.26-1.01 3.24-1.78 1.17-.92 2.19-2 3.07-3.2 2.77-3.77 4.57-7.95 5.25-12.59.16-1.08.19-2.16.06-3.25-.15-1.21-.63-2.24-1.57-3.04-.51-.43-1.05-.81-1.62-1.15-.96-.55-1.96-.99-3-1.37-2.67-.97-5.44-1.57-8.24-2.02a66 66 0 0 0-3.44-.45c-1.16-.13-2.33-.22-3.5-.3-1.35-.08-2.72-.12-4.09-.11" class="st1"/><path d="M30.6 11.46c1.37-.01 2.74.03 4.1.12a78.87 78.87 0 0 1 6.94.75c2.8.45 5.57 1.05 8.24 2.02 1.03.38 2.04.81 3 1.37.58.33 1.11.71 1.62 1.15.94.8 1.42 1.83 1.57 3.04.13 1.09.1 2.17-.06 3.25-.69 4.64-2.48 8.82-5.25 12.59-.88 1.2-1.89 2.28-3.07 3.2-.98.77-2.04 1.4-3.24 1.78-.84.26-1.7.42-2.58.35-.79-.06-1.56-.22-2.32-.44-1.43-.42-2.78-1.01-4.1-1.69-2.39-1.23-4.62-2.71-6.74-4.36-2.66-2.07-5.11-4.36-7.25-6.96-1.26-1.53-2.39-3.14-3.29-4.91-.6-1.19-1.08-2.42-1.35-3.72-.17-.85-.27-1.7-.22-2.56.03-.47.12-.92.26-1.37.2-.63.58-1.12 1.12-1.5.38-.27.8-.48 1.23-.65.84-.34 1.71-.56 2.6-.74 1.3-.26 2.61-.42 3.94-.54 1.61-.15 3.23-.18 4.85-.18m12.14 15.18.16.42c.66 1.77 1.31 3.54 1.97 5.31.04.11.08.21.12.32.03.09.1.13.2.13h4.78c.08 0 .17 0 .25-.01.07-.01.09-.06.07-.12-.05-.12-.11-.23-.16-.34-.91-1.83-1.83-3.66-2.74-5.49-.09-.18-.18-.35-.26-.53-.1-.21-.09-.24.13-.29.42-.09.82-.22 1.2-.41 1.41-.68 2.39-1.76 3.03-3.18.39-.86.61-1.76.59-2.71-.04-1.36-.67-2.33-1.92-2.88-.21-.09-.42-.17-.64-.23-.64-.18-1.3-.25-1.97-.25h-9.1c-.09 0-.16.04-.21.11-.05.08-.11.16-.16.25-.75 1.13-1.5 2.25-2.26 3.38-1.26 1.89-2.52 3.78-3.78 5.66-.1.15-.18.32-.32.43-.11-.05-.09-.15-.1-.23l-.12-.97c-.16-1.2-.32-2.4-.47-3.61l-.54-4.24c-.02-.18-.05-.36-.07-.54-.03-.24-.04-.24-.3-.25h-4.11c-.08 0-.17-.02-.25.06.01.09 0 .19.02.28.06.42.13.84.19 1.25.19 1.21.37 2.42.56 3.64.19 1.21.37 2.42.56 3.64.18 1.2.36 2.4.55 3.6l.54 3.55c.01.1.04.19.05.29.01.06.05.1.11.1.11.01.23.01.34.01h2.46c.53 0 .39.05.67-.36 1.75-2.51 3.5-5.02 5.24-7.54l2.54-3.65c.06-.08.09-.2.23-.21.03.11-.01.2-.03.3-.54 2-1.07 4-1.61 6l-1.35 5.02c-.04.13-.1.26-.05.4.15.05.29.03.43.03h3.35c.51 0 .42.06.55-.43.5-1.82 1.01-3.64 1.51-5.46 0-.05 0-.16.12-.25" class="st2"/><path d="M42.74 26.64c-.12.09-.12.2-.15.29-.5 1.82-1 3.64-1.51 5.46-.14.49-.05.42-.55.43h-3.35c-.14 0-.28.02-.43-.03-.04-.14.02-.27.05-.4l1.35-5.02c.54-2 1.07-4 1.61-6 .03-.09.07-.19.03-.3-.13.01-.17.13-.23.21-.85 1.21-1.69 2.43-2.54 3.65-1.75 2.51-3.49 5.03-5.24 7.54-.29.41-.15.36-.67.36h-2.46c-.11 0-.23 0-.34-.01-.06 0-.1-.04-.11-.1-.02-.1-.04-.19-.05-.29l-.54-3.55c-.18-1.2-.36-2.4-.55-3.6-.18-1.21-.37-2.42-.56-3.64-.19-1.21-.37-2.42-.56-3.64-.06-.42-.13-.84-.19-1.25-.01-.1-.01-.2-.02-.28.08-.08.17-.06.25-.06h4.11c.26.01.27.01.3.25.03.18.05.36.07.54l.54 4.24c.16 1.2.32 2.4.47 3.61l.12.97c.01.08 0 .17.1.23.15-.11.22-.28.32-.43 1.26-1.89 2.52-3.78 3.78-5.66.75-1.13 1.5-2.25 2.26-3.38.05-.08.11-.16.16-.25.05-.08.12-.12.21-.11h9.1c.67 0 1.32.08 1.97.25.22.06.43.14.64.23 1.25.55 1.89 1.52 1.92 2.88.02.95-.2 1.85-.59 2.71-.64 1.41-1.62 2.5-3.03 3.18-.38.18-.78.32-1.2.41-.22.05-.23.08-.13.29.08.18.17.35.26.53.91 1.83 1.83 3.66 2.74 5.49.06.11.11.23.16.34.03.06 0 .11-.07.12-.08.01-.17.01-.25.01h-4.78c-.09 0-.16-.04-.2-.13-.04-.11-.08-.21-.12-.32-.66-1.77-1.31-3.54-1.97-5.31-.01-.18-.07-.31-.13-.46m.72-2.9c.35 0 .69.02 1.03-.01.46-.04.92-.12 1.35-.3 1-.43 1.48-1.23 1.56-2.27.05-.54-.21-.95-.7-1.19-.15-.07-.31-.13-.48-.17-.52-.13-1.06-.12-1.6-.11-.1 0-.15.05-.17.15-.01.07-.04.13-.06.2-.31 1.14-.61 2.28-.92 3.43-.01.06-.04.15-.01.27" class="st1"/><path d="M43.46 23.74c-.03-.12 0-.2.02-.28.31-1.14.61-2.28.92-3.43.02-.07.05-.13.06-.2.02-.1.08-.15.17-.15.54-.01 1.07-.02 1.6.11.16.04.32.1.48.17.5.24.75.65.7 1.19-.09 1.05-.56 1.84-1.56 2.27-.43.19-.89.27-1.35.3-.35.04-.68.02-1.04.02" class="st2"/></svg>