<svg xmlns="http://www.w3.org/2000/svg" width="48" height="49" fill="none" viewBox="0 0 48 49"><path fill="#fff" fill-rule="evenodd" d="M30.506 41.204q4.592-1.992 6.515-3.967a9.7 9.7 0 0 0 2.544-4.667h-7.641q-.013 0-.012-.013l2.259-13.885c.09-.554.62-1.007 1.18-1.007h12.55C44.941 7.472 35.547 0 24.438 0 10.963 0 0 10.99 0 24.5c0 9.274 5.167 17.36 12.766 21.52l-1.78-4.816q4.594-1.992 6.514-3.967a9.7 9.7 0 0 0 2.545-4.667H12.39l2.259-13.885c.09-.561.63-1.02 1.196-1.02h14.978l-2.01 12.36q-1.11 6.826-4.59 10.791c-2.06 2.35-5.143 4.442-9.233 6.278A24.3 24.3 0 0 0 24.438 49c2.949 0 5.778-.526 8.398-1.491z" clip-rule="evenodd"/></svg>