<svg xmlns="http://www.w3.org/2000/svg" width="197" height="100" fill="none" viewBox="0 0 197 100"><path fill="#d5aa41" d="M30.329 49.07 17.608 68.126 4.769 49.07H0l17.37 25.321h.313L34.7 49.07zm19.933-.002h4.063v24.579h-4.063zm47.591 24.578h4.844l-9.022-9.965c5.475-.67 8.391-3.119 8.391-7.289 0-5.16-4.06-7.325-11.815-7.325H73.074v24.579h4.058v-9.774h11.851zM77.132 52.417h12.682c5.634 0 8.076.907 8.076 4.13s-2.718 4.177-8.076 4.177H77.132zm55.301 10.953h10.52v5.037c-1.928 1.345-5 2.525-10.4 2.525-8 0-12.568-2.916-12.568-9.574 0-6.5 4.568-9.53 12.568-9.53 6.181 0 8.9 1.3 11.148 3.187l2.165-2.718c-3.07-2.481-7.171-3.661-13.235-3.661-9.569 0-16.9 4.292-16.9 12.8 0 8.67 7.25 12.685 16.9 12.685 6.418 0 11.033-1.5 14.066-4.091V60.018h-10.916zm46.921-14.739c-9.373 0-17.29 4.292-17.29 12.8 0 8.67 7.838 12.685 17.29 12.685s17.131-4.094 17.131-12.761c0-8.508-7.794-12.724-17.131-12.724m-.076 22.3c-7.917 0-12.962-3.195-12.962-9.574 0-6.228 5.045-9.53 12.962-9.53s12.954 3.386 12.954 9.604c0 6.382-5.037 9.5-12.954 9.5M88.86 12.107l2.8-.138-6.31-6.306a18 18 0 0 0 .3 4.076c.427 2.64 3.213 2.369 3.213 2.369m21.977-2.369c.254-1.343.353-2.71.294-4.076l-6.3 6.306 2.8.138s2.786.271 3.213-2.369"/><path fill="#d5aa41" d="M97.378 34.15c.48.479 1.256.479 1.735 0l18.123-18.119c6.1-6.113 3.491-12.761.817-16.026l-2.668 2.7c.68.93 1.198 1.97 1.532 3.072.782 2.713-.005 5.266-2.34 7.6L98.246 29.72 81.91 13.384c-2.335-2.335-3.122-4.889-2.34-7.6.333-1.104.85-2.144 1.532-3.074L78.436 0c-2.653 3.216-5.313 9.892.826 16.031zM70.066 95.177h-2.692V99.8h-1.48V87.982h4.479a3.62 3.62 0 0 1 3.851 3.612 3.49 3.49 0 0 1-2.606 3.411l2.827 4.795h-1.67zm-2.692-1.407H70.3a2.2 2.2 0 1 0 0-4.383h-2.926zm19.727 3.2h-5.678l-1.157 2.83h-1.572l4.836-11.818h1.381L89.883 99.8h-1.609zm-5.126-1.358h4.568l-2.306-5.593zm23.127-1.723a5.75 5.75 0 0 1-1.71 4.26 5.76 5.76 0 0 1-4.281 1.653h-3.94v-11.82h3.94a5.75 5.75 0 0 1 5.579 3.6 5.8 5.8 0 0 1 .412 2.307m-1.511 0a4.36 4.36 0 0 0-4.526-4.519h-2.416v9.04h2.413a4.36 4.36 0 0 0 4.526-4.521m7.346-5.907h1.48v11.82h-1.48zm7.286 5.913a6.19 6.19 0 0 1 3.759-5.776 6.183 6.183 0 0 1 8.487 4.451 6.19 6.19 0 0 1-2.614 6.376 6.2 6.2 0 0 1-3.446 1.049 5.98 5.98 0 0 1-6.186-6.1m10.859 0a4.675 4.675 0 1 0-4.672 4.657 4.545 4.545 0 0 0 4.672-4.657"/></svg>