<svg width="683" height="382" viewBox="0 0 683 382" fill="none" xmlns="http://www.w3.org/2000/svg">
<path d="M444.283 164.031C434.853 162.239 424.792 157.357 417.778 151.174L412.445 146.472L426.69 132.117L430.719 135.653C437.718 141.799 446.831 145.374 455.58 145.401C464.281 145.427 469.141 143.311 471.477 138.477C474.551 132.116 469.702 125.823 458.627 121.798C432.635 112.349 427.185 109.03 423.046 100.141C416.466 86.0053 422.231 70.6038 436.448 64.3373C453.237 56.9408 474.043 59.4844 489.06 70.7701L496.346 76.2428L489.623 83.0271C485.925 86.7578 482.634 89.8113 482.305 89.8113C481.979 89.8113 479.156 87.8902 476.031 85.5442C463.854 76.394 448.339 76.1559 444.949 85.0688C442.61 91.2219 447.173 95.3605 461.503 100.089C485.711 108.075 494.317 115.418 496.694 130.113C498.221 139.547 492.907 151.702 484.811 157.296C474.988 164.084 458.736 166.786 444.295 164.038L444.283 164.031ZM535.635 164.444C525.203 162.603 516.582 156.707 513.09 149.016C510.194 142.644 510.434 131.283 513.608 124.464C519.557 111.686 536.285 103.749 564.972 100.09L575.638 98.7303L575.387 94.6597C575.056 89.2928 572.156 84.5192 567.601 81.8433C564.707 80.1433 562.17 79.6962 555.907 79.7831C546.972 79.9067 542.682 81.4117 535.376 86.9869L530.569 90.6576L516.974 76.8434L521.241 73.1062C532.247 63.4646 550.052 58.4945 565.235 60.8189C581.177 63.2605 591.639 70.7478 596.665 83.3185C598.935 88.9953 599.063 90.9569 599.415 125.8L599.785 162.333H577.237V152.461L573.77 155.271C568.222 159.769 562.586 162.384 554.99 163.994C547.257 165.633 542.978 165.731 535.635 164.435V164.444ZM562.095 143.577C571.502 138.891 576.17 130.984 576.17 119.736C576.17 114.645 576.348 114.683 563.025 117.006C546.433 119.899 538.571 124.16 535.672 131.829C534.012 136.221 536.039 141.701 540.28 144.286C545.378 147.394 555.069 147.079 562.095 143.577ZM645.925 164.508C635.373 162.255 628.834 157.592 624.37 149.137L621.49 143.676L620.871 49.9433L631.827 38.9487C637.852 32.9015 643.907 27.459 643.914 27.9087C643.922 28.439 644.424 35.8722 644.424 45.5516V63.1528H674.373L673.757 81.8199L644.424 82.4133V137.972L647.542 141.09C650.106 143.654 651.552 144.209 655.683 144.209C658.956 144.209 661.995 143.412 664.403 141.923L668.1 139.638L682.289 153.929L679.089 156.633C670.895 163.557 656.965 166.863 645.925 164.508Z" fill="white"/>
<path d="M381.732 0H0V381.732H381.732V0Z" fill="#E40A22"/>
<path d="M174.236 322.772C172.77 322.51 168.688 321.797 165.169 321.186C137.658 316.417 111.424 299.292 93.736 274.547L89.7184 268.923L108.178 250.014C118.329 239.613 126.969 230.962 127.374 230.788C127.685 231.151 129.27 233.418 132.087 237.58C144.533 259.833 166.73 272.374 190.745 270.73C220.241 268.707 239.501 247.777 237.989 219.366C237.42 208.523 233.499 199.622 225.392 190.766L219.704 184.553L257.344 146.912L261.241 150.615C267.296 156.367 277.191 169.127 281.291 176.463C297.15 204.87 296.682 241.509 280.085 271.102C273.244 283.295 256.233 300.469 244.059 307.473C225.728 318.014 211.271 322.168 190.73 322.803C183.103 323.038 175.664 323.016 174.198 322.755L174.236 322.772ZM173.957 183.912C164.723 174.663 157.168 166.624 157.168 166.042C157.168 164.694 258.233 63.5792 258.951 64.2217C259.234 64.4893 267.194 72.3666 276.639 81.7247L293.813 98.7401L242.827 149.726C214.791 177.766 191.615 200.712 191.312 200.712C191.01 200.712 183.209 193.145 173.976 183.9L173.957 183.912ZM92.6403 59.9055H249.415L201.453 107.905H140.603L92.6403 59.9055Z" fill="white"/>
</svg>
