<svg width="226" height="90" viewBox="0 0 226 90" fill="none" xmlns="http://www.w3.org/2000/svg">
<path d="M118.4 39.3C116.1 39.3 114.2 40.2 112.5 41.9C110.8 43.6 110 46 110 49.2C110 52.4 110.8 54.8 112.3 56.8C113.9 58.7 115.8 59.7 118.2 59.7C120.6 59.7 122.5 58.8 124 57C125.5 55.2 126.2 52.7 126.2 49.5C126.2 46.3 125.5 43.8 124 42.1C122.6 40.2 120.7 39.3 118.4 39.3Z" fill="white"/>
<path d="M43.3 48.9H55.2C51.9 37.7 49.9 30.4 49.3 26.9C49 29 47 36.3 43.3 48.9Z" fill="white"/>
<path d="M0.799995 89.7H217V21.7H196L225.3 0.300003H0.799995V89.7ZM60.9 68.1L57.9 58H40.6L37.6 68.1H25.8L42.3 18.7H56.5L73 68.1H60.9ZM90.2 68.1H79.5V16.2H90.2V68.1ZM133 63.1C130.2 66.7 126.3 68.5 121.3 68.5C116.3 68.5 112.6 66.5 110.1 62.6V81.8H99.4V30.9H110V36.6C112.6 32.5 116.3 30.4 121.1 30.4C125.9 30.4 129.8 32.1 132.7 35.5C135.6 38.9 137.1 43.4 137.1 49.1C137.1 54.8 135.8 59.5 133 63.1ZM173.5 68.1H163V63.6C161.4 66.8 158.4 68.4 153.8 68.4C150.2 68.4 147.4 67.4 145.3 65.3C143.3 63.2 142.3 60.6 142.3 57.2C142.3 53.9 143.6 51.2 146.2 49.2C148.8 47.2 152.7 46.2 157.8 46.2H162.5V43.6C162.5 40.5 160.5 38.9 156.4 38.9C152.3 38.9 148.6 40 145.1 42.3V32.7C148 31 152.2 30.2 157.6 30.2C163 30.2 167 31.3 169.6 33.6C172.2 35.9 173.5 39.4 173.5 44.2V68.1Z" fill="white"/>
<path d="M154.9 54C153.9 54.8 153.4 55.8 153.4 57C153.4 59.5 154.8 60.7 157.7 60.7C159.2 60.7 160.4 60.2 161.2 59.3C162 58.4 162.4 57.1 162.4 55.5V52.8H159C157.3 52.8 155.9 53.2 154.9 54Z" fill="white"/>
</svg>
