<svg width="220" height="246" viewBox="0 0 220 246" fill="none" xmlns="http://www.w3.org/2000/svg">
<path d="M18.899 94L158.899 0L158.899 66L73.3989 122.5C65.8989 128 59.8989 140 59.8989 151H0.898991C0.898946 139.5 -3.4788 115.29 18.899 94Z" fill="white"/>
<path d="M84.8989 126.5L219.899 36V118.5C219.899 125 214.399 132.5 209.399 136L133.899 183.5C126.899 188.5 121.399 195 121.399 202V218C121.399 235.5 109.899 246 94.8989 246C79.8989 246 68.8989 235.5 68.8989 218V152.5C68.8989 142 78.8989 131 84.8989 126.5Z" fill="white"/>
</svg>
