<svg width="1507" height="819" viewBox="0 0 1507 819" fill="none" xmlns="http://www.w3.org/2000/svg">
<path d="M1117.14 135.701L1171.25 110.37C1222.72 266.428 1208.44 351.993 1106.31 501.19H1054C1126.68 378.505 1142.97 299.511 1117.14 135.701Z" fill="#787778"/>
<path d="M1227.17 86.8481L1301.13 54.2798C1377.37 202.881 1385.21 345.479 1261.45 501.19H1209.14C1279.68 365.64 1296.73 287.686 1275.88 164.65C1268.52 121.226 1256.29 120.129 1236.19 117.607L1227.17 86.8481Z" fill="#787778"/>
<path d="M1416.58 0C1481.52 86.8481 1584.35 276.83 1412.98 503H1357.06C1495.96 287.686 1429.21 25.3301 1342.62 75.992L1326.39 43.4236L1416.58 0Z" fill="#787778"/>
<path d="M0 45H76V169H0V45Z" fill="#C20B21"/>
<path d="M0 45H895L729.5 122H0V45Z" fill="#C20B21"/>
<path d="M369.5 228H498.001L181 373C141.5 392 130 411.5 170 437H53.5009C20.0001 410 23.0004 399.5 56.0005 373C89.0006 346.5 369.5 228 369.5 228Z" fill="#C20B21"/>
<path d="M280.5 400C648.5 372.5 873.5 419.5 884 561.5C884 691.5 725 816 438 819C359.5 819 186 812 31 730.5L254 765.5C565 788.5 799.5 675 802 561.5C802 472.5 689 400 280.5 400Z" fill="#C20B21"/>
<path d="M31 730.5C255 756.5 491.5 689.5 549 606C510.5 689.5 413.5 742.5 259 767L31 730.5Z" fill="#C20B21"/>
</svg>
