<svg width="436" height="233" viewBox="0 0 436 233" fill="none" xmlns="http://www.w3.org/2000/svg">
<path d="M98.8989 2.38419e-06H162.899L64.8989 233H0.898926L98.8989 2.38419e-06Z" fill="#D22627"/>
<path d="M317.399 0H381.399L332.399 116H268.399L317.399 0Z" fill="#D22627"/>
<path d="M168.399 9.5L135.899 85L198.899 233H262.899L168.399 9.5Z" fill="#D22627"/>
<path d="M172.899 0H308.899L283.899 59H197.899L172.899 0Z" fill="#D22627"/>
<path d="M246.899 173H349.399C365.899 173 376.899 158.5 376.899 144C376.899 127.5 362.899 113 340.899 116L365.899 58C385.899 58 435.899 88 435.899 144C435.899 203 381.899 233 358.399 233H272.399L246.899 173Z" fill="#D22627"/>
</svg>
