<svg width="598" height="211" viewBox="0 0 598 211" fill="none" xmlns="http://www.w3.org/2000/svg">
<path d="M61.6245 70.6862C58.4875 71.1021 53.4104 71.5595 46.3933 72.0586C39.4588 72.4745 34.3817 72.9943 31.1621 73.6181C23.691 86.0945 18.9648 93.414 16.9835 95.5766C15.0435 97.7391 12.6288 98.8204 9.73942 98.8204C7.51047 98.8204 5.65301 98.1342 4.16704 96.7618C2.72235 95.3894 2 93.7259 2 91.7713C2 89.5671 6.23088 81.9357 14.6927 68.8771C14.445 68.2533 14.3212 67.6919 14.3212 67.1928C14.3212 64.1153 16.612 61.9112 21.1938 60.5803C48.9318 23.6087 64.7409 5.12287 68.6209 5.12287C73.0376 5.12287 75.6587 7.88847 76.4842 13.4197C76.4842 21.155 77.0002 33.1323 78.0321 49.3516C79.064 65.5709 79.7863 74.5955 80.1991 76.4253C80.6119 78.2552 81.1485 80.397 81.8089 82.8507C82.5106 85.7202 82.8615 87.9868 82.8615 89.6503C82.8615 92.1871 81.7883 94.4329 79.6419 96.3875C77.5368 98.3422 75.1633 99.3195 72.5216 99.3195C67.362 99.3195 63.7296 89.775 61.6245 70.6862ZM59.4575 35.3157C53.9676 42.8847 48.354 50.4537 42.6165 58.0227C44.7216 57.6068 47.7142 57.2741 51.5942 57.0246C56.1347 56.775 59.0034 56.5671 60.2004 56.4008C60.2004 50.9111 59.9528 43.8828 59.4575 35.3157Z" fill="black"/>
<path d="M111.281 99.8185L107.318 125.208C106.947 127.662 105.832 129.679 103.975 131.259C102.117 132.881 99.9501 133.692 97.4735 133.692C95.2033 133.692 93.4077 133.026 92.0869 131.696C90.766 130.406 90.1056 128.764 90.1056 126.767C90.1056 125.603 91.4058 117.348 94.0062 102.002C97.8863 78.1304 100.322 59.2079 101.312 45.2344C101.642 39.9943 102.963 35.9395 105.275 33.0699C107.628 30.2004 110.269 28.7656 113.2 28.7656C115.512 28.7656 117.328 29.5558 118.649 31.1361C119.969 32.6749 120.465 34.5671 120.135 36.8129L119.887 37.4367C125.913 34.4008 131.713 32.8828 137.285 32.8828C151.361 32.8828 158.398 40.9716 158.398 57.1493C158.398 71.4556 154.745 82.3516 147.439 89.8374C140.174 97.3232 131.795 101.066 122.302 101.066C118.339 101.066 114.665 100.65 111.281 99.8185ZM117.596 56.8998C116.853 63.4707 115.718 72.017 114.191 82.5387C117.658 83.7448 121.249 84.3478 124.964 84.3478C130.701 84.3478 134.85 81.811 137.409 76.7372C140.009 71.6635 141.31 65.8828 141.31 59.3951C141.31 52.7826 139.122 49.4764 134.747 49.4764C129.504 49.4764 123.788 51.9509 117.596 56.8998Z" fill="black"/>
<path d="M179.14 99.8185L175.177 125.208C174.806 127.662 173.691 129.679 171.834 131.259C169.976 132.881 167.809 133.692 165.333 133.692C163.063 133.692 161.267 133.026 159.946 131.696C158.625 130.406 157.965 128.764 157.965 126.767C157.965 125.603 159.265 117.348 161.865 102.002C165.746 78.1304 168.181 59.2079 169.171 45.2344C169.502 39.9943 170.823 35.9395 173.134 33.0699C175.487 30.2004 178.129 28.7656 181.059 28.7656C183.371 28.7656 185.187 29.5558 186.508 31.1361C187.829 32.6749 188.324 34.5671 187.994 36.8129L187.746 37.4367C193.773 34.4008 199.572 32.8828 205.144 32.8828C219.22 32.8828 226.257 40.9716 226.257 57.1493C226.257 71.4556 222.604 82.3516 215.298 89.8374C208.034 97.3232 199.655 101.066 190.161 101.066C186.198 101.066 182.525 100.65 179.14 99.8185ZM185.455 56.8998C184.712 63.4707 183.577 72.017 182.05 82.5387C185.517 83.7448 189.108 84.3478 192.823 84.3478C198.561 84.3478 202.709 81.811 205.268 76.7372C207.869 71.6635 209.169 65.8828 209.169 59.3951C209.169 52.7826 206.981 49.4764 202.606 49.4764C197.364 49.4764 191.647 51.9509 185.455 56.8998Z" fill="black"/>
<path d="M245.947 78.6087C249.496 82.9338 254.78 85.0964 261.797 85.0964C267.245 85.0964 272.095 83.9527 276.347 81.6654C280.144 79.6276 283.075 78.6087 285.139 78.6087C288.771 78.6087 290.588 80.189 290.588 83.3497C290.588 88.2155 287.327 92.2495 280.805 95.4518C274.283 98.6125 267.142 100.193 259.382 100.193C249.847 100.193 242.376 98.051 236.969 93.7675C231.603 89.4423 228.92 83.6408 228.92 76.3629C228.92 66.1739 232.511 56.276 239.693 46.6692C246.917 37.0624 256.472 32.259 268.36 32.259C276.161 32.259 282.229 33.569 286.563 36.189C290.938 38.7675 293.126 42.448 293.126 47.2306C293.126 51.7637 291.392 55.5898 287.925 58.7089C284.499 61.7864 277.936 65.3006 268.236 69.2514L245.947 78.6087ZM247.061 62.7637L262.045 56.775C267.493 54.4045 272.302 52.0132 276.471 49.6011C274.035 48.0624 270.589 47.293 266.131 47.293C258.495 47.293 252.138 52.4499 247.061 62.7637Z" fill="black"/>
<path d="M326.932 39.7448C333.908 33.6314 340.718 30.5747 347.364 30.5747C357.766 30.5747 362.967 36.6049 362.967 48.6654C362.967 51.9508 362.616 55.7977 361.914 60.206L361.171 64.6975C360.139 70.9357 359.623 76.4669 359.623 81.2911C359.623 86.9471 359.479 90.9395 359.19 93.2684C358.901 95.5558 357.828 97.552 355.97 99.2571C354.154 101.004 351.966 101.877 349.407 101.877C344.495 101.877 342.039 99.4858 342.039 94.7032C342.039 84.1815 342.349 76.4669 342.968 71.5595C343.587 66.6106 344.619 61.121 346.064 55.0907C346.642 52.7618 346.931 51.1191 346.931 50.1626C346.931 48.0832 346.229 47.0435 344.825 47.0435C340.904 47.0435 336.735 49.3932 332.319 54.0926C327.902 58.7505 324.558 63.5331 322.288 68.4405C320.059 73.3062 318.697 79.5028 318.202 87.0302C318.037 90.6484 317.706 93.1645 317.211 94.5784C316.716 95.9508 315.622 97.2609 313.93 98.5085C312.279 99.7977 310.277 100.442 307.924 100.442C305.777 100.442 304.003 99.8185 302.599 98.5709C301.237 97.3232 300.556 95.7221 300.556 93.7675L301.051 87.0302C301.381 82.4556 302.702 75.1777 305.014 65.1966C307.243 55.9641 308.522 49.5803 308.853 46.0454C309.183 42.1361 309.513 39.1418 309.843 37.0624C310.215 34.983 311.329 33.1739 313.187 31.6352C315.085 30.0548 317.294 29.2647 319.812 29.2647C325.178 29.2647 327.551 32.5085 326.932 38.9962V39.7448Z" fill="black"/>
<path d="M393.305 39.7448C400.281 33.6314 407.092 30.5747 413.737 30.5747C424.139 30.5747 429.34 36.6049 429.34 48.6654C429.34 51.9508 428.989 55.7977 428.287 60.206L427.544 64.6975C426.512 70.9357 425.996 76.4669 425.996 81.2911C425.996 86.9471 425.852 90.9395 425.563 93.2684C425.274 95.5558 424.201 97.552 422.343 99.2571C420.527 101.004 418.34 101.877 415.78 101.877C410.868 101.877 408.412 99.4858 408.412 94.7032C408.412 84.1815 408.722 76.4669 409.341 71.5595C409.96 66.6106 410.992 61.121 412.437 55.0907C413.015 52.7618 413.304 51.1191 413.304 50.1626C413.304 48.0832 412.602 47.0435 411.199 47.0435C407.277 47.0435 403.108 49.3932 398.692 54.0926C394.275 58.7505 390.932 63.5331 388.661 68.4405C386.433 73.3062 385.07 79.5028 384.575 87.0302C384.41 90.6484 384.08 93.1645 383.584 94.5784C383.089 95.9508 381.995 97.2609 380.303 98.5085C378.652 99.7977 376.65 100.442 374.297 100.442C372.151 100.442 370.376 99.8185 368.972 98.5709C367.61 97.3232 366.929 95.7221 366.929 93.7675L367.424 87.0302C367.755 82.4556 369.076 75.1777 371.387 65.1966C373.616 55.9641 374.896 49.5803 375.226 46.0454C375.556 42.1361 375.886 39.1418 376.216 37.0624C376.588 34.983 377.702 33.1739 379.56 31.6352C381.459 30.0548 383.667 29.2647 386.185 29.2647C391.551 29.2647 393.924 32.5085 393.305 38.9962V39.7448Z" fill="black"/>
<path d="M451.506 14.5425C451.506 11.673 452.682 9.19849 455.035 7.11909C457.388 5.0397 459.967 4 462.774 4C465.127 4 467.129 4.76938 468.78 6.30813C470.431 7.80529 471.257 9.63516 471.257 11.7977C471.257 14.5841 470.08 17.0586 467.727 19.2212C465.416 21.3422 462.795 22.4026 459.864 22.4026C457.47 22.4026 455.468 21.6333 453.858 20.0945C452.29 18.5558 451.506 16.7051 451.506 14.5425ZM445.066 99.3195C442.796 99.3195 440.98 98.6749 439.618 97.3856C438.256 96.0548 437.575 94.3705 437.575 92.3327L439.308 79.6068C440.423 71.0397 441.909 62.6181 443.766 54.3422C445.211 48.2287 446.14 43.5501 446.552 40.3062C446.883 38.0189 447.997 36.0643 449.896 34.4423C451.836 32.7788 454.023 31.9471 456.459 31.9471C458.605 31.9471 460.339 32.5917 461.66 33.8809C463.022 35.1701 463.703 36.8544 463.703 38.9338C463.703 40.5974 462.795 45.4008 460.979 53.344C459.162 61.2873 457.78 68.9603 456.83 76.3629C455.922 83.7656 455.221 88.7145 454.725 91.2098C454.271 93.7051 453.115 95.6805 451.258 97.1361C449.442 98.5917 447.378 99.3195 445.066 99.3195Z" fill="black"/>
<path d="M495.218 39.7448C502.194 33.6314 509.004 30.5747 515.65 30.5747C526.052 30.5747 531.253 36.6049 531.253 48.6654C531.253 51.9508 530.902 55.7977 530.2 60.206L529.457 64.6975C528.425 70.9357 527.909 76.4669 527.909 81.2911C527.909 86.9471 527.765 90.9395 527.476 93.2684C527.187 95.5558 526.114 97.552 524.256 99.2571C522.44 101.004 520.252 101.877 517.693 101.877C512.781 101.877 510.325 99.4858 510.325 94.7032C510.325 84.1815 510.635 76.4669 511.254 71.5595C511.873 66.6106 512.905 61.121 514.35 55.0907C514.928 52.7618 515.216 51.1191 515.216 50.1626C515.216 48.0832 514.515 47.0435 513.111 47.0435C509.19 47.0435 505.021 49.3932 500.604 54.0926C496.188 58.7505 492.844 63.5331 490.574 68.4405C488.345 73.3062 486.983 79.5028 486.488 87.0302C486.323 90.6484 485.992 93.1645 485.497 94.5784C485.002 95.9508 483.908 97.2609 482.216 98.5085C480.565 99.7977 478.563 100.442 476.21 100.442C474.063 100.442 472.289 99.8185 470.885 98.5709C469.523 97.3232 468.842 95.7221 468.842 93.7675L469.337 87.0302C469.667 82.4556 470.988 75.1777 473.3 65.1966C475.529 55.9641 476.808 49.5803 477.139 46.0454C477.469 42.1361 477.799 39.1418 478.129 37.0624C478.501 34.983 479.615 33.1739 481.473 31.6352C483.371 30.0548 485.58 29.2647 488.098 29.2647C493.464 29.2647 495.837 32.5085 495.218 38.9962V39.7448Z" fill="black"/>
<path d="M535.711 75.4272C535.711 65.0302 539.446 55.3195 546.917 46.2949C554.43 37.2703 564.068 32.758 575.832 32.758C582.601 32.758 587.905 35.087 591.744 39.7448C595.624 44.3611 597.564 50.4745 597.564 58.0851C597.564 69.0227 594.014 78.9206 586.914 87.7788C579.856 96.637 571.044 101.066 560.477 101.066C553.129 101.066 547.165 98.6541 542.583 93.8299C538.001 88.9641 535.711 82.8299 535.711 75.4272ZM553.047 72.9319C553.047 76.4669 553.893 79.2949 555.585 81.4159C557.319 83.5369 559.796 84.5974 563.015 84.5974C568.381 84.5974 572.653 82.3308 575.832 77.7977C579.01 73.2231 580.599 67.3592 580.599 60.206C580.599 52.8866 577.813 49.2268 572.241 49.2268C566.792 49.2268 562.231 51.8885 558.557 57.2117C554.884 62.4934 553.047 67.7335 553.047 72.9319Z" fill="black"/>
<path d="M59.6245 66.6862C56.4875 67.1021 51.4104 67.5595 44.3933 68.0586C37.4588 68.4745 32.3817 68.9943 29.1621 69.6181C21.691 82.0945 16.9648 89.414 14.9835 91.5766C13.0435 93.7391 10.6288 94.8204 7.73942 94.8204C5.51047 94.8204 3.65301 94.1342 2.16704 92.7618C0.722346 91.3894 0 89.7259 0 87.7713C0 85.5671 4.23088 77.9357 12.6927 64.8771C12.445 64.2533 12.3212 63.6919 12.3212 63.1928C12.3212 60.1153 14.612 57.9112 19.1938 56.5803C46.9318 19.6087 62.7409 1.12287 66.6209 1.12287C71.0376 1.12287 73.6587 3.88847 74.4842 9.41966C74.4842 17.155 75.0002 29.1323 76.0321 45.3516C77.064 61.5709 77.7863 70.5955 78.1991 72.4253C78.6119 74.2552 79.1485 76.397 79.8089 78.8507C80.5106 81.7202 80.8615 83.9868 80.8615 85.6503C80.8615 88.1871 79.7883 90.4329 77.6419 92.3875C75.5368 94.3422 73.1633 95.3195 70.5216 95.3195C65.362 95.3195 61.7296 85.775 59.6245 66.6862ZM57.4575 31.3157C51.9676 38.8847 46.354 46.4537 40.6165 54.0227C42.7216 53.6068 45.7142 53.2741 49.5942 53.0246C54.1347 52.775 57.0034 52.5671 58.2004 52.4008C58.2004 46.9111 57.9528 39.8828 57.4575 31.3157Z" fill="white"/>
<path d="M109.281 95.8185L105.318 121.208C104.947 123.662 103.832 125.679 101.975 127.259C100.117 128.881 97.9501 129.692 95.4735 129.692C93.2033 129.692 91.4077 129.026 90.0869 127.696C88.766 126.406 88.1056 124.764 88.1056 122.767C88.1056 121.603 89.4058 113.348 92.0062 98.0019C95.8863 74.1304 98.3216 55.2079 99.3123 41.2344C99.6425 35.9943 100.963 31.9395 103.275 29.0699C105.628 26.2004 108.269 24.7656 111.2 24.7656C113.512 24.7656 115.328 25.5558 116.649 27.1361C117.969 28.6749 118.465 30.5671 118.135 32.8129L117.887 33.4367C123.913 30.4008 129.713 28.8828 135.285 28.8828C149.361 28.8828 156.398 36.9716 156.398 53.1493C156.398 67.4556 152.745 78.3516 145.439 85.8374C138.174 93.3232 129.795 97.0662 120.302 97.0662C116.339 97.0662 112.665 96.6503 109.281 95.8185ZM115.596 52.8998C114.853 59.4707 113.718 68.017 112.191 78.5387C115.658 79.7448 119.249 80.3478 122.964 80.3478C128.701 80.3478 132.85 77.811 135.409 72.7372C138.009 67.6635 139.31 61.8828 139.31 55.3951C139.31 48.7826 137.122 45.4764 132.747 45.4764C127.504 45.4764 121.788 47.9509 115.596 52.8998Z" fill="white"/>
<path d="M177.14 95.8185L173.177 121.208C172.806 123.662 171.691 125.679 169.834 127.259C167.976 128.881 165.809 129.692 163.333 129.692C161.063 129.692 159.267 129.026 157.946 127.696C156.625 126.406 155.965 124.764 155.965 122.767C155.965 121.603 157.265 113.348 159.865 98.0019C163.746 74.1304 166.181 55.2079 167.171 41.2344C167.502 35.9943 168.823 31.9395 171.134 29.0699C173.487 26.2004 176.129 24.7656 179.059 24.7656C181.371 24.7656 183.187 25.5558 184.508 27.1361C185.829 28.6749 186.324 30.5671 185.994 32.8129L185.746 33.4367C191.773 30.4008 197.572 28.8828 203.144 28.8828C217.22 28.8828 224.257 36.9716 224.257 53.1493C224.257 67.4556 220.604 78.3516 213.298 85.8374C206.034 93.3232 197.655 97.0662 188.161 97.0662C184.198 97.0662 180.525 96.6503 177.14 95.8185ZM183.455 52.8998C182.712 59.4707 181.577 68.017 180.05 78.5387C183.517 79.7448 187.108 80.3478 190.823 80.3478C196.561 80.3478 200.709 77.811 203.268 72.7372C205.869 67.6635 207.169 61.8828 207.169 55.3951C207.169 48.7826 204.981 45.4764 200.606 45.4764C195.364 45.4764 189.647 47.9509 183.455 52.8998Z" fill="white"/>
<path d="M243.947 74.6087C247.496 78.9338 252.78 81.0964 259.797 81.0964C265.245 81.0964 270.095 79.9527 274.347 77.6654C278.144 75.6276 281.075 74.6087 283.139 74.6087C286.771 74.6087 288.588 76.189 288.588 79.3497C288.588 84.2155 285.327 88.2495 278.805 91.4518C272.283 94.6125 265.142 96.1928 257.382 96.1928C247.847 96.1928 240.376 94.051 234.969 89.7675C229.603 85.4423 226.92 79.6408 226.92 72.3629C226.92 62.1739 230.511 52.276 237.693 42.6692C244.917 33.0624 254.472 28.259 266.36 28.259C274.161 28.259 280.229 29.569 284.563 32.189C288.938 34.7675 291.126 38.448 291.126 43.2306C291.126 47.7637 289.392 51.5898 285.925 54.7089C282.499 57.7864 275.936 61.3006 266.236 65.2514L243.947 74.6087ZM245.061 58.7637L260.045 52.775C265.493 50.4045 270.302 48.0132 274.471 45.6011C272.035 44.0624 268.589 43.293 264.131 43.293C256.495 43.293 250.138 48.4499 245.061 58.7637Z" fill="white"/>
<path d="M324.932 35.7448C331.908 29.6314 338.718 26.5747 345.364 26.5747C355.766 26.5747 360.967 32.6049 360.967 44.6654C360.967 47.9508 360.616 51.7977 359.914 56.206L359.171 60.6975C358.139 66.9357 357.623 72.4669 357.623 77.2911C357.623 82.9471 357.479 86.9395 357.19 89.2684C356.901 91.5558 355.828 93.552 353.97 95.2571C352.154 97.0038 349.966 97.8771 347.407 97.8771C342.495 97.8771 340.039 95.4858 340.039 90.7032C340.039 80.1815 340.349 72.4669 340.968 67.5595C341.587 62.6106 342.619 57.121 344.064 51.0907C344.642 48.7618 344.931 47.1191 344.931 46.1626C344.931 44.0832 344.229 43.0435 342.825 43.0435C338.904 43.0435 334.735 45.3932 330.319 50.0926C325.902 54.7505 322.558 59.5331 320.288 64.4405C318.059 69.3062 316.697 75.5028 316.202 83.0302C316.037 86.6484 315.706 89.1645 315.211 90.5784C314.716 91.9508 313.622 93.2609 311.93 94.5085C310.279 95.7977 308.277 96.4423 305.924 96.4423C303.777 96.4423 302.003 95.8185 300.599 94.5709C299.237 93.3232 298.556 91.7221 298.556 89.7675L299.051 83.0302C299.381 78.4556 300.702 71.1777 303.014 61.1966C305.243 51.9641 306.522 45.5803 306.853 42.0454C307.183 38.1361 307.513 35.1418 307.843 33.0624C308.215 30.983 309.329 29.1739 311.187 27.6352C313.085 26.0548 315.294 25.2647 317.812 25.2647C323.178 25.2647 325.551 28.5085 324.932 34.9962V35.7448Z" fill="white"/>
<path d="M391.305 35.7448C398.281 29.6314 405.092 26.5747 411.737 26.5747C422.139 26.5747 427.34 32.6049 427.34 44.6654C427.34 47.9508 426.989 51.7977 426.287 56.206L425.544 60.6975C424.512 66.9357 423.996 72.4669 423.996 77.2911C423.996 82.9471 423.852 86.9395 423.563 89.2684C423.274 91.5558 422.201 93.552 420.343 95.2571C418.527 97.0038 416.34 97.8771 413.78 97.8771C408.868 97.8771 406.412 95.4858 406.412 90.7032C406.412 80.1815 406.722 72.4669 407.341 67.5595C407.96 62.6106 408.992 57.121 410.437 51.0907C411.015 48.7618 411.304 47.1191 411.304 46.1626C411.304 44.0832 410.602 43.0435 409.199 43.0435C405.277 43.0435 401.108 45.3932 396.692 50.0926C392.275 54.7505 388.932 59.5331 386.661 64.4405C384.433 69.3062 383.07 75.5028 382.575 83.0302C382.41 86.6484 382.08 89.1645 381.584 90.5784C381.089 91.9508 379.995 93.2609 378.303 94.5085C376.652 95.7977 374.65 96.4423 372.297 96.4423C370.151 96.4423 368.376 95.8185 366.972 94.5709C365.61 93.3232 364.929 91.7221 364.929 89.7675L365.424 83.0302C365.755 78.4556 367.076 71.1777 369.387 61.1966C371.616 51.9641 372.896 45.5803 373.226 42.0454C373.556 38.1361 373.886 35.1418 374.216 33.0624C374.588 30.983 375.702 29.1739 377.56 27.6352C379.459 26.0548 381.667 25.2647 384.185 25.2647C389.551 25.2647 391.924 28.5085 391.305 34.9962V35.7448Z" fill="white"/>
<path d="M449.506 10.5425C449.506 7.67297 450.682 5.19849 453.035 3.11909C455.388 1.0397 457.967 0 460.774 0C463.127 0 465.129 0.769376 466.78 2.30813C468.431 3.80529 469.257 5.63516 469.257 7.79773C469.257 10.5841 468.08 13.0586 465.727 15.2212C463.416 17.3422 460.795 18.4026 457.864 18.4026C455.47 18.4026 453.468 17.6333 451.858 16.0945C450.29 14.5558 449.506 12.7051 449.506 10.5425ZM443.066 95.3195C440.796 95.3195 438.98 94.6749 437.618 93.3856C436.256 92.0548 435.575 90.3705 435.575 88.3327L437.308 75.6068C438.423 67.0397 439.909 58.6181 441.766 50.3422C443.211 44.2287 444.14 39.5501 444.552 36.3062C444.883 34.0189 445.997 32.0643 447.896 30.4423C449.836 28.7788 452.023 27.9471 454.459 27.9471C456.605 27.9471 458.339 28.5917 459.66 29.8809C461.022 31.1701 461.703 32.8544 461.703 34.9338C461.703 36.5974 460.795 41.4008 458.979 49.344C457.162 57.2873 455.78 64.9603 454.83 72.3629C453.922 79.7656 453.221 84.7145 452.725 87.2098C452.271 89.7051 451.115 91.6805 449.258 93.1361C447.442 94.5917 445.378 95.3195 443.066 95.3195Z" fill="white"/>
<path d="M493.218 35.7448C500.194 29.6314 507.004 26.5747 513.65 26.5747C524.052 26.5747 529.253 32.6049 529.253 44.6654C529.253 47.9508 528.902 51.7977 528.2 56.206L527.457 60.6975C526.425 66.9357 525.909 72.4669 525.909 77.2911C525.909 82.9471 525.765 86.9395 525.476 89.2684C525.187 91.5558 524.114 93.552 522.256 95.2571C520.44 97.0038 518.252 97.8771 515.693 97.8771C510.781 97.8771 508.325 95.4858 508.325 90.7032C508.325 80.1815 508.635 72.4669 509.254 67.5595C509.873 62.6106 510.905 57.121 512.35 51.0907C512.928 48.7618 513.216 47.1191 513.216 46.1626C513.216 44.0832 512.515 43.0435 511.111 43.0435C507.19 43.0435 503.021 45.3932 498.604 50.0926C494.188 54.7505 490.844 59.5331 488.574 64.4405C486.345 69.3062 484.983 75.5028 484.488 83.0302C484.323 86.6484 483.992 89.1645 483.497 90.5784C483.002 91.9508 481.908 93.2609 480.216 94.5085C478.565 95.7977 476.563 96.4423 474.21 96.4423C472.063 96.4423 470.289 95.8185 468.885 94.5709C467.523 93.3232 466.842 91.7221 466.842 89.7675L467.337 83.0302C467.667 78.4556 468.988 71.1777 471.3 61.1966C473.529 51.9641 474.808 45.5803 475.139 42.0454C475.469 38.1361 475.799 35.1418 476.129 33.0624C476.501 30.983 477.615 29.1739 479.473 27.6352C481.371 26.0548 483.58 25.2647 486.098 25.2647C491.464 25.2647 493.837 28.5085 493.218 34.9962V35.7448Z" fill="white"/>
<path d="M533.711 71.4272C533.711 61.0302 537.446 51.3195 544.917 42.2949C552.43 33.2703 562.068 28.758 573.832 28.758C580.601 28.758 585.905 31.087 589.744 35.7448C593.624 40.3611 595.564 46.4745 595.564 54.0851C595.564 65.0227 592.014 74.9206 584.914 83.7788C577.856 92.637 569.044 97.0662 558.477 97.0662C551.129 97.0662 545.165 94.6541 540.583 89.8299C536.001 84.9641 533.711 78.8299 533.711 71.4272ZM551.047 68.9319C551.047 72.4669 551.893 75.2949 553.585 77.4159C555.319 79.5369 557.796 80.5974 561.015 80.5974C566.381 80.5974 570.653 78.3308 573.832 73.7977C577.01 69.2231 578.599 63.3592 578.599 56.206C578.599 48.8866 575.813 45.2268 570.241 45.2268C564.792 45.2268 560.231 47.8885 556.557 53.2117C552.884 58.4934 551.047 63.7335 551.047 68.9319Z" fill="white"/>
<path d="M262.851 128.968L259.941 158.163C258.951 168.31 258.104 175.609 257.403 180.059C257.196 181.015 256.99 183.095 256.784 186.297C256.288 194.115 254.761 199.335 252.202 201.955C249.684 204.575 247.269 205.885 244.958 205.885C242.687 205.885 240.83 205.178 239.385 203.764C237.982 202.35 237.28 200.665 237.28 198.711C237.28 198.004 237.548 196.735 238.085 194.905C238.704 192.826 239.096 190.539 239.261 188.043C239.468 185.507 240.19 178.083 241.428 165.773L245.081 130.028L238.457 130.278C230.944 130.569 224.98 130.236 220.563 129.28C216.188 128.282 214 126.098 214 122.73C214 120.026 214.929 117.614 216.786 115.493C218.685 113.331 221.141 112.25 224.154 112.25L241.676 113.372C244.772 113.372 249.993 113.144 257.341 112.686C264.647 112.229 269.641 112 272.324 112L291.766 112.374C295.027 112.374 297.132 112.457 298.081 112.624C299.03 112.79 300.042 113.456 301.115 114.62C302.188 115.743 302.725 117.219 302.725 119.049C302.725 121.669 301.693 124.019 299.629 126.098C297.565 128.178 295.316 129.217 292.88 129.217L266.257 128.968H262.851Z" fill="black"/>
<path d="M332.196 179.185L352.628 141.507L360.244 126.535C361.276 124.497 363.505 121.191 366.931 116.616C370.398 112 373.927 109.692 377.518 109.692C379.665 109.692 381.46 110.42 382.905 111.875C384.391 113.289 385.134 114.994 385.134 116.991C385.134 119.195 384.267 121.233 382.534 123.104C379.603 126.597 377.044 130.403 374.856 134.52L344.641 190.414C340.885 197.526 337.728 202.62 335.168 205.698C332.609 208.817 329.802 210.376 326.748 210.376C324.89 210.376 323.342 209.981 322.104 209.191C320.866 208.442 319.896 207.299 319.194 205.76C318.534 204.221 317.295 198.565 315.479 188.792C313.704 179.019 311.971 166.75 310.278 151.987C309.783 148.202 308.937 142.588 307.74 135.144C306.997 130.112 306.625 125.953 306.625 122.667C306.625 117.926 307.74 114.703 309.969 112.998C312.198 111.293 314.509 110.44 316.903 110.44C318.678 110.44 320.123 110.856 321.237 111.688C322.393 112.478 323.219 113.56 323.714 114.932C324.209 116.263 324.54 118.716 324.705 122.293C324.87 125.828 325.097 128.427 325.386 130.091C325.716 131.713 326.521 137.556 327.8 147.62C328.956 158.974 330.422 169.495 332.196 179.185Z" fill="black"/>
<path d="M260.851 124.968L257.941 154.163C256.951 164.31 256.104 171.609 255.403 176.059C255.196 177.015 254.99 179.095 254.784 182.297C254.288 190.115 252.761 195.335 250.202 197.955C247.684 200.575 245.269 201.885 242.958 201.885C240.687 201.885 238.83 201.178 237.385 199.764C235.982 198.35 235.28 196.665 235.28 194.711C235.28 194.004 235.548 192.735 236.085 190.905C236.704 188.826 237.096 186.539 237.261 184.043C237.468 181.507 238.19 174.083 239.428 161.773L243.081 126.028L236.457 126.278C228.944 126.569 222.98 126.236 218.563 125.28C214.188 124.282 212 122.098 212 118.73C212 116.026 212.929 113.614 214.786 111.493C216.685 109.331 219.141 108.25 222.154 108.25L239.676 109.372C242.772 109.372 247.993 109.144 255.341 108.686C262.647 108.229 267.641 108 270.324 108L289.766 108.374C293.027 108.374 295.132 108.457 296.081 108.624C297.03 108.79 298.042 109.456 299.115 110.62C300.188 111.743 300.725 113.219 300.725 115.049C300.725 117.669 299.693 120.019 297.629 122.098C295.565 124.178 293.316 125.217 290.88 125.217L264.257 124.968H260.851Z" fill="white"/>
<path d="M330.196 175.185L350.628 137.507L358.244 122.535C359.276 120.497 361.505 117.191 364.931 112.616C368.398 108 371.927 105.692 375.518 105.692C377.665 105.692 379.46 106.42 380.905 107.875C382.391 109.289 383.134 110.994 383.134 112.991C383.134 115.195 382.267 117.233 380.534 119.104C377.603 122.597 375.044 126.403 372.856 130.52L342.641 186.414C338.885 193.526 335.728 198.62 333.168 201.698C330.609 204.817 327.802 206.376 324.748 206.376C322.89 206.376 321.342 205.981 320.104 205.191C318.866 204.442 317.896 203.299 317.194 201.76C316.534 200.221 315.295 194.565 313.479 184.792C311.704 175.019 309.971 162.75 308.278 147.987C307.783 144.202 306.937 138.588 305.74 131.144C304.997 126.112 304.625 121.953 304.625 118.667C304.625 113.926 305.74 110.703 307.969 108.998C310.198 107.293 312.509 106.44 314.903 106.44C316.678 106.44 318.123 106.856 319.237 107.688C320.393 108.478 321.219 109.56 321.714 110.932C322.209 112.263 322.54 114.716 322.705 118.293C322.87 121.828 323.097 124.427 323.386 126.091C323.716 127.713 324.521 133.556 325.8 143.62C326.956 154.974 328.422 165.495 330.196 175.185Z" fill="white"/>
</svg>
