<svg width="137" height="69" viewBox="0 0 137 69" fill="none" xmlns="http://www.w3.org/2000/svg">
<path d="M0 0H137V69H0V0Z" fill="#AB3D47"/>
<path d="M1 1H68V68H1V1Z" fill="white"/>
<path d="M60.6002 51.5751C59.2261 51.5748 57.8518 51.5752 56.4777 51.5743C56.3477 51.5743 56.2178 51.5655 56.0878 51.5608C56.0312 51.4606 56.0564 51.351 56.0564 51.2458C56.0553 40.2466 56.0556 29.2473 56.0532 18.248C56.0532 18.0149 56.0871 17.8 56.227 17.6084C56.3469 17.5047 56.4932 17.5309 56.6327 17.5307C57.7656 17.529 58.8984 17.5319 60.0312 17.5285C60.3558 17.5274 60.6773 17.4874 60.9928 17.4071C61.0095 16.9412 61.0327 17.007 60.6115 17.0005C60.5997 17.0003 60.5878 17.0005 60.576 17.0005C53.7211 17.0005 46.8663 17.0005 40.0115 17.0005C39.9168 17.0005 39.8221 17.0008 39.7274 17.0019C39.6468 17.0027 39.5905 17.0322 39.5923 17.1247C39.5943 17.2197 39.5971 17.3147 39.5996 17.4097C39.7359 17.57 39.9237 17.5273 40.0951 17.5278C41.3907 17.5318 42.6862 17.5287 43.9818 17.5313C44.1318 17.5316 44.2906 17.4964 44.4266 17.601C44.5621 17.7503 44.5227 17.9368 44.5227 18.1109C44.5248 29.0244 44.5231 39.9378 44.5309 50.8513C44.5312 51.2163 44.4709 51.4822 44.0762 51.564C43.6735 51.5677 43.2709 51.5748 42.8683 51.5741C42.451 51.5733 42.5295 51.6241 42.3625 51.2279C40.9271 47.8229 39.4949 44.4168 38.0594 41.0119C35.8024 35.6584 33.5412 30.3067 31.3644 24.9196C31.093 24.2477 30.8255 23.5739 30.4961 22.9271C29.9769 21.9075 29.3974 20.9288 28.6386 20.0651C27.7241 19.024 26.6485 18.203 25.388 17.6304C24.4002 17.1818 23.3575 17.0012 22.2794 17.0007C20.4428 16.9998 18.6063 17.0004 16.7698 17.0005C15.6678 17.0005 14.5659 17.0013 13.464 17C13.1843 16.9996 13.2045 17.0213 13.2082 17.2911C13.2094 17.3781 13.2597 17.4153 13.3433 17.4201C13.4141 17.4242 13.4846 17.4346 13.5552 17.4422C13.649 17.5647 13.7944 17.5896 13.9268 17.6374C14.2523 17.755 14.5577 17.911 14.8358 18.1177C15.5538 18.6514 16.1787 19.2804 16.748 19.9709C17.7355 21.1685 18.5008 22.5117 19.2948 23.8371C19.4144 24.0367 19.3735 24.2173 19.3136 24.4165C18.8238 26.0453 18.3263 27.6719 17.8389 29.3013C16.9526 32.2641 16.0551 35.2234 15.1637 38.1847C14.1387 41.59 13.1036 44.9923 12.0851 48.3996C11.8388 49.2237 11.5928 50.0415 10.9974 50.6959C10.9362 50.7513 10.8795 50.8128 10.8133 50.8614C10.1964 51.3135 9.51599 51.5788 8.74214 51.5755C7.97481 51.5723 7.20747 51.5749 6.44014 51.575C6.34575 51.575 6.25119 51.5729 6.15688 51.5763C6.03548 51.5806 6.00838 51.6074 6.0026 51.7173C5.99015 51.955 6.01465 51.9849 6.24908 51.9863C6.68588 51.9886 7.12268 51.9849 7.55941 51.9875C7.99596 51.9901 13.1108 51.988 13.2764 51.9876C14.1771 51.9861 15.0777 51.9868 15.9784 51.9868C16.0614 51.9868 16.1444 51.9888 16.2273 51.9857C16.3713 51.9803 16.397 51.9552 16.4037 51.824C16.4149 51.6012 16.396 51.5803 16.1751 51.5754C16.1041 51.5738 16.0329 51.575 15.9618 51.575C15.2983 51.575 14.6345 51.5765 13.9709 51.5738C13.8053 51.5733 13.6375 51.5743 13.4746 51.5493C12.9111 51.4626 12.561 51.1014 12.4994 50.5309C12.4611 50.176 12.4685 49.8229 12.5691 49.4706C13.3518 46.7278 14.9613 41.0831 14.9895 41.0054C15.0327 40.8065 15.1099 40.6874 15.2869 40.6204C15.4267 40.595 15.5692 40.6038 15.7111 40.6038C18.8975 40.6033 22.0839 40.603 25.271 40.6031C26.0957 40.6065 25.9914 40.5073 26.3376 41.3332C27.0266 42.9764 27.7078 44.6247 28.5893 46.1768C29.4899 47.7629 30.6066 49.1606 32.1057 50.2305C33.9974 51.5806 36.1447 51.9351 38.4092 51.9876C39.6161 52.0155 55.782 51.9876 55.9119 51.9876C57.4638 51.9866 59.0157 51.9871 60.5675 51.9867C60.674 51.9867 60.7806 51.9849 60.8871 51.9812C60.9582 51.9787 60.9915 51.9323 60.9962 51.8665C61.0004 51.8074 60.9993 51.7476 60.9969 51.6882C60.9941 51.6178 60.953 51.5815 60.8847 51.5794C60.79 51.5763 60.6949 51.5751 60.6002 51.5751ZM25.3106 40.0778H24.799C21.8575 40.0785 18.9161 40.0783 15.9746 40.0783H15.3133H15.4602C15.3133 40.0783 15.3051 39.9549 15.3184 39.9017C15.3322 39.8432 15.3533 39.789 15.3695 39.7352C16.4812 36.0433 17.5949 32.3519 18.709 28.6606C19.0381 27.57 19.3688 26.4799 19.6988 25.3896C19.783 25.2471 19.8603 25.3139 19.9256 25.4032C20.0077 25.5154 20.0465 25.6504 20.0975 25.7781C21.9261 30.3655 23.7727 34.9456 25.5901 39.5374C25.655 39.7013 25.8382 40.0778 25.3106 40.0778Z" fill="#AB3D47"/>
<path d="M92.1717 20.992V52H88.4284V20.992H81.3V17H99.3V20.992H92.1717Z" fill="white"/>
<path d="M99.9031 17L109.521 41.597L119.097 17H123.5L109.521 52L95.5 17H99.9031Z" fill="white"/>
</svg>
