<svg width="800" height="305" viewBox="0 0 800 305" fill="none" xmlns="http://www.w3.org/2000/svg">
<path d="M647.54 304.9C731.736 304.9 799.99 236.646 799.99 152.45C799.99 68.2542 731.736 0 647.54 0C563.344 0 495.09 68.2542 495.09 152.45C495.09 236.646 563.344 304.9 647.54 304.9Z" fill="#E2E2E4"/>
<path d="M421.56 205.32C400.51 200.61 385.3 188.2 384.61 142.07H472.1L472.03 135.98H472.01C471.07 81.03 442.26 66.36 410.63 65.09V67.99C421.89 72.49 425.42 99.51 425.42 135.85H384.58C384.58 108.51 390.37 74.75 401.95 67.99V65.09C365.23 66.33 327.65 87.41 324.66 135.98H231.96V142.07H252.22V222.48C252.22 261.4 281.16 271.68 306.57 271.68C330.37 271.68 349.02 256.89 352.88 239.85L350.95 238.56C347.09 243.06 340.66 248.21 331.33 248.21C312.67 248.21 306.24 239.53 306.24 221.52V142.07H324.45V142.28C324.45 185.7 358.54 219.14 400.67 219.14C440.87 219.14 464.35 196.31 468.53 172.51L465.63 171.87C459.19 199.21 437.64 208.86 421.56 205.32ZM70.012 64.338C70.697 64.347 71.07 64.37 71.07 64.37C113.2 64.37 136.68 90.74 136.68 128.69V176.61C136.68 176.61 136.7 196.59 149.1 198.89C151.67 199.24 157.74 198.75 157.83 186.36C157.88 184.14 157.89 181.85 157.89 179.5V101.03C157.89 89.78 154.03 85.27 140.84 80.45V77.88L212.56 64.37V109.39C235.39 74.98 245.04 71.12 254.69 66.62C263.69 62.44 277.2 64.37 285.56 71.77C298.1 82.71 299.71 102 288.77 114.19C277.84 126.74 259.18 128.02 246.32 117.41C240.21 111.62 236.03 104.87 236.03 97.47C236.03 93.29 225.74 95.54 212.55 115.48V179.48C212.55 197.17 214.16 210.03 225.74 213.25V218.86L122.29 218.73H122C119.03 218.67 83.3 217.41 83.3 186.89V137.36C56.93 143.15 57.25 162.76 57.25 177.88C57.25 177.88 56.93 199.11 69.79 199.11C72.36 199.11 75.9 198.79 78.15 196.54L80.08 198.15C73 210.37 58.85 218.73 40.2 218.73C27.98 218.73 0 213.27 0 185.93C0 153.77 26.05 147.66 83.3 134.15V113.57C83.3 84.31 68.82 66.94 50.17 70.8L48.56 67.91C57.857 64.644 66.367 64.321 69.644 64.335L70.012 64.338ZM45.01 123.87C56.91 118.72 62.38 105.86 57.55 93.96C54.98 88.17 51.44 83.67 45.97 81.74C35.68 78.2 41.15 74.34 41.79 73.7L40.5 71.45C28.6 77.56 22.81 83.35 19.27 87.53C13.8 93.32 12.2 102.97 15.41 111.33C20.25 122.91 33.44 128.37 45.01 123.87Z" fill="#E2E2E4"/>
<path d="M799.99 152.45C799.99 139.59 798.38 127.11 795.38 115.18L745.65 74.08V223.89L649.65 144.4V216.76H611.74V99.81L582.74 75.76C586.57 79.15 588.5 83.55 588.5 88.96C588.5 94.4 586.53 98.78 582.59 102.11C578.65 105.44 573.89 107.1 568.32 107.1C562.81 107.1 558.1 105.46 554.18 102.2L579.01 123H585.43V216.76H551.22L657.34 304.55C736.97 299.49 799.99 233.35 799.99 152.45Z" fill="#373737"/>
<path d="M745.65 74.08V223.89L649.65 144.4V216.76H611.74V66.95L707.33 146.44V74.08H745.65ZM585.45 123V216.76H551.21V123H585.45ZM554.16 75.71C558.17 72.32 562.96 70.62 568.53 70.62C574.1 70.62 578.82 72.32 582.7 75.71C586.57 79.11 588.51 83.53 588.51 88.96C588.51 94.4 586.54 98.78 582.6 102.11C578.66 105.44 573.9 107.1 568.33 107.1C562.76 107.1 558 105.44 554.06 102.11C550.12 98.78 548.15 94.4 548.15 88.96C548.14 83.53 550.15 79.11 554.16 75.71Z" fill="white"/>
</svg>
