<svg width="364" height="292" viewBox="0 0 364 292" fill="none" xmlns="http://www.w3.org/2000/svg">
<path d="M175.336 0.304688V1.63281L208.117 39.2871H234.475C271.243 39.2871 292.729 60.3284 292.729 89.7871C292.729 119.246 271.243 142.281 234.475 142.281H204.574V143.611L309.119 291.791H363.385V290.461L274.123 167.088C314.213 159.114 339.242 130.764 339.242 87.5723C339.242 33.0848 300.259 0.304688 236.469 0.304688H175.336ZM0.355484 0.746094V291.791H87.625C157.617 291.791 196.377 256.572 196.377 205.85C196.155 167.531 174.007 141.396 130.373 134.309C162.268 126.556 178.879 103.298 178.879 73.3965C178.879 29.7622 144.104 0.746094 79.8711 0.746094H0.355484ZM45.0977 39.5078H77.8789C114.647 39.5078 132.145 56.7845 132.145 81.5918C132.145 107.728 112.654 126.776 73.8926 128.77V150.256C123.95 152.249 149.422 167.531 149.422 201.42C149.422 235.309 125.943 252.807 85.6309 252.807H45.0977V39.5078Z" fill="#0069FF"/>
</svg>
