<svg width="354" height="91" viewBox="0 0 354 91" fill="none" xmlns="http://www.w3.org/2000/svg">
<path d="M19.0137 0.00407403C27.6837 0.00407403 35.0737 5.65407 37.2937 13.5741H30.0037C28.1037 9.40407 23.9337 6.71407 19.0237 6.71407C12.2137 6.71407 6.87367 12.1041 6.87367 18.9141C6.87367 25.7241 12.2037 31.1141 19.0237 31.1141C23.7237 31.1141 27.7937 28.5841 29.8537 24.5641H37.1937C34.8737 32.2741 27.5837 37.8241 19.0237 37.8241C8.61368 38.0341 -0.206325 29.3141 0.00367459 18.9141C-0.206325 8.51407 8.61368 -0.205926 19.0137 0.00407403Z" fill="white"/>
<path d="M60.8437 29.3641H46.9037L44.0537 37.3941H37.0337L50.4337 0.434074H57.2937L70.7037 37.4041H63.6837L60.8337 29.3741L60.8437 29.3641ZM58.5737 22.9241L53.8737 9.72407L49.1737 22.9241H58.5737Z" fill="white"/>
<path d="M95.3237 20.1841C96.4337 21.6141 96.9637 23.6141 96.9637 26.1541C96.9637 33.2841 91.1037 37.8241 83.7137 37.8241C76.5837 37.9341 70.3037 32.3841 70.4537 25.2541H77.3137C77.3137 28.8941 79.9537 31.1141 83.9637 31.1141C87.7137 31.1141 90.0937 29.5841 90.0937 26.1541C90.0937 24.0441 88.6137 22.6741 86.6637 21.9841C85.7137 21.6141 84.3937 21.1941 82.6537 20.7141C80.2737 20.0241 78.3737 19.3941 76.8937 18.7641C75.4637 18.1341 74.2037 17.1241 73.1437 15.7541C72.1437 14.3841 71.6137 12.5341 71.6137 10.2041C71.6137 3.59407 76.1037 0.00407403 83.5437 0.00407403C90.9837 0.00407403 95.4737 4.38407 95.4737 11.6241H88.6137C88.6137 8.08407 86.9237 6.71407 83.5437 6.71407C80.1637 6.71407 78.4737 8.03407 78.4737 10.4141C78.7937 13.7441 80.8537 14.2141 85.6537 15.3741C90.3537 16.4341 93.2037 17.2741 95.3137 20.1841" fill="white"/>
<path d="M119.984 29.3641H106.044L103.194 37.3941H96.1737L109.584 0.434074H116.454L129.864 37.4041H122.844L119.994 29.3741L119.984 29.3641ZM117.714 22.9241L113.014 9.72407L108.314 22.9241H117.714Z" fill="white"/>
<path d="M152.724 21.8141C153.724 23.1841 154.204 25.0341 154.204 27.3041C154.204 33.6441 149.134 37.8141 142.694 37.8141C136.254 37.8141 131.184 33.1641 131.184 26.9841H134.564C134.564 31.4741 137.944 34.5841 142.804 34.5841C147.664 34.5841 150.834 31.8941 150.834 27.2941C150.834 24.0741 149.094 22.0641 146.764 20.9541C145.604 20.3741 144.074 19.7941 142.114 19.1541C137.834 17.6741 135.514 16.7241 133.664 14.2441C132.764 13.0341 132.344 11.3941 132.344 9.38407C132.344 3.86407 136.674 0.00407403 142.534 0.00407403C148.394 0.00407403 152.724 4.17407 152.724 9.88407H149.344C149.344 5.81407 146.544 3.23407 142.534 3.23407C138.524 3.23407 135.724 5.82407 135.724 9.46407C135.724 12.2641 137.304 13.9041 139.424 14.9041C140.484 15.3741 141.954 15.9641 143.804 16.5441C148.244 17.9741 150.824 19.0241 152.724 21.8241" fill="white"/>
<path d="M179.814 27.4641H161.334L157.264 37.3941H153.724L168.824 0.434074H172.204L187.414 37.4041H183.874L179.804 27.4741L179.814 27.4641ZM178.594 24.3041L170.514 4.87407L162.484 24.3041H178.594Z" fill="white"/>
<path d="M219.254 0.434074V37.3941H215.874L192.374 6.29407V37.3941H189.004V0.434074H192.374L215.874 31.5341V0.434074H219.254Z" fill="white"/>
<path d="M222.424 0.434074H234.354C240.904 0.434074 246.234 5.39407 246.234 11.8941C246.234 18.0241 241.534 22.9341 236.204 23.5641L245.394 37.4041H241.594L232.724 23.8341H225.804V37.4041H222.424V0.434074ZM234.364 20.8141C239.174 20.8141 242.864 16.8041 242.864 11.8941C242.864 6.98407 239.164 3.44407 234.364 3.44407H225.804V20.8141H234.364Z" fill="white"/>
<path d="M252.524 3.65407V16.4341H268.894V19.6541H252.524V34.1741H270.904V37.3941H249.144V0.434074H270.904V3.65407H252.524Z" fill="white"/>
<path d="M312.194 0.434074V37.3941H308.814V7.92407L294.554 37.3941H291.444L277.184 7.92407V37.3941H273.804V0.434074H277.184L293.024 32.8541L308.814 0.434074H312.194Z" fill="white"/>
<path d="M334.114 0.00407403C344.464 -0.205926 353.334 8.50407 353.124 18.9041C353.334 29.3041 344.464 38.0241 334.114 37.8141C323.714 38.0241 314.894 29.3141 315.104 18.9041C314.894 8.50407 323.714 -0.215926 334.114 0.00407403ZM334.114 3.33407C325.614 3.17407 318.324 10.3041 318.484 18.9141C318.324 27.5241 325.614 34.6541 334.114 34.4941C342.674 34.6541 349.904 27.5241 349.744 18.9141C349.904 10.3041 342.664 3.17407 334.114 3.33407Z" fill="white"/>
<path d="M129.274 55.9341H120.754C116.064 55.9441 112.254 52.1541 112.234 47.4641V47.4141V72.9641C112.234 82.3741 119.864 90.0041 129.274 90.0041C138.684 90.0041 146.314 82.3741 146.314 72.9641C146.314 63.5541 138.684 55.9241 129.274 55.9241M129.164 76.9341C127.264 76.9341 125.714 75.4041 125.704 73.5041V68.2941C125.704 69.2441 126.474 70.0141 127.424 70.0241H129.154C131.064 70.0241 132.614 71.5741 132.614 73.4841C132.614 75.3941 131.064 76.9441 129.154 76.9441" fill="white"/>
<path d="M103.284 77.2241C106.794 77.2741 109.624 80.1041 109.674 83.6141V90.0041H103.284C99.7537 90.0041 96.8937 87.1441 96.8937 83.6141V77.2241H103.284Z" fill="white"/>
<path d="M165.914 55.9341C156.504 56.0041 148.934 63.6741 148.994 73.0841C149.054 82.4041 156.594 89.9341 165.914 90.0041H182.954V72.9741C182.934 63.5741 175.324 55.9541 165.914 55.9341ZM169.594 76.6441H165.924C163.894 76.6441 162.254 75.0041 162.254 72.9741C162.254 70.9441 163.894 69.3041 165.924 69.3041C167.954 69.3041 169.594 70.9441 169.594 72.9741V76.6441Z" fill="white"/>
<path d="M211.074 55.9341C215.744 56.0141 219.514 59.7841 219.594 64.4541C219.564 69.1441 215.764 72.9441 211.074 72.9741H219.594V90.0141H194.044C189.354 90.0241 185.544 86.2341 185.524 81.5441C185.524 81.5241 185.524 81.5041 185.524 81.4941C185.554 76.8041 189.354 73.0041 194.044 72.9741C189.354 72.9841 185.544 69.1941 185.524 64.5041C185.524 64.4841 185.524 64.4641 185.524 64.4541V55.9341H211.074Z" fill="white"/>
<path d="M256.234 55.9341C256.264 65.3141 248.684 72.9441 239.304 72.9741H239.194V81.4941C239.164 86.1841 235.364 89.9841 230.674 90.0141H222.164V72.9841C222.134 63.6041 229.714 55.9741 239.094 55.9441H256.234V55.9341Z" fill="white"/>
</svg>
