<svg width="2643" height="658" viewBox="0 0 2643 658" fill="none" xmlns="http://www.w3.org/2000/svg">
<path d="M819.27 181.362C809.013 192.664 797.309 201.995 784.159 209.355C771.009 216.452 753.913 220 732.873 220C717.092 220 702.364 217.109 688.688 211.326C675.274 205.544 663.702 197.79 653.971 188.065C644.24 178.076 636.612 166.511 631.089 153.369C625.566 139.964 622.805 125.771 622.805 110.789V110C622.805 95.0179 625.566 80.8244 631.089 67.4193C636.612 54.0143 644.24 42.3178 653.971 32.3297C663.702 22.3417 675.274 14.4564 688.688 8.67382C702.364 2.89127 717.355 0 733.662 0C753.65 0 770.22 3.15412 783.37 9.46236C796.52 15.7706 808.093 24.4444 818.087 35.4839L781.397 74.9104C774.559 67.8136 767.458 62.1625 760.094 57.957C752.993 53.7515 744.051 51.6487 733.267 51.6487C725.64 51.6487 718.67 53.2258 712.358 56.3799C706.309 59.2712 700.917 63.3453 696.183 68.6021C691.712 73.859 688.162 80.0358 685.532 87.1326C683.165 93.9665 681.981 101.326 681.981 109.211V110C681.981 118.148 683.165 125.771 685.532 132.867C688.162 139.964 691.844 146.141 696.578 151.398C701.312 156.655 706.967 160.86 713.542 164.014C720.117 166.906 727.481 168.351 735.634 168.351C745.629 168.351 754.308 166.38 761.672 162.437C769.299 158.232 776.795 152.712 784.159 145.878L819.27 181.362Z" fill="white"/>
<path d="M1040.31 215.269H982.317V192.401C974.953 200.55 966.142 207.121 955.885 212.115C945.627 216.846 933.135 219.211 918.406 219.211C908.412 219.211 898.944 217.897 890.002 215.269C881.322 212.378 873.695 208.172 867.12 202.652C860.545 197.133 855.285 190.43 851.34 182.545C847.658 174.397 845.817 165.066 845.817 154.552V153.763C845.817 142.198 847.921 132.21 852.129 123.799C856.337 115.388 862.123 108.423 869.487 102.903C877.114 97.3835 886.056 93.3094 896.314 90.681C906.834 87.7897 918.406 86.3441 931.031 86.3441C941.814 86.3441 951.151 87.1326 959.041 88.7097C967.194 90.2867 975.084 92.3895 982.711 95.0179V91.4695C982.711 78.853 978.898 69.2593 971.271 62.6882C963.643 56.1171 952.334 52.8315 937.343 52.8315C925.77 52.8315 915.513 53.8829 906.571 55.9857C897.892 57.8256 888.687 60.5854 878.955 64.2652L863.964 18.5305C875.536 13.5364 887.635 9.46236 900.259 6.30823C912.883 3.1541 928.137 1.57704 946.022 1.57704C978.898 1.57704 1002.83 9.59377 1017.82 25.6272C1032.81 41.6607 1040.31 64.0024 1040.31 92.6523V215.269ZM983.5 140.753V130.108C978.24 127.742 972.323 125.902 965.747 124.588C959.435 123.011 952.597 122.222 945.233 122.222C932.346 122.222 922.22 124.719 914.856 129.713C907.492 134.707 903.809 141.935 903.809 151.398V152.186C903.809 160.335 906.834 166.643 912.883 171.111C918.932 175.579 926.822 177.814 936.554 177.814C950.756 177.814 962.065 174.397 970.482 167.563C979.161 160.729 983.5 151.792 983.5 140.753Z" fill="white"/>
<path d="M1246.95 151.004C1246.95 162.832 1244.85 173.082 1240.64 181.756C1236.7 190.167 1231.04 197.133 1223.68 202.652C1216.31 208.172 1207.63 212.378 1197.64 215.269C1187.91 217.897 1177.39 219.211 1166.08 219.211C1151.09 219.211 1135.7 216.714 1119.92 211.72C1104.4 206.464 1089.54 198.315 1075.34 187.276L1100.98 147.849C1112.56 156.26 1124 162.569 1135.31 166.774C1146.88 170.98 1157.66 173.082 1167.66 173.082C1176.34 173.082 1182.65 171.637 1186.59 168.746C1190.8 165.854 1192.9 162.043 1192.9 157.312V156.523C1192.9 153.369 1191.72 150.609 1189.35 148.244C1186.99 145.878 1183.7 143.907 1179.49 142.33C1175.55 140.49 1170.94 138.781 1165.68 137.204C1160.42 135.627 1154.9 133.919 1149.11 132.079C1141.75 129.976 1134.25 127.479 1126.63 124.588C1119.26 121.434 1112.56 117.491 1106.51 112.76C1100.46 107.766 1095.46 101.72 1091.52 94.6236C1087.83 87.5269 1085.99 78.853 1085.99 68.6021V67.8136C1085.99 57.037 1087.97 47.5747 1091.91 39.4265C1096.12 31.0155 1101.64 23.9188 1108.48 18.1362C1115.58 12.3536 1123.73 8.01672 1132.94 5.12543C1142.41 2.23416 1152.53 0.78852 1163.32 0.78852C1176.73 0.78852 1190.27 3.02269 1203.95 7.49104C1217.89 11.6965 1230.65 17.6105 1242.22 25.233L1219.34 66.6308C1208.82 60.5854 1198.56 55.8542 1188.57 52.4373C1178.57 48.7575 1169.76 46.9176 1162.13 46.9176C1154.77 46.9176 1149.25 48.3632 1145.56 51.2545C1141.88 53.8829 1140.04 57.2999 1140.04 61.5054V62.2939C1140.04 65.1852 1141.22 67.8136 1143.59 70.1792C1145.96 72.282 1149.11 74.3847 1153.06 76.4874C1157 78.3273 1161.48 80.1673 1166.47 82.0072C1171.73 83.8471 1177.26 85.687 1183.04 87.5269C1190.41 89.8925 1197.9 92.7837 1205.53 96.2007C1213.16 99.3548 1219.99 103.297 1226.04 108.029C1232.09 112.76 1237.09 118.542 1241.03 125.376C1244.98 132.21 1246.95 140.49 1246.95 150.215V151.004Z" fill="white"/>
<path d="M1471.8 215.269H1413.81V192.401C1406.45 200.55 1397.64 207.121 1387.38 212.115C1377.12 216.846 1364.63 219.211 1349.9 219.211C1339.91 219.211 1330.44 217.897 1321.5 215.269C1312.82 212.378 1305.19 208.172 1298.61 202.652C1292.04 197.133 1286.78 190.43 1282.83 182.545C1279.15 174.397 1277.31 165.066 1277.31 154.552V153.763C1277.31 142.198 1279.42 132.21 1283.62 123.799C1287.83 115.388 1293.62 108.423 1300.98 102.903C1308.61 97.3835 1317.55 93.3094 1327.81 90.681C1338.33 87.7897 1349.9 86.3441 1362.53 86.3441C1373.31 86.3441 1382.65 87.1326 1390.54 88.7097C1398.69 90.2867 1406.58 92.3895 1414.21 95.0179V91.4695C1414.21 78.853 1410.39 69.2593 1402.77 62.6882C1395.14 56.1171 1383.83 52.8315 1368.84 52.8315C1357.27 52.8315 1347.01 53.8829 1338.07 55.9857C1329.39 57.8256 1320.18 60.5854 1310.45 64.2652L1295.46 18.5305C1307.03 13.5364 1319.13 9.46236 1331.75 6.30823C1344.38 3.1541 1359.63 1.57704 1377.52 1.57704C1410.39 1.57704 1434.33 9.59377 1449.32 25.6272C1464.31 41.6607 1471.8 64.0024 1471.8 92.6523V215.269ZM1415 140.753V130.108C1409.74 127.742 1403.82 125.902 1397.24 124.588C1390.93 123.011 1384.09 122.222 1376.73 122.222C1363.84 122.222 1353.71 124.719 1346.35 129.713C1338.99 134.707 1335.3 141.935 1335.3 151.398V152.186C1335.3 160.335 1338.33 166.643 1344.38 171.111C1350.43 175.579 1358.32 177.814 1368.05 177.814C1382.25 177.814 1393.56 174.397 1401.98 167.563C1410.66 160.729 1415 151.792 1415 140.753Z" fill="white"/>
<path d="M0.781006 273.65H124.918V645H0.781006V273.65Z" fill="white"/>
<path d="M326.168 651.366C290.448 651.366 263.215 643.055 244.471 626.432C226.08 609.456 216.885 583.285 216.885 547.918V448.184H182.933V355.347H216.885V282.668H337.309V355.347H404.152V448.184H337.309V521.393C337.309 532.357 339.784 540.138 344.736 544.735C349.687 548.979 356.937 551.102 366.486 551.102C377.804 551.102 390.005 548.095 403.091 542.083V634.921C393.542 639.872 382.047 643.762 368.608 646.591C355.169 649.774 341.022 651.366 326.168 651.366Z" fill="white"/>
<path d="M592.102 582.401C602.712 582.401 611.554 578.511 618.627 570.73C625.7 562.596 629.237 551.632 629.237 537.839V525.637C625.7 524.223 621.456 523.162 616.505 522.454C611.554 521.393 606.602 520.863 601.651 520.863C589.626 520.863 580.431 524.046 574.065 530.412C567.699 536.424 564.516 544.028 564.516 553.224V554.284C564.516 562.772 567.169 569.669 572.474 574.974C577.779 579.925 584.321 582.401 592.102 582.401ZM544.357 651.896C530.564 651.896 517.832 649.951 506.161 646.061C494.49 642.171 484.411 636.512 475.923 629.085C467.435 621.304 460.892 611.932 456.294 600.969C451.696 590.005 449.398 577.273 449.398 562.772V561.711C449.398 532.711 459.3 510.43 479.105 494.868C498.911 479.307 525.79 471.526 559.742 471.526C565.754 471.526 572.12 471.88 578.84 472.587C585.559 472.941 591.925 473.648 597.938 474.709C604.304 475.77 610.139 477.008 615.444 478.423C620.749 479.484 624.993 480.722 628.176 482.136V477.362C628.176 463.923 623.932 453.666 615.444 446.593C606.956 439.166 593.34 435.452 574.596 435.452C559.742 435.452 545.772 437.044 532.686 440.227C519.954 443.056 507.222 446.947 494.49 451.898L473.27 371.792C490.246 365.426 508.46 360.298 527.911 356.408C547.363 352.518 569.821 350.573 595.285 350.573C624.993 350.573 649.573 353.755 669.025 360.121C688.83 366.134 705.099 375.506 717.831 388.238C728.794 399.202 736.575 411.934 741.173 426.434C745.77 440.934 748.069 458.794 748.069 480.014V645H627.646V615.823C617.389 626.786 605.365 635.628 591.572 642.348C578.132 648.714 562.394 651.896 544.357 651.896Z" fill="white"/>
<path d="M812.496 257.735H932.919V645H812.496V257.735Z" fill="white"/>
<path d="M1330.7 582.401C1341.31 582.401 1350.16 578.511 1357.23 570.73C1364.3 562.596 1367.84 551.632 1367.84 537.839V525.637C1364.3 524.223 1360.06 523.162 1355.11 522.454C1350.16 521.393 1345.2 520.863 1340.25 520.863C1328.23 520.863 1319.03 524.046 1312.67 530.412C1306.3 536.424 1303.12 544.028 1303.12 553.224V554.284C1303.12 562.772 1305.77 569.669 1311.08 574.974C1316.38 579.925 1322.92 582.401 1330.7 582.401ZM1282.96 651.896C1269.17 651.896 1256.43 649.951 1244.76 646.061C1233.09 642.171 1223.01 636.512 1214.53 629.085C1206.04 621.304 1199.49 611.932 1194.9 600.969C1190.3 590.005 1188 577.273 1188 562.772V561.711C1188 532.711 1197.9 510.43 1217.71 494.868C1237.51 479.307 1264.39 471.526 1298.34 471.526C1304.36 471.526 1310.72 471.88 1317.44 472.587C1324.16 472.941 1330.53 473.648 1336.54 474.709C1342.91 475.77 1348.74 477.008 1354.05 478.423C1359.35 479.484 1363.6 480.722 1366.78 482.136V477.362C1366.78 463.923 1362.53 453.666 1354.05 446.593C1345.56 439.166 1331.94 435.452 1313.2 435.452C1298.34 435.452 1284.37 437.044 1271.29 440.227C1258.56 443.056 1245.82 446.947 1233.09 451.898L1211.87 371.792C1228.85 365.426 1247.06 360.298 1266.51 356.408C1285.97 352.518 1308.42 350.573 1333.89 350.573C1363.6 350.573 1388.18 353.755 1407.63 360.121C1427.43 366.134 1443.7 375.506 1456.43 388.238C1467.4 399.202 1475.18 411.934 1479.78 426.434C1484.37 440.934 1486.67 458.794 1486.67 480.014V645H1366.25V615.823C1355.99 626.786 1343.97 635.628 1330.17 642.348C1316.73 648.714 1301 651.896 1282.96 651.896Z" fill="white"/>
<path d="M1000.2 369.35H1120.63V645H1000.2V369.35ZM998.08 257.735H1122.75V334.657H998.08V257.735Z" fill="white"/>
<path d="M1820.99 657.659C1708.86 657.659 1630.19 618.777 1564.18 557.288L1664.55 439.735C1716.09 483.139 1764.92 508.458 1818.28 508.458C1876.15 508.458 1911.41 479.522 1911.41 434.31V432.501C1911.41 387.289 1873.43 359.257 1818.28 359.257C1779.39 359.257 1746.84 372.821 1717 390.906L1613.01 333.034L1631.1 12.025H2054.28V156.705H1769.45L1764.02 252.555C1792.96 238.992 1822.8 229.949 1865.3 229.949C1979.23 229.949 2082.32 293.247 2082.32 430.693V432.501C2082.32 573.564 1974.71 657.659 1820.99 657.659Z" fill="white"/>
<path d="M2397.9 657.659C2275.83 657.659 2189.92 613.351 2128.43 545.532L2238.75 435.214C2283.96 481.331 2331.89 507.554 2389.76 507.554C2439.49 507.554 2471.14 482.235 2471.14 443.352V441.544C2471.14 400.852 2434.07 376.438 2368.06 376.438H2293.91L2268.59 285.108L2414.18 153.992H2171.84V12.025H2629.39V137.716L2478.38 267.023C2568.8 286.917 2642.05 337.555 2642.05 445.161V446.969C2642.05 575.373 2538.96 657.659 2397.9 657.659Z" fill="white"/>
</svg>
