<svg width="86" height="14" viewBox="0 0 86 14" fill="none" xmlns="http://www.w3.org/2000/svg">
<path d="M0 0H86V14H0V0Z" fill="black"/>
<path d="M7.84821 7.88003L10.1045 8.67106C9.95296 9.40497 9.71426 10.018 9.38841 10.5102C9.06256 11.0024 8.65715 11.3738 8.17216 11.6243C7.69097 11.8748 7.07716 12 6.33075 12C5.42519 12 4.68446 11.8484 4.10854 11.5452C3.53641 11.2375 3.04196 10.6992 2.62517 9.93013C2.20839 9.16106 2 8.17666 2 6.97693C2 5.37728 2.36563 4.14898 3.09689 3.29202C3.83195 2.43067 4.87011 2 6.21139 2C7.26093 2 8.08502 2.2461 8.68367 2.7383C9.28611 3.2305 9.7332 3.98638 10.025 5.00593L7.75159 5.59262C7.67203 5.29818 7.58867 5.08284 7.50152 4.94661C7.35755 4.71808 7.18136 4.5423 6.97297 4.41925C6.76458 4.2962 6.53156 4.23467 6.27391 4.23467C5.69042 4.23467 5.24332 4.50714 4.93263 5.05208C4.69772 5.45638 4.58026 6.09141 4.58026 6.95715C4.58026 8.02944 4.72045 8.76555 5.00083 9.16546C5.28121 9.56098 5.67526 9.75873 6.18298 9.75873C6.67554 9.75873 7.04685 9.59833 7.29692 9.27752C7.55078 8.95671 7.73454 8.49088 7.84821 7.88003Z" fill="white"/>
<path d="M11.3719 2.1648H13.9465V5.54647H16.7598V2.1648H19.3457V11.8286H16.7598V7.91958H13.9465V11.8286H11.3719V2.1648Z" fill="white"/>
<path d="M26.1828 10.2334H23.2502L22.8467 11.8286H20.2153L23.3468 2.1648H26.1544L29.286 11.8286H26.592L26.1828 10.2334ZM25.6429 8.1437L24.7222 4.66974L23.8072 8.1437H25.6429Z" fill="white"/>
<path d="M30.1328 2.1648H32.5369L35.6741 7.51088V2.1648H38.1009V11.8286H35.6741L32.5539 6.52208V11.8286H30.1328V2.1648Z" fill="white"/>
<path d="M39.8287 2.1648H42.2327L45.37 7.51088V2.1648H47.7968V11.8286H45.37L42.2498 6.52208V11.8286H39.8287V2.1648Z" fill="white"/>
<path d="M49.5018 2.1648H56.4014V4.22808H52.0821V5.76401H56.0889V7.735H52.0821V9.64008H56.5265V11.8286H49.5018V2.1648Z" fill="white"/>
<path d="M57.9189 2.1648H60.4935V9.44891H64.5116V11.8286H57.9189V2.1648Z" fill="white"/>
<path d="M75.9694 11.8286H69.0243C69.1038 11.0332 69.3444 10.2861 69.746 9.58734C70.1515 8.8842 70.9093 8.05581 72.0194 7.10218C72.6976 6.51769 73.1315 6.07383 73.3209 5.7706C73.5104 5.46737 73.6051 5.17952 73.6051 4.90705C73.6051 4.61261 73.5104 4.36212 73.3209 4.15557C73.1353 3.94463 72.9003 3.83916 72.6162 3.83916C72.3206 3.83916 72.0781 3.94683 71.8887 4.16216C71.703 4.3775 71.578 4.75764 71.5136 5.30257L69.1948 5.08504C69.2857 4.32916 69.4524 3.74028 69.6949 3.31839C69.9374 2.89211 70.2784 2.56691 70.7179 2.34278C71.1612 2.11426 71.7731 2 72.5536 2C73.3683 2 74.001 2.10767 74.4519 2.32301C74.9066 2.53834 75.2627 2.87014 75.5204 3.31839C75.7818 3.76225 75.9125 4.26104 75.9125 4.81477C75.9125 5.40365 75.7629 5.96616 75.4635 6.50231C75.168 7.03845 74.6281 7.62733 73.8438 8.26895C73.3777 8.6425 73.0651 8.90398 72.906 9.05339C72.7507 9.20281 72.5669 9.39837 72.3547 9.64008H75.9694V11.8286Z" fill="white"/>
<path d="M80.9367 10.0224H76.7196V7.81411L80.9367 2H82.9543V7.93935H84V10.0224H82.9543V11.8286H80.9367V10.0224ZM80.9367 7.93935V4.90046L78.7088 7.93935H80.9367Z" fill="white"/>
</svg>
