<svg width="301" height="320" viewBox="0 0 301 320" fill="none" xmlns="http://www.w3.org/2000/svg">
<path d="M70.5608 280.254C81.4577 280.133 90.0131 281.531 95.9621 286.231C97.5903 287.509 100.197 290.523 99.9204 293.44C94.6445 293.44 89.3687 293.44 84.0985 293.44C83.5347 290.828 80.8421 289.603 78.2934 288.953C77.3556 288.717 76.4638 288.815 75.3937 288.648C74.4041 288.492 72.9772 288.527 72.0567 288.734C67.6208 289.741 64.8822 291.806 63.5647 295.897C63.2022 297.054 62.6326 298.78 62.9145 300.419C63.7775 305.701 65.7222 309.308 70.4687 310.793C75.7446 312.444 83.4139 310.436 84.0985 305.741H99.9607V305.781C99.5522 307.398 99.3451 308.468 98.6086 309.648C92.6654 319.118 72.0739 321.287 59.0425 316.989C55.2107 315.723 51.7357 313.399 49.3307 310.66C47.996 309.141 46.805 307.272 45.988 305.258C44.4576 301.478 44.636 296.904 46.385 293.527C49.1006 288.291 53.1855 284.546 58.9965 282.451C61.3381 281.606 63.8523 281.174 66.5507 280.61C67.8912 280.489 69.2318 280.369 70.5608 280.254Z" fill="#FEFDFD"/>
<path d="M103.522 280.265H118.026C119.119 280.265 123.032 280.046 123.653 280.397C128.003 286.157 132.358 291.91 136.708 297.669C137.795 299.102 138.877 300.54 139.964 301.973C140.315 302.456 140.764 303.497 141.322 303.733C141.322 295.914 141.322 288.09 141.322 280.265H155.038C155.021 292.687 155.009 305.108 154.992 317.53C150.096 317.53 145.205 317.53 140.309 317.53C139.205 317.53 135.218 317.754 134.602 317.398C128.854 309.533 123.112 301.668 117.37 293.803C117.307 293.814 117.25 293.832 117.192 293.849V317.53C112.641 317.53 108.079 317.53 103.528 317.53C103.522 305.108 103.522 292.692 103.522 280.265Z" fill="#FEFDFD"/>
<path d="M159.52 280.812H183.863C192.124 280.812 199.506 280.904 204.954 283.671C206.681 284.546 208.372 285.788 209.143 287.624C209.741 289.085 209.442 291.306 208.867 292.549C207.676 295.149 204.782 298.135 201.18 298.216V298.388C202.59 298.434 203.999 299.108 205.098 299.579C209.419 301.432 212.681 305.218 210.104 311.046C209.224 313.042 207.319 314.55 205.403 315.528C200.202 318.174 193.241 318.076 185.364 318.076C176.746 318.076 168.138 318.076 159.526 318.076C159.52 305.655 159.52 293.233 159.52 280.812ZM176.072 293.475H185.076C186.618 293.475 188.523 293.659 189.777 293.297C190.951 292.963 191.998 292.198 192.239 290.92C192.447 289.833 191.641 289.125 191.1 288.728C189.15 287.284 183.529 287.854 180.157 287.854C178.794 287.865 177.43 287.877 176.072 287.894V293.475ZM175.934 302.214C175.952 304.504 175.963 306.788 175.98 309.072H185.916C188.275 309.072 190.456 309.107 191.894 308.238C192.734 307.726 194.04 306.869 193.735 305.292C193.465 303.871 192.257 303.008 191.008 302.571C189.61 302.07 187.51 302.214 185.646 302.214C182.413 302.214 179.179 302.214 175.934 302.214Z" fill="#FEFDFD"/>
<path d="M237.087 278.389C247.99 278.274 256.534 279.667 262.488 284.367C264.122 285.65 266.729 288.665 266.447 291.576C261.177 291.576 255.895 291.576 250.625 291.576C250.061 288.97 247.374 287.745 244.82 287.094C243.876 286.859 242.996 286.951 241.92 286.789C240.925 286.628 239.498 286.663 238.577 286.876C234.153 287.877 231.403 289.948 230.097 294.033C229.723 295.195 229.165 296.915 229.435 298.561C230.304 303.843 232.254 307.444 236.995 308.929C242.265 310.586 249.935 308.578 250.619 303.877H266.487V303.923C266.073 305.534 265.866 306.61 265.124 307.789C259.18 317.259 238.595 319.429 225.569 315.125C221.737 313.865 218.262 311.546 215.857 308.802C214.522 307.277 213.331 305.413 212.514 303.394C210.978 299.614 211.157 295.04 212.906 291.663C215.627 286.433 219.706 282.687 225.517 280.593C227.859 279.747 230.373 279.31 233.077 278.746C234.423 278.631 235.758 278.51 237.087 278.389Z" fill="#FEFDFD"/>
<path d="M1.17479 294.488L22.7615 294.338C22.7615 294.338 143.002 228.933 300.104 251.538L300.087 249.243C300.093 249.243 136.84 213.733 1.17479 294.488Z" fill="#ED1C24"/>
<path d="M104.155 201.323L102.791 201.248C103.142 200.471 103.597 199.39 103.833 198.63C106.007 191.668 105.743 186.646 97.0149 186.646C85.1112 186.646 67.4655 208.555 64.583 221.678C61.7811 234.376 70.8485 236.338 71.8841 236.338C83.6613 236.338 90.8703 228.001 93.7528 224.267H95.0185C91.2385 229.192 84.5128 238.035 70.6241 238.035C61.0159 238.035 51.1891 232.754 53.4099 219.843C56.7411 200.454 79.5246 185.835 96.3533 185.835C102.717 185.835 103.833 188.285 105.541 188.47C108.597 188.798 109.437 187.676 110.127 186.249H111.329L104.155 201.323Z" fill="#FEFDFD"/>
<path d="M96.3245 236.332L96.5662 235.256C99.8226 235.256 101.508 235.659 103.902 231.54C103.902 231.54 124.171 193.492 125.724 189.068C126.564 186.646 123.107 187.33 121.012 187.238L121.248 186.203L137.835 186.249L114.258 231.54C113.073 233.881 114.488 235.256 116.467 235.256H119.258L119.033 236.332H96.3245Z" fill="#FEFDFD"/>
<path d="M173.719 222.909C169.79 232.961 164.698 237.707 160.509 237.707C159.203 237.707 156.045 238.185 153.813 235.458C153.157 234.641 153.053 233.202 153.134 231.914L152.99 231.977C150.28 234.813 145.959 237.863 140.258 237.863C134.435 237.863 125.932 234.491 128.158 226.931C131.633 215.108 144.124 214.216 159.658 207.387C165.268 205.212 167.621 201.915 167.972 199.579C168.213 197.968 166.752 195.961 161.257 195.961C157.299 195.961 151.718 197.6 151.81 201.029C151.868 202.876 152.65 203.043 152.288 205.454C152.288 205.454 151.782 208.589 148.048 208.589C144.314 208.589 144.498 205.856 144.665 204.729C144.774 204.01 148.64 194.804 161.539 194.804C174.001 194.804 175.094 202.157 175.181 203.762C175.273 205.379 173.639 208.911 173.639 208.911C172.252 211.823 161.7 231.937 161.361 234.163C161.177 235.458 162.351 235.314 162.632 235.291C165.526 235.049 170.377 229.336 172.994 222.909H173.719ZM156.286 224.031C159.508 218.14 163.599 208.135 164.928 205.937C165.193 205.488 163.835 206.852 161.522 208.106C160.084 208.888 157.328 210.258 157.121 210.361C142.03 217.915 138.664 224.992 138.06 229.02C137.318 234.008 139.734 235.458 143.146 235.458C149.198 235.458 153.07 229.923 156.286 224.031Z" fill="#FEFDFD"/>
<path d="M214.148 208.986L213.521 208.992C215.19 202.387 216.105 196.156 207.031 196.156C200.68 196.156 199.552 202.053 199.587 203.273C199.851 212.599 206.519 217.104 205.311 225.826C204.022 234.997 195.427 238.26 188.523 238.26C182.631 238.26 181.947 234.56 179.156 234.56C176.504 234.56 175.917 236.01 175.135 237.615H174.306L181.164 222.8L181.728 222.737C178.73 237.051 187.13 236.971 188.488 236.971C194.84 236.971 196.158 232.828 196.526 230.458C196.905 228.001 195.881 224.659 194.173 220.717C192.078 215.902 190.134 211.616 191.02 205.845C192.268 197.779 199.667 194.718 206.675 194.793C214.482 194.873 214.045 198.446 216.427 198.446C218.043 198.446 218.625 196.996 219.954 195.391H220.851L214.148 208.986Z" fill="#FEFDFD"/>
<path d="M249.33 209.452L248.686 209.464C250.383 202.928 251.321 196.76 242.058 196.76C235.58 196.76 234.429 202.594 234.458 203.802C234.728 213.037 241.54 217.495 240.309 226.126C238.997 235.204 230.223 238.432 223.17 238.432C217.157 238.432 216.461 234.773 213.613 234.773C210.904 234.773 210.305 236.2 209.5 237.794H208.665L215.662 223.128L216.237 223.071C213.176 237.241 221.754 237.161 223.141 237.161C229.625 237.161 230.971 233.053 231.345 230.711C231.731 228.283 230.695 224.969 228.94 221.068C226.812 216.305 224.821 212.059 225.724 206.351C226.996 198.365 234.55 195.339 241.701 195.408C249.676 195.483 249.227 199.027 251.655 199.027C253.3 199.027 253.899 197.594 255.256 196.001H256.177L249.33 209.452Z" fill="#FEFDFD"/>
<path d="M85.2838 61.2562L127.537 157.879L40.367 98.193C18.4925 83.7059 22.9399 58.8915 35.0451 47.96C52.1902 33.473 76.4178 38.4957 85.2838 61.2562Z" fill="#F36F21"/>
<path d="M143.197 38.4957L127.824 146.648L84.0985 43.8233C74.64 18.1114 95.9103 1.26544 110.098 0.972021C126.352 -0.80578 146.742 11.6158 143.197 38.4957Z" fill="#C9234A"/>
<path d="M209.684 43.5242L166.251 146.648L152.357 53.5696C151.177 39.3875 160.043 39.0941 163.283 36.4302C162.702 34.3648 158.26 34.3648 158.26 34.3648H149.992C149.1 10.1314 168.012 -0.506603 183.379 0.672844C199.926 1.26544 218.55 20.4703 209.684 43.5242Z" fill="#635FAA"/>
<path d="M254.014 97.6004L166.838 157.585L207.906 62.1422C220.316 32.0001 249.279 37.9089 259.618 49.4387C270.848 60.6636 274.105 83.4125 254.014 97.6004Z" fill="#0089CF"/>
<path d="M263.167 168.218H162.402L244.256 111.196C264.358 97.8996 285.634 110.01 291.232 127.443C297.158 146.947 283.857 168.218 263.167 168.218Z" fill="#04B14B"/>
<path d="M2.25067 126.264C9.93146 106.173 31.2018 99.079 50.1132 111.196L131.967 168.218H32.6804C11.9912 168.218 -4.26218 149.306 2.25067 126.264Z" fill="#FDB813"/>
</svg>
