<svg xmlns="http://www.w3.org/2000/svg" xmlns:xlink="http://www.w3.org/1999/xlink" width="150" height="150" viewBox="60 2 960 960">
	<defs>
		<linearGradient id="g1" x1="0" x2="0" y1="962" y2="749.4" gradientUnits="userSpaceOnUse">
			<stop offset="0" stop-color="#594c9e"/>
			<stop offset="1" stop-color="#47388f"/>
		</linearGradient>
		<clipPath id="p1">
			<rect x="60" y="2" width="960" height="960"/>
		</clipPath>
	</defs>
	<style>
		.s0 { fill: #ffffff }
		.s1 { fill: #352d83 }
		.s2 { fill: url(#g1) }
	</style>
	<g clip-path="url(#p1)">
		<path class="s0" d="m0 0h1080v1080h-1080z"/>
		<path fill-rule="evenodd" class="s1" d="m1080 0v658.9h-128.3v-249.2h-183.5l-231.6 249h-276.1c58-75.1 326.1-35 326.1-189.6 0-92.1-86.9-137.5-223.4-137.5-132.4 0-230.5 37.2-238.7 157.8h145.1c4.2-47.1 42.4-66.7 92.8-66.7 53.1 0.4 78.5 18.8 78.5 44.9 0 20.3-19 35-42.7 41.4l-98.5 27.8c-76.3 21.3-139.6 53.1-170.2 122.3h-129.5v-659.1zm-947.6 96.7c-3.4 0-5.6 2.2-5.6 5.6l0.4 147c0 3 2.2 5.1 5.2 5.1h220.3c43.7 0 78.9-35.5 78.9-78.8 0-43.3-35.2-78.9-78.9-78.9h-220.3zm316.7 5.6l0.5 147c0 3.4 2.1 5.1 5.1 5.1h68.2c3.4 0 5.1-2.1 5.1-5.1v-147c0-3.4-2.1-5.6-5.1-5.6h-68.6c-3.5 0-5.2 2.2-5.2 5.6zm98.6 73.3c0 43.3 35.2 78.8 78.9 78.8h222.9c3.4 0 5.1-2.1 5.1-5.1v-78c0-3.4-2.1-5.6-5.6-5.6h-68.1c-3.5 0-5.6 2.2-5.6 5.6l0.4 63.4h-90.4c-22.7 0-59.1-17.5-59.1-58.7 0-41.1 33-59.6 58.7-59.6h89.4c2.1 0 3.3-0.9 4-2.1l5.6-9.9c2-3.3-0.5-8.1-5-7.7h-152.3c-43.7 0-78.9 35.2-78.9 78.9zm326.6-73.3l0.4 147c0 3 2.2 5.1 5.2 5.1h68.1c3 0 5.2-1.7 5.2-5.1v-147c0-3.4-2.2-5.6-5.6-5.6h-67.7c-3.4 0-5.6 2.2-5.6 5.6zm-580.8 14.6c33.9 0 58.8 28.2 58.8 59.1 0 30-24.5 59.2-58.8 59.2h-87.8v-118.3zm537.8 542.2h-149.5l149.5-160.1z"/>
		<path class="s2" d="m0 749.4v330.6h1080v-330.6h-128.5v119.1h-121.5v-119.1z"/>
	</g>
</svg>
