<svg width="1348" height="271" viewBox="0 0 1348 271" fill="none" xmlns="http://www.w3.org/2000/svg">
<path d="M0.312317 1.49854H22.6771V83.4761H53.4783V106H0.312317V1.49854ZM56.5855 1.49854H79.9053V21.396C79.9053 25.5877 79.2156 29.6733 77.836 33.6528C76.4565 37.5793 73.379 42.5669 68.6036 48.6157L59.1324 41.9302C64.3853 36.2528 67.171 30.5488 67.4893 24.8184H56.5855V1.49854ZM97.2591 1.49854H156.076V22.1919H119.783V43.2832H156.076V63.6582H119.783V85.3066H156.076V106H97.2591V1.49854ZM179.479 1.49854H206.221L225.8 64.1357L245.379 1.49854H271.246L284.617 106H263.128L253.975 32.459L230.973 106H220.706L197.148 31.8223L188.472 106H166.665L179.479 1.49854ZM296.718 1.49854H319.162V106H296.718V1.49854ZM337.391 1.49854H359.756V83.4761H390.557V106H337.391V1.49854ZM402.101 1.49854H424.545V106H402.101V1.49854ZM478.51 1.49854H495.941L538.601 106H515.997L507.481 85.4658H467.447L459.25 106H436.726L478.51 1.49854ZM487.265 35.7222L475.088 66.5234H499.84L487.265 35.7222ZM542.981 61.5093H588.905V82.0435H542.981V61.5093ZM598.936 1.49854H633.319C643.772 1.49854 652.023 4.25765 658.071 9.77588C664.173 15.2941 667.224 22.749 667.224 32.1406C667.224 37.4997 665.818 43.071 663.006 48.8545C660.247 54.638 655.127 59.1746 647.645 62.4644L676.855 106H651.068L624.007 65.5684H621.46V106H598.936V1.49854ZM621.619 20.1226V47.3423H626.474C638.2 47.3423 644.064 42.5404 644.064 32.9365C644.064 29.0101 642.525 25.9061 639.447 23.6245C636.423 21.2899 632.205 20.1226 626.793 20.1226H621.619ZM680.917 53.7095C680.917 38.269 686.011 25.5347 696.198 15.5063C706.439 5.42497 718.563 0.384277 732.571 0.384277C748.064 0.384277 760.878 5.4515 771.013 15.5859C781.147 25.6673 786.214 38.4282 786.214 53.8687C786.214 69.203 781.2 81.9373 771.172 92.0718C761.143 102.206 748.515 107.273 733.287 107.273C718.059 107.273 705.51 102.233 695.641 92.1514C685.825 82.07 680.917 69.256 680.917 53.7095ZM733.605 21.2368C724.851 21.0776 717.794 24.1021 712.435 30.3101C707.075 36.5181 704.396 44.5301 704.396 54.3462C704.396 63.6317 707.129 71.3254 712.594 77.4272C718.059 83.5291 724.957 86.5801 733.287 86.5801C742.042 86.5801 749.099 83.5822 754.458 77.5864C759.87 71.5376 762.576 63.5786 762.576 53.7095C762.576 43.9995 759.923 36.1997 754.617 30.3101C749.364 24.4204 742.36 21.396 733.605 21.2368ZM809.219 1.49854H835.961L855.54 64.1357L875.119 1.49854H900.986L914.357 106H892.868L883.715 32.459L860.714 106H850.446L826.888 31.8223L818.213 106H796.405L809.219 1.49854ZM963.786 1.49854H981.216L1023.88 106H1001.27L992.756 85.4658H952.723L944.525 106H922.001L963.786 1.49854ZM972.54 35.7222L960.363 66.5234H985.116L972.54 35.7222ZM1122.01 24.1816L1107.05 38.1895C1103.92 32.7773 1100.05 28.7448 1095.43 26.0918C1090.81 23.3857 1085.99 22.0327 1080.95 22.0327C1072.77 22.0327 1065.66 25.1367 1059.61 31.3447C1053.62 37.5527 1050.62 44.875 1050.62 53.3115C1050.62 62.2786 1053.62 69.8927 1059.61 76.1538C1065.66 82.3618 1072.93 85.4658 1081.42 85.4658C1086.04 85.4658 1090.47 84.2985 1094.71 81.9639C1099.01 79.6292 1102.46 75.2518 1105.06 68.8315H1080.31V48.4565H1128.54V61.9868C1128.54 68.9377 1126.15 76.4191 1121.38 84.4312C1116.6 92.3901 1110.31 98.2267 1102.51 101.941C1094.71 105.602 1086.83 107.433 1078.88 107.433C1064.44 107.433 1052.27 102.206 1042.34 91.7534C1032.42 81.3006 1027.46 68.3805 1027.46 52.9932C1027.46 38.4017 1032.55 25.9326 1042.74 15.5859C1052.98 5.23926 1065.29 0.065918 1079.67 0.065918C1098.03 0.065918 1112.14 8.10449 1122.01 24.1816ZM1211.24 1.49854H1233.28V106H1211.48L1163.48 38.3486V106H1141.04V1.49854H1163.16L1211.24 68.6724V1.49854ZM1287.33 1.49854H1304.76L1347.42 106H1324.81L1316.3 85.4658H1276.26L1268.07 106H1245.54L1287.33 1.49854ZM1296.08 35.7222L1283.91 66.5234H1308.66L1296.08 35.7222ZM308.096 166.499H330.54V271H308.096V166.499ZM417.376 166.499H439.422V271H417.615L369.622 203.349V271H347.178V166.499H369.304L417.376 233.672V166.499ZM496.972 166.499H532.628C547.856 166.499 560.113 171.3 569.399 180.904C578.684 190.508 583.327 203.163 583.327 218.869C583.327 234.627 578.525 247.256 568.921 256.753C559.37 266.251 546.636 271 530.718 271H496.972V166.499ZM519.655 186.237V250.784H528.569C537.802 250.784 545.389 248.264 551.332 243.223C557.275 238.182 560.246 229.772 560.246 217.993C560.246 211.148 558.813 205.1 555.948 199.847C553.083 194.541 548.918 190.959 543.453 189.102C538.04 187.192 532.867 186.237 527.932 186.237H519.655ZM596.542 166.499H618.986V271H596.542V166.499ZM636.579 166.499H670.962C681.415 166.499 689.665 169.258 695.714 174.776C701.816 180.294 704.867 187.749 704.867 197.141C704.867 202.5 703.461 208.071 700.649 213.854C697.89 219.638 692.769 224.175 685.288 227.464L714.497 271H688.71L661.65 230.568H659.103V271H636.579V166.499ZM659.262 185.123V212.342H664.117C675.843 212.342 681.706 207.54 681.706 197.937C681.706 194.01 680.168 190.906 677.09 188.625C674.066 186.29 669.848 185.123 664.435 185.123H659.262ZM728.668 166.499H787.484V187.192H751.192V208.283H787.484V228.658H751.192V250.307H787.484V271H728.668V166.499ZM796.243 166.499H866.52V188.704H842.564V271H820.04V188.704H796.243V166.499ZM871.14 166.499H941.418V188.704H917.461V271H894.937V188.704H871.14V166.499ZM977.953 166.499H995.383L1038.04 271H1015.44L1006.92 250.466H966.89L958.692 271H936.168L977.953 166.499ZM986.707 200.722L974.53 231.523H999.283L986.707 200.722Z" fill="white"/>
</svg>
