<svg width="422" height="800" viewBox="0 0 422 800" fill="none" xmlns="http://www.w3.org/2000/svg">
<path d="M420.755 446.589C414.742 432.189 390.767 413.014 390.767 413.014C390.767 413.014 348.806 347.052 334.413 341.064C320.013 335.052 283.053 306.025 266.266 300.038C249.478 294.05 224.898 288.013 219.491 277.25C217.091 272.45 215.891 265.856 219.491 261.056C223.078 256.256 233.284 241.881 233.284 234.075C233.284 226.281 233.878 215.481 233.878 213.094C233.878 210.694 238.678 196.912 232.678 183.713C223.886 164.348 182.317 154.925 164.328 177.713C158.658 180.959 154.464 189.802 150.661 200.058C149.208 192.528 148.273 186.858 148.122 184.913C147.541 177.106 187.406 86.8656 191.297 76.6859C195.188 66.4922 190.716 51.8016 182.012 43.0984C173.323 34.4078 160.425 10.1172 159.53 4.12969C158.633 -1.88281 152.62 -0.670312 151.736 3.52344C150.827 7.71875 152.342 19.7172 155.93 28.7109C139.445 23.6078 127.748 35.0016 128.342 42.8078C128.848 49.3766 129.82 55.6672 133.698 56.0578C133.256 58.1922 134.292 61.325 137.942 64.9875C147.542 74.5875 163.13 68.5875 159.53 75.775C155.93 82.975 109.167 175.311 110.355 184.911C111.138 191.113 114.434 221.391 117.959 246.881C107.172 249.256 95.375 251.416 89.9672 267.659C81.5797 292.847 64.7812 306.034 64.7812 306.034C48.0062 308.434 40.8063 301.247 48.0062 308.434C55.2062 315.634 77.9922 333.622 94.7672 322.822C101.816 327.317 113.664 333.13 126.447 335.416C122.066 349.222 118.819 360.425 122.355 369.597C134.356 400.784 135.542 437.947 126.903 465.281C122.077 480.528 91.7359 509.275 56.9625 563.237C22.1875 617.212 19.4344 678.728 0.031246 753.353C0.031246 753.353 -2.00314 768.841 37.2187 766.541C91.2562 763.358 67.2062 778.541 137.942 790.539C203.702 801.655 299.423 763.053 324.763 694.036C334.223 709.231 344.461 725.362 344.461 725.362L351.408 769.497C351.408 769.497 348.453 788.772 345.37 792.662C342.288 796.553 348.933 801.252 357.395 799.686C365.884 798.106 380.259 790.188 381.395 783.063C382.533 775.938 380.889 755.273 378.364 750.498C375.837 745.723 376.848 744.409 381.32 747.314C386.17 750.473 385.942 755.197 388.672 757.977C392.916 762.283 396.806 758.52 396.327 756.258C395.872 754.008 392.184 740.998 386.777 728.494C382.205 717.908 373.462 708.864 372.302 705.781L352.142 673.444C376.57 666.698 407.014 669.389 401.784 663.402C384.984 644.214 350.475 596.164 338.475 573.378C326.481 550.591 283.056 476.317 235.081 445.142C235.081 445.142 253.245 369.53 260.445 363.542C267.645 357.542 321.216 378.245 327.216 379.433C333.228 380.62 368.009 426.195 369.197 432.183C370.384 438.183 365.584 456.183 369.197 472.958C372.784 489.758 378.772 475.358 381.172 463.358C381.172 463.358 405.172 496.958 409.972 498.145C414.747 499.345 415.959 487.358 412.372 480.158C408.755 472.964 426.742 460.978 420.755 446.589ZM142.742 55.3922C141.252 53.9016 139.595 53.1437 138.119 53.0172C138.422 49.0266 133.875 42.3063 140.342 38.6047C148.742 33.8172 155.928 38.6047 159.53 47.0047C163.13 55.3922 148.73 61.3922 142.742 55.3922Z" fill="white"/>
</svg>
