<svg width="506" height="96" viewBox="0 0 506 96" fill="none" xmlns="http://www.w3.org/2000/svg">
<path d="M61.8784 21.634H22.508V37.6326H59.0046V54.2666H22.508V91H0.55249V5H61.8784V21.634Z" fill="#929292"/>
<path d="M166.828 91H144.872V33.4164L129.009 70.7851H113.778L97.9153 33.4164V91H77.1093V5H102.743L121.997 48.1444L141.194 5H166.828V91Z" fill="#929292"/>
<path d="M255.684 21.634H228.958V91H206.888V21.634H180.162V5H255.684V21.634Z" fill="#929292"/>
<path d="M346.552 5L315.344 91H290.629L259.42 5H282.583L303.274 65.4137L323.965 5H346.552Z" fill="#929292"/>
<path fill-rule="evenodd" clip-rule="evenodd" d="M362.552 0H505.552V96H328.552L362.552 0ZM430.718 21.7105L375.822 92H350.552L407.366 21.0678H363.042L366.76 5H434.552L430.718 21.7105ZM466.858 89.9395C472.003 88.5658 476.487 86.5243 480.307 83.8151C484.166 81.0678 487.231 77.5382 489.501 73.2263C491.808 68.9145 492.962 63.8395 492.962 58.0013C492.962 53.7276 492.092 50.1599 490.352 47.298C488.612 44.398 486.266 42.0513 483.315 40.2579C480.364 38.4645 476.997 37.1671 473.214 36.3658C469.431 35.5645 465.383 35.1638 461.07 35.1638H458.063C457.23 35.1638 456.549 35.1829 456.02 35.2211L459.197 21.3125H498.807L502.552 5H442.457L431.448 53.0789H433.945C436.48 52.3158 439.317 51.6671 442.457 51.1329C445.597 50.5987 448.567 50.3316 451.366 50.3316C457.722 50.3316 462.432 51.2474 465.496 53.0789C468.599 54.8724 470.15 57.5816 470.15 61.2066C470.15 65.9763 468.277 69.5059 464.532 71.7954C460.824 74.0849 455.906 75.2296 449.777 75.2296C445.692 75.2296 441.833 74.6382 438.201 73.4553C434.569 72.2342 430.918 70.4217 427.249 68.0178H424.865L420.552 86.8487C423.541 88.2605 427.514 89.4625 432.469 90.4546C437.463 91.4849 443.478 92 450.515 92C456.303 92 461.751 91.3132 466.858 89.9395Z" fill="#C5000B"/>
</svg>
