<svg width="84" height="75" viewBox="0 0 84 75" fill="none" xmlns="http://www.w3.org/2000/svg">
<path d="M16.4269 62.39C9.85686 56.67 2.62685 48.92 0.626845 40.19C-1.29315 31.79 1.14686 23.28 8.64686 18.63C17.4369 13.19 26.7169 16.99 32.8369 24.3L33.0969 24.38C38.8469 17.54 47.7368 13.41 56.3068 18C68.3768 24.46 68.0769 39.18 61.2969 49.53C54.5769 59.8 43.3469 67.78 32.9569 74.01C27.1269 70.72 21.4769 66.8 16.4169 62.4" fill="#037A35"/>
<path d="M54.5769 70.02L59.1868 74.03C59.6968 74.54 60.5569 73.96 61.7369 73.26C63.5769 72.18 63.9869 71.78 65.5069 70.54C66.0569 70.09 67.0569 69.21 66.7969 68.74C65.6369 66.64 64.5369 65.38 63.5769 63.63C63.3469 63.22 63.2469 62.49 63.7269 61.94C64.2969 61.27 65.6368 60.03 65.8068 59.86C66.6968 59 67.2768 59.44 67.8168 59.61C69.7068 60.21 71.6969 61.27 73.5869 61.82C74.2969 62.03 74.6668 62.08 75.0968 61.37L78.8768 55.65C78.9468 55.4 78.8469 55.03 78.7269 54.81C77.3969 52.95 75.5468 51.18 74.2768 49.31C73.9268 48.79 73.7569 48.48 73.8969 47.82C74.0069 47.32 74.3369 46.32 74.5169 45.82C74.7069 45.28 74.9469 44.94 75.4869 44.73C77.4869 43.96 80.3469 43.86 82.4269 43.14C82.7069 43.04 82.8569 42.92 83.0869 42.75L83.2369 42.14L83.4668 35.27C83.3868 34.18 82.1369 34.16 81.3669 33.9C79.4969 33.26 77.6268 32.63 75.7468 32.03C75.5168 31.87 75.3168 31.69 75.1868 31.43C75.0368 31.13 74.6368 29.57 74.5968 29.22C74.5368 28.77 74.6268 28.4 74.9068 28.04L80.0469 22.77C80.1869 22.57 80.2569 22.29 80.2669 22.04C80.2669 21.63 78.1868 18.28 77.8168 17.63C77.4868 17.05 76.8369 15.4 76.2569 15.15C76.0169 15.05 75.7768 15.1 75.5268 15.15C73.2568 15.57 70.8369 16.63 68.5469 17.1C68.2069 17.16 67.8869 17.05 67.6069 16.86C67.3369 16.67 66.2869 15.6 66.0769 15.31C65.9269 15.1 65.7468 14.84 65.7468 14.57C65.7468 14.25 65.9468 13.32 66.0268 12.94C66.3668 11.26 66.9069 9.52 67.2069 7.84C67.2769 7.45 67.4169 6.62999 67.2369 6.31999L60.8068 2.72L60.3068 2.59L59.7369 2.84C58.1569 4.47 56.7668 6.32 55.1868 7.95C54.3268 8.83 54.2969 8.87 53.0469 8.64C52.5969 8.56 51.8769 8.39001 51.4569 8.24001C50.9569 8.06001 50.8569 7.83 50.6369 7.37C49.6669 5.32 49.1368 2.66 48.1868 0.559998C48.0568 0.249998 47.7569 0.06 47.4469 0C45.2569 0.36 42.5569 0.129991 40.4269 0.599991C39.7869 0.739991 39.6868 1.14001 39.5568 1.74001C39.1568 3.65001 39.0068 5.73999 38.5968 7.64999C38.4668 8.25999 38.3669 9.03 37.8369 9.39C37.7369 9.46 37.4069 9.59999 37.0169 9.75999C36.3769 10.02 35.5769 10.31 35.3569 10.37C35.0069 10.46 34.5968 10.51 34.2868 10.31L28.3969 5.86C28.0869 5.64 27.6869 5.61 27.3369 5.73L22.8969 11.8L33.0169 21.08C37.1169 16.62 42.6569 14.52 44.4469 14.12C50.2169 12.84 56.1668 14.2 61.4968 18.66C69.5768 25.43 72.7968 41.3 59.0668 56.49C56.3668 59.36 52.8468 62.72 49.9068 65.49" fill="#54A433"/>
<path d="M32.9268 56.08C31.9468 54.99 31.8868 53.18 31.1168 51.76C29.1268 48.08 24.6868 46.32 20.6668 46.27C19.8468 62.61 45.1068 62.54 44.8368 46.27C39.0168 46.05 33.1968 49.91 32.9268 56.08Z" fill="#FDC62A"/>
<path d="M32.9269 66.94L31.1169 62.63C29.1169 58.97 24.6669 57.19 20.6669 57.14C19.9069 73.51 45.0869 73.47 44.8369 57.14C39.1169 56.99 33.1669 60.93 32.9269 66.95" fill="#FDC62A"/>
<path d="M32.7568 33.67C28.0968 37.58 27.2868 44.18 31.0268 49.05C32.2568 50.65 32.4368 50.87 33.8068 49.43C37.9968 45 37.0368 37.71 32.7568 33.67Z" fill="#FDC62A"/>
</svg>
