<svg width="414" height="342" viewBox="0 0 414 342" fill="none" xmlns="http://www.w3.org/2000/svg">
<path d="M404.7 214.7H8.29999V341.9H404.7V214.7Z" fill="#F26522"/>
<path d="M404.7 8.3H8.29999V220.5H404.7V8.3Z" fill="#2B3B46"/>
<path d="M154.5 106H94.3V128.6H111C107.2 133.4 101.7 136.4 95.5 136.4C84.1 136.4 74.8 126.1 74.8 113.4C74.8 100.7 84.1 90.4 95.5 90.4C106.9 90.4 108.7 94.3 112.5 100.3L147.3 86.5C137.1 70 117.7 58.9 95.6 58.9C62.7 58.9 36.1 83.3 36.1 113.4C36.1 143.5 62.8 167.9 95.6 167.9C128.4 167.9 155.1 143.5 155.1 113.4C155.1 83.3 154.9 108.4 154.5 106Z" fill="white"/>
<path d="M336.7 60.8H281V166.9H317.6V135.6H336.7C357.4 135.6 374.1 118.8 374.1 98.2C374.1 77.6 357.3 60.8 336.7 60.8ZM327.5 108.1C327.3 108.1 327.2 108.1 327 108.1H317.6V88.3H327C327.2 88.3 327.3 88.3 327.5 88.3C333 88.3 337.4 92.7 337.4 98.2C337.4 103.7 333 108.1 327.5 108.1Z" fill="white"/>
<path d="M241 126.5C252.3 120.7 260 109.1 260 95.5C260 76.3 244.4 60.7 225.2 60.7C206 60.7 223.6 60.7 222.8 60.8C222.8 60.7 204.7 60.7 204.7 60.7H167.1V166.8H204.7V130.3L223.4 166.8H267.5L240.9 126.4L241 126.5ZM213.5 108.1H203.6V88.3H213.5C219 88.3 223.4 92.7 223.4 98.2C223.4 103.7 219 108.1 213.5 108.1Z" fill="white"/>
<path d="M413.1 341.9H0V0H413.1V341.9ZM8.3 333.5H404.7V8.3H8.3V333.5Z" fill="#A7A9AC"/>
<path d="M409 220.5H4.20001V228.8H409V220.5Z" fill="#A7A9AC"/>
<path d="M57.5 307.1L66.3 247.1H76.9L65.5 320.7H48.3L37 247.1H48.6L57.5 307.1Z" fill="white"/>
<path d="M93.8 278.1H109.7V288.6H93.8V310.1H113.8V320.7H82.2V247.1H113.8V257.6H93.8V278.1Z" fill="white"/>
<path d="M145.1 320.7C144.5 318.8 144 317.7 144 311.7V300.1C144 293.3 141.7 290.7 136.4 290.7H132.4V320.7H120.8V247.1H138.2C150.2 247.1 155.3 252.7 155.3 264V269.8C155.3 277.4 152.9 282.3 147.7 284.7C153.5 287.1 155.4 292.7 155.4 300.4V311.8C155.4 315.4 155.5 318 156.7 320.7H144.9H145.1ZM132.5 257.6V280.2H137C141.3 280.2 143.9 278.3 143.9 272.4V265.1C143.9 259.8 142.1 257.5 138 257.5H132.4L132.5 257.6Z" fill="white"/>
<path d="M200.6 320.7H188.9L186.9 307.4H172.7L170.7 320.7H160.1L171.9 247.1H188.8L200.6 320.7ZM174.2 297.3H185.3L179.7 260.1L174.1 297.3H174.2Z" fill="white"/>
<path d="M198.6 247.1H234.3V257.6H222.2V320.7H210.7V257.6H198.6V247.1Z" fill="white"/>
<path d="M256.8 307.1L265.6 247.1H276.3L264.9 320.7H247.7L236.3 247.1H248L256.8 307.1Z" fill="white"/>
<path d="M322.8 314.1C325.8 314.1 328.3 316.5 328.3 319.6C328.3 322.7 325.8 325.1 322.8 325.1H307.8C301.9 325.1 296.5 322.7 292.7 318.8C288.8 314.9 286.4 309.6 286.4 303.7V257.7C286.4 251.8 288.8 246.4 292.7 242.6C296.6 238.7 301.9 236.3 307.8 236.3H353.8C359.7 236.3 365.1 238.7 368.9 242.6C372.8 246.5 375.2 251.8 375.2 257.7V273C375.2 276 372.8 278.5 369.7 278.5C366.6 278.5 364.2 276.1 364.2 273V257.7C364.2 254.8 363 252.2 361.1 250.3C359.2 248.4 356.6 247.2 353.7 247.2H307.7C304.8 247.2 302.2 248.4 300.3 250.3C298.4 252.2 297.2 254.8 297.2 257.7V303.7C297.2 306.6 298.4 309.2 300.3 311.1C302.2 313 304.8 314.2 307.7 314.2H322.7L322.8 314.1Z" fill="white"/>
<path d="M364.2 288.7C364.2 285.7 366.6 283.2 369.7 283.2C372.8 283.2 375.2 285.6 375.2 288.7V303.7C375.2 309.6 372.8 315 368.9 318.8C365 322.7 359.7 325.1 353.8 325.1H339.4C336.4 325.1 333.9 322.7 333.9 319.6C333.9 316.5 336.3 314.1 339.4 314.1H353.8C356.7 314.1 359.3 312.9 361.2 311C363.1 309.1 364.3 306.5 364.3 303.6V288.6L364.2 288.7Z" fill="white"/>
<path fill-rule="evenodd" clip-rule="evenodd" d="M357.4 307.3C356.3 308.4 354.9 308.9 353.5 308.9C352.1 308.9 350.7 308.4 349.6 307.3L335.9 293.6C334.3 294.2 332.6 294.6 330.8 294.6C323.1 294.6 316.9 288.4 316.9 280.7C316.9 273 323.1 266.8 330.8 266.8C338.5 266.8 344.7 273 344.7 280.7C344.7 288.4 344.4 284.2 343.7 285.7L357.5 299.5C359.6 301.7 359.6 305.2 357.5 307.4" fill="white"/>
</svg>
