<svg width="1912" height="651" viewBox="0 0 1912 651" fill="none" xmlns="http://www.w3.org/2000/svg">
<path d="M735.56 1.01527C743.813 -1.27806 752.467 0.668613 760.373 3.33528C775.693 9.01528 786.36 24.3219 787.933 40.3619C789.32 54.1353 783.68 68.2953 773.587 77.6819C766.48 84.5886 756.613 87.6953 747.027 89.0819C738.547 89.7219 730.067 87.2286 722.427 83.7219C708.987 76.8153 700.307 62.1486 699.4 47.2419C697.827 25.8286 713.92 4.01527 735.56 1.01527Z" fill="#FBC821"/>
<path d="M590.613 2.90858C598.44 0.25525 606.947 0.468593 615.08 1.24193C628.853 2.88193 640.133 13.0419 646.32 25.0153C650.787 33.4153 651.08 43.2419 650.12 52.5086C647.467 69.4819 633.853 84.1752 616.933 87.6286C606.907 90.9753 596.04 88.6819 586.64 84.4953C574.333 78.7219 565.827 66.6286 562.64 53.6152C561.813 45.1886 561.36 36.1886 565.04 28.3086C569.8 16.9886 578.72 6.84192 590.613 2.90858Z" fill="#46BB3E"/>
<path d="M499.56 118.735C507.507 117.802 515.787 117.802 523.453 120.362C535.96 125.535 546.333 135.935 550.627 148.869C552.84 157.815 552.827 167.215 550.627 176.162C546.253 189.482 535.493 200.309 522.36 205.042C514.24 207.335 505.547 207.242 497.28 205.882C481.6 202.002 468.827 188.789 464.92 173.175C463.373 163.229 463.147 152.295 468.213 143.269C474.027 130.855 486.04 121.162 499.56 118.735Z" fill="#EF3343"/>
<path d="M816.853 118.469C827.947 116.495 840.427 117.469 849.827 124.242C863.413 132.495 871.88 148.682 870.68 164.549C869.907 186.869 849.667 207.082 827.053 206.455C805.973 207.655 785.613 190.682 782.867 169.775C781.24 158.415 782.867 146.069 789.827 136.642C796.253 127.722 805.853 120.415 816.853 118.469Z" fill="#4065B8"/>
<path d="M1858.21 124.989C1877.99 119.642 1900.75 130.749 1908.08 150.029C1917.17 170.295 1907.07 196.629 1886.57 205.335C1867.39 214.682 1841.76 206.855 1831.55 188.015C1822.12 172.215 1824.64 150.655 1837.15 137.242C1842.73 131.175 1850.27 127.082 1858.21 124.989Z" fill="#8D9196"/>
<path d="M1860.87 131.615C1876.73 127.735 1894.69 136.655 1901.09 151.722C1905.96 162.735 1905.05 176.349 1898.27 186.389C1890.71 198.149 1875.61 204.322 1861.96 201.589C1845.27 198.762 1832.15 182.762 1832.89 165.802C1832.88 149.709 1845.12 134.842 1860.87 131.615Z" fill="white"/>
<path d="M1849.84 144.055C1858.52 144.229 1867.33 143.269 1875.92 145.002C1882.36 146.362 1886.72 153.469 1884.91 159.829C1883.68 165.162 1878.44 167.749 1874.01 170.002C1879.96 175.922 1884.35 183.122 1888.47 190.375C1885.49 190.242 1882.49 190.335 1879.6 189.709C1875.33 184.362 1873.24 177.429 1868.08 172.789C1865.11 170.229 1860.88 170.802 1857.28 170.309C1857.15 176.922 1857.17 183.549 1857.24 190.162C1854.75 190.149 1852.28 190.175 1849.83 190.295C1849.8 174.882 1849.79 159.469 1849.84 144.055Z" fill="#8D9196"/>
<path d="M1857.17 150.309C1862.61 150.522 1868.28 149.735 1873.56 151.402C1878.57 153.202 1878.53 161.055 1873.71 163.069C1868.39 164.869 1862.63 163.975 1857.12 164.175C1857.2 159.549 1857.21 154.935 1857.17 150.309Z" fill="white"/>
<path d="M52.2 233.309C77.88 233.202 103.56 233.189 129.24 233.322C129.267 254.522 124.147 275.215 122.64 296.282C121.587 308.522 118.933 320.549 117.88 332.789C116.88 344.762 114.32 356.549 113.2 368.522C112.147 380.415 110.84 392.295 109.413 404.149C178.347 404.202 247.307 404.175 316.253 404.135C319.32 379.842 322.533 355.562 325.307 331.229C326.787 320.589 328.467 309.962 329.373 299.242C331.147 282.575 334.08 266.055 335.413 249.349C336 244.322 336.147 239.069 338.24 234.389C341.693 232.522 345.907 233.402 349.693 233.162C371.707 233.442 393.72 232.975 415.72 233.429C414.547 249.589 411.2 265.495 409.947 281.655C407.96 299.055 405.133 316.349 403.507 333.789C400.307 352.122 399.613 370.775 396.347 389.095C394.267 402.909 393.88 416.922 391.253 430.655C388.253 446.762 389.08 463.415 385.027 479.335C385.187 474.815 385.293 470.295 385.467 465.789C371.467 463.455 357.307 462.535 343.187 461.442C328.093 460.442 313.347 456.789 298.267 455.749C282.773 453.935 267.28 452.149 251.84 450.029C230.84 445.562 209.267 444.962 188.267 440.482C170.613 436.669 152.507 435.522 134.92 431.362C124.493 429.055 113.893 427.655 103.4 425.642C91.5333 423.402 79.8933 420.029 67.96 418.082C55.5867 416.069 43.5867 412.335 31.3333 409.735C29.9467 419.709 28.0533 429.602 26.1467 439.482C26.1733 429.735 28.0133 420.149 29.6133 410.575C31.0266 402.389 31.3867 394.069 32.4133 385.829C33.48 375.975 35.72 366.282 36.4133 356.389C37.3867 343.415 40.4133 330.709 41.4 317.749C42.7467 301.229 46.16 284.975 47.2933 268.442C48.08 256.615 49.92 244.922 52.2 233.309Z" fill="#ACADB2"/>
<path d="M466.747 233.442C492.867 233.055 519 233.189 545.12 233.389C544.387 246.975 541.213 260.269 540.227 273.829C539.067 289.802 535.507 305.482 534.467 321.469C533.64 333.722 530.347 345.669 529.813 357.962C542.72 354.495 555.027 348.722 568.453 347.455C597.213 341.855 626.907 343.829 655.427 349.802C670.467 354.602 685.44 360.855 697.44 371.402C712.04 383.735 721.733 401.162 726.4 419.562C731.173 435.495 730.867 452.282 730.627 468.735C730.32 477.629 730.533 486.642 728.52 495.375C728.467 493.082 728.347 490.802 728.253 488.522C712.747 487.442 697.173 488.495 681.707 486.869C672.427 485.975 663.133 485.495 653.827 485.322C652.28 493.082 650.373 500.762 648.547 508.455C649.987 493.775 653.933 479.295 653.04 464.455C652.4 451.135 649.24 437.295 640.893 426.615C635.747 419.975 628.293 415.562 620.627 412.429C609.107 407.815 596.44 408.855 584.32 408.989C566.253 409.189 548.88 414.642 531.787 419.935C528.013 421.415 523.467 422.855 521.52 426.749C519.667 431.922 519.587 437.509 518.987 442.935C517.893 456.535 515.413 469.975 513.933 483.535C513.92 481.642 513.893 479.775 513.84 477.895C504.973 476.255 496.04 474.882 487.027 474.495C470.653 473.695 454.333 472.429 437.987 471.349C436.92 483.042 435.293 494.682 432.827 506.175C432.867 498.402 434.133 490.709 435.32 483.055C437.707 466.935 439.187 450.709 441.747 434.615C443.28 418.762 445.32 402.975 447.6 387.215C448.707 371.082 452.573 355.295 453.573 339.149C454.293 329.402 455.52 319.695 457.147 310.055C459.347 297.015 459.44 283.709 461.867 270.695C464.253 258.375 464.627 245.789 466.747 233.442Z" fill="#ACADB2"/>
<path d="M786.12 233.549C812.36 233.002 838.613 233.149 864.853 233.455C863.52 246.509 861.04 259.429 860.147 272.535C859.2 287.402 855.853 301.962 854.507 316.789C853.213 330.509 850.307 344.069 849.92 357.869C862.64 354.402 874.8 348.775 888.027 347.362C909.747 343.389 932.04 343.215 953.893 346.149C963.693 347.802 973.827 348.455 983.053 352.482C1000.44 358.549 1017.04 368.349 1028.45 383.069C1037.2 394.002 1043.32 406.949 1046.2 420.655C1050.83 435.255 1050.59 450.709 1050.51 465.842C1050 482.895 1049.61 500.202 1044.44 516.629C1045.45 508.042 1046.4 499.455 1047.6 490.895C1022.19 490.135 996.76 490.962 971.347 490.629C974.373 472.042 973.667 452.269 965.893 434.882C958.213 418.242 939.453 409.495 921.827 408.962C906.133 408.589 890.173 408.682 874.933 412.842C866.747 415.109 858.56 417.415 850.52 420.135C846.493 421.735 841.293 423.695 840.667 428.642C838.92 437.509 838.867 446.615 837.627 455.549C836.04 467.269 833.88 478.922 832.893 490.722C816.32 488.882 799.64 489.869 783.013 489.389C774.173 489.175 765.333 488.989 756.493 488.655C755.467 491.815 754.44 494.989 753.6 498.229C754.173 489.109 756.32 480.202 757.04 471.109C758.24 455.935 761.413 441.002 762.587 425.829C763.787 411.095 766.933 396.602 768 381.855C769.293 366.215 772.067 350.749 773.68 335.149C774.947 322.682 777.68 310.415 778.573 297.909C779.16 290.002 780.067 282.109 781.507 274.309C784.04 260.842 784.093 247.082 786.12 233.549Z" fill="#ACADB2"/>
<path d="M1069.52 233.455C1194.49 232.949 1319.48 233.429 1444.47 233.162C1446.87 233.295 1449.47 233.109 1451.69 234.295C1454.81 239.189 1455.47 245.109 1456.96 250.602C1473.37 306.682 1489.05 362.962 1505.31 419.095C1509.28 433.589 1513.32 448.069 1517.73 462.429C1502.87 461.549 1488.15 464.122 1473.4 465.362C1458.93 466.949 1444.41 468.202 1430.09 470.815C1422.32 446.335 1415.64 421.535 1407.92 397.055C1398.49 365.375 1388.65 333.815 1379.65 302.015C1360.35 301.082 1341.01 301.802 1321.71 301.575C1301.12 301.802 1280.53 301.122 1259.96 301.975C1255.23 340.802 1250.37 379.642 1245.47 418.455C1244.16 435.202 1240.69 451.695 1239.4 468.442C1238.4 477.415 1238.31 486.535 1235.85 495.282C1235.87 491.842 1235.95 488.375 1235.13 485.029C1226.16 482.562 1216.69 484.135 1207.56 484.722C1191.49 486.362 1175.32 486.735 1159.27 488.589C1158.81 490.909 1158.36 493.242 1157.95 495.575C1157.96 485.442 1159.69 475.442 1161.35 465.482C1163.32 453.762 1164.09 441.895 1165.72 430.135C1168.72 410.962 1170.03 391.589 1173.13 372.429C1175.37 348.802 1179.03 325.322 1181.25 301.682C1141.13 301.402 1101 301.735 1060.88 301.509C1062.07 289.562 1064.32 277.749 1065.48 265.802C1066.61 254.989 1067.93 244.202 1069.52 233.455Z" fill="#ACADB2"/>
<path d="M1713.05 234.189C1716.63 232.802 1720.59 233.282 1724.36 233.162C1750.93 233.522 1777.53 232.842 1804.11 233.522C1799.91 244.295 1793.28 253.842 1787.89 264.015C1754.63 322.415 1721.33 380.829 1688.21 439.322C1672.65 438.282 1657.72 443.722 1642.33 444.989C1627.27 446.215 1612.47 449.389 1597.51 451.402C1601.08 441.295 1606.96 432.269 1611.83 422.789C1638.88 371.602 1666.25 320.589 1693.44 269.482C1698.15 260.829 1702.93 252.215 1707.24 243.362C1708.99 240.215 1710.28 236.615 1713.05 234.189Z" fill="#ACADB2"/>
<path d="M31.3333 409.735C43.5867 412.335 55.5867 416.069 67.96 418.082C79.8933 420.029 91.5333 423.402 103.4 425.642C113.893 427.655 124.493 429.055 134.92 431.362C152.507 435.522 170.613 436.669 188.267 440.482C209.267 444.962 230.84 445.562 251.84 450.029C267.28 452.149 282.773 453.935 298.267 455.749C313.347 456.789 328.093 460.442 343.187 461.442C357.307 462.535 371.467 463.455 385.467 465.789C385.293 470.295 385.187 474.815 385.027 479.335C383.507 493.829 382.453 508.429 379.92 522.815C377.64 536.415 377.547 550.269 375 563.842C372.427 577.869 372.253 592.189 369.573 606.202C366.84 620.829 367.373 635.895 363.68 650.349C337.733 650.175 311.787 650.429 285.853 650.242C286.413 635.735 290.36 621.642 291.08 607.149C291.827 592.135 295.427 577.482 296.6 562.522C297.44 549.522 300.44 536.789 301.48 523.815C302.88 506.762 306.307 489.975 307.653 472.922C238.653 472.975 169.64 472.882 100.64 472.975C98.3466 488.029 96.4 503.135 95.12 518.322C92.32 535.362 90.7334 552.562 88.6534 569.709C85.9067 585.322 85.04 601.175 82.5067 616.815C80.7867 627.935 80.12 639.202 78.2933 650.309C52.2 650.229 26.0933 650.429 0 650.215C2.58667 633.162 3.83998 615.962 6.34665 598.909C9.07998 583.695 9.43999 568.189 12.1067 552.975C14.6133 539.202 14.6933 525.135 17.24 511.375C20.2 496.109 19.9867 480.442 23.0133 465.189C24.7867 456.709 24.9867 448.029 26.1467 439.482C28.0533 429.602 29.9467 419.709 31.3333 409.735Z" fill="#8D9196"/>
<path d="M1642.33 444.989C1657.72 443.722 1672.65 438.282 1688.21 439.322C1648.92 508.402 1609.87 577.642 1570.51 646.682C1569.28 649.002 1567.23 650.669 1564.48 650.269C1537.64 650.349 1510.8 650.295 1483.97 650.282C1466.35 590.349 1447.68 530.749 1430.09 470.815C1444.41 468.202 1458.93 466.949 1473.4 465.362C1488.15 464.122 1502.87 461.549 1517.73 462.429C1525.88 491.989 1534.15 521.522 1543.13 550.829C1555.24 530.269 1565.8 508.829 1577.16 487.855C1583.25 475.615 1590.32 463.882 1596.24 451.575L1597.51 451.402C1612.47 449.389 1627.27 446.215 1642.33 444.989Z" fill="#8D9196"/>
<path d="M437.987 471.349C454.333 472.429 470.653 473.695 487.027 474.495C496.04 474.882 504.973 476.255 513.84 477.895C513.893 479.775 513.92 481.642 513.933 483.535C512.933 499.562 509.813 515.349 508.16 531.309C506.867 547.375 503.653 563.189 502.227 579.229C514.133 583.122 526.44 586.109 539 586.575C554.933 586.949 571.107 588.522 586.84 585.149C600.027 581.602 612.453 574.615 621.76 564.549C636.44 549.295 644.027 528.775 648.547 508.455C650.373 500.762 652.28 493.082 653.827 485.322C663.133 485.495 672.427 485.975 681.707 486.869C697.173 488.495 712.747 487.442 728.253 488.522C728.347 490.802 728.467 493.082 728.52 495.375C723.973 528.535 714.16 561.829 694.333 589.242C677.32 613.015 652.147 630.402 624.547 639.615C612.573 642.655 600.867 647.109 588.44 647.895C550.773 653.202 512.72 649.029 475.04 646.375C469.933 646.095 464.907 645.109 459.92 644.082C445.827 641.229 431.28 641.242 417.253 637.975C416.333 632.509 417.6 627.042 418.427 621.669C420.84 607.562 421.48 593.242 423.76 579.135C426.28 563.882 426.973 548.415 429.547 533.189C431.107 524.242 431.507 515.149 432.827 506.175C435.293 494.682 436.92 483.042 437.987 471.349Z" fill="#8D9196"/>
<path d="M1207.56 484.722C1216.69 484.135 1226.16 482.562 1235.13 485.029C1235.95 488.375 1235.87 491.842 1235.85 495.282C1234.24 512.762 1231.77 530.162 1229.35 547.562C1228.05 567.589 1223.8 587.269 1222.4 607.282C1220.25 621.589 1218.03 635.869 1216.99 650.322C1190.73 650.202 1164.48 650.455 1138.23 650.215C1141.79 631.789 1141.84 612.922 1145.37 594.495C1147.47 580.109 1148.37 565.562 1150.79 551.202C1152.91 532.629 1155.04 514.055 1157.95 495.575C1158.36 493.242 1158.81 490.909 1159.27 488.589C1175.32 486.735 1191.49 486.362 1207.56 484.722Z" fill="#8D9196"/>
<path d="M756.493 488.655C765.333 488.989 774.173 489.175 783.013 489.389C799.64 489.869 816.32 488.882 832.893 490.722C830.493 510.695 827.853 530.655 825.52 550.642C824.627 560.095 821.56 569.549 822.8 579.095C841.693 587.349 862.827 586.615 883.027 587.255C894.293 587.069 905.947 586.682 916.333 581.802C930.08 576.269 941.773 566.402 950 554.135C962.72 535.335 968.24 512.829 971.347 490.629C996.76 490.962 1022.19 490.135 1047.6 490.895C1046.4 499.455 1045.45 508.042 1044.44 516.629C1041.19 534.255 1035.13 551.375 1027.25 567.469C1017.29 586.962 1003.68 605.042 985.813 617.922C977.213 624.309 968.053 629.962 958.16 634.109C947.013 639.882 934.547 641.949 922.667 645.602C888.92 652.202 854.227 651.069 820.133 648.135C809.213 647.709 798.32 646.695 787.467 645.575C770.707 641.882 753.507 641.122 736.627 638.149C736.8 632.949 737.147 627.749 738.04 622.629C740.213 609.242 741.12 595.695 743.053 582.269C745.707 565.029 746.987 547.602 749.627 530.349C751.24 519.682 751.667 508.842 753.6 498.229C754.44 494.989 755.467 491.815 756.493 488.655Z" fill="#8D9196"/>
</svg>
