<svg width="335" height="220" viewBox="0 0 335 220" fill="none" xmlns="http://www.w3.org/2000/svg">
<path d="M280.33 66.08V38.87L268.27 43.26V34.21L304.67 21.12V57.38L280.34 66.08H280.33ZM125.25 136.92C125.25 121.37 124.28 108.12 113.07 96.91C104.67 88.51 91.78 82.83 72.34 82.83C62.74 82.83 51.44 84.26 42.28 85.8V21.71L0 24.39V219.96H42.29V121.75C51.25 120.28 58.46 119.51 64.62 119.51C72.81 119.51 77.62 120.77 80.1 123.25C82.99 126.13 83.04 130.69 83.04 140.77V219.96H125.24V136.92H125.25ZM186.39 137.46C186.39 130.74 187 127.55 189.33 125.23C192.64 121.92 200.02 119.69 232.36 118.81V82.93C188.54 83.38 168.61 88.22 156.05 100.79C144.66 112.17 144.1 125.03 144.1 139.36V220.01H186.39V137.46ZM290.42 80.37C310.42 80.37 326.63 64.16 326.63 44.16C326.63 24.16 310.42 7.95 290.42 7.95C270.42 7.95 254.21 24.16 254.21 44.16C254.21 64.16 270.42 80.37 290.42 80.37ZM290.43 0C314.82 0 334.58 19.77 334.58 44.15C334.58 68.53 314.81 88.3 290.43 88.3C266.05 88.3 246.28 68.53 246.28 44.15C246.28 19.77 266.04 0 290.43 0Z" fill="#007396"/>
</svg>
