<svg width="172" height="38" viewBox="0 0 172 38" fill="none" xmlns="http://www.w3.org/2000/svg">
<path d="M137.6 33.7C135 33.7 134.3 32.7 134.3 30.1V14.3H140.2L140.9 11.1H134.3V4.2H131.1C130.5 5.8 129.7 7.3 128.6 8.6C130.1 9.7 131 11.4 131 13.3C131 16.3 128.6 18.8 125.6 19.1H125.5V30.6C125.5 35.8 128 37.9 132.8 37.9C137.2 37.9 139.8 36 141.1 34.8V33.3C140.3 33.4 138.7 33.7 137.6 33.7Z" fill="white"/>
<path d="M155.9 17.7C155.5 16.5 155.2 15.7 155.2 15C155.2 13.6 155.8 13.1 156.9 12.8L158.3 12.4V11H142.3V12.5L143.3 12.8C144.6 13.2 145.1 13.9 146.4 16.9L154.8 37.3H159.5L161.4 32.4L155.9 17.7Z" fill="white"/>
<path d="M161.7 11V12.5L163.1 12.9C164.2 13.2 164.7 13.8 164.7 15C164.7 15.8 164.5 16.6 164 17.8L161.1 26.3L162.4 29.7L167.2 17.5C168.6 14 169.2 13.3 170.5 12.9L171.4 12.6V11H161.7Z" fill="white"/>
<path d="M0.3 34.3C0.3 33.1 0.7 31.1 1.1 29.6L4.1 18.3C4.2 17.6 4.3 17 4.3 16.7C4.3 15.5 3.4 15.7 1.6 17L0.9 17.4L0 16.3C2.4 13.6 6.3 10.5 9.9 10.5C12.4 10.5 13.2 12.2 13.2 14.2C13.2 15 13 17 12.3 19.5L9.5 30.1C9.4 30.6 9.2 31.3 9.2 31.7C9.2 32.9 9.9 33 11.5 32L12.7 31.3L13.6 32.5C11.5 34.6 7.5 37.7 3.7 37.7C1.2 37.7 0.3 35.9 0.3 34.3Z" fill="white"/>
<path d="M16.3 24.2C16.3 13.8 24.5 10.5 31.7 10.5C36.7 10.5 39.9 12.1 39.9 15.3C39.9 17.4 38.5 18.9 36.3 18.9C33.5 18.9 32.7 16.9 32.5 14.7C32.3 12.9 32.1 12.6 30.4 12.6C27.9 12.6 25 14 25 21.9C25 29.2 27.1 33.1 32.7 33.1C35.7 33.1 37.8 32.3 39.7 31.3V33C38.3 34.9 34.6 37.7 29 37.7C20.8 37.7 16.3 32.4 16.3 24.2Z" fill="white"/>
<path d="M69.2 35.7L70.3 35.4C72.1 34.9 72.2 34.7 72.2 32.5V17.2C72.2 15.1 72 14.9 70.6 13.8L69 12.7V11.7L80.2 10.5L80.8 10.9L80.7 14.5H80.9C82.4 12.8 85.2 10.5 88.2 10.5C90.6 10.5 92.2 11.8 92.2 14.4C92.2 16.9 90.6 18.3 88.6 18.3C86.2 18.3 85.6 17.7 84.5 16C84.3 15.5 83.9 15.4 83.5 15.4C82.7 15.4 81.7 15.9 81.1 16.5V32.4C81.1 34.8 81.2 35 82.8 35.3L84.2 35.5V37H69.2V35.7Z" fill="white"/>
<path d="M93 24.2C93 14.4 99.9 10.5 106.8 10.5C114 10.5 120.6 14.8 120.6 24C120.6 33.8 113.8 37.8 106.8 37.8C99.5 37.7 93 33.3 93 24.2ZM111.5 24.4C111.5 14 109.7 12.5 106.6 12.5C103.7 12.5 102 14.5 102 23.3C102 33.8 103.5 35.6 106.9 35.6C109.6 35.6 111.5 34.3 111.5 24.4Z" fill="white"/>
<path d="M14.6 3.2C14.3 2.1 13.6 1.2 12.7 0.6C12 0.2 11.3 0 10.5 0C10.2 0 9.8 0 9.5 0.1C8.4 0.4 7.6 1 7.1 1.9C6.4 2.8 6.2 4 6.5 5.2C7.1 7.4 9.3 8.8 11.6 8.2C12.1 8.1 12.5 7.9 12.9 7.6C13.4 7.3 13.8 6.8 14.1 6.3C14.7 5.4 14.8 4.2 14.6 3.2Z" fill="white"/>
<path d="M64.3 30.9V17.4C64.3 12.4 60.4 10.5 54.1 10.5C46.5 10.5 42.6 12.5 42.6 15.7C42.6 17.8 43.9 18.9 46.2 18.9C48.9 18.9 50.1 17.7 50.3 14.3C50.4 12.9 50.8 12.6 52.2 12.6C54.7 12.6 55.5 13.6 55.5 17.9V32.7C55.1 33.4 54.3 33.9 53.1 33.9C51.4 33.9 50 33 50 29.7C50 26.2 51.1 25.1 53.5 24.9V22.6L51 23.2C44.9 24.7 41.6 26.7 41.6 31.1C41.6 35.3 44.4 37.7 49.1 37.7C52.4 37.7 54.5 36.2 55.8 34.6H56C56.6 36.6 58.4 37.7 61.4 37.7C64.5 37.7 66.6 36.6 67.6 35.9V34.6C67 34.6 65.9 34.4 65.3 34.1C64.5 33.5 64.3 32.8 64.3 30.9Z" fill="white"/>
<path d="M127.9 9.40001C127.8 9.40001 127.8 9.40001 127.9 9.40001C127.2 8.90001 126.5 8.70001 125.8 8.60001C125.6 8.60001 125.5 8.60001 125.3 8.60001C122.7 8.60001 120.6 10.7 120.6 13.3C120.6 15.8 122.5 17.8 125 18C125.1 18 125.2 18 125.3 18C125.4 18 125.5 18 125.6 18C128 17.8 129.9 15.8 129.9 13.3C129.9 11.7 129.1 10.3 127.9 9.40001Z" fill="#1173CB"/>
</svg>
