<svg width="169" height="109" viewBox="0 0 169 109" fill="none" xmlns="http://www.w3.org/2000/svg">
<path d="M19 27.2H0V108.1H19V27.2Z" fill="#F08363"/>
<path d="M33.1 0H52.1V77.8C52.1 86.8 53.8 89.7 61.6 89.7V108C39.6 108 33.1 101.5 33.1 78.1V0Z" fill="#F08363"/>
<path d="M95.6 108H76.6V30.4C76.6 21.4 74.9 18.5 67.1 18.5V0.3C89.1 0.3 95.6 6.8 95.6 30.2V108Z" fill="#E3013D"/>
<path d="M0.2 18.3H18.5V0H8.3C3.8 0 0.2 3.7 0.2 8.2V18.3Z" fill="#F08363"/>
<path d="M154.7 51.2C163.7 47 166.5 36.4 166.5 29.6C166.5 9.5 153.2 0.1 137 0.1C116.5 0.1 107.1 9.6 107.1 30.7H118.6C121.9 30.7 124.7 28.5 125.6 25.3C127.2 19.6 131.5 17.2 136.8 17.2C144.4 17.2 148.3 22 148.3 29.1C148.3 35.5 145.7 41.1 138.9 42.6H132.6C128.1 42.6 124.4 46.3 124.4 50.8V60H124.7V60.1H134.8C142.5 60.1 148.8 63.8 148.8 75.6C148.8 86.5 144.2 90.3 135.8 90.3C129 90.3 125.3 86.1 124.2 79.5C123.7 76.5 121.1 74.4 118.1 74.4H105.4C105.4 95.4 114.1 108.6 136 108.6C157.3 108.6 168.1 95.7 168.1 75.5C168 63.7 165.4 55.1 154.7 51.2Z" fill="#E3013D"/>
</svg>
