<svg width="1142" height="631" viewBox="0 0 1142 631" fill="none" xmlns="http://www.w3.org/2000/svg">
<path d="M7.89893 285H65.8989C85.7812 285 101.899 301.118 101.899 321V631H49.8989C26.703 631 7.89893 612.196 7.89893 589V285Z" fill="#005095"/>
<path d="M0.898926 201C0.898926 185.536 13.435 173 28.8989 173H70.8989C86.3629 173 98.8989 185.536 98.8989 201V236C98.8989 251.464 86.3629 264 70.8989 264H28.8989C13.435 264 0.898926 251.464 0.898926 236V201Z" fill="#005095"/>
<path d="M137.899 226H195.899C216.886 226 233.899 243.013 233.899 264V504.5C233.899 541.5 241.399 548 268.899 548H311.899C329.572 548 343.899 562.327 343.899 580V631H224.899C137.899 631 137.899 576.5 137.899 526.5V226Z" fill="#005095"/>
<path d="M352.899 100C352.899 44.7715 397.67 0 452.899 0H1041.9C1097.13 0 1141.9 44.7715 1141.9 100V531C1141.9 586.228 1097.13 631 1041.9 631H452.899C397.67 631 352.899 586.228 352.899 531V100Z" fill="#005095"/>
<path d="M471.899 215L609.399 217.5C619.399 215 624.399 215 635.899 215C760.899 215 819.899 303 819.899 402.5C819.899 521.5 732.899 592 608.399 592H599.899C490.547 592 401.899 503.352 401.899 394V384.5C401.899 296.5 471.899 215 471.899 215Z" fill="white"/>
<path d="M594.899 47H735.899L608.899 217.5L471.899 215L594.899 47Z" fill="white"/>
<path d="M989.899 47H1064.9V582H948.899V238.5L875.899 305.5L797.399 224L989.899 47Z" fill="white"/>
<path d="M516.899 403C516.899 352.19 558.089 311 608.899 311H614.899C665.709 311 706.899 352.19 706.899 403C706.899 453.81 665.709 495 614.899 495H608.899C558.089 495 516.899 453.81 516.899 403Z" fill="#005095"/>
</svg>
