<svg width="466" height="298" viewBox="0 0 466 298" fill="none" xmlns="http://www.w3.org/2000/svg">
<path d="M33.0527 61C39.5527 29 61.5527 0 108.053 0L463.553 7.27177e-06V13H448.77H108.053C72.0527 13 52.0527 41 48.0527 61L17.3354 285L15.5527 298H0.552734L33.0527 61Z" fill="black"/>
<path d="M433.053 237C426.553 269 404.553 298 358.053 298H2.55273V285H17.3354H358.053C394.053 285 414.053 257 418.053 237L448.77 13L450.553 0H465.553L433.053 237Z" fill="black"/>
<path d="M48.0527 61L17.3354 285H358.053C394.053 285 414.053 257 418.053 237L448.77 13H108.053C72.0527 13 52.0527 41 48.0527 61Z" fill="white"/>
<path d="M80.5527 43H134.553L104.553 252H50.5527L80.5527 43Z" fill="#FE0002"/>
<path d="M176.553 43H230.553L200.553 252H146.553L176.553 43Z" fill="#008510"/>
<path d="M145.553 43L261.553 43L253.553 97H137.553L145.553 43Z" fill="#008510"/>
<path d="M270.553 43H323.553L324.553 173L362.553 43L416.553 43L342.553 252H283.553L270.553 43Z" fill="#005ED0"/>
</svg>
