<svg width="333" height="293" viewBox="0 0 333 293" fill="none" xmlns="http://www.w3.org/2000/svg">
<path d="M75.1 292.7H269.7C299.2 292.7 332.6 259.3 332.6 218V74.7C332.6 33.5 299.2 0 257.9 0H75.1C33.9 0 0.399994 33.4 0.399994 74.7V218C0.399994 259.2 22.1 292.7 75.1 292.7Z" fill="url(#paint0_linear_1_26)"/>
<path d="M101.372 285.268V283.536C101.372 234.862 128.777 187.487 151.86 156.308C171.484 129.72 191.367 110.06 198.975 102.871H62.8155V61.8188H267.357V97.0683L266.752 97.5879C181.512 174.756 172.694 225.075 164.308 273.662C163.703 277.04 163.098 280.418 162.493 283.796L162.234 285.181H101.372V285.268Z" fill="url(#paint1_linear_1_26)"/>
<path d="M265.542 63.5509V96.2888C173.991 179.173 170.36 230.272 160.764 283.536H103.101C103.101 190.172 203.384 101.139 203.384 101.139H64.5445V63.5509H265.628M269 60.0866H61V104.603H194.566C185.402 113.524 167.766 131.712 150.39 155.269C135.693 175.189 123.936 195.022 115.55 214.249C105.003 238.413 99.557 261.71 99.557 283.536V287H163.53L164.049 284.142C164.654 280.764 165.259 277.3 165.865 273.922C174.682 223.343 182.982 175.622 267.79 98.8005L268.914 97.7612V60L269 60.0866Z" fill="#4F4F4F"/>
<path d="M62.7915 56.3661C62.4755 56.3661 62.1989 56.2465 62.0014 56.0074C61.8039 55.7683 61.7644 55.4495 61.8039 55.1705L70.8506 16.1956C70.9691 15.7572 71.3642 15.4384 71.7987 15.4384H83.0182C83.3343 15.4384 83.6108 15.5579 83.8083 15.797C84.0059 16.0361 84.0454 16.355 84.0059 16.6339L74.9592 55.6089C74.8406 56.0473 74.4456 56.3661 74.011 56.3661H62.7915Z" fill="#FDCB30"/>
<path d="M92.6575 56.3661C92.3415 56.3661 92.065 56.2465 91.8674 56.0074C91.6699 55.7683 91.6304 55.4495 91.6699 55.1705L98.7809 24.4847H84.3219C84.0059 24.4847 83.7293 24.3652 83.5318 24.126C83.3343 23.8869 83.2948 23.5681 83.3343 23.2892L84.954 16.2354C85.0725 15.797 85.4676 15.4782 85.9021 15.4782H128.726C129.042 15.4782 129.319 15.5978 129.516 15.8369C129.714 16.076 129.753 16.3948 129.714 16.6738L128.094 23.7275C127.975 24.1659 127.58 24.4847 127.146 24.4847H112.015L104.786 55.6488C104.667 56.0871 104.272 56.4059 103.838 56.4059H92.618H92.6575V56.3661Z" fill="#FDCB30"/>
<path d="M162.74 56.3661C162.424 56.3661 162.147 56.2465 161.95 56.0074C161.752 55.7683 161.713 55.4495 161.752 55.1705L170.799 16.1956C170.918 15.7572 171.313 15.4384 171.747 15.4384H182.967C183.283 15.4384 183.559 15.5579 183.757 15.797C183.954 16.0361 183.994 16.355 183.954 16.6339L176.843 47.3197H201.929C202.245 47.3197 202.522 47.4393 202.719 47.6784C202.917 47.9175 202.956 48.2363 202.917 48.5153L201.297 55.569C201.179 56.0074 200.784 56.3262 200.349 56.3262H162.74V56.3661Z" fill="#FDCB30"/>
<path d="M203.391 56.3661C203.075 56.3661 202.798 56.2465 202.601 56.0074C202.403 55.7683 202.364 55.4495 202.403 55.1705L211.45 16.1956C211.569 15.7572 211.964 15.4384 212.398 15.4384H223.618C223.934 15.4384 224.21 15.5579 224.408 15.797C224.605 16.0361 224.645 16.355 224.605 16.6339L215.559 55.6089C215.44 56.0473 215.045 56.3661 214.611 56.3661H203.391Z" fill="#FDCB30"/>
<path d="M110.079 56.3262C109.724 56.3262 109.368 56.127 109.21 55.7683C109.052 55.4495 109.092 55.051 109.289 54.7322L137.18 15.797C137.378 15.5181 137.654 15.3985 137.97 15.3985C138.286 15.3985 150.533 15.5181 150.533 15.5181C151.007 15.5181 151.363 15.8369 151.481 16.2753L160.567 55.1307C160.646 55.4096 160.567 55.7285 160.37 55.9676C160.172 56.2067 159.896 56.3262 159.58 56.3262H148.163C147.689 56.3262 147.293 56.0074 147.214 55.5292L145.792 48.4754H127.62L122.603 55.8879C122.405 56.1668 122.129 56.3262 121.773 56.3262C121.417 56.3262 110.04 56.2864 110.04 56.2864L110.079 56.3262ZM144.015 39.7479L141.605 27.912L133.585 39.7479H144.015Z" fill="#FDCB30"/>
<path d="M217.336 56.3262C216.981 56.3262 216.625 56.127 216.467 55.7683C216.309 55.4495 216.349 55.051 216.546 54.7322L244.437 15.797C244.635 15.5181 244.911 15.3985 245.227 15.3985C245.543 15.3985 257.79 15.5181 257.79 15.5181C258.264 15.5181 258.619 15.8369 258.738 16.2753L267.824 55.1307C267.903 55.4096 267.824 55.7285 267.627 55.9676C267.429 56.2067 267.153 56.3262 266.837 56.3262H255.42C254.946 56.3262 254.55 56.0074 254.471 55.5292L253.049 48.4754H234.877L229.86 55.8879C229.662 56.1668 229.386 56.3262 229.03 56.3262C228.674 56.3262 217.297 56.2864 217.297 56.2864H217.336V56.3262ZM251.311 39.7479L248.901 27.912L240.882 39.7479H251.311Z" fill="#FDCB30"/>
<path d="M127.373 26.0788C128.282 26.0788 129.072 25.4412 129.309 24.5246L130.929 17.4708C131.047 16.873 130.929 16.2753 130.534 15.797C130.178 15.3188 129.586 15.0399 128.993 15.0399H86.1692C85.5767 15.0399 85.0631 15.279 84.7076 15.7173C84.352 15.279 83.7989 15.0399 83.2458 15.0399H72.0263C71.1177 15.0399 70.3276 15.6775 70.0906 16.5941L61.0438 55.569C60.9253 56.1668 61.0438 56.7646 61.4389 57.2428C61.7944 57.721 62.387 58 62.9796 58H74.1991C75.1077 58 75.8979 57.3624 76.1349 56.4458L83.2854 25.6006C83.6409 25.9194 84.0755 26.0788 84.5495 26.0788H97.7838L90.9494 55.5292C90.8309 56.127 90.9494 56.7247 91.3445 57.203C91.7 57.6812 92.2926 57.9602 92.8852 57.9602H104.105C105.013 57.9602 105.803 57.3225 106.04 56.4059L113.072 26.0389H127.413H127.373V26.0788ZM74.1991 55.9676H62.9796L72.0263 16.9926H83.2458L74.1991 55.9676ZM104.065 55.9676H92.8456L100.233 24.0463H84.51L86.1297 16.9926H128.954L127.334 24.0463H111.413L104.026 55.9676H104.065Z" fill="#72251F"/>
<path d="M131.916 41.342H145.427L142.306 26.0389L131.916 41.342ZM135.669 39.3494L141.319 31.0204L143.017 39.3494H135.669Z" fill="#72251F"/>
<path d="M239.213 41.342H252.724L249.603 26.0389L239.213 41.342ZM242.926 39.3494L248.576 31.0204L250.274 39.3494H242.926Z" fill="#72251F"/>
<path d="M269 55.5292L259.914 16.6738C259.716 15.797 258.926 15.1594 258.018 15.1196L245.455 15C244.823 15 244.23 15.3188 243.835 15.8369L217.643 52.3411L225.742 17.431C225.86 16.8332 225.742 16.2354 225.347 15.7572C224.991 15.279 224.398 15 223.806 15H212.586C211.678 15 210.888 15.6376 210.651 16.5542L203.461 47.5588C203.105 47.1603 202.592 46.9611 202.038 46.9611H178.177L185.012 17.5107C185.13 16.9129 185.012 16.3151 184.617 15.8369C184.261 15.3587 183.668 15.0797 183.076 15.0797H171.856C170.948 15.0797 170.158 15.7173 169.921 16.6339L161.269 54.0148L152.538 16.7136C152.341 15.8369 151.551 15.1993 150.642 15.1594L138.079 15.0399C137.447 15.0399 136.855 15.3587 136.46 15.8767L108.569 54.8119C108.134 55.4096 108.055 56.2067 108.411 56.8842C108.766 57.5616 109.438 57.9602 110.149 57.9602H121.882C122.514 58 123.146 57.6812 123.502 57.1233L128.242 50.1492H145.072L146.336 56.4059C146.533 57.3225 147.324 58 148.272 58H159.689C160.281 58 160.874 57.721 161.229 57.2428C161.585 57.721 162.178 58 162.77 58H200.3C200.932 58 201.485 57.6812 201.88 57.203C202.236 57.6812 202.829 57.9602 203.421 57.9602H214.641C215.194 57.9602 215.668 57.721 216.023 57.3624C216.379 57.6812 216.853 57.8804 217.367 57.9203H229.1C229.732 57.9601 230.364 57.6413 230.719 57.0834L235.46 50.1094H252.289L253.553 56.3661C253.751 57.2827 254.541 57.9602 255.489 57.9602H266.906C267.499 57.9602 268.091 57.6812 268.447 57.203C268.802 56.7247 268.96 56.0871 268.802 55.4893H269V55.5292ZM148.39 55.9676L146.81 48.1168H127.294L121.961 55.9676H110.228C110.228 55.9277 138.119 16.9926 138.119 16.9926L150.681 17.1121L159.768 55.9676H148.351H148.39ZM162.889 55.9676L171.935 16.9926H183.155L175.767 48.9138H202.117L200.498 55.9676H162.889ZM203.579 55.9676L212.626 16.9926H223.845L214.799 55.9676H203.579ZM255.687 55.9676L254.106 48.1168H234.591L229.258 55.9676H217.525C217.525 55.9277 245.415 16.9926 245.415 16.9926L257.978 17.1121L267.064 55.9676H255.647H255.687Z" fill="#72251F"/>
<defs>
<linearGradient id="paint0_linear_1_26" x1="0.399994" y1="146.4" x2="332.6" y2="146.4" gradientUnits="userSpaceOnUse">
<stop offset="0.2" stop-color="white" stop-opacity="0"/>
<stop offset="1" stop-color="#FBDC33"/>
</linearGradient>
<linearGradient id="paint1_linear_1_26" x1="-10.8325" y1="189.234" x2="306.075" y2="-37.1627" gradientUnits="userSpaceOnUse">
<stop stop-color="#BEBEBF"/>
<stop offset="0.5" stop-color="#E1E1E1"/>
<stop offset="0.8" stop-color="#F7F7F7"/>
<stop offset="1" stop-color="white"/>
</linearGradient>
</defs>
</svg>
