<svg width="2049" height="1541" viewBox="0 0 2049 1541" fill="none" xmlns="http://www.w3.org/2000/svg">
<path d="M0.898438 106C0.898438 47.4578 48.3563 0 106.898 0H1942.9C2001.44 0 2048.9 47.4578 2048.9 106V1435C2048.9 1493.54 2001.44 1541 1942.9 1541H106.898C48.3563 1541 0.898438 1493.54 0.898438 1435V106Z" fill="#0196D0"/>
<path d="M30.8984 107C30.8984 65.0263 64.9248 31 106.898 31H1942.9C1984.87 31 2018.9 65.0264 2018.9 107V1434C2018.9 1475.97 1984.87 1510 1942.9 1510H106.898C64.9247 1510 30.8984 1475.97 30.8984 1434V107Z" fill="white"/>
<path d="M204.898 904.475V659.521H291.536V763.928L347.615 659.521H447.684L373.472 780.158L458.094 904.475H351.141L291.536 802.076V904.475H204.898Z" fill="#231F20"/>
<path d="M469.512 904.475V659.521H559.339V904.475H469.512Z" fill="#231F20"/>
<path d="M584.86 883.56L613.068 814.96C626.388 823.995 637.749 830.409 647.152 834.201C656.89 838.328 666.069 840.392 674.688 840.392C680.956 840.392 685.769 839.276 689.127 837.046C692.485 834.592 694.164 831.468 694.164 827.676C694.164 820.983 685.489 815.74 668.139 811.948C664.446 811.279 660.08 810.386 655.043 809.271C636.686 804.698 618.249 796.778 608.398 785.512C598.772 774.246 593.959 760.079 593.959 743.013C593.959 717.023 603.473 695.551 622.502 678.596C641.419 662.199 670.49 654 701.048 654C715.6 654 729.479 655.841 742.688 659.521C756.68 663.202 770.448 668.78 783.992 676.253L757.127 740.336C748.173 733.866 739.721 729.07 731.774 725.947C722.372 722.712 713.977 721.094 706.589 721.094C700.432 721.094 695.619 722.154 692.149 724.273C688.903 726.393 687.28 729.237 687.28 732.807C687.28 739.834 699.593 745.857 724.219 750.877C727.465 751.881 730.431 752.606 733.117 753.052C750.019 756.733 763.284 764.485 772.91 776.309C782.76 787.798 787.685 801.965 787.685 818.808C787.685 846.025 777.835 868.167 758.135 885.233C748.284 893.934 736.923 900.403 724.051 904.642C711.178 908.881 697.018 911 681.572 911C665.789 911 649.726 908.713 633.384 904.14C617.041 899.567 600.867 892.707 584.86 883.56Z" fill="#231F20"/>
<path d="M795.073 883.56L823.281 814.96C836.601 823.995 847.962 830.409 857.365 834.201C867.103 838.328 876.282 840.392 884.901 840.392C891.169 840.392 895.982 839.276 899.34 837.046C902.698 834.592 904.377 831.468 904.377 827.676C904.377 820.983 895.702 815.74 878.352 811.948C874.659 811.279 870.293 810.386 865.256 809.271C846.899 804.698 832.795 796.778 822.945 785.512C813.318 774.246 808.505 760.079 808.505 743.013C808.505 717.023 818.02 695.551 837.049 678.596C855.965 662.199 880.703 654 911.261 654C925.813 654 939.693 655.841 952.901 659.521C966.893 663.202 980.661 668.78 994.205 676.253L967.34 740.336C958.385 733.866 949.934 729.07 941.987 725.947C932.585 722.712 924.19 721.094 916.802 721.094C910.646 721.094 905.832 722.154 902.362 724.273C899.116 726.393 897.493 729.237 897.493 732.807C897.493 739.834 909.806 745.857 934.432 750.877C937.678 751.881 940.644 752.606 943.33 753.052C960.232 756.733 973.497 764.485 983.123 776.309C992.973 787.798 997.898 801.965 997.898 818.808C997.898 846.025 988.048 868.167 968.348 885.233C958.497 893.934 947.136 900.403 934.264 904.642C921.391 908.881 907.231 911 891.784 911C876.002 911 859.939 908.713 843.597 904.14C827.254 899.567 811.08 892.707 795.073 883.56Z" fill="#231F20"/>
<path d="M1049.9 904.475V659.521H1136.54V763.928L1192.61 659.521H1292.68L1218.47 780.158L1303.09 904.475H1196.14L1136.54 802.076V904.475H1049.9Z" fill="#231F20"/>
<path d="M1314.51 904.475V659.521H1404.34V904.475H1314.51Z" fill="#231F20"/>
<path d="M1429.86 883.56L1458.07 814.96C1471.39 823.995 1482.75 830.409 1492.15 834.201C1501.89 838.328 1511.07 840.392 1519.69 840.392C1525.96 840.392 1530.77 839.276 1534.13 837.046C1537.49 834.592 1539.16 831.468 1539.16 827.676C1539.16 820.983 1530.49 815.74 1513.14 811.948C1509.45 811.279 1505.08 810.386 1500.04 809.271C1481.69 804.698 1463.25 796.778 1453.4 785.512C1443.77 774.246 1438.96 760.079 1438.96 743.013C1438.96 717.023 1448.47 695.551 1467.5 678.596C1486.42 662.199 1515.49 654 1546.05 654C1560.6 654 1574.48 655.841 1587.69 659.521C1601.68 663.202 1615.45 668.78 1628.99 676.253L1602.13 740.336C1593.17 733.866 1584.72 729.07 1576.77 725.947C1567.37 722.712 1558.98 721.094 1551.59 721.094C1545.43 721.094 1540.62 722.154 1537.15 724.273C1533.9 726.393 1532.28 729.237 1532.28 732.807C1532.28 739.834 1544.59 745.857 1569.22 750.877C1572.46 751.881 1575.43 752.606 1578.12 753.052C1595.02 756.733 1608.28 764.485 1617.91 776.309C1627.76 787.798 1632.69 801.965 1632.69 818.808C1632.69 846.025 1622.84 868.167 1603.13 885.233C1593.28 893.934 1581.92 900.403 1569.05 904.642C1556.18 908.881 1542.02 911 1526.57 911C1510.79 911 1494.73 908.713 1478.38 904.14C1462.04 899.567 1445.87 892.707 1429.86 883.56Z" fill="#231F20"/>
<path d="M1640.07 883.56L1668.28 814.96C1681.6 823.995 1692.96 830.409 1702.36 834.201C1712.1 838.328 1721.28 840.392 1729.9 840.392C1736.17 840.392 1740.98 839.276 1744.34 837.046C1747.7 834.592 1749.38 831.468 1749.38 827.676C1749.38 820.983 1740.7 815.74 1723.35 811.948C1719.66 811.279 1715.29 810.386 1710.26 809.271C1691.9 804.698 1677.8 796.778 1667.94 785.512C1658.32 774.246 1653.51 760.079 1653.51 743.013C1653.51 717.023 1663.02 695.551 1682.05 678.596C1700.97 662.199 1725.7 654 1756.26 654C1770.81 654 1784.69 655.841 1797.9 659.521C1811.89 663.202 1825.66 668.78 1839.2 676.253L1812.34 740.336C1803.39 733.866 1794.93 729.07 1786.99 725.947C1777.58 722.712 1769.19 721.094 1761.8 721.094C1755.65 721.094 1750.83 722.154 1747.36 724.273C1744.12 726.393 1742.49 729.237 1742.49 732.807C1742.49 739.834 1754.81 745.857 1779.43 750.877C1782.68 751.881 1785.64 752.606 1788.33 753.052C1805.23 756.733 1818.5 764.485 1828.12 776.309C1837.97 787.798 1842.9 801.965 1842.9 818.808C1842.9 846.025 1833.05 868.167 1813.35 885.233C1803.5 893.934 1792.14 900.403 1779.26 904.642C1766.39 908.881 1752.23 911 1736.78 911C1721 911 1704.94 908.713 1688.6 904.14C1672.25 899.567 1656.08 892.707 1640.07 883.56Z" fill="#231F20"/>
<path d="M316.398 369H634.898L736.398 536H742.898L738.898 280H1250.4V339.5H798.898L801.898 615H714.898L601.398 428H427.898L552.898 615H481.898L316.398 369Z" fill="#0196D0"/>
<path d="M1733.9 369H1424.4L1313.9 536H1307.4L1311.4 280H1250.4V339.5L1248.4 615H1332.4L1456.9 428H1622.4L1497.4 615H1568.4L1733.9 369Z" fill="#0196D0"/>
<path d="M316.398 1194H634.898L736.398 1027H742.898L738.898 1283H1250.4V1223.5H798.898L801.898 948H714.898L601.398 1135H427.898L552.898 948H481.898L316.398 1194Z" fill="#0196D0"/>
<path d="M1733.9 1194H1424.4L1313.9 1027H1307.4L1311.4 1283H1250.4V1223.5L1248.4 948H1332.4L1456.9 1135H1622.4L1497.4 948H1568.4L1733.9 1194Z" fill="#0196D0"/>
</svg>
