<svg width="247" height="139" viewBox="0 0 247 139" fill="none" xmlns="http://www.w3.org/2000/svg">
<path d="M201.9 0C206.3 1.3 210.5 3.1 214.6 5.3C216.4 6.3 221.1 9.30002 221.4 9.50002C221.9 9.80002 222.1 10.3 222.1 10.8V48.5C222.1 49.4 221.4 50.1 220.5 50.1H191.3C190.6 50.1 190.1 49.7 189.8 49.1L189.5 48.2C185.7 38 182.4 33.7 171.8 33.7C155.2 33.7 146.8 45.5 146.8 68.9C146.8 89.9 158.7 103 177.7 103C185.9 103 194 101.6 201.7 98.8L212.2 95.2C213 94.9 213.9 95.4 214.2 96.2L225 126C225.3 126.7 225 127.5 224.4 127.9C216.9 132.8 206.4 136.6 196.2 139H246.6V0H201.9Z" fill="white"/>
<path d="M99.3 71.4C99.3 51.2 106.9 32.5 120.6 18.6C129.3 9.79999 140.1 3.5 152 0H0V138.8H146.6C136.6 136.3 127.4 131.5 119.7 124.7C106.2 112.6 99.3 94.6 99.3 71.4ZM76 98.2C75.9 96.5 75.8 94.8 75.8 93.2H75.7C73.2 97.2 70.1 99 65.6 99C60 99 54.8 96.5 53.8 91V98.3H24.7C24.7 98.3 24.7 55.4 24.6 55.4H36V89.8H53.6C53.6 89.5 53.6 89.2 53.6 88.9C53.6 79.1 64.2 78 70.1 78C71.8 78 73.6 78.2 75.3 78.4C75.2 74 72 72.9 68 72.9C64.5 72.8 61 73.6 57.8 75.3L57.6 67.8C61.7 66.2 66 65.4 70.4 65.5C78.6 65.5 85.6 69 85.6 78.7V90.6C85.6 93.1 85.8 95.7 86.2 98.1L76 98.2Z" fill="white"/>
<path d="M63.7 88C63.7 90.2 65.7 91.6 68.3 91.6C72.5 91.6 75.1 87.8 75.1 84C73.7 83.9 72.1 83.8 70.4 83.8C66.7 83.8 63.7 85 63.7 88Z" fill="white"/>
</svg>
