<svg width="184" height="184" viewBox="0 0 184 184" fill="none" xmlns="http://www.w3.org/2000/svg">
<path d="M0 50C0 22.3858 22.3858 0 50 0H134C161.614 0 184 22.3858 184 50V134C184 161.614 161.614 184 134 184H50C22.3858 184 0 161.614 0 134V50Z" fill="#13B0E7"/>
<path d="M17 50C17 31.7746 31.7746 17 50 17H134C152.225 17 167 31.7746 167 50V134C167 152.225 152.225 167 134 167H50C31.7746 167 17 152.225 17 134V50Z" fill="white"/>
<path d="M60.6419 140C56.8865 140 54.0073 138.99 52.0044 136.97C50.0015 134.824 49 131.795 49 127.882V56.3077C49 52.3945 50.0015 49.428 52.0044 47.4083C54.0073 45.3886 56.8239 44.3787 60.4541 44.3787C64.0844 44.3787 66.901 45.3886 68.9039 47.4083C70.9068 49.428 71.9083 52.3945 71.9083 56.3077V69.1834L69.8428 64.4497C72.5968 57.7594 76.853 52.7101 82.6114 49.3018C88.4949 45.7673 95.1296 44 102.515 44C109.901 44 115.972 45.3886 120.729 48.1657C125.486 50.9428 129.054 55.1716 131.432 60.8521C133.811 66.4063 135 73.4753 135 82.0592V127.882C135 131.795 133.999 134.824 131.996 136.97C129.993 138.99 127.114 140 123.358 140C119.603 140 116.661 138.99 114.533 136.97C112.53 134.824 111.528 131.795 111.528 127.882V83.1953C111.528 76 110.151 70.7613 107.397 67.4793C104.769 64.1972 100.638 62.5562 95.0044 62.5562C88.1194 62.5562 82.6114 64.7653 78.4804 69.1834C74.4745 73.4753 72.4716 79.2189 72.4716 86.4142V127.882C72.4716 135.961 68.5284 140 60.6419 140Z" fill="#13B0E7"/>
</svg>
