<svg width="432" height="269" viewBox="0 0 432 269" fill="none" xmlns="http://www.w3.org/2000/svg">
<g clip-path="url(#clip0_9_102)">
<path d="M303.27 268.2L303.25 220.55L331.98 220.56L332.91 233.67L316.8 233.66L316.82 239.9L329.95 239.88L329.97 252.92H316.75L316.76 268.2H303.27Z" fill="white"/>
<path d="M354.84 221.2C342.25 221.2 332.11 231.65 332.13 244.5C332.138 247.489 332.734 250.447 333.885 253.205C335.036 255.964 336.72 258.468 338.839 260.576C340.958 262.684 343.471 264.354 346.235 265.49C349 266.627 351.961 267.208 354.95 267.2C357.939 267.192 360.897 266.596 363.655 265.445C366.414 264.293 368.918 262.61 371.026 260.491C373.134 258.372 374.804 255.859 375.94 253.094C377.077 250.33 377.658 247.369 377.65 244.38C377.65 231.53 367.37 221.14 354.84 221.2ZM354.98 257.82C354.467 257.819 353.96 257.716 353.487 257.518C353.015 257.32 352.586 257.031 352.225 256.667C351.865 256.302 351.58 255.87 351.386 255.396C351.193 254.921 351.096 254.413 351.1 253.9V234.9C351.088 233.847 351.483 232.83 352.202 232.061C352.921 231.292 353.909 230.829 354.96 230.77C356.025 230.821 357.031 231.275 357.774 232.04C358.517 232.805 358.941 233.824 358.96 234.89V253.98C358.929 255.02 358.494 256.007 357.747 256.731C357 257.456 356 257.86 354.96 257.86L354.98 257.82Z" fill="white"/>
<path d="M413.43 268.22L398.99 243.29L412.02 220.54L397.25 220.55L391.66 230.77L386.12 220.54H370.86L384.26 243.37L370.23 268.23H385L391.57 256.06L398.23 268.22H413.43Z" fill="white"/>
<path d="M430.92 268.23H421.03L406.52 243.28L419.58 220.54H430.92V268.23Z" fill="#A80000"/>
<path d="M295.93 220.56H0.0200195V268.23H295.93V220.56Z" fill="#A80000"/>
<path d="M0.0500488 84.13H38.3601L82.61 153.85V84.13H120.18V211.66H81.5201L37.4401 142.11V211.66H0.0500488V84.13Z" fill="#A80000"/>
<path d="M431.05 84.31L396.36 211.84H356.99L339.65 135.97L322.36 211.84H283.16L247.7 84.31H286.36L303.52 155.84L319.6 84.31H359.7L375.41 156.2L392.57 84.31H431.05Z" fill="#A80000"/>
<path d="M191.36 80.9C154.43 80.9 124.54 111.41 124.54 149.05C124.54 186.69 154.43 217.2 191.36 217.2C228.29 217.2 258.11 186.69 258.11 149.06C258.11 111.43 228.2 80.9 191.36 80.9ZM203.18 177.02C203.037 179.987 201.753 182.785 199.595 184.827C197.438 186.869 194.574 187.997 191.603 187.977C188.633 187.956 185.785 186.788 183.656 184.716C181.527 182.644 180.281 179.829 180.18 176.86V121.04C180.18 114.64 185.32 108.93 191.57 108.93C197.82 108.93 203.23 114.64 203.23 121.04L203.18 177.02Z" fill="#A80000"/>
<path d="M0 0V75.06L430.93 74.9V0H0ZM37.59 66.5H8.46V8.42H20.64V55.97H37.64L37.59 66.5ZM54.53 66.5H42.36V8.42H54.53V66.5ZM92.95 66.5H80.53L58.53 8.42H71.45L86.75 51.94L102.05 8.42H114.8L92.95 66.5ZM155.95 18.5H130.95V32.03H155.71V42.03H130.96V56.42H155.96V66.5H118.78V8.42H155.96L155.95 18.5Z" fill="#0E1B4F"/>
<path d="M37.59 66.5H8.45996V8.42H20.64V55.97H37.64L37.59 66.5Z" fill="white"/>
<path d="M54.53 66.5H42.36V8.42H54.53V66.5Z" fill="white"/>
<path d="M92.95 66.5H80.53L58.53 8.42H71.45L86.75 51.94L102.05 8.42H114.8L92.95 66.5Z" fill="white"/>
<path d="M155.95 18.5H130.95V32.03H155.71V42.03H130.96V56.42H155.96V66.5H118.78V8.42H155.96L155.95 18.5Z" fill="white"/>
</g>
<defs>
<clipPath id="clip0_9_102">
<rect width="431.04" height="268.23" fill="white"/>
</clipPath>
</defs>
</svg>
