<svg width="927" height="352" viewBox="0 0 927 352" fill="none" xmlns="http://www.w3.org/2000/svg">
<path d="M0 150.679H3.14967C14.9084 150.679 14.9084 147.735 14.9084 123.171V40.5782C14.9084 16.0491 14.9084 13.0355 3.14967 13.0355H0V7.00832H68.8727V13.0355H65.7231C53.9643 13.0355 53.9643 15.979 53.9643 40.5782V149.207H72.6523C95.9599 149.207 110.658 140.972 111.148 115.953H120.387V156.671H0V150.679ZM110.028 51.7214C116.748 50.8804 128.716 46.6754 128.716 38.8962C128.716 37.0039 127.876 36.1629 125.217 36.1629C116.188 36.1629 104.849 31.958 104.849 17.0302C104.989 7.00832 113.388 0 124.517 0C138.515 0 145.935 10.3022 145.935 24.8095C145.935 45.2037 129.976 56.3469 110.938 59.0802L110.028 51.7214ZM302.788 13.0355C289.349 13.0355 286.83 16.1892 286.83 47.3062V99.8686C286.83 140.657 266.672 160 227.336 160C192.34 160 171.692 139.431 171.692 110.942V41.4192C171.692 18.0815 171.692 13.0355 156.573 13.0355V7.00832H225.726V13.0355C213.337 13.0355 210.608 14.0867 210.608 26.4915V115.427C210.608 131.616 215.647 148.892 242.314 148.892C271.711 148.892 277.591 120.859 277.591 99.0276V55.7162C277.591 13.6662 274.091 13.0355 260.093 13.0355V7.00832H302.788V13.0355Z" fill="white"/>
<path d="M300.968 150.679C315.457 150.679 315.667 133.649 315.667 123.767V40.5782C315.667 16.0491 315.667 13.0355 303.908 13.0355H300.758V7.00832H354.723C364.712 25.5005 375.645 43.4656 387.479 60.8322L421.705 114.025H421.915V39.9474C421.915 30.0657 421.705 13.0355 407.217 13.0355H404.487V7.00832H445.853V13.0355C431.364 13.0355 431.154 30.0657 431.154 39.9474V158.353H404.907L325.256 36.3732H324.836V123.627C324.836 133.509 325.046 150.539 339.534 150.539H342.264V156.671H300.968V150.679ZM446.203 150.679H449.353C461.111 150.679 461.111 147.735 461.111 123.171V40.5782C461.111 16.0491 461.111 13.0355 449.353 13.0355H446.203V7.00832H515.076V13.0355H511.926C500.167 13.0355 500.167 15.979 500.167 40.5782V123.031C500.167 147.56 500.167 150.539 511.926 150.539H515.076V156.671H446.203V150.679ZM519.695 81.7871C519.695 37.4244 541.533 3.50416 588.778 3.50416C636.023 3.50416 657.93 37.4244 657.93 81.7871C657.93 126.15 636.093 160 588.848 160C541.603 160 519.695 126.15 519.695 81.7871ZM616.915 81.7871C616.915 47.5164 616.915 9.67148 588.918 9.67148C560.921 9.67148 560.921 47.5164 560.921 81.7871C560.921 116.058 560.921 153.903 588.918 153.903C616.915 153.903 616.915 116.058 616.915 81.7871ZM660.17 150.679C674.659 150.679 674.869 133.649 674.869 123.767V40.5782C674.869 16.0491 674.869 13.0355 663.11 13.0355H659.96V7.00832H713.925C723.914 25.5005 734.847 43.4656 746.681 60.8322L780.908 114.025H781.117V39.9474C781.117 30.0657 780.908 13.0355 766.419 13.0355H763.689V7.00832H804.915V13.0355C790.427 13.0355 790.216 30.0657 790.216 39.9474V158.353H763.969L684.528 36.3732H684.108V123.627C684.108 133.509 684.318 150.539 698.806 150.539H701.536V156.671H660.17V150.679Z" fill="white"/>
<path d="M802.955 150.679H806.105C817.864 150.679 817.864 147.735 817.864 123.171V40.5782C817.864 16.0491 817.864 13.0355 806.105 13.0355H802.955V7.00832H924.322V42.8909H915.083C911.934 24.5992 904.584 14.297 884.846 14.297H856.849V75.6899H875.328C888.556 75.6899 898.845 72.9566 900.525 52.5624H908.084V106.597H900.525C898.635 86.4126 888.346 83.0486 874.908 83.0486H856.849V149.312H876.377C897.165 149.312 915.853 146.965 917.323 118.16H926.562V156.706H802.955V150.679Z" fill="white"/>
<path d="M521.806 352C517.312 336.109 511.774 320.531 505.23 305.366L467.728 207.457C464.203 198.55 460.228 198.55 450.927 198.55V192H530.131V198.55C522.631 198.55 513.03 198.55 513.03 206.634C513.03 211.986 527.506 244.884 529.306 251.396H577.908C581.659 242.189 591.784 216.739 591.784 210.414C591.784 198.55 583.234 198.55 573.333 198.55V192H623.061V198.55C613.835 198.55 610.01 203.715 605.96 210.901C589.759 239.42 568.158 299.602 554.882 330.667C553.532 334.035 547.682 348.407 546.782 351.775L521.806 352ZM529.306 251.396L552.032 312.477L577.908 251.396H529.306Z" fill="#009BE7"/>
<path d="M451.035 192V235.531H441.134L441.099 234.29C440.115 208.51 424.468 199.979 399.882 199.979H399.07V316.111C399.07 342.409 399.07 345.557 411.671 345.557H414.618V350.606L415.046 352H339.587V345.557H343.018C355.828 345.557 355.828 342.409 355.828 316.111V199.979H355.003C329.612 199.979 313.599 208.783 313.065 235.531H303V192H451.035Z" fill="#009BE7"/>
</svg>
