<svg width="557" height="180" viewBox="0 0 557 180" fill="none" xmlns="http://www.w3.org/2000/svg">
<path d="M148.932 96.9068C154.4 90.5795 172.179 73.0051 202.225 73.0051C218.854 73.0051 232.636 81.1907 240.124 94.5112C244.013 101.451 246.204 109.411 246.204 120.615V148.76H217.157V122.269C217.157 116.415 216.587 113.181 215.502 110.292C212.709 102.837 206.468 99.6246 197.659 99.6246C184.35 99.6246 173.081 109.003 163.703 117.779C154.271 126.599 140.779 140.617 134.108 148.169C133.431 148.943 132.625 149.244 131.755 148.975C130.917 148.696 130.627 148.051 130.627 146.762V120.905C130.627 106.425 122.936 99.6246 110.496 99.6246C95.65 99.6246 83.4789 111.312 68.9337 125.557C57.579 136.675 47.1697 147.815 32.5494 163.133C31.8404 163.885 31.0669 164.208 30.186 163.928C29.3481 163.66 29.0581 163.015 29.0581 161.726V106.886C29.0581 101.129 26.2758 97.2398 19.4114 97.2398H0V75.4113H45.8806C53.5829 75.4113 58.1161 79.7835 58.1161 87.5824V100.162C58.1161 100.162 83.8119 73.0051 112.118 73.0051C136.159 73.0051 145.742 87.5287 148.932 96.9068ZM338.309 73.0051C290.42 73.0051 268.086 114.342 268.086 140.607C268.086 159.75 273.092 170.868 278.334 179.419H310.798C304.965 170.814 297.209 158.235 297.209 140.607C297.209 119.229 314.3 99.6246 338.18 99.6246C356.453 99.6246 369.505 111.721 377.025 117.65C387.971 126.287 405.395 140.585 413.549 147.901C414.311 148.599 415.02 148.996 415.901 148.706C416.739 148.449 417.029 147.783 417.029 146.515V12.1711C417.029 4.37213 412.496 0 404.804 0H358.924V21.8392H377.648C384.512 21.8392 387.294 25.7172 387.294 31.4858V93.4585C370.772 76.7434 352.532 73.0051 338.309 73.0051ZM494.471 100.162V87.5824C494.471 79.7835 489.937 75.4113 482.246 75.4113H436.365V97.2398H455.766C462.641 97.2398 465.423 101.129 465.423 106.886V161.92C465.423 163.198 465.713 163.853 466.541 164.132C467.421 164.401 468.195 164.068 468.915 163.316C475.403 156.505 490.614 140.209 500.497 130.595C522.906 108.809 540.684 99.6246 556.218 99.6246V73.0051C536.516 73.0051 529.802 75.9055 518.158 82.0931C509.607 86.6371 499.81 94.7905 494.471 100.162Z" fill="#0063AF"/>
</svg>
