<svg width="1235" height="754" viewBox="0 0 1235 754" fill="none" xmlns="http://www.w3.org/2000/svg">
<path d="M911.3 352.3L910.8 352.6C905.8 356 900.4 358.7 894.8 360.7C888 363.1 881 364.4 874 364.4C866.1 364.4 859.1 363.1 853.3 360.6C850 359.2 846.9 357.4 844.1 355.2L840 352L835.7 354.9C831.8 357.5 827.6 359.6 823.3 361.3C822.4 361.7 821.4 362 820.5 362.3L812.7 364.8L816.2 372.3C818.1 376.5 819.1 381.1 819.1 386.1C819.1 393.7 816.9 400.4 812.5 405.9L809.3 409.9L812 414.2C813.4 416.4 814 419.1 813.8 421.8L810.2 455.9L825.9 435.7C829.1 431.6 832.6 427.9 836.6 424.8C842.5 420 849.6 416.1 857.6 413.4C865.5 410.7 874.7 409.3 884.8 409.3C893.3 409.3 901.3 409.8 908.6 410.7C909.2 410.8 909.9 410.9 910.5 411C911.8 399.7 912.5 388.2 912.5 376.5C912.3 368.4 911.9 360.3 911.3 352.3Z" fill="white"/>
<path d="M346.5 295.7L357.1 292.3C357.6 292.2 358.1 292 358.5 291.9C362.7 291.1 367.1 292.7 369.8 296C371.7 298.3 373.6 300.6 375.6 302.9C377.6 305.3 379.6 307.7 381.6 310C384.2 313.2 385 317.6 383.7 321.5C381.7 327.1 378.6 332.6 374.4 337.8L374.2 338C374 338.2 373.9 338.4 373.7 338.6L363.7 350.7L380.9 350.5C381.8 350.5 382.7 350.5 383.6 350.5C395 350.5 405.1 352.2 413.8 355.5C422.5 358.8 429.8 363.2 435.8 368.5L436.1 368.8L438.3 370.9L438.4 371C443.1 375.8 446.9 381.1 449.5 386.8C452.6 393.5 454.3 400.3 454.5 407C454.7 413.9 454 420.6 452.3 426.9L448.7 440L440.7 450.5C439.4 452.2 438 453.9 436.5 455.4L433.1 459.1L435.3 463.6C435.8 464.7 436.3 465.9 436.9 467.3L445.2 489.7L450.8 466.5C451.6 463.4 452.4 460.2 453.4 457.2L458 443.1L465.2 433.1C467.1 430.5 469.2 428 471.3 425.9C475.7 421.4 481 417.8 486.9 415.1C493 412.4 499.9 411 507.4 411C511.4 411 515.2 411.4 518.9 412.3C520 412.6 521.1 412.8 522.1 413.2L525.9 414.3L528.9 411.7C531.2 409.7 534.2 408.7 537.1 408.9L584.3 411C587.5 411.1 590.6 412.6 592.7 415.1C594.8 417.6 595.8 420.8 595.5 424L592 458.2L608.3 433.2C610.2 430.2 612.3 427.5 614.5 425.1C618.9 420.2 624.1 416.3 629.9 413.4C636.1 410.4 643.1 408.8 650.8 408.8C655 408.8 658.7 409.1 662 409.7L669.7 411L674.6 362.5H630.5C628.7 362.5 626.9 362.1 625.2 361.2L621.9 359.6L618.6 361.2C616.9 362 615.2 362.5 613.3 362.5H562.9C559.5 362.5 556.3 361.1 554.1 358.5C551.9 356 550.8 352.6 551.2 349.3L553.4 329.9L550.6 327.4C549.2 326.1 547.8 324.9 546.3 323.6C542.3 320 538 316.4 533.5 312.8C530.5 310.4 527.3 307.9 524.1 305.5L516.2 299.7L512.9 309C511.3 313.5 509.9 318 508.7 322.3C507.2 327.7 506 333 505.1 337.9C504.3 342.6 503.9 346.9 503.9 350.8C503.9 357.3 498.6 362.6 492.1 362.6H455.2C452.6 362.6 450.1 361.7 448 360.1L446.4 358.5C446.4 358.4 446.3 358.4 446.3 358.3C444.5 356.2 443.5 353.4 443.5 350.6C443.5 345.2 444.1 339.2 445.3 332.3C446.2 327.3 447.3 322 448.7 316.5L451.7 304.7L439.9 307.6C437 308.3 434.1 308.7 431 308.7C426.2 308.7 421.6 307.8 417.1 306C412.7 304.2 408.7 301.7 405.3 298.5C401.9 295.3 399.1 291.4 397 287C394.8 282.4 393.8 277.3 393.8 271.9C393.8 263.9 395.7 256.8 399.4 250.8C403 245 407.9 240.3 414 236.7C419.5 233.5 426 231.1 433.2 229.6C445.3 227.1 459.2 226.7 474.1 229.2C476.1 229.5 478.2 230 480.3 230.4L485.3 231.5L488 227.2C492.9 219.6 498.2 212 503.7 204.8C512.4 193.4 522.1 183.3 532.3 174.6C542.8 165.8 554.1 158.6 566 153.3C583 145.7 601.3 143.2 620.2 146.2C625.3 147 630.5 148.3 635.7 150C641 151.8 644.3 156.9 643.7 162.4L639.1 209.3L690.9 207C693.6 206.9 696.4 207.7 698.5 209.4L701.4 211.6L704.9 210.6C709.4 209.3 714.1 208.6 719 208.6C730.3 208.6 739.7 211.4 747 216.9L751 219.9L755.2 217.3C756.7 216.4 758.2 215.5 759.8 214.8C767.8 210.8 776.2 208.8 784.7 208.8C792.3 208.8 799 210 804.8 212.2C810.9 214.6 816.1 218.2 820.1 222.8C820.7 223.5 821.3 224.2 822 225.1L833.1 240L835.2 219.8C835.5 216.5 837.3 213.5 839.9 211.5L845.3 207.5L841.7 201.8C838.6 196.8 837 191 837 184.5C837 183 837.1 181.6 837.3 180.2C783.2 119.5 704.5 81.2 617 81.2C500.2 81.2 399 149.4 351.3 248.1L346.5 295.7Z" fill="white"/>
<path d="M825 555.4C824.9 555.3 824.7 555.1 824.5 555L820.4 551.9L816.1 554.7C811.4 557.7 806.4 560.2 801.2 562.1C794.4 564.5 787.4 565.8 780.4 565.8C772.5 565.8 765.5 564.5 759.7 562C756.1 560.5 752.7 558.4 749.7 556L745.7 552.7L741.3 555.4C736.7 558.3 731.9 560.5 727 562.2C720.7 564.3 714.3 565.4 708.1 565.4C697.3 565.4 688.3 562.9 681.2 558C680.8 557.8 680.5 557.5 680.1 557.2L675.9 554.1L671.6 557C670.5 557.8 669.3 558.5 667.9 559.3C664.7 561.2 661 562.8 656.8 564C652.4 565.4 647.3 566 641.8 566C633.2 566 625.6 564.4 619.1 561.3C615.2 559.5 611.6 557.1 608.4 554.3L604.2 550.6L599.6 553.7C594.6 557.1 589.3 559.8 583.9 561.8C577.3 564.3 570.5 565.5 563.8 565.5C552.3 565.5 542.4 562.6 535 557.2L530.9 554.2L526.7 557C525.7 557.7 524.7 558.3 523.6 559C520.4 560.9 516.7 562.5 512.5 563.8C508.1 565.2 503 565.8 497.5 565.8C488.8 565.8 481 564.2 474.4 560.9C471.3 559.4 468.4 557.6 465.8 555.5L461.7 552.2L457.3 555.1C451.9 558.7 446.2 561.5 440.5 563.5C434.2 565.7 428 566.8 422.1 566.8H421.6C409.4 567.7 399.8 566.5 391.9 563.3C390.6 562.8 389.3 562.2 388.1 561.5C442.2 628.3 524.9 671.1 617.4 671.1C708.8 671.1 790.6 629.3 844.8 563.8C837.1 562.6 830.5 559.6 825 555.4Z" fill="white"/>
<path d="M618 699.2C603.9 699.2 589.7 698.3 575.4 696.4C525.2 689.8 478.7 672.2 437 644.1L445.1 632.1C484.9 659 529.4 675.8 577.3 682.1C625.8 688.5 673.7 683.5 719.6 667.3L724.4 681C689.8 693.1 654.2 699.2 618 699.2Z" fill="white"/>
<path d="M789.4 121.2C749.6 94.3 705.1 77.5 657.2 71.2C608.7 64.8 560.9 69.8 515 86L510.2 72.3C558.2 55.4 608.4 50.1 659.2 56.8C709.4 63.4 755.9 81 797.6 109.1L789.4 121.2Z" fill="white"/>
<path d="M617.3 753.2C560.5 753.2 505.9 740.9 455 716.5L461.3 703.4C510.2 726.8 562.7 738.7 617.3 738.7C672.6 738.7 725.7 726.5 775.2 702.6L781.5 715.7C730 740.6 674.8 753.2 617.3 753.2Z" fill="white"/>
<path d="M459.4 50.7L453.1 37.6C504.5 12.7 559.7 0 617.3 0C674.1 0 728.7 12.3 779.6 36.7L773.3 49.8C724.4 26.4 671.9 14.5 617.3 14.5C561.9 14.5 508.8 26.7 459.4 50.7Z" fill="white"/>
<path d="M617.5 726.9C591.2 726.9 564.9 723.9 538.8 717.9C486.5 705.9 439 682.8 397.6 649.4L406.7 638.1C446.4 670.1 492 692.2 542.1 703.8C592.8 715.5 644.1 715.3 694.4 703.4L697.7 717.5C671.2 723.8 644.4 726.9 617.5 726.9Z" fill="white"/>
<path d="M827.8 115.1C788.1 83.1 742.5 61 692.4 49.4C641.7 37.7 590.4 37.9 540.1 49.8L536.8 35.7C589.3 23.3 642.8 23.1 695.7 35.3C748 47.3 795.5 70.4 836.9 103.8L827.8 115.1Z" fill="white"/>
<path d="M414.1 582.1C403.5 582.1 394.4 580.5 386.4 577.3C381.3 575.2 376.7 572.6 372.5 569.5C367.6 575.1 360.4 578.5 352.7 578.5H303C295.6 578.5 288.4 575.3 283.4 569.8C278.4 564.3 276 556.9 276.7 549.5L283.6 480.7C280.9 481.2 278.1 481.4 275.3 481.4C267.3 481.4 259.8 479.6 253.1 476.2C246.9 473 241.5 468.6 237.1 463.1C233 458.1 229.9 452.3 227.9 446C226 440.1 225 433.9 225 427.6C225 415.6 227.8 404.4 233.2 394.3C236.1 388.9 239.7 383.8 244 379.1C235.8 378.7 228.4 377 221.7 374.2C213.8 370.9 207 366.1 201.5 360L201.3 360.5C197.3 370.7 187.7 377.3 176.7 377.3H137.2C131.2 377.3 125.4 375.2 120.8 371.6C116.2 375.3 110.4 377.3 104.4 377.3H59.8C51.7 377.3 44.2 373.7 39.2 367.3C34.2 361 32.3 352.8 34.1 344.9L49 280.3C41.4 280.1 34.3 278.4 27.9 275.1C21.6 271.8 16.2 267.4 11.8 261.8C7.9 256.8 4.9 251.1 2.8 245C1 238.9 0 232.7 0 226.4C0 215.9 2.3 205.9 6.7 196.6C10.7 188.2 16.3 180.4 23.2 173.4C29.7 166.9 37.3 161.2 45.8 156.3C53.8 151.7 62.4 147.8 71.6 144.6C80.6 141.5 90.2 139.1 99.9 137.5C109.6 135.9 119.5 135.1 129.4 135.1C136.9 135.1 144.3 135.7 151.1 136.8C162.2 138.7 170.9 147.3 172.8 158.4L178.1 189.9L194.3 152.3C198.5 142.6 208 136.4 218.5 136.4H268.3C275.5 136.4 282.5 139.4 287.5 144.7C288.1 145.4 288.8 146.1 289.3 146.9C298.2 140.5 309.2 137.2 322 137.2C336.5 137.2 348.6 141.3 358.1 149.4C368.6 158.4 374.2 170.7 374.2 184.8C374.2 194 371.8 202.5 367.2 209.8C368.7 213.7 369.3 217.9 368.8 222.1L362.9 277.3C369.9 277.9 376.4 281.3 380.9 286.8C381.2 287.2 381.5 287.5 381.8 287.9C380.2 282.9 379.3 277.6 379.3 272.1C379.3 261.4 381.9 251.7 387 243.4C391.8 235.6 398.4 229.2 406.6 224.4C413.5 220.4 421.4 217.4 430.2 215.6C444 212.8 459.8 212.3 476.4 215.1C477 215.2 477.7 215.3 478.3 215.4C482.6 208.9 487.2 202.4 492 196.2C501.4 184 511.7 173.1 522.8 163.8C534.3 154.1 546.8 146.2 560 140.3C579.5 131.6 600.7 128.6 622.4 132.1C628.3 133 634.3 134.5 640.2 136.5C651.9 140.4 659.3 151.8 658.1 164.1L655.1 194.3L690.2 192.7C690.6 192.7 691 192.7 691.4 192.7C695.8 192.7 700.2 193.8 704.1 196C708.9 194.8 713.9 194.3 719 194.3C731.6 194.3 742.6 197.1 751.7 202.7C752.2 202.4 752.7 202.2 753.3 201.9C763.3 196.9 773.9 194.4 784.6 194.4C794 194.4 802.6 195.9 810 198.8C815.4 200.9 820.2 203.7 824.5 207.2C825.1 206.3 825.7 205.4 826.4 204.5C823.6 198.5 822.3 191.9 822.3 184.7C822.3 170.6 827.9 158.3 838.4 149.3C847.9 141.2 860 137.1 874.3 137.1C888.8 137.1 900.9 141.2 910.4 149.3C920.9 158.3 926.5 170.6 926.5 184.7C926.5 193.9 924.1 202.4 919.5 209.7C919.6 210.1 919.8 210.5 919.9 210.8C923.8 207.6 928.1 204.7 932.7 202.2C942.6 196.9 954.3 194.2 967.4 194.2C971.7 194.2 975.9 194.7 979.9 195.6C983.9 193.6 988.4 192.6 993 192.8L1040.6 195.1C1047.8 195.4 1054.6 198.8 1059.3 204.2C1060 205 1060.6 205.8 1061.2 206.7C1066.7 203.3 1072.7 200.4 1079.2 198.2C1088.6 195 1099.4 193.4 1111.1 193.4C1120.2 193.4 1128.8 193.9 1136.8 194.9C1146.9 196.2 1156.1 199 1164.1 203.4C1173.5 208.5 1181.2 215.9 1186.9 225.4C1188.2 227.6 1189.4 230 1190.5 232.5C1191.8 232.3 1193 232 1194.2 231.7C1197.1 231.1 1198.5 230.6 1199.1 230.4C1201.9 229.4 1204.8 228.9 1207.8 228.9C1214 228.9 1220 231.1 1224.7 235C1231.8 240.9 1235.3 250.3 1233.8 259.4L1229.2 287.9C1227.7 297.1 1221.4 304.9 1212.8 308.3C1205.9 311 1198.9 313 1192 314.4C1190.5 319.9 1188.5 325.2 1186.1 330.4C1183 337 1179 343.2 1174.3 349C1169.1 355.4 1162.7 360.9 1155.4 365.6C1148.2 370.2 1139.7 373.8 1130.3 376.3C1121.2 378.7 1111 379.9 1099.8 379.9C1089.2 379.9 1079.5 379.1 1071.1 377.5C1063 376 1055.6 373.3 1049.1 369.5C1049.1 369.6 1049 369.7 1049 369.8C1048 373.8 1046.7 377.7 1045.3 381.6C1039.7 398.6 1030.4 411.8 1017.6 420.7C1009.8 426.1 1001 430 991.1 432.1C993.5 433.1 995.7 434.5 997.8 436.2C1004.9 442.1 1008.4 451.5 1006.9 460.6L1002.3 489.1C1000.8 498.3 994.5 506.1 985.9 509.5C979 512.2 972 514.2 965.1 515.6C963.6 521.1 961.6 526.4 959.2 531.6C956.1 538.2 952.1 544.4 947.4 550.2C942.2 556.6 935.8 562.1 928.5 566.8C921.3 571.4 912.8 575 903.4 577.5C894.3 579.9 884.1 581.1 872.9 581.1C862.3 581.1 852.6 580.3 844.2 578.7C834.9 577 826.6 573.7 819.5 569C815.1 571.5 810.6 573.6 805.9 575.3C797.6 578.3 788.9 579.8 780.2 579.8C770.4 579.8 761.5 578.1 753.8 574.9C750.5 573.5 747.4 571.8 744.4 569.8C740.2 572.1 735.8 574 731.4 575.5C723.6 578.2 715.6 579.5 707.8 579.5C695.3 579.5 684.4 576.7 675.4 571.3C675.3 571.4 675.2 571.4 675.1 571.5C670.9 573.9 666.2 576 660.9 577.6C655.1 579.4 648.6 580.3 641.6 580.3C630.9 580.3 621.1 578.3 612.7 574.2C609.3 572.6 606 570.7 603 568.5C598.4 571.2 593.6 573.5 588.7 575.3C580.4 578.4 572 579.9 563.6 579.9C551 579.9 539.6 577 530.4 571.6C526.3 574 521.6 576 516.5 577.5C510.7 579.3 504.2 580.2 497.2 580.2C486.3 580.2 476.3 578.1 467.7 573.8C465.3 572.6 462.9 571.3 460.7 569.8C455.6 572.8 450.2 575.3 444.8 577.2C437.1 579.8 429.4 581.2 422 581.3C419.5 582 416.8 582.1 414.1 582.1ZM826.4 411.1C826.7 411.9 827 412.7 827.2 413.5C834.5 407.6 843 402.9 852.7 399.7C862.1 396.5 872.9 394.9 884.6 394.9C893.7 394.9 902.3 395.4 910.3 396.4C910.6 396.4 910.9 396.5 911.3 396.5C910.8 392.9 911.1 389.3 912.2 385.7L911.5 369.4C910.6 368.8 909.8 368.2 908.9 367.6C904.2 370.3 904.9 372.6 899.9 374.5C891.6 377.5 882.9 379 874.2 379C864.4 379 855.5 377.3 847.8 374.1C844.9 372.9 842.2 371.4 839.6 369.8C837.2 371.2 834.6 372.5 832.1 373.6C833.2 377.6 833.7 381.8 833.7 386.2C833.4 395.3 831 403.9 826.4 411.1ZM392.9 336.3C402.5 337 411.2 338.9 419.1 341.9C422.6 343.3 426 344.8 429.2 346.4C429.4 341.4 430.1 336 431.1 330C431.5 327.9 431.9 325.7 432.4 323.4C425.4 323.6 418.5 322.3 412 319.7C406.9 317.7 402.3 314.9 398.1 311.5C399.3 316.4 399.1 321.5 397.4 326.3C396.2 329.7 394.7 333 392.9 336.3ZM448.2 360L448.3 360.1C450.4 361.7 452.9 362.6 455.5 362.6H492.4C498.9 362.6 504.2 357.3 504.2 350.8C504.2 346.9 504.6 342.6 505.4 337.9C506.2 333 507.4 327.7 509 322.3C510.2 318 511.6 313.5 513.2 309L516.5 299.7L524.4 305.5C527.7 307.9 530.8 310.4 533.8 312.8C538.3 316.4 542.6 320.1 546.6 323.6C548.1 324.9 549.5 326.2 550.9 327.4L553.7 329.9L551.5 349.3C551.1 352.7 552.2 356 554.4 358.5C556.6 361 559.9 362.5 563.2 362.5H613.6C615.5 362.5 617.3 362.1 618.9 361.2L622.2 359.6L625.5 361.2C627.2 362 629 362.5 630.8 362.5H674.9L670 411L662.3 409.7C659 409.1 655.3 408.8 651.1 408.8C643.4 408.8 636.4 410.3 630.2 413.4C624.4 416.3 619.2 420.2 614.8 425.1C612.6 427.5 610.6 430.2 608.6 433.2L592.3 458.2L595.8 424C596.1 420.8 595.1 417.5 593 415.1C590.9 412.6 587.8 411.2 584.6 411L537.4 408.9C534.5 408.8 531.4 409.8 529.2 411.7L526.2 414.3L522.4 413.2C521.3 412.9 520.3 412.6 519.2 412.3C515.6 411.4 511.7 411 507.7 411C500.2 411 493.2 412.4 487.2 415.1C481.3 417.7 476 421.3 471.6 425.9C469.5 428.1 467.4 430.5 465.5 433.1L458.3 443.1L453.7 457.2C452.7 460.2 451.8 463.3 451.1 466.5L445.5 489.7L437.2 467.3C436.7 465.9 436.2 464.7 435.6 463.6L433.4 459.1L436.8 455.4C438.2 453.9 439.6 452.2 441 450.5L449 440L452.6 426.9C454.3 420.6 455.1 413.8 454.8 407C454.5 400.3 452.8 393.5 449.8 386.8C447.2 381.1 443.5 375.8 438.7 371L438.6 370.9L436.4 368.8L436.1 368.5C430.2 363.2 422.8 358.8 414.1 355.5C405.4 352.2 395.3 350.5 383.9 350.5C383 350.5 382.1 350.5 381.2 350.5L364 350.7L374 338.6C374.2 338.4 374.3 338.2 374.5 338L374.7 337.8C378.9 332.6 382 327.1 384 321.5C385.4 317.6 384.6 313.2 381.9 310C379.9 307.6 377.9 305.3 375.9 302.9C374 300.6 372 298.3 370.1 296C367.4 292.7 363 291.1 358.8 291.9C358.3 292 357.8 292.1 357.4 292.3L346.8 295.7L354.8 220.6C355.1 218 354.5 215.3 353 213L350.3 208.7L353.5 204.7C357.9 199.2 360.1 192.5 360.1 184.9C360.1 175.1 356.3 166.7 349.1 160.5C342.3 154.7 333.4 151.8 322.5 151.8C311.7 151.8 302.8 154.7 296 160.5C294.9 161.4 293.8 162.5 292.8 163.6L283.3 174.2L280.3 160.3C279.8 158.2 278.8 156.2 277.4 154.7C275.2 152.3 272 151 268.8 151H219C214.3 151 210 153.8 208.1 158.2L172 241L158.5 160.9C157.7 155.9 153.7 152 148.8 151.2C142.7 150.2 136.2 149.7 129.4 149.7C120.3 149.7 111.2 150.4 102.3 151.9C93.3 153.4 84.6 155.6 76.4 158.4C68.1 161.3 60.3 164.8 53.1 168.9C45.7 173.2 39.1 178.2 33.5 183.7C27.7 189.5 23.1 195.9 19.8 202.8C16.3 210.1 14.5 218 14.5 226.3C14.5 231.1 15.2 235.8 16.7 240.2C18.2 244.8 20.4 248.9 23.3 252.6C26.4 256.5 30.2 259.7 34.7 262C39.3 264.4 44.6 265.6 50.2 265.6C52.5 265.6 54.8 265.4 57 265L68 262.9L48.3 348.1C47.5 351.6 48.3 355.3 50.6 358.1C52.9 360.9 56.2 362.6 59.9 362.6H104.5C108.6 362.6 112.5 360.4 114.7 356.8L120.9 346.4L127.1 356.8C129.2 360.4 133.1 362.6 137.3 362.6H176.8C181.7 362.6 186 359.6 187.8 355.1L198.7 327.3L206.1 341.3C207.6 344.1 209.4 346.8 211.4 349.2C215.6 354.2 221 358 227.4 360.7C233.5 363.3 240.7 364.6 248.7 364.6C251.7 364.6 255.1 363.9 258.6 363.2C261.2 362.7 263.8 362.1 266.5 361.8L288.7 359.1L272.3 374.3C270.4 376 268.3 377.4 266.4 378.6C265.2 379.4 264 380.2 263.1 380.9C255.9 386.7 250.2 393.5 246.1 401.1C241.8 409 239.6 417.9 239.6 427.5C239.6 432.3 240.3 437 241.8 441.4C243.3 446 245.6 450.2 248.5 453.9C251.6 457.8 255.4 460.9 259.9 463.2C264.5 465.6 269.8 466.8 275.4 466.8C280.2 466.8 284.8 465.9 289.2 464L300.4 459.3L291.2 550.8C290.9 554.1 292 557.5 294.2 559.9C296.4 562.4 299.6 563.8 303 563.8H352.7C357.8 563.8 362.3 560.5 364 555.7L367.9 543.8L376.3 553.1C380.4 557.6 385.6 561.2 391.9 563.7C399.8 566.9 409.4 568 421.6 567.2H422.1C428.1 567.2 434.3 566 440.5 563.9C446.3 561.9 451.9 559.1 457.3 555.5L461.7 552.6L465.8 555.9C468.5 558 471.4 559.8 474.4 561.3C481 564.5 488.8 566.2 497.5 566.2C503 566.2 508.1 565.5 512.5 564.2C516.7 562.9 520.4 561.3 523.6 559.4C524.7 558.8 525.8 558.1 526.7 557.4L530.9 554.6L535 557.6C542.4 563 552.3 565.9 563.8 565.9C570.5 565.9 577.2 564.6 583.9 562.2C589.3 560.2 594.6 557.4 599.6 554.1L604.2 551L608.4 554.7C611.6 557.5 615.2 559.8 619.1 561.7C625.6 564.8 633.3 566.4 641.8 566.4C647.3 566.4 652.4 565.7 656.8 564.4C661 563.1 664.7 561.5 667.9 559.7C669.2 558.9 670.4 558.2 671.6 557.4L675.9 554.5L680.1 557.6C680.4 557.9 680.8 558.1 681.2 558.4C688.2 563.3 697.3 565.8 708.1 565.8C714.4 565.8 720.7 564.7 727 562.6C731.9 560.9 736.7 558.7 741.3 555.8L745.7 553.1L749.7 556.4C752.7 558.8 756 560.8 759.7 562.4C765.6 564.9 772.6 566.2 780.4 566.2C787.5 566.2 794.5 565 801.2 562.5C806.4 560.6 811.4 558.1 816.1 555.1L820.4 552.3L824.5 555.4C824.7 555.5 824.8 555.6 825 555.8C831 560.5 838.5 563.7 847.1 565.3C854.6 566.7 863.4 567.4 873.1 567.4C883 567.4 892.1 566.3 899.9 564.3C907.9 562.2 915 559.2 921 555.4C927 551.6 932.2 547 936.4 541.9C940.4 537 943.7 531.7 946.3 526.3C948.8 520.9 950.8 515.3 952.2 509.6L953.5 503.7L958.4 502.9C959.5 502.7 960.5 502.6 961.6 502.4C968 501.2 974.6 499.4 981 496.9C984.9 495.4 987.7 491.9 988.4 487.7L993 459.2C993.7 455.1 992.1 450.9 988.9 448.2C985.7 445.6 981.3 444.7 977.4 446.1C975.8 446.7 973.6 447.3 970.9 447.9C967.9 448.6 964.8 449.2 961.5 449.7L954.4 450.8L952.5 444.9C951.3 441.2 949.8 437.9 948 434.9C946.8 432.9 945.4 431 943.9 429.1C943.9 429.1 941.9 425.8 934.8 421C927.7 416.2 921.8 414.4 921.8 414.4C917.6 413 913.1 412 908.5 411.4C901.2 410.5 893.1 410 884.7 410C874.6 410 865.4 411.4 857.5 414.1C849.5 416.8 842.4 420.7 836.5 425.5C832.6 428.7 829 432.4 825.8 436.4L809.9 456L813.5 421.9C813.8 419.3 813.2 416.6 811.7 414.3L809 410L812.2 406C816.6 400.5 818.8 393.8 818.8 386.2C818.8 381.2 817.8 376.6 815.9 372.4L812.4 364.9L820.2 362.4C821.1 362.1 822.1 361.8 823 361.4C827.4 359.7 831.5 357.6 835.4 355L839.7 352.1L843.8 355.3C846.6 357.5 849.7 359.3 853 360.7C858.9 363.2 865.9 364.5 873.7 364.5C880.8 364.5 887.8 363.3 894.5 360.8C900.1 358.8 905.5 356.1 910.5 352.7L915.2 349.6L919.4 353.3C922.1 355.6 925 357.7 928.1 359.4L933.8 362.4L925.7 389.9C924.5 394 925.6 398.4 928.5 401.5L932.2 405.2C932.2 405.2 936.8 409 940.9 411.8C945 414.6 951.5 417 951.5 417C953.9 417.8 956.4 418.5 958.8 418.9C962.5 419.6 966.8 419.9 971.3 419.9C986.3 419.9 999.1 416.3 1009.3 409.1C1019.5 401.9 1027 391.2 1031.5 377.2L1031.6 376.9C1032.9 373.5 1034 370 1034.9 366.5C1035.8 363 1036.5 359.6 1037.1 356.4L1037.2 356.1L1039.5 343.1L1049.3 352C1050.1 352.7 1050.9 353.4 1051.7 354C1057.8 358.7 1065.2 361.9 1073.9 363.5C1081.4 364.9 1090.2 365.6 1099.9 365.6C1109.8 365.6 1118.9 364.5 1126.7 362.5C1134.7 360.4 1141.8 357.4 1147.8 353.6C1153.8 349.8 1159 345.2 1163.2 340.1C1167.2 335.2 1170.5 329.9 1173.1 324.5C1175.6 319.1 1177.6 313.5 1179 307.8L1180.3 301.9L1185.2 301.1C1186.3 300.9 1187.3 300.8 1188.4 300.6C1194.8 299.4 1201.4 297.6 1207.8 295.1C1211.7 293.6 1214.5 290.1 1215.2 285.9L1219.8 257.4C1220.5 253.3 1218.9 249.1 1215.7 246.4C1212.5 243.8 1208.1 242.9 1204.2 244.3C1202.6 244.9 1200.4 245.5 1197.7 246.1C1194.7 246.8 1191.6 247.4 1188.3 247.9L1181.2 249L1179.3 243.1C1178.1 239.4 1176.6 236.1 1174.8 233.1C1170.4 225.8 1164.7 220.2 1157.6 216.4C1151.1 212.9 1143.7 210.6 1135.4 209.6C1128.1 208.7 1120 208.2 1111.6 208.2C1101.5 208.2 1092.3 209.6 1084.4 212.3C1076.4 215 1069.3 218.9 1063.4 223.7L1063.3 223.8L1053.8 231.7L1051.5 219.6C1051.1 217.5 1050.2 215.6 1048.8 214.1C1046.7 211.6 1043.6 210.2 1040.4 210L992.8 207.7C990.3 207.6 987.7 208.3 985.5 209.8L982.6 211.8L979.2 210.7C978.9 210.6 978.6 210.5 978.3 210.4C975.1 209.5 971.6 209 967.9 209C957.2 209 947.8 211.1 940.1 215.3C932.6 219.3 926.3 224.6 921.2 231C920.6 231.8 920 232.5 919.5 233.3L903.5 255.2L907.2 220.7C907.5 218.1 906.9 215.4 905.4 213.1L902.7 208.8L905.9 204.8C910.3 199.3 912.5 192.6 912.5 185C912.5 175.2 908.7 166.8 901.5 160.6C894.7 154.8 885.8 151.9 874.9 151.9C864.1 151.9 855.2 154.8 848.4 160.6C841.2 166.8 837.4 175.2 837.4 184.9C837.4 191.4 839 197.2 842.1 202.2L845.7 207.9L840.3 211.9C837.6 213.9 835.9 216.9 835.6 220.2L833.5 240.4L822.4 225.5C821.7 224.6 821.1 223.8 820.5 223.2C816.5 218.6 811.3 215 805.2 212.6C799.5 210.3 792.7 209.2 785.1 209.2C776.6 209.2 768.2 211.2 760.2 215.2C758.6 216 757.1 216.8 755.6 217.7L751.4 220.3L747.4 217.3C740.1 211.8 730.6 209 719.4 209C714.6 209 709.8 209.7 705.3 211L701.8 212L698.9 209.8C696.7 208.2 694 207.3 691.3 207.4L639.5 209.7L644.1 162.8C644.6 157.3 641.3 152.2 636.1 150.4C630.9 148.7 625.7 147.4 620.6 146.6C601.7 143.6 583.3 146.2 566.4 153.7C554.5 159 543.2 166.2 532.7 175C522.4 183.7 512.8 193.8 504.1 205.2C498.6 212.4 493.3 219.9 488.4 227.6L485.7 231.9L480.7 230.8C478.6 230.3 476.5 229.9 474.5 229.6C459.6 227.1 445.7 227.5 433.6 230C426.4 231.5 419.9 233.9 414.4 237.1C408.3 240.7 403.4 245.4 399.8 251.2C396.1 257.2 394.2 264.3 394.2 272.3C394.2 277.7 395.3 282.8 397.4 287.4C399.5 291.8 402.3 295.7 405.7 298.9C409.1 302.1 413.1 304.6 417.5 306.4C421.9 308.2 426.6 309.1 431.4 309.1C434.4 309.1 437.4 308.7 440.3 308L452.1 305.1L449.1 316.9C447.7 322.4 446.5 327.7 445.7 332.7C444.5 339.6 443.9 345.6 443.9 351C443.9 353.8 444.9 356.5 446.7 358.7C446.7 358.8 446.8 358.8 446.8 358.9L448.2 360ZM536.8 394.4C537.2 394.4 537.6 394.4 538 394.4L585.2 396.5C592.4 396.8 599.3 400.1 604 405.6C605.6 407.4 606.8 409.4 607.9 411.5C612.7 407 618 403.3 623.9 400.4C632.1 396.4 641.3 394.3 651.2 394.3C653.3 394.3 655.3 394.4 657.2 394.5L659 377.1H630.9C628 377.1 625.1 376.6 622.4 375.7C619.6 376.6 616.7 377.1 613.8 377.1H563.4C555.9 377.1 548.7 373.9 543.7 368.3C538.7 362.7 536.3 355.2 537.2 347.7L538.6 335.7C538.1 335.3 537.7 334.9 537.2 334.4C533.4 331 529.2 327.5 524.9 324C524.6 323.8 524.3 323.5 524 323.3C523.7 324.2 523.5 325.1 523.2 326C521.8 331 520.7 335.7 520 340.2C519.3 344 519 347.5 519 350.6C519 365.1 507.2 377 492.6 377H461.3C461.9 378.2 462.5 379.4 463.1 380.6C467 389.1 469.1 397.7 469.4 406.3C469.4 407 469.4 407.8 469.4 408.5C473.1 405.8 477 403.6 481.3 401.7C489.3 398.2 498.2 396.4 507.7 396.4C512.8 396.4 517.8 397 522.6 398.1C522.7 398.1 522.9 398.2 523 398.2C527 395.8 531.8 394.4 536.8 394.4Z" fill="white"/>
<path d="M560.3 270.2L550.3 263.3C548.5 262.1 546.8 260.9 545 259.7L538.9 255.7L542.9 249.6C544 248 545.1 246.4 546.2 244.8C547.5 242.9 548.8 241.1 550.2 239.3L566.1 218L560.3 270.2Z" fill="white"/>
<path d="M251.4 427.5C251.4 419.9 253.1 412.9 256.4 406.7C259.8 400.5 264.4 395 270.5 390.1C276.5 385.3 283.7 381.1 292 377.6C300.3 374.1 309.3 371.2 319.1 368.9C328.9 366.6 339.2 364.9 350.2 363.9C361.1 362.8 372.3 362.3 383.7 362.3C393.7 362.3 402.3 363.7 409.7 366.5C417 369.3 423.1 372.9 428 377.2C432.8 381.5 436.5 386.4 438.9 391.7C441.3 397 442.7 402.3 442.9 407.5C443.1 413.3 442.5 418.8 441 424.1C439.5 429.4 437.4 434.2 434.7 438.6C432 443 428.8 446.8 425.2 450.1C421.6 453.4 417.7 456 413.5 458C418.2 460 421.7 463.2 424.1 467.5C426.5 471.8 427.7 476.7 427.7 482.2C427.7 485.5 427.5 489.1 427 493.2C426.5 497.3 426.5 501.1 427 504.7C427.5 508.3 428.8 511.4 430.9 513.9C433 516.4 436.7 517.6 441.9 517.6C443.6 517.6 445.2 517.3 446.6 516.7C448 516.1 449.4 515.2 450.9 514C452.3 512.8 453.8 511.3 455.3 509.6C456.8 507.9 458.5 505.9 460.3 503.6C462.3 506 464.4 508.5 466.6 510.9C468.7 513.3 470.8 515.8 472.9 518.2C471 523.8 468.1 528.9 464.3 533.5C460.5 538.1 456.2 542 451.5 545.3C446.8 548.6 441.8 551.1 436.6 552.9C431.4 554.7 426.4 555.6 421.6 555.6H421.3C410.9 556.4 402.6 555.5 396.2 553C389.9 550.5 385.1 546.6 382 541.4C378.9 536.2 377 529.9 376.4 522.4C375.8 514.9 376.1 506.7 377.1 497.6C377.8 490.8 377 485.2 374.6 481C372.2 476.7 367.7 474.5 361.1 474.4L360.6 475L352.7 552.2H303L318.4 398.9C312.6 399.1 307.3 400.1 302.5 401.8C297.7 403.5 293.1 406.6 288.6 411.1C292.2 413.2 295 416.1 297 419.8C299 423.5 300.1 427.1 300.1 430.8C300.1 434.1 299.4 437.2 298.1 440.1C296.8 443.1 295 445.6 292.7 447.9C290.4 450.1 287.8 451.9 284.8 453.2C281.8 454.5 278.7 455.1 275.4 455.1C271.6 455.1 268.3 454.3 265.3 452.8C262.3 451.3 259.8 449.2 257.7 446.6C255.6 444 254 441.1 253 437.8C252 434.5 251.4 431.1 251.4 427.5ZM377.2 395.5C376.1 395.5 374.7 395.6 372.9 395.7C371.2 395.9 369.7 396 368.5 396.2L363.9 441.8H368.6C373.5 441.8 377.7 440.9 381.3 439.1C384.9 437.3 387.8 435 390.1 432.3C392.4 429.6 394.1 426.7 395.1 423.6C396.2 420.5 396.7 417.6 396.6 415C396.5 412.9 396 410.6 395.1 408.4C394.2 406.1 393 404 391.4 402.1C389.8 400.2 387.8 398.6 385.4 397.4C383 396.1 380.3 395.5 377.2 395.5Z" fill="#EF4136"/>
<path d="M602.4 504.9C604.3 507.2 606.3 509.6 608.3 511.9C610.3 514.2 612.2 516.6 614.2 518.9C612.7 523.4 610.2 527.7 606.8 531.9C603.4 536.1 599.4 539.8 594.8 543.1C590.2 546.4 585.3 549.1 579.9 551C574.6 553 569.2 554 563.9 554C546.9 554 536.5 547.3 532.8 533.8C532 535.2 531.2 536.5 530.4 537.8C529.6 539 528.6 540.2 527.5 541.3C526.7 542.1 525.5 543.3 523.8 544.7C522.2 546.2 520.1 547.6 517.7 549.1C515.3 550.5 512.4 551.7 509.1 552.8C505.8 553.8 501.9 554.3 497.6 554.3C490.7 554.3 484.7 553.1 479.7 550.6C474.7 548.2 470.6 544.8 467.4 540.6C464.2 536.4 461.8 531.4 460.3 525.7C458.8 520 458 513.8 458 507.2C458 505.6 458.1 503.1 458.2 499.8C458.3 496.5 458.6 492.7 459.1 488.4C459.6 484.1 460.3 479.5 461.2 474.7C462.1 469.8 463.4 464.9 465 460C466.6 455.1 468.7 450.4 471.1 446C473.5 441.5 476.5 437.6 479.9 434.1C483.3 430.6 487.3 427.9 491.9 425.9C496.5 423.9 501.7 422.8 507.6 422.8C510.7 422.8 513.6 423.1 516.3 423.8C519 424.5 521.6 425.3 523.9 426.2C526.2 427.2 528.4 428.2 530.3 429.3C532.2 430.4 533.9 431.5 535.3 432.5L536.7 420.6L583.9 422.7L575.8 502.7C575.6 504.4 575.5 506.3 575.6 508.2C575.7 510.1 575.9 511.9 576.4 513.5C576.9 515.1 577.8 516.4 579 517.4C580.2 518.4 581.9 518.9 584 518.9C586 518.9 588 518.4 590 517.5C592 516.6 593.8 515.4 595.5 514.1C597.2 512.7 598.6 511.2 599.8 509.5C601.1 508 601.9 506.4 602.4 504.9ZM532.3 458.8C531.9 458 531.2 457 530.2 455.7C529.2 454.5 527.6 453.9 525.3 453.9C522.6 453.9 519.9 455 517.4 457.3C514.9 459.5 512.7 462.6 510.8 466.6C508.9 470.6 507.4 475.4 506.3 481C505.2 486.6 504.6 492.8 504.6 499.5C504.6 503.9 504.9 507.3 505.5 509.8C506.1 512.3 506.9 514.2 507.8 515.4C508.7 516.6 509.7 517.4 510.7 517.6C511.7 517.9 512.6 518 513.4 518C515.8 518 518.5 517.2 521.3 515.7C524.1 514.2 526.2 511.6 527.5 507.9L532.3 458.8Z" fill="#EF4136"/>
<path d="M745.6 504.9C747.5 507.2 749.5 509.6 751.5 511.9C753.5 514.2 755.4 516.6 757.4 518.9C755.7 523.9 753.1 528.5 749.6 532.7C746.1 536.9 742.1 540.6 737.6 543.7C733.1 546.8 728.3 549.2 723.2 551C718.1 552.7 713.1 553.6 708.1 553.6C699.8 553.6 693.1 551.8 688 548.3C683 544.8 679.3 540 677.1 533.9C676.3 535.2 675.5 536.5 674.7 537.8C673.9 539.1 673 540.3 671.9 541.4C671.1 542.3 669.9 543.5 668.2 544.9C666.6 546.3 664.5 547.8 662.1 549.2C659.7 550.6 656.8 551.8 653.5 552.9C650.2 553.9 646.3 554.4 642 554.4C635.2 554.4 629.3 553.2 624.4 550.9C619.5 548.6 615.4 545.3 612.1 541.2C608.8 537.1 606.4 532.2 604.8 526.5C603.2 520.8 602.4 514.6 602.4 508C602.4 506.9 602.5 504.8 602.6 501.7C602.7 498.6 603 495 603.4 490.6C603.9 486.3 604.5 481.6 605.4 476.5C606.3 471.4 607.5 466.3 609.1 461.1C610.7 455.9 612.6 450.9 615 446.1C617.3 441.3 620.2 437 623.6 433.2C627 429.4 631 426.4 635.5 424.2C640 422 645.2 420.8 651.1 420.8C656.3 420.8 660.6 421.3 663.9 422.3C667.3 423.3 670 424.5 672.1 425.7C674.2 427 675.8 428.2 676.9 429.5C678 430.8 679 431.7 679.8 432.2L686.2 368.5L734.3 364.5C733.1 375 731.9 386.1 730.7 397.9C729.5 409.7 728.3 421.6 727.1 433.7C725.9 445.8 724.7 457.7 723.4 469.4C722.2 481.2 721 492.3 719.9 502.8C719.6 504.2 719.4 505.7 719.4 507.2C719.4 508.5 719.5 509.8 719.8 511.2C720.1 512.5 720.5 513.7 721.3 514.7C722 515.7 722.9 516.6 724 517.2C725.1 517.9 726.5 518.2 728.3 518.2C730.3 518.2 732.3 517.8 734.2 517C736.1 516.2 737.8 515.1 739.3 513.8C740.8 512.5 742.1 511 743.2 509.4C744.3 508 745.1 506.4 745.6 504.9ZM676.9 458.8C676.5 458 675.8 457 674.8 455.7C673.8 454.5 672.2 453.9 669.9 453.9C667.2 453.9 664.5 455 662 457.3C659.5 459.5 657.3 462.6 655.4 466.6C653.5 470.6 652 475.4 650.9 481C649.8 486.6 649.2 492.8 649.2 499.5C649.2 503.9 649.5 507.3 650.1 509.8C650.7 512.3 651.5 514.2 652.4 515.4C653.3 516.6 654.3 517.4 655.3 517.6C656.3 517.9 657.2 518 658 518C660.4 518 663.1 517.2 665.9 515.7C668.7 514.2 670.8 511.6 672.1 507.9L676.9 458.8Z" fill="#EF4136"/>
<path d="M819.8 504.9C821.7 507.2 823.7 509.6 825.7 511.9C827.7 514.2 829.6 516.6 831.6 518.9C830.1 523.3 827.6 527.6 824.3 531.7C820.9 535.9 817 539.6 812.4 542.9C807.8 546.2 802.8 548.9 797.3 550.8C791.8 552.8 786.2 553.8 780.5 553.8C774.2 553.8 768.8 552.9 764.4 551C760 549.1 756.3 546.4 753.4 542.9C750.5 539.4 748.4 535.2 747.1 530.4C745.8 525.6 745.1 520.1 745.1 514.1C745.1 511.3 745.2 508.6 745.5 506.1C745.8 503.6 745.9 500.9 745.9 498.1L753.8 422.5L801.9 420.5L792.7 506.8C792.7 508.3 792.8 509.8 793.1 511.2C793.4 512.6 793.8 513.8 794.5 514.9C795.2 516 796.1 516.8 797.2 517.4C798.4 518 799.8 518.3 801.6 518.3C803.6 518.3 805.6 517.9 807.6 517.1C809.6 516.3 811.4 515.2 813.1 513.9C814.8 512.6 816.2 511.1 817.4 509.5C818.5 508 819.3 506.4 819.8 504.9ZM807 386.1C807 392.5 804.7 397.7 800.1 401.5C795.5 405.4 789.2 407.3 781.2 407.3C773.3 407.3 767 405.4 762.4 401.5C757.8 397.6 755.5 392.5 755.5 386.1C755.5 379.8 757.8 374.7 762.4 370.8C767 366.9 773.2 364.9 781.2 364.9C789.2 364.9 795.5 366.9 800.1 370.8C804.7 374.7 807 379.8 807 386.1Z" fill="#EF4136"/>
<path d="M884.5 421.3C892.5 421.3 900 421.7 906.9 422.6C913.8 423.5 919.8 425.3 925 428.1C930.2 430.9 934.4 435 937.7 440.5C941 445.9 943 453.2 943.8 462.4C946.3 462.6 949.3 462.6 952.7 462.2C956.1 461.9 959.6 461.5 963.2 460.9C966.8 460.3 970.1 459.7 973.4 459C976.6 458.3 979.2 457.6 981.3 456.9L976.7 485.4C971 487.6 965.3 489.3 959.6 490.3C953.9 491.3 948.5 491.9 943.3 492.1C942.8 496.7 941.9 501.4 940.8 506.4C939.6 511.3 937.9 516.1 935.8 520.8C933.6 525.4 930.8 529.8 927.4 534C924 538.2 919.8 541.8 914.8 545C909.8 548.2 903.9 550.6 897 552.5C890.1 554.3 882.2 555.2 873.3 555.2C864.2 555.2 856.3 554.6 849.5 553.3C842.7 552 837 549.6 832.4 546C827.8 542.4 824.4 537.4 822 531C819.7 524.5 818.5 516.1 818.5 505.7C818.5 498.9 818.9 492.1 819.7 485.2C820.5 478.4 821.9 471.8 823.8 465.6C825.7 459.3 828.4 453.5 831.7 448.1C835 442.7 839.1 438 844 434.1C848.9 430.1 854.7 427 861.4 424.7C867.9 422.4 875.7 421.3 884.5 421.3ZM898.9 480C894.2 477 890 473.8 886.2 470.4C882.4 466.9 879.1 463.4 876.4 459.7C874.1 462.1 872.1 465.1 870.4 468.6C868.8 472.1 867.4 475.8 866.4 479.6C865.3 483.4 864.5 487.1 864 490.7C863.5 494.3 863.2 497.4 863.2 499.9C863.2 501 863.2 502.7 863.3 504.9C863.3 507.1 863.7 509.3 864.4 511.6C865.1 513.9 866.3 515.9 867.9 517.6C869.5 519.3 871.9 520.1 874.9 520.1C879.5 520.1 883.3 518.7 886.4 515.9C889.5 513.1 891.9 509.7 893.7 505.6C895.5 501.5 896.8 497.2 897.5 492.5C898.2 487.9 898.7 483.7 898.9 480Z" fill="#EF4136"/>
<path d="M299.2 317.3C297.5 322.3 294.8 326.9 291.2 331.2C287.6 335.5 283.5 339.2 278.8 342.4C274.2 345.6 269.2 348.1 264 350C258.8 351.8 253.6 352.7 248.7 352.7C242.3 352.7 236.7 351.7 232.1 349.7C227.4 347.7 223.6 344.9 220.5 341.4C217.4 337.8 215.2 333.5 213.7 328.4C212.2 323.3 211.5 317.7 211.5 311.6C211.5 308.6 211.7 306 212.1 303.7L215.8 251.8C215.1 253.5 214.3 255.4 213.6 257.4C212.9 259.4 211.9 261.9 210.7 264.9C209.5 267.9 208.1 271.6 206.3 276C204.5 280.4 202.3 286 199.7 292.7C197.1 299.4 193.9 307.5 190.2 317C186.5 326.5 182.1 337.7 177 350.7H137.5C136.7 345.1 135.8 339.2 134.8 333.1C133.8 326.9 132.8 320.1 131.7 312.6C130.6 305.1 129.5 296.7 128.3 287.4C127.1 278.1 125.7 267.4 124.2 255.4L104.7 350.7H59.8L95.2 197.6C89.4 197.8 83.8 198.7 78.4 200.4C73 202.1 68 205.2 63.4 209.8C67 211.9 69.8 214.8 71.8 218.5C73.8 222.2 74.9 225.8 74.9 229.5C74.9 232.8 74.2 235.9 72.9 238.8C71.6 241.8 69.8 244.3 67.5 246.6C65.2 248.8 62.6 250.6 59.6 251.9C56.6 253.2 53.5 253.8 50.2 253.8C46.4 253.8 43.1 253 40.1 251.5C37.1 250 34.7 247.9 32.6 245.3C30.6 242.7 29 239.8 27.9 236.5C26.8 233.2 26.3 229.8 26.3 226.3C26.3 219.8 27.7 213.7 30.4 207.9C33.1 202.2 36.9 196.9 41.8 192C46.6 187.2 52.3 182.9 58.9 179.1C65.5 175.3 72.6 172.1 80.2 169.5C87.8 166.9 95.8 164.8 104.2 163.5C112.5 162.1 120.9 161.4 129.4 161.4C135.5 161.4 141.3 161.9 146.8 162.8L167 282.5L218.6 162.8H268.4C267 186.8 265.6 210.8 264.4 234.9C263.1 258.9 261.8 283 260.5 307.3C260.6 310.5 261.3 312.8 262.5 314.4C263.7 316 265.9 316.8 269.1 316.8C271.1 316.8 273.1 316.4 275.1 315.6C277.1 314.8 278.9 313.7 280.6 312.4C282.3 311.1 283.7 309.6 284.9 308C286.1 306.4 286.9 304.9 287.4 303.3L299.2 317.3Z" fill="#F7941D"/>
<path d="M360.7 303.6C362.6 305.9 364.6 308.3 366.6 310.6C368.6 312.9 370.5 315.3 372.5 317.6C371 322 368.5 326.3 365.2 330.4C361.8 334.6 357.9 338.3 353.3 341.6C348.7 344.9 343.7 347.6 338.2 349.5C332.7 351.5 327.1 352.5 321.4 352.5C315.1 352.5 309.7 351.6 305.3 349.7C300.9 347.8 297.2 345.1 294.3 341.6C291.4 338.1 289.3 333.9 288 329.1C286.7 324.3 286 318.8 286 312.8C286 310 286.1 307.3 286.4 304.8C286.7 302.3 286.8 299.6 286.8 296.8L294.7 221.2L342.8 219.2L333.6 305.5C333.6 307 333.7 308.5 334 309.9C334.3 311.3 334.7 312.5 335.4 313.6C336.1 314.7 337 315.5 338.1 316.1C339.3 316.7 340.7 317 342.5 317C344.5 317 346.5 316.6 348.5 315.8C350.5 315 352.3 313.9 354 312.6C355.7 311.3 357.1 309.8 358.3 308.2C359.4 306.7 360.2 305.1 360.7 303.6ZM347.9 184.8C347.9 191.2 345.6 196.4 341 200.2C336.4 204.1 330.1 206 322.1 206C314.2 206 307.9 204.1 303.3 200.2C298.7 196.3 296.4 191.2 296.4 184.8C296.4 178.5 298.7 173.4 303.3 169.5C307.9 165.6 314.1 163.6 322.1 163.6C330.1 163.6 336.5 165.6 341 169.5C345.6 173.4 347.9 178.5 347.9 184.8Z" fill="#F7941D"/>
<path d="M431.2 297C427.9 297 424.8 296.4 421.7 295.2C418.6 294 415.9 292.3 413.6 290.1C411.3 287.9 409.4 285.3 408 282.2C406.6 279.1 405.9 275.8 405.9 272.1C405.9 266.3 407.2 261.3 409.7 257.2C412.2 253.1 415.7 249.7 420.2 247.1C424.6 244.5 429.8 242.6 435.8 241.4C441.8 240.2 448.2 239.6 455.1 239.6C460.6 239.6 466.3 240.1 472.3 241.1C478.3 242.1 484.4 243.7 490.8 245.8C497.5 234.2 505 223 513.2 212.3C521.4 201.6 530.4 192.1 540.1 184C549.8 175.9 560.1 169.3 571 164.5C581.9 159.6 593.4 157.2 605.3 157.2C609.7 157.2 614.1 157.6 618.6 158.3C623.1 159 627.6 160.1 632.2 161.7L613.7 350.9H563.3L566.2 325.6C562.6 322.2 558.8 318.7 554.6 315C550.4 311.3 546 307.5 541.3 303.8C536.6 300 531.7 296.3 526.6 292.7C521.5 289.1 516.4 285.8 511.2 282.7C508.3 288.9 505.8 295.1 503.5 301.2C501.2 307.4 499.2 313.4 497.6 319.2C496 325.1 494.7 330.6 493.8 336C492.9 341.3 492.4 346.3 492.4 350.9H455.5C455.5 346.2 456 340.8 457.1 334.6C458.2 328.4 459.7 321.8 461.7 314.8C463.7 307.7 466.2 300.3 469.1 292.4C472.1 284.6 475.4 276.6 479.2 268.6C473.3 267.2 467.8 266.5 462.7 266.5C460.3 266.5 457.8 266.7 455.4 267C455.8 268.7 456 270.7 456 273C456 276.4 455.3 279.5 454 282.5C452.7 285.5 450.9 288 448.7 290.2C446.5 292.4 443.8 294.1 440.8 295.4C437.8 296.4 434.6 297 431.2 297ZM522.5 260.1C531 264.8 539.2 269.9 546.9 275.4C554.6 280.9 562.2 286.8 569.6 293L579.8 199.4C575.3 200.2 570.6 202.4 565.8 205.9C560.9 209.4 556 213.9 551 219.3C546 224.7 541.1 231 536.3 237.9C531.5 245 526.9 252.4 522.5 260.1Z" fill="#F7941D"/>
<path d="M771.4 274.7C771.4 272.6 771.3 270.4 771 268.1C770.7 265.9 770.3 263.9 769.7 262.1C769.1 260.3 768.2 258.9 767.2 257.7C766.1 256.6 764.7 256 763 256C761 256 759.1 257.1 757.4 259.4C755.7 261.6 754.3 264.3 753 267.5L744.8 350.7H697.8L705.9 274.7C706.1 273.5 706.3 271.8 706.4 269.7C706.5 267.6 706.3 265.5 705.9 263.5C705.5 261.5 704.7 259.8 703.6 258.3C702.5 256.8 700.9 256.1 698.7 256.1C696 256.1 693.6 257.2 691.6 259.5C689.6 261.7 688 264.5 686.6 267.7L678.1 350.7H630.8L643.8 221.2L691.7 219.1L690 234.7C693.9 230.1 698.3 226.6 703.3 224.2C708.3 221.8 713.6 220.6 719.3 220.6C734.6 220.6 744.5 226.7 749.2 238.9C753.6 233.1 758.9 228.6 765.3 225.5C771.7 222.3 778.2 220.8 784.9 220.8C791 220.8 796.2 221.7 800.6 223.4C805 225.1 808.6 227.6 811.4 230.8C814.2 234 816.3 237.9 817.7 242.6C819.1 247.2 819.8 252.5 819.8 258.4C819.8 262.6 819.5 266.9 819 271.4C818.4 275.9 817.8 280.2 817.2 284.5C816.5 288.7 815.9 292.7 815.4 296.4C814.8 300.1 814.6 303.3 814.6 306.1C814.6 308.7 815.2 311.1 816.4 313.2C817.6 315.3 819.8 316.3 823 316.3C825.3 316.3 827.3 316 829 315.5C830.6 314.9 832 314.1 833.1 313C834.2 311.9 835.2 310.6 836.1 309C837 307.5 837.8 305.7 838.6 303.7L850.5 317.7C848.8 322.7 846.3 327.3 843.2 331.7C840 336 836.4 339.8 832.4 342.9C828.3 346.1 823.9 348.5 819.1 350.4C814.3 352.2 809.5 353.1 804.6 353.1C796.9 353.1 790.6 352 785.8 349.7C781 347.5 777.3 344.6 774.6 341C771.9 337.4 770.1 333.4 769.2 328.9C768.3 324.4 767.8 319.9 767.8 315.4C767.8 312.3 768 309.1 768.4 305.6C768.8 302.1 769.2 298.6 769.7 295.1C770.2 291.5 770.6 288 771 284.6C771.2 281.1 771.4 277.8 771.4 274.7Z" fill="#F7941D"/>
<path d="M913.3 303.6C915.2 305.9 917.2 308.3 919.2 310.6C921.2 312.9 923.1 315.3 925.1 317.6C923.6 322 921.1 326.3 917.8 330.4C914.4 334.6 910.5 338.3 905.9 341.6C901.3 344.9 896.3 347.6 890.8 349.5C885.3 351.5 879.7 352.5 874 352.5C867.7 352.5 862.3 351.6 857.9 349.7C853.5 347.8 849.8 345.1 846.9 341.6C844 338.1 841.9 333.9 840.6 329.1C839.3 324.3 838.6 318.8 838.6 312.8C838.6 310 838.7 307.3 839 304.8C839.3 302.3 839.4 299.6 839.4 296.8L847.3 221.2L895.4 219.2L886.2 305.5C886.2 307 886.3 308.5 886.6 309.9C886.9 311.3 887.3 312.5 888 313.6C888.7 314.7 889.6 315.5 890.7 316.1C891.9 316.7 893.3 317 895.1 317C897.1 317 899.1 316.6 901.1 315.8C903.1 315 904.9 313.9 906.6 312.6C908.3 311.3 909.7 309.8 910.9 308.2C912 306.7 912.8 305.1 913.3 303.6ZM900.5 184.8C900.5 191.2 898.2 196.4 893.6 200.2C889 204.1 882.7 206 874.7 206C866.8 206 860.5 204.1 855.9 200.2C851.3 196.3 849 191.2 849 184.8C849 178.5 851.3 173.4 855.9 169.5C860.5 165.6 866.7 163.6 874.7 163.6C882.7 163.6 889 165.6 893.6 169.5C898.2 173.4 900.5 178.5 900.5 184.8Z" fill="#F7941D"/>
<path d="M943.9 371.1C945.1 372.2 946.7 373.2 948.6 374C950.5 374.8 952.4 375.5 954.4 375.9C956.4 376.4 958.2 376.7 959.8 376.9C961.4 377.1 962.6 377.2 963.3 377.2C967 377.2 969.8 376.3 971.7 374.4C973.6 372.5 975.1 370 976.1 366.8C977.1 363.6 977.8 360 978.2 355.8C978.6 351.6 979.1 347.3 979.7 342.7C978.7 343.7 977.6 344.8 976.3 346C975.1 347.2 973.5 348.3 971.5 349.4C969.5 350.5 967 351.4 964.1 352.1C961.1 352.8 957.4 353.2 952.8 353.2C945.4 353.2 939.1 351.8 934.1 349.1C929.1 346.4 925 342.7 921.9 338.1C918.8 333.5 916.6 328.3 915.3 322.5C914 316.6 913.3 310.6 913.3 304.4C913.3 301.2 913.5 297 913.8 291.7C914.1 286.4 914.8 280.6 915.9 274.4C917 268.2 918.7 261.9 921 255.6C923.3 249.3 926.5 243.6 930.5 238.4C934.6 233.3 939.6 229.1 945.7 225.8C951.8 222.5 959.2 220.9 967.9 220.9C970.5 220.9 972.9 221.2 975.1 221.8C977.3 222.4 979.2 223.2 980.9 224.2C982.6 225.2 984.3 226.3 985.9 227.6C987.5 228.8 989.1 230.1 990.7 231.4L992.2 219.5L1039.8 221.8L1027.8 339C1027.5 341 1027.2 343.4 1026.9 346C1026.6 348.6 1026.2 351.4 1025.7 354.4C1025.2 357.4 1024.5 360.4 1023.7 363.6C1022.9 366.8 1021.9 370 1020.6 373.1C1016.8 384.9 1010.9 393.7 1002.7 399.4C994.5 405.1 984.1 408 971.5 408C967.6 408 964.2 407.7 961.1 407.2C958 406.6 955.2 405.7 952.6 404.5C950 403.3 947.4 401.7 944.9 399.8C942.4 397.9 939.9 395.7 937.3 393L943.9 371.1ZM987.8 257.5C987.4 256.7 986.7 255.7 985.7 254.4C984.7 253.2 983.1 252.6 980.8 252.6C978.1 252.6 975.4 253.7 972.9 256C970.4 258.2 968.2 261.3 966.3 265.3C964.4 269.3 962.9 274.1 961.8 279.7C960.7 285.3 960.1 291.5 960.1 298.2C960.1 302.6 960.4 306 961 308.5C961.6 311 962.4 312.9 963.3 314.1C964.2 315.3 965.2 316.1 966.2 316.3C967.2 316.6 968.1 316.7 968.9 316.7C971.3 316.7 974 315.9 976.8 314.4C979.6 312.9 981.7 310.3 983 306.6L987.8 257.5Z" fill="#F7941D"/>
<path d="M1111.5 219.9C1119.5 219.9 1127 220.3 1133.9 221.2C1140.8 222.1 1146.8 223.9 1152 226.7C1157.2 229.5 1161.4 233.6 1164.7 239.1C1168 244.5 1170 251.8 1170.8 261C1173.3 261.2 1176.3 261.2 1179.7 260.8C1183.1 260.5 1186.6 260.1 1190.2 259.5C1193.8 258.9 1197.1 258.3 1200.4 257.6C1203.6 256.9 1206.2 256.2 1208.3 255.5L1203.7 284C1198 286.2 1192.3 287.9 1186.6 288.9C1180.9 289.9 1175.5 290.5 1170.3 290.7C1169.8 295.3 1168.9 300 1167.8 305C1166.6 309.9 1164.9 314.7 1162.8 319.4C1160.6 324 1157.8 328.4 1154.4 332.6C1151 336.8 1146.8 340.4 1141.8 343.6C1136.8 346.8 1130.9 349.2 1124 351.1C1117.1 352.9 1109.2 353.8 1100.3 353.8C1091.2 353.8 1083.3 353.2 1076.5 351.9C1069.7 350.6 1064 348.2 1059.4 344.6C1054.8 341 1051.4 336 1049 329.6C1046.7 323.1 1045.5 314.7 1045.5 304.3C1045.5 297.5 1045.9 290.7 1046.7 283.8C1047.5 277 1048.9 270.4 1050.8 264.2C1052.7 257.9 1055.4 252.1 1058.7 246.7C1062 241.3 1066.1 236.6 1071 232.7C1075.9 228.7 1081.7 225.6 1088.4 223.3C1094.9 221.1 1102.6 219.9 1111.5 219.9ZM1125.9 278.7C1121.2 275.7 1117 272.5 1113.2 269.1C1109.4 265.6 1106.1 262.1 1103.4 258.4C1101.1 260.8 1099.1 263.8 1097.4 267.3C1095.8 270.8 1094.4 274.5 1093.4 278.3C1092.3 282.1 1091.5 285.8 1091 289.4C1090.5 293 1090.2 296.1 1090.2 298.6C1090.2 299.7 1090.2 301.4 1090.3 303.6C1090.3 305.8 1090.7 308 1091.4 310.3C1092.1 312.6 1093.3 314.6 1094.9 316.3C1096.5 318 1098.9 318.8 1101.9 318.8C1106.5 318.8 1110.3 317.4 1113.4 314.6C1116.5 311.8 1118.9 308.4 1120.7 304.3C1122.5 300.2 1123.8 295.9 1124.5 291.2C1125.2 286.6 1125.6 282.4 1125.9 278.7Z" fill="#F7941D"/>
</svg>
