<svg width="519" height="496" viewBox="0 0 519 496" fill="none" xmlns="http://www.w3.org/2000/svg">
<path d="M161.487 0H186.28V196.95H161.487V0Z" fill="#22377E"/>
<path d="M161.487 406.31H186.28V495.754H161.487V406.31Z" fill="#22377E"/>
<path d="M117.076 196.95H161.486V406.315H112.181L44.4092 284.246V406.315H0V196.94L46.3314 196.945L117.076 327.353V196.95Z" fill="#22377E"/>
<path fill-rule="evenodd" clip-rule="evenodd" d="M260.357 196.923C310.687 196.923 335.234 220.143 338.56 269.888V332.893C334.752 386.16 310.687 406.304 260.357 406.304H186.275V196.949L260.357 196.923ZM255.995 236.561L233.78 236.546V366.857H255.995C278.01 366.857 293.474 357.651 293.474 328.399V274.553C293.474 246.777 279.42 236.561 255.995 236.561Z" fill="#22377E"/>
<path fill-rule="evenodd" clip-rule="evenodd" d="M434.976 234.031L405.498 234.021V288.123H434.976C452.952 288.123 464.659 277.938 464.659 259.752C464.659 241.561 456.366 234.031 434.976 234.031ZM431.593 325.874L468.944 406.312H518.966L474.593 317.555C499.647 307.626 509.576 287.446 509.063 260.316C508.289 219.049 487.684 196.952 433.074 196.952H360.11V406.311H406.4V326.027L431.593 325.874Z" fill="#22377E"/>
</svg>
