<svg width="269" height="84" viewBox="0 0 269 84" fill="none" xmlns="http://www.w3.org/2000/svg">
<path d="M0 0H269V83.896H0V0Z" fill="white"/>
<path d="M5.97778 4.47593H9.96297V79.1981H5.97778V4.47593Z" fill="black"/>
<path d="M125.533 4.47593H129.519V79.1981H125.533V4.47593Z" fill="black"/>
<path d="M5.97778 4.47593H263.022V8.95926H5.97778V4.47593Z" fill="black"/>
<path d="M5.97778 74.7148H263.022V79.1982L5.97778 79.1981V74.7148Z" fill="black"/>
<path d="M259.037 4.47593H263.022V79.1982L259.037 79.1981V4.47593Z" fill="black"/>
<path d="M13 42.0185C13 37.5981 14.1794 34.1566 16.5381 31.6939C18.8969 29.2313 22.1814 28 26.3918 28C30.7083 28 34.0341 29.2128 36.3693 31.6385C38.7044 34.0519 39.872 37.438 39.872 41.7968C39.872 44.9613 39.359 47.5594 38.3329 49.591C37.3186 51.6104 35.8444 53.1865 33.9103 54.3193C31.9879 55.4398 29.5879 56 26.7102 56C23.7854 56 21.3617 55.5136 19.4394 54.5409C17.5288 53.5682 15.9779 52.029 14.7867 49.9235C13.5956 47.8179 13 45.1829 13 42.0185ZM21.0138 42.0554C21.0138 44.7889 21.4974 46.7529 22.4645 47.9472C23.4433 49.1416 24.7701 49.7388 26.4448 49.7388C28.1667 49.7388 29.4994 49.1539 30.4429 47.9842C31.3864 46.8144 31.8582 44.715 31.8582 41.686C31.8582 39.1372 31.3628 37.2779 30.3721 36.1082C29.3933 34.9261 28.0606 34.3351 26.3741 34.3351C24.7583 34.3351 23.461 34.9323 22.4821 36.1266C21.5033 37.321 21.0138 39.2973 21.0138 42.0554Z" fill="black"/>
<path d="M43.7108 35.9235H50.4156V39.1187C51.418 37.8135 52.4323 36.8839 53.4583 36.3298C54.4844 35.7634 55.7345 35.4802 57.2087 35.4802C59.2019 35.4802 60.7587 36.102 61.8791 37.3456C63.0113 38.577 63.5774 40.4855 63.5774 43.0712V55.5383H56.3419V44.752C56.3419 43.5207 56.1237 42.6526 55.6874 42.1478C55.251 41.6306 54.6377 41.372 53.8475 41.372C52.9748 41.372 52.2672 41.7168 51.7247 42.4063C51.1822 43.0959 50.9109 44.3333 50.9109 46.1187V55.5383H43.7108V35.9235Z" fill="black"/>
<path d="M84.3107 51.0686H75.1824L73.9263 55.5383H65.7356L75.4831 28.4617H84.2223L93.9698 55.5383H85.5844L84.3107 51.0686ZM82.6301 45.2137L79.7642 35.4802L76.916 45.2137H82.6301Z" fill="black"/>
<path d="M96.3403 28.4617H103.54V33.5778H96.3403V28.4617ZM96.3403 35.9235H103.54V55.5383H96.3403V35.9235Z" fill="black"/>
<path d="M108.211 35.9235H114.951V39.1372C115.599 37.7458 116.266 36.7916 116.95 36.2744C117.646 35.7449 118.501 35.4802 119.515 35.4802C120.576 35.4802 121.738 35.825 123 36.5145L120.771 41.8707C119.922 41.5013 119.25 41.3166 118.754 41.3166C117.811 41.3166 117.08 41.723 116.561 42.5356C115.818 43.6807 115.446 45.8232 115.446 48.9631V55.5383H108.211V35.9235Z" fill="black"/>
<path d="M143 27.7305H151.401V55.2795H143V27.7305Z" fill="#2B557F"/>
<path d="M166.02 27.7305V35.3224H170.166V40.9036H166.02V47.9882C166.02 48.8401 166.101 49.4038 166.261 49.6795C166.508 50.1054 166.94 50.3184 167.556 50.3184C168.112 50.3184 168.889 50.1555 169.888 49.8298L170.443 55.1103C168.58 55.5238 166.841 55.7305 165.225 55.7305C163.35 55.7305 161.968 55.4862 161.08 54.9976C160.191 54.509 159.531 53.7698 159.1 52.7801C158.68 51.7779 158.47 50.1618 158.47 47.9318V40.9036H155.695V35.3224H158.47V31.658L166.02 27.7305Z" fill="#2B557F"/>
<path d="M180.64 41.7868L173.441 41.0164C173.712 39.7385 174.101 38.7363 174.607 38.0097C175.125 37.2705 175.865 36.6316 176.828 36.0929C177.518 35.7045 178.468 35.4038 179.677 35.1909C180.886 34.9779 182.194 34.8714 183.6 34.8714C185.858 34.8714 187.672 35.003 189.041 35.266C190.41 35.5166 191.552 36.049 192.464 36.8634C193.106 37.4271 193.612 38.2289 193.982 39.2687C194.352 40.296 194.537 41.2795 194.537 42.2191V51.0325C194.537 51.9721 194.593 52.7112 194.704 53.2499C194.827 53.7761 195.086 54.4526 195.481 55.2795H188.412C188.128 54.7658 187.943 54.3774 187.857 54.1144C187.77 53.8387 187.684 53.4128 187.598 52.8365C186.611 53.8012 185.63 54.4902 184.655 54.9036C183.323 55.4549 181.775 55.7305 180.01 55.7305C177.666 55.7305 175.884 55.1792 174.662 54.0768C173.453 52.9743 172.849 51.615 172.849 49.9989C172.849 48.483 173.287 47.2365 174.163 46.2593C175.039 45.2821 176.655 44.5555 179.011 44.0795C181.836 43.5032 183.668 43.1023 184.507 42.8768C185.346 42.6387 186.234 42.3318 187.172 41.956C187.172 41.0164 186.981 40.3587 186.598 39.9828C186.216 39.607 185.543 39.4191 184.581 39.4191C183.348 39.4191 182.422 39.6195 181.805 40.0204C181.324 40.3336 180.936 40.9224 180.64 41.7868ZM187.172 45.8083C186.136 46.1842 185.056 46.5162 183.934 46.8043C182.404 47.2177 181.435 47.6249 181.028 48.0258C180.609 48.4392 180.399 48.909 180.399 49.4352C180.399 50.0365 180.603 50.5314 181.01 50.9197C181.429 51.2956 182.04 51.4835 182.842 51.4835C183.681 51.4835 184.458 51.2768 185.173 50.8634C185.901 50.4499 186.413 49.9488 186.709 49.36C187.018 48.7587 187.172 47.9819 187.172 47.0298V45.8083Z" fill="#2B557F"/>
<path d="M199.311 27.7305H206.861V55.2795H199.311V27.7305Z" fill="#2B557F"/>
<path d="M211.95 27.7305H219.482V32.9358H211.95V27.7305ZM211.95 35.3224H219.482V55.2795H211.95V35.3224Z" fill="#2B557F"/>
<path d="M231.159 41.7868L223.96 41.0164C224.232 39.7385 224.62 38.7363 225.126 38.0097C225.644 37.2705 226.384 36.6316 227.347 36.0929C228.038 35.7045 228.988 35.4038 230.197 35.1909C231.406 34.9779 232.713 34.8714 234.12 34.8714C236.377 34.8714 238.191 35.003 239.56 35.266C240.93 35.5166 242.071 36.049 242.984 36.8634C243.625 37.4271 244.131 38.2289 244.501 39.2687C244.871 40.296 245.056 41.2795 245.056 42.2191V51.0325C245.056 51.9721 245.112 52.7112 245.223 53.2499C245.346 53.7761 245.605 54.4526 246 55.2795H238.931C238.647 54.7658 238.462 54.3774 238.376 54.1144C238.289 53.8387 238.203 53.4128 238.117 52.8365C237.13 53.8012 236.149 54.4902 235.174 54.9036C233.842 55.4549 232.294 55.7305 230.53 55.7305C228.186 55.7305 226.403 55.1792 225.182 54.0768C223.973 52.9743 223.368 51.615 223.368 49.9989C223.368 48.483 223.806 47.2365 224.682 46.2593C225.558 45.2821 227.174 44.5555 229.53 44.0795C232.355 43.5032 234.188 43.1023 235.026 42.8768C235.865 42.6387 236.754 42.3318 237.691 41.956C237.691 41.0164 237.5 40.3587 237.117 39.9828C236.735 39.607 236.063 39.4191 235.1 39.4191C233.867 39.4191 232.941 39.6195 232.325 40.0204C231.844 40.3336 231.455 40.9224 231.159 41.7868ZM237.691 45.8083C236.655 46.1842 235.575 46.5162 234.453 46.8043C232.923 47.2177 231.955 47.6249 231.547 48.0258C231.128 48.4392 230.918 48.909 230.918 49.4352C230.918 50.0365 231.122 50.5314 231.529 50.9197C231.948 51.2956 232.559 51.4835 233.361 51.4835C234.2 51.4835 234.977 51.2768 235.693 50.8634C236.42 50.4499 236.932 49.9488 237.229 49.36C237.537 48.7587 237.691 47.9819 237.691 47.0298V45.8083Z" fill="#2B557F"/>
</svg>
