<svg width="440" height="137" viewBox="0 0 440 137" fill="none" xmlns="http://www.w3.org/2000/svg">
<g clip-path="url(#clip0_0_3)">
<mask id="mask0_0_3" style="mask-type:luminance" maskUnits="userSpaceOnUse" x="0" y="18" width="118" height="119">
<path d="M42.9 76.6C42.9 60.7 51.1 54.1 59.3 54.1C70.7 54.1 74.7 61.6 74.7 77.7C74.7 91.8 69 101.1 58.3 101.1C47.2 101.1 42.9 94.1 42.9 76.6ZM0 81.1C0 121.8 22.3 137 56.1 137C90.2 137 117.7 112.9 117.7 75.2C117.7 39.3 98.8 18.6 61.8 18.6C27 18.7 0 42.7 0 81.1Z" fill="white"/>
</mask>
<g mask="url(#mask0_0_3)">
<path d="M-38 32.5L103.9 -19.2L155.7 123.1L13.8 174.8L-38 32.5Z" fill="url(#paint0_linear_0_3)"/>
</g>
<mask id="mask1_0_3" style="mask-type:luminance" maskUnits="userSpaceOnUse" x="125" y="18" width="108" height="117">
<path d="M162.9 36.4H162.7C163.5 31.4 163.8 26.4 163.8 21.4H125.6V134.3H167V79.3C167 66.8 175.6 53.6 184.7 53.6C189.5 53.6 191.1 57.2 191.1 62.9V134.2H232.4V54.2C232.4 34.9 224 18.5 199 18.5C181.7 18.7 169.9 26.4 162.9 36.4Z" fill="white"/>
</mask>
<g mask="url(#mask1_0_3)">
<path d="M88.5 32.2L219.9 -15.6L269.5 120.8L138.1 168.6L88.5 32.2Z" fill="url(#paint1_linear_0_3)"/>
</g>
<mask id="mask2_0_3" style="mask-type:luminance" maskUnits="userSpaceOnUse" x="241" y="18" width="108" height="119">
<path d="M296.4 48.4C303.7 48.4 308.4 53.2 308 64.1H282.6C283 54.8 288.5 48.4 296.4 48.4ZM241 79.3C241 119.3 262.6 137 300.5 137C314.4 137 330.5 134.5 344.1 129.1L340.5 98.2C330 102.8 318.6 105.2 307.1 105.2C291 105.2 283.5 98.8 282.8 90.9H346.9C347.8 85 348.2 79.1 348.3 73.2C348.3 41.9 332.4 18.5 297.4 18.5C260.8 18.4 241 44.3 241 79.3Z" fill="white"/>
</mask>
<g mask="url(#mask2_0_3)">
<path d="M202.9 32.3L335.7 -16L386.3 123.2L253.5 171.5L202.9 32.3Z" fill="url(#paint2_linear_0_3)"/>
</g>
<mask id="mask3_0_3" style="mask-type:luminance" maskUnits="userSpaceOnUse" x="361" y="0" width="79" height="78">
<path d="M368.9 39C368.9 21.3 383.2 7 400.9 7C418.6 7 432.9 21.3 432.9 39C432.9 56.7 418.6 71 400.9 71C383.2 70.9 368.9 56.6 368.9 39ZM361.9 39C361.9 60.5 379.3 78 400.9 78C422.4 78 439.9 60.6 439.9 39C439.9 17.4 422.5 0 400.9 0C379.4 0 361.9 17.4 361.9 39Z" fill="white"/>
</mask>
<g mask="url(#mask3_0_3)">
<path d="M336.9 9.1L430.7 -25L464.9 68.9L371 103L336.9 9.1Z" fill="url(#paint3_linear_0_3)"/>
</g>
<mask id="mask4_0_3" style="mask-type:luminance" maskUnits="userSpaceOnUse" x="381" y="18" width="33" height="41">
<path d="M381.3 30.2V38.2L392 34.3V58.3L413.5 50.6V18.6L381.3 30.2Z" fill="white"/>
</mask>
<g mask="url(#mask4_0_3)">
<path d="M368.6 23.3L409.7 8.3L426.2 53.7L385.1 68.7L368.6 23.3Z" fill="url(#paint4_linear_0_3)"/>
</g>
</g>
<defs>
<linearGradient id="paint0_linear_0_3" x1="16.2369" y1="-39.2233" x2="150.1" y2="328.564" gradientUnits="userSpaceOnUse">
<stop stop-color="#F6C617"/>
<stop offset="0.2349" stop-color="#F6C617"/>
<stop offset="0.2831" stop-color="#F4BD20"/>
<stop offset="0.3626" stop-color="#EEA639"/>
<stop offset="0.4638" stop-color="#E38062"/>
<stop offset="0.5825" stop-color="#D54B9B"/>
<stop offset="0.7054" stop-color="#C50DDD"/>
<stop offset="1" stop-color="#C50DDD"/>
</linearGradient>
<linearGradient id="paint1_linear_0_3" x1="122.783" y1="-77.977" x2="256.646" y2="289.81" gradientUnits="userSpaceOnUse">
<stop stop-color="#F6C617"/>
<stop offset="0.2349" stop-color="#F6C617"/>
<stop offset="0.2831" stop-color="#F4BD20"/>
<stop offset="0.3626" stop-color="#EEA639"/>
<stop offset="0.4638" stop-color="#E38062"/>
<stop offset="0.5825" stop-color="#D54B9B"/>
<stop offset="0.7054" stop-color="#C50DDD"/>
<stop offset="1" stop-color="#C50DDD"/>
</linearGradient>
<linearGradient id="paint2_linear_0_3" x1="224.483" y1="-115" x2="358.347" y2="252.787" gradientUnits="userSpaceOnUse">
<stop stop-color="#F6C617"/>
<stop offset="0.2349" stop-color="#F6C617"/>
<stop offset="0.2831" stop-color="#F4BD20"/>
<stop offset="0.3626" stop-color="#EEA639"/>
<stop offset="0.4638" stop-color="#E38062"/>
<stop offset="0.5825" stop-color="#D54B9B"/>
<stop offset="0.7054" stop-color="#C50DDD"/>
<stop offset="1" stop-color="#C50DDD"/>
</linearGradient>
<linearGradient id="paint3_linear_0_3" x1="330.819" y1="-153.719" x2="464.682" y2="214.068" gradientUnits="userSpaceOnUse">
<stop stop-color="#F6C617"/>
<stop offset="0.2349" stop-color="#F6C617"/>
<stop offset="0.2831" stop-color="#F4BD20"/>
<stop offset="0.3626" stop-color="#EEA639"/>
<stop offset="0.4638" stop-color="#E38062"/>
<stop offset="0.5825" stop-color="#D54B9B"/>
<stop offset="0.7054" stop-color="#C50DDD"/>
<stop offset="1" stop-color="#C50DDD"/>
</linearGradient>
<linearGradient id="paint4_linear_0_3" x1="327.848" y1="-152.635" x2="461.711" y2="215.153" gradientUnits="userSpaceOnUse">
<stop stop-color="#F6C617"/>
<stop offset="0.2349" stop-color="#F6C617"/>
<stop offset="0.2831" stop-color="#F4BD20"/>
<stop offset="0.3626" stop-color="#EEA639"/>
<stop offset="0.4638" stop-color="#E38062"/>
<stop offset="0.5825" stop-color="#D54B9B"/>
<stop offset="0.7054" stop-color="#C50DDD"/>
<stop offset="1" stop-color="#C50DDD"/>
</linearGradient>
<clipPath id="clip0_0_3">
<rect width="439.9" height="137" fill="white"/>
</clipPath>
</defs>
</svg>
