<svg width="349" height="348" viewBox="0 0 349 348" fill="none" xmlns="http://www.w3.org/2000/svg">
<path d="M188.13 0.00999832C196.26 1.41 204.45 2.51 212.49 4.26C286.67 20.4 342.42 84.5 348.24 159.89C349.54 176.77 348.34 193.41 345.31 209.99C345.02 211.57 344.37 213.09 343.69 214.56C353.13 132.62 286.41 56.79 205.85 51.98C131.29 47.53 65.53 97.15 50.47 170.39C33.17 254.52 87.21 329.93 160.71 347.42C151.66 347.42 142.8 345.78 134.06 343.66C52.66 323.93 -2.58999 250.98 0.390008 167.29C3.46001 80.94 71.07 9.26 157.25 0.949997C158.52 0.829997 159.93 1.14 160.95 0C170.01 0.01 179.07 0.00999832 188.13 0.00999832Z" fill="#B11119"/>
<path d="M313.19 203.64C297.08 138.86 228.64 103.51 168.08 123.48C111.65 142.09 79.92 200.34 93.6 260.32C75.88 235.07 68.74 183.77 93.63 141.1C120.49 95.04 175.87 72.11 226.94 86.58C278.89 101.29 314.96 150.11 313.19 203.64Z" fill="#B11119"/>
</svg>
