<svg width="1000" height="314" viewBox="0 0 1000 314" fill="none" xmlns="http://www.w3.org/2000/svg">
<path d="M0 0H732.412V313.571H0V0Z" fill="#EC1B24"/>
<path d="M244.744 156.793C244.744 105.591 203.25 66.0762 151.466 66.0762C99.6673 66.0762 58.1732 105.591 58.1732 156.793C58.1732 207.98 99.6673 247.48 151.466 247.48C203.25 247.48 244.744 207.98 244.744 156.793ZM200.47 156.793C200.47 184.329 176.805 206.306 151.466 206.306C125.836 206.306 102.447 184.329 102.447 156.793C102.447 129.242 125.836 107.265 151.466 107.265C176.805 107.265 200.47 129.242 200.47 156.793Z" fill="white"/>
<path d="M306.497 244.147H349.389V193.236H381.408L415.101 244.147H468.559L425.405 182.947C445.723 174.039 459.928 154.842 459.928 131.192C459.928 96.4072 434.312 69.4236 395.322 69.4236H306.497V244.147ZM392.818 152.062H349.389V110.598H392.818C411.477 110.598 417.051 119.781 417.051 131.192C417.051 142.879 411.477 152.062 392.818 152.062Z" fill="white"/>
<path d="M532.044 244.045H574.892V185.217H655.871V144.072H574.892V110.568H674.239V69.4236H532.044V244.045Z" fill="white"/>
<path d="M0 0H732.412V313.571H0V0Z" fill="#E2001A"/>
<path d="M244.744 156.793C244.744 105.591 203.25 66.0762 151.466 66.0762C99.6673 66.0762 58.1732 105.591 58.1732 156.793C58.1732 207.98 99.6673 247.48 151.466 247.48C203.25 247.48 244.744 207.98 244.744 156.793ZM200.47 156.793C200.47 184.329 176.805 206.306 151.466 206.306C125.836 206.306 102.447 184.329 102.447 156.793C102.447 129.242 125.836 107.265 151.466 107.265C176.805 107.265 200.47 129.242 200.47 156.793Z" fill="white"/>
<path d="M306.497 244.147H349.389V193.236H381.408L415.101 244.147H468.559L425.405 182.947C445.723 174.039 459.928 154.842 459.928 131.192C459.928 96.4072 434.312 69.4236 395.322 69.4236H306.497V244.147ZM392.818 152.062H349.389V110.598H392.818C411.477 110.598 417.051 119.781 417.051 131.192C417.051 142.879 411.477 152.062 392.818 152.062Z" fill="white"/>
<path d="M532.044 244.045H574.892V185.217H655.871V144.072H574.892V110.568H674.239V69.4236H532.044V244.045Z" fill="white"/>
<path d="M790.829 0H1000V313.57H895.729V104.271H790.829V0Z" fill="white"/>
</svg>
