<svg width="622" height="205" viewBox="0 0 622 205" fill="none" xmlns="http://www.w3.org/2000/svg">
<path d="M0 0H476.7V204.1H0V0Z" fill="#EC1B24"/>
<path d="M0 0H476.7V204.1H0V0Z" fill="#E2001A"/>
<path d="M159.3 102C159.3 68.7 132.3 43 98.6 43C64.9 43 37.9 68.7 37.9 102C37.9 135.3 64.9 161 98.6 161C132.3 161.1 159.3 135.4 159.3 102ZM130.5 102C130.5 119.9 115.1 134.2 98.6 134.2C81.9 134.2 66.7 119.9 66.7 102C66.7 84.1 81.9 69.8 98.6 69.8C115.1 69.8 130.5 84.1 130.5 102Z" fill="white"/>
<path d="M199.5 158.9H227.4V125.8H248.2L270.1 158.9H305L276.9 119.1C290.1 113.3 299.4 100.8 299.4 85.4C299.4 62.8 282.7 45.2 257.4 45.2H199.6V158.9H199.5ZM255.7 99H227.4V72H255.7C267.8 72 271.5 78 271.5 85.4C271.4 93 267.8 99 255.7 99Z" fill="white"/>
<path d="M346.3 158.8H374.2V120.5H426.9V93.8H374.2V72H438.9V45.2H346.4L346.3 158.8Z" fill="white"/>
<path d="M621.1 78.7C621.1 58.1 604.2 40.5 577.5 40.5C557.3 40.5 541.7 48.3 529.3 68.5L554.1 80.4C559.5 70.8 567.1 65.9 576.4 65.9C585.7 65.9 592.6 72 592.6 78.3C592.6 82.6 590.7 86.6 584.9 91.1L531.9 133V159.1H620.7V132.6H573.6L601.3 111.7C613.1 102.8 621.1 91.9 621.1 78.7Z" fill="#E2001A"/>
</svg>
