<svg width="199" height="58" viewBox="0 0 199 58" fill="none" xmlns="http://www.w3.org/2000/svg">
<path d="M142.18 11.3C141.334 10.4135 140.306 9.72098 139.167 9.27037C138.027 8.81977 136.803 8.62175 135.58 8.69C133.149 8.66563 130.772 9.41121 128.79 10.82C128.663 10.9069 128.514 10.954 128.36 10.9552C128.207 10.9564 128.056 10.9116 127.928 10.8267C127.8 10.7418 127.701 10.6205 127.642 10.4786C127.584 10.3366 127.569 10.1804 127.6 10.03C127.624 9.9194 127.623 9.80488 127.597 9.69479C127.57 9.5847 127.52 9.48182 127.449 9.39366C127.378 9.3055 127.289 9.23429 127.187 9.18521C127.085 9.13614 126.973 9.11045 126.86 9.11H120.71C120.532 9.1093 120.36 9.17095 120.223 9.28423C120.086 9.39751 119.993 9.55525 119.96 9.73L113.58 42.27C113.558 42.3812 113.561 42.496 113.588 42.606C113.615 42.716 113.667 42.8187 113.738 42.9066C113.81 42.9944 113.9 43.0654 114.003 43.1144C114.105 43.1634 114.217 43.1892 114.33 43.19H120.74C120.917 43.1888 121.089 43.1265 121.225 43.0135C121.362 42.9005 121.455 42.7439 121.49 42.57L125.41 22.57C126.19 18.64 129.01 16.03 132.16 16.03C132.766 16.0288 133.364 16.1618 133.912 16.4194C134.46 16.6771 134.944 17.0529 135.33 17.52C135.397 17.5969 135.478 17.6596 135.57 17.7044C135.661 17.7492 135.761 17.7752 135.862 17.7808C135.964 17.7864 136.066 17.7715 136.162 17.737C136.257 17.7025 136.345 17.6491 136.42 17.58L142.13 12.42C142.203 12.3475 142.262 12.261 142.302 12.1658C142.341 12.0705 142.362 11.9683 142.362 11.865C142.362 11.7617 142.341 11.6595 142.302 11.5642C142.262 11.469 142.203 11.3826 142.13 11.31M95.36 21.43C96.93 17.17 99.5 15.36 102.52 15.36C105.54 15.36 107.28 17.36 107.28 20.85V21.97C107.254 22.3035 107.098 22.6134 106.845 22.8325C106.593 23.0516 106.264 23.1621 105.93 23.14H96.53C96.3246 23.1414 96.1219 23.093 95.9393 22.9988C95.7568 22.9047 95.5998 22.7677 95.4818 22.5996C95.3638 22.4314 95.2883 22.2372 95.2619 22.0335C95.2355 21.8298 95.2588 21.6227 95.33 21.43M94.93 28.57H110.59C111.527 28.5625 112.433 28.226 113.147 27.6192C113.862 27.0124 114.341 26.1739 114.5 25.25C114.748 23.7961 114.882 22.3249 114.9 20.85C114.9 13.46 110.15 8.69 103.01 8.69C91.51 8.69 86.01 20.14 86.01 31.58C86.01 40.58 92.56 43.58 98.41 43.58C102.81 43.6785 107.101 42.2113 110.52 39.44C110.777 39.227 110.942 38.9224 110.979 38.5904C111.017 38.2584 110.924 37.9249 110.72 37.66L108.11 34.32C108.004 34.185 107.872 34.0726 107.722 33.9897C107.571 33.9067 107.406 33.8548 107.235 33.8371C107.065 33.8194 106.892 33.8362 106.728 33.8865C106.564 33.9368 106.411 34.0196 106.28 34.13C104.342 35.8195 101.851 36.7377 99.28 36.71C95.36 36.71 93.56 34.36 93.56 31.02C93.5615 30.5848 93.595 30.1503 93.66 29.72C93.69 29.4044 93.8369 29.1114 94.0719 28.8986C94.3069 28.6858 94.613 28.5686 94.93 28.57ZM76.86 22.02C76.8211 22.3267 76.6716 22.6086 76.4396 22.813C76.2077 23.0173 75.9091 23.13 75.6 23.13H66.17C65.967 23.1309 65.7669 23.0828 65.5865 22.9897C65.4062 22.8966 65.251 22.7614 65.1341 22.5954C65.0173 22.4295 64.9422 22.2378 64.9154 22.0366C64.8886 21.8354 64.9107 21.6308 64.98 21.44C66.55 17.17 69.12 15.35 72.15 15.35C75.18 15.35 76.86 17.35 76.91 20.85V22.02M72.65 8.68C61.15 8.68 55.65 20.13 55.65 31.57C55.65 40.57 62.2 43.57 68.05 43.57C72.4538 43.6646 76.7484 42.1941 80.17 39.42C80.4267 39.2105 80.5906 38.9084 80.6261 38.579C80.6617 38.2496 80.5661 37.9194 80.36 37.66L77.75 34.31C77.6432 34.1742 77.5101 34.0614 77.3586 33.9785C77.2071 33.8955 77.0403 33.8441 76.8684 33.8273C76.6965 33.8104 76.523 33.8286 76.3583 33.8806C76.1935 33.9327 76.0411 34.0175 75.91 34.13C73.9707 35.8159 71.4795 36.7305 68.91 36.7C64.99 36.7 63.19 34.35 63.19 31.01C63.1919 30.5715 63.2254 30.1337 63.29 29.7C63.3267 29.3942 63.4741 29.1124 63.7044 28.9079C63.9347 28.7033 64.232 28.5903 64.54 28.59H80.25C81.1812 28.5923 82.0826 28.2621 82.792 27.659C83.5014 27.0559 83.9723 26.2194 84.12 25.3C84.3629 23.8386 84.4966 22.3612 84.52 20.88C84.52 13.49 79.77 8.71 72.63 8.71M45.52 4.15C42.7984 4.09644 40.1337 4.93204 37.93 6.53C37.6933 6.70642 37.3975 6.78415 37.1046 6.74685C36.8118 6.70955 36.5449 6.56012 36.36 6.33C36.2523 6.18971 36.1775 6.02701 36.1411 5.85391C36.1048 5.68082 36.1078 5.50177 36.15 5.33C36.1772 5.24403 36.1832 5.15277 36.1675 5.06398C36.1518 4.97518 36.1149 4.89149 36.06 4.82C36.0171 4.76274 35.9611 4.71654 35.8968 4.68524C35.8324 4.65393 35.7615 4.63843 35.69 4.64H28.42C28.31 4.64804 28.2048 4.68839 28.1176 4.75599C28.0304 4.8236 27.9652 4.91544 27.93 5.02L26.49 11.24L34.05 15.09C34.3976 15.2652 34.7318 15.4658 35.05 15.69C35.6713 14.5171 36.6039 13.5381 37.7453 12.8606C38.8867 12.1832 40.1928 11.8335 41.52 11.85C42.1579 11.8071 42.7979 11.8959 43.4 12.111C44.0021 12.326 44.5536 12.6627 45.02 13.1C45.94 14.1 46.35 15.5 46.28 17.54C46.1087 19.6922 45.7744 21.8283 45.28 23.93C43.72 30.55 41.93 36.02 35.93 36.02C35.2952 36.0619 34.6585 35.9726 34.0598 35.7575C33.4611 35.5424 32.9131 35.2063 32.45 34.77C31.51 33.77 31.09 32.33 31.16 30.26C31.16 29.88 31.16 29.45 31.26 28.99L21.2 34.02L15.93 57.02C15.9076 57.1022 15.905 57.1886 15.9224 57.272C15.9398 57.3554 15.9766 57.4336 16.03 57.5C16.0729 57.5573 16.1289 57.6035 16.1932 57.6348C16.2576 57.6661 16.3285 57.6816 16.4 57.68H23.93C24.0561 57.6757 24.1771 57.6289 24.2733 57.5472C24.3695 57.4655 24.4353 57.3538 24.46 57.23L28.08 41.53C28.135 41.2653 28.2792 41.0275 28.4886 40.8564C28.6979 40.6853 28.9596 40.5912 29.23 40.59C29.3834 40.5891 29.5353 40.6197 29.6763 40.6799C29.8174 40.7401 29.9446 40.8286 30.05 40.94C31.0313 41.8862 32.1957 42.6219 33.4717 43.1016C34.7477 43.5814 36.1083 43.7953 37.47 43.73C39.2638 43.8239 41.0576 43.5425 42.7364 42.9037C44.4153 42.2648 45.9424 41.2827 47.22 40.02C50.4 36.91 52.22 31.32 53.87 23.88C54.6846 20.8937 55.1839 17.8304 55.36 14.74C55.43 12.85 55.17 9.31 52.78 6.83C51.09 5.09 48.65 4.2 45.52 4.2" fill="#E60000"/>
<path d="M32.08 19.02L12.58 9.11C11.9828 8.78771 11.3184 8.60963 10.64 8.59C8.99 8.59 7.84 9.87 7.84 12.02V23.43L3.36 21.15C2.94248 20.9204 2.47628 20.7936 2 20.78C0.84 20.78 0 21.68 0 23.19V36.39C0 37.9 0.8 38.79 2 38.79C2.47546 38.7795 2.94161 38.6561 3.36 38.43L32.08 23.83C34.69 22.5 34.69 20.33 32.08 19.01" fill="#E60000"/>
<path d="M137.09 43.55C136.023 43.5579 134.978 43.2484 134.087 42.6607C133.196 42.0731 132.501 41.2338 132.088 40.2497C131.676 39.2656 131.565 38.1811 131.771 37.1341C131.976 36.087 132.488 35.1247 133.242 34.3695C133.996 33.6143 134.957 33.1003 136.004 32.8928C137.051 32.6854 138.136 32.7938 139.12 33.2044C140.105 33.615 140.946 34.3092 141.535 35.1988C142.124 36.0883 142.436 37.133 142.43 38.2C142.433 38.9025 142.296 39.5985 142.029 40.2482C141.762 40.8978 141.369 41.4882 140.872 41.9854C140.376 42.4826 139.787 42.8767 139.137 43.1453C138.488 43.4138 137.792 43.5513 137.09 43.55ZM164.63 16.26H160.93C160.671 16.2596 160.42 16.3491 160.219 16.5132C160.018 16.6773 159.881 16.9059 159.83 17.16L156.74 33.16C156.642 33.5589 156.598 33.9693 156.61 34.38C156.61 35.73 157.45 36.44 159.19 36.44H160.72C160.886 36.4397 161.05 36.4763 161.2 36.5471C161.35 36.6179 161.482 36.7211 161.588 36.8494C161.693 36.9776 161.768 37.1276 161.808 37.2885C161.849 37.4495 161.853 37.6173 161.82 37.78L160.92 42.24C160.867 42.4933 160.729 42.7208 160.529 42.8846C160.329 43.0484 160.079 43.1385 159.82 43.14H156.61C151.98 43.14 148.5 40.43 148.5 35.86C148.5 34.9306 148.587 34.0032 148.76 33.09L151.76 17.58C151.792 17.4182 151.789 17.2512 151.749 17.091C151.709 16.9307 151.635 16.7813 151.531 16.6532C151.427 16.5252 151.295 16.4217 151.147 16.3503C150.998 16.2789 150.835 16.2412 150.67 16.24H149.98C149.815 16.2418 149.651 16.2066 149.501 16.1369C149.351 16.0673 149.218 15.965 149.113 15.8375C149.007 15.71 148.932 15.5606 148.891 15.4001C148.851 15.2396 148.847 15.0722 148.88 14.91L149.66 10.83C149.709 10.5767 149.844 10.3483 150.043 10.1841C150.242 10.0198 150.492 9.92999 150.75 9.93H152.34C152.599 9.92957 152.85 9.83832 153.05 9.67209C153.249 9.50585 153.383 9.27514 153.43 9.02L155.06 0.900001C155.113 0.646743 155.251 0.419214 155.451 0.255413C155.651 0.0916114 155.901 0.00145486 156.16 1.47893e-06H161.86C162.026 -0.00026809 162.19 0.0363169 162.34 0.107112C162.49 0.177908 162.622 0.281147 162.728 0.409368C162.833 0.537589 162.908 0.687592 162.948 0.848535C162.989 1.00948 162.993 1.17734 162.96 1.34L161.5 8.58C161.467 8.74217 161.471 8.90961 161.511 9.07009C161.552 9.23056 161.627 9.38001 161.733 9.50751C161.838 9.635 161.971 9.7373 162.121 9.80694C162.271 9.87658 162.435 9.9118 162.6 9.91H165.41C165.575 9.91121 165.738 9.94888 165.887 10.0203C166.035 10.0917 166.167 10.1952 166.271 10.3232C166.375 10.4513 166.449 10.6007 166.489 10.761C166.529 10.9212 166.532 11.0882 166.5 11.25L165.72 15.32C165.671 15.5733 165.536 15.8017 165.337 15.9659C165.138 16.1302 164.888 16.22 164.63 16.22M179.93 43.16H174.3C174.171 43.159 174.047 43.1122 173.95 43.0278C173.853 42.9435 173.789 42.8272 173.77 42.7L168.83 9.7C168.819 9.62352 168.824 9.54547 168.845 9.47112C168.866 9.39678 168.903 9.32789 168.954 9.26911C169.004 9.21032 169.066 9.16301 169.136 9.13039C169.206 9.09776 169.283 9.08058 169.36 9.08H176.3C176.432 9.08163 176.558 9.13131 176.656 9.21971C176.753 9.30811 176.815 9.42913 176.83 9.56L179 29.25C179.013 29.3635 179.062 29.4699 179.14 29.5533C179.218 29.6368 179.32 29.6928 179.433 29.713C179.545 29.7332 179.661 29.7166 179.763 29.6656C179.866 29.6146 179.949 29.532 180 29.43L190 9.38C190.045 9.29119 190.114 9.21636 190.198 9.16352C190.283 9.11067 190.38 9.08181 190.48 9.08H197.95C198.042 9.08033 198.133 9.10479 198.213 9.15098C198.293 9.19716 198.36 9.26347 198.406 9.34331C198.453 9.42315 198.477 9.51376 198.478 9.60615C198.479 9.69853 198.455 9.78949 198.41 9.87L180.41 42.87C180.362 42.953 180.294 43.0223 180.212 43.0713C180.129 43.1203 180.036 43.1474 179.94 43.15" fill="white"/>
</svg>
