<svg width="517" height="222" viewBox="0 0 517 222" fill="none" xmlns="http://www.w3.org/2000/svg">
<g clip-path="url(#clip0_9_21)">
<path fill-rule="evenodd" clip-rule="evenodd" d="M266.957 52.5074L266.864 19.7697L296.095 19.6821C304.998 19.6565 312.232 26.963 312.258 36.0047C312.289 45.0464 305.09 52.3941 296.188 52.4199L266.957 52.5074ZM320.321 62.0383C323.22 59.2578 325.656 55.9727 327.499 52.3272C329.976 47.415 331.366 41.8437 331.351 35.9481C331.33 30.0472 329.909 24.4863 327.406 19.5895C321.521 8.09684 309.673 0.259987 296.038 0.301018L247.715 0.445353L248.029 108.694L267.116 108.637L267.013 71.8936L296.327 71.806C305.193 71.8215 312.387 79.1125 312.412 88.1234L312.469 108.503L331.557 108.447L331.5 88.0667C331.479 82.1659 330.058 76.605 327.556 71.7082C325.697 68.0781 323.241 64.8085 320.321 62.0383Z" fill="#FEFEFE"/>
<path fill-rule="evenodd" clip-rule="evenodd" d="M266.958 52.509L267.014 71.89L294.727 71.8076L294.675 52.4214L266.958 52.509Z" fill="#FEFEFE"/>
<path fill-rule="evenodd" clip-rule="evenodd" d="M203.334 52.6979L203.241 19.9603L232.133 19.8727C240.932 19.847 248.084 27.1535 248.11 36.1952C248.136 45.2369 241.025 52.5846 232.225 52.6104L203.334 52.6979ZM263.078 19.78C257.265 8.28735 245.551 0.450501 232.076 0.491532L188.917 0.620419L184.319 0.635867L184.628 108.884L203.494 108.828L203.391 72.0841L232.282 71.9966C245.757 71.9554 257.42 64.0516 263.166 52.5177C265.617 47.6055 266.992 42.0342 266.976 36.1386C266.956 30.2378 265.55 24.6768 263.078 19.78Z" fill="#FEFEFE"/>
<path fill-rule="evenodd" clip-rule="evenodd" d="M203.336 52.6943L203.387 72.0805L230.78 72.0032L230.729 52.6171L203.336 52.6943Z" fill="#FEFEFE"/>
<path fill-rule="evenodd" clip-rule="evenodd" d="M336.064 0.181723L336.373 108.43L357.515 108.363L357.201 0.119934L336.064 0.181723ZM516.103 19.7934L516.046 0.407251L444.33 0.618362L444.639 108.867L516.361 108.656L516.304 89.2696L463.675 89.4292L463.603 64.3791L516.232 64.2246L516.175 44.8384L463.547 44.998L463.475 19.9479L516.103 19.7934Z" fill="#FEFEFE"/>
<path fill-rule="evenodd" clip-rule="evenodd" d="M463.548 44.9965L463.6 64.3775L490.179 64.3003L490.123 44.9141L463.548 44.9965Z" fill="#FEFEFE"/>
<path fill-rule="evenodd" clip-rule="evenodd" d="M397.448 88.8628L381.29 88.9091L381.089 19.433L397.247 19.3865C416.139 19.33 431.504 34.8389 431.555 54.0243C431.612 73.2097 416.34 88.8061 397.448 88.8628ZM397.191 0.000235833L361.945 0.103454L362.259 108.352L397.505 108.249C426.937 108.161 450.73 83.8579 450.648 53.9677C450.56 24.0723 426.628 -0.0870609 397.191 0.000235833Z" fill="#FEFEFE"/>
<path fill-rule="evenodd" clip-rule="evenodd" d="M362.122 61.9781L362.2 88.9694L381.292 88.9127L381.21 61.9214L362.122 61.9781Z" fill="#FEFEFE"/>
<path fill-rule="evenodd" clip-rule="evenodd" d="M516.398 132.706L516.341 113.32L444.625 113.531L444.934 221.78L516.655 221.569L516.598 202.183L463.97 202.342L463.898 177.292L516.526 177.138L516.47 157.751L463.841 157.911L463.769 132.861L516.398 132.706Z" fill="#FEFEFE"/>
<path fill-rule="evenodd" clip-rule="evenodd" d="M463.842 157.91L463.898 177.296L490.473 177.214L490.421 157.833L463.842 157.91Z" fill="#FEFEFE"/>
<path fill-rule="evenodd" clip-rule="evenodd" d="M444.801 175.406L444.878 202.398L463.966 202.341L463.888 175.355L444.801 175.406Z" fill="#FEFEFE"/>
<path fill-rule="evenodd" clip-rule="evenodd" d="M227.26 202.211L227.003 113.395L207.925 113.452L208.234 221.644L299.012 221.417L298.961 202.041L267.345 202.093L227.26 202.211Z" fill="#FEFEFE"/>
<path fill-rule="evenodd" clip-rule="evenodd" d="M208.104 175.293L208.176 202.269L227.258 202.212L227.181 175.237L208.104 175.293Z" fill="#FEFEFE"/>
<path fill-rule="evenodd" clip-rule="evenodd" d="M267.348 202.137L267.091 113.321L248.014 113.378L248.323 219.263L299.293 219.114L299.236 202.045L267.348 202.137Z" fill="#FEFEFE"/>
<path fill-rule="evenodd" clip-rule="evenodd" d="M248.189 175.201L248.267 202.176L267.349 202.12L267.272 175.144L248.189 175.201Z" fill="#FEFEFE"/>
<path fill-rule="evenodd" clip-rule="evenodd" d="M440.289 158.258L440.423 205.557C435.083 211.01 428.606 215.315 421.382 218.069C415.599 220.278 409.338 221.494 402.799 221.509C373.372 221.597 349.45 197.448 349.367 167.573C349.28 137.698 373.063 113.41 402.485 113.322C417.196 113.276 430.532 119.295 440.207 129.053L426.752 142.79C420.548 136.529 411.985 132.667 402.541 132.693C383.655 132.75 368.393 148.341 368.444 167.516C368.501 186.691 383.856 202.195 402.742 202.138C409.596 202.118 415.975 200.048 421.32 196.505L421.263 177.691L391.873 177.778L391.816 158.402L440.289 158.258Z" fill="#FEFEFE"/>
<path fill-rule="evenodd" clip-rule="evenodd" d="M393.454 158.399L393.511 177.77L421.218 177.688L421.156 158.312L393.454 158.399Z" fill="#FEFEFE"/>
<path fill-rule="evenodd" clip-rule="evenodd" d="M318.892 182.818L332.336 155.827L345.94 182.736L318.892 182.818ZM332.218 113.151L278.235 221.503L299.65 221.441L309.227 202.22L355.718 202.081L365.403 221.245L386.818 221.178L332.218 113.151Z" fill="#FEFEFE"/>
<path fill-rule="evenodd" clip-rule="evenodd" d="M318.891 182.821L309.226 202.223L336.465 202.14L345.939 182.739L318.891 182.821Z" fill="#FEFEFE"/>
<path fill-rule="evenodd" clip-rule="evenodd" d="M143.889 18.2611L144.28 152.626L98.9066 119.857L35.3519 73.9635L0.00366211 92.1036L63.5584 137.997L144.414 196.382L179.886 221.999L179.237 0.120964L143.889 18.2611Z" fill="#FEFEFE"/>
<mask id="mask0_9_21" style="mask-type:luminance" maskUnits="userSpaceOnUse" x="80" y="123" width="65" height="54">
<path d="M104.078 123.592L144.034 152.442L144.107 176.004L80.3767 130.563L104.078 123.592Z" fill="white"/>
</mask>
<g mask="url(#mask0_9_21)">
<path fill-rule="evenodd" clip-rule="evenodd" d="M144.009 144.811L144.107 176.004L80.3767 130.563L104.593 123.442L144.009 144.811Z" fill="#FEFEFE"/>
</g>
<mask id="mask1_9_21" style="mask-type:luminance" maskUnits="userSpaceOnUse" x="0" y="0" width="180" height="223">
<path d="M143.885 18.2626L144.282 152.622L98.903 119.859L35.3534 73.9599L0 92.1051L63.5599 137.999L144.41 196.384L179.887 222L179.238 0.117355" fill="white"/>
</mask>
<g mask="url(#mask1_9_21)">
<path fill-rule="evenodd" clip-rule="evenodd" d="M129.161 185.842C121.988 180.662 114.816 175.487 107.643 170.307C107.622 170.297 107.586 170.302 107.561 170.302C107.597 170.271 107.627 170.24 107.658 170.209C109.373 171.435 111.088 172.655 112.885 173.937C112.807 167.053 112.725 160.359 112.648 153.665C118.121 157.563 123.59 161.456 129.063 165.353C129.094 172.181 129.13 179.014 129.161 185.842Z" fill="#3FBFEF"/>
</g>
<mask id="mask2_9_21" style="mask-type:luminance" maskUnits="userSpaceOnUse" x="0" y="0" width="180" height="223">
<path d="M143.885 18.2626L144.282 152.622L98.903 119.859L35.3534 73.9599L0 92.1051L63.5599 137.999L144.41 196.384L179.887 222L179.238 0.117355" fill="white"/>
</mask>
<g mask="url(#mask2_9_21)">
<path fill-rule="evenodd" clip-rule="evenodd" d="M112.649 153.666C112.727 160.359 112.804 167.053 112.886 173.937C111.089 172.655 109.369 171.435 107.66 170.21C103.937 167.522 100.214 164.829 96.4865 162.136C96.399 155.406 96.3114 148.676 96.2188 141.946C101.697 145.855 107.171 149.758 112.649 153.666Z" fill="#512C12"/>
</g>
<mask id="mask3_9_21" style="mask-type:luminance" maskUnits="userSpaceOnUse" x="0" y="0" width="180" height="223">
<path d="M143.885 18.2626L144.282 152.622L98.903 119.859L35.3534 73.9599L0 92.1051L63.5599 137.999L144.41 196.384L179.887 222L179.238 0.117355" fill="white"/>
</mask>
<g mask="url(#mask3_9_21)">
<path fill-rule="evenodd" clip-rule="evenodd" d="M63.8461 118.854C69.2475 122.706 74.6488 126.563 80.0502 130.414C80.0347 130.955 79.9935 131.495 79.9935 132.036C80.0502 138.133 80.112 144.234 80.1738 150.331C74.4944 146.247 68.815 142.164 63.1356 138.086C63.115 138.071 63.0892 138.066 63.0635 138.055C63.0738 138.04 63.0841 138.019 63.0892 137.999C63.3158 138.143 63.5475 138.292 63.9852 138.575C63.9646 136.907 63.9388 135.419 63.9285 133.931C63.8976 128.905 63.8719 123.88 63.8461 118.854Z" fill="#3457A4"/>
</g>
<mask id="mask4_9_21" style="mask-type:luminance" maskUnits="userSpaceOnUse" x="0" y="0" width="180" height="223">
<path d="M143.885 18.2626L144.282 152.622L98.903 119.859L35.3534 73.9599L0 92.1051L63.5599 137.999L144.41 196.384L179.887 222L179.238 0.117355" fill="white"/>
</mask>
<g mask="url(#mask4_9_21)">
<path fill-rule="evenodd" clip-rule="evenodd" d="M80.1743 150.331C80.1125 144.234 80.0507 138.133 79.9941 132.036C79.9889 131.495 80.0301 130.955 80.0507 130.414C85.4418 134.255 90.8328 138.102 96.2187 141.948C96.3114 148.678 96.399 155.408 96.4865 162.137C91.0491 158.203 85.6117 154.264 80.1743 150.331Z" fill="#6F2381"/>
</g>
<mask id="mask5_9_21" style="mask-type:luminance" maskUnits="userSpaceOnUse" x="0" y="0" width="180" height="223">
<path d="M143.885 18.2626L144.282 152.622L98.903 119.859L35.3534 73.9599L0 92.1051L63.5599 137.999L144.41 196.384L179.887 222L179.238 0.117355" fill="white"/>
</mask>
<g mask="url(#mask5_9_21)">
<path fill-rule="evenodd" clip-rule="evenodd" d="M63.8461 118.854C63.8718 123.88 63.8975 128.905 63.9284 133.931C63.9387 135.419 63.9645 136.907 63.9851 138.575C63.5474 138.292 63.3157 138.143 63.0891 137.999C57.8783 134.245 52.6623 130.486 47.4463 126.727C47.4618 125.358 47.4978 123.988 47.4927 122.618C47.4824 117.464 47.4566 112.305 47.436 107.151C52.9043 111.054 58.3778 114.951 63.8461 118.854Z" fill="#0D8036"/>
</g>
<mask id="mask6_9_21" style="mask-type:luminance" maskUnits="userSpaceOnUse" x="0" y="0" width="180" height="223">
<path d="M143.885 18.2626L144.282 152.622L98.903 119.859L35.3534 73.9599L0 92.1051L63.5599 137.999L144.41 196.384L179.887 222L179.238 0.117355" fill="white"/>
</mask>
<g mask="url(#mask6_9_21)">
<path fill-rule="evenodd" clip-rule="evenodd" d="M47.4352 107.15C47.4558 112.309 47.4815 117.464 47.4918 122.623C47.4969 123.993 47.4609 125.357 47.4455 126.727C42.0647 122.85 36.6839 118.967 31.3032 115.09C31.2208 108.551 31.1384 102.006 31.056 95.4669C36.514 99.3596 41.9772 103.257 47.4352 107.15Z" fill="#FAE91C"/>
</g>
<mask id="mask7_9_21" style="mask-type:luminance" maskUnits="userSpaceOnUse" x="0" y="0" width="180" height="223">
<path d="M143.885 18.2626L144.282 152.622L98.903 119.859L35.3534 73.9599L0 92.1051L63.5599 137.999L144.41 196.384L179.887 222L179.238 0.117355" fill="white"/>
</mask>
<g mask="url(#mask7_9_21)">
<path fill-rule="evenodd" clip-rule="evenodd" d="M31.057 95.4669C31.1394 102.006 31.2218 108.551 31.3041 115.09C25.7998 111.084 20.2955 107.083 14.7911 103.077C14.8735 102.882 15.028 102.681 15.0228 102.485C14.9868 96.3011 14.9353 90.1171 14.8838 83.9331C20.2749 87.7743 25.6659 91.6206 31.057 95.4669Z" fill="#F08819"/>
</g>
<mask id="mask8_9_21" style="mask-type:luminance" maskUnits="userSpaceOnUse" x="0" y="0" width="180" height="223">
<path d="M143.885 18.2626L144.282 152.622L98.903 119.859L35.3534 73.9599L0 92.1051L63.5599 137.999L144.41 196.384L179.887 222L179.238 0.117355" fill="white"/>
</mask>
<g mask="url(#mask8_9_21)">
<path fill-rule="evenodd" clip-rule="evenodd" d="M129.161 185.842C129.13 179.014 129.094 172.181 129.063 165.353C134.094 168.942 139.129 172.536 144.212 176.161C144.345 182.974 144.479 189.801 144.613 196.866C139.33 193.097 134.248 189.466 129.161 185.842Z" fill="#F2ABCC"/>
</g>
<mask id="mask9_9_21" style="mask-type:luminance" maskUnits="userSpaceOnUse" x="0" y="0" width="180" height="223">
<path d="M143.885 18.2626L144.282 152.622L98.903 119.859L35.3534 73.9599L0 92.1051L63.5599 137.999L144.41 196.384L179.887 222L179.238 0.117355" fill="white"/>
</mask>
<g mask="url(#mask9_9_21)">
<path fill-rule="evenodd" clip-rule="evenodd" d="M15.0255 102.488C15.0255 102.684 14.871 102.88 14.7886 103.075C9.48508 99.2906 4.17641 95.5061 -1.37427 91.5465C2.78102 89.4199 6.72519 87.3037 10.7723 85.3882C12.0648 84.7806 13.1152 83.2822 14.8813 83.931C14.9328 90.115 14.9843 96.299 15.0255 102.488Z" fill="#E10F14"/>
</g>
<mask id="mask10_9_21" style="mask-type:luminance" maskUnits="userSpaceOnUse" x="129" y="165" width="16" height="32">
<path d="M129.288 165.232L144.009 176.153L144.472 196.43L144.41 196.384L129.288 185.463V165.232Z" fill="white"/>
</mask>
<g mask="url(#mask10_9_21)">
<path fill-rule="evenodd" clip-rule="evenodd" d="M144.009 176.153L144.488 197.048L129.288 185.653V165.232L144.009 176.153Z" fill="#FEFEFE"/>
</g>
</g>
<defs>
<clipPath id="clip0_9_21">
<rect width="516.655" height="222" fill="white"/>
</clipPath>
</defs>
</svg>
