<svg width="503" height="194" viewBox="0 0 503 194" fill="none" xmlns="http://www.w3.org/2000/svg">
<g filter="url(#filter0_d_1_7)">
<path d="M16.2568 79V17.4395H36.2031C43.7617 17.4395 48.6888 17.7474 50.9844 18.3633C54.5117 19.2871 57.4652 21.3027 59.8447 24.4102C62.2243 27.4896 63.4141 31.4788 63.4141 36.3779C63.4141 40.1572 62.7282 43.3346 61.3564 45.9102C59.9847 48.4857 58.235 50.5153 56.1074 51.999C54.0078 53.4548 51.8662 54.4206 49.6826 54.8965C46.7152 55.4844 42.418 55.7783 36.791 55.7783H28.6865V79H16.2568ZM28.6865 27.8535V45.3223H35.4893C40.3883 45.3223 43.6637 45.0003 45.3154 44.3564C46.9671 43.7126 48.2549 42.7048 49.1787 41.333C50.1305 39.9613 50.6064 38.3656 50.6064 36.5459C50.6064 34.3063 49.9486 32.4587 48.6328 31.0029C47.3171 29.5472 45.6514 28.6374 43.6357 28.2734C42.152 27.9935 39.1706 27.8535 34.6914 27.8535H28.6865Z" fill="white"/>
<path d="M73.6602 79V17.4395H99.8213C106.4 17.4395 111.173 17.9993 114.141 19.1191C117.136 20.2109 119.53 22.1706 121.321 24.998C123.113 27.8255 124.009 31.0589 124.009 34.6982C124.009 39.3174 122.651 43.1387 119.936 46.1621C117.22 49.1576 113.161 51.0472 107.758 51.8311C110.445 53.3988 112.657 55.1204 114.393 56.9961C116.156 58.8717 118.522 62.2031 121.489 66.9902L129.006 79H114.141L105.154 65.6045C101.963 60.8174 99.7793 57.8079 98.6035 56.5762C97.4277 55.3164 96.182 54.4626 94.8662 54.0146C93.5505 53.5387 91.4648 53.3008 88.6094 53.3008H86.0898V79H73.6602ZM86.0898 43.4746H95.2861C101.249 43.4746 104.972 43.2227 106.456 42.7188C107.94 42.2148 109.102 41.347 109.941 40.1152C110.781 38.8835 111.201 37.3438 111.201 35.4961C111.201 33.4245 110.641 31.7588 109.521 30.499C108.43 29.2113 106.876 28.3994 104.86 28.0635C103.853 27.9235 100.829 27.8535 95.79 27.8535H86.0898V43.4746Z" fill="white"/>
<path d="M133.247 48.5977C133.247 42.3268 134.185 37.0638 136.061 32.8086C137.46 29.6732 139.364 26.8597 141.771 24.3682C144.207 21.8766 146.867 20.029 149.75 18.8252C153.585 17.2015 158.008 16.3896 163.02 16.3896C172.09 16.3896 179.34 19.2031 184.771 24.8301C190.23 30.457 192.96 38.2816 192.96 48.3037C192.96 58.2419 190.258 66.0244 184.855 71.6514C179.452 77.2503 172.23 80.0498 163.188 80.0498C154.033 80.0498 146.755 77.2643 141.352 71.6934C135.949 66.0944 133.247 58.3958 133.247 48.5977ZM146.055 48.1777C146.055 55.1484 147.664 60.4395 150.884 64.0508C154.103 67.6341 158.19 69.4258 163.146 69.4258C168.101 69.4258 172.16 67.6481 175.323 64.0928C178.515 60.5094 180.11 55.1484 180.11 48.0098C180.11 40.9551 178.557 35.6921 175.449 32.2207C172.37 28.7493 168.269 27.0137 163.146 27.0137C158.022 27.0137 153.893 28.7773 150.758 32.3047C147.622 35.804 146.055 41.0951 146.055 48.1777Z" fill="white"/>
<path d="M202.702 79V17.4395H222.648C230.207 17.4395 235.134 17.7474 237.43 18.3633C240.957 19.2871 243.91 21.3027 246.29 24.4102C248.67 27.4896 249.859 31.4788 249.859 36.3779C249.859 40.1572 249.174 43.3346 247.802 45.9102C246.43 48.4857 244.68 50.5153 242.553 51.999C240.453 53.4548 238.312 54.4206 236.128 54.8965C233.16 55.4844 228.863 55.7783 223.236 55.7783H215.132V79H202.702ZM215.132 27.8535V45.3223H221.935C226.834 45.3223 230.109 45.0003 231.761 44.3564C233.412 43.7126 234.7 42.7048 235.624 41.333C236.576 39.9613 237.052 38.3656 237.052 36.5459C237.052 34.3063 236.394 32.4587 235.078 31.0029C233.762 29.5472 232.097 28.6374 230.081 28.2734C228.597 27.9935 225.616 27.8535 221.137 27.8535H215.132Z" fill="white"/>
<path d="M257.544 48.5977C257.544 42.3268 258.482 37.0638 260.357 32.8086C261.757 29.6732 263.661 26.8597 266.068 24.3682C268.504 21.8766 271.163 20.029 274.047 18.8252C277.882 17.2015 282.305 16.3896 287.316 16.3896C296.387 16.3896 303.637 19.2031 309.068 24.8301C314.527 30.457 317.257 38.2816 317.257 48.3037C317.257 58.2419 314.555 66.0244 309.152 71.6514C303.749 77.2503 296.527 80.0498 287.484 80.0498C278.33 80.0498 271.051 77.2643 265.648 71.6934C260.245 66.0944 257.544 58.3958 257.544 48.5977ZM270.352 48.1777C270.352 55.1484 271.961 60.4395 275.181 64.0508C278.4 67.6341 282.487 69.4258 287.442 69.4258C292.397 69.4258 296.457 67.6481 299.62 64.0928C302.812 60.5094 304.407 55.1484 304.407 48.0098C304.407 40.9551 302.854 35.6921 299.746 32.2207C296.667 28.7493 292.565 27.0137 287.442 27.0137C282.319 27.0137 278.19 28.7773 275.055 32.3047C271.919 35.804 270.352 41.0951 270.352 48.1777Z" fill="white"/>
<path d="M323.85 58.9697L335.943 57.7939C336.671 61.8532 338.141 64.8346 340.353 66.7383C342.592 68.6419 345.602 69.5938 349.381 69.5938C353.384 69.5938 356.394 68.7539 358.409 67.0742C360.453 65.3665 361.475 63.3789 361.475 61.1113C361.475 59.6556 361.041 58.4238 360.173 57.416C359.333 56.3802 357.849 55.4844 355.722 54.7285C354.266 54.2246 350.949 53.3288 345.77 52.041C339.107 50.3893 334.432 48.3597 331.744 45.9521C327.965 42.5648 326.075 38.4355 326.075 33.5645C326.075 30.429 326.957 27.5036 328.721 24.7881C330.512 22.0446 333.074 19.959 336.405 18.5312C339.765 17.1035 343.81 16.3896 348.541 16.3896C356.268 16.3896 362.076 18.0833 365.968 21.4707C369.887 24.8581 371.945 29.3792 372.141 35.0342L359.711 35.5801C359.179 32.4167 358.031 30.1491 356.268 28.7773C354.532 27.3776 351.914 26.6777 348.415 26.6777C344.804 26.6777 341.976 27.4196 339.933 28.9033C338.617 29.8551 337.959 31.1289 337.959 32.7246C337.959 34.1803 338.575 35.4261 339.807 36.4619C341.374 37.7777 345.182 39.1494 351.229 40.5771C357.275 42.0049 361.741 43.4886 364.624 45.0283C367.535 46.54 369.803 48.6257 371.427 51.2852C373.078 53.9167 373.904 57.1781 373.904 61.0693C373.904 64.5967 372.924 67.9001 370.965 70.9795C369.005 74.0589 366.234 76.3545 362.65 77.8662C359.067 79.3499 354.602 80.0918 349.255 80.0918C341.472 80.0918 335.495 78.3001 331.324 74.7168C327.153 71.1055 324.661 65.8564 323.85 58.9697Z" fill="white"/>
<path d="M398.218 79V27.8535H379.951V17.4395H428.872V27.8535H410.647V79H398.218Z" fill="white"/>
<path d="M486.065 79H472.544L467.169 65.0166H442.562L437.48 79H424.295L448.272 17.4395H461.416L486.065 79ZM463.18 54.6445L454.697 31.8008L446.383 54.6445H463.18Z" fill="white"/>
<path d="M16 86.5336H49.0264C56.4741 86.5336 62.1514 87.1062 66.0584 88.2513C71.3085 89.8054 75.8056 92.566 79.5498 96.533C83.294 100.5 86.1429 105.367 88.0964 111.133C90.0499 116.859 91.0266 123.934 91.0266 132.359C91.0266 139.761 90.1109 146.141 88.2795 151.499C86.0411 158.042 82.8463 163.338 78.6952 167.387C75.5614 170.454 71.3288 172.847 65.9974 174.565C62.009 175.832 56.6776 176.466 50.0031 176.466H16V86.5336ZM34.0699 101.747V161.314H47.5612C52.6078 161.314 56.2503 161.028 58.4886 160.455C61.4189 159.719 63.8404 158.472 65.7532 156.713C67.7067 154.954 69.2939 152.071 70.5149 148.063C71.7358 144.015 72.3463 138.514 72.3463 131.561C72.3463 124.609 71.7358 119.272 70.5149 115.55C69.2939 111.828 67.5846 108.925 65.3869 106.839C63.1892 104.753 60.4014 103.342 57.0235 102.606C54.5002 102.034 49.5554 101.747 42.1891 101.747H34.0699Z" fill="white"/>
<path d="M102.748 132.052C102.748 122.891 104.111 115.203 106.838 108.986C108.873 104.406 111.64 100.296 115.14 96.6557C118.681 93.0158 122.547 90.3166 126.739 88.558C132.315 86.186 138.745 85 146.03 85C159.216 85 169.757 89.1102 177.652 97.3305C185.588 105.551 189.556 116.982 189.556 131.623C189.556 146.141 185.629 157.511 177.774 165.731C169.92 173.91 159.419 178 146.274 178C132.966 178 122.384 173.931 114.53 165.792C106.675 157.613 102.748 146.366 102.748 132.052ZM121.367 131.439C121.367 141.622 123.707 149.352 128.387 154.627C133.068 159.862 139.009 162.48 146.213 162.48C153.417 162.48 159.318 159.883 163.917 154.689C168.556 149.454 170.876 141.622 170.876 131.193C170.876 120.887 168.617 113.199 164.1 108.127C159.623 103.056 153.661 100.52 146.213 100.52C138.765 100.52 132.762 103.097 128.204 108.25C123.646 113.362 121.367 121.092 121.367 131.439Z" fill="white"/>
<path d="M203.719 176.466V86.5336H232.716C243.705 86.5336 250.868 86.9835 254.205 87.8832C259.333 89.2329 263.627 92.1774 267.086 96.717C270.545 101.216 272.275 107.044 272.275 114.201C272.275 119.722 271.278 124.363 269.284 128.126C267.289 131.889 264.746 134.854 261.653 137.021C258.6 139.148 255.487 140.559 252.312 141.254C247.999 142.113 241.751 142.542 233.571 142.542H221.789V176.466H203.719ZM221.789 101.747V127.267H231.679C238.801 127.267 243.562 126.797 245.964 125.856C248.365 124.916 250.237 123.443 251.58 121.439C252.964 119.435 253.656 117.104 253.656 114.446C253.656 111.174 252.699 108.475 250.786 106.348C248.874 104.222 246.452 102.892 243.522 102.361C241.365 101.952 237.03 101.747 230.519 101.747H221.789Z" fill="white"/>
<path d="M287.109 176.466V86.5336H316.107C327.095 86.5336 334.258 86.9835 337.595 87.8832C342.723 89.2329 347.017 92.1774 350.476 96.717C353.935 101.216 355.665 107.044 355.665 114.201C355.665 119.722 354.668 124.363 352.674 128.126C350.679 131.889 348.136 134.854 345.043 137.021C341.99 139.148 338.877 140.559 335.703 141.254C331.389 142.113 325.141 142.542 316.961 142.542H305.179V176.466H287.109ZM305.179 101.747V127.267H315.069C322.191 127.267 326.952 126.797 329.354 125.856C331.755 124.916 333.627 123.443 334.97 121.439C336.354 119.435 337.046 117.104 337.046 114.446C337.046 111.174 336.089 108.475 334.176 106.348C332.264 104.222 329.842 102.892 326.912 102.361C324.755 101.952 320.42 101.747 313.909 101.747H305.179Z" fill="white"/>
<path d="M369.95 176.466V86.5336H388.02V176.466H369.95Z" fill="white"/>
<path d="M486 176.466H466.343L458.529 156.038H422.755L415.369 176.466H396.2L431.058 86.5336H450.165L486 176.466ZM452.729 140.886L440.398 107.514L428.311 140.886H452.729Z" fill="white"/>
</g>
<defs>
<filter id="filter0_d_1_7" x="0" y="0.389648" width="502.065" height="193.61" filterUnits="userSpaceOnUse" color-interpolation-filters="sRGB">
<feFlood flood-opacity="0" result="BackgroundImageFix"/>
<feColorMatrix in="SourceAlpha" type="matrix" values="0 0 0 0 0 0 0 0 0 0 0 0 0 0 0 0 0 0 127 0" result="hardAlpha"/>
<feOffset/>
<feGaussianBlur stdDeviation="8"/>
<feComposite in2="hardAlpha" operator="out"/>
<feColorMatrix type="matrix" values="0 0 0 0 0 0 0 0 0 0 0 0 0 0 0 0 0 0 1 0"/>
<feBlend mode="normal" in2="BackgroundImageFix" result="effect1_dropShadow_1_7"/>
<feBlend mode="normal" in="SourceGraphic" in2="effect1_dropShadow_1_7" result="shape"/>
</filter>
</defs>
</svg>
