<svg width="255" height="62" viewBox="0 0 255 62" fill="none" xmlns="http://www.w3.org/2000/svg">
<path d="M49.2 32.2V18.4C49.2 13.2 45.2 11.3 38.8 11.3C31 11.3 27.1 13.3 27.1 16.7C27.1 18.8 28.5 20 30.8 20C33.6 20 34.8 18.7 35 15.3C35.2 13.8 35.6 13.5 36.9 13.5C39.5 13.5 40.3 14.6 40.3 19V34.2C39.9 35 39.1 35.5 37.8 35.5C36.1 35.5 34.6 34.6 34.6 31.2C34.6 27.6 35.8 26.5 38.2 26.2V23.8L35.5 24.5C29.4 25.9 26 28 26 32.5C26 36.8 28.9 39.2 33.7 39.2C37.1 39.2 39.3 37.7 40.6 36H40.9C41.5 38 43.4 39.2 46.5 39.2C49.7 39.2 51.8 38.1 52.8 37.3V36C52.2 35.9 51.1 35.8 50.5 35.5C49.4 35 49.2 34.2 49.2 32.2Z" fill="white"/>
<path d="M97.7 33.8V17.8C97.7 15.4 97.8 13.7 97.9 11.7L97.3 11.3L85.5 12.5V13.6L87.2 14.8C88.7 15.9 88.9 16.1 88.9 18.3V33.9C88.9 36.2 88.7 36.4 86.9 36.9L85.7 37.2V38.7H100.9V37.2L99.7 36.9C97.9 36.4 97.7 36.2 97.7 33.8Z" fill="white"/>
<path d="M115.9 11.3C108.9 11.3 101.8 15.3 101.8 25.3C101.8 34.7 108.4 39.2 115.9 39.2C123 39.2 130 35.1 130 25.1C130 15.8 123.3 11.3 115.9 11.3ZM116 37.1C112.6 37.1 111 35.3 111 24.5C111 15.6 112.8 13.5 115.7 13.5C118.8 13.5 120.7 15 120.7 25.6C120.8 35.8 118.8 37.1 116 37.1Z" fill="white"/>
<path d="M21.1 11.7C18 11.7 14.9 14.1 13.2 15.8V11.9L12.4 11.4L10 11.7C10.4 12.5 10.6 13.3 10.6 14.2C10.6 17.5 8 20.1 4.7 20.1C4.6 20.1 4.5 20.1 4.4 20.1V33.9C4.4 36.2 4.2 36.4 2.4 36.9L1.2 37.2V38.7H16V37.2L15 36.9C13.4 36.4 13.3 36.4 13.3 33.8V18C14.1 17.4 15.3 16.6 16.3 16.6C16.8 16.6 17.1 16.7 17.4 17.3C18.4 19 19.1 19.7 21.6 19.7C23.7 19.7 25.3 18.2 25.3 15.7C25.3 13.1 23.7 11.7 21.1 11.7Z" fill="white"/>
<path d="M141.3 49.4C141.3 50 140.8 50.6 140.1 50.6C139.5 50.6 138.9 50.1 138.9 49.4C138.9 48.7 139.4 48.2 140.1 48.2C140.7 48.2 141.3 48.7 141.3 49.4Z" fill="white"/>
<path d="M143.7 51.6C143.7 52.4 143.1 53 142.3 53C141.5 53 140.9 52.4 140.9 51.6C140.9 50.8 141.5 50.2 142.3 50.2C143.1 50.2 143.7 50.8 143.7 51.6Z" fill="white"/>
<path d="M147.6 48.7C147.6 49.5 147 50.1 146.2 50.1C145.4 50.1 144.8 49.5 144.8 48.7C144.8 47.9 145.4 47.3 146.2 47.3C147 47.2 147.6 47.9 147.6 48.7Z" fill="white"/>
<path d="M151.7 45.7C151.7 46.5 151.1 47.1 150.3 47.1C149.5 47.1 148.9 46.5 148.9 45.7C148.9 44.9 149.5 44.3 150.3 44.3C151 44.3 151.7 44.9 151.7 45.7Z" fill="white"/>
<path d="M155.3 47.3C155.3 48.1 154.6 48.8 153.8 48.8C153 48.8 152.3 48.1 152.3 47.3C152.3 46.5 153 45.8 153.8 45.8C154.6 45.8 155.3 46.4 155.3 47.3Z" fill="white"/>
<path d="M159.4 48.3C159.4 49.3 158.6 50.1 157.6 50.1C156.6 50.1 155.8 49.3 155.8 48.3C155.8 47.3 156.6 46.5 157.6 46.5C158.6 46.5 159.4 47.3 159.4 48.3Z" fill="white"/>
<path d="M154.9 52.2C154.9 53.2 154.1 54 153.1 54C152.1 54 151.3 53.2 151.3 52.2C151.3 51.2 152.1 50.4 153.1 50.4C154.1 50.4 154.9 51.2 154.9 52.2Z" fill="white"/>
<path d="M150.7 55.7C150.7 56.7 149.9 57.5 148.9 57.5C147.9 57.5 147.1 56.7 147.1 55.7C147.1 54.7 147.9 53.9 148.9 53.9C149.9 54 150.7 54.8 150.7 55.7Z" fill="white"/>
<path d="M155.3 57.3C155.3 58.5 154.3 59.5 153.1 59.5C151.9 59.5 150.9 58.5 150.9 57.3C150.9 56.1 151.9 55.1 153.1 55.1C154.3 55.1 155.3 56.1 155.3 57.3Z" fill="white"/>
<path d="M159.7 53.4C159.7 54.6 158.7 55.6 157.5 55.6C156.3 55.6 155.3 54.6 155.3 53.4C155.3 52.2 156.3 51.2 157.5 51.2C158.7 51.2 159.7 52.2 159.7 53.4Z" fill="white"/>
<path d="M164.3 48.9C164.3 50.1 163.3 51.1 162.1 51.1C160.9 51.1 159.9 50.1 159.9 48.9C159.9 47.7 160.9 46.7 162.1 46.7C163.3 46.7 164.3 47.7 164.3 48.9Z" fill="white"/>
<path d="M151 50.7C151 51.5 150.3 52.2 149.5 52.2C148.7 52.2 148 51.5 148 50.7C148 49.9 148.7 49.2 149.5 49.2C150.3 49.2 151 49.9 151 50.7Z" fill="white"/>
<path d="M146.9 53.9C146.9 54.7 146.2 55.4 145.4 55.4C144.6 55.4 143.9 54.7 143.9 53.9C143.9 53.1 144.6 52.4 145.4 52.4C146.2 52.4 146.9 53.1 146.9 53.9Z" fill="white"/>
<path d="M144.9 46.6C144.9 47.2 144.4 47.8 143.7 47.8C143.1 47.8 142.5 47.3 142.5 46.6C142.5 46 143 45.4 143.7 45.4C144.4 45.4 144.9 46 144.9 46.6Z" fill="white"/>
<path d="M148.8 44C148.8 44.6 148.3 45.2 147.6 45.2C147 45.2 146.4 44.7 146.4 44C146.4 43.3 146.9 42.8 147.6 42.8C148.2 42.8 148.8 43.3 148.8 44Z" fill="white"/>
<path d="M183.1 53C183.9 53.3 184.7 53.6 185.3 54.2C186.2 55 186.4 56.1 186.3 57.3C186.2 59.1 185.3 60.4 183.6 61C182.9 61.3 182.2 61.4 181.5 61.4C179.3 61.4 177.2 61.4 175 61.4H174.9V45.7C175 45.7 175 45.7 175.1 45.7C177.4 45.7 179.7 45.6 182 45.7C184.5 45.8 186 47.7 185.7 50.2C185.5 51.4 185 52.3 183.8 52.8C183.6 52.9 183.4 53 183.1 53ZM178.4 54.1V58.8H180.8C180.9 58.8 180.9 58.8 181 58.8C181.9 58.7 182.6 58.2 182.7 57.3C182.8 57 182.8 56.6 182.8 56.2C182.8 55.1 182.2 54.3 181.1 54.2C180.3 54 179.4 54.1 178.4 54.1ZM178.3 52.5C178.8 52.5 179.3 52.5 179.7 52.5C180 52.5 180.4 52.5 180.7 52.5C181.4 52.4 181.9 52.1 182.1 51.4C182.2 51 182.3 50.5 182.3 50.1C182.3 49.2 181.6 48.4 180.7 48.3C180 48.2 179.2 48.2 178.5 48.2C178.4 48.2 178.3 48.4 178.3 48.5C178.3 49.1 178.3 49.8 178.3 50.4V52.5Z" fill="white"/>
<path d="M195.4 50.4C195.4 50.6 195.4 50.7 195.4 50.8C195.4 52.8 195.4 54.9 195.4 56.9C195.4 58 196 58.6 197.2 58.6C198 58.6 198.6 58.3 199.2 57.8C199.4 57.7 199.5 57.5 199.5 57.3C199.5 55.1 199.5 53 199.5 50.8V50.3H202.6V61.3H199.5V60.1C199.3 60.2 199.1 60.3 198.9 60.4C198 61 197.1 61.4 196 61.4C194.3 61.5 192.7 60.8 192.3 58.7C192.2 58.3 192.2 57.9 192.2 57.4C192.2 55.2 192.2 52.9 192.2 50.7V50.4H195.4Z" fill="white"/>
<path d="M167.4 51.7V52.6C167.8 52.4 168.2 52.1 168.6 52C169.9 51.4 171.2 51.2 172.6 51.9C173.5 52.4 174 53.3 174 54.3C174 56.7 174 59 174 61.5H171.2V61C171.2 59.2 171.2 57.4 171.2 55.6C171.2 54.7 170.7 54.2 169.8 54.1C169 54 168.3 54.3 167.7 54.8C167.6 54.9 167.5 55.1 167.5 55.3C167.5 57.1 167.5 59 167.5 60.8V61.3H164.7V61C164.7 58.1 164.7 55.2 164.7 52.3C164.7 51.9 164.8 51.8 165.1 51.8C165.8 51.8 166.6 51.8 167.4 51.7Z" fill="white"/>
<path d="M191.8 59.6C191.1 60.2 190.4 60.8 189.6 61.5C188.6 60.9 187.6 60.2 187.2 59C187.1 58.6 187 58.2 187 57.9C187 53.9 187 50 187 46V45.7H190.2V46.2C190.2 49.6 190.2 53.1 190.2 56.5C190.2 57.8 190.6 58.7 191.6 59.5C191.7 59.5 191.7 59.6 191.8 59.6Z" fill="white"/>
<path d="M163.7 61.4C163.6 61.4 163.6 61.4 163.5 61.4C162.6 61.4 161.7 61.4 160.8 61.4V51.8C161.7 51.8 162.7 51.7 163.6 51.7V61.4H163.7Z" fill="white"/>
<path d="M82.6 35.8C81 35.1 80.9 34.9 80.9 32.3V6.4C80.9 2.9 81.1 0.4 81.1 0.4L80.4 0L68.3 1.1V2.4L70.4 3.5C71.7 4.3 72 4.5 72 6.9V33.9C71.3 34.2 70 34.9 68.1 34.9C64.5 34.9 62.6 32.5 62.6 24.4C62.6 16 64.9 13.4 68.3 13.4C69 13.4 69.5 13.6 70 13.8V11.4C69.5 11.3 68.9 11.3 68.4 11.3C60.3 11.3 53.4 15.4 53.4 26.2C53.4 35.4 58.2 39.2 63.4 39.2C67.1 39.2 69.8 37.7 72 35.8H72.3L72.2 38.8L72.8 39.2L84 37.7V36.4L82.6 35.8Z" fill="white"/>
<path d="M132.6 35.6C132.6 34.3 133 32.3 133.4 30.8L136.4 19.4C136.6 18.7 136.6 18.1 136.6 17.7C136.6 16.4 135.7 16.7 133.9 18L133.2 18.5L132.2 17.3C134.7 14.6 138.6 11.4 142.3 11.4C144.8 11.4 145.6 13.1 145.6 15.1C145.6 15.9 145.4 17.9 144.6 20.5L141.8 31.2C141.6 31.8 141.5 32.5 141.5 32.9C141.5 34.1 142.3 34.3 143.9 33.3L145.1 32.5L146.1 33.7C143.9 35.9 139.9 39 136.1 39C133.5 39.1 132.6 37.2 132.6 35.6Z" fill="white"/>
<path d="M148.8 25.3C148.8 14.8 157.2 11.4 164.4 11.4C169.5 11.4 172.7 13 172.7 16.3C172.7 18.5 171.2 20 169 20C166.2 20 165.3 18 165.1 15.7C164.9 13.9 164.6 13.6 163 13.6C160.5 13.6 157.5 15 157.5 23.1C157.5 30.5 159.6 34.5 165.3 34.5C168.3 34.5 170.5 33.6 172.4 32.7V34.4C171 36.3 167.2 39.2 161.6 39.2C153.4 39.1 148.8 33.7 148.8 25.3Z" fill="white"/>
<path d="M202.6 37L203.8 36.7C205.6 36.2 205.8 36 205.8 33.7V18.3C205.8 16.1 205.6 15.9 204.1 14.9L202.4 13.7V12.6L213.7 11.4L214.3 11.8L214.2 15.4H214.4C215.9 13.7 218.8 11.3 221.8 11.3C224.3 11.3 225.9 12.7 225.9 15.3C225.9 17.8 224.3 19.3 222.2 19.3C219.8 19.3 219.2 18.6 218 16.9C217.7 16.4 217.4 16.3 216.9 16.3C216 16.3 215.1 16.9 214.5 17.5V33.6C214.5 36.1 214.7 36.3 216.3 36.6L217.8 36.9V38.4H202.6V37Z" fill="white"/>
<path d="M226.7 25.3C226.7 15.4 233.7 11.4 240.7 11.4C248 11.4 254.7 15.8 254.7 25.1C254.7 35 247.8 39.1 240.7 39.1C233.3 39.1 226.7 34.6 226.7 25.3ZM245.5 25.6C245.5 15.1 243.6 13.6 240.5 13.6C237.6 13.6 235.8 15.7 235.8 24.5C235.8 35.2 237.4 37 240.8 37C243.6 37 245.5 35.6 245.5 25.6Z" fill="white"/>
<path d="M147.1 4C146.8 2.9 146.1 2 145.2 1.4C144.5 1 143.8 0.8 143 0.8C142.6 0.8 142.3 0.8 141.9 0.9C140.8 1.2 140 1.8 139.4 2.7C138.8 3.7 138.5 4.9 138.8 6.1C139.4 8.4 141.7 9.8 144 9.2C144.5 9.1 144.9 8.9 145.4 8.6C145.9 8.3 146.3 7.8 146.7 7.3C147.2 6.2 147.3 5.1 147.1 4Z" fill="white"/>
<path d="M197.5 32.1V18.4C197.5 13.3 193.6 11.4 187.2 11.4C179.5 11.4 175.6 13.4 175.6 16.7C175.6 18.8 177 20 179.2 20C181.9 20 183.1 18.7 183.4 15.3C183.6 13.8 184 13.5 185.3 13.5C187.8 13.5 188.7 14.6 188.7 18.9V33.9C188.3 34.7 187.5 35.2 186.3 35.2C184.6 35.2 183.2 34.3 183.2 30.9C183.2 27.3 184.4 26.2 186.8 26V23.7L184.1 24.4C177.9 25.9 174.6 27.9 174.6 32.5C174.6 36.8 177.4 39.2 182.2 39.2C185.6 39.2 187.7 37.7 189 36.1H189.3C189.9 38.1 191.8 39.2 194.8 39.2C198 39.2 200.1 38.1 201.1 37.3V35.9C200.5 35.8 199.4 35.7 198.8 35.4C197.7 34.8 197.5 34.1 197.5 32.1Z" fill="white"/>
<path d="M147.1 4C146.8 2.9 146.1 2 145.2 1.4C144.5 1 143.8 0.8 143 0.8C142.6 0.8 142.3 0.8 141.9 0.9C140.8 1.2 140 1.8 139.4 2.7C138.8 3.7 138.5 4.9 138.8 6.1C139.4 8.4 141.7 9.8 144 9.2C144.5 9.1 144.9 8.9 145.4 8.6C145.9 8.3 146.3 7.8 146.7 7.3C147.2 6.2 147.3 5.1 147.1 4Z" fill="white"/>
<path d="M97.2 3.7C96.9 2.6 96.2 1.7 95.3 1.1C94.6 0.7 93.9 0.5 93.1 0.5C92.7 0.5 92.4 0.5 92 0.6C90.9 0.9 90.1 1.5 89.5 2.4C88.9 3.4 88.6 4.6 88.9 5.8C89.5 8.1 91.8 9.5 94.1 8.9C94.6 8.8 95 8.6 95.5 8.3C96 8 96.4 7.5 96.8 7C97.3 5.9 97.5 4.8 97.2 3.7Z" fill="white"/>
<path d="M9.5 14.2C9.5 16.8 7.4 18.9 4.8 18.9C2.2 18.9 0 16.8 0 14.2C0 11.6 2.1 9.5 4.7 9.5C7.3 9.5 9.5 11.6 9.5 14.2Z" fill="#1173CB"/>
</svg>
