<svg width="976" height="500" viewBox="0 0 976 500" fill="none" xmlns="http://www.w3.org/2000/svg">
<path d="M282.075 477.918L294.32 462.863C306.567 474.506 321.02 482.135 339.695 482.135C358.766 482.135 368.602 472.095 368.602 461.055C368.602 448.005 357.157 442.984 334.071 437.766C305.966 431.142 287.293 422.711 287.293 397.813C287.293 374.725 307.369 357.261 335.075 357.261C356.355 357.261 372.214 365.088 385.466 376.737L373.821 391.996C362.178 381.353 348.326 375.129 334.271 375.129C318.814 375.129 307.971 384.966 307.971 396.01C307.971 408.86 319.815 413.275 342.5 418.693C370.006 425.119 389.077 434.355 389.077 459.045C389.077 482.334 371.411 500.002 338.888 500.002C315.8 500 296.729 491.969 282.075 477.918ZM159.278 500C147.135 500 143.561 496.43 143.561 484.285V268.573H170.706V475.713H186.421V252.857H159.278C147.135 252.857 143.561 249.285 143.561 237.14V15.715C143.561 3.572 147.135 0 159.278 0H198.562C210.707 0 214.277 3.572 214.277 15.715V212.857H187.134V24.286H171.421V228.572H198.562C210.707 228.572 214.277 232.14 214.277 244.285V484.285C214.277 496.43 210.707 500 198.562 500H159.278ZM93.566 500V24.286H79.281V0H135.71V24.286H121.422V500H93.566ZM43.566 500V267.145H27.856V500H0V0H55.716C67.857 0 71.429 3.572 71.429 15.715V235C71.429 247.145 67.857 250.713 58.571 250.713H57.143V259.285H58.571C67.856 259.285 71.429 262.855 71.429 275V500H43.566ZM27.856 242.857H43.571V24.286H27.856V242.857ZM949.537 497.791L937.493 469.686H865.622L853.576 497.791H831.092L890.315 359.871H912.8L972.021 497.791H949.537ZM873.452 451.418H929.666L901.559 385.97L873.452 451.418ZM700.011 497.791V359.872H747.592C792.159 359.872 823.878 388.372 823.878 428.73C823.878 469.088 792.159 497.79 747.592 497.79L700.011 497.791ZM720.289 479.321H748.795C780.716 479.321 802.995 458.444 802.995 428.731C802.995 399.221 780.711 378.341 748.795 378.341H720.288L720.289 479.321ZM651.041 497.791L617.312 449.813H585.593V497.791H565.315V359.87H623.335C652.446 359.87 674.53 378.539 674.53 404.84C674.53 426.12 660.073 442.382 639.195 447.801L674.329 497.79L651.041 497.791ZM585.593 430.938H620.525C640.402 430.938 653.851 421.103 653.851 404.838C653.851 388.573 640.402 378.738 620.525 378.738H585.593V430.938ZM522.569 497.791L510.523 469.686H438.651L426.605 497.791H404.12L463.345 359.871H485.83L545.053 497.791H522.569ZM446.482 451.418H502.694L474.594 385.97L446.482 451.418ZM746.418 257.43C746.418 236.812 763.939 219.507 784.554 219.507C805.169 219.507 822.479 236.807 822.479 257.43C822.479 278.053 805.173 295.461 784.554 295.461C763.935 295.461 746.418 278.046 746.418 257.43ZM757.527 257.43C757.527 272.706 769.921 285.524 784.554 285.524C799.187 285.524 811.475 272.706 811.475 257.43C811.475 242.261 799.192 229.439 784.554 229.439C769.916 229.439 757.527 242.26 757.527 257.43ZM652.1 283.6L658.617 275.587C665.13 281.787 672.823 285.842 682.756 285.842C692.904 285.842 698.138 280.502 698.138 274.625C698.138 267.682 692.05 265.011 679.765 262.235C664.809 258.706 654.875 254.222 654.875 240.976C654.875 228.691 665.558 219.396 680.299 219.396C691.622 219.396 700.064 223.561 707.111 229.761L700.917 237.877C694.717 232.219 687.35 228.905 679.871 228.905C671.647 228.905 665.878 234.141 665.878 240.015C665.878 246.852 672.178 249.2 684.251 252.087C698.886 255.503 709.037 260.416 709.037 273.557C709.037 285.947 699.637 295.346 682.329 295.346C670.044 295.349 659.894 291.075 652.1 283.6ZM918.079 294.174V220.787H972.027V230.829H928.972V251.767H967.855V261.809H928.972V284.134H972.024V294.176L918.079 294.174ZM889.989 294.174L847.789 238.519V294.174H837V220.787H847.787L889.987 276.444V220.787H900.774V294.176L889.989 294.174ZM722.389 294.174V220.787H733.176V294.176L722.389 294.174ZM629.137 294.174V220.787H639.924V294.176L629.137 294.174ZM574.765 294.174L543.249 220.785H555.213L580.746 280.285L606.277 220.785H618.243L586.729 294.174H574.765ZM480.977 294.174V220.787H534.925V230.829H491.867V251.767H530.75V261.809H491.867V284.134H534.919V294.176L480.977 294.174ZM419.877 294.174V220.787H430.777V284.134H469.66V294.176L419.877 294.174ZM353.327 294.174V220.787H407.27V230.829H364.218V251.767H403.1V261.809H364.218V284.134H407.27V294.176L353.327 294.174ZM306.113 294.174V230.829H282.075V220.787H341.042V230.829H316.9V294.176L306.113 294.174ZM817.2 78.688C817.2 35.907 853.547 0 896.329 0C939.111 0 975.015 35.907 975.015 78.688C975.015 121.469 939.105 157.6 896.329 157.6C853.553 157.6 817.2 121.468 817.2 78.688ZM840.252 78.688C840.252 110.388 865.965 136.982 896.333 136.982C926.701 136.982 952.189 110.382 952.189 78.688C952.189 47.21 926.696 20.611 896.333 20.611C865.97 20.611 840.248 47.21 840.248 78.688H840.252ZM600.889 154.94V2.662H653.418C702.63 2.662 737.653 34.134 737.653 78.69C737.653 123.246 702.63 154.94 653.418 154.94H600.889ZM623.277 134.546H654.751C689.993 134.546 714.6 111.492 714.6 78.69C714.6 46.106 689.993 23.054 654.751 23.054H623.278L623.277 134.546ZM767.334 154.938V2.66H789.718V154.938H767.334ZM551.034 154.938L537.734 123.905H458.383L445.083 154.938H420.257L485.646 2.662H510.47L575.86 154.938H551.034ZM467.023 103.738H529.09L498.057 31.478L467.023 103.738ZM379.712 154.938L342.474 101.962H307.453V154.938H285.067V2.662H349.125C381.262 2.662 405.649 23.276 405.649 52.313C405.649 75.806 389.689 93.762 366.637 99.743L405.425 154.938H379.712ZM307.452 81.125H346.02C367.965 81.125 382.82 70.264 382.82 52.313C382.82 34.362 367.97 23.495 346.02 23.495H307.453L307.452 81.125Z" fill="white"/>
</svg>
