<svg width="2510" height="978" viewBox="0 0 2510 978" fill="none" xmlns="http://www.w3.org/2000/svg">
<path d="M2458.58 125.718C2329.43 -55.0623 1997.36 -38.9507 1716.79 161.642C1681.96 186.546 1649.59 213.129 1619.81 240.926C1646.41 252.6 1667.74 268.503 1683.53 288.41C1694.79 279.346 1706.39 270.473 1718.41 261.873C1924.27 114.641 2163.25 96.2342 2252.26 220.691C2341.12 345.142 2246.37 565.408 2040.52 712.63C1834.66 859.849 1595.76 878.285 1506.73 753.808C1503.91 749.846 1501.28 745.787 1498.82 741.639C1468.48 748.451 1435.1 752.148 1398.88 752.729C1406.87 788.724 1421.33 822.275 1442.77 852.276C1571.95 1033.06 1904.01 1016.97 2184.6 816.332C2465.12 615.697 2587.78 306.496 2458.58 125.718Z" fill="#ED1C24"/>
<path d="M423.648 384.336L261.407 384.098C164.939 383.946 128.319 431.437 118.046 479.659C106.995 528.651 120.821 579.119 216.532 579.272L287.419 579.37L299.227 523.092L176.429 512.665L194.083 432.967L433.103 433.333L383.042 670.177L292.425 668.595L282.918 649.551C282.918 649.551 209.784 673.592 165.954 673.534C38.048 673.329 -17.3647 584.034 4.74343 479.494C28.2896 368.388 119.736 288.811 254.976 289.024C306.145 289.105 377.007 298.709 440.577 308.301L423.648 384.336Z" fill="white"/>
<path d="M703.17 669.918L431.995 669.523L512.217 295.248L627 295.418L565.9 576.854L720.813 586.584L703.17 669.918Z" fill="white"/>
<path d="M989.188 382.243C893.447 382.088 865.598 430.314 854.53 482.947C842.792 535.577 850.753 583.868 945.779 584C1042.99 584.153 1070.1 535.92 1081.14 484.012C1092.93 430.655 1086.39 382.379 989.188 382.243ZM926.62 675.39C756.347 675.131 714.804 591.704 737.597 482.773C761.167 373.858 839.515 290.604 1008.33 290.86C1180.1 291.112 1220.9 374.559 1198.07 484.194C1174.51 592.374 1097.64 675.64 926.62 675.39Z" fill="white"/>
<path d="M1510.26 412.996C1509.5 415.922 1501.46 429.793 1492.67 442.223L1367 434.721L1377.28 387.212L1443.8 389.501C1500.35 391.417 1511.36 394.781 1511.34 405.531C1511.33 407.703 1510.88 410.174 1510.26 412.996ZM1493.99 552.647C1491.24 566.295 1478.89 578.03 1422.49 581.216C1418.52 581.442 1414.33 581.617 1409.92 581.754L1335.35 583.844L1348.59 520.994L1424.56 524.028C1482.65 526.697 1494.58 535.569 1494.56 547.663C1494.55 549.271 1494.33 550.931 1493.99 552.647ZM1628.68 402.935C1631.26 393.576 1632.57 384.815 1632.59 376.659C1632.69 324.287 1579.29 296.838 1462.92 296.656L1281.66 296.39L1227.94 548.581L1201.44 671.378L1387.88 671.666C1388.17 671.672 1388.44 671.672 1388.73 671.672C1522.63 671.672 1596.24 624.304 1611.64 553.551C1612.82 547.926 1613.4 542.474 1613.4 537.194C1613.4 536.75 1613.4 536.3 1613.39 535.861V535.66C1612.8 508.631 1596.93 486.06 1568.66 467.935C1598.66 451.159 1620.61 432.175 1628.68 402.935Z" fill="white"/>
<path fill-rule="evenodd" clip-rule="evenodd" d="M1840.96 676.743C1670.65 676.491 1629.13 593.057 1651.94 484.135C1675.51 375.226 1753.84 291.964 1922.67 292.222C2094.42 292.465 2135.21 375.899 2112.41 485.547C2088.86 593.717 2011.97 676.997 1840.96 676.743ZM1743.76 394.61H1928.16L1934.04 516.023L2015.43 394.61H2061.82L1943.68 574.173H1897.68L1877.04 435.523H1832.36L1794.88 574.173H1748.87L1784.84 435.523H1733.54L1743.76 394.61Z" fill="white"/>
</svg>
