<svg width="618" height="321" viewBox="0 0 618 321" fill="none" xmlns="http://www.w3.org/2000/svg">
<path d="M558.349 45.7734C558.816 48.4114 559.165 52.2444 559.248 57.1014L559.381 69.1554L568.333 66.8524L562.099 54.9894C560.634 52.1844 559.113 48.3344 558.349 45.7734Z" fill="#E82429"/>
<path d="M0.225128 152.453L25.0435 248.908L617.543 96.4549L592.724 0L0.225128 152.453Z" fill="#E82429"/>
<path d="M495.578 56.0924L490.604 57.3724L494.237 71.4944L499.309 70.1894C505.376 68.6284 506.723 65.2064 505.52 60.5334C504.241 55.5604 501.147 54.6594 495.578 56.0924Z" fill="#E82429"/>
<path d="M333.846 156.024L316.01 86.7064L356.288 76.3424L358.757 91.2944L337.573 96.7444L340.567 108.38L357.872 103.928L361.506 118.051L344.201 122.503L347.835 136.625L371.604 130.51L375.417 145.328L333.846 156.024Z" fill="white"/>
<path d="M415.896 134.912L402.029 117.696L397.995 139.518L375.419 145.327L387.737 103.772L359.771 75.4464L381.75 69.7904L393.434 84.7044L396.371 66.0284L417.753 60.5274L407.347 97.5604L437.479 129.359L415.896 134.912Z" fill="white"/>
<path d="M472.661 62.0914L456.55 66.2374L470.599 120.837L452.598 125.469L438.549 70.8694L422.438 75.0154L418.651 60.2964L470.963 46.8364L472.661 62.0914Z" fill="white"/>
<path d="M525.996 106.583L513.746 89.0594C509.218 82.5884 507.396 82.1024 503.518 83.1004L510.581 110.549L492.778 115.13L474.942 45.8124L498.811 39.6704C519.199 34.4244 527.886 40.9904 530.854 52.5264C533.925 64.4614 529.22 72.1374 521.423 75.6304C523.989 75.7124 527.693 78.1524 530.304 81.2974C533.794 85.3834 542.964 96.7024 546.581 101.286L525.996 106.583ZM501.478 54.5704L496.506 55.8504L500.14 69.9724L505.212 68.6674C511.278 67.1064 512.624 63.6854 511.421 59.0104C510.142 54.0384 507.048 53.1374 501.478 54.5704Z" fill="white"/>
<path d="M588.354 90.5374L581.344 78.1324L564.935 82.3544L564.584 96.6544L545.888 101.465L550.328 26.4154L568.826 21.6554L607.647 85.5744L588.354 90.5374ZM568 53.4654C566.536 50.6614 565.016 46.8114 564.251 44.2514C564.717 46.8884 565.067 50.7214 565.15 55.5774L565.282 67.6304L574.232 65.3274L568 53.4654Z" fill="white"/>
<path d="M157.039 6.81637C70.305 6.81637 0 77.1254 0 163.85C0 250.572 70.305 320.884 157.039 320.884C243.761 320.884 314.075 250.571 314.075 163.85C314.075 77.1264 243.76 6.81637 157.039 6.81637ZM157.039 289.473C87.651 289.473 31.404 233.235 31.404 163.85C31.404 94.4634 87.651 38.2254 157.039 38.2254C226.416 38.2254 282.661 94.4634 282.661 163.85C282.661 233.235 226.416 289.473 157.039 289.473Z" fill="black"/>
<path d="M157.039 69.6304C104.999 69.6304 62.818 111.818 62.818 163.85C62.818 215.889 104.999 258.069 157.039 258.069C209.069 258.069 251.258 215.889 251.258 163.85C251.257 111.818 209.069 69.6304 157.039 69.6304ZM157.039 226.665C122.345 226.665 94.222 198.542 94.222 163.851C94.222 129.165 122.345 101.034 157.039 101.034C191.722 101.034 219.851 129.166 219.851 163.851C219.85 198.542 191.721 226.665 157.039 226.665Z" fill="#E82429"/>
<path d="M157.039 132.446C139.692 132.446 125.63 146.511 125.63 163.85C125.63 181.196 139.693 195.253 157.039 195.253C174.381 195.253 188.442 181.195 188.442 163.85C188.442 146.511 174.38 132.446 157.039 132.446Z" fill="#221F1F"/>
<path d="M157.039 38.2274C87.651 38.2274 31.404 94.4644 31.404 163.85C31.404 233.235 87.651 289.474 157.039 289.474C226.416 289.474 282.661 233.235 282.661 163.85C282.661 94.4634 226.416 38.2274 157.039 38.2274ZM157.039 258.069C104.999 258.069 62.818 215.889 62.818 163.85C62.818 111.818 104.999 69.6304 157.039 69.6304C209.069 69.6304 251.258 111.817 251.258 163.85C251.257 215.889 209.069 258.069 157.039 258.069Z" fill="white"/>
<path d="M157.039 101.033C122.345 101.033 94.222 129.166 94.222 163.851C94.222 198.542 122.345 226.664 157.039 226.664C191.722 226.664 219.851 198.542 219.851 163.851C219.85 129.166 191.721 101.033 157.039 101.033ZM157.039 195.253C139.692 195.253 125.63 181.195 125.63 163.85C125.63 146.511 139.692 132.446 157.039 132.446C174.38 132.446 188.442 146.511 188.442 163.85C188.442 181.196 174.38 195.253 157.039 195.253Z" fill="white"/>
<path d="M161.102 272.479C160.847 272.397 160.664 272.333 160.39 272.341C159.344 272.377 158.48 273.181 158.284 274.122L158.54 281.912L156.035 281.995L155.766 273.861C155.719 272.404 155.529 271.475 155.254 270.779L157.535 270.11C157.825 270.626 158.007 271.281 158.028 271.918C158.896 270.637 159.79 270.013 160.905 269.978C161.269 269.966 161.498 270.004 161.8 270.13L161.102 272.479Z" fill="#221F1F"/>
<path d="M172.152 281.186C171.419 280.998 170.766 280.523 170.409 279.832C169.603 280.98 168.65 281.463 167.429 281.606C164.804 281.918 163.455 280.609 163.219 278.617C162.905 275.969 164.739 274.399 168.405 273.963L169.176 273.873L169.103 273.262C168.948 271.949 168.638 271.274 167.281 271.434C165.629 271.63 164.018 273.154 164.018 273.154L162.697 271.496C164.29 270.206 165.659 269.563 167.378 269.359C169.167 269.146 170.444 269.66 171.09 270.847C171.352 271.319 171.426 271.93 171.604 273.631L171.948 276.918C172.107 278.46 172.302 278.94 173.258 279.447L172.152 281.186ZM168.875 275.607C166.387 275.903 165.725 276.716 165.896 278.164C166.025 279.249 166.695 279.858 167.69 279.741C168.483 279.648 169.196 279.08 169.609 278.299L169.331 275.575C169.331 275.575 169.055 275.585 168.875 275.607Z" fill="#221F1F"/>
<path d="M183.845 278.312C183.678 278.093 183.618 277.943 183.445 277.492C182.865 278.421 182.058 278.983 180.949 279.239C178.085 279.904 175.834 278.062 175.021 274.552C174.203 271.022 175.601 268.171 178.311 267.544C179.265 267.323 180.115 267.454 180.968 268.006C180.968 268.006 180.699 267.154 180.474 266.179L179.523 262.07L182.03 261.887L184.828 273.967C185.342 276.186 185.738 277.289 186.089 277.791L183.845 278.312ZM181.328 269.864C180.634 269.394 179.896 269.237 179.075 269.428C177.52 269.787 177.098 271.194 177.725 273.904C178.3 276.39 179.077 277.52 180.919 277.095C181.829 276.882 182.443 276.202 182.648 275.571L181.328 269.864Z" fill="#221F1F"/>
<path d="M187.133 263.559C186.266 263.838 185.362 263.342 185.08 262.473C184.792 261.583 185.254 260.645 186.143 260.357C186.99 260.081 187.931 260.544 188.225 261.455C188.505 262.322 188.022 263.269 187.133 263.559ZM190.023 276.543L186.523 265.743L188.791 264.531L192.429 275.762L190.023 276.543Z" fill="#221F1F"/>
<path d="M200.738 272.941C197.857 274.148 195.142 272.743 193.713 269.337C192.285 265.933 193.196 262.98 196.013 261.799C199.039 260.528 201.705 262.055 203.118 265.417C204.553 268.842 203.616 271.732 200.738 272.941ZM196.765 263.533C195.293 264.15 195.131 265.53 196.215 268.114C197.512 271.205 198.667 271.782 200.056 271.2C201.422 270.627 201.71 269.196 200.591 266.526C199.33 263.521 198.111 262.969 196.765 263.533Z" fill="#221F1F"/>
<path d="M216.767 264.777C215.561 265.516 214.02 265.923 212.329 265.996L212.148 263.996C213.333 263.967 214.859 263.756 215.967 263.077C216.9 262.505 217.217 261.539 216.718 260.721C216.254 259.962 215.53 259.871 214.279 260.317L212.939 260.787C211.27 261.381 209.777 260.904 208.932 259.523C207.804 257.676 208.497 255.489 210.675 254.158C212.017 253.338 213.336 253.093 214.446 253.028L214.65 254.934C213.438 255.007 212.577 255.212 211.798 255.688C210.885 256.246 210.61 257.109 211.073 257.867C211.441 258.471 211.963 258.58 213.107 258.226L214.523 257.788C216.816 257.082 218.007 257.85 218.709 258.997C219.922 260.98 219.139 263.329 216.767 264.777Z" fill="#221F1F"/>
<path d="M225.98 258.545C224.175 259.86 222.771 259.249 221.803 257.924L217.597 252.163L216.566 252.915L215.545 251.517L216.576 250.764C215.999 249.972 215.407 249.162 214.988 248.396L216.705 246.382C217.166 247.203 217.91 248.38 218.583 249.299L220.811 247.674L221.298 249.462L219.586 250.713L223.402 255.941C224.248 257.1 224.748 257.243 225.631 256.597C225.907 256.396 226.106 256.167 226.362 255.783L227.507 256.808C227.099 257.529 226.606 258.086 225.98 258.545Z" fill="#221F1F"/>
<path d="M235.956 250.405C235.339 250.461 234.847 250.348 234.257 249.986C234.251 251.26 233.711 252.339 232.717 253.211C231.738 254.064 230.684 254.383 229.804 254.243C229.1 254.131 228.468 253.684 227.523 252.602L222.378 246.717L223.93 244.754L229.015 250.569C229.962 251.651 230.807 252.306 231.921 251.329C232.557 250.775 232.878 249.585 232.629 248.714L227.198 242.501L228.718 240.568L234.434 247.106C235.574 248.408 236.48 248.372 236.48 248.372L235.956 250.405Z" fill="#221F1F"/>
<path d="M244.659 240.91C244.397 240.827 244.264 240.735 243.864 240.462C243.915 241.558 243.569 242.479 242.802 243.32C240.82 245.491 237.92 245.255 235.261 242.828C232.581 240.384 232.115 237.244 233.989 235.189C234.649 234.465 235.423 234.09 236.438 234.06C236.438 234.06 235.735 233.512 234.994 232.835L231.88 229.995L233.841 228.419L243 236.774C244.685 238.311 245.636 238.992 246.211 239.208L244.659 240.91ZM237.79 235.386C236.95 235.392 236.254 235.681 235.686 236.305C234.611 237.484 235.063 238.883 237.117 240.757C239.003 242.478 240.285 242.966 241.559 241.569C242.188 240.879 242.308 239.969 242.117 239.334L237.79 235.386Z" fill="#221F1F"/>
<path d="M238.993 226.897C238.438 227.622 237.411 227.724 236.688 227.168C235.946 226.599 235.792 225.564 236.361 224.822C236.903 224.115 237.939 223.963 238.699 224.547C239.42 225.1 239.561 226.157 238.993 226.897ZM248.737 235.95L239.731 229.043L240.909 226.759L250.276 233.944L248.737 235.95Z" fill="#221F1F"/>
<path d="M255.51 226.918C253.822 229.544 250.789 229.928 247.682 227.933C244.576 225.939 243.653 222.989 245.301 220.418C247.073 217.655 250.136 217.4 253.204 219.37C256.331 221.377 257.196 224.292 255.51 226.918ZM246.905 221.421C246.044 222.765 246.691 223.991 249.05 225.505C251.87 227.316 253.151 227.135 253.962 225.87C254.762 224.622 254.19 223.279 251.753 221.716C249.009 219.957 247.694 220.195 246.905 221.421Z" fill="#221F1F"/>
<path d="M265.3 207.529C265.026 207.533 264.869 207.492 264.404 207.362C264.804 208.383 264.775 209.363 264.32 210.41C263.147 213.104 260.329 213.817 257.026 212.381C253.704 210.936 252.245 208.113 253.356 205.565C253.745 204.667 254.356 204.062 255.307 203.706C255.307 203.706 254.465 203.414 253.546 203.013L249.678 201.332L251.026 199.208L262.395 204.154C264.484 205.063 265.604 205.401 266.218 205.421L265.3 207.529ZM257.015 204.522C256.224 204.798 255.66 205.297 255.321 206.071C254.686 207.536 255.565 208.712 258.114 209.822C260.456 210.84 261.826 210.889 262.581 209.155C262.954 208.298 262.773 207.398 262.387 206.858L257.015 204.522Z" fill="#221F1F"/>
<path d="M263.449 197.814L263.622 197.867C265.148 198.336 266.935 198.266 267.599 196.111C267.914 195.087 267.819 194.078 267.355 193.03L269.103 192.542C269.727 193.999 269.797 195.476 269.341 196.956C268.382 200.071 265.534 201.341 262.007 200.255C260.068 199.657 258.909 198.848 258.114 197.554C257.366 196.345 257.244 195.116 257.675 193.723C258.01 192.634 258.602 191.716 259.738 191.041C260.905 190.353 262.403 190.29 264.973 191.082L265.474 191.235L263.449 197.814ZM259.482 194.279C259.066 195.629 259.904 196.698 261.691 197.248L262.946 193.176C261.159 192.625 259.851 193.08 259.482 194.279Z" fill="#221F1F"/>
<path d="M271.877 186.851C271.332 189.322 269.107 188.831 268.151 188.622L258.557 186.51C257.021 186.173 256.182 186.058 255.213 186.008L255.211 183.37C255.94 183.345 256.879 183.527 258.35 183.85L267.898 185.952C269.411 186.286 269.67 186.274 269.976 186.155C270.206 186.063 270.402 185.711 270.332 185.39L271.933 185.325C272.014 185.809 272 186.295 271.877 186.851Z" fill="#221F1F"/>
<path d="M273.197 179.665C272.856 181.87 271.43 182.434 269.807 182.184L262.759 181.088L262.562 182.35L260.851 182.084L261.047 180.823C260.078 180.673 259.087 180.518 258.249 180.273L258.036 177.633C258.941 177.889 260.301 178.191 261.429 178.367L261.851 175.642L263.461 176.561L263.137 178.655L269.533 179.647C270.95 179.868 271.405 179.616 271.573 178.534C271.625 178.197 271.603 177.892 271.511 177.44L273.047 177.357C273.27 178.153 273.316 178.898 273.197 179.665Z" fill="#221F1F"/>
<path d="M274.612 166.802C274.292 167.488 273.705 168.041 272.959 168.264C273.941 169.268 274.235 170.294 274.152 171.521C273.969 174.159 272.433 175.24 270.432 175.102C267.771 174.919 266.568 172.828 266.822 169.143L266.875 168.371L266.262 168.327C264.943 168.238 264.223 168.417 264.129 169.78C264.015 171.439 265.211 173.304 265.211 173.304L263.338 174.294C262.365 172.491 261.987 171.025 262.106 169.299C262.23 167.502 262.972 166.343 264.257 165.928C264.772 165.758 265.385 165.8 267.089 165.94L270.383 166.213C271.928 166.342 272.436 166.238 273.112 165.395L274.612 166.802ZM268.522 168.986C268.35 171.489 269.026 172.288 270.482 172.388C271.573 172.462 272.295 171.919 272.365 170.918C272.42 170.123 271.996 169.317 271.302 168.767L268.576 168.533C268.576 168.533 268.536 168.804 268.522 168.986Z" fill="#221F1F"/>
</svg>
