<svg width="455" height="362" viewBox="0 0 455 362" fill="none" xmlns="http://www.w3.org/2000/svg">
<path d="M355.663 235.44C362.436 291.816 324.452 345.021 267.86 356.124C211.267 367.226 155.997 332.312 140.97 277.555L45.883 296.207L2.95998 81.543L403.57 2.95801L446.492 217.622" fill="white"/>
<path d="M332.942 311.262C348.357 290.074 356.02 263.319 352.713 235.785C352.551 234.422 353.745 232.788 355.094 232.523L442.993 215.279L401.235 6.44201L6.45898 83.883L48.217 292.721L140.401 274.638C141.751 274.373 143.474 275.45 143.838 276.775C151.176 303.513 168.373 325.386 190.641 339.175C212.746 352.863 239.857 358.588 267.291 353.207C294.715 347.827 317.646 332.285 332.942 311.262ZM358.907 237.828C361.586 265.918 353.506 293.089 337.75 314.745C321.6 336.945 297.385 353.355 268.43 359.036C239.485 364.714 210.87 358.667 187.531 344.215C164.754 330.111 147.004 308.008 138.869 280.991L46.453 299.12C45 299.405 43.259 298.235 42.969 296.786L0.0449816 82.123C-0.247018 80.662 0.927982 78.915 2.39098 78.628L403.001 0.0430117C404.454 -0.241988 406.195 0.927011 406.484 2.37701L449.407 217.04C449.699 218.501 448.524 220.249 447.06 220.535L358.907 237.828Z" fill="black"/>
<path d="M168.012 258.102L164.532 240.041L170.776 238.838L170.165 168.671L207.506 161.476L232.892 226.87L238.74 225.743L242.22 243.805L214.382 249.169L207.687 228.776L193.857 231.44L195.396 252.827M192.508 215.406L203.276 213.331L191.264 179.701L192.508 215.406Z" fill="#0069B4"/>
<path d="M78.91 185.872L82.366 203.81L75.708 205.093L85.31 254.924L91.968 253.641L95.448 271.702L58.917 278.741L55.437 260.68L62.094 259.399L52.493 209.567L45.835 210.849L42.379 192.91" fill="#0069B4"/>
<path d="M403.927 90.784C404.96 96.058 404.281 100.556 401.866 104.283C399.476 108.026 395.765 110.379 390.779 111.357L363.212 116.765C358.144 117.759 353.798 116.986 350.181 114.464C346.581 111.939 344.249 108.01 343.206 102.694L333.167 51.514C332.14 46.281 332.823 41.803 335.233 38.056C337.628 34.334 341.359 31.976 346.385 30.99L373.952 25.582C378.979 24.596 383.306 25.374 386.924 27.895C390.522 30.42 392.85 34.328 393.885 39.603M367.461 97.189L379.452 94.836L369.683 45.037L357.692 47.389L367.461 97.189ZM316.798 36.796L320.314 54.721L313.371 56.083L323.141 105.882L330.084 104.52L333.625 122.569L295.528 130.042L291.987 111.993L298.929 110.631L289.162 60.833L282.219 62.195L278.702 44.269L316.798 36.796ZM244.595 121.29L257.574 118.744L247.805 68.945L234.825 71.491L244.595 121.29ZM217.107 145.426L213.566 127.377L220.509 126.015L210.74 76.216L203.797 77.578L200.281 59.652L251.584 49.589C256.633 48.599 260.938 49.381 264.555 51.901C268.154 54.426 270.483 58.335 271.518 63.609L281.557 114.789C282.59 120.063 281.911 124.562 279.538 128.28C277.147 132.023 273.459 134.372 268.41 135.363L217.107 145.426ZM125.706 163.356L122.165 145.307L128.676 144.03L128.371 73.759L167.312 66.12L193.454 131.323L199.553 130.126L203.094 148.175L174.063 153.87L167.183 133.523L152.761 136.353L154.263 157.754L125.706 163.356ZM151.432 120.308L162.661 118.105L150.304 84.561L151.432 120.308ZM73.151 84.591C78.24 83.592 82.581 84.346 86.179 86.871C89.773 89.375 92.081 93.288 93.124 98.603L95.73 111.892C96.409 115.353 95.925 118.23 94.265 120.567C92.605 122.904 89.716 124.755 85.584 126.164C90.328 126.239 93.821 127.03 96.071 128.579C98.322 130.127 99.803 132.661 100.499 136.205L103.021 149.061L109.84 147.724L113.381 165.772L93.066 169.757C89.914 170.375 87.44 170.197 85.648 169.244C83.853 168.269 82.693 166.507 82.189 163.932L76.801 136.467L62.976 139.179L69.867 174.309L38.714 180.42L35.173 162.371L42.116 161.009L32.347 111.21L25.404 112.572L21.887 94.647L73.151 84.591ZM59.828 123.129L72.684 120.607L69.414 103.939L56.557 106.461L59.828 123.129Z" fill="#0069B4"/>
<path d="M153.032 241.873L156.512 259.934L120.396 266.893L116.916 248.832L123.278 247.608L113.676 197.776L105.872 199.279L108.605 213.463L91.752 216.71L85.563 184.589L158.27 170.579L164.459 202.699L147.606 205.947L144.873 191.764L137.069 193.268L146.671 243.099" fill="#0069B4"/>
<path d="M288.525 296.107C290.731 295.781 292.237 294.727 293.061 292.895C293.888 291.088 294.283 287.464 294.222 282.023L293.524 218.7C293.464 213.309 292.991 209.694 292.125 207.883C291.26 206.071 289.73 205.05 287.52 204.821L287.416 195.557C298.049 196.427 306.409 201.649 312.457 211.229C318.523 220.804 321.637 233.731 321.816 249.977C321.995 266.251 319.123 279.268 313.228 289.08C307.309 298.892 299.128 304.32 288.626 305.373M284.577 296.151L284.68 305.416C274.092 304.597 265.73 299.349 259.618 289.671C253.506 279.992 250.347 267.042 250.17 250.768C249.989 234.521 252.838 221.531 258.693 211.822C264.548 202.113 272.816 196.707 283.468 195.602L283.57 204.79C281.382 205.117 279.857 206.197 279.032 208.029C278.209 209.859 277.836 213.484 277.894 218.876L278.591 282.198C278.653 287.639 279.105 291.255 279.946 293.043C280.791 294.853 282.34 295.872 284.577 296.151ZM211.101 306.073C200.468 305.152 192.105 299.904 186.018 290.328C179.949 280.775 176.816 267.85 176.636 251.576C176.457 235.328 179.303 222.312 185.16 212.58C191.035 202.82 199.28 197.389 209.89 196.283L209.928 205.548C207.72 205.824 206.214 206.881 205.389 208.712C204.562 210.544 204.17 214.166 204.23 219.558L204.928 282.855C204.988 288.296 205.46 291.913 206.326 293.701C207.191 295.513 208.72 296.533 210.934 296.813L211.101 306.073ZM214.984 306.183L214.873 296.111L215.133 296.108C216.846 296.089 218.008 295.495 218.625 294.324C219.22 293.152 219.487 290.036 219.432 285L219.199 263.866C219.159 260.274 218.741 257.62 217.942 255.959C217.143 254.271 215.92 253.45 214.273 253.469C213.124 253.482 212.129 253.745 211.31 254.236C210.492 254.752 209.591 255.623 208.585 256.873L208.476 247.004C210.904 244.951 213.294 243.458 215.603 242.522C217.914 241.585 220.335 241.103 222.829 241.077C229.94 240.997 235.737 243.668 240.22 249.11C244.703 254.553 246.993 261.817 247.094 270.903C247.203 280.799 244.26 289.032 238.262 295.654C232.263 302.272 224.497 305.775 214.984 306.183ZM213.773 196.394L214.401 196.387C222.14 196.301 228.473 198.459 233.423 202.884C238.349 207.31 240.861 212.824 240.934 219.455C240.982 223.886 239.809 227.544 237.413 230.431C234.993 233.292 231.888 234.743 228.092 234.785C224.278 234.826 221.187 233.697 218.819 231.394C216.432 229.117 215.227 226.066 215.185 222.322C215.156 219.665 215.91 217.074 217.443 214.628C218.976 212.154 219.739 210.606 219.733 209.971C219.719 208.731 219.254 207.748 218.314 207.026C217.373 206.276 215.892 205.737 213.872 205.352L213.773 196.394Z" fill="#E30613"/>
<path d="M337.9 267.281C334.359 285.453 325.408 302.093 312.498 315.049C299.959 327.631 283.694 336.739 265.034 340.4C240.094 345.294 215.452 339.56 195.823 326.37C176.186 313.174 161.565 292.518 156.672 267.574C155.244 260.295 154.717 253.065 155.014 246.001C155.32 238.702 156.501 231.54 158.472 224.642L166.675 226.976C164.896 233.201 163.828 239.693 163.55 246.334C163.279 252.799 163.752 259.37 165.041 265.94C169.483 288.586 182.747 307.333 200.557 319.299C218.374 331.273 240.747 336.474 263.4 332.03C280.343 328.707 295.097 320.449 306.462 309.047C318.187 297.281 326.316 282.172 329.528 265.681M160.616 218.078C166.105 203.183 175.367 189.867 187.459 179.533C199.13 169.558 213.427 162.363 229.499 159.21C254.439 154.317 279.08 160.05 298.71 173.242C318.347 186.438 332.968 207.093 337.86 232.037C338.859 237.13 339.417 242.189 339.559 247.176C339.704 252.251 339.414 257.322 338.719 262.34L330.281 261.173C330.899 256.707 331.154 252.108 331.02 247.408C330.89 242.845 330.386 238.252 329.489 233.672C325.047 211.026 311.783 192.279 293.972 180.311C276.155 168.338 253.782 163.136 231.129 167.581C216.534 170.444 203.566 176.966 192.991 186.004C182.014 195.386 173.603 207.482 168.616 221.014L160.616 218.078Z" fill="#E30613"/>
<path d="M336.468 136.625L339.925 154.562L333.268 155.845L342.87 205.677L349.528 204.394L353.007 222.453L316.477 229.492L312.997 211.433L319.655 210.151L310.052 160.318L303.395 161.601L299.938 143.664" fill="#0069B4"/>
<path d="M358.736 221.35L355.257 203.289L361.499 202.086L360.888 131.919L398.23 124.724L423.617 190.118L429.467 188.991L432.946 207.053L405.108 212.417L398.413 192.024L384.583 194.688L386.122 216.075M383.233 178.654L394.001 176.579L381.988 142.949L383.233 178.654Z" fill="#0069B4"/>
<path d="M248.181 242.654L244.703 224.593L251.36 223.311L241.758 173.479L235.1 174.762L231.644 156.825L268.056 149.808L271.511 167.746L264.736 169.051L274.34 218.883L285.402 216.751L282.424 201.287L303.72 197.184L310.179 230.708" fill="#0069B4"/>
<path d="M274.593 233.25L270.985 233.958L270.711 232.56L260.686 234.528L260.959 235.925L257.324 236.638L255.819 228.968L259.454 228.255L259.727 229.652L269.753 227.684L269.48 226.287L273.089 225.58M272.541 222.783L268.932 223.49L268.663 222.117L255.002 224.797L254.109 220.251L261.853 213.851L253.187 215.55L252.019 209.593L255.653 208.88L255.927 210.277L265.952 208.31L265.679 206.912L269.287 206.205L270.456 212.162L262.724 218.559L271.378 216.863L272.541 222.783ZM268.74 203.408L265.133 204.115L264.862 202.742L251.201 205.423L250.309 200.876L258.052 194.476L249.386 196.176L248.218 190.219L251.852 189.506L252.126 190.904L262.152 188.937L261.878 187.539L265.486 186.831L266.655 192.787L258.925 199.185L267.577 197.488L268.74 203.408ZM244.608 171.816L248.242 171.103L248.5 172.414L262.648 172.352L264.186 180.192L251.056 185.457L251.298 186.686L247.663 187.4L246.517 181.553L250.613 180.168L250.044 177.264L245.735 177.566L244.608 171.816ZM253.275 176.995L253.718 179.256L260.472 176.768L253.275 176.995Z" fill="white"/>
<path d="M140.934 287.192L70.765 300.958L69.524 294.596L138.867 280.993C139.499 283.089 140.189 285.155 140.934 287.192Z" fill="black"/>
<path d="M367.533 242.74C374.022 296.75 337.635 347.719 283.42 358.354C275.745 359.859 268.098 360.479 260.58 360.291C263.191 359.967 265.809 359.551 268.43 359.036C297.385 353.355 321.6 336.944 337.75 314.745C353.506 293.089 361.586 265.918 358.907 237.828L447.06 220.535C448.524 220.249 449.699 218.501 449.407 217.04L408.52 12.56L412.79 11.723L454.548 225.672" fill="black"/>
</svg>
