<svg width="1438" height="474" viewBox="0 0 1438 474" fill="none" xmlns="http://www.w3.org/2000/svg">
<path d="M1437.9 0.700012H0.700012V473.2H1437.9V0.700012Z" fill="#CF1F1F"/>
<path fill-rule="evenodd" clip-rule="evenodd" d="M374.7 311.6C374.7 361.4 348.8 389.9 298.7 389.9C248.7 389.9 222.7 361.4 222.7 311.6V149.7C222.7 99.9 248.6 71.4 298.7 71.4C348.7 71.4 374.7 99.9 374.7 149.7V179.9H326.5V146.5C326.5 124.3 316.3 115.8 300.1 115.8C283.9 115.8 273.7 124.2 273.7 146.5V314.6C273.7 336.8 283.9 344.8 300.1 344.8C316.3 344.8 326.5 336.8 326.5 314.6V270.1H374.7V311.6Z" fill="white"/>
<path fill-rule="evenodd" clip-rule="evenodd" d="M477.3 129.9L437.2 386.1H390L442.3 74.7H517.4L569.7 386.1H517.9L477.3 129.9Z" fill="white"/>
<path fill-rule="evenodd" clip-rule="evenodd" d="M1124.2 74.7H1049.1L996.8 386.1H1043.9L1084.1 129.9L1124.7 386.1H1176.5L1124.2 74.7Z" fill="white"/>
<path fill-rule="evenodd" clip-rule="evenodd" d="M645.1 224.6H669C685.1 224.6 693.8 217.5 693.8 195.2V148.5C693.8 126.3 685.1 119.1 669 119.1H645.1V224.6ZM744.3 151.7V192.2C744.3 242 719.5 269.2 669 269.2H645.1V386.2H594.6V74.7H669C719.5 74.7 744.3 101.8 744.3 151.7Z" fill="white"/>
<path fill-rule="evenodd" clip-rule="evenodd" d="M774.7 386.1H825V74.7H774.7V386.1Z" fill="white"/>
<path fill-rule="evenodd" clip-rule="evenodd" d="M853.7 74.7H1009.4V119.2H956.7V386.1H906.4V119.2H853.7V74.7Z" fill="white"/>
<path fill-rule="evenodd" clip-rule="evenodd" d="M1203.3 74.7H1253.1V341.6H1335.1V386.1H1203.3V74.7Z" fill="white"/>
<path fill-rule="evenodd" clip-rule="evenodd" d="M111.8 361.8H137.1V355.9C137.1 350.3 135 346.8 128.4 346.8H120.3C114.4 346.8 111.8 349.1 111.8 354.5V361.8ZM182.3 345.4C180.2 346.2 178.9 346.8 172.2 346.8H159.3C151.7 346.8 148.8 349.8 148.8 356.7V361.9H182.3V377H100.1V354.2C100.1 338.5 106.3 331.8 119 331.8H125.5C134 331.8 139.5 335 142.2 341.7C144.9 334.1 151.1 331.7 159.7 331.7H172.4C176.4 331.7 179.3 331.6 182.4 330.1V345.4H182.3Z" fill="white"/>
<path fill-rule="evenodd" clip-rule="evenodd" d="M114.6 286L182.3 297.8V311.7L100.1 296.3V274.2L182.3 258.8V274L114.6 286Z" fill="white"/>
<path fill-rule="evenodd" clip-rule="evenodd" d="M170.5 222.8V214.2C170.5 209.3 168.4 206.4 162.5 206.4H119.7C113.8 206.4 111.7 209.3 111.7 214.2V222.8H170.5ZM100.1 238.1V213.9C100.1 198.6 107.3 191.1 120.4 191.1H162C175.2 191.1 182.3 198.6 182.3 213.9V238.1H100.1Z" fill="white"/>
<path fill-rule="evenodd" clip-rule="evenodd" d="M99.8 168.3H182V153.3H99.8V168.3Z" fill="white"/>
<path fill-rule="evenodd" clip-rule="evenodd" d="M162.9 114.6C168.6 114.6 170.8 111.5 170.8 106.6C170.8 101.7 168.6 98.6 162.9 98.6H119.5C113.8 98.6 111.6 101.7 111.6 106.6C111.6 111.5 113.8 114.6 119.5 114.6H162.9ZM120.3 130.1C107.4 130.1 100.1 121.8 100.1 106.6C100.1 91.4 107.5 83.1 120.3 83.1H162.1C175 83.1 182.3 91.4 182.3 106.6C182.3 121.8 174.9 130.1 162.1 130.1H120.3Z" fill="white"/>
</svg>
