<svg width="315" height="139" viewBox="0 0 315 139" fill="none" xmlns="http://www.w3.org/2000/svg">
<path d="M0 0V138.255H285.514L314.929 0H0Z" fill="#E31818"/>
<path d="M260.662 101.626C260.662 101.626 253.262 107.792 224.649 107.792C213.272 107.681 201.91 106.961 190.61 105.634V30.4014H202.141V55.6845C208.455 54.7903 214.82 54.3165 221.196 54.2661C247.651 54.2661 260.601 61.6661 260.601 61.6661C260.601 61.6661 263.376 65.2427 263.376 81.2142C263.376 97.1857 260.662 101.626 260.662 101.626Z" fill="white"/>
<path d="M202.141 67.771V94.6574C210.96 95.4591 218.483 95.8907 224.834 95.8907C233.689 96.2364 242.549 95.365 251.166 93.3007C251.604 89.5549 251.83 85.7873 251.844 82.0159C251.844 77.6376 251.289 73.2593 251.043 70.6693C235.179 65.9696 218.449 64.9779 202.141 67.771Z" fill="#E31818"/>
<path d="M92.9307 66.4143C76.0789 66.0977 59.283 68.4496 43.1662 73.3826V107.052H31.1414V65.551C31.1414 65.551 48.7162 54.7595 92.8074 54.5128L92.9307 66.4143Z" fill="white"/>
<path d="M175.748 101.626C175.748 101.626 168.348 107.792 139.735 107.792C128.358 107.681 116.995 106.961 105.696 105.634V30.4014H117.166V55.6845C123.499 54.7901 129.885 54.3163 136.282 54.2661C162.737 54.2661 175.687 61.6661 175.687 61.6661C175.687 61.6661 178.462 65.2427 178.462 81.2142C178.462 97.1857 175.748 101.626 175.748 101.626Z" fill="white"/>
<path d="M117.166 67.771V94.6574C125.984 95.4591 133.569 95.8907 139.92 95.8907C148.857 96.2592 157.801 95.3876 166.498 93.3007C166.936 89.5549 167.163 85.7872 167.177 82.0159C167.177 77.6376 166.622 73.2593 166.375 70.6693C150.414 65.9284 133.573 64.9365 117.166 67.771Z" fill="#E31818"/>
</svg>
