<svg width="862" height="504" viewBox="0 0 862 504" fill="none" xmlns="http://www.w3.org/2000/svg">
<path d="M14.8316 6.50089H69.2225C105.483 6.50089 130.001 7.90021 142.778 10.6988C155.676 13.4975 166.14 20.6766 174.171 32.2361C182.324 43.674 186.4 61.9868 186.4 87.1745C186.4 110.172 183.541 125.625 177.822 133.534C172.103 141.444 160.847 146.189 144.055 147.771C159.265 151.543 169.487 156.593 174.719 162.92C179.951 169.247 183.175 175.088 184.392 180.442C185.731 185.674 186.4 200.215 186.4 224.064V302H115.035V203.805C115.035 187.986 113.757 178.191 111.202 174.419C108.768 170.647 102.258 168.761 91.6724 168.761V302H14.8316V6.50089ZM91.6724 57.0588V122.766C100.312 122.766 106.335 121.61 109.742 119.298C113.271 116.864 115.035 109.138 115.035 96.118V79.8737C115.035 70.5044 113.331 64.3596 109.924 61.4393C106.639 58.519 100.555 57.0588 91.6724 57.0588Z" fill="white"/>
<path d="M395.75 135.36H318.909V83.8892C318.909 68.9226 318.057 59.6141 316.354 55.9637C314.772 52.1916 311.183 50.3056 305.585 50.3056C299.258 50.3056 295.242 52.5567 293.539 57.0588C291.835 61.5609 290.984 71.2953 290.984 86.2619V223.517C290.984 237.875 291.835 247.244 293.539 251.625C295.242 256.005 299.075 258.195 305.038 258.195C310.757 258.195 314.468 256.005 316.171 251.625C317.997 247.244 318.909 236.962 318.909 220.779V183.727H395.75V195.226C395.75 225.768 393.56 247.427 389.179 260.203C384.92 272.979 375.369 284.174 360.524 293.787C345.8 303.399 327.609 308.206 305.95 308.206C283.44 308.206 264.883 304.129 250.282 295.977C235.68 287.824 226.007 276.569 221.261 262.211C216.516 247.731 214.143 226.011 214.143 197.051V110.72C214.143 89.4256 214.873 73.4856 216.333 62.8994C217.793 52.1916 222.113 41.9097 229.292 32.0536C236.593 22.1976 246.631 14.4709 259.408 8.87364C272.306 3.1547 287.09 0.295227 303.76 0.295227C326.392 0.295227 345.07 4.6757 359.794 13.4366C374.517 22.1976 384.19 33.1487 388.814 46.2901C393.438 59.3099 395.75 79.6304 395.75 107.252V135.36Z" fill="white"/>
<path d="M627.915 134.447C638.744 138.828 647.079 145.398 652.92 154.159C658.761 162.798 661.681 183.484 661.681 216.216C661.681 240.065 659.369 257.648 654.745 268.964C650.121 280.28 641.117 289.589 627.732 296.889C614.347 304.069 596.4 307.658 573.889 307.658C551.987 307.658 534.647 304.19 521.871 297.254C509.095 290.319 499.908 281.132 494.31 269.694C488.835 258.256 486.097 239.213 486.097 212.565C486.097 194.679 487.436 179.164 490.112 166.023C492.911 152.882 501.55 142.356 516.03 134.447C506.904 130.067 500.029 123.131 495.406 113.64C490.903 104.027 488.652 91.8592 488.652 77.1359C488.652 51.7049 495.71 32.662 509.825 20.0073C523.939 7.23097 545.051 0.842786 573.159 0.842786C605.647 0.842786 628.097 7.59601 640.509 21.1025C652.92 34.6089 659.126 53.8951 659.126 78.9611C659.126 94.9012 657.057 106.4 652.92 113.457C648.904 120.515 640.569 127.511 627.915 134.447ZM586.483 70.9303C586.483 60.9525 585.57 54.3818 583.745 51.2182C582.041 47.9328 578.695 46.2901 573.706 46.2901C568.839 46.2901 565.554 48.0545 563.85 51.5832C562.147 54.9902 561.295 61.4393 561.295 70.9303V93.3802C561.295 102.263 562.269 108.408 564.215 111.815C566.162 115.222 569.448 116.925 574.071 116.925C578.939 116.925 582.224 115.283 583.928 111.997C585.631 108.59 586.483 101.654 586.483 91.1899V70.9303ZM587.943 193.766C587.943 182.45 586.787 174.966 584.475 171.316C582.163 167.544 578.513 165.658 573.524 165.658C568.657 165.658 565.128 167.483 562.938 171.133C560.869 174.662 559.835 182.206 559.835 193.766V232.095C559.835 244.871 560.991 253.085 563.303 256.735C565.736 260.386 569.508 262.211 574.619 262.211C579.851 262.211 583.38 260.386 585.205 256.735C587.03 252.963 587.943 244.567 587.943 231.547V193.766Z" fill="white"/>
<path d="M827.956 134.447C838.786 138.828 847.121 145.398 852.961 154.159C858.802 162.798 861.722 183.484 861.722 216.216C861.722 240.065 859.41 257.648 854.786 268.964C850.163 280.28 841.158 289.589 827.774 296.889C814.389 304.069 796.441 307.658 773.93 307.658C752.028 307.658 734.689 304.19 721.912 297.254C709.136 290.319 699.949 281.132 694.352 269.694C688.876 258.256 686.138 239.213 686.138 212.565C686.138 194.679 687.477 179.164 690.154 166.023C692.953 152.882 701.592 142.356 716.072 134.447C706.946 130.067 700.071 123.131 695.447 113.64C690.945 104.027 688.694 91.8592 688.694 77.1359C688.694 51.7049 695.751 32.662 709.866 20.0073C723.981 7.23097 745.092 0.842786 773.2 0.842786C805.689 0.842786 828.139 7.59601 840.55 21.1025C852.961 34.6089 859.167 53.8951 859.167 78.9611C859.167 94.9012 857.098 106.4 852.961 113.457C848.946 120.515 840.611 127.511 827.956 134.447ZM786.524 70.9303C786.524 60.9525 785.612 54.3818 783.786 51.2182C782.083 47.9328 778.737 46.2901 773.748 46.2901C768.881 46.2901 765.595 48.0545 763.892 51.5832C762.188 54.9902 761.336 61.4393 761.336 70.9303V93.3802C761.336 102.263 762.31 108.408 764.257 111.815C766.204 115.222 769.489 116.925 774.113 116.925C778.98 116.925 782.265 115.283 783.969 111.997C785.672 108.59 786.524 101.654 786.524 91.1899V70.9303ZM787.984 193.766C787.984 182.45 786.828 174.966 784.516 171.316C782.205 167.544 778.554 165.658 773.565 165.658C768.698 165.658 765.169 167.483 762.979 171.133C760.911 174.662 759.876 182.206 759.876 193.766V232.095C759.876 244.871 761.032 253.085 763.344 256.735C765.778 260.386 769.55 262.211 774.66 262.211C779.893 262.211 783.421 260.386 785.247 256.735C787.072 252.963 787.984 244.567 787.984 231.547V193.766Z" fill="white"/>
<path d="M92 356H734V358H854L762 504H251V502H0L92 356Z" fill="#FE0000"/>
</svg>
