<svg width="1809" height="1062" viewBox="0 0 1809 1062" fill="none" xmlns="http://www.w3.org/2000/svg">
<path d="M131.2 3.50002C129.5 4.90002 127.9 6.90002 127.6 7.80002C127.3 8.70002 98.2 244.6 63 532C6.1 995.1 -1 1054.8 0.2 1057C0.9 1058.4 2.7 1060 4 1060.7C6 1061.7 40.9 1062 168.5 1062C327.2 1062 330.6 1062 333.7 1060C335.4 1059 337.4 1057.1 338.1 1055.9C338.7 1054.6 348 982.8 358.6 896.3C371 795.3 378.4 738.1 379.4 736.2C382.2 730.8 391.1 728.7 395 732.6C396.2 733.7 419.9 798.9 454.4 895.9C492 1001.5 512.6 1058 513.9 1059.4L516.1 1061.5L710.3 1061.8C849.2 1062 905.6 1061.8 908.3 1061C912.5 1059.8 916 1055.2 916 1050.9C916 1049.3 873.5 970.1 809.3 851.9C729.7 705.5 702.6 654.7 702.6 652.3C702.6 646.9 705.8 643.8 714.6 640.6C772.4 619.7 808.4 599.8 841.1 570.7C859.4 554.4 879.4 528.5 891.9 505C914.4 462.5 929 404.4 934.1 338C935.6 317.8 934.8 273.8 932.5 257C927.7 220.4 918.8 190.1 904.9 162.1C873.4 98.8 818.5 53.7 740.4 27C706.6 15.4 672.9 8.50002 626 3.30002C611.9 1.80002 588.6 1.60002 372.4 1.30002L134.2 0.900024L131.2 3.50002ZM516.5 266.4C558.1 273.1 580.3 290.5 588.1 322.5C590 330 590.3 334.2 590.3 347.5C590.2 386.3 579.1 415.7 556.9 436.3C540.4 451.7 519.4 460.8 489.8 465.5C482.6 466.7 470 467.3 448.3 467.7L417.1 468.3L414.1 465.2C412.4 463.5 411 461.1 411 459.8C411 457.5 432.5 280.3 433.6 274.1C433.9 272 435.6 269.2 437.6 267.2L441 263.8L473.8 264.3C497 264.6 509.4 265.3 516.5 266.4ZM959.8 390.1C954.7 392.7 953.4 395.7 950 412.6C947.3 425.8 945.9 432 944.4 437.3C943.9 438.9 963.7 439 1360.7 438.8L1777.5 438.5L1782.5 436C1790.4 432.1 1795.8 425.8 1802.3 413C1809 399.6 1809.7 394.9 1805.4 390.9L1802.8 388.5L1383.2 388.3C967.2 388.1 963.5 388.1 959.8 390.1Z" fill="white"/>
<path d="M940.4 470.5C934.2 473.6 932.2 476.3 927.5 487.6C922 501 910.9 521.9 902.7 534.4C892 550.7 881 563.8 865.4 579C843.5 600.4 819.8 617 788.3 633.2L773.1 641H919.6L924 643.2C929.4 646 932 649.4 932.6 654.6C932.9 656.7 925 724.6 915 805.5C905 886.3 897.1 953.9 897.4 955.7C897.6 957.5 909.8 980.9 924.4 1007.7C947.3 1049.9 951.4 1056.8 954.6 1059L958.3 1061.5L1007.2 1061.8C1041.4 1062 1057.3 1061.7 1060.2 1060.9C1065.7 1059.5 1072.4 1052.9 1073.9 1047.5C1074.5 1045.3 1085.6 956.9 1098.5 851C1112.6 735.5 1122.7 656.8 1123.6 654.3C1125.7 648.5 1131.9 643.4 1138.4 642C1141.8 641.2 1156.8 641 1184 641.2C1222.4 641.5 1224.7 641.6 1227.9 643.5C1229.8 644.6 1232.1 646.7 1233.2 648.1C1234.5 649.8 1250.5 714.6 1283.5 851.5C1316.3 987.8 1332.4 1053.1 1333.7 1054.8C1334.8 1056.2 1336.9 1058.3 1338.4 1059.4C1341.1 1061.5 1342 1061.5 1415.3 1061.5H1489.5L1493.7 1059.3C1496 1058 1499 1055.6 1500.3 1053.8C1501.6 1052 1564.3 923.9 1639.5 769.1C1746.4 549.2 1776.4 486.6 1776.8 483C1777.4 476.5 1775.1 472.4 1769.5 469.9C1765.3 468 1762.2 468 1681.2 468.2L1597.2 468.5L1592.9 471.5C1590.5 473.2 1587.8 475.9 1586.9 477.5C1585.9 479.2 1557.9 553.5 1524.6 642.7C1491.4 731.9 1462.7 808 1460.8 811.7C1456.2 821.1 1450.4 827 1445.8 827C1443.4 827 1441.6 826.2 1440.1 824.6C1434.2 818.4 1434.2 817.8 1410.9 644.1C1394.7 523.5 1388.4 478.6 1387.1 476C1386.1 474.1 1383.6 471.5 1381.4 470.3L1377.5 468H945.4L940.4 470.5Z" fill="white"/>
</svg>
