<svg width="712" height="240" viewBox="0 0 712 240" fill="none" xmlns="http://www.w3.org/2000/svg">
<path d="M597.5 82C619 82 621 89.5 621 95C621 98.5 619 107 597.5 107C576 107 574 99.5 574 95C574 89.5 576 82 597.5 82Z" fill="white"/>
<path fill-rule="evenodd" clip-rule="evenodd" d="M50 0C22.3858 0 0 22.3858 0 50V190C0 217.614 22.3858 240 50 240H662C689.614 240 712 217.614 712 190V50C712 22.3858 689.614 0 662 0H50ZM87 59H53V183H87V141H101.5L132 182H170V180L137.723 139.546C154.607 134.86 167 119.377 167 101C167 77.804 148.196 59 125 59H87ZM134 101C134 93.5 127 87 121 87H87V114.333H121C127 114.333 134 108.143 134 101ZM179 59H212H281V87H212V107H277V135H212V154H281V182H212H179V154V135V107V87V59ZM292 59H414V87H370V183H336V87H292V59ZM459 59H426V87V107V135V154V182H459H528V154H459V135H524V107H459V87H528V59H459ZM589 56C565.5 56 540 71 540 94C540 104 550 117 558 117H561.5C548 117 537 133.5 537 146C537 168 558 185 597.5 185C637 185 658 168 658 146C658 133.5 647.5 117 634 117H637C645 117 655 104 655 94C655 71 629.5 56 606 56L600 56H595L589 56Z" fill="white"/>
<path d="M597.5 130C618 130 625 139 625 144.04C625 146.5 621 157 597.5 157C574 157 570 146.5 570 143C570 139.5 577 130 597.5 130Z" fill="white"/>
</svg>
