<svg width="165" height="88" viewBox="0 0 165 88" fill="none" xmlns="http://www.w3.org/2000/svg">
<path d="M0.898438 0H164.898L154.898 20H10.8984L0.898438 0Z" fill="#1E7BD3"/>
<path d="M12.8984 24L38.8984 24C38.8984 24 38.8984 70 82.8984 70C126.898 70 126.898 24 126.898 24H152.898C152.898 58.9386 124.84 87.4008 89.9049 87.8999L82.8984 88L75.892 87.8999C40.957 87.4008 12.8984 58.9386 12.8984 24Z" fill="#1E7BD3"/>
<path fill-rule="evenodd" clip-rule="evenodd" d="M83.3984 66.5C66.0015 66.5 51.8984 52.397 51.8984 35C51.8984 17.603 66.0015 3.5 83.3984 3.5C100.795 3.5 114.898 17.603 114.898 35C114.898 52.397 100.795 66.5 83.3984 66.5ZM68.8984 35C68.8984 27.268 75.1665 21 82.8984 21C90.6304 21 96.8984 27.268 96.8984 35C96.8984 42.732 90.6304 49 82.8984 49C75.1665 49 68.8984 42.732 68.8984 35Z" fill="#1E7BD3"/>
</svg>
