<svg width="1841" height="1778" viewBox="0 0 1841 1778" fill="none" xmlns="http://www.w3.org/2000/svg">
<path d="M1840.97 889C1840.97 1379.98 1429.08 1778 920.974 1778C412.872 1778 0.973633 1379.98 0.973633 889C0.973633 398.019 412.872 0 920.974 0C1429.08 0 1840.97 398.019 1840.97 889Z" fill="white"/>
<path d="M1796.97 889C1796.97 1356.23 1404.78 1735 920.974 1735C437.172 1735 44.9736 1356.23 44.9736 889C44.9736 421.767 437.172 43 920.974 43C1404.78 43 1796.97 421.767 1796.97 889Z" fill="#0076CD"/>
<path d="M457.974 264H1336.97V480H457.974V264Z" fill="white"/>
<path d="M1336.97 480H1067.97L610.974 1617H919.974L1336.97 530V480Z" fill="white"/>
</svg>
