<svg width="133" height="81" viewBox="0 0 133 81" fill="none" xmlns="http://www.w3.org/2000/svg">
<path d="M0 0H133V81H0V0Z" fill="white"/>
<path d="M3 4H130V44H3V4Z" fill="#004076"/>
<path d="M6.94336 40V8H21.9636C24.983 8 27.2784 8.29104 28.8498 8.87312C30.4211 9.44065 31.6767 10.452 32.6164 11.9072C33.5561 13.3624 34.026 14.9704 34.026 16.7312C34.026 19.0014 33.248 20.915 31.6921 22.472C30.1361 24.0291 27.7329 25.0186 24.4824 25.4407C25.6686 25.9791 26.5698 26.5102 27.186 27.0341C28.4954 28.1692 29.7356 29.588 30.9064 31.2906L36.7989 40H31.1606L26.6776 33.3424C25.3682 31.4216 24.2898 29.9518 23.4425 28.9332C22.5952 27.9145 21.8326 27.2015 21.1548 26.794C20.4924 26.3865 19.8145 26.1028 19.1213 25.9427C18.6129 25.8408 17.781 25.7899 16.6256 25.7899H11.4263V40H6.94336ZM11.4263 22.1228H21.0624C23.1113 22.1228 24.7134 21.9263 25.8688 21.5334C27.0242 21.126 27.9023 20.4857 28.5032 19.6126C29.104 18.7249 29.4044 17.7644 29.4044 16.7312C29.4044 15.2178 28.819 13.9736 27.6482 12.9986C26.4928 12.0236 24.6595 11.5362 22.1484 11.5362H11.4263V22.1228Z" fill="white"/>
<path d="M41.1664 40V8H65.6609V11.7763H45.6493V21.5771H64.3899V25.3315H45.6493V36.2237H66.4465V40H41.1664Z" fill="white"/>
<path d="M81.2588 40V11.7763H70.0976V8H96.9491V11.7763H85.7417V40H81.2588Z" fill="white"/>
<path d="M101.663 40V8H126.158V11.7763H106.146V21.5771H124.887V25.3315H106.146V36.2237H126.943V40H101.663Z" fill="white"/>
<path d="M7 72V48H10.9298V72H7Z" fill="#004076"/>
<path d="M25.4335 72V50.8322H15.6496V48H39.1877V50.8322H29.3633V72H25.4335Z" fill="#004076"/>
<path d="M36.8987 72L48.3032 48H52.5368L64.6908 72H60.214L56.7502 64.7312H44.3329L41.0716 72H36.8987ZM45.4673 62.1446H55.5348L52.4355 55.498C51.4902 53.4789 50.788 51.8199 50.3288 50.5211C49.9507 52.06 49.4173 53.588 48.7286 55.105L45.4673 62.1446Z" fill="#004076"/>
<path d="M67.6685 72V48H71.5982V69.1678H86.2235V72H67.6685Z" fill="#004076"/>
<path d="M91.5915 72V48H95.5213V72H91.5915Z" fill="#004076"/>
<path d="M99.208 72L110.612 48H114.846L127 72H122.523L119.059 64.7312H106.642L103.381 72H99.208ZM107.777 62.1446H117.844L114.745 55.498C113.799 53.4789 113.097 51.8199 112.638 50.5211C112.26 52.06 111.727 53.588 111.038 55.105L107.777 62.1446Z" fill="#004076"/>
</svg>
