<svg width="86" height="143" viewBox="0 0 86 143" fill="none" xmlns="http://www.w3.org/2000/svg">
<path d="M85.5 57.5H0.5V142.5H85.5V57.5Z" fill="#BB66FF"/>
<path d="M85.5 0.5H0.5V57.5H85.5V0.5Z" fill="black"/>
<path d="M20.3 28.6L19.9 30.4C19.8 30.9 19.7 31.2 19.7 31.3C19.7 31.7 19.8 32.1 20.1 32.6L25.1 41.6C25.5 42.3 25.9 42.6 26.9 42.6H31.5C32.1 42.6 32.8 42.2 32.1 41.2L26 30.9C28.1 29.6 30.4 27.8 30.4 23.7C30.4 18.5 27.5 15.5 21 15.5H11.6C10.8 15.5 10.5 15.8 10.5 16.6V41.3C10.5 42.1 10.7 42.4 11.6 42.4H15.5C16.3 42.4 16.6 42.1 16.6 41.3V20.5H20.6C23.1 20.5 24.3 21.4 24.3 23.8C24.3 25.9 23.3 26.6 22.4 27C21.1 27.5 20.7 27 20.3 28.6ZM40.7 41.4C40.7 42.2 40.9 42.5 41.8 42.5H45.7C46.5 42.5 46.8 42.2 46.8 41.4V20.6H53.9C54.7 20.6 55 20.3 55 19.5V16.6C55 15.8 54.8 15.5 53.9 15.5H33.6C32.8 15.5 32.5 15.8 32.5 16.6V19.5C32.5 20.3 32.7 20.6 33.6 20.6H40.7V41.4ZM57.4 38.2L56.9 41.4C56.8 42 57.1 42.3 57.7 42.4C58.9 42.6 62 42.8 65 42.8C71.7 42.8 76.5 40.6 76.5 34.4C76.5 30.7 74.9 28 69.4 26.6L66.3 25.8C64.2 25.2 63.2 24.6 63.2 23C63.2 20.8 65.2 20.4 67.2 20.4C69.8 20.4 72.4 20.6 73.5 20.7C74.6 20.8 74.9 20.7 75.1 19.7L75.6 16.5C75.7 15.9 75.4 15.6 74.8 15.5C73.6 15.3 70.9 15.1 67.5 15.1C60.6 15.1 57.2 18.1 57.2 22.9C57.2 27.2 59.5 29.8 63.6 30.8L66.7 31.6C69.3 32.3 70.4 33 70.4 34.6C70.4 36.9 68.8 37.4 64.9 37.4C63.1 37.4 60.1 37.2 59 37.1C57.9 37.1 57.6 37.3 57.4 38.2Z" fill="#F2F2F2"/>
<path d="M19.4 117.8C19.7 116.7 20.1 115.7 20.7 114.6C21.3 113.6 22 112.5 22.8 111.5C23.6 110.4 24.6 109.4 25.7 108.4C26.8 107.4 28 106.3 29.4 105.3C30.8 104.3 32.3 103.2 33.9 102.2C35.5 101.2 37.2 100.1 39.1 99.1L43 97C44 96.4 44.9 95.9 45.7 95.4C46.5 94.9 47.2 94.3 47.9 93.8C48.6 93.3 49.1 92.8 49.5 92.2C49.9 91.7 50.3 91.2 50.6 90.6C50.9 90 51.1 89.5 51.2 88.9C51.3 88.3 51.4 87.7 51.4 87C51.4 85.9 51.2 85 50.8 84.3C50.4 83.5 49.9 82.9 49.2 82.4C48.5 81.9 47.6 81.5 46.6 81.2C45.6 81 44.4 80.8 43.2 80.8C41.9 80.8 40.7 81 39.5 81.3C38.3 81.6 37.3 82.2 36.4 83C35.5 83.8 34.8 84.9 34.3 86.3C33.8 87.7 33.5 89.5 33.5 91.6H19.5C19.5 87.8 20.2 84.5 21.4 81.8C22.6 79.1 24.4 76.8 26.5 75C28.7 73.2 31.3 71.9 34.2 71.1C37.1 70.3 40.3 69.9 43.7 69.9C47.1 69.9 50 70.2 52.7 71C55.4 71.7 57.8 72.7 59.8 74.1C61.8 75.5 63.3 77.2 64.4 79.2C65.5 81.2 66.1 83.6 66.1 86.4V86.5C66.1 87.9 66 89.2 65.7 90.4C65.4 91.6 65 92.8 64.5 93.8C64 94.9 63.3 95.9 62.5 96.8C61.7 97.8 60.8 98.7 59.7 99.6C58.6 100.5 57.4 101.4 56.1 102.4C54.7 103.3 53.3 104.3 51.6 105.2L48.1 107.3C46.9 108 45.9 108.7 45 109.2C44.1 109.8 43.2 110.3 42.5 110.8C41.8 111.3 41.1 111.7 40.5 112.1C39.9 112.5 39.4 112.9 38.9 113.3C38.4 113.7 38 114.1 37.6 114.6C37.2 115.1 36.8 115.6 36.5 116.1H66.4V128.1H19.4V117.8Z" fill="black"/>
</svg>
