<svg width="276" height="245" viewBox="0 0 276 245" fill="none" xmlns="http://www.w3.org/2000/svg">
<path d="M19.9134 11.4185C19.0644 10.2223 17.7122 9.48261 15.676 9.48261C13.6399 9.48261 12.5392 10.2145 11.6116 11.3241C10.5109 12.7012 9.99994 14.9125 9.99994 17.7691C9.99994 23.1045 10.7625 24.765 14.9999 26.6064L22.1147 29.7384C29.3159 32.8705 31.2655 37.0963 31.2655 48.1449C31.2655 54.8654 30.4165 59.3746 27.3662 62.5932C24.9134 65.1664 20.9276 66.9213 15.5895 66.9213C10.2515 66.9213 6.43864 65.3553 3.89935 62.5932C1.02201 59.4611 0 55.4163 0 48.5148H9.48894C9.48894 52.0088 9.82699 54.2201 11.187 55.8727C12.0361 56.8878 13.4748 57.6197 15.5895 57.6197C17.7043 57.6197 19.2295 56.9744 20.165 55.7783C21.4386 54.2122 21.7766 52.0088 21.7766 48.5069C21.7766 41.511 20.7625 39.8585 16.1005 37.7416L8.89932 34.523C2.79873 31.7609 0.511003 28.1724 0.511003 18.0524C0.511003 12.1661 2.12263 7.37362 5.4245 4.15504C8.05027 1.66831 11.4386 0.196735 15.7625 0.196735C20.5895 0.196735 24.1508 1.57388 26.6036 4.15504C29.7404 7.46805 30.841 12.1582 30.841 18.4144H21.3521C21.3521 15.4712 21.1791 13.1655 19.9134 11.4185Z" fill="white"/>
<path d="M54.6381 0.74759H45.4007L30.5737 66.2682H40.5737L42.9479 53.2915H56.9258L59.3786 66.2682H69.2921L54.6381 0.74759ZM44.8111 43.9978L49.9761 16.5729L55.1412 43.9978H44.8032H44.8111Z" fill="white"/>
<path d="M94.8108 37.1829C100.314 33.9643 101.839 28.1646 101.839 20.067C101.839 6.53946 97.4366 0.739725 86.4225 0.739725H71.171V66.2603H80.6599V39.3942H85.9979L93.8753 66.2603H103.789L94.8108 37.1829ZM86.5089 30.1004H80.6678V10.0413H86.5089C91.5954 10.0413 92.358 14.6449 92.358 20.0748C92.358 25.5047 91.5954 30.1083 86.5089 30.1083V30.1004Z" fill="white"/>
<path d="M133.097 6.17747C130.644 3.13989 127.169 0.74759 121.407 0.74759H106.069V66.2682H121.407C127.169 66.2682 130.644 63.8759 133.097 60.8383C137.586 55.4084 137.499 46.1146 137.499 33.5079C137.499 20.9011 137.586 11.6074 133.097 6.17747ZM125.982 54.2988C125.046 55.8648 123.443 56.9665 121.155 56.9665H115.565V10.0335H121.155C123.443 10.0335 125.054 11.1352 125.982 12.7012C127.759 15.7388 128.018 21.995 128.018 33.4056C128.018 44.8162 127.767 51.2612 125.982 54.2988Z" fill="white"/>
<path d="M165.801 56.9665V66.2603H140.471V0.74759H165.801V10.0413H149.96V28.6288H163.6V37.9226H149.96V56.9665H165.801Z" fill="white"/>
<path d="M182.916 39.1188V30.6513H198.332V48.7824C198.332 60.6494 191.894 67 182.916 67C177.153 67 173.765 64.6077 171.225 61.4757C166.736 55.9514 166.823 46.3822 166.823 33.5C166.823 20.6178 166.736 11.0486 171.225 5.52431C173.765 2.40016 177.153 0 182.916 0C187.578 0 191.131 1.65257 193.678 4.41473C196.642 7.72774 198.167 12.5123 198.34 18.1232H188.851C188.765 14.4403 188.002 9.28588 182.923 9.28588C180.636 9.28588 179.284 10.301 178.435 11.7726C176.658 14.9046 176.32 21.5228 176.32 33.4921C176.32 45.4615 176.658 52.0796 178.435 55.2117C179.284 56.6832 180.636 57.6984 182.923 57.6984C186.988 57.6984 188.851 53.8345 188.851 49.3254V39.1109H182.923L182.916 39.1188Z" fill="white"/>
<path d="M225.101 66.2603L210.871 27.3383V66.2603H201.383V0.74759H209.849L224 39.6696V0.74759H233.489V66.2603H225.101Z" fill="white"/>
<path d="M259.346 0.74759H250.109L235.282 66.2682H245.282L247.656 53.2915H261.634L264.087 66.2682H274L259.346 0.74759ZM249.519 43.9978L254.684 16.5729L259.849 43.9978H249.511H249.519Z" fill="white"/>
<path d="M0 245V77H25.9344V221.161H69.2572V245H0ZM74.1236 245V77H100.058V245H74.1236ZM166.724 245H139.86L103.718 77H132.204L153.292 204.406L174.597 77H203.083L166.724 245ZM276 221.161V245H206.743V77H276V100.839H232.677V148.498H269.966V172.337H232.677V221.18H276V221.161Z" fill="#E4032F"/>
</svg>
