<svg width="396" height="283" viewBox="0 0 396 283" fill="none" xmlns="http://www.w3.org/2000/svg">
<path fill-rule="evenodd" clip-rule="evenodd" d="M19.1 2.9C17.8 4.2 14 8.2 11.8 12.3C11.4 13 10.4 15.1 10.3 15.3C10.2 15.4 9.90001 16.2 9.50001 16.9C9.10001 17.6 8.90001 18.3 8.90001 18.4C8.90001 18.5 8.80001 18.6 8.70001 18.6C8.60001 18.6 8.60001 18.6 8.60001 18.7C8.70001 18.8 8.40001 19.5 8.00001 20.5C7.60001 21.4 7.30001 22.3 7.30001 22.4C7.30001 22.5 7.00001 23.3 6.70001 24.2C6.40001 25.1 6.10001 25.9 6.10001 26.1C6.10001 26.3 5.70001 27.5 5.30001 28.8C4.90001 30.1 4.50001 31.3 4.50001 31.5C4.50001 31.7 4.20001 32.9 3.90001 34.1C3.60001 35.4 3.30001 36.7 3.20001 37.2C3.20001 37.6 2.90001 38.9 2.70001 40C2.20001 42.4 2.10001 43.3 2.00001 43.7C2.00001 43.8 1.90001 44.2 1.90001 44.5C1.80001 44.8 1.80001 45.8 1.70001 46.6C1.60001 47.4 1.50001 49.2 1.30001 50.6C0.700008 56.2 0.800008 65.5 1.50001 70.5C1.60001 71.5 1.70001 72.5 1.60001 72.7C1.50001 73 1.60001 73.2 1.70001 73.2C1.80001 73.2 1.90001 73.3 1.80001 73.5C1.70001 73.8 2.30001 77.4 2.80001 79.2C2.90001 79.7 3.10001 80.5 3.10001 80.9C3.10001 81.3 3.50001 82.7 3.80001 83.9C4.20001 85.1 4.40001 86.2 4.40001 86.3C4.40001 86.4 4.40001 86.4 4.50001 86.4C4.60001 86.4 4.60001 86.5 4.60001 86.6C4.50001 86.7 4.80001 87.6 5.20001 88.6C5.60001 89.6 5.90001 90.6 6.00001 90.9C6.00001 91.1 6.40001 92 6.70001 92.8C7.10001 93.6 7.40001 94.4 7.40001 94.5C7.40001 94.6 7.70001 95.3 8.10001 96C8.50001 96.7 8.70001 97.4 8.70001 97.4C8.60001 97.5 8.70001 97.5 8.80001 97.5C8.90001 97.5 9.00001 97.5 8.90001 97.6C8.80001 97.7 9.10001 98.3 9.50001 99.1C9.90001 99.8 10.2 100.5 10.2 100.6C10.2 100.7 10.5 101.3 10.9 101.9C11.3 102.5 11.5 103 11.5 103.1C11.5 103.2 11.5 103.2 11.6 103.2C11.7 103.2 11.7 103.3 11.7 103.4C11.7 103.5 12 104 12.3 104.6C12.6 105.1 12.9 105.6 12.9 105.7C12.9 105.8 13 105.9 13.1 105.9C13.2 105.9 13.3 106 13.2 106C13.2 106.1 13.5 106.9 13.7 107C13.8 107 14.2 107.7 14.6 108.4C15.1 109.1 15.5 109.8 15.6 109.8C15.7 109.8 15.7 110 15.7 110.1C15.7 110.2 15.8 110.3 15.9 110.3C16 110.3 16 110.3 16 110.4C16 110.5 16.3 110.9 16.7 111.5C17.2 112 17.5 112.6 17.4 112.6C17.3 112.7 17.4 112.8 17.5 112.8C17.6 112.8 18 113.2 18.4 113.8C21.2 117.7 27.7 124.1 31 126.3C31.2 126.4 32.1 127.1 32.9 127.7C34.8 129.2 35.6 129.7 37.5 131C38.3 131.6 39 132.1 39.1 132.2C39.2 132.3 39.2 132.3 39.3 132.3C39.4 132.3 39.5 132.4 39.7 132.5C39.9 132.6 40.6 133.1 41.3 133.6C42 134.1 42.9 134.6 43.2 134.8C43.5 135 43.8 135.2 43.8 135.2C43.8 135.2 44.2 135.4 44.6 135.6C45 135.8 45.5 136.1 45.7 136.2C45.9 136.3 46.1 136.5 46.1 136.6C46.1 136.7 46.1 136.7 46.2 136.7C46.3 136.6 46.5 136.7 46.7 136.9C46.9 137.1 47.7 137.5 48.3 137.8C48.9 138.1 50.3 138.9 51.3 139.4C52.3 139.9 53.2 140.4 53.3 140.4C53.4 140.4 53.5 140.5 53.5 140.5C53.5 140.6 53.6 140.6 53.6 140.6C53.8 140.6 56.7 142 56.8 142.2C56.9 142.3 56.9 142.3 56.9 142.2C56.9 142.1 57.5 142.4 58.2 142.7C58.9 143.1 59.6 143.3 59.6 143.3C59.7 143.2 59.7 143.3 59.7 143.4C59.7 143.5 59.7 143.6 59.8 143.5C59.9 143.4 60.6 143.7 61.5 144.1C62.4 144.5 63.1 144.8 63.2 144.7C63.3 144.6 63.3 144.7 63.3 144.8C63.3 144.9 63.4 145 63.4 144.9C63.5 144.9 64.2 145.1 64.9 145.4C65.7 145.7 66.4 146 66.5 146C66.6 146 66.7 146.1 66.7 146.1L66.8 146.2C66.9 146.2 67.7 146.4 68.7 146.8C69.7 147.2 70.6 147.5 70.7 147.5C70.9 147.5 71 147.5 71 147.6C71 147.7 71.1 147.7 71.3 147.7C71.5 147.7 72.3 148 73.1 148.2C73.9 148.5 74.7 148.7 74.9 148.8C75.1 148.8 75.2 148.9 75.2 149C75.2 149.1 75.3 149.1 75.4 149.1C75.5 149.1 76.6 149.3 77.7 149.7C78.8 150.1 80 150.4 80.3 150.4C80.6 150.4 81.8 150.7 83 151.1C84.2 151.4 85.2 151.7 85.3 151.6C85.4 151.5 85.5 151.6 85.5 151.7C85.5 151.8 85.6 151.9 85.8 151.8C86 151.8 86.1 151.8 86.1 151.9C86.1 152 86.2 152 86.3 152C86.4 152 87.6 152.2 88.8 152.5C90.1 152.8 91.2 153 91.3 153C91.4 153 91.5 153 91.5 153.1C91.5 153.2 91.7 153.2 91.9 153.2C92.1 153.1 92.3 153.2 92.3 153.2C92.3 153.2 92.5 153.3 92.8 153.3C93.1 153.3 94.5 153.6 96.1 153.9C97.6 154.2 99 154.5 99 154.4C99.1 154.3 99.2 154.4 99.3 154.5C99.4 154.6 99.5 154.6 99.7 154.6C99.8 154.5 100 154.6 100.1 154.6C100.2 154.7 100.5 154.7 100.7 154.7C100.9 154.7 102.5 155 104.2 155.3C105.9 155.6 107.3 155.9 107.4 155.8C107.5 155.7 107.6 155.8 107.7 155.9C107.8 156 107.9 156 108 156C108.1 156 109.6 156.2 111.2 156.5C112.8 156.8 114.5 157.1 114.9 157.1C115.3 157.1 115.7 157.2 115.8 157.3C115.9 157.4 116 157.4 116.1 157.3C116.2 157.3 118.2 157.5 120.6 157.9C123 158.3 125.1 158.5 125.3 158.5C125.5 158.5 125.8 158.5 125.9 158.6C126.1 158.7 126.3 158.7 126.5 158.6C126.6 158.5 126.9 158.6 127 158.7C127.1 158.8 127.4 158.8 127.6 158.8C127.8 158.8 129.9 159 132.4 159.4C134.8 159.8 137 160 137.1 160C137.3 159.9 137.4 160 137.4 160.1C137.4 160.2 137.6 160.3 137.9 160.3C138.5 160.3 138.7 160.3 142.7 160.9C144.2 161.1 145.5 161.3 145.5 161.2C145.5 161.2 145.8 161.2 146 161.3C146.3 161.5 146.5 161.5 146.6 161.3C146.7 161.1 146.8 161.1 146.9 161.3C147 161.4 147.2 161.5 147.5 161.4C147.8 161.3 147.9 161.4 147.9 161.5C147.9 161.6 148.1 161.7 148.3 161.6C148.5 161.6 150.4 161.8 152.4 162.1C154.4 162.4 156.2 162.6 156.3 162.6C156.4 162.6 156.6 162.6 156.6 162.7C156.7 162.8 156.9 162.8 157.3 162.8C157.6 162.7 157.9 162.8 157.9 162.8C157.9 162.9 158.3 163 158.7 163C159.1 163 161.6 163.3 164.2 163.6C166.8 163.9 169.1 164.2 169.3 164.1C169.5 164 169.7 164.1 169.7 164.2C169.7 164.3 170.2 164.4 170.7 164.4C171.3 164.4 173.9 164.7 176.6 165C179.3 165.3 181.8 165.6 182.1 165.6C182.5 165.6 182.8 165.7 182.8 165.8C182.8 165.9 183 165.9 183.3 165.9C183.6 165.9 185.7 166.1 188.1 166.5C190.5 166.9 192.5 167.1 192.6 167.1C192.7 167 192.9 167.1 193 167.2C193.1 167.3 193.4 167.4 193.6 167.3C193.8 167.3 195.8 167.5 198.1 167.8C200.4 168.1 202.3 168.3 202.4 168.3C202.5 168.3 202.7 168.3 202.7 168.4C202.8 168.5 203 168.5 203.4 168.5C203.8 168.4 204 168.5 204 168.6C204 168.7 204.2 168.8 204.6 168.7C205 168.6 205.2 168.7 205.2 168.8C205.2 168.9 205.4 168.9 205.7 168.9C205.9 168.9 207.7 169.1 209.6 169.4C211.5 169.7 213.1 169.9 213.2 169.9C213.3 169.8 213.4 169.9 213.4 170C213.4 170.1 213.6 170.2 213.8 170.2C214 170.2 214.3 170.2 214.5 170.3C214.7 170.4 214.9 170.4 214.9 170.3C215 170.2 216.4 170.5 218 170.9C219.6 171.3 221.2 171.6 221.6 171.6C221.9 171.6 223.3 171.9 224.7 172.3C226.1 172.6 227.4 172.9 227.6 172.9C227.8 172.9 228 173 228 173C228 173.1 228.2 173.1 228.5 173.1C228.8 173.1 229.9 173.4 231 173.7C232.1 174 233 174.3 233.1 174.2C233.2 174.1 233.3 174.2 233.3 174.3C233.3 174.4 233.4 174.4 233.5 174.4C233.6 174.3 234.4 174.6 235.2 174.9C236.1 175.2 236.9 175.5 237 175.5C237.1 175.5 237.3 175.6 237.3 175.7C237.4 175.8 237.6 175.9 237.8 175.9C238.7 176.1 248.6 180.6 248.6 180.6V83.3C248.6 83.3 238.9 81.3 235.7 80.7C233.7 80.3 227.6 79.4 227.5 79.5C227.4 79.6 227.2 79.5 227.1 79.4C227 79.3 226.7 79.2 226.6 79.3C226.5 79.4 224.3 79.1 221.7 78.7C219.2 78.3 217 78.1 216.9 78.1C216.8 78.1 216.6 78.1 216.5 78C216.4 77.9 216.1 77.8 215.9 77.9C215.7 77.9 213.5 77.7 211 77.3C208.5 76.9 206.4 76.7 206.3 76.7C206.2 76.8 206 76.7 205.9 76.6C205.8 76.5 205.5 76.5 205.2 76.5C204.9 76.6 204.8 76.5 204.8 76.4C204.8 76.3 204.7 76.2 204.4 76.3C204.2 76.4 202.1 76.1 199.8 75.7C197.5 75.3 195.5 75.1 195.4 75.1C195.3 75.2 195.1 75.1 195 75C194.9 74.9 194.7 74.8 194.6 74.9C194.5 75 192.7 74.7 190.6 74.3C188.5 73.9 186.7 73.7 186.6 73.7C186.6 73.7 186.4 73.7 186.3 73.6C186.2 73.5 186 73.5 185.9 73.5C185.8 73.5 185.3 73.5 184.9 73.4C182.3 72.9 178.6 72.2 178.2 72.2C177.9 72.2 177.7 72.1 177.6 72.1C177.6 72.1 177.5 72.1 177.4 72.1C177.3 72.1 175.8 71.8 174.1 71.5C172.3 71.1 170.8 70.9 170.8 70.9C170.7 70.9 170.6 70.9 170.6 70.8C170.5 70.7 170.4 70.7 170.3 70.7C170.2 70.7 168.8 70.5 167.1 70.1C165.5 69.7 164.1 69.5 164 69.5C163.9 69.5 163.8 69.5 163.8 69.4C163.7 69.3 163.5 69.3 163.4 69.3C163.2 69.4 163.1 69.3 163.1 69.2C163.1 69.1 163 69 162.8 69.1C162.7 69.2 161.3 68.9 159.7 68.5C158.1 68.1 156.7 67.9 156.6 67.9C156.5 67.9 156.4 67.9 156.4 67.8C156.4 67.7 156.1 67.6 155.8 67.6C155.5 67.6 154.3 67.3 153.3 67C152.2 66.7 151.2 66.4 151 66.3C150.4 66.2 148.8 65.5 148.8 65.3C148.8 65.2 148.8 65.2 148.7 65.2C148.6 65.3 148.4 65.2 148.1 65.1C147.8 65 147.6 64.9 147.5 65C147.4 65.1 147.4 65 147.4 64.9C147.4 64.8 147.4 64.7 147.3 64.8C147.2 64.9 146.1 64.3 145.9 64C145.8 63.9 145.8 63.9 145.7 63.9C145.6 63.9 144.6 63.5 143.8 63C143.6 62.9 143.4 62.7 143.4 62.7C143.4 62.7 143.3 62.6 143.2 62.6C142 62.6 136.1 56.2 136 54.7C136 54.5 135.8 54.1 135.7 53.7C134.8 51.6 134.7 48.5 135.5 45.9C135.8 45.1 136 44.4 136 44.2C136.1 43.8 137 42.1 137.3 41.8C137.4 41.7 137.5 41.5 137.4 41.5C137.4 41.4 137.5 41.2 137.6 41.1C138 40.6 138.7 39.7 138.6 39.7C138.6 39.7 138.8 39.4 139.2 39C139.6 38.6 139.9 38.2 139.9 38.2C139.9 38.1 140 38.1 140.1 38.2C140.2 38.3 140.2 38.2 140.2 38.1C140.1 37.9 141.7 36.3 143.3 35.1C143.9 34.6 144.5 34.2 144.6 34.1C144.7 34 144.9 33.9 145 33.9C145.1 33.9 145.4 33.8 145.6 33.6C146.4 33 150 31.3 150.7 31.2C150.9 31.2 151.9 30.9 152.9 30.5C153.9 30.2 154.9 29.9 155.2 29.9C155.5 29.9 155.7 29.8 155.7 29.7C155.7 29.6 155.8 29.6 155.8 29.6C155.9 29.6 156.8 29.5 157.9 29.3C160.8 28.7 164.1 28.2 164.5 28.3C164.7 28.3 164.9 28.3 165.1 28.2C165.2 28.1 165.4 28.1 165.4 28.1C165.4 28.1 166.8 28 168.5 27.9C177.5 26.9 187.4 26.9 196.1 27.8C197.4 27.9 198.7 28.1 199 28.2C199.4 28.3 199.5 28.3 199.5 28.2C199.5 28.1 199.6 28.1 199.7 28.2C199.8 28.3 200.1 28.4 200.3 28.3C200.6 28.2 203.8 28.7 206.4 29.3C207.1 29.4 207.7 29.5 207.8 29.5C207.9 29.4 208 29.5 208 29.6C208 29.7 208.1 29.8 208.4 29.7C208.7 29.6 208.8 29.7 208.8 29.8C208.8 29.9 208.9 29.9 209 29.9C209.1 29.9 210.2 30.1 211.5 30.4C212.7 30.7 213.9 31 214.1 31C214.3 31 214.5 31.1 214.5 31.2C214.5 31.3 214.6 31.3 214.7 31.3C214.8 31.3 215.7 31.5 216.7 31.9C217.7 32.2 218.6 32.5 218.7 32.4C218.8 32.4 218.8 32.4 218.8 32.5C218.8 32.6 218.9 32.6 218.9 32.6C219 32.6 219.9 32.9 220.9 33.3C221.9 33.7 222.8 34.1 222.8 34C222.8 33.9 225 35 225.9 35.5C227.5 36.4 229.1 37.3 229.4 37.6C229.6 37.8 229.9 37.9 230 37.9C230.1 37.9 230.2 38 230.2 38.1C230.2 38.2 230.3 38.3 230.4 38.3C230.5 38.3 230.8 38.5 231.1 38.8C231.4 39.1 231.7 39.3 231.7 39.3C231.9 39.3 233.9 41.2 235 42.4C236.1 43.5 237.4 45.2 237.2 45.2C237.1 45.2 237.2 45.3 237.4 45.5C237.9 46.1 238.5 46.8 238.7 47.2C238.8 47.4 239 47.7 239.1 47.9C239.4 48.2 241.3 52.2 241.4 52.6C241.4 52.7 241.8 53.7 242.1 54.6C242.5 55.6 242.9 57.1 242.9 57.1H248.5V2.9" fill="white"/>
<path fill-rule="evenodd" clip-rule="evenodd" d="M273.2 84.3V180.6L395.4 180.8V108.8C395.4 108.8 391.5 106.7 390.1 106.1C389.7 105.9 389.2 105.8 388.3 105.4C387.5 105.1 386.6 104.8 386.5 104.7C386.3 104.7 385.4 104.3 384.5 104C383.6 103.6 382.8 103.3 382.6 103.3C382.5 103.3 381.6 103 380.7 102.6C379.8 102.2 378.8 101.9 378.5 101.8C378.2 101.8 377.3 101.4 376.5 101.1C375.6 100.8 374.8 100.5 374.7 100.5C374.5 100.5 374.4 100.4 374.4 100.3C374.4 100.2 374.3 100.2 374.3 100.2C374.2 100.3 373.3 100 372.3 99.6C371.3 99.2 370.2 98.9 370 98.9C369.8 98.9 368.8 98.6 367.8 98.2C366.8 97.9 365.8 97.6 365.6 97.6C365.4 97.6 364.3 97.3 363.2 96.9C362.1 96.5 361.1 96.2 360.9 96.2C360.7 96.2 360.6 96.1 360.6 96.1C360.6 96.1 360.4 96 360.2 96C360 96 358.8 95.7 357.7 95.3C356.6 95 355.4 94.7 355 94.6C354.6 94.5 353.2 94.2 351.7 93.8C350.2 93.4 348.9 93.2 348.7 93.2C348.6 93.3 348.4 93.2 348.4 93.1C348.4 93 348.2 92.9 347.9 92.9C347.6 92.9 346.1 92.6 344.6 92.3C343 92 341.6 91.7 341.5 91.8C341.4 91.9 341.2 91.8 341.2 91.7C341.2 91.6 340.9 91.5 340.6 91.5C340.3 91.5 338.3 91.2 336.3 90.9C334.3 90.6 332.6 90.3 332.5 90.4C332.4 90.5 332.2 90.4 332.1 90.3C332 90.2 331.8 90.1 331.6 90.2C331.5 90.3 329.3 90 326.7 89.6C324.2 89.2 322 88.9 321.9 89C321.8 89.1 321.6 89 321.5 88.9C321.4 88.8 321.2 88.7 321.1 88.8C321 88.9 319 88.6 316.7 88.2C314.4 87.8 312.3 87.6 312.2 87.6C312 87.7 311.9 87.6 311.9 87.5C311.9 87.4 311.7 87.3 311.5 87.4C311.3 87.4 308.8 87.2 306 86.8C303.2 86.4 300.8 86.1 300.7 86.2C300.5 86.3 300.3 86.2 300.2 86.2C300.1 86.1 299.7 86.1 299.2 86C298.8 86 296.2 85.7 293.4 85.4C290.6 85.1 288.2 84.8 288 84.9C287.8 85 287.6 84.9 287.4 84.8C287.3 84.7 287 84.6 286.7 84.7C286.4 84.7 284.7 84.7 282.8 84.5C280.9 84.3 278.6 84.1 277.6 84.1C276.6 84 275.4 84 275 83.9C274.6 83.9 273.9 83.9 273.6 84" fill="white"/>
<path fill-rule="evenodd" clip-rule="evenodd" d="M5.30001 282.1H394V195.6H5.30001M388.6 276.8H10.6V201H388.6" fill="white"/>
<path d="M30.8 257.8C28.3 256.8 26.3 255.4 25 253.7C23.7 252 23 250.1 22.9 248.1C22.9 247.8 23 247.5 23.3 247.3C23.5 247.1 23.8 247 24.2 247H31.6C32 247 32.4 247.1 32.7 247.2C33 247.3 33.3 247.6 33.6 248C34.1 248.9 34.8 249.6 35.9 250.2C36.9 250.8 38.3 251.1 40 251.1C42 251.1 43.6 250.8 44.6 250.2C45.7 249.6 46.2 248.7 46.2 247.7C46.2 246.9 45.9 246.3 45.4 245.8C44.9 245.3 43.9 244.8 42.7 244.5C41.5 244.1 39.7 243.7 37.4 243.2C32.9 242.3 29.5 240.9 27.3 239.1C25.1 237.3 23.9 234.7 23.9 231.3C23.9 229 24.5 226.9 25.8 225.1C27.1 223.3 28.9 221.9 31.3 220.9C33.7 219.9 36.4 219.4 39.6 219.4C42.9 219.4 45.7 220 48.1 221.1C50.5 222.2 52.4 223.7 53.6 225.4C54.9 227.1 55.6 228.8 55.6 230.4C55.6 230.7 55.5 231 55.3 231.3C55.1 231.5 54.8 231.7 54.5 231.7H46.7C45.9 231.7 45.2 231.4 44.8 230.7C44.6 229.9 44 229.3 43.1 228.7C42.2 228.2 41 227.9 39.6 227.9C38 227.9 36.8 228.2 36 228.7C35.1 229.3 34.7 230.1 34.7 231.2C34.7 232.3 35.3 233.1 36.4 233.7C37.5 234.3 39.6 234.9 42.7 235.6C46.2 236.2 49 237 51.1 238C53.2 239 54.7 240.2 55.7 241.7C56.7 243.2 57.2 245.1 57.2 247.4C57.2 249.9 56.5 252.1 55 254C53.5 255.9 51.5 257.3 49 258.3C46.4 259.3 43.5 259.8 40.2 259.8C36.4 259.3 33.3 258.8 30.8 257.8Z" fill="white"/>
<path d="M65.8 255.5C62.7 252.9 61.1 249.1 60.9 244.1C60.9 243.1 60.8 241.4 60.8 239.3C60.8 237.1 60.8 235.5 60.9 234.4C61 229.5 62.7 225.7 65.8 223C68.9 220.3 73.1 219 78.3 219C83.5 219 87.6 220.3 90.8 223C93.9 225.7 95.6 229.5 95.7 234.4C95.8 236.6 95.8 238.2 95.8 239.3C95.8 240.4 95.8 242 95.7 244.1C95.5 249.1 93.9 252.9 90.9 255.5C87.9 258.1 83.7 259.4 78.4 259.4C73.1 259.3 68.9 258 65.8 255.5ZM83 249.2C84.2 248 84.8 246.2 84.8 243.8C84.9 241.6 84.9 240.1 84.9 239.2C84.9 238.3 84.9 236.8 84.8 234.7C84.7 232.3 84.1 230.5 83 229.3C81.8 228.1 80.3 227.5 78.4 227.5C76.4 227.5 74.9 228.1 73.7 229.3C72.5 230.5 71.9 232.3 71.9 234.7C71.9 235.7 71.8 237.3 71.8 239.2C71.8 241.2 71.8 242.8 71.9 243.8C72 246.2 72.6 248 73.7 249.2C74.9 250.4 76.4 251 78.4 251C80.3 250.9 81.9 250.3 83 249.2Z" fill="white"/>
<path d="M101.8 258.4C101.5 258.1 101.4 257.8 101.4 257.4V221C101.4 220.6 101.5 220.3 101.8 220C102.1 219.7 102.4 219.6 102.8 219.6H110.6C111 219.6 111.3 219.7 111.6 220C111.9 220.3 112 220.6 112 221V250H128.8C129.2 250 129.6 250.1 129.8 250.4C130.1 250.7 130.2 251 130.2 251.4V257.3C130.2 257.7 130.1 258 129.8 258.3C129.5 258.6 129.2 258.7 128.8 258.7H102.8C102.4 258.8 102 258.6 101.8 258.4Z" fill="white"/>
<path d="M138.1 255.5C135 252.9 133.4 249.1 133.2 244.1C133.2 243.1 133.1 241.4 133.1 239.3C133.1 237.1 133.1 235.5 133.2 234.4C133.3 229.5 135 225.7 138.1 223C141.2 220.3 145.4 219 150.6 219C155.8 219 159.9 220.3 163.1 223C166.2 225.7 167.9 229.5 168 234.4C168.1 236.6 168.1 238.2 168.1 239.3C168.1 240.4 168.1 242 168 244.1C167.8 249.1 166.2 252.9 163.2 255.5C160.2 258.1 156 259.4 150.7 259.4C145.4 259.3 141.2 258 138.1 255.5ZM155.3 249.2C156.5 248 157.1 246.2 157.1 243.8C157.2 241.6 157.2 240.1 157.2 239.2C157.2 238.3 157.2 236.8 157.1 234.7C157 232.3 156.4 230.5 155.3 229.3C154.1 228.1 152.6 227.5 150.7 227.5C148.7 227.5 147.2 228.1 146 229.3C144.8 230.5 144.2 232.3 144.2 234.7C144.2 235.7 144.1 237.3 144.1 239.2C144.1 241.2 144.1 242.8 144.2 243.8C144.3 246.2 144.9 248 146 249.2C147.2 250.4 148.7 251 150.7 251C152.6 250.9 154.1 250.3 155.3 249.2Z" fill="white"/>
<path d="M177.3 255.5C174.3 252.9 172.6 249.2 172.5 244.2C172.5 243.2 172.4 241.5 172.4 239.3C172.4 237 172.4 235.3 172.5 234.3C172.7 229.4 174.3 225.7 177.4 223.1C180.5 220.5 184.7 219.2 189.9 219.2C193.2 219.2 196.2 219.7 198.8 220.8C201.4 221.9 203.5 223.5 205 225.5C206.5 227.6 207.3 230 207.4 232.8C207.4 233.1 207.3 233.4 207 233.6C206.8 233.8 206.5 233.9 206.1 233.9H198.1C197.6 233.9 197.2 233.8 197 233.6C196.8 233.4 196.5 233 196.4 232.5C195.9 230.7 195.1 229.4 194 228.7C192.9 228 191.5 227.6 189.8 227.6C185.6 227.6 183.4 230 183.2 234.7C183.2 235.7 183.1 237.3 183.1 239.3C183.1 241.4 183.1 243 183.2 244.1C183.3 248.8 185.5 251.2 189.8 251.2C191.5 251.2 192.9 250.8 194 250.1C195.1 249.4 195.9 248.1 196.4 246.3C196.5 245.7 196.8 245.4 197 245.2C197.3 245 197.7 244.9 198.2 244.9H206.2C206.5 244.9 206.8 245 207.1 245.2C207.3 245.4 207.5 245.7 207.5 246C207.4 248.8 206.6 251.2 205.1 253.3C203.6 255.4 201.5 256.9 198.9 258C196.3 259.1 193.3 259.6 190 259.6C184.6 259.3 180.4 258 177.3 255.5Z" fill="white"/>
<path d="M209.3 258.4C209.1 258.2 208.9 257.9 208.9 257.6C208.9 257.4 208.9 257.2 209 257.1L222 221.2C222.4 220.1 223.1 219.6 224.2 219.6H232.9C234 219.6 234.8 220.1 235.1 221.2L248.1 257.1C248.1 257.2 248.2 257.4 248.2 257.6C248.2 257.9 248.1 258.2 247.8 258.4C247.6 258.6 247.3 258.8 247 258.8H239.7C238.8 258.8 238.2 258.4 237.8 257.6L235.8 252.2H221.1L219.1 257.6C218.7 258.4 218.1 258.8 217.2 258.8H209.9C209.8 258.8 209.6 258.6 209.3 258.4ZM223.7 243.7H233.7L228.7 229.4L223.7 243.7Z" fill="white"/>
<path d="M252.7 258.4C252.4 258.1 252.3 257.8 252.3 257.4V221C252.3 220.6 252.4 220.3 252.7 220C253 219.7 253.3 219.6 253.7 219.6H261.5C261.9 219.6 262.2 219.7 262.5 220C262.8 220.3 262.9 220.6 262.9 221V250H279.7C280.1 250 280.5 250.1 280.7 250.4C280.9 250.7 281.1 251 281.1 251.4V257.3C281.1 257.7 281 258 280.7 258.3C280.4 258.6 280.1 258.7 279.7 258.7H253.7C253.3 258.8 253 258.6 252.7 258.4Z" fill="white"/>
<path d="M289.1 255.5C286.1 252.9 284.4 249.2 284.3 244.2C284.3 243.2 284.2 241.5 284.2 239.3C284.2 237 284.2 235.3 284.3 234.3C284.5 229.4 286.1 225.7 289.2 223.1C292.3 220.5 296.5 219.2 301.7 219.2C305 219.2 308 219.7 310.6 220.8C313.2 221.9 315.3 223.5 316.8 225.5C318.3 227.6 319.1 230 319.2 232.8C319.2 233.1 319.1 233.4 318.8 233.6C318.6 233.8 318.3 233.9 317.9 233.9H309.9C309.4 233.9 309 233.8 308.8 233.6C308.6 233.4 308.3 233 308.2 232.5C307.7 230.7 306.9 229.4 305.8 228.7C304.7 228 303.3 227.6 301.6 227.6C297.4 227.6 295.2 230 295 234.7C295 235.7 294.9 237.3 294.9 239.3C294.9 241.4 294.9 243 295 244.1C295.1 248.8 297.3 251.2 301.6 251.2C303.3 251.2 304.7 250.8 305.8 250.1C306.9 249.4 307.7 248.1 308.2 246.3C308.3 245.7 308.6 245.4 308.8 245.2C309.1 245 309.5 244.9 310 244.9H318C318.3 244.9 318.6 245 318.9 245.2C319.1 245.4 319.3 245.7 319.3 246C319.2 248.8 318.4 251.2 316.9 253.3C315.4 255.4 313.3 256.9 310.7 258C308.1 259.1 305.1 259.6 301.8 259.6C296.3 259.3 292.1 258 289.1 255.5Z" fill="white"/>
<path d="M324.5 258.4C324.2 258.1 324.1 257.8 324.1 257.4V221C324.1 220.6 324.2 220.3 324.5 220C324.8 219.7 325.1 219.6 325.5 219.6H333.5C333.9 219.6 334.2 219.7 334.5 220C334.8 220.3 334.9 220.6 334.9 221V257.4C334.9 257.8 334.8 258.1 334.5 258.4C334.2 258.7 333.9 258.8 333.5 258.8H325.5C325.1 258.8 324.8 258.6 324.5 258.4Z" fill="white"/>
<path d="M345.4 255.5C342.3 252.9 340.7 249.1 340.5 244.1C340.5 243.1 340.4 241.4 340.4 239.3C340.4 237.1 340.4 235.5 340.5 234.4C340.6 229.5 342.3 225.7 345.4 223C348.5 220.3 352.7 219 357.9 219C363.1 219 367.2 220.3 370.4 223C373.5 225.7 375.2 229.5 375.3 234.4C375.4 236.6 375.4 238.2 375.4 239.3C375.4 240.4 375.4 242 375.3 244.1C375.1 249.1 373.5 252.9 370.5 255.5C367.5 258.1 363.3 259.4 358 259.4C352.6 259.3 348.4 258 345.4 255.5ZM362.6 249.2C363.8 248 364.4 246.2 364.4 243.8C364.5 241.6 364.5 240.1 364.5 239.2C364.5 238.3 364.5 236.8 364.4 234.7C364.3 232.3 363.7 230.5 362.6 229.3C361.4 228.1 359.9 227.5 358 227.5C356 227.5 354.5 228.1 353.3 229.3C352.1 230.5 351.5 232.3 351.5 234.7C351.5 235.7 351.4 237.3 351.4 239.2C351.4 241.2 351.4 242.8 351.5 243.8C351.6 246.2 352.2 248 353.3 249.2C354.5 250.4 356 251 358 251C359.9 250.9 361.4 250.3 362.6 249.2Z" fill="white"/>
<path d="M328.9 77.4C363.97 77.4 392.4 60.0734 392.4 38.7C392.4 17.3266 363.97 0 328.9 0C293.83 0 265.4 17.3266 265.4 38.7C265.4 60.0734 293.83 77.4 328.9 77.4Z" fill="white"/>
</svg>
