<svg width="1730" height="1000" viewBox="0 0 1730 1000" fill="none" xmlns="http://www.w3.org/2000/svg">
<path d="M656.8 0H0V1000H656.8V0Z" fill="#AF001E"/>
<path d="M298.7 254.5H232.9V127.7C232.9 118 229.5 115.1 219.8 115.1H185.9C176.2 115.1 172.9 117.9 172.9 127.7V311.6C172.9 321.3 176.2 324.1 185.9 324.1H470.9C480.6 324.1 484 321.3 484 311.6V267C484 257.3 480.6 254.4 470.9 254.4H358.6V139.3C358.6 129.6 355.2 126.7 345.5 126.7H311.7C302 126.7 298.6 129.6 298.6 139.3V254.5H298.7Z" fill="white"/>
<path d="M323.3 504.5L343.7 509.4C349.5 510.8 352.4 511.3 354.3 511.3C359.2 511.3 363 509.9 368.8 506.5L472.4 448.9C480.6 444.1 484 440.2 484 428.6V375.8C484 369.1 479.6 360.9 467.5 368.5L350.4 439.2C335.5 415.5 314.1 388.9 267.2 388.9C206.7 388.9 172.8 422.7 172.8 497.3V605.2C172.8 614.9 176.2 617.9 185.9 617.9H470.9C480.6 617.9 484 615 484 605.2V560.7C484 551 480.6 548.1 470.9 548.1H230.4V502.1C230.4 473.1 241.1 459.1 268.2 459.1C292.9 459.1 300.6 470.2 305.5 481.3C311.2 495.3 304.9 500.2 323.3 504.5Z" fill="white"/>
<path d="M434.1 878.8L471.4 884.6C478.6 885.6 481.5 882.1 482.5 875.8C484.4 861.8 486.9 826.5 486.9 792.1C486.9 715.2 461.7 659 390.1 659C348 659 316.6 677.4 300.1 741.3L290.9 777.1C284.6 801.2 276.9 812.4 259 812.4C233.8 812.4 229 789.1 229 766.9C229 737 231.4 706.4 232.3 694.4C233.3 681.7 231.8 678.4 221.2 676.5L184.9 670.7C177.7 669.7 174.8 673.1 173.8 679.4C171.9 693.4 169.4 724.4 169.4 763.6C169.4 843.5 204.2 882.1 259.4 882.1C309.2 882.1 338.8 855.1 350.9 808.1L360.1 772.3C367.9 742.8 376.6 730.2 394.9 730.2C422.1 730.2 426.9 748.6 426.9 793.2C426.9 813.5 424 848.8 423 860.9C422.1 873.4 423.5 876.9 434.1 878.8Z" fill="white"/>
<path d="M1729.3 0H729.3V1000H1729.3V0Z" fill="#AF001E"/>
<path d="M1131.7 263V839.3H1327.4V125.7L1131.7 263Z" fill="white"/>
</svg>
