<svg width="1582" height="500" viewBox="0 0 1582 500" fill="none" xmlns="http://www.w3.org/2000/svg">
<path d="M1581.7 0H364.7V500H1581.7V0Z" fill="#FFB600"/>
<path d="M1466.8 117.4H1374.7V385H1466.8V117.4Z" fill="white"/>
<path d="M1261.9 221.2C1261.2 205.2 1258.4 193 1253.5 184.4C1248.6 175.9 1239.1 171.6 1224.9 171.6C1212 171.6 1202.4 175 1196 181.8C1189.5 188.5 1185.7 201.7 1184.3 221.2H1261.9ZM1330.6 377.7C1328.5 378.3 1324.5 379.4 1318.4 380.8C1312.4 382.1 1305 383.6 1296.5 385.2C1288 386.7 1278.6 388.2 1268.4 389.3C1258.2 390.5 1247.7 391.2 1236.9 391.2C1212.3 391.2 1191 388.6 1173.2 383.6C1155.3 378.6 1140.7 370.6 1129.2 359.6C1117.8 348.6 1109.3 334.3 1103.7 316.6C1098.1 298.8 1095.3 277.3 1095.3 251.9C1095.3 205.6 1106.2 170.7 1128.1 146.8C1149.9 122.9 1182.2 111 1224.9 111C1245 111 1262.4 113.4 1277.2 118C1291.9 122.7 1304.3 130.1 1314.1 140.4C1324 150.7 1331.4 163.9 1336.3 180.1C1341.2 196.2 1343.6 216 1343.6 239.3V277.3H1184.4C1185.4 286 1187.3 293.2 1190.1 299C1192.9 304.7 1196.9 309.4 1202.1 312.8C1207.3 316.2 1213.7 318.6 1221.3 320.1C1228.9 321.5 1238.3 322.2 1249.4 322.2C1271.6 322.2 1290.3 320.9 1305.3 318.1C1320.4 315.3 1330.9 313.4 1336.8 312.4L1330.6 377.7Z" fill="white"/>
<path d="M997.1 117.4L978.2 239.2L946.2 117.4H872L840 239.2L821.1 117.4H719.7L782.1 385H869.1L906.4 249.3L944.1 385H1031.1L1093.6 117.4H997.1Z" fill="white"/>
<path d="M475.6 117.4V202.1H571.5L471.4 327.1V385H705.5V300.3H600.9L701.9 175.4L696.2 117.4H475.6Z" fill="white"/>
<path d="M328.3 0H0V500H328.3V0Z" fill="#FFB600"/>
<path d="M116.4 127.3V63.9C116.4 59 114.7 57.6 109.9 57.6H92.9C88.1 57.6 86.4 59 86.4 63.9V155.9C86.4 160.7 88.1 162.1 92.9 162.1H235.4C240.3 162.1 242 160.7 242 155.9V133.6C242 128.8 240.3 127.3 235.4 127.3H179.3V69.7C179.3 64.9 177.6 63.4 172.8 63.4H155.9C151.1 63.4 149.4 64.9 149.4 69.7V127.3H116.4Z" fill="white"/>
<path d="M161.6 252.3L171.8 254.7C174.7 255.4 176.1 255.6 177.1 255.6C179.5 255.6 181.4 254.9 184.4 253.2L236.2 224.4C240.3 222 242 220.1 242 214.3V187.9C242 184.5 239.8 180.4 233.8 184.2L175.2 219.5C167.7 207.7 157.1 194.3 133.6 194.3C103.3 194.3 86.4 211.2 86.4 248.5V302.4C86.4 307.3 88.1 308.7 92.9 308.7H235.4C240.2 308.7 241.9 307.2 241.9 302.4V280.2C241.9 275.3 240.2 273.9 235.4 273.9H115.2V250.9C115.2 236.4 120.6 229.4 134.1 229.4C146.4 229.4 150.3 235 152.7 240.5C155.6 247.7 152.5 250.1 161.6 252.3Z" fill="white"/>
<path d="M217 439.4L235.7 442.3C239.3 442.8 240.8 441 241.3 437.9C242.3 430.9 243.5 413.2 243.5 396.1C243.5 357.6 230.9 329.5 195.1 329.5C174 329.5 158.3 338.7 150.1 370.6L145.5 388.5C142.3 400.6 138.5 406.2 129.6 406.2C117 406.2 114.6 394.6 114.6 383.4C114.6 368.4 115.8 353.2 116.3 347.2C116.8 340.9 116.1 339.2 110.7 338.2L92.6 335.3C89 334.8 87.5 336.5 87 339.6C86 346.6 84.8 362.1 84.8 381.7C84.8 421.6 102.2 440.9 129.8 440.9C154.7 440.9 169.5 427.4 175.5 403.9L180.1 386C184 371.2 188.3 364.9 197.5 364.9C211.1 364.9 213.5 374.1 213.5 396.4C213.5 406.5 212 424.2 211.6 430.2C211 436.8 211.7 438.5 217 439.4Z" fill="white"/>
</svg>
