<svg xmlns:inkscape="http://www.inkscape.org/namespaces/inkscape" xmlns:sodipodi="http://sodipodi.sourceforge.net/DTD/sodipodi-0.dtd" xmlns="http://www.w3.org/2000/svg" xmlns:svg="http://www.w3.org/2000/svg" version="1.1" width="316.22776601683796" height="316.22776601683796" id="svg164" viewBox="0 0 566.92877 566.92877" sodipodi:docname="3ca5f475864fdcfc74cd2495fd81327f.cdr">
  <defs id="defs168"/>
  <sodipodi:namedview id="namedview166" pagecolor="#ffffff" bordercolor="#666666" borderopacity="1.0" inkscape:pageshadow="2" inkscape:pageopacity="0.0" inkscape:pagecheckerboard="0"/>
  <g id="Layer1000" transform="translate(-14.1736,-137.4803)">
    <path d="M 297.638,137.4803 A 283.4644,283.4644 0 0 1 581.1024,420.9447 283.4644,283.4644 0 1 1 297.638,137.4803 Z" style="fill:#0c160b;fill-rule:evenodd" id="path2"/>
    <path d="M 297.6379,139.092 A 281.8527,281.8527 0 0 1 579.4907,420.9447 281.8527,281.8527 0 1 1 297.6379,139.092 Z" style="fill:#ffffff;fill-rule:evenodd" id="path4"/>
    <path d="M 297.6379,140.4987 A 280.446,280.446 0 0 1 578.084,420.9447 280.446,280.446 0 1 1 297.6379,140.4987 Z" style="fill:#612e25;fill-rule:evenodd" id="path6"/>
    <path d="M 297.6379,143.9862 A 276.9586,276.9586 0 0 1 574.5965,420.9447 276.9586,276.9586 0 1 1 297.6379,143.9862 Z" style="fill:#ffffff;fill-rule:evenodd" id="path8"/>
    <path d="M 297.6379,145.3929 A 275.5519,275.5519 0 0 1 573.1898,420.9447 275.5519,275.5519 0 1 1 297.6379,145.3929 Z" style="fill:#0c160b;fill-rule:evenodd" id="path10"/>
    <path d="m 297.6379,147.0047 a 273.94,273.94 0 0 1 273.9401,273.94 273.94,273.94 0 1 1 -273.9401,-273.94 z" style="fill:#ffffff;fill-rule:evenodd" id="path12"/>
    <path d="M 297.6379,242.836 A 178.1087,178.1087 0 0 1 475.7466,420.9447 178.1087,178.1087 0 1 1 297.6379,242.836 Z" style="fill:#612e25;fill-rule:evenodd" id="path14"/>
    <path d="M 296.8582,611.0869 C 238.7742,566.0382 193.5365,500.4025 172.099,430.0799 c -6.9872,-22.9198 -11.8787,-46.3832 -14.438,-70.2115 -2.7504,-25.6107 -2.7776,-51.3721 -0.2708,-77.0036 l 0.1225,-1.2528 1.2573,0.0642 c 25.8533,1.3184 50.6282,-2.8706 74.7936,-12.0513 23.221,-8.8221 45.07,-21.9991 63.0948,-39.1514 l 0.8921,-0.849 0.9079,0.8323 c 18.028,16.5226 38.7507,29.6268 61.5694,38.4612 24.066,9.3173 50.6731,13.9014 76.4526,12.9038 l 1.237,-0.0478 0.126,1.2318 c 2.5781,25.2359 2.5558,50.7091 -0.0697,75.9403 -2.5579,24.5777 -7.5804,48.8892 -15.0039,72.4588 -6.0611,19.2439 -13.7241,37.9629 -22.7912,55.9842 -24.4586,48.6149 -58.7874,90.007 -101.4953,123.691 l -0.81,0.6389 z" style="fill:#ffffff;fill-rule:evenodd" id="path16"/>
    <path d="m 158.7029,282.9932 c 27.4221,1.3985 52.2653,-3.3732 75.329,-12.1354 23.0637,-8.7623 45.1723,-21.9545 63.5356,-39.4289 19.2187,17.6142 40.2919,30.3205 61.9841,38.7188 24.5847,9.5183 51.4787,13.9788 76.9798,12.992 5.2165,51.0591 -0.3953,101.4376 -15.0194,147.8689 -5.982,18.9925 -13.577,37.6324 -22.7115,55.7879 -22.4655,44.6531 -55.1332,86.9671 -101.134,123.2482 C 239.9204,565.2584 194.758,499.8868 173.3604,429.6954 159.7764,385.1359 153.4623,336.5743 158.7029,282.9932 Z" style="fill:#0c160b;fill-rule:evenodd" id="path18"/>
    <path d="m 297.641,602.9418 c 40.3312,-32.5575 72.8359,-72.2381 96.1854,-118.6477 8.9009,-17.6913 16.4244,-36.0669 22.3747,-54.9583 7.2843,-23.1284 12.2128,-46.9852 14.7226,-71.1027 2.3993,-23.054 2.5836,-46.3138 0.5553,-69.4004 -25.0533,0.2617 -50.6318,-4.4692 -73.9378,-13.4925 -22.0213,-8.5255 -42.1646,-20.891 -59.9131,-36.3864 -17.9254,16.09 -39.1405,28.5695 -61.6186,37.109 -23.3852,8.8845 -47.3542,13.2564 -72.239,12.6891 -3.9763,47.3342 1.0339,93.7822 14.916,139.32 20.5979,67.5672 63.6478,130.7904 118.9545,174.8699 z" style="fill:#ffffff;fill-rule:evenodd" id="path20"/>
    <g id="Layer1001">
      <path d="m 216.3286,665.7843 10.2443,-31.8231 c -5.1694,2.1836 -11.0511,4.1639 -16.6325,4.5305 l -0.5164,0.034 3.2518,-10.1025 0.2421,-0.0126 c 1.9867,-0.1046 3.9824,-0.2265 5.9624,-0.4211 1.0345,-0.1017 2.2472,-0.2148 3.2524,-0.4742 1.9729,-0.5266 4.1433,-1.5019 6.0095,-2.3278 2.0438,-0.9205 4.3675,-2.1305 6.0133,-3.6758 l 0.151,-0.1419 6.7841,2.1836 -14.6429,45.4883 14.7012,4.7323 -2.6853,8.3423 -40.4702,-13.0275 2.6854,-8.3423 z" style="fill:#0c160b;fill-rule:evenodd" id="path22"/>
      <path d="m 237.8581,680.9362 2.1106,-6.5567 -14.7011,-4.7324 14.6428,-45.4882 -5.3704,-1.7288 c -1.7129,1.519 -3.9431,2.6804 -6.0159,3.6141 -1.9811,0.8765 -4.0581,1.819 -6.1541,2.3782 -1.0937,0.2825 -2.2747,0.3897 -3.398,0.5002 -1.863,0.1832 -3.7322,0.3022 -5.6013,0.403 l -2.627,8.1609 c 5.4879,-0.5214 11.1434,-2.5233 16.1679,-4.6896 l 1.1855,-0.5108 -11.1631,34.6783 -15.6498,-5.0377 -2.1106,6.5567 z" style="fill:#612e25;fill-rule:evenodd" id="path24"/>
      <path d="m 283.3443,660.0944 c -1.705,2.3248 -3.9326,4.5712 -6.6607,5.4541 -2.5754,0.8282 -5.2087,1.1186 -7.9011,0.8649 -4.9578,-0.4672 -9.2262,-2.3859 -12.5427,-6.1286 -3.3775,-3.7947 -4.5182,-8.4093 -4.0458,-13.4226 0.4887,-5.1881 2.6022,-9.5434 6.679,-12.8461 4.2874,-3.4737 9.4512,-4.4747 14.8711,-3.9641 6.4567,0.6086 11.8156,3.2892 15.6703,8.5502 4.2995,5.8879 4.9787,13.4671 4.3143,20.5164 -0.7132,7.575 -2.9136,15.1051 -7.9783,20.9511 -4.6522,5.3706 -10.6993,7.4836 -17.7315,6.8212 -4.0778,-0.3846 -8.0513,-1.6153 -11.1803,-4.3499 -2.5409,-2.2112 -4.514,-4.9247 -5.2774,-8.2469 l -0.0821,-0.3573 9.0532,-1.6893 0.112,0.2558 c 1.6122,3.6837 4.2895,5.9403 8.3399,6.3219 4.1429,0.3901 7.3038,-1.3149 9.694,-4.6691 2.7946,-3.9362 4.0635,-9.2367 4.6661,-14.0617 z m -11.9942,-2.159 c 2.7732,0.2614 5.3009,-0.4031 7.5723,-2.0193 2.5139,-1.7743 3.5806,-4.5169 3.8619,-7.5051 0.2321,-2.4657 -0.6088,-4.6841 -2.1324,-6.6104 -1.8123,-2.3072 -4.4123,-3.3158 -7.2789,-3.586 -2.8229,-0.2662 -5.4258,0.339 -7.6085,2.1884 -2.1199,1.7714 -3.243,4.0588 -3.5015,6.803 -0.2421,2.5705 0.5143,4.9183 2.0102,7.0091 1.703,2.3803 4.2109,3.4504 7.0769,3.7203 z" style="fill:#0c160b;fill-rule:evenodd" id="path26"/>
      <path d="m 259.9787,673.3045 -7.3517,1.3722 c 0.8097,2.8626 2.5997,5.2185 4.8282,7.1577 2.9766,2.6012 6.7776,3.7577 10.6516,4.1228 6.7138,0.6324 12.4765,-1.3548 16.9349,-6.5013 4.9311,-5.6921 7.0593,-13.0536 7.7535,-20.4255 0.6415,-6.8052 0.0159,-14.1866 -4.1377,-19.8743 -3.7026,-5.0536 -8.8267,-7.5886 -15.0016,-8.1706 -5.1435,-0.4847 -10.105,0.4475 -14.1921,3.7594 -3.8807,3.1431 -5.8712,7.2694 -6.3363,12.2054 -0.4452,4.7248 0.6143,9.1169 3.8133,12.7122 3.1639,3.5698 7.2193,5.3736 11.9297,5.8173 2.5587,0.2409 5.0791,-0.0369 7.525,-0.8238 2.9479,-0.9542 5.3073,-3.721 6.9661,-6.2276 l 1.3138,-1.9861 -0.2418,2.3689 c -0.5486,5.3612 -1.8232,11.4265 -4.9912,15.8883 -2.578,3.6176 -6.064,5.4815 -10.5464,5.0592 -4.2198,-0.3974 -7.1399,-2.6945 -8.9173,-6.4542 z m 11.2835,-14.4356 c -3.132,-0.2948 -5.8841,-1.4973 -7.7518,-4.1079 -1.6218,-2.2671 -2.4441,-4.8484 -2.181,-7.643 0.2814,-2.986 1.5202,-5.5011 3.8309,-7.4324 2.3656,-2.0042 5.2511,-2.692 8.3007,-2.4046 3.1206,0.294 5.9501,1.4217 7.9274,3.9388 1.6696,2.1118 2.5848,4.5686 2.3295,7.2794 -0.3068,3.26 -1.5054,6.2428 -4.2532,8.1817 -2.445,1.7405 -5.2165,2.4699 -8.2025,2.188 z" style="fill:#612e25;fill-rule:evenodd" id="path28"/>
      <path d="m 316.9178,677.8414 27.3219,-2.7641 0.9307,9.1957 -40.7371,4.1216 -1.019,-10.0681 15.6651,-12.8992 c 3.1876,-2.6367 7.4444,-6.4403 9.4038,-10.1382 1.1804,-2.2272 2.1387,-4.861 1.8797,-7.4215 -0.2559,-2.5294 -1.2775,-4.6468 -3.2261,-6.2906 -1.9928,-1.6681 -4.3792,-2.2281 -6.9455,-1.9685 -6.8656,0.6946 -9.097,5.7485 -9.2394,12.1097 l -0.009,0.3971 -10.3756,-1.5043 0.015,-0.3186 c 0.2365,-5.0207 2.0037,-9.443 5.2525,-13.2783 3.544,-4.1829 8.3517,-6.1705 13.7441,-6.7161 5.4272,-0.5489 10.7562,0.3414 15.1308,3.7523 4.1365,3.2135 6.307,7.5396 6.8304,12.7142 0.4879,4.8206 -0.7875,9.2462 -3.5833,13.1934 -1.9465,2.7621 -5.1025,5.5277 -7.6776,7.697 -4.2635,3.5918 -8.8089,6.952 -13.3613,10.1865 z" style="fill:#0c160b;fill-rule:evenodd" id="path30"/>
      <path d="m 343.4012,676.1048 -29.9348,3.0282 1.8214,-1.286 c 4.914,-3.4713 9.7838,-7.0314 14.3873,-10.9092 2.5815,-2.1754 5.569,-4.7588 7.5158,-7.5212 2.6514,-3.7436 3.8796,-7.976 3.416,-12.5574 -0.4977,-4.9188 -2.54,-9.0131 -6.4735,-12.0689 -4.1814,-3.2603 -9.2898,-4.0823 -14.46,-3.5592 -5.1347,0.5193 -9.7323,2.3873 -13.123,6.3893 -2.9913,3.5308 -4.6773,7.5801 -5.0002,12.1855 l 8.4865,1.2303 c 0.3024,-6.5405 2.945,-11.641 10.0602,-12.3608 2.7973,-0.2828 5.4642,0.3599 7.6434,2.1839 2.1381,1.8035 3.2755,4.146 3.5557,6.9137 0.279,2.7583 -0.7101,5.5514 -1.9843,7.9554 -2.0459,3.8611 -6.2836,7.6501 -9.6356,10.4222 l -15.2779,12.5806 0.8736,8.6359 38.8712,-3.9326 z" style="fill:#612e25;fill-rule:evenodd" id="path32"/>
      <path d="m 380.4217,644.1721 c 2.7595,-0.1694 5.4231,0.3666 7.8977,1.7862 2.9796,1.7083 4.9393,4.2603 6.0146,7.513 1.5283,4.6233 0.8683,9.0134 -1.7652,13.094 -3.0317,4.6781 -7.8666,7.4807 -13.0559,9.1951 -5.004,1.6541 -10.2202,2.0928 -15.2471,0.2907 -4.1038,-1.4791 -7.7457,-3.8426 -10.1473,-7.5534 l -0.194,-0.2998 8.7221,-5.4618 0.1923,0.2705 c 3.5217,4.9619 8.1225,6.6819 13.9456,4.7576 2.5831,-0.8537 4.9273,-2.2659 6.3894,-4.6192 1.2144,-1.9706 1.6177,-4.0604 0.885,-6.2783 -0.7262,-2.1989 -2.1508,-3.7999 -4.1884,-4.8892 -2.4453,-1.307 -5.3018,-0.943 -7.8353,-0.1066 l -6.6737,2.2061 -2.6601,-8.0483 5.0797,-1.679 c 2.4409,-0.8062 4.7001,-2.0831 6.3102,-4.1266 1.4729,-1.8987 1.6517,-4.0372 0.9076,-6.29 -0.6902,-2.0854 -1.9122,-3.7913 -4.0323,-4.543 -2.1686,-0.7564 -4.4516,-0.5129 -6.5974,0.196 -5.1121,1.6892 -7.5361,5.3346 -7.706,10.6628 l -0.009,0.2936 -9.6954,1.4404 -0.0308,-0.3742 c -0.3669,-4.4795 0.8904,-8.5205 3.518,-12.1562 2.8749,-3.9722 6.8969,-6.5286 11.5185,-8.0563 4.5946,-1.5184 9.346,-1.8372 13.9837,-0.3417 4.3778,1.4035 7.3231,4.2919 8.7664,8.6588 1.0204,3.0901 1.0623,6.1901 -0.1284,9.2297 -0.883,2.2317 -2.2501,3.9994 -4.1641,5.2291 z" style="fill:#0c160b;fill-rule:evenodd" id="path34"/>
      <path d="m 365.9579,652.8922 5.783,-1.9117 c 2.7894,-0.9211 5.8859,-1.2657 8.5718,0.17 2.2475,1.2016 3.8344,2.9922 4.6365,5.4222 0.8197,2.4799 0.3757,4.8699 -0.9779,7.0661 -1.582,2.5461 -4.0959,4.0917 -6.8923,5.0157 -5.9934,1.9805 -10.9373,0.3198 -14.6786,-4.6579 l -7.1618,4.485 c 2.29,3.2571 5.6338,5.3499 9.344,6.6871 4.8264,1.73 9.8384,1.2869 14.6358,-0.2986 4.9782,-1.6447 9.6523,-4.3233 12.563,-8.8139 2.4693,-3.8259 3.0979,-7.9472 1.6622,-12.2904 -1.0014,-3.0285 -2.809,-5.3991 -5.5907,-6.9939 -2.8556,-1.6382 -5.9688,-2.0057 -9.1855,-1.4498 l -0.516,0.0894 -0.2928,-1.0061 0.4835,-0.2016 c 2.6077,-1.087 4.3388,-2.9951 5.371,-5.6043 1.1122,-2.8389 1.0603,-5.7161 0.1108,-8.592 -1.3496,-4.0832 -4.0727,-6.7486 -8.1633,-8.0603 -4.4495,-1.4349 -9.0031,-1.1146 -13.402,0.3393 -4.4273,1.4633 -8.2934,3.9027 -11.0534,7.7155 -2.3595,3.2656 -3.5713,6.8817 -3.3834,10.9048 l 7.9261,-1.1778 c 0.3186,-5.487 3.0224,-9.2807 8.3274,-11.0332 2.3451,-0.7749 4.8346,-1.0163 7.2029,-0.1902 2.4057,0.8531 3.8303,2.7738 4.611,5.133 0.8399,2.5423 0.609,5.0119 -1.0594,7.1624 -1.727,2.1921 -4.1351,3.5739 -6.7545,4.439 l -4.189,1.3848 z" style="fill:#612e25;fill-rule:evenodd" id="path36"/>
    </g>
    <g id="Layer1002">
      <path d="m 116.3696,308.4159 4.6455,-9.4144 0.3155,0.1562 c 5.7949,2.8705 10.5501,-0.6917 14.1319,-5.2259 1.6378,-2.0734 3.2017,-4.6896 3.2859,-7.4054 0.0739,-2.0626 -0.5408,-3.8295 -2.1818,-5.1258 -1.1296,-0.8923 -2.4162,-1.3817 -3.8494,-1.4991 -1.8821,-0.1397 -4.0828,1.2997 -5.5051,2.3882 l -8.6146,6.4901 c -2.154,1.6299 -4.9062,3.5008 -7.5103,4.3026 -2.1927,0.6619 -4.4618,0.6206 -6.6807,0.1103 -2.4121,-0.5557 -4.5966,-1.6222 -6.5399,-3.1572 -3.8278,-3.0238 -5.9205,-6.9457 -5.9915,-11.8412 -0.0756,-5.2218 2.0281,-9.8473 5.2217,-13.8902 2.7868,-3.5279 6.2057,-6.3288 10.3716,-8.0689 3.8227,-1.5904 7.6903,-1.7661 11.5125,-0.1178 l 0.3288,0.1417 -4.2615,9.4119 -0.3035,-0.106 c -4.4603,-1.556 -7.9393,0.4101 -10.73,3.9428 -1.4293,1.8094 -2.7839,4.0957 -2.7715,6.4752 0.01,1.9111 0.7071,3.4701 2.2124,4.6592 3.0218,2.387 6.8869,0.0784 9.4278,-1.8882 l 7.5814,-5.8445 c 3.3,-2.5436 7.8283,-5.332 12.1718,-5.0701 3.4232,0.2142 6.4857,1.3714 9.177,3.4974 4.1684,3.2928 6.4239,7.5622 6.3297,12.9023 -0.0889,5.7813 -2.6454,10.9499 -6.1693,15.4108 -3.1244,3.9552 -6.9459,7.2096 -11.6377,9.1408 -4.5478,1.886 -9.1054,1.682 -13.6235,-0.2296 z" style="fill:#0c160b;fill-rule:evenodd" id="path39"/>
      <path d="m 117.6542,307.9316 c 4.1035,1.5969 8.2105,1.698 12.3242,-0.008 4.5395,-1.8686 8.2374,-5.0293 11.2597,-8.8552 3.3902,-4.2916 5.8818,-9.2757 5.9676,-14.8448 0.0888,-5.0477 -2.0479,-9.05 -5.9734,-12.1509 -2.5403,-2.0066 -5.4246,-3.0953 -8.6533,-3.2972 -4.0715,-0.2456 -8.4349,2.4819 -11.5419,4.8768 l -7.5807,5.8437 c -2.9297,2.2677 -7.1545,4.5896 -10.5822,1.882 -1.7311,-1.3677 -2.5578,-3.1964 -2.569,-5.3903 -0.0134,-2.6126 1.3991,-5.0682 2.9735,-7.0613 2.8846,-3.6516 6.6065,-5.8018 11.2641,-4.4124 l 3.5135,-7.7605 c -3.4262,-1.3089 -6.8491,-1.0583 -10.227,0.3472 -4.0158,1.6772 -7.3107,4.3843 -9.9966,7.7847 -3.0511,3.8625 -5.0923,8.2963 -5.0199,13.2953 0.0671,4.6187 2.0342,8.2743 5.6353,11.1188 1.8314,1.4468 3.8928,2.455 6.1684,2.979 2.057,0.4733 4.1638,0.5207 6.1968,-0.0929 2.5118,-0.7737 5.1327,-2.5755 7.2193,-4.1545 l 8.6122,-6.4878 c 1.6491,-1.2625 3.9871,-2.7372 6.1461,-2.5766 1.6168,0.1322 3.0821,0.6907 4.357,1.6977 1.8709,1.4779 2.6217,3.5513 2.5379,5.8929 -0.0909,2.935 -1.7124,5.7086 -3.4875,7.9558 -3.6823,4.6614 -8.7177,8.3763 -14.7518,5.7331 z" style="fill:#612e25;fill-rule:evenodd" id="path41"/>
      <path d="m 160.0181,262.9752 7.6183,8.2279 -7.7704,7.1947 -7.6183,-8.2278 z" style="fill:#0c160b;fill-rule:evenodd" id="path43"/>
      <path d="m 159.9674,264.3005 -6.3943,5.9204 6.3436,6.8515 6.3944,-5.9204 z" style="fill:#612e25;fill-rule:evenodd" id="path45"/>
      <path d="m 161.721,256.2631 7.4165,-7.4302 0.2488,0.249 c 4.57,4.5756 10.2157,2.7244 15.0612,-0.4236 2.2157,-1.4395 4.5353,-3.4168 5.485,-5.9625 0.7307,-1.9303 0.7144,-3.801 -0.4249,-5.5547 -0.7842,-1.2071 -1.8463,-2.0828 -3.1663,-2.6532 -1.7382,-0.7352 -4.2841,-0.0766 -5.9801,0.499 l -10.2396,3.3885 c -2.5626,0.854 -5.7691,1.7447 -8.4928,1.67 -2.2892,-0.0753 -4.4255,-0.8413 -6.364,-2.0355 -2.107,-1.2991 -3.8348,-3.0092 -5.1839,-5.0858 -2.6575,-4.0906 -3.3836,-8.4762 -1.8827,-13.1365 1.6012,-4.9708 5.0757,-8.6788 9.396,-11.4855 3.7702,-2.4493 7.9061,-4.0074 12.4099,-4.3214 4.1307,-0.282 7.8508,0.7904 10.9436,3.5763 l 0.266,0.2395 -7.0518,7.5509 -0.2536,-0.1977 c -3.7268,-2.9028 -7.6523,-2.1548 -11.4276,0.2979 -1.9336,1.2562 -3.9492,2.9881 -4.6997,5.2461 -0.6031,1.8135 -0.4417,3.5138 0.6034,5.1225 2.0979,3.2292 6.4988,2.2803 9.5358,1.2313 l 9.0541,-3.1079 c 3.941,-1.3525 9.1238,-2.5434 13.1545,-0.904 3.1742,1.2995 5.7046,3.3768 7.5731,6.2528 2.8939,4.4546 3.663,9.2216 1.8631,14.2501 -1.9362,5.4481 -6.0137,9.5255 -10.7808,12.6225 -4.2267,2.7459 -8.8893,4.6047 -13.9526,4.9312 -4.9122,0.3298 -9.1644,-1.3234 -12.8321,-4.5816 z" style="fill:#0c160b;fill-rule:evenodd" id="path47"/>
      <path d="m 174.0535,214.0896 5.8143,-6.2261 c -2.826,-2.3375 -6.149,-3.1965 -9.7991,-2.9471 -4.3414,0.3025 -8.3297,1.8112 -11.9634,4.1721 -4.1322,2.6841 -7.4801,6.2231 -9.0149,10.9869 -1.4111,4.3818 -0.7147,8.5026 1.7769,12.3379 1.2713,1.9571 2.9016,3.5724 4.8894,4.798 1.7968,1.1072 3.7776,1.8269 5.8999,1.8967 2.6271,0.0721 5.6872,-0.7951 8.1694,-1.6227 l 10.2367,-3.3872 c 1.9667,-0.6676 4.6541,-1.3156 6.6475,-0.4721 1.4897,0.6432 2.6986,1.6417 3.5839,3.0042 1.3029,2.0057 1.3484,4.1972 0.5164,6.3955 -1.0263,2.7509 -3.4508,4.8589 -5.8522,6.4192 -4.9914,3.2427 -10.9309,5.1529 -15.811,0.7054 l -6.0541,6.0655 c 3.3744,2.8257 7.2354,4.2386 11.6771,3.9405 4.8988,-0.3162 9.4146,-2.1256 13.5028,-4.7819 4.5865,-2.9793 8.5434,-6.9025 10.4084,-12.1506 1.6986,-4.7456 0.9548,-9.2362 -1.766,-13.4243 -1.7636,-2.7147 -4.1471,-4.67 -7.141,-5.8956 -3.7785,-1.5371 -8.7857,-0.3508 -12.4959,0.9229 l -9.053,3.107 c -3.5018,1.2101 -8.2479,2.0562 -10.6276,-1.6065 -1.2012,-1.849 -1.3988,-3.8485 -0.7071,-5.9293 0.8241,-2.4793 2.9491,-4.3531 5.0787,-5.737 3.9083,-2.5388 8.1111,-3.3845 12.0839,-0.5714 z" style="fill:#612e25;fill-rule:evenodd" id="path49"/>
      <path d="m 217.6533,227.0446 4.6165,10.2188 -9.6507,4.3598 -4.6165,-10.2187 z" style="fill:#0c160b;fill-rule:evenodd" id="path51"/>
      <path d="m 217.1846,228.2852 -7.9414,3.588 3.8447,8.5093 7.9414,-3.5876 z" style="fill:#612e25;fill-rule:evenodd" id="path53"/>
      <path d="m 254.6307,213.8267 -19.8631,5.0465 -0.9344,13.6791 -8.8578,2.2504 4.1392,-58.2408 12.2304,-3.1073 31.638,49.1511 -10.9093,2.7717 z m -4.8966,-7.6285 -12.8917,-20.3805 -1.6005,24.0625 z" style="fill:#0c160b;fill-rule:evenodd" id="path55"/>
      <path d="m 271.4896,222.0175 -30.5681,-47.4878 -10.9192,2.7741 -3.9995,56.2703 6.9409,-1.7636 0.9346,-13.679 21.1752,-5.3798 7.4429,11.5508 z m -20.2726,-15.2284 -16.9961,4.3183 1.8768,-28.2216 z" style="fill:#612e25;fill-rule:evenodd" id="path57"/>
      <path d="m 300.7378,200.1337 h -13.2511 v 22.4975 h -10.5488 v -55.4284 h 24.0431 c 5.0976,0 10.938,0.8792 14.759,4.5727 3.3294,3.1897 4.7511,7.2398 4.7511,11.8174 0,7.0872 -3.2803,11.986 -9.7423,14.6992 l 9.635,24.3391 h -11.1659 z m -13.2511,-8.5997 h 11.8969 c 2.588,0 5.659,-0.3953 7.6902,-2.159 1.7792,-1.5303 2.4723,-3.5917 2.4723,-5.9052 0,-2.2205 -0.7435,-4.1022 -2.433,-5.5649 -1.9046,-1.6643 -4.4786,-2.1438 -6.9377,-2.1438 h -12.6887 z" style="fill:#0c160b;fill-rule:evenodd" id="path59"/>
      <path d="m 319.0038,221.6934 -9.4694,-23.9209 0.541,-0.2175 c 6.3184,-2.5408 9.4779,-7.1396 9.4779,-13.9621 0,-4.3094 -1.3129,-8.1234 -4.4637,-11.1416 -3.6248,-3.5042 -9.2733,-4.3107 -14.1086,-4.3107 h -23.1053 v 53.5528 h 8.6732 v -22.4975 h 14.8375 l 8.48,22.4975 z m -32.4549,-29.2216 v -17.6485 h 13.6265 c 2.6974,0 5.4683,0.5522 7.5531,2.3741 1.8982,1.6432 2.7554,3.7835 2.7554,6.2724 0,2.5822 -0.8042,4.9009 -2.7964,6.6148 -2.2205,1.9271 -5.4624,2.3872 -8.3039,2.3872 z" style="fill:#612e25;fill-rule:evenodd" id="path61"/>
      <path d="m 348.5536,181.362 -3.201,13.7632 19.7907,4.6028 -1.9573,8.416 -19.7907,-4.6027 -3.3095,14.2299 24.9775,5.8091 -2.0844,8.9624 -35.2521,-8.1987 12.556,-53.9874 34.9064,8.1182 -2.0038,8.6159 z" style="fill:#0c160b;fill-rule:evenodd" id="path63"/>
      <path d="m 362.2779,231.4169 1.6596,-7.1355 -24.9773,-5.8091 3.7341,-16.0569 19.7905,4.6029 1.5328,-6.5892 -19.7908,-4.6029 3.6257,-15.59 24.6319,5.7288 1.579,-6.7891 -33.0797,-7.6935 -12.1313,52.1607 z" style="fill:#612e25;fill-rule:evenodd" id="path65"/>
      <path d="m 409.8571,202.7101 -23.1211,-11.1462 3.6987,-7.6723 34.5087,16.6361 -3.5952,7.4576 -41.0856,22.3205 25.3198,12.2063 -3.9958,8.2887 -36.9934,-17.8339 3.5772,-7.4202 z" style="fill:#0c160b;fill-rule:evenodd" id="path67"/>
      <path d="m 404.3303,242.9495 -26.1236,-12.5935 42.4278,-23.0505 3.057,-6.3404 -32.8195,-15.8216 -2.884,5.9829 23.918,11.5305 -43.0216,23.5678 -3.0393,6.3046 35.304,17.0196 z" style="fill:#612e25;fill-rule:evenodd" id="path69"/>
      <path d="m 453.1554,231.1791 -20.2953,-15.7139 5.2144,-6.7346 30.2911,23.4533 -5.0685,6.5462 -44.8311,13.2817 22.2253,17.2083 -5.6332,7.2756 -32.4721,-25.1419 5.043,-6.5133 z" style="fill:#0c160b;fill-rule:evenodd" id="path71"/>
      <path d="m 439.3759,269.3875 -22.9313,-17.7546 46.2959,-13.7162 4.3095,-5.5653 -28.808,-22.3052 -4.0662,5.2517 20.9946,16.2552 -46.984,14.0996 -4.2848,5.5336 30.9889,23.9938 z" style="fill:#612e25;fill-rule:evenodd" id="path73"/>
      <path d="m 451.2988,297.0178 c -4.5507,-5.4426 -6.3336,-11.615 -4.664,-18.5577 1.7503,-7.2398 6.089,-13.0664 11.7421,-17.7931 5.6737,-4.744 12.2063,-7.8084 19.6715,-7.9637 7.0646,-0.1452 12.8311,2.5962 17.3552,8.0069 4.5041,5.3868 6.224,11.4858 4.6916,18.3692 -1.609,7.2726 -5.9315,13.1177 -11.5719,17.8339 -5.7313,4.7921 -12.439,8.2259 -20.0455,8.2904 -7.0191,0.0483 -12.6935,-2.8213 -17.179,-8.1859 z m 6.6918,-5.4882 c 2.3081,2.7604 5.3233,3.9524 8.8827,3.9509 4.9553,-0.002 10.796,-4.3279 14.4121,-7.3514 3.6773,-3.0747 7.562,-7.091 9.271,-11.6613 1.4302,-3.8057 0.7026,-7.2229 -1.8884,-10.3217 -6.9186,-8.2745 -16.7849,-1.9896 -23.2687,3.4317 -3.6687,3.0675 -7.8457,7.2725 -9.3405,11.9398 -1.1974,3.7028 -0.5654,7.0254 1.9318,10.012 z" style="fill:#0c160b;fill-rule:evenodd" id="path75"/>
      <path d="m 452.0183,296.4163 c 4.298,5.1403 9.7056,7.8963 16.4522,7.8497 7.3819,-0.0624 13.8932,-3.4247 19.4511,-8.0721 5.4776,-4.5797 9.6948,-10.2519 11.258,-17.318 1.4665,-6.5865 -0.199,-12.4258 -4.4956,-17.5643 -4.3311,-5.1802 -9.8428,-7.8101 -16.6163,-7.6709 -7.2554,0.1509 -13.5896,3.1472 -19.0892,7.7459 -5.492,4.5917 -9.7297,10.2501 -11.4321,17.293 -1.5922,6.6217 0.1495,12.5671 4.4719,17.7367 z m 5.2528,-4.2851 c -2.7014,-3.2311 -3.4001,-6.8964 -2.105,-10.9008 1.5558,-4.8575 5.7964,-9.1652 9.6317,-12.3722 1.6514,-1.3809 3.3749,-2.6935 5.1887,-3.8549 6.4198,-4.1114 13.8381,-6.1118 19.401,0.5413 2.7979,3.3458 3.5941,7.1354 2.0468,11.2524 -1.7716,4.7382 -5.7244,8.8551 -9.5474,12.0516 -3.8591,3.2266 -9.7942,7.5671 -15.013,7.5695 -3.8374,0.002 -7.1153,-1.3121 -9.6028,-4.2869 z" style="fill:#612e25;fill-rule:evenodd" id="path77"/>
    </g>
    <g id="Layer1003">
      <path d="m 270.0128,402.8051 c -0.241,0.3659 -0.5163,0.6816 -0.7187,1.0621 -0.4896,0.9177 -1.3901,1.318 -1.9048,1.8986 -0.6153,0.6944 -1.1021,1.4264 -1.722,2.1109 -0.9869,1.0913 -1.7435,1.6321 -2.7972,2.6551 -2.0206,1.9623 -2.33,2.8645 -3.5914,4.3599 -0.45,0.533 -0.9143,1.0297 -1.3614,1.5747 -0.6693,0.8174 -1.1893,2.0681 -1.8118,2.6565 -0.4678,0.4413 -0.9141,0.7962 -1.3405,1.2765 -0.5931,0.6672 -0.609,1.4541 -1.1319,2.1918 -0.4643,0.6555 -1.0762,1.107 -1.5366,1.7986 -0.6361,0.954 -1.0213,1.7601 -1.5008,3.0552 -0.5542,1.493 -1.0851,1.5295 -1.5557,2.225 -0.421,0.6218 -0.3794,1.8474 -0.7411,2.5196 -0.5884,1.0926 -1.2899,2.4749 -1.6714,2.9189 -0.7521,0.8754 -1.1838,-0.6049 -1.2034,-1.568 -0.0128,-0.6278 -0.1846,-1.0597 -0.1919,-1.9555 -0.016,-1.9824 0.6991,-3.4198 0.6758,-4.503 -0.008,-0.3319 -0.0217,-0.8281 -0.0243,-1.1491 -0.007,-0.938 0.4121,-1.9362 0.4335,-2.7985 0.0567,-2.301 0.2476,-5.3006 0.2205,-8.0505 -0.01,-0.9657 -0.4166,-1.0216 -0.3724,-2.6977 0.0279,-1.0856 -0.6245,-2.1346 -1.0689,-3.4921 -0.8582,-2.6282 -1.7022,-5.3197 -2.9176,-7.9228 -0.3769,-0.8072 -0.9287,-1.5027 -1.3301,-2.2543 -0.3123,-0.5844 -0.6236,-1.2044 -0.919,-1.9375 -0.4786,-1.1869 -1.5791,-2.0079 -2.3879,-2.7462 -0.4821,-0.4395 -0.6263,-1.0548 -1.0715,-1.5184 -0.5534,-0.5748 -1.1995,-1.0012 -1.7437,-1.5687 -0.485,-0.5051 -0.878,-1.0002 -1.3612,-1.475 -0.2833,-0.2784 -0.7215,-0.4123 -1.013,-0.6748 -0.2744,-0.245 -0.4014,-0.6207 -0.6839,-0.8479 -0.4751,-0.3813 -1.1076,-0.6185 -1.6121,-0.9329 -0.7378,-0.4588 -1.2956,-1.2488 -1.9498,-1.8907 -0.4865,-0.4774 -0.8918,-0.7231 -1.4426,-1.0937 -1.0884,-0.7328 -1.4595,-1.9782 -1.4956,-3.5104 -0.005,-0.2194 0.2648,-0.7043 0.2424,-0.8634 -0.1186,-0.8383 -0.7158,-0.6427 -0.9415,0.1653 -0.0922,0.3301 -0.304,0.5234 -0.3107,1.182 -0.008,0.7545 0.3781,2.0751 0.2621,2.8084 -0.1316,0.8313 -0.8278,1.2875 -1.9552,0.5437 -0.755,-0.4975 -3.1764,-2.1077 -4.2967,-3.3124 -0.7205,-0.7746 -2.898,-3.8303 -3.9758,-5.6756 -0.7278,-1.246 -1.5248,-2.085 -1.7714,-3.2628 -0.3995,-1.9004 -0.417,-3.6891 -0.8532,-4.5856 -0.4188,-0.8607 -0.4277,-2.049 0.0491,-3.2466 0.1353,-0.3398 0.1089,-0.6824 0.3497,-1.017 0.1444,-0.2005 0.5623,-0.406 0.6675,-0.5949 0.2917,-0.5236 0.3286,-1.067 -0.3126,-1.1036 -0.8547,-0.0486 -1.576,0.5704 -2.9795,2.0007 -0.6215,0.6333 -1.3386,0.8764 -1.8272,-0.2489 -0.122,-0.2815 -0.5312,-1.7074 -0.6333,-2.2649 -0.1348,-0.7375 -0.0872,-1.6685 -1.4559,-1.6513 -0.1779,0.002 -0.3959,0.3063 -0.2455,0.8427 0.0679,0.2432 0.5656,0.2319 0.5672,0.5223 0.002,0.2701 -0.3674,0.1157 -0.4651,0.3878 -0.163,0.4547 -0.0961,1.3264 -0.1157,1.638 -0.0629,1.0023 0.0488,1.9847 -0.4285,2.6327 -0.7733,1.049 -0.8088,2.0625 -0.8843,3.0593 -0.1115,1.4755 -0.4463,1.0313 -0.4309,2.9652 0.004,0.6257 0.0465,1.2848 0.0332,2.0296 -0.006,0.2669 -0.0909,0.5753 -0.0836,0.8702 0.0133,0.5591 0.1682,0.7652 0.9302,1.6617 0.609,0.7171 1.757,1.7795 1.7516,3.5856 -8e-4,0.339 -0.2447,1.2564 0.2097,2.6253 0.3481,1.0507 0.8827,2.2097 2.3858,3.7139 0.3286,0.3288 0.5597,0.6288 0.9548,0.9981 0.4758,0.4463 1.1271,0.9663 1.6147,1.3734 0.8062,0.673 2.084,1.0744 3.1539,1.898 0.8294,0.6375 1.5897,1.1632 2.3005,1.7915 0.9851,0.8715 1.8654,2.6695 2.3036,3.9868 0.4134,1.2449 1.3674,1.8936 0.092,2.9698 -0.2035,0.1721 -1.4293,0.8743 -2.3867,-0.491 -0.1664,-0.2374 -0.5254,-0.8798 -0.8025,-1.3472 -0.305,-0.5132 -0.5505,-1.3087 -1.2765,-1.3008 -0.3474,0.003 -0.777,0.1707 -0.4664,1.6987 0.1277,0.6299 0.3904,1.2201 -0.2069,2.1472 -1.3478,2.0924 -1.9949,2.576 -1.9949,4.2524 0,0.4374 0.2384,1.3034 1.0869,2.535 1.0012,1.4548 1.9424,2.4673 2.2798,2.9361 0.1907,0.2651 0.2654,0.4463 0.2547,1.4899 -0.0173,1.7899 -0.0243,6.9056 0.7915,8.619 0.8062,1.6956 1.7717,2.9254 2.8601,4.0554 0.6454,0.6701 0.4735,1.2898 0.989,2.0059 0.4534,0.6294 0.4858,0.7944 0.4795,1.1728 -0.0125,0.7305 -0.7477,1.083 -1.7176,1.4421 -2.1331,0.7908 -3.0223,1.2836 -3.7224,2.5005 -0.2881,0.5709 0.1739,0.8188 0.3039,1.4207 0.0682,0.315 -0.1666,0.7281 -0.1901,1.3358 -0.0232,0.5824 -0.1538,0.8401 0.953,1.7495 0.5847,0.48 1.9171,1.2198 2.8922,2.0403 0.3996,0.3356 0.9078,0.5168 1.3765,0.8642 0.5299,0.3935 1.0303,0.9644 1.6349,1.5421 0.7071,0.6748 1.46,1.5366 2.2474,2.7288 0.9357,1.4146 1.5912,3.4678 1.7991,4.1637 0.2016,0.6759 -0.813,1.0674 -1.398,1.614 -0.4003,0.3742 -1.1198,-0.0246 -2.1811,-0.3442 -0.7874,-0.2372 -1.7795,-1.0232 -2.6225,-0.9924 -0.2974,0.0107 -0.7469,-0.0637 -1.031,0.0935 -0.5082,0.281 -0.6043,1.1143 0.2617,1.3452 0.5379,0.1433 0.743,-0.0319 1.2848,0.2491 0.6143,0.3186 1.6714,1.0527 2.0921,1.4619 0.6359,0.6184 1.2752,1.3157 2.054,2.1114 0.3525,0.3607 0.9595,0.9219 1.2287,1.3238 0.5192,0.7749 0.8994,1.8636 1.4893,2.3538 0.5025,0.4176 1.0185,0.9495 1.5492,1.4371 0.8957,0.8226 1.6405,1.586 2.6572,2.2334 1.1992,0.7641 2.5588,1.44 3.74,1.8249 0.7333,0.2379 0.9949,0.5521 1.758,0.7283 0.5027,0.1163 0.883,0.5156 1.4452,0.6075 1.2384,0.2024 2.8032,0.0472 4.5469,0.0838 1.2254,0.0256 2.2316,-0.9229 3.3141,-1.2676 0.3397,0.2348 0.9255,0.5667 1.4582,1.3381 0.8556,1.2402 1.2489,2.4146 1.9516,3.9176 0.6127,1.3104 1.5304,2.4166 2.4606,3.6132 0.4938,0.6352 0.825,1.4539 1.4188,1.9127 0.924,0.7127 1.8884,1.7508 2.8186,3.1166 0.4761,0.6981 1.042,0.9968 1.587,1.6285 0.3617,0.4192 0.8279,1.0995 1.3802,1.515 0.5362,0.4029 1.1292,0.5776 1.58,0.9302 0.726,0.5651 2.0482,1.611 2.821,2.2571 0.6928,0.5811 0.3457,0.3071 2.0651,0.8668 0.789,0.2572 1.5223,0.7881 2.4418,1.236 0.6289,0.3079 1.4126,0.5508 2.0477,0.8297 2.7269,1.1948 3.7546,2.2023 4.6046,4.2573 0.1807,0.4372 0.3411,1.2739 0.358,2.0532 0.011,0.5055 0.1084,1.2287 -0.1282,1.9218 -0.2089,0.6113 -0.744,1.2007 -0.9059,1.5972 -0.252,0.6189 0.0606,1.8286 -0.3408,3.1079 -0.3996,1.2721 -0.8454,1.562 -0.8939,2.933 -0.0272,0.7179 0.107,1.5403 0.5155,2.5588 0.2841,0.709 0.931,2.2905 0.9545,3.2263 0.0224,0.8871 0.4724,1.6447 0.9931,2.3788 0.988,1.3945 2.2386,3.3811 3.535,5.0274 1.5061,1.9111 0.5461,1.9424 2.8774,3.911 0.7051,0.5954 1.0634,1.2919 1.7055,1.8605 0.6038,0.5361 1.4909,0.9537 2.0433,1.4663 0.2637,0.2431 0.5489,0.5957 0.7981,0.8386 0.458,0.4463 0.458,0.8782 0.833,1.3405 0.4813,0.5938 1.3209,1.2219 1.768,1.8032 0.584,0.7592 0.9582,1.5904 1.569,2.3156 0.2664,0.3168 0.5957,0.6425 0.8025,0.9916 0.1836,0.3095 0.2521,0.637 0.3933,0.97 0.3158,0.7374 0.8169,1.4736 1.1165,2.2994 0.4256,1.1715 0.5379,2.1341 1.0589,3.2641 0.1946,0.4213 0.3889,0.3612 0.543,1.0969 0.1982,0.9466 0.335,2.7363 0.3269,3.5096 -0.0125,1.1535 -0.2528,1.5311 -0.2295,2.6305 0.0559,2.5209 0.0911,7.024 0.1144,9.6472 0.6884,1.0574 1.0378,2.102 1.1655,2.9691 0.0632,0.4303 -0.0839,0.8179 -0.0476,1.1412 0.0283,0.2515 0.2265,0.4654 0.3482,0.6304 0.387,0.5244 2.2247,0.5166 3.163,0.5038 1.0452,-0.0165 1.8837,0.2442 2.891,0.4136 0.5272,0.0888 1.1015,0.0468 1.7761,0.1557 0.3154,0.0514 0.7986,0.1724 1.1057,0.2272 0.3071,0.0548 0.6092,0.2575 0.9033,0.3115 0.5881,0.1087 1.1475,0.0674 1.6575,0.1518 0.7448,0.123 1.3878,0.3507 1.8725,0.34 0.8503,-0.0199 2.1963,0.3418 2.8358,0.3131 0.2682,-0.011 0.9203,0.2883 1.2794,0.1695 0.4508,-0.1512 0.5137,-0.3309 -0.0791,-1.1245 -1.6142,-2.161 -1.2026,-2.7249 -2.0195,-4.0492 -0.5254,-0.8511 -0.7197,-2.0189 -0.9699,-3.1957 -0.2358,-1.112 -0.9637,-2.3877 -1.6312,-3.2947 -0.4706,-0.6406 -1.3982,-1.9685 -1.9965,-2.6916 -0.7153,-0.8639 -0.7377,-1.2776 -0.4463,-1.9631 0.3714,-0.7741 0.9292,-0.7798 2.1853,-0.4197 0.738,0.211 1.7834,0.679 2.1289,0.5304 0.7783,-0.3353 0.0969,-0.8699 -0.9025,-1.5865 -0.556,-0.3975 -1.119,-1.6625 -1.6103,-2.6162 -0.7064,-1.3692 -1.435,-4.0847 -2.0892,-5.7166 -0.3267,-0.8151 -0.8889,-0.907 -1.0851,-1.8317 -0.2112,-1.0023 -0.7737,-1.6267 -1.2423,-2.7045 -0.8153,-1.8769 -1.6131,-3.2443 -2.4626,-3.9713 -0.5469,-0.4678 -0.9501,-1.0329 -1.5492,-1.7887 -0.5721,-0.7197 -1.6606,-1.5347 -2.0897,-2.2835 -0.709,-1.236 -1.3423,-1.9487 -2.2986,-2.9868 -1.0321,-1.1211 -0.9564,-1.488 -1.4891,-2.2294 -0.602,-0.8367 -0.8214,-0.6351 -1.6933,-2.8251 -0.2312,-0.5793 -0.6845,-1.1029 -0.7198,-1.8156 -0.0214,-0.4499 -0.0566,-0.5293 -0.1828,-0.961 -0.2032,-0.6965 -0.5272,-1.5223 -0.5829,-2.3122 -0.0522,-0.754 -0.009,-1.3029 -0.3752,-1.6915 -0.8438,-0.8908 -0.2419,-1.5742 -0.279,-2.3911 -0.0268,-0.5769 -0.106,-0.96 -0.1987,-1.4139 -0.0927,-0.4541 -0.0533,-0.9801 -0.136,-1.8429 -0.0348,-0.3628 -0.3709,-0.6858 -0.4132,-0.9833 -0.1065,-0.7503 -0.2705,-1.3553 -0.087,-2.0931 0.0834,-0.3348 0.3265,-0.8459 0.4155,-1.2627 0.0525,-0.2462 -0.1781,-0.5137 -0.1083,-0.8043 0.2373,-0.9861 0.5883,-1.211 1.7246,-1.211 0.5377,-10e-4 1.1209,0.0368 1.7957,0.2066 0.5959,0.1499 1.4118,0.5168 2.1874,0.7244 0.351,-0.003 0.5831,-0.345 0.9657,-0.4021 0.3826,-0.0572 1.2805,0.0242 1.6474,-0.01 0.9542,-0.6152 1.3224,-0.6918 2.1717,-1.1057 1.4773,-0.7179 3.2252,-1.6499 4.7989,-2.7494 1.364,-0.9555 1.9156,-1.7771 3.2921,-2.8369 0.725,-0.5578 1.4755,-1.119 2.2203,-1.7003 0.6343,-0.4949 1.7761,-0.7756 2.8204,-1.7364 0.3322,-0.304 0.6597,-0.6064 0.9825,-0.907 0.4139,-0.3849 0.9655,-0.6928 1.3588,-1.0689 1.4078,-1.3368 1.0148,-2.5431 2.9418,-3.9431 0.3787,-0.2734 1.7422,-0.9642 2.1,-0.9694 1.0132,-0.0162 0.7693,2.2051 0.7907,3.7418 0.009,0.6635 0.2369,0.961 0.1032,1.7533 -0.0799,0.4751 -0.3181,0.9726 -0.3999,1.4868 -0.0436,0.2729 0.0254,0.5547 -0.0566,0.8336 -0.3562,1.2096 -0.9506,2.3796 0.8746,2.6457 0.2042,0.0258 0.4108,-0.0857 0.6199,-0.0488 0.3487,0.0613 0.5584,0.4212 0.9214,0.4564 0.4539,0.0439 1.0153,-0.1744 1.3836,-0.0665 0.3679,0.1078 0.692,0.3987 0.9649,0.5836 0.3218,0.2181 0.7059,0.3393 1.0428,0.5563 1.4431,0.7845 2.6243,0.5372 3.8982,1.3 0.6027,0.3617 2.1193,1.6116 2.6985,1.822 0.7874,0.2897 0.8323,0.2056 1.0757,-1.1681 0.1932,-1.0911 0.2747,-4.5137 0.316,-7.0203 0.0154,-0.9626 -0.2437,-2.1197 -0.6694,-3.2317 -0.4463,-1.1679 -1.2169,-3.156 -1.5499,-3.8165 0.2724,-0.4617 1.2953,-1.5726 1.8479,-2.0484 -0.0796,-0.7454 -0.0559,-0.1711 0.0321,-3.6204 0.0298,-1.1175 -1.2028,-2.3833 -1.873,-3.133 -0.5875,-0.6579 -1.4044,-1.3969 -2.2511,-2.0514 -0.4831,-0.3729 -0.9085,-0.768 -1.4763,-0.9816 -1.276,-0.4795 -2.2096,0.0112 -4.1126,0.5505 -1.9046,0.5403 -3.929,1.0514 -5.9271,2.6016 -1.1156,0.8659 -2.3151,1.8534 -3.4072,2.5517 -2.2376,1.4303 -2.6081,0.8007 -4.6811,2.1772 -0.4336,0.2878 -1.4782,0.7863 -2.6711,1.5115 -0.7197,0.4372 -1.1929,0.8386 -1.8696,1.1802 -0.6756,0.3403 -1.5538,0.7675 -2.2456,0.996 -0.4678,0.1528 -1.252,-0.1227 -1.7262,-0.6623 -0.5999,-0.6839 0.0303,-1.552 0.6411,-2.0738 0.9239,-0.7881 0.7273,-2.9105 0.8012,-3.9595 0.0564,-0.802 0.3204,-1.6249 0.434,-2.4792 0.129,-0.968 -0.0376,-2.1255 -0.007,-3.1946 0.0151,-0.5163 0.1042,-0.988 0.216,-1.2366 0.246,-0.5473 0.6048,-0.581 0.5379,-1.6204 -0.0209,-0.3319 -0.2133,-0.719 -0.2601,-1.1441 -0.1196,-1.0867 -0.1021,-2.4259 0.1494,-3.7428 0.3061,-1.5949 1.0475,-4.6203 1.0394,-6.0982 -0.008,-1.4948 0.7242,-2.7102 1.1399,-4.1541 0.3878,-1.3538 0.7882,-3.1338 1.4476,-4.4357 0.411,-0.8114 1.0148,-1.6512 1.4744,-2.5047 0.4816,-0.8926 0.8224,-1.7975 1.41,-2.5752 0.9151,-1.2081 1.9719,-2.805 2.9985,-3.894 1.4136,-1.4993 2.8855,-2.8351 4.3095,-4.0424 2.7218,-2.3062 3.7716,-4.4362 6.1225,-6.3413 1.1822,-1.1117 2.5057,-2.0369 3.4952,-2.87 0.6775,-0.5701 1.1222,-1.1063 1.562,-1.598 0.4183,-0.4669 1.2433,-0.883 1.8184,-1.5037 0.6737,-0.726 0.5847,-1.3491 1.4888,-2.0239 1.1796,-0.8804 2.4329,-2.5053 3.9541,-4.6955 0.415,-0.597 1.3018,-1.7738 2.1845,-2.7437 0.3518,-0.3855 0.3797,-0.7534 0.6981,-1.1263 0.423,-0.4954 0.9242,-1.0585 1.1608,-1.3204 l 1.4259,-1.5813 c 0.2925,-0.3238 0.2771,-0.585 0.627,-0.9921 0.6524,-0.7592 1.4497,-1.6359 2.1018,-2.5212 0.5875,-0.797 1.0302,-1.605 1.6149,-2.2931 0.2737,-0.3231 0.485,-0.5722 0.7584,-0.894 0.4077,-0.4792 0.5299,-1.0446 0.9161,-1.5376 1.8936,-2.4157 4.0251,-5.5516 6.0647,-7.886 0.5505,-0.6304 0.9624,-1.3395 1.4915,-1.9991 0.4102,-0.5121 1.0832,-0.8357 1.5123,-1.3016 1.0203,-1.1081 1.9336,-2.6024 2.9601,-3.6663 0.8519,-0.8816 1.82,-1.3392 2.6685,-2.219 0.5813,-0.6025 1.183,-1.1284 1.7607,-1.7398 0.7396,-0.7845 1.0626,-1.5995 1.7876,-2.435 0.7395,-0.8511 1.6288,-1.7682 2.5825,-2.5856 0.4264,-0.3649 0.8404,-1.2371 1.2919,-1.5622 0.4615,-0.3314 1.2661,-0.2641 1.7338,0.0553 0.3455,0.2353 1.0469,1.6505 1.4716,1.9785 1.0472,0.807 1.6042,2.2702 1.6384,3.6162 0.0314,1.1864 -0.2998,2.401 -1.768,3.3419 -1.4243,0.912 -2.7313,1.3436 -4.6618,2.3099 -0.429,0.6521 -0.5379,0.516 -0.0684,1.9208 0.4581,1.3679 1.3423,3.0087 2.1161,4.5691 0.7503,1.5102 1.293,3.01 2.4112,4.0314 0.7422,0.6792 2.2726,2.3122 3.1075,2.6295 1.0696,0.4053 1.161,1.077 2.3613,-0.2721 0.4257,-0.4779 0.7315,-1.1841 1.1937,-1.7599 0.3259,-0.404 0.8459,-0.8655 1.0861,-1.4904 0.2024,-0.5257 0.2907,-1.106 0.4652,-1.5533 0.3201,-0.82 0.762,-1.3525 0.9968,-1.9271 0.2789,-0.6803 0.5108,-1.9194 0.7834,-2.2302 0.5505,-0.6291 1.4353,-0.4254 1.9093,-0.1491 0.3842,0.2254 0.7153,0.7683 0.0162,1.6962 -0.51,0.6774 -0.4803,1.5196 -0.7584,2.4919 -0.4865,1.9523 -1.399,4.5074 -2.195,6.2655 -0.3032,0.7412 -0.574,1.1731 -0.574,1.8534 0,0.6027 0.4931,1.1608 0.7845,2.0213 0.2654,0.7837 0.3698,1.7928 0.8054,2.675 0.3364,0.6811 0.6785,0.9302 1.3254,1.6105 0.5902,0.6202 0.8699,1.2958 1.4107,1.9247 0.7422,0.8605 2.0955,1.6586 2.7612,2.342 0.8294,0.8524 1.4389,1.9009 1.932,2.2365 0.546,0.3706 0.6288,1.0363 1.2381,-1.2313 0.2969,-1.1044 0.6844,-2.0618 1.1164,-2.9458 0.8978,-1.8393 1.8677,-1.6959 2.2213,-4.6814 0.2996,-2.5188 1.0282,-4.163 0.9762,-6.3862 -0.0154,-0.6328 -0.3285,-1.6761 0.3831,-2.1341 0.8026,-0.5163 3.0461,-0.0763 3.7938,-1.3625 0.5549,-0.955 0.6382,-1.4052 0.6445,-2.677 0.007,-1.5847 -0.2826,-3.4344 -0.9015,-5.0248 -0.5207,-1.3361 -1.2055,-2.7489 -1.8766,-4.2388 -0.3698,-0.82 -0.6417,-1.5619 -1.0402,-2.4292 -0.3194,-0.6962 -0.9582,-1.2321 -1.3162,-1.966 -0.2366,-0.4857 -0.2429,-1.2676 -0.4643,-1.7627 -0.3949,-0.8835 -0.5803,-1.7874 -1.1624,-2.7118 -0.4372,-0.6937 -0.7628,-1.8114 -1.1848,-2.2634 -0.7665,-0.8234 -1.3243,-3.0273 -1.7221,-4.1296 -0.8124,-2.2493 -1.7776,-5.2761 -2.9536,-6.3833 -1.7959,-1.6915 -3.2947,-3.9588 -7.3603,-3.9695 -2.2242,-0.005 -2.8941,0.8309 -3.8008,0.8252 -1.1067,-0.007 -2.0221,-0.6814 -2.3992,-1.5946 -0.2374,-0.5748 -0.2922,-1.3261 -0.8762,-2.1373 -0.9636,-1.3389 -2.3096,-2.9507 -4.0363,-3.7125 -0.5751,-0.2538 -1.1937,-0.1538 -1.8539,-0.264 -0.3763,-0.0627 -0.7683,-0.2434 -1.1734,-0.2429 -1.0417,10e-4 -1.0375,0.8153 -2.4995,0.9772 -1.0662,0.1178 -2.044,0.6675 -3.0687,1.1849 -1.7887,0.9025 -4.1351,1.8889 -5.1275,2.6441 -1.7231,1.3131 -2.6272,1.9524 -5.6106,2.8845 -0.3562,0.112 -1.1169,-0.0995 -1.4444,-0.1074 -1.0472,-0.0237 -1.7327,-0.6074 -2.9231,-0.7056 -1.8003,-0.1481 -1.5583,-0.5832 -5.6941,-0.6385 -1.3993,-0.0183 -2.6397,0.0389 -3.5376,-1.3423 -1.0438,-1.6064 -0.7226,-2.7043 -1.7238,-3.2652 -1.3891,-0.7793 -1.8939,-1.4058 -3.8194,-1.2003 -2.0926,0.2231 -3.9037,-0.1705 -4.6811,-1.6366 -0.626,-1.1807 -0.8106,-2.3235 -1.8111,-3.4174 -0.51,-0.5584 -0.8239,-1.2744 -1.4042,-1.7975 -0.9313,-0.8404 -1.446,-0.8921 -3.3064,-1.4706 -2.4859,-0.7732 -2.101,-1.1093 -3.0931,-1.8027 -0.6704,-0.4672 -1.3136,-0.4951 -2.055,-1.1705 -1.4431,-1.312 -2.6217,-2.0633 -3.2064,-2.6225 -0.953,-0.9088 -1.8093,-1.7656 -2.5776,-2.5736 -0.8054,-0.8488 -2.8181,-1.7677 -4.0975,-2.4778 -1.5546,-0.8618 -2.6809,-1.6194 -3.4411,-2.2895 -1.2651,-1.117 -0.9392,-3.5214 -0.2273,-4.6705 0.2531,-0.4087 1.0577,-0.9385 2.0929,-1.213 0.8054,-0.2134 1.751,-0.2155 2.686,-0.2593 0.9513,-0.2113 1.7444,-0.9616 2.5107,-1.1828 0.7664,-0.2214 1.5099,-0.357 2.3621,-0.8038 1.1895,-0.6239 2.6415,-1.3862 3.9413,-1.8503 1.7638,-0.6299 3.4939,-2.1336 4.7033,-2.0746 2.7922,0.1369 4.5245,0.2108 7.2182,-0.013 l 2.9965,-1.4102 c 0.4103,-3.5794 -0.5761,-5.088 -1.8829,-6.2967 -0.3366,-0.3115 -0.2544,-0.8892 0.3074,-1.4598 0.5178,-0.5265 1.553,-1.3467 2.5389,-2.3519 0.6983,-0.7122 0.7605,-1.6181 0.7236,-2.4279 -0.0368,-0.8099 -0.1723,-1.5239 -0.4554,-1.8532 0.1867,-0.364 0.1293,-0.7751 0.1413,-1.1921 0.0188,-0.6526 0.0258,-1.4711 -0.2144,-2.0127 -0.309,-0.6963 -0.9331,-1.0331 -1.6035,-0.988 -2.172,-0.0138 -3.5543,0.2249 -5.7971,0.6981 -2.2069,-0.006 -8.0317,0.4262 -10.0334,0.3988 -1.9902,-0.028 -3.2111,-0.2465 -4.6182,-0.8435 -1.2055,-0.5098 -1.5376,-1.674 -2.9951,-2.8576 -0.3348,-0.2721 -0.861,-0.9299 -1.2243,-1.2232 -2.2898,-0.006 -4.0701,0.4466 -5.7367,0.432 -0.8717,-0.008 -0.7195,-0.0967 -1.1883,-0.754 -0.5364,-0.7539 -0.6293,-2.0268 -1.2133,-2.5796 -0.2653,-0.251 -0.6325,-0.005 -1.1887,-0.1063 -0.5524,-0.1006 -0.7098,-0.4537 -1.1355,-0.4359 -0.9373,0.0389 -1.9046,0.7487 -3.443,1.9411 -0.7775,0.6023 -1.7625,1.1844 -2.6868,1.4967 -1.1072,0.3745 -1.6632,0.7075 -3.4059,-0.2476 -0.6542,-0.3575 -2.3083,-2.05 -2.9931,-3.1181 -0.6272,0.3828 -1.3125,2.0166 -1.4274,2.4091 -0.164,0.5633 -0.1549,1.0496 -0.1954,1.6124 -0.0702,0.9699 -0.1052,1.9549 -0.1052,2.4166 0,0.4902 0.0423,1.0225 0.2447,1.6082 0.2141,0.6176 0.2815,1.3523 -0.0298,2.26 -0.4784,1.3954 -1.5423,1.0185 -3.0936,0.5926 -0.7962,-0.2189 -2.2258,-0.3617 -3.4116,-0.6056 -1.6787,-0.3455 -2.3392,-0.7519 -3.6285,-0.772 -0.9806,-0.0154 -1.8307,-0.3512 -2.536,-0.7793 -0.3933,-0.2379 -0.8331,-0.317 -1.1499,-0.4847 -0.7325,-0.3896 -1.2146,-0.9709 -1.6698,-1.2561 -0.8808,-0.5497 -0.9749,0.1405 -0.5142,1.2924 0.2502,0.6271 0.7547,1.8733 -0.064,2.4637 -0.8323,0.6007 -2.8776,-0.0953 -3.4741,-0.0953 -0.9573,0 -0.3551,0.8986 0.702,2.1955 0.3933,0.4826 0.3742,0.6484 -0.3032,0.9062 -0.1708,0.0648 -1.2068,0.8386 -2.0182,0.8574 -1.2352,0.029 -2.7846,-0.2818 -3.3153,-0.2212 -2.3015,0.265 -1.6241,0.9365 -0.5578,1.166 0.5119,0.1097 0.9428,0.4952 2.0602,0.4758 0.2633,-0.004 0.6798,-0.1162 1.1329,-0.0224 0.7555,0.1561 1.6147,0.6241 2.0396,1.2034 0.5137,0.7011 1.1049,1.2511 0.007,1.9212 -1.3441,0.8211 -5.141,2.0613 -7.3572,2.9743 -1.9071,0.7863 -2.4736,1.5614 -2.5049,2.3015 -0.0173,0.3985 0.7375,0.3933 1.4167,0.4121 1.0535,0.0303 2.2446,-0.8602 3.595,-0.8788 1.076,-0.0148 1.7033,0.6349 2.4068,0.8942 0.725,0.2672 1.3666,0.8195 0.68,1.3074 -2.4153,1.7157 -5.598,1.67 -6.4966,2.4339 -0.7234,0.615 -0.0554,1.0759 -0.4719,1.7108 -0.5281,0.8028 -0.7312,1.5199 -0.6936,2.4898 0.0243,0.6451 0.2925,2.2402 0.3167,3.1286 0.0296,1.1219 -0.563,1.8346 -1.4052,2.6632 -0.8179,0.8031 -0.5704,1.2037 -1.7132,2.3342 -0.4766,0.4719 -1.1334,1.8983 -1.8314,3.0085 -0.3852,0.6124 -0.3925,0.8487 -0.3278,1.2289 0.1045,0.6135 0.3233,0.684 1.3768,0.1572 0.9133,-0.4562 1.1958,-1.5486 1.8438,-1.8808 1.3449,-0.6902 3.7827,-1.7384 4.2706,-1.8622 0.7583,-0.1925 1.9429,0.8531 0.7607,2.0691 -0.6884,0.709 -0.9652,1.0931 -1.388,1.8844 -0.4832,0.9028 -1.1292,2.0767 -1.6231,3.3229 -0.1642,0.4153 -0.182,0.8391 -0.3447,1.2632 -0.1859,0.4847 -0.579,0.9616 -0.7158,1.4567 -0.1063,0.385 -3e-4,0.7816 0.1057,1.2018 0.1259,0.5035 1.3069,0.0826 2.0564,-0.2535 0.7871,-0.3531 0.9673,-0.9848 1.9471,-1.3157 0.2447,-0.0831 1.4141,-0.2199 2.1224,0.4878 0.3867,0.3868 1.1462,1.3227 0.2086,1.8341 -0.6693,0.3653 -2.2837,1.0127 -2.881,2.22 -0.468,0.9464 -0.5278,2.0064 0.0392,3.4791 0.1546,0.4014 0.1428,0.6693 0.1358,1.0825 -0.0172,0.9806 -0.4327,1.4687 -0.439,2.7807 -0.002,0.8547 -0.8673,1.5327 -1.4528,2.3718 -0.3985,0.5711 -1.182,1.4977 -0.914,1.8408 0.2583,0.3296 0.6991,0.321 1.7327,-0.3136 0.2844,-0.1752 1.4878,-1.0083 2.1798,-1.329 1.2802,-0.5931 2.207,0.0843 1.7088,1.3833 -0.2925,0.7628 -1.5171,1.7972 -1.5226,3.1451 -7e-4,0.236 0.1954,0.7024 0.1708,1.0592 -0.0258,0.404 -0.1277,0.7064 -0.1277,1.0485 -7e-4,0.7657 0.5973,1.1493 1.0653,1.8202 0.9976,1.4301 1.5718,1.2491 2.0811,3.2861 0.1549,0.6147 0.2259,2.7659 0.334,3.1526 0.223,0.8051 0.2494,0.9605 1.0629,0.1337 0.34,-0.346 0.3985,-0.6273 0.627,-1.0524 0.422,-0.7845 1.3708,-2.1054 3.0038,-2.0704 1.717,0.1337 2.2482,0.0647 3.3641,1.734 0.2844,0.4247 0.2492,1.3157 -0.2447,1.7764 -0.6638,0.6199 -1.9607,0.9231 -2.5384,1.4183 -0.3705,0.3173 -0.9174,0.3933 -1.278,0.7289 -0.3547,0.3301 -0.6921,0.7004 -1.0762,1.0835 -0.3401,0.3392 0.562,0.5416 1.1793,0.6179 0.6469,0.0799 1.6959,0.188 2.4867,0.9022 0.4562,0.4129 1.2339,1.0279 2.0814,1.8169 0.2959,0.2757 0.1512,0.628 -0.1719,1.0994 -0.3222,0.4693 -1.8113,1.8451 -2.2631,3.6642 -0.0998,0.3986 0.0676,1.821 1.9137,0.3523 0.4589,-0.3648 1.6051,-1.4851 2.5371,-1.4765 0.6262,0.006 1.4405,0.3191 2.5734,0.4599 1.1705,0.1457 2.7113,0.2797 3.7757,0.5594 0.7271,0.1916 1.5646,0.6173 2.423,1.4201 0.6432,0.603 1.2023,0.9848 1.6233,4.5453 0.0919,0.7723 0.0883,1.7544 0.1071,2.4705 0.0451,1.7004 -0.1458,2.2464 -0.4696,2.8471 -0.9203,1.7051 -2.1412,3.4182 -3.5122,5.0071 -0.3977,0.4593 -0.5361,0.8926 -0.8736,1.3851 -0.2799,0.4079 -0.7565,0.8785 -1.0994,1.2567 -0.8025,0.885 -1.1895,1.916 -1.9649,2.7739 -0.4032,0.444 -0.7683,0.8984 -1.2172,1.3554 -0.5949,0.6069 -1.2543,1.2028 -1.5351,1.6301 z" style="fill:#0c160b;fill-rule:evenodd" id="path80"/>
      <path d="m 307.3857,548.4592 c -0.527,-0.7687 -1.4929,-2.408 -1.954,-3.2463 -0.3357,-0.6087 -1.4854,-1.2328 -2.1629,-0.6453 -1.2282,0.7535 -0.795,1.5278 -0.4968,2.3347 0.2321,0.6272 0.3262,1.4224 -0.1332,2.0965 -0.7601,1.1118 -1.1983,0.5595 -1.1542,1.7655 0.0271,0.751 0.0687,2.1929 0.9169,2.9582 0.3298,0.2975 0.8112,0.3037 1.3831,0.3923 0.572,0.0887 1.2341,0.2598 1.9253,0.3014 0.6127,0.0367 1.6239,-0.004 2.3782,-0.2525 0.6319,-0.206 1.0949,-0.2986 1.0603,-1.1192 -0.0528,-1.206 -0.5013,-1.5952 -0.9266,-2.6163 -0.3549,-0.8495 -0.6118,-1.7358 -0.8361,-1.969 z" style="fill:#ffffff;fill-rule:evenodd" id="path82"/>
      <path d="m 295.8308,455.4267 c 0.009,-0.4061 0.3038,-1.0919 0.338,-2.091 0.0455,-1.3266 -0.6014,-3.285 -0.8897,-4.0762 -0.1059,-0.29 -0.5217,-0.8354 -0.9536,-1.5086 -0.286,-0.446 -0.666,-0.4631 -0.6734,-0.7339 -0.0123,-0.4563 0.9265,-0.4034 0.9365,-0.8424 0.0149,-0.6359 -0.2728,-0.8152 -1.0404,-2.2749 -0.514,-0.977 -1.4692,-0.3926 -1.7555,0.4852 -0.2108,0.6461 -0.164,1.6752 0.1065,2.9051 0.0784,0.3567 -0.0685,0.8063 0.0668,1.1219 0.135,0.3157 0.4097,0.5012 0.4513,0.9154 0.0833,0.8289 -0.0206,2 -0.0374,2.8967 -0.0236,1.2526 0.1769,3.4822 0.1769,5.4941 0,0.6364 -0.4129,1.1135 -0.5178,1.8615 -0.0627,0.4487 0.1714,0.9961 0.1469,1.7343 -0.0569,1.6884 0.0484,0.8881 -0.4555,1.926 -0.1166,0.2395 0.0916,0.6148 0.0345,1.0515 -0.0575,0.4366 -0.3825,0.9364 -0.3951,1.4232 -0.0255,0.9745 0.0229,1.9036 0.0907,2.199 0.1733,0.7626 0.8196,1.3261 1.9453,-0.0197 0.2286,-0.2735 0.1385,-0.7142 0.3212,-1.2369 0.234,-0.6683 0.8038,-1.474 1.0669,-2.243 0.2631,-0.7691 0.3655,-1.5022 0.5427,-2.026 0.2189,-0.6467 0.0868,-1.1937 0.2027,-1.6655 0.1172,-0.4784 0.3458,-0.8816 0.4013,-1.2347 0.2408,-1.5332 -0.1521,-2.1521 -0.1098,-4.0611 z" style="fill:#ffffff;fill-rule:evenodd" id="path84"/>
      <path d="m 300.4028,529.4566 c -0.6703,-0.7832 -1.3552,-1.6293 -1.5603,-1.929 -0.5397,-0.7869 -0.9753,-1.6665 -1.5583,-2.3412 -0.3038,-0.353 -1.0494,-1.2581 -1.993,-0.6389 -0.722,0.4714 0.003,2.3787 0.3133,3.3983 0.3472,1.1418 0.9714,2.7414 1.935,4.337 0.8952,1.4813 2.0166,1.5443 3.4906,0.7771 0.719,-0.3747 0.783,-1.3116 0.2607,-2.0177 -0.3594,-0.485 -0.513,-1.1479 -0.888,-1.5856 z" style="fill:#ffffff;fill-rule:evenodd" id="path86"/>
      <path d="m 304.6839,436.679 c -0.0855,-0.4887 -0.9698,-0.9448 -1.4135,-0.3538 l -2.8911,3.8492 c -0.0909,0.1212 -0.1567,0.9061 -0.1567,1.4198 0,0.6264 -0.4928,0.9643 -0.667,1.1604 -0.5603,0.6312 -0.3776,1.2348 -0.3887,2.0676 -0.0256,1.9188 1.6584,3.1538 3.7288,1.6106 0.5872,-0.4374 1.1576,-0.891 1.1576,-2.2675 0,-0.1984 -0.2619,-0.818 -0.2179,-0.991 0.1333,-0.522 0.8377,-0.8619 0.7962,-1.7357 -0.0532,-1.1157 0.2936,-0.8348 0.2936,-1.833 0,-0.575 -0.5444,-0.6395 -0.5162,-1.131 0.0269,-0.4696 0.4165,-0.9853 0.2749,-1.7956 z" style="fill:#ffffff;fill-rule:evenodd" id="path88"/>
      <path d="m 309.7453,417.9771 c -0.9446,0.7332 -1.7676,1.5409 -2.7529,2.6334 -0.5497,0.6114 -0.5078,1.1002 -1.3675,1.9277 -1.1353,1.0906 -1.0085,1.6433 -2.2816,2.7438 -0.8634,0.7454 -0.5796,2.0021 -1.6275,3.0791 -0.6673,0.6865 -1.2142,0.9426 -1.7602,2.0481 -0.2464,0.5008 -0.6987,1.0824 -1.2464,1.0745 -0.8566,-0.0133 -0.3983,-0.7027 -1.1234,-1.5311 -0.4634,-0.5295 -1.0563,0.0693 -1.0939,1.29 -0.0425,1.3746 0.1547,2.9914 0.1878,4.0757 0.0342,1.0688 1.3101,0.8119 1.892,0.1983 0.4756,-0.501 0.7321,-1.0031 1.3169,-1.6693 0.8283,-0.6498 1.3616,-1.169 2.2581,-2.4468 0.6979,-0.9969 1.9237,-2.3545 2.7707,-3.6893 0.5689,-0.8984 0.5768,-1.4441 1.2093,-2.3474 0.6383,-0.9124 1.3964,-1.735 2.1314,-2.498 0.572,-0.5927 0.6246,-1.2405 1.1092,-1.7856 0.7491,-0.8425 1.0351,-1.4077 1.6547,-2.0386 0.8863,-0.9024 0.211,-2.2199 -1.2767,-1.0645 z" style="fill:#ffffff;fill-rule:evenodd" id="path90"/>
      <path d="m 331.4434,474.6412 c 0.3915,-0.1865 1.4931,-1.5185 1.909,-2.2561 0.2349,-0.416 0.1278,-0.88 -0.2158,-1.3114 -0.2458,-0.3098 -0.4681,-0.6328 -0.6169,-0.8609 -0.9593,-1.4554 -2.4508,-1.7 -3.0112,0.2976 -0.2473,0.8825 0.004,1.9505 0.0432,2.3295 0.0537,0.5228 0.4675,1.0469 -0.0324,1.5412 -0.2615,0.2585 -0.4832,0.5591 -0.6876,0.6637 -0.4501,0.2298 -0.8218,0.0753 -1.373,0.4165 -1.2232,0.7544 -1.2328,1.494 -0.6147,2.4365 0.4212,0.6406 1.0831,1.5864 1.0701,3.8271 -0.004,0.5942 0.0726,1.4209 -0.117,1.6253 -0.2464,0.2656 -0.5776,0.6342 -0.9284,1.0126 0.3066,0.3763 1.7262,2.1994 3.3249,2.8018 1.1658,0.4391 1.1692,0.2775 2.0285,-0.6024 0.4711,-0.4847 1.4433,-1.5147 0.5498,-3.2103 -0.3288,-0.6215 -0.6054,-2.0223 -0.9339,-3.4343 -0.3066,-1.3152 -0.7342,-2.2813 -1.0352,-3.4613 -0.285,-1.1197 -0.6209,-1.2146 0.6406,-1.8151 z" style="fill:#ffffff;fill-rule:evenodd" id="path92"/>
      <g id="Layer1004">
        <path d="m 311.1777,296.5834 c -0.3649,0.005 -0.6042,0.241 -1.6008,0.2602 -0.9189,0.0184 -1.0739,-0.2673 -1.5148,-0.2694 -1.1147,-0.007 -0.8225,2.1962 -0.5616,3.1038 0.3108,1.0851 0.5187,1.3214 1.7505,0.6918 1.1297,-0.577 1.8268,-0.9999 2.5839,-1.7189 0.608,-0.5776 0.4962,-0.9014 0.5125,-1.2773 0.0213,-0.4551 -0.9792,-0.7935 -1.1697,-0.7902 z" style="fill:#ffffff;fill-rule:evenodd" id="path94"/>
        <path d="m 293.0493,372.1251 c -0.3906,-0.7996 -0.8373,-1.3214 -1.279,-1.0112 -0.4248,0.2985 -0.3077,0.7123 -0.8584,1.2322 -0.6295,0.5934 -0.6438,0.991 -0.7544,1.929 -0.023,0.1949 0.1492,0.7556 -0.008,1.0911 -0.1577,0.3355 -0.3526,0.7394 -0.5226,1.2066 -0.1547,0.4241 0.058,0.9032 -0.2767,1.431 -0.1369,0.2154 -0.7488,0.9053 -0.8522,1.9497 -0.1571,1.5765 0.005,1.2639 -1.3567,3.0811 -0.2956,0.3941 -1.4858,1.9441 -1.8426,2.6365 -0.2772,0.5377 -0.4144,2.0065 1.107,1.2585 1.6415,-0.8069 1.7689,-1.0407 2.4767,-1.8397 0.582,-0.6565 1.6067,-1.6517 2.1387,-2.3517 0.4211,-0.5536 0.443,-1.4358 0.815,-2.2132 0.3598,-0.7537 0.8397,-0.8584 1.0425,-2.037 0.5301,-3.0797 1.1299,-4.3959 0.1711,-6.3629 z" style="fill:#ffffff;fill-rule:evenodd" id="path96"/>
        <path d="m 324.1304,297.8829 c 0.2056,-1.0398 0.0596,-1.613 -0.7971,-1.9822 -0.649,-0.2794 -1.3535,-0.346 -2.4552,-0.0748 -1.5124,0.3711 -2.7263,1.1336 -1.815,2.3888 0.4523,0.6227 1.0271,1.2472 2.6302,1.2479 1.3935,10e-4 2.1332,-0.0311 2.4371,-1.5797 z" style="fill:#ffffff;fill-rule:evenodd" id="path98"/>
        <path d="m 327.8825,402.1017 c 0.4795,-1.0175 1.101,-2.3813 1.0815,-3.2496 -0.0455,-2.014 -1.5169,-1.2028 -2.2742,-0.2954 -0.4023,0.4822 -1.1641,0.714 -1.5348,1.3506 -0.1361,0.2332 -0.2945,0.8273 -0.4586,1.1451 -0.3612,0.7001 -0.7537,1.3406 -1.0069,1.687 -0.3942,0.5381 -0.4009,0.6357 -0.3507,1.4254 0.0528,0.8497 -0.2214,1.3035 -0.6162,1.8553 -0.2856,0.4005 -0.5132,0.8747 -0.7297,1.2848 -0.4005,0.7615 0.0762,2.0909 -1.2212,3.3796 -0.3258,0.3231 -0.4842,1.0065 -0.7077,1.6003 -0.2234,0.5939 -0.5118,1.0977 -0.5118,1.6491 0,0.7136 0.9874,1.5702 1.9791,0.6773 0.5459,-0.4915 1.3579,-1.867 2.0056,-2.2882 0.5707,-0.3698 0.6968,-1.0304 0.8561,-1.8251 0.174,-0.8731 0.5564,-1.2148 0.8198,-1.5863 0.5392,-0.761 0.9531,-2.026 1.4231,-3.2726 0.2095,-0.5587 0.4508,-1.1127 0.6949,-1.6544 0.2806,-0.6265 0.2731,-1.2929 0.5517,-1.8829 z" style="fill:#ffffff;fill-rule:evenodd" id="path100"/>
        <path d="m 384.5601,355.7628 c -0.9803,-0.3987 -2.359,-0.9031 -3.2085,-0.9101 -0.9614,-0.009 -1.8465,0.4756 -2.2926,0.8719 -0.3492,0.309 -0.2289,0.8312 0.1785,1.46 0.371,0.5717 1.5019,1.1646 2.6296,1.411 1.0947,0.24 1.3996,0.2569 1.9495,0.547 0.5027,0.2659 0.4805,0.3835 0.8818,0.3853 0.3845,0.001 0.87,-0.1978 1.2171,-0.3848 0.3935,-0.2128 0.5921,-0.6005 0.5921,-1.3691 0,-1.1754 -0.8868,-1.5799 -1.9475,-2.0112 z" style="fill:#ffffff;fill-rule:evenodd" id="path102"/>
        <path d="m 371.0492,357.9357 c -0.9942,-0.007 -2.3018,0.6151 -3.0793,0.7474 -0.8742,0.1489 -0.8307,0.5086 -1.4441,0.8246 -1.6738,0.8635 -3.5699,2.1148 -4.7646,3.1135 -0.5091,0.4244 -0.8781,0.8587 -0.4763,1.5165 0.4444,0.7298 1.3956,0.5879 2.2367,0.3574 1.0394,-0.284 1.6991,-0.367 2.8912,-0.921 0.6894,-0.3207 1.6948,-0.4699 2.5266,-0.5226 0.6878,-0.0443 1.3696,-0.48 1.9433,-0.8856 0.649,-0.4598 1.0822,-1.128 1.4694,-1.7689 1.1523,-1.9042 -0.4481,-2.4554 -1.3029,-2.4613 z" style="fill:#ffffff;fill-rule:evenodd" id="path104"/>
        <path d="m 394.1981,396.2388 c -0.006,-0.7626 -0.1036,-1.5153 -0.4567,-1.8939 -0.4248,-0.4546 -1.348,-0.347 -2.2411,0.4781 -1.0199,0.9409 -1.7859,2.3005 -2.855,3.173 -0.2066,0.169 -0.8393,0.4217 -0.9886,0.7099 -0.3291,0.6344 -0.4518,1.4465 -0.055,1.9376 0.6338,0.7846 1.2271,1.1732 1.7026,1.6328 0.3698,0.3571 0.6118,0.8167 1.12,1.1666 1.0919,0.7516 2.1936,-0.4613 2.6072,-0.9238 0.8914,-0.9953 0.9024,-1.8316 0.9003,-2.1552 -0.006,-1.6131 0.6063,-1.4412 0.6063,-2.6639 0,-0.3751 -0.3351,-0.6243 -0.34,-1.4612 z" style="fill:#ffffff;fill-rule:evenodd" id="path106"/>
        <path d="m 380.1865,380.4329 c -0.9784,0.6037 -0.9008,1.165 -1.2089,1.755 -0.2415,0.4587 -0.3703,0.7825 -0.9801,0.7813 -1.1065,-9e-4 -1.439,-0.5191 -2.0718,-0.513 -0.3665,0.003 -1.0364,0.0506 -1.491,0.8246 -0.6418,1.0894 -0.3825,2.1017 0.3906,2.9769 0.3604,0.4081 0.9903,1.1516 1.3609,1.8099 0.5287,0.9418 1.0722,1.3138 1.666,0.9368 0.727,-0.4621 1.5402,-1.2321 2.1459,-2.0221 0.6909,-0.8999 0.9833,-2.7854 1.2807,-4.1442 0.2796,-1.271 0.2985,-3.2629 -1.0923,-2.4052 z" style="fill:#ffffff;fill-rule:evenodd" id="path108"/>
        <path d="m 331.65,361.7153 c -1.1977,-1.3355 -2.1993,-2.0397 -2.7763,-2.3917 -1.3264,-0.8099 -1.8777,-0.7979 -2.7371,0.0338 -0.4924,0.476 -0.5774,1.1367 -0.4422,2.1377 0.0959,0.7033 0.457,0.6607 0.9393,0.8534 0.4027,0.1613 0.5093,0.2793 0.8466,0.4643 0.6464,0.3531 1.4919,0.7867 2.3324,1.0665 0.1378,0.0461 0.7126,0.0536 1.3369,0.3921 0.3747,0.2028 0.6748,0.8079 1.1726,0.824 1.0539,0.0343 1.8272,-0.9976 1.2478,-1.5486 -0.6384,-0.6054 -1.1788,-1.003 -1.92,-1.8315 z" style="fill:#ffffff;fill-rule:evenodd" id="path110"/>
        <path d="m 349.6875,356.4588 c -0.3691,-0.2981 -1.1369,0.1435 -1.6904,0.0882 -0.5537,-0.0553 -0.9439,-0.5043 -1.2854,-0.5043 -1.7439,10e-4 -3.1932,1.0079 -3.9972,1.8459 -0.4557,0.4745 -0.4312,0.9069 -0.3437,1.2142 0.3044,1.073 0.8276,0.8756 1.5818,0.8851 1.3746,0.0166 2.8509,-0.3283 4.1754,-0.3167 1.3099,0.0118 2.0831,1.055 3.4292,1.0659 0.6538,0.005 1.2352,-0.1869 1.0024,-0.9567 -0.6664,-1.6622 -2.3306,-2.8844 -2.8721,-3.3216 z" style="fill:#ffffff;fill-rule:evenodd" id="path112"/>
        <path d="m 345.1762,385.7566 c -0.5429,0.4876 -1.377,1.9007 -2.2808,2.5533 -1.0808,0.7787 -0.9489,2.0393 -1.6936,2.8345 -1.0751,1.1454 -1.8834,1.9323 -2.3534,2.4744 -0.2136,0.2471 -0.1334,0.5419 -0.3362,0.8506 -0.3381,0.5153 -0.9449,1.0733 -1.1991,1.5254 -0.64,1.1425 -0.038,2.1853 0.8749,2.1231 1.1707,-0.0791 2.5497,-1.0534 4.0322,-2.496 0.8826,-0.8584 1.7044,-2.1091 2.3455,-2.9249 0.4213,-0.5364 0.6863,-1.4486 0.8287,-1.7884 0.2607,-0.6174 0.0374,-1.4167 0.2468,-2.1785 0.1254,-0.4573 0.596,-0.9023 0.8939,-1.2862 0.8002,-1.0302 -0.0641,-2.8494 -1.3589,-1.6873 z" style="fill:#ffffff;fill-rule:evenodd" id="path114"/>
        <path d="m 265.5945,346.3068 c 0.806,1.0191 3.1191,0.7523 3.8368,0.5025 1.5581,-0.5416 2.0319,-1.0614 2.0319,-1.9605 0,-1.1776 -0.2853,-2.0496 -1.0922,-2.0906 -0.5944,-0.0292 -0.8363,-0.003 -1.2378,0.3 -0.2868,0.2156 -0.1434,0.3638 -0.4429,0.4746 -0.8996,0.3338 -2.1345,0.3473 -3.0087,0.9248 -0.301,0.1986 -0.9625,0.743 -0.0871,1.8492 z" style="fill:#ffffff;fill-rule:evenodd" id="path116"/>
        <path d="m 389.0616,385.8639 c -0.0635,0.6002 -0.2825,1.1781 -0.1206,1.6391 0.1619,0.4615 0.4148,0.8092 1.2922,1.5375 0.5933,0.4923 1.6491,0.6177 2.8529,-0.6017 0.5543,-0.5607 0.9151,-1.2454 0.9518,-2.1104 0.0506,-1.2351 -0.4959,-2.1818 -1.3446,-3.4998 -0.2624,-0.4085 -0.4892,-0.9066 -0.4928,-1.4287 -0.002,-0.5108 -0.2092,-1.0238 -0.4285,-1.4381 -0.5096,-0.9668 -0.8242,-2.8621 -1.6736,-2.8656 -0.9273,-0.004 -1.0273,0.4949 -1.1263,1.2221 -0.0591,0.4362 -0.3081,0.9562 -0.2097,1.4992 0.1606,0.8806 0.3676,2.1051 0.1827,3.4721 -0.1103,0.8171 0.2113,1.693 0.1165,2.5743 z" style="fill:#ffffff;fill-rule:evenodd" id="path118"/>
        <path d="m 273.8572,362.9647 c 0.6993,0.0186 1.8714,-0.0639 2.3866,-0.1937 1.0775,-0.2726 1.2373,-1.6227 0.4919,-2.2896 -0.674,-0.6047 -4.1755,-1.0917 -4.2648,0.9033 -0.0204,0.4441 0.0649,0.797 0.3118,1.0946 0.3301,0.3974 0.475,0.4694 1.0745,0.4854 z" style="fill:#ffffff;fill-rule:evenodd" id="path120"/>
        <path d="m 291.7916,318.8276 c 0.5262,0.0121 1.1121,0.0261 1.405,0.2967 0.7776,0.7197 1.6025,1.2873 2.6113,1.4249 0.8285,0.1133 1.9671,-0.5738 1.747,-1.3266 -0.222,-0.7562 -2.3927,-2.5933 -4.0055,-3.3302 -1.158,-0.5292 -2.4049,-0.8499 -3.2465,-0.0952 -1.0479,0.9377 -0.8996,1.2758 -0.0552,2.2371 0.3864,0.4409 0.9935,0.7805 1.5439,0.7933 z" style="fill:#ffffff;fill-rule:evenodd" id="path122"/>
        <path d="m 301.6631,334.8198 c -0.4458,-0.5207 -0.8878,-1.1143 -1.3195,-1.6159 -0.8925,-1.0399 -1.3391,-2.7842 -2.0897,-3.5602 -1.0973,-1.1328 -1.8327,-1.5277 -3.2034,-1.539 -0.5484,-0.005 -2.8172,0.5776 -1.7196,2.266 0.3833,0.588 0.7422,1.479 1.4695,2.6302 0.7452,1.1788 1.2581,1.5009 2.0125,2.569 0.2747,0.3897 0.589,0.8242 0.9173,1.1317 0.3394,0.3156 0.7868,0.468 1.1236,0.7949 1.1861,1.1515 1.8268,1.6014 2.8291,3.0227 0.5559,0.7893 0.7638,1.6898 2.5646,1.9223 0.494,0.0644 1.3109,0.4821 2.0095,1.6888 0.8959,1.5474 1.9134,2.0947 3.2386,2.0817 0.4577,-0.004 1.2719,0.0209 1.2644,-0.8718 -0.008,-0.9368 -0.8971,-1.3363 -1.5721,-2.032 -0.5801,-0.5971 -1.2505,-1.1823 -1.9042,-1.7591 -0.4634,-0.4085 -0.91,-0.5503 -1.1918,-0.8524 -0.3394,-0.3654 -0.4999,-0.8878 -0.9614,-1.3717 -0.648,-0.6784 -1.3269,-1.4574 -2.0141,-2.2824 -0.6648,-0.799 -0.7314,-1.3812 -1.4533,-2.2228 z" style="fill:#ffffff;fill-rule:evenodd" id="path124"/>
        <path d="m 298.2998,299.7092 c 1.229,0 1.4003,-0.3678 1.877,-0.5441 1.408,-0.5206 1.6147,-0.0758 2.0792,0.3949 1.1837,1.199 2.0987,1.2148 2.6383,0.6259 0.7243,-0.789 0.3851,-1.7362 -0.3947,-2.7296 -0.4092,-0.5223 -0.8967,-1.3331 -1.6064,-1.5655 -0.4251,-0.1393 -0.9322,0.21 -1.55,0.1652 -0.6596,-0.0483 -0.9221,-0.4212 -1.3979,-0.4167 -0.5653,0.006 -1.0802,0.1811 -1.6619,0.9039 -0.5182,0.6426 -1.0483,1.3701 -1.0546,2.2171 -0.005,0.5984 0.4851,0.9489 1.071,0.9489 z" style="fill:#ffffff;fill-rule:evenodd" id="path126"/>
        <path d="m 282.6982,342.1988 c -0.3387,-2.0053 -1.2217,-2.2459 -1.162,-4.3387 0.0464,-1.627 -0.7769,-2.5932 -0.9835,-4.1886 -0.2325,-1.7987 -0.8411,-3.6925 -1.3928,-5.1415 -0.3565,-0.9335 -0.657,-2.5302 -0.6384,-4.5439 0.0122,-1.2783 0.1175,-2.8292 0.1145,-4.3967 -0.003,-1.2354 -0.1925,-2.2321 -0.1415,-3.5626 0.0346,-0.8963 0.014,-2.0955 -0.2055,-2.523 -0.2419,-0.4698 -0.1882,-0.6059 -0.192,-1.2708 -0.003,-0.5033 -0.111,-0.9991 -0.1372,-1.328 -0.0116,-0.1582 -1.1158,-1.1752 -1.4139,-0.7256 -0.1812,0.2741 -0.2246,0.7491 -0.2452,1.5114 -0.024,0.8841 -0.1485,0.7631 -0.236,1.4185 -0.0594,0.4415 -0.1193,0.923 -0.1723,1.4226 -0.0483,0.4455 -0.2363,0.7582 -0.3219,1.2359 -0.1358,0.7642 -0.0243,1.3173 -0.0548,2.3601 -0.0569,1.9416 -0.0308,4.073 -0.041,5.9606 -0.0232,4.2784 0.8044,7.3841 1.4863,11.1384 0.0605,0.3376 0.1145,1.0842 0.2457,1.563 0.333,1.2238 1.0299,2.4754 1.3707,3.8216 0.266,1.0558 0.627,1.6942 0.5795,3.0603 -0.0383,1.0815 0.7172,1.4158 0.9414,2.7536 0.0715,0.428 0.5889,4.4715 1.3239,6.1703 0.3284,0.7585 1.596,2.1287 1.5436,0.1021 0.037,-0.2657 0.563,-1.1172 0.5752,-1.327 0.0491,-0.8365 -0.3573,-1.4998 -0.3546,-2.3085 0.003,-0.8793 0.6513,-0.5576 0.6216,-1.9732 -0.0262,-1.1706 -0.8131,-3.1421 -1.1098,-4.8903 z" style="fill:#ffffff;fill-rule:evenodd" id="path128"/>
        <path d="m 267.3611,357.9796 c 0.3047,-0.2358 1.2741,-0.9247 1.2741,-1.27 0,-0.3886 -0.7555,-0.5576 -1.7738,-0.7895 -0.4907,-0.112 -1.0435,-0.3517 -1.6008,-0.4242 -0.4649,-0.0602 -0.9344,0.0391 -1.3755,0.008 -0.4408,-0.0314 -0.8546,-0.1958 -1.2084,-0.1975 -1.6462,-0.0102 -2.3061,0.8318 -2.3434,1.8681 -0.0417,1.1387 0.072,1.8497 2.0437,1.8026 3.2052,-0.0775 3.9274,-0.1789 4.9841,-0.9973 z" style="fill:#ffffff;fill-rule:evenodd" id="path130"/>
        <path d="m 265.4306,325.4767 c 0.8857,-0.683 1.1227,-1.7731 0.1651,-2.5477 -0.5267,-0.4257 -1.3826,-0.6181 -2.2397,-0.6278 -0.8296,-0.009 -1.2673,-0.2585 -1.4854,-0.355 -1.4674,-0.651 -2.5867,-0.2748 -3.2239,0.1938 -0.5047,0.3716 -1.0197,0.6996 0.1866,1.6177 0.5917,0.4033 1.1471,0.7646 1.6847,0.9338 0.5376,0.1695 1.0589,0.1489 1.5802,0.3739 0.3475,0.15 0.3601,0.4282 0.5745,0.5255 0.9802,0.4455 1.4033,0.9304 2.7579,-0.1142 z" style="fill:#ffffff;fill-rule:evenodd" id="path132"/>
        <path d="m 277.4543,307.6843 a 0.4903,0.6374 0 0 1 0.4903,0.6374 0.4903,0.6374 0 1 1 -0.4903,-0.6374 z" style="fill:#ffffff;fill-rule:evenodd" id="path134"/>
      </g>
      <g id="Layer1005">
        <path d="m 238.075,411.2095 c 0.0296,1.1646 1.0774,1.9336 1.0505,3.4819 -0.0113,0.6783 -0.0231,1.5439 -0.0315,2.2604 -0.0113,0.8485 0.5758,2.475 0.5602,3.6892 -0.008,0.6312 0.003,1.0748 0.0376,1.3827 0.1325,1.1706 1.8473,0.884 1.9771,-0.0888 0.1297,-0.9728 0.4839,-1.3848 0.4562,-2.3135 -0.014,-0.4646 -0.007,-0.66 -0.3273,-1.2672 0.4635,-0.7588 0.7908,-1.3523 0.7779,-2.4766 -0.008,-0.7577 -0.4832,-1.6901 -0.5575,-2.3929 -0.0452,-0.4193 -0.4069,-1.1208 -0.6443,-1.576 -0.2366,-0.4559 -0.179,-1.1864 -0.5045,-1.6349 -0.4818,-0.534 -0.8252,-0.7437 -0.9525,-1.1337 -0.0714,-0.2186 0.071,-0.4945 0.1485,-0.9162 -0.0314,-1.26 -0.5302,-1.7553 -0.8476,-2.5746 -0.3623,-0.9383 -1.2061,-1.5197 -2.0647,-0.7246 -0.6732,0.625 -0.1707,1.7229 0.2893,2.9409 1.1599,3.0704 0.6027,2.2279 0.6326,3.3439 z" style="fill:#ffffff;fill-rule:evenodd" id="path137"/>
        <path d="m 215.9056,382.2505 c 0.0229,-0.8517 -0.1951,-1.1636 -0.3587,-1.4653 -0.6592,-0.8614 -1.6676,-1.0397 -2.2972,-2.0784 -0.3491,-1.6927 -1.235,-2.1663 -1.7529,-3.0876 -0.6992,-1.2429 -1.7197,-3.1097 -2.4988,-4.002 -0.7326,-0.8406 -1.8295,-0.8601 -2.3036,-0.1903 -0.2305,0.326 -0.2845,0.9474 -0.2864,1.4016 -0.003,0.7324 0.3047,1.3452 0.7918,1.9164 0.6163,0.7238 1.2065,1.4178 1.7165,1.5409 0.1138,0.4657 0.0712,0.9323 0.1702,1.3978 0.2178,1.0254 0.4167,1.9062 0.6585,2.9343 0.279,1.1895 0.5939,2.0371 1.085,2.6901 0.3816,0.5078 1.0767,1.047 1.4256,1.3935 0.7691,0.7615 2.7193,1.744 3.9511,2.8066 0.52,0.4491 1.2902,1.0233 1.9586,1.2071 1.1144,0.3062 2.0961,-0.2083 1.0289,-2.2778 -0.3905,-0.7577 -2.4548,-2.9141 -3.2886,-4.1869 z" style="fill:#ffffff;fill-rule:evenodd" id="path139"/>
        <path d="m 222.6437,388.6964 c 0.2481,0.2937 0.4431,0.4929 0.7107,0.7197 0.8964,0.7605 1.3162,0.8756 2.7128,2.5108 0.1911,0.224 1.707,1.5714 2.7598,1.5807 0.5523,0.005 0.7977,-0.0946 0.7763,-0.6725 -0.0174,-0.48 0.025,-0.8882 -0.5371,-1.4833 -0.5768,-0.6111 -0.9276,-1.5446 -1.483,-2.1026 -0.6832,-0.687 -1.294,-1.2464 -2.0492,-1.8547 -1.3733,-1.1068 -2.8369,-2.0069 -3.4767,-2.2995 -1.2515,-0.5728 -2.2731,0.0819 -1.2301,1.2658 0.2938,0.3326 0.7369,0.7589 1.1041,1.1409 0.4642,0.4814 0.4206,0.848 0.7124,1.1947 z" style="fill:#ffffff;fill-rule:evenodd" id="path141"/>
        <path d="m 230.2657,438.4516 c -0.8078,-0.5427 -2.0549,-1.0749 -3.152,-1.5611 -0.8981,-0.3987 -1.7073,-0.2712 -1.9275,0.1543 -0.5929,1.1461 0.6377,2.577 1.4284,2.9586 1.1544,0.6552 1.1415,0.3404 1.6411,0.5846 0.6426,0.314 1.0799,0.6887 1.5294,0.7872 0.756,0.1661 1.1357,-0.3043 1.187,-1.7148 0.0152,-0.4315 -0.1256,-0.8181 -0.7064,-1.2088 z" style="fill:#ffffff;fill-rule:evenodd" id="path143"/>
        <path d="m 278.8083,484.1565 c 0,-0.8023 0.482,-0.9332 0.4831,-1.6103 0.002,-0.6867 -0.6279,-1.0434 -0.9361,-1.5793 -0.1976,-0.3425 -0.2993,-0.6558 -0.5265,-0.9707 -0.3453,-0.4755 -0.8892,-1.1306 -1.5222,-1.7373 -0.8486,-0.8134 -2.9054,-0.3643 -2.0062,1.7569 0.3541,0.8335 0.8588,1.3538 1.2033,2.1249 0.4462,0.9999 0.5209,2.1124 1.1661,3.1544 0.5507,0.8894 0.599,1.3015 1.3399,1.3172 0.5615,0.0119 1.6231,-0.4263 1.2269,-1.3226 -0.1772,-0.403 -0.4283,-0.7671 -0.4283,-1.1332 z" style="fill:#ffffff;fill-rule:evenodd" id="path145"/>
        <path d="m 275.3839,472.7015 c -0.005,-0.4967 -0.662,-1.1715 -0.9707,-1.8302 -0.035,-0.0749 -0.3243,-0.4917 -0.5291,-1.0033 -0.1807,-0.4515 -0.2656,-0.9796 -0.5139,-1.4121 -0.268,-0.4669 -0.5597,-0.6084 -0.8344,-0.8725 -1.0483,-1.0091 -1.4473,-1.1373 -2.0464,-1.131 -0.2998,0.003 -1.0106,0.1384 -1.2676,0.1138 -0.7741,-0.0739 -1.4395,-0.4217 -2.4671,-0.7421 -1.3993,-0.437 -2.8936,-0.7639 -3.7329,-1.6461 -0.8503,-0.8929 -1.4557,-1.231 -2.0341,-0.6275 -0.7043,0.7343 -0.4714,2.026 0.3708,2.8311 0.4865,0.4651 1.0841,0.7863 1.7247,1.236 1.031,0.7266 2.1124,1.5667 2.6953,2.0472 1.2165,1.0023 1.5293,0.509 2.9254,1.8531 0.5858,0.5652 2.3836,0.4584 3.6927,1.4964 0.6101,0.4842 1.0195,0.5532 1.7915,0.5532 0.4651,0 1.2003,-0.4236 1.1958,-0.866 z" style="fill:#ffffff;fill-rule:evenodd" id="path147"/>
        <path d="m 244.2151,455.381 c -0.5239,-0.3773 -1.1274,-0.8119 -1.8481,-1.2716 -0.4766,-0.3038 -0.9903,-0.7092 -1.5262,-1.0278 -0.6547,-0.3904 -1.3659,-0.5053 -2.0582,-0.8637 -1.4914,-0.7738 -2.9381,-1.5944 -4.9559,-1.5866 -2.0858,0.007 -2.1548,0.5028 -2.1473,1.4547 0.004,0.463 0.0432,0.9752 1.0699,1.4547 0.4363,0.2037 0.9241,0.8678 1.369,1.4018 0.2231,0.2682 0.4752,0.598 0.9449,0.6428 0.4708,0.0453 1.1075,0.3071 1.4631,0.5475 0.8414,0.5716 1.9257,0.8084 2.7847,1.0685 0.6536,0.1984 0.4371,0.4232 2.0665,0.4769 0.2521,0.008 1.024,-0.1001 1.5415,0.2327 0.4884,0.3144 0.7758,0.1057 1.0919,-0.1873 0.4093,-0.3795 0.5985,-0.7109 0.901,-1.1275 0.365,-0.503 -0.2766,-0.9126 -0.6968,-1.2151 z" style="fill:#ffffff;fill-rule:evenodd" id="path149"/>
        <path d="m 254.0479,465.0651 c 0.005,-0.2768 -0.1157,-0.762 -0.2865,-1.1279 -0.2849,-0.6103 -0.7119,-1.1543 -0.9326,-1.7753 -0.2024,-0.5701 -0.2437,-1.1389 -0.4403,-1.6946 -0.4327,-1.224 -1.0587,-2.3927 -1.8403,-3.4075 -0.9133,-1.1856 -2.2849,-1.0613 -2.3099,0.1661 -0.009,0.444 0.048,0.9644 0.5254,2.0558 0.5792,1.3238 0.8326,2.3428 1.2956,3.4592 0.2133,0.5145 0.1454,0.8863 0.4993,1.3982 0.3836,0.555 1.44,1.4034 2.1166,3.0077 0.2716,0.6442 0.7694,1.1323 1.2047,1.1457 0.5605,0.0172 1.4257,-0.3771 0.4406,-1.6388 -0.2988,-0.3839 -0.2873,-0.862 -0.2726,-1.5886 z" style="fill:#ffffff;fill-rule:evenodd" id="path151"/>
        <path d="m 233.9514,431.2719 c 0.2369,0.3698 0.2854,0.598 0.5381,0.7189 0.4216,0.2018 1.0334,0.007 1.0574,-0.9281 0.0155,-0.6048 -0.339,-1.5007 -0.6239,-2.1842 -0.4447,-1.0667 -0.5084,-2.2074 -0.5498,-3.3591 -0.0234,-0.6402 -0.2486,-1.156 -0.6143,-1.5519 -0.366,-0.3954 -0.4129,-0.9654 -0.4055,-1.6568 0.007,-0.692 -0.0703,-1.5302 -0.577,-2.0909 -0.3481,-0.3853 -0.3056,-0.9133 -0.3048,-1.7945 0,-0.668 -0.9893,-1.6879 -1.2379,-1.9106 -0.5291,-0.4744 -1.6269,0.0485 -1.0386,1.0274 0.2331,0.3878 0.6015,0.5499 0.7156,1.1944 0.1468,0.8292 -0.1713,1.1617 0.2432,1.8668 0.3412,0.5806 0.555,1.0111 0.6432,1.2796 0.0882,0.2685 -0.008,0.488 0.1182,0.8129 0.2581,0.6663 0.552,1.1905 0.1993,1.654 -0.3377,0.4442 -1.0661,0.5103 -1.748,-0.5019 -0.5076,-0.7529 -0.4899,-1.596 -0.866,-2.1856 -0.7861,-1.232 -1.0133,-2.9277 -2.5483,-4.7144 -0.4954,-0.5775 -2.336,-2.6771 -4.3634,-4.2762 -0.8049,-0.635 -1.1249,0.1131 -1.1249,0.68 0.001,0.8224 0.0683,1.6492 0.3584,1.9986 0.7437,0.8989 1.5149,1.6268 2.1434,2.3038 0.6323,0.6791 0.8482,1.5315 1.0209,1.7333 0.5008,0.5846 1.0332,0.9768 1.5473,1.5544 0.5141,0.5773 1.0114,1.3409 1.4425,2.0818 0.5582,0.9597 1.8931,2.2976 2.5301,3.1467 0.4458,0.5923 0.0675,0.125 0.3423,1.2311 0.1988,0.8001 0.9708,1.1922 1.5792,1.7608 0.5536,0.5172 0.9926,1.281 1.5233,2.1097 z" style="fill:#ffffff;fill-rule:evenodd" id="path153"/>
        <path d="m 231.0643,410.4058 c 0.6055,1.2179 1.1057,1.7651 2.0764,2.7348 0.322,0.3221 0.3809,1.2124 0.7851,1.4144 0.6307,0.3147 1.3284,0.1066 1.5306,-0.4048 0.1782,-0.4513 0.054,-1.0266 -0.0627,-1.3709 -0.1811,-0.5337 -0.7467,-0.6078 -1.0802,-1.0794 -0.3983,-0.5638 -0.7077,-1.0345 -1.1189,-1.5333 -0.2465,-0.2992 -0.5082,-0.6529 -1.0407,-0.9568 -0.81,-0.4619 -1.4858,0.3986 -1.0896,1.196 z" style="fill:#ffffff;fill-rule:evenodd" id="path155"/>
        <path d="m 239.4383,434.5389 c 0.1864,0.3033 0.4305,0.7567 0.4287,1.1151 -0.004,0.6051 -0.0454,1.2516 0.0648,1.763 -0.1665,0.362 -0.1855,0.728 -0.1949,1.092 -0.029,1.0931 0.0211,2.1757 0.3461,3.1144 0.1635,0.473 1.3683,0.6755 1.492,-0.0795 0.0996,-0.6069 0.0686,-1.2897 0.17,-1.9749 0.0788,-0.5328 0.2968,-1.0685 0.3458,-1.5711 0.0372,-0.3819 -0.0765,-0.7667 -0.0563,-1.1447 0.0484,-0.9088 0.1281,-1.7983 -0.1893,-2.6273 -0.2157,-0.5627 -0.5677,-0.9982 -1.184,-1.3716 -0.6787,-0.4108 -1.8413,0.6794 -1.2229,1.6846 z" style="fill:#ffffff;fill-rule:evenodd" id="path157"/>
      </g>
      <path d="m 296.5113,423.3764 c -0.2811,0.6248 0.1699,1.3598 0.2549,2.0397 -0.6517,1.0199 -0.6409,2.6971 -0.2784,3.3146 0.4985,0.8493 1.9237,-0.4892 2.1482,-1.4448 0.1872,-0.7977 -0.4886,-1.6186 -0.7356,-2.4034 -0.1923,-0.6102 0.2731,-0.779 -0.2227,-1.7523 -0.1615,-0.3168 -1.0196,-0.0803 -1.1664,0.2462 z" style="fill:#ffffff;fill-rule:evenodd" id="path160"/>
    </g>
  </g>
</svg>