<svg width="496" height="347" viewBox="0 0 496 347" fill="none" xmlns="http://www.w3.org/2000/svg">
<path d="M38.1116 1.64041H457.888C477.817 1.64041 493.86 17.5772 493.86 37.3732V275.274C493.86 295.07 477.566 307.88 457.888 311.007L248 344.36L38.1116 311.007C18.4337 307.88 2.14037 295.07 2.14037 275.274V37.3732C2.14037 17.5772 18.1835 1.64041 38.1116 1.64041Z" fill="#FFF500" stroke="black" stroke-width="3.28077" stroke-linecap="square"/>
<path d="M455.577 11.6755C452.383 11.8361 448.697 17.1186 433.718 39.3162C423.87 53.911 415.538 65.9537 415.202 66.0627C414.867 66.1718 413.72 64.9826 412.656 63.4315C408.849 57.8783 400.624 53.2766 391.338 51.5016C385.697 50.4233 385.815 50.5302 387.094 48.1551C387.96 46.5492 388.587 46.4965 404.17 46.7756L420.32 47.0566L422.634 42.7904C425.096 38.242 428.428 26.3459 429.346 18.7773L429.886 14.2046L407.976 13.617C395.914 13.2935 385.828 13.2404 385.577 13.4893C385.327 13.7381 380.54 29.0841 374.931 47.593C363.642 84.8392 363.473 85.9114 368.784 85.8863C370.446 85.8782 374.941 85.3563 378.788 84.7368C393.083 82.4349 400.916 86.4437 402.344 96.7944C402.899 100.812 400.44 109.25 397.792 112.377C395.696 114.854 390.231 116.919 385.783 116.925C379.615 116.933 379.26 116.481 378.737 107.881C378.301 100.724 378.174 100.286 375.651 98.0462C372.01 94.8152 368.745 94.9109 365.518 98.3527C361.993 102.113 361.303 104.241 361.301 111.407C361.298 122.803 365.771 128.993 376.834 132.865C389.005 137.126 402.997 131.893 411.268 119.965L414.534 115.239L419.086 115.494L423.637 115.724L423.354 123.311L423.097 130.873L427.032 132.61C430.427 134.102 431.921 134.264 437.987 133.836C449.007 133.059 448.378 133.593 450.125 124.052C451.437 116.888 451.909 115.627 453.623 114.779C456.526 113.341 456.836 112.422 457.892 101.75C459.416 86.3346 459.332 83.5722 457.274 81.9523L455.5 80.5728L457.789 52.7789C461.162 11.7305 461.136 13.811 458.38 12.493C457.327 11.9891 456.471 11.6306 455.577 11.6755ZM284.075 13.1316C265.255 13.1316 265.251 13.1354 263.939 15.1242C262.938 16.642 262.855 17.5032 263.527 18.7517C264.012 19.6515 264.402 20.521 264.402 20.6932C264.402 20.8654 261.723 19.6914 258.461 18.0875L252.547 15.1753L235.625 15.2775C226.327 15.33 212.897 15.6352 205.769 15.9672L192.807 16.5803V19.0327C192.807 20.6035 193.702 22.5137 195.276 24.2952C197.638 26.9678 197.75 27.4077 197.745 34.6157C197.742 38.759 197.021 48.2215 196.151 55.64C195.28 63.0585 194.316 71.8872 194.016 75.2593C193.209 84.3498 190.538 101.677 189.053 107.37C186.47 117.272 183.137 121.066 177.018 121.037C171.278 121.011 170.445 118.853 169.971 102.696C169.66 92.0551 169.971 86.0948 171.694 71.1719C172.863 61.0557 174.046 50.0199 174.317 46.6479C175.375 33.5044 177.535 26.7182 180.901 25.879C183.218 25.3013 184.991 20.3513 183.73 18.0109C182.76 16.2109 177.566 15.9121 123.759 14.6388C87.8321 13.7887 83.8497 13.8404 82.9987 14.9965C82.2142 16.0622 79.4906 16.329 66.8488 16.5548C51.6442 16.8263 51.6264 16.8108 46.1471 19.4926C33.3386 25.7615 26.577 39.3604 26.577 58.8332C26.577 75.1904 29.9961 82.2402 42.3411 91.251C55.9945 101.217 58.7568 105.489 57.2309 114.37C56.5156 118.533 55.7831 120.246 54.1449 121.651C51.2096 124.167 45.6372 124.116 39.9752 121.497C35.2596 119.316 33.3578 116.882 30.6659 109.593C28.3783 103.399 27.3744 101.584 25.9341 101.035C25.254 100.776 24.5763 100.698 24.4168 100.856C23.8396 101.43 20.5346 130.848 20.9965 131.307C21.2574 131.566 26.2395 133.765 32.0546 136.186C41.1405 139.969 43.3988 140.598 48.0759 140.631C64.0007 140.743 76.5846 133.829 83.0501 121.446C89.4428 109.203 90.5727 87.0264 85.3388 76.7665C82.3238 70.8559 78.5987 67.1684 68.9061 60.5193C64.1299 57.2428 59.6826 53.8051 59.031 52.881C57.6267 50.8894 57.4532 41.9914 58.7224 37.4513C60.2499 31.9878 66.7029 30.3921 74.2551 33.6194L78.2154 35.331L78.3697 43.2247C78.5599 53.4928 80.5548 57.1438 83.8987 53.2642C85.2319 51.7176 85.2694 51.7158 86.5732 53.3153C87.6698 54.6606 88.2766 54.7945 90.0964 54.1073C92.4055 53.2352 92.2595 53.736 93.8767 41.8452C94.3789 38.1522 94.9096 37.1112 97.2712 35.3055L100.074 33.1596L99.56 47.0566C99.2644 54.6999 97.7242 72.1733 96.1397 85.8863C94.5552 99.5994 93.2379 112.311 93.2338 114.14C93.2203 120.092 91.1058 125.315 87.8848 127.373C85.1716 129.106 84.5782 130.345 84.9788 133.3C85.2686 135.436 85.9865 135.627 98.4799 136.927C111.891 138.323 118.51 137.829 125.096 134.934C129.432 133.029 129.635 131.243 125.945 127.066C123.635 124.452 123.294 123.475 123.373 119.888C123.468 115.562 131.679 36.9961 132.374 33.7727C133.142 30.2108 139.818 32.4159 142.378 37.0681C144.534 40.9882 144.234 54.1425 141.452 75.668C139.469 91.0077 139.184 95.5156 139.549 106.323C140.12 123.201 141.102 126.382 147.367 131.281C156.308 138.274 166.859 140.419 179.692 137.847C183.819 137.02 187.324 135.819 188.333 134.883C190.336 133.027 191.863 132.869 192.473 134.449C192.821 135.35 196.861 135.702 211.992 136.161C232.99 136.797 238.143 136.191 246.272 132.099C248.516 130.969 250.532 130.03 250.746 130.03C250.96 130.03 251.249 131.409 251.389 133.095L251.646 136.161L273.325 136.391C294.106 136.6 295.02 136.541 295.416 135.037C295.82 133.502 295.91 133.497 299.659 135.164C305.478 137.753 316.185 138.081 323.395 135.88C330.093 133.834 334.614 130.946 341.165 124.563C352.066 113.941 359.861 88.9498 359.861 64.6322C359.861 38.2684 353.247 23.8783 337.642 16.2482C332.929 13.9441 331.461 13.625 325.298 13.5915C317.452 13.5488 312.964 14.6301 308.48 17.6533C305.238 19.8382 303.902 19.7159 303.902 17.2445C303.902 13.071 304.22 13.1316 284.075 13.1316ZM240.306 32.9297C241.393 32.8452 243.896 34.5326 245.063 36.3018C249.769 43.4367 248.957 71.4809 243.34 96.3602C240.913 107.109 238.52 112.471 234.751 115.622C231.076 118.694 229.902 118.444 230.379 114.702C230.594 113.016 232.74 94.0601 235.137 72.5769C237.533 51.0938 239.697 33.3298 239.946 33.083C240.036 32.9931 240.15 32.9418 240.306 32.9297ZM323.344 33.1596C324.163 33.0915 325.002 33.4403 325.967 34.1559C329.231 36.5765 329.661 39.2485 329.696 57.2749C329.73 75.1167 328.95 81.797 324.758 99.2979C322.397 109.156 320.22 114.779 317.66 117.563C316.73 118.575 315.287 119.403 314.471 119.403C310.492 119.403 308.475 110.328 308.557 92.8348C308.655 71.8187 312.101 51.7961 317.583 40.338C319.898 35.499 321.541 33.3096 323.344 33.1596ZM429.552 68.4896V82.8719H419.368L429.552 68.4896ZM464.758 142.292C451.159 142.292 451.159 142.289 450.357 144.386C448.89 148.22 449.376 150.33 452.028 151.693C454.052 152.732 454.468 153.441 454.368 155.601C454.264 157.871 452.426 159.993 441.124 170.903L428.009 183.574L428.601 179.078C428.928 176.605 430.044 170.379 431.095 165.232C433.006 155.873 433.009 155.864 437.241 151.999C440.761 148.785 441.374 147.83 440.893 146.251C440.575 145.207 440.018 144.031 439.659 143.646C438.978 142.916 404.227 142.867 402.319 143.595C401.174 144.031 399.355 147.414 399.361 149.087C399.364 149.628 400.509 151.284 401.907 152.765C404.357 155.362 404.439 155.643 403.887 160.531C403.572 163.321 401.722 173.682 399.773 183.574C397.823 193.465 394.27 212.132 391.878 225.06C389.486 237.989 387.253 248.289 386.914 247.949C386.099 247.131 378.811 228.143 375.471 218.112L372.822 210.167L377.811 204.879C391.924 189.892 397.901 165.673 391.26 150.39C388.108 143.134 384.499 141.874 368.553 142.547C362.195 142.815 352.265 143.465 346.514 144.003C335.214 145.061 334.858 145.274 336.099 149.853C336.877 152.723 336.083 152.708 333.039 149.751C328.153 145.006 317.173 143.467 308.84 146.379C303.17 148.36 303.079 148.36 303.079 146.379C303.079 144.836 302.535 144.758 293.41 144.77C288.092 144.776 283.313 145.052 282.789 145.383C282.265 145.714 281.468 147.259 281.015 148.831L280.192 151.693L280.114 149.164L280.037 146.634L263.039 146.175C253.683 145.926 245.59 145.897 245.063 146.098C244.536 146.299 242.829 149.669 241.283 153.583L238.48 160.685L238.068 154.017C237.842 150.344 237.385 147.052 237.04 146.711C235.93 145.615 89.6913 148.743 88.9649 149.879C88.6162 150.424 88.3286 152.454 88.322 154.375C88.3114 157.312 88.6229 158.011 90.3536 158.794C92.1303 159.599 92.4109 160.249 92.4109 163.623C92.4109 166.896 89.8554 183.482 87.782 193.69C87.0715 197.188 87.6721 198.338 77.1868 172.921C72.3742 161.255 67.932 150.912 67.3118 149.955C66.236 148.296 65.4911 148.201 51.3162 148.065C43.1435 147.987 36.4521 148.137 36.4521 148.372C36.4521 148.606 37.1992 150.237 38.1237 151.999C41.4383 158.316 41.4911 162.249 38.4323 184.391C31.6811 233.264 26.8748 252.946 21.0738 255.486C17.222 257.172 16.3775 262.729 19.788 263.967C22.7467 265.04 34.9183 265.146 37.6351 264.12C38.8017 263.679 40.1845 262.398 40.6953 261.284C41.5112 259.506 41.3198 258.897 39.0495 256.329C37.6278 254.72 36.4489 252.783 36.4521 252.011C36.4554 251.24 37.6925 243.617 39.2038 235.074C40.7151 226.532 43.4035 211.173 45.17 200.945C46.9365 190.717 48.5697 182.368 48.796 182.373C49.0223 182.379 51.1278 187.438 53.4764 193.613C55.8249 199.789 62.1997 216.328 67.6461 230.374C73.0924 244.42 77.3584 256.426 77.1097 257.069C76.2724 259.237 79.7572 261.626 83.976 261.77C99.4025 262.296 148.894 261.355 149.784 260.518C150.818 259.546 155.776 234.211 155.776 229.889C155.776 228.583 155.221 227.051 154.542 226.491C152.755 225.018 151.414 226.422 148.37 232.903C143.293 243.71 136.015 248.65 124.505 249.15C120.658 249.317 117.098 249.177 116.584 248.818C115.906 248.344 116.505 243.506 118.822 231.14C120.577 221.774 122.242 213.773 122.499 213.36C123.238 212.173 129.282 212.482 131.937 213.846C134.547 215.187 135.078 216.52 135.409 222.812C135.59 226.251 135.892 226.95 137.337 227.155C138.282 227.289 139.455 226.921 139.935 226.338C141.569 224.351 147.866 186.747 147.084 183.651C146.187 180.1 143.02 182.574 139.703 189.424C137.57 193.83 136.097 195.768 134.174 196.756C131.563 198.097 125.88 198.709 124.916 197.752C124.187 197.028 129.501 165.002 130.574 163.648C131.277 162.762 133.476 162.626 140.938 162.958C153.989 163.539 153.675 163.315 152.87 170.418C151.751 180.294 151.887 183.522 153.462 183.829C154.226 183.979 155.579 183.361 156.47 182.475C158.054 180.902 158.101 180.9 158.502 182.424C158.926 184.034 161.146 184.463 163.002 183.293C163.584 182.926 164.804 178.99 165.703 174.531C166.601 170.071 167.507 165.827 167.734 165.104C168.158 163.751 174.391 160.528 175.14 161.272C175.459 161.589 168.003 207.161 161.922 242.023C161.103 246.719 159.043 250.722 156.522 252.573C153.502 254.791 151.606 258.413 152.227 260.774C152.711 262.61 152.707 262.612 171.592 262.332C190.287 262.054 190.505 262.045 192.062 260.135C194.296 257.393 194.01 254.979 191.162 252.497C189.737 251.255 188.692 249.539 188.693 248.435C188.696 245.158 199.367 182.165 202.76 165.385C203.598 161.237 203.703 161.094 206.36 161.094C211.297 161.094 214.182 166.071 215.464 176.804C216.011 181.39 217.465 183.789 219.064 182.808C220.722 181.789 221.027 191.006 220.504 224.958C220.023 256.156 220.11 259.915 221.276 260.876C223.63 262.816 225.092 260.626 230.019 247.694C232.663 240.755 238.423 225.878 242.826 214.638L250.824 194.201L251.415 213.411C252.055 234.646 253.341 254.187 254.372 257.964C254.82 259.602 255.655 260.521 256.867 260.697C258.974 261.003 260.775 257.452 265.122 244.475C269.122 232.534 269.607 232.279 272.605 240.567C280.528 262.467 291.478 267.948 308.197 258.372C311.343 256.57 314.224 255.27 314.574 255.486C314.925 255.701 315.013 256.883 314.78 258.091L314.369 260.288L331.959 259.701C353.04 259.015 354.962 258.693 356.466 255.588C357.474 253.508 357.397 253.082 355.823 251.143C352.143 246.606 352.049 245.869 353.689 235.841C354.532 230.685 355.465 226.731 355.772 227.079C356.263 227.635 358.782 241.876 360.324 252.829C360.622 254.95 361.309 257.069 361.867 257.529C363.176 258.609 405.973 258.699 410.419 257.631C412.492 257.133 414.195 257.123 415.151 257.631C416.37 258.28 416.643 258.116 416.643 256.737C416.643 255.808 416.087 254.85 415.408 254.591C413.821 253.986 413.838 250.698 415.46 239.673C416.842 230.276 420.384 213.634 421.734 210.218L422.583 208.098L423.38 210.142C424.971 214.209 429.732 235.244 430.658 242.253C431.732 250.382 431.091 252.344 426.518 254.694C425.164 255.389 424.049 256.569 424.049 257.299C424.049 258.502 425.708 258.57 441.536 258.04C461.235 257.381 461.903 257.162 461.903 251.73C461.903 249.506 461.453 248.391 460.335 247.796C456.543 245.781 453.712 235.292 447.477 200.025C444.862 185.237 444.606 182.665 445.548 180.917C446.146 179.807 450.717 175.156 455.706 170.571C467.402 159.82 468.014 159.275 473.63 154.349C478.161 150.376 478.362 150.031 478.362 146.251V142.292L464.758 142.292ZM371.999 154.835C373.898 154.906 375.62 156.493 377.322 159.688C379.913 164.553 379.983 177.704 377.451 183.165C375.201 188.017 372.012 191.686 368.707 193.205C364.665 195.061 362.526 195.584 362.047 194.814C361.81 194.433 363.073 185.847 364.85 175.757C366.627 165.666 368.083 157.149 368.09 156.802C368.097 156.455 368.97 155.755 370.045 155.269C370.725 154.961 371.366 154.811 371.999 154.835ZM311.9 163.699C312.754 163.665 313.395 164.597 314.266 166.611C316.13 170.924 315.378 191.807 312.954 203.193C309.53 219.279 302.854 235.868 298.965 237.935C298.124 238.382 297.224 238.753 296.984 238.753C293.768 238.753 293.368 213.434 296.367 199.617C299.909 183.301 305.066 169.67 309.277 165.487C310.436 164.336 311.236 163.726 311.9 163.699Z" fill="#0678BB"/>
<path d="M455.566 11.6144C452.372 11.775 448.686 17.083 433.707 39.2806C423.859 53.8754 415.526 65.9181 415.191 66.0272C414.856 66.1363 413.709 64.9471 412.645 63.396C408.838 57.8428 400.612 53.241 391.326 51.466C385.686 50.3878 385.804 50.4947 387.083 48.1195C387.948 46.5137 388.576 46.461 404.159 46.74L420.334 47.021L422.649 42.7549C425.11 38.2064 428.417 26.3103 429.335 18.7417L429.901 14.169L407.965 13.5815C395.902 13.2579 385.816 13.1793 385.566 13.4282C385.315 13.677 380.529 29.0486 374.919 47.5575C363.631 84.8037 363.461 85.8759 368.773 85.8508C370.434 85.8426 374.93 85.3207 378.777 84.7012C393.072 82.3993 400.931 86.4081 402.359 96.7589C402.913 100.776 400.429 109.214 397.781 112.342C395.685 114.818 390.22 116.883 385.772 116.889C379.604 116.897 379.275 116.445 378.751 107.846C378.315 100.689 378.163 100.251 375.639 98.0106C371.999 94.7796 368.734 94.8753 365.507 98.3172C361.981 102.078 361.292 104.206 361.29 111.371C361.286 122.767 365.76 128.957 376.822 132.83C388.994 137.09 402.986 131.858 411.257 119.929C414.52 115.223 414.52 115.219 419.074 115.458L423.626 115.688L423.369 123.276L423.086 130.837L427.021 132.574C430.416 134.066 431.935 134.228 438.002 133.8C449.022 133.023 448.367 133.558 450.114 124.016C451.426 116.853 451.898 115.592 453.611 114.743C456.515 113.305 456.825 112.386 457.88 101.715C459.405 86.2991 459.32 83.5367 457.263 81.9167C455.504 80.5316 455.493 80.5373 457.777 52.7433C461.151 11.695 461.125 13.7499 458.369 12.4319C457.315 11.928 456.46 11.5695 455.566 11.6144ZM284.166 13.0961C265.274 13.0961 265.265 13.0999 263.953 15.0887C262.952 16.6065 262.844 17.4677 263.516 18.7162C264.001 19.616 264.391 20.4855 264.391 20.6577C264.391 20.8299 261.738 19.6559 258.476 18.052L252.535 15.1398L235.64 15.2419C226.342 15.2945 212.886 15.5997 205.757 15.9317L192.796 16.5448V18.9972C192.796 20.5679 193.69 22.4782 195.265 24.2596C197.627 26.9322 197.739 27.3722 197.734 34.5802C197.73 38.7234 197.035 48.1859 196.165 55.6045C195.295 63.023 194.33 71.8516 194.031 75.2237C193.223 84.3143 190.527 101.642 189.042 107.335C186.459 117.237 183.126 121.03 177.006 121.002C171.267 120.975 170.433 118.817 169.96 102.66C169.648 92.0195 169.985 86.0593 171.709 71.1364C172.877 61.0202 174.06 49.9844 174.332 46.6123C175.39 33.4689 177.524 26.6827 180.89 25.8435C183.207 25.2657 185.005 20.3158 183.744 17.9754C182.774 16.1753 177.581 15.8765 123.774 14.6033C87.8466 13.7532 83.8384 13.8048 82.9874 14.9609C82.203 16.0267 79.4794 16.2935 66.8376 16.5192C51.633 16.7908 51.6409 16.7753 46.1616 19.457C33.3531 25.726 26.5658 39.3248 26.5658 58.7977C26.5658 75.1549 30.0106 82.2046 42.3556 91.2154C56.009 101.181 58.7456 105.454 57.2197 114.334C56.5044 118.497 55.7719 120.21 54.1337 121.615C51.1984 124.132 45.626 124.08 39.964 121.462C35.2484 119.281 33.3466 116.846 30.6547 109.557C28.3671 103.363 27.3632 101.549 25.9229 101C25.2428 100.74 24.565 100.662 24.4056 100.821C23.8284 101.394 20.5491 130.813 21.011 131.271C21.2719 131.531 26.2283 133.73 32.0434 136.151C41.1293 139.933 43.3876 140.563 48.0646 140.596C63.9895 140.707 76.5734 133.794 83.0389 121.411C89.4316 109.167 90.5871 86.9909 85.3533 76.7309C82.3383 70.8204 78.5875 67.1329 68.8949 60.4837C64.1187 57.2072 59.6971 53.7695 59.0455 52.8455C57.6412 50.8538 57.442 41.9558 58.7112 37.4158C60.2386 31.9522 66.7174 30.3566 74.2696 33.5839L78.2042 35.2955L78.3585 43.1892C78.5486 53.4572 80.5692 57.1083 83.9132 53.2287C85.2464 51.682 85.2839 51.6803 86.5877 53.2798C87.6843 54.625 88.2911 54.759 90.1109 54.0717C92.4199 53.1996 92.2482 53.7005 93.8654 41.8097C94.3677 38.1167 94.9241 37.0757 97.2857 35.2699L100.089 33.1241L99.5488 47.021C99.2531 54.6644 97.713 72.1378 96.1285 85.8508C94.544 99.5638 93.2524 112.275 93.2483 114.105C93.2348 120.056 91.1203 125.28 87.8993 127.337C85.1861 129.07 84.567 130.309 84.9676 133.264C85.2573 135.401 85.9752 135.592 98.4687 136.892C111.88 138.287 118.525 137.793 125.111 134.899C129.447 132.994 129.623 131.208 125.934 127.031C123.624 124.416 123.283 123.44 123.362 119.852C123.457 115.526 131.668 36.9605 132.363 33.7372C133.13 30.1752 139.833 32.3804 142.392 37.0326C144.549 40.9527 144.223 54.1069 141.441 75.6324C139.458 90.9721 139.172 95.48 139.538 106.288C140.108 123.166 141.116 126.346 147.381 131.246C156.322 138.238 166.848 140.383 179.681 137.811C183.808 136.984 187.338 135.783 188.347 134.848C190.35 132.991 191.877 132.834 192.488 134.414C192.836 135.315 196.876 135.666 212.006 136.125C233.004 136.762 238.157 136.155 246.286 132.063C248.53 130.934 250.521 129.994 250.735 129.994C250.949 129.994 251.263 131.374 251.404 133.06L251.635 136.125L273.314 136.355C294.094 136.564 295.008 136.506 295.404 135.001C295.809 133.466 295.898 133.461 299.648 135.129C305.467 137.717 316.174 138.046 323.384 135.844C330.082 133.799 334.603 130.911 341.154 124.527C352.055 113.905 359.85 88.9143 359.85 64.5966C359.85 38.3772 353.212 23.7624 337.888 16.3404C327.581 11.3486 315.312 12.46 305.922 19.2271C304.375 20.3421 304.249 20.2963 304.122 18.614C303.677 12.7009 305.166 13.0961 284.166 13.0961ZM455.643 14.731H458.035L457.495 22.7013C457.194 27.085 455.995 42.2609 454.846 56.4219C452.756 82.1692 452.769 82.1659 454.46 83.5261C456.469 85.1418 456.62 88.7832 455.232 101.562C454.255 110.552 453.522 112.827 451.58 112.827C449.993 112.827 449.093 115.061 447.517 123.02C446.808 126.596 445.788 129.794 445.254 130.122C443.15 131.413 432.704 131.761 429.387 130.658L426.095 129.56L426.404 122.177C426.749 113.421 426.322 112.816 419.46 112.265C414.298 111.851 412.941 112.615 409.585 117.86C406.737 122.311 402.813 125.711 397.293 128.538C384.391 135.145 368.401 130.173 364.864 118.447C361.807 108.309 365.602 97.5682 371.833 98.7515C374.856 99.3254 376.308 102.812 376.308 109.481C376.308 117.146 378.169 119.532 384.203 119.622C394.32 119.774 400.157 116.058 403.156 107.539C406.147 99.0436 405.523 92.4967 401.279 87.4857C396.468 81.8069 389.232 80.2675 376.951 82.2999C371.413 83.2164 368.549 83.3797 367.976 82.8108C367.403 82.242 368.176 78.6069 370.419 71.4429C372.231 65.6567 375.084 56.3197 376.745 50.6996C381.438 34.825 387.071 16.838 387.495 16.4171C388.027 15.8884 425.099 16.4055 425.992 16.9535C427.571 17.9227 424.571 32.1307 421.183 39.7405L419.203 44.1599H403.13C387.668 44.1599 387.027 44.2257 385.412 45.9481C383.316 48.1823 383.159 52.0769 385.154 52.6667C385.947 52.9008 389.197 53.6656 392.355 54.3783C401.263 56.3884 409.089 61.6122 412.671 67.9431C414.752 71.6218 415.376 71.8437 416.734 69.3226C417.274 68.3203 418.143 67.0519 418.637 66.5125C419.131 65.9732 427.108 54.0934 436.381 40.1236C452.088 16.4634 453.413 14.731 455.643 14.731ZM287.998 15.6251C293.475 15.6125 298.134 15.7208 299.185 15.9828C302.09 16.7072 302.149 19.3159 299.365 23.3911C297.059 26.7656 296.877 27.868 298.31 29.2922C299.873 30.8442 300.367 30.5383 303.839 25.869C307.836 20.4944 311.104 18.3964 318.241 16.647C331.703 13.3468 345.599 20.6661 352.392 34.6313C355.674 41.3793 356.864 49.3616 356.892 64.5966C356.915 76.463 356.616 80.3177 355.092 87.1536C350.958 105.697 346.571 115.42 338.891 123.122C328.276 133.767 314.848 137.359 302.245 132.932C294.198 130.105 293.788 130.059 292.807 132.268C291.975 134.14 291.958 134.14 273.031 133.903L254.104 133.673L254.001 130.531C253.808 125.678 252.998 125.53 245.823 129.126C235.687 134.206 224.345 135.1 199.663 132.728C194.574 132.238 194.565 132.237 196.114 130.096C200.368 124.213 204.228 102.977 206.812 71.1364C209.609 36.6547 209.586 36.8027 208.612 36.8027C207.18 36.8027 206.964 37.6074 206.014 46.6379C205.52 51.343 204.572 59.9779 203.906 65.8228C203.239 71.6677 201.917 84.1267 200.974 93.5146C198.338 119.766 196.245 126.189 188.682 131.246C177.132 138.968 158.256 137.693 148.333 128.512C144.439 124.91 144.124 124.312 142.984 118.269C141.136 108.472 141.517 95.7788 144.269 73.9975C147.529 48.2077 147.597 42.6334 144.784 36.726C142.399 31.7174 139.023 29.4455 133.932 29.4455C130.097 29.4455 129.774 30.3435 128.171 46.2036C127.444 53.3973 126.494 62.5938 126.062 66.6403C123.386 91.7386 121.046 113.88 120.636 117.911C120.108 123.106 121.317 127.116 123.799 128.436C126.781 130.021 125.63 132.212 121.048 133.724C117.461 134.907 114.912 135.067 105.206 134.643C90.6553 134.008 87.4621 133.476 87.4621 131.706C87.4621 130.962 88.5964 129.694 89.9566 128.896C93.9091 126.576 94.9451 123.508 96.1542 110.477C96.7642 103.903 98.2232 90.6126 99.4202 80.946C101.881 61.0725 103.209 29.4455 101.58 29.4455C99.7868 29.4455 92.4119 35.3356 92.0139 37.0837C91.7935 38.0514 91.2088 41.4088 90.7281 44.5431C90.2473 47.6774 89.655 50.4372 89.4165 50.6741C89.178 50.911 88.2396 50.0959 87.3335 48.8603C85.2747 46.0527 84.4002 46.04 83.1417 48.7837C82.1483 50.9496 82.1697 50.9496 81.6759 48.9881C81.4043 47.9092 81.097 44.2621 81.0073 40.89C80.8598 35.3521 80.6329 34.602 78.6671 32.9963C73.8062 29.0261 63.54 28.2349 59.5856 31.5402C56.4735 34.1415 55.3996 37.8562 55.3938 45.9737C55.388 53.6443 56.5447 55.2806 67.0433 62.323C81.6462 72.1186 85.1728 77.6425 85.6876 91.6242C86.2476 106.83 83.5393 117.702 77.2784 125.37C73.1215 130.462 67.3862 134.421 61.6686 136.176V136.202C56.6291 137.749 44.12 138.502 41.7899 137.402C40.8846 136.975 36.8112 135.262 32.7377 133.596C28.6642 131.93 24.8636 130.14 24.277 129.611C23.4051 128.825 23.4683 126.746 24.637 118.32C25.4234 112.65 26.3055 108.156 26.5915 108.331C26.8774 108.507 28.4652 111.377 30.1146 114.692C32.6933 119.875 33.6698 121.021 37.0838 122.867C48.0998 128.823 57.2522 126.652 59.4055 117.579C62.1508 106.012 59.0909 100.173 44.8758 89.7593C41.1418 87.024 38.0867 84.4146 38.0867 83.9604C38.0867 83.5062 37.8588 83.3693 37.5724 83.6538C36.7971 84.424 34.2105 80.837 31.6833 75.4791C29.5761 71.0114 29.4671 70.0625 29.4974 59.283C29.5415 43.6033 32.3703 34.6537 39.6297 27.2229C46.27 20.4259 51.9174 18.8571 69.7178 18.8439C80.2662 18.836 83.0852 18.5908 84.1961 17.5921C85.4149 16.4964 89.6605 16.4259 120.482 17.1578C139.673 17.6136 160.538 18.1863 166.874 18.4096C173.211 18.6329 179.043 18.8151 179.835 18.8183C182.243 18.8281 181.464 21.36 178.086 24.464C174.239 27.9994 173.316 30.8968 172.172 42.9337C171.702 47.8793 170.567 58.3707 169.652 66.2315C166.393 94.2021 166.207 111.121 169.06 118.958C171.429 125.467 183.001 125.067 187.627 118.32C191.252 113.033 194.261 98.3844 196.962 72.9245C197.901 64.0785 199.021 54.2556 199.431 51.1083C199.841 47.9611 200.163 40.9521 200.177 35.5253C200.202 25.6957 200.201 25.6508 197.734 22.9057C196.372 21.3902 195.539 19.9001 195.882 19.5847C196.226 19.2693 208.164 18.5313 222.421 17.9753C249.986 16.9004 251.12 16.9926 258.553 20.8109C261.456 22.3021 266.036 26.9904 266.036 28.4491C266.036 30.1024 268.86 29.3048 269.199 27.555C269.357 26.7412 268.646 24.0353 267.631 21.5517C266.357 18.4332 266.078 16.8528 266.705 16.4681C267.478 15.9936 278.871 15.6462 287.998 15.6251ZM239.831 30.2629C237.518 30.2629 237.323 30.5189 236.874 33.7372C236.265 38.1037 234.197 55.9962 233.119 66.2315C232.67 70.5028 231.169 83.9266 229.802 96.0436C228.435 108.161 227.519 118.553 227.745 119.137C228.355 120.716 232.15 120.408 235.177 118.55C241.589 114.613 245.663 103.422 249.141 80.1285C251.841 62.0448 251.422 43.1876 248.164 36.1896C246.579 32.7876 243.035 30.2629 239.831 30.2629ZM323.127 30.5184C321.039 30.6559 319.26 32.0924 317.34 35.0145C306.074 52.1636 301.414 110.166 310.526 119.801C313.006 122.424 316.535 122.441 319.166 119.827C327.992 111.06 335.371 65.529 331.87 41.4775C330.946 35.1307 329.492 32.481 326.213 31.1315C325.102 30.6745 324.075 30.4559 323.127 30.5184ZM240.32 32.8942C241.408 32.8097 243.885 34.497 245.052 36.2662C249.758 43.4011 248.972 71.4454 243.355 96.3246C240.928 107.073 238.535 112.435 234.765 115.586C231.09 118.658 229.916 118.409 230.394 114.667C230.609 112.981 232.729 94.0246 235.125 72.5414C237.522 51.0582 239.686 33.2943 239.934 33.0474C240.025 32.9575 240.165 32.9062 240.32 32.8942ZM323.332 33.1241C324.152 33.0559 325.016 33.4047 325.981 34.1204C329.245 36.541 329.675 39.213 329.71 57.2394C329.744 75.0812 328.964 81.7614 324.773 99.2624C322.411 109.12 320.209 114.743 317.649 117.528C316.719 118.539 315.302 119.367 314.486 119.367C310.506 119.367 308.464 110.293 308.546 92.7993C308.644 71.7831 312.09 51.7606 317.572 40.3025C319.887 35.4634 321.53 33.2741 323.332 33.1241ZM428.718 67.5344C428.529 67.5576 428.348 67.6224 428.188 67.7241C428.028 67.8258 427.893 67.9617 427.792 68.1219L419.203 82.1722C419.082 82.3639 419.014 82.5845 419.008 82.8109C419.001 83.0372 419.056 83.2612 419.166 83.4594C419.277 83.6576 419.438 83.8229 419.635 83.9379C419.831 84.053 420.055 84.1137 420.283 84.1137H428.898C429.235 84.1096 429.557 83.9729 429.794 83.7335C430.03 83.4941 430.161 83.1715 430.158 82.8364V68.7861C430.157 68.6063 430.118 68.4288 430.043 68.2652C429.968 68.1016 429.859 67.9557 429.722 67.8373C429.586 67.719 429.426 67.6307 429.253 67.5785C429.08 67.5262 428.897 67.5112 428.718 67.5344ZM427.612 73.3078V81.5591H422.546L427.612 73.3078ZM464.772 142.256C451.174 142.256 451.174 142.254 450.371 144.351C448.904 148.184 449.365 150.295 452.017 151.657C454.041 152.697 454.482 153.405 454.383 155.566C454.279 157.835 452.441 159.958 441.139 170.868L427.998 183.538L428.589 179.042C428.916 176.569 430.059 170.344 431.11 165.196C433.02 155.837 433.024 155.829 437.256 151.964C440.775 148.749 441.389 147.769 440.908 146.19C440.589 145.146 440.033 143.995 439.673 143.61C438.992 142.88 404.216 142.832 402.307 143.559C401.163 143.995 399.369 147.378 399.376 149.051C399.378 149.592 400.524 151.248 401.922 152.73C404.371 155.326 404.428 155.607 403.876 160.496C403.561 163.286 401.711 173.647 399.761 183.538C397.812 193.43 394.258 212.096 391.866 225.025C389.475 237.954 387.242 248.254 386.903 247.914C386.088 247.095 378.826 228.107 375.485 218.076L372.836 210.132L377.8 204.844C391.913 189.856 397.89 165.638 391.249 150.354C388.096 143.098 384.488 141.839 368.542 142.512C362.184 142.78 352.279 143.43 346.529 143.968C335.171 145.03 334.848 145.224 336.139 149.971C337.031 153.249 336.752 153.27 333.465 150.099C328.131 144.953 317.474 143.323 308.828 146.343C303.158 148.325 303.068 148.325 303.068 146.343C303.068 144.801 302.524 144.722 293.399 144.734C288.08 144.741 283.326 145.017 282.829 145.347C282.332 145.678 281.344 148.142 280.618 150.84L279.306 155.744L279.743 151.172L280.206 146.599L263.105 146.139C253.706 145.889 245.579 145.862 245.052 146.063C244.525 146.263 242.843 149.633 241.297 153.547L238.468 160.649L238.057 153.982C237.831 150.308 237.373 147.016 237.028 146.676C235.919 145.58 89.68 148.708 88.9536 149.843C88.6049 150.388 88.3173 152.419 88.3107 154.339C88.3001 157.277 88.6116 157.976 90.3423 158.759C92.1189 159.563 92.3996 160.214 92.3996 163.587C92.3996 166.861 89.8698 183.446 87.7964 193.655C87.086 197.152 87.6608 198.277 77.1755 172.86C72.3629 161.194 67.9207 150.877 67.3005 149.92C66.2247 148.261 65.4798 148.166 51.3049 148.03C43.1322 147.951 36.4409 148.076 36.4409 148.311C36.4409 148.545 37.2137 150.202 38.1381 151.964C41.4527 158.281 41.4798 162.213 38.421 184.356C31.6698 233.228 26.8635 252.91 21.0625 255.45C17.2107 257.137 16.3662 262.694 19.7767 263.931C22.7354 265.005 34.9327 265.111 37.6495 264.085C38.8161 263.644 40.1732 262.363 40.684 261.249C41.4999 259.47 41.3085 258.862 39.0382 256.293C37.6165 254.685 36.4633 252.747 36.4666 251.976C36.4699 251.205 37.707 243.581 39.2182 235.039C40.7295 226.496 43.4179 211.138 45.1844 200.91C46.9509 190.681 48.5584 182.332 48.7847 182.338C49.011 182.343 51.1423 187.402 53.4908 193.578C55.8393 199.754 62.2141 216.292 67.6605 230.338C73.1069 244.384 77.3471 256.39 77.0984 257.034C76.261 259.202 79.7459 261.59 83.9647 261.734C99.3911 262.26 148.909 261.319 149.799 260.483C150.832 259.511 155.765 234.176 155.765 229.853C155.765 228.547 155.209 227.015 154.53 226.455C152.744 224.983 151.428 226.361 148.384 232.842C143.308 243.649 136.004 248.615 124.494 249.115C120.646 249.282 117.087 249.142 116.573 248.783C115.894 248.309 116.519 243.47 118.836 231.105C120.591 221.739 122.231 213.738 122.488 213.325C123.227 212.137 129.296 212.446 131.951 213.81C134.562 215.151 135.066 216.485 135.397 222.777C135.578 226.215 135.881 226.915 137.326 227.12C138.271 227.254 139.443 226.886 139.923 226.302C141.558 224.316 147.855 186.711 147.073 183.615C146.176 180.064 143.009 182.539 139.692 189.388C137.558 193.795 136.111 195.733 134.189 196.72C131.577 198.062 125.894 198.674 124.931 197.716C124.202 196.992 129.489 164.967 130.563 163.613C131.265 162.726 133.49 162.565 140.952 162.897C146.167 163.129 151.064 163.596 151.856 163.919C153.571 164.619 153.65 166.371 152.319 175.517C151.563 180.709 151.554 182.549 152.293 183.283C153.613 184.594 157.402 182.87 157.513 180.907C157.566 179.972 157.789 180.174 158.156 181.495C158.746 183.613 161.139 184.497 163.017 183.283C163.599 182.907 164.792 178.955 165.691 174.495C166.59 170.035 167.522 165.792 167.749 165.069C168.173 163.715 174.38 160.467 175.129 161.211C175.448 161.528 167.992 207.126 161.911 241.987C161.092 246.684 159.057 250.686 156.536 252.538C153.517 254.755 151.62 258.377 152.242 260.738C152.725 262.574 152.721 262.577 171.606 262.296C190.302 262.019 190.494 262.01 192.051 260.099C194.284 257.358 193.999 254.944 191.15 252.461C189.726 251.219 188.707 249.504 188.707 248.399C188.711 245.122 199.356 182.13 202.749 165.35C203.587 161.201 203.717 161.058 206.375 161.058C211.312 161.058 214.196 166.035 215.478 176.769C216.026 181.355 217.453 183.754 219.053 182.772C220.711 181.754 221.042 190.97 220.518 224.923C220.038 256.12 220.099 259.88 221.264 260.84C223.618 262.781 225.081 260.591 230.008 247.659C232.652 240.719 238.412 225.842 242.815 214.602L250.812 194.165L251.404 213.376C252.044 234.611 253.355 254.151 254.387 257.928C254.834 259.566 255.643 260.46 256.856 260.636C258.963 260.942 260.764 257.416 265.111 244.44C269.11 232.499 269.596 232.244 272.594 240.531C277.103 252.994 283.161 260.619 290.004 262.45C296.082 264.075 301.266 262.541 312.66 255.757L315.257 254.224L314.846 257.238L314.435 260.253L331.999 259.665C353.042 258.98 354.951 258.657 356.455 255.552C357.462 253.472 357.411 253.021 355.838 251.082C352.157 246.545 352.037 245.834 353.678 235.805C354.521 230.65 355.48 226.696 355.786 227.043C356.277 227.599 358.77 241.84 360.313 252.793C360.611 254.914 361.323 257.033 361.881 257.494C363.191 258.573 405.962 258.664 410.408 257.596C412.481 257.098 414.183 257.087 415.14 257.596C416.359 258.244 416.631 258.081 416.631 256.702C416.631 255.773 416.076 254.815 415.397 254.556C414.624 254.261 414.163 253.009 414.163 251.209C414.163 244.133 419.499 215.657 421.929 209.723C422.865 207.438 423.119 208.119 426.326 221.167C428.202 228.798 430.156 238.271 430.672 242.217C431.736 250.345 431.076 252.311 426.506 254.658C425.153 255.353 424.038 256.533 424.038 257.264C424.038 258.466 425.696 258.534 441.525 258.005C461.223 257.346 461.892 257.126 461.892 251.695C461.892 249.47 461.468 248.355 460.349 247.761C456.558 245.745 453.727 235.256 447.491 199.99C444.876 185.201 444.62 182.63 445.562 180.882C446.16 179.771 450.732 175.121 455.72 170.535C467.416 159.785 468.002 159.239 473.619 154.314C478.149 150.341 478.351 149.996 478.351 146.216V142.256L464.772 142.256ZM374.894 144.811C384.792 144.759 387.757 146.964 389.912 154.288C390.978 157.911 391.219 161.025 390.915 167.598C390.264 181.694 384.863 194.029 375.074 203.822C372.346 206.55 370.276 209.343 370.419 210.055C371.855 217.184 384.755 252.005 386.132 252.461C386.616 252.622 387.006 253.464 387.006 254.326C387.006 255.797 386.294 255.884 375.177 255.884H363.347L362.396 249.14C360.929 238.787 357.422 218.988 356.918 218.179C356.46 217.442 354.089 217.166 354.089 217.846C354.089 218.052 353.153 223.662 351.98 230.313C350.808 236.964 349.738 243.316 349.615 244.44C349.336 246.982 351.553 251.797 353.009 251.797C353.604 251.797 354.089 252.667 354.089 253.738C354.089 255.563 353.713 255.727 348.123 256.216C344.842 256.504 336.695 256.934 330.019 257.162C317.881 257.575 317.881 257.565 317.881 255.654C317.881 254.604 317.379 253.036 316.749 252.18C315.646 250.682 315.418 250.749 310.963 253.687C293.643 265.111 282.856 261.158 275.526 240.71C272.903 233.393 272.277 232.505 269.251 231.769C267.167 231.262 266.993 231.506 264.031 239.688C262.35 244.33 260.13 250.306 259.093 252.972L257.216 257.826L256.264 252.359C255.372 247.271 253.753 210.461 253.718 194.395C253.705 188.324 253.51 187.343 252.432 187.753C250.907 188.335 249.674 190.653 245.823 200.066C243.169 206.555 228.908 243.224 225.302 252.844C224.496 254.995 223.503 256.959 223.09 257.213C222.64 257.489 222.613 249.89 223.013 238.181C223.784 215.623 223.731 187.279 222.91 183.13C222.599 181.556 222.289 179.809 222.241 179.247C222.156 178.248 221.319 177.925 219.438 178.148C218.924 178.209 218.257 176.516 217.947 174.367C216.406 163.698 212.777 158.61 206.709 158.631C204.726 158.638 202.646 158.903 202.106 159.244C200.69 160.138 199.154 168.13 190.353 220.324C185.352 249.984 185.318 250.884 188.887 254.198C193.474 258.457 191.83 258.978 172.017 259.537C157.27 259.954 154.942 259.842 154.942 258.797C154.942 257.66 158.899 253.432 159.957 253.432C161.624 253.432 164.316 243.812 166.848 228.908C179.307 155.584 178.975 158.606 175.078 158.606C172.41 158.606 166.753 161.459 165.768 163.306C165.35 164.091 164.384 167.863 163.608 171.685C161.713 181.023 160.754 182.438 160.934 175.619C161.013 172.606 160.81 169.876 160.497 169.565C159.562 168.636 157.565 170.813 156.999 173.371C156.222 176.885 154.607 177.513 155.225 174.061C155.498 172.535 155.961 169.411 156.253 167.112C156.783 162.946 156.772 162.928 154.016 161.901C150.96 160.762 133.17 159.756 129.997 160.547C128.157 161.006 127.825 161.826 126.242 170.254C124.162 181.333 122.025 195.45 122.025 198.151C122.025 200.621 124.597 201.385 130.511 200.629C134.082 200.172 135.326 199.528 137.969 196.797C139.714 194.993 141.824 191.996 142.649 190.155C143.635 187.955 144.155 187.369 144.192 188.443C144.255 190.227 139.464 218.405 139.023 218.843C138.875 218.991 138.082 217.658 137.275 215.879C136.333 213.805 134.862 212.198 133.134 211.383C129.897 209.857 122.901 209.707 120.971 211.128C119.72 212.048 115.575 231.538 113.358 246.994L112.818 250.801L118.116 251.695C131.81 254.064 142.789 248.384 150.699 234.834C152.293 232.102 153.259 230.989 153.013 232.178C152.781 233.302 151.811 239.004 150.853 244.848C149.894 250.693 148.756 256.324 148.333 257.34C147.564 259.189 147.584 259.189 114.13 258.975L80.673 258.745L79.5415 254.352C78.9195 251.937 77.8587 248.81 77.2013 247.403C76.5439 245.996 74.8337 241.722 73.3953 237.9C70.1537 229.288 67.9355 223.562 63.5974 212.558C61.7362 207.838 58.1878 198.641 55.7024 192.122C50.9258 179.592 49.9041 177.866 47.7561 178.685C46.2038 179.276 45.9318 180.472 41.327 207.245C39.471 218.035 37.0674 232.014 35.978 238.309C33.5128 252.553 33.495 253.556 36.0294 256.548C38.5033 259.469 38.6179 260.465 36.518 261.581C34.9229 262.429 23.7667 262.662 21.834 261.888C20.1741 261.222 20.6695 259.105 22.8627 257.391C28.7398 252.799 34.2369 232.761 39.2183 197.844C44.1988 162.932 44.2181 162.813 42.7414 157.124C42.0026 154.277 41.3784 151.587 41.3784 151.172C41.3784 150.748 44.0003 150.578 47.3446 150.763C50.626 150.944 56.0239 151.125 59.3284 151.172C65.3366 151.256 65.3512 151.248 66.5805 154.314C67.2566 156 68.1555 158.115 68.5863 159.014C70.1244 162.225 81.9007 190.993 83.8104 196.209C85.6357 201.194 87.464 203.089 88.6451 201.191C90.0405 198.948 95.9796 163.208 95.4599 160.164C95.3371 159.444 94.2192 157.922 92.9911 156.792C91.763 155.661 90.7538 154.014 90.7538 153.113C90.7538 151.512 91.4632 151.462 123.054 150.942C140.818 150.649 162.019 150.23 170.166 150.022C227.126 148.571 234.523 148.56 235.048 149.92C235.327 150.642 235.379 154.869 235.177 159.321C234.897 165.467 235.081 167.644 235.923 168.338C236.807 169.068 237.572 168.148 239.729 163.74C241.215 160.701 242.707 157.461 243.046 156.562C243.385 155.663 244.131 153.723 244.692 152.245C245.252 150.766 246.302 149.283 247.032 148.949C247.762 148.615 254.856 148.48 262.796 148.643L277.223 148.924L276.657 153.573C275.788 160.478 275.806 168.415 276.709 168.415C277.966 168.415 279.226 165.511 281.749 156.741C283.042 152.249 284.298 148.384 284.526 148.157C285.231 147.458 293.455 147.027 296.253 147.544C298.678 147.993 298.86 148.239 298.413 150.456C297.782 153.594 298.925 153.6 305.562 150.482C316.917 145.148 325.907 146.44 334.005 154.569C341.007 161.598 342.883 161.095 339.945 152.985C338.955 150.253 338.329 147.847 338.531 147.646C338.974 147.206 357.585 145.632 370.188 144.964C371.901 144.873 373.48 144.818 374.894 144.811ZM466.367 145.117C475.239 145.117 475.351 145.135 475.496 147.059C475.591 148.317 474.766 149.764 473.182 151.146C465.615 157.749 458.06 164.782 450.577 172.17C443.583 179.075 442.142 180.899 442.142 182.951C442.142 189.762 451.842 237.461 454.563 244.031C455.121 245.38 455.533 246.768 455.463 247.096C455.393 247.425 456.263 248.278 457.392 249.012C459.605 250.453 460.049 252.735 458.395 254.045C456.899 255.229 430.621 256.269 430.621 255.143C430.621 254.659 430.969 254.249 431.367 254.249C431.764 254.249 432.539 253.127 433.115 251.746C435.032 247.149 431.087 225.405 425.555 210.132C423.111 203.383 421.45 202.832 419.589 208.216C416.491 217.174 411.694 242.797 411.694 250.443C411.694 254.837 411.706 254.854 407.888 255.373C405.788 255.659 400.553 255.884 396.264 255.884C388.563 255.884 388.472 255.861 389.012 254.045C389.313 253.033 390.052 249.447 390.658 246.075C391.264 242.703 393.481 230.706 395.57 219.405C397.658 208.103 400.324 192.653 401.484 185.071C402.645 177.489 404.312 168.948 405.188 166.09C407.49 158.573 407.294 153.944 404.596 151.146C399.987 146.367 402.761 145.526 423.318 145.526C439.577 145.526 440.645 145.934 435.25 150.022C431.342 152.983 429.512 157.904 426.969 172.4C424.743 185.092 424.71 187.217 426.764 187.217C428.86 187.217 456.736 159.247 457.186 156.69C457.804 153.183 457.005 151.319 454.331 149.945C451.279 148.377 451.588 146.149 454.923 145.552C456.278 145.309 461.427 145.117 466.367 145.117ZM371.602 152.066C366.518 152.066 365.939 153.37 362.73 172.094C361.112 181.536 359.47 190.92 359.078 192.939C358.687 194.959 358.576 196.94 358.821 197.333C359.481 198.394 365.652 197.478 369.21 195.8C379.061 191.157 384.386 176.685 381.297 162.974C380.013 157.274 375.385 152.066 371.602 152.066ZM371.602 154.518C373.441 154.518 375.658 156.502 377.337 159.653C379.928 164.517 379.997 177.668 377.465 183.13C375.225 187.963 372.038 191.637 368.722 193.195C365.523 194.697 361.495 195.763 361.495 195.111C361.495 194.854 363.011 186.064 364.839 175.594C368.072 157.07 368.892 154.518 371.602 154.518ZM312.197 161.313C310.878 161.308 309.363 162.068 307.723 163.664C304.266 167.026 302.374 170.713 298.722 181.137C290.735 203.932 288.6 233.388 294.504 239.254C297.151 241.883 298.705 241.666 302.014 238.181C309.106 230.711 315.834 208.936 317.881 186.783C319.334 171.048 316.909 161.33 312.197 161.313ZM103.175 161.875C102.456 161.802 101.447 162.353 101.195 163.306C98.8858 172.022 93.9041 195.465 91.6024 208.471C88.4629 226.211 84.9788 245.581 84.5047 247.914C84.103 249.89 84.3075 250.162 86.1248 250.162C87.3834 250.162 88.361 249.602 88.6193 248.731C90.6497 241.885 103.921 167.294 103.921 162.744C103.921 162.204 103.606 161.92 103.175 161.875ZM311.914 163.664C312.768 163.629 313.384 164.561 314.255 166.576C316.119 170.888 315.366 191.772 312.943 203.158C309.519 219.243 302.843 235.832 298.953 237.9C298.113 238.347 297.239 238.717 296.999 238.717C293.782 238.717 293.382 213.399 296.382 199.581C299.923 183.265 305.081 169.634 309.291 165.452C310.451 164.3 311.25 163.69 311.914 163.664ZM320.324 275.044C319.842 275.039 319.251 275.219 318.523 275.606C316.201 276.84 310.277 285.312 308.52 289.911C307.461 292.682 306.263 294.331 304.817 294.969C303.64 295.489 298.648 298.94 293.733 302.659C281.299 312.067 279.862 313.002 277.814 313.056C275.566 313.115 274.925 312.119 274.78 308.33C274.612 303.938 272.404 304.049 266.011 308.815C259.059 313.998 254.515 316.716 254.515 315.687C254.515 314.605 265.148 305.132 271.18 300.845C273.782 298.995 275.911 297.12 275.911 296.681C275.911 295.507 273.719 294.886 271.54 295.429C269.394 295.964 256.103 304.479 251.918 307.998C250.411 309.265 247.595 311.369 245.643 312.673C241.588 315.382 237.482 319.857 238.7 320.26C239.15 320.409 241.377 319.464 243.637 318.14L247.752 315.738L246.826 318.165C246.028 320.267 246.118 320.767 247.495 321.767C248.373 322.405 249.588 322.917 250.195 322.917C251.925 322.917 258.644 319.112 263.13 315.585L267.219 312.366L268.222 314.716C269.885 318.646 275.225 320.167 278.817 317.731C279.71 317.125 281.487 315.959 282.752 315.151C285.051 313.682 285.053 313.688 284.089 315.789C283.559 316.945 283.371 318.894 283.678 320.107C284.181 322.097 284.522 322.259 287.098 321.844C290.444 321.304 292.51 319.795 299.931 312.571L305.434 307.232L306.72 309.709C309.58 315.203 314.475 316.259 318.343 312.213C320.462 309.998 320.557 309.714 319.115 309.863C315.443 310.241 314.487 309.755 313.329 307.002C311.379 302.365 311.834 299.264 315.412 293.181C317.222 290.104 318.703 287.151 318.703 286.616C318.703 286.081 319.038 285.306 319.424 284.879C319.809 284.452 320.608 282.305 321.198 280.127C322.099 276.802 321.767 275.058 320.324 275.044ZM121.819 276.934C121.444 276.92 121.011 276.956 120.456 277.011C117.507 277.301 116.565 277.942 114.387 281.251C112.378 284.304 109.516 293.695 110.427 294.254C110.895 294.542 110.741 297.001 110.015 300.462C107.349 313.182 107.511 314.721 111.738 315.815C114.338 316.488 130.285 315.693 133.186 314.742C135.192 314.084 135.809 313.395 135.809 311.855C135.809 310.748 135.392 309.828 134.883 309.812C133.327 309.763 137.976 307.441 139.692 307.41C140.94 307.388 141.077 307.618 140.309 308.381C138.887 309.793 139.058 310.447 141.261 311.881C143.768 313.513 149.208 312.457 155.945 308.994C158.529 307.666 160.797 306.567 160.985 306.567C161.173 306.567 161.54 307.665 161.808 308.994C162.361 311.739 165.82 313.924 169.574 313.924C173.792 313.924 183.41 308.407 181.867 306.874C181.607 306.616 179.261 307.166 176.646 308.1C172.347 309.636 171.717 309.696 170.012 308.585C168.663 307.708 168.109 306.57 168.109 304.6C168.109 300.514 166.395 300.413 158.362 304.013C149.636 307.923 148.358 308.338 148.358 307.436C148.358 306.624 151.433 304.683 161.937 298.827C166 296.562 169.333 294.346 169.343 293.897C169.381 292.203 164.033 292.633 158.954 294.74C146.041 300.094 131.9 307.629 131.9 309.147C131.9 310.365 131.284 310.655 128.737 310.655C126.99 310.655 123.914 310.891 121.896 311.166C116.282 311.93 115.26 310.505 116.779 304.038C117.426 301.28 118.825 296.754 119.89 293.999C122.254 287.883 123.977 280.491 123.542 278.339C123.349 277.384 122.943 276.976 121.819 276.934ZM216.172 279.489C213.077 279.577 211.833 280.197 210.129 281.89C207.822 284.182 207.826 284.171 208.252 295.25C208.677 306.33 208.673 306.333 206.503 306.874C203.919 307.518 203.701 309.465 205.937 311.83C207.404 313.381 207.45 314.037 206.657 319.928C205.772 326.508 206.03 327.475 208.792 327.949C210.12 328.177 210.593 327.365 211.698 322.968C213.096 317.406 214.239 316.281 216.507 318.216C219.462 320.738 234.71 329.467 238.957 331.066C241.412 331.99 243.961 333.103 244.64 333.544C246.29 334.615 246.927 334.561 247.341 333.339C247.989 331.425 247.003 329.756 244.383 328.256C242.944 327.432 237.139 323.7 231.474 319.979C221.54 313.453 216.728 309.516 217.638 308.611C217.877 308.374 220.653 307.455 223.784 306.593C230.262 304.81 239.564 300.841 243.097 298.342C248.02 294.86 245.35 288.107 237.517 284.189C234.108 282.484 223.603 279.727 219.953 279.565C218.423 279.498 217.204 279.459 216.172 279.489ZM339.945 283.78C336.361 283.968 330.612 288.117 331.51 290.422C332.711 293.505 340.265 290.844 341.668 286.846C342.346 284.913 342.27 284.326 341.308 283.959C340.91 283.807 340.457 283.754 339.945 283.78ZM215.504 286.309C216.424 286.268 217.551 286.33 218.924 286.488C228.59 287.606 237.253 291.44 237.234 294.586C237.226 295.984 232.449 298.98 226.022 301.611C219.551 304.261 215.838 305.258 215.838 304.345C215.838 303.998 216.577 301.197 217.458 298.137C218.339 295.077 218.84 292.041 218.59 291.393C218.058 290.016 214.927 289.82 213.652 291.087C213.027 291.708 212.653 291.374 212.366 289.886C211.911 287.521 212.744 286.433 215.504 286.309ZM367.796 295.123C365.959 295.27 361.965 297.086 357.998 299.798C351.546 304.208 349.192 306.455 352.726 304.856C355.288 303.696 356.683 304.472 354.681 305.954C352.367 307.667 352.006 311.855 354.012 313.848C356.038 315.86 357.879 315.972 363.784 314.41C371.613 312.34 380.423 305.634 380.423 301.765C380.423 299.005 377.314 297.166 372.631 297.166C369.244 297.166 368.402 296.917 368.747 296.017C369.014 295.322 368.631 295.056 367.796 295.123ZM305.1 299.031C305.456 299.007 305.528 299.489 305.537 300.309C305.556 302.132 304.151 303.98 298.902 309.096C295.247 312.66 291.888 315.559 291.444 315.559C289.899 315.559 293.669 310.295 299.57 304.166C303.084 300.517 304.506 299.072 305.1 299.031ZM334.082 300.82C332.579 300.965 330.755 302.095 328.501 304.166C326.52 305.987 325.687 307.091 326.676 306.618C329.542 305.249 330.426 305.508 329.401 307.41C328.887 308.366 328.865 308.966 329.324 308.841C329.76 308.722 331.382 309.99 332.95 311.677C335.316 314.22 336.355 314.74 338.994 314.716C340.743 314.701 343.083 314.152 344.214 313.49C346.271 312.286 346.271 312.27 343.803 312.801L341.334 313.337L343.288 311.242C345.174 309.2 345.185 309.142 343.494 309.582C341.203 310.177 339.585 308.77 338.376 305.086C337.385 302.064 336.015 300.632 334.082 300.82ZM370.445 301.714C371.353 301.748 372.215 301.954 372.888 302.378C374.655 303.491 372.111 307.508 368.259 309.658C366.456 310.665 363.993 311.472 362.781 311.472C360.794 311.472 360.594 311.22 360.827 308.841C360.999 307.083 361.706 305.895 362.936 305.29C363.951 304.79 365.474 303.763 366.304 303.016C367.319 302.104 368.931 301.656 370.445 301.714Z" fill="black"/>
<path fill-rule="evenodd" clip-rule="evenodd" d="M441.262 290.488V280.396H445.546C446.65 280.396 447.419 280.496 447.922 280.663C448.424 280.863 448.791 281.162 449.093 281.628C449.394 282.095 449.528 282.628 449.528 283.227C449.528 283.993 449.327 284.593 448.859 285.092C448.424 285.591 447.754 285.892 446.85 286.024C447.319 286.291 447.687 286.557 447.955 286.858C448.256 287.19 448.624 287.723 449.126 288.522L450.365 290.488H447.922L446.449 288.289C445.914 287.49 445.546 286.99 445.345 286.791C445.178 286.591 444.977 286.457 444.742 286.391C444.542 286.291 444.173 286.258 443.705 286.258H443.304V290.488L441.262 290.488ZM443.304 284.659H444.809C445.78 284.659 446.416 284.626 446.65 284.526C446.884 284.459 447.085 284.326 447.219 284.126C447.353 283.893 447.419 283.66 447.419 283.36C447.419 283.027 447.353 282.727 447.152 282.528C446.984 282.328 446.717 282.195 446.382 282.128C446.214 282.128 445.713 282.095 444.91 282.095H443.304L443.304 284.659ZM445.077 277.832C440.794 277.832 437.313 281.296 437.313 285.559C437.313 289.821 440.794 293.285 445.077 293.285C449.327 293.285 452.807 289.821 452.807 285.559C452.807 281.296 449.327 277.832 445.077 277.832ZM445.077 276.566C440.091 276.566 436.008 280.596 436.008 285.559C436.008 290.521 440.091 294.551 445.077 294.551C450.03 294.551 454.112 290.521 454.112 285.559C454.112 280.596 450.03 276.566 445.077 276.566Z" fill="black"/>
</svg>
