<svg width="89" height="89" viewBox="0 0 89 89" fill="none" xmlns="http://www.w3.org/2000/svg">
<path fill-rule="evenodd" clip-rule="evenodd" d="M1.17157 41.5147C-0.390526 43.0768 -0.390523 45.6094 1.17157 47.1715L41.5147 87.5146C43.0768 89.0767 45.6094 89.0767 47.1715 87.5146L87.5146 47.1715C89.0767 45.6094 89.0767 43.0768 87.5146 41.5147L47.1715 1.17157C45.6094 -0.390526 43.0768 -0.390523 41.5147 1.17157L1.17157 41.5147ZM41.5146 23.1714L23.1713 41.5147C21.6092 43.0768 21.6092 45.6094 23.1713 47.1715L41.5146 65.5148C43.0767 67.0769 45.6093 67.0769 47.1714 65.5148L65.5147 47.1715C67.0768 45.6094 67.0768 43.0768 65.5147 41.5147L47.1714 23.1714C45.6093 21.6093 43.0767 21.6093 41.5146 23.1714Z" fill="#E30613"/>
</svg>
