<svg width="144" height="57" viewBox="0 0 144 57" fill="none" xmlns="http://www.w3.org/2000/svg">
<mask id="path-1-outside-1_3_4" maskUnits="userSpaceOnUse" x="-0.252014" y="0.363998" width="144" height="57" fill="black">
<rect fill="white" x="-0.252014" y="0.363998" width="144" height="57"/>
<path d="M12.604 32.552C10.58 32.552 8.61732 32.1687 6.71599 31.402C4.84532 30.6353 3.18932 29.5467 1.74799 28.136L4.87599 24.502C5.94932 25.514 7.17599 26.342 8.55599 26.986C9.93599 27.5993 11.316 27.906 12.696 27.906C14.4133 27.906 15.7167 27.5533 16.606 26.848C17.4953 26.1427 17.94 25.2073 17.94 24.042C17.94 22.7847 17.4953 21.88 16.606 21.328C15.7473 20.776 14.6433 20.2087 13.294 19.626L9.15399 17.832C8.17265 17.4027 7.20665 16.8507 6.25599 16.176C5.33599 15.5013 4.56932 14.6427 3.95599 13.6C3.37332 12.5573 3.08199 11.3 3.08199 9.828C3.08199 8.23333 3.51132 6.80733 4.36999 5.55C5.25932 4.262 6.45532 3.25 7.95799 2.514C9.49132 1.74733 11.2393 1.364 13.202 1.364C14.95 1.364 16.6367 1.71667 18.262 2.422C19.8873 3.09666 21.2827 4.01666 22.448 5.182L19.734 8.586C18.7833 7.78866 17.7713 7.16 16.698 6.7C15.6553 6.24 14.49 6.01 13.202 6.01C11.7913 6.01 10.6413 6.332 9.75199 6.976C8.89332 7.58933 8.46399 8.448 8.46399 9.552C8.46399 10.3187 8.67865 10.9627 9.10799 11.484C9.56799 11.9747 10.166 12.404 10.902 12.772C11.638 13.1093 12.42 13.4467 13.248 13.784L17.342 15.486C19.1207 16.2527 20.5773 17.2647 21.712 18.522C22.8467 19.7487 23.414 21.4507 23.414 23.628C23.414 25.2533 22.9847 26.7407 22.126 28.09C21.2673 29.4393 20.0253 30.528 18.4 31.356C16.8053 32.1533 14.8733 32.552 12.604 32.552Z"/>
<path d="M31.0464 32L21.6624 1.916H27.3204L31.5524 17.05C32.0431 18.7367 32.4877 20.362 32.8864 21.926C33.2851 23.49 33.7297 25.1307 34.2204 26.848H34.4044C34.9257 25.1307 35.3704 23.49 35.7384 21.926C36.1371 20.362 36.5664 18.7367 37.0264 17.05L41.2124 1.916H46.6864L37.3484 32H31.0464Z"/>
<path d="M57.9273 32.552C55.6273 32.552 53.6186 32.092 51.9013 31.172C50.1839 30.252 48.85 28.78 47.8993 26.756C46.9793 24.732 46.5193 22.0793 46.5193 18.798V1.916H51.8553V19.212C51.8553 21.3893 52.1006 23.122 52.5913 24.41C53.1126 25.6673 53.8333 26.572 54.7533 27.124C55.6733 27.6453 56.7313 27.906 57.9273 27.906C59.154 27.906 60.2273 27.6453 61.1473 27.124C62.098 26.572 62.834 25.6673 63.3553 24.41C63.9073 23.122 64.1833 21.3893 64.1833 19.212V1.916H69.2893V18.798C69.2893 22.0793 68.8293 24.732 67.9093 26.756C66.9893 28.78 65.6706 30.252 63.9533 31.172C62.2666 32.092 60.258 32.552 57.9273 32.552Z"/>
<path d="M85.2639 32.552C82.6572 32.552 80.3572 31.9233 78.3639 30.666C76.3705 29.378 74.8065 27.5687 73.6719 25.238C72.5679 22.8767 72.0159 20.0707 72.0159 16.82C72.0159 13.5693 72.5679 10.794 73.6719 8.494C74.8065 6.194 76.3705 4.43066 78.3639 3.204C80.3572 1.97733 82.6572 1.364 85.2639 1.364C87.9012 1.364 90.2165 1.97733 92.2099 3.204C94.2032 4.43066 95.7519 6.194 96.8559 8.494C97.9905 10.794 98.5579 13.5693 98.5579 16.82C98.5579 20.0707 97.9905 22.8767 96.8559 25.238C95.7519 27.5687 94.2032 29.378 92.2099 30.666C90.2165 31.9233 87.9012 32.552 85.2639 32.552ZM85.2639 27.906C87.6252 27.906 89.5112 26.9093 90.9219 24.916C92.3325 22.892 93.0379 20.1933 93.0379 16.82C93.0379 13.4467 92.3325 10.8093 90.9219 8.908C89.5112 6.976 87.6252 6.01 85.2639 6.01C82.9025 6.01 81.0165 6.976 79.6059 8.908C78.1952 10.8093 77.4899 13.4467 77.4899 16.82C77.4899 20.1933 78.1952 22.892 79.6059 24.916C81.0165 26.9093 82.9025 27.906 85.2639 27.906Z"/>
<path d="M106.215 32V6.424H97.5211V1.916H120.245V6.424H111.551V32H106.215Z"/>
<path d="M126.357 15.992L125.299 19.672H132.981L131.923 15.992C131.432 14.3973 130.957 12.7567 130.497 11.07C130.067 9.38333 129.638 7.712 129.209 6.056H129.025C128.626 7.74267 128.197 9.42933 127.737 11.116C127.307 12.772 126.847 14.3973 126.357 15.992ZM116.283 32L126.081 1.916H132.337L142.135 32H136.523L134.177 23.858H124.057L121.711 32H116.283Z"/>
<path d="M2 55.6283V35.3717H6.11611L9.76092 45.2832C9.99134 45.9233 10.2113 46.5841 10.4207 47.2655C10.6512 47.9263 10.8711 48.587 11.0806 49.2478H11.2063C11.4367 48.587 11.6566 47.9263 11.8661 47.2655C12.0756 46.5841 12.2851 45.9233 12.4945 45.2832L16.0451 35.3717H20.1926V55.6283H16.8306V46.3673C16.8306 45.7271 16.8515 45.0354 16.8934 44.292C16.9563 43.528 17.0191 42.764 17.0819 42C17.1657 41.236 17.2391 40.5442 17.3019 39.9248H17.1762L15.5109 44.6327L12.1489 53.7389H9.98086L6.58742 44.6327L4.95354 39.9248H4.82787C4.89071 40.5442 4.95355 41.236 5.01639 42C5.10018 42.764 5.16301 43.528 5.20491 44.292C5.26775 45.0354 5.29917 45.7271 5.29917 46.3673V55.6283H2Z"/>
<path d="M27.4231 44.8496L26.7004 47.3274H31.9476L31.225 44.8496C30.8898 43.7758 30.5651 42.6711 30.2509 41.5354C29.9577 40.3997 29.6644 39.2743 29.3711 38.1593H29.2455C28.9731 39.295 28.6799 40.4307 28.3657 41.5664C28.0724 42.6814 27.7582 43.7758 27.4231 44.8496ZM20.5419 55.6283L27.2345 35.3717H31.5078L38.2004 55.6283H34.367L32.7646 50.146H25.852L24.2496 55.6283H20.5419Z"/>
<path d="M46.8364 56C44.9931 56 43.3382 55.5973 41.8719 54.792C40.4056 53.9867 39.2535 52.8097 38.4156 51.2611C37.5778 49.6917 37.1588 47.792 37.1588 45.5619C37.1588 43.3525 37.5882 41.4631 38.4471 39.8938C39.3059 38.3038 40.4685 37.0959 41.9348 36.2699C43.4011 35.4233 45.0454 35 46.8678 35C48.3341 35 49.57 35.2684 50.5755 35.8053C51.6019 36.3215 52.4398 36.91 53.0891 37.5708L51.141 39.8938C50.6174 39.3982 50.0308 38.9852 49.3815 38.6549C48.7531 38.3038 47.9571 38.1283 46.9935 38.1283C45.1711 38.1283 43.6943 38.7891 42.5632 40.1106C41.453 41.4115 40.8979 43.1976 40.8979 45.469C40.8979 47.7817 41.432 49.5988 42.5004 50.9204C43.5687 52.2212 45.1292 52.8717 47.182 52.8717C47.7686 52.8717 48.3237 52.7994 48.8473 52.6549C49.371 52.4897 49.8004 52.2625 50.1356 51.9735V47.6062H46.2394V44.6637H53.4033V53.5841C52.7121 54.2655 51.7904 54.8437 50.6383 55.3186C49.5072 55.7729 48.2399 56 46.8364 56Z"/>
<path d="M59.784 44.8496L59.0613 47.3274H64.3085L63.5859 44.8496C63.2507 43.7758 62.926 42.6711 62.6118 41.5354C62.3186 40.3997 62.0253 39.2743 61.732 38.1593H61.6064C61.334 39.295 61.0408 40.4307 60.7266 41.5664C60.4333 42.6814 60.1191 43.7758 59.784 44.8496ZM52.9028 55.6283L59.5954 35.3717H63.8687L70.5613 55.6283H66.7279L65.1255 50.146H58.2129L56.6105 55.6283H52.9028Z"/>
<path d="M69.3904 55.6283V53.4602L79.3193 38.4071H70.3016V35.3717H83.8439V37.5398L73.8835 52.5929H83.9067V55.6283H69.3904Z"/>
<path d="M83.7298 55.6283V53.4602L93.6587 38.4071H84.6409V35.3717H98.1833V37.5398L88.2229 52.5929H98.2461V55.6283H83.7298Z"/>
<path d="M99.8498 55.6283V35.3717H103.495V55.6283H99.8498Z"/>
<path d="M106.518 55.6283V35.3717H110.257L116.667 46.7699L118.772 51.0752H118.898C118.814 50.0428 118.709 48.9174 118.584 47.6991C118.479 46.4808 118.427 45.3038 118.427 44.1681V35.3717H121.914V55.6283H118.175L111.765 44.2301L109.66 39.9248H109.535C109.618 40.9985 109.713 42.1239 109.817 43.3009C109.943 44.4779 110.006 45.6342 110.006 46.7699V55.6283H106.518Z"/>
<path d="M132.919 56C131.139 56 129.568 55.5767 128.206 54.7301C126.845 53.8628 125.776 52.6445 125.001 51.0752C124.247 49.4853 123.87 47.5959 123.87 45.4071C123.87 43.2183 124.247 41.3496 125.001 39.8009C125.776 38.2522 126.845 37.0649 128.206 36.2389C129.568 35.413 131.139 35 132.919 35C134.721 35 136.302 35.413 137.664 36.2389C139.026 37.0649 140.083 38.2522 140.837 39.8009C141.612 41.3496 142 43.2183 142 45.4071C142 47.5959 141.612 49.4853 140.837 51.0752C140.083 52.6445 139.026 53.8628 137.664 54.7301C136.302 55.5767 134.721 56 132.919 56ZM132.919 52.8717C134.532 52.8717 135.821 52.2006 136.784 50.8584C137.748 49.4956 138.23 47.6785 138.23 45.4071C138.23 43.1357 137.748 41.3599 136.784 40.0796C135.821 38.7788 134.532 38.1283 132.919 38.1283C131.306 38.1283 130.018 38.7788 129.055 40.0796C128.091 41.3599 127.609 43.1357 127.609 45.4071C127.609 47.6785 128.091 49.4956 129.055 50.8584C130.018 52.2006 131.306 52.8717 132.919 52.8717Z"/>
</mask>
<path d="M12.604 32.552C10.58 32.552 8.61732 32.1687 6.71599 31.402C4.84532 30.6353 3.18932 29.5467 1.74799 28.136L4.87599 24.502C5.94932 25.514 7.17599 26.342 8.55599 26.986C9.93599 27.5993 11.316 27.906 12.696 27.906C14.4133 27.906 15.7167 27.5533 16.606 26.848C17.4953 26.1427 17.94 25.2073 17.94 24.042C17.94 22.7847 17.4953 21.88 16.606 21.328C15.7473 20.776 14.6433 20.2087 13.294 19.626L9.15399 17.832C8.17265 17.4027 7.20665 16.8507 6.25599 16.176C5.33599 15.5013 4.56932 14.6427 3.95599 13.6C3.37332 12.5573 3.08199 11.3 3.08199 9.828C3.08199 8.23333 3.51132 6.80733 4.36999 5.55C5.25932 4.262 6.45532 3.25 7.95799 2.514C9.49132 1.74733 11.2393 1.364 13.202 1.364C14.95 1.364 16.6367 1.71667 18.262 2.422C19.8873 3.09666 21.2827 4.01666 22.448 5.182L19.734 8.586C18.7833 7.78866 17.7713 7.16 16.698 6.7C15.6553 6.24 14.49 6.01 13.202 6.01C11.7913 6.01 10.6413 6.332 9.75199 6.976C8.89332 7.58933 8.46399 8.448 8.46399 9.552C8.46399 10.3187 8.67865 10.9627 9.10799 11.484C9.56799 11.9747 10.166 12.404 10.902 12.772C11.638 13.1093 12.42 13.4467 13.248 13.784L17.342 15.486C19.1207 16.2527 20.5773 17.2647 21.712 18.522C22.8467 19.7487 23.414 21.4507 23.414 23.628C23.414 25.2533 22.9847 26.7407 22.126 28.09C21.2673 29.4393 20.0253 30.528 18.4 31.356C16.8053 32.1533 14.8733 32.552 12.604 32.552Z" fill="#01CC08"/>
<path d="M31.0464 32L21.6624 1.916H27.3204L31.5524 17.05C32.0431 18.7367 32.4877 20.362 32.8864 21.926C33.2851 23.49 33.7297 25.1307 34.2204 26.848H34.4044C34.9257 25.1307 35.3704 23.49 35.7384 21.926C36.1371 20.362 36.5664 18.7367 37.0264 17.05L41.2124 1.916H46.6864L37.3484 32H31.0464Z" fill="#01CC08"/>
<path d="M57.9273 32.552C55.6273 32.552 53.6186 32.092 51.9013 31.172C50.1839 30.252 48.85 28.78 47.8993 26.756C46.9793 24.732 46.5193 22.0793 46.5193 18.798V1.916H51.8553V19.212C51.8553 21.3893 52.1006 23.122 52.5913 24.41C53.1126 25.6673 53.8333 26.572 54.7533 27.124C55.6733 27.6453 56.7313 27.906 57.9273 27.906C59.154 27.906 60.2273 27.6453 61.1473 27.124C62.098 26.572 62.834 25.6673 63.3553 24.41C63.9073 23.122 64.1833 21.3893 64.1833 19.212V1.916H69.2893V18.798C69.2893 22.0793 68.8293 24.732 67.9093 26.756C66.9893 28.78 65.6706 30.252 63.9533 31.172C62.2666 32.092 60.258 32.552 57.9273 32.552Z" fill="#01CC08"/>
<path d="M85.2639 32.552C82.6572 32.552 80.3572 31.9233 78.3639 30.666C76.3705 29.378 74.8065 27.5687 73.6719 25.238C72.5679 22.8767 72.0159 20.0707 72.0159 16.82C72.0159 13.5693 72.5679 10.794 73.6719 8.494C74.8065 6.194 76.3705 4.43066 78.3639 3.204C80.3572 1.97733 82.6572 1.364 85.2639 1.364C87.9012 1.364 90.2165 1.97733 92.2099 3.204C94.2032 4.43066 95.7519 6.194 96.8559 8.494C97.9905 10.794 98.5579 13.5693 98.5579 16.82C98.5579 20.0707 97.9905 22.8767 96.8559 25.238C95.7519 27.5687 94.2032 29.378 92.2099 30.666C90.2165 31.9233 87.9012 32.552 85.2639 32.552ZM85.2639 27.906C87.6252 27.906 89.5112 26.9093 90.9219 24.916C92.3325 22.892 93.0379 20.1933 93.0379 16.82C93.0379 13.4467 92.3325 10.8093 90.9219 8.908C89.5112 6.976 87.6252 6.01 85.2639 6.01C82.9025 6.01 81.0165 6.976 79.6059 8.908C78.1952 10.8093 77.4899 13.4467 77.4899 16.82C77.4899 20.1933 78.1952 22.892 79.6059 24.916C81.0165 26.9093 82.9025 27.906 85.2639 27.906Z" fill="#01CC08"/>
<path d="M106.215 32V6.424H97.5211V1.916H120.245V6.424H111.551V32H106.215Z" fill="#01CC08"/>
<path d="M126.357 15.992L125.299 19.672H132.981L131.923 15.992C131.432 14.3973 130.957 12.7567 130.497 11.07C130.067 9.38333 129.638 7.712 129.209 6.056H129.025C128.626 7.74267 128.197 9.42933 127.737 11.116C127.307 12.772 126.847 14.3973 126.357 15.992ZM116.283 32L126.081 1.916H132.337L142.135 32H136.523L134.177 23.858H124.057L121.711 32H116.283Z" fill="#01CC08"/>
<path d="M2 55.6283V35.3717H6.11611L9.76092 45.2832C9.99134 45.9233 10.2113 46.5841 10.4207 47.2655C10.6512 47.9263 10.8711 48.587 11.0806 49.2478H11.2063C11.4367 48.587 11.6566 47.9263 11.8661 47.2655C12.0756 46.5841 12.2851 45.9233 12.4945 45.2832L16.0451 35.3717H20.1926V55.6283H16.8306V46.3673C16.8306 45.7271 16.8515 45.0354 16.8934 44.292C16.9563 43.528 17.0191 42.764 17.0819 42C17.1657 41.236 17.2391 40.5442 17.3019 39.9248H17.1762L15.5109 44.6327L12.1489 53.7389H9.98086L6.58742 44.6327L4.95354 39.9248H4.82787C4.89071 40.5442 4.95355 41.236 5.01639 42C5.10018 42.764 5.16301 43.528 5.20491 44.292C5.26775 45.0354 5.29917 45.7271 5.29917 46.3673V55.6283H2Z" fill="#01CC08"/>
<path d="M27.4231 44.8496L26.7004 47.3274H31.9476L31.225 44.8496C30.8898 43.7758 30.5651 42.6711 30.2509 41.5354C29.9577 40.3997 29.6644 39.2743 29.3711 38.1593H29.2455C28.9731 39.295 28.6799 40.4307 28.3657 41.5664C28.0724 42.6814 27.7582 43.7758 27.4231 44.8496ZM20.5419 55.6283L27.2345 35.3717H31.5078L38.2004 55.6283H34.367L32.7646 50.146H25.852L24.2496 55.6283H20.5419Z" fill="#01CC08"/>
<path d="M46.8364 56C44.9931 56 43.3382 55.5973 41.8719 54.792C40.4056 53.9867 39.2535 52.8097 38.4156 51.2611C37.5778 49.6917 37.1588 47.792 37.1588 45.5619C37.1588 43.3525 37.5882 41.4631 38.4471 39.8938C39.3059 38.3038 40.4685 37.0959 41.9348 36.2699C43.4011 35.4233 45.0454 35 46.8678 35C48.3341 35 49.57 35.2684 50.5755 35.8053C51.6019 36.3215 52.4398 36.91 53.0891 37.5708L51.141 39.8938C50.6174 39.3982 50.0308 38.9852 49.3815 38.6549C48.7531 38.3038 47.9571 38.1283 46.9935 38.1283C45.1711 38.1283 43.6943 38.7891 42.5632 40.1106C41.453 41.4115 40.8979 43.1976 40.8979 45.469C40.8979 47.7817 41.432 49.5988 42.5004 50.9204C43.5687 52.2212 45.1292 52.8717 47.182 52.8717C47.7686 52.8717 48.3237 52.7994 48.8473 52.6549C49.371 52.4897 49.8004 52.2625 50.1356 51.9735V47.6062H46.2394V44.6637H53.4033V53.5841C52.7121 54.2655 51.7904 54.8437 50.6383 55.3186C49.5072 55.7729 48.2399 56 46.8364 56Z" fill="#01CC08"/>
<path d="M59.784 44.8496L59.0613 47.3274H64.3085L63.5859 44.8496C63.2507 43.7758 62.926 42.6711 62.6118 41.5354C62.3186 40.3997 62.0253 39.2743 61.732 38.1593H61.6064C61.334 39.295 61.0408 40.4307 60.7266 41.5664C60.4333 42.6814 60.1191 43.7758 59.784 44.8496ZM52.9028 55.6283L59.5954 35.3717H63.8687L70.5613 55.6283H66.7279L65.1255 50.146H58.2129L56.6105 55.6283H52.9028Z" fill="#01CC08"/>
<path d="M69.3904 55.6283V53.4602L79.3193 38.4071H70.3016V35.3717H83.8439V37.5398L73.8835 52.5929H83.9067V55.6283H69.3904Z" fill="#01CC08"/>
<path d="M83.7298 55.6283V53.4602L93.6587 38.4071H84.6409V35.3717H98.1833V37.5398L88.2229 52.5929H98.2461V55.6283H83.7298Z" fill="#01CC08"/>
<path d="M99.8498 55.6283V35.3717H103.495V55.6283H99.8498Z" fill="#01CC08"/>
<path d="M106.518 55.6283V35.3717H110.257L116.667 46.7699L118.772 51.0752H118.898C118.814 50.0428 118.709 48.9174 118.584 47.6991C118.479 46.4808 118.427 45.3038 118.427 44.1681V35.3717H121.914V55.6283H118.175L111.765 44.2301L109.66 39.9248H109.535C109.618 40.9985 109.713 42.1239 109.817 43.3009C109.943 44.4779 110.006 45.6342 110.006 46.7699V55.6283H106.518Z" fill="#01CC08"/>
<path d="M132.919 56C131.139 56 129.568 55.5767 128.206 54.7301C126.845 53.8628 125.776 52.6445 125.001 51.0752C124.247 49.4853 123.87 47.5959 123.87 45.4071C123.87 43.2183 124.247 41.3496 125.001 39.8009C125.776 38.2522 126.845 37.0649 128.206 36.2389C129.568 35.413 131.139 35 132.919 35C134.721 35 136.302 35.413 137.664 36.2389C139.026 37.0649 140.083 38.2522 140.837 39.8009C141.612 41.3496 142 43.2183 142 45.4071C142 47.5959 141.612 49.4853 140.837 51.0752C140.083 52.6445 139.026 53.8628 137.664 54.7301C136.302 55.5767 134.721 56 132.919 56ZM132.919 52.8717C134.532 52.8717 135.821 52.2006 136.784 50.8584C137.748 49.4956 138.23 47.6785 138.23 45.4071C138.23 43.1357 137.748 41.3599 136.784 40.0796C135.821 38.7788 134.532 38.1283 132.919 38.1283C131.306 38.1283 130.018 38.7788 129.055 40.0796C128.091 41.3599 127.609 43.1357 127.609 45.4071C127.609 47.6785 128.091 49.4956 129.055 50.8584C130.018 52.2006 131.306 52.8717 132.919 52.8717Z" fill="#01CC08"/>
<path d="M12.604 32.552C10.58 32.552 8.61732 32.1687 6.71599 31.402C4.84532 30.6353 3.18932 29.5467 1.74799 28.136L4.87599 24.502C5.94932 25.514 7.17599 26.342 8.55599 26.986C9.93599 27.5993 11.316 27.906 12.696 27.906C14.4133 27.906 15.7167 27.5533 16.606 26.848C17.4953 26.1427 17.94 25.2073 17.94 24.042C17.94 22.7847 17.4953 21.88 16.606 21.328C15.7473 20.776 14.6433 20.2087 13.294 19.626L9.15399 17.832C8.17265 17.4027 7.20665 16.8507 6.25599 16.176C5.33599 15.5013 4.56932 14.6427 3.95599 13.6C3.37332 12.5573 3.08199 11.3 3.08199 9.828C3.08199 8.23333 3.51132 6.80733 4.36999 5.55C5.25932 4.262 6.45532 3.25 7.95799 2.514C9.49132 1.74733 11.2393 1.364 13.202 1.364C14.95 1.364 16.6367 1.71667 18.262 2.422C19.8873 3.09666 21.2827 4.01666 22.448 5.182L19.734 8.586C18.7833 7.78866 17.7713 7.16 16.698 6.7C15.6553 6.24 14.49 6.01 13.202 6.01C11.7913 6.01 10.6413 6.332 9.75199 6.976C8.89332 7.58933 8.46399 8.448 8.46399 9.552C8.46399 10.3187 8.67865 10.9627 9.10799 11.484C9.56799 11.9747 10.166 12.404 10.902 12.772C11.638 13.1093 12.42 13.4467 13.248 13.784L17.342 15.486C19.1207 16.2527 20.5773 17.2647 21.712 18.522C22.8467 19.7487 23.414 21.4507 23.414 23.628C23.414 25.2533 22.9847 26.7407 22.126 28.09C21.2673 29.4393 20.0253 30.528 18.4 31.356C16.8053 32.1533 14.8733 32.552 12.604 32.552Z" stroke="black" stroke-width="2" mask="url(#path-1-outside-1_3_4)"/>
<path d="M31.0464 32L21.6624 1.916H27.3204L31.5524 17.05C32.0431 18.7367 32.4877 20.362 32.8864 21.926C33.2851 23.49 33.7297 25.1307 34.2204 26.848H34.4044C34.9257 25.1307 35.3704 23.49 35.7384 21.926C36.1371 20.362 36.5664 18.7367 37.0264 17.05L41.2124 1.916H46.6864L37.3484 32H31.0464Z" stroke="black" stroke-width="2" mask="url(#path-1-outside-1_3_4)"/>
<path d="M57.9273 32.552C55.6273 32.552 53.6186 32.092 51.9013 31.172C50.1839 30.252 48.85 28.78 47.8993 26.756C46.9793 24.732 46.5193 22.0793 46.5193 18.798V1.916H51.8553V19.212C51.8553 21.3893 52.1006 23.122 52.5913 24.41C53.1126 25.6673 53.8333 26.572 54.7533 27.124C55.6733 27.6453 56.7313 27.906 57.9273 27.906C59.154 27.906 60.2273 27.6453 61.1473 27.124C62.098 26.572 62.834 25.6673 63.3553 24.41C63.9073 23.122 64.1833 21.3893 64.1833 19.212V1.916H69.2893V18.798C69.2893 22.0793 68.8293 24.732 67.9093 26.756C66.9893 28.78 65.6706 30.252 63.9533 31.172C62.2666 32.092 60.258 32.552 57.9273 32.552Z" stroke="black" stroke-width="2" mask="url(#path-1-outside-1_3_4)"/>
<path d="M85.2639 32.552C82.6572 32.552 80.3572 31.9233 78.3639 30.666C76.3705 29.378 74.8065 27.5687 73.6719 25.238C72.5679 22.8767 72.0159 20.0707 72.0159 16.82C72.0159 13.5693 72.5679 10.794 73.6719 8.494C74.8065 6.194 76.3705 4.43066 78.3639 3.204C80.3572 1.97733 82.6572 1.364 85.2639 1.364C87.9012 1.364 90.2165 1.97733 92.2099 3.204C94.2032 4.43066 95.7519 6.194 96.8559 8.494C97.9905 10.794 98.5579 13.5693 98.5579 16.82C98.5579 20.0707 97.9905 22.8767 96.8559 25.238C95.7519 27.5687 94.2032 29.378 92.2099 30.666C90.2165 31.9233 87.9012 32.552 85.2639 32.552ZM85.2639 27.906C87.6252 27.906 89.5112 26.9093 90.9219 24.916C92.3325 22.892 93.0379 20.1933 93.0379 16.82C93.0379 13.4467 92.3325 10.8093 90.9219 8.908C89.5112 6.976 87.6252 6.01 85.2639 6.01C82.9025 6.01 81.0165 6.976 79.6059 8.908C78.1952 10.8093 77.4899 13.4467 77.4899 16.82C77.4899 20.1933 78.1952 22.892 79.6059 24.916C81.0165 26.9093 82.9025 27.906 85.2639 27.906Z" stroke="black" stroke-width="2" mask="url(#path-1-outside-1_3_4)"/>
<path d="M106.215 32V6.424H97.5211V1.916H120.245V6.424H111.551V32H106.215Z" stroke="black" stroke-width="2" mask="url(#path-1-outside-1_3_4)"/>
<path d="M126.357 15.992L125.299 19.672H132.981L131.923 15.992C131.432 14.3973 130.957 12.7567 130.497 11.07C130.067 9.38333 129.638 7.712 129.209 6.056H129.025C128.626 7.74267 128.197 9.42933 127.737 11.116C127.307 12.772 126.847 14.3973 126.357 15.992ZM116.283 32L126.081 1.916H132.337L142.135 32H136.523L134.177 23.858H124.057L121.711 32H116.283Z" stroke="black" stroke-width="2" mask="url(#path-1-outside-1_3_4)"/>
<path d="M2 55.6283V35.3717H6.11611L9.76092 45.2832C9.99134 45.9233 10.2113 46.5841 10.4207 47.2655C10.6512 47.9263 10.8711 48.587 11.0806 49.2478H11.2063C11.4367 48.587 11.6566 47.9263 11.8661 47.2655C12.0756 46.5841 12.2851 45.9233 12.4945 45.2832L16.0451 35.3717H20.1926V55.6283H16.8306V46.3673C16.8306 45.7271 16.8515 45.0354 16.8934 44.292C16.9563 43.528 17.0191 42.764 17.0819 42C17.1657 41.236 17.2391 40.5442 17.3019 39.9248H17.1762L15.5109 44.6327L12.1489 53.7389H9.98086L6.58742 44.6327L4.95354 39.9248H4.82787C4.89071 40.5442 4.95355 41.236 5.01639 42C5.10018 42.764 5.16301 43.528 5.20491 44.292C5.26775 45.0354 5.29917 45.7271 5.29917 46.3673V55.6283H2Z" stroke="black" stroke-width="2" mask="url(#path-1-outside-1_3_4)"/>
<path d="M27.4231 44.8496L26.7004 47.3274H31.9476L31.225 44.8496C30.8898 43.7758 30.5651 42.6711 30.2509 41.5354C29.9577 40.3997 29.6644 39.2743 29.3711 38.1593H29.2455C28.9731 39.295 28.6799 40.4307 28.3657 41.5664C28.0724 42.6814 27.7582 43.7758 27.4231 44.8496ZM20.5419 55.6283L27.2345 35.3717H31.5078L38.2004 55.6283H34.367L32.7646 50.146H25.852L24.2496 55.6283H20.5419Z" stroke="black" stroke-width="2" mask="url(#path-1-outside-1_3_4)"/>
<path d="M46.8364 56C44.9931 56 43.3382 55.5973 41.8719 54.792C40.4056 53.9867 39.2535 52.8097 38.4156 51.2611C37.5778 49.6917 37.1588 47.792 37.1588 45.5619C37.1588 43.3525 37.5882 41.4631 38.4471 39.8938C39.3059 38.3038 40.4685 37.0959 41.9348 36.2699C43.4011 35.4233 45.0454 35 46.8678 35C48.3341 35 49.57 35.2684 50.5755 35.8053C51.6019 36.3215 52.4398 36.91 53.0891 37.5708L51.141 39.8938C50.6174 39.3982 50.0308 38.9852 49.3815 38.6549C48.7531 38.3038 47.9571 38.1283 46.9935 38.1283C45.1711 38.1283 43.6943 38.7891 42.5632 40.1106C41.453 41.4115 40.8979 43.1976 40.8979 45.469C40.8979 47.7817 41.432 49.5988 42.5004 50.9204C43.5687 52.2212 45.1292 52.8717 47.182 52.8717C47.7686 52.8717 48.3237 52.7994 48.8473 52.6549C49.371 52.4897 49.8004 52.2625 50.1356 51.9735V47.6062H46.2394V44.6637H53.4033V53.5841C52.7121 54.2655 51.7904 54.8437 50.6383 55.3186C49.5072 55.7729 48.2399 56 46.8364 56Z" stroke="black" stroke-width="2" mask="url(#path-1-outside-1_3_4)"/>
<path d="M59.784 44.8496L59.0613 47.3274H64.3085L63.5859 44.8496C63.2507 43.7758 62.926 42.6711 62.6118 41.5354C62.3186 40.3997 62.0253 39.2743 61.732 38.1593H61.6064C61.334 39.295 61.0408 40.4307 60.7266 41.5664C60.4333 42.6814 60.1191 43.7758 59.784 44.8496ZM52.9028 55.6283L59.5954 35.3717H63.8687L70.5613 55.6283H66.7279L65.1255 50.146H58.2129L56.6105 55.6283H52.9028Z" stroke="black" stroke-width="2" mask="url(#path-1-outside-1_3_4)"/>
<path d="M69.3904 55.6283V53.4602L79.3193 38.4071H70.3016V35.3717H83.8439V37.5398L73.8835 52.5929H83.9067V55.6283H69.3904Z" stroke="black" stroke-width="2" mask="url(#path-1-outside-1_3_4)"/>
<path d="M83.7298 55.6283V53.4602L93.6587 38.4071H84.6409V35.3717H98.1833V37.5398L88.2229 52.5929H98.2461V55.6283H83.7298Z" stroke="black" stroke-width="2" mask="url(#path-1-outside-1_3_4)"/>
<path d="M99.8498 55.6283V35.3717H103.495V55.6283H99.8498Z" stroke="black" stroke-width="2" mask="url(#path-1-outside-1_3_4)"/>
<path d="M106.518 55.6283V35.3717H110.257L116.667 46.7699L118.772 51.0752H118.898C118.814 50.0428 118.709 48.9174 118.584 47.6991C118.479 46.4808 118.427 45.3038 118.427 44.1681V35.3717H121.914V55.6283H118.175L111.765 44.2301L109.66 39.9248H109.535C109.618 40.9985 109.713 42.1239 109.817 43.3009C109.943 44.4779 110.006 45.6342 110.006 46.7699V55.6283H106.518Z" stroke="black" stroke-width="2" mask="url(#path-1-outside-1_3_4)"/>
<path d="M132.919 56C131.139 56 129.568 55.5767 128.206 54.7301C126.845 53.8628 125.776 52.6445 125.001 51.0752C124.247 49.4853 123.87 47.5959 123.87 45.4071C123.87 43.2183 124.247 41.3496 125.001 39.8009C125.776 38.2522 126.845 37.0649 128.206 36.2389C129.568 35.413 131.139 35 132.919 35C134.721 35 136.302 35.413 137.664 36.2389C139.026 37.0649 140.083 38.2522 140.837 39.8009C141.612 41.3496 142 43.2183 142 45.4071C142 47.5959 141.612 49.4853 140.837 51.0752C140.083 52.6445 139.026 53.8628 137.664 54.7301C136.302 55.5767 134.721 56 132.919 56ZM132.919 52.8717C134.532 52.8717 135.821 52.2006 136.784 50.8584C137.748 49.4956 138.23 47.6785 138.23 45.4071C138.23 43.1357 137.748 41.3599 136.784 40.0796C135.821 38.7788 134.532 38.1283 132.919 38.1283C131.306 38.1283 130.018 38.7788 129.055 40.0796C128.091 41.3599 127.609 43.1357 127.609 45.4071C127.609 47.6785 128.091 49.4956 129.055 50.8584C130.018 52.2006 131.306 52.8717 132.919 52.8717Z" stroke="black" stroke-width="2" mask="url(#path-1-outside-1_3_4)"/>
</svg>
