<svg width="815" height="240" viewBox="0 0 815 240" fill="none" xmlns="http://www.w3.org/2000/svg">
<path d="M588.418 240L707.418 120L588.418 0V78L630.318 120L588.318 162V240H588.418ZM303.618 146.8L325.318 13H375.618L337.518 229H281.018L256.718 90.5L232.318 229.2H175.918L137.818 13H188.018L209.818 146.7L231.618 13H281.818L303.618 146.8ZM489.418 135.4L506.118 159.7L551.718 229.1H491.118L439.618 144.7H437.718V229H387.818V13C406.118 11.7 429.418 11.4 455.418 11.4C506.418 11.4 536.218 29.7 536.218 75.5C536.218 104.6 518.218 128.3 489.418 135.3V135.4ZM450.218 109.2C471.518 109.2 485.018 98 485.018 79.8C485.018 62.8 475.018 52.6 451.518 52.6C446.418 52.6 440.518 52.9 437.718 53.2V108.5C440.318 108.8 445.418 109.2 450.218 109.2ZM139.818 159.2C139.818 201.1 106.318 232.2 51.218 232.2C36.218 232.2 20.418 230.6 6.718 227.4L8.918 180.1C21.018 184.6 39.318 189.2 54.918 189.2C73.318 189.2 86.418 181.5 86.418 166.2C86.418 150.8 71.618 145 54.218 138.2C30.018 129 1.018 117.7 0.0180032 76C-0.881997 35.3 32.018 8.5 86.118 8.5C97.618 8.5 112.118 9.8 125.518 12.4L125.418 56.4C112.031 52.4004 98.1827 50.1484 84.218 49.7C63.318 49.7 53.418 58.7 53.418 70.8C53.418 84.8 68.218 90.7 85.518 97.7C110.118 107.6 139.818 119.6 139.818 159.2ZM695.318 78V0L814.318 120L695.318 240V162L737.218 120L695.218 78H695.318Z" fill="#6135B8"/>
</svg>
