<svg width="70" height="70" viewBox="0 0 70 70" fill="none" xmlns="http://www.w3.org/2000/svg">
<path d="M35 0C15.67 0 0 15.67 0 35C0 54.33 15.67 70 35 70C54.33 70 70 54.33 70 35C70 15.67 54.33 0 35 0ZM35 7C50.464 7 63 19.536 63 35C63 50.464 50.464 63 35 63C19.536 63 7 50.464 7 35C7 19.536 19.536 7 35 7Z" fill="url(#paint0_linear_1_2)"/>
<path fill-rule="evenodd" clip-rule="evenodd" d="M24.3125 22.2812C22.9055 22.2813 21.4646 22.4223 20 22.6875C18.5353 22.9412 17.0305 23.3166 15.5312 23.8125V29.4688C16.9382 28.5923 18.266 27.9383 19.5 27.5C20.734 27.0502 21.8683 26.8125 22.9062 26.8125C24.2556 26.8125 25.349 27.1994 26.1562 27.9375C26.9751 28.6756 27.375 29.6328 27.375 30.8438C27.375 31.628 27.1849 32.3984 26.7812 33.125C26.3776 33.8516 25.7481 34.5826 24.9062 35.3438L15.4688 43.6875V48.5625H34.25V43.6875H22.875L28.4062 38.8438C30.7358 36.8025 32.2422 35.1797 32.9688 33.9688C33.6953 32.7463 34.0625 31.407 34.0625 30C34.0625 27.5666 33.2184 25.6734 31.5 24.3125C29.7932 22.9517 27.4033 22.2813 24.3125 22.2812ZM46.4375 22.75L36.0938 38.1562V43.875H47.5312V48.5625H53.8438V43.875H57.5V39.0312H53.8438V22.75H46.4375ZM47.5312 28.2187V39.0312H40.2188L47.5312 28.2187Z" fill="#003496"/>
<defs>
<linearGradient id="paint0_linear_1_2" x1="-23.0455" y1="14.6889" x2="5.11859" y2="-13.4752" gradientUnits="userSpaceOnUse">
<stop stop-color="#003496"/>
<stop offset="1" stop-color="#003496" stop-opacity="0"/>
</linearGradient>
</defs>
</svg>
