<svg width="118" height="23" viewBox="0 0 118 23" fill="none" xmlns="http://www.w3.org/2000/svg">
<path fill-rule="evenodd" clip-rule="evenodd" d="M109.9 10.9L115.4 14.1L109.9 17.3V10.9ZM114 12.3L112 11.1L112.8 10.3L107.8 9.6L105.6 5.1L103.4 9.6L98.4 10.3L102 13.8L101.2 18.8L105.6 16.5L110 18.8L109.9 18.2L112 17L113 23L105.6 19.1L98.2 23L99.6 14.7L93.6 8.8L101.9 7.6L105.6 0L109.3 7.6L117.6 8.8L114 12.3ZM85.7 22.1C82.7 22.1 80.2 19.5 80.2 16.7C80.2 13.9 82.7 11.3 85.7 11.3C88.7 11.3 91.1 13.9 91.1 16.7C91.1 19.5 88.6 22.1 85.7 22.1ZM85.6 14C84.2 14 83.1 15.1 83.1 16.7C83.1 18.3 84.2 19.4 85.6 19.4C87 19.4 88.1 18.3 88.1 16.7C88.1 15.1 87.1 14 85.6 14ZM73.5 21.9L68.5 11.5H71.8L74.4 17.5L77 11.5H80.3L75.3 21.9H73.5ZM63 22.1C60 22.1 57.5 19.5 57.5 16.7C57.5 13.9 60 11.3 63 11.3C66 11.3 68.4 13.9 68.4 16.7C68.4 19.5 65.9 22.1 63 22.1ZM63 14C61.6 14 60.5 15.1 60.5 16.7C60.5 18.3 61.6 19.4 63 19.4C64.4 19.4 65.5 18.3 65.5 16.7C65.5 15.1 64.4 14 63 14ZM56.6 18.1C56.4 20.5 54.5 22 51.7 22C48.7 22 46.7 20.3 46.7 17.5V11.4H49.6V17.5C49.7 18.7 50.4 19.3 51.6 19.3C52.8 19.3 53.5 18.7 53.6 17.5V11.4H56.5V17C56.6 17.5 56.6 17.8 56.6 18.1ZM42.6 17.1V15.7C42.5 14.5 41.8 13.9 40.6 13.9C39.4 13.9 38.7 14.5 38.6 15.7V21.8H35.7V15.2C35.9 12.8 37.8 11.3 40.6 11.3C43.6 11.3 45.6 13 45.6 15.8V21.9H42.7V17.1H42.6ZM29.6 19.6C30.5 19.7 31.5 19.3 32 18.6L34.4 19.1C33.8 20.5 32.4 22 29.6 22C26.9 22 24.3 19.9 24.3 16.6C24.3 13.4 26.8 11.2 29.5 11.2C32.9 11.2 34.7 13.6 34.7 17.4H27.4C27.5 18.7 28.5 19.5 29.6 19.6ZM31.7 15.5C31.6 14.6 30.7 13.6 29.5 13.6C28.3 13.6 27.5 14.5 27.3 15.5H31.7ZM18.8 17.7V6.6H21.7L21.8 16.7C21.8 17.3 21.9 17.7 22 18.1C22.2 19 23.3 19.1 23.7 19.2C24 19.6 23.4 21.6 23.1 22C20.1 21.8 18.9 20.3 18.8 17.7ZM13 19.6C13.9 19.7 14.9 19.3 15.4 18.6L17.8 19.1C17.2 20.5 15.8 22 13 22C10.3 22 7.7 19.9 7.7 16.6C7.7 13.4 10.2 11.2 12.9 11.2C16.3 11.2 18.1 13.6 18.1 17.4H10.8C10.8 18.7 11.8 19.5 13 19.6ZM15.1 15.5C15 14.6 14.1 13.6 12.9 13.6C11.7 13.6 10.9 14.5 10.7 15.5H15.1ZM4.4 17.7C4.4 18.5 4.7 18.9 5.1 19.1C5.5 19.3 6 19.1 6.2 19.1L6.7 21.7C6.3 21.7 5.4 22 4.4 21.9C2.2 21.6 1.6 20 1.5 18.3V14.3H0V11.8H1.4V8.5H4.3V11.7H6.3V14.2H4.3V17.1C4.4 17.3 4.4 17.5 4.4 17.7Z" fill="url(#paint0_linear_2_6)"/>
<defs>
<linearGradient id="paint0_linear_2_6" x1="58.8281" y1="23" x2="58.8281" y2="0" gradientUnits="userSpaceOnUse">
<stop stop-color="#FCEA99"/>
<stop offset="1" stop-color="#947D30"/>
</linearGradient>
</defs>
</svg>
