<svg width="39" height="37" viewBox="0 0 39 37" fill="none" xmlns="http://www.w3.org/2000/svg">
<path fill-rule="evenodd" clip-rule="evenodd" d="M38.23 34.05L21.66 1.45C21.24 0.59 20.35 0 19.34 0H19.29C18.27 0 17.38 0.59 16.96 1.45L0.389999 34.04C0.279999 34.28 0.229996 34.54 0.229996 34.81C0.229996 35.86 1.08 36.71 2.13 36.71C2.41 36.71 2.68 36.66 2.91 36.54C12.97 31.7 15.81 30.31 17.21 29.61C17.84 29.29 18.56 29.11 19.32 29.11C20.07 29.11 20.79 29.29 21.43 29.61C22.87 30.33 26.02 31.87 35.73 36.55C35.96 36.66 36.23 36.72 36.51 36.72C37.56 36.72 38.4 35.87 38.4 34.82C38.39 34.55 38.34 34.28 38.23 34.05Z" fill="#FEC440"/>
</svg>
