<svg width="697" height="694" viewBox="0 0 697 694" fill="none" xmlns="http://www.w3.org/2000/svg">
<path d="M0 0H206C206 0 206 586.5 206 623C206 659.5 236 694 236 694H0V0Z" fill="#A4BAC8"/>
<path d="M0 0H373C414.974 0 449 34.0264 449 76V206H0V0Z" fill="#A4BAC8"/>
<path d="M456 -3.05176e-05H574V206H486C486 206 486 89 486 65C486 40.9999 456 -3.05176e-05 456 -3.05176e-05Z" fill="#608BAB"/>
<path d="M486 0H619C662.078 0 697 34.9218 697 78V128C697 171.078 662.078 206 619 206L486 206V0Z" fill="#608BAB"/>
<path d="M243 243H617C661.183 243 697 278.817 697 323V450H323C278.817 450 243 414.183 243 370V243Z" fill="#3A7499"/>
<path d="M623 391H697C697 391 697 513 697 481.5C697 450 623 450 623 450V391Z" fill="#3A7499"/>
<path d="M243 487H617C661.183 487 697 522.817 697 567V614C697 658.183 661.183 694 617 694H323C278.817 694 243 658.183 243 614V487Z" fill="#0F6187"/>
</svg>
