<svg width="408" height="227" viewBox="0 0 408 227" fill="none" xmlns="http://www.w3.org/2000/svg">
<path d="M11 13H230L219 75H0L11 13Z" fill="#0B9A2F"/>
<path d="M73 75H150L124 227H45L73 75Z" fill="#0B9A2F"/>
<path d="M299.5 38L314.5 31C328.765 74.1256 324.806 97.7706 296.5 139H282C302.144 105.097 306.66 83.2676 299.5 38Z" fill="#787778"/>
<path d="M330 24.5L350.5 15.5C371.631 56.5647 373.803 95.9705 339.5 139H325C344.553 101.542 349.28 80 343.5 46C341.46 34 338.071 33.697 332.5 33L330 24.5Z" fill="#787778"/>
<path d="M382.5 0.500229C400.5 24.5 429 77 381.5 139.5H366C404.5 80 386 7.5 362 21.5L357.5 12.5L382.5 0.500229Z" fill="#787778"/>
</svg>
