<svg width="285" height="261" viewBox="0 0 285 261" fill="none" xmlns="http://www.w3.org/2000/svg">
<path d="M199.21 154.46C225.15 174.55 254.71 203.26 280.69 207.32C280.69 207.32 148.04 239.49 95.4 186.07C78.14 168.56 191.33 148.34 199.21 154.46Z" fill="#EEF7F5"/>
<path d="M196.26 219.43C148.82 219.43 114.33 208.82 93.65 187.82C90.31 184.44 90.29 180.38 93.57 176.67C102.45 166.67 135.57 159.1 149.34 156.31C151.17 155.94 194.13 147.31 200.77 152.49C206.16 156.66 211.58 161.1 217.32 165.8C238.87 183.47 261.17 201.73 281.11 204.85C281.681 204.94 282.204 205.224 282.589 205.656C282.974 206.088 283.197 206.64 283.221 207.218C283.245 207.796 283.067 208.364 282.719 208.826C282.37 209.288 281.872 209.614 281.31 209.75C257.175 215.111 232.605 218.28 207.9 219.22C203.94 219.36 200.05 219.43 196.26 219.43ZM192.19 155.83C184.08 155.83 168.19 157.52 148.89 161.51C121.57 167.14 101.69 174.37 96.99 180.37C95.78 181.93 95.83 182.92 97.21 184.31C139.85 227.59 238 213.15 269.89 207C251.68 200.39 232.65 184.8 214.15 169.64C208.45 164.97 203.06 160.56 197.74 156.43C197.02 156.02 195.11 155.8 192.21 155.8L192.19 155.83Z" fill="#12120D"/>
<path d="M234.6 92.79C226.45 100.04 206.52 106.44 206.52 106.44C233 84 230.66 50.1 230.66 50.1C216.22 82.15 176.26 110.38 141.52 123.49C146.33 130.81 150.08 152.82 158.52 157.49C168.36 162.91 189.33 146.78 199.79 145.58C206.27 138.25 229.87 117.86 234.6 92.79Z" fill="#477797"/>
<path d="M163.42 161.11C161.31 161.166 159.222 160.673 157.36 159.68C151.13 156.25 147.49 145.82 144.28 136.62C142.6 131.81 141.01 127.27 139.43 124.86C139.068 124.309 138.939 123.637 139.07 122.991C139.201 122.345 139.582 121.777 140.13 121.41C140.292 121.308 140.462 121.221 140.64 121.15C172.71 109.05 213.85 81.33 228.38 49.07C228.662 48.4689 229.17 48.0035 229.794 47.7751C230.418 47.5466 231.106 47.5735 231.71 47.85C232.115 48.0334 232.463 48.3223 232.718 48.6864C232.974 49.0506 233.126 49.4767 233.16 49.92C233.24 51.19 234.87 78.02 216.35 100.1C222.21 97.67 229.07 94.37 232.94 90.92C233.33 90.5727 233.818 90.3561 234.337 90.3005C234.856 90.245 235.38 90.3533 235.834 90.6102C236.288 90.8672 236.651 91.2599 236.871 91.7333C237.091 92.2067 237.157 92.7371 237.06 93.25C232.94 115.08 215.31 133.16 205.84 142.87C204.15 144.61 202.69 146.11 201.71 147.23C201.3 147.698 200.729 147.994 200.11 148.06C196.56 148.47 191.25 150.99 185.64 153.66C177.89 157.34 170 161.11 163.42 161.11ZM145.09 124.79C146.567 128.124 147.872 131.532 149 135C151.77 142.94 155.21 152.82 159.77 155.32C164.77 158.07 174.71 153.32 183.49 149.16C189.06 146.52 194.34 144.01 198.57 143.25C199.57 142.17 200.83 140.87 202.26 139.4C210.39 131.07 224.76 116.32 230.48 98.78C221.06 104.38 207.96 108.63 207.28 108.84C206.729 109.018 206.133 108.999 205.594 108.786C205.055 108.573 204.607 108.18 204.326 107.674C204.045 107.167 203.948 106.579 204.053 106.009C204.158 105.439 204.457 104.924 204.9 104.55C221.09 90.87 226.1 72.55 227.6 61.12C220.17 73.12 209.16 84.93 195.25 95.88C179.977 107.834 163.089 117.567 145.09 124.79Z" fill="#12120D"/>
<path d="M143.27 86.77C158.72 114.54 197.91 153.6 216.1 176.86C179.68 202.29 119.3 204.08 95.43 186.07C81.5594 172.679 72.3395 155.199 69.12 136.19C68.23 130.87 61.99 82.46 59.05 70L57.22 63.3C55.56 56.3 52.81 53.01 46.15 52.22L32.25 51.11C41.83 43.02 46.25 40.91 51.68 33.03C66.38 11.56 79.68 -3.19 104.43 4.8C122.61 10.67 127.35 25.89 129.01 40.72C130.665 56.8633 135.512 72.5167 143.27 86.77Z" fill="#EEF7F5"/>
<path d="M142.57 200.56C122.26 200.56 104.48 196.08 93.92 188.11L93.69 187.91C79.4113 174.172 69.9429 156.196 66.69 136.65C66.44 135.2 65.83 130.79 64.99 124.65C62.67 107.8 58.78 79.65 56.65 70.59L54.84 64C53.31 57.52 51.22 55.38 45.84 54.74L32.04 53.64C31.7135 53.6135 31.3954 53.5229 31.104 53.3733C30.8126 53.2237 30.5536 53.018 30.3418 52.7681C30.13 52.5182 29.9696 52.229 29.8697 51.917C29.7699 51.605 29.7326 51.2764 29.76 50.95C29.8132 50.2876 30.1259 49.673 30.63 49.24C33.33 46.96 35.63 45.15 37.63 43.56C42.8 39.49 45.93 37.03 49.63 31.66C64.09 10.53 78.25 -6.24 105.21 2.46C125.47 9 129.91 26.22 131.5 40.46C133.119 56.2751 137.879 71.608 145.5 85.56C155.59 103.7 176.04 126.83 194.08 147.23C203.25 157.61 211.91 167.4 218.08 175.33C218.489 175.857 218.672 176.524 218.589 177.186C218.507 177.848 218.165 178.45 217.64 178.86L217.54 178.92C200.28 190.97 176.11 198.75 151.22 200.26C148.29 200.43 145.41 200.56 142.57 200.56ZM97.05 184.21C119.29 200.83 176.05 200.21 212.46 176.35C206.51 168.93 198.61 159.99 190.29 150.59C172.08 129.99 151.44 106.65 141.09 88.03C133.152 73.4899 128.198 57.5106 126.52 41.03C125 27.46 121.1 12.84 103.66 7.21C82.03 0.209996 69.88 10.91 53.75 34.47C49.64 40.47 45.91 43.41 40.75 47.47L38.66 49.13C46.34 49.74 46.41 49.75 46.46 49.76C53.87 50.64 57.69 54.4 59.66 62.76L61.47 69.38C63.68 78.72 67.59 107.05 69.92 123.98C70.73 129.82 71.37 134.42 71.6 135.8C74.6866 154.229 83.6076 171.181 97.05 184.16V184.21Z" fill="#12120D"/>
<path d="M6.83999 170.56C9.35999 161.98 31.52 176.36 31.52 176.36L38.92 193.02C38.51 192.56 4.33999 180.45 6.83999 170.56Z" fill="#A3D7D7"/>
<path d="M38.92 195.56C38.4682 195.561 38.0249 195.437 37.64 195.2L36 194.52C20.05 188 2 179.37 4.42 170V169.91C4.68027 168.995 5.15421 168.156 5.80273 167.46C6.45125 166.765 7.25579 166.233 8.15 165.91C15.24 163.29 29.98 172.49 32.86 174.36C33.266 174.625 33.5885 174.999 33.79 175.44L41.19 192.1C41.3577 192.481 41.4277 192.899 41.3939 193.314C41.36 193.729 41.2233 194.13 40.9961 194.479C40.7689 194.828 40.4583 195.115 40.0924 195.314C39.7264 195.514 39.3167 195.619 38.9 195.62L38.92 195.56ZM9.21 171.23C8.04 176.32 25.41 184.54 34.03 188.23L29.5 178C19.35 171.54 11.93 169.69 9.87001 170.45C9.70003 170.509 9.54901 170.612 9.43286 170.749C9.31671 170.887 9.23972 171.053 9.21 171.23Z" fill="#12120D"/>
<path d="M8 68.56C15.82 68.56 20.56 88.37 20.56 88.37L20.36 110.65C20.23 110.09 -0.87 81.41 3.97 71.21C4.32101 70.4314 4.88635 69.7687 5.59997 69.2995C6.3136 68.8302 7.14603 68.5737 8 68.56Z" fill="#A3D7D7"/>
<path d="M20.32 113.19C19.8582 113.189 19.4057 113.06 19.0123 112.819C18.6189 112.577 18.2997 112.231 18.09 111.82C17.96 111.61 17.68 111.2 17.28 110.61C3.52 90.26 -1.58 77 1.67 70.18C2.22222 68.9765 3.10446 67.9544 4.21428 67.2322C5.32411 66.51 6.61601 66.1174 7.94 66.1C12.26 66.1 16.12 69.97 19.42 77.52C20.86 80.8567 22.0271 84.3047 22.91 87.83C22.9579 88.0264 22.9814 88.2279 22.98 88.43L22.78 110.72C22.776 111.333 22.5463 111.922 22.1349 112.376C21.7235 112.83 21.1592 113.116 20.55 113.18L20.32 113.19ZM7.89 71.1C7.5129 71.1175 7.14844 71.2413 6.83876 71.4572C6.52908 71.6731 6.28682 71.9722 6.14 72.32C5.14 74.44 4.47 81.48 17.85 102.45L18 88.7C15.06 76.7 10.27 71.11 7.93 71.1H7.89Z" fill="#12120D"/>
<path d="M40.31 114.28C33.58 108.39 22.73 132.28 22.73 132.28L25.61 149.55C25.72 149 47.71 121.27 40.31 114.28Z" fill="#A3D7D7"/>
<path d="M25.61 152.06C25.0229 152.062 24.4541 151.856 24.004 151.479C23.5538 151.102 23.2514 150.578 23.15 150L20.26 132.74C20.1822 132.248 20.2481 131.745 20.45 131.29C21.86 128.18 29.27 112.61 36.63 111.02C37.5701 110.801 38.5491 110.812 39.484 111.053C40.4188 111.293 41.2819 111.755 42 112.4L42.07 112.46C49.07 119.12 38.73 135.63 28.89 149.27C28.47 149.85 28.04 150.46 27.89 150.69C27.6793 151.111 27.353 151.464 26.9492 151.707C26.5454 151.949 26.0809 152.072 25.61 152.06ZM25.32 132.65C26.1 137.34 26.67 140.71 27.07 143.15C41.66 122.15 39.7 117.21 38.63 116.15C38.5117 116.026 38.3612 115.936 38.1953 115.892C38.0294 115.848 37.8545 115.851 37.69 115.9C34.21 116.63 28.4 126.07 25.32 132.64V132.65Z" fill="#12120D"/>
<path d="M56.08 185.56C47.24 184.22 50.93 210.38 50.93 210.38L61.93 224.78C61.7 224.18 66.09 187.43 56.08 185.56Z" fill="#A3D7D7"/>
<path d="M62 227.25C61.6112 227.254 61.227 227.165 60.8793 226.991C60.5315 226.818 60.2301 226.563 60 226.25L49 211.85C48.7384 211.509 48.5696 211.106 48.51 210.68C48.03 207.28 45.91 190.03 51.28 184.68C51.9506 183.998 52.777 183.488 53.688 183.195C54.5989 182.903 55.5674 182.836 56.51 183H56.61C64.05 184.42 66.52 196.63 64.61 222.6C64.55 223.37 64.49 224.17 64.48 224.47C64.5088 224.798 64.4726 225.128 64.3735 225.442C64.2745 225.755 64.1144 226.047 63.9026 226.298C63.6908 226.55 63.4314 226.758 63.1392 226.909C62.847 227.06 62.5278 227.152 62.2 227.18H61.99L62 227.25ZM53.36 209.36L59.93 217.93C60.2916 212.537 60.3383 207.128 60.07 201.73C59.47 192.18 57.43 188.38 55.71 187.99C55.5438 187.958 55.3722 187.969 55.2113 188.021C55.0504 188.074 54.9054 188.166 54.79 188.29C53.21 189.85 51.72 197.39 53.31 209.36H53.36Z" fill="#12120D"/>
<path d="M52 252.07C48.19 243.99 76.11 238.59 76.11 238.59L90.45 246.66C89.88 246.56 56.74 261.11 52 252.07Z" fill="#A3D7D7"/>
<path d="M59.47 257.56C54.92 257.56 51.47 256.34 49.83 253.24C49.8281 253.213 49.8281 253.187 49.83 253.16C49.4248 252.325 49.2218 251.407 49.2374 250.479C49.253 249.552 49.4869 248.641 49.92 247.82C53.49 240.82 72.04 236.87 75.72 236.16C76.302 236.05 76.9041 236.149 77.42 236.44L91.77 244.51C92.2112 244.759 92.5663 245.137 92.7881 245.592C93.01 246.048 93.0881 246.56 93.0122 247.061C92.9363 247.562 92.7099 248.028 92.3631 248.398C92.0162 248.767 91.5653 249.023 91.07 249.13C90.79 249.22 90.07 249.51 89.35 249.78C79 253.69 67.57 257.56 59.47 257.56ZM54.28 251C56.85 255.68 76.19 249.27 84.55 246.23L75.73 241.23C67.59 242.9 56.08 246.6 54.32 250.06C54.2412 250.201 54.1998 250.359 54.1998 250.52C54.1998 250.681 54.2412 250.84 54.32 250.98L54.28 251Z" fill="#12120D"/>
<path d="M105.46 241C102.59 244.43 106.21 247.92 110.46 250.57C115.128 253.418 120.399 255.131 125.85 255.57C129.85 255.93 135.15 256.46 141.46 257.21C142.11 256.81 112.28 233.43 105.46 241Z" fill="#A3D7D7"/>
<path d="M141.51 259.71H141.21C135.91 259.07 130.69 258.52 125.68 258.07C119.845 257.586 114.203 255.751 109.2 252.71C104.82 250.01 102.47 247.34 102.01 244.54C101.872 243.623 101.937 242.688 102.202 241.799C102.466 240.911 102.923 240.092 103.54 239.4L103.6 239.33C105.85 236.84 109.6 236.33 114.66 237.86C120.85 239.71 128.18 244.19 133.24 247.63C143.66 254.7 143.89 256.18 143.99 256.81C144.043 257.136 144.031 257.469 143.955 257.79C143.879 258.111 143.74 258.414 143.547 258.681C143.354 258.949 143.11 259.176 142.829 259.349C142.548 259.522 142.236 259.638 141.91 259.69C141.777 259.7 141.643 259.7 141.51 259.69V259.71ZM107.34 242.64C106.87 243.23 106.92 243.56 106.95 243.73C107.02 244.17 107.59 245.83 111.82 248.44C116.165 251.07 121.059 252.658 126.12 253.08C128.49 253.29 130.9 253.53 133.35 253.78C126.42 248.78 115.48 242 109.5 241.99C108.723 241.917 107.948 242.151 107.34 242.64Z" fill="#12120D"/>
<path d="M143.26 260.36C111.85 260.36 85.8 251.12 65.57 232.75C50.26 218.85 30.21 191.85 21.67 142.14C18.5797 124.356 17.3497 106.299 18 88.26C18.0411 87.597 18.3439 86.9774 18.8418 86.5376C19.3397 86.0979 19.992 85.8739 20.655 85.915C21.318 85.9561 21.9376 86.2589 22.3774 86.7568C22.8171 87.2547 23.0411 87.907 23 88.57C22.94 89.5 17.75 182.57 68.92 229.06C88.2 246.56 113.14 255.36 143.29 255.36C152.949 255.321 162.59 254.509 172.12 252.93C172.444 252.878 172.776 252.891 173.095 252.967C173.415 253.043 173.716 253.181 173.982 253.374C174.248 253.567 174.474 253.81 174.646 254.09C174.818 254.37 174.933 254.681 174.985 255.005C175.037 255.329 175.024 255.661 174.948 255.98C174.872 256.3 174.734 256.601 174.541 256.867C174.348 257.133 174.105 257.359 173.825 257.531C173.545 257.703 173.234 257.818 172.91 257.87C163.109 259.487 153.194 260.32 143.26 260.36Z" fill="#12120D"/>
<path d="M79.53 165.56C71.69 135.4 117.08 129.74 142.89 136.47C174.11 144.61 190 140.52 199.62 138C231.15 129.75 263.14 115.73 282.08 97.74C282.08 97.74 239.89 157.66 216.08 159.94C216.08 159.94 237.79 169.46 248.7 164.59C238.65 185.59 195.49 210.23 160.28 210.23C135.84 210.19 98.8 202.61 79.53 165.56Z" fill="#D44049"/>
<path d="M160.3 212.69C138.23 212.69 98.11 206.69 77.3 166.69C77.2174 166.523 77.1504 166.349 77.1 166.17C74.77 157.17 76.68 149.32 82.62 143.38C95 131 123.86 128.9 143.51 134C174.24 142 189.72 138 198.98 135.54C233.75 126.43 263.41 111.97 280.35 95.87C280.822 95.4046 281.457 95.1437 282.12 95.1437C282.783 95.1437 283.418 95.4046 283.89 95.87C284.307 96.2925 284.56 96.8502 284.602 97.4425C284.644 98.0348 284.473 98.6226 284.12 99.1C284.01 99.25 273.33 114.37 259.87 129.56C245.62 145.71 233.61 156 224 160.22C231.47 162.63 241.81 164.9 247.66 162.29C247.961 162.157 248.285 162.085 248.613 162.077C248.942 162.069 249.269 162.127 249.576 162.245C249.882 162.364 250.162 162.543 250.4 162.77C250.637 162.997 250.828 163.269 250.96 163.57C251.113 163.895 251.193 164.25 251.193 164.61C251.193 164.97 251.113 165.325 250.96 165.65C245.86 176.3 232.46 188.19 215.11 197.46C197 207.14 177 212.69 160.3 212.69ZM81.88 164.62C101.5 202.09 139.42 207.69 160.3 207.69C192.49 207.69 230.3 187.11 243.58 168.31C231.58 169.31 215.88 162.53 215.09 162.19C214.483 161.925 214.006 161.429 213.764 160.812C213.522 160.195 213.535 159.507 213.8 158.9C213.982 158.493 214.269 158.14 214.63 157.879C214.992 157.617 215.416 157.455 215.86 157.41C230.03 156.05 253.22 130.71 268.54 111.49C250.89 123.2 227.02 133.37 200.25 140.38C190.53 142.93 174.25 147.19 142.25 138.85C123.85 134.05 96.92 136.14 86.16 146.9C81.54 151.567 80.1133 157.473 81.88 164.62Z" fill="#12120D"/>
<path d="M78.7 39.94C80.7711 39.94 82.45 38.2611 82.45 36.19C82.45 34.1189 80.7711 32.44 78.7 32.44C76.6289 32.44 74.95 34.1189 74.95 36.19C74.95 38.2611 76.6289 39.94 78.7 39.94Z" fill="#12120D"/>
</svg>
