<svg width="894" height="720" viewBox="0 0 894 720" fill="none" xmlns="http://www.w3.org/2000/svg">
<path d="M0 0H894V720H0V0Z" fill="white"/>
<path d="M55.9375 533.375H142V556H113.125V625H84.8125V556H55.9375V533.375Z" fill="#DA0001"/>
<path d="M153.66 533.375H229.535V552.938H182.035V567.5H226.098V586.188H182.035V604.25H230.91V625H153.66V533.375Z" fill="#DA0001"/>
<path d="M245.071 533.375H273.383V602.438H317.571V625H245.071V533.375Z" fill="#DA0001"/>
<path d="M329.232 533.375H405.107V552.938H357.607V567.5H401.669V586.188H357.607V604.25H406.482V625H329.232V533.375Z" fill="#DA0001"/>
<path d="M421.767 533.375H450.142V625H421.767V533.375Z" fill="#DA0001"/>
<path d="M469.427 533.375H522.427C531.261 533.375 538.032 535.562 542.74 539.938C547.49 544.312 549.865 549.729 549.865 556.188C549.865 561.604 548.177 566.25 544.802 570.125C542.552 572.708 539.261 574.75 534.927 576.25C541.511 577.833 546.344 580.562 549.427 584.438C552.552 588.271 554.115 593.104 554.115 598.938C554.115 603.688 553.011 607.958 550.802 611.75C548.594 615.542 545.573 618.542 541.74 620.75C539.365 622.125 535.782 623.125 530.99 623.75C524.615 624.583 520.386 625 518.302 625H469.427V533.375ZM497.99 569.312H510.302C514.719 569.312 517.782 568.562 519.49 567.062C521.24 565.521 522.115 563.312 522.115 560.438C522.115 557.771 521.24 555.688 519.49 554.188C517.782 552.688 514.782 551.938 510.49 551.938H497.99V569.312ZM497.99 605.312H512.427C517.302 605.312 520.74 604.458 522.74 602.75C524.74 601 525.74 598.667 525.74 595.75C525.74 593.042 524.74 590.875 522.74 589.25C520.782 587.583 517.323 586.75 512.365 586.75H497.99V605.312Z" fill="#DA0001"/>
<path d="M567.838 533.375H596.151V602.438H640.338V625H567.838V533.375Z" fill="#DA0001"/>
<path d="M651.998 533.375H727.873V552.938H680.373V567.5H724.436V586.188H680.373V604.25H729.248V625H651.998V533.375Z" fill="#DA0001"/>
<path d="M799.784 609.875H767.534L763.096 625H734.159L768.596 533.375H799.471L833.909 625H804.284L799.784 609.875ZM793.846 590.062L783.721 557.125L773.659 590.062H793.846Z" fill="#DA0001"/>
<path d="M210.306 271.236C195.462 263.351 184.639 254.537 177.835 244.796C168.558 231.498 163.919 216.191 163.919 198.873C163.919 170.423 177.294 147.152 204.044 129.061C224.918 115.145 252.518 108.187 286.844 108.187C332.303 108.187 365.856 116.846 387.503 134.164C409.305 151.481 420.206 173.283 420.206 199.569C420.206 214.876 415.877 229.179 407.218 242.477C400.724 252.372 390.519 261.959 376.603 271.236C395.003 280.05 408.687 291.724 417.655 306.258C426.778 320.793 431.339 336.874 431.339 354.5C431.339 371.509 427.396 387.435 419.51 402.279C411.779 416.968 402.193 428.333 390.75 436.373C379.463 444.413 365.315 450.289 348.307 454C331.453 457.866 313.439 459.798 294.266 459.798C258.239 459.798 230.716 455.546 211.698 447.042C192.679 438.538 178.222 426.013 168.326 409.469C158.43 392.924 153.482 374.447 153.482 354.037C153.482 334.09 158.121 317.236 167.398 303.475C176.676 289.559 190.978 278.813 210.306 271.236ZM252.75 204.439C252.75 216.191 256.384 225.7 263.651 232.967C271.073 240.08 280.891 243.636 293.106 243.636C303.93 243.636 312.821 240.08 319.779 232.967C326.737 225.855 330.216 216.655 330.216 205.367C330.216 193.616 326.582 184.107 319.315 176.839C312.048 169.417 302.77 165.707 291.483 165.707C280.041 165.707 270.686 169.34 263.419 176.607C256.306 183.72 252.75 192.997 252.75 204.439ZM247.647 350.79C247.647 365.788 252.209 378.08 261.332 387.667C270.454 397.099 280.891 401.815 292.643 401.815C303.93 401.815 314.058 397.022 323.026 387.435C331.994 377.694 336.478 365.401 336.478 350.558C336.478 335.559 331.917 323.267 322.794 313.68C313.826 304.094 303.389 299.3 291.483 299.3C279.732 299.3 269.449 303.939 260.636 313.216C251.977 322.494 247.647 335.018 247.647 350.79Z" fill="#DA0001"/>
<path d="M473.054 377.694L566.987 365.865C569.461 379.008 573.635 388.285 579.511 393.697C585.387 399.109 592.577 401.815 601.081 401.815C616.234 401.815 628.062 394.161 636.567 378.854C642.752 367.566 647.39 343.677 650.483 307.186C639.195 318.783 627.599 327.287 615.693 332.699C603.787 338.111 590.025 340.816 574.409 340.816C543.948 340.816 518.203 329.993 497.175 308.346C476.301 286.699 465.864 259.33 465.864 226.241C465.864 203.666 471.198 183.102 481.867 164.547C492.536 145.992 507.225 131.999 525.934 122.567C544.644 112.98 568.146 108.187 596.442 108.187C630.459 108.187 657.75 114.063 678.315 125.814C698.88 137.411 715.27 155.965 727.485 181.478C739.854 206.836 746.039 240.389 746.039 282.137C746.039 343.522 733.128 388.517 707.306 417.123C681.485 445.573 645.689 459.798 599.921 459.798C572.862 459.798 551.524 456.706 535.908 450.521C520.291 444.181 507.302 434.981 496.943 422.921C486.583 410.86 478.62 395.785 473.054 377.694ZM647.004 226.009C647.004 207.609 642.365 193.229 633.088 182.87C623.81 172.355 612.523 167.098 599.225 167.098C586.701 167.098 576.264 171.814 567.914 181.246C559.719 190.678 555.622 204.826 555.622 223.69C555.622 242.708 559.874 257.243 568.378 267.293C577.037 277.344 587.783 282.369 600.617 282.369C613.915 282.369 624.97 277.499 633.784 267.757C642.597 258.016 647.004 244.1 647.004 226.009Z" fill="#DA0001"/>
</svg>
