<svg width="704" height="326" viewBox="0 0 704 326" fill="none" xmlns="http://www.w3.org/2000/svg">
<path d="M303.4 88.1336L198.386 88.4748L142.598 325.31L58.8934 325.35L115.764 83.7584L0 81.5998L19.3287 1.82718L325.118 1.02954L303.4 88.1336Z" fill="white"/>
<path d="M447.153 0.29916C524.783 0.27696 583.206 0.63188 589.264 0.90256C650.116 3.6219 686.182 23.6784 698.635 61.7248C705.102 81.4829 705.522 112.272 699.619 133.725C687.622 177.316 636.293 220.949 582.986 232.869L475.169 235.872L454.167 324.85L370.866 324.248L447.153 0.29916ZM609.024 91.3999L510.307 87.2248L495.788 149.503L590.372 150.225C615.009 141.879 633.557 104.7 609.024 91.3999Z" fill="white"/>
<path d="M198.386 88.4748L218.965 1.11414L530.915 0L510.307 87.2248L198.386 88.4748Z" fill="white"/>
<path d="M256.134 150.725L495.788 149.503L474.429 239.087L236.741 234.475L256.134 150.725Z" fill="white"/>
<path d="M58.8934 325.35L65.0711 299.107L460.221 299.226L454.167 324.85L58.8934 325.35Z" fill="white"/>
</svg>
