<svg width="290" height="298" viewBox="0 0 290 298" fill="none" xmlns="http://www.w3.org/2000/svg">
<path d="M129 76H180C180 76 180 178.5 180 213C180 247.5 153 312 73 290V240.5C101.5 254 129 242 129 200V76Z" fill="#FECD07"/>
<path d="M177 29C177 43.3594 165.807 55 152 55C138.193 55 127 43.3594 127 29C127 14.6406 138.193 3 152 3C165.807 3 177 14.6406 177 29Z" fill="#FECD07"/>
<path d="M179.5 259H217V298H135.5C141 295 161 288.5 179.5 259Z" fill="#3956A6"/>
<path d="M191 220H216.75V245H185C186.398 241.537 187.5 241 191 220Z" fill="#3956A6"/>
<path d="M74 220H114C107.5 241.5 83 236 74 231V220Z" fill="#3956A6"/>
<path d="M192 181H217V206H192V181Z" fill="#3956A6"/>
<path d="M74 181H118V206H74V181Z" fill="#3956A6"/>
<path d="M192 94H217V167H192V94Z" fill="#3956A6"/>
<path d="M192 94H290V128H192V94Z" fill="#3956A6"/>
<path d="M118 94H74V167H118V94Z" fill="#3956A6"/>
<path d="M118 94H0V128H118V94Z" fill="#3956A6"/>
<path d="M0 57H129.5L141 62.5V63.5H126C120.5 63.5 118 67 118 79H0V57Z" fill="#3956A6"/>
<path d="M290 57H180.5L169 62.5V63.5H184C189.5 63.5 192 67 192 79H290V57Z" fill="#3956A6"/>
<path d="M189 26H289V41H187C187.792 34.9668 189 33 189 26Z" fill="#3956A6"/>
<path d="M117 26H0V41H119C118.208 34.9668 117 33 117 26Z" fill="#3956A6"/>
<path d="M0 0H134C125.277 6.78393 125.479 7.59184 124.196 10H0V0Z" fill="#3956A6"/>
<path d="M289 0L172 0C180.723 6.78393 180.521 7.59184 181.804 10H289V0Z" fill="#3956A6"/>
</svg>
