<svg width="170" height="198" viewBox="0 0 170 198" fill="none" xmlns="http://www.w3.org/2000/svg">
<path d="M140.552 0C151.552 0 169.552 3.5 169.552 33C169.552 93.5 116.552 177.5 32.0525 198C104.552 155.5 160.052 85 150.052 33C144.552 12.5 114.052 21 95.5525 34V18.5C106.052 6 123.552 0 140.552 0Z" fill="#FF0000"/>
<path d="M52.5525 15.5C81.0525 15.5 87.0525 15.5 87.0525 33C63.0525 26.5 30.0525 21.5 20.0525 65.5C15.507 85.5 42.0525 119.5 88.5523 134C62.5523 135 0.685837 120.5 0.686279 62.5C0.686523 30.5 22.0525 15.5 52.5525 15.5Z" fill="#FF0000"/>
</svg>
