<svg width="118" height="75" viewBox="0 0 118 75" fill="none" xmlns="http://www.w3.org/2000/svg">
<path d="M35.6 64.2C34.4 64 33.2 63.7 32.1 63.2C32 63.2 32 63.1 31.9 63.1C31.8 63 31.6 63 31.5 62.9C31.4 62.9 31.3 62.8 31.2 62.8C31.1 62.7 31 62.7 30.9 62.6C30.8 62.6 30.7 62.5 30.6 62.5C30.5 62.4 30.4 62.4 30.3 62.3C30.2 62.3 30.1 62.2 30 62.1C29.9 62 29.8 62 29.7 61.9C29.6 61.8 29.5 61.8 29.4 61.7C29.3 61.6 29.2 61.5 29 61.5C28.9 61.5 28.9 61.4 28.8 61.4C28.6 61.3 28.5 61.2 28.3 61C28.2 60.9 28.2 60.9 28.1 60.8C28 60.7 27.9 60.6 27.8 60.6C27.7 60.5 27.6 60.5 27.6 60.4C27.5 60.3 27.4 60.2 27.3 60.2C27.2 60.1 27.2 60.1 27.1 60C27 59.9 26.9 59.8 26.8 59.7C26.7 59.6 26.7 59.6 26.6 59.5C26.5 59.4 26.4 59.3 26.3 59.2C26.2 59.1 26.2 59.1 26.1 59C26 58.8 25.8 58.7 25.7 58.5C25.7 58.4 25.6 58.4 25.6 58.3C25.5 58.2 25.4 58.1 25.3 57.9C25.2 57.8 25.2 57.8 25.1 57.7C25 57.6 24.9 57.5 24.9 57.4C24.8 57.3 24.8 57.2 24.7 57.2C24.6 57.1 24.5 57 24.5 56.9C24.4 56.8 24.4 56.7 24.3 56.7C24.2 56.6 24.1 56.5 24.1 56.3C24.1 56.2 24 56.2 24 56.1C23.9 55.9 23.8 55.8 23.7 55.6V55.5C23.6 55.3 23.5 55.1 23.4 54.9C23.4 54.8 23.3 54.8 23.3 54.7C23.2 54.6 23.2 54.4 23.1 54.3C23.1 54.2 23 54.1 23 54.1C22.9 54 22.9 53.8 22.8 53.7C22.8 53.6 22.7 53.5 22.7 53.4C22.7 53.3 22.6 53.1 22.6 53C22.6 52.9 22.5 52.8 22.5 52.8C22.4 52.6 22.4 52.5 22.4 52.3C22.4 52.2 22.4 52.2 22.3 52.1C22.2 51.9 22.2 51.7 22.1 51.4C22.1 51.3 22.1 51.3 22.1 51.2C22.1 51 22 50.9 22 50.7C22 50.6 22 50.5 22 50.5C22 50.4 21.9 50.2 21.9 50.1C21.9 50 21.9 49.9 21.9 49.8C21.9 49.7 21.9 49.5 21.8 49.4C21.8 49.3 21.8 49.2 21.8 49.1C21.8 48.9 21.8 48.8 21.8 48.6C21.8 48.5 21.8 48.5 21.8 48.4C21.8 48.2 21.8 47.9 21.8 47.7V29.7H31.8C37.4 29.7 41.9 25.2 41.9 19.6H21.8V9.40001C21.8 6.40001 20.4 3.80001 18.2 2.10001C16.7 0.900012 14.7 0.200012 12.6 0.200012H11.7V19.5H10.2C4.5 19.7 0 24.2 0 29.8H11.6V47.8C11.6 48.2 11.6 48.7 11.6 49.1C11.6 49.2 11.6 49.4 11.6 49.5C11.6 49.8 11.6 50.1 11.7 50.4C11.7 50.6 11.7 50.7 11.8 50.9C11.8 51.2 11.9 51.4 11.9 51.7C11.9 51.9 11.9 52 12 52.2C12 52.5 12.1 52.7 12.1 53C12.1 53.2 12.2 53.3 12.2 53.5C12.3 53.8 12.3 54.1 12.4 54.3C12.4 54.4 12.5 54.5 12.5 54.7C12.6 55.1 12.7 55.5 12.8 55.9V56C12.9 56.4 13 56.7 13.2 57C13.2 57.1 13.3 57.3 13.3 57.4C13.4 57.7 13.5 57.9 13.6 58.2C13.7 58.3 13.7 58.5 13.8 58.6C13.9 58.8 14 59.1 14.1 59.3C14.2 59.4 14.2 59.6 14.3 59.7C14.4 59.9 14.5 60.2 14.7 60.4C14.8 60.5 14.8 60.7 14.9 60.8C15 61.1 15.2 61.3 15.3 61.5C15.4 61.6 15.4 61.7 15.5 61.8C15.7 62.1 15.9 62.5 16.1 62.8C16.1 62.9 16.2 62.9 16.2 63C16.4 63.3 16.6 63.5 16.8 63.8C16.9 63.9 17 64 17.1 64.1C17.3 64.3 17.4 64.5 17.6 64.7C17.7 64.8 17.8 64.9 17.9 65.1C18.1 65.3 18.2 65.5 18.4 65.7C18.5 65.8 18.6 65.9 18.7 66C18.9 66.2 19 66.4 19.2 66.6C19.3 66.7 19.4 66.8 19.5 66.9C19.7 67.1 19.9 67.3 20.1 67.5C20.2 67.6 20.3 67.6 20.3 67.7C20.6 68 20.9 68.2 21.2 68.5C21.3 68.6 21.3 68.6 21.4 68.7C21.6 68.9 21.9 69.1 22.1 69.3C22.2 69.4 22.3 69.5 22.4 69.6C22.6 69.8 22.8 69.9 23 70C23.1 70.1 23.3 70.2 23.4 70.3C23.6 70.4 23.8 70.6 24 70.7C24.1 70.8 24.3 70.9 24.4 70.9C24.6 71 24.8 71.2 25.1 71.3C25.2 71.4 25.4 71.4 25.5 71.5C25.8 71.6 26 71.8 26.3 71.9C26.4 71.9 26.5 72 26.6 72C27 72.2 27.3 72.3 27.7 72.5C27.8 72.5 27.9 72.6 28 72.6C28.3 72.7 28.6 72.8 28.8 72.9C28.9 73 29.1 73 29.2 73C29.4 73.1 29.7 73.2 29.9 73.3C30.1 73.3 30.2 73.4 30.4 73.4" fill="#004F80"/>
<path d="M103.6 68.9L88.7 39.6L78 55.9L68.6 32L50.9 66.7C48 72.4 41.6 75.4 35.3 74L69.9 6.40001L80.4 33.2L89.9 18.7L117.8 73.6C112.6 76.2 106.2 74.1 103.6 68.9Z" fill="url(#paint0_linear_1_4)"/>
<defs>
<linearGradient id="paint0_linear_1_4" x1="35.375" y1="40.5072" x2="117.756" y2="40.5337" gradientUnits="userSpaceOnUse">
<stop stop-color="#EEC22F"/>
<stop offset="0.1779" stop-color="#EDB233"/>
<stop offset="0.5543" stop-color="#EA8437"/>
<stop offset="1" stop-color="#E63833"/>
</linearGradient>
</defs>
</svg>
