<svg width="57" height="53" viewBox="0 0 57 53" fill="none" xmlns="http://www.w3.org/2000/svg">
<path d="M26.4145 52.6969C21.1656 52.7107 16.029 51.1802 11.647 48.2969C10.2473 47.3748 8.93865 46.3221 7.73864 45.1529C6.54324 43.9901 5.46233 42.7156 4.51076 41.3469C3.55768 39.9722 2.74204 38.5075 2.07556 36.9739C0.706327 33.8099 0 30.3998 0 26.9534C0 23.507 0.706327 20.0969 2.07556 16.9329C2.74186 15.3989 3.55751 13.9339 4.51076 12.5589C5.46181 11.1889 6.54239 9.91301 7.73763 8.74892C10.1584 6.39195 13.0091 4.51925 16.1356 3.23192C20.1882 1.55555 24.5906 0.895351 28.958 1.30901C33.3254 1.72268 37.5248 3.19764 41.189 5.60492C41.3794 5.72992 41.5718 5.85992 41.7592 5.99192L41.7281 6.03192C40.9495 7.06692 40.3061 7.92492 39.7389 8.68092C37.8348 11.2219 38.1485 8.06392 33.9636 13.5729C33.8984 13.6589 31.806 13.0299 31.7418 13.1179C30.0623 12.0179 29.7175 13.2999 27.6942 13.2999C22.1053 13.2999 16.2849 21.5439 16.2849 26.9519C16.3292 29.5925 17.4211 32.1077 19.3211 33.9461C21.2211 35.7846 23.7742 36.7961 26.4205 36.7589C26.5207 36.7589 26.6289 36.7589 26.7332 36.7589H34.5037L34.5127 18.5719H36.2875C39.8952 18.5719 48.3603 18.5579 50.7454 18.5579H51.3877L51.7886 19.7699C53.4727 25.4502 53.1071 31.5399 50.7554 36.9789C50.0888 38.5125 49.2732 39.9772 48.3202 41.3519C47.3694 42.7218 46.2891 43.9977 45.0943 45.1619C42.6741 47.5187 39.8242 49.3914 36.6984 50.6789C33.437 52.0208 29.9422 52.7066 26.4145 52.6969Z" fill="#ACB3B8"/>
<path d="M30.4441 50.0489C25.3441 50.0633 20.3529 48.5774 16.0945 45.7769C14.7335 44.8798 13.461 43.8555 12.2944 42.7179C11.1341 41.5873 10.0851 40.3483 9.16171 39.0179C8.23536 37.6822 7.44255 36.259 6.79466 34.7689C5.46417 31.6944 4.77783 28.3808 4.77783 25.0319C4.77783 21.6829 5.46417 18.3694 6.79466 15.2949C7.44243 13.8047 8.23525 12.3815 9.16171 11.0459C10.085 9.71515 11.134 8.47582 12.2944 7.34489C14.6461 5.05478 17.4154 3.23503 20.4528 1.98389C24.3903 0.355716 28.6675 -0.285392 32.9106 0.11659C37.1537 0.518572 41.2336 1.95141 44.7937 4.28989C44.9791 4.41189 45.1655 4.53789 45.3479 4.66589L45.3178 4.70489C44.5612 5.71089 43.9369 6.54389 43.3847 7.27889C41.5318 9.74789 40.1939 11.5319 36.1272 16.8849C36.0641 16.9679 36.003 17.0499 35.9408 17.1339C34.3069 16.066 32.3953 15.499 30.4421 15.5029C27.8706 15.4668 25.3897 16.4498 23.5434 18.2362C21.6971 20.0227 20.6361 22.4669 20.5931 25.0329C20.6361 27.5988 21.6971 30.043 23.5434 31.8295C25.3897 33.616 27.8706 34.599 30.4421 34.5629C30.5423 34.5629 30.6425 34.5629 30.7427 34.5629H38.2929L38.3019 16.8899H40.0265C43.534 16.8899 51.7576 16.8769 54.0755 16.8769H54.6998L55.0887 18.0549C56.7254 23.5742 56.3708 29.4915 54.0865 34.7769C53.4403 36.264 52.6499 37.6844 51.7265 39.0179C50.8024 40.3483 49.7527 41.5873 48.5918 42.7179C46.2401 45.008 43.4708 46.8277 40.4334 48.0789C37.2661 49.3854 33.8714 50.0549 30.4441 50.0489Z" fill="#E50700"/>
</svg>
