<svg width="598" height="560" viewBox="0 0 598 560" fill="none" xmlns="http://www.w3.org/2000/svg">
<path d="M392.609 50.52C405.095 50.5534 417.705 51.436 430.373 53.2174C478.017 59.9134 521.079 78.2787 557.264 105.041L559.073 106.657C442.916 113.316 343.755 201.077 326.944 320.695C324.581 337.503 323.773 354.223 324.799 370.544C300.851 348.907 273.048 331.28 242.281 318.892C241.244 311.973 240.484 304.957 239.989 297.868C232.333 188.397 296.624 90.5134 392.609 50.52Z" fill="white"/>
<path d="M482.611 150.244C494.005 150.771 505.489 152.417 516.925 155.268C546.531 162.649 572.472 177.087 593.521 196.364L594.555 197.503C520.852 194.004 452.495 242.784 433.964 317.112C431.36 327.557 429.743 338.049 429.307 348.412C410.929 327.932 387.679 311.561 360.72 301.328C375.403 232.567 422.052 177.671 482.611 150.244Z" fill="white"/>
<path d="M92.4645 315.051C99.1979 441.925 197.539 544.397 322.536 557.871C313.04 558.928 303.388 559.471 293.611 559.471C157.533 559.471 41.6145 454.476 31.3959 320.997C43.7672 318.407 56.4604 316.627 69.424 315.721C77.1609 315.18 84.8459 314.96 92.4645 315.051Z" fill="white"/>
<path d="M328.591 551.123C188.417 533.912 87.75 408.717 100.013 269.151L133.249 269.141C119.011 406.961 215.271 530.919 351.527 552.936C343.929 552.666 336.279 552.066 328.591 551.123Z" fill="white"/>
<path d="M586.997 375.94C583.156 390.863 578.172 405.327 572.147 419.233L561.253 423.961C433.063 485.972 263.036 451.709 180.668 347.089C176.227 341.448 172.131 335.717 168.376 329.913C252.767 428.815 417.108 460.407 542.276 399.857L586.997 375.94Z" fill="white"/>
<path d="M596.924 291.724C597.035 295.055 597.092 298.4 597.092 301.759C597.092 313.444 596.411 324.969 595.084 336.297C588.965 340.604 582.185 345.397 574.685 350.724C457.327 434.08 290.429 431.68 184.696 343.991C178.996 339.264 173.609 334.385 168.537 329.373C274.859 411.092 446.207 412.413 550.325 330.521L596.924 291.724Z" fill="white"/>
<path d="M510.585 466.253L553.025 453.939C544.603 467.501 535.107 480.329 524.657 492.301L521.537 493.004C376.883 529.261 221.644 464.921 174.111 348.815C171.548 342.555 169.351 336.272 167.508 329.979C218.815 440.94 369.341 501.656 510.585 466.253Z" fill="white"/>
<path d="M470.445 526.027L492.555 523.872C478.857 535.428 464.091 545.756 448.424 554.685C308.401 552.604 186.187 465.493 168.768 350.877C167.771 344.315 167.137 337.793 166.855 331.329C190.305 448.731 323.281 535.056 470.445 526.027Z" fill="white"/>
<path d="M142.072 259.779L141.831 259.78L93.55 259.791C92.4932 271.819 92.0541 283.769 92.2052 295.608C83.3011 295.377 74.3031 295.571 65.2328 296.204C43.0333 297.757 21.6229 301.869 1.27136 308.233L1.13073 306.688C0.960941 304.804 0.8099 302.913 0.677088 301.016C-10.0578 147.512 108.136 11.4254 261.64 0.6894C309.636 -2.6666 355.575 6.34405 396.533 24.9987L398.639 26.2027C286.404 56.8681 207.657 163.329 216.084 283.829C217.269 300.76 219.955 317.284 224.352 333.035C203.697 321.064 181.437 311.676 158.027 305.285C157.432 297.036 157.205 288.717 157.36 280.349L142.043 260.061L142.072 259.779Z" fill="white"/>
</svg>
