<svg width="316" height="304" viewBox="0 0 316 304" fill="none" xmlns="http://www.w3.org/2000/svg">
<path fill-rule="evenodd" clip-rule="evenodd" d="M11.6934 304C-0.393593 297.93 -2.91656 290.009 3.22844 277.915C35.4574 214.482 67.6524 151.033 99.8674 87.594C112.513 62.694 125.268 37.848 137.779 12.88C141.04 6.373 146.25 2.587 152.693 0C156.36 0 160.026 0 163.693 0C170.821 0.833 175.181 5.352 178.573 11.165C179.16 12.172 179.705 13.202 180.219 14.248C195.188 44.727 210.921 74.821 226.256 105.115C249.259 150.553 272.357 195.944 295.39 241.367C300.657 251.753 305.937 262.14 311.339 272.461C313.268 276.145 314.866 279.918 315.693 284C315.693 287 315.693 290 315.693 293C314.382 299.022 310.715 302.689 304.693 304C301.693 304 298.693 304 295.693 304C285.377 301.588 276.403 295.985 267.053 291.444C236.663 276.684 206.104 262.267 175.914 247.093C164.044 241.126 152.214 241.067 140.014 247.156C103.533 265.364 66.5924 282.639 30.0674 300.763C27.0544 302.258 23.7434 302.71 20.6934 303.999C17.6934 304 14.6934 304 11.6934 304Z" fill="#B92B2A"/>
</svg>
