<svg width="125" height="124" viewBox="0 0 125 124" fill="none" xmlns="http://www.w3.org/2000/svg">
<path d="M0 39C0 17.4609 17.4609 0 39 0V39H0Z" fill="#EF543F"/>
<path d="M0 39C0 60.5391 17.4609 78 39 78V39H0Z" fill="#F48043"/>
<path d="M125 39C125 17.4609 107.539 0 86 0V39H125Z" fill="#00857D"/>
<path d="M47 0C47 21.5391 64.4609 39 86 39V0H47Z" fill="#2EBCB6"/>
<path d="M0 85C0 106.539 17.4609 124 39 124V85H0Z" fill="#8B1A49"/>
<path d="M78 124C78 102.461 60.5391 85 39 85V124H78Z" fill="#C33D5B"/>
<path d="M125 85C125 106.539 107.539 124 86 124V85H125Z" fill="#3E6BB2"/>
<path d="M125 85C125 63.4609 107.539 46 86 46V85H125Z" fill="#29387F"/>
</svg>
