<svg width="458" height="395" viewBox="0 0 458 395" fill="none" xmlns="http://www.w3.org/2000/svg">
<path d="M81.8984 172L254.398 264.5C278.398 191 314.898 168 387.898 172L299.898 394.5L130.398 302.5L114.898 342C105.398 364.5 65.8984 394.5 34.8984 394.5H0.898438L81.8984 172Z" fill="white"/>
<path d="M55.8984 41L143.398 13L155.898 0H158.398L153.398 19.5C185.398 38.5 202.398 78.5 198.398 124.5L228.398 80.5L457.898 50.5C459.398 92.5 438.398 139.5 398.898 146L345.898 152C288.898 160 264.898 182 243.398 233L89.8984 149.5L117.898 71.5L61.3984 59L55.8984 41Z" fill="white"/>
</svg>
