<svg width="592" height="140" viewBox="0 0 592 140" fill="none" xmlns="http://www.w3.org/2000/svg">
<path d="M0.552734 0H591.553V140H0.552734V0Z" fill="white"/>
<path d="M306.553 82.7507L329.593 81.308C330.091 85.0481 331.107 87.8978 332.64 89.8569C335.134 93.027 338.698 94.6121 343.331 94.6121C346.788 94.6121 349.443 93.8107 351.296 92.2078C353.185 90.5693 354.129 88.6814 354.129 86.5442C354.129 84.5139 353.238 82.6972 351.456 81.0943C349.674 79.4914 345.54 77.9776 339.054 76.5528C328.434 74.1662 320.861 70.996 316.335 67.0422C311.774 63.0884 309.493 58.0482 309.493 51.9215C309.493 47.8964 310.651 44.1029 312.968 40.5409C315.32 36.9433 318.83 34.1293 323.498 32.0989C328.203 30.033 334.635 29 342.796 29C352.81 29 360.437 30.8701 365.676 34.6102C370.95 38.3146 374.086 44.2276 375.084 52.3489L352.258 53.6847C351.652 50.1583 350.369 47.5937 348.409 45.9908C346.485 44.3879 343.812 43.5864 340.391 43.5864C337.575 43.5864 335.455 44.192 334.029 45.403C332.604 46.5785 331.891 48.0211 331.891 49.7309C331.891 50.9776 332.479 52.0996 333.655 53.097C334.796 54.1299 337.504 55.0917 341.781 55.9822C352.365 58.2619 359.938 60.5772 364.5 62.9281C369.097 65.2434 372.429 68.1286 374.496 71.5838C376.599 75.0389 377.65 78.9037 377.65 83.1781C377.65 88.2005 376.26 92.8311 373.48 97.0699C370.701 101.309 366.816 104.532 361.827 106.741C356.838 108.914 350.548 110 342.957 110C329.628 110 320.398 107.435 315.266 102.306C310.134 97.1768 307.23 90.6583 306.553 82.7507Z" fill="black"/>
<path d="M389.25 30.3358H411.007V45.1359H389.25V30.3358ZM389.25 51.9215H411.007V108.664H389.25V51.9215Z" fill="black"/>
<path d="M425.119 51.9215H445.486V61.2183C447.447 57.1933 449.46 54.4327 451.527 52.9367C453.63 51.405 456.213 50.6392 459.278 50.6392C462.486 50.6392 465.996 51.6365 469.809 53.6313L463.074 69.126C460.508 68.0574 458.476 67.5231 456.98 67.5231C454.129 67.5231 451.919 68.6985 450.351 71.0495C448.106 74.3621 446.983 80.56 446.983 89.6431V108.664H425.119V51.9215Z" fill="black"/>
<path d="M474.353 30.3358H496.11V45.1359H474.353V30.3358ZM474.353 51.9215H496.11V108.664H474.353V51.9215Z" fill="black"/>
<path d="M507.336 80.4532C507.336 71.7975 510.258 64.6735 516.103 59.0811C521.947 53.4532 529.841 50.6392 539.784 50.6392C551.152 50.6392 559.741 53.934 565.55 60.5237C570.218 65.8311 572.553 72.3674 572.553 80.1326C572.553 88.8595 569.648 96.0191 563.839 101.611C558.066 107.168 550.065 109.947 539.837 109.947C530.714 109.947 523.337 107.631 517.706 103.001C510.793 97.2658 507.336 89.75 507.336 80.4532ZM529.146 80.3997C529.146 85.4578 530.162 89.1979 532.193 91.62C534.26 94.0422 536.844 95.2533 539.944 95.2533C543.08 95.2533 545.646 94.06 547.642 91.6735C549.673 89.2869 550.689 85.4578 550.689 80.186C550.689 75.2704 549.673 71.6194 547.642 69.2328C545.611 66.8107 543.098 65.5996 540.105 65.5996C536.933 65.5996 534.313 66.8285 532.246 69.2863C530.179 71.7084 529.146 75.4129 529.146 80.3997Z" fill="black"/>
<path d="M18.5527 19H291.553V121H18.5527V19Z" fill="black"/>
<path d="M32.5527 30H106.146V49.1933H81.4549V107.728H57.2443V49.1933H32.5527V30Z" fill="white"/>
<path d="M172.097 84.9289H128.486C128.878 88.3928 129.823 90.9732 131.319 92.6698C133.421 95.1087 136.165 96.3282 139.55 96.3282C141.687 96.3282 143.718 95.798 145.642 94.7376C146.818 94.066 148.083 92.8819 149.437 91.1852L170.868 93.147C167.59 98.8025 163.635 102.867 159.003 105.342C154.372 107.781 147.727 109 139.069 109C131.551 109 125.636 107.957 121.325 105.872C117.014 103.751 113.433 100.411 110.582 95.851C107.768 91.2559 106.36 85.8656 106.36 79.6799C106.36 70.8785 109.193 63.7562 114.858 58.3128C120.559 52.8694 128.415 50.1477 138.427 50.1477C146.551 50.1477 152.964 51.3671 157.667 53.806C162.371 56.245 165.951 59.7796 168.41 64.4101C170.868 69.0405 172.097 75.0671 172.097 82.4899V84.9289ZM149.971 74.5899C149.544 70.419 148.404 67.4322 146.551 65.6295C144.734 63.8268 142.329 62.9255 139.336 62.9255C135.88 62.9255 133.118 64.2864 131.052 67.0081C129.733 68.7047 128.896 71.232 128.54 74.5899H149.971Z" fill="white"/>
<path d="M182.84 30H204.645V107.728H182.84V30Z" fill="white"/>
<path d="M281.553 84.9289H237.942C238.334 88.3928 239.278 90.9732 240.774 92.6698C242.876 95.1087 245.62 96.3282 249.005 96.3282C251.143 96.3282 253.173 95.798 255.098 94.7376C256.273 94.066 257.538 92.8819 258.892 91.1852L280.324 93.147C277.046 98.8025 273.091 102.867 268.459 105.342C263.827 107.781 257.182 109 248.524 109C241.006 109 235.091 107.957 230.78 105.872C226.469 103.751 222.888 100.411 220.038 95.851C217.223 91.2559 215.815 85.8656 215.815 79.6799C215.815 70.8785 218.648 63.7562 224.313 58.3128C230.014 52.8694 237.87 50.1477 247.882 50.1477C256.006 50.1477 262.419 51.3671 267.123 53.806C271.826 56.245 275.407 59.7796 277.865 64.4101C280.324 69.0405 281.553 75.0671 281.553 82.4899V84.9289ZM259.427 74.5899C258.999 70.419 257.859 67.4322 256.006 65.6295C254.189 63.8268 251.784 62.9255 248.791 62.9255C245.335 62.9255 242.574 64.2864 240.507 67.0081C239.189 68.7047 238.351 71.232 237.995 74.5899H259.427Z" fill="white"/>
</svg>
