<svg width="37" height="25" viewBox="0 0 37 25" fill="none" xmlns="http://www.w3.org/2000/svg">
<path d="M15.746 6.48812C16.476 6.24812 16.946 6.60812 17.386 7.07812C19.106 8.90812 20.826 10.7281 22.546 12.5581C22.856 12.8881 23.216 13.2681 23.686 12.9881C23.986 12.8181 24.226 12.3781 24.316 12.0281C24.716 10.5281 25.036 9.01812 25.426 7.51812C25.616 6.80812 25.476 6.22812 25.016 5.72812C23.876 4.50812 22.776 3.24812 21.576 2.07812C19.546 0.118121 17.056 -0.471879 14.246 0.378121C11.436 1.22812 9.53599 3.11812 8.79599 5.95812C7.68599 10.2381 6.70599 14.5381 5.67599 18.8281C5.32599 20.2681 4.98599 21.7081 4.64599 23.0781C4.57599 23.8381 4.96599 24.2581 5.71599 24.2681C6.93599 24.2881 8.15599 24.2681 9.37599 24.2681C10.306 24.2681 10.756 23.9081 10.976 22.9881C12.186 17.9681 13.416 12.9481 14.606 7.91812C14.766 7.24812 15.026 6.71812 15.726 6.48812H15.746Z" fill="white"/>
<path d="M34.996 0.568121C33.736 0.568121 32.466 0.568121 31.206 0.568121C30.426 0.568121 29.976 0.928122 29.786 1.69812C28.556 6.76812 27.336 11.8281 26.126 16.8981C25.976 17.5381 25.706 18.0981 25.046 18.2981C24.376 18.5081 23.846 18.2581 23.376 17.7581C21.626 15.8681 19.856 13.9981 18.056 12.1581C17.836 11.9281 17.366 11.7181 17.096 11.8081C16.826 11.8881 16.536 12.3281 16.446 12.6581C16.016 14.2181 15.656 15.7881 15.276 17.3581C15.106 18.0581 15.286 18.6381 15.766 19.1381C16.846 20.2681 17.896 21.4181 18.976 22.5481C20.376 24.0181 22.146 24.7281 24.016 24.7781C27.866 24.7781 31.116 22.2581 31.996 18.6481C33.356 13.0781 34.686 7.49812 36.016 1.91812C36.226 1.03812 35.866 0.568121 34.986 0.558121L34.996 0.568121Z" fill="white"/>
<path d="M7.46599 4.93812C7.76599 3.76812 8.04599 2.59812 8.31599 1.41812C8.50599 0.598121 8.13599 0.0781214 7.30599 0.0581214C5.61599 0.0281214 3.92599 0.0281214 2.22599 0.0581214C1.59599 0.0681214 1.07599 0.368121 0.90599 1.05812C0.60599 2.30812 0.28599 3.53812 0.03599 4.78812C-0.12401 5.56812 0.25599 5.96812 1.04599 5.97812C1.87599 5.97812 5.26599 5.97812 6.12599 5.97812C6.83599 5.97812 7.30599 5.62812 7.47599 4.93812H7.46599Z" fill="white"/>
</svg>
