<svg width="82" height="82" viewBox="0 0 82 82" fill="none" xmlns="http://www.w3.org/2000/svg">
<path d="M0 28H82V37H0V28Z" fill="#F8A628"/>
<path d="M0 28L28.1304 0L30.5 1.46144e-05L34.4943 6.36396L5.36396 35.4943L0 28Z" fill="#F8A628"/>
<path d="M81.9949 28L53.8645 0L51.4949 1.46144e-05L47.5005 6.36396L76.6309 35.4943L81.9949 28Z" fill="#F8A628"/>
<path d="M0 28L28.1304 0L30.5 1.46144e-05L34.4943 6.36396L5.36396 35.4943L0 28Z" fill="#F8A628"/>
<path d="M81.9949 28L53.8645 0L51.4949 1.46144e-05L47.5005 6.36396L76.6309 35.4943L81.9949 28Z" fill="#F8A628"/>
<path d="M28.5 82V1.41599e-05H37.5V82H28.5Z" fill="#F8A628"/>
<path d="M44.5 82V1.41599e-05H53.5V82H44.5Z" fill="#F8A628"/>
<path d="M82 54H0V45H82V54Z" fill="#F8A628"/>
<path d="M82 54L53.8696 82L51.5 82L47.5057 75.636L76.636 46.5057L82 54Z" fill="#F8A628"/>
<path d="M0.00512695 54L28.1355 82L30.5051 82L34.4995 75.636L5.36909 46.5057L0.00512695 54Z" fill="#F8A628"/>
<path d="M82 54L53.8696 82L51.5 82L47.5057 75.636L76.636 46.5057L82 54Z" fill="#F8A628"/>
<path d="M0.00512695 54L28.1355 82L30.5051 82L34.4995 75.636L5.36909 46.5057L0.00512695 54Z" fill="#F8A628"/>
<path d="M53.5 1.41599e-05V82H44.5V1.41599e-05H53.5Z" fill="#F8A628"/>
<path d="M37.5 1.41599e-05V82H28.5V1.41599e-05H37.5Z" fill="#F8A628"/>
</svg>
