<svg width="172" height="37" viewBox="0 0 172 37" fill="none" xmlns="http://www.w3.org/2000/svg">
<path d="M2 15L3.5 8H31.5L35.5 14L31.5 28H4.5L2 15Z" fill="white"/>
<path d="M148.98 24.61C146.1 24.65 143.22 24.63 140.34 24.63C139.86 24.63 139.34 24.75 138.65 24.34C140.35 23.53 141.9 22.83 143.41 22.08C145.7 20.94 148 19.78 149.75 17.92C152.75 14.74 152.4 9.78 149.02 7.54C143.7 4.01 135.73 6.54 133.82 12.36C132.97 14.94 132.98 14.95 135.88 14.95C136.68 14.95 137.53 15.1 138.28 14.91C139.33 14.65 138.73 13.5 139.23 12.89C139.29 12.82 139.32 12.73 139.36 12.65C140.08 11.17 141.39 10.63 143.03 10.66C144.38 10.69 145.47 11.2 145.88 12.45C146.35 13.9 145.8 15.15 144.61 16.14C144.33 16.37 144.01 16.57 143.69 16.75C141.2 18.1 138.68 19.4 136.23 20.81C133.28 22.51 131.02 24.73 130.38 28.11C130.19 29.1 130.4 29.43 131.54 29.41C136.07 29.35 140.6 29.38 145.13 29.38C149.15 29.38 149.12 29.38 149.86 25.61C150.02 24.82 149.82 24.6 148.98 24.61Z" fill="white"/>
<path d="M170.32 19.68C169.06 19.87 168.83 19.39 169.09 18.28C169.91 14.74 170.59 11.17 171.39 7.62C171.6 6.68 171.55 6.22 170.32 6.33C169.1 6.43 167.87 6.41 166.65 6.33C165.7 6.27 165.08 6.59 164.46 7.24C161.19 10.66 157.99 14.16 154.54 17.41C152.72 19.13 151.91 21.06 151.53 23.33C151.38 24.2 151.72 24.3 152.48 24.28C153.89 24.24 155.31 24.27 156.72 24.27C158.13 24.27 159.55 24.31 160.96 24.26C161.9 24.22 162.11 24.55 161.9 25.36C161.63 26.39 161.47 27.44 161.21 28.48C161.03 29.2 161.27 29.43 162.05 29.39C163.27 29.34 164.5 29.35 165.73 29.4C166.58 29.44 166.89 29.12 167 28.36C167.16 27.27 167.46 26.19 167.66 25.1C167.76 24.53 168.03 24.29 168.68 24.24C170.92 24.09 170.92 24.06 171.38 21.99C171.45 21.69 171.46 21.37 171.56 21.08C171.93 20 171.62 19.48 170.34 19.68H170.32ZM163.34 18.94C163.23 19.45 163 19.7 162.41 19.69C160.77 19.67 159.14 19.69 157.12 19.69C159.75 17.03 162.17 14.58 164.58 12.13C164.66 12.17 164.73 12.21 164.8 12.25C164.31 14.48 163.81 16.71 163.33 18.95L163.34 18.94Z" fill="white"/>
<path d="M107.85 17.37C110.23 15.75 111.08 13.88 110.38 11.77C109.83 10.11 108.19 9.36 105.07 9.35C102.71 9.35 100.35 9.37 97.99 9.33C97.23 9.32 96.92 9.55 96.77 10.26C95.71 15.38 94.6 20.49 93.5 25.61C93.37 26.2 93.46 26.51 94.23 26.5C97.11 26.46 99.99 26.48 102.86 26.45C104.04 26.43 105.19 26.15 106.29 25.73C109.82 24.38 111.32 19.64 107.84 17.39L107.85 17.37ZM103.58 22.76C102.76 22.91 101.9 22.89 101.06 22.95C98.66 22.9 98.77 22.92 99.12 20.61C99.31 19.38 99.79 18.93 101.08 19.1C101.82 19.2 102.58 19.1 103.33 19.15C104.37 19.22 105.14 19.62 105.18 20.74C105.22 21.81 104.69 22.55 103.57 22.76H103.58ZM104.72 15.88C103.95 16.13 103.14 16.05 102.25 16.06C101.67 15.93 100.64 16.41 100.36 15.85C99.98 15.09 100.58 14.17 100.74 13.31C100.76 13.18 100.98 12.99 101.12 12.98C102.48 12.96 103.85 12.75 105.18 13.14C105.78 13.32 106.02 13.83 105.96 14.42C105.89 15.16 105.45 15.65 104.72 15.88Z" fill="white"/>
<path d="M54.15 9.32C53.44 9.34 53.12 9.56 53.02 10.19C52.86 11.2 52.66 12.2 52.46 13.2C52.04 15.39 51.61 17.58 51.17 19.8C50.56 19.57 50.58 19.18 50.47 18.86C49.65 16.65 48.84 14.43 48.03 12.22C46.98 9.33 46.98 9.4 43.74 9.3C42.48 9.26 42.16 9.72 41.96 10.74C41.11 15 40.19 19.24 39.28 23.49C38.63 26.54 38.61 26.5 41.93 26.5C42.9 26.5 43.22 26.17 43.37 25.32C43.88 22.44 44.47 19.58 45.04 16.71C45.09 16.45 44.96 16.05 45.56 16.04C46.44 18.48 47.33 20.95 48.22 23.41C49.36 26.54 49.36 26.52 52.94 26.49C53.75 26.49 54.1 26.27 54.26 25.5C55.15 21.12 56.12 16.75 57.01 12.36C57.65 9.18 57.61 9.2 54.15 9.32Z" fill="white"/>
<path d="M88.23 9.35C85.54 9.3 82.85 9.35 80.16 9.32C79.45 9.32 79.16 9.56 79.03 10.19C77.97 15.31 76.9 20.44 75.79 25.55C75.62 26.32 75.89 26.45 76.62 26.48C80.15 26.63 80.15 26.64 80.86 23.38C80.91 23.16 80.98 22.95 81.02 22.73C81.3733 21.03 82.4467 20.2033 84.24 20.25C86.07 20.3 86.72 20.9 86.72 22.59C86.72 23.56 86.64 24.54 86.61 25.51C86.6 26.04 86.71 26.48 87.45 26.46C88.49 26.44 89.53 26.45 90.56 26.46C91.02 26.46 91.3 26.35 91.2 25.85C90.91 24.4 91.2 22.94 91.18 21.48C91.16 20.38 91 19.36 89.82 18.62C92.78 17.38 93.84 15.39 93.23 12.51C92.78 10.39 91.27 9.39 88.22 9.34L88.23 9.35ZM87.2 16.71C86.33 16.98 85.43 16.9 84.54 16.91C82.22 16.91 82.24 16.91 82.68 14.76C83.13 12.55 82.83 12.89 85.14 12.86C85.7 12.86 86.27 12.84 86.83 12.89C87.86 12.98 88.68 13.35 88.75 14.46C88.82 15.54 88.36 16.35 87.21 16.71H87.2Z" fill="white"/>
<path d="M70.85 9.47C66.68 8.08 62.06 9.54 59.69 13.04C57.85 15.76 57.44 18.75 58.2 21.84C58.84 24.44 60.66 26.05 63.46 26.64C67.67 27.54 71.85 25.79 73.91 22.24C74.95 20.45 75.35 18.51 75.38 17.09C75.42 12.75 73.96 10.5 70.84 9.46L70.85 9.47ZM69.17 21.42C68.04 22.84 66.39 23.41 64.83 22.97C63.32 22.54 62.53 21.36 62.47 19.42C62.43 18.07 62.74 16.78 63.32 15.55C63.63 14.9 64.05 14.31 64.63 13.83C65.9 12.76 67.35 12.38 68.95 12.99C70.66 13.64 70.73 15.12 70.8 16.48C70.76 18.33 70.3 19.98 69.17 21.42Z" fill="white"/>
<path d="M126.51 24.43C125.83 20.37 125.14 16.32 124.47 12.26C123.99 9.34 124 9.39 120.89 9.32C119.81 9.29 119.2 9.57 118.67 10.49C116.16 14.84 113.53 19.13 111 23.47C110.45 24.41 109.13 25.53 109.66 26.28C110.13 26.95 111.85 26.38 113.01 26.48C113.7 26.54 114.26 26.37 114.45 25.71C115.07 23.59 116.65 23.11 118.74 23.41C119.06 23.46 119.4 23.41 119.73 23.41C121.79 23.41 121.86 23.41 122.04 25.3C122.14 26.3 122.56 26.62 123.56 26.48C123.88 26.43 124.22 26.48 124.55 26.48C126.09 26.4867 126.743 25.8067 126.51 24.44V24.43ZM120.38 20.08C117.48 20.14 117.49 20.17 118.78 17.77C119.35 16.71 119.9 15.65 120.47 14.59C120.51 14.52 120.62 14.49 120.84 14.35C121.01 16.03 121.12 17.56 121.32 19.08C121.42 19.83 121.21 20.06 120.38 20.08Z" fill="white"/>
<path d="M18.4 0C27.85 -0.01 35.67 6.93 36.66 16.19C37.67 25.66 30.84 34.41 21.31 35.87C10.9 37.48 0.91 30.09 0.09 20.2C-0.53 12.8 2.11 6.81 8.76 2.61C11.65 0.78 14.9 -0.09 18.4 0ZM27.8 24.97C27.92 25.67 27.53 26.61 28.64 26.43C29.4 26.31 30.55 27.03 30.85 25.7C31.43 23.1 31.98 20.5 32.54 17.9C32.65 17.41 32.52 17.16 31.9 17.17C30.01 17.2 28.12 17.19 26.24 17.17C25.74 17.17 25.41 17.35 25.35 17.82C25.26 18.65 24.61 19.54 25.05 20.25C25.37 20.76 26.37 20.41 27.07 20.43C27.74 20.44 27.94 20.65 27.64 21.23C27.03 22.42 26.02 23.03 24.63 23.13C23.18 23.23 21.88 23.01 21.06 21.74C19.49 19.32 21.14 14.3 23.87 13.13C25.86 12.27 27.61 12.86 28.46 14.74C28.68 15.21 28.96 15.34 29.42 15.29C30.52 15.17 31.67 15.59 32.7 15C32.82 14.93 32.78 14.59 32.77 14.37C32.68 12.15 31.34 10.32 29.06 9.67C25.39 8.63 21.97 8.97 19.09 11.63C18.94 11.77 18.8 11.99 18.45 11.79C18.55 11.3 18.65 10.79 18.78 10.28C18.91 9.78 18.78 9.52 18.19 9.52C13.75 9.52 9.32 9.52 4.88 9.52C4.21 9.52 4.12 9.99 4.09 10.42C4.04 11.36 3.36 12.26 3.83 13.22C3.89 13.34 4.36 13.29 4.64 13.29C5.63 13.29 6.62 13.32 7.61 13.29C8.4 13.26 8.57 13.51 8.41 14.23C7.71 17.3 7.07 20.38 6.4 23.46C5.74 26.49 5.74 26.45 9.03 26.46C9.97 26.46 10.35 26.2 10.52 25.32C11.1 22.36 11.77 19.42 12.4 16.47C13.1 13.21 13.09 13.23 16.6 13.28C17.44 13.29 17.7 13.36 17.26 14.23C16.17 16.39 15.79 18.7 16.12 21.08C16.46 23.53 17.6 25.55 20.21 26.35C22.81 27.15 25.42 27.15 27.78 24.97" fill="#A90210"/>
</svg>
