<svg width="48" height="41" viewBox="0 0 48 41" fill="none" xmlns="http://www.w3.org/2000/svg">
<path d="M34.3247 13.4017C34.3247 12.0183 35.7729 11.3483 37.9992 11.3483C40.2256 11.3483 41.5225 12.1696 41.5225 14.0501C41.5193 14.155 41.538 14.2595 41.5773 14.3567C41.6167 14.454 41.6759 14.5421 41.7511 14.6152C41.8263 14.6884 41.9159 14.7452 42.0142 14.7818C42.1126 14.8185 42.2175 14.8343 42.3222 14.8283L46.8182 14.5689C46.9907 14.5616 47.1556 14.4954 47.2854 14.3813C47.4152 14.2673 47.502 14.1123 47.5314 13.9421C47.579 13.6128 47.6006 13.2804 47.5963 12.9478C47.5963 9.1652 43.6624 6.44166 38.0208 6.44166H23.8846C18.697 6.48489 14.374 9.6623 13.5743 13.6827C13.5743 13.7475 13.5526 13.8124 13.5526 13.8772C13.5526 13.9421 13.531 14.0069 13.5094 14.0718C13.4878 14.1366 13.4446 14.6986 13.4446 15.0012C13.4446 17.0763 14.374 19 15.8654 20.4914C15.1147 20.8891 14.4567 21.4416 13.9351 22.1122C13.4135 22.7829 13.04 23.5565 12.8393 24.3821C12.248 24.1106 11.7276 23.7058 11.3189 23.1996C10.9101 22.6933 10.6241 22.0993 10.4833 21.4641C10.4032 21.0509 10.3598 20.6313 10.3536 20.2104V11.3483H13.2068C14.3524 9.1868 16.4491 7.4143 19.0861 6.46328H10.3536V0.605607C10.3537 0.524277 10.3373 0.443767 10.3056 0.368887C10.2738 0.294017 10.2273 0.226317 10.1688 0.169817C10.1103 0.113327 10.041 0.0692074 9.96501 0.0400974C9.88907 0.0109874 9.80804 -0.00252264 9.72676 0.00038736L4.43108 0.194917C4.27434 0.200517 4.1259 0.266747 4.01703 0.379647C3.90817 0.492547 3.84738 0.643297 3.84748 0.800137V6.46328H0.605221C0.446419 6.46866 0.29559 6.5342 0.183236 6.6465C0.0708813 6.7589 0.00538768 6.9097 0 7.0685V10.743C0 10.9036 0.0637641 11.0575 0.177265 11.171C0.290766 11.2845 0.444706 11.3483 0.605221 11.3483L3.82586 11.2402V20.3401C3.82586 21.0966 3.89071 22.9771 3.89071 23.2365C3.89071 25.1283 4.64221 26.9426 5.9799 28.2803C7.31759 29.618 9.13188 30.3695 11.0237 30.3695H14.8063C14.3839 31.4898 14.2392 32.6958 14.3844 33.8843C14.5297 35.0728 14.9606 36.2084 15.6403 37.1941C16.3201 38.1797 17.2285 38.9861 18.2878 39.5442C19.3471 40.1023 20.5258 40.3955 21.7231 40.3989H29.1371C31.0313 40.2965 32.8143 39.4718 34.119 38.0947C35.4237 36.7176 36.1508 34.8927 36.1508 32.9957C36.1508 31.0987 35.4237 29.2738 34.119 27.8967C32.8143 26.5196 31.0313 25.695 29.1371 25.5926H19.3887L19.1509 25.5493C18.8033 25.4977 18.4858 25.3232 18.2558 25.0575C18.0258 24.7918 17.8986 24.4525 17.8973 24.1011C17.8961 23.7535 18.0164 23.4163 18.2374 23.1479C18.4584 22.8795 18.7663 22.6968 19.1077 22.6313C20.6382 23.283 22.286 23.6141 23.9495 23.604C27.5376 23.604 30.715 22.1342 32.5955 19.8646C36.3565 21.4209 41.0902 21.5073 41.0902 23.7553C41.0902 24.9009 40.3985 25.5926 38.0208 25.5926H33.3304C35.1481 26.6366 36.5062 28.3265 37.1346 30.3263C43.4894 30.3046 48.0502 27.5595 47.9854 23.3662C47.9421 14.396 34.3247 18.0922 34.3247 13.4017ZM23.9495 18.6974C21.6799 18.6974 19.821 17.0546 19.821 15.0228C19.821 12.991 21.6799 11.3483 23.9495 11.3483C26.219 11.3483 28.0563 12.991 28.0563 15.0228C28.0563 17.0546 26.219 18.6974 23.9495 18.6974Z" fill="white"/>
<path fill-rule="evenodd" clip-rule="evenodd" d="M17.1839 28.7266H32.6602C32.7512 28.7282 32.8402 28.7527 32.9191 28.7979C32.998 28.8431 33.0642 28.9075 33.1116 28.9851C33.1591 29.0627 33.1861 29.151 33.1904 29.2418C33.1946 29.3326 33.1758 29.4231 33.1358 29.5047L28.575 38.6911C28.5383 38.7627 28.4861 38.8251 28.4222 38.8739C28.3582 38.9227 28.2842 38.9567 28.2055 38.9732C28.1268 38.9898 28.0454 38.9886 27.9672 38.9697C27.889 38.9508 27.8161 38.9147 27.7536 38.864L16.838 29.656C16.762 29.583 16.709 29.4894 16.6855 29.3866C16.662 29.2839 16.6691 29.1765 16.7058 29.0777C16.7426 28.979 16.8074 28.8931 16.8924 28.8307C16.9773 28.7683 17.0786 28.7321 17.1839 28.7266Z" fill="#FCBF00"/>
</svg>
