<svg width="443" height="780" viewBox="0 0 443 780" fill="none" xmlns="http://www.w3.org/2000/svg">
<path d="M10.9051 0.305095C4.38493 0.343232 0.838856 0.533917 0.495688 0.800875C0.11439 1.14411 0 4.38574 0 17.3523V33.4461L1.18203 33.713C1.83023 33.8274 7.05402 33.9418 12.7735 33.9418H23.1448L23.3736 94.0838C23.5261 127.148 23.6405 175.125 23.6405 200.676V247.127H67.4898V158.154C67.4898 109.262 67.6042 61.3623 67.7567 51.7518L67.9855 34.3232H91.1303V0.0762738L55.9746 0.114411C36.6046 0.152548 16.3196 0.228821 10.9051 0.305095Z" fill="white"/>
<path d="M96.4685 247.127H140.318L140.508 138.628L147.105 138.513L153.663 138.437V247.127H197.513V0H153.663V104.495L147.105 104.419L140.508 104.304L140.318 0H96.4685V247.127Z" fill="white"/>
<path d="M203.995 247.127H280.254V213.185H247.844V138.437H277.204V104.495H247.844L247.92 69.2948L248.035 34.1325L264.164 34.0181L280.254 33.9418V0H203.995V247.127Z" fill="white"/>
<path d="M244.603 259.75C227.635 260.628 218.98 268.369 215.967 285.264C215.434 288.315 215.281 292.548 215.167 312.341C215.052 325.232 215.167 339.914 215.395 344.948C215.7 353.186 215.853 354.406 216.768 357.305C218.217 361.881 220.352 366.343 223.174 370.614C227.826 377.746 231.715 381.903 245.556 394.526C256.957 404.938 262.867 410.925 265.498 414.586C268.015 418.133 270.302 423.129 270.76 426.027C270.989 427.515 271.103 437.774 271.027 452.304C270.913 475.338 270.874 476.177 270.15 477.436C269.159 479.152 267.176 480.144 264.888 480.144C262.829 480.144 261.456 479.534 260.084 478.122C259.321 477.283 259.169 476.559 258.863 473.012C258.711 470.762 258.558 458.139 258.558 444.943L258.52 421.031H216.577V446.469C216.616 477.169 216.883 484.606 218.217 489.716C221.267 501.386 226.377 507.183 236.748 510.653C239.951 511.721 241.133 511.912 247.234 512.255C251.199 512.484 261.533 512.56 271.484 512.407C291.312 512.179 292.036 512.102 298.557 508.861C304.657 505.886 308.661 501.043 311.101 493.682C313.542 486.36 313.542 486.474 313.58 449.062C313.618 417.981 313.58 414.853 312.932 411.993C311.406 404.9 308.852 398.798 304.772 392.658C301.569 387.776 291.045 377.136 281.398 368.975C277.738 365.847 272.323 360.89 269.349 357.953C263.592 352.156 261.151 348.762 259.626 344.376C258.749 341.936 258.749 341.669 258.597 319.282C258.482 302.197 258.558 296.362 258.902 295.523C259.588 293.921 262.066 291.824 263.63 291.519C266.642 290.985 269.159 292.243 270.379 294.951C271.027 296.4 271.103 297.964 271.103 320.045V343.614H312.398L312.169 315.659C311.94 285.951 311.902 285.569 309.957 279.544C307.327 271.382 303.361 266.424 296.993 263.373C291.846 260.856 288.452 260.094 281.017 259.712C273.658 259.293 252.267 259.331 244.603 259.75Z" fill="white"/>
<path d="M132.501 262.763L125.638 262.954L125.333 265.052C125.18 266.196 123.388 283.548 121.367 303.57C116.067 356.847 115.877 358.716 111.911 399.484C109.89 420.04 107.297 446.278 106.115 457.834C104.971 469.351 103.866 481.135 103.675 483.957C103.484 486.779 102.951 491.661 102.531 494.826C101.616 501.958 101.044 507.03 101.044 508.632V509.89H143.292L143.521 507.679C143.673 506.496 144.36 497.267 145.084 487.199C145.847 477.131 146.762 464.393 147.181 458.863C147.601 453.372 147.944 448.681 147.944 448.49C147.944 448.261 151.719 448.109 158.048 448.109C163.615 448.109 168.153 448.223 168.153 448.376C168.153 449.482 172.804 509.051 172.919 509.395C173.033 509.776 177.647 509.89 194.119 509.89H215.167L214.938 508.06C214.671 506.077 208.075 436.362 205.52 409.018C204.681 399.56 203.537 388.081 203.041 383.467C202.546 378.852 202.05 373.437 201.897 371.454C201.745 369.47 200.982 361.118 200.144 352.957C199.343 344.758 197.017 321.189 195.034 300.595C193.051 279.963 191.297 262.916 191.183 262.725C190.992 262.382 144.817 262.382 132.501 262.763ZM158.963 324.736C159.383 330.609 159.84 337.207 159.955 339.418C160.069 341.63 161.365 358.945 162.814 377.937C164.301 396.929 165.484 412.68 165.484 412.908C165.484 413.29 163.691 413.404 157.858 413.404H150.27L150.422 412.336C150.727 410.429 151.414 400.514 151.375 398.073C151.375 396.738 151.528 394.564 151.757 393.192C152.062 390.98 154.54 358.334 156.714 327.596C157.476 316.498 157.896 312.379 158.124 313.485C158.163 313.79 158.544 318.863 158.963 324.736Z" fill="white"/>
<path d="M22.8398 314.706C22.8016 343.308 22.7254 367.106 22.6491 367.64C22.4203 369.394 22.9923 509.09 23.2211 509.471C23.3736 509.7 36.9478 509.89 60.7408 509.967L97.9937 510.081V475.949H66.5366L66.8035 262.763H22.8779L22.8398 314.706Z" fill="white"/>
<path d="M316.478 296.705L328.222 296.781L339.928 296.896L340.118 509.89H383.967V296.705H407.608V262.763H316.478V296.705Z" fill="white"/>
<path d="M372.109 526.709C360.289 527.967 352.854 532.429 348.736 540.781C344.579 549.286 344.16 553.9 344.427 592.266C344.579 618.657 344.617 619.648 345.38 622.509C347.859 631.585 352.815 639.823 360.899 648.251C363.225 650.692 369.288 656.489 374.435 661.218C389.916 675.443 395.483 681.85 398.457 688.981C400.211 693.253 400.516 698.516 400.211 722.847C399.944 745.119 400.02 744.471 397.122 746.149C394.072 747.979 390.716 747.14 388.657 744.089L387.78 742.793V723.686C387.78 713.16 387.666 700.842 387.514 696.304L387.285 687.99H345.342L345.571 718.232C345.876 754.577 346.028 756.026 349.956 764.264C351.405 767.353 352.129 768.382 354.951 771.128C359.831 776.01 364.445 778.107 372.529 779.137C376.151 779.595 405.473 779.862 413.137 779.48C420.763 779.099 428.007 776.925 430.982 774.103C431.744 773.416 433.193 772.082 434.299 771.166C435.367 770.251 436.549 768.954 436.892 768.268C437.235 767.582 438.036 766.132 438.608 765.065C439.218 763.959 439.637 762.776 439.561 762.433C439.485 762.09 439.637 761.594 439.904 761.403C440.628 760.869 441.925 755.53 442.192 752.136C442.306 750.649 442.573 749.39 442.764 749.39C442.954 749.39 443.069 735.432 442.954 715.181C442.802 677.769 442.916 679.79 440.552 672.544C438.836 667.358 436.32 662.858 431.554 656.451C427.092 650.463 422.517 646.115 402.918 629.411C401.393 628.115 398.838 625.712 397.237 623.996C391.479 617.932 388.886 613.623 388.124 608.703C387.514 604.699 387.437 565.075 388.047 563.091C389.611 557.943 396.932 557.218 399.524 561.871C400.096 562.977 400.173 565.189 400.287 586.813L400.401 610.572H441.544V586.279C441.544 563.549 441.277 555.121 440.4 551.841C440.209 551.116 439.866 549.4 439.599 548.027C438.493 541.887 434.375 535.366 429.533 532.01C424.881 528.806 420.076 527.281 412.679 526.671C407.112 526.213 376.38 526.251 372.109 526.709Z" fill="white"/>
<path d="M49.3781 527.205C39.8076 528.73 33.4399 532.696 29.3218 539.828C25.852 545.815 24.8988 550.239 24.4031 563.282C23.9837 573.617 24.0599 744.013 24.4794 749.581C24.8988 755.225 27.0722 762.242 29.8175 766.819C30.5039 767.963 32.2197 769.984 33.5924 771.281C38.6637 775.933 44.1544 778.374 52.3523 779.556C56.4703 780.167 92.1598 780.129 97.2311 779.556C105.505 778.565 111.11 776.467 115 772.959C119.651 768.687 122.13 764.073 123.884 756.255L124.837 751.869L124.99 658.624C125.066 597.453 124.951 563.282 124.723 559.278C124.227 551.994 123.198 547.608 120.643 542.345C119.232 539.447 118.317 538.188 115.8 535.633C113.207 533.04 112.064 532.201 109.051 530.713C105.124 528.806 101.197 527.662 96.3541 527.052C91.7785 526.48 53.2293 526.633 49.3781 527.205ZM76.7935 559.621C77.4798 559.926 78.5475 560.803 79.1575 561.604L80.2633 563.015L80.5302 573.16C80.6446 578.728 80.7971 618.962 80.7971 662.552C80.8353 734.822 80.7971 741.915 80.2252 743.021C77.7467 747.903 72.4086 748.551 69.2438 744.356C68.5193 743.365 68.4812 742.526 68.2143 731.58C67.833 715.486 67.833 569.88 68.2143 566.295C68.6337 562.329 69.6632 560.918 73.0186 559.583C74.582 558.973 75.3064 559.011 76.7935 559.621Z" fill="white"/>
<path d="M236.329 600.351C236.176 696.685 236.291 737.377 236.748 746.072C237.206 754.539 237.968 757.895 240.866 763.882C242.353 766.933 243.116 768.001 245.899 770.747C250.589 775.4 255.546 777.726 263.553 778.985C269.082 779.862 311.33 779.557 314.914 778.603C321.282 776.963 326.353 774.027 329.518 770.213C333.293 765.713 335.848 758.391 336.648 749.772C337.335 742.564 337.525 701.262 337.22 614.767L336.953 529.722H293.333L293.066 615.873C292.913 663.239 292.913 710.948 293.066 721.855L293.333 741.725L292.113 743.632C290.511 746.072 288.223 747.331 285.859 746.95C284.105 746.644 281.589 745.119 280.941 743.899C280.102 742.297 279.911 723.228 279.911 627.619L279.873 529.34H236.405L236.329 600.351Z" fill="white"/>
<path d="M131.548 582.999C131.548 612.136 131.662 667.739 131.815 706.563L132.044 777.23H175.779V729.864C175.779 703.779 175.779 679.409 175.779 675.672V668.921H204.757V635.056L203.918 634.827C203.423 634.674 196.902 634.446 189.429 634.331L175.779 634.102V564.541L183.862 564.312C188.285 564.159 195.606 564.045 200.105 564.045H208.303L208.075 560.307C207.922 558.286 207.808 550.659 207.808 543.337V530.103H131.548V582.999Z" fill="white"/>
</svg>
