<svg width="981" height="466" viewBox="0 0 981 466" fill="none" xmlns="http://www.w3.org/2000/svg">
<path d="M0 0H981V466H0V0Z" fill="#0D469D"/>
<path d="M28 26H953V440H28V26Z" fill="#FFFEFE"/>
<path d="M322.815 154.857H232.128L177.99 390.698H102.548L156.686 154.857H66L78.8994 98.302H335.714L322.815 154.857Z" fill="#0D469D"/>
<path d="M605.624 171.941C605.624 195.375 598.523 215.077 584.32 231.049C570.118 247.02 550.834 259.064 526.469 267.181L593.702 390.698H509.856L455.131 283.48H412.915L388.289 390.698H313.238L380.471 98.302H494.025C529.596 98.302 557.088 104.389 576.502 116.564C595.917 128.609 605.624 147.067 605.624 171.941ZM524.71 184.509C524.71 172.727 520.931 164.413 513.374 159.57C505.947 154.595 494.937 152.108 480.343 152.108H443.209L425.033 230.852H461.972C481.907 230.852 497.347 226.794 508.292 218.677C519.237 210.43 524.71 199.04 524.71 184.509Z" fill="#0D469D"/>
<path d="M733.249 396C708.363 396 686.147 393.84 666.603 389.52C647.188 385.2 630.38 379.832 616.178 373.417L631.227 303.313H639.436C652.856 315.619 668.622 325.176 686.733 331.983C704.845 338.66 724.324 341.998 745.172 341.998C766.54 341.998 782.241 339.118 792.274 333.358C802.307 327.467 807.323 319.088 807.323 308.222C807.323 304.164 806.476 300.695 804.782 297.815C803.219 294.804 800.092 291.858 795.401 288.978C790.71 286.098 784.261 283.283 776.052 280.534C767.973 277.654 757.485 274.381 744.585 270.715C730.383 266.788 717.614 262.533 706.278 257.951C695.072 253.369 685.496 247.936 677.548 241.653C669.599 235.238 663.541 227.841 659.371 219.463C655.332 211.084 653.312 201.069 653.312 189.418C653.312 160.093 666.147 136.725 691.815 119.314C717.614 101.771 752.859 93 797.551 93C819.05 93 839.311 94.7673 858.334 98.302C877.488 101.837 893.71 106.615 907 112.637L892.732 179.992H884.719C874.556 170.566 861.136 162.712 844.458 156.428C827.91 150.013 809.799 146.806 790.124 146.806C770.84 146.806 755.921 149.62 745.367 155.25C734.813 160.879 729.536 168.668 729.536 178.618C729.536 183.2 730.318 186.996 731.881 190.007C733.445 193.018 736.637 195.964 741.458 198.844C745.628 201.462 752.208 204.342 761.198 207.484C770.188 210.495 780.743 213.637 792.86 216.91C825.434 225.681 848.692 235.958 862.634 247.74C876.576 259.522 883.547 275.494 883.547 295.655C883.547 312.542 879.768 327.401 872.211 340.231C864.654 353.06 854.23 363.468 840.94 371.454C826.998 379.963 811.167 386.181 793.446 390.109C775.726 394.036 755.66 396 733.249 396Z" fill="#0D469D"/>
</svg>
