<svg width="397" height="172" viewBox="0 0 397 172" fill="none" xmlns="http://www.w3.org/2000/svg">
<path d="M0 2C0 0.89543 0.895431 0 2 0H86C87.1046 0 88 0.895431 88 2V169C88 170.105 87.1046 171 86 171H47C45.8954 171 45 170.105 45 169V45H2C0.89543 45 0 44.1046 0 43V2Z" fill="white"/>
<path d="M104 2C104 0.895433 104.895 0 106 0H192C193.105 0 194 0.895431 194 2V43C194 44.1046 193.105 45 192 45H150C148.895 45 148 45.8954 148 47V105H155L262.418 0.566011C262.791 0.203057 263.291 0 263.812 0H317.051C318.85 0 319.734 2.18878 318.441 3.43838L145 171H106C104.895 171 104 170.105 104 169V2Z" fill="white"/>
<path d="M335 161H182.921C181.126 161 180.24 158.819 181.526 157.567L215.418 124.567C215.791 124.203 216.292 124 216.813 124H295V121.5L258.433 85.4142C257.643 84.6347 257.639 83.3611 258.424 82.5764L282.605 58.3953C283.378 57.6217 284.63 57.6133 285.414 58.3764L396.395 166.411C396.782 166.788 397 167.304 397 167.844V170C397 171.105 396.105 172 395 172H337C335.895 172 335 171.105 335 170V161Z" fill="white"/>
</svg>
