<svg xmlns="http://www.w3.org/2000/svg" width="150.548" height="40.52" viewBox="0 0 150.548 40.52">
  <g id="Group_5" data-name="Group 5" transform="translate(-245.119 -111.868)">
    <g id="Group_4" data-name="Group 4" transform="translate(245.119 111.868)">
      <g id="Group_2" data-name="Group 2">
        <g id="Group_1" data-name="Group 1">
          <path id="Path_1" data-name="Path 1" d="M418.218-341.235a2.89,2.89,0,0,1,1.3,1.5q4.335,8.3,8.691,16.585c.63,1.2.465,1.705-.746,2.336q-4.228,2.2-8.457,4.4c-1.287.669-2.147.149-2.143-1.3.023-7.207.061-14.414.062-21.621,0-.885.173-1.566,1.063-1.9Z" transform="translate(-393.145 341.235)" fill="#fff"/>
          <path id="Path_2" data-name="Path 2" d="M351.723-261.453a1.783,1.783,0,0,1-1.017,1.509q-4.249,2.645-8.491,5.3-5.168,3.218-10.342,6.426c-.116.072-.233.144-.353.209a1.276,1.276,0,0,1-1.571-.108,1.175,1.175,0,0,1-.14-1.556c.753-1.278,1.534-2.539,2.314-3.8q4.078-6.6,8.163-13.2a5.833,5.833,0,0,1,.358-.535,1.175,1.175,0,0,1,1.732-.388c1.184.639,2.348,1.315,3.518,1.981q2.465,1.406,4.924,2.825C351.316-262.5,351.779-262.158,351.723-261.453Z" transform="translate(-329.583 287.768)" fill="#fff"/>
          <path id="Path_3" data-name="Path 3" d="M428.093-228.2h-9.671c-1.195,0-1.632-.431-1.633-1.615q0-4.868,0-9.736c0-1.379.869-1.9,2.095-1.263q9.678,5.056,19.353,10.118c.507.265,1.016.529,1,1.233a1.045,1.045,0,0,1-1.011,1.134c-.661.054-1.326.083-1.99.085-2.716.009-5.431,0-8.147,0Z" transform="translate(-393.092 268.296)" fill="#fff"/>
        </g>
      </g>
      <g id="Group_3" data-name="Group 3" transform="translate(45.535 0.421)">
        <path id="Path_4" data-name="Path 4" d="M533.657-325.491c0,.729,0,1.262,0,1.8-.029,9.131-.082,18.262-.062,27.392,0,1.29-.342,1.761-1.672,1.691a53.251,53.251,0,0,0-5.96,0c-1.426.085-1.738-.47-1.742-1.789-.028-9.085-.127-18.17-.2-27.255,0-.539,0-1.079,0-1.8H511.634c0-2.015-.147-3.868.04-5.687.2-1.9,1.64-2.912,3.783-2.919,5.376-.017,10.752-.006,16.128-.006q7.861,0,15.721,0c2.407,0,3.3.627,4.112,2.921q4.27,12.05,8.521,24.106c.086.244.225.469.487,1.005.283-.89.461-1.507.673-2.112q4.111-11.749,8.235-23.493a3.337,3.337,0,0,1,3.264-2.409c2.526-.055,5.055-.014,7.792-.014-.2.568-.345,1.019-.521,1.456q-7.395,18.249-14.771,36.506a1.937,1.937,0,0,1-2.184,1.479,50.9,50.9,0,0,0-5.283,0,1.857,1.857,0,0,1-2.111-1.379c-3.779-9.42-7.634-18.81-11.417-28.229a1.662,1.662,0,0,0-1.843-1.294C539.466-325.441,536.67-325.491,533.657-325.491Z" transform="translate(-511.579 334.42)" fill="#fff"/>
        <path id="Path_5" data-name="Path 5" d="M789.481-295.324c-2.9,0-5.692.094-8.475-.04a3.11,3.11,0,0,1-2.663-2.407c-.6-1.7-1.2-3.4-1.756-5.12a1.34,1.34,0,0,0-1.486-1.049q-5.826.048-11.652,0a1.4,1.4,0,0,0-1.582,1.106c-.514,1.632-1.088,3.246-1.673,4.854a3.517,3.517,0,0,1-3.737,2.706c-2.424.026-4.849.006-7.485.006.184-.65.27-1.075.423-1.475q7.139-18.707,14.268-37.417a1.545,1.545,0,0,1,1.746-1.2c2.617.07,5.239.053,7.857.006a1.317,1.317,0,0,1,1.476,1q7.228,19.032,14.506,38.045A8.194,8.194,0,0,1,789.481-295.324ZM764.81-311.286h8.861l-4.233-12.464-.355-.007Z" transform="translate(-684.467 335.361)" fill="#fff"/>
      </g>
    </g>
  </g>
</svg>
