<svg width="1631" height="318" viewBox="0 0 1631 318" fill="none" xmlns="http://www.w3.org/2000/svg">
<path d="M1429.9 206.4C1429.9 227 1422.5 243.9 1407.8 257C1393.1 270.1 1376 276.7 1356.7 276.7C1337.4 276.7 1320.4 270.1 1305.6 257C1290.9 243.9 1283.5 227 1283.5 206.4V151.8C1283.5 131.2 1290.9 114.3 1305.6 101.2C1320.3 88.1 1337.4 81.5 1356.7 81.5C1376 81.5 1393 88.1 1407.8 101.2C1422.5 114.3 1429.9 131.2 1429.9 151.8V206.4ZM1329.3 206.4C1329.3 214.3 1332 220.9 1337.3 226.5C1342.6 232 1349.1 234.7 1356.7 234.7C1364.3 234.7 1370.5 232 1375.9 226.5C1381.3 221 1384.1 214.4 1384.1 206.4V151.8C1384.1 143.9 1381.4 137.3 1376.1 131.7C1370.8 126.2 1364.3 123.5 1356.7 123.5C1349.1 123.5 1342.6 126.2 1337.3 131.7C1332 137.2 1329.3 143.8 1329.3 151.8V206.4Z" fill="white"/>
<path d="M1216.1 253C1216.1 258.9 1213.9 263.9 1209.6 268C1205.3 272.2 1199.8 274.3 1193.2 274.3C1186.6 274.3 1181.2 272.2 1176.9 268.2C1172.6 264.1 1170.4 259 1170.4 253V125.1H1149.4C1145.3 125.1 1141.8 123.5 1138.7 120.2C1135.6 116.9 1134.1 112.7 1134.1 107.6C1134.1 102.5 1135.6 98.2 1138.7 94.6C1141.8 91 1145.2 89 1149 88.5L1170 85.4H1170.4V69.3C1170.4 49.7 1177 33.7 1190.3 21.2C1203.5 8.69999 1219.9 2.59999 1239.5 2.59999C1259.1 2.59999 1250.6 2.69999 1252.7 4.09999C1259.7 8.79999 1259.5 19.8 1259.4 22.5C1259.4 24.8 1259.1 32 1254.2 37.2C1250.8 40.9 1246.2 42.8 1240.3 42.8C1234.4 42.8 1227.4 45.3 1222.9 50C1218.5 54.8 1216.2 61.3 1216.2 69.5V84.7H1241.7C1246.9 84.7 1251.1 86.7 1254.7 90.5C1258.3 94.3 1260 99.3 1260 105.4C1260 111.5 1258.3 115.7 1254.7 119.5C1251.1 123.3 1246.8 125.3 1241.7 125.3H1216.2V253.2V253H1216.1Z" fill="white"/>
<path d="M962.6 101.9C962.6 96.5 964.6 92.2 968.4 88.9C972.2 85.6 976.7 84 982.1 84C987.5 84 992 86.3 996.6 90.7C1001.2 95.1 1004.7 97.4 1007.3 97.4C1009.9 97.4 1014.9 94.8 1024.1 89.6C1033.3 84.3 1042.1 81.8 1050.7 81.8C1066.4 81.8 1080 88.2 1091.3 100.8C1102.6 113.6 1108.3 129.9 1108.3 150V253.1C1108.3 259 1106.1 264 1101.8 268.1C1097.5 272.3 1092 274.4 1085.4 274.4C1078.8 274.4 1073.4 272.3 1069.1 268.3C1064.8 264.2 1062.6 259.1 1062.6 253.1V150.9C1062.6 142.8 1060 136.2 1054.8 131.2C1049.6 126.3 1043.2 123.8 1035.6 123.8C1028 123.8 1021.2 126.3 1016.2 131C1011.1 135.8 1008.6 142.4 1008.6 150.9V253.1C1008.6 259 1006.4 264 1002.1 268.1C997.8 272.3 992.3 274.4 985.7 274.4C979.1 274.4 973.7 272.3 969.3 268.3C965 264.3 962.8 259.1 962.8 253.1V101.9H962.6Z" fill="white"/>
<path d="M870.8 7.99999C875.9 3.19999 882.1 0.799988 889.4 0.799988C896.7 0.799988 902.7 3.29999 907.9 7.99999C913.1 12.8 915.7 19 915.7 26.6C915.7 34.2 913.1 40.5 907.9 45.2C902.7 50 896.5 52.4 889.4 52.4C882.3 52.4 875.8 49.9 870.8 45.2C865.7 40.4 863.2 34.2 863.2 26.6C863.2 19 865.8 12.7 870.8 7.99999ZM912.3 253C912.3 258.9 910.1 263.9 905.8 268C901.5 272.2 896 274.3 889.4 274.3C882.8 274.3 877.4 272.2 873 268.2C868.7 264.1 866.5 259 866.5 253V105.3C866.5 99.2 868.7 94.1 873 90.1C877.3 86 882.8 84 889.4 84C896 84 901.4 86.1 905.8 90.3C910.1 94.5 912.3 99.6 912.3 105.3V253Z" fill="white"/>
<path d="M758.3 252.3C758.3 258.7 756 263.9 751.6 268.2C747.2 272.4 741.5 274.5 734.6 274.5C727.7 274.5 722.1 272.4 717.6 268.2C713.2 264 710.9 258.7 710.9 252.3V35.5C710.9 29.1 713.2 23.9 717.6 19.6C722 15.4 727.7 13.3 734.6 13.3C741.5 13.3 747.1 15.4 751.6 19.6C756 23.8 758.3 29.1 758.3 35.5V252.3Z" fill="#BA2324"/>
<path d="M1477.9 317.8C1472.6 317.8 1468 315.8 1464.4 311.9C1460.7 308 1458.9 303 1458.9 297.2C1458.9 291.4 1460.7 286.2 1464.4 282.3C1468.1 278.4 1472.6 276.5 1477.9 276.5H1612C1617.5 276.5 1622.2 278.5 1625.7 282.3C1629.2 286.1 1631 291.1 1631 297.2C1631 303.3 1629.3 307.9 1625.7 311.9C1622.1 315.8 1617.6 317.8 1612 317.8H1477.9Z" fill="#BA2324"/>
<path d="M114.1 252.3C114.1 258.7 111.8 263.9 107.4 268.2C103 272.4 97.3002 274.5 90.4002 274.5C83.5002 274.5 77.9002 272.4 73.4002 268.2C69.0002 264 66.7002 258.7 66.7002 252.3V56.9H20.6002C15.0002 56.9 10.3002 54.8 6.5002 50.8C2.7002 46.8 0.700195 41.6 0.700195 35.6C0.700195 29.6 2.7002 24.4 6.5002 20.4C10.3002 16.3 15.0002 14.3 20.6002 14.3H160.1C166.2 14.3 171 16.4 174.6 20.4C178.2 24.4 179.9 29.6 179.9 35.6C179.9 41.6 178.2 46.8 174.6 50.8C171 54.8 166.3 56.9 160.1 56.9H114V252.2H114.1V252.3Z" fill="white"/>
<path d="M288.5 268.1C282.9 263.4 279.1 257.6 277.1 250.7L213.8 41.2C213.1 38.1 212.7 35.8 212.7 34.3C212.7 27.9 215.2 22.9 219.9 19.1C224.7 15.3 230.7 13.3 237.8 13.3C244.9 13.3 247.4 14.8 251.3 17.9C255.2 21 257.9 24.9 259.1 29.7L299.5 178.9L308.2 219.8L316.9 178.9L357.3 29.7C358.5 24.9 361.2 20.9 365.1 17.9C369 14.8 373.5 13.3 378.6 13.3C383.7 13.3 391.7 15.3 396.5 19.1C401.3 22.9 403.7 28 403.7 34.3C403.7 40.6 403.3 38.1 402.6 41.2L339.3 250.7C337.2 257.6 333.4 263.4 327.9 268.1C322.3 272.8 315.7 275.2 308 275.2C300.3 275.2 293.8 272.8 288.1 268.1H288.5Z" fill="white"/>
<path d="M497.2 252.3C497.2 258.7 494.9 263.9 490.5 268.2C486.1 272.4 480.4 274.5 473.5 274.5C466.6 274.5 461 272.4 456.5 268.2C452.1 264 449.8 258.7 449.8 252.3V35.5C449.8 29.1 451.9 24 455.9 20.1C460 16.2 465.1 14.2 471.1 14.2H525.2C550.1 14.2 570.6 21.8 586.6 37.1C602.6 52.3 610.6 72.7 610.6 98.2C610.6 123.7 602.8 143.9 587.1 159.1C571.5 174.2 550.8 181.9 525.2 181.9H497V252.5H497.1L497.2 252.3ZM553.2 68.7C546.3 60.8 537.1 56.9 525.3 56.9H497.1V139H525.3C537.5 139 546.9 135.1 553.5 127.4C560.1 119.7 563.4 109.9 563.4 98.3C563.4 86.7 560 76.8 553.1 69H553.2V68.7Z" fill="white"/>
</svg>
