<svg width="3648" height="1050" viewBox="0 0 3648 1050" fill="none" xmlns="http://www.w3.org/2000/svg">
<path d="M2006.5 523.607C1985.26 532.649 1962.89 539.696 1939.71 544.632C1939.03 544.781 1938.37 544.997 1937.7 545.13C1927.31 547.274 1916.7 548.803 1906 550.05C1904.37 550.233 1902.82 550.598 1901.19 550.748C1889.02 551.994 1876.66 552.659 1864.13 552.659C1864.09 552.659 1864.08 552.659 1864.04 552.659C1862.95 552.659 1861.9 552.51 1860.81 552.51C1849.8 552.41 1838.87 551.978 1828.12 550.914C1818.53 549.983 1809.12 548.421 1799.77 546.759C1797.61 546.377 1795.4 546.227 1793.25 545.812C1781.9 543.585 1770.75 540.826 1759.8 537.568C1759.75 537.568 1759.68 537.552 1759.63 537.535C1748.88 534.327 1738.37 530.621 1728.08 526.483C1727.82 526.383 1727.6 526.233 1727.36 526.134V1035.4H2006.5L2006.5 523.607Z" fill="white"/>
<path d="M499.724 1026.27V934.341C467.813 975.875 431.58 1005.51 390.991 1023.32C350.367 1041.09 305.871 1050 257.589 1050C175.322 1050 111.845 1026.05 67.0898 978.085C22.3691 930.153 0 860.183 0 768.257V247.785H279.198V725.278C279.198 765.848 286.907 793.271 302.31 807.597C317.712 821.924 339.321 829.07 367.066 829.07C402.019 829.07 431.874 817.735 456.542 794.983C466.81 784.096 475.298 771.748 481.988 757.903C488.643 744.059 491.979 724.298 491.979 698.603V247.785H771.125V1026.28H499.724V1026.27Z" fill="white"/>
<path d="M3386.81 1026.27V941.737C3353.88 975.376 3318.16 1001.3 3279.58 1019.6C3241.07 1037.85 3195.01 1047.02 3141.55 1047.02C3105.54 1047.02 3071.1 1042.57 3038.22 1033.66C3005.29 1024.75 2976.27 1010.69 2951.08 991.431C2925.86 972.169 2905.82 947.92 2890.96 918.768C2876.01 889.617 2868.57 854.266 2868.57 812.733C2868.57 765.283 2878.56 725.527 2898.65 693.384C2918.69 661.291 2946.15 635.048 2981.16 614.822C3016.11 594.545 3057.24 579.72 3104.52 570.33C3151.8 560.939 3202.71 554.773 3257.23 551.765L3379.03 545.865V514.736C3379.03 476.161 3369.26 449.486 3349.73 434.661C3330.2 419.802 3305.53 412.39 3275.71 412.39C3211.95 412.39 3175.46 438.101 3166.2 489.507L2914.83 470.244C2929.23 387.177 2967.75 325.45 3030.5 284.864C3093.2 244.345 3179.08 224.068 3288.05 224.068C3355.92 224.068 3412.74 231.747 3458.46 247.037C3504.24 262.378 3541.01 283.9 3568.75 311.573C3596.5 339.262 3616.53 372.635 3628.88 411.659C3641.25 450.716 3647.41 494.459 3647.41 542.923V1026.3H3386.78L3386.81 1026.27ZM3377.54 697.074L3288.07 701.528C3229.47 704.487 3189.6 713.91 3168.57 729.699C3147.48 745.521 3136.97 766.296 3136.97 791.958C3136.97 817.619 3144.9 835.968 3160.86 846.854C3176.78 857.74 3199.15 863.174 3227.95 863.174C3271.09 863.174 3306.82 851.54 3335.12 828.306C3363.37 805.121 3377.54 770.285 3377.54 723.766V697.091V697.074Z" fill="white"/>
<path d="M499.724 1026.27V934.341C467.813 975.875 431.58 1005.51 390.991 1023.32C350.367 1041.09 305.871 1050 257.589 1050C175.322 1050 111.845 1026.05 67.0898 978.085C22.3691 930.153 0 860.183 0 768.257V247.785H279.198V725.278C279.198 765.848 286.907 793.271 302.31 807.597C317.712 821.924 339.321 829.07 367.066 829.07C402.019 829.07 431.874 817.735 456.542 794.983C466.81 784.096 475.298 771.748 481.988 757.903C488.643 744.059 491.979 724.298 491.979 698.603V247.785H771.125V1026.28H499.724V1026.27Z" fill="white"/>
<path d="M1135 252.717V344.676C1167.88 303.192 1208.24 273.492 1248.88 255.726C1289.47 237.909 1351.34 255.726 1400.69 255.726C1417.94 283.558 1435.27 333.246 1481.03 380.231C1526.79 427.215 1543.25 449.98 1610.17 484.101V1031.22L1363.25 1031.23V553.772C1363.25 513.253 1355.27 485.83 1339.31 471.503C1323.39 457.177 1301.02 449.98 1272.26 449.98C1235.2 449.98 1204.39 461.349 1179.7 484.101C1168.38 494.987 1159.39 507.336 1152.69 521.131C1146 535.025 1142.69 554.77 1142.69 580.431V1031.22H863.548V252.717H1135Z" fill="white"/>
<path d="M2856.3 726.757C2851.11 774.208 2840.34 817.935 2823.92 857.972C2807.46 898.01 2783.8 932.098 2752.98 960.269C2722.12 988.439 2683.81 1010.49 2638.05 1026.27C2592.28 1042.06 2538.59 1049.98 2476.91 1049.98C2406.97 1049.98 2346.29 1039.85 2294.93 1019.6C2243.47 999.326 2201.6 971.637 2169.22 936.535C2136.79 901.484 2112.4 858.72 2095.94 808.279C2079.49 757.887 2071.27 703.024 2071.27 643.691C2071.27 578.474 2064.47 540.131 2083 488.227C2129.43 457.846 2201.56 427.115 2236.5 391C2271.45 354.935 2294.93 276.5 2309 247.021C2360.41 227.758 2418.79 224.052 2484.6 224.052C2544.22 224.052 2595.63 231.73 2638.83 247.021C2682.03 262.361 2718.26 283.136 2747.57 309.346C2776.87 335.539 2799.75 366.452 2816.18 402.019C2832.63 437.602 2842.92 475.164 2847.03 514.719L2580.21 539.899C2576.08 512.26 2566.31 488.26 2550.91 467.984C2535.51 447.741 2510.82 437.602 2476.89 437.602C2434.69 437.602 2403.61 454.438 2383.56 488.227C2363.52 521.949 2353.48 572.042 2353.48 638.538C2353.48 701.013 2363.02 749.643 2382.06 784.396C2401.04 819.132 2432.69 836.466 2476.89 836.466C2541.65 836.466 2578.16 799.919 2586.4 726.774H2856.28L2856.3 726.757Z" fill="white"/>
<path d="M3386.81 1026.27V941.737C3353.88 975.376 3318.16 1001.3 3279.58 1019.6C3241.07 1037.85 3195.01 1047.02 3141.55 1047.02C3105.54 1047.02 3071.1 1042.57 3038.22 1033.66C3005.29 1024.75 2976.27 1010.69 2951.08 991.431C2925.86 972.169 2905.82 947.92 2890.96 918.768C2876.01 889.617 2868.57 854.266 2868.57 812.733C2868.57 765.283 2878.56 725.527 2898.65 693.384C2918.69 661.291 2946.15 635.048 2981.16 614.822C3016.11 594.545 3057.24 579.72 3104.52 570.33C3151.8 560.939 3202.71 554.773 3257.23 551.765L3379.03 545.865V514.736C3379.03 476.161 3369.26 449.486 3349.73 434.661C3330.2 419.802 3305.53 412.39 3275.71 412.39C3211.95 412.39 3175.46 438.101 3166.2 489.507L2914.83 470.244C2929.23 387.177 2967.75 325.45 3030.5 284.864C3093.2 244.345 3179.08 224.068 3288.05 224.068C3355.92 224.068 3412.74 231.747 3458.46 247.037C3504.24 262.378 3541.01 283.9 3568.75 311.573C3596.5 339.262 3616.53 372.635 3628.88 411.659C3641.25 450.716 3647.41 494.459 3647.41 542.923V1026.3H3386.78L3386.81 1026.27ZM3377.54 697.074L3288.07 701.528C3229.47 704.487 3189.6 713.91 3168.57 729.699C3147.48 745.521 3136.97 766.296 3136.97 791.958C3136.97 817.619 3144.9 835.968 3160.86 846.854C3176.78 857.74 3199.15 863.174 3227.95 863.174C3271.09 863.174 3306.82 851.54 3335.12 828.306C3363.37 805.121 3377.54 770.285 3377.54 723.766V697.091V697.074Z" fill="white"/>
<path d="M1866.94 0C1756.51 0 1667 86.0584 1667 192.227C1667 298.396 1756.51 384.454 1866.94 384.454C1977.37 384.454 2066.86 298.396 2066.86 192.227C2066.86 86.0584 1977.37 0 1866.94 0ZM1859.71 154.832H1818.4V261.034H1779.92V154.832H1738.64V123.437H1859.71V154.832ZM1952.71 261.017H1909.43L1861.09 123.42H1902.38L1931.47 217.273L1960.55 123.42H2001.05L1952.71 261.017Z" fill="white"/>
</svg>
