<svg width="48" height="49" viewBox="0 0 48 49" fill="none" xmlns="http://www.w3.org/2000/svg">
<path fill-rule="evenodd" clip-rule="evenodd" d="M30.5056 41.2039C33.5672 39.8755 35.7392 38.5533 37.0207 37.2375C38.3016 35.9223 39.1497 34.3658 39.5648 32.5704H31.9236C31.916 32.5704 31.911 32.5647 31.9122 32.5571L34.1707 18.6716C34.2605 18.118 34.7919 17.665 35.3518 17.665H47.9012C44.9419 7.47233 35.5471 0 24.4378 0C10.9626 0 0 10.9903 0 24.5C0 33.7741 5.16662 41.8603 12.7655 46.0193L10.9854 41.2039C14.0477 39.8755 16.2196 38.5533 17.5005 37.2375C18.7821 35.9223 19.6301 34.3658 20.0447 32.5704H12.3902L14.6487 18.6849C14.7397 18.1237 15.2781 17.665 15.8449 17.665H30.8234L28.8126 30.0249C28.0727 34.5755 26.5428 38.1732 24.2236 40.8162C22.1623 43.1666 19.0804 45.2578 14.9899 47.0937C17.898 48.3202 21.0899 49 24.4378 49C27.387 49 30.2161 48.4735 32.8361 47.5087L30.5056 41.2039Z" fill="white"/>
</svg>
