<?xml version="1.0" encoding="utf-8"?>
<!-- Generator: Adobe Illustrator 23.0.1, SVG Export Plug-In . SVG Version: 6.00 Build 0)  -->
<svg version="1.1" id="svg8" xmlns:svg="http://www.w3.org/2000/svg"
	 xmlns="http://www.w3.org/2000/svg" xmlns:xlink="http://www.w3.org/1999/xlink" x="0px" y="0px" width="289.066px"
	 height="290.417px" viewBox="0 0 289.066 290.417" enable-background="new 0 0 289.066 290.417" xml:space="preserve">
<g>
	<linearGradient id="SVGID_1_" gradientUnits="userSpaceOnUse" x1="28.0473" y1="195.4334" x2="241.1449" y2="72.4014">
		<stop  offset="0" style="stop-color:#FCA404"/>
		<stop  offset="1" style="stop-color:#F9C902"/>
	</linearGradient>
	<path fill="url(#SVGID_1_)" d="M236.726,130.568c28.908,0,52.34,23.432,52.34,52.322c0,28.908-23.432,52.34-52.34,52.34
		c-17.973,0-33.823-9.086-43.235-22.887c-19.315,30.559-45.049,56.765-75.282,76.859c-0.907,0.617-1.813,1.215-2.43,1.215
		c-0.598,0-1.505-0.598-2.412-1.215C45.466,244.044,0,168.255,0,80.967c0-10.011,0.907-20.004,2.72-29.398
		c0.308-1.215,0.599-1.669,1.215-1.832l21.817-5.749l3.029-12.441c0.163-0.598,0.308-1.052,0.925-1.197l22.416-6.075l2.739-11.825
		c0.145-0.907,0.599-1.36,1.215-1.505l58.27-10.809c0.943-0.182,1.922-0.182,2.884,0l58.27,10.809
		c0.599,0.145,1.052,0.598,1.215,1.505l2.721,11.825l22.434,6.075c0.617,0.145,0.762,0.599,0.907,1.197l3.029,12.441l21.835,5.749
		c0.599,0.163,0.907,0.617,1.215,1.832c1.814,9.394,2.72,19.387,2.72,29.398c0,17.41-1.886,34.313-5.314,50.653
		C229.653,130.931,233.153,130.568,236.726,130.568"/>
	<path d="M107.309,36.009c0-0.598-0.308-0.907-0.925-0.907c-5.441,0.599-9.993,1.505-15.143,2.721
		c-1.215,0.308-1.523,0.907-1.523,2.122l0.617,108.796c0,13.638,0,24.846,0.599,37.577c0,0.907-0.907,1.215-1.215,0.308
		C78.51,151.769,73.359,108.134,74.266,45.095c0-1.215-0.308-1.505-1.813-0.907c-5.15,2.122-11.208,5.459-14.545,7.581
		c-0.907,0.599-1.215,1.215-1.215,2.72c-0.907,43.345,2.72,80.922,9.086,109.105l-3.337,2.122c-1.197,0.907-2.122,0.907-3.029-0.907
		c-10.609-23.649-17.265-59.703-17.265-98.495c0-1.523-0.907-2.122-1.813-1.215c-4.552,4.243-9.394,9.086-13.348,13.946
		c-1.215,1.505-1.505,2.43-1.505,3.936c0.907,31.52,10.9,76.37,26.369,103.646c1.814,3.337,4.226,4.244,7.272,2.122l11.516-7.272
		c7.563,25.462,18.789,48.785,35.455,67.882c0.599,0.598,1.215,0.308,1.215-0.308V36.009z"/>
	<path d="M181.249,106.92c6.656-7.272,10.61-17.265,10.61-27.567c0-24.555-26.061-41.531-66.685-44.251
		c-0.599,0-0.907,0.309-0.907,0.907v213.041c0,0.617,0.617,0.907,1.215,0.308c29.035-26.859,47.715-50.164,59.086-69.714
		c0.762-12.205,5.677-23.268,13.402-31.792c1.197-5.114,1.759-9.793,1.759-13.964C199.729,120.557,194.579,110.565,181.249,106.92z
		 M141.546,55.095c18.48,1.215,32.427,11.226,32.427,23.341c0,12.732-9.086,26.37-32.427,40.008V55.095z M141.551,207.535v-68.48
		c17.882-12.732,23.631-15.162,29.997-15.162c5.749,0,9.702,4.843,9.702,13.33C181.251,149.356,172.455,172.986,141.551,207.535z"/>
	<polygon points="271.891,161.182 256.857,161.182 249.657,183.997 242.457,161.182 201.561,161.182 201.561,172.952 
		209.559,172.952 209.559,204.617 223.723,204.617 223.723,172.952 231.594,172.952 243.146,204.617 256.168,204.617 	"/>
</g>
</svg>
