<svg width="1007" height="293" viewBox="0 0 1007 293" fill="none" xmlns="http://www.w3.org/2000/svg">
<path d="M615.023 292.453H688.601V198.342H694.221C702.602 198.342 723.726 197.875 735.212 216.459L780.419 292.453H859.592L818.403 223.263C804.797 200.068 793.606 187.644 784.807 181.26V180.495C809.628 171.695 836.792 150.472 836.792 107.238C836.792 53.6751 798.413 26.068 730.431 26.068H615.023V118.527H614.284C600.307 62.746 553.252 26.068 467.3 26.068H304.566L279.769 134.845C274.568 157.251 270.156 185.672 270.156 185.672H269.367C269.367 185.672 263.772 154.071 258.571 131.641L237.348 26.068H148.019L126.796 131.641C121.595 154.071 116 185.672 116 185.672H115.186C115.186 185.672 110.798 157.251 105.597 134.845L80.8 26.068H0L71.1869 292.452H152.455L192.855 121.658H193.646L234.046 292.452H314.033L373.289 71.2746H374.078V292.452H464.91C552.07 292.452 600.161 252.471 614.309 195.309H615.023V292.453ZM470.899 232.062H448.518V86.4595H468.903C517.708 86.4595 539.695 108.052 539.695 157.671C539.695 206.452 517.708 232.062 470.899 232.062ZM728.828 142.043H688.601V82.4663H726.413C751.629 82.4663 762.031 92.4493 762.031 112.44C762.031 130.853 751.234 142.043 728.828 142.043Z" fill="#0071B9"/>
<path d="M965.515 96.3537V27.681L896.842 52.4781V69.5354L919.569 61.2779V112.869L965.515 96.3537ZM938.105 0C975.769 0 1006.31 30.7129 1006.31 68.5741C1006.31 106.46 975.769 137.148 938.105 137.148C900.441 137.148 869.901 106.46 869.901 68.5741C869.901 30.7129 900.441 0 938.105 0ZM938.105 10.0569C905.962 10.0569 879.908 36.259 879.908 68.5741C879.908 100.889 905.962 127.091 938.105 127.091C970.247 127.091 996.326 100.889 996.326 68.5741C996.326 36.259 970.247 10.0569 938.105 10.0569Z" fill="#0071B9"/>
</svg>
