<svg width="616" height="215" viewBox="0 0 616 215" fill="none" xmlns="http://www.w3.org/2000/svg">
<path d="M559.109 0.0620117C557.108 0.213012 555.12 0.585973 553.2 1.15997C549.339 2.29497 545.852 4.35398 542.84 6.80798C539.852 9.30498 537.301 12.202 535.155 15.311C532.987 18.413 531.204 21.721 529.683 25.12C528.17 28.524 526.938 32.032 525.973 35.615C525.738 36.486 525.519 37.361 525.318 38.241C525.267 38.219 525.216 38.197 525.165 38.176C524.3 37.818 523.434 37.464 522.581 37.026C515.705 33.646 508.465 30.628 501.062 28.305C493.646 25.998 485.944 24.365 478.095 24.136C474.177 24.056 470.22 24.319 466.361 25.187C462.509 26.044 458.736 27.486 455.409 29.681C452.056 31.831 449.23 34.763 447.086 38.086C444.964 41.434 443.532 45.157 442.671 48.968C441.816 52.787 441.477 56.689 441.528 60.565C441.569 64.443 441.95 68.303 442.59 72.11C443.879 79.726 446.081 87.141 448.8 94.33C450.16 97.927 451.644 101.473 453.229 104.971C454.83 108.464 456.524 111.91 458.291 115.317C456.6 111.871 454.983 108.39 453.463 104.868C451.959 101.339 450.556 97.769 449.28 94.156C446.73 86.932 444.706 79.509 443.6 71.953C443.05 68.176 442.761 64.366 442.806 60.567C442.84 56.77 443.258 52.982 444.163 49.324C445.072 45.672 446.521 42.164 448.583 39.065C450.668 35.99 453.349 33.332 456.51 31.403C459.643 29.434 463.191 28.165 466.837 27.437C470.489 26.7 474.257 26.53 478.004 26.69C485.514 27.075 492.945 28.813 500.118 31.222C503.708 32.432 507.243 33.818 510.724 35.331C514.223 36.852 517.6 38.463 521.048 40.258C521.894 40.716 522.795 41.111 523.695 41.507C523.994 41.644 524.291 41.779 524.586 41.914C524.325 43.462 524.123 45.024 523.986 46.602C523.833 48.479 523.773 50.378 523.911 52.33C523.996 53.312 524.105 54.298 524.343 55.323C524.595 56.348 524.906 57.41 525.626 58.531C525.721 58.67 525.808 58.807 525.912 58.946L526.282 59.362C526.508 59.635 526.868 59.891 527.198 60.126C527.554 60.341 527.973 60.54 528.39 60.651C528.82 60.752 529.263 60.833 529.665 60.799C529.867 60.79 530.084 60.787 530.271 60.757L530.81 60.635C531.19 60.557 531.468 60.42 531.775 60.292C532.094 60.168 532.333 60.012 532.591 59.862C532.856 59.712 533.095 59.553 533.306 59.385C535.074 58.062 536.28 56.562 537.428 55.046L537.497 54.956C537.635 54.772 537.734 54.557 537.781 54.315L538.094 52.703C538.138 52.133 538.219 51.58 538.216 50.996C538.185 50.405 538.211 49.824 538.071 49.22C538.015 48.922 537.968 48.622 537.895 48.327L537.596 47.452C537.506 47.155 537.369 46.882 537.222 46.613C537.078 46.344 536.942 46.066 536.782 45.811C536.429 45.337 536.104 44.81 535.694 44.417L535.101 43.791L534.471 43.247C534.057 42.869 533.616 42.576 533.183 42.263C532.042 41.479 530.879 40.832 529.713 40.247C529.978 39.129 530.274 38.016 530.599 36.913C531.574 33.59 532.798 30.338 534.269 27.219C537.21 21.01 541.155 15.204 546.31 11.102C548.897 9.09799 551.752 7.51 554.81 6.69C556.334 6.274 557.895 6.01499 559.473 5.92999C561.055 5.86599 562.646 5.965 564.233 6.19C564.278 6.196 564.327 6.20102 564.373 6.20502L564.576 6.21899C565.148 6.25899 565.849 6.33899 566.552 6.45599C567.258 6.56799 567.971 6.70903 568.688 6.86603C569.403 7.01103 570.118 7.21601 570.833 7.38501L572.964 8.00598C575.792 8.89098 578.554 10.007 581.191 11.345C586.472 13.999 591.305 17.493 595.242 21.788C596.274 22.818 597.139 23.992 598.06 25.117C598.535 25.667 598.896 26.305 599.321 26.893C599.721 27.5 600.167 28.075 600.53 28.705C602.005 31.208 603.366 33.787 604.364 36.535C606.456 41.984 607.574 47.826 607.949 53.752L608.125 57.092L608.023 62.698C607.768 65.695 607.6 68.69 607.092 71.679C606.742 74.674 606.054 77.642 605.474 80.616C605.188 82.104 604.743 83.57 604.385 85.048C603.988 86.519 603.673 88.005 603.211 89.463C601.465 95.304 599.509 101.149 597.198 106.792C596.022 109.601 594.931 112.448 593.547 115.16L591.575 119.274C590.906 120.638 590.128 121.946 589.413 123.284C577.826 144.659 560.754 162.781 540.476 176.043C530.376 182.739 519.478 188.232 508.194 192.676C502.545 194.885 496.78 196.804 490.949 198.413C488.033 199.215 485.102 199.952 482.165 200.593C480.697 200.905 479.229 201.209 477.767 201.473C477.033 201.615 476.311 201.725 475.584 201.851C474.887 201.959 474.097 202.08 473.54 202.147L473.451 202.156C473.412 202.162 473.371 202.167 473.332 202.173C469.868 202.669 467.461 205.879 467.957 209.343C468.453 212.807 471.662 215.213 475.126 214.718C476.122 214.575 476.876 214.437 477.724 214.288C478.537 214.129 479.359 213.983 480.161 213.81C481.774 213.481 483.365 213.115 484.954 212.74C488.121 211.974 491.25 211.113 494.354 210.185C500.559 208.322 506.652 206.141 512.619 203.654C524.535 198.656 536.006 192.548 546.636 185.16C567.97 170.534 585.854 150.661 597.651 127.673C598.381 126.235 599.172 124.827 599.849 123.364L601.845 118.959C603.241 116.051 604.335 113.02 605.509 110.023C607.811 104.019 609.702 97.924 611.405 91.723C611.854 90.185 612.16 88.595 612.544 87.033C612.889 85.459 613.317 83.911 613.59 82.317C614.143 79.13 614.795 75.971 615.107 72.73C615.276 71.116 615.553 69.521 615.606 67.885L615.893 63.006C615.905 61.37 615.882 59.73 615.875 58.094L615.867 56.867L615.778 55.636L615.594 53.174C615.032 46.621 613.638 40.048 611.098 33.85C609.88 30.734 608.251 27.779 606.475 24.933C606.038 24.218 605.513 23.557 605.035 22.867C604.53 22.197 604.088 21.479 603.53 20.85C602.443 19.57 601.405 18.248 600.198 17.082C595.549 12.242 589.966 8.40899 583.999 5.57599C581.015 4.14799 577.922 2.97801 574.75 2.06201L572.356 1.42102C571.543 1.24502 570.745 1.04001 569.922 0.890015C569.105 0.729015 568.279 0.583971 567.434 0.469971C566.63 0.357971 565.815 0.270004 564.883 0.229004C563.611 0.0810039 562.326 0 561.037 0C560.395 0 559.752 0.0200117 559.109 0.0620117ZM529.518 56.508C529.499 56.462 529.464 56.487 529.416 56.399C529.393 56.368 529.367 56.34 529.338 56.314L529.252 56.169C529.006 55.774 528.776 55.096 528.627 54.38C528.474 53.653 528.401 52.851 528.348 52.046C528.27 50.417 528.355 48.721 528.532 47.029C528.638 46.052 528.774 45.074 528.936 44.097C529.651 44.505 530.335 44.933 530.967 45.391C532.343 46.405 533.471 47.539 533.886 48.837C534.299 50.009 534.278 51.403 533.928 52.884C532.963 54.091 531.911 55.228 530.863 55.961C530.316 56.358 529.739 56.562 529.599 56.532C529.584 56.534 529.574 56.535 529.566 56.535C529.528 56.535 529.557 56.512 529.518 56.508Z" fill="url(#paint0_linear_1_9)"/>
<path d="M72.456 132.394H57.576L45.25 90.2249H44.987L32.661 132.394H17.696L0 70.0629H16.197L26.059 111.529H26.322L37.416 70.0629H53.088L64.267 111.529H64.533L74.569 70.0629H90.237L72.456 132.394Z" fill="white"/>
<path d="M96.6648 132.394V70.0629H138.57V82.7399H111.19V94.5379H137.075V106.6H111.19V119.54H140.154V132.394H96.6648Z" fill="white"/>
<path d="M192.626 101.052C192.626 97.5314 192.052 94.6124 190.908 92.2934C189.765 89.9744 188.238 88.1254 186.331 86.7464C184.424 85.3684 182.25 84.3844 179.818 83.7964C177.382 83.2114 174.87 82.9164 172.288 82.9164H164.807V119.364H171.936C174.635 119.364 177.232 119.055 179.729 118.439C182.222 117.823 184.424 116.811 186.331 115.403C188.238 113.995 189.765 112.116 190.908 109.769C192.052 107.421 192.626 104.516 192.626 101.052ZM208.294 101.052C208.294 106.51 207.282 111.221 205.258 115.182C203.234 119.144 200.563 122.402 197.246 124.954C193.929 127.507 190.19 129.386 186.021 130.589C181.855 131.792 177.63 132.393 173.344 132.393H150.104V70.0624H172.641C177.044 70.0624 181.386 70.5774 185.669 71.6034C189.952 72.6314 193.77 74.3324 197.115 76.7104C200.46 79.0884 203.159 82.2714 205.215 86.2614C207.268 90.2544 208.294 95.1844 208.294 101.052Z" fill="white"/>
<path d="M260.768 101.052C260.768 97.5314 260.193 94.6124 259.049 92.2934C257.906 89.9744 256.379 88.1254 254.472 86.7464C252.565 85.3684 250.391 84.3844 247.959 83.7964C245.522 83.2114 243.012 82.9164 240.43 82.9164H232.948V119.364H240.078C242.777 119.364 245.373 119.055 247.87 118.439C250.363 117.823 252.565 116.811 254.472 115.403C256.379 113.995 257.906 112.116 259.049 109.769C260.193 107.421 260.768 104.516 260.768 101.052ZM276.436 101.052C276.436 106.51 275.424 111.221 273.4 115.182C271.376 119.144 268.705 122.402 265.388 124.954C262.071 127.507 258.332 129.386 254.163 130.589C249.997 131.792 245.771 132.393 241.485 132.393H218.245V70.0624H240.782C245.185 70.0624 249.528 70.5774 253.811 71.6034C258.094 72.6314 261.911 74.3324 265.257 76.7104C268.602 79.0884 271.301 82.2714 273.357 86.2614C275.41 90.2544 276.436 95.1844 276.436 101.052Z" fill="white"/>
<path d="M286.383 70.062H301.526V132.393H286.383V70.062Z" fill="white"/>
<path d="M353.999 132.394L328.906 91.6329H328.643L328.995 132.394H314.381V70.0629H331.548L356.549 110.737H356.815L356.464 70.0629H371.077V132.394H353.999Z" fill="white"/>
<path d="M428.607 132.483C424.527 133.479 420.08 133.978 415.269 133.978C410.279 133.978 405.687 133.186 401.49 131.602C397.296 130.017 393.684 127.788 390.662 124.912C387.64 122.035 385.278 118.587 383.577 114.567C381.873 110.547 381.024 106.071 381.024 101.142C381.024 96.1537 381.887 91.6327 383.62 87.5827C385.349 83.5327 387.743 80.0857 390.793 77.2377C393.847 74.3917 397.427 72.2057 401.536 70.6787C405.641 69.1537 410.077 68.3897 414.828 68.3897C419.761 68.3897 424.338 69.1387 428.564 70.6357C432.79 72.1327 436.221 74.1427 438.863 76.6657L429.356 87.4957C427.886 85.7927 425.951 84.3987 423.547 83.3117C421.139 82.2277 418.408 81.6837 415.357 81.6837C412.715 81.6837 410.279 82.1687 408.049 83.1367C405.819 84.1057 403.883 85.4557 402.239 87.1867C400.595 88.9177 399.32 90.9727 398.411 93.3497C397.498 95.7257 397.047 98.3237 397.047 101.142C397.047 104.018 397.456 106.658 398.279 109.064C399.1 111.472 400.318 113.541 401.93 115.27C403.546 117.003 405.542 118.353 407.917 119.32C410.297 120.29 413.01 120.773 416.06 120.773C417.822 120.773 419.495 120.641 421.078 120.377C422.666 120.112 424.132 119.688 425.482 119.1V107.743H413.596V95.5937H439.303V128.609C436.253 130.192 432.684 131.485 428.607 132.483Z" fill="white"/>
<path d="M502.821 82.1776V130.896H487.998V82.1776H470.661V69.5226H520.158V82.1776H502.821Z" fill="#EF3A38"/>
<path d="M557.346 130.895H542.523L519.292 69.5223H535.937L550.151 113.038H550.497L564.627 69.5223H581.011L557.346 130.895Z" fill="#EF3A38"/>
<defs>
<linearGradient id="paint0_linear_1_9" x1="-0.197895" y1="107.171" x2="614.38" y2="107.171" gradientUnits="userSpaceOnUse">
<stop stop-color="#ED2775"/>
<stop offset="1" stop-color="#EC1E2A"/>
</linearGradient>
</defs>
</svg>
