<svg width="500" height="293" viewBox="0 0 500 293" fill="none" xmlns="http://www.w3.org/2000/svg">
<path d="M451.2 104.2H500V81H441.3C409.7 81 396.7 98.7 396.7 126.4V129.1C391.4 96.5 372 81 336.5 81H277C253 33 203.5 0 146.1 0C65.5 0 0 65.5 0 146.2C0 226.9 65.5 292.3 146.1 292.3C203.1 292.3 252.4 259.8 276.5 212.3H337.2C351.7 212.3 364.8 211.4 378.1 200.8C387.7 193.2 393.7 182.4 396.5 168.3V212.1H424.3V160.6H490V137.7H424.2L424.6 128.4C424.7 113.3 429.3 104.2 451.2 104.2ZM335.9 189.1H305.2V104.2H335.9C360 104.2 368.7 114.5 368.7 146.7C368.7 178.8 360.1 189.1 335.9 189.1Z" fill="#FA7D19"/>
<path d="M210.8 135.3H229C243.4 135.3 251.9 132.4 251.9 120.2C251.9 107.6 243.4 104.1 228.6 104.1H167.1V81H238.7C275 81 280.2 106.4 280.2 120.6C280.2 135.7 274 159.6 238.7 159.6H221.1C199.1 159.6 194.4 167.5 194.4 182.6V189.6H276.6V212H166.3V179.5C166.3 151.7 179.3 135.3 210.8 135.3Z" fill="white"/>
</svg>
