<svg width="560" height="164" viewBox="0 0 560 164" fill="none" xmlns="http://www.w3.org/2000/svg">
<path d="M2.5 52H83.5V69.5L31 125H62.5V107H83.5V143H0V126L52.6 70.4H24V87H2.5" fill="#FF7E09"/>
<path d="M197 143H246V124H233V72H250V52H233V48C233 40.6736 233.783 40 240 40H251.5V21H228C215.494 21 209 28.6663 209 40V52H196.5V72H209V124H197" fill="#FF7E09"/>
<path d="M175 21V123.5H187.5V143H150V131.557C137.888 143 133.998 143 122.5 143C108.051 143 93 145.129 93 107.445V89.7803C93 53.3603 105.108 52 122.5 52C137.953 52 140.417 53.8175 150 62L150 40.5H138L138 21H175ZM125.613 71.9296C117.742 72.0546 117.554 79.1846 117.536 86.2243L117.463 112.738C117.442 120.519 121.838 123.365 123.505 123.387L137.427 123.576C141.676 123.633 149.998 120.611 149.998 120.611V75.5C149.998 75.5 144.599 71.6283 136.862 71.7511L125.613 71.9296Z" fill="#FF7E09"/>
<path d="M297.714 0H539.286C550.761 0 560 9.23857 560 20.7143V143.286C560 154.761 550.761 164 539.286 164H297.714C286.239 164 277 154.761 277 143.286V120L248 91H277V20.7143C277 9.23857 286.239 0 297.714 0Z" fill="white"/>
<path d="M303.5 76.5H331.5V128.5H340.5V143.5H303.5L303.482 128.375L313 128.5V91.5H303.5" fill="black"/>
<path d="M312 52H331V68H312V52Z" fill="black"/>
<path d="M347.5 76.5H374.5V85C385.4 75.7446 387.476 76.4967 394.78 76.5C409.653 76.5067 413.985 79.7863 414 94V128.5H423V143.5H388.5V128.5H395.5V97C395.5 92.0648 393.998 91.0798 386.5 91C382.436 90.9567 379.01 91.6457 374.5 94V128.5H381.5V143.5H347V128.5H356V91H347.5" fill="black"/>
<path d="M489.446 76.5H519.054C527.611 76.5 534.5 86.1766 534.5 98.1964V121.804C534.5 133.823 527.611 143.5 519.054 143.5H489.446C480.889 143.5 474 133.823 474 121.804V98.1964C474 86.1766 480.889 76.5 489.446 76.5Z" fill="black"/>
<path d="M495.82 91H512.68C514.519 91 516 95.6591 516 101.446V118.054C516 123.841 514.519 128.5 512.68 128.5H495.82C493.981 128.5 492.5 123.841 492.5 118.054V101.446C492.5 95.6591 493.981 91 495.82 91Z" fill="white"/>
<path d="M429.368 143.5H466V128.5H456.5V91.2182H469V76.4909H456.5V73.5455C456.5 68.1506 456.954 67.6546 461.532 67.6545L470 67.6545V53.6635L452.195 53.6636C442.987 53.6637 438.205 59.3088 438.205 67.6545V76.4909H429V91.2182H438.205V128.5H429.368" fill="black"/>
</svg>
