<svg width="544" height="289" viewBox="0 0 544 289" fill="none" xmlns="http://www.w3.org/2000/svg">
<path d="M270.186 288.483C260.541 287.624 254.65 282.728 253.09 274.276C252.764 272.507 252.816 268.016 253.192 265.727C253.549 263.55 254.465 259.963 255.035 258.518C255.245 257.985 255.417 257.453 255.417 257.336C255.417 257.219 254.963 257.551 254.409 258.074C251.689 260.638 247.602 262.565 242.979 263.462C242.002 263.651 241.202 263.87 241.202 263.949C241.202 264.027 241.511 264.497 241.89 264.993C243.719 267.389 245.69 272.574 247.317 279.271C247.905 281.689 249.078 287.198 249.078 287.54C249.078 287.654 245.67 287.723 240.062 287.723H231.047L230.826 286.619C228.808 276.554 226.907 269.09 225.817 266.947C225.075 265.488 223.551 264.671 221.572 264.671H220.526L211.521 287.713L178.187 287.728L178.288 287.008C178.343 286.612 178.517 284.948 178.674 283.31C178.832 281.672 179.012 279.921 179.074 279.418L179.189 278.504L160.851 278.603L154.905 287.728H138.769C125.937 287.728 122.652 287.679 122.729 287.488C123.117 286.519 140.788 244.762 140.857 244.649C140.906 244.57 140.861 244.505 140.764 244.505C140.664 244.505 134.154 254.229 126.297 266.113L112.012 287.722L105.721 287.725C102.063 287.727 99.4296 287.655 99.4296 287.553C99.4296 287.31 104.783 245.685 104.898 245.033C104.949 244.742 104.928 244.505 104.852 244.506C104.775 244.506 101.125 254.23 96.7404 266.114L88.7681 287.721L74.502 287.727L77.7415 279.515C79.5232 274.998 84.5484 262.247 88.9087 251.18L96.8365 231.058H107.258C117.442 231.058 117.68 231.066 117.68 231.43C117.68 231.635 116.682 239.686 115.464 249.321C114.245 258.956 113.286 266.878 113.333 266.925C113.439 267.03 114.168 265.964 127.283 246.552L137.751 231.056H148.57C154.52 231.056 159.351 231.121 159.305 231.201C159.058 231.627 137.63 285.841 137.687 285.896C137.725 285.934 146.875 273.611 158.021 258.516L178.288 231.071L196.663 231.056L196.544 233.889C196.328 239.022 195.081 284.892 195.152 285.103C195.228 285.333 195.007 285.888 207.493 254.064L216.517 231.064L232.846 231.062C242.491 231.06 249.882 231.138 250.904 231.252C254.273 231.627 256.851 232.7 258.451 234.394C260.421 236.48 261.409 239.054 261.446 242.198C261.461 243.307 261.406 244.734 261.327 245.368L261.185 246.52L261.615 245.946C266.901 238.892 273.187 234.229 280.607 231.856C287.094 229.782 295.258 229.587 300.736 231.376C306.092 233.124 309.854 236.979 311.315 242.215C311.828 244.055 312.221 248.077 311.973 248.944L311.789 249.585L304.783 250.376C300.93 250.811 297.372 251.213 296.876 251.268L295.975 251.369L296.085 249.802C296.236 247.66 295.84 246.314 294.698 245.093C293.433 243.741 292.005 243.108 289.99 243.006C287.932 242.902 286.464 243.25 284.138 244.392C281.952 245.466 280.313 246.706 278.416 248.722C273.385 254.071 269.105 264.576 269.841 269.773C270.274 272.83 271.906 274.856 274.489 275.544C276.784 276.155 279.821 275.754 282.197 274.526C284.108 273.538 286.994 270.634 288.801 267.881C289.551 266.739 290.192 265.732 290.225 265.643C290.281 265.491 305.546 267.875 305.745 268.067C306.033 268.345 302.989 273.268 301.132 275.528C299.771 277.183 296.478 280.398 294.8 281.708C288.064 286.966 279.523 289.314 270.186 288.483ZM180.39 265.775C180.447 265.432 180.882 261.131 181.357 256.218C181.832 251.305 182.267 246.953 182.324 246.547C182.386 246.104 182.351 245.835 182.239 245.875C182.056 245.938 168.97 266.074 168.97 266.291C168.97 266.351 171.516 266.4 174.629 266.4H180.287L180.39 265.775ZM237.564 253.463C239.628 253.073 241.089 252.324 242.464 250.949C245.494 247.918 245.555 244.149 242.591 243.042C241.807 242.749 240.813 242.691 235.438 242.625L229.194 242.549L227.029 248.087C225.839 251.133 224.866 253.702 224.868 253.796C224.868 254.07 235.877 253.78 237.564 253.463ZM298.726 287.389C298.797 287.203 303.839 274.451 309.93 259.052L321.005 231.053H338.21L337.926 231.773C337.77 232.169 336.01 236.643 334.015 241.714L330.389 250.935L339.621 250.985C344.698 251.012 348.917 250.97 348.996 250.889C349.075 250.809 350.882 246.421 353.011 241.138C355.139 235.855 356.926 231.425 356.981 231.293C357.059 231.106 358.972 231.052 365.631 231.052C373.684 231.052 374.176 231.071 374.084 231.389C373.943 231.877 351.879 287.569 351.793 287.655C351.753 287.694 347.879 287.705 343.183 287.678L334.646 287.628L343.699 264.767L334.395 264.717C329.277 264.691 325.057 264.698 325.017 264.74C324.977 264.78 322.927 269.946 320.462 276.22L315.981 287.627L307.289 287.677C299.06 287.724 298.604 287.708 298.726 287.389ZM356.273 287.58C356.273 287.5 361.27 274.771 367.373 259.292L378.471 231.149L401.197 231.1C415.275 231.07 423.9 231.123 423.86 231.231C423.826 231.33 422.758 234.052 421.49 237.28L419.185 243.148L390.921 243.154L389.259 247.332C388.345 249.63 387.542 251.662 387.474 251.847C387.358 252.165 388.078 252.183 400.915 252.183C408.375 252.183 414.479 252.247 414.479 252.326C414.479 252.405 413.468 254.997 412.233 258.088L409.988 263.707L382.733 263.805L378.385 274.755L393.646 274.804C402.04 274.831 408.906 274.918 408.905 274.996C408.905 275.075 407.788 277.949 406.425 281.383L403.947 287.626L380.109 287.675C366.998 287.701 356.272 287.661 356.273 287.58ZM102.558 218.902C102.611 218.77 104.167 214.933 106.016 210.376C107.865 205.819 109.434 201.914 109.502 201.698C109.59 201.421 108.669 201.946 106.356 203.489C102.302 206.194 99.0425 208.042 94.0113 210.488C78.2185 218.164 62.0766 220.409 44.3907 217.388C28.9192 214.745 16.5936 207.406 9.10604 196.378C4.30196 189.302 1.28174 180.409 0.266261 170.348C-0.273947 164.996 0.0300327 156.397 0.99283 149.793C3.32854 133.772 9.89436 117.783 19.4122 104.937C28.4926 92.681 39.1805 83.6371 52.5468 76.8987C62.0996 72.0828 70.4507 69.3691 80.6023 67.7819C88.7526 66.5075 100.377 66.3878 109.034 67.489C127.032 69.7781 137.981 76.5776 141.667 87.755C144.252 95.5943 142.976 107.042 138.519 115.999C131.92 129.26 117.867 139.506 98.7561 144.992C81.9167 149.825 75.2763 151.319 63.409 152.946C59.3397 153.503 53.1352 154.214 48.9051 154.606C47.5844 154.729 46.4037 154.857 46.2813 154.892C45.5478 155.098 45.8094 166.347 46.7119 173.401C47.0524 176.065 48.0565 180.373 48.7909 182.325C51.3989 189.253 56.5125 194.26 63.0248 196.259C65.7648 197.101 68.0884 197.433 72.1497 197.565C81.0026 197.852 89.5573 196.193 96.7375 192.796C104.26 189.237 112.004 182.985 119.719 174.241L121.453 172.275L128.626 154.551C132.571 144.802 135.885 136.631 135.99 136.394L136.182 135.961H201.052V136.442C201.052 136.706 200.965 136.922 200.859 136.922C200.754 136.922 200.667 137.053 200.667 137.213C200.667 137.373 200.59 137.654 200.497 137.837C200.34 138.147 200.164 138.561 199.726 139.66C199.631 139.897 199.412 140.414 199.239 140.808C199.066 141.202 198.704 142.11 198.436 142.825C198.167 143.541 197.816 144.429 197.655 144.798C197.494 145.168 197.284 145.665 197.19 145.903C197.094 146.141 196.919 146.573 196.799 146.864C196.68 147.154 196.518 147.565 196.44 147.776C196.361 147.987 196.103 148.592 195.865 149.121C195.627 149.649 195.368 150.254 195.29 150.465C195.211 150.677 195.06 151.066 194.952 151.33C194.741 151.852 194.176 153.308 193.946 153.923C193.867 154.135 193.705 154.545 193.585 154.836C193.465 155.126 193.293 155.559 193.202 155.796C193.111 156.034 192.852 156.604 192.626 157.063C192.399 157.522 192.214 158.063 192.214 158.264C192.214 158.465 192.128 158.63 192.022 158.63C191.916 158.63 191.83 158.761 191.83 158.921C191.83 159.081 191.751 159.362 191.654 159.545C191.356 160.109 190.935 161.129 190.019 163.5C189.536 164.752 189.002 166.092 188.833 166.478C188.524 167.18 188.325 167.667 188.013 168.476C187.776 169.093 187.498 169.761 187.136 170.585C186.963 170.979 186.601 171.886 186.333 172.602C186.064 173.317 185.713 174.205 185.552 174.575C185.391 174.945 185.181 175.442 185.087 175.68C184.992 175.917 184.828 176.328 184.722 176.592C184.616 176.856 184.454 177.267 184.362 177.505C184.27 177.742 184 178.369 183.761 178.897C183.523 179.426 183.253 180.052 183.161 180.29C182.889 180.99 182.621 181.653 182.424 182.115C181.775 183.636 180.88 186.023 180.88 186.235C180.88 186.373 180.794 186.485 180.687 186.485C180.582 186.485 180.495 186.616 180.495 186.776C180.495 186.936 180.419 187.217 180.325 187.401C180.168 187.71 179.992 188.124 179.554 189.223C179.459 189.461 179.24 189.977 179.067 190.371C178.894 190.765 178.532 191.673 178.264 192.388C177.995 193.104 177.644 193.992 177.483 194.362C177.322 194.731 177.124 195.207 177.043 195.418C176.962 195.63 176.798 196.04 176.679 196.331C176.559 196.621 176.383 197.054 176.288 197.291C176.193 197.529 175.933 198.133 175.711 198.634C175.187 199.818 175.194 200.282 175.742 200.415C175.979 200.473 187.55 200.496 201.454 200.467C222.041 200.423 226.791 200.366 227.04 200.159C227.207 200.02 227.401 199.653 227.469 199.343C227.537 199.033 227.672 198.78 227.769 198.78C227.866 198.78 227.946 198.659 227.946 198.511C227.946 198.363 228.205 197.75 228.522 197.147C228.84 196.545 229.099 195.931 229.099 195.783C229.099 195.635 229.185 195.514 229.291 195.514C229.397 195.514 229.483 195.341 229.483 195.13C229.483 194.919 229.57 194.746 229.676 194.746C229.781 194.746 229.868 194.641 229.868 194.513C229.868 194.384 230.203 193.585 230.613 192.736C231.023 191.887 231.638 190.587 231.98 189.847C232.322 189.108 233.24 187.187 234.02 185.58C234.801 183.973 235.439 182.613 235.439 182.559C235.439 182.505 236.095 181.097 236.896 179.43C237.697 177.764 238.638 175.795 238.988 175.055C240.048 172.811 241.483 169.797 242.599 167.467C243.181 166.252 243.979 164.566 244.372 163.721C244.766 162.876 245.588 161.147 246.199 159.879C246.811 158.611 247.588 156.969 247.926 156.229C248.264 155.489 248.705 154.544 248.906 154.128C249.106 153.712 249.27 153.258 249.27 153.119C249.27 152.981 249.357 152.867 249.463 152.867C249.568 152.867 249.655 152.695 249.655 152.483C249.655 152.272 249.741 152.099 249.848 152.099C249.953 152.099 250.04 151.926 250.04 151.715C250.04 151.503 250.105 151.33 250.185 151.33C250.265 151.33 250.446 151.05 250.589 150.706C251.038 149.621 251.422 148.781 252.182 147.219C252.589 146.384 252.922 145.584 252.922 145.442C252.922 145.3 253.008 145.183 253.114 145.183C253.219 145.183 253.306 145.011 253.306 144.799C253.306 144.588 253.393 144.415 253.499 144.415C253.604 144.415 253.691 144.242 253.691 144.031C253.691 143.819 253.777 143.646 253.884 143.646C253.989 143.646 254.076 143.536 254.076 143.401C254.076 143.265 254.539 142.207 255.104 141.047C255.669 139.888 256.248 138.616 256.391 138.219C256.534 137.823 256.719 137.499 256.804 137.499C256.889 137.499 256.958 137.366 256.958 137.204C256.958 137.042 257.097 136.696 257.268 136.436L257.578 135.962H271.253C281.633 135.962 284.984 136.018 285.158 136.193C285.285 136.32 285.389 136.617 285.389 136.854C285.389 137.091 285.475 137.338 285.581 137.403C285.687 137.469 285.774 137.691 285.774 137.897C285.774 138.104 285.852 138.423 285.947 138.606C286.042 138.79 286.224 139.329 286.35 139.805C286.476 140.28 286.658 140.819 286.753 141.003C286.848 141.186 286.926 141.505 286.926 141.712C286.926 141.918 287.012 142.141 287.118 142.206C287.224 142.271 287.311 142.53 287.311 142.782C287.311 143.034 287.397 143.293 287.503 143.358C287.609 143.424 287.696 143.646 287.696 143.853C287.696 144.059 287.775 144.378 287.871 144.562C287.967 144.745 288.274 145.673 288.554 146.624C289.49 149.805 290.609 153.344 290.786 153.681C290.882 153.865 290.962 154.184 290.962 154.39C290.962 154.597 291.047 154.819 291.154 154.885C291.259 154.95 291.346 155.209 291.346 155.461C291.346 155.713 291.432 155.972 291.539 156.037C291.644 156.102 291.731 156.325 291.731 156.531C291.731 156.738 291.81 157.057 291.906 157.241C292.002 157.424 292.311 158.352 292.591 159.303C293.716 163.118 294.27 164.89 294.437 165.208C294.534 165.391 294.613 165.71 294.613 165.917C294.613 166.123 294.699 166.346 294.805 166.411C294.911 166.476 294.998 166.736 294.998 166.987C294.998 167.239 295.084 167.498 295.19 167.563C295.295 167.629 295.382 167.851 295.382 168.058C295.382 168.264 295.46 168.583 295.556 168.767C295.651 168.95 295.834 169.489 295.962 169.965C296.09 170.44 296.259 171.002 296.338 171.213C296.417 171.425 296.573 171.9 296.683 172.27C297.558 175.197 298.326 177.607 298.473 177.886C298.569 178.07 298.649 178.389 298.649 178.596C298.649 178.802 298.735 179.024 298.841 179.09C298.946 179.155 299.033 179.463 299.033 179.773C299.033 180.084 299.12 180.338 299.226 180.338C299.331 180.338 299.418 180.598 299.418 180.915C299.418 181.232 299.504 181.491 299.61 181.491C299.716 181.491 299.803 181.745 299.803 182.056C299.803 182.367 299.889 182.674 299.995 182.74C300.101 182.805 300.188 183.027 300.188 183.234C300.188 183.44 300.267 183.759 300.363 183.943C300.459 184.127 300.769 185.055 301.051 186.005C301.334 186.956 301.654 188.037 301.764 188.407C301.874 188.776 302.04 189.229 302.132 189.413C302.225 189.596 302.3 189.915 302.3 190.122C302.3 190.328 302.387 190.551 302.493 190.616C302.598 190.681 302.685 190.904 302.685 191.11C302.685 191.316 302.763 191.636 302.859 191.819C302.954 192.003 303.135 192.542 303.262 193.017C303.388 193.493 303.569 194.032 303.664 194.215C303.759 194.399 303.838 194.718 303.838 194.924C303.838 195.131 303.924 195.353 304.03 195.419C304.136 195.484 304.223 195.706 304.223 195.913C304.223 196.119 304.301 196.438 304.396 196.622C304.491 196.805 304.68 197.344 304.815 197.82C304.95 198.295 305.142 198.793 305.243 198.926C305.387 199.117 309.585 199.167 325.427 199.166C336.428 199.166 350.141 199.11 355.899 199.043L366.369 198.92L367.329 197.923C367.857 197.375 368.457 196.717 368.661 196.461C368.865 196.204 369.557 195.4 370.198 194.672C370.839 193.945 371.839 192.809 372.42 192.148C373.001 191.486 374.023 190.335 374.69 189.589C375.357 188.844 376.089 187.992 376.316 187.696C376.543 187.4 376.862 187.028 377.026 186.87C377.19 186.711 377.928 185.89 378.666 185.045C379.404 184.2 380.051 183.465 380.104 183.412C380.157 183.359 380.762 182.668 381.449 181.877C382.136 181.085 382.971 180.134 383.306 179.764C383.641 179.393 384.114 178.83 384.358 178.513C384.601 178.196 385.019 177.721 385.286 177.456C385.552 177.192 386.074 176.626 386.443 176.198C388.241 174.119 389.499 172.68 390.289 171.798C390.766 171.265 391.717 170.181 392.402 169.389C393.087 168.596 393.82 167.766 394.032 167.544C394.242 167.322 394.589 166.924 394.8 166.659C395.191 166.17 396.775 164.366 398.373 162.59C399.403 161.445 401.466 159.064 402.287 158.072C402.6 157.692 403.261 156.95 403.754 156.421C404.248 155.893 404.897 155.158 405.197 154.789C405.497 154.419 405.875 153.987 406.038 153.828C406.201 153.67 406.85 152.935 407.482 152.195C408.114 151.456 408.764 150.721 408.925 150.562C409.086 150.404 409.692 149.714 410.27 149.03C410.848 148.346 411.636 147.439 412.02 147.013C412.405 146.588 412.966 145.937 413.266 145.568C413.568 145.198 414.032 144.679 414.298 144.415C414.565 144.151 415.031 143.632 415.335 143.262C415.638 142.893 416.429 141.985 417.092 141.245C417.755 140.506 419.278 138.777 420.476 137.403C423.147 134.34 423.38 134.074 423.938 133.438C424.183 133.159 424.859 132.387 425.44 131.721C426.022 131.056 426.929 130.028 427.458 129.438C430.095 126.49 431.684 124.588 431.684 124.38C431.684 124.201 427.513 124.137 413.407 124.099L395.13 124.05L394.581 124.686C394.279 125.035 393.815 125.615 393.551 125.973C393.287 126.331 392.849 126.888 392.579 127.211C392.308 127.534 391.879 128.101 391.627 128.47C391.375 128.84 391.03 129.272 390.862 129.431C390.693 129.589 390.345 130.022 390.087 130.391C389.616 131.067 389.447 131.287 388.551 132.388C388.284 132.716 387.679 133.503 387.207 134.137C386.735 134.771 386.296 135.333 386.233 135.386C386.111 135.487 385.231 136.626 383.412 139.036C382.813 139.828 382.272 140.52 382.208 140.573C382.145 140.626 381.498 141.447 380.772 142.398C380.046 143.349 379.188 144.472 378.866 144.895C378.543 145.317 378.147 145.793 377.985 145.952C377.823 146.11 377.179 146.931 376.554 147.777C375.929 148.622 375.369 149.357 375.31 149.41C375.251 149.463 374.967 149.822 374.679 150.209C374.391 150.596 374.044 151.029 373.908 151.17C373.773 151.311 373.172 152.075 372.572 152.867C370.338 155.822 369.861 156.423 369.702 156.485C369.612 156.519 369.538 156.665 369.538 156.806C369.538 156.947 369.47 157.091 369.387 157.126C369.304 157.16 368.937 157.579 368.571 158.054C368.205 158.53 367.69 159.187 367.426 159.516C366.461 160.713 366.355 160.851 365.895 161.512C365.637 161.882 365.291 162.314 365.125 162.473C364.96 162.631 364.308 163.452 363.676 164.298C363.044 165.143 362.483 165.878 362.429 165.93C362.376 165.983 362.096 166.343 361.808 166.73C361.52 167.117 361.173 167.55 361.037 167.691C360.902 167.832 360.301 168.596 359.701 169.388C357.813 171.885 356.998 172.939 356.878 173.038C356.815 173.091 356.382 173.635 355.916 174.247C355.451 174.86 355.011 175.292 354.939 175.208C354.778 175.02 354.482 174.183 354.173 173.038C354.045 172.563 353.862 172.024 353.767 171.84C353.672 171.657 353.594 171.295 353.594 171.035C353.594 170.776 353.508 170.51 353.402 170.445C353.296 170.38 353.209 170.12 353.209 169.869C353.209 169.617 353.123 169.358 353.017 169.292C352.911 169.227 352.824 168.925 352.824 168.62C352.824 168.315 352.738 168.013 352.632 167.948C352.527 167.883 352.44 167.617 352.44 167.357C352.44 167.098 352.362 166.736 352.266 166.552C352.171 166.369 351.998 165.873 351.883 165.45C351.769 165.028 351.508 164.12 351.304 163.433C351.101 162.746 350.789 161.666 350.611 161.032C350.433 160.398 350.22 159.663 350.137 159.399C350.054 159.135 349.88 158.53 349.751 158.054C349.621 157.579 349.447 157.017 349.366 156.806C349.285 156.594 349.113 156.032 348.985 155.557C348.857 155.081 348.674 154.542 348.579 154.359C348.484 154.175 348.406 153.85 348.406 153.636C348.406 153.422 348.328 153.096 348.233 152.913C348.138 152.729 347.965 152.233 347.85 151.811C347.735 151.388 347.474 150.481 347.271 149.794C347.067 149.107 346.755 148.026 346.577 147.392C346.399 146.759 346.186 146.024 346.103 145.76C346.02 145.495 345.848 144.89 345.72 144.415C345.591 143.939 345.409 143.4 345.314 143.217C345.219 143.034 345.14 142.671 345.14 142.412C345.14 142.152 345.054 141.887 344.948 141.821C344.843 141.756 344.756 141.497 344.756 141.245C344.756 140.993 344.669 140.734 344.563 140.669C344.458 140.603 344.371 140.301 344.371 139.996C344.371 139.692 344.285 139.389 344.179 139.324C344.073 139.259 343.986 138.993 343.986 138.734C343.986 138.475 343.908 138.112 343.813 137.929C343.718 137.745 343.534 137.206 343.407 136.731C343.279 136.255 343.106 135.693 343.022 135.482C342.939 135.271 342.727 134.536 342.553 133.849C342.379 133.162 342.164 132.384 342.077 132.12C341.989 131.856 341.813 131.251 341.684 130.776C341.556 130.3 341.373 129.761 341.278 129.577C341.183 129.394 341.104 129.032 341.104 128.772C341.104 128.513 341.018 128.247 340.912 128.182C340.807 128.117 340.72 127.857 340.72 127.606C340.72 127.354 340.634 127.095 340.527 127.029C340.422 126.964 340.335 126.662 340.335 126.357C340.335 126.052 340.249 125.75 340.143 125.685C340.037 125.619 339.948 125.377 339.944 125.145C339.944 124.914 339.823 124.573 339.683 124.388C339.44 124.069 334.481 124.052 240.275 124.052C184.841 124.052 141.123 123.979 141.123 123.886C141.123 123.795 142.732 119.754 144.698 114.905C146.665 110.057 148.316 105.982 148.369 105.85C148.445 105.658 178.984 105.61 300.158 105.607C383.589 105.606 452.044 105.552 452.281 105.489C452.894 105.325 452.62 105.033 451.851 105.033C451.494 105.033 451.148 104.947 451.082 104.841C451.017 104.735 450.672 104.649 450.314 104.649C449.957 104.649 449.611 104.563 449.546 104.457C449.481 104.351 449.135 104.265 448.777 104.265C448.42 104.265 448.074 104.179 448.009 104.072C447.944 103.967 447.641 103.88 447.336 103.88C447.032 103.88 446.729 103.794 446.664 103.688C446.599 103.583 446.296 103.496 445.992 103.496C445.687 103.496 445.385 103.41 445.319 103.304C445.254 103.199 444.989 103.112 444.729 103.112C444.47 103.112 444.108 103.033 443.924 102.937C443.638 102.787 442.044 102.283 439.46 101.527C438.7 101.304 437.985 101.034 437.494 100.784C437.31 100.691 437.028 100.615 436.867 100.615C436.705 100.615 436.402 100.528 436.192 100.422C435.982 100.317 435.638 100.144 435.429 100.038C435.218 99.9325 434.873 99.846 434.66 99.846C434.447 99.846 434.273 99.7598 434.273 99.654C434.273 99.5485 434.14 99.4616 433.976 99.4616C433.812 99.4616 433.32 99.2889 432.883 99.0774C432.446 98.8661 432.02 98.6932 431.937 98.6932C431.854 98.6932 431.315 98.477 430.737 98.2129C430.16 97.9487 429.638 97.7327 429.577 97.7327C429.516 97.7327 429.057 97.5509 428.556 97.3289C428.055 97.1067 427.3 96.7718 426.877 96.5844C426.133 96.254 425.259 95.8525 422.112 94.3936C421.288 94.0112 420.569 93.6985 420.515 93.6985C420.424 93.6985 419.958 93.4876 416.6 91.926C415.309 91.3258 413.907 90.6958 413.238 90.4149C413.026 90.3261 412.346 90.0346 411.725 89.7669C411.104 89.4993 410.517 89.2801 410.419 89.2801C410.321 89.2801 409.884 89.1074 409.446 88.8959C409.009 88.6846 408.5 88.5117 408.314 88.5117C408.129 88.5117 407.924 88.4256 407.859 88.3197C407.794 88.2143 407.529 88.1278 407.271 88.1278C407.013 88.1278 406.802 88.0416 406.802 87.9354C406.802 87.8299 406.543 87.7434 406.226 87.7434C405.909 87.7434 405.65 87.6572 405.65 87.5514C405.65 87.4459 405.396 87.3594 405.085 87.3594C404.774 87.3594 404.466 87.2732 404.401 87.1674C404.336 87.0619 404.033 86.975 403.729 86.975C403.424 86.975 403.127 86.8979 403.069 86.8042C403.012 86.7104 402.682 86.5853 402.338 86.5264C401.993 86.4678 401.279 86.3234 400.751 86.2055C396.386 85.232 390.67 85.0765 387.112 85.8343C386.583 85.947 385.826 86.0857 385.43 86.1427C385.033 86.1998 384.66 86.3242 384.602 86.4186C384.544 86.5131 384.246 86.5902 383.942 86.5902C383.637 86.5902 383.335 86.6764 383.27 86.7822C383.205 86.8877 382.897 86.9742 382.586 86.9742C382.275 86.9742 382.021 87.0604 382.021 87.1662C382.021 87.2717 381.81 87.3582 381.552 87.3582C381.294 87.3582 381.03 87.4444 380.964 87.5506C380.899 87.6561 380.677 87.7426 380.47 87.7426C380.264 87.7426 379.945 87.819 379.761 87.9123C379.578 88.0057 379.211 88.1697 378.947 88.277C378.425 88.4887 377.439 88.9083 376.306 89.4002C375.178 89.8896 370.41 92.2289 370.303 92.345C370.25 92.4025 369.645 92.7429 368.958 93.1019C368.271 93.4609 367.277 94.0235 366.749 94.3524C366.22 94.6812 365.55 95.0721 365.26 95.221C364.969 95.3699 364.732 95.5634 364.732 95.6514C364.732 95.7391 364.648 95.8109 364.546 95.8109C364.443 95.8109 363.223 96.5673 361.834 97.4918C360.445 98.4163 359.167 99.2591 358.994 99.3648C358.821 99.4703 358.637 99.6044 358.584 99.6623C358.531 99.7201 358.185 99.9752 357.816 100.229C357.446 100.483 357.1 100.741 357.047 100.803C356.994 100.864 356.389 101.314 355.703 101.802C355.016 102.29 354.281 102.854 354.07 103.054C353.621 103.479 352.208 104.456 352.041 104.456C351.978 104.456 351.965 104.196 352.011 103.879C352.057 103.562 352.172 103.303 352.266 103.303C352.359 103.303 352.436 103.137 352.436 102.935C352.436 102.732 352.501 102.538 352.58 102.503C352.66 102.469 353.074 101.747 353.501 100.902C354.492 98.9417 355.383 97.279 355.508 97.1557C355.562 97.1028 355.714 96.865 355.846 96.6274C356.442 95.5542 356.587 95.3269 356.902 94.9681C357.088 94.7579 357.238 94.4797 357.238 94.35C357.238 94.2203 357.304 94.0854 357.383 94.0499C357.463 94.0158 357.959 93.3379 358.487 92.5459C359.493 91.0379 361.54 88.2628 362.401 87.2385C362.679 86.9085 363.511 85.9161 364.25 85.0331C365.792 83.1931 369.585 79.3439 371.523 77.6537C372.965 76.396 373.658 75.8398 375.586 74.3912C376.29 73.8629 377.108 73.2362 377.405 72.9985C377.703 72.7608 378.028 72.5662 378.128 72.5662C378.229 72.5662 378.467 72.3935 378.658 72.1821C378.849 71.9708 379.122 71.7979 379.264 71.7979C379.406 71.7979 379.523 71.7219 379.523 71.6293C379.523 71.5363 379.782 71.353 380.099 71.2217C380.416 71.0906 380.676 70.9073 380.676 70.8142C380.676 70.7213 380.759 70.6457 380.859 70.6457C380.96 70.6457 381.457 70.4015 381.964 70.1029C383.401 69.2561 387.998 66.9828 389.512 66.3702C395.003 64.1491 401.974 62.709 407.186 62.719C408.833 62.7219 412.833 63.0516 414.678 63.3359C415.365 63.4417 416.316 63.5785 416.791 63.6402C417.266 63.7018 417.829 63.8276 418.04 63.9198C418.251 64.0121 418.683 64.1334 419 64.1886C420.238 64.4048 422.018 64.8262 423.995 65.3719C424.629 65.5469 425.429 65.734 425.774 65.7878C426.118 65.8415 426.447 65.9624 426.506 66.0566C426.563 66.1507 426.817 66.2274 427.069 66.2274C427.32 66.2274 427.58 66.3136 427.645 66.4198C427.71 66.5252 427.97 66.6118 428.221 66.6118C428.473 66.6118 428.732 66.6983 428.798 66.8038C428.863 66.9092 429.122 66.9958 429.374 66.9958C429.626 66.9958 429.885 67.0823 429.95 67.1878C430.015 67.2932 430.238 67.3801 430.444 67.3801C430.651 67.3801 431.013 67.4799 431.25 67.6024C432.152 68.0688 432.355 68.1487 432.64 68.1487C432.801 68.1487 433.083 68.2251 433.267 68.3184C433.811 68.5951 434.501 68.8675 435.521 69.2074C436.05 69.3835 436.611 69.5918 436.77 69.6703C436.928 69.7489 437.469 69.933 437.971 70.0794C438.472 70.2257 438.883 70.4135 438.883 70.4959C438.883 70.5787 439.094 70.6463 439.352 70.6463C439.61 70.6463 439.874 70.7325 439.94 70.8383C440.005 70.9438 440.226 71.0303 440.431 71.0303C440.636 71.0303 440.804 71.1165 440.804 71.2223C440.804 71.3278 440.96 71.4143 441.152 71.4143C441.344 71.4143 441.858 71.5871 442.296 71.7985C442.733 72.0098 443.207 72.1827 443.35 72.1827C443.492 72.1827 443.691 72.2579 443.792 72.3502C443.892 72.4424 444.839 72.8389 445.895 73.2318C447.762 73.926 448.101 74.0571 449.209 74.5138C449.882 74.7912 450.58 75.0703 451.13 75.2822C451.368 75.3737 451.8 75.5464 452.091 75.6664C452.381 75.7862 452.813 75.959 453.051 76.0506C453.289 76.1421 453.678 76.2985 453.915 76.3979C454.153 76.4974 455.255 76.8899 456.365 77.2698C457.474 77.6497 458.532 78.0436 458.715 78.1452C458.899 78.2469 459.223 78.33 459.436 78.33C459.649 78.33 459.823 78.4162 459.823 78.522C459.823 78.6275 460.034 78.7141 460.292 78.7141C460.55 78.7141 460.814 78.8002 460.879 78.9061C460.944 79.0115 461.204 79.0984 461.456 79.0984C461.707 79.0984 461.966 79.1846 462.032 79.2904C462.097 79.3959 462.361 79.4824 462.619 79.4824C462.878 79.4824 463.088 79.5686 463.088 79.6744C463.088 79.7799 463.348 79.8668 463.665 79.8668C463.982 79.8668 464.241 79.953 464.241 80.0588C464.241 80.1643 464.415 80.2508 464.628 80.2508C464.841 80.2508 465.165 80.3287 465.348 80.4239C465.531 80.5191 466.071 80.7047 466.546 80.8358C467.022 80.967 467.797 81.1972 468.269 81.347C469.162 81.6301 471.091 82.1318 471.925 82.2973C472.189 82.3498 472.578 82.4658 472.79 82.5558C473.001 82.6454 473.433 82.7724 473.75 82.8381C474.067 82.9035 474.672 83.0445 475.095 83.1511C476.346 83.467 477.547 83.7231 478.264 83.8269C478.634 83.8802 479.11 84.0004 479.321 84.0934C479.532 84.1867 480.051 84.3081 480.474 84.364C480.896 84.4199 481.804 84.5575 482.491 84.6697C490.316 85.9509 499.754 86.093 507.464 85.0458C508.257 84.9381 509.337 84.8013 509.866 84.7416C510.394 84.6818 510.908 84.5548 511.009 84.4588C511.109 84.3628 511.558 84.2842 512.006 84.2842C512.454 84.2842 512.874 84.1981 512.939 84.0922C513.004 83.9868 513.35 83.9002 513.708 83.9002C514.065 83.9002 514.411 83.8141 514.476 83.7082C514.541 83.6028 514.887 83.5159 515.244 83.5159C515.602 83.5159 515.948 83.4297 516.013 83.3239C516.078 83.2184 516.381 83.1319 516.685 83.1319C516.99 83.1319 517.292 83.0457 517.358 82.9399C517.423 82.8344 517.645 82.7479 517.852 82.7479C518.058 82.7479 518.377 82.6708 518.561 82.5763C518.744 82.4818 519.629 82.1657 520.527 81.8737C522.303 81.2962 523.28 80.8975 525.021 80.0398C525.643 79.7333 526.27 79.4822 526.413 79.4822C526.557 79.4822 526.675 79.396 526.675 79.2902C526.675 79.1848 526.848 79.0982 527.059 79.0982C527.27 79.0982 527.443 79.012 527.443 78.9062C527.443 78.8007 527.608 78.7138 527.811 78.7138C528.014 78.7138 528.208 78.6477 528.243 78.5668C528.278 78.4859 529.086 78.0227 530.037 77.5374C530.987 77.0522 532.241 76.395 532.822 76.0771C535.539 74.5907 537.231 73.7293 538.201 73.3376C538.782 73.1033 539.474 72.8234 539.738 72.7163C540.002 72.6094 540.368 72.4454 540.552 72.352C540.735 72.2586 541.085 72.1823 541.33 72.1823C541.574 72.1823 541.856 72.1067 541.957 72.0145C542.057 71.9223 542.51 71.8002 542.963 71.7435C543.737 71.6467 543.779 71.6653 543.661 72.0553C543.479 72.6535 541.974 75.5321 541.803 75.608C541.723 75.642 541.658 75.7607 541.658 75.8691C541.658 76.0524 539.121 79.8221 538.418 80.6833C535.677 84.0413 532.463 87.3797 529.652 89.7884C528.49 90.7842 527.322 91.7913 527.056 92.0263C526.791 92.2614 526.272 92.6647 525.904 92.9225C525.535 93.1803 525.191 93.4438 525.138 93.5081C525.085 93.5724 524.436 94.0505 523.697 94.5704C522.957 95.0903 522.323 95.5821 522.288 95.6634C522.254 95.7446 522.118 95.8108 521.988 95.8108C521.858 95.8108 521.581 95.962 521.372 96.1472C520.882 96.5812 519.802 97.3478 519.68 97.3478C519.628 97.3478 519.214 97.5954 518.76 97.8979C518.305 98.2002 517.545 98.6636 517.069 98.9273C516.594 99.1911 515.859 99.608 515.436 99.8542C514.471 100.416 510.091 102.568 509.193 102.921C508.823 103.066 508.237 103.341 507.89 103.532C507.544 103.723 507.132 103.879 506.975 103.879C506.819 103.879 506.54 103.956 506.357 104.049C506.051 104.204 505.494 104.445 504.486 104.856C503.691 105.18 502.121 105.662 500.356 106.123C496.275 107.188 494.865 107.484 491.615 107.958C489.778 108.226 476.311 108.283 474.94 108.029C474.086 107.871 474.008 107.889 473.909 108.27C473.85 108.497 473.725 108.682 473.632 108.682C473.539 108.682 473.462 108.852 473.462 109.06C473.462 109.268 473.289 109.746 473.078 110.122C472.867 110.498 472.694 110.977 472.694 111.185C472.694 111.393 472.608 111.563 472.502 111.563C472.396 111.563 472.309 111.731 472.309 111.936C472.309 112.141 472.223 112.363 472.117 112.428C472.012 112.493 471.925 112.757 471.925 113.015C471.925 113.274 471.838 113.484 471.732 113.484C471.627 113.484 471.54 113.615 471.54 113.775C471.54 113.935 471.453 114.238 471.348 114.448C471.242 114.658 471.069 115.001 470.964 115.211C470.858 115.421 470.771 115.681 470.771 115.789C470.771 115.898 470.61 116.353 470.413 116.801C469.851 118.078 469.042 120.29 469.042 120.549C469.042 120.679 468.956 120.785 468.85 120.785C468.744 120.785 468.657 120.915 468.657 121.076C468.657 121.236 468.581 121.517 468.488 121.7C468.309 122.053 467.949 122.898 467.672 123.618C467.581 123.856 467.43 124.245 467.339 124.483C466.934 125.536 466.51 126.567 466.084 127.538C465.915 127.923 465.777 128.335 465.777 128.452C465.777 128.569 465.595 129.075 465.373 129.576C464.944 130.544 464.689 131.151 464.384 131.927C464.28 132.191 464.119 132.557 464.025 132.741C463.932 132.924 463.856 133.205 463.856 133.365C463.856 133.525 463.77 133.656 463.663 133.656C463.558 133.656 463.471 133.826 463.471 134.035C463.471 134.243 463.298 134.721 463.087 135.097C462.876 135.473 462.703 135.9 462.703 136.045C462.703 136.191 462.534 136.642 462.327 137.048C461.947 137.793 460.826 140.877 460.644 141.677C460.59 141.914 460.469 142.109 460.375 142.109C460.282 142.109 460.206 142.239 460.206 142.4C460.206 142.56 460.13 142.841 460.037 143.024C459.879 143.334 459.704 143.748 459.265 144.846C459.17 145.084 458.961 145.581 458.8 145.951C458.639 146.321 458.111 147.648 457.627 148.9C457.144 150.152 456.61 151.492 456.441 151.877C456.133 152.58 455.933 153.067 455.622 153.875C455.399 154.453 455.121 155.125 454.766 155.94C454.605 156.31 454.205 157.304 453.877 158.15C453.548 158.995 453.195 159.881 453.093 160.119C452.99 160.356 452.831 160.745 452.74 160.983C452.463 161.704 452.103 162.549 451.923 162.902C451.83 163.085 451.754 163.366 451.754 163.526C451.754 163.686 451.667 163.817 451.562 163.817C451.456 163.817 451.369 163.982 451.369 164.183C451.369 164.385 451.184 164.925 450.958 165.384C450.732 165.843 450.473 166.413 450.382 166.651C450.291 166.888 450.141 167.277 450.048 167.515C449.955 167.753 449.728 168.336 449.544 168.812C449.361 169.287 449.123 169.892 449.016 170.157C448.908 170.421 448.746 170.831 448.654 171.069C448.563 171.307 448.412 171.696 448.32 171.934C448.228 172.171 447.958 172.798 447.719 173.326C447.481 173.855 447.211 174.481 447.119 174.719C447.027 174.957 446.853 175.389 446.733 175.68C446.614 175.97 446.441 176.402 446.349 176.64C446.108 177.266 445.876 177.845 445.559 178.609C445.406 178.979 445.17 179.584 445.036 179.954C444.902 180.323 444.63 180.993 444.431 181.441C444.232 181.888 444.07 182.385 444.07 182.545C444.07 182.705 443.983 182.835 443.878 182.835C443.772 182.835 443.685 182.966 443.685 183.126C443.685 183.286 443.609 183.567 443.516 183.751C443.359 184.06 443.183 184.475 442.745 185.573C442.65 185.811 442.431 186.328 442.257 186.722C442.084 187.116 441.723 188.023 441.454 188.739C441.185 189.454 440.834 190.342 440.673 190.712C440.321 191.523 440.041 192.196 439.818 192.777C439.347 194 438.787 195.322 438.382 196.168C438.235 196.475 438.115 196.797 438.115 196.883C438.115 196.969 437.912 197.496 437.665 198.054C437.417 198.612 437.104 199.371 436.97 199.741C436.835 200.11 436.562 200.78 436.363 201.227C436.165 201.675 436.002 202.116 436.002 202.207C436.002 202.297 435.882 202.622 435.735 202.929C435.457 203.51 434.935 204.712 434.638 205.456C434.543 205.694 434.379 206.104 434.274 206.368C434.168 206.633 434.004 207.043 433.909 207.281C433.814 207.519 433.611 208.016 433.457 208.385C433.304 208.755 433.065 209.36 432.927 209.73C432.788 210.1 432.603 210.485 432.514 210.585C432.425 210.686 432.352 210.881 432.352 211.019C432.352 211.158 432.171 211.681 431.949 212.182C431.727 212.682 431.48 213.265 431.399 213.476C431.318 213.687 431.153 214.098 431.033 214.389C430.914 214.679 430.738 215.111 430.643 215.349C430.548 215.587 430.301 216.17 430.095 216.646C429.889 217.121 429.561 217.878 429.366 218.327L429.013 219.143H265.739C135.198 219.143 102.487 219.095 102.564 218.903L102.558 218.902ZM51.6907 142.68C61.1066 141.488 68.6451 139.98 73.2925 138.358C76.3165 137.303 80.0025 135.441 83.0035 133.45C86.3318 131.243 89.8356 127.857 91.7188 125.028C95.102 119.944 97.144 113.657 98.1192 105.321C98.256 104.15 98.3652 101.152 98.3637 98.5971C98.3617 94.5991 98.304 93.7017 97.9315 91.8418C96.423 84.3087 93.1022 80.0317 87.8088 78.8041C86.1059 78.4091 83.5261 78.4028 81.888 78.789C74.7867 80.4652 66.9527 89.2567 59.9581 103.399C55.617 112.176 52.5945 120.653 49.9468 131.475C48.9722 135.458 47.5604 142.149 47.5604 142.785C47.5604 143.16 47.9808 143.15 51.6907 142.68ZM133.719 68.6375C133.296 68.399 127.721 65.3484 121.328 61.8578C114.936 58.3673 104.735 52.7945 98.66 49.4737C92.5848 46.1529 82.7299 40.7698 76.7603 37.5112C70.7906 34.2526 65.1738 31.1034 64.2784 30.5131C60.2287 27.8431 57.3913 24.1386 56.0921 19.8251C55.3721 17.4349 55.3233 14.0377 55.9764 11.7749C57.4685 6.60573 61.4004 2.91853 67.0741 1.36779C68.7357 0.913601 69.3367 0.846631 71.7654 0.844855C74.1755 0.843418 74.8304 0.914013 76.6252 1.37035C79.0219 1.9798 80.9174 2.74663 82.7035 3.82939C85.7966 5.70452 87.4861 7.41575 91.7723 13.0149C95.8168 18.2984 98.549 21.8634 102.594 27.1345C108.224 34.4726 127.22 59.2331 130.521 63.5382C132.263 65.8098 133.94 67.9926 134.248 68.3888C134.885 69.2087 134.802 69.2479 133.719 68.6375Z" fill="white"/>
</svg>
