<svg xmlns="http://www.w3.org/2000/svg" width="26" height="27" fill="none" viewBox="0 0 26 27"><path fill="#008cc6" d="M13.62.773c-2.016-.025-4.04.46-5.806 1.436-1.023.793-1.848 1.946-1.984 3.258-.071.587.061 1.21.432 1.683 1.22-1.442 2.829-2.566 4.63-3.166 2.288-.774 4.854-.7 7.088.215a10.43 10.43 0 0 1 5.354 4.94 10.6 10.6 0 0 1 .877 7.136 10.46 10.46 0 0 1-2.338 4.586c-.252.247-.162.636-.235.95 2.293-2.163 3.69-5.228 3.803-8.37a12.22 12.22 0 0 0-2.59-8.08c-1.769-2.268-4.381-3.877-7.226-4.39A12 12 0 0 0 13.62.773m-6.638 1.5a4 4 0 0 0-1.172.664c-1.178.942-2.082 2.287-2.306 3.791-.257 1.666.26 3.381 1.215 4.75 1.174 1.708 2.96 2.912 4.863 3.694 2.273.932 4.74 1.306 7.187 1.385l-3.433-4.567c-1.495-.042-2.942-.506-4.309-1.078-1.368-.606-2.722-1.395-3.639-2.602-.611-.798-.899-1.862-.634-2.845.327-1.293 1.27-2.31 2.228-3.192"/><path fill="#0ab4eb" d="M2.164 6.74c.42-.967 1.064-1.85 1.923-2.475-.772 1.01-1.283 2.23-1.357 3.501-.132 1.919.59 3.836 1.819 5.303 1.372 1.654 3.228 2.85 5.19 3.703 2.417 1.027 5.07 1.6 7.705 1.404l2.183 2.887-3.122 2.267c-3.484-.428-6.945-1.567-9.77-3.688-2.325-1.736-4.202-4.17-4.941-6.997-.514-1.938-.44-4.056.37-5.905"/><path fill="#85cef2" d="M.232 12.238c.04-1.539.366-3.123 1.21-4.435-.528 1.6-.675 3.33-.31 4.98.611 2.883 2.417 5.379 4.594 7.316 2.648 2.324 5.923 4.005 9.426 4.557l-3.258 1.949c-3.115-.963-6.022-2.708-8.147-5.191-2.182-2.53-3.573-5.816-3.515-9.176"/></svg>