<svg xmlns="http://www.w3.org/2000/svg" xml:space="preserve" viewBox="0 0 963.8 888.86"><path fill="#faf433" d="M117.227 0c-10.1 0-19.05 6.48-22.204 16.068L16.777 253.273h183.936L284.243 0Zm195.96 0L257.4 169.02h274.836c12.913 0 23.397-10.484 23.397-23.397V23.398C555.633 10.486 545.149 0 532.236 0ZM14.404 280.824l71.213 145.834s9.972 23.313 37.332 23.313H304.07c96.57 0 181.335 51.566 228.213 128.617 0 0 44.366 67.121 38.229 153.463 0 0 37.927-60.132 37.927-147.028 0-167.995-136.202-304.156-304.197-304.199zm349.203 204.088c34.18 20.328 57.149 57.49 57.149 100.149 0 59.706-44.918 108.886-102.834 115.662v188.025c116.173-6.307 172.256-66.268 172.256-66.268s73.77-66.95 42.574-175.964C489.794 510.78 363.607 484.912 363.607 484.912m-340.21 76.74c-12.913 0-23.354 10.484-23.354 23.397H0c0 163.35 128.788 296.527 290.39 303.814V700.711c-57.916-6.861-103.175-55.956-103.175-115.662 0-12.913-10.484-23.397-23.397-23.397zM694.074 215.69h50.612v-65.096h65.074v-50.63h-65.074V35.23h-50.612v64.734H629v50.63h65.074Zm204.654 37.61H963.8V.15h-54.228c-22.414 16.998-53.505 32.548-72.304 37.612v55.33c20.245-5.062 47.36-13.742 61.459-23.506Z"/></svg>