<svg xmlns="http://www.w3.org/2000/svg" viewBox="0 0 940.29 408.31"><path d="M304.234 12.726c.107-4.79 1.89-8.209 7.42-8.561h44.88c3.592 1.164 7.562 2.877 6.849 8.348v149.191c2.183 17.952 14.083 38.147 43.023 40.526 23.592-1.302 40.351-13.5 45.664-43.95V12.155c.635-3.24 1.016-6.585 7.42-7.42h42.24c7.013.845 7.186 4.849 7.99 8.561v156.398c-7.12 41.906-24.61 53.995-34.247 64.5-16.329 15.406-41.435 26.043-66.97 26.043-35.438 0-57.566-14.999-74.602-31.023-16.944-15.139-26.535-38.36-29.096-62.945zM528.9 66.265c6.053-24.462 7.143-31.915 29.352-49.847C575.142 4.128 594.695.93 613.64.862c29.645 1.906 54.341 10.134 78.897 29.85.913 2.912 1.355 5.745-.584 8.182l-19.87 30.39c-5.782 7.188-8.97 2.858-11.69 2.337-15.84-8.953-31.619-18.896-47.921-20.455-22.498-.554-25.171 13.074-25.715 17.533.502 13.6 10.711 19.497 20.05 26.119l40.73 17.937c20.576 10.4 35.636 23.457 43.247 40.1 10.666 21.664 10.89 43.502.448 64.744-21.228 33.562-45.956 39.433-65.319 41.036-45.447 3.303-68.787-7.635-89.684-22.968-6.015-4.02-8.413-7.183-6.16-12.097l19.87-33.896c5.883-5.26 7.865-.768 11.104.584 0 0 9.025 6.28 13.578 8.767 6.128 3.346 11.297 5.588 18.024 7.46 6.635 1.848 14.384 3.887 21.176 2.743 7.13-1.202 13.583-3.112 18.204-8.674 2.6-3.129 4.105-8.723 3.687-12.77-.797-7.717-5-14.147-10.383-19.734-7.697-7.987-21.461-13.163-31.34-18.209-11.338-5.792-18.712-9.772-29.44-15.103-27.088-13.46-38.337-52.733-35.65-68.473M758.232 248.285c-2.002 6.977-4.398 6.992-7.656 7.466h-43.35c-6.817-1.479-6.899-5.388-6.582-9.073l89.25-235.91c1.67-4.2 4.12-5.905 7.057-6.049h54.441zM803.346 201.356h34.19L880.881 86.67l-17.23-43.882zM882.227 247.123l-16.961-44.69 29.075-78.073 17.5 44.42zM906.725 255.929l19.115-50.265 15.076 40.652c1.46 6.318-.399 9.172-4.577 9.606zM132.492 408.86v-85.438c-35.184-7.364-45.76-35.64-46.41-56.768-4.253-5.824-5.321-6.363-7.96-6.363H8.608c-5.017 0-6.325 4.202-7.485 7.486 1.3 72.935 49.581 141.084 131.369 141.084M145.698 409.17v-85.68c27.09-5.34 46.905-22 46.905-53.792 0-20.455-15.492-35.019-25.735-45.245 37.294 12.02 77.425 41.065 80.113 98.377-1.61 58.88-50.859 82.548-101.283 86.34" style="fill:#fb2c32;fill-opacity:1;stroke:none" transform="translate(-1.123 -.862)"/><path d="M9.248 133.055h133.617s102.631-2.214 131.924 107.108c16.555 41.72-14.295 97.775-14.295 97.775 2.654-29.233-12.92-114.724-110.4-128.87H60.771c-7.8-.109-15.566-.354-20.54-11.765zM130.192 4.887 92.394 119.895H9.046L44.905 11.348c2.477-4.228 4.953-5.987 7.43-6.784zM117.916 81.774h125.669c6.025 0 10.334-3.258 10.334-8.224V13.286c0-6.388-4.451-8.426-9.042-8.4H144.083z" style="fill:#fb2c32;fill-opacity:1;stroke:none" transform="translate(-1.123 -.862)"/></svg>