<svg xmlns="http://www.w3.org/2000/svg" fill="none" viewBox="172.41 83.33 651.76 626.09"><g clip-path="url(#a)"><path fill="url(#b)" d="m191.978 356.971 120.13 21.398 64.824 87.731-74.861 63.398-62.195-3.648-24.49-35.953z"/><path fill="url(#c)" d="m486.573 250.655 22.796 144.547-15.657 37.657-192.444 195.278-6.51-12.75 92.889-158.25-103.472-149.759 10.954-50.88z"/><path fill="url(#d)" d="m497.647 89.9 14.093 318.462 78.713 81.269 101.435 45.176 44.861-104.408-168.75-226.055-32.963-87.241z"/><path fill="url(#e)" d="m817.146 353.113-68.592 13.315L561.35 214.779l-7.658-70.694h40.065z"/><path fill="#8d8484" d="m381.037 564.075-36.204 36.203 148.834-165.713-1.417 8.63z"/><path fill="url(#f)" d="m605.648 705.342-57.222-177.166-27.528 26.62 30.991 125.269z"/><path fill="url(#g)" d="m403.46 662.063 55.861-124.768 19.972 5.463 43.556 124.074-77.482 3.25z"/><path fill="url(#h)" d="m455.627 534.11 39.037-81.13 52.009 9.093-2.565 27.287z"/><path fill="url(#i)" d="m390.738 666.833 104.574-211.018-8.547-1.639-132.231 176.453z"/><path fill="#8d8484" d="m354.535 630.631-36.203 36.203 116.481-145.74-9.269 27.213z"/><path fill="url(#j)" d="m473.769 373.525 27.268 26.963-10.833 12.213-52.639-2.972 2.945-28.676z"/><path fill="url(#k)" d="m381.036 564.076 116.611-131.324-3.981 20.565L417.24 600.28l-26.602-4.019z"/><path fill="#f8f8f8" d="M484.84 261.408c-1.417 5.176-16.861 61.722-17.278 62.694-2.37 5.528-2.759 9.87-13.815 8.296-4.972-.713-136.074-38.981-138.555-39.648-3.167-.861-5.389 1.278-2.509 4.741 2.453 2.954 122.481 152.296 124.87 155.324 4.055 5.13 4.055 6.713 0 11.75-1.315 1.639-133.463 160.269-135.556 162.806-2.222 2.703-4.074 1.694-6.666-.334-1.769-1.389-118.371-92.694-121.121-95.296-1.861-1.75-2-3.222-1.648-7 .167-1.778 16.306-163.861 16.454-165.093.333-2.824 1.546-3.259 4.305-2.296 1.324.463 42.982 15.009 44.463 15.787 1.621.843 1.38 3.13 1.408 5.435.046 3.297 2.537 118.167 2.611 120.954.055 2.009.333 3.259 1.963 4.241 1.639.981 34.935 16.194 37.222 17.491 2.278 1.314 3.713 1.009 5.333-.139 1.63-1.139 68.213-53.093 68.991-53.695 4.741-3.657 3.852-5.231 1.389-8.991-1.287-1.953-150.963-191.351-151.87-193.055-2.371-4.445-2.519-5.769-.741-8.732 1.065-1.777 26.537-48.194 27.62-49.787 2.343-3.453 3.824-3.824 7.028-3.333 2.713.417 165.352 35.518 167.907 36.046 6.093 1.25 6.519-.537 6.519-4.592 0-4.056-2.167-117.084-2.704-145.315a6.21 6.21 0 0 1 6.213-6.324h46.315a6.21 6.21 0 0 1 6.176 5.537c4.065 37 16.5 156.092 17.398 161.787.639 4.092-.407 5.907-1.722 10.75z"/><path fill="#f8f8f8" d="M822.858 429.5c-1.111 1.731-116.074 196.166-117.593 197.833-3.343 3.657-5.361 3.426-9.398.602-2.593-1.824-124.315-101.556-125.648-102.639-4.834-3.972-6.074-2.982-8.926-.38-1.667 1.519-25.954 26.158-26.935 27.13-.963.981-1.945 2.204-.963 5.13.963 2.888 64.583 133.268 70.463 144.148 1.916 3.546 4.009 8.102-1.574 8.102H438.441c-5.009 0-5.787 0-9.194-4.454-1.167-1.519-24.186-37.074-25.297-38.945-1.416-2.379-1.111-4.824 1.778-5.416 2.398-.491 92.509-2.639 94.009-2.972 4.75-1.037 4.01-2.528 1.926-8.01-.583-1.537-45.241-110.592-45.676-111.824-1.065-3.055-.537-4.204 1.232-5.657 1.213-1 75.278-58.945 76.676-60.25 1.12-1.074 1-1.861-.482-2.111-1.454-.241-36.722-6.621-38.194-6.926-2.519-.519-3.037-1.778-3.185-4.158-.093-1.389-3.936-60.685-4.019-62.148-.306-5.491-.759-6.898 5.333-8.389 5.148-1.259 128.287-26.102 130.047-26.407 2.592-.445 4.379-.148 5.713 3.935.62 1.917 18.24 61.028 18.759 63.12.824 3.26.963 4.01-.889 5.862-1.231 1.231-37.148 34.324-38.232 35.453-2.472 2.611-1.462 4.065.63 5.334 1.75 1.064 59.676 36.416 62.445 38.027 2.037 1.186 3.638 1.223 4.407-.111 1.157-2 52.194-70.231 53.111-71.935 1.028-1.889.972-2.852-.046-4.092-1.639-2.028-192.222-204.945-216.019-231.417a12.1 12.1 0 0 1-3.028-6.722L497.635 89.898c-.407-3.5 2.334-6.565 5.852-6.565h43.852c3 0 5.935.796 8.519 2.306 44 25.694 215.592 125.888 218.185 127.814 2.935 2.204 3.611 4.204 4.463 6.26.611 1.472 38.898 127.453 39.426 129.222.602 2.055.981 6.954-4.852 2.139L570.969 152.259c-1.713-1.407-4.241.148-3.76 2.315 2.408 10.768 7.038 31.768 9.084 41.065a15.3 15.3 0 0 0 4.472 7.87c57.954 54.361 240.12 218.176 242.083 219.944 2.223 2.186 1.241 3.963 0 6.047z"/><path fill="#f8f8f8" d="m437.563 337.319-36.206 36.206 36.206 36.207 36.207-36.207zM381.039 564.068l-36.207 36.206 36.207 36.207 36.206-36.207zM354.532 630.627l-36.206 36.207 36.206 36.206 36.207-36.206z"/></g><defs><linearGradient id="b" x1="191.978" x2="376.932" y1="443.23" y2="443.23" gradientUnits="userSpaceOnUse"><stop offset=".26" stop-color="#867c7c"/><stop offset=".52" stop-color="#5e5656"/><stop offset=".89" stop-color="#3f3b3b"/></linearGradient><linearGradient id="c" x1="261.407" x2="450.295" y1="306.877" y2="495.766" gradientUnits="userSpaceOnUse"><stop offset=".34" stop-color="#867c7c"/><stop offset=".61" stop-color="#5e5656"/><stop offset=".96" stop-color="#3f3b3b"/></linearGradient><linearGradient id="d" x1="535.703" x2="636.017" y1="409.094" y2="244.798" gradientUnits="userSpaceOnUse"><stop stop-color="#3f3b3b"/><stop offset=".36" stop-color="#5e5656"/><stop offset=".67" stop-color="#867c7c"/></linearGradient><linearGradient id="e" x1="659.831" x2="718.303" y1="276.826" y2="212.316" gradientUnits="userSpaceOnUse"><stop stop-color="#3f3b3b"/><stop offset=".26" stop-color="#5e5656"/><stop offset=".5" stop-color="#867c7c"/></linearGradient><linearGradient id="f" x1="563.269" x2="563.269" y1="528.176" y2="705.342" gradientUnits="userSpaceOnUse"><stop stop-color="#3f3b3b"/><stop offset=".25" stop-color="#5e5656"/><stop offset=".72" stop-color="#867c7c"/></linearGradient><linearGradient id="g" x1="463.154" x2="463.154" y1="653.813" y2="538.563" gradientUnits="userSpaceOnUse"><stop offset=".07" stop-color="#867c7c"/><stop offset=".33" stop-color="#5e5656"/><stop offset=".73" stop-color="#3f3b3b"/></linearGradient><linearGradient id="h" x1="493.266" x2="519.007" y1="531.471" y2="454.536" gradientUnits="userSpaceOnUse"><stop offset=".2" stop-color="#867c7c"/><stop offset=".54" stop-color="#5e5656"/><stop offset=".9" stop-color="#3f3b3b"/></linearGradient><linearGradient id="i" x1="370.914" x2="510.469" y1="645.148" y2="471.018" gradientUnits="userSpaceOnUse"><stop stop-color="#867c7c"/><stop offset=".23" stop-color="#5e5656"/><stop offset=".96" stop-color="#3f3b3b"/></linearGradient><linearGradient id="j" x1="442.917" x2="496.621" y1="383.887" y2="416.488" gradientUnits="userSpaceOnUse"><stop offset=".23" stop-color="#867c7c"/><stop offset=".49" stop-color="#5e5656"/><stop offset=".92" stop-color="#3f3b3b"/></linearGradient><linearGradient id="k" x1="389.592" x2="508.944" y1="594.132" y2="444.641" gradientUnits="userSpaceOnUse"><stop offset=".09" stop-color="#867c7c"/><stop offset=".47" stop-color="#5e5656"/><stop offset=".96" stop-color="#3f3b3b"/></linearGradient><clipPath id="a"><path fill="#fff" d="M0 0h1000v1000H0z"/></clipPath></defs></svg>