<svg xmlns="http://www.w3.org/2000/svg" viewBox="15.63 6 28.87 48"><path fill="#fa9000" d="M34.13 48.03c-.07.03-.1.16-.05.33l.33.87c.2.53.52 1.15.97 1.46.47.34.72.22.82.18.07-.04.37-.22.26-.7a3 3 0 0 0-.27-.85c-.1-.18-.22-.3-.3-.27-.04 0 0 .18 0 .28 0 .2-.07.33-.23.4-.14.06-.48.18-.74-.28-.22-.38-.4-.87-.49-1.08-.06-.15-.16-.34-.26-.34zm-7.47 1.38 1.59 1.32 1.54-1.87-1.59-1.32zm.35-3.26 1.59 1.31 1.55-1.86-1.6-1.32zm10.14-4.6 1.87.88 1.03-2.2-1.86-.88zM27.5 40a12.75 12.75 0 0 0 3.36 4.63c.14-.97.3-1.65.44-2.13-1.4-1-2.4-2.1-3.05-3.18zm3.54-2.35 1.86.88 1.04-2.2-1.87-.88zm-9-8.75s-1.17.83-1.64 1.92a2.4 2.4 0 0 0-.1 1.75c.16.35.55.68 1.06.28.35-.28.5-.68.58-1.01.05-.2.06-.33.06-.43 0-.12-.04-.22-.15-.2-.34.11-.14.57-.38.79-.18.1-.66.05-.75-.42-.1-.47.27-1.07.6-1.47.32-.4.9-.92.9-.92s.4-.34.27-.51l-.04-.01c-.12 0-.41.23-.41.23m11.46-1.2-1.44 1.57-1.24 1.35c-.27.3-.41.6-.38.76l.17.82c.04-.15.22-.43.4-.64.14-.15.8-.89 1.45-1.58l1.23-1.35c.27-.3.41-.6.38-.76l-.17-.81c-.04.15-.21.42-.4.64M17.97 39.53c.22-.72.64-1.37 1.35-1.78 1.18-.55 1.64.86 1.64.86-.08.95-.8 1.45-1.61 1.45-.47 0-.98-.17-1.38-.53m8.75-22.88a1.45 1.45 0 1 0 1.16 2.38l.03-.04c.17 1.16-.38 2.08-1.67 3.15-1.31 1.12-4.4 2.56-6.58 4.3a9.8 9.8 0 0 0-3.68 10.51 14 14 0 0 0 .86 2.44 14.3 14.3 0 0 0 .87 5.79c1.08 2.42 3.01 4.4 5.79 3.82 2.8-.66 3.12-5.22 3.43-8.55.09-.55.17-.65.34-.79.45-.38 1.54-1.4 2.06-1.86.32-.29.6-.57.79-.94.23-.44.1-1.02.1-1.02l-.3-2.2c-.09.31-.47.75-1 1.29-.56.56-2.05 1.84-2.19 1.98-.13.14-.61.5-.82 2.17-.54 4.55-1.43 6.7-3.04 7.43-.43.2-.9.3-1.43.3-2.95-.02-3.73-3.62-3.72-5.59 0-.12 0-.24.02-.34.68.92 1.7 1.84 2.94 1.65 2-.3 1.37-3.67 1.08-4.45-.28-.78-1.05-3.13-2.72-3.01-1.18.08-1.73 1.47-1.99 2.64a9.5 9.5 0 0 1-.27-2.86c.17-2.04.87-4.58 3.83-7.08 2.1-1.78 4.5-3.06 5.82-4.1a5.35 5.35 0 0 0 1.66-2.12 9.6 9.6 0 0 1-.57 2.27c-1.23 3.23-4.95 8.57-5 16.1 0 2.32.22 4.32.59 6.03.2-.13.39-.32.57-.53-.26-1.23-.4-2.58-.4-4.03 0-7.52 3.69-12.84 4.89-16.07.63-1.7.65-2.93.65-4.15 0-1.5-.34-3.07-.65-3.68-.34-.58-.75-.84-1.38-.84zm3.63-10.3c-.74.51-1.36 1.7-1.36 3.5 0 1.1.32 2.43 1.17 3.92-1.15 1.56-1.36 3-.87 4.38.37 1.05.56 1.32.73 1.95.42 1.6-.05 3.5-1.3 6.46-1.02 2.4-2.35 4.92-2.35 7.98 0 .7.07 1.39.17 2.06.11-.12.37-.35.67-.64-.15-2.4.8-4.81 1.98-6.98 1.7-3.17 1.92-6.39 1.59-8.15 1.2 1.28 3.22 3.2 4.4 5.16.4.66.64 1.29.7 1.93a5.04 5.04 0 0 1-1.39 3.76c-.8.92-.53 1.73-.5 1.9.07.25.4 1.26.63 1.91.9-1.75 3.36-2.73 4.48-4.19.25 1.8-1.1 3.5-2.1 4.64-.23.26-.5.52-.79.8-1.9 1.82-3.14 3.06-3.8 4.22-.16.26-.44.83-.57 1.27-.2.56-.44 1.5-.65 3.15a76 76 0 0 0-.39 2.66c-.13 1.19-.48 3.06-1.94 3.6-.07.03-.15.05-.23.06v.01c-1.39.3-2.8-.86-3.83-2.94-.22.16-.45.3-.7.42 1.4 3.3 3.5 4.81 5.33 4.81 1.4 0 2.5-.7 2.85-2.75.18-1.03.31-2.18.43-3.29.06-.53.32-3.55.8-4.65.6-1.23 1.92-2.41 3.88-4.43 1.2-1.25 1.87-2.3 2.21-3.14 1.14-2.08-.27-7.04-.55-7.94 0-.03 0-.04-.03-.04-.02 0-.03.01-.05.05l-.01.02c-.5.82-1.4 1.57-2.25 2.18.48-1.29.35-2.27.16-3.1l-.04-.15c-.85-3.29-4.21-6.22-5.73-7.9-1.98-2.2-1.3-3.6-.58-4.5l.44.63c2.69 3.64 7.74 9.41 10.4 14.91a18.4 18.4 0 0 1 1.46 4.06c1.05 5.7-2.93 11.49-8.9 9.86l-.11-.03c-.16.5-.31 1.31-.46 2.41.9.39 1.88.62 2.83.66h.21c4.9.06 8.73-3.6 8.03-11.3 0 0-.3-3.2-1.95-6.58-2.65-5.92-7.56-11.78-10.57-15.57a10 10 0 0 1-1.8-3.14c-.56-1.75-.2-3.11.52-3.7.16-.13.35-.28.53-.37.1-.06.06-.18-.01-.2h-.07c-.1 0-.3.05-.72.34zm-5.5 12.8c-.8.02-1.44.69-1.41 1.5a1.45 1.45 0 1 0 2.9-.1 1.45 1.45 0 0 0-1.45-1.4h-.05z"/></svg>