<svg xmlns="http://www.w3.org/2000/svg" viewBox="0 0.79 148 67.21"><title>Clipart/logos/asharq/combo (arabic, english, no-emblem)</title><g fill="none" fill-rule="evenodd"><path d="M0 0h148v57.093H0z"/><path fill="#c62326" d="M131.306 1.763V47.81H122.2a15.2 15.2 0 0 1-10.374-3.057 11.86 11.86 0 0 1-9.254 3.322 11.63 11.63 0 0 1-9.67-4.153 11.46 11.46 0 0 1-9.612 4.153 13.19 13.19 0 0 1-9.93-3.515 13.66 13.66 0 0 1-9.105 3.2c-1.18 6.806-4.934 10.752-15.456 10.752h-1.842v-8.857h1.846c3.5 0 4.9-1.32 4.9-9.821v-23.64h11.04v22.75h1.758c2.03 0 3.857-.616 3.857-3.54v-19.21h11.042v19.105c0 3.008 1.052 3.889 2.806 3.889s2.806-.877 2.806-3.889V16.194h11.034v19.122c0 2.993 1.054 3.872 2.808 3.872s2.806-.877 2.806-3.889V16.194h11.031v19.201c0 2.929 1.846 3.54 3.858 3.54h1.759V1.763zM46.17 16.193v20.98c0 16.816-9.633 21.337-21.726 21.337C9.023 58.51 0 52.05 0 38.334v-10.63h11.036v8.56c0 10.621 5.082 13.364 13.502 13.364 4.396 0 7.633-.697 9.287-3.78h-.968c-10.34-.304-16.3-4.873-16.3-14.425 0-10.893 7.358-15.23 17.002-15.23zM148 1.772v46.031h-11.044V1.772zM35.137 24.957h-1.746c-4.035 0-5.793 2.48-5.793 6.114l-.01-.015c0 4.35 1.758 6.114 5.793 6.114h1.756zM75.614.852c3.44 0 6.23 2.798 6.232 6.25s-2.784 6.254-6.224 6.259h-.016c-3.44-.005-6.225-2.806-6.223-6.259.002-3.452 2.791-6.25 6.231-6.25m30.517.41a6.24 6.24 0 0 1 6.82 1.384 6.3 6.3 0 0 1 1.332 6.854 6.26 6.26 0 0 1-5.804 3.853v-.01c-3.443-.018-6.225-2.825-6.225-6.281a6.28 6.28 0 0 1 3.877-5.8m-16.737 0a6.24 6.24 0 0 1 6.822 1.387 6.3 6.3 0 0 1 1.325 6.857 6.26 6.26 0 0 1-5.809 3.847v-.01c-3.44-.023-6.217-2.828-6.217-6.281a6.28 6.28 0 0 1 3.88-5.8m-51.326 0A6.24 6.24 0 0 1 44.89 2.65a6.3 6.3 0 0 1 1.325 6.857 6.26 6.26 0 0 1-5.809 3.847v-.01c-3.44-.023-6.217-2.828-6.217-6.281a6.28 6.28 0 0 1 3.88-5.8m-15.266 0a6.24 6.24 0 0 1 6.82 1.384 6.3 6.3 0 0 1 1.33 6.854 6.26 6.26 0 0 1-5.803 3.853v-.01c-3.443-.018-6.225-2.825-6.225-6.281a6.28 6.28 0 0 1 3.878-5.8"/><path d="M65.34 54.558H148V68H65.34z"/><path fill="#c62326" d="M109.514 57.93V68h-2.477v-3.112h-.672c-2.557-.06-3.851-1.2-3.851-3.38 0-3.114 2.522-3.579 4.016-3.579zm-16.708.044q.662-.015 1.311.104c.317.056.621.171.896.34a2.14 2.14 0 0 1 1.017 1.972v3.463l-.004-.012a4 4 0 0 0-.048.688.74.74 0 0 0 .14.312h-2.266a.5.5 0 0 1-.091-.216 3 3 0 0 1-.092-.44v-.104h-.167v.09a2.04 2.04 0 0 1-.83.672c-.37.148-.765.221-1.162.216a2.7 2.7 0 0 1-.888-.133c-.25-.076-.484-.2-.688-.364a1.7 1.7 0 0 1-.448-.611 2 2 0 0 1-.167-.832 1.9 1.9 0 0 1 .192-.904 1.66 1.66 0 0 1 .506-.589c.234-.157.492-.275.764-.348a5.6 5.6 0 0 1 .946-.175q.459-.037.912-.124.316-.048.61-.167a.83.83 0 0 0 .365-.233.6.6 0 0 0 .104-.348.74.74 0 0 0-.855-.788.95.95 0 0 0-.727.265 1.2 1.2 0 0 0-.29.564H89.64c.017-.287.086-.569.203-.831a2.15 2.15 0 0 1 .589-.756 2.9 2.9 0 0 1 .979-.52 4.7 4.7 0 0 1 1.394-.19m-16.018-.02a4.15 4.15 0 0 1 2.333.54c.467.3.772.796.83 1.348h-2.177a.66.66 0 0 0-.348-.5 1.46 1.46 0 0 0-1.18 0 .54.54 0 0 0-.282.5c-.005.128.05.25.149.332q.154.127.348.183.228.07.464.104l.555.084.947.175q.467.099.88.34c.267.177.485.412.639.689.187.33.276.708.256 1.087a1.9 1.9 0 0 1-.248 1.005 2.1 2.1 0 0 1-.68.696 3.2 3.2 0 0 1-1.046.408 6 6 0 0 1-1.311.103 5.5 5.5 0 0 1-1.378-.156 3.2 3.2 0 0 1-1.055-.457 2.1 2.1 0 0 1-.68-.727 2 2 0 0 1-.232-.872h2.205c.027.246.142.473.323.64.234.189.53.283.83.265.237.009.472-.045.68-.157a.6.6 0 0 0 .312-.556.55.55 0 0 0-.183-.432 1.2 1.2 0 0 0-.407-.232 4 4 0 0 0-.548-.125l-.647-.103a8 8 0 0 1-.83-.176 2.5 2.5 0 0 1-.772-.323 1.85 1.85 0 0 1-.548-.612 2 2 0 0 1-.203-.987c-.006-.31.074-.614.232-.88.16-.265.378-.49.64-.656.294-.19.62-.328.962-.408a4.9 4.9 0 0 1 1.17-.14m67.772 0a4.15 4.15 0 0 1 2.333.54c.467.3.772.796.83 1.348h-2.178a.66.66 0 0 0-.348-.5 1.46 1.46 0 0 0-1.178 0 .54.54 0 0 0-.283.5c-.006.128.05.25.148.332q.151.128.34.183.233.07.473.104l.555.084.971.175q.467.102.88.34c.262.164.481.39.639.656.183.336.272.713.256 1.092a1.9 1.9 0 0 1-.248 1.004c-.17.282-.402.52-.68.697a3.3 3.3 0 0 1-1.046.407 6 6 0 0 1-1.295.132 5.5 5.5 0 0 1-1.378-.156 3.2 3.2 0 0 1-1.054-.457 2.1 2.1 0 0 1-.68-.727 2 2 0 0 1-.232-.872h2.172c.022.244.133.472.311.64.235.187.53.282.83.265.24.01.477-.045.689-.157a.6.6 0 0 0 .311-.556.57.57 0 0 0-.183-.432 1.2 1.2 0 0 0-.407-.232 4 4 0 0 0-.556-.125l-.64-.103a8 8 0 0 1-.83-.176 2.3 2.3 0 0 1-.771-.323 1.8 1.8 0 0 1-.548-.612 2 2 0 0 1-.215-.987 1.7 1.7 0 0 1 .232-.88c.162-.266.384-.49.647-.656.295-.19.62-.328.963-.408a4.9 4.9 0 0 1 1.17-.14m-20.16-.122a4 4 0 0 1 1.425.24c.4.156.769.384 1.087.672l.018.004c.429.395.75.892.935 1.444a5.4 5.4 0 0 1 .264 1.785h-5.038v.142c.059.38.226.733.48 1.019.274.26.641.398 1.018.38a1.14 1.14 0 0 0 1.047-.519h2.29a2.4 2.4 0 0 1-.408.727 3.4 3.4 0 0 1-.83.748 3 3 0 0 1-.995.44 4.7 4.7 0 0 1-1.187.132 4.2 4.2 0 0 1-1.527-.264 3.4 3.4 0 0 1-1.178-.748 3.3 3.3 0 0 1-.756-1.14 4.06 4.06 0 0 1 0-2.891c.171-.426.425-.814.747-1.14a3.3 3.3 0 0 1 1.14-.756c.467-.187.966-.28 1.468-.275m-52.053-3.19v10.404h-2.49V61.38h-2.074v3.666H65.34v-6.909c.041-3.047 2.54-3.495 4.043-3.495zm59.515 3.395v4.298a.83.83 0 0 0 1.66 0v-4.298h2.627v4.298h-.05a.83.83 0 0 0 1.658 0v-4.298h2.594v3.569a3.413 3.413 0 0 1-3.404 3.406 3.3 3.3 0 0 1-2.05-.697l-.075-.049-.075.05a3.393 3.393 0 0 1-5.478-2.7v-3.579zm-47.939-3.479v3.439h.14a3.7 3.7 0 0 1 .672-.068 3.4 3.4 0 0 1 2.449.985A3.43 3.43 0 0 1 88.2 61.35v3.585h-2.606V60.62a.831.831 0 1 0-1.659 0v4.327H81.33V54.558zm17.691 3.738v1.727h-.52c-.696 0-1.261.566-1.261 1.263v3.652h-2.49l.002-3.719a2.93 2.93 0 0 1 2.921-2.923zm13.41-3.524 2.093 4.667v-4.665h2.442v10.083l-2.454-.002-2.075-4.626v4.626h-2.442l-.006-10.083zM93.8 61.647l-.184.091q-.197.098-.407.167l-.555.15a1.94 1.94 0 0 0-.831.323.75.75 0 0 0-.24.58.69.69 0 0 0 .299.612c.186.117.403.178.623.175a1.4 1.4 0 0 0 .88-.3c.288-.246.44-.617.406-.996zm12.66-1.831a1.424 1.424 0 0 0-1.526 1.603c0 1.114.472 1.603 1.527 1.603h.547v-3.206Zm17.966-.48a1.2 1.2 0 0 0-.934.382 2.07 2.07 0 0 0-.448.971v.15h2.677v-.141a1.83 1.83 0 0 0-.423-.988 1.14 1.14 0 0 0-.872-.373M69.3 56.529a1.37 1.37 0 0 0-1.51 1.32v1.792h2.073l-.016-3.112Z"/></g></svg>