<svg xmlns="http://www.w3.org/2000/svg" viewBox="0 0 991.71 219.41"><path fill="#fff" d="M12.272 161.926v20.99H0v-57.725h21.071q11.383 0 17.48 4.765 6.095 4.764 6.096 13.644a16.36 16.36 0 0 1-10.415 15.983q3.633 5.733 7.185 11.505a666 666 0 0 1 7.105 11.827h-14.29a573 573 0 0 0-12.029-20.99zm0-9.769h8.074q5.73 0 8.72-2.058 2.985-2.062 2.986-6.499 0-4.442-2.947-6.542-2.948-2.098-8.679-2.098h-8.154zm84.85 30.758q-2.1-6.374-4.198-12.512H69.511q-2.1 6.215-4.198 12.512h-13.32a1128 1128 0 0 1 11.182-29.63 1105 1105 0 0 1 11.504-28.094h13.402q5.972 14.37 11.666 28.864a1616 1616 0 0 1 11.02 28.861H97.123ZM73.063 160.07h16.228a560 560 0 0 0-3.996-11.262q-2.059-5.61-4.077-11.02-4.2 11.059-8.155 22.282m44.727-34.878h22.04q9.123 0 15.623 3.39a22.9 22.9 0 0 1 9.889 9.811q3.39 6.416 3.39 15.539 0 9.124-3.43 15.622a23.35 23.35 0 0 1-9.89 9.931q-6.46 3.435-15.662 3.43h-21.96zm21.314 47.07q8.07 0 12.392-4.725 4.317-4.72 4.319-13.604 0-8.796-4.238-13.441-4.24-4.644-12.392-4.641h-8.962v36.41zm39.477-47.07h12.432v57.725h-12.432zm50.943-1.211a31.8 31.8 0 0 1 11.827 2.1 25.26 25.26 0 0 1 9.043 6.014 26.7 26.7 0 0 1 5.773 9.445 39.44 39.44 0 0 1 0 24.907 27 27 0 0 1-5.773 9.525 25 25 0 0 1-9.043 6.057 34.4 34.4 0 0 1-23.655 0 25 25 0 0 1-9.041-6.057 27 27 0 0 1-5.773-9.525 39.44 39.44 0 0 1 0-24.907 26.6 26.6 0 0 1 5.773-9.445 25.2 25.2 0 0 1 9.041-6.014 31.8 31.8 0 0 1 11.828-2.1m0 49.328c2.99.081 5.938-.718 8.477-2.3a14.5 14.5 0 0 0 5.41-6.579 30.15 30.15 0 0 0 0-20.829 14.23 14.23 0 0 0-5.41-6.542 17.03 17.03 0 0 0-16.953 0 14.2 14.2 0 0 0-5.41 6.542 30.12 30.12 0 0 0 0 20.83 14.46 14.46 0 0 0 5.41 6.579 15.26 15.26 0 0 0 8.476 2.3M0 36.608v73.177h73.176V36.608Zm51.03 51.643a11.96 11.96 0 0 1-5.345 4.087 21.7 21.7 0 0 1-8.339 1.44H20.947V52.614h15.447q6.83 0 10.579 2.734a9.14 9.14 0 0 1 3.75 7.859 9.45 9.45 0 0 1-1.343 5.095 9.26 9.26 0 0 1-3.974 3.425 10.97 10.97 0 0 1 5.569 3.829 10.43 10.43 0 0 1 1.93 6.362 10.67 10.67 0 0 1-1.874 6.332M40.565 68.13a4.83 4.83 0 0 0 1.707-3.944q0-4.893-6.661-4.893h-6.324v10.248h6.324a7.6 7.6 0 0 0 4.954-1.411m-3.89 7.859h-7.388v11.11h7.277a10 10 0 0 0 5.765-1.41 4.65 4.65 0 0 0 2.014-4.058q0-5.643-7.668-5.642m54.797-39.38v73.176h73.176V36.608ZM142.5 88.25a11.96 11.96 0 0 1-5.345 4.087 21.7 21.7 0 0 1-8.34 1.44h-16.398V52.614h15.447q6.827 0 10.578 2.734a9.14 9.14 0 0 1 3.75 7.859 9.45 9.45 0 0 1-1.343 5.095 9.26 9.26 0 0 1-3.974 3.425 10.97 10.97 0 0 1 5.57 3.829 10.43 10.43 0 0 1 1.93 6.362 10.67 10.67 0 0 1-1.875 6.332M132.035 68.13a4.83 4.83 0 0 0 1.706-3.944q0-4.893-6.66-4.893h-6.325v10.248h6.325a7.6 7.6 0 0 0 4.954-1.411m-3.89 7.859h-7.388v11.11h7.276a10 10 0 0 0 5.765-1.41 4.65 4.65 0 0 0 2.015-4.058q0-5.643-7.668-5.642m54.796 33.796h73.176V36.608h-73.176zm52.556-18.616a24 24 0 0 1-5.926 2.229 30 30 0 0 1-7.089.818 25.8 25.8 0 0 1-8.889-1.44 17.5 17.5 0 0 1-10.864-10.778 25.3 25.3 0 0 1-1.453-8.83 23.6 23.6 0 0 1 1.511-8.662 18.5 18.5 0 0 1 4.358-6.63 19.2 19.2 0 0 1 6.827-4.232 25.7 25.7 0 0 1 8.918-1.468 28.7 28.7 0 0 1 6.478.706 24 24 0 0 1 5.664 2.06v8.013a19 19 0 0 0-5.17-2.398 20.8 20.8 0 0 0-5.869-.818 15.3 15.3 0 0 0-7.233 1.58 10.82 10.82 0 0 0-4.59 4.57 15.3 15.3 0 0 0-1.598 7.278 15.9 15.9 0 0 0 1.54 7.308 10.5 10.5 0 0 0 4.473 4.599 14.83 14.83 0 0 0 7.117 1.58 22.05 22.05 0 0 0 11.794-3.33v7.845z"/><path fill="#c100bb" d="M412.095 94.564a5807 5807 0 0 0-10.203-28.033 2552 2552 0 0 0-20.409 56.683h40.614q-4.848-14.37-10.002-28.65M402.295 0c-44.37 0-84.373 26.729-101.352 67.722-16.98 40.992-7.591 88.176 23.784 119.551s78.559 40.763 119.551 23.784C485.271 194.077 512 154.075 512 109.704 512 49.116 462.884 0 402.296 0m-45.563 105.962a2836 2836 0 0 1 28.794-71.47h33.54a4074 4074 0 0 1 53.571 138.118h-33.794a2899 2899 0 0 0-7.653-23.106h-58.598c-2.543 7.654-5.084 15.382-7.626 23.106h-33.082a2935 2935 0 0 1 24.848-66.648M836.208 119.227q-7.11 0-12.905 2.283-5.707 2.283-9.834 6.586-4.038 4.214-6.234 10.271-2.195 5.97-2.195 13.521 0 7.463 2.195 13.521t6.234 10.36q4.127 4.302 9.834 6.583 5.794 2.284 12.905 2.285 7.111-.001 12.818-2.285 5.794-2.281 9.834-6.583 4.126-4.301 6.321-10.36 2.196-6.058 2.195-13.52 0-7.552-2.195-13.522-2.194-6.058-6.321-10.271-4.04-4.302-9.834-6.586-5.707-2.283-12.818-2.283m-287.375 1.318v62.775h12.994v-43.372a1390 1390 0 0 1 13.87 21.422 2271 2271 0 0 1 13.874 21.95h13.695v-62.775h-12.994v42.932a1248 1248 0 0 0-13.783-21.598q-6.849-10.711-13.96-21.334zm66.027 0v62.775h44.863V172.08h-31.342V156.63h26.34V145.39h-26.34v-13.607h29.675v-11.238zm47.415 0v11.764h19.754v51.01h13.52v-51.01h19.754v-11.764zm55.842 0a1089 1089 0 0 0 7.815 31.695q4.126 15.716 8.604 31.08h14.311a1432 1432 0 0 0 11.237-42.495 2836 2836 0 0 0 5.532 21.247 2873 2873 0 0 0 5.882 21.248h14.311a1203 1203 0 0 0 8.604-31.08 1089 1089 0 0 0 7.813-31.695H787.74a857 857 0 0 1-4.565 23.88 1178 1178 0 0 1-5.093 23.529 3115 3115 0 0 1-5.706-22.3q-2.722-11.238-5.357-22.475h-13.17a1923 1923 0 0 1-11.148 45.742 859 859 0 0 1-5.18-23.968 1193 1193 0 0 1-4.654-24.408zm158.22 0v62.775h13.344v-22.827h10.799a623 623 0 0 1 13.082 22.827h15.54a618 618 0 0 0-7.727-12.82 904 904 0 0 0-7.813-12.554q5.444-2.371 8.34-6.761 2.985-4.39 2.985-10.623 0-9.657-6.672-14.837-6.585-5.18-18.964-5.18zm58.739 0v62.775h13.521v-27.043h3.248q6.058 7.025 11.588 13.61a904 904 0 0 1 11.063 13.433h17.21q-7.2-8.604-14.312-16.77a1241 1241 0 0 0-14.224-16.419 2505 2505 0 0 0 13.257-14.748q6.497-7.375 12.82-14.838h-16.244a506 506 0 0 1-10.183 12.116q-5.092 5.882-10.711 12.204h-3.512v-24.32zm-98.868 10.447q5.355 0 9.218 2.458 3.863 2.46 5.882 7.112 2.02 4.654 2.021 11.326t-2.02 11.325q-2.02 4.653-5.883 7.2-3.862 2.457-9.218 2.458-5.355 0-9.218-2.459-3.863-2.546-5.882-7.2-2.02-4.651-2.02-11.324 0-6.672 2.02-11.326t5.882-7.112q3.864-2.458 9.218-2.458m53.473.176h8.867q6.232 0 9.394 2.282 3.249 2.282 3.25 7.112-.001 4.829-3.25 7.111-3.25 2.196-9.482 2.197h-8.779zM634.965 35.491q-7.638 0-13.17 2.37-5.53 2.284-8.604 6.586-2.985 4.303-2.984 10.272 0 4.215 1.405 7.287 1.405 2.985 4.126 5.18 2.722 2.108 6.673 3.688t9.13 2.809q3.162.79 5.707 1.756 2.546.879 4.04 2.459 1.579 1.492 1.578 4.213 0 3.6-3.16 5.62-3.072 2.02-9.042 2.02-10.536 0-19.931-5.707V96.16a39.3 39.3 0 0 0 9.658 3.6q5.093 1.14 10.273 1.14 8.164 0 13.959-2.282 5.795-2.371 8.868-6.761 3.073-4.478 3.072-10.711 0-4.74-1.669-7.99a13.9 13.9 0 0 0-4.565-5.356q-2.896-2.106-6.76-3.423a88 88 0 0 0-8.34-2.547q-3.512-.878-6.146-1.755-2.546-.965-3.951-2.37-1.405-1.493-1.405-3.952 0-3.424 2.898-5.268 2.985-1.844 8.34-1.843 4.917 0 9.746 1.317 4.917 1.317 8.78 3.688v-11.94q-3.863-1.933-8.692-3.074a42.6 42.6 0 0 0-9.834-1.142m-67.168 1.317q-6.322 14.839-12.556 30.555a1339 1339 0 0 0-12.114 32.22h14.485a3689 3689 0 0 1 4.567-13.608h25.46q2.282 6.673 4.566 13.609h14.836a1489 1489 0 0 0-12.028-31.344 1467 1467 0 0 0-12.642-31.432zm97.375 0v62.776h13.52V36.808Zm44.079 0q-6.322 14.839-12.556 30.555a1339 1339 0 0 0-12.116 32.22h14.486q2.283-6.848 4.565-13.608h25.462q2.283 6.673 4.565 13.609h14.838a1489 1489 0 0 0-12.028-31.344 1467 1467 0 0 0-12.642-31.432Zm45.13 0v62.776h12.994V56.212q6.848 10.36 13.873 21.422a2271 2271 0 0 1 13.87 21.95h13.698V36.808h-12.994v42.933a1248 1248 0 0 0-13.785-21.598 1211 1211 0 0 0-13.959-21.335zM574.908 50.506a908 908 0 0 1 4.39 12.028 432 432 0 0 1 4.39 12.204H566.04a1082 1082 0 0 1 8.868-24.232m141.454 0a908 908 0 0 1 4.39 12.028 431 431 0 0 1 4.388 12.204h-17.646a1082 1082 0 0 1 8.868-24.232"/></svg>