<svg xmlns="http://www.w3.org/2000/svg" viewBox="0 0 1000 561.7"><path d="M.003 556.731h167.705v-42.008H50.538v-57.761h98.457v-42.008H50.538V364.08h110.928v-42.008H0Zm321.3-3.775a71.3 71.3 0 0 0 33.148-25.27 68.26 68.26 0 0 0 11.49-39.877 66.4 66.4 0 0 0-6.073-29.863 54 54 0 0 0-17.066-20.02 101.2 101.2 0 0 0-25.436-12.964q-14.44-5.086-31.178-9.352-13.128-3.279-22.808-6.73a38.34 38.34 0 0 1-14.934-8.857 20.08 20.08 0 0 1-5.251-14.606 21.94 21.94 0 0 1 10.996-19.695q10.99-6.892 31.012-6.892a139.8 139.8 0 0 1 36.595 4.923 124 124 0 0 1 32.653 13.784v-44.634a149.7 149.7 0 0 0-32.488-11.487 159.5 159.5 0 0 0-36.76-4.266 126.6 126.6 0 0 0-49.228 8.695 72.2 72.2 0 0 0-32 24.78 65 65 0 0 0-11.325 38.402 64 64 0 0 0 5.248 27.074 52.66 52.66 0 0 0 15.425 19.363 99.6 99.6 0 0 0 24.949 13.946 244 244 0 0 0 34.132 10.502 220 220 0 0 1 21.332 6.402 41 41 0 0 1 15.26 9.189 21.53 21.53 0 0 1 5.747 15.916 23.72 23.72 0 0 1-11.652 21.004q-11.655 7.554-33.97 7.551a141.14 141.14 0 0 1-74.501-21.332v45.29a146.2 146.2 0 0 0 36.266 13.456 173 173 0 0 0 38.236 4.263 140.1 140.1 0 0 0 52.182-8.695m199.862 0a71.3 71.3 0 0 0 33.15-25.27 68.26 68.26 0 0 0 11.487-39.877 66.4 66.4 0 0 0-6.07-29.863 54 54 0 0 0-17.069-20.02 101.2 101.2 0 0 0-25.436-12.964q-14.44-5.086-31.178-9.352-13.128-3.279-22.805-6.73a38.34 38.34 0 0 1-14.937-8.857 20.08 20.08 0 0 1-5.251-14.606 21.94 21.94 0 0 1 10.999-19.695q10.987-6.892 31.01-6.892a139.8 139.8 0 0 1 36.594 4.923 124 124 0 0 1 32.656 13.784v-44.634a149.7 149.7 0 0 0-32.49-11.487 159.5 159.5 0 0 0-36.76-4.266 126.6 126.6 0 0 0-49.23 8.695 72.2 72.2 0 0 0-31.993 24.78 65 65 0 0 0-11.324 38.402 64 64 0 0 0 5.248 27.074 52.66 52.66 0 0 0 15.425 19.363 99.6 99.6 0 0 0 24.942 13.95 244 244 0 0 0 34.132 10.502 220 220 0 0 1 21.332 6.398 41 41 0 0 1 15.263 9.189 21.53 21.53 0 0 1 5.744 15.919 23.72 23.72 0 0 1-11.652 21.004q-11.655 7.554-33.969 7.548a141.1 141.1 0 0 1-74.496-21.332v45.29a146.2 146.2 0 0 0 36.263 13.456 173 173 0 0 0 38.233 4.266 140.1 140.1 0 0 0 52.182-8.698m73.515 3.775h167.708v-42.008h-117.17v-57.761h98.46v-42.008h-98.46V364.08h110.93v-42.008H594.68Zm405.32 0q-19.376-30.843-39.717-61.371-20.348-30.525-41.349-60.715 19.363-27.89 37.908-56.124 18.534-28.224 36.591-56.448h-58.746q-10.833 19.691-22.317 38.892-11.49 19.197-23.301 37.576-12.15-18.704-23.464-37.908-11.324-19.197-22.155-38.56h-60.058q17.722 28.227 36.429 56.777 18.707 28.555 38.398 56.448-21.66 30.522-41.683 60.715-20.02 30.203-39.708 60.718h58.746q11.815-21.66 24.942-43.32 13.118-21.661 27.24-43.322 13.784 21.339 26.912 42.993 13.118 21.66 25.27 43.65z" style="fill:#9647e6;stroke-width:3.12561536"/><path fill="#fff" d="M89.765.003v234.421h234.42V.004Zm162.303 165.439a38.3 38.3 0 0 1-17.122 13.09 69.6 69.6 0 0 1-26.714 4.61h-52.536V51.282h49.485q21.873 0 33.888 8.758a29.27 29.27 0 0 1 12.015 25.174 30.26 30.26 0 0 1-4.304 16.322 29.64 29.64 0 0 1-12.73 10.974 35.15 35.15 0 0 1 17.84 12.265 33.4 33.4 0 0 1 6.186 20.379 34.2 34.2 0 0 1-6.008 20.285zm-33.528-64.463a15.48 15.48 0 0 0 5.47-12.633q0-15.672-21.339-15.675h-20.26v32.828h20.26a24.35 24.35 0 0 0 15.869-4.52m-12.462 25.174h-23.667v35.594h23.308a31.97 31.97 0 0 0 18.469-4.52 14.9 14.9 0 0 0 6.454-13.002q0-18.069-24.564-18.072M382.791 0v234.421h234.421V0Zm162.304 165.439a38.3 38.3 0 0 1-17.122 13.09 69.6 69.6 0 0 1-26.715 4.61h-52.535V51.282h49.484q21.874 0 33.888 8.758a29.27 29.27 0 0 1 12.015 25.174 30.26 30.26 0 0 1-4.304 16.322 29.64 29.64 0 0 1-12.73 10.974 35.15 35.15 0 0 1 17.84 12.265 33.4 33.4 0 0 1 6.186 20.379 34.2 34.2 0 0 1-6.007 20.285m-33.529-64.46a15.48 15.48 0 0 0 5.47-12.633q0-15.672-21.338-15.675h-20.26v32.828h20.26a24.35 24.35 0 0 0 15.868-4.52m-12.461 25.174h-23.668v35.594h23.308a31.97 31.97 0 0 0 18.47-4.52 14.9 14.9 0 0 0 6.454-13.002q0-18.069-24.564-18.072m176.712 108.268H910.24V0H675.817Zm168.365-59.637a76.5 76.5 0 0 1-18.985 7.14 96 96 0 0 1-22.708 2.622 82.8 82.8 0 0 1-28.474-4.61 58.2 58.2 0 0 1-21.407-13.284 57.6 57.6 0 0 1-13.4-21.242 81 81 0 0 1-4.657-28.29 75.7 75.7 0 0 1 4.845-27.75 59.3 59.3 0 0 1 13.955-21.238 61.5 61.5 0 0 1 21.87-13.559 82.2 82.2 0 0 1 28.569-4.7 92 92 0 0 1 20.754 2.26 77 77 0 0 1 18.147 6.597v25.671a60.8 60.8 0 0 0-16.566-7.683 66.5 66.5 0 0 0-18.797-2.622 49.1 49.1 0 0 0-23.174 5.063 34.66 34.66 0 0 0-14.703 14.64 48.9 48.9 0 0 0-5.116 23.318 51 51 0 0 0 4.932 23.41 33.7 33.7 0 0 0 14.331 14.735 47.5 47.5 0 0 0 22.801 5.06 70.66 70.66 0 0 0 37.783-10.664z" style="stroke-width:3.12561536"/></svg>