<svg xmlns="http://www.w3.org/2000/svg" xml:space="preserve" viewBox="0 0 475.38 239.56"><path d="M109.961 0v73.02h73.02V0Zm91.257 0v73.02h73.02V0Zm91.186 0v73.02h73.019V0Zm39.809 15.54c2.27 0 4.4.214 6.458.71 2.058.498 3.902 1.136 5.676 2.058v7.948c-1.561-1.064-3.334-1.845-5.18-2.412-1.915-.568-3.903-.852-5.819-.781-2.838 0-5.25.497-7.238 1.56-1.987.994-3.548 2.626-4.541 4.542-1.065 1.987-1.562 4.4-1.562 7.238s.497 5.323 1.562 7.31c.993 1.987 2.555 3.548 4.47 4.612 1.988 1.065 4.329 1.561 7.096 1.561 4.258 0 8.161-1.135 11.78-3.335v7.876h-.071a23 23 0 0 1-5.89 2.2c-2.27.569-4.612.781-7.096.781-3.264 0-6.244-.497-8.87-1.42-2.625-.993-4.825-2.341-6.67-4.115s-3.193-3.973-4.187-6.599c-.993-2.625-1.42-5.535-1.42-8.8 0-3.193.497-6.031 1.49-8.657a19.1 19.1 0 0 1 4.33-6.6 18.6 18.6 0 0 1 6.812-4.186c2.626-.993 5.606-1.49 8.87-1.49m-201.744.427h15.398c4.542 0 8.09.922 10.574 2.696 2.484 1.845 3.761 4.4 3.761 7.806 0 1.987-.425 3.62-1.348 5.11-.922 1.419-2.2 2.553-3.974 3.405q3.619 1.17 5.535 3.832c1.277 1.703 1.916 3.832 1.916 6.316.07 2.484-.568 4.612-1.845 6.386q-1.916 2.662-5.322 4.045c-2.342.923-5.11 1.419-8.303 1.419H130.47Zm91.328 0h15.398c4.542 0 8.09.922 10.573 2.696 2.484 1.845 3.762 4.4 3.762 7.806 0 1.987-.426 3.62-1.348 5.11-.923 1.419-2.2 2.553-3.974 3.405q3.619 1.17 5.534 3.832c1.278 1.703 1.917 3.832 1.917 6.316q-.107 3.726-1.917 6.386-1.915 2.662-5.321 4.045c-2.342.923-5.11 1.419-8.303 1.419h-16.321Zm-83.025 6.67v10.219h6.315c2.2 0 3.832-.497 4.968-1.42 1.135-.922 1.702-2.27 1.702-3.903 0-3.264-2.2-4.896-6.67-4.896Zm91.257 0v10.219h6.315c2.2 0 3.832-.497 4.968-1.42 1.135-.922 1.702-2.27 1.702-3.903 0-3.264-2.2-4.896-6.67-4.896Zm-91.257 16.676v11.07h7.237c2.484 0 4.4-.497 5.748-1.42 1.349-.922 1.987-2.27 1.987-4.044.071-3.76-2.483-5.606-7.592-5.606Zm91.257 0v11.07h7.237c2.484 0 4.4-.497 5.748-1.42 1.349-.922 1.987-2.27 1.987-4.044.071-3.76-2.483-5.606-7.592-5.606ZM0 109.545h84.952v22.796H27.427v31.345h50.758v22.797H27.427v50.401H0ZM158.524 106.873q14.426 0 26.002 4.63 11.754 4.631 19.947 13.358 8.37 8.549 12.823 20.837 4.452 12.111 4.452 27.427 0 15.139-4.452 27.427-4.453 12.29-12.823 21.016-8.193 8.727-19.947 13.357-11.576 4.63-26.002 4.63t-26.18-4.63q-11.577-4.63-19.947-13.357-8.193-8.727-12.645-21.016-4.453-12.288-4.453-27.427 0-15.316 4.453-27.427 4.452-12.288 12.645-20.837 8.37-8.727 19.946-13.357 11.755-4.63 26.18-4.63m0 108.818q10.864 0 18.7-4.987 7.836-5.165 11.932-14.604 4.097-9.44 4.097-22.975t-4.097-22.974-11.932-14.426q-7.836-4.987-18.7-4.987t-18.7 4.987-11.933 14.426-4.096 22.974 4.096 22.975 11.933 14.604q7.836 4.987 18.7 4.987M294.146 239.556q-17.098 0-29.386-6.412-12.11-6.59-18.7-18.878-6.412-12.289-6.412-29.564v-75.157h27.427v78.184q0 13.536 6.946 20.838 7.124 7.124 20.125 7.124 13 0 19.947-7.124 7.123-7.302 7.123-20.838v-78.184h27.427v75.157q0 17.275-6.59 29.564-6.41 12.289-18.7 18.878-12.288 6.412-29.207 6.412M395.418 190.579v46.305h-27.07v-127.34h46.483q25.111 0 38.469 10.509 13.535 10.507 13.535 30.098 0 12.645-6.055 21.55-5.877 8.905-16.92 13.713 8.015 12.645 15.851 25.468 7.837 12.645 15.673 26.002H443.86q-12.823-23.509-26.537-46.305h-2.671Zm0-21.55h17.81q12.645 0 19.234-4.452 6.59-4.63 6.59-14.426t-6.59-14.426q-6.411-4.63-19.056-4.63h-17.988Z" style="fill:#7831eb"/></svg>