<svg xmlns="http://www.w3.org/2000/svg" xml:space="preserve" viewBox="0 0 368.31 239.56"><path d="M66.601 0v73.02h73.02V0Zm91.257 0v73.02h73.02V0Zm91.186 0v73.02h73.019V0Zm39.81 15.54c2.27 0 4.399.214 6.457.71 2.058.498 3.902 1.136 5.676 2.058v7.948c-1.56-1.064-3.334-1.845-5.18-2.412-1.915-.568-3.903-.852-5.819-.781-2.838 0-5.25.497-7.238 1.56-1.987.994-3.548 2.626-4.541 4.542-1.064 1.987-1.561 4.4-1.561 7.238s.497 5.323 1.561 7.31c.993 1.987 2.555 3.548 4.47 4.612 1.988 1.065 4.33 1.561 7.097 1.561 4.257 0 8.16-1.135 11.78-3.335v7.876h-.072a23 23 0 0 1-5.889 2.2c-2.27.569-4.613.781-7.097.781-3.264 0-6.244-.497-8.87-1.42-2.625-.993-4.825-2.341-6.67-4.115s-3.193-3.973-4.187-6.599c-.993-2.625-1.419-5.535-1.419-8.8 0-3.193.497-6.031 1.49-8.657a19.1 19.1 0 0 1 4.329-6.6 18.6 18.6 0 0 1 6.812-4.186c2.626-.993 5.606-1.49 8.87-1.49m-201.745.427h15.399c4.541 0 8.09.922 10.573 2.696 2.484 1.845 3.761 4.4 3.761 7.806 0 1.987-.425 3.62-1.348 5.11-.922 1.419-2.2 2.553-3.974 3.405q3.62 1.17 5.535 3.832c1.277 1.703 1.916 3.832 1.916 6.316.071 2.484-.567 4.612-1.845 6.386q-1.916 2.662-5.322 4.045c-2.342.923-5.11 1.419-8.303 1.419H87.11Zm91.328 0h15.398c4.542 0 8.09.922 10.574 2.696 2.483 1.845 3.76 4.4 3.76 7.806 0 1.987-.425 3.62-1.347 5.11-.923 1.419-2.2 2.553-3.974 3.405q3.619 1.17 5.534 3.832c1.278 1.703 1.917 3.832 1.917 6.316q-.106 3.726-1.917 6.386-1.915 2.662-5.321 4.045c-2.342.923-5.11 1.419-8.303 1.419h-16.321Zm-83.025 6.67v10.219h6.315c2.2 0 3.833-.497 4.968-1.42s1.703-2.27 1.703-3.903c0-3.264-2.2-4.896-6.67-4.896Zm91.257 0v10.219h6.315c2.2 0 3.832-.497 4.968-1.42 1.135-.922 1.703-2.27 1.703-3.903 0-3.264-2.2-4.896-6.67-4.896ZM95.412 39.313v11.07h7.238c2.483 0 4.4-.497 5.748-1.42s1.986-2.27 1.986-4.044c.072-3.76-2.483-5.606-7.592-5.606Zm91.257 0v11.07h7.238c2.483 0 4.4-.497 5.748-1.42s1.986-2.27 1.986-4.044c.071-3.76-2.483-5.606-7.592-5.606ZM63.55 106.873q14.5 0 26.137 4.63 11.815 4.631 20.05 13.358 8.413 8.549 12.889 20.837 4.475 12.111 4.475 27.427 0 15.139-4.475 27.427-4.476 12.29-12.89 21.016-8.234 8.727-20.05 13.357-11.635 4.63-26.136 4.63t-26.315-4.63q-11.636-4.63-20.05-13.357-8.234-8.727-12.71-21.016Q0 188.264 0 173.125q0-15.316 4.475-27.427 4.476-12.288 12.71-20.837 8.414-8.727 20.05-13.357 11.815-4.63 26.315-4.63m0 108.818q10.92 0 18.797-4.987 7.877-5.165 11.994-14.604t4.117-22.975-4.117-22.974q-4.117-9.44-11.994-14.426t-18.797-4.987-18.796 4.987-11.994 14.426q-4.118 9.44-4.118 22.974 0 13.536 4.118 22.975 4.117 9.44 11.994 14.604 7.877 4.987 18.796 4.987M227.233 236.884q-13.892-22.262-28.14-44.524-14.247-22.44-28.139-43.456v87.98h-26.358v-127.34h27.783q14.426 21.55 28.317 43.278 14.07 21.55 27.961 43.812v-87.09h26.359v127.34ZM277.298 109.545h87.624v22.796h-60.197v27.605h53.43v22.797h-53.43v31.345h63.58v22.796h-91.007Z" style="fill:#e8504b"/></svg>