<svg xmlns="http://www.w3.org/2000/svg" viewBox="0 0 964.23 219.41"><path fill="#fff" d="M12.272 161.918v20.99H0v-57.724h21.07q11.383 0 17.48 4.765 6.093 4.763 6.095 13.644a16.36 16.36 0 0 1-10.414 15.982q3.632 5.731 7.184 11.505a666 666 0 0 1 7.105 11.826H34.23a573 573 0 0 0-12.028-20.989zm0-9.769h8.073q5.73 0 8.719-2.057 2.985-2.063 2.987-6.5 0-4.44-2.947-6.541-2.948-2.098-8.679-2.098h-8.153zm84.846 30.758q-2.1-6.374-4.198-12.512H69.508q-2.1 6.215-4.197 12.512H51.99a1128 1128 0 0 1 11.181-29.629 1105 1105 0 0 1 11.504-28.093h13.4q5.975 14.37 11.667 28.863 5.69 14.49 11.02 28.86H97.118ZM73.06 160.06h16.227a560 560 0 0 0-3.996-11.26 2132 2132 0 0 0-4.077-11.02q-4.2 11.058-8.154 22.28m44.725-34.876h22.04q9.12 0 15.621 3.39a22.9 22.9 0 0 1 9.889 9.81q3.39 6.416 3.39 15.539 0 9.124-3.43 15.621a23.35 23.35 0 0 1-9.89 9.931q-6.459 3.435-15.66 3.43h-21.96zm21.313 47.068q8.07 0 12.392-4.725 4.316-4.719 4.318-13.603 0-8.796-4.238-13.44t-12.391-4.642h-8.962v36.41zm39.476-47.068h12.431v57.723h-12.431zm50.94-1.211c4.04-.057 8.054.656 11.827 2.1a25.26 25.26 0 0 1 9.042 6.014 26.7 26.7 0 0 1 5.773 9.443 39.44 39.44 0 0 1 0 24.908 27 27 0 0 1-5.773 9.524 25 25 0 0 1-9.042 6.057 34.38 34.38 0 0 1-23.654 0 25 25 0 0 1-9.041-6.057 27 27 0 0 1-5.773-9.525 39.44 39.44 0 0 1 0-24.906 26.6 26.6 0 0 1 5.773-9.444 25.2 25.2 0 0 1 9.041-6.013 31.8 31.8 0 0 1 11.827-2.101m0 49.326c2.99.081 5.938-.718 8.477-2.299a14.5 14.5 0 0 0 5.409-6.579 30.15 30.15 0 0 0 0-20.828 14.23 14.23 0 0 0-5.41-6.542 17.03 17.03 0 0 0-16.952 0 14.2 14.2 0 0 0-5.409 6.542 30.12 30.12 0 0 0 0 20.828 14.46 14.46 0 0 0 5.41 6.58 15.25 15.25 0 0 0 8.475 2.298M0 36.605v73.174h73.173V36.605Zm51.029 51.64a11.96 11.96 0 0 1-5.346 4.087 21.7 21.7 0 0 1-8.339 1.44H20.946v-41.16h15.447q6.828 0 10.578 2.733a9.14 9.14 0 0 1 3.75 7.859 9.45 9.45 0 0 1-1.343 5.095 9.26 9.26 0 0 1-3.974 3.425 10.97 10.97 0 0 1 5.569 3.829 10.43 10.43 0 0 1 1.93 6.361 10.67 10.67 0 0 1-1.874 6.332M40.562 68.128a4.83 4.83 0 0 0 1.707-3.944q0-4.893-6.66-4.893h-6.325v10.246h6.324a7.6 7.6 0 0 0 4.954-1.41zm-3.89 7.857h-7.387v11.11h7.276a10 10 0 0 0 5.765-1.41 4.65 4.65 0 0 0 2.015-4.059q0-5.64-7.668-5.641m54.795-39.379v73.174h73.173V36.605Zm51.028 51.64a11.96 11.96 0 0 1-5.345 4.087 21.7 21.7 0 0 1-8.339 1.44h-16.398v-41.16h15.446q6.828 0 10.578 2.733a9.14 9.14 0 0 1 3.75 7.859 9.45 9.45 0 0 1-1.343 5.095 9.26 9.26 0 0 1-3.974 3.425 10.97 10.97 0 0 1 5.57 3.829 10.43 10.43 0 0 1 1.93 6.361 10.67 10.67 0 0 1-1.875 6.332M132.03 68.128a4.83 4.83 0 0 0 1.707-3.944q0-4.893-6.66-4.893h-6.325v10.246h6.324a7.6 7.6 0 0 0 4.954-1.41zm-3.89 7.857h-7.387v11.11h7.276a10 10 0 0 0 5.764-1.41 4.65 4.65 0 0 0 2.015-4.059q0-5.64-7.668-5.641m54.794 33.795h73.173V36.605h-73.173zm52.554-18.615a24 24 0 0 1-5.926 2.228 30 30 0 0 1-7.088.819 25.8 25.8 0 0 1-8.889-1.44 17.5 17.5 0 0 1-10.864-10.777 25.3 25.3 0 0 1-1.452-8.831 23.6 23.6 0 0 1 1.51-8.66 18.5 18.5 0 0 1 4.359-6.631 19.2 19.2 0 0 1 6.826-4.233 25.7 25.7 0 0 1 8.917-1.466 28.7 28.7 0 0 1 6.478.706 24 24 0 0 1 5.664 2.06v8.012a19 19 0 0 0-5.17-2.398 20.8 20.8 0 0 0-5.868-.818 15.3 15.3 0 0 0-7.233 1.58 10.82 10.82 0 0 0-4.59 4.57 15.27 15.27 0 0 0-1.598 7.278 15.9 15.9 0 0 0 1.54 7.307 10.5 10.5 0 0 0 4.472 4.598 14.83 14.83 0 0 0 7.117 1.58 22.05 22.05 0 0 0 11.794-3.329v7.844z"/><path d="M402.295 0c-44.371 0-84.372 26.73-101.352 67.723-16.979 40.992-7.591 88.175 23.784 119.55s78.56 40.763 119.552 23.784C485.272 194.077 512 154.077 512 109.705 512 49.117 462.883 0 402.295 0m6.44 37.42h32.35v94.32l15.757.01v27.055l-15.756-.01v25.463h-29.828v-25.463H340.04V131.53a1775 1775 0 0 1 32.877-46.636Q389.618 62 408.734 37.42m2.523 34.871a4330 4330 0 0 0-21.85 29.934 1431 1431 0 0 0-20.797 29.515h42.647z" style="display:inline;opacity:1;fill:#004be1;fill-opacity:1"/><path d="M548.123 64.072v91.233h65.213V138.97h-2.297v-.766h-43.262v-21.691h38.285v-16.332h-38.285V80.404h43.135V64.072h-43.135zm71.125 0a1358 1358 0 0 0 14.166 22.074q7.275 11.102 14.932 21.948a903 903 0 0 0-16.21 23.605 2252 2252 0 0 0-15.44 23.606h22.843a427 427 0 0 1 9.7-16.844 611 611 0 0 1 10.591-16.844 685 685 0 0 1 10.465 16.717 487 487 0 0 1 9.828 16.97h23.354a1034 1034 0 0 0-15.442-23.86 1443 1443 0 0 0-16.08-23.606 889 889 0 0 0 14.676-21.818q7.274-10.974 14.293-21.948H678.08a537 537 0 0 1-8.678 15.184 604 604 0 0 1-9.06 14.547 528 528 0 0 1-9.19-14.674 1351 1351 0 0 1-8.55-15.057zm85.56 0V81.17h28.715v74.135h19.655V81.17h28.713V64.072zm85.329 0v91.233h19.595v-33.176h15.856a903 903 0 0 1 19.207 33.176h22.816a896 896 0 0 0-11.343-18.631 1312 1312 0 0 0-11.473-18.246q7.992-3.445 12.246-9.824 4.383-6.38 4.383-15.44 0-14.036-9.797-21.564-9.668-7.529-27.844-7.528zm117.045 0a1911 1911 0 0 0-18.25 44.405 1946 1946 0 0 0-17.612 46.828h21.057q3.318-9.954 6.637-19.78h37.01q3.317 9.699 6.634 19.78h21.569a2164 2164 0 0 0-17.485-45.553 2131 2131 0 0 0-18.377-45.68Zm-97.45 15.44h13.02q9.153-.001 13.793 3.316 4.77 3.319 4.77 10.336t-4.77 10.336q-4.77 3.19-13.922 3.19h-12.89zm107.786 4.465q3.19 8.549 6.38 17.48a627 627 0 0 1 6.381 17.736h-25.65a1572 1572 0 0 1 12.889-35.216" style="display:inline;fill:#004be1;fill-opacity:1"/></svg>