<svg xmlns="http://www.w3.org/2000/svg" viewBox="0 0 512 219.41"><path fill="#fff" d="M12.272 161.926v20.99H0V125.19h21.071q11.384 0 17.48 4.765 6.094 4.763 6.096 13.645a16.36 16.36 0 0 1-10.415 15.983q3.633 5.733 7.185 11.506a666 666 0 0 1 7.105 11.827h-14.29a573 573 0 0 0-12.029-20.99zm0-9.769h8.074q5.73 0 8.72-2.057 2.985-2.063 2.986-6.5 0-4.442-2.946-6.542-2.95-2.098-8.68-2.098h-8.154Zm84.85 30.759q-2.1-6.376-4.198-12.513H69.512q-2.101 6.214-4.199 12.513h-13.32a1128 1128 0 0 1 11.182-29.63A1105 1105 0 0 1 74.68 125.19h13.4q5.975 14.371 11.667 28.864a1606 1606 0 0 1 11.02 28.862zm-24.059-22.848h16.228a560 560 0 0 0-3.996-11.261 2132 2132 0 0 0-4.077-11.02q-4.2 11.057-8.155 22.281m44.728-34.878h22.04q9.122 0 15.622 3.39a22.9 22.9 0 0 1 9.889 9.811q3.391 6.416 3.39 15.539 0 9.126-3.43 15.622a23.35 23.35 0 0 1-9.89 9.932q-6.46 3.433-15.661 3.43h-21.96zm21.314 47.069q8.07 0 12.393-4.725 4.317-4.72 4.319-13.604 0-8.796-4.238-13.44t-12.393-4.642h-8.962v36.41zm39.477-47.069h12.433v57.726h-12.433zm50.944-1.212c4.04-.057 8.053.656 11.827 2.1a25.26 25.26 0 0 1 9.042 6.014 26.7 26.7 0 0 1 5.773 9.444 39.44 39.44 0 0 1 0 24.909 27 27 0 0 1-5.773 9.525 25 25 0 0 1-9.042 6.056 34.4 34.4 0 0 1-23.655 0 25 25 0 0 1-9.042-6.056 27 27 0 0 1-5.773-9.526 39.44 39.44 0 0 1 0-24.907 26.6 26.6 0 0 1 5.773-9.445 25.2 25.2 0 0 1 9.042-6.013 31.9 31.9 0 0 1 11.828-2.101m0 49.33c2.99.08 5.937-.72 8.477-2.3a14.5 14.5 0 0 0 5.41-6.58 30.15 30.15 0 0 0 0-20.828 14.23 14.23 0 0 0-5.41-6.543 17.03 17.03 0 0 0-16.954 0 14.2 14.2 0 0 0-5.41 6.543 30.12 30.12 0 0 0 0 20.829 14.46 14.46 0 0 0 5.41 6.58 15.26 15.26 0 0 0 8.477 2.298M0 36.608v73.177h73.177V36.608Zm51.03 51.643a11.96 11.96 0 0 1-5.344 4.086 21.7 21.7 0 0 1-8.34 1.44H20.947V52.615h15.447q6.828 0 10.579 2.734a9.14 9.14 0 0 1 3.75 7.86 9.45 9.45 0 0 1-1.343 5.094 9.26 9.26 0 0 1-3.974 3.425 10.97 10.97 0 0 1 5.57 3.83 10.43 10.43 0 0 1 1.93 6.361 10.68 10.68 0 0 1-1.875 6.332M40.566 68.129a4.83 4.83 0 0 0 1.707-3.943q0-4.893-6.661-4.893h-6.324v10.248h6.324a7.6 7.6 0 0 0 4.954-1.41zm-3.89 7.86h-7.388v11.11h7.276a10 10 0 0 0 5.765-1.41 4.65 4.65 0 0 0 2.015-4.06q0-5.642-7.669-5.641zm54.797-39.38v73.176h73.176V36.608Zm51.03 51.642a11.96 11.96 0 0 1-5.346 4.086 21.7 21.7 0 0 1-8.34 1.44h-16.398V52.615h15.447q6.828 0 10.578 2.734a9.14 9.14 0 0 1 3.75 7.86 9.45 9.45 0 0 1-1.342 5.094 9.26 9.26 0 0 1-3.975 3.425 10.97 10.97 0 0 1 5.57 3.83 10.43 10.43 0 0 1 1.93 6.361 10.67 10.67 0 0 1-1.874 6.332m-10.466-20.122a4.83 4.83 0 0 0 1.707-3.943q0-4.893-6.661-4.893h-6.325v10.248h6.325a7.6 7.6 0 0 0 4.954-1.41zm-3.891 7.86h-7.388v11.11h7.276a10 10 0 0 0 5.765-1.41 4.65 4.65 0 0 0 2.015-4.059q0-5.642-7.668-5.641m54.797 33.796h73.177V36.608h-73.177zm52.556-18.616a24 24 0 0 1-5.926 2.229 30 30 0 0 1-7.089.818 25.9 25.9 0 0 1-8.888-1.439A17.5 17.5 0 0 1 202.73 82a25.3 25.3 0 0 1-1.452-8.832 23.6 23.6 0 0 1 1.51-8.66 18.5 18.5 0 0 1 4.359-6.631 19.2 19.2 0 0 1 6.826-4.233 25.7 25.7 0 0 1 8.918-1.467 28.7 28.7 0 0 1 6.478.706 24 24 0 0 1 5.665 2.06v8.013a19 19 0 0 0-5.171-2.398 20.8 20.8 0 0 0-5.868-.818 15.3 15.3 0 0 0-7.234 1.58 10.82 10.82 0 0 0-4.59 4.57 15.3 15.3 0 0 0-1.598 7.278 15.9 15.9 0 0 0 1.54 7.308 10.5 10.5 0 0 0 4.473 4.598 14.83 14.83 0 0 0 7.117 1.58 22.05 22.05 0 0 0 11.794-3.329zM402.296 0c-44.372 0-84.374 26.729-101.353 67.722-16.98 40.993-7.591 88.176 23.784 119.551s78.558 40.764 119.551 23.784C485.271 194.078 512 154.076 512 109.704 512 49.116 462.884 0 402.296 0m24.495 184.272h-31.512V69.36a1348 1348 0 0 0-17.331 9.032 658 658 0 0 0-16.492 9.034v-28.99q8.4-4.832 18.697-10.19a772 772 0 0 1 21.639-10.82h24.999z"/></svg>