<svg xmlns="http://www.w3.org/2000/svg" viewBox="0 0 1000 330.06"><path d="M194.718 324.927a41.9 41.9 0 0 0 19.478-14.847 40.1 40.1 0 0 0 6.75-23.434 39 39 0 0 0-3.567-17.548 31.7 31.7 0 0 0-10.03-11.762 59.4 59.4 0 0 0-14.946-7.619q-8.487-2.986-18.322-5.497-7.712-1.925-13.4-3.953a22.5 22.5 0 0 1-8.778-5.208 11.8 11.8 0 0 1-3.086-8.583 12.89 12.89 0 0 1 6.463-11.571q6.456-4.048 18.222-4.05a82 82 0 0 1 21.506 2.893 72.9 72.9 0 0 1 19.188 8.1V195.62a88 88 0 0 0-19.093-6.75 93.8 93.8 0 0 0-21.599-2.51 74.4 74.4 0 0 0-28.928 5.114 42.43 42.43 0 0 0-18.802 14.56 38.2 38.2 0 0 0-6.654 22.565 37.6 37.6 0 0 0 3.084 15.91 30.9 30.9 0 0 0 9.064 11.38 58.5 58.5 0 0 0 14.656 8.195 143 143 0 0 0 20.059 6.17 129 129 0 0 1 12.535 3.762 24.1 24.1 0 0 1 8.967 5.398 12.66 12.66 0 0 1 3.376 9.355 13.94 13.94 0 0 1-6.847 12.342q-6.848 4.438-19.96 4.438a82.93 82.93 0 0 1-43.777-12.538v26.614a86 86 0 0 0 21.31 7.907 101.6 101.6 0 0 0 22.467 2.505 82.3 82.3 0 0 0 30.664-5.11M331.833 323a47.8 47.8 0 0 0 20.347-20.345q7.038-13.305 7.042-32.012v-81.385h-29.703v84.662q0 14.657-7.617 22.466-7.622 7.814-21.694 7.814-14.082 0-21.697-7.814-7.622-7.81-7.619-22.466v-84.662h-29.699v81.385q0 18.707 7.04 32.012a47.93 47.93 0 0 0 20.248 20.345q13.21 7.038 31.727 7.038A66.8 66.8 0 0 0 331.833 323m104.333-45.996h2.895q14.847 24.69 28.735 50.145h34.133q-8.486-14.464-16.97-28.256-8.49-13.786-17.163-27.48a41.36 41.36 0 0 0 18.416-14.851 40.93 40.93 0 0 0 6.461-23.332q0-21.219-14.56-32.595-14.566-11.377-41.754-11.377h-50.332v137.891h29.313v-50.147Zm-20.828-64.413h19.48q13.689 0 20.73 5.015 7.039 5.017 7.04 15.624 0 10.605-7.137 15.524-7.135 4.915-20.828 4.919h-19.285zm151.773 64.413h2.894q14.848 24.69 28.735 50.145h34.137q-8.488-14.464-16.971-28.256-8.493-13.786-17.166-27.48a41.4 41.4 0 0 0 18.418-14.851 40.93 40.93 0 0 0 6.464-23.332q0-21.219-14.565-32.595-14.565-11.377-41.754-11.377h-50.332v137.891h29.313v-50.147zm-20.828-64.413h19.48q13.688 0 20.73 5.015 7.038 5.017 7.04 15.624 0 10.605-7.137 15.524-7.136 4.915-20.828 4.919h-19.285zM647.92 327.148h98.545v-24.69h-68.848v-33.94h57.856v-24.686h-57.856V213.94h65.184v-24.685h-94.881zm213.485-94.883q12.917-21.41 25.456-43.008h-32.98q-8.099 15.24-16.392 30.375-8.294 15.142-16.97 30.18-8.488-14.85-16.876-30.086-8.386-15.23-16.293-30.47H753.6q12.338 21.599 25.264 43.007 12.918 21.41 26.421 42.62v52.265h29.697v-52.265q13.5-21.211 26.423-42.62z" style="fill:#9647e6;stroke-width:1.83668232"/><path fill="#fff" d="M0 0v137.751h137.751V0Zm95.373 97.216a22.5 22.5 0 0 1-10.06 7.693 40.9 40.9 0 0 1-15.7 2.71h-30.87V30.133h29.078q12.853 0 19.914 5.148a17.2 17.2 0 0 1 7.06 14.792 17.8 17.8 0 0 1-2.53 9.592 17.4 17.4 0 0 1-7.48 6.446 20.66 20.66 0 0 1 10.484 7.208 19.62 19.62 0 0 1 3.635 11.975 20.1 20.1 0 0 1-3.53 11.92zM75.671 59.34a9.1 9.1 0 0 0 3.214-7.424q0-9.21-12.539-9.211H54.441v19.289h11.905a14.3 14.3 0 0 0 9.325-2.654m-7.323 14.79H54.441v20.916h13.696a18.8 18.8 0 0 0 10.853-2.654 8.76 8.76 0 0 0 3.793-7.64q0-10.62-14.436-10.622zM172.19 0v137.751H309.94V0Zm95.373 97.216a22.5 22.5 0 0 1-10.061 7.693 40.9 40.9 0 0 1-15.7 2.71h-30.87V30.133h29.08q12.852 0 19.913 5.148a17.2 17.2 0 0 1 7.06 14.792 17.8 17.8 0 0 1-2.53 9.592 17.4 17.4 0 0 1-7.48 6.446 20.66 20.66 0 0 1 10.484 7.208 19.62 19.62 0 0 1 3.634 11.975 20.1 20.1 0 0 1-3.53 11.92zM247.86 59.34a9.1 9.1 0 0 0 3.214-7.424q0-9.21-12.539-9.211H226.63v19.289h11.905a14.3 14.3 0 0 0 9.325-2.654m-7.323 14.79H226.63v20.916h13.696a18.8 18.8 0 0 0 10.853-2.654 8.76 8.76 0 0 0 3.793-7.64q0-10.62-14.436-10.622zm103.84 63.621H482.13V0H344.378Zm98.934-35.044a45 45 0 0 1-11.154 4.195 56.4 56.4 0 0 1-13.344 1.541 48.7 48.7 0 0 1-16.734-2.709 34.2 34.2 0 0 1-12.577-7.806 33.8 33.8 0 0 1-7.874-12.482 47.6 47.6 0 0 1-2.737-16.624 44.5 44.5 0 0 1 2.847-16.306 34.8 34.8 0 0 1 8.2-12.48 36.1 36.1 0 0 1 12.852-7.968 48.3 48.3 0 0 1 16.787-2.76 54 54 0 0 1 12.196 1.328 45.3 45.3 0 0 1 10.664 3.875v15.085a35.7 35.7 0 0 0-9.735-4.515 39 39 0 0 0-11.046-1.539 28.84 28.84 0 0 0-13.617 2.974 20.37 20.37 0 0 0-8.64 8.603 28.74 28.74 0 0 0-3.006 13.701 30 30 0 0 0 2.898 13.757 19.8 19.8 0 0 0 8.421 8.658 27.9 27.9 0 0 0 13.397 2.976 41.5 41.5 0 0 0 22.202-6.269zm116-19.72v37.554h-21.957V17.265h37.7q20.367 0 31.273 8.522 10.903 8.522 10.905 24.41a29.29 29.29 0 0 1-18.633 28.6q6.5 10.258 12.856 20.582 6.355 10.33 12.71 21.162H598.6q-10.4-19.066-21.523-37.556H559.31zm0-17.478h14.445q10.254 0 15.599-3.684 5.343-3.683 5.344-11.627 0-7.943-5.273-11.7-5.273-3.755-15.527-3.755H559.31zm152.53 55.032q-3.758-11.409-7.512-22.389h-41.887q-3.758 11.125-7.512 22.39h-23.833q9.82-27.154 20.007-53.01 10.182-25.854 20.582-50.267h23.978q10.687 25.713 20.872 51.638 10.18 25.929 19.716 51.638zm-43.043-40.877h29.033q-3.468-10.109-7.15-20.148-3.685-10.04-7.296-19.719-7.512 19.792-14.587 39.867m80.02-62.4h39.433a59.75 59.75 0 0 1 27.949 6.067 41 41 0 0 1 17.694 17.55 58.86 58.86 0 0 1 6.067 27.805 59.17 59.17 0 0 1-6.138 27.951 41.74 41.74 0 0 1-17.695 17.764 59.04 59.04 0 0 1-28.022 6.14h-39.289zm38.132 84.213q14.44 0 22.173-8.453 7.723-8.448 7.727-24.338 0-15.74-7.584-24.05-7.582-8.305-22.172-8.305H771.06v65.144Zm70.63-84.212h22.246V120.54H857.58Zm91.145-2.167a56.9 56.9 0 0 1 21.159 3.756 45.2 45.2 0 0 1 16.181 10.76 47.7 47.7 0 0 1 10.324 16.9 70.55 70.55 0 0 1 0 44.562 48.3 48.3 0 0 1-10.326 17.044 44.7 44.7 0 0 1-16.177 10.833 61.5 61.5 0 0 1-42.321 0 44.7 44.7 0 0 1-16.18-10.833 48.3 48.3 0 0 1-10.327-17.044 70.55 70.55 0 0 1 0-44.562 47.7 47.7 0 0 1 10.328-16.9 45.2 45.2 0 0 1 16.179-10.76 56.9 56.9 0 0 1 21.159-3.756zm0 88.254a27.3 27.3 0 0 0 15.166-4.114 25.87 25.87 0 0 0 9.68-11.773 53.93 53.93 0 0 0 0-37.267 25.44 25.44 0 0 0-9.68-11.7 30.46 30.46 0 0 0-30.333 0 25.4 25.4 0 0 0-9.677 11.7 53.9 53.9 0 0 0 0 37.267 25.83 25.83 0 0 0 9.677 11.773 27.3 27.3 0 0 0 15.167 4.114" style="stroke-width:1.83668232"/></svg>