<svg xmlns="http://www.w3.org/2000/svg" viewBox="0 0 853.15 230.27"><path d="M575.25 67.225v95.761h66.03V145.04h-45.403V67.225Zm75.624 0v95.761H671.5V67.225Zm29.552 0a3473 3473 0 0 0 17.814 47.95 4422 4422 0 0 0 18.75 47.811h22.234a3112 3112 0 0 0 18.617-47.812 2612 2612 0 0 0 17.947-47.95h-22.099a4579 4579 0 0 1-12.457 37.368 3064 3064 0 0 1-12.857 37.234 3064 3064 0 0 1-12.859-37.234 4579 4579 0 0 1-12.455-37.367Zm104.286 0v95.761h68.442v-17.141h-47.816V122.27h40.18v-17.142h-40.18v-20.76h45.271V67.224Z" style="fill:#00e5df;stroke-width:1.0492"/><path fill="#fff" d="M12.88 169.94v22.03H0v-60.584h22.114q11.947 0 18.345 5.001 6.396 5 6.398 14.32a17.17 17.17 0 0 1-10.93 16.775q3.813 6.015 7.54 12.075t7.457 12.412H35.927a601 601 0 0 0-12.625-22.029zm0-10.252h8.473q6.015 0 9.15-2.16 3.135-2.163 3.135-6.82 0-4.662-3.092-6.866-3.095-2.202-9.109-2.202H12.88zm89.048 32.281q-2.205-6.69-4.405-13.132H72.95q-2.204 6.523-4.406 13.132h-13.98a1184 1184 0 0 1 11.736-31.097 1159 1159 0 0 1 12.074-29.485h14.064q6.27 15.083 12.244 30.293a1686 1686 0 0 1 11.566 30.29h-14.32ZM76.68 167.992h17.032a587 587 0 0 0-4.194-11.819 2237 2237 0 0 0-4.28-11.566 1030 1030 0 0 0-8.558 23.385m46.942-36.606h23.131q9.573 0 16.395 3.558a24.05 24.05 0 0 1 10.379 10.297q3.56 6.734 3.557 16.308 0 9.577-3.6 16.395a24.5 24.5 0 0 1-10.378 10.423q-6.78 3.605-16.437 3.6H123.62zm22.368 49.4q8.47 0 13.006-4.959 4.53-4.953 4.532-14.277 0-9.231-4.448-14.106-4.449-4.874-13.006-4.871h-9.406v38.213zm41.431-49.4h13.048v60.583H187.42zm53.465-1.27c4.24-.06 8.452.688 12.412 2.204a26.5 26.5 0 0 1 9.49 6.311 28 28 0 0 1 6.06 9.912 41.4 41.4 0 0 1 0 26.14 28.3 28.3 0 0 1-6.06 9.997 26.2 26.2 0 0 1-9.49 6.357 36.1 36.1 0 0 1-24.825 0 26.2 26.2 0 0 1-9.49-6.357 28.3 28.3 0 0 1-6.058-9.996 41.4 41.4 0 0 1 0-26.14 28 28 0 0 1 6.059-9.913 26.5 26.5 0 0 1 9.489-6.311 33.4 33.4 0 0 1 12.413-2.205m0 51.77a16 16 0 0 0 8.896-2.414 15.2 15.2 0 0 0 5.677-6.905 31.64 31.64 0 0 0 0-21.86 14.93 14.93 0 0 0-5.677-6.866 17.88 17.88 0 0 0-17.792 0 14.9 14.9 0 0 0-5.677 6.866 31.6 31.6 0 0 0 0 21.86 15.2 15.2 0 0 0 5.677 6.905 16 16 0 0 0 8.896 2.413M0 38.42v76.799h76.798V38.42ZM53.557 92.62a12.55 12.55 0 0 1-5.61 4.29 22.8 22.8 0 0 1-8.752 1.51H21.984v-43.2h16.212q7.166 0 11.102 2.87a9.59 9.59 0 0 1 3.935 8.248 9.9 9.9 0 0 1-1.41 5.347 9.7 9.7 0 0 1-4.17 3.595 11.5 11.5 0 0 1 5.845 4.018 10.94 10.94 0 0 1 2.026 6.677 11.2 11.2 0 0 1-1.967 6.645M42.572 71.502a5.07 5.07 0 0 0 1.791-4.139q0-5.135-6.99-5.135h-6.638v10.755h6.638a7.98 7.98 0 0 0 5.199-1.48m-4.083 8.248h-7.753v11.66h7.636c2.12.132 4.23-.384 6.05-1.48a4.88 4.88 0 0 0 2.115-4.259q0-5.92-8.048-5.921m57.509-41.33v76.799h76.798V38.42Zm53.557 54.199a12.55 12.55 0 0 1-5.61 4.29 22.8 22.8 0 0 1-8.752 1.51h-17.211v-43.2h16.212q7.165 0 11.102 2.87a9.59 9.59 0 0 1 3.935 8.248 9.9 9.9 0 0 1-1.41 5.347 9.7 9.7 0 0 1-4.17 3.595 11.5 11.5 0 0 1 5.845 4.018 10.94 10.94 0 0 1 2.027 6.677 11.2 11.2 0 0 1-1.968 6.645M138.57 71.502a5.07 5.07 0 0 0 1.791-4.139q0-5.135-6.99-5.135h-6.638v10.755h6.638a7.98 7.98 0 0 0 5.199-1.48m-4.083 8.248h-7.753v11.66h7.636c2.12.132 4.23-.384 6.05-1.48a4.88 4.88 0 0 0 2.115-4.259q0-5.922-8.048-5.921m57.51 35.469h76.797V38.42h-76.798zm55.156-19.539a25 25 0 0 1-6.22 2.34c-2.436.58-4.934.87-7.439.858a27.1 27.1 0 0 1-9.328-1.51 18.37 18.37 0 0 1-11.403-11.312 26.5 26.5 0 0 1-1.524-9.268 24.8 24.8 0 0 1 1.586-9.09 19.4 19.4 0 0 1 4.574-6.959 20.1 20.1 0 0 1 7.164-4.441 26.9 26.9 0 0 1 9.36-1.54 30 30 0 0 1 6.798.74 25.2 25.2 0 0 1 5.945 2.162v8.41a20 20 0 0 0-5.427-2.517 21.8 21.8 0 0 0-6.159-.859 16.1 16.1 0 0 0-7.59 1.658 11.36 11.36 0 0 0-4.818 4.797 16 16 0 0 0-1.677 7.639 16.7 16.7 0 0 0 1.615 7.669 11.04 11.04 0 0 0 4.695 4.827 15.57 15.57 0 0 0 7.47 1.658 23.15 23.15 0 0 0 12.377-3.495z" style="stroke-width:1.0492"/><path fill="#00e5df" d="M422.056 0c-46.568 0-88.55 28.052-106.37 71.074s-7.967 92.54 24.961 125.468 82.447 42.781 125.47 24.962c43.021-17.82 71.073-59.802 71.073-106.37C537.19 51.547 485.642 0 422.056 0m48.93 173.107q-7.608 11.245-21.938 17.199-14.332 5.952-34.615 5.952a130.5 130.5 0 0 1-23.703-2.095 103.8 103.8 0 0 1-22.156-6.722V159.66a104.65 104.65 0 0 0 44.094 9.7q15.877 0 24.144-6.064 8.27-6.06 8.266-17.308 0-22.926-35.276-22.93-8.597 0-17.088.774-8.49.774-19.291 2.534l7.496-87.089h89.906V66.38h-62.273l-2.742 32.868c3.33-.57 6.686-.976 10.056-1.213q4.74-.33 8.71-.33 16.753 0 28.88 5.732a41.97 41.97 0 0 1 18.63 16.647q6.5 10.914 6.504 26.125 0 15.66-7.604 26.9" style="stroke-width:1.0492"/></svg>