<svg xmlns="http://www.w3.org/2000/svg" viewBox="0 0 1000 233.57"><path fill="#fff" d="M13.064 172.366v22.345H0v-61.45h22.43q12.118 0 18.608 5.072 6.487 5.072 6.49 14.525a17.42 17.42 0 0 1-11.087 17.014 1097 1097 0 0 1 7.648 12.248 709 709 0 0 1 7.564 12.59H36.44a610 610 0 0 0-12.805-22.345zm0-10.4h8.594q6.1 0 9.282-2.19 3.18-2.195 3.18-6.918 0-4.73-3.137-6.964t-9.24-2.234h-8.679zm90.324 32.745q-2.235-6.786-4.469-13.32H73.996q-2.235 6.615-4.469 13.32h-14.18a1201 1201 0 0 1 11.904-31.542 1176 1176 0 0 1 12.246-29.907h14.266a1687 1687 0 0 1 12.42 30.726q6.058 15.427 11.73 30.724zm-25.611-24.322h17.275a596 596 0 0 0-4.254-11.988 2270 2270 0 0 0-4.34-11.732 1047 1047 0 0 0-8.681 23.72m47.613-37.128h23.462q9.71 0 16.63 3.608a24.4 24.4 0 0 1 10.527 10.445q3.61 6.83 3.609 16.54 0 9.715-3.652 16.63a24.85 24.85 0 0 1-10.527 10.573q-6.877 3.655-16.672 3.652H125.39zm22.689 50.106q8.59 0 13.191-5.03 4.596-5.024 4.597-14.481 0-9.363-4.511-14.308-4.512-4.943-13.192-4.94h-9.54v38.76zm42.024-50.106h13.234v61.45h-13.234zm54.23-1.29c4.3-.06 8.573.7 12.59 2.237a26.9 26.9 0 0 1 9.625 6.401 28.4 28.4 0 0 1 6.146 10.054 42 42 0 0 1 0 26.515 28.7 28.7 0 0 1-6.146 10.14 26.6 26.6 0 0 1-9.626 6.447 36.6 36.6 0 0 1-25.18 0 26.6 26.6 0 0 1-9.626-6.448 28.7 28.7 0 0 1-6.145-10.14 42 42 0 0 1 0-26.514 28.35 28.35 0 0 1 6.145-10.054 26.9 26.9 0 0 1 9.625-6.401 33.9 33.9 0 0 1 12.591-2.237m0 52.511c3.182.087 6.32-.764 9.023-2.447a15.4 15.4 0 0 0 5.758-7.004 32.1 32.1 0 0 0 0-22.173 15.15 15.15 0 0 0-5.758-6.964 18.13 18.13 0 0 0-18.047 0 15.12 15.12 0 0 0-5.758 6.964 32.07 32.07 0 0 0 0 22.173c1.172 2.86 3.179 5.3 5.758 7.004a16.24 16.24 0 0 0 9.023 2.447M0 38.963v77.898h77.897V38.963Zm54.323 54.975a12.73 12.73 0 0 1-5.69 4.35 23.1 23.1 0 0 1-8.877 1.532H22.299V56.003h16.443q7.27 0 11.261 2.91a9.73 9.73 0 0 1 3.992 8.366 10.06 10.06 0 0 1-1.43 5.424 9.85 9.85 0 0 1-4.23 3.646 11.7 11.7 0 0 1 5.929 4.076 11.1 11.1 0 0 1 2.055 6.772 11.36 11.36 0 0 1-1.996 6.74M43.181 72.52a5.14 5.14 0 0 0 1.817-4.199q0-5.208-7.09-5.208h-6.733V74.02h6.732a8.1 8.1 0 0 0 5.274-1.501m-4.14 8.364h-7.865v11.828h7.745c2.151.134 4.291-.39 6.137-1.501a4.95 4.95 0 0 0 2.145-4.32q0-6.006-8.163-6.007m58.33-41.92v77.897h77.898V38.963Zm54.324 54.974a12.73 12.73 0 0 1-5.69 4.35 23.1 23.1 0 0 1-8.878 1.532H119.67V56.003h16.444q7.268 0 11.261 2.91a9.73 9.73 0 0 1 3.992 8.366 10.06 10.06 0 0 1-1.43 5.424 9.85 9.85 0 0 1-4.23 3.646 11.7 11.7 0 0 1 5.929 4.076 11.1 11.1 0 0 1 2.055 6.772 11.36 11.36 0 0 1-1.996 6.74M140.553 72.52a5.14 5.14 0 0 0 1.817-4.199q0-5.208-7.09-5.208h-6.733V74.02h6.732a8.1 8.1 0 0 0 5.274-1.501m-4.14 8.364h-7.865v11.828h7.745c2.151.134 4.291-.39 6.137-1.501a4.95 4.95 0 0 0 2.145-4.32q0-6.006-8.163-6.007m58.33 35.977h77.898V38.963h-77.897zm55.947-19.817a25.4 25.4 0 0 1-6.308 2.373c-2.472.59-5.005.882-7.546.87a27.5 27.5 0 0 1-9.462-1.531 18.64 18.64 0 0 1-11.566-11.474 26.9 26.9 0 0 1-1.546-9.401c-.046-3.147.5-6.275 1.609-9.22a19.7 19.7 0 0 1 4.639-7.058 20.4 20.4 0 0 1 7.267-4.505 27.3 27.3 0 0 1 9.493-1.562c2.32-.012 4.633.24 6.896.751a25.6 25.6 0 0 1 6.03 2.193v8.53a20.2 20.2 0 0 0-5.505-2.553 22 22 0 0 0-6.246-.871c-2.666-.077-5.31.5-7.7 1.682a11.5 11.5 0 0 0-4.887 4.864 16.25 16.25 0 0 0-1.7 7.749 16.95 16.95 0 0 0 1.638 7.779 11.2 11.2 0 0 0 4.762 4.896 15.8 15.8 0 0 0 7.576 1.681c4.436.029 8.789-1.2 12.555-3.544z"/><path fill="#00f320" d="M425.652 122.035a43 43 0 0 0-15.227 2.687 46.9 46.9 0 0 0-13.211 7.613q1.342 20.154 8.845 30.455 7.5 10.303 20.937 10.3a24.2 24.2 0 0 0 12.764-3.245 21.5 21.5 0 0 0 8.286-9.182 30.9 30.9 0 0 0 2.912-13.773q0-11.641-6.718-18.25-6.72-6.6-18.588-6.605M428.274 0c-47.234 0-89.817 28.453-107.892 72.09s-8.08 93.866 25.319 127.265 83.626 43.393 127.264 25.319 72.09-60.658 72.09-107.892C545.056 52.285 492.772 0 428.275 0m51.793 168.5a46.16 46.16 0 0 1-11.532 16.347 52.4 52.4 0 0 1-17.803 10.525 67.3 67.3 0 0 1-22.84 3.695q-20.155 0-34.486-8.734-14.334-8.73-21.834-25.304-7.506-16.569-7.502-40.308 0-20.375 5.263-36.725a77.9 77.9 0 0 1 15.227-27.768 65.6 65.6 0 0 1 24.297-17.466q14.328-6.046 32.245-6.046c6.018-.04 12.024.56 17.915 1.79a96.5 96.5 0 0 1 17.242 5.6V71.65a108.4 108.4 0 0 0-16.458-5.374 74 74 0 0 0-16.683-1.792q-40.308 0-45.458 45.46a56.05 56.05 0 0 1 36.053-12.766q15.452 0 26.76 6.048a42.3 42.3 0 0 1 17.467 17.241q6.156 11.202 6.157 26.648a54.3 54.3 0 0 1-4.03 21.386M838.517 66.171q-11.823 0-20.385 3.67-8.56 3.534-13.317 10.192-4.62 6.66-4.62 15.9-.001 6.522 2.173 11.278 2.175 4.621 6.387 8.02 4.214 3.26 10.33 5.707t14.132 4.348q4.893 1.224 8.835 2.72 3.94 1.357 6.25 3.804 2.446 2.31 2.447 6.523 0 5.571-4.892 8.697-4.757 3.125-13.997 3.125-16.308 0-30.85-8.832v18.752q7.202 3.806 14.948 5.573a72.5 72.5 0 0 0 15.902 1.767q12.637 0 21.607-3.533 8.97-3.67 13.725-10.464 4.756-6.932 4.757-16.58 0-7.34-2.582-12.367-2.447-5.03-7.068-8.29-4.485-3.262-10.464-5.3-5.98-2.175-12.91-3.94-5.436-1.359-9.513-2.718-3.94-1.495-6.115-3.67-2.175-2.31-2.175-6.115 0-5.3 4.485-8.154 4.62-2.854 12.91-2.853a57 57 0 0 1 15.085 2.038q7.61 2.037 13.59 5.707V72.694q-5.98-2.99-13.453-4.757a66 66 0 0 0-15.222-1.766m131.993 0q-11.55 0-20.927 3.533-9.242 3.533-15.902 10.192T923.49 95.933q-3.533 9.241-3.533 20.792 0 11.823 3.398 21.335 3.397 9.377 9.784 15.9 6.387 6.524 15.628 10.057 9.24 3.398 20.792 3.398 8.697 0 16.58-2.038 7.882-1.903 13.862-5.302v-18.89q-12.639 8.02-27.587 8.02-9.784 0-16.715-3.805-6.796-3.806-10.465-11.01-3.532-7.337-3.532-17.665-.001-10.328 3.667-17.532 3.806-7.201 10.738-11.007 7.066-3.805 16.987-3.805 7.202 0 13.725 2.038a42.3 42.3 0 0 1 12.095 5.71v-19.3q-6.115-3.261-13.318-4.892-7.067-1.766-15.085-1.766M583.673 68.21v97.168h19.977V99.331q5.572 11.958 11.28 24.052a1451 1451 0 0 0 11.687 23.92h16.715a2883 2883 0 0 0 11.552-23.92q5.843-12.093 11.415-24.325v66.32h19.978v-97.17h-24.463a998 998 0 0 1-12.91 30.035 2870 2870 0 0 1-13.454 29.218q-6.93-14.542-13.59-29.355a2136 2136 0 0 1-13.045-29.897zm120.084 0v57.349q0 13.182 4.892 22.56 5.028 9.376 14.27 14.404 9.376 4.893 22.422 4.893 12.91 0 22.287-4.893 9.377-5.028 14.27-14.404 5.028-9.378 5.027-22.56v-57.35h-20.927v59.66q0 10.328-5.435 15.9-5.3 5.437-15.222 5.437-9.92 0-15.355-5.437-5.3-5.572-5.3-15.9v-59.66Zm181.46 0v97.168h20.927V68.21Z"/></svg>