<svg xmlns="http://www.w3.org/2000/svg" viewBox="0 0 512 219.41"><path fill="#fff" d="M12.272 161.926v20.99H0v-57.725h21.071q11.383 0 17.48 4.765 6.095 4.764 6.096 13.644a16.36 16.36 0 0 1-10.415 15.984 1040 1040 0 0 1 7.186 11.505 666 666 0 0 1 7.105 11.827h-14.29a573 573 0 0 0-12.029-20.99zm0-9.769h8.074q5.73 0 8.72-2.058 2.985-2.062 2.986-6.499 0-4.442-2.947-6.542-2.948-2.098-8.679-2.098h-8.154zm84.85 30.76q-2.1-6.375-4.198-12.513H69.511q-2.1 6.215-4.198 12.512H51.992a1128 1128 0 0 1 11.182-29.63 1106 1106 0 0 1 11.504-28.095H88.08a1585 1585 0 0 1 11.666 28.864 1616 1616 0 0 1 11.02 28.861zm-24.058-22.848h16.228a560 560 0 0 0-3.996-11.262q-2.06-5.61-4.077-11.02-4.201 11.059-8.155 22.282m44.726-34.878h22.04q9.123 0 15.623 3.39a22.9 22.9 0 0 1 9.889 9.811q3.39 6.416 3.39 15.539 0 9.124-3.43 15.622a23.35 23.35 0 0 1-9.89 9.931q-6.46 3.435-15.662 3.43h-21.96zm21.315 47.07q8.07 0 12.393-4.725 4.317-4.72 4.319-13.604 0-8.796-4.239-13.441-4.238-4.644-12.392-4.641h-8.962v36.41zm39.477-47.07h12.433v57.725h-12.433zm50.944-1.211c4.04-.057 8.054.656 11.827 2.1a25.26 25.26 0 0 1 9.042 6.014 26.7 26.7 0 0 1 5.774 9.445 39.45 39.45 0 0 1 0 24.908 27 27 0 0 1-5.774 9.525 25 25 0 0 1-9.042 6.057 34.4 34.4 0 0 1-23.655 0 25 25 0 0 1-9.041-6.057 27 27 0 0 1-5.774-9.525 39.45 39.45 0 0 1 0-24.908 26.6 26.6 0 0 1 5.774-9.445 25.2 25.2 0 0 1 9.041-6.014 31.8 31.8 0 0 1 11.828-2.1m0 49.328c2.99.08 5.938-.719 8.477-2.3a14.47 14.47 0 0 0 5.41-6.579 30.15 30.15 0 0 0 0-20.829 14.23 14.23 0 0 0-5.41-6.542 17.04 17.04 0 0 0-16.954 0 14.2 14.2 0 0 0-5.41 6.542 30.12 30.12 0 0 0 0 20.83 14.46 14.46 0 0 0 5.41 6.579 15.26 15.26 0 0 0 8.477 2.3M.001 36.63v73.177h73.176V36.63Zm51.03 51.643a11.96 11.96 0 0 1-5.345 4.087 21.7 21.7 0 0 1-8.339 1.439H20.948V52.637h15.447q6.829 0 10.579 2.734a9.14 9.14 0 0 1 3.75 7.859 9.45 9.45 0 0 1-1.343 5.095 9.26 9.26 0 0 1-3.974 3.425 10.97 10.97 0 0 1 5.569 3.829 10.43 10.43 0 0 1 1.93 6.362 10.68 10.68 0 0 1-1.874 6.332M40.566 68.152a4.83 4.83 0 0 0 1.707-3.944q0-4.893-6.661-4.893h-6.325v10.248h6.325a7.6 7.6 0 0 0 4.954-1.411m-3.89 7.858h-7.388v11.112h7.277a10 10 0 0 0 5.764-1.41 4.65 4.65 0 0 0 2.015-4.06q0-5.642-7.668-5.642m54.796-39.38v73.177h73.177V36.63Zm51.031 51.643a11.96 11.96 0 0 1-5.345 4.087 21.7 21.7 0 0 1-8.34 1.439H112.42V52.637h15.447q6.828 0 10.578 2.734a9.14 9.14 0 0 1 3.75 7.859 9.45 9.45 0 0 1-1.343 5.095 9.26 9.26 0 0 1-3.974 3.425 10.97 10.97 0 0 1 5.57 3.829 10.43 10.43 0 0 1 1.93 6.362 10.68 10.68 0 0 1-1.875 6.332m-10.466-20.121a4.83 4.83 0 0 0 1.706-3.944q0-4.893-6.66-4.893h-6.325v10.248h6.324a7.6 7.6 0 0 0 4.955-1.411m-3.89 7.858h-7.388v11.112h7.276a10 10 0 0 0 5.765-1.41 4.65 4.65 0 0 0 2.015-4.06q0-5.642-7.668-5.642m54.796 33.797h73.176V36.63h-73.176zm52.556-18.616a24 24 0 0 1-5.926 2.229 30 30 0 0 1-7.089.818 25.8 25.8 0 0 1-8.889-1.44A17.5 17.5 0 0 1 202.73 82.02a25.3 25.3 0 0 1-1.453-8.83 23.6 23.6 0 0 1 1.511-8.662 18.5 18.5 0 0 1 4.358-6.63 19.2 19.2 0 0 1 6.827-4.232 25.7 25.7 0 0 1 8.918-1.468c2.179-.011 4.352.226 6.478.706a24 24 0 0 1 5.664 2.06v8.013a19 19 0 0 0-5.17-2.398 20.8 20.8 0 0 0-5.869-.818 15.3 15.3 0 0 0-7.233 1.58 10.82 10.82 0 0 0-4.59 4.57 15.3 15.3 0 0 0-1.598 7.278 15.9 15.9 0 0 0 1.54 7.307 10.5 10.5 0 0 0 4.473 4.6 14.83 14.83 0 0 0 7.117 1.58 22.05 22.05 0 0 0 11.794-3.33v7.845z"/><path fill="#004be1" d="M368.61 131.75h42.647V72.297a4412 4412 0 0 0-21.85 29.935 1428 1428 0 0 0-20.798 29.516M402.295 0c-44.371 0-84.374 26.729-101.353 67.722-16.98 40.992-7.591 88.176 23.784 119.551s78.559 40.763 119.551 23.784C485.271 194.077 512 154.075 512 109.704 512 49.116 462.884 0 402.296 0m54.547 156.12h-15.757v28.15h-29.83v-28.15H340.04v-24.58a1774 1774 0 0 1 32.876-46.639q16.701-22.894 35.82-47.476h32.351v94.323h15.757z"/></svg>