<svg xmlns="http://www.w3.org/2000/svg" viewBox="0 0 1000 330.04"><path d="M90.773 327.148h95.075v-25.842h-65.38V189.257H90.771Zm142.229-135.767a60.3 60.3 0 0 0-21.603 14.366 63.7 63.7 0 0 0-13.788 22.564 94.2 94.2 0 0 0 0 59.495 64.5 64.5 0 0 0 13.788 22.757 59.7 59.7 0 0 0 21.6 14.464 82.1 82.1 0 0 0 56.506 0 59.7 59.7 0 0 0 21.6-14.464 64.5 64.5 0 0 0 13.788-22.757 94.2 94.2 0 0 0 0-59.495 63.7 63.7 0 0 0-13.788-22.564 60.4 60.4 0 0 0-21.6-14.368 82.1 82.1 0 0 0-56.505 0zm8 107.32a34.48 34.48 0 0 1-12.92-15.716 71.97 71.97 0 0 1 .001-49.756 33.9 33.9 0 0 1 12.92-15.622 40.66 40.66 0 0 1 40.498 0 33.96 33.96 0 0 1 12.923 15.622 72 72 0 0 1 0 49.756 34.53 34.53 0 0 1-12.923 15.717 40.05 40.05 0 0 1-40.499 0m226.792 28.447v-137.89h-28.542v94.306q-15.043-24.105-30.18-47.54-15.142-23.432-30.76-46.767h-30.084v137.891h28.54V231.88q15.044 22.759 30.47 46.959 15.427 24.207 30.471 48.31zm26.613 0h52.456q21.983 0 37.413-8.197a55.7 55.7 0 0 0 23.624-23.72q8.195-15.52 8.199-37.317 0-21.79-8.104-37.125a54.72 54.72 0 0 0-23.623-23.432q-15.526-8.1-37.318-8.1h-52.647zm29.7-25.456v-86.978h21.406q19.476 0 29.604 11.09 10.124 11.093 10.124 32.11 0 21.216-10.319 32.495-10.318 11.283-29.604 11.28zM672.893 191.38a60.3 60.3 0 0 0-21.602 14.366 63.7 63.7 0 0 0-13.79 22.564 94.2 94.2 0 0 0 0 59.495 64.5 64.5 0 0 0 13.79 22.757 59.7 59.7 0 0 0 21.6 14.464 82.1 82.1 0 0 0 56.507 0 59.7 59.7 0 0 0 21.6-14.464 64.5 64.5 0 0 0 13.788-22.757 94.2 94.2 0 0 0 0-59.495 63.7 63.7 0 0 0-13.79-22.564 60.4 60.4 0 0 0-21.6-14.368 82.1 82.1 0 0 0-56.503 0zm8 107.32a34.48 34.48 0 0 1-12.919-15.716 71.97 71.97 0 0 1 0-49.756 33.9 33.9 0 0 1 12.92-15.622 40.66 40.66 0 0 1 40.498 0 33.96 33.96 0 0 1 12.923 15.622 72 72 0 0 1 0 49.756 34.53 34.53 0 0 1-12.921 15.717 40.05 40.05 0 0 1-40.499 0zm228.337 28.447v-137.89h-28.542v94.306q-15.047-24.105-30.183-47.54-15.141-23.432-30.76-46.767H789.66v137.891h28.542V231.88q15.044 22.759 30.47 46.959 15.425 24.207 30.47 48.31z" style="fill:#9647e6;stroke-width:1.83668292"/><path fill="#fff" d="M0 .002v137.751h137.751V.002Zm95.373 97.214a22.5 22.5 0 0 1-10.06 7.695 40.9 40.9 0 0 1-15.7 2.708h-30.87V30.134h29.078q12.853 0 19.914 5.147a17.2 17.2 0 0 1 7.06 14.792 17.8 17.8 0 0 1-2.53 9.592 17.4 17.4 0 0 1-7.48 6.446 20.66 20.66 0 0 1 10.484 7.208 19.62 19.62 0 0 1 3.635 11.975 20.1 20.1 0 0 1-3.53 11.92zM75.671 59.338a9.1 9.1 0 0 0 3.215-7.424q0-9.21-12.54-9.211H54.442v19.29h11.906a14.3 14.3 0 0 0 9.324-2.655M68.348 74.13H54.441v20.917h13.696A18.8 18.8 0 0 0 78.99 92.39a8.76 8.76 0 0 0 3.793-7.64q0-10.619-14.436-10.62zM172.19 0v137.751H309.94V0Zm95.373 97.214a22.5 22.5 0 0 1-10.06 7.695 40.9 40.9 0 0 1-15.7 2.708h-30.87V30.134h29.078q12.853 0 19.914 5.147a17.2 17.2 0 0 1 7.06 14.792 17.8 17.8 0 0 1-2.53 9.592 17.4 17.4 0 0 1-7.48 6.446 20.66 20.66 0 0 1 10.484 7.208 19.62 19.62 0 0 1 3.635 11.975 20.1 20.1 0 0 1-3.53 11.92M247.86 59.338a9.1 9.1 0 0 0 3.215-7.424q0-9.21-12.54-9.211H226.63v19.29h11.906a14.3 14.3 0 0 0 9.324-2.655m-7.323 14.792H226.63v20.917h13.696a18.8 18.8 0 0 0 10.853-2.656 8.76 8.76 0 0 0 3.793-7.64q0-10.619-14.436-10.62zm103.841 63.621h137.751V0H344.378Zm98.935-35.044a45 45 0 0 1-11.156 4.195 56.4 56.4 0 0 1-13.344 1.54 48.7 48.7 0 0 1-16.732-2.708 34.2 34.2 0 0 1-12.58-7.808 33.8 33.8 0 0 1-7.873-12.482 47.6 47.6 0 0 1-2.737-16.622 44.5 44.5 0 0 1 2.847-16.306 34.8 34.8 0 0 1 8.2-12.482 36.1 36.1 0 0 1 12.852-7.966 48.3 48.3 0 0 1 16.787-2.762 54 54 0 0 1 12.196 1.328 45.3 45.3 0 0 1 10.664 3.877v15.083a35.7 35.7 0 0 0-9.735-4.513 39 39 0 0 0-11.046-1.54 28.84 28.84 0 0 0-13.617 2.975 20.37 20.37 0 0 0-8.64 8.603 28.74 28.74 0 0 0-3.006 13.702 30 30 0 0 0 2.898 13.756 19.8 19.8 0 0 0 8.421 8.658 27.9 27.9 0 0 0 13.399 2.974 41.5 41.5 0 0 0 22.202-6.267zM559.31 82.985v37.555h-21.955V17.263h37.7q20.366 0 31.273 8.522 10.902 8.524 10.904 24.41a29.29 29.29 0 0 1-18.633 28.6q6.5 10.26 12.857 20.584 6.355 10.33 12.71 21.16h-25.567q-10.4-19.064-21.522-37.554zm0-17.478h14.446q10.254 0 15.599-3.682 5.343-3.683 5.345-11.628 0-7.942-5.274-11.7-5.273-3.754-15.527-3.756H559.31zm152.531 55.033q-3.758-11.408-7.512-22.39h-41.887q-3.758 11.127-7.512 22.39h-23.833q9.82-27.154 20.007-53.01 10.183-25.854 20.582-50.267h23.978q10.687 25.714 20.872 51.64 10.18 25.927 19.717 51.637zM668.8 79.662h29.032q-3.468-10.107-7.15-20.148-3.684-10.037-7.295-19.717-7.512 19.79-14.587 39.865m80.018-62.399h39.434A59.75 59.75 0 0 1 816.2 23.33a41 41 0 0 1 17.694 17.55 58.86 58.86 0 0 1 6.067 27.805 59.17 59.17 0 0 1-6.138 27.95 41.74 41.74 0 0 1-17.695 17.766 59.04 59.04 0 0 1-28.022 6.139h-39.289zm38.134 84.212q14.441 0 22.172-8.45 7.723-8.45 7.727-24.34 0-15.74-7.584-24.05-7.581-8.304-22.172-8.305h-16.03v65.145Zm70.63-84.212h22.245V120.54H857.58zm91.145-2.167a56.9 56.9 0 0 1 21.158 3.758 45.2 45.2 0 0 1 16.181 10.759 47.7 47.7 0 0 1 10.324 16.901 70.55 70.55 0 0 1 0 44.56 48.3 48.3 0 0 1-10.325 17.044 44.7 44.7 0 0 1-16.178 10.833 61.5 61.5 0 0 1-42.32 0 44.7 44.7 0 0 1-16.18-10.833 48.3 48.3 0 0 1-10.328-17.044 70.55 70.55 0 0 1 0-44.56 47.7 47.7 0 0 1 10.328-16.901 45.2 45.2 0 0 1 16.18-10.76 56.9 56.9 0 0 1 21.158-3.755zm0 88.256a27.3 27.3 0 0 0 15.165-4.116 25.87 25.87 0 0 0 9.68-11.773 53.93 53.93 0 0 0 0-37.266 25.44 25.44 0 0 0-9.68-11.7 30.46 30.46 0 0 0-30.333 0 25.4 25.4 0 0 0-9.677 11.7 53.9 53.9 0 0 0 0 37.266 25.83 25.83 0 0 0 9.677 11.773 27.3 27.3 0 0 0 15.168 4.114z" style="stroke-width:1.83668292"/></svg>