<svg xmlns="http://www.w3.org/2000/svg" fill="#fff" viewBox="0 0 500 124.38"><path d="M263.594 109.518q0 4.305-2.282 7.399-2.215 3.094-6.376 4.775-4.16 1.681-9.999 1.681h-19.663V75.284h18.522q8.188 0 12.684 3.229 4.496 3.16 4.496 9.147 0 3.43-1.61 5.986-1.61 2.488-4.765 3.968 4.362 1.412 6.644 4.506 2.349 3.027 2.349 7.398m-28.32-14.46h7.583q3.892 0 5.905-1.614 2.08-1.682 2.08-4.64 0-5.718-7.985-5.718h-7.584zm0 20.514h8.724q4.496 0 6.912-1.615 2.416-1.681 2.416-4.775 0-6.591-9.194-6.591h-8.859zM290.372 124.382q-6.443 0-11.074-2.42-4.563-2.49-7.046-7.13-2.416-4.641-2.416-11.165V75.284h10.335v29.526q0 5.112 2.617 7.87 2.684 2.69 7.584 2.69t7.516-2.69q2.684-2.758 2.684-7.87V75.284h10.335v28.383q0 6.524-2.483 11.165-2.416 4.64-7.047 7.13-4.63 2.42-11.005 2.42M316.858 75.284h40.534v9.013h-15.1v39.076h-10.334V84.297h-15.1zM361.545 75.284h40.534v9.013h-15.1v39.076h-10.334V84.297h-15.1zM427.708 74.275q5.436 0 9.798 1.75 4.43 1.748 7.516 5.043 3.155 3.229 4.832 7.87 1.678 4.573 1.678 10.357 0 5.717-1.678 10.358-1.677 4.64-4.832 7.936-3.087 3.296-7.516 5.045-4.362 1.748-9.798 1.748t-9.865-1.748q-4.362-1.749-7.516-5.045-3.087-3.295-4.765-7.936-1.678-4.64-1.678-10.358 0-5.784 1.678-10.357 1.678-4.641 4.765-7.87 3.154-3.295 7.516-5.044 4.43-1.749 9.865-1.749m0 41.095q4.094 0 7.047-1.883 2.953-1.95 4.496-5.515t1.544-8.677-1.544-8.676-4.496-5.448-7.047-1.883-7.046 1.883-4.497 5.448-1.543 8.676 1.543 8.677 4.497 5.515q2.952 1.883 7.046 1.883M489.53 123.373q-5.234-8.407-10.602-16.814-5.37-8.474-10.604-16.41v33.224h-9.932V75.284h10.47q5.435 8.138 10.67 16.344 5.301 8.138 10.536 16.545V75.284H500v48.09zM82.823 105.887v17.486H72.622V75.284h17.516q9.462 0 14.495 3.969 5.1 3.968 5.1 11.366 0 4.775-2.281 8.138-2.215 3.363-6.375 5.18 3.02 4.774 5.972 9.617 2.953 4.775 5.906 9.82h-11.878q-4.832-8.879-10-17.487h-1.006zm0-8.139h6.71q4.765 0 7.248-1.681 2.484-1.749 2.484-5.448t-2.484-5.448q-2.415-1.749-7.18-1.749h-6.778zM118.879 75.284h33.018v8.61h-22.683v10.424h20.132v8.61h-20.132v11.837h23.958v8.608h-34.293zM160.469 75.284h18.32q7.584 0 12.953 2.825 5.436 2.825 8.254 8.206 2.819 5.313 2.819 12.913t-2.886 13.048q-2.819 5.38-8.187 8.273-5.37 2.824-13.02 2.824H160.47zm17.717 39.211q6.71 0 10.267-3.9 3.624-3.969 3.624-11.367 0-7.331-3.557-11.165-3.49-3.9-10.267-3.9h-7.45v30.332z" style="stroke-width:.260799"/><path d="M50.09 99.232a25.045 25.078 0 0 1-25.045 25.078A25.045 25.078 0 0 1 0 99.232a25.045 25.078 0 0 1 25.045-25.078 25.045 25.078 0 0 1 25.046 25.078" style="fill:#e8100c;stroke-width:.260799"/><path d="M157.001 0v54.77h54.604V0Zm38.08 38.653a8.93 8.93 0 0 1-3.99 3.059 16.2 16.2 0 0 1-6.222 1.077h-12.237V11.981h11.527q5.094 0 7.893 2.046a6.85 6.85 0 0 1 2.798 5.882 7.1 7.1 0 0 1-1.002 3.813 6.9 6.9 0 0 1-2.965 2.564 8.2 8.2 0 0 1 4.156 2.866 7.82 7.82 0 0 1 1.44 4.762 8 8 0 0 1-1.399 4.739m-7.811-15.06a3.62 3.62 0 0 0 1.274-2.952q0-3.662-4.97-3.662h-4.72v7.67h4.72a5.66 5.66 0 0 0 3.696-1.056m-2.903 5.882h-5.512v8.316h5.429a7.43 7.43 0 0 0 4.302-1.056 3.48 3.48 0 0 0 1.503-3.037q0-4.223-5.722-4.223M225.257 0v54.77h54.603V0Zm38.078 38.653a8.93 8.93 0 0 1-3.988 3.059 16.2 16.2 0 0 1-6.223 1.077h-12.237V11.981h11.527q5.094 0 7.893 2.046a6.85 6.85 0 0 1 2.798 5.882 7.1 7.1 0 0 1-1.002 3.813 6.9 6.9 0 0 1-2.965 2.564 8.2 8.2 0 0 1 4.156 2.866 7.82 7.82 0 0 1 1.44 4.762 8 8 0 0 1-1.399 4.739m-7.81-15.06a3.62 3.62 0 0 0 1.274-2.952q0-3.662-4.97-3.662h-4.72v7.67h4.72a5.66 5.66 0 0 0 3.696-1.056m-2.903 5.882h-5.512v8.316h5.43a7.43 7.43 0 0 0 4.301-1.056 3.48 3.48 0 0 0 1.503-3.037q0-4.224-5.722-4.223m40.89 25.295h54.603V0h-54.604zm39.216-13.934a17.8 17.8 0 0 1-4.422 1.668c-1.732.415-3.508.62-5.29.613a19.2 19.2 0 0 1-6.632-1.077 13.08 13.08 0 0 1-8.107-8.068 19 19 0 0 1-1.084-6.61 17.7 17.7 0 0 1 1.128-6.482 13.85 13.85 0 0 1 3.252-4.963 14.3 14.3 0 0 1 5.093-3.167 19.1 19.1 0 0 1 6.655-1.099 21.4 21.4 0 0 1 4.834.529c1.468.334 2.888.852 4.227 1.541v5.998a14.2 14.2 0 0 0-3.859-1.795 15.5 15.5 0 0 0-4.379-.612 11.4 11.4 0 0 0-5.397 1.182 8.1 8.1 0 0 0-3.425 3.42 11.46 11.46 0 0 0-1.193 5.449 11.95 11.95 0 0 0 1.15 5.469 7.86 7.86 0 0 0 3.337 3.442 11.04 11.04 0 0 0 5.31 1.183c3.11.02 6.162-.844 8.802-2.492z" style="stroke-width:.336065"/></svg>