<svg xmlns="http://www.w3.org/2000/svg" viewBox="0 0 1000 311.13"><path d="M97.528 250.84a35.7 35.7 0 0 0-18.088-12.089 29.8 29.8 0 0 0 12.907-10.817 29.2 29.2 0 0 0 4.363-16.087q0-16.179-12.18-24.816-12.181-8.63-34.36-8.634H0v129.978h53.263a72.4 72.4 0 0 0 27.084-4.545 38.73 38.73 0 0 0 17.365-12.909 33.05 33.05 0 0 0 6.089-19.996 32.28 32.28 0 0 0-6.27-20.084zm-70.442-51.356h20.542q21.63 0 21.632 15.453a15.07 15.07 0 0 1-5.544 12.452q-5.55 4.456-16.088 4.452H27.086Zm0 52.72h23.996q24.9 0 24.904 17.814a14.56 14.56 0 0 1-6.544 12.815q-6.544 4.456-18.726 4.455H27.084Zm93.075 56.17h92.89v-23.268h-64.896v-31.994h54.535v-23.268h-54.535v-28.179h61.443v-23.268H120.16zm158.153-47.263h2.727q13.996 23.27 27.086 47.264h32.174q-7.998-13.634-15.993-26.633-8.004-12.993-16.181-25.903a39 39 0 0 0 17.36-13.998 38.6 38.6 0 0 0 6.09-21.996q0-19.998-13.725-30.723-13.73-10.724-39.356-10.725H231.05v129.978h27.632V261.11zm-19.632-60.718h18.36q12.903 0 19.54 4.726 6.635 4.73 6.637 14.726 0 10-6.728 14.633-6.726 4.637-19.633 4.637H258.68zm154.517 80.168q11.454 13.634 22.904 27.814h35.63q-14.908-17.814-29.54-34.811-14.635-16.998-29.54-33.904 13.996-15.448 27.45-30.632 13.452-15.176 26.54-30.631h-33.63q-10.36 12.725-20.997 24.996-10.632 12.271-22.266 25.36h-7.273v-50.356h-27.995v129.978h27.995v-55.99h6.728q12.541 14.543 23.994 28.176m138.336 25.722a39.5 39.5 0 0 0 18.362-13.996 37.8 37.8 0 0 0 6.363-22.087 36.8 36.8 0 0 0-3.364-16.543 29.9 29.9 0 0 0-9.453-11.089 56 56 0 0 0-14.09-7.18q-7.998-2.818-17.269-5.18-7.271-1.815-12.633-3.728a21.2 21.2 0 0 1-8.272-4.907 11.12 11.12 0 0 1-2.909-8.09 12.15 12.15 0 0 1 6.091-10.909q6.087-3.817 17.178-3.817a77.4 77.4 0 0 1 20.27 2.726 68.7 68.7 0 0 1 18.088 7.635v-24.722a83 83 0 0 0-17.997-6.363 88.3 88.3 0 0 0-20.361-2.363 70.1 70.1 0 0 0-27.268 4.816 40 40 0 0 0-17.723 13.726 36 36 0 0 0-6.27 21.27 35.4 35.4 0 0 0 2.906 14.997 29.2 29.2 0 0 0 8.544 10.725 55.1 55.1 0 0 0 13.816 7.727 135 135 0 0 0 18.905 5.817 122 122 0 0 1 11.816 3.544 22.7 22.7 0 0 1 8.454 5.09 11.93 11.93 0 0 1 3.182 8.817 13.14 13.14 0 0 1-6.454 11.635q-6.456 4.184-18.816 4.18a78.17 78.17 0 0 1-41.263-11.815v25.086a81 81 0 0 0 20.085 7.453 96 96 0 0 0 21.178 2.363 77.6 77.6 0 0 0 28.904-4.818m155.428 2.092V178.397h-27.995v49.809h-56.537v-49.81h-27.995v129.979h27.995v-55.81h56.537v55.81zm25.086 0h27.995V178.397h-27.995zm98.89-47.264h2.728q13.996 23.27 27.088 47.264h32.174q-7.999-13.634-15.994-26.633-8.004-12.993-16.18-25.903a39 39 0 0 0 17.36-13.998 38.6 38.6 0 0 0 6.09-21.996q0-19.998-13.724-30.723-13.73-10.724-39.36-10.725h-47.445v129.978h27.631V261.11zm-19.633-60.718h18.362q12.903 0 19.54 4.726 6.635 4.73 6.637 14.726 0 10-6.728 14.633-6.726 4.637-19.633 4.637h-18.178Zm95.802 107.98H1000v-23.269h-64.899v-31.992h54.535v-23.268h-54.535v-28.179h61.443v-23.268h-89.436Z" style="fill:#9647e6;stroke-width:1.7312839"/><path fill="#fff" d="M28.693.002v129.846h129.846V.002Zm89.9 91.635a21.2 21.2 0 0 1-9.484 7.254 38.6 38.6 0 0 1-14.799 2.552H65.212V28.405h27.41q12.115 0 18.77 4.851a16.21 16.21 0 0 1 6.656 13.944 16.76 16.76 0 0 1-2.384 9.04 16.4 16.4 0 0 1-7.052 6.078 19.47 19.47 0 0 1 9.882 6.795A18.5 18.5 0 0 1 121.92 80.4a18.94 18.94 0 0 1-3.327 11.236m-18.572-35.704a8.57 8.57 0 0 0 3.03-6.998q0-8.68-11.82-8.683H80.01v18.184h11.222a13.5 13.5 0 0 0 8.79-2.503M93.12 69.876h-13.11v19.716h12.91a17.7 17.7 0 0 0 10.23-2.503 8.25 8.25 0 0 0 3.576-7.202q0-10.009-13.608-10.01zM191 0v129.846h129.847V0Zm89.9 91.635a21.2 21.2 0 0 1-9.483 7.254 38.6 38.6 0 0 1-14.8 2.552H227.52V28.405h27.41q12.115 0 18.77 4.851a16.21 16.21 0 0 1 6.655 13.944 16.76 16.76 0 0 1-2.384 9.04 16.4 16.4 0 0 1-7.051 6.078 19.47 19.47 0 0 1 9.882 6.795 18.5 18.5 0 0 1 3.426 11.288 18.94 18.94 0 0 1-3.327 11.236zm-18.57-35.702a8.57 8.57 0 0 0 3.03-6.998q0-8.68-11.82-8.683h-11.223v18.184h11.223a13.5 13.5 0 0 0 8.79-2.503m-6.903 13.943h-13.11v19.716h12.91a17.7 17.7 0 0 0 10.23-2.503 8.25 8.25 0 0 0 3.576-7.202q0-10.009-13.608-10.01zm97.881 59.97h129.847V0H353.308zm93.258-33.033a42.4 42.4 0 0 1-10.516 3.955 53.2 53.2 0 0 1-12.578 1.45 45.9 45.9 0 0 1-15.774-2.551 32.2 32.2 0 0 1-11.856-7.36 31.9 31.9 0 0 1-7.422-11.766 44.9 44.9 0 0 1-2.58-15.668 41.9 41.9 0 0 1 2.684-15.37 32.8 32.8 0 0 1 7.73-11.766 34.05 34.05 0 0 1 12.114-7.509 45.5 45.5 0 0 1 15.824-2.604 51 51 0 0 1 11.496 1.252 42.7 42.7 0 0 1 10.052 3.655v14.217a33.7 33.7 0 0 0-9.176-4.254 36.8 36.8 0 0 0-10.412-1.452 27.2 27.2 0 0 0-12.836 2.804 19.2 19.2 0 0 0-8.144 8.11 27.1 27.1 0 0 0-2.834 12.915 28.25 28.25 0 0 0 2.732 12.968 18.66 18.66 0 0 0 7.938 8.16 26.3 26.3 0 0 0 12.628 2.804 39.14 39.14 0 0 0 20.928-5.91zm109.34-18.59v35.4h-20.695v-97.35h35.536q19.198 0 29.479 8.032 10.277 8.035 10.278 23.01a27.605 27.605 0 0 1-17.563 26.959q6.127 9.67 12.119 19.402 5.99 9.737 11.98 19.946h-24.1q-9.802-17.97-20.287-35.4Zm0-16.475h13.617q9.666 0 14.704-3.471 5.036-3.473 5.038-10.961 0-7.486-4.97-11.028-4.971-3.539-14.637-3.54h-13.751zm143.779 51.874q-3.543-10.753-7.081-21.104H653.12q-3.542 10.488-7.081 21.104h-22.465q9.257-25.595 18.859-49.968 9.598-24.37 19.4-47.382h22.602Q694.51 40.51 704.11 64.95q9.596 24.439 18.585 48.673zm-40.573-38.531h27.366q-3.268-9.527-6.74-18.992-3.473-9.462-6.876-18.586-7.081 18.655-13.75 37.578m75.427-58.819h37.17a56.3 56.3 0 0 1 26.345 5.719 38.64 38.64 0 0 1 16.68 16.544 55.5 55.5 0 0 1 5.718 26.208 55.8 55.8 0 0 1-5.786 26.347 39.35 39.35 0 0 1-16.68 16.746 55.65 55.65 0 0 1-26.413 5.786h-37.034zm35.945 79.38q13.611 0 20.9-7.966 7.28-7.964 7.283-22.943 0-14.837-7.148-22.67-7.147-7.826-20.9-7.828h-15.113v61.407zm66.576-79.38h20.97v97.35h-20.97zm85.915-2.043a53.7 53.7 0 0 1 19.945 3.543 42.64 42.64 0 0 1 15.252 10.141 45 45 0 0 1 9.732 15.932 66.5 66.5 0 0 1 0 42.002 45.55 45.55 0 0 1-9.734 16.067 42.2 42.2 0 0 1-15.249 10.21 57.96 57.96 0 0 1-39.892 0 42.15 42.15 0 0 1-15.25-10.21 45.5 45.5 0 0 1-9.736-16.067 66.5 66.5 0 0 1 0-42.002 45 45 0 0 1 9.735-15.932 42.6 42.6 0 0 1 15.251-10.141 53.7 53.7 0 0 1 19.944-3.54zm0 83.192a25.73 25.73 0 0 0 14.295-3.88 24.4 24.4 0 0 0 9.124-11.097 50.83 50.83 0 0 0 0-35.128 23.98 23.98 0 0 0-9.124-11.028 28.71 28.71 0 0 0-28.592 0 23.94 23.94 0 0 0-9.122 11.028 50.8 50.8 0 0 0 0 35.128 24.35 24.35 0 0 0 9.122 11.097 25.7 25.7 0 0 0 14.297 3.878z" style="stroke-width:1.7312839"/></svg>