<svg xmlns="http://www.w3.org/2000/svg" viewBox="0 0 449.06 129.15"><path fill="#fff" d="M303.763 39.575v9.667h16.23v41.91H331.1v-41.91h16.231v-9.667zm47.366 0v51.578h10.965V72.398h8.872a512 512 0 0 1 10.75 18.755h12.767a508 508 0 0 0-6.348-10.533 743 743 0 0 0-6.42-10.315q4.473-1.948 6.853-5.554 2.453-3.606 2.453-8.728 0-7.935-5.483-12.19-5.41-4.258-15.581-4.258zm65.685 0A1080 1080 0 0 0 406.5 64.68a1100 1100 0 0 0-9.955 26.474h11.902q1.875-5.627 3.752-11.181h20.919q1.875 5.483 3.75 11.18h12.191a1224 1224 0 0 0-9.883-25.752 1205 1205 0 0 0-10.386-25.825zm-54.72 8.729h7.286q5.121 0 7.719 1.875 2.668 1.876 2.668 5.844 0 3.967-2.668 5.842-2.67 1.803-7.79 1.804h-7.215zm60.563 2.525a746 746 0 0 1 3.607 9.883 355 355 0 0 1 3.607 10.026h-14.5a889 889 0 0 1 7.286-19.91M7.223 95.288v12.354H0V73.667h12.402q6.7 0 10.288 2.804 3.586 2.805 3.588 8.03a9.63 9.63 0 0 1-6.13 9.408 607 607 0 0 1 4.229 6.772 392 392 0 0 1 4.182 6.96h-8.411a337 337 0 0 0-7.08-12.354zm0-5.75h4.752q3.373 0 5.132-1.21 1.757-1.215 1.758-3.826 0-2.614-1.735-3.85-1.735-1.235-5.108-1.235H7.223Zm49.94 18.104a713 713 0 0 0-2.471-7.364h-13.78q-1.236 3.657-2.47 7.364h-7.84a663 663 0 0 1 6.58-17.439 650 650 0 0 1 6.772-16.536h7.887a933 933 0 0 1 6.867 16.989 951 951 0 0 1 6.486 16.987zm-14.16-13.446h9.55a329 329 0 0 0-2.351-6.629 1255 1255 0 0 0-2.4-6.486 577 577 0 0 0-4.8 13.114Zm26.324-20.53H82.3q5.369 0 9.194 1.996a13.5 13.5 0 0 1 5.82 5.775q1.996 3.776 1.996 9.145 0 5.371-2.02 9.195a13.74 13.74 0 0 1-5.82 5.845q-3.801 2.02-9.218 2.019H69.327Zm12.545 27.704q4.75 0 7.294-2.78 2.54-2.778 2.542-8.007 0-5.176-2.495-7.911-2.494-2.733-7.294-2.732h-5.274v21.43Zm23.235-27.703h7.317v33.975h-7.317zm29.983-.713c2.378-.034 4.74.386 6.961 1.236 2.01.78 3.826 1.988 5.322 3.54a15.7 15.7 0 0 1 3.398 5.559 23.2 23.2 0 0 1 0 14.66 15.9 15.9 0 0 1-3.398 5.606 14.7 14.7 0 0 1-5.322 3.564 20.24 20.24 0 0 1-13.922 0c-2.015-.782-3.832-2-5.322-3.565a15.9 15.9 0 0 1-3.398-5.606 23.2 23.2 0 0 1 0-14.66 15.7 15.7 0 0 1 3.398-5.558 14.85 14.85 0 0 1 5.322-3.54 18.7 18.7 0 0 1 6.961-1.236m0 29.033a9 9 0 0 0 4.99-1.353 8.52 8.52 0 0 0 3.184-3.873 17.75 17.75 0 0 0 0-12.26 8.37 8.37 0 0 0-3.184-3.85 10.03 10.03 0 0 0-9.979 0 8.36 8.36 0 0 0-3.183 3.85 17.73 17.73 0 0 0 0 12.26 8.5 8.5 0 0 0 3.183 3.873 8.98 8.98 0 0 0 4.99 1.353M0 21.531V64.6h43.07V21.53Zm30.035 30.395a7.04 7.04 0 0 1-3.146 2.405c-1.565.602-3.233.89-4.908.847h-9.652V30.952h9.092q4.018 0 6.226 1.609a5.38 5.38 0 0 1 2.207 4.625 5.56 5.56 0 0 1-.79 2.999 5.45 5.45 0 0 1-2.34 2.016 6.46 6.46 0 0 1 3.278 2.253A6.14 6.14 0 0 1 31.14 48.2a6.3 6.3 0 0 1-1.104 3.727zm-6.16-11.843a2.84 2.84 0 0 0 1.004-2.321q0-2.88-3.92-2.88h-3.723v6.032h3.723a4.47 4.47 0 0 0 2.916-.83m-2.29 4.625h-4.348v6.54h4.283a5.87 5.87 0 0 0 3.393-.83 2.74 2.74 0 0 0 1.185-2.388q0-3.321-4.513-3.321zm32.251-23.177V64.6h43.07V21.53Zm30.035 30.395a7.04 7.04 0 0 1-3.146 2.405c-1.564.602-3.232.89-4.908.847h-9.652V30.952h9.092q4.018 0 6.226 1.609a5.38 5.38 0 0 1 2.207 4.625 5.56 5.56 0 0 1-.79 2.999 5.45 5.45 0 0 1-2.34 2.016 6.46 6.46 0 0 1 3.279 2.253 6.14 6.14 0 0 1 1.136 3.745 6.3 6.3 0 0 1-1.104 3.727zm-6.16-11.843a2.84 2.84 0 0 0 1.005-2.321q0-2.88-3.92-2.88h-3.723v6.032h3.722a4.47 4.47 0 0 0 2.916-.83m-2.29 4.625h-4.347v6.54h4.282a5.87 5.87 0 0 0 3.393-.83 2.74 2.74 0 0 0 1.186-2.389q0-3.32-4.513-3.32M107.674 64.6h43.07V21.53h-43.07zm30.932-10.957a14 14 0 0 1-3.487 1.311 17.7 17.7 0 0 1-4.172.482c-1.78.026-3.551-.26-5.232-.847a10.3 10.3 0 0 1-6.395-6.344 14.9 14.9 0 0 1-.855-5.198c-.025-1.74.277-3.469.89-5.097a10.9 10.9 0 0 1 2.565-3.903 11.3 11.3 0 0 1 4.018-2.49 15.1 15.1 0 0 1 5.248-.864 17 17 0 0 1 3.813.415c1.158.263 2.278.67 3.334 1.213v4.716a11.2 11.2 0 0 0-3.043-1.412 12.2 12.2 0 0 0-3.454-.481 9 9 0 0 0-4.257.93 6.37 6.37 0 0 0-2.702 2.69 9 9 0 0 0-.94 4.283 9.4 9.4 0 0 0 .906 4.301 6.2 6.2 0 0 0 2.632 2.707 8.7 8.7 0 0 0 4.19.93 13 13 0 0 0 6.94-1.96zM260.912 79.251a877 877 0 0 1 10.954-13.903 883 883 0 0 1-10.954-13.905 776 776 0 0 1-10.714-14.226v56.26a789 789 0 0 1 10.714-14.226m8.918 14.226h-19.632v14.985H231.65V40.827a793 793 0 0 0-10.2 5.316 388 388 0 0 0-9.707 5.318V34.398a299 299 0 0 1 11.005-5.997 455 455 0 0 1 12.735-6.369h14.714v15.185h19.632a457 457 0 0 0 12.809 18.825 455 455 0 0 0 12.756-18.744c-12.751-27.36-42.757-42.233-72.248-35.815s-50.595 32.413-50.826 62.596c-.231 30.184 20.471 56.5 49.86 63.37 29.39 6.869 59.62-7.544 72.79-34.704a461 461 0 0 0-12.332-18.093 455 455 0 0 0-12.809 18.825m31.022-37.527q-3.708 4.74-7.44 9.397a781 781 0 0 1 7.253 9.158 65.2 65.2 0 0 0 .186-18.555" style="stroke-width:.588721"/></svg>