<svg xmlns="http://www.w3.org/2000/svg" viewBox="0 0 512 219.43"><path fill="#fff" d="M34.194 159.634a17.45 17.45 0 0 0 7.68-6.217 16.9 16.9 0 0 0 2.743-9.783c0-5.943-2.011-10.514-6.126-13.623-4.114-3.108-9.874-4.754-17.462-4.754H0v57.692h12.251V161.92h9.966c4.114 6.857 8.137 13.897 12.069 21.029h14.263a669 669 0 0 0-7.132-11.795c-2.377-3.931-4.754-7.771-7.223-11.52m-5.12-9.508c-2.011 1.371-4.937 2.103-8.685 2.103h-8.046V135.04h8.137c3.84 0 6.674.731 8.686 2.103 2.011 1.371 2.925 3.566 2.925 6.583 0 2.834-1.005 5.028-3.017 6.4m58.972-24.96H74.697c-3.84 9.143-7.68 18.468-11.52 28.068s-7.497 19.475-11.154 29.623H65.37c1.372-4.206 2.835-8.411 4.206-12.526h23.406c1.371 4.115 2.834 8.229 4.206 12.526h13.622c-3.565-9.6-7.222-19.2-11.062-28.891-3.84-9.692-7.68-19.2-11.703-28.8M73.05 160.09c2.652-7.497 5.395-14.902 8.138-22.308 1.371 3.566 2.742 7.314 4.114 11.063 1.371 3.748 2.743 7.497 4.023 11.245zm82.378-31.542c-4.298-2.286-9.509-3.383-15.635-3.383H117.76v57.691h21.943c6.126 0 11.337-1.097 15.634-3.474a23.1 23.1 0 0 0 9.874-9.966 32.9 32.9 0 0 0 3.475-15.634c0-6.126-1.097-11.246-3.383-15.543a22.98 22.98 0 0 0-9.874-9.691m-3.932 39.04c-2.926 3.108-7.04 4.754-12.434 4.754h-8.869v-36.389h8.96c5.395 0 9.6 1.555 12.435 4.663 2.834 3.109 4.205 7.589 4.205 13.44 0 5.852-1.371 10.332-4.297 13.532m27.063-42.423h12.434v57.691H178.56Zm71.863 6.948a25 25 0 0 0-9.052-6.034 32.6 32.6 0 0 0-11.794-2.103 32.3 32.3 0 0 0-11.794 2.103 23.9 23.9 0 0 0-9.052 6.034 28.1 28.1 0 0 0-5.76 9.417 39.44 39.44 0 0 0 0 24.869 27.6 27.6 0 0 0 5.76 9.509 23.9 23.9 0 0 0 9.052 6.034 32.6 32.6 0 0 0 11.794 2.103 32.3 32.3 0 0 0 11.794-2.103 23.9 23.9 0 0 0 9.052-6.034 28.5 28.5 0 0 0 5.76-9.509 35.8 35.8 0 0 0 2.011-12.434 35.1 35.1 0 0 0-2.011-12.435 27.2 27.2 0 0 0-5.76-9.417m-6.949 32.366a14.85 14.85 0 0 1-5.394 6.583 16.96 16.96 0 0 1-17.006 0 14.27 14.27 0 0 1-5.394-6.583 25.3 25.3 0 0 1-1.829-10.423 26.9 26.9 0 0 1 1.829-10.423 14.85 14.85 0 0 1 5.394-6.583 15.95 15.95 0 0 1 8.503-2.285c2.998-.096 5.957.7 8.503 2.285a13.82 13.82 0 0 1 5.394 6.583 25.3 25.3 0 0 1 1.829 10.423 27.3 27.3 0 0 1-1.829 10.423M36.663 75.977h-7.406v11.154h7.314a10.3 10.3 0 0 0 5.76-1.371 4.57 4.57 0 0 0 2.012-4.023q0-5.76-7.68-5.76m36.48-39.314H0v73.143h73.143ZM51.017 88.32a12.8 12.8 0 0 1-5.303 4.114 22.6 22.6 0 0 1-8.32 1.463H20.937V52.754H36.39c4.571 0 8.045.915 10.605 2.743a9.27 9.27 0 0 1 3.749 7.863 9.54 9.54 0 0 1-1.372 5.12 8.96 8.96 0 0 1-3.931 3.383c2.217.66 4.17 2.004 5.577 3.84a10.43 10.43 0 0 1 1.92 6.4 10.65 10.65 0 0 1-1.92 6.217M40.594 68.206a4.97 4.97 0 0 0 1.737-3.932c0-3.291-2.194-4.937-6.674-4.937h-6.4v10.24h6.4a7.93 7.93 0 0 0 4.937-1.371m91.429 0a4.97 4.97 0 0 0 1.737-3.932c0-3.291-2.194-4.937-6.674-4.937h-6.309v10.24h6.309a7.57 7.57 0 0 0 4.937-1.371m32.64-31.543H91.52v73.143h73.143zM142.537 88.32a12.8 12.8 0 0 1-5.303 4.114 22.6 22.6 0 0 1-8.32 1.463h-16.457V52.754h15.452c4.571 0 8.045.915 10.605 2.743a9.27 9.27 0 0 1 3.749 7.863 9.54 9.54 0 0 1-1.372 5.12 8.96 8.96 0 0 1-3.931 3.383c2.217.66 4.17 2.004 5.577 3.84a10.43 10.43 0 0 1 1.92 6.4 12.15 12.15 0 0 1-1.92 6.217m-14.354-12.343h-7.406v11.154h7.314a10.3 10.3 0 0 0 5.76-1.371 4.57 4.57 0 0 0 2.012-4.023q0-5.76-7.68-5.76m128-39.314H183.04v73.143h73.143zM229.577 93.44c-2.335.56-4.73.836-7.131.823-3.021.06-6.027-.437-8.869-1.463a17.37 17.37 0 0 1-10.88-10.789 24.7 24.7 0 0 1-1.463-8.868 21.9 21.9 0 0 1 1.555-8.686 19.3 19.3 0 0 1 4.388-6.674 18.8 18.8 0 0 1 6.857-4.206 25.2 25.2 0 0 1 8.96-1.463c2.185.002 4.362.248 6.492.732a23.4 23.4 0 0 1 5.668 2.103v8.045a16.9 16.9 0 0 0-5.211-2.377 20.6 20.6 0 0 0-5.852-.823 15.9 15.9 0 0 0-7.222 1.555 10.5 10.5 0 0 0-4.572 4.571 14.9 14.9 0 0 0-1.554 7.314 16.3 16.3 0 0 0 1.554 7.315c.97 1.96 2.54 3.56 4.48 4.571a14.2 14.2 0 0 0 7.132 1.554 22.07 22.07 0 0 0 11.794-3.291v7.863a30.3 30.3 0 0 1-6.126 2.194"/><path fill="#ff881d" d="M402.286 0c-44.376 0-84.382 26.731-101.362 67.728-16.981 40.996-7.592 88.184 23.786 119.562s78.566 40.767 119.562 23.786C485.27 194.096 512 154.09 512 109.714 512 49.121 462.88 0 402.286 0m53.76 183.131H354.103v-2.651c-.056-6.96.556-13.91 1.828-20.754a59.3 59.3 0 0 1 6.309-17.006 72.4 72.4 0 0 1 12.069-15.269 145.7 145.7 0 0 1 18.834-15.177 193 193 0 0 0 16.091-12.251c3.932-3.474 6.766-6.674 8.32-9.783a21.94 21.94 0 0 0 2.377-9.966c0-13.074-8.137-19.565-24.32-19.565A59.5 59.5 0 0 0 375.954 64a65.8 65.8 0 0 0-18.651 10.423V45.897a81.4 81.4 0 0 1 21.394-9.417 87 87 0 0 1 23.497-3.017c10.149 0 18.926 1.737 26.423 5.12A40.6 40.6 0 0 1 446.08 53.21c4.114 6.309 6.217 13.806 6.217 22.4a65.7 65.7 0 0 1-1.646 15.269 41 41 0 0 1-5.577 12.8 63.4 63.4 0 0 1-10.788 11.977 158 158 0 0 1-17.006 12.709 165 165 0 0 0-14.903 10.788 69 69 0 0 0-9.691 9.692 35.8 35.8 0 0 0-5.577 9.874h68.845v24.411z"/></svg>