<svg xmlns="http://www.w3.org/2000/svg" viewBox="0 0 882.25 219.47"><path fill="#fff" d="M12.276 161.971v20.996H0v-57.741h21.077q11.387 0 17.485 4.766 6.096 4.765 6.098 13.648a16.37 16.37 0 0 1-10.418 15.988 1014 1014 0 0 1 7.187 11.509 666 666 0 0 1 7.107 11.83H34.242a573 573 0 0 0-12.032-20.996zm0-9.77h8.075q5.733 0 8.722-2.06 2.987-2.061 2.988-6.5 0-4.443-2.947-6.544-2.949-2.1-8.682-2.099h-8.156zm84.873 30.766q-2.1-6.376-4.2-12.516H69.53q-2.1 6.217-4.199 12.516H52.006q5.492-15.18 11.186-29.638 5.693-14.452 11.508-28.103h13.405a1606.865 1606.865 0 0 1 22.693 57.742h-13.65Zm-24.065-22.853h16.232a560 560 0 0 0-3.997-11.264 2133 2133 0 0 0-4.078-11.024 981 981 0 0 0-8.157 22.288m44.74-34.888h22.047q9.124 0 15.626 3.39a22.93 22.93 0 0 1 9.892 9.814q3.392 6.419 3.39 15.543 0 9.129-3.43 15.627a23.35 23.35 0 0 1-9.892 9.935q-6.462 3.435-15.667 3.43h-21.966zm21.32 47.082q8.073 0 12.395-4.726 4.318-4.72 4.32-13.608 0-8.797-4.24-13.444-4.239-4.644-12.396-4.643h-8.964v36.421zm39.488-47.082h12.436v57.741h-12.436zm50.957-1.212a31.8 31.8 0 0 1 11.83 2.101 25.3 25.3 0 0 1 9.046 6.016 26.7 26.7 0 0 1 5.775 9.447 39.45 39.45 0 0 1 0 24.914 27 27 0 0 1-5.775 9.528 25 25 0 0 1-9.045 6.059 34.4 34.4 0 0 1-23.662 0 25 25 0 0 1-9.044-6.059 27 27 0 0 1-5.775-9.528 39.45 39.45 0 0 1 0-24.914 26.65 26.65 0 0 1 5.775-9.447 25.24 25.24 0 0 1 9.044-6.016 31.8 31.8 0 0 1 11.831-2.101m0 49.342c2.991.081 5.94-.718 8.48-2.3a14.5 14.5 0 0 0 5.41-6.58 30.16 30.16 0 0 0 0-20.836 14.23 14.23 0 0 0-5.41-6.544 17.04 17.04 0 0 0-16.958 0 14.2 14.2 0 0 0-5.411 6.544 30.13 30.13 0 0 0 0 20.835 14.47 14.47 0 0 0 5.41 6.582 15.26 15.26 0 0 0 8.48 2.3M0 36.62v73.197h73.197V36.619Zm51.045 51.657a11.97 11.97 0 0 1-5.347 4.088 21.7 21.7 0 0 1-8.341 1.44H20.953V52.63h15.452q6.83 0 10.581 2.735a9.14 9.14 0 0 1 3.751 7.86 9.45 9.45 0 0 1-1.343 5.097 9.26 9.26 0 0 1-3.975 3.427 10.98 10.98 0 0 1 5.57 3.83 10.43 10.43 0 0 1 1.932 6.363 10.68 10.68 0 0 1-1.876 6.334m-10.47-20.127a4.83 4.83 0 0 0 1.708-3.945q0-4.894-6.663-4.894h-6.326v10.25h6.326a7.6 7.6 0 0 0 4.956-1.41m-3.89 7.861h-7.39v11.114h7.278a10 10 0 0 0 5.767-1.41 4.65 4.65 0 0 0 2.015-4.06q0-5.644-7.67-5.644M91.497 36.62v73.197h73.197V36.619Zm51.045 51.657a11.97 11.97 0 0 1-5.347 4.088 21.7 21.7 0 0 1-8.342 1.44H112.45V52.63H127.9q6.83 0 10.581 2.735a9.14 9.14 0 0 1 3.752 7.86 9.45 9.45 0 0 1-1.344 5.097 9.26 9.26 0 0 1-3.975 3.427 10.98 10.98 0 0 1 5.571 3.83 10.43 10.43 0 0 1 1.931 6.363 10.68 10.68 0 0 1-1.875 6.334m-10.47-20.127a4.83 4.83 0 0 0 1.707-3.945q0-4.894-6.662-4.894h-6.327v10.25h6.327a7.6 7.6 0 0 0 4.955-1.41m-3.89 7.861h-7.39v11.114h7.278a10 10 0 0 0 5.766-1.41 4.65 4.65 0 0 0 2.016-4.06q0-5.645-7.67-5.644m54.811 33.806h73.197V36.619h-73.197zm52.57-18.622a24 24 0 0 1-5.927 2.23 30 30 0 0 1-7.09.818 25.9 25.9 0 0 1-8.892-1.44 17.51 17.51 0 0 1-10.867-10.781 25.3 25.3 0 0 1-1.454-8.834 23.6 23.6 0 0 1 1.512-8.663 18.5 18.5 0 0 1 4.36-6.633 19.2 19.2 0 0 1 6.828-4.233 25.7 25.7 0 0 1 8.92-1.468c2.18-.011 4.354.226 6.48.706a24 24 0 0 1 5.666 2.06v8.016a19 19 0 0 0-5.172-2.399 20.8 20.8 0 0 0-5.87-.818 15.3 15.3 0 0 0-7.235 1.58 10.82 10.82 0 0 0-4.592 4.571 15.3 15.3 0 0 0-1.598 7.281 15.9 15.9 0 0 0 1.54 7.31 10.52 10.52 0 0 0 4.474 4.6 14.84 14.84 0 0 0 7.12 1.58 22.06 22.06 0 0 0 11.797-3.33z"/><path fill="#00e5df" d="M402.265 0c-44.384 0-84.398 26.736-101.382 67.74-16.984 41.005-7.593 88.202 23.79 119.586 31.385 31.384 78.582 40.775 119.586 23.791S512 154.119 512 109.735C512 49.13 462.87 0 402.265 0M448.9 164.99q-7.25 10.718-20.909 16.392-13.66 5.673-32.992 5.673a124.4 124.4 0 0 1-22.59-1.996 99 99 0 0 1-21.118-6.408v-26.478a99.7 99.7 0 0 0 42.026 9.245q15.134 0 23.012-5.78 7.881-5.775 7.878-16.495 0-21.852-33.621-21.855-8.194 0-16.288.737-8.09.738-18.386 2.415l7.145-83.005h85.69v25.831h-59.353l-2.613 31.327a97 97 0 0 1 9.584-1.156q4.519-.315 8.302-.315 15.967 0 27.525 5.463a40 40 0 0 1 17.757 15.867q6.195 10.403 6.2 24.9 0 14.926-7.249 25.638M548.34 120.857v62.776h44.863v-11.238H561.86V156.94H588.2v-11.238H561.86v-13.607h29.674v-11.239zm49.056 0a935 935 0 0 0 9.746 15.19 527 527 0 0 0 10.272 15.1 622 622 0 0 0-11.15 16.244 1550 1550 0 0 0-10.624 16.242h15.715a294 294 0 0 1 6.674-11.59 420 420 0 0 1 7.287-11.59 471 471 0 0 1 7.2 11.502 335 335 0 0 1 6.76 11.678h16.066a711 711 0 0 0-10.624-16.418 993 993 0 0 0-11.062-16.244 612 612 0 0 0 10.096-15.012 1104 1104 0 0 0 9.834-15.102H637.87a369 369 0 0 1-5.97 10.448 416 416 0 0 1-6.235 10.01 363 363 0 0 1-6.32-10.098 929 929 0 0 1-5.883-10.36zm58.89 0v11.764h19.755v51.012h13.52V132.62h19.753v-11.764zm59.854 0v62.776h13.346v-22.828h10.799a623 623 0 0 1 13.082 22.828h15.539a618 618 0 0 0-7.727-12.819 904 904 0 0 0-7.812-12.554q5.443-2.37 8.34-6.762 2.985-4.39 2.984-10.623 0-9.658-6.672-14.838-6.584-5.18-18.963-5.18zm79.961 0q-6.321 14.838-12.554 30.553a1339 1339 0 0 0-12.116 32.223h14.487q2.281-6.85 4.564-13.61h25.461q2.283 6.674 4.565 13.61h14.837a1490 1490 0 0 0-12.027-31.344 1467 1467 0 0 0-12.642-31.432zm-66.615 10.623h8.867q6.234 0 9.395 2.284 3.248 2.282 3.248 7.111 0 4.83-3.248 7.111-3.249 2.196-9.483 2.196h-8.779zm73.727 3.073a908 908 0 0 1 4.388 12.029 432 432 0 0 1 4.39 12.203h-17.646a1082 1082 0 0 1 8.868-24.232M572.746 35.805q-7.639-.001-13.17 2.369-5.53 2.284-8.604 6.586-2.986 4.301-2.986 10.271.001 4.215 1.406 7.287 1.404 2.986 4.125 5.182 2.723 2.107 6.674 3.688t9.131 2.808q3.16.79 5.705 1.756 2.546.878 4.04 2.459 1.58 1.492 1.58 4.213 0 3.6-3.16 5.619-3.074 2.02-9.044 2.02-10.535 0-19.93-5.708v12.118a39.3 39.3 0 0 0 9.659 3.6 46.8 46.8 0 0 0 10.271 1.14q8.164 0 13.96-2.283 5.793-2.37 8.866-6.76 3.074-4.477 3.074-10.711 0-4.741-1.67-7.99a13.9 13.9 0 0 0-4.564-5.356q-2.896-2.106-6.76-3.424a88 88 0 0 0-8.341-2.546q-3.513-.879-6.145-1.756-2.546-.965-3.951-2.37-1.405-1.492-1.404-3.95 0-3.425 2.896-5.268 2.986-1.844 8.342-1.844 4.916 0 9.744 1.316 4.917 1.317 8.78 3.688V40.018q-3.864-1.932-8.692-3.073a42.6 42.6 0 0 0-9.832-1.14m114.67 0q-7.111 0-12.905 2.28-5.707 2.285-9.834 6.587-4.038 4.215-6.232 10.271-2.195 5.97-2.195 13.522 0 7.463 2.195 13.521t6.232 10.36q4.127 4.301 9.834 6.584 5.794 2.283 12.905 2.283t12.818-2.283q5.795-2.282 9.834-6.584 4.126-4.302 6.32-10.36 2.196-6.058 2.196-13.521 0-7.55-2.196-13.522-2.194-6.057-6.32-10.271-4.038-4.303-9.834-6.586-5.706-2.282-12.818-2.281m173.236 0q-7.637-.001-13.168 2.369-5.53 2.284-8.603 6.586-2.986 4.301-2.987 10.271 0 4.215 1.405 7.287 1.405 2.986 4.126 5.182 2.723 2.107 6.672 3.688 3.951 1.58 9.131 2.808 3.161.79 5.707 1.756 2.546.878 4.04 2.459 1.58 1.492 1.58 4.213 0 3.6-3.16 5.619-3.074 2.02-9.044 2.02-10.535 0-19.93-5.708v12.118a39.3 39.3 0 0 0 9.659 3.6q5.092 1.14 10.271 1.14 8.165 0 13.96-2.283 5.793-2.37 8.866-6.76 3.073-4.477 3.073-10.711 0-4.741-1.668-7.99a13.9 13.9 0 0 0-4.565-5.356q-2.896-2.106-6.76-3.424a88 88 0 0 0-8.341-2.546q-3.511-.879-6.145-1.756-2.545-.965-3.951-2.37-1.404-1.492-1.404-3.95 0-3.425 2.896-5.268 2.985-1.844 8.34-1.844 4.917 0 9.746 1.316 4.916 1.317 8.78 3.688V40.018q-3.864-1.932-8.692-3.073a42.6 42.6 0 0 0-9.834-1.14m-257.7 1.316v62.775h13.345V78.475h9.13q8.077 0 13.696-2.371 5.62-2.459 8.517-7.024 2.985-4.653 2.985-11.238 0-10.01-6.496-15.365-6.498-5.356-18.614-5.356zm124.593 0v62.775h13.343V77.068h10.799a623 623 0 0 1 13.082 22.828h15.54a618 618 0 0 0-7.725-12.818 904 904 0 0 0-7.815-12.555q5.444-2.371 8.34-6.761 2.986-4.39 2.986-10.623 0-9.658-6.673-14.838-6.584-5.18-18.963-5.18zm51.716 0v11.766h19.754v51.01h13.52v-51.01h19.754V37.12Zm-91.845 10.447q5.355 0 9.219 2.46 3.863 2.457 5.882 7.11 2.02 4.654 2.02 11.327t-2.02 11.326-5.882 7.2q-3.864 2.457-9.22 2.458-5.353 0-9.216-2.459-3.863-2.546-5.883-7.199t-2.02-11.326 2.02-11.326 5.883-7.112q3.862-2.459 9.217-2.459m-71.12.176h8.516q5.883 0 8.955 2.46 3.161 2.457 3.162 7.638 0 5.18-3.162 7.638-3.071 2.37-9.04 2.37h-8.43zm124.592 0h8.868q6.233 0 9.394 2.283 3.249 2.283 3.248 7.112t-3.248 7.111q-3.247 2.195-9.48 2.195h-8.782z"/></svg>