<svg xmlns="http://www.w3.org/2000/svg" viewBox="0.13 0.3 352.33 144.77"><g style="fill:#89ff00;fill-opacity:1"><path d="M371.975 0v168.668h167.98V0Zm209.932 0v168.668h167.977V0Zm209.768 0v168.668H959.65V0Zm91.58 35.896c5.223 0 10.12.494 14.855 1.642 4.734 1.147 8.977 2.621 13.058 4.752v18.358c-3.591-2.458-7.67-4.26-11.915-5.572-4.408-1.311-8.98-1.968-13.388-1.804-6.53 0-12.08 1.148-16.65 3.606-4.57 2.295-8.162 6.065-10.447 10.49-2.449 4.59-3.592 10.163-3.592 16.72s1.143 12.293 3.592 16.883c2.285 4.59 5.877 8.196 10.285 10.655 4.57 2.459 9.957 3.605 16.323 3.605 9.795 0 18.774-2.622 27.1-7.703v18.193h-.165a53 53 0 0 1-13.548 5.083c-5.223 1.31-10.612 1.802-16.325 1.802-7.51 0-14.365-1.148-20.405-3.278-6.04-2.295-11.1-5.41-15.345-9.508-4.244-4.097-7.345-9.178-9.63-15.242-2.286-6.065-3.266-12.786-3.266-20.326 0-7.376 1.142-13.932 3.428-19.997 2.285-5.901 5.713-10.983 9.958-15.245 4.407-4.261 9.631-7.54 15.671-9.67 6.04-2.295 12.896-3.444 20.405-3.444m-464.102.985h35.423c10.447 0 18.61 2.131 24.324 6.229 5.713 4.262 8.652 10.162 8.652 18.03 0 4.59-.979 8.36-3.1 11.803-2.123 3.278-5.061 5.899-9.142 7.866q8.325 2.705 12.731 8.852c2.939 3.934 4.409 8.852 4.409 14.588.163 5.738-1.306 10.654-4.244 14.752q-4.408 6.147-12.244 9.344c-5.387 2.13-11.754 3.276-19.1 3.276h-37.709zm210.094 0h35.423c10.448 0 18.61 2.131 24.324 6.229 5.714 4.262 8.652 10.162 8.652 18.03 0 4.59-.978 8.36-3.1 11.803-2.123 3.278-5.06 5.899-9.142 7.866q8.324 2.705 12.732 8.852c2.938 3.934 4.408 8.852 4.408 14.588q-.246 8.606-4.408 14.752-4.408 6.147-12.243 9.344c-5.387 2.13-11.753 3.276-19.099 3.276h-37.547zM438.252 52.29v23.604h14.529c5.06 0 8.816-1.148 11.428-3.279 2.612-2.13 3.917-5.246 3.917-9.016 0-7.54-5.06-11.31-15.345-11.31zm209.932 0v23.604h14.529c5.06 0 8.816-1.148 11.428-3.279 2.611-2.13 3.917-5.246 3.917-9.016 0-7.54-5.06-11.31-15.345-11.31zm-209.932 38.52v25.57h16.65c5.714 0 10.122-1.148 13.224-3.279 3.101-2.13 4.57-5.244 4.57-9.342.164-8.687-5.713-12.949-17.466-12.949zm209.932 0v25.57h16.65c5.714 0 10.122-1.148 13.224-3.279 3.101-2.13 4.57-5.244 4.57-9.342.164-8.687-5.713-12.949-17.466-12.949zM1121.4 253.035h202.414v52.663H1184.77v63.77h123.42v52.662h-123.42v72.405h146.858v52.64H1121.4zM872.534 253.035h202.392v52.663H935.88v63.77h123.421v52.662h-123.42v72.405h146.857v52.64H872.511v-294.14ZM593.22 253.035v294.139h62.522v-106.95h50.592l61.299 106.95h72.828l-36.215-60.264-36.613-58.615c17.013-7.389 30.096-17.955 39.297-31.674s13.789-30.307 13.789-49.79c0-30.168-10.353-53.37-31.06-69.536s-50.406-24.26-89.067-24.26zm62.546 49.791h41.533c19.46 0 34.214 3.554 44.215 10.684 10 7.13 15.011 18.237 15.011 33.32s-5.082 26.12-15.224 33.11c-10.142 6.988-24.942 10.494-44.426 10.494h-41.11v.023l-.023-.023h.024zM477.611 547.174V420.883H349.673v126.291h-63.37V253.035h63.37V365.75H477.61V253.035h63.346v294.14zM0 253.035h248.465v55.134h-92.548v239.005H92.571V308.17H0Z" style="fill-opacity:1;fill:#89ff00" transform="translate(.133 .3)scale(.26458)"/></g></svg>