<svg xmlns="http://www.w3.org/2000/svg" xml:space="preserve" viewBox="0 0 423.72 239.56"><path d="M0 109.545h107.57v23.865H67.5v103.474H40.072V133.41H0ZM229.392 236.884q-6.079-21.55-11.979-43.1-5.721-21.55-11.264-43.099-5.363 21.55-11.085 43.1-5.72 21.55-11.8 43.1h-29.143q-9.118-31.168-17.521-63.047-8.403-31.88-15.913-64.293h30.037q4.47 24.755 9.476 49.51 5.006 24.756 10.549 48.621 11.979-46.483 22.706-92.788h26.819q5.364 22.796 10.906 45.593 5.722 22.618 11.622 45.236 5.363-23.509 10.37-47.73t9.297-48.442h29.5q-7.51 32.413-15.912 64.293t-17.522 63.046ZM360.493 106.873q14.426 0 26.002 4.63 11.754 4.631 19.947 13.358 8.37 8.549 12.823 20.837 4.452 12.111 4.452 27.427 0 15.139-4.452 27.427-4.453 12.29-12.823 21.016-8.193 8.727-19.947 13.357-11.576 4.63-26.002 4.63t-26.18-4.63q-11.577-4.63-19.947-13.357-8.193-8.727-12.645-21.016-4.453-12.288-4.453-27.427 0-15.316 4.453-27.427 4.452-12.288 12.645-20.837 8.37-8.727 19.947-13.357 11.754-4.63 26.18-4.63m0 108.818q10.864 0 18.7-4.987 7.836-5.165 11.932-14.604 4.097-9.44 4.097-22.975t-4.097-22.974-11.932-14.426q-7.836-4.987-18.7-4.987t-18.7 4.987q-7.837 4.987-11.933 14.426t-4.096 22.974 4.096 22.975q4.096 9.44 11.933 14.604 7.836 4.987 18.7 4.987M84.075 0v73.02h73.02V0Zm91.257 0v73.02h73.02V0Zm91.186 0v73.02h73.02V0Zm39.81 15.54c2.27 0 4.4.214 6.457.71 2.058.498 3.903 1.136 5.677 2.058v7.948c-1.562-1.064-3.335-1.845-5.18-2.412-1.916-.568-3.903-.852-5.82-.781-2.838 0-5.25.497-7.237 1.56-1.987.994-3.548 2.626-4.542 4.542-1.064 1.987-1.561 4.4-1.561 7.238s.497 5.323 1.561 7.31c.994 1.987 2.555 3.548 4.471 4.612 1.987 1.065 4.328 1.561 7.096 1.561 4.258 0 8.16-1.135 11.78-3.335v7.876h-.072a23 23 0 0 1-5.889 2.2c-2.27.569-4.613.781-7.096.781-3.265 0-6.245-.497-8.87-1.42-2.626-.993-4.826-2.341-6.67-4.115-1.846-1.774-3.194-3.973-4.187-6.599-.994-2.625-1.42-5.535-1.42-8.8 0-3.193.497-6.031 1.49-8.657a19.1 19.1 0 0 1 4.329-6.6 18.6 18.6 0 0 1 6.812-4.186c2.626-.993 5.606-1.49 8.87-1.49m-201.744.427h15.398c4.541 0 8.09.922 10.573 2.696 2.484 1.845 3.761 4.4 3.761 7.806 0 1.987-.425 3.62-1.347 5.11-.923 1.419-2.2 2.553-3.974 3.405q3.618 1.17 5.534 3.832c1.277 1.703 1.916 3.832 1.916 6.316.071 2.484-.567 4.612-1.844 6.386q-1.917 2.662-5.323 4.045c-2.342.923-5.109 1.419-8.302 1.419h-16.392Zm91.327 0h15.398c4.542 0 8.09.922 10.574 2.696 2.484 1.845 3.761 4.4 3.761 7.806 0 1.987-.425 3.62-1.348 5.11-.922 1.419-2.2 2.553-3.974 3.405q3.619 1.17 5.535 3.832c1.277 1.703 1.916 3.832 1.916 6.316q-.107 3.726-1.916 6.386-1.916 2.662-5.322 4.045c-2.342.923-5.11 1.419-8.302 1.419H195.91Zm-83.025 6.67v10.219h6.316c2.2 0 3.832-.497 4.967-1.42 1.136-.922 1.703-2.27 1.703-3.903 0-3.264-2.2-4.896-6.67-4.896Zm91.257 0v10.219h6.315c2.2 0 3.833-.497 4.968-1.42 1.136-.922 1.703-2.27 1.703-3.903 0-3.264-2.2-4.896-6.67-4.896Zm-91.257 16.676v11.07h7.238c2.484 0 4.4-.497 5.748-1.42s1.987-2.27 1.987-4.044c.07-3.76-2.484-5.606-7.593-5.606Zm91.257 0v11.07h7.238c2.483 0 4.4-.497 5.748-1.42s1.987-2.27 1.987-4.044c.07-3.76-2.484-5.606-7.593-5.606Z" style="fill:#10a88d"/></svg>