<svg xmlns="http://www.w3.org/2000/svg" viewBox="0 0 1000 201.9"><path d="M.001 131.574h26.543v68.538H44.71v-68.538h26.544v-15.808H0Zm153.947 68.538v-84.346h-18.17v32.323H99.095v-32.323H80.928v84.346h18.166v-36.216h36.686v36.216zm44.115-30.67h1.77q9.083 15.099 17.578 30.67h20.878q-5.19-8.848-10.379-17.282-5.193-8.433-10.5-16.81a25.3 25.3 0 0 0 11.265-9.084 25.05 25.05 0 0 0 3.954-14.272q0-12.979-8.907-19.938-8.909-6.958-25.54-6.96h-30.788v84.346h17.93v-30.67zm-12.739-39.402h11.915q8.374 0 12.68 3.067 4.306 3.069 4.307 9.557 0 6.487-4.367 9.495-4.363 3.008-12.738 3.008h-11.797zm62.64 70.072h60.279v-15.1h-42.11v-20.761h35.389v-15.1h-35.39v-18.285h39.872v-15.1h-58.038zm71.959 0H380.2v-15.1h-42.114v-20.761h35.39v-15.1h-35.39v-18.285h39.873v-15.1h-58.036zm152.174.06a47.7 47.7 0 0 0 12.033-4.66v-16.398a43.83 43.83 0 0 1-23.946 6.96 29.4 29.4 0 0 1-14.451-3.304 21.7 21.7 0 0 1-9.083-9.614 34.1 34.1 0 0 1-3.127-15.276 32.7 32.7 0 0 1 3.244-15.216 22.3 22.3 0 0 1 9.32-9.558 30.36 30.36 0 0 1 14.685-3.303 41 41 0 0 1 11.915 1.711 38 38 0 0 1 10.5 5.014v-16.75a48 48 0 0 0-11.502-4.307 56.7 56.7 0 0 0-13.154-1.474 50.7 50.7 0 0 0-18.107 3.066 38.14 38.14 0 0 0-22.71 22.71 50.7 50.7 0 0 0-3.066 18.107 54.3 54.3 0 0 0 2.95 18.462 37.74 37.74 0 0 0 8.493 13.861 36.7 36.7 0 0 0 13.566 8.67 51.1 51.1 0 0 0 18.047 3.008 59.2 59.2 0 0 0 14.393-1.71zm43.234-83.107a36.9 36.9 0 0 0-13.212 8.787 38.95 38.95 0 0 0-8.435 13.802 57.6 57.6 0 0 0 0 36.393 39.4 39.4 0 0 0 8.434 13.92 36.5 36.5 0 0 0 13.213 8.846 50.23 50.23 0 0 0 34.564 0 36.5 36.5 0 0 0 13.212-8.847 39.5 39.5 0 0 0 8.436-13.919 57.6 57.6 0 0 0 0-36.393 39 39 0 0 0-8.437-13.802 36.9 36.9 0 0 0-13.212-8.789 50.2 50.2 0 0 0-34.563 0zm4.894 65.647a21.1 21.1 0 0 1-7.902-9.614 44.02 44.02 0 0 1 0-30.434 20.74 20.74 0 0 1 7.902-9.558 24.87 24.87 0 0 1 24.774 0 20.77 20.77 0 0 1 7.904 9.558 44.05 44.05 0 0 1 0 30.434 21.1 21.1 0 0 1-7.904 9.614 24.5 24.5 0 0 1-24.774 0m120.678 14.864a29.23 29.23 0 0 0 12.445-12.447 41.4 41.4 0 0 0 4.307-19.581v-49.782h-18.168v51.788q0 8.965-4.658 13.742-4.663 4.779-13.272 4.779-8.614 0-13.27-4.779-4.664-4.778-4.661-13.742v-51.788H585.46v49.782a41.36 41.36 0 0 0 4.305 19.581 29.32 29.32 0 0 0 12.387 12.447 45.75 45.75 0 0 0 38.751 0m103.929 2.536v-84.346h-17.46v57.687q-9.202-14.746-18.461-29.08-9.262-14.334-18.815-28.607h-18.404v84.346h17.46v-58.277q9.201 13.922 18.638 28.725 9.434 14.806 18.638 29.55zm9.67-68.538h26.545v68.538h18.166v-68.538h26.542v-15.808h-71.252zm80.924 68.538h18.166v-84.346h-18.166Zm33.03 0h60.282v-15.1H886.62v-20.761h35.39v-15.1h-35.39v-18.285h39.873v-15.1h-58.04zm115.49-1.357a25.63 25.63 0 0 0 11.914-9.082 24.54 24.54 0 0 0 4.129-14.334 23.9 23.9 0 0 0-2.183-10.735 19.4 19.4 0 0 0-6.134-7.196 36.4 36.4 0 0 0-9.142-4.659q-5.192-1.827-11.208-3.363-4.719-1.177-8.197-2.417a13.8 13.8 0 0 1-5.369-3.185 7.22 7.22 0 0 1-1.887-5.25 7.89 7.89 0 0 1 3.953-7.08 21 21 0 0 1 11.145-2.476 50.2 50.2 0 0 1 13.155 1.77 44.6 44.6 0 0 1 11.738 4.953v-16.043a53.8 53.8 0 0 0-11.678-4.129 57.3 57.3 0 0 0-13.214-1.532 45.5 45.5 0 0 0-17.695 3.125 25.95 25.95 0 0 0-11.5 8.907 23.36 23.36 0 0 0-4.07 13.802 23 23 0 0 0 1.888 9.732 18.9 18.9 0 0 0 5.542 6.96 35.8 35.8 0 0 0 8.967 5.013 87.6 87.6 0 0 0 12.268 3.775 79 79 0 0 1 7.668 2.301 14.7 14.7 0 0 1 5.484 3.303 7.74 7.74 0 0 1 2.068 5.722 8.53 8.53 0 0 1-4.19 7.55q-4.189 2.715-12.209 2.713a50.73 50.73 0 0 1-26.777-7.67v16.282a52.6 52.6 0 0 0 13.032 4.835 62.2 62.2 0 0 0 13.744 1.534 50.4 50.4 0 0 0 18.757-3.126" style="fill:#9647e6;stroke-width:1.49796879"/><path fill="#fff" d="M194.15 0v84.26h84.261V0Zm58.34 59.465a13.77 13.77 0 0 1-6.155 4.706 25 25 0 0 1-9.602 1.659H217.85V18.433h17.786q7.863 0 12.182 3.148a10.52 10.52 0 0 1 4.317 9.048 10.88 10.88 0 0 1-1.546 5.868 10.65 10.65 0 0 1-4.576 3.944 12.63 12.63 0 0 1 6.411 4.408 12 12 0 0 1 2.225 7.325 12.3 12.3 0 0 1-2.159 7.29m-12.053-23.168a5.56 5.56 0 0 0 1.967-4.54q0-5.634-7.67-5.635h-7.282v11.8h7.283a8.75 8.75 0 0 0 5.702-1.625m-4.478 9.048h-8.507v12.794h8.378a11.5 11.5 0 0 0 6.639-1.624 5.36 5.36 0 0 0 2.32-4.673q0-6.495-8.83-6.497M299.477.001v84.261h84.26V.002Zm58.338 59.464a13.77 13.77 0 0 1-6.153 4.706 25 25 0 0 1-9.602 1.659h-18.885V18.433h17.788q7.862 0 12.18 3.148a10.52 10.52 0 0 1 4.319 9.048 10.88 10.88 0 0 1-1.548 5.868 10.65 10.65 0 0 1-4.576 3.944 12.63 12.63 0 0 1 6.413 4.408 12 12 0 0 1 2.224 7.325 12.3 12.3 0 0 1-2.16 7.29m-12.05-23.168a5.56 5.56 0 0 0 1.965-4.54q0-5.634-7.67-5.635h-7.282v11.8h7.282a8.75 8.75 0 0 0 5.704-1.625m-4.48 9.048h-8.508v12.794h8.38a11.5 11.5 0 0 0 6.637-1.624 5.36 5.36 0 0 0 2.32-4.673q0-6.495-8.829-6.497m63.517 38.917h84.26V.002h-84.26zm60.518-21.436a27.5 27.5 0 0 1-6.825 2.565 34.5 34.5 0 0 1-8.16.944 29.8 29.8 0 0 1-10.236-1.659 20.9 20.9 0 0 1-7.694-4.775 20.7 20.7 0 0 1-4.817-7.634 29.1 29.1 0 0 1-1.674-10.17 27.2 27.2 0 0 1 1.741-9.973 21.3 21.3 0 0 1 5.018-7.634 22.1 22.1 0 0 1 7.86-4.873 29.5 29.5 0 0 1 10.269-1.69 33 33 0 0 1 7.46.813 27.7 27.7 0 0 1 6.522 2.37v9.228a21.9 21.9 0 0 0-5.955-2.762 23.9 23.9 0 0 0-6.755-.942 17.64 17.64 0 0 0-8.33 1.82 12.46 12.46 0 0 0-5.286 5.262 17.6 17.6 0 0 0-1.839 8.381 18.3 18.3 0 0 0 1.774 8.416 12.1 12.1 0 0 0 5.151 5.295 17.1 17.1 0 0 0 8.194 1.819 25.4 25.4 0 0 0 13.582-3.833zm70.954-12.064v22.973h-13.429V10.56h23.06q12.458 0 19.129 5.213 6.67 5.213 6.67 14.931A17.91 17.91 0 0 1 560.306 48.2q3.976 6.275 7.865 12.59 3.887 6.318 7.774 12.943h-15.639q-6.362-11.662-13.164-22.971zm0-10.691h8.835a16.8 16.8 0 0 0 9.542-2.253 8.03 8.03 0 0 0 3.27-7.113 8.19 8.19 0 0 0-3.225-7.155q-3.225-2.297-9.497-2.298h-8.925zm93.301 33.664q-2.298-6.981-4.594-13.696h-25.623q-2.298 6.805-4.594 13.696h-14.578q6.007-16.61 12.238-32.427 6.229-15.814 12.59-30.747h14.666q6.537 15.728 12.767 31.586 6.228 15.86 12.06 31.588zM603.247 48.73h17.758q-2.12-6.183-4.374-12.325t-4.46-12.062q-4.596 12.107-8.924 24.387m48.946-38.168h24.122a36.55 36.55 0 0 1 17.096 3.71 25.08 25.08 0 0 1 10.823 10.735 40.82 40.82 0 0 1-.045 34.104 25.53 25.53 0 0 1-10.823 10.868 36.1 36.1 0 0 1-17.14 3.756h-24.033Zm23.327 51.51q8.833 0 13.562-5.169 4.725-5.17 4.726-14.89 0-9.627-4.639-14.71-4.638-5.078-13.563-5.08h-9.805v39.848zm43.202-51.511h13.608v63.174h-13.608zm55.752-1.326a34.8 34.8 0 0 1 12.944 2.298 27.7 27.7 0 0 1 9.897 6.582 29.2 29.2 0 0 1 6.315 10.337 43.15 43.15 0 0 1 0 27.257 29.6 29.6 0 0 1-6.315 10.426 27.4 27.4 0 0 1-9.897 6.627 37.6 37.6 0 0 1-25.887 0 27.35 27.35 0 0 1-9.897-6.627 29.5 29.5 0 0 1-6.317-10.426 43.15 43.15 0 0 1 0-27.257 29.2 29.2 0 0 1 6.317-10.336 27.66 27.66 0 0 1 9.897-6.583 34.8 34.8 0 0 1 12.943-2.298m0 53.985a16.7 16.7 0 0 0 9.278-2.518 15.82 15.82 0 0 0 5.92-7.2 33 33 0 0 0 0-22.797 15.56 15.56 0 0 0-5.92-7.155 18.63 18.63 0 0 0-18.555 0 15.54 15.54 0 0 0-5.92 7.155 32.97 32.97 0 0 0 0 22.796 15.8 15.8 0 0 0 5.92 7.201 16.7 16.7 0 0 0 9.278 2.517z" style="stroke-width:1.49796879"/></svg>