<svg xmlns="http://www.w3.org/2000/svg" viewBox="0.07 0.04 73.71 51.74"><path d="M26.374.111v15.275h15.28V.111Zm10.655 10.772a2.55 2.55 0 0 1-1.11.849 4.6 4.6 0 0 1-1.732.294H30.74V3.454h3.222c.953 0 1.68.19 2.2.571s.78.935.78 1.645a1.86 1.86 0 0 1-.277 1.057 1.95 1.95 0 0 1-.832.71c.468.138.866.416 1.161.797.277.38.416.848.398 1.333.035.468-.103.935-.363 1.316m-2.183-4.19c.242-.209.38-.503.363-.832 0-.676-.467-1.022-1.386-1.022h-1.316v2.13h1.316c.434.018.78-.086 1.023-.277m-.815 1.645H32.49v2.32h1.525c.52 0 .918-.104 1.195-.294a.96.96 0 0 0 .416-.849c0-.796-.537-1.195-1.594-1.177M45.466.11v15.275h15.28V.111Zm10.655 10.772a2.55 2.55 0 0 1-1.109.849 4.6 4.6 0 0 1-1.75.294h-3.43V3.454h3.222c.953 0 1.681.19 2.218.571.52.381.78.935.78 1.645a1.86 1.86 0 0 1-.277 1.057 1.95 1.95 0 0 1-.832.71c.468.138.866.416 1.16.797.278.38.417.848.4 1.333a2.2 2.2 0 0 1-.382 1.316m-2.183-4.19c.243-.209.381-.503.364-.832 0-.676-.468-1.022-1.386-1.022h-1.317v2.13h1.317c.433.018.78-.086 1.022-.277m-.814 1.645h-1.542v2.32h1.524c.52 0 .919-.104 1.196-.294a.96.96 0 0 0 .416-.849c0-.796-.52-1.195-1.594-1.177m11.434 7.048H79.84V.111H64.56Zm10.967-3.896a5.3 5.3 0 0 1-1.23.467 6 6 0 0 1-1.472.173 5.2 5.2 0 0 1-1.854-.294 4.1 4.1 0 0 1-1.404-.866c-.38-.398-.693-.866-.866-1.386a5.5 5.5 0 0 1-.312-1.835 4.9 4.9 0 0 1 .312-1.801c.208-.52.503-.988.901-1.386.416-.398.901-.693 1.42-.883a5.6 5.6 0 0 1 1.855-.312c.45 0 .9.052 1.35.139a4.6 4.6 0 0 1 1.179.433v1.68a4 4 0 0 0-1.074-.503 4.2 4.2 0 0 0-1.23-.173 3.25 3.25 0 0 0-1.508.33 2.2 2.2 0 0 0-.952.952 3.07 3.07 0 0 0-.33 1.524c-.017.52.087 1.056.33 1.524.207.415.537.744.935.952.468.225.97.347 1.49.33.866 0 1.715-.243 2.46-.693zM30.313 34.431q-.634-2.256-1.25-4.512-.596-2.257-1.174-4.513-.56 2.256-1.157 4.513-.596 2.256-1.23 4.512h-3.04q-.95-3.263-1.827-6.6-.877-3.339-1.66-6.732h3.133q.466 2.592.988 5.184t1.1 5.09q1.25-4.867 2.369-9.715h2.797q.56 2.387 1.137 4.774.597 2.368 1.212 4.736.56-2.461 1.082-4.997t.97-5.072h3.076q-.783 3.393-1.66 6.731t-1.827 6.601zM43.737 20.819q1.51 0 2.723.485 1.23.485 2.088 1.398.877.895 1.343 2.182.466 1.268.466 2.872 0 1.585-.466 2.871t-1.343 2.2q-.858.915-2.088 1.4-1.212.484-2.723.484t-2.741-.485q-1.212-.484-2.088-1.398-.858-.914-1.324-2.2t-.467-2.872q0-1.604.467-2.872.466-1.287 1.324-2.182.876-.913 2.088-1.398 1.23-.485 2.741-.485m0 11.393q1.138 0 1.958-.522.82-.54 1.25-1.529.428-.988.428-2.405t-.428-2.406-1.25-1.51-1.958-.522q-1.137 0-1.958.522-.82.522-1.25 1.51-.428.989-.428 2.406t.429 2.405 1.25 1.53q.82.521 1.957.521M54.774 29.583v4.848H51.94V21.1h4.867q2.63 0 4.028 1.1 1.417 1.1 1.417 3.151 0 1.324-.634 2.257-.615.932-1.772 1.435.84 1.324 1.66 2.667.82 1.324 1.641 2.722h-3.3q-1.343-2.461-2.78-4.848h-.279zm0-2.256h1.865q1.324 0 2.014-.466.69-.485.69-1.51 0-1.026-.69-1.511-.671-.485-1.995-.485h-1.884zM64.615 21.099h2.872v10.834h6.321v2.498h-9.193zM75.484 21.099h5.091q2.107 0 3.599.783 1.51.783 2.294 2.275.783 1.473.783 3.58t-.802 3.618q-.783 1.491-2.275 2.293-1.492.783-3.618.783h-5.072zm4.923 10.871q1.865 0 2.853-1.082 1.007-1.1 1.007-3.15 0-2.034-.988-3.096-.97-1.082-2.853-1.082h-2.07v8.41zM20.592 51.851q-1.1 0-2.182-.242-1.063-.243-2.051-.765v-2.573q1.995 1.212 4.233 1.212 1.268 0 1.92-.429.672-.429.672-1.193 0-.578-.336-.895-.317-.336-.858-.522-.54-.206-1.212-.373-1.1-.261-1.939-.597-.84-.336-1.417-.783-.578-.466-.877-1.1-.298-.653-.298-1.548 0-1.268.634-2.182.653-.914 1.827-1.399 1.175-.503 2.798-.503 1.062 0 2.088.242 1.026.243 1.846.653v2.536q-.82-.503-1.865-.783-1.025-.28-2.07-.28-1.137 0-1.77.392-.616.391-.616 1.119 0 .522.298.839.298.298.84.503.559.187 1.305.373.95.243 1.771.541.82.28 1.436.727.634.448.97 1.138.354.69.354 1.697 0 1.324-.653 2.275-.652.932-1.883 1.435-1.23.485-2.965.485M27.457 38.239h9.174v2.387H30.33v2.89h5.594v2.387h-5.594v3.282h6.657v2.387h-9.53zM41.254 46.723v4.849H38.42V38.239h4.867q2.63 0 4.028 1.1 1.417 1.1 1.417 3.151 0 1.324-.634 2.257-.615.932-1.771 1.435.839 1.324 1.66 2.667.82 1.324 1.64 2.723h-3.3q-1.343-2.462-2.779-4.849h-.28zm0-2.256h1.865q1.324 0 2.014-.466.69-.485.69-1.51 0-1.026-.69-1.511-.671-.485-1.995-.485h-1.884zM62.294 38.239q-1.212 3.338-2.499 6.675-1.268 3.338-2.592 6.658h-3.095q-1.324-3.32-2.61-6.658-1.269-3.337-2.48-6.675h3.15q.858 2.61 1.735 5.202.876 2.592 1.79 5.184.914-2.592 1.79-5.184.877-2.592 1.734-5.202zM63.53 38.239H66.4v13.333H63.53zM74.7 51.851q-1.585 0-2.853-.466-1.268-.485-2.145-1.38-.876-.895-1.342-2.182-.467-1.305-.467-2.927 0-1.585.485-2.853.485-1.287 1.399-2.2.913-.914 2.181-1.4 1.287-.484 2.872-.484 1.1 0 2.07.242.988.224 1.828.672v2.648q-.765-.522-1.66-.784-.895-.28-1.883-.28-1.362 0-2.331.523-.951.522-1.474 1.51-.503.989-.503 2.406t.485 2.424q.503.988 1.436 1.51.95.523 2.293.523 2.051 0 3.786-1.1v2.591q-.82.467-1.902.728-1.082.28-2.275.28M80.43 38.239h9.174v2.387h-6.302v2.89h5.594v2.387h-5.594v3.282h6.657v2.387h-9.53z" style="fill:#eb0000;fill-opacity:1" transform="translate(-16.179 -.072)"/></svg>