<svg xmlns="http://www.w3.org/2000/svg" viewBox="0.5 0.5 999 531.83"><defs><clipPath id="a" clipPathUnits="userSpaceOnUse"><path d="M419.528 0h419.527v595.275H419.528z"/></clipPath></defs><path d="m0 0 1.107 1.843h-19.104v-14.746h9.459l-1.077-1.843h22.779V0zm12.302-13.883H-8.106l1.045 1.842h-10.074V.98H-.42L-1.527-.862h13.829z" style="fill:#f15d2a;fill-opacity:1;fill-rule:nonzero;stroke:none" transform="matrix(32.0593 0 0 -32.0593 577.471 59.585)"/><g clip-path="url(#a)" transform="matrix(32.0593 0 0 -32.0593 -20928.417 12984.714)"><path d="m0 0 .42 1.739h-4.527l-1.435-5.945h-2.362l3.572 5.945H-9.12L-9.54 0h2.135l-3.284-5.465.347 7.204H-12.4l-3.473-5.945h-2.032l1.436 5.945h-1.789l-1.307-5.356c.205 1.182-.452 1.491-.956 1.649h-.002c.844.197 1.524.94 1.602 1.827.091 1.038-.678 1.88-1.716 1.88h-2.834l-1.854-7.684 2.896.001c.74.008 2.275.339 2.766 1.923l-.45-1.924h5.101l.728 1.274h1.915l-.084-1.274h11.325l.42 1.742-3.045-.003.332 1.375h1.826l.42 1.739h-1.827L-2.738 0zm-21.328-3.415c-.161-.665-.899-.782-1.037-.782h-.735l.365 1.514h.646c.215 0 .922-.067.761-.732m.687 3.002c-.105-.375-.46-.679-.793-.679h-.915l.327 1.357h.969c.333 0 .517-.304.412-.678m8.388-2.519h-1.036l1.171 2.047z" style="fill:#f15d2a;fill-opacity:1;fill-rule:nonzero;stroke:none" transform="translate(680.706 398.817)"/></g></svg>