<svg xmlns="http://www.w3.org/2000/svg" viewBox="22.22 25.47 190.33 73.78"><title>Brand Website/Header Logo</title><g fill="none" fill-rule="nonzero"><path fill="#ff6130" d="m212.545 63.142-15.64.785-4.01-27.053 6.05-.085 3.006 19.868 9.522-.388 1.074 6.874zm-102.144-25.11 14.303 29.525-8.045.404-1.938-4.211-9.226.416-1.115 4.412-8.282.416 8.403-30.88 5.898-.082zm1.846 19.266-3.6-7.74-1.975 7.946 5.575-.208zm-22.943-.52c-.892 2.888-3.43 5.006-6.62 5.139-4.294.177-8.137-3.306-8.524-7.749-.385-4.422 2.806-8.085 7.074-8.181 3.48-.079 6.627 2.238 7.86 5.475l7.76-.228c-1.771-7.57-8.635-13.313-16.347-13.208-8.6.116-15.124 7.441-14.378 16.398.75 9.039 8.587 16.088 17.298 15.645 7.521-.38 13.162-6.242 13.811-13.574l-7.934.282zm93.35-19.76 13.174 26.964-6.704.338-1.792-3.842-7.676.346-.742 4.01-6.873.344 5.696-28.09 4.917-.069zM185 54.592l-3.327-7.062-1.316 7.235 4.641-.173zm-11.032-10.373 1.302-7.097-22.337.313.928 7.25 7.443-.174 2.774 21.066 6.645-.335-2.82-20.885 6.066-.14zm-30.475 2.975c.692 5.658-2.732 9.935-8.211 10.144l-3.111.12 1.123 9.668-7.306.367-3.334-29.633 10.316-.144c5.441-.076 9.839 3.899 10.523 9.478m-6.556.17c-.191-1.6-1.498-2.733-3.147-2.697l-3.541.08.656 5.655 3.548-.105c1.653-.05 2.68-1.287 2.485-2.933zm7.094-9.804 3.558 28.848 6.926-.348-3.627-28.596z"/><path fill="#2e6bf6" d="M84.054 81.133c-8.934.377-17.755-4.265-23.043-11.362-8.388-11.022-7.924-27.893 3.24-36.878 7.61-6.124 16.917-5.235 26.08-5.286q8.317-.044 16.632-.076c11.017-.044 22.18.445 33.182-.144 0 0-60.075-2.333-64.155-1.845-4.079.49-5.625.875-7.882 1.75-3.23 1.238-6.148 3.169-8.612 5.57l-30.9 28.076a22.49 22.49 0 0 0-6.375 15.711c0 12.478 10.14 22.593 22.65 22.593 4.353 0-1.85.601 55.246-8.731 47.81-7.814 106.26-17.336 106.26-17.336L84.054 81.132z"/></g></svg>