<svg xmlns="http://www.w3.org/2000/svg" xml:space="preserve" viewBox="0 0 583.27 301.09"><path fill="#2afba2" d="M533.321 301.086c-17.484 0-32.502-3.342-45.018-9.99a68.57 68.674 0 0 1-28.9-28.715c-6.75-12.458-10.088-27.462-10.088-44.972 0-16.903 3.527-31.603 10.62-44.061a73.577 73.688 0 0 1 29.923-29.058c12.819-6.875 27.914-10.331 45.246-10.331 6.826 0 13.577.532 20.139 1.557 6.599 1.064 12.629 2.849 18.166 5.394 2.655 1.215 4.703 2.735 6.068 4.596 1.328 1.9 1.973 4.368 1.973 7.52v15.27c0 2.81-.76 5.166-2.238 7.065-1.48 1.861-3.717 2.773-6.713 2.773a12.364 12.383 0 0 1-5.613-1.14 104.676 104.834 0 0 0-12.06-3.798c-4.173-1.026-8.724-1.52-13.654-1.52-14.791 0-26.245 3.95-34.285 11.851-8.078 7.939-12.137 19.22-12.137 33.882 0 14.51 3.945 25.828 11.758 33.88 7.888 8.053 18.887 12.118 33.071 12.118 5.386 0 10.354-.608 14.905-1.786a129 129 0 0 0 13.767-4.52 14.867 14.89 0 0 1 5.84-1.329c2.656 0 4.855.874 6.6 2.583 1.707 1.71 2.579 4.064 2.579 7.065v15.46c0 3.456-.834 6.076-2.465 7.862-1.669 1.785-3.982 3.38-6.94 4.71a76.46 76.575 0 0 1-18.167 5.621c-7.017 1.33-14.488 2.013-22.377 2.013M317.79 297.648a14.222 14.24 0 0 1-10.543-4.026 14.222 14.24 0 0 1-4.02-10.519v-131.24c0-4.33 1.328-7.823 4.02-10.52a14.146 14.165 0 0 1 10.544-4.025h51.048c19.267 0 34.02 3.608 44.26 10.861s15.322 17.772 15.322 31.519c0 14.203-6.333 24.874-19.039 32.05 18.508 6.912 27.762 19.9 27.762 39.039 0 14.506-5.689 25.937-17.104 34.329-11.454 8.354-27.231 12.532-47.408 12.532Zm27.308-96.646h19.949c6.826 0 12.098-1.405 15.663-4.253a14.298 14.316 0 0 0 5.386-11.886q0-15.266-21.05-15.266h-19.948Zm0 64.367h25.107c7.888 0 13.919-1.443 18.015-4.367a13.919 13.937 0 0 0 6.143-12c0-11.392-7.964-17.089-23.969-17.089h-25.296v33.418ZM167.256 297.648a14.222 14.24 0 0 1-10.506-4.026 14.222 14.24 0 0 1-4.058-10.519v-131.24c0-4.33 1.365-7.823 4.058-10.52a14.109 14.127 0 0 1 10.506-4.025h51.086c19.267 0 33.982 3.608 44.222 10.861s15.36 17.772 15.36 31.519c0 14.203-6.371 24.874-19.039 32.05 18.508 6.912 27.762 19.9 27.762 39.039 0 14.506-5.689 25.937-17.142 34.329-11.378 8.354-27.193 12.532-47.37 12.532Zm27.307-96.646h19.949c6.864 0 12.136-1.405 15.701-4.253a14.298 14.316 0 0 0 5.386-11.886c0-10.178-7.055-15.266-21.087-15.266H194.6v31.405Zm0 64.367h25.107c7.926 0 13.919-1.443 18.053-4.367a13.919 13.937 0 0 0 6.144-12c0-11.392-7.965-17.089-23.97-17.089h-25.296v33.418ZM84.006 301.086c-17.446 0-32.502-3.342-45.018-9.99a68.57 68.674 0 0 1-28.9-28.715C3.375 249.923 0 234.92 0 217.41c0-16.903 3.527-31.603 10.62-44.061a73.615 73.726 0 0 1 29.923-29.058c12.857-6.913 27.914-10.331 45.246-10.331 6.865 0 13.577.532 20.177 1.557 6.56 1.064 12.591 2.849 18.128 5.394 2.655 1.215 4.703 2.735 6.068 4.596 1.328 1.9 2.01 4.368 2.01 7.52v15.27q0 4.216-2.275 7.065c-1.48 1.861-3.717 2.773-6.713 2.773a12.364 12.383 0 0 1-5.613-1.14 104.676 104.834 0 0 0-12.06-3.798c-4.172-1.026-8.724-1.52-13.654-1.52-14.791 0-26.245 3.95-34.285 11.851-8.078 7.939-12.137 19.22-12.137 33.882 0 14.51 3.945 25.828 11.796 33.88s18.849 12.118 33.033 12.118c5.386 0 10.354-.608 14.905-1.786a127 127 0 0 0 13.767-4.52 14.867 14.89 0 0 1 5.84-1.329c2.656 0 4.893.874 6.6 2.583s2.58 4.064 2.58 7.065v15.46c0 3.456-.835 6.076-2.466 7.862-1.669 1.785-3.982 3.38-6.94 4.71a76.46 76.575 0 0 1-18.167 5.621c-7.017 1.33-14.488 2.013-22.377 2.013M131.387 0v91.477h91.603V0Zm114.505 0v91.477h91.603V0Zm114.505 0v91.477h91.602V0Zm50.008 19.46a36 36 0 0 1 8.109.883 30 30 0 0 1 7.09 2.575v10.017a23.8 23.8 0 0 0-6.471-2.998 26 26 0 0 0-7.346-1.022 19.2 19.2 0 0 0-9.056 1.974 13.54 13.54 0 0 0-5.745 5.713 19.07 19.07 0 0 0-2 9.1 19.9 19.9 0 0 0 1.926 9.133 13.16 13.16 0 0 0 5.6 5.75 18.6 18.6 0 0 0 8.908 1.975 27.64 27.64 0 0 0 14.765-4.162v9.806a30 30 0 0 1-7.417 2.787 37.6 37.6 0 0 1-8.873 1.023 32.4 32.4 0 0 1-11.128-1.8 21.9 21.9 0 0 1-13.6-13.473 31.6 31.6 0 0 1-1.818-11.04 29.5 29.5 0 0 1 1.891-10.827 23.1 23.1 0 0 1 5.456-8.29 24 24 0 0 1 8.545-5.29 32.2 32.2 0 0 1 11.164-1.834m-252.796.55h19.337q8.547 0 13.242 3.418a11.41 11.41 0 0 1 4.695 9.823 11.8 11.8 0 0 1-1.682 6.37 11.6 11.6 0 0 1-4.975 4.283c2.77.823 5.21 2.498 6.972 4.786a13 13 0 0 1 2.417 7.952 13.33 13.33 0 0 1-2.348 7.916 14.97 14.97 0 0 1-6.69 5.109 27.2 27.2 0 0 1-10.44 1.798h-20.528Zm114.505 0h19.337q8.546 0 13.241 3.418a11.41 11.41 0 0 1 4.695 9.823 11.8 11.8 0 0 1-1.682 6.37 11.6 11.6 0 0 1-4.974 4.283c2.77.823 5.21 2.498 6.971 4.786a13.02 13.02 0 0 1 2.418 7.952 13.33 13.33 0 0 1-2.347 7.916 14.97 14.97 0 0 1-6.691 5.109 27.2 27.2 0 0 1-10.44 1.798h-20.528Zm-104.067 8.348v12.81h7.918a9.52 9.52 0 0 0 6.201-1.762 6.03 6.03 0 0 0 2.136-4.93q0-6.117-8.337-6.118Zm114.505 0v12.81h7.917a9.52 9.52 0 0 0 6.202-1.762 6.03 6.03 0 0 0 2.136-4.93q0-6.117-8.338-6.118ZM168.048 49.23v13.888h9.109a12.5 12.5 0 0 0 7.216-1.762 5.81 5.81 0 0 0 2.523-5.073q0-7.053-9.6-7.053Zm114.506 0v13.888h9.107a12.5 12.5 0 0 0 7.217-1.762 5.81 5.81 0 0 0 2.522-5.073q0-7.055-9.599-7.053Z"/></svg>