<svg xmlns="http://www.w3.org/2000/svg" xml:space="preserve" viewBox="0 0 375.51 142.4"><path fill="#ffe727" d="M139.874 137.876c-8.52 1.197-15.224.062-20.134-3.424-4.93-3.466-7.922-9.098-9.015-16.896-.68-4.848-.289-9.18 1.176-13.017a21.15 21.15 0 0 1 6.993-9.407 23.75 23.75 0 0 1 11.346-4.58c4.064-.557 7.757-.268 11.099.867a18.4 18.4 0 0 1 8.272 5.61 18.63 18.63 0 0 1 4.085 9.635 8 8 0 0 1-1.65 6.478 10.1 10.1 0 0 1-6.684 3.3l-17.123 2.393c.97 2.765 2.352 4.539 4.126 5.343a12.6 12.6 0 0 0 6.767.62 13 13 0 0 0 2.97-.764 34 34 0 0 0 2.64-1.135 11.9 11.9 0 0 1 3.652-1.279 6.065 6.065 0 0 1 6.952 5.24c.207 1.547.021 2.888-.577 4.044a8.4 8.4 0 0 1-2.538 2.867 21.7 21.7 0 0 1-5.755 2.682 49 49 0 0 1-6.602 1.444Zm-12.976-28.056 11.491-1.609a10.27 10.27 0 0 0-2.517-5.22 4.58 4.58 0 0 0-3.92-1.196c-3.341.475-5.012 3.157-5.054 8.046Zm58.485 32.533c-8.747-.289-15.266-2.62-19.598-6.973-4.29-4.353-6.313-10.52-6.024-18.546.165-4.95 1.341-9.242 3.507-12.831a21.5 21.5 0 0 1 8.644-8.19c3.61-1.857 7.674-2.723 12.171-2.579 4.188.144 7.84 1.093 10.975 2.826a18.75 18.75 0 0 1 7.303 7.076 19 19 0 0 1 2.393 10.397 8.13 8.13 0 0 1-2.785 6.19 10.27 10.27 0 0 1-7.282 2.124l-17.576-.619c.474 2.93 1.526 4.951 3.177 6.065 1.65 1.114 3.878 1.733 6.663 1.836 1.093.021 2.125-.04 3.094-.247.99-.206 1.94-.413 2.868-.66a12.1 12.1 0 0 1 3.878-.64 6.19 6.19 0 0 1 6.045 6.478 6.6 6.6 0 0 1-1.3 3.92c-.825 1.03-1.815 1.856-3.053 2.434-1.919.846-3.982 1.403-6.23 1.67a44.5 44.5 0 0 1-6.87.29Zm-8.045-30.387 11.8.412a10.44 10.44 0 0 0-1.61-5.694 4.66 4.66 0 0 0-3.713-1.877c-3.424-.124-5.57 2.27-6.477 7.159m95.39-20.96a10.03 10.03 0 0 1-6.395-2.372 6.6 6.6 0 0 1-1.96-5.57 6.62 6.62 0 0 1 2.703-5.22c1.65-1.175 3.858-1.65 6.663-1.464 2.826.206 4.951.99 6.395 2.372 1.486 1.403 2.125 3.239 1.96 5.57a6.6 6.6 0 0 1-2.682 5.22c-1.65 1.175-3.878 1.65-6.684 1.464m-11.49 41.465 2.063-29.438c.165-2.475 1.093-4.456 2.785-5.9 1.691-1.444 3.796-2.063 6.354-1.877 2.537.165 4.538 1.093 6.003 2.743 1.485 1.65 2.125 3.755 1.96 6.23l-2.063 29.418a8.8 8.8 0 0 1-2.806 6.19c-1.692 1.443-3.816 2.062-6.354 1.897a8.46 8.46 0 0 1-6.024-2.764 8.79 8.79 0 0 1-1.918-6.52Zm54.895 5.405c-8.52 1.197-15.225.062-20.155-3.424-4.91-3.466-7.901-9.098-8.995-16.896-.68-4.848-.288-9.18 1.176-13.017a21.15 21.15 0 0 1 6.973-9.407 23.75 23.75 0 0 1 11.367-4.58c4.064-.557 7.757-.268 11.099.867a18.4 18.4 0 0 1 8.272 5.61 18.63 18.63 0 0 1 4.085 9.635 8 8 0 0 1-1.65 6.478 10.1 10.1 0 0 1-6.685 3.3l-17.122 2.393c.97 2.765 2.352 4.539 4.126 5.343a12.6 12.6 0 0 0 6.766.62 13.3 13.3 0 0 0 2.97-.764 34 34 0 0 0 2.641-1.135 11.9 11.9 0 0 1 3.652-1.279 6.065 6.065 0 0 1 6.952 5.24c.206 1.547 0 2.888-.598 4.044-.598 1.134-1.444 2.083-2.517 2.867a21.5 21.5 0 0 1-5.776 2.682 47 47 0 0 1-6.602 1.444Zm-12.976-28.056 11.49-1.609a10.27 10.27 0 0 0-2.516-5.22 4.58 4.58 0 0 0-3.92-1.196c-3.342.475-5.013 3.157-5.054 8.046Zm49.84 31.79a29 29 0 0 1-6.332-.949 29.3 29.3 0 0 1-5.117-1.733c-1.444-.742-2.681-1.65-3.713-2.764a5.96 5.96 0 0 1-1.485-4.477c.062-1.65.619-2.99 1.712-4.064a5.63 5.63 0 0 1 4.332-1.506 9.1 9.1 0 0 1 3.879 1.156 14.6 14.6 0 0 0 5.982 1.485c3.3.124 4.951-.619 5.013-2.207.02-.887-.35-1.527-1.134-1.857s-1.816-.68-3.095-1.01c-5.776-1.486-9.84-3.425-12.171-5.818-2.31-2.373-3.404-5.612-3.26-9.737a13.41 13.41 0 0 1 6.045-11.347c3.857-2.578 9.077-3.754 15.616-3.527 2.146.062 4.27.371 6.333.887 2.084.536 3.961 1.279 5.632 2.248.929.537 1.898 1.3 2.888 2.31.97.991 1.445 2.394 1.383 4.21a5.36 5.36 0 0 1-1.795 4.084c-1.155.99-2.6 1.444-4.332 1.382a7.2 7.2 0 0 1-1.836-.31 41 41 0 0 1-2.393-.845 17.1 17.1 0 0 0-5.22-1.3 7.34 7.34 0 0 0-3.197.495q-1.238.558-1.3 1.733c0 .68.289 1.176.928 1.527.64.33 1.795.722 3.507 1.176 5.591 1.382 9.614 3.238 12.027 5.57 2.394 2.31 3.528 5.57 3.384 9.737-.186 5.322-2.228 9.283-6.107 11.903-3.878 2.6-9.283 3.796-16.173 3.548Zm-288.38-.907a8.77 8.77 0 0 1-6.312-2.889 8.77 8.77 0 0 1-1.98-6.663l2.682-38.577c.206-2.682 1.155-4.786 2.888-6.313a8.77 8.77 0 0 1 6.663-2l15.307 1.072c7.055.495 12.337 2.187 15.823 5.075a13.06 13.06 0 0 1 4.745 11.676c-.33 4.745-2.62 8.252-6.85 10.542 5.921 2.888 8.665 7.633 8.211 14.131a14.36 14.36 0 0 1-7.014 11.841c-4.311 2.682-10.15 3.776-17.535 3.26Zm10.625-34.08 5.797.412c2.063.145 3.61-.165 4.683-.928a4.13 4.13 0 0 0 1.774-3.3c.206-2.91-1.733-4.54-5.818-4.808l-5.796-.412Zm-1.506 21.454 8.128.578c4.58.33 6.973-1.032 7.2-4.064q.155-2.415-1.362-3.713c-1.031-.887-2.764-1.403-5.178-1.589l-8.128-.557-.66 9.366Zm-41.3 13.884a34.86 34.86 0 0 1-16.442-2.372 24.47 24.47 0 0 1-11.12-9.366A32.4 32.4 0 0 1 .13 114.647 30.1 30.1 0 0 1 2.894 98.97c2.249-4.58 5.591-8.252 10.047-11.016a34.4 34.4 0 0 1 15.988-4.807c1.526-.103 3.218-.082 5.095.083 1.857.165 3.672.536 5.467 1.114 1.774.598 3.3 1.444 4.539 2.578a8.13 8.13 0 0 1 2.785 5.839c.123 1.856-.392 3.465-1.568 4.91a6.33 6.33 0 0 1-4.663 2.351 8.7 8.7 0 0 1-2.351-.124 17 17 0 0 1-1.98-.536 30 30 0 0 0-2.332-.619 12 12 0 0 0-3.342-.165 13 13 0 0 0-6.292 2.063c-1.856 1.217-3.3 2.888-4.27 5.013a15.53 15.53 0 0 0-1.176 7.695c.31 4.476 1.712 7.839 4.188 10.108 2.475 2.249 5.755 3.218 9.799 2.95a12.2 12.2 0 0 0 3.362-.68 19 19 0 0 0 2.682-1.176 9.6 9.6 0 0 1 1.898-.826 10.6 10.6 0 0 1 1.857-.309 6.3 6.3 0 0 1 5.178 1.774q1.98 2.012 2.166 4.766c.103 1.423-.103 2.681-.619 3.713a8.7 8.7 0 0 1-2.022 2.805 14.7 14.7 0 0 1-4.538 2.95 32.6 32.6 0 0 1-10.377 2.538Zm217.62-42.744c-3.341-3.837-7.839-5.55-13.491-5.158a12.67 12.67 0 0 0-9.696 5.199l-.268-3.837-.516-7.489-.082-1.196a8.23 8.23 0 0 0-2.744-5.9c-1.65-1.444-4.085-2.063-6.602-1.857q-3.713.248-5.879 2.723a8.25 8.25 0 0 0-1.898 6.23l1.423 20.3 1.445 20.897c.247 3.301 1.237 5.9 2.99 7.84a13.4 13.4 0 0 0 6.809 4.022 30.6 30.6 0 0 0 5.384.887c1.918.165 2.063.29 4.208.145 8.417-.598 14.771-3.177 19.062-7.777q6.436-6.9 5.57-19.186c-.536-7.53-2.372-12.006-5.714-15.843Zm-11.903 26.426c-1.237 1.857-3.053 2.868-5.466 3.033-1.383.103-2.641.04-3.776-.207l-1.176-17.081a6.04 6.04 0 0 1 4.89-2.806c4.229-.288 6.56 2.806 7.014 9.284.227 3.342-.269 5.92-1.486 7.777M78.324 0v62.37h62.517V0Zm78.251 0v62.37h62.517V0Zm78.23 0v62.37h62.516V0Zm34.129 13.268a24.6 24.6 0 0 1 5.534.602c1.68.38 3.306.97 4.84 1.756v6.83a16.3 16.3 0 0 0-4.418-2.045 17.8 17.8 0 0 0-5.013-.696 13.1 13.1 0 0 0-6.18 1.346 9.23 9.23 0 0 0-3.921 3.895 13 13 0 0 0-1.366 6.204 13.55 13.55 0 0 0 1.315 6.228 8.98 8.98 0 0 0 3.822 3.92 12.7 12.7 0 0 0 6.08 1.347c3.56.023 7.054-.962 10.077-2.838v6.686a20.4 20.4 0 0 1-5.062 1.9 25.7 25.7 0 0 1-6.056.697 22.1 22.1 0 0 1-7.595-1.226 14.94 14.94 0 0 1-9.281-9.187 21.5 21.5 0 0 1-1.242-7.527 20.1 20.1 0 0 1 1.292-7.383 15.8 15.8 0 0 1 3.723-5.651 16.4 16.4 0 0 1 5.832-3.607 22 22 0 0 1 7.619-1.25Zm-172.343.581h13.135q5.833 0 9.037 2.33a7.78 7.78 0 0 1 3.205 6.698 8.05 8.05 0 0 1-1.148 4.343 7.9 7.9 0 0 1-3.395 2.92 9.38 9.38 0 0 1 4.757 3.264 8.87 8.87 0 0 1 1.65 5.421 9.1 9.1 0 0 1-1.602 5.397 10.2 10.2 0 0 1-4.567 3.484 18.6 18.6 0 0 1-7.125 1.226H96.591Zm77.9-.206h13.197q5.833 0 9.037 2.33a7.78 7.78 0 0 1 3.204 6.698 8.05 8.05 0 0 1-1.148 4.343 7.9 7.9 0 0 1-3.394 2.92 9.38 9.38 0 0 1 4.757 3.264 8.87 8.87 0 0 1 1.65 5.421 9.1 9.1 0 0 1-1.601 5.398 10.2 10.2 0 0 1-4.567 3.483 18.6 18.6 0 0 1-7.125 1.226h-14.01Zm-70.777 5.898v8.734h5.404a6.5 6.5 0 0 0 4.232-1.202 4.11 4.11 0 0 0 1.458-3.361q0-4.17-5.69-4.171Zm77.901-.206v8.734h5.403a6.5 6.5 0 0 0 4.233-1.201 4.11 4.11 0 0 0 1.457-3.362q0-4.17-5.69-4.17Zm-77.9 14.436v9.47h6.216a8.54 8.54 0 0 0 4.925-1.202 3.96 3.96 0 0 0 1.722-3.458q0-4.81-6.551-4.81Zm77.901-.205v9.47h6.216a8.54 8.54 0 0 0 4.925-1.203 3.96 3.96 0 0 0 1.721-3.458q0-4.81-6.55-4.81Z"/></svg>