<svg xmlns="http://www.w3.org/2000/svg" fill="none" viewBox="8.28 0 37.63 54"><path fill="#fbf433" d="M20.69 15.444H9.32L14.096 1.2C14.37.387 14.789.002 15.6.002h10.276zM27.606.002h13.413c.824 0 1.544.485 1.52 1.452v7.453c0 .848-.644 1.421-1.488 1.421H24.133zM9.3 17.055l4.246 8.559c.357.814 1.036 1.72 2.47 1.72h11.11c11.547 0 17.156 10.7 16.326 17.194 0 0 2.454-3.766 2.454-9.234 0-9.933-8.674-18.24-18.492-18.24z"/><path fill="#fbf433" d="M27.99 54V42.539c3.924-.54 6.307-3.574 6.307-7.068 0-2.707-1.488-4.761-3.645-6.047 5.448 1.1 11.075 6.54 11.075 12.981 0 5.283-3.812 10.97-13.737 11.597M26.165 42.54v11.462C14.688 53.303 8.28 44.05 8.28 35.665c0-.976.6-1.605 1.463-1.605h8.641c.836 0 1.371.633 1.41 1.437.062 3.164 2.07 6.237 6.371 7.042"/></svg>