<svg xmlns="http://www.w3.org/2000/svg" fill="none" viewBox="6 1.57 107 21.63"><g clip-path="url(#a)"><g clip-path="url(#b)"><path fill="#e31c24" d="M102.984 3.515c0 .355-.118.682-.348 1-.313.316-.674.478-1.103.478-.204 0-.378-.037-.554-.137q-.564-.324-.565-1.012c0-.266.069-.506.204-.707.229-.366.605-.581 1.116-.644.052-.303-.177-.492-.685-.557-.524 0-.929.088-1.211.241-.402.214-.725.492-.952.858-.177.267-.378.697-.564 1.3-.15.47-.337 1.14-.594 2.012h1.966v.425h-2.072a101 101 0 0 1-1.65 5.13c-.752 2.161-1.346 3.817-1.872 4.927-.697 1.467-1.262 2.451-1.61 3.008a11 11 0 0 1-1.83 2.148c-.47.43-.9.768-1.33.986q-.464.228-1.09.226c-.843-.012-1.411-.267-1.707-.782a1.73 1.73 0 0 1-.227-.848c0-.19.026-.352.094-.506.095-.239.268-.427.495-.581.244-.164.5-.24.78-.24.35 0 .645.11.876.353.225.241.362.517.388.846.026.344-.064.633-.308.873-.203.19-.443.314-.726.354-.014.062 0 .113.055.151a.5.5 0 0 0 .252.052c.272 0 .564-.089.89-.267a1.9 1.9 0 0 0 .656-.57c.296-.441.602-1.174.902-2.22.213-.772.43-1.53.63-2.288.351-1.277.9-3.033 1.655-5.254.738-2.201 1.383-4.034 1.947-5.5H92.89v-.425h2.192a12 12 0 0 1 1.09-1.872c.563-.796 1.183-1.453 1.866-1.931.94-.67 1.828-.986 2.661-.973.322.01.646.06.954.164.62.187 1.008.593 1.214 1.186.063.203.118.392.118.593"/><path fill="#e2e1e3" d="m111.752 15.417-.367-8.035c-.014-.188.084-.392.298-.581.216-.188.511-.328.876-.405v-.063h-2.139l-3.627 8.387c-2.287-5.595-3.43-8.387-3.43-8.387h-2.417v.063c.509.024.899.177 1.157.443.198.203.305.44.293.721l-.482 7.704c-.057.758-.497 1.163-1.211 1.212v.065h2.687v-.065c-.336 0-.606-.124-.821-.364-.161-.19-.227-.392-.21-.581l.347-7.706 3.64 8.716 3.886-8.98.334 8.058c.015.24-.118.44-.363.606-.226.163-.481.24-.764.251v.065H113v-.065c-.807-.01-1.226-.364-1.249-1.06M78.767 16.06c-1.09-.202-1.949-.77-2.608-1.67a4.66 4.66 0 0 1-.903-2.9q.083-2.297 1.36-3.717c.632-.721 1.462-1.175 2.484-1.314.434-.064.916-.024 1.44.064q1.311.226 1.935 1.06c.161.214.272.418.337.632.027.074.054.24.082.48h.08v-2.35h-.08c-.055.163-.095.265-.125.29-.076.064-.253.086-.507.064-.607-.14-1.037-.256-1.307-.318a6.1 6.1 0 0 0-1.93-.1 5.7 5.7 0 0 0-2.879 1.11 5.5 5.5 0 0 0-1.398 1.529c-.419.67-.661 1.29-.74 1.857-.066.48-.095.986-.011 1.503.133.989.632 1.933 1.49 2.793.75.747 1.735 1.238 2.928 1.466.526.099 1.104.075 1.734 0 1.009-.125 1.992-.61 2.96-1.428v-.278c-1.092.72-1.978 1.137-2.676 1.225-.632.09-1.197.09-1.665 0M65.678 6.407c.417.038.687.129.846.254a.83.83 0 0 1 .354.683v8.16c0 .29-.149.544-.446.745-.162.114-.416.166-.754.19v.076H69.2v-.076c-.31-.013-.567-.063-.767-.177-.282-.162-.417-.416-.417-.758v-8.16c0-.291.135-.519.351-.683.174-.137.442-.216.834-.254v-.06h-3.522v.06zM58.583 11.55c-.672-.392-1.344-.759-2.015-1.149-.66-.482-.995-1.048-.995-1.705 0-.656.188-1.175.563-1.582.362-.392.874-.605 1.531-.591.392.013.687.075.889.15.2.065.417.203.63.394q.504.451.728 1.337h.067V6.348h-.067c-.015.162-.082.265-.201.289q-.222.035-.727-.14c-.388-.126-.832-.228-1.302-.215-.834.013-1.533.291-2.082.759-.5.43-.848.972-.97 1.64-.066.332-.04.659.028.95.134.668.604 1.275 1.45 1.794.725.442 1.495.807 2.205 1.25.793.492 1.184 1.097 1.196 1.767 0 .315-.053.569-.133.77-.23.583-.768.936-1.64 1.087a3.1 3.1 0 0 1-.981 0 2.83 2.83 0 0 1-1.588-.745 2.36 2.36 0 0 1-.765-1.479h-.069v2.44h.069c.04-.353.145-.529.335-.529a.2.2 0 0 1 .082.011c.482.165.886.315 1.221.454.31.102.74.14 1.292.127 1.314-.025 2.217-.478 2.741-1.34.162-.265.28-.518.309-.768.053-.558 0-1.012-.176-1.366-.268-.555-.805-1.086-1.625-1.554M46.78 11.55c-.674-.392-1.343-.759-2.019-1.149-.657-.482-.992-1.048-.992-1.705 0-.656.188-1.175.564-1.582.361-.392.871-.605 1.532-.591.39.013.686.075.888.15.202.065.416.203.633.394q.5.451.724 1.337h.069V6.348h-.07c-.014.162-.078.265-.2.289q-.225.035-.727-.14c-.391-.126-.833-.228-1.304-.215-.831.013-1.531.291-2.082.759-.497.43-.847.972-.967 1.64-.067.332-.042.659.026.95.135.668.604 1.275 1.451 1.794.728.442 1.494.807 2.204 1.25.793.492 1.184 1.097 1.198 1.767 0 .315-.054.569-.135.77-.227.583-.767.936-1.64 1.087-.23.038-.552.063-.983 0a2.8 2.8 0 0 1-1.584-.745 2.37 2.37 0 0 1-.767-1.479h-.066v2.44h.066c.04-.353.15-.529.338-.529.023 0 .052 0 .08.011.483.165.886.315 1.223.454.31.102.741.14 1.29.127 1.316-.025 2.218-.478 2.74-1.34.161-.265.283-.518.31-.768.055-.558 0-1.012-.174-1.366-.268-.555-.805-1.086-1.625-1.554M31.553 12.108l1.573-4.702 1.706 4.702zm5.833 3.673c-.2-.443-.307-.757-.364-.921a486 486 0 0 0-1.545-4.256l-1.533-4.27h-.805l-2.649 7.821c-.118.366-.24.743-.373 1.109a2 2 0 0 1-.365.668c-.282.343-.63.508-1.02.52v.076h2.54v-.076c-.364-.05-.604-.152-.725-.289-.082-.102-.135-.278-.135-.518.092-.48.187-.835.268-1.075l.766-2.158h3.466c.31.846.47 1.262.47 1.25l.457 1.224c.161.443.216.734.216.86.014.277-.096.467-.309.568-.149.064-.39.114-.754.152v.063h3.468v-.063c-.497-.038-.871-.253-1.076-.683M24.437 16.21h-1.828c-.324 0-.551-.085-.714-.199-.201-.153-.322-.316-.348-.532V7.306c.027-.215.16-.402.389-.583.229-.162.51-.278.832-.316v-.06h-3.574v.06c.24.03.43.065.58.129.064.024.161.087.282.177.227.19.363.39.363.592v8.236c0 .254-.161.48-.47.695-.175.1-.418.165-.711.202v.076h6.383l.419-1.656h-.083c-.269.86-.778 1.35-1.517 1.35M10.821 16.06c-1.088-.202-1.948-.77-2.609-1.67a4.66 4.66 0 0 1-.9-2.9c.055-1.532.511-2.77 1.357-3.717.632-.721 1.465-1.175 2.486-1.314.431-.064.913-.024 1.44.064.87.15 1.518.504 1.936 1.06.16.214.266.418.335.632.026.074.053.24.08.48h.082v-2.35h-.082c-.054.163-.094.265-.12.29-.082.064-.258.086-.51.064-.605-.14-1.036-.256-1.305-.318a6.2 6.2 0 0 0-1.934-.1c-1.063.1-2.017.48-2.876 1.11-.499.367-.982.861-1.397 1.529-.419.67-.66 1.29-.741 1.857-.066.48-.095.986-.014 1.503.135.989.632 1.933 1.491 2.793q1.133 1.122 2.93 1.466c.526.099 1.102.075 1.733 0 1.009-.125 1.99-.61 2.958-1.428v-.278c-1.089.72-1.975 1.137-2.675 1.225-.63.09-1.196.09-1.665 0"/></g></g><defs><clipPath id="a"><path fill="#fff" d="M0 0h118v25H0z"/></clipPath><clipPath id="b"><path fill="#fff" d="M6 1.266h107V23.65H6z"/></clipPath></defs></svg>