<svg xmlns="http://www.w3.org/2000/svg" viewBox="0 0 72.48 100"><g fill-rule="evenodd"><path fill="#fff" d="M18.555 100v-8.118h8.118V100zm26.673-13.336V72.167h8.118v14.497zM46.429 0l6.308 5.108-7.51 9.274V1.484zm12.135 66.949v-8.118H72.48v8.118zM45.228 100v-8.118h20.294V100zm-13.337 0V72.168h8.118V100zm8.118-79.173-1.262 1.558H28.301L40.01 7.928zm13.337 1.558h-7.884l7.884-9.735z"/><path fill="#8700ff" d="M53.764 48.182V46.37a3.453 3.453 0 0 0-3.453-3.453H24.703a.864.864 0 0 1-.67-1.406l3.683-4.55c.328-.404.82-.639 1.342-.639H50.31a3.453 3.453 0 0 0 3.453-3.453v-1.812a3.453 3.453 0 0 0-3.453-3.453H26.546a5.18 5.18 0 0 0-4.025 1.92L1.154 55.91A5.18 5.18 0 0 0 0 59.17v3.894a3.885 3.885 0 0 0 3.885 3.885H50.31a3.453 3.453 0 0 0 3.453-3.453v-1.812a3.453 3.453 0 0 0-3.453-3.454H12.303a.863.863 0 0 1-.671-1.406l3.684-4.549c.327-.405.82-.64 1.341-.64h33.654a3.453 3.453 0 0 0 3.453-3.453"/></g></svg>