<svg xmlns="http://www.w3.org/2000/svg" viewBox="0 0 800 800"><g fill="#0172f1"><path d="M0 0h800v800H0zm192.79 270.73c-15.85 7.2-27.96 21.74-32.81 38.39-4.42 14.88-3.14 31.32 3.37 45.4 6.56 13.69 18.14 25.08 32.32 30.71 12.49 5.17 26.85 5.73 39.67 1.36 16.52-5.07 30.19-18.04 36.84-33.9-5.28.13-10.7-.64-15.88.34-2.85 2.93-4.91 6.56-7.98 9.29-13.06 12.68-34.16 16.34-50.42 7.86-13.31-6.26-22.66-19.3-25.51-33.6 34.91-.19 69.82.09 104.72-.15 1.85-15.61-1.73-31.86-10.62-44.89-7.87-11.18-19.24-20.13-32.51-23.86-13.45-4.47-28.47-3-41.19 3.05m255.86 6.92c-11.59 9.42-17.42 24.58-17.24 39.3.05 23.06-.12 46.12.09 69.19 4.93.34 9.88.27 14.83.14.02-23.44-.05-46.87.03-70.31.12-10.67 4.36-22 13.58-28.04 9.73-6.7 21.91-7.87 33.4-7.74.12-5 .11-10.01.04-15.01-15.57-.29-32.26 2.52-44.73 12.47m101.77-10.76c-8.1 1.62-15.7 5.32-22.36 10.15-13.57 9.74-22.43 25.41-24.72 41.87-1.86 11.5.17 23.43 4.72 34.07 7.32 17.25 23.04 30.76 41.31 35.06 13.13 3.28 27.32 1.71 39.49-4.19 15.5-7.64 27.7-21.97 32.28-38.68 3.29-10.98 3.43-22.86.37-33.9-3.65-14.71-13.27-27.57-25.72-36.05-13.25-8.48-29.95-12.34-45.37-8.33m-162.21.82c-1.38.87-.52 2.87-.8 4.22.1 21.37.03 42.75.04 64.13.15 8.67-1.77 17.57-6.59 24.88-4.85 7.69-13.19 12.99-22.1 14.53-6.23.57-12.79.78-18.67-1.72-10.87-4.06-19.01-14.25-20.99-25.63-1.08-5.3-.64-10.75-.71-16.12-.04-21.43.09-42.87-.06-64.3-4.66-.19-9.32-.25-13.97.04.07 24.44.01 48.87.03 73.3-.07 10.89 3.13 22 10 30.58 13.85 18.41 41.5 22.85 61.46 12.26 12.99-6.42 21.78-19.63 24.44-33.68 1.85-9.63.88-19.46 1.12-29.2-.18-17.81.34-35.63-.26-53.43-4.32.1-8.64-.22-12.94.14M167.87 435.88c-8.69 10.59-12.57 24.57-12.24 38.13-.02 18.01.04 36.02-.03 54.03.13 1.83-.45 4.09 1.36 5.29 8.39.14 16.8.24 25.19-.13.47-17.06.06-34.14.2-51.2.17-6.39-.67-13 1.42-19.17 1.43-4.73 3.93-9.14 7.32-12.75 8.14-8.03 21.44-10.07 31.56-4.63 9.12 4.42 14.68 14.54 14.74 24.53.16 21.12-.13 42.26.14 63.39 8.9.06 17.8.12 26.7-.06.19-16.77-.02-33.54.08-50.31-.08-6.22.32-12.47-.46-18.66-1.12-15.43-9.58-30.14-22.39-38.83-22.35-15.69-56.74-11.52-73.59 10.37m136.32-15.74c-14.17 5.73-25.66 17.33-31.87 31.22-6.67 15.3-6.84 33.36-.38 48.75 4.93 12.08 14.1 22.29 25.34 28.84 15.54 8.93 35.45 9.84 51.67 2.18 12.79-5.61 22.78-16.3 28.9-28.71-7.97-.3-15.95-.13-23.93-.21-6.03-.87-9.49 5.18-14.72 6.96-10.58 5.09-23.78 3.75-33.27-3.1-6.92-4.52-11.52-11.77-14.04-19.52 30.14-.23 60.29-.06 90.44-.08 1.39-3.67 1.24-7.64 1.21-11.49-.41-22.79-14.35-45.18-35.58-54.11-13.67-6.24-29.87-6.3-43.77-.73m76.04-1.68c.09 10.42 2.68 20.59 4.31 30.83 6.17 28.65 13.8 57.15 25.47 84.08 12 .04 24 .13 35.99-.05 7.05-17.96 12.43-36.53 16.61-55.36 4.32 18.85 9.17 37.79 17.14 55.47 11.8-.04 23.6.01 35.41-.03 4.74-10.85 8.17-22.23 11.79-33.5a667 667 0 0 0 16.31-68.33c.67-4.38 1.67-8.76 1.38-13.21-9.36.11-18.71-.05-28.07.14-1.83 11.83-3.62 23.68-6.09 35.39-3.94 18.69-7.73 37.54-14.42 55.48-2.34-5.9-4.2-11.97-5.99-18.05-6.88-23.87-11.8-48.26-15.63-72.8-7.94-.17-15.89-.13-23.83-.07-3.22 23.32-8.05 46.41-14.16 69.15-2.17 7.35-4.1 14.82-7.37 21.78-3.93-9.53-6.23-19.62-8.87-29.56a709 709 0 0 1-11.5-61.35c-9.5-.06-18.99-.13-28.48-.01m183.91 2.75c-6.82 2.4-13.08 7.02-16.52 13.48-4.86 8.59-4.76 19.25-1.84 28.45 2.44 7.74 8.45 14.06 15.92 17.14 9.97 3.84 20.9 4.85 30.63 9.34 7.56 3.61 7.27 15.87-.13 19.43-5.67 2.7-12.19 1.39-18.24 1.68-10.22.25-20.13-2.47-30.07-4.42-.01 7.39-.48 14.81.26 22.18 14.51 4.34 29.74 5.93 44.83 4.85 11.4-1.11 24.02-4.57 30.72-14.66 4.15-5.69 5.2-12.82 5.62-19.67-.32-8.32-1.98-17.16-7.94-23.4-7.94-8.6-20.12-10.33-30.82-13.43-4.52-1.48-9.71-2.01-13.25-5.5-2.43-2.12-2.16-5.66-2.01-8.56.12-4.19 4.36-6.78 8.09-7.39 13.38-1.44 26.77.62 39.92 2.98.05-6.88.23-13.77-.02-20.65-.22-.33-.67-1.01-.89-1.35-7.54-2.56-15.53-3.28-23.4-3.97-10.36-.54-21.04-.21-30.86 3.47m94.26 64.5c-10.95 2.37-19.18 13.13-18.66 24.31.11 12.64 11.54 24.06 24.28 23.6 12.85.3 24.87-11.62 23.78-24.62.53-9.05-5.37-17.56-13.32-21.5-4.91-2.58-10.72-2.54-16.08-1.79"/><path d="M203.24 282.24c6.85-2.62 14.36-2.23 21.53-1.7 19.98 3.17 36.27 21.09 38.07 41.15-30.25.18-60.5.14-90.75.02 1.41-17.73 14.35-33.83 31.15-39.47M557.42 282.84c10.24-1.58 20.99 1.25 29.33 7.35 9.69 7.01 16.29 18.08 18.02 29.9 3.03 16.91-4.36 35.3-18.44 45.21-14.62 10.81-36.49 9.53-49.81-2.8-10.04-8.76-15.94-22.18-15.3-35.51-.57-20.79 15.27-41.24 36.2-44.15M311.26 443.38c6.52-3.19 14.07-3.76 21.15-2.46 12.56 2.72 22.84 12.89 26.36 25.16-18.91.41-37.85-.01-56.77.2-3.32.04-6.64.02-9.95-.21 2.67-9.86 9.78-18.6 19.21-22.69"/></g><g fill="#fefefe"><path d="M192.79 270.73c12.72-6.05 27.74-7.52 41.19-3.05 13.27 3.73 24.64 12.68 32.51 23.86 8.89 13.03 12.47 29.28 10.62 44.89-34.9.24-69.81-.04-104.72.15 2.85 14.3 12.2 27.34 25.51 33.6 16.26 8.48 37.36 4.82 50.42-7.86 3.07-2.73 5.13-6.36 7.98-9.29 5.18-.98 10.6-.21 15.88-.34-6.65 15.86-20.32 28.83-36.84 33.9-12.82 4.37-27.18 3.81-39.67-1.36-14.18-5.63-25.76-17.02-32.32-30.71-6.51-14.08-7.79-30.52-3.37-45.4 4.85-16.65 16.96-31.19 32.81-38.39m10.45 11.51c-16.8 5.64-29.74 21.74-31.15 39.47 30.25.12 60.5.16 90.75-.02-1.8-20.06-18.09-37.98-38.07-41.15-7.17-.53-14.68-.92-21.53 1.7M448.65 277.65c12.47-9.95 29.16-12.76 44.73-12.47.07 5 .08 10.01-.04 15.01-11.49-.13-23.67 1.04-33.4 7.74-9.22 6.04-13.46 17.37-13.58 28.04-.08 23.44-.01 46.87-.03 70.31-4.95.13-9.9.2-14.83-.14-.21-23.07-.04-46.13-.09-69.19-.18-14.72 5.65-29.88 17.24-39.3M550.42 266.89c15.42-4.01 32.12-.15 45.37 8.33 12.45 8.48 22.07 21.34 25.72 36.05 3.06 11.04 2.92 22.92-.37 33.9-4.58 16.71-16.78 31.04-32.28 38.68-12.17 5.9-26.36 7.47-39.49 4.19-18.27-4.3-33.99-17.81-41.31-35.06-4.55-10.64-6.58-22.57-4.72-34.07 2.29-16.46 11.15-32.13 24.72-41.87 6.66-4.83 14.26-8.53 22.36-10.15m7 15.95c-20.93 2.91-36.77 23.36-36.2 44.15-.64 13.33 5.26 26.75 15.3 35.51 13.32 12.33 35.19 13.61 49.81 2.8 14.08-9.91 21.47-28.3 18.44-45.21-1.73-11.82-8.33-22.89-18.02-29.9-8.34-6.1-19.09-8.93-29.33-7.35M388.21 267.71c4.3-.36 8.62-.04 12.94-.14.6 17.8.08 35.62.26 53.43-.24 9.74.73 19.57-1.12 29.2-2.66 14.05-11.45 27.26-24.44 33.68-19.96 10.59-47.61 6.15-61.46-12.26-6.87-8.58-10.07-19.69-10-30.58-.02-24.43.04-48.86-.03-73.3 4.65-.29 9.31-.23 13.97-.04.15 21.43.02 42.87.06 64.3.07 5.37-.37 10.82.71 16.12 1.98 11.38 10.12 21.57 20.99 25.63 5.88 2.5 12.44 2.29 18.67 1.72 8.91-1.54 17.25-6.84 22.1-14.53 4.82-7.31 6.74-16.21 6.59-24.88-.01-21.38.06-42.76-.04-64.13.28-1.35-.58-3.35.8-4.22M167.87 435.88c16.85-21.89 51.24-26.06 73.59-10.37 12.81 8.69 21.27 23.4 22.39 38.83.78 6.19.38 12.44.46 18.66-.1 16.77.11 33.54-.08 50.31-8.9.18-17.8.12-26.7.06-.27-21.13.02-42.27-.14-63.39-.06-9.99-5.62-20.11-14.74-24.53-10.12-5.44-23.42-3.4-31.56 4.63-3.39 3.61-5.89 8.02-7.32 12.75-2.09 6.17-1.25 12.78-1.42 19.17-.14 17.06.27 34.14-.2 51.2-8.39.37-16.8.27-25.19.13-1.81-1.2-1.23-3.46-1.36-5.29.07-18.01.01-36.02.03-54.03-.33-13.56 3.55-27.54 12.24-38.13M304.19 420.14c13.9-5.57 30.1-5.51 43.77.73 21.23 8.93 35.17 31.32 35.58 54.11.03 3.85.18 7.82-1.21 11.49-30.15.02-60.3-.15-90.44.08 2.52 7.75 7.12 15 14.04 19.52 9.49 6.85 22.69 8.19 33.27 3.1 5.23-1.78 8.69-7.83 14.72-6.96 7.98.08 15.96-.09 23.93.21-6.12 12.41-16.11 23.1-28.9 28.71-16.22 7.66-36.13 6.75-51.67-2.18-11.24-6.55-20.41-16.76-25.34-28.84-6.46-15.39-6.29-33.45.38-48.75 6.21-13.89 17.7-25.49 31.87-31.22m7.07 23.24c-9.43 4.09-16.54 12.83-19.21 22.69 3.31.23 6.63.25 9.95.21 18.92-.21 37.86.21 56.77-.2-3.52-12.27-13.8-22.44-26.36-25.16-7.08-1.3-14.63-.73-21.15 2.46M380.23 418.46c9.49-.12 18.98-.05 28.48.01 2.93 20.61 6.77 41.08 11.5 61.35 2.64 9.94 4.94 20.03 8.87 29.56 3.27-6.96 5.2-14.43 7.37-21.78 6.11-22.74 10.94-45.83 14.16-69.15 7.94-.06 15.89-.1 23.83.07 3.83 24.54 8.75 48.93 15.63 72.8 1.79 6.08 3.65 12.15 5.99 18.05 6.69-17.94 10.48-36.79 14.42-55.48 2.47-11.71 4.26-23.56 6.09-35.39 9.36-.19 18.71-.03 28.07-.14.29 4.45-.71 8.83-1.38 13.21a667 667 0 0 1-16.31 68.33c-3.62 11.27-7.05 22.65-11.79 33.5-11.81.04-23.61-.01-35.41.03-7.97-17.68-12.82-36.62-17.14-55.47-4.18 18.83-9.56 37.4-16.61 55.36-11.99.18-23.99.09-35.99.05-11.67-26.93-19.3-55.43-25.47-84.08-1.63-10.24-4.22-20.41-4.31-30.83M564.14 421.21c9.82-3.68 20.5-4.01 30.86-3.47 7.87.69 15.86 1.41 23.4 3.97.22.34.67 1.02.89 1.35.25 6.88.07 13.77.02 20.65-13.15-2.36-26.54-4.42-39.92-2.98-3.73.61-7.97 3.2-8.09 7.39-.15 2.9-.42 6.44 2.01 8.56 3.54 3.49 8.73 4.02 13.25 5.5 10.7 3.1 22.88 4.83 30.82 13.43 5.96 6.24 7.62 15.08 7.94 23.4-.42 6.85-1.47 13.98-5.62 19.67-6.7 10.09-19.32 13.55-30.72 14.66-15.09 1.08-30.32-.51-44.83-4.85-.74-7.37-.27-14.79-.26-22.18 9.94 1.95 19.85 4.67 30.07 4.42 6.05-.29 12.57 1.02 18.24-1.68 7.4-3.56 7.69-15.82.13-19.43-9.73-4.49-20.66-5.5-30.63-9.34-7.47-3.08-13.48-9.4-15.92-17.14-2.92-9.2-3.02-19.86 1.84-28.45 3.44-6.46 9.7-11.08 16.52-13.48M658.4 485.71c5.36-.75 11.17-.79 16.08 1.79 7.95 3.94 13.85 12.45 13.32 21.5 1.09 13-10.93 24.92-23.78 24.62-12.74.46-24.17-10.96-24.28-23.6-.52-11.18 7.71-21.94 18.66-24.31"/></g></svg>