<svg xmlns="http://www.w3.org/2000/svg" xmlns:xlink="http://www.w3.org/1999/xlink" viewBox="0 0 1015.27 354.9"><defs><linearGradient id="a" x1="350.56" x2="796.26" y1="214.33" y2="214.33" gradientUnits="userSpaceOnUse"><stop offset="0" stop-color="#004cffff"/><stop offset="1" stop-color="#000f55"/></linearGradient><linearGradient xlink:href="#a" id="c" x1="503.05" x2="861.39" y1="214.08" y2="214.08"/><linearGradient xlink:href="#a" id="d" x1="675.23" x2="986.99" y1="111.42" y2="111.42"/><linearGradient xlink:href="#a" id="e" x1="649.45" x2="882.49" y1="239.66" y2="239.66"/><linearGradient id="b" x1="799.28" x2="799.28" y1="3.37" y2="350.74" gradientUnits="userSpaceOnUse"><stop offset=".01" stop-color="#eb0000"/><stop offset=".99" stop-color="#cd0000"/></linearGradient><linearGradient xlink:href="#b" id="f" x1="982.17" x2="982.17" y1="3.53" y2="350.83"/></defs><path d="M254.27 302.56c-18.35 13.73-42.86 20.59-70.31 20.59C123.18 323.15 80 277.07 80 214.33v-1c0-58.33 43.63-106.86 98.53-106.86 39.7 0 63.23 12.75 89.7 34.81L315.81 84C280 53.56 242.78 36.89 181 36.89c-103.9 0-179.87 79.9-179.87 177.44v1c0 101.47 73.52 176.46 180.38 176.46 62.74 0 111.27-24.51 147.21-54.41V206.55h-74.49Z" style="fill:url(#a)" transform="translate(-1.13 -36.89)"/><path d="M582.92 206.14c24.81-13.89 45.65-35.72 45.65-74.91v-1c0-54.57-43.66-89.8-114.61-89.8H359.62v347.3h158.31c78.39 0 130-31.75 130-95.26v-1c-.01-46.63-24.82-69.94-65.01-85.33M434 107.41h68.51c32.25 0 50.11 12.9 50.11 35.72v1c0 25.8-21.34 36.71-55.08 36.71H434Zm138 175.64c0 25.8-20.34 37.7-54.08 37.7H434v-76.4h81.41c39.19 0 56.56 14.39 56.56 37.7Z" style="fill:url(#c)" transform="translate(-1.13 -36.89)"/><path d="m708.18 3.69 164.45 215.46V3.69z" style="fill:url(#d)"/><path d="M715.42 350.81h104.83L715.42 128.5z" style="fill:url(#e)"/><path d="M820.25 350.82h20.96L715.42 128.5z" style="fill:#fff"/><path d="m715.42 128.5 125.79 222.31h41.93z" style="fill:url(#b)"/><path d="M949.07 3.53h66.2v347.3h-66.2z" style="fill:url(#f)"/></svg>