<svg xmlns="http://www.w3.org/2000/svg" width="25" height="18" fill="none" viewBox="0 0 25 18"><path fill="#fff" d="M22.608 6.934c1.23-.57 1.908-1.594 1.27-2.975-.684-1.479-1.8-1.725-3.154-1.099l-.23.106 1.884 4.074zM7.072 9.435 4.61 11.946c-.53-.399-1.188-.434-1.784-.157-1.326.614-1.515 2.124-.929 3.393.536 1.158 1.744 1.92 2.949 1.363.581-.269 1.197-.893 1.076-1.615l-1.679.776-1.148-2.483 4.305-1.992a6 6 0 0 1-.327-1.796M20.126 11.909l-.681-1.474c-.394 1.835-1.729 3.374-3.635 4.255-2.037.943-4.225.904-5.931-.18-.025.36-.09.732-.211 1.126a6 6 0 0 1-1.265 2.223h16.352v-8.09zM7.099 8.75c.206-2.11 1.594-3.945 3.69-4.915 1.9-.879 3.964-.852 5.63.059L15.26 1.389 18.261 0H0v9.336q.554-.392 1.206-.695C2.853 7.88 5.433 7.636 7.1 8.75M14.17 11.146c1-.462 1.361-1.519.867-2.587-.46-.994-1.496-1.525-2.545-1.039-1.048.484-1.315 1.617-.855 2.611.494 1.069 1.533 1.478 2.533 1.015"/></svg>