<svg xmlns="http://www.w3.org/2000/svg" xml:space="preserve" baseProfile="tiny" viewBox="0 0 200 72.62"><path fill="#ed1a3b" d="M8.943 39.658c.003-7.402 6-13.418 13.406-13.418 7.396 0 13.404 6.016 13.404 13.418v31.84h8.932v-31.84c0-12.354-10.002-22.355-22.336-22.355a22.2 22.2 0 0 0-13.406 4.482V0H0v71.498h8.943zM200 71.498c-12.336 0-22.346-10.012-22.346-22.361v-22.32h-4.472V17.87h4.472V0h8.935v17.869H200v8.947h-13.411v22.32c0 7.412 6.014 13.422 13.411 13.422zM128.492 17.303c-9.869 0-17.878 8.002-17.878 17.883v.561c-8.534.006-15.669 5.998-17.447 13.98-2.207 8.059-9.569 13.947-18.31 13.947-5.048 0-9.646-1.99-13.043-5.186l38.603-25.08C96.088 23.59 86.272 16.75 74.857 16.75c-15.428 0-27.928 12.514-27.928 27.932s12.5 27.941 27.928 27.941c8.244 0 15.66-3.574 20.767-9.248a17.91 17.91 0 0 0 14.99 8.123h35.754V35.186c-.014-9.881-7.998-17.883-17.876-17.883M55.864 44.682c0-10.486 8.501-18.988 18.993-18.988a18.87 18.87 0 0 1 13.051 5.191c-.015 0-19.598 12.701-30.982 20.104a19.1 19.1 0 0 1-1.062-6.307m81.56 17.877h-26.81c-4.924-.008-8.939-4.004-8.939-8.934 0-4.928 3.999-8.926 8.939-8.943h8.937v-9.496c0-4.943 4.008-8.945 8.941-8.945 4.929 0 8.925 4.002 8.932 8.945zM170.943 17.869a22.27 22.27 0 0 0-13.406 4.469v-4.469h-8.935v53.629h8.935V40.217c.007-7.408 6.009-13.4 13.406-13.4z"/></svg>