<svg xmlns="http://www.w3.org/2000/svg" viewBox="16 12.14 1170.22 590.47"><g style="fill:#22adc3;fill-stroke:none"><path d="M16 280.424h99v322.098H16zM205 280.424h110v322.098H205z"/><path d="M102 395.75h115v79H102zM626.257 328.778c-76.253-83.781-297.222-56.715-297.92 109.525-.814 193.681 235.083 190.664 310.399 120.544v-141.94h-148.18v69.41h49.913v22.617c-23.416 14.11-106.23 17.016-103.727-70.631 2.015-70.518 78.904-84.167 133.363-42.454ZM639.516 284.324h311.959l62.391 172.357 59.273-171.578h113.085L1062.22 601.742h-99.047l-90.468-233.19h-52.253v232.41h-94.368v-232.41h-87.348z"/><path d="M17.158 260.927h773.658L403.986 12.139Z"/></g></svg>