<svg xmlns="http://www.w3.org/2000/svg" style="background:#fff" viewBox="237 148 1029 961.5"><path fill="#ce2126" fill-rule="evenodd" d="M237 628.5V1109h135V957h-62V221h879v736h-58.93l.376 35.25c.207 19.387.417 53.588.465 76L1131 1109h135V898.666c0-115.683-.3-331.908-.666-480.5L1264.668 148H237zm84-40V947h61.988l.256 81.25.256 81.25h736l.256-81.25.256-81.25H1179V230H321zm160.244-98.75.256 74.75 16.25.275 16.25.275V415h-33.013zm50.756.275v75.025l16.036-.275 16.035-.275-.052-52.75c-.029-29.012.318-52.75.771-52.75s15.423 23.851 33.267 53.002l32.443 53.001 21.5-.251 21.5-.252v-149l-16.25-.275-16.25-.275-.032 52.275c-.028 46.881-.188 52.069-1.544 50.275-.832-1.1-15.331-24.608-32.219-52.239l-30.705-50.24-22.25-.01L532 415zm159.244-.275.256 74.75 33.5-.042c23.159-.028 35.352-.434 39.5-1.314 41.725-8.849 64.563-34.732 64.565-73.172.002-31.781-12.212-52.529-38.249-64.976-16.954-8.105-30.261-9.989-70.572-9.993L690.987 415zM839 490v75h33V415h-33zm67.5-.912c-17.6 40.743-32.153 74.501-32.341 75.018-.207.571 6.818.833 17.897.667l18.238-.273 6.103-15.75L922.5 533l29.329.25 29.33.25 6.277 15.5 6.276 15.5 18.76.272c14.886.217 18.645.01 18.206-1-3.287-7.566-57.82-132.611-60.846-139.522l-4.05-9.25-13.641.005-13.641.005zm-181.75-43.539c-.413.431-.75 20.509-.75 44.618V534l14.75-.017c22.66-.027 34.342-3.312 44.042-12.385 9.014-8.432 12.763-19.618 11.986-35.758-.405-8.414-.913-10.673-3.655-16.241-5.38-10.929-15.132-18.212-29.623-22.125-6.482-1.749-35.466-3.268-36.75-1.925M950.394 460.5c-.424 1.1-4.459 11.45-8.968 23l-8.196 21 8.833.287c4.858.158 13.044.158 18.19 0l9.357-.287-9.223-23c-7.029-17.529-9.405-22.524-9.993-21M563.539 586.112c-17.184 2.504-34.574 10.178-47.569 20.993-30.881 25.699-39.901 77.096-20.429 116.395 15.861 32.01 49.829 50.024 90.897 48.205 39.512-1.749 70.288-21.515 83.541-53.654 9.946-24.119 10.018-54.939.184-78.687-5.674-13.701-13.874-24.698-25.053-33.599-12.679-10.095-29.862-17.372-46.474-19.683-8.973-1.248-26.426-1.233-35.097.03M354 606.5V624h51v144h39V624h51v-35H354zm330.506-16.368c-.287.752-.406 40.968-.264 89.368l.258 88 38.5-.043c31.514-.036 40.136-.346 47.516-1.71 52.587-9.718 82.992-48.003 77.586-97.698-1.525-14.014-3.395-20.83-8.792-32.049-3.939-8.186-5.833-10.745-13.691-18.5-14.926-14.731-28.987-21.407-55.119-26.172-11.682-2.13-85.247-3.153-85.994-1.196m227.21 4.618c-1.407 3.163-17.7 40.85-36.207 83.75s-34.743 80.417-36.079 83.371c-1.337 2.954-2.43 5.55-2.43 5.769s9.737.278 21.638.13l21.639-.27 7.25-18.5 7.251-18.5 34.892-.263 34.893-.262 7.595 18.762 7.595 18.763 22.238.269c17.658.214 22.132.008 21.724-1-2.076-5.124-75.807-174.072-76.676-175.696-1.051-1.963-1.948-2.073-16.938-2.073h-15.828zM976 589.451c0 .268 13.351 20.863 29.669 45.768s31.393 47.938 33.5 51.186l3.831 5.905v75.733l19.25-.271 19.25-.272.262-38.172.262-38.173 32.546-49.647c17.9-27.305 32.793-50.29 33.095-51.077.466-1.216-2.893-1.431-22.314-1.431h-22.863l-20.132 33.573-20.132 33.573-13.766-24.323c-7.572-13.378-16.084-28.373-18.916-33.323l-5.148-9-24.197-.268c-13.308-.147-24.197-.049-24.197.219m-406.5 32.505c-6.468 1.405-14.87 4.854-19.836 8.143-28.005 18.55-31.846 66.155-7.291 90.376 7.362 7.261 13.867 10.901 24.212 13.547 30.486 7.797 59.161-8.016 68.044-37.522 2.722-9.043 2.543-27.737-.355-37-5.447-17.408-16.46-29.14-33.095-35.255-7.363-2.706-24.164-3.92-31.679-2.289m154.167 3.711c-.367.366-.667 24.267-.667 53.113v52.447l20.75-.468c17.931-.404 21.701-.772 27.75-2.711 15.24-4.885 26.015-13.419 31.198-24.713 5.134-11.185 6.61-26.687 3.743-39.294-1.603-7.05-6.526-16.389-11.258-21.358-8.021-8.424-23.277-14.861-39.394-16.622-10.799-1.18-31.087-1.429-32.122-.394m194.559 43.108c-5.651 14.699-10.264 27.062-10.25 27.475s9.747.75 21.631.75c17.769 0 21.515-.241 21.087-1.355-6.93-18.06-21.324-53.634-21.694-53.617-.275.012-5.123 12.049-10.774 26.747"/></svg>