<svg xmlns="http://www.w3.org/2000/svg" xml:space="preserve" id="Logo" x="0" y="0" viewBox="5.14 6.21 257.76 94.94"><style>.st10{fill:#1ccbd4}</style><path d="M257.69 6.21h-6.63c-3.95 0-5.5.42-8.61 4.66l-2.54 3.53c-3.25 4.51-7.9 7.48-15.1 9.17l-17.35 4.23c-.99.28-1.41.99-1.41 1.97v10.44c0 .99.71 1.83 1.69 1.83l30.33 1.41v52.2c0 3.53 1.98 5.5 5.5 5.5h13.83c3.53 0 5.5-1.98 5.5-5.5V11.43c.01-3.38-1.82-5.22-5.21-5.22M17.7 31.19c7.76 0 12.56-5.5 12.56-12.56 0-6.91-4.8-12.42-12.56-12.42S5.14 11.72 5.14 18.63c0 7.05 4.8 12.56 12.56 12.56M192.65 42.05c-1.27-.42-4.94-1.41-6.77-1.98-2.96-.99-4.09-1.27-4.66-1.27-1.27 0-1.98.71-2.4 2.12-4.23 13.97-10.58 29.77-16.37 39.65-1.83-3.67-5.36-9.88-8.47-15.52-5.08-8.61-10.02-17.35-12.42-21.45-2.54-4.09-4.23-5.08-7.48-5.08-6.77 0-16.79 6.07-16.79 11.71 0 1.98.56 3.39 2.54 6.77 2.26 3.81 3.39 7.05 3.39 10.86 0 9.59-7.2 18.34-21.02 18.34-6.63 0-11.71-1.83-14.96-5.22-3.25-3.25-4.8-7.62-4.8-14.96V53.76c2.4.99 5.22 1.55 8.61 1.55h11.01c1.55 0 1.98-.56 1.98-1.98v-11.7c0-1.41-.42-1.98-1.98-1.98h-19.6V20.46c0-2.4-.56-3.95-1.83-5.08-1.98-1.83-5.78-2.68-10.44-2.68-4.8 0-8.61.85-10.58 2.68-1.27 1.13-1.83 2.68-1.83 5.08v46.98c0 7.76-1.27 11.99-4.09 14.96-2.4 2.68-6.21 4.09-10.44 4.09-4.09 0-7.62-1.41-9.88-3.67-2.26-2.4-3.25-5.64-3.25-10.58V41.63c0-1.41-.56-1.98-1.98-1.98H7.26c-1.41 0-1.98.56-1.98 1.98v27.65c0 11.01 2.96 17.35 7.9 22.29 6.49 6.49 17.5 9.45 27.94 9.45 10.58 0 21.45-3.81 27.94-9.74 6.35 5.78 17.92 9.74 30.62 9.74 16.79 0 29.06-7.05 36.26-18.77l7.9 11.99c3.39 4.94 6.35 6.77 13.26 6.77 6.35 0 10.3-1.55 13.69-6.91 9.17-13.97 17.07-30.62 22.72-45.85.56-1.83 1.13-3.25 1.13-4.09-.01-.98-.58-1.54-1.99-2.11" class="st10"/></svg>