<svg xmlns="http://www.w3.org/2000/svg" viewBox="0 0 1208.88 294.77"><g fill="#1ccbd4" stroke-width=".8"><path d="M38.983.094C14.725.094.005 17.31.005 38.672L0 38.673l.002.092-.002.091.005.005C.09 59.744 14.247 77.62 38.983 77.62c12.325 0 22.031-4.36 28.725-11.408 6.656-7.008 10.266-16.674 10.309-27.353l.005-.003-.002-.09.002-.093-.005-.002c-.043-10.628-3.574-20.17-10.229-27.145C61.094 4.511 51.308.093 38.983.093zm162.86 20.148c-14.606 0-26.515 2.57-32.637 8.157-4.433 4.042-5.85 8.726-5.85 17.373v145.41c0 12.345-1.107 21.297-3.3 28.666-2.117 7.113-5.254 12.378-9.377 16.705-7.045 7.797-18.438 12.668-32.243 12.668-12.703 0-23.823-4.324-30.921-11.568-3.624-3.954-6.136-8.442-7.723-13.92-1.513-5.221-2.186-11.02-2.186-18.433v-95.406c0-2.085-.474-3.601-1.453-4.6s-2.453-1.468-4.757-1.468H6.746c-2.28 0-3.893.453-4.853 1.448S.48 107.79.48 109.92v85.77c0 15.273 1.753 29.098 6.312 41.305 4.135 11.07 10.578 20.944 20.116 29.859 4.073 3.752 8.774 7.282 14.186 10.42 19.772 11.565 45.191 17.015 70.741 17.015 22.636 0 45.207-5.514 63.983-14.948 8.585-4.314 16.274-9.447 22.57-15.248 9.565 8.611 21.76 15.329 35.911 20.386 17.486 6.249 37.872 9.825 58.854 9.825 28.314 0 52.27-6.339 71.788-17.756 17.102-10.004 30.617-23.586 41.019-40.479 7.245 11.086 15.257 23.163 24.555 37.29 5.193 7.677 10.287 12.93 16.51 16.216 6.488 3.427 13.929 4.634 24.503 4.634 11.114 0 20.765-1.181 29.688-7.242 5.547-3.97 8.768-7.79 12.936-14.171 17.143-26.032 33.307-56.106 46.782-85.317 8.72-18.903 17.012-38.852 23.427-56.24 1.232-3.807 2.268-6.724 3.307-10.508.64-2.82.656-4.805-.822-6.412-1.249-1.342-2.519-2.016-4.902-3.039l-1.708-.502-18-5.174c-8.369-2.842-13.562-4.345-15.592-4.345-1.898 0-3.698.49-4.859 1.575s-2.09 2.695-2.748 4.883c-6.4 21.178-13.054 39.47-19.002 54.807a647 647 0 0 1-11.488 27.73c-6.63 15.003-12.841 27.6-20.298 40.559-5.817-11.266-9.774-18.37-17.442-32.158a3924 3924 0 0 0-7.283-13.11c-1.422-2.723-3.763-6.643-5.98-10.361-5.102-8.794-5.791-9.887-15.51-26.722-6.609-11.365-10.779-19-18.63-32.321v.003c-3.869-6.318-7.165-10.198-10.712-12.626s-7.967-3.187-12.517-3.187c-9.964 0-23.169 4.471-33.572 11.385-3.655 2.374-7.028 5.07-9.867 7.952-5.475 5.558-8.661 11.273-8.661 16.994 0 6.286 1.878 10.92 7.827 20.937 7.03 12.01 10.574 21.833 10.574 33.81 0 12.001-3.62 23.55-10.768 33.071-4.598 6.125-10.456 11.234-17.483 15.13-9.826 5.447-21.954 8.692-37.268 8.692-21.644 0-37.063-6.5-46.529-16.59-8.952-9.196-14.445-22.08-14.445-44.696v-39.34l.147.063c7.153 3.02 16.123 4.756 26.655 4.756h33.903c2.307 0 3.96-.388 4.953-1.386.993-.999 1.315-2.6 1.315-4.686v-36.517c0-2.087-.322-3.683-1.315-4.682s-2.646-1.386-4.953-1.386H239.99V45.614c0-9.244-1.541-13.256-5.832-17.214-6.126-5.587-17.806-8.158-32.315-8.158zM763.41 0c-13.029 0-17.066 2.137-24.708 11.569-2.588 3.216-4.819 6.583-7.088 9.675-4.24 5.922-7.07 10.183-14.058 16.151-2.74 2.332-6.569 4.98-10.815 7.367-6.238 3.377-13.82 6.498-23.869 8.89l-54.38 13.28c-3.628.746-4.941 3.178-4.941 5.998v33.305c0 .976.793 2.845 1.79 3.73 1.685 1.345 2.73 1.24 4.598 1.378l92.932 4.31-.019 161.72c0 10.512 5.19 17.4 17.347 17.4h42.374c12.156 0 17.426-7.048 17.426-17.56l-.015-260.49C799.984 6.646 795.007 0 783.354 0zM913.66 1.561a20.994 20.994 0 0 0-21.039 21.041v251.08a20.994 20.994 0 0 0 21.039 21.041h274.18a20.994 20.994 0 0 0 21.039-21.04V22.602A20.994 20.994 0 0 0 1187.84 1.56zm193.82 62.387h45.975v168.23h-53.159v-107.76h-39.055v-36.43h39.147zM986.13 97.42l10.327.005c3.456.3 5.932 1.822 6.024 6.544l1.559 35.347 37.772 1.905c3.014.152 5.744-.038 5.744 5.105l-.086 12.327c-.062 2.585-1.33 4.246-4.622 4.328l-39.05 1.58v.057l-1.786 39.866c-.133 2.978-1.131 4.981-4.874 4.981l-12.727-.245c-2.08-.052-4.205-.561-4.421-4.297l-1.494-40.503-38.05-1.917c-3.014-.152-5.744.038-5.744-5.105l.086-12.327c.061-2.585 1.329-4.246 4.622-4.328l39.08-1.58 1.934-35.718c.088-2.412 1.153-5.55 5.706-6.023z"/></g></svg>