<svg xmlns="http://www.w3.org/2000/svg" viewBox="0 0 239 78.89"><path d="M201.129 0c3.656.004 8.203.422 10.953 1.016 1.742.375 4.125.957 5.254 1.324 1.133.367 3.305 1.242 4.73 1.941 1.43.703 3.52 2.028 4.704 2.957 1.18.93 2.863 2.59 3.699 3.582.836.989 2.078 2.895 2.758 4.278s1.398 3.425 1.652 4.55c.55 2.364.773 4.618.754 6.938-.024 2.855-.34 5.043-1.309 7.781-.402 1.102-1.215 2.797-1.8 3.77-.587.968-1.977 2.746-3.083 3.941-1.109 1.192-3.367 3.223-5.046 4.477a64 64 0 0 1-2.965 2.058l-.02.016.004.004c-.96.625-1.926 1.226-2.894 1.816-.047.024-.106.067-.153.094l-.004-.004-.02.012a143 143 0 0 1-8.097 4.515h-.004l-13.508 7.196a.33.33 0 0 0-.18.36c.024.136.145.257.356.26l40.406.81c.555.03 1.02.109 1.301.413.281.305.383.758.383 1.48v11.567c0 .555-.047.985-.336 1.297-.285.313-.746.446-1.531.446H166.28c-1.172 0-2.472-.38-3.226-1.141-.758-.758-1.215-1.902-1.215-3.387v-8.59c0-2.972 1.11-4.465 3.18-5.605l38.78-20.578v-.004c1.532-.88 2.505-1.438 3.716-2.262.988-.668 1.898-1.375 2.992-2.328 1.637-1.531 2.504-2.812 3.133-4.094.437-.898.914-2.476 1.035-3.703.07-.723.156-2.543-.063-3.93a10.3 10.3 0 0 0-1.187-3.464c-.465-.852-1.422-1.91-2.047-2.399-.621-.484-1.191-.89-2.047-1.324-.535-.27-1.676-.715-2.8-1.012-1.427-.37-3.536-.644-5.626-.652-2.097-.004-3.863.21-5.394.562-1.719.399-3.11.957-4.332 1.555-1.602.781-2.848 1.742-3.762 2.508-1.004.848-2.176 2.207-2.813 3.164-.75 1.121-1.222 1.855-2.05 3.863-.344.836-.606 1.899-.852 2.57-.262.704-.601 1.305-1.36 1.72-.308.16-.917.413-1.863.413h-11.472c-1.094 0-1.774.04-2.375-.054-.738-.078-1.184-.293-1.578-.614a2.44 2.44 0 0 1-.828-1.425c-.149-.88-.063-1.739.113-2.625.207-1.317.676-3.286 1.12-4.524.63-1.746 1.575-3.879 2.622-5.48 2.262-3.672 5.234-6.551 8.61-8.899h.003c1.961-1.3 4.16-2.535 6.383-3.457 3.414-1.43 5.547-1.965 8.598-2.633C192.832.43 196.762-.008 201.129 0M10.332.816C3.914.816.012 5.38.004 11.04H0v.074l.004.004c.012 2.766.953 5.336 2.71 7.211 1.763 1.879 4.34 3.067 7.618 3.067 3.262 0 5.836-1.157 7.61-3.028 1.761-1.86 2.718-4.422 2.734-7.246v-.082c-.016-2.812-.95-5.34-2.711-7.187C16.19 1.988 13.594.816 10.332.816m43.059 5.336c-3.864 0-7.016.676-8.645 2.164-1.176 1.075-1.555 2.329-1.555 4.621v38.508c0 3.27-.293 5.637-.87 7.586-.56 1.883-1.387 3.274-2.473 4.414-1.86 2.059-4.864 3.348-8.508 3.348-3.356 0-6.29-1.14-8.16-3.055-.957-1.047-1.617-2.23-2.035-3.675-.399-1.383-.579-2.915-.579-4.876V29.919c0-.555-.125-.965-.39-1.234-.266-.27-.664-.395-1.274-.395H1.81c-.61 0-1.043.117-1.301.39-.262.27-.383.68-.383 1.247V52.64c0 4.047.465 7.71 1.672 10.949 1.094 2.933 2.8 5.55 5.324 7.918a21.5 21.5 0 0 0 3.754 2.762c5.234 3.066 11.957 4.507 18.719 4.507 5.988 0 11.96-1.46 16.926-3.96 2.265-1.141 4.296-2.497 5.96-4.028 2.528 2.273 5.75 4.05 9.485 5.39 4.625 1.657 10.02 2.602 15.57 2.602 7.488 0 13.828-1.68 18.992-4.703 4.516-2.648 8.082-6.238 10.832-10.7 1.914 2.93 4.024 6.118 6.473 9.845 1.375 2.035 2.727 3.43 4.375 4.304 1.723.91 3.691 1.23 6.488 1.23 2.942 0 5.5-.312 7.868-1.921 1.468-1.055 2.32-2.07 3.425-3.762 4.532-6.894 8.809-14.86 12.371-22.597 2.305-5.008 4.496-10.29 6.196-14.895v-.004c.324-1.008.597-1.781.875-2.781v-.004c.086-.371.129-.695.101-.977a1.22 1.22 0 0 0-.324-.742c-.336-.36-.676-.539-1.305-.808l-.004-.004-.453-.133-4.757-1.367v-.004a54 54 0 0 0-2.692-.856q-1.029-.293-1.437-.293c-.504 0-.989.13-1.301.422-.313.293-.559.723-.735 1.305a198 198 0 0 1-5.023 14.512c-.969 2.5-1.969 4.93-3.035 7.343-1.746 3.957-3.383 7.286-5.348 10.704-1.523-2.961-2.57-4.844-4.59-8.48a663 663 0 0 0-1.925-3.47v-.004c-.375-.722-.997-1.757-1.582-2.742-1.348-2.328-1.532-2.62-4.102-7.078-1.746-3.008-2.848-5.031-4.926-8.559l-.043-.078v.016c-1.004-1.633-1.867-2.652-2.793-3.29-.945-.648-2.117-.847-3.324-.847-2.64 0-6.137 1.184-8.89 3.02a15.6 15.6 0 0 0-2.614 2.11c-1.45 1.472-2.297 2.991-2.297 4.515 0 1.668.5 2.902 2.074 5.558 1.856 3.176 2.793 5.774 2.793 8.942 0 3.172-.957 6.226-2.843 8.742a14.5 14.5 0 0 1-4.614 4c-2.593 1.441-5.796 2.3-9.843 2.3-5.72 0-9.785-1.718-12.285-4.386-2.364-2.43-3.813-5.836-3.813-11.82V39.96l.004.004c1.898.8 4.273 1.262 7.059 1.262h8.964c.614 0 1.055-.106 1.325-.375.273-.274.355-.704.355-1.258v-9.672c0-.555-.082-.985-.355-1.258-.27-.27-.711-.375-1.325-.375H63.5V12.895c0-1.227-.102-2.106-.344-2.813-.246-.707-.636-1.238-1.203-1.766-1.629-1.484-4.723-2.164-8.562-2.164m0 0" style="stroke:none;fill-rule:nonzero;fill:#dd40dd;fill-opacity:1"/></svg>