<svg xmlns="http://www.w3.org/2000/svg" xml:space="preserve" id="Logo" x="0" y="0" viewBox="5.14 6.25 300.95 94.95"><style>.st7{fill:#10eb82}</style><path d="M17.7 6.25c7.76 0 12.56 5.5 12.56 12.42 0 7.05-4.8 12.56-12.56 12.56S5.14 25.72 5.14 18.67c0-6.92 4.8-12.42 12.56-12.42m-4.52 85.36c-4.94-4.94-7.9-11.29-7.9-22.29V41.66c0-1.41.56-1.98 1.98-1.98h20.88c1.41 0 1.98.56 1.98 1.98v30.62c0 4.94.99 8.18 3.25 10.58 2.26 2.26 5.78 3.67 9.88 3.67 4.23 0 8.04-1.41 10.44-4.09 2.82-2.96 4.09-7.2 4.09-14.96V20.5c0-2.4.56-3.95 1.83-5.08 1.98-1.83 5.78-2.68 10.58-2.68 4.66 0 8.47.85 10.44 2.68 1.27 1.13 1.83 2.68 1.83 5.08v19.19h19.61c1.55 0 1.98.56 1.98 1.98v11.71c0 1.41-.42 1.98-1.98 1.98H91.06c-3.39 0-6.21-.56-8.61-1.55v12.28c0 7.34 1.55 11.71 4.8 14.96 3.25 3.39 8.32 5.22 14.96 5.22 13.83 0 21.02-8.75 21.02-18.34 0-3.81-1.13-7.05-3.39-10.86-1.98-3.39-2.54-4.8-2.54-6.77 0-5.64 10.02-11.71 16.79-11.71 3.25 0 4.94.99 7.48 5.08 2.4 4.09 7.34 12.84 12.42 21.45 3.1 5.64 6.63 11.85 8.47 15.52 5.78-9.88 12.13-25.68 16.37-39.65.42-1.41 1.13-2.12 2.4-2.12.56 0 1.69.28 4.66 1.27 1.83.57 5.5 1.55 6.77 1.98 1.41.57 1.98 1.13 1.98 2.12 0 .85-.56 2.26-1.13 4.09-5.64 15.24-13.54 31.89-22.72 45.85-3.39 5.36-7.34 6.91-13.69 6.91-6.91 0-9.88-1.83-13.26-6.77l-7.9-11.99c-7.2 11.71-19.47 18.77-36.26 18.77-12.7 0-24.27-3.95-30.62-9.74-6.49 5.93-17.35 9.74-27.94 9.74-10.44-.04-21.45-3-27.94-9.49M264.32 95.7V80.75h-57.71c-2.68 0-4.23-1.55-4.23-4.23V64.66c0-2.12.71-3.81 2.26-5.22l51.5-49.52c1.98-1.98 3.95-2.68 6.77-2.68h20.74c3.53 0 5.5 1.98 5.5 5.5v50.09l14.96.28c1.13 0 1.98.85 1.98 1.98v13.69c0 1.13-.85 1.97-1.98 1.97h-14.96V95.7c0 3.53-1.98 5.5-5.5 5.5h-13.83c-3.52.01-5.5-1.97-5.5-5.5m0-33.29V27.27h-1.98l-34.99 33.58v.85z" class="st7"/></svg>