<svg xmlns="http://www.w3.org/2000/svg" xml:space="preserve" viewBox="0 0 1000 190.46"><path fill="#f7c550" d="M492.11 4.323q-5.79.246-11.688 1.153c-11.993 1.842-26.543 6.317-39.94 15.101-11.31 7.416-22.442 18.671-29.909 33.49-8.279 16.433-10.598 35.409-8.297 53.46 2.155 16.902 8.172 32.617 17.734 45.62s22.671 23.293 39.005 29.329h.002q22.477 8.058 48.468 4.158c15.137-2.27 26.85-5.95 38.928-17.265l21.656 19.978a4.19 4.19 0 0 0 5.983-.308l20.93-23.715a3.956 3.956 0 0 0-.603-5.785L572.66 143.36c5.804-8.305 10.18-18.66 12.329-29.039v-.002c.772-3.461 1.14-7.173 1.408-10.517.545-6.78.254-13.227-.929-21.113-3.702-24.687-14.052-41.503-25.343-52.81-9.357-9.37-21.092-16.737-34.551-21.098-10.662-3.455-21.885-4.948-33.463-4.459m-1.98 30.14c4.576.032 9.05 1.168 14.092 3.327 7.17 3.488 13.595 8.997 18.876 17.325 5.286 8.334 9.255 18.568 11.79 30.36.696 3.237 4.105 18.597.402 29.538l-18.196-12.495a3.323 3.323 0 0 0-4.395.568l-12.843 14.899a4.25 4.25 0 0 0 .193 5.754l24.398 24.703c-5.79 5.672-10.637 7.77-16.575 9.361-9.572 2.567-18.16 1.047-25.465-3.127s-13.321-11.01-17.714-19.077c-3.723-6.838-7.149-15.676-9.844-28.215-2.607-12.13-2.962-25.266-1.817-34.019.536-4.096 1.698-10.165 4.198-16.107 2.142-5.09 5.495-10.105 10.058-14.133 3.722-3.286 8.536-5.953 14.343-7.51 2.969-.796 5.752-1.173 8.498-1.153M633.28 11.725c-5.422-.162-10.38.41-13.494 1.73-2.735 1.159-4.515 2.295-5.72 4.04s-1.83 4.077-2.3 7.613l-12.248 89.676c-.537 3.958-1.016 9.116-.827 13.606.607 14.373 7.06 26.179 16.75 35.84 3.687 3.675 7.876 7.012 12.372 9.97l.002.002c10.302 6.608 21.745 10.757 36.634 12.7 15.047 1.964 27.866.772 39.364-2.991h.002l.002-.002c13.427-4.885 22.678-11.712 28.273-18.062 10.641-12.076 12.186-22.98 13.45-32.348l11.821-87.674v-.002c.614-5.595.255-9.134-2.491-12.244-4.102-4.645-11.535-7.207-18.97-8.188-7.436-.982-14.869-.385-19.018 1.373-2.74 1.161-4.613 2.508-5.91 4.457-1.297 1.95-2.015 4.487-2.486 8.026l-13.116 98.479c-1.239 9.297-5.488 15.227-11.075 18.957-4.874 3.255-10.883 4.68-16.618 3.93-6.884-.898-11.873-3.906-15.35-8.088-2.032-2.443-3.343-4.632-4.197-6.81l-.002-.003-.002-.004c-1.813-4.03-1.86-9.165-1.377-13.078.294-2.388.541-4.003.718-5.31l12.798-94.673v-.002c.306-2.791.522-4.897.242-6.791s-1.064-3.566-2.73-5.452c-5.127-5.806-15.457-8.408-24.497-8.677M818.852 62.037a4 4 0 0 0-.498.038l-40.544 5.548a3.79 3.79 0 0 0-3.241 4.276l15.769 112.958a3.81 3.81 0 0 0 4.29 3.247l40.55-5.549a3.793 3.793 0 0 0 3.238-4.28l-15.77-112.952v-.001a3.81 3.81 0 0 0-3.792-3.285ZM792.833 2.443c-6.52.044-13.043 2.432-17.748 7.137-4.459 4.459-6.931 10.443-6.931 17.27 0 6.828 2.652 13.547 7.115 18.01 8.723 8.723 25.43 9.5 35.299-.369 4.458-4.459 7.06-10.625 7.06-17.454 0-6.828-2.6-13.181-7.06-17.641-4.695-4.696-11.215-6.997-17.735-6.953M957.043 0a18 18 0 0 0-3.29.297L836.18 21.728a3.69 3.69 0 0 0-2.979 4.213l4.696 29.518a4.077 4.077 0 0 0 4.636 3.382l73.958-11.257-57.39 101.796c-2.863 5.09-3.952 11.625-2.842 17.36l2.085 10.766c.752 3.885 2.304 6.6 5.396 8.587 1.393.895 3.613 1.358 5.776 1.56 2.164.202 4.263.137 5.415-.069l121.778-21.739h.001c2.172-.39 3.606-2.468 3.228-4.641l-5.2-29.977c-.333-1.918-2.159-3.207-4.082-2.904l-79.227 12.461L969.9 36.867c1.573-2.789 2.838-6.339 3.068-9.502.142-1.963.117-3.096-.125-4.76-.244-1.663-.703-3.859-1.43-7.985-1.149-6.516-2.272-8.354-5.65-11.538C963.514.96 960.33.009 957.043 0M24.657 2.325C9.339 2.325.027 13.198.007 26.684L0 26.686v.041l.001.058-.001.058v.023l.006.006c.032 6.591 2.28 12.71 6.477 17.183 4.202 4.48 10.356 7.306 18.174 7.306 7.79 0 13.932-2.757 18.167-7.217 4.204-4.426 6.483-10.529 6.518-17.267l.007-.004v-.03l-.002-.058.002-.058v-.04l-.007-.003c-.037-6.702-2.266-12.724-6.468-17.127-4.235-4.439-10.426-7.232-18.217-7.232m102.769 12.714c-9.224 0-16.75 1.618-20.633 5.163-2.81 2.56-3.71 5.542-3.71 11.005v91.76c0 7.786-.7 13.429-2.081 18.072-1.334 4.481-3.307 7.794-5.903 10.518l-.001.001c-4.433 4.906-11.607 7.976-20.306 7.976-8.002 0-15.003-2.724-19.47-7.281v-.001c-2.28-2.489-3.86-5.312-4.86-8.762-.953-3.287-1.378-6.94-1.378-11.615V71.671c0-1.325-.3-2.299-.932-2.943s-1.581-.944-3.043-.944H4.313c-1.447 0-2.482.288-3.104.932-.62.642-.908 1.62-.908 2.971v54.125c0 9.642 1.107 18.373 3.987 26.085 2.612 6.994 6.684 13.233 12.709 18.864a50.8 50.8 0 0 0 8.961 6.583c12.489 7.304 28.538 10.744 44.67 10.744 14.293 0 28.544-3.48 40.4-9.438 5.407-2.716 10.248-5.949 14.22-9.6 6.037 5.424 13.723 9.658 22.64 12.845 11.04 3.946 23.912 6.203 37.159 6.203 17.875 0 33.003-4.001 45.329-11.212 10.774-6.302 19.292-14.858 25.855-25.49 4.561 6.978 9.6 14.573 15.449 23.46 3.28 4.849 6.501 8.172 10.44 10.252 4.104 2.168 8.81 2.93 15.487 2.93 7.017 0 13.123-.746 18.767-4.58h.001c3.506-2.51 5.546-4.928 8.178-8.957 10.82-16.43 21.02-35.41 29.525-53.846 5.503-11.93 10.736-24.52 14.785-35.495l.002-.002c.777-2.401 1.43-4.243 2.086-6.633v-.001l.001-.001c.204-.892.309-1.656.244-2.328-.065-.673-.302-1.255-.776-1.77-.796-.854-1.607-1.285-3.113-1.93l-.003-.003-1.081-.318-11.356-3.264h-.003c-2.64-.897-4.78-1.583-6.42-2.044-1.642-.462-2.78-.7-3.434-.7-1.208 0-2.358.31-3.106 1.009-.742.693-1.332 1.718-1.75 3.105-4.037 13.363-8.236 24.905-11.99 34.582a408 408 0 0 1-7.248 17.497c-4.167 9.43-8.075 17.354-12.756 25.498-3.643-7.053-6.14-11.54-10.957-20.202a2466 2466 0 0 0-4.595-8.27v-.003c-.9-1.72-2.377-4.193-3.776-6.538v-.002c-3.218-5.548-3.654-6.238-9.787-16.861v-.001c-4.17-7.17-6.802-11.988-11.756-20.394v-.001l-.105-.18v.03c-2.396-3.883-4.457-6.32-6.67-7.835-2.251-1.541-5.054-2.02-7.932-2.02-6.305 0-14.642 2.824-21.216 7.193-2.31 1.5-4.442 3.204-6.237 5.026-3.46 3.513-5.481 7.132-5.481 10.763 0 3.978 1.191 6.918 4.947 13.24 4.433 7.575 6.665 13.761 6.665 21.307 0 7.562-2.282 14.838-6.784 20.836-2.897 3.859-6.587 7.077-11.014 9.531-6.192 3.433-13.834 5.479-23.49 5.479-13.647 0-23.359-4.098-29.32-10.452h-.001c-5.639-5.793-9.1-13.904-9.1-28.165v-24.74l.014.006c4.522 1.91 10.19 3.006 16.843 3.006h21.394c1.462 0 2.522-.245 3.166-.892.643-.647.846-1.675.846-2.997V71.677c0-1.322-.203-2.346-.846-2.993-.644-.648-1.704-.893-3.166-.893h-38.247V31.106c0-2.92-.243-5.018-.828-6.701-.585-1.684-1.512-2.95-2.87-4.203-3.886-3.544-11.269-5.163-20.431-5.163"/></svg>