<svg xmlns="http://www.w3.org/2000/svg" fill="none" viewBox="0 0 800 190"><path fill="#ced9dd" d="M.64 50.89h14.08v3.63c0 9.24 5.06 12.32 10.34 12.32s10.01-3.19 10.01-11.66V12.61H14.94V.4h34.32v55c0 17.05-12.32 24.42-24.42 24.42S.64 72.23.64 55.4zM90.4 21.08c16.17 0 24.86 11.77 24.86 26.62 0 1.65-.33 5.39-.33 5.39H76.21c.88 9.79 8.47 14.85 16.83 14.85 9.02 0 16.17-6.16 16.17-6.16l5.39 10.01s-8.58 8.03-22.55 8.03c-18.59 0-30.14-13.42-30.14-29.37 0-17.27 11.77-29.37 28.49-29.37m10.78 22.44c-.22-7.59-4.95-11.66-11.11-11.66-7.15 0-12.1 4.4-13.42 11.66zM120.65 22.4h14.74l9.79 36.85c.77 2.97 1.1 5.94 1.1 5.94h.22s.55-2.97 1.32-5.94l10.34-36.74h12.43l10.34 36.74c.77 2.97 1.21 5.94 1.21 5.94h.22s.44-2.97 1.21-5.94l9.79-36.85h14.52l-17.05 56.1h-15.51l-9.46-32.01c-.88-2.97-1.43-6.05-1.43-6.05h-.22s-.44 3.08-1.32 6.05l-9.46 32.01h-15.62zM241.65 21.08c16.17 0 24.86 11.77 24.86 26.62 0 1.65-.33 5.39-.33 5.39h-38.72c.88 9.79 8.47 14.85 16.83 14.85 9.02 0 16.17-6.16 16.17-6.16l5.39 10.01s-8.58 8.03-22.55 8.03c-18.59 0-30.14-13.42-30.14-29.37 0-17.27 11.77-29.37 28.49-29.37m10.78 22.44c-.22-7.59-4.95-11.66-11.11-11.66-7.15 0-12.1 4.4-13.42 11.66zM277.29.4h13.86v58.52c0 6.16 2.09 7.7 5.72 7.7 1.1 0 2.09-.11 2.09-.11v12.21s-2.09.33-4.4.33c-7.7 0-17.27-1.98-17.27-18.04zM308.53.4h13.86v58.52c0 6.16 2.09 7.7 5.72 7.7 1.1 0 2.09-.11 2.09-.11v12.21s-2.09.33-4.4.33c-7.7 0-17.27-1.98-17.27-18.04zM365.07 21.08c16.17 0 24.86 11.77 24.86 26.62 0 1.65-.33 5.39-.33 5.39h-38.72c.88 9.79 8.47 14.85 16.83 14.85 9.02 0 16.17-6.16 16.17-6.16l5.39 10.01s-8.58 8.03-22.55 8.03c-18.59 0-30.14-13.42-30.14-29.37 0-17.27 11.77-29.37 28.49-29.37m10.78 22.44c-.22-7.59-4.95-11.66-11.11-11.66-7.15 0-12.1 4.4-13.42 11.66zM401.48 22.4h13.42v9.68c0 2.09-.22 3.96-.22 3.96h.22c2.53-8.03 9.24-14.41 17.82-14.41 1.32 0 2.53.22 2.53.22V35.6s-1.43-.22-3.3-.22c-5.94 0-12.65 3.41-15.29 11.77-.88 2.75-1.21 5.83-1.21 9.13V78.5h-13.97zM444.15 87.52s3.08 2.31 6.27 2.31c3.85 0 7.59-2.31 9.68-7.26l2.09-4.95-23.65-55.22h15.73l11.77 32.34c1.1 2.97 2.09 7.59 2.09 7.59h.22s.88-4.4 1.87-7.37l11-32.56h15.29l-25.08 64.57c-3.96 10.23-11.77 14.63-20.24 14.63-6.71 0-11.66-3.63-11.66-3.63zM511.69 1.17h7.92l20.24 45.43c1.76 3.96 3.74 9.46 3.74 9.46h.22s2.09-5.5 3.85-9.46L567.9 1.17h7.81l6.16 77.33h-7.59l-4.29-54.12c-.33-4.18-.22-10.78-.22-10.78h-.22s-2.31 6.82-4.07 10.78l-18.15 39.71h-7.15l-18.15-39.71c-1.76-3.85-4.18-11-4.18-11h-.22s.11 6.82-.22 11l-4.29 54.12h-7.59zM629.06 44.29h3.08v-1.43c0-10.67-5.83-14.3-13.75-14.3-9.13 0-15.62 5.28-15.62 5.28l-3.52-5.72s7.26-6.27 19.69-6.27c13.31 0 20.68 7.37 20.68 21.23V78.5h-7.15v-6.05c0-2.75.22-4.62.22-4.62h-.22s-4.62 11.99-18.48 11.99c-9.24 0-18.81-5.39-18.81-16.39 0-18.7 24.31-19.14 33.88-19.14M615.2 73.44c10.56 0 16.94-11 16.94-20.57v-2.42h-3.19c-8.69 0-26.07.33-26.07 12.54 0 5.17 4.07 10.45 12.32 10.45M656.89 1.17h7.48v43.12h8.8l16.61-21.12h9.02l-19.25 24.09v.22l21.12 31.02h-8.91l-18.48-27.72h-8.91V78.5h-7.48zM734.66 21.85c15.29 0 23.1 11.77 23.1 25.52 0 1.32-.22 3.85-.22 3.85h-42.46c.33 14.19 10.01 21.89 21.45 21.89 10.12 0 16.83-6.71 16.83-6.71l3.41 5.72s-8.03 7.7-20.46 7.7c-16.5 0-28.93-11.88-28.93-28.93 0-18.15 12.32-29.04 27.28-29.04m15.51 23.21c-.44-11.55-7.48-16.94-15.73-16.94-9.24 0-17.27 5.83-19.03 16.94zM772.06 23.17h7.37v9.79c0 2.42-.22 4.4-.22 4.4h.22c2.64-8.36 8.8-14.74 17.49-14.74 1.54 0 2.97.33 2.97.33v7.37s-1.32-.22-2.75-.22c-7.81 0-13.64 6.16-16.06 14.3-1.1 3.52-1.54 7.26-1.54 10.78V78.5h-7.48z"/><path stroke="#ced9dd" stroke-linecap="round" stroke-linejoin="round" stroke-width="9" d="M465.34 149.69h230.4M102.34 149.69h230.4"/><mask id="a" width="81" height="81" x="358" y="109" maskUnits="userSpaceOnUse" style="mask-type:luminance"><path fill="#fff" d="M438.62 109.58h-80.23v80.23h80.23z"/></mask><g mask="url(#a)"><path fill="#ced9dd" d="M438.61 149.69c-30.08 5.54-34.57 10.03-40.11 40.11-5.54-30.08-10.03-34.57-40.11-40.11 30.08-5.54 34.57-10.03 40.11-40.11 5.54 30.08 10.03 34.57 40.11 40.11"/></g></svg>