<svg xmlns="http://www.w3.org/2000/svg" width="800" height="470" fill="none" viewBox="0 0 800 470"><path fill="#fff" fill-rule="evenodd" d="M661.774 108.354c-15.74-6.522 6.754-22.337 6.754-22.337 19.696-13.145 21.693-29.641-5.923-31.53-56.857-3.887-97.72 52.613-106.336 65.606-16.829-9.169-43.444-10.618-81.861 21.949-38.293 32.462-114.003 32.797-178.975 25.341 0 0-53.15-11.139-69.16 5.309-16.011 16.449-73.139 26.5-100.236 31.755C98.943 209.701 9.558 231.173 1.47 282.829c-10.146 64.797 35.558 148.525 35.558 148.525s25.106 58.268 91.661 29.951c72.803-30.978 110.537-42.73 152.495-51.328 41.957-8.594 82.338-35.459 123.321-73.909 52.071-48.86 124.493-52.479 144.491-54.927 18.323-2.242 50.773-11.361 56.587-46.92 5.831 10.737 13.322 20.997 22.882 28.502 32.511 25.533 54.328 10.782 47.077-12.308-7.246-23.091 14.46-7.131 14.46-7.131s45.586 33.763 69.638 11.252c24.051-22.51-19.367-52.736-32.658-64.695s30.484-10.269 30.484-10.269c15.667.252 25.808-4.151 28.673-15.033 9.696-36.815-111.611-50.9-124.365-56.185M740.323 3.182c-19.256 7.333-44.397 32.292-39.116 47.04s36.979 15.71 56.32 8.608c19.518-7.167 31.487-23.584 25.462-39.559-5.524-14.655-20.038-24.705-42.665-16.087z" clip-rule="evenodd"/><path fill="#fff" fill-rule="evenodd" d="M756.54 114.372c12.129.033 21.924-6.532 21.752-16.508-.157-9.15-6.155-17.599-20.275-17.47-12.017.11-30.727 8.685-30.72 17.835.005 9.15 17.228 16.11 29.243 16.143M799.545 215.232c1.602 4.933-1.098 10.229-6.031 11.832a9.39 9.39 0 0 1-11.833-6.028 9.39 9.39 0 0 1 6.03-11.832c4.933-1.603 10.231 1.095 11.834 6.028" clip-rule="evenodd"/><path fill="#e10613" fill-rule="evenodd" d="M719.148 175.879c-27.271 24.638-49.423 39.146-62.259 46.74-7.073 4.185-15.998 3.009-21.808-2.804-5.725-5.724-7.905-14.184-5.691-22.063l11.388-40.507c1.689-6.005-1.308-12.322-6.966-14.693-3.607-1.512-7.762.034-9.582 3.56l-31.711 64.667c-3.558 6.903-10.985 10.282-18.033 9.016.116.676.236 1.31.349 1.998 4.24 25.752-11.162 38.358-36.931 36.517-25.765-1.843-63.404 10.251-121.901 52.176-58.494 41.923-149.273 78.071-149.273 78.071s-129.964 50.449-156.634 53.841c-26.668 3.387-49.69-3.634-55.66-36.837-5.969-33.201-20.827-73.159-20.827-73.159-10.917-28.334-15.095-51.976 37.135-70.548 52.23-18.571 123.987-48.113 160.381-63.62 36.393-15.508 75.851-18.917 130.863-16.387 55.013 2.528 114.678-17.838 114.678-17.838s17.105-4.28 24.553-14.336c7.446-10.055 34.692-8.297 34.692-8.297s16.951-1.588 30.58 43.302l29.88-47.341c2.993-4.575 1.11-10.775-3.889-12.802-7.705-3.126-10.134-13.004-4.795-19.505 5.145-6.267 13.765-8.254 21.022-4.849l54.01 25.344c7.55 3.544 11.439 12.144 9.183 20.313l-7.956 28.812c-.655 2.376 2.199 4.124 3.951 2.413 6.695-6.544 17.288-18.138 21.936-22.999 8.625-9.017 19.64-12.886 30.464-8.363l.623.26c10.06 4.203 15.788 14.055-1.773 29.924z" clip-rule="evenodd"/><path fill="#fff" fill-rule="evenodd" d="M155.522 362.194c-1.085-2.927-4.314-4.389-7.154-3.159-5.354 2.323-14.746 2.908-25.855-11.487a9.72 9.72 0 0 1-1.751-8.177c1.465-6.092 5.529-17.026 16.617-25.666 3.783-2.947 5.06-8.176 3.339-12.678l-15.35-40.127c-1.621-4.239-6.981-5.532-10.227-2.378-8.532 8.289-21.02 28.188-17.08 72.162.094 1.055-1.384 1.358-1.662.337l-12.854-47.324c-1.472-5.422-7.805-7.674-12.306-4.377l-17.435 12.766c-7.057 5.168-9.572 14.657-5.977 22.673 7.003 15.612 18.716 45.239 30.794 91.206 2.592 9.865 11.207 16.859 21.247 17.223l15.898.575c5.747.208 9.905-5.565 7.972-11.068l-10.643-30.305c-.397-1.129 1.137-1.897 1.742-.869 8.413 14.285 24.885 36.216 47.75 38.645 6.869.729 12.115-6.202 9.681-12.773zM189.833 296.619l-13.069 8.851c-1.624 1.099-3.808.151-4.147-1.797-.393-2.26-.561-4.842-.477-7.546.292-9.323 4.489-16.769 9.375-16.633 4.885.136 8.609 7.803 8.318 17.125m91.105 18.152c-1.003-2.304-3.948-2.737-5.677-.921-4.121 4.323-11.606 7.264-19.312-14.272-1.729-4.837-3.436-10.185-5.086-15.774-.482-1.632.31-3.388 1.839-4.094l6.701-3.093c3.834-1.77 5.933-6.03 5.026-10.202l-5.078-23.333c-.879-4.034-5.301-6.085-8.886-4.123l-7.301 3.996c-1.244.679-2.786-.03-3.102-1.427a1055 1055 0 0 1-4.728-21.988c-.759-3.73-4.487-5.976-8.083-4.886l-6.91 2.093c-5.957 1.805-9.786 7.724-9.023 13.988a603 603 0 0 0 3.028 21.603c.554 3.504-1.134 7.004-4.213 8.689l-9.853 5.391c-7.539-16.574-16.152-26.367-28.533-22.711-22.719 6.708-31.249 47.315-19.057 90.696 12.194 43.381 35.408 65.807 59.017 64.747 10.397-.466 18.462-12.557 21.834-28.857 1.239-5.982-.42-12.2-4.219-16.911l-13.576-16.836c-2.352-2.917-6.956-1.592-7.544 2.144-1.118 7.081-3.862 15.101-10.567 15.019-7.455-.089-12.842-6.949-15.85-12.122-1.77-3.046-.876-6.972 2.017-8.964l27.025-18.607c3.04-2.092 4.346-5.981 3.205-9.517q-.982-3.054-1.954-6.038l7.175-3.311c1.713-.791 3.691.176 4.162 2.024 12.266 48.173 34.404 95.599 71.903 64.689a9.17 9.17 0 0 0 1.77-9.964z" clip-rule="evenodd"/><path fill="#fff" fill-rule="evenodd" d="M332.702 285.134c-2.417-3.53-7.739-2.696-9.07 1.403-3.774 11.624-11.223 25.218-21.109-2.273-11.94-33.199 4.525-34.947 14.718-33.556 2.637.36 4.817-2.072 4.257-4.719l-8.945-42.339c-1.141-5.402-5.894-9.167-11.327-9.033-16.008.396-44.89 10.471-29.098 82.421 18.201 82.915 61.345 82.712 75.325 53.331 4.195-8.814 2.996-19.295-2.481-27.3zM358.574 232.817c-.455 1.761-2.923 1.779-3.349.015-2.931-12.163-4.193-24.388-4.739-32.351-.342-5.019-4.474-8.863-9.42-8.738l-17.621.443c-4.053.103-6.721 4.362-5.06 8.115 6.607 14.947 21.256 52.46 38.247 123.782 1.287 5.404 7.434 7.9 12.031 4.861l10.074-6.659c3.444-2.276 4.724-6.777 2.975-10.539-7.104-15.294-22.771-52.608-8.887-57.278 13.761-4.631 21.216 32.231 23.785 48.277.552 3.454 4.34 5.237 7.309 3.451l11.548-6.945c5.739-3.45 8.425-10.426 6.534-16.906-10.028-34.375-42.185-131.829-63.427-49.528" clip-rule="evenodd"/><path fill="#fff" fill-rule="evenodd" d="M472.407 184.41c-1.389-4.665-5.96-7.549-10.696-6.751l-13.009 2.192c-4.1.69-6.336 5.225-4.488 9 8.908 18.201 14.143 35.137 9.937 45.163-9.945 23.721-19.799-19.853-23.661-40.219-1.054-5.547-5.939-9.447-11.491-9.162l-15.907.815c-3.981.203-6.824 4.015-5.919 7.959 5.056 22.029 21.438 84.54 44.535 84.563 19.49.019 23.884-16.073 24.754-25.886.098-1.106 1.635-1.219 1.905-.145l2.042 8.148c.954 3.797 5.163 5.658 8.56 3.786l4.705-2.593c5.822-3.21 8.631-10.141 6.715-16.565zM515.88 206.45c-6.718-.186-11.989-5.88-11.776-12.716s5.833-12.226 12.551-12.039 11.991 5.879 11.775 12.716c-.213 6.836-5.833 12.226-12.55 12.039m12.656-50.705c-11.95-1.598-23.307 5.146-29.54 16.184l-.015-.049c-.798-2.754-3.623-4.338-6.342-3.545l-10.953 3.193c-3.482 1.016-5.388 4.83-4.137 8.276l24.011 66.094c1.653 4.546 6.332 7.16 11.001 6.145l15.459-3.36c3.285-.715 4.692-4.695 2.577-7.337-2.965-3.701-6.988-9.465-11.536-17.973.143.021.279.062.424.082 16.349 2.187 31.627-11.197 34.123-29.895 2.501-18.699-8.725-35.626-25.072-37.815" clip-rule="evenodd"/></svg>