<svg xmlns="http://www.w3.org/2000/svg" fill="none" viewBox="1 0 243.48 137.7"><path fill="url(#a)" d="M1 131.527V16.075l6.26-11.38 77.043 8.563v122.764z"/><path fill="#fff" d="M44.558 100.544V21.651H27.516v94.626h40.855v-15.733z"/><path fill="url(#b)" d="M164.392 0v127.174l-77.044-7.482V11.409l-14.34-1.48 14.34-7.027z"/><path fill="#fff" d="M141.603 60.458c5.235-3.5 7.795-9.56 7.795-18.436v-3.3c0-15.335-7.226-22.476-22.732-22.476h-23.13v94.626h24.041c14.993 0 23.244-8.222 23.244-23.13V80.23c0-9.872-3.016-16.36-9.246-19.83zm-20.997 9.047h5.15c5.32 0 8.023 1.536 8.023 9.872V87.4c0 6.459-2.361 7.767-6.202 7.767h-6.999V69.506zm11.722-24.183c0 7.397-3.556 8.421-7.369 8.421h-4.353V32.036h5.662c3.642 0 6.06 1.394 6.06 8.165z"/><path fill="url(#c)" d="m244.48 12.091-7.881 118.895-69.163 6.715-8.421-8.564 8.421 1.053V15.449z"/><path fill="#fff" d="M226.414 60.458V50.215c0-15.761-8.108-24.439-22.874-24.439s-22.874 8.678-22.874 24.44v47.853c0 15.762 8.108 24.439 22.874 24.439s22.874-8.677 22.874-24.439V84.555H210.14v14.453c0 3.784-.739 7.625-6.202 7.625-5.462 0-6.202-3.869-6.202-7.625V49.305c0-6.885 3.3-7.767 6.202-7.767s6.202.882 6.202 7.767v11.153z"/><defs><linearGradient id="a" x1="42.652" x2="42.652" y1="4.694" y2="136.022" gradientUnits="userSpaceOnUse"><stop stop-color="#fc4456"/><stop offset="1" stop-color="red"/></linearGradient><linearGradient id="b" x1="118.7" x2="118.7" y1="1.821" y2="121.512" gradientUnits="userSpaceOnUse"><stop stop-color="#00a4ff"/><stop offset="1" stop-color="#0068ff"/></linearGradient><linearGradient id="c" x1="201.747" x2="201.747" y1="14.225" y2="137.701" gradientUnits="userSpaceOnUse"><stop stop-color="#79737f"/><stop offset="1" stop-color="#121113"/></linearGradient></defs></svg>