<svg xmlns="http://www.w3.org/2000/svg" viewBox="0 0 611.19 123.1"><path d="M79.636 121.163V89.151H38.952V1.765H0v119.398ZM377.094 121.163V90.016h-47.608V76.173h44.489V45.544h-44.49V32.566h45.878V1.765h-84.83v119.398ZM286.947 101.286V49.013h-56.312v28.943h24.81v8.54c-.692.865-4.026 2.264-5.094 2.664-1.213.52-3.357 1.181-4.935 1.444-2.079.346-3.696.722-7.16.722-3.245 0-7.755-.545-10.84-1.456-4.454-1.223-8.305-3.248-11.542-6.068-3.047-2.754-4.955-5.799-6.415-9.611-1.668-5-1.847-7.267-1.847-12.727 0-4.036.974-8.978 2.186-12.613 1.213-3.636 3.207-6.847 5.37-9.35 2.013-2.328 4.883-4.418 7.828-5.63 2.944-1.212 5.951-1.811 9.415-1.811 3.465 0 6.286.475 9.09 1.226 2.407.706 5.198 1.891 7.103 2.967.853.426 4.267 2.725 4.996 3.454 1.135.953 1.533 1.286 2.99 2.741L282.6 20.79c-1.091-1.107-3.001-3.211-4.66-4.688-4.093-3.736-9.02-7.155-14.49-9.733C254.407 2.253 244.247-.028 232.382 0c-8.141 0-15.55.991-23.345 3.415-8.803 2.796-15.53 6.762-21 11.302-6.31 5.415-10.76 11.226-14.377 19.218-3.59 8.124-5.37 16.968-5.37 27.53 0 10.132 1.703 19.829 5.585 28.145 3.638 7.791 8.1 13.639 13.99 18.66 5.889 5.02 12.906 8.889 20.296 11.239 8.244 2.622 14.857 3.592 23.355 3.592 7.968 0 14.853-.749 20.743-2.134s11.203-3.292 15.533-5.543a69.6 69.6 0 0 0 11.043-7.098c2.965-2.324 5.687-4.79 8.112-7.04" style="fill:#f60;fill-opacity:1;stroke-width:.292689"/><path d="M169.676 121.163V90.016h-47.608V76.173h43.28V45.544h-43.28V32.566h45.877V1.765h-84.83v119.398ZM495.009 121.163V1.765h-38.087v44.99c0 2.25.173 4.5.173 6.922 0 2.423 0 4.845.173 7.095.173 2.596.346 5.018.52 7.614L423.163 1.765h-42.415v119.398h38.087v-44.99c0-2.25 0-4.672-.173-7.095s-.173-4.672-.346-6.922l-.346-7.614 36.355 66.621zM498.663 1.765v119.398h45.304c10.56 0 18.711-1.004 27.234-3.287 7.05-1.89 14.145-5.097 20.111-9.615 2.435-1.926 4.376-3.456 7.806-7.464 1.72-1.91 4.63-6.282 6.361-10.089s3.116-7.899 4.155-12.744 1.558-10.443 1.558-16.5c0-6.056-.52-11.655-1.558-16.5s-2.424-8.937-4.155-12.744-4.641-8.178-6.361-10.089c-3.43-4.008-5.371-5.538-7.806-7.464-5.966-4.518-13.12-7.725-20.17-9.614-8.522-2.284-16.614-3.288-27.175-3.288Zm38.952 32.012h8.545c4.027 0 8.791.67 11.674 1.802 3.066 1.204 5.402 2.733 6.886 4.265.865.893 1.65 1.804 2.515 3.054s1.514 2.738 2.206 4.345 1.284 4.007 1.581 6.003c.346 2.321.67 4.77.67 8.207 0 3.333-.333 5.695-.679 7.945-.297 1.936-.953 4.241-1.646 5.8-.692 1.557-1.384 2.986-2.25 4.198-.864 1.212-1.537 1.994-2.402 2.86-1.485 1.485-3.845 3.072-6.911 4.24-3.133 1.193-7.142 1.79-11.468 1.79h-8.72z" style="fill:#f60;fill-opacity:1;stroke-width:.292689"/></svg>