<svg xmlns="http://www.w3.org/2000/svg" viewBox="0 0 35.27 26.46"><g fill-rule="evenodd"><path fill="#fff" d="m12.284 0 1.67 1.352-1.988 2.453V.393zM4.91 26.458v-2.147h2.148v2.147zm7.058-3.528v-7.364h2.147v7.364zm0 3.528v-2.147h5.37v2.147zm-3.53 0v-7.364h2.149v7.364zm7.058-8.744v-2.148h3.682v2.148zM0 17.714v-2.148h10.586v2.148zM10.586 5.51 9.512 6.836 8.13 5.13l2.456-3.032zm-7.057 5.301v3.373H.797z"/><path fill="#56be3c" d="M30.322 10.102c.186-.846.688-1.243 1.43-1.243.688 0 1.217.397 1.455 1.243zm-11.537 2.33c-.9 0-1.508-.689-1.508-1.694 0-1.032.609-1.694 1.508-1.694.9 0 1.509.662 1.509 1.694 0 1.005-.609 1.694-1.509 1.694m0-5.347c-2.17 0-3.679 1.456-3.679 3.653 0 2.17 1.51 3.652 3.68 3.652s3.678-1.482 3.678-3.652c0-2.197-1.508-3.653-3.679-3.653m16.487 3.626c0 .265-.027.556-.053.741h-4.87c.238.741.794 1.165 1.667 1.165.609 0 1.165-.212 1.535-.609l1.324 1.244c-.583.741-1.615 1.138-2.859 1.138-2.329 0-3.785-1.456-3.785-3.652 0-2.118 1.456-3.653 3.52-3.653 2.038 0 3.52 1.535 3.52 3.626m-9.873-2.038c.239-.873.953-1.455 1.959-1.455.159 0 .318.026.423.053v2.117a4 4 0 0 0-.582-.053c-1.032 0-1.667.582-1.667 1.8v3.05H23.44V7.304h1.958zM7.057 14.185H4.91V4.71c0-.344.186-.53.424-.53.133 0 .265.027.504.318l3.681 4.524 3.663-4.524c.198-.245.35-.318.523-.318.238 0 .41.186.41.53v9.475h-2.148V9.302L9.97 11.82c-.14.172-.258.245-.45.245-.12 0-.292-.046-.45-.245L7.056 9.315z"/></g></svg>