<svg xmlns="http://www.w3.org/2000/svg" xml:space="preserve" viewBox="0 0 1000 741.38"><path fill="#ce2103" d="M128.288 19.525C158.291 9.116 188.824 2.375 220.663.538c35.207-2.144 71.72 2.042 104.784 13.982 30.615 11.021 59.087 29.084 80.517 53.576 10.715 12.246 19.727 26.112 25.85 40.807 27.247-11.327 57.116-16.009 86.506-13.253 14.982 1.377 29.921 4.688 44.266 9.806 11.157 3.981 21.955 9.096 32.134 14.989-2.449-7.96-4.668-15.917-7.117-23.877-2.143-7.654-5.205-15.407-5.205-23.673-.612-13.777 5.111-27.36 15.827-36.238 7.96-7.042 18.368-9.99 28.165-13.358 39.8-12.552 81.741-18.675 123.684-19.594 24.491 0 48.784 2.143 72.663 7.042 25.41 5.51 50.214 14.082 73.175 26.328 28.778 15.308 54.994 36.738 73.976 63.373 11.633 16.226 20.611 34.288 25.51 53.576 2.77 10.026 4.602 18.075 4.602 39.297 0 14.193-1.141 22.8-3.784 32.841-4.592 17.45-13.164 33.783-24.185 48.171-12.859 16.532-29.39 30.21-47.147 41.23-.919.613-2.143 1.226-3.062 1.838-9.184 4.898-18.369 9.997-27.859 13.67-33.37 13.777-69.446 19.74-105.571 21.577-1.531 31.533-3.368 62.866-4.899 94.706 0 15.92-8.572 31.227-21.736 39.799-9.185 5.816-19.95 9.144-30.97 8.531-26.942-2.143-54.189-4.286-81.13-6.123-11.633-1.224-22.96-7.035-30.92-15.607-1.832-1.998-3.467-3.898-4.903-6.247-3.843-6.289-6.251-13.638-7.143-20.994-.919-7.041.306-13.776 1.225-20.512-13.165 9.185-27.554 16.839-42.555 22.35-30.309 11.327-63.579 14.275-95.112 8.765-30.003-5.205-58.875-18.269-82.448-37.25-3.368-2.755-6.935-5.51-9.997-8.572-26.328-24.492-45.41-56.638-53.675-91.845-15.001 7.348-31.5 14.07-47.134 19.182l22.237 99.326c2.464 21.473-7.381 38.64-23.687 48.65-3.674 2.142-7.654 3.873-11.94 4.791l-78.974 16.732c-10.409 2.45-21.842 1.33-31.639-2.955-14.695-6.123-25.516-19.9-28.271-35.513l-25.959-162.87-16.09-96.943c-12.246.918-24.998-3.368-34.183-11.328-5.204-4.286-9.184-10.103-12.552-15.92-9.49-15.307-19.287-30.308-28.778-45.615C3.032 129.963.2 120.787.003 112.555c-.085-3.6 1.505-23.567 18.684-36.293 33.064-24.492 70.72-42.96 109.601-56.737"/><path fill="#fff" d="M160.127 46.978c43.78-12.552 91.132-16.226 135.523-5.205 31.533 7.654 61.942 23.268 83.985 48.066 12.246 13.776 21.249 29.775 26.147 47.531-26.023 18.063-46.959 43.394-59.51 72.172-9.185 21.124-14.183 43.886-14.183 66.847-26.329 16.532-55.013 28.065-85.016 36.025-3.061.918-5.816 1.53-8.878 2.449 0 0-1.238.259-.306 3.055l27.247 123.99c1.837 7.654-3.674 15.92-11.327 17.144l-79.293 16.532c-6.735 1.531-14.037-3.367-14.955-10.103l-21.49-128.08-28.462-177.322-.608.38c-5.817 3.673-11.328 7.653-17.145 11.633-3.367 2.143-7.653 3.674-11.94 3.367-5.204 0-10.202-3.267-12.651-7.553a5176 5176 0 0 1-26.535-42.554c-3.062-4.899-4.286-11.222-1.53-16.426 3.06-7.348 10.208-10.822 16.637-15.108 31.84-20.511 67.553-36.431 104.29-46.84m32.758 68.371c-1.837.306-2.449 2.45-1.837 3.98l31.434 137.36c24.185-2.756 48.371-12.552 65.209-30.309 11.634-12.552 19.593-29.084 20.512-46.534.612-14.695-4.898-29.29-14.389-40.311-12.246-14.695-30.209-23.574-48.884-26.941-17.144-3.062-35.207-1.837-52.045 2.755M713.799 39.021c48.607-4.903 98.744-.77 144.294 17.617 32.406 13.176 62.67 33.964 83.459 62.463 13.145 17.773 22.11 38.917 24.557 60.674 2.445 20.225-1.529 41.37-11.617 59.143-14.674 26.047-39.842 44.74-66.745 56.69-38.213 16.855-80.401 22.064-121.978 21.451l-12.034-.11-8.142 131.265c-1.223 5.823-6.115 12.564-12.84 11.645l-80.096-6.742c-5.809-.306-11.006-4.29-12.84-9.806-1.528-3.983-.306-7.967 0-11.95l8.082-67.723c.306-.307.612-1.226 1.834-3.065 22.623-39.224 27.886-86.932 15.352-130.446-.611-1.532-.657-1.929-.963-2.541 3.363-29.112 8.4-68.436 11.458-96.322-8.56 2.758-17.836 6.883-26.959 7.591-6.726.307-13.795-4.339-15.63-10.774l-12.84-45.753c-1.528-4.903-2.65-9.505-1.122-14.715 1.834-6.128 7.337-10.112 13.145-11.95 26.903-8.73 54.11-13.884 81.625-16.642m45.426 219.722c.612 0 1.959.306 3.181.306 18.649 2.452 37.814 1.119 55.545-5.929 15.286-5.822 29.043-16.347 37.603-30.443 8.56-13.177 11.411-29.725 7.743-45.047-3.974-17.467-15.392-32.283-29.76-42.701-18.649-13.484-41.783-19.919-64.405-20.225h-3.181Z"/><path fill="#fff" d="M487.455 126.065c34.595-3.062 70.108 5.51 98.886 25.104 24.798 16.532 44.697 40.718 56.025 68.577 16.532 39.493 15.001 86.334-4.286 124.602-14.695 30.002-39.8 54.494-69.802 68.883-34.9 17.144-76.537 20-113.58 7.754-26.635-8.572-50.615-24.898-68.677-46.022-20.512-23.88-33.064-54.188-35.513-85.415-3.368-37.963 8.365-76.843 32.245-106.54 25.867-32.573 63.679-53.27 104.702-56.943m13.271 44.391c-23.267 3.674-43.58 21.43-50.008 44.085-4.593 15.614-2.756 33.37 5.204 47.76 7.042 12.551 18.369 22.654 31.533 28.165 16.838 6.735 36.538 5.717 52.764-2.549 11.327-5.817 21.018-15.307 26.835-26.635 8.266-15.92 9.284-35.713 2.549-52.245-6.43-15.92-19.594-29.084-35.514-35.207-10.94-4.273-22.342-5.21-33.363-3.374"/><path d="M459.664 483.3a22.6 22.6 0 0 0-4.64.067h-.006l-60.686 7.162h.01c-12.553 1.472-21.923 13.215-20.414 25.84l11.195 93.654c.725 6.063.204 10.384-.99 13.573l.004-.006c-.131.349-.126.51-.11.64-.137-.05-.343-.089-.777-.037-2.425.291-1.112.774-2.217-.71-1.747-2.348-3.31-6.221-4.056-12.463l-11.198-93.961c-1.484-12.46-13.113-21.589-25.556-20.11l-61.313 7.29h-.004c-12.753 1.526-21.98 13.377-20.463 26.066l12.848 107.488c2.132 17.836 6.892 33.55 14.697 46.81 7.226 12.737 16.993 23.332 28.934 31.208l.012.007.01.006c11.462 7.53 24.262 12.568 37.978 15.022 13.252 2.67 27.317 3.041 42.055 1.275 14.437-1.73 27.93-5.32 40.418-11.053 13.026-5.748 24.355-13.76 33.648-23.677l.006-.008c4.376-4.638 8.131-9.797 11.418-15.297l-.44 34.146v.008c-.17 13.034 10.148 24.298 23.604 24.438l67.46.7c12.97.172 23.967-10.156 24.143-23.36v-.022l.282-28.14c3.328.001 6.683-.012 10.119-.145l.02-.002h.019c20.116-.84 40.425-4.55 58.178-14.436 13.152-7.323 24.758-18.171 32.728-32.798 7.796-14.308 12.066-32.027 12.346-52.995.144-10.811-.942-21.524-3.42-31.433-3.026-12.503-8.721-24.249-17.205-34.285l-.053-.063-.055-.062c-28.525-32.908-74.077-33.289-91.545-33.522h-.007l-89.563-1.094h-.002c-12.948-.171-24.252 10.328-24.43 23.584v.002l-.084 6.534-1.843-15.51c-1.304-10.966-10.406-19.382-21.055-20.33m-5.04 26.999 12.368 104.039v.004c1.794 15.002.783 27.625-2.41 38.127l-.008.023-.006.026c-3.216 10.724-8.16 19.36-14.943 26.548l-.018.02-.02.02c-6.85 7.32-15.086 13.187-25.044 17.57l-.102.045-.101.047c-9.739 4.481-20.427 7.392-32.54 8.843-12.368 1.483-23.563 1.107-33.73-.957l-.162-.033-.162-.03c-10.399-1.843-19.633-5.497-28.123-11.07l-.006-.005c-8.45-5.576-15.146-12.775-20.46-22.172l-.061-.108-.063-.107c-5.544-9.393-9.43-21.448-11.23-36.504L285.34 530.363l54.367-6.465 10.756 90.282v.004c1.107 9.263 3.732 17.96 9.15 25.24 6.062 8.145 17.186 12.433 26.813 11.28 9.55-1.145 19.213-8.418 22.709-17.735v-.002l.002-.004c3.071-8.199 3.581-17.046 2.498-26.11l-10.783-90.207Zm54.687 5.451 86.982 1.063c16.598.22 52.808 2.568 71.67 24.255 5.673 6.733 9.471 14.468 11.601 23.286l.014.056.014.057c1.817 7.243 2.752 15.89 2.635 24.658-.235 17.553-3.771 30.81-9.092 40.576-5.487 10.07-12.926 17.04-22.274 22.244-12.549 6.988-28.807 10.356-46.3 11.086-3.478.134-7.027.166-10.653.149-13.493-.066-24.894 11.139-25.074 24.625v.021l-.268 26.824-61.806-.64Zm79.714 36.984c-5.999-.056-10.892 2.939-13.894 6.387-3.003 3.449-4.78 7.602-4.846 12.586l-.531 39.81c-.135 10.09 7.294 18.952 18.256 19.176q.46.01.959.016c10.223.136 20.76-3.29 27.361-11.225 6.746-7.831 8.494-17.63 8.64-28.615.131-9.763-2.228-19.314-8.333-26.658l-.174-.209-.182-.203c-6.733-7.458-16.838-10.926-26.9-11.06h-.002l-.352-.005Zm7.817 30.02c.794 1.491 1.487 3.591 1.431 7.76-.08 6.042-1.077 8.892-1.673 10.256Z"/><path fill="#42cc93" d="m456.577 496.626-60.68 7.162c-5.462.64-9.366 5.54-8.713 10.996l11.195 93.654c.904 7.564.39 14.148-1.744 19.842-2.06 5.49-6.058 8.48-11.797 9.168-6.026.722-10.932-1.18-14.515-5.995s-5.677-11.1-6.604-18.854l-11.195-93.96c-.63-5.29-5.433-9.061-10.725-8.432l-61.307 7.287c-5.516.66-9.453 5.714-8.794 11.227l12.849 107.488q2.952 24.701 12.989 41.707 9.411 16.643 24.737 26.75 15.004 9.856 33.142 13.071 17.6 3.571 37.974 1.13c13.295-1.594 25.405-4.85 36.533-9.971 11.521-5.071 21.326-12.027 29.413-20.668q12.4-13.139 18.02-31.876c3.83-12.597 4.861-27.128 2.893-43.595l-12.787-107.55c-.638-5.371-5.508-9.211-10.884-8.581m39.419 16.157-2.619 203.628c-.078 5.814 4.575 10.858 10.393 10.918l67.496.7c5.679.076 10.543-4.513 10.62-10.19l.297-29.857a11.56 11.56 0 0 1 11.66-11.452c3.76.018 7.517-.014 11.275-.16 18.805-.784 37.087-4.324 52.238-12.76 11.25-6.264 20.774-15.173 27.502-27.522 6.558-12.037 10.46-27.525 10.718-46.785.13-9.803-.881-19.498-3.035-28.084-2.58-10.682-7.337-20.441-14.435-28.839-23.686-27.325-64.595-28.689-81.635-28.916L506.9 502.37c-5.888-.079-10.826 4.528-10.904 10.413m93.207 53.304q11.294.15 17.168 6.659 5.404 6.5 5.25 17.946-.187 14.108-5.445 20.153-5.422 6.67-17.03 6.516l-.863-.015c-2.907-.06-5.219-2.74-5.18-5.65l.532-39.811c.038-2.896 2.38-5.829 5.265-5.801z"/></svg>