<svg xmlns="http://www.w3.org/2000/svg" xml:space="preserve" fill="#fff" class="svg-icon text-white sm:max-h-[100px] max-h-[50px] mb-8" data-icon="brand-radio" style="fill-rule:evenodd;clip-rule:evenodd;stroke-linejoin:round;stroke-miterlimit:2" viewBox="0 0 511.69 111"><path d="M211.195 108.686a23.5 23.5 0 0 1-10.495 2.312c-7.668 0-11.215-3.969-11.215-13.817v-18.86h-6.472V66.649h6.472V55.645l14.125-5.864v16.868h9.203v11.672h-9.176v15.712c0 3.315 1.21 4.304 3.63 4.304a9.86 9.86 0 0 0 5.818-2.312zm46.817 1.407v-2.898a17.26 17.26 0 0 1-10.346 3.803c-8.225 0-13.717-5.21-13.717-14.974 0-9.346 6.295-14.151 15.253-14.151a19.9 19.9 0 0 1 8.81 1.824v-2.159c0-3.802-2.026-5.125-5.982-5.125a21.9 21.9 0 0 0-11.786 3.147l-3.793-9.847a39.5 39.5 0 0 1 18.244-3.97c11.868 0 17.034 6.045 17.034 16.13v28.22zm-232.182.904C9.04 110.997 0 98.252 0 81.134 0 62.511 10.658 51.27 25.83 51.27c13.88 0 19.372 6.115 23.247 17.035L34.87 74.016c-2.025-5.376-3.956-8.775-9.122-8.775-6.539 0-9.366 6.7-9.366 15.893 0 8.844 2.719 15.878 9.516 15.878 4.908 0 7.015-2.785 10.087-8.19l13.241 7.201c-3.697 7.55-10.005 14.974-23.396 14.974m137.811-.001a48 48 0 0 1-17.673-3.565l3.384-11.241a40.2 40.2 0 0 0 14.615 3.803c2.827 0 3.875-.669 3.875-1.992 0-1.324-.64-1.978-3.386-2.786-13.078-3.552-17.673-6.282-17.673-15.322s5.737-14.235 17.279-14.235a42.7 42.7 0 0 1 16.314 3.148l-3.236 11.491c-5.573-2.479-9.774-3.635-13.486-3.635-2.814 0-3.549.585-3.549 1.908s.49 1.811 4.201 2.967c11.95 3.232 16.79 6.129 16.79 14.723.068 10.098-6.634 14.736-17.455 14.736m188.038-.366-9.258-19.627H336.1v19.627h-15.512V52.407h25.408c13.31 0 22.173 5.154 22.173 18.957 0 8.733-3.982 14.152-10.236 17.063l11.365 22.203zm82.797-.907v-3.064a14.6 14.6 0 0 1-10.02 3.97c-7.912 0-14.043-6.366-14.043-22.495 0-15.558 5.438-22.746 14.614-22.746a14.68 14.68 0 0 1 9.517 3.803V55.374l14.6-5.962v60.311zm-40.949-.001v-2.896a17.3 17.3 0 0 1-10.345 3.803c-8.157 0-13.717-5.21-13.717-14.974 0-9.346 6.293-14.138 15.266-14.138a19.9 19.9 0 0 1 8.796 1.811v-2.173c0-3.817-2.026-5.126-5.982-5.126a22 22 0 0 0-11.787 3.134l-3.793-9.834a39.4 39.4 0 0 1 18.245-3.969c11.868 0 17.034 6.031 17.034 16.129v28.206zm97.976.906c-11.705 0-20.093-7.689-20.093-22.663s8.388-22.578 20.093-22.578 20.187 7.41 20.187 22.578c0 15.169-8.468 22.663-20.187 22.663m-415.468-.536V85.466c0-5.572-1.849-7.118-4.839-7.118s-4.922 1.491-4.922 6.965v24.82H51.742V55.812l14.532-5.962v19.765a15.98 15.98 0 0 1 10.659-3.802c9.285 0 13.717 6.379 13.717 17.787v26.561zm223.904-.001V85.465c0-5.572-1.863-7.118-4.84-7.118s-4.935 1.491-4.935 6.965v24.82h-14.478V66.689h14.532v2.897a16.07 16.07 0 0 1 10.673-3.802c9.285 0 13.717 6.379 13.717 17.787v26.561zm-83.651 0V66.647h14.533v43.444zm-88.401 0V66.647h14.573v43.444zm-6.31-27.059a9.2 9.2 0 0 0-3.008-2.583 9 9 0 0 0-3.789-1.053c-3.548 0-5.723 1.741-5.723 6.965v23.678H94.524V66.596h14.533v3.147a12.88 12.88 0 0 1 7.576-3.935 12.72 12.72 0 0 1 8.33 1.707zm332.109 26.693v-43.43h14.506v43.43zm-195.674-17.35a14.2 14.2 0 0 0-6.227-1.24c-.61-.071-1.229 0-1.809.208a4.05 4.05 0 0 0-1.542.994 4.2 4.2 0 0 0-.965 1.582 4.3 4.3 0 0 0-.197 1.854 4.3 4.3 0 0 0 .172 1.877c.197.605.525 1.155.961 1.609.434.454.966.8 1.552 1.012a4 4 0 0 0 1.828.21 10.26 10.26 0 0 0 6.227-2.145zm135.515-.356a14 14 0 0 0-6.226-1.239 4 4 0 0 0-1.811.202 4.1 4.1 0 0 0-1.544.989 4.2 4.2 0 0 0-.97 1.579 4.26 4.26 0 0 0-.202 1.854 4.35 4.35 0 0 0 .2 1.868c.202.599.532 1.145.966 1.598.433.452.96.799 1.541 1.017a4.1 4.1 0 0 0 1.82.239 10.27 10.27 0 0 0 6.226-2.145zm97.976-14.556c-3.793 0-5.723 3.134-5.723 10.502s1.93 10.586 5.723 10.586 5.737-3.385 5.737-10.586-1.863-10.502-5.737-10.502m-57.027 2.23a7.43 7.43 0 0 0-5.167-2.061c-3.004 0-4.608 1.894-4.608 10 0 8.692 1.604 10.753 4.676 10.753a7.54 7.54 0 0 0 5.099-2.061zm-88.887-14.151h-9.517v12.731h9.245c5.125 0 7.151-2.326 7.151-6.491.028-3.663-1.917-6.24-6.879-6.24m-122.028-2.029c-4.772 0-8.32-2.785-8.32-7.368 0-4.179 3.548-7.201 8.32-7.201 5.003 0 8.469 2.981 8.469 7.201 0 4.555-3.466 7.368-8.469 7.368m-88.415 0c-4.772 0-8.319-2.785-8.319-7.368 0-4.179 3.547-7.201 8.319-7.201 5.003 0 8.469 2.981 8.469 7.201 0 4.555-3.466 7.368-8.469 7.368m325.799-.366c-4.757 0-8.306-2.786-8.306-7.368 0-4.179 3.549-7.187 8.306-7.187 5.004 0 8.484 2.981 8.484 7.187 0 4.555-3.48 7.368-8.484 7.368M122.787 0v41.911h31.267v15.963l11.27-15.963h70.515V0zm91.859 22.592v.223h-9.368c0 2.062.816 4.443 3.209 4.443a2.57 2.57 0 0 0 1.756-.667 2.7 2.7 0 0 0 .867-1.7h3.345c-.231 3.175-3.291 4.708-6.145 4.708a7.9 7.9 0 0 1-2.923-.669 5.16 5.16 0 0 1-2.147-1.811 8.58 8.58 0 0 1-1.524-5.167c0-3.956 2.189-7.41 6.431-7.41a6.4 6.4 0 0 1 2.667.425 6.5 6.5 0 0 1 2.268 1.497 8.02 8.02 0 0 1 1.564 4.889q.06.62 0 1.239m-45.774 0v.223h-9.367c0 2.062.816 4.443 3.222 4.443a2.58 2.58 0 0 0 1.748-.671 2.7 2.7 0 0 0 .863-1.696h3.344c-.231 3.175-3.29 4.708-6.145 4.708a8 8 0 0 1-2.936-.669 5.3 5.3 0 0 1-2.135-1.811 8.6 8.6 0 0 1-1.522-5.167c0-3.956 2.189-7.41 6.43-7.41a6.4 6.4 0 0 1 2.666.425 6.5 6.5 0 0 1 2.268 1.497 8 8 0 0 1 1.564 4.889q.06.62 0 1.239m60.292 6.714h-3.588V25.74h3.588zm-86.666-8.594a7.05 7.05 0 0 1-4.717 1.1h-2.488v5.029h2.719v2.437h-8.605v-2.437h2.216V12.327h-2.216v-2.41h8.972a5.4 5.4 0 0 1 2.431.265c.78.272 1.492.72 2.083 1.309a6.3 6.3 0 0 1 1.591 4.346 6.2 6.2 0 0 1-.464 2.678 6 6 0 0 1-1.562 2.197zm50.627 8.566h-6.893v-2.312h1.659v-6.407c0-1.463-.177-3.385-2.08-3.385a2.24 2.24 0 0 0-1.32.342 2.33 2.33 0 0 0-.896 1.051 5.9 5.9 0 0 0-.448 2.786v5.571h1.631v2.298h-6.797v-2.256h1.604v-6.658a4.8 4.8 0 0 0-.34-2.187 1.8 1.8 0 0 0-.649-.689 1.74 1.74 0 0 0-.901-.258 2.68 2.68 0 0 0-1.764.626 2.8 2.8 0 0 0-.955 1.644 8.4 8.4 0 0 0-.176 2.118v5.404h1.685v2.298h-7.042v-2.298h1.849v-9.75h-1.849v-2.298h5.112v2.298a4.63 4.63 0 0 1 1.801-2.052 4.46 4.46 0 0 1 2.617-.65 3.6 3.6 0 0 1 2.43.625 3.76 3.76 0 0 1 1.471 2.077 4.27 4.27 0 0 1 1.618-2.019 4.1 4.1 0 0 1 2.461-.683 4 4 0 0 1 2.474.661 4.16 4.16 0 0 1 1.604 2.041c.235.721.314 1.487.231 2.242v7.508h1.727zm8.007 0h-7.015v-2.312h1.876v-9.75h-1.876v-2.298h5.438v12.048h1.645zm-45.624-11.115a4.6 4.6 0 0 0-1.237-.209 3 3 0 0 0-1.749.547 3.13 3.13 0 0 0-1.133 1.473 10.8 10.8 0 0 0-.339 3.301v3.691h2.283v2.298h-7.586v-2.298h1.836v-9.75h-1.836v-2.298h5.139v3.064c.078-.54.262-1.059.544-1.523a3.9 3.9 0 0 1 1.092-1.172c.439-.31.936-.524 1.459-.628a3.8 3.8 0 0 1 1.582.022zm69.578 0a4.6 4.6 0 0 0-1.237-.209 3 3 0 0 0-1.742.551 3.13 3.13 0 0 0-1.127 1.469 10.4 10.4 0 0 0-.353 3.301v3.691h2.244v2.298h-7.6v-2.298h1.849v-9.75h-1.849v-2.298h5.152v3.064c.075-.54.259-1.058.538-1.522a3.9 3.9 0 0 1 1.089-1.173c.438-.31.934-.524 1.457-.628a3.8 3.8 0 0 1 1.579.022zm-62.456-1.378c-2.215 0-2.922 2.061-3.072 3.955h5.751c-.027-1.629-.667-3.955-2.679-3.955m45.789 0c-2.216 0-2.936 2.061-3.1 3.955h5.765c-.028-1.629-.653-3.955-2.665-3.955m-71.302-4.43h-1.822v6.965h1.822c.497.074 1.002.04 1.484-.099a3.55 3.55 0 0 0 1.317-.709c.622-.782.924-1.78.843-2.786a3.66 3.66 0 0 0-.952-2.702 3.376 3.376 0 0 0-2.692-.669m58.862-2.953h3.576v3.301h-3.507z" style="fill-rule:nonzero"/></svg>