<svg xmlns="http://www.w3.org/2000/svg" width="178" height="217" fill="none" viewBox="0 0 178 217"><path fill="url(#a)" d="M88.619 0C41.194 0 .097 37.223.097 89.706c0 30.963 12.806 48.11 31.097 68.091l57.299 58.483 57.173-58.234c22.84-23.908 31.472-39.581 31.472-68.652C177.139 41.19 139.537 0 88.619 0m.187 50.436c21.33 0 38.614 17.316 38.614 38.646s-17.284 38.615-38.614 38.615c-21.331 0-38.615-17.284-38.615-38.615 0-21.33 17.284-38.646 38.615-38.646"/><defs><linearGradient id="a" x1="-.063" x2="176.356" y1="95.99" y2="95.99" gradientUnits="userSpaceOnUse"><stop stop-color="#f8ae1f"/><stop offset="1" stop-color="#f89d21"/></linearGradient></defs></svg>