<svg xmlns="http://www.w3.org/2000/svg" width="1722" height="500" fill="none" viewBox="0 0 1722 500"><g clip-path="url(#a)"><path fill="url(#b)" d="M298.865 28.75c-45.519-.16-53.201 24.303-53.201 47.506v304.832c5 .8 10.301 1.201 16.301 1.201 45 0 53.792-13.202 53.799-36.205l.101-315.533c-5.2-1.2-11.2-1.78-17-1.801m174 88.91c-31.076 0-49.182 11.571-67.383 31.373l-86.461 94.405 69.444 109.048c13 20.003 29.67 30.403 57.07 30.403 18.2 0 33.653-4.071 40.453-7.471l-83.775-126.057 59.316-62.826c13.565 21.471 27.223 42.821 40.897 64.151l56.394 88.437-59.353 124.975c6 3 18.138 6.484 33.138 7.084 26.201.6 40.461-9.285 51.061-32.688l85.781-191.113c18.105-40.336 35.579-79.028 54.317-121.012-5.8-3-18.682-6.369-29.082-6.769-18-.4-42.216 3.461-57.616 40.265l-45.349 106.574-88.852-144.49c-5.8-1.6-19.8-4.289-30-4.289m-355.586.606c-11.21.106-22.346.644-32.894 1.795C27.912 126.181 0 160.173 0 199.869c0 33.004 23.696 63.706 68.688 72.707l54.49 10.403c19.796 3.8 29.994 8.3 29.994 19.101 0 8.201-8.557 16.801-33.193 16.801-22.996 0-54.19-3.6-73.987-3.6-18.996 0-39.193 8.602-39.193 46.006 0 4.801.6 10.4 1.6 15 28.594 3.401 88.283 8.502 129.675 4.102 56.99-6.001 85.084-37.304 85.084-80.309 0-37.004-22.257-67.072-75.984-77.01l-51.092-9.55c-16.597-2.601-27.424-6.65-27.424-16.051 0-8.801 10.927-16.201 37.322-16.201 25.796 0 48.593 2.65 63.19 2.65 19.196 0 38.793-8.051 38.793-45.455 0-5.001-.602-9.602-1.602-14.402-21.146-2.551-55.45-6.114-89.082-5.795"/><path fill="url(#c)" d="M1688.1 0H831.9c-18.3 0-33.3 15-33.3 33.3v433.4c0 18.3 15 33.3 33.3 33.3h856.2c18.3 0 33.3-15 33.3-33.3V33.3c0-18.3-15-33.3-33.3-33.3"/><path fill="url(#d)" d="m822.3 248.1 3.3-.2 870.8-30.36c12.5-.4 25-9.6 25-25.4V33.3c0-18.3-15-33.3-33.3-33.3H831.9c-18.3 0-33.3 15-33.3 33.3v241c0-2.7.4-23.6 23.7-26.2" opacity=".25"/><path fill="#fff" d="M1242 226.557v143.575c0 9.992-5.49 15.498-22.11 15.498-7.08 0-15.08-1.02-19.18-2.04V230.655c0-19.537-5.75-34.667-15.9-44.079-8.07-7.485-18.84-11.288-32.43-11.288-26.67 0-48.83 18.856-57.86 37.82v157.126c0 9.992-5.54 15.497-22.16 15.497-7.08 0-15.08-1.019-19.19-2.039V230.655c0-35.074-17.24-55.367-48.32-55.367-26.676 0-48.836 18.956-57.865 37.92v157.026c0 9.992-5.54 15.497-22.161 15.497-7.079 0-15.081-1.019-19.185-2.039V143.574c4.001-1.02 12.106-2.04 19.596-2.04 15.594 0 21.404 6.016 21.404 16.518v16.016c15.595-20.493 39.538-35.581 68.781-35.581 32.21 0 57.45 16.208 69.97 43.736 16.62-25.081 41.75-43.736 77.56-43.736 25.84-.051 46.18 9.929 59.47 26.15 12.99 15.857 19.58 37.677 19.58 61.92M1527.85 262.341l87.1 115.762c-5.54 3.559-18.12 7.589-28.7 7.589-9.56 0-16.04-1.384-24.26-12.508l-58.86-81.476-60.91 81.984c-7.31 10.449-13.5 11.973-24.79 12-7.6.018-20.08-2.606-25.62-7.589l87.59-114.236-87.58-114.756c5.55-3.458 16.68-7.548 27.77-7.548 10.58 0 15.99 1.194 23.72 11.302l60.3 81.223 61.37-81.015c2.38-3.075 4.18-5.196 6.37-6.873 4.93-3.767 10.28-4.667 17.89-4.667 8.11 0 19.16 2.487 25.74 7.571zM1327.07 72.223c-12.8-.098-23.19 10.291-23.09 23.077 0 11.943 10.65 23.05 23.09 23.05 12.8-.05 23.23-10.256 23.52-23.05 0-13.36-10.21-23.077-23.52-23.077m1.52 66.99c-16.69 0-22.25 6.044-22.25 15.595l-.01 228.733a95 95 0 0 0 19.19 2.036c16.62 0 21.68-5.466 21.68-15.575V141.183a89 89 0 0 0-18.61-1.97"/><path fill="url(#e)" d="M298.865 28.85c-45.56-.2-53.201 24.003-53.201 47.406v209.021c0-9.601 7.599-17.401 17.199-17.601 7.6-.2 28.801-.999 35.201-1.199 7.001-.2 17.601-5.002 17.801-17.803V30.65c-5.6-1.2-11.2-1.8-17-1.8m174 88.81c-31.1.086-49.182 11.571-67.383 31.373l-86.461 94.405 6.987 10.925c3 4.001 8.857 10.613 20.457 10.213 4.2-.2 45.846-1.347 49.246-1.547 10.8-.4 17.784 4.017 21.984 9.617l-15.482-23.285 59.316-62.826 39.93 62.645c7.2 9.401 18.006 9.496 20.406 9.496 2 0 54.402-1.8 56.602-2 3.6-.2 8.04 1.897 11.24 6.498l-86.842-141.225c-5.8-1.8-19.8-4.289-30-4.289m-351.287.199c-12.598.4-25.195 1-37.193 2C28.385 126.22 0 159.464 0 199.668c0 20.602 9.122 40.406 27.12 54.607 13.597 9.001 27.87 12.602 41.667 15.002 11.398 2.001 37.993 3.798 57.789 2.998 6.199-.2 51.792-1.799 61.59-2.199 22.693-.783 35.138 18.336 34.545 37.707.197-2.519.447-5.196.447-7.703 0-37.004-22.155-67.253-75.984-77.209l-51.092-9.351c-16.64-2.655-27.424-6.65-27.424-16.051 0-8.801 11.127-16.201 37.322-16.201 25.996 0 48.593 2.65 63.19 2.65 18.996 0 38.793-8.451 38.793-45.856 0-4.8-.602-9.201-1.602-14.001-20.196-2.201-52.589-6.202-84.783-6.202m101.133 189.924-.022.287v1c.026-.429.009-.858.022-1.287m469.557-188.215c-17.801.2-40.402 4.893-55.202 40.297l-44.791 105.254s3.191-9.069 11.791-9.469c0 0 43.601-1.599 46.801-1.599 14.463-.413 19.965-10.085 21.565-13.285l51.332-114.397c-5.8-3-18.897-6.575-29.297-6.775z" opacity=".25"/></g><defs><linearGradient id="b" x1="562.715" x2="562.715" y1="27.292" y2="470.663" gradientUnits="userSpaceOnUse"><stop stop-color="#9c6eff"/><stop offset="1" stop-color="#894aff"/></linearGradient><linearGradient id="c" x1="993.954" x2="1694.75" y1="443.158" y2="30.355" gradientUnits="userSpaceOnUse"><stop stop-color="#7100fc"/><stop offset="1" stop-color="#4f00fa"/></linearGradient><linearGradient id="d" x1="1306.91" x2="1295.34" y1="244.035" y2="21.843" gradientUnits="userSpaceOnUse"><stop stop-color="#fff" stop-opacity=".97"/><stop offset=".712" stop-color="#fff" stop-opacity=".29"/><stop offset=".863" stop-color="#fff" stop-opacity=".29"/><stop offset="1" stop-color="#fff" stop-opacity=".23"/></linearGradient><linearGradient id="e" x1="408.79" x2="397.226" y1="275.48" y2="53.289" gradientUnits="userSpaceOnUse"><stop stop-color="#fff" stop-opacity=".97"/><stop offset=".062" stop-color="#fff" stop-opacity=".998"/><stop offset=".18" stop-color="#fff" stop-opacity=".867"/><stop offset=".712" stop-color="#fff" stop-opacity=".29"/><stop offset=".863" stop-color="#fff" stop-opacity=".29"/><stop offset="1" stop-color="#fff" stop-opacity=".23"/></linearGradient><clipPath id="a"><path fill="#fff" d="M0 0h1721.4v500H0z"/></clipPath></defs></svg>