<svg xmlns="http://www.w3.org/2000/svg" viewBox="1.9 11.77 295.2 88.52"><title>Web Brandsite/Station Logo/Strapline Desktop/Smooth Logo</title><g fill="#8a0dd9" fill-rule="nonzero"><path d="m1.9 78.079 7.388-8.823c5.115 4.21 10.473 6.883 16.967 6.883 5.115 0 8.2-2.024 8.2-5.343v-.161c0-3.157-1.948-4.778-11.447-7.206C11.56 60.514 4.173 57.356 4.173 46.102v-.161c0-10.283 8.281-17.086 19.89-17.086 8.282 0 15.346 2.593 21.112 7.206l-6.494 9.392c-5.034-3.48-9.988-5.585-14.775-5.585s-7.307 2.185-7.307 4.94v.16c0 3.727 2.434 4.94 12.26 7.449 11.529 2.996 18.027 7.125 18.027 17.004v.161c0 11.255-8.605 17.57-20.866 17.57-8.608 0-17.294-2.996-24.116-9.07zm123.081-16.735v-.161c0-12.468 10.069-22.59 23.627-22.59 13.559 0 23.466 9.96 23.466 22.429v.161c0 12.468-10.069 22.59-23.627 22.59-13.559 0-23.466-9.96-23.466-22.429m34.913 0v-.161c0-6.395-4.63-11.984-11.447-11.984-6.818 0-11.286 5.423-11.286 11.823v-.98c0 6.395 4.63 13.125 11.447 13.125 6.818 0 11.286-5.423 11.286-11.823m15.746-9.186v-.16c0-12.469 10.069-22.59 23.627-22.59 13.559 0 23.466 11.1 23.466 23.57v.16c0 12.469-10.069 21.449-23.627 21.449-13.559 0-23.466-9.96-23.466-22.429m34.913 0v-.16c0-6.396-4.63-11.985-11.447-11.985-6.818 0-11.286 5.423-11.286 11.823v.161c0 6.396 4.63 11.984 11.447 11.984 6.818 0 11.286-5.423 11.286-11.823m18.266 3.327V34.92l-5.197.073V24.468l5.197-.073v-11.42l12.34-.778v12.194h10.231v10.525h-10.23v18.54c0 2.836 1.217 4.21 3.979 4.21 2.272 0 4.302-.568 6.09-1.536v9.88c-2.6 1.54-5.6 2.512-9.742 2.512-7.55 0-12.664-2.996-12.664-13.037zm28.414-43.715 12.342.407V33.63c2.842-3.646 6.494-6.964 12.75-6.964 9.336 0 14.775 6.153 14.775 16.113v29.747l-12.341-1.65v-24.21c0-5.83-2.762-8.827-7.469-8.827s-7.715 2.997-7.715 8.827v22.638l-12.342-.274zM104.338 39.283c-5.734 0-10.178 2.274-13.918 6.456l-.829 1.064c-2.43-3.318-6.304-5.193-11.209-5.193-6.252 0-9.988 3.318-12.827 6.964V42.42h-12.34v46.808h12.34V61.61c0-5.83 2.843-8.826 7.47-8.826 4.625 0 7.225 2.996 7.225 8.826v27.618l12.341-.798V62.582c.033-6.698 1.234-12.024 6.875-12.125 5.042-.089 7.226 2.996 7.226 8.827v27.698l12.341-1.92V55.236c0-10.444-5.52-15.952-14.699-15.952zM222.567 80.748h8.803c2.447 0 4.347.686 5.613 1.948 1.071 1.068 1.65 2.58 1.65 4.391v.057c0 3.1-1.679 5.048-4.129 5.955l4.707 6.86h-4.954l-4.128-6.146H226.8v6.146h-4.238V80.752zm8.528 9.331c2.062 0 3.247-1.097 3.247-2.718v-.056c0-1.81-1.265-2.746-3.328-2.746h-4.21v5.516h4.291zm8.791 5.654v-.057c0-3.21 2.447-4.694 5.944-4.694 1.484 0 2.56.246 3.607.605v-.246c0-1.73-1.071-2.69-3.166-2.69-1.597 0-2.725.303-4.072.795l-1.047-3.181c1.621-.714 3.219-1.182 5.722-1.182 2.284 0 3.934.605 4.981 1.645 1.1 1.097 1.598 2.718 1.598 4.694v8.533h-4.044v-1.593c-1.019 1.125-2.422 1.867-4.456 1.867-2.778 0-5.063-1.593-5.063-4.5zm9.604-.96v-.742c-.716-.33-1.65-.548-2.669-.548-1.787 0-2.891.713-2.891 2.032v.056c0 1.125.938 1.783 2.284 1.783 1.954 0 3.276-1.069 3.276-2.577zm6.486-2.141v-.057c0-4.911 3.219-7.6 6.712-7.6 2.228 0 3.607 1.015 4.594 2.193v-7.246h4.181V99.95h-4.181v-2.112c-1.019 1.37-2.422 2.387-4.594 2.387-3.437 0-6.712-2.69-6.712-7.601zm11.363 0v-.057c0-2.443-1.622-4.06-3.58-4.06-1.956 0-3.602 1.592-3.602 4.06v.057c0 2.443 1.65 4.06 3.603 4.06s3.579-1.617 3.579-4.06m7.116-12.706h4.404v3.705h-4.404zm.11 5.322h4.18v14.707h-4.18zm6.567 7.436v-.056c0-4.226 3.412-7.654 8.006-7.654s7.954 3.375 7.954 7.601v.057c0 4.226-3.413 7.653-8.007 7.653s-7.95-3.375-7.95-7.6zm11.831 0v-.056c0-2.17-1.569-4.061-3.878-4.061-2.308 0-3.825 1.839-3.825 4.008v.057c0 2.17 1.57 4.06 3.878 4.06 2.309 0 3.825-1.838 3.825-4.008"/></g></svg>