<svg xmlns="http://www.w3.org/2000/svg" xml:space="preserve" style="fill-rule:evenodd;clip-rule:evenodd;stroke-linejoin:round;stroke-miterlimit:1.41421" viewBox="-1.56 0.59 300.76 67.69"><path d="M22.901 67.02q-1.708-1.002-1.707-3.517v-25.9h7.535v-9.749h-7.535V6.955H7.229v20.898H1v9.749h6.229v25.931c0 5.88.686 9.642 2.059 11.275q2.06 2.46 11.101 2.461h8.841V67.72h-2.612c-1.675.001-2.911-.232-3.717-.7M61.683 28.453q-3.718-2.51-11.152-2.51-7.437.002-11.551 2.309-5.126 2.915-5.125 9.242v5.312h13.564v-5.211q-.001-1.408.686-2.107a2.25 2.25 0 0 1 1.675-.706q1.178-.001 1.769.706.588.7.589 2.107v4.803c0 3.509-3.128 4.535-9.393 7.552-6.263 3.01-9.394 7.398-9.394 11.955v7.222q0 4.525 2.614 6.731 2.61 2.211 8.84 2.211c2.546 0 4.504-.188 5.877-.552q2.057-.551 3.066-2.46v2.209h12.356v-39.27q-.002-6.627-4.421-9.543m-9.546 36.956q.001 1.307-.652 1.962c-.437.436-.987.65-1.657.65q-1.207.001-1.858-.65-.655-.657-.653-1.962v-4.308q-.001-1.605 1.006-2.612 1.002-1.005 3.814-1.709z" style="fill:#fff200;fill-rule:nonzero" transform="translate(-2.274)scale(.71134)"/><path d="M73.339 6.941h13.964V77.27H73.339z" style="fill:#fff200" transform="translate(-2.274)scale(.71134)"/><path d="M132.621 27.854h-15.272l-8.141 18.286V6.941H95.246V77.27h13.962V59.087l8.642 18.183h16.375l-12.856-25.043zM162.404 39.393q-3.737-3.821-7.975-8.14-3.032-3.235-3.031-6.676v-6.572q-.001-1.112.629-1.618.625-.506 1.887-.505 1.044 0 1.725.557c.453.369.682.896.682 1.567v10.026h13.966v-9.13q-.002-5.526-3.516-8.746c-2.748-2.475-6.9-3.717-12.458-3.717-6.431 0-11.119 1.243-14.067 3.717-2.545 2.147-3.817 5.459-3.817 9.946v7.941q.001 3.914 3.536 8.435.805 1.007 7.47 8.039a485 485 0 0 0 7.574 7.973q1.313 1.712 1.312 4.638v8.376q0 1.212-.729 1.817-.726.603-2.183.605-1.247 0-2.132-.656-.883-.656-.882-1.769V52.256h-13.966v13.056c0 3.283 1.107 6.025 3.315 8.238q4.421 4.522 13.965 4.521 10.048 0 14.269-3.818 3.618-3.314 3.619-10.25v-8.941q-.001-4.52-2.931-8.638-1.418-2.009-6.262-7.031M206.56 8.348q-3.618-1.407-13.565-1.407h-15.07V77.27h14.971V51.347c18.893 0 20.291-8.172 20.291-12.459V19.397q.003-8.536-6.627-11.049m-8.341 29.303q0 2.637-1.982 3.444-.733.308-3.34.306V16.889q2.4 0 3.445.402 1.876.812 1.876 3.344v17.016zM249.56 9.954q-4.322-3.515-13.16-3.516c-6.433 0-11.087 1.243-13.965 3.717-2.549 2.147-3.818 5.459-3.818 9.946v45.311q-.001 6.231 4.923 9.443c3.279 2.147 7.536 3.218 12.76 3.218q7.837 0 12.709-3.317 4.87-3.313 4.869-9.443V20.001q-.001-6.526-4.318-10.047M238.908 66.21q0 1.006-.626 1.562c-.414.369-1.08.553-1.982.553q-1.36 0-2.04-.553-.677-.555-.677-1.562V18.101q0-1.111.677-1.612.68-.508 2.04-.507c.902 0 1.568.167 1.982.507q.626.502.626 1.612zM332.945 6.941h-32.651v10.852h8.643V77.27h15.368V17.793h8.64zM292.308 10.338q-4.272-3.396-11.903-3.397h-19.09V77.27h15.369V48.212c1.538 0 2.743.188 3.617.553q1.308.554 1.31 3.166v12.477q.001.854.011 1.652v11.199h2.295q.002.007.003.007l5.832.004c-.002-.004-.007-.006-.007-.011h6.821V64.894c.012-.133.019-.267.012-.403V51.112q.001-3.722-1.396-5.835c-1.462-2.147-3.252-3.723-7.18-4.73 4.26-1.397 6.148-3.266 7.48-5.598.731-1.266 1.099-3.063 1.099-5.401V19.335c-.001-3.727-1.426-6.729-4.273-8.997M281.61 31.071q-.001 2.6-1.781 3.4-.733.3-3.144.301V15.883q2.305.001 3.615.547 1.31.552 1.31 3.148z" style="fill:#fff200;fill-rule:nonzero" transform="translate(-2.274)scale(.71134)"/><path d="M420.349 58.544c9.11-20.854-.408-45.147-21.267-54.259-20.855-9.109-45.147.411-54.259 21.267-9.11 20.856.412 45.148 21.266 54.259.635.274 1.271.537 1.911.778l-10.599 15.4 39.369-15.246.022-.013c10.176-3.738 18.873-11.463 23.557-22.186" style="fill:#fff;fill-rule:nonzero" transform="translate(-2.274)scale(.71134)"/><path d="M376.221 54.233s-4.581 3.292-5.098 7.034c0 0 3.009 4.771 5.81 7.293.455.201 4.518 2.563 13.615-.129l3.999-5.614c.003-.001-10.485 1.774-18.326-8.584M355.185 43.264s-.32 7.937 4.324 12.713l8.582 2.517s3.938-2.257 5.098-7.163c0 0-11.283 1.416-14.067-14.647zM348.732 42.942l2.387 1.998s3.6 6.364 4.322 12.649l-1.033 2.45c.002.001-4.877-5.996-5.676-17.097M376.37 72.854l-1.678 1.356s5.229 2.062 18.349-.29c0 0-1.425-1.295-3.595-1.535-2.633-.291-5.561 1.769-13.076.469" style="fill:#e2e2e2;fill-rule:nonzero" transform="translate(-2.274)scale(.71134)"/><path d="M416.938 50.062c-1.579 4.438-3.983 8.508-5.158 10.185-.826-1.113-.876-2.802-.876-2.802a46 46 0 0 1 .916-5.588v-.002q.002-.009.002-.021a.09.09 0 0 0-.09-.088c-.045 0-.082.027-.091.068-1.187 2.745-2.873 4.186-2.868 4.256-4.336 2.25-9.849 3.231-9.927 3.233-1.356-.792-2.423-1.627-3.259-2.46 0 0-.065-.089-.17-.084a.22.22 0 0 0-.213.217c0 .045.012.069.035.12 1.056 2.197 1.518 4.25 1.533 4.263-2.204 3.858-5.638 7.623-5.605 7.651a18.3 18.3 0 0 1-5.614 1.53v.002a.1.1 0 0 0-.097.098c0 .056.044.098.097.098h.006c3.613.093 5.896.858 5.896.858s1.778 1.1 3.515 2.539c-12.169 4.026-22.24.287-22.24.287s2.176-1.204 3.132-2.233a29 29 0 0 1 6.128-1.312v-.002a.123.123 0 0 0 .121-.124.124.124 0 0 0-.121-.125h-.005c-3.307-.202-5.603-1.098-5.62-1.128-3.167-2.301-6.241-7.959-6.249-8.074.284-1.208.758-2.33 1.323-3.345q.007-.009.012-.023 0-.001.003-.002l-.003-.002a.1.1 0 0 0 .007-.025.09.09 0 0 0-.095-.093.1.1 0 0 0-.058.02h-.002q-.006.008-.012.014c-1.861 1.926-3.773 1.708-3.798 1.686-3.334-.806-8.66-2.425-8.66-2.425-1.531-1.637-2.598-3.272-3.329-4.827q-.002-.007-.006-.012l-.002-.002a.1.1 0 0 0-.079-.043c-.053 0-.096.038-.096.085 0 .013.008.023.012.033.582 1.965.977 4.087.938 6.149l-1.477 3.422s-6.744-8.232-6.797-20.501l3.439 2.326s1.388 2.147 2.673 5.212a.13.13 0 0 0 .117.086c.07 0 .126-.058.126-.128a.1.1 0 0 0-.007-.038c-.825-3.871.177-6.662.197-6.734 2.089-4.266 4.08-6.86 4.191-6.985 1.543-.444 3.049-.49 4.442-.307h.01a.105.105 0 0 0 .104-.106.11.11 0 0 0-.066-.098c-2.543-1.084-3.089-2.762-3.089-2.787-.926-5.572.458-9.367.458-9.367.931-1.878 2.812-4.201 3.188-4.517.237-.199.157-.322-.097-.134-.254.193-4.596 3.375-4.596 3.375l-3.775-.655c1.594-2.6 4.362-5.333 6.873-7.39.45-.367.272-.564-.174-.261-9.527 6.819-15.483 18.199-14.825 30.764 1.027 19.586 17.735 34.633 37.321 33.604 16.16-.845 29.226-12.367 32.729-27.37.076-.544-.205-.227-.298.039" style="fill:#0a0a0a;fill-rule:nonzero" transform="translate(-2.274)scale(.71134)"/><path d="M366.56 15.876q.014.001.022-.01c3.146-1.936 5.95-2.052 5.971-2.077 3.753.843 7.635 1.882 8.656 2.237a9.15 9.15 0 0 1 1.625 3.743.165.165 0 0 0 .164.148c.088 0 .16-.068.166-.155.478-2.619 1.97-3.896 1.97-3.896 4.147-1.587 8.306-2.589 8.306-2.589 2.236.417 4.065 1.074 5.561 1.843q.002 0 .006.002a.1.1 0 0 0 .032.006c.05 0 .086-.04.086-.091.002-.035-.033-.069-.033-.069-2.536-1.668-4.615-3.073-4.615-3.073s-.214-1.367-.497-3.634a35.4 35.4 0 0 0-13.183-1.796 35.7 35.7 0 0 0-8.646 1.532l-.73 3.637c-.965 1.014-2.865 2.576-4.896 4.159h.002q-.017.013-.018.033c.002.028.025.05.051.05M401.983 17.109c2.664 2.288 3.354 4.627 3.374 4.627.759 3.818.682 8.455.611 9.94-1.29.931-2.469 1.642-3.54 2.18q-.006.004-.013.005l-.008.004h.001a.202.202 0 0 0 .095.381c.014 0 .022 0 .036-.002q0-.002.003-.003h.005c2.689-.427 4.648.354 4.699.374 3.154 3.075 4.925 7.218 4.925 7.218.67 2.505.722 4.69.444 6.545v.002c-.003.02-.019.082.077.082.031 0 .059-.02.07-.046 1.177-3.633 2.405-5.606 2.405-5.606s.429-1.157 2.955-2.592q-.006-.074-.009-.146a35.34 35.34 0 0 0-7.57-20.124c-.845.123-2.035.301-2.662.412-.853-.332-3.244-1.806-5.779-3.431l-.015-.009-.003-.002a.1.1 0 0 0-.046-.012.107.107 0 0 0-.109.109.14.14 0 0 0 .054.094M399.069 35.121h-.006q-.006.003-.013.002c-3.05.725-4.572-.19-4.572-.19s-9.819-7.289-9.783-7.291c-.809-1.602-1.274-3.037-1.502-4.307a.14.14 0 0 0-.137-.122.14.14 0 0 0-.138.124c-.312 2.542-1.272 4.419-1.253 4.419-5.429 3.287-10.077 7.687-10.077 7.687-1.931.248-3.544.266-4.89.138h-.021a.164.164 0 0 0-.052.321c2.359.963 3.899 2.248 3.899 2.248.878 4.812 2.933 10.39 3.915 11.945-.285 1.988-.723 3.564-1.238 4.817a.194.194 0 0 0 .175.283c.095 0 .136-.055.136-.055 1.536-1.779 2.972-2.812 2.972-2.812 7.249 1.563 13.736-.374 13.738-.346 1.219.323 2.244 1.106 3.094 2.091a.13.13 0 0 0 .107.056.124.124 0 0 0 .123-.123.1.1 0 0 0-.01-.052c-1.184-2.363-.96-4.187-.96-4.187 3.133-5.186 3.715-12.246 3.715-12.246a12.9 12.9 0 0 1 2.849-2.115.15.15 0 0 0 .097-.139.15.15 0 0 0-.148-.148q-.012-.002-.02.002" style="fill:#0a0a0a;fill-rule:nonzero" transform="translate(-2.274)scale(.71134)"/></svg>