<svg xmlns="http://www.w3.org/2000/svg" xml:space="preserve" id="svg80" x="0" y="0" viewBox="-0.09 -0.03 512.13 342.23"><style>.st0{fill:#f458b9}.st1{fill:#84df1b}.st2{fill:#ffc500}.st9{fill:#74d1dd}.st11{fill:#fff}.st13{fill:#efefef}</style><g id="g905" transform="translate(0 33.05)"><g id="_x23_f458b9ff" transform="translate(-64.083 -143.64)scale(1.0335)"><path id="path69" d="M112.2 323.2c3.2-1 6.7 1.9 6.4 5.2.1 3.2-3.5 5.6-6.5 4.7-2.3-.6-3.9-3-3.7-5.4 0-2.2 1.8-4 3.8-4.5" class="st0"/><path id="path71-5" d="M158.7 354.5c1.8-1.4 3.9-2.4 6.1-3.1 1.7 10.6 3.4 21.3 5.1 31.9-4.9.2-9.7-1.9-12.9-5.6-3.2-3.6-4.6-8.8-3.8-13.5.4-3.8 2.5-7.4 5.5-9.7" class="st0"/><path id="path73-1" d="M394.3 407.8c2.9-.7 6 1.5 6.2 4.5.5 2.9-2.1 5.6-5 5.6-2.9.1-5.5-2.7-5.2-5.6.1-2.2 1.9-4 4-4.5" class="st0"/><path id="path75-0" d="M321.5 417.9c3-.6 6.3.1 8.6 2 4.5 3.4 5.2 10.8 1.3 14.9-3.4 3.7-9.6 4.5-13.6 1.4-4-2.8-5.5-8.5-3.4-12.9 1.2-2.7 4.1-4.6 7.1-5.4" class="st0"/></g><g id="_x23_84df1bff" transform="translate(-64.083 -143.64)scale(1.0335)"><path id="path78" d="M222.9 359.8c5.2-1.7 10.3-3.8 15.2-6.2 2.7 11.4 8.9 22 17.5 30-6.1 7.3-16.1 11.2-25.5 9.4-6-11.2-8.7-23.2-7.2-33.2" class="st1"/><path id="path80" d="M438 378c4.1-1.2 8.9.6 11.2 4.1 2.1 3.1 2.4 7.3.7 10.7-2.2 4.1-7.3 6.2-11.8 5-2.7-.7-5-2.5-6.3-4.9-1.4-2.5-1.6-5.6-.8-8.4.9-3.3 3.8-5.7 7-6.5" class="st1"/><path id="path82" d="M146.8 386.7c3.2-.9 6.6 1.9 6.4 5.2.1 3.3-3.5 5.6-6.5 4.7-2.4-.7-4.1-3.3-3.6-5.7.1-2.2 1.8-3.8 3.7-4.2" class="st1"/><path id="path84" d="M271.7 411.2c2.4-.8 5.2 1.3 5.1 3.8.2 2.3-2.1 4.2-4.3 4-2.3 0-4.1-2.4-3.7-4.7.3-1.5 1.5-2.7 2.9-3.1" class="st1"/></g><g id="_x23_ffc500ff" transform="translate(-64.083 -143.64)scale(1.0335)"><path id="path41-7" d="M312.2 272.3c1.7-.5 3.6-.3 5.4-.4 1.7 0 3.3.4 4.9 1 .1 2.7 1 5.2 1.7 7.7.8 2.6 1.5 5.1 2.3 7.7-7.6-4.4-16.1-7.2-24.8-8 2.1-4 6.1-6.9 10.5-8" class="st2"/><path id="path43-2" d="M141.1 341c4.3-.9 8.9 1.2 11 5 1.9 3.5 1.8 8.1-.7 11.3-3.1 3.9-9.2 5.2-13.5 2.6-4.3-2.4-6.2-8.2-4.4-12.7 1.2-3.3 4.3-5.5 7.6-6.2" class="st2"/><path id="path45-5" d="M389.9 364.4c11.8-.5 23.5-2.6 34.5-7.1 3.4 5.9 4.3 13.1 3.1 19.7-1.1 6.1-4.6 11.7-9.6 15.3-4.5 3.4-10 5.6-15.7 5.9-4.8.3-9.6-.7-13.9-2.9.5-10.3 1.1-20.6 1.6-30.9" class="st2"/></g><path id="path30" d="M409.8 170.1c5.2 1.5 9.3 6.1 10.1 11.4.6 3.8 0 8-2.4 11.1-2.7 3.6-7.2 5.7-11.7 5.9z" style="fill:#ffc600"/><path id="path17" d="M410.8 206.7c1.8-.6 3.8-.3 5.2 1 1.9 1.6 2.4 4.7 1 6.8-.8 1.3-2.3 2-3.7 2.4-3 .5-6.1-2.1-6-5.1-.3-2.3 1.3-4.4 3.5-5.1" style="fill:#f659ba"/><g id="_x23_7ede0eff" transform="translate(-64.083 -143.64)scale(1.0335)"><path id="path2-6" d="M434.4 113.9c12.3-5.2 25.7-7.5 39-6.8 14.7.7 29.2 5.2 41.7 12.9 10.3 6.3 19.2 14.7 26.2 24.6 7.7 10.9 12.8 23.5 15 36.6 2.5 15.5.9 31.7-4.8 46.4-8.2 21.4-25.1 39.2-45.9 48.6-10.1 4.6-21.1 7.2-32.1 7.8-8.1.4-16.3-.3-24.2-2.1-6.2-8.7-14.6-15.7-24-20.7-7.5-4-15.7-6.9-24-8.6-7.7-8.9-13.4-19.4-16.9-30.6q-2.4-7.5-3.3-15.3c-.8-5.7-.5-11.4-.5-17.2 1-16.5 6.9-32.7 16.7-46.1 9.2-12.9 22.3-23.3 37.1-29.5" style="fill:#7ede0e"/></g><g id="_x23_f64fb6ff" transform="translate(-64.083 -143.64)scale(1.0335)"><path id="path5" d="M336.4 116.2c12.4-2 25.4-.1 36.6 5.5 9.8 4.9 18.2 12.5 24.1 21.8-9.8 13.4-15.7 29.5-16.7 46.1 0 5.7-.3 11.5.5 17.2q1.05 7.8 3.3 15.3c-8.3 6.8-18.4 11.3-29.1 12.9-15.3 2.4-31.4-1.5-43.9-10.4-9.2-6.5-16.5-15.6-20.8-26-4.4-10.6-5.6-22.6-3.6-33.9.1-.5 0-1-.1-1.5.1-.1.4-.3.5-.4 2.4-11.5 8.4-22.1 16.8-30.3 8.9-8.6 20.3-14.4 32.4-16.3" style="fill:#f64fb6"/></g><g id="_x23_ffc300ff" transform="translate(-64.083 -143.64)scale(1.0335)"><path id="path8-4" d="M90 133.3c12.6-9.8 28.5-15.3 44.5-14.9 10.2-.1 20.3 2.2 29.5 6.4 15.4 7 28.1 19.6 35.2 34.9 2.5 5.3 4.4 10.9 5.4 16.7 3.7 18-.1 37.4-10.1 52.8-7.1 11-17.1 19.9-28.9 25.7-12.6 6.2-27 8.6-40.9 6.8-14.2-1.8-27.8-8-38.5-17.5-12.6-11.1-21.1-26.6-23.5-43.2-1.8-12.1-.5-24.8 3.9-36.3 4.7-12.3 12.9-23.3 23.4-31.4" style="fill:#ffc300"/></g><g id="_x23_6cd0dcff" transform="translate(-64.083 -143.64)scale(1.0335)"><path id="path22" d="M216.2 164.4c10.4-7.9 23.5-12.2 36.6-12 12.1 0 24.1 3.9 34.1 10.8v.1c.1.5.2 1 .1 1.5-2 11.3-.9 23.2 3.6 33.9 4.3 10.4 11.6 19.5 20.8 26-2.3 11.1-7.8 21.6-15.7 29.7-8.2 8.5-19 14.6-30.7 17-7.1-8-16.3-13.9-26.3-17.5-10.8-3.9-22.5-5.2-33.9-4.6-4.6-5.9-8.1-12.7-10.1-19.9 10-15.4 13.8-34.8 10.1-52.8v-.9c3.3-4.2 7-8.1 11.4-11.3" style="fill:#6cd0dc"/></g><g id="_x23_74d1ddff" transform="translate(-64.083 -143.64)scale(1.0335)"><path id="path56-7" d="M128.7 305.4c3.3-1.1 6.9 1.7 6.7 5.1.1 3.4-3.8 5.8-6.9 4.5-2.3-.8-3.8-3.5-3.3-5.9.3-1.8 1.8-3.2 3.5-3.7" class="st9"/><path id="path58-9" d="M147.8 332.2c-4.8-6.7-6-15.5-3.8-23.3 1.2 1.9 2.4 3.8 4.1 5.2 3 2.6 7.1 4 11.1 3.7 1.5 8.2 2.8 16.5 4.2 24.8-6.3-1.4-12-5.1-15.6-10.4" class="st9"/><path id="path60-9" d="M434.5 352.3c3.9-2.5 9.4-1.6 12.5 1.8 2.7 2.8 3.5 7.1 2.3 10.7-1.5 4.4-6.3 7.1-10.8 6.6-3.9-.3-7.5-3.3-8.7-7-1.3-4-.1-9.1 3.7-11.4.4-.3.7-.5 1-.7" class="st9"/><path id="path62-5" d="M258.9 386.3c7.8 6.2 17 10.5 26.8 12.2-3.4 2.6-7.8 4.1-12.1 3.7-4.6-.4-8.9-2.8-11.6-6.5-2-2.7-3.1-6-3.1-9.4" class="st9"/><path id="path64-1" d="M316.8 395.8c5-1.8 9.6-4.3 13.9-7.3-.2 2.2-.7 4.5-.4 6.7.4 3.3 1.8 6.4 4 8.8-2.6 2.4-6.3 3.6-9.7 2.7-4.8-1-8.3-6-7.8-10.9" class="st9"/><path id="path66-2" d="M246.6 401.1c3.5-.9 7.2 2.2 6.9 5.8.1 3.2-3 5.7-6.1 5.3-3.2-.1-5.7-3.2-5.2-6.3.1-2.4 2.1-4.3 4.4-4.8" class="st9"/></g><g id="_x23_3c4abfff" transform="translate(-64.083 -143.64)scale(1.0335)"><path id="path25" d="M174.2 255.5c9.8-3.4 20.1-5.7 30.5-6.3 11.5-.7 23.1.7 33.9 4.6 10 3.6 19.3 9.5 26.3 17.5 3.5 4 6.4 8.5 8.4 13.3 8.9-3.7 18.7-5.2 28.3-4.3 8.7.8 17.2 3.6 24.8 8-.8-2.6-1.5-5.1-2.3-7.7-.7-2.5-1.7-5-1.7-7.7-.2-4.5 1.8-9.1 5.3-12 2.6-2.3 6-3.1 9.2-4.2 13-4.1 26.7-6.1 40.4-6.4 8 0 16 .7 23.8 2.3 8.3 1.8 16.5 4.6 24 8.6 9.4 5 17.8 12 24 20.7 3.8 5.3 6.7 11.2 8.3 17.5 2.1 7.6 2.3 15.8.3 23.4-1.5 5.7-4.3 11.1-7.9 15.8-4.2 5.4-9.6 9.9-15.4 13.5-.3.2-.7.4-1 .6-3 1.6-6 3.2-9.1 4.4-10.9 4.5-22.7 6.5-34.5 7.1-.5 10.3-1.1 20.6-1.6 31 0 5.2-2.8 10.2-7.1 13-3 1.9-6.5 3-10.1 2.8-8.8-.7-17.7-1.4-26.5-2-3.8-.4-7.5-2.2-10.1-5-2.2-2.4-3.6-5.5-4-8.8-.3-2.3.1-4.5.4-6.7-4.3 3-9 5.5-13.9 7.3-9.9 3.7-20.8 4.5-31.1 2.7-9.8-1.7-19.1-6-26.8-12.2-1.1-.9-2.2-1.8-3.2-2.8-8.6-8-14.8-18.5-17.5-30-4.9 2.4-10 4.5-15.2 6.2l7.2 33.1c.7 6.1-2.6 12.4-8 15.3q-1.8 1.05-3.9 1.5l-25.6 5.4c-3.4.8-7.2.5-10.4-.9-4.8-2-8.4-6.5-9.3-11.6l-13.8-84.8c-4 .3-8.1-1.1-11.1-3.7-1.7-1.4-3-3.3-4.1-5.2-3.1-5-6.3-9.9-9.4-14.9-2-3.5-3-7.7-1.9-11.6.8-3.3 2.9-6.3 5.6-8.3 10.8-8 23.1-14 35.8-18.5" style="fill:#3c4abf"/></g><g id="_x23_ffffffff" transform="translate(-64.083 -143.64)scale(1.0335)"><path id="path34-3" d="M184.6 264.5c14.3-4.1 29.8-5.3 44.3-1.7 10.3 2.5 20.2 7.6 27.4 15.7 4 4.5 7 9.8 8.6 15.6-8.5 5.9-15.3 14.1-19.4 23.5-3 6.9-4.6 14.4-4.6 21.9-8.6 5.4-18.1 9.2-27.9 11.8-1 .3-1.9.5-2.9.8-.1.3-.2.6-.1.9l8.9 40.5c.6 2.5-1.2 5.2-3.7 5.6l-25.9 5.4c-2.2.5-4.5-1.1-4.8-3.3L168 301.5l-.1.1c-1.9 1.2-3.7 2.5-5.6 3.8-1.1.7-2.5 1.2-3.9 1.1-1.7 0-3.3-1.1-4.1-2.5-2.9-4.6-5.8-9.2-8.7-13.9-1-1.6-1.4-3.6-.5-5.3 1-2.4 3.4-3.6 5.5-5 10.4-6.7 22-11.9 34-15.3m10.7 22.3c-.6.1-.8.8-.6 1.3L205 333c7.9-.9 15.8-4.1 21.3-9.9 3.8-4.1 6.4-9.5 6.7-15.2.2-4.8-1.6-9.6-4.7-13.2-4-4.8-9.9-7.7-16-8.8-5.6-1-11.5-.6-17 .9" class="st11"/><path id="path36-0" d="M365.3 261.9c15.9-1.6 32.3-.3 47.2 5.7 10.6 4.3 20.5 11.1 27.3 20.4 4.3 5.8 7.2 12.7 8 19.8.8 6.6-.5 13.5-3.8 19.3-4.8 8.5-13 14.6-21.8 18.5-12.5 5.5-26.3 7.2-39.9 7h-3.9l-2.7 42.8c-.4 1.9-2 4.1-4.2 3.8l-26.2-2.2c-1.9-.1-3.6-1.4-4.2-3.2-.5-1.3-.1-2.6 0-3.9l2.6-22.1c.1-.1.2-.4.6-1 7.4-12.8 9.2-28.5 5.1-42.7-.2-.5-.3-.7-.4-.9 1.1-9.5 2.7-22 3.7-31.1-2.8.9-5.7 2.2-8.8 2.2-2.2.1-4.4-1.4-5-3.5l-4.2-14.8c-.5-1.6-.9-3.2-.4-4.9.6-2 2.4-3.3 4.3-3.9 8.8-2.7 17.7-4.4 26.7-5.3m15 71.8c.2 0 .5.1.9.1 6.1.8 12.5.3 18.3-2 5-1.9 9.5-5.4 12.3-10 2.8-4.3 3.7-9.7 2.5-14.7-1.3-5.7-5.1-10.6-9.8-14-6.1-4.4-13.7-6.5-21.1-6.6h-.9z" class="st11"/><path id="path38" d="M291.6 290.3c11.3-1 22.9 1.8 32.3 8.2 8.1 5.4 14.6 13.3 18.3 22.4 5.4 12.9 4.9 28.2-1.4 40.7-4.8 9.8-13 17.8-22.8 22.5-11.4 5.6-25 6.5-37.1 2.5-8.7-2.8-16.5-8.1-22.4-15-6.7-7.8-10.8-17.7-11.6-27.9-1.1-12.4 2.7-25.1 10.5-34.8 8.1-10.5 20.8-17.4 34.2-18.6m4.4 14.5c-7.6 1.2-14.3 7-16.4 14.4-1.5 5.1-.9 10.9 1.7 15.6 2.3 4.1 6 7.4 10.3 9.2 5.5 2.2 12 1.9 17.3-.8 3.7-1.9 6.8-5 8.7-8.7 2.7-5.2 3-11.6.8-17-2.1-5.2-6.4-9.5-11.6-11.5-3.4-1.5-7.2-1.8-10.8-1.2" class="st11"/></g><g id="_x23_ffda0cff" transform="translate(-64.083 -143.64)scale(1.0335)"><path id="path87" d="M294.9 407.9c2.1-.6 4.6.4 5.7 2.3 1.3 2.1.9 5.2-1.1 6.6-1.8 1.5-4.7 1.5-6.5 0-2.1-1.7-2.5-5.2-.8-7.2.8-.9 1.7-1.4 2.7-1.7" style="fill:#ffda0c"/></g><g id="_x23_efefefff" transform="translate(-64.083 -143.64)scale(1.0335)"><path id="path11" d="M481.8 142.2c2.4-.5 5.1-.9 7.4.3 3 1.5 4.7 4.6 5.9 7.6 2.2 5.7 3 11.9 3.6 18 .8 9.9 1.6 19.7 2.4 29.6 1.2 13.4 1.5 27.2-2.2 40.3-2.4 8.6-7 16.9-14 22.6-2.1 1.9-4.7 2.8-7.3 3.9-6.3 2.6-13.2 3.7-20 3.2-6.4-.5-12.6-2.9-17.6-7-7-5.7-11.4-13.8-14.6-22.1-.7-3.1-.6-6.7 1.6-9.2 2.2-2.6 5.5-3.8 8.7-4.5 2-.5 3.8.9 5.3 2.2 3.8 3.6 6.3 8.2 8.9 12.7 2.6 3 6.4 4.9 10.3 4.9 5.2 0 10.7-1.5 14.5-5.2 4.2-4 6.3-9.9 6.8-15.6.6-4.7.2-9.5-.3-14.3-3.3 1.4-6.7 2.6-10.2 3.4-3.1.7-6.3.8-9.5 1.1-6.2.4-12.4-1.9-16.9-6.2-6.2-5.7-9.8-13.6-12.5-21.5-1-2.8-1.5-5.7-2.1-8.5-.8-4.4-1.4-8.9-1.6-13.4-.1-3.6.2-7.4 2.3-10.4 1.6-2.4 4.5-3.8 7.4-3.9 3.2.3 6.5 1.6 8.3 4.4 1.5 2.2 1.9 4.8 2.3 7.4 1.1 4.8.8 9.7 1.7 14.5.8 4.2 2.7 8.2 6.1 11 2.8 2.3 6.3 3.9 10 3.8 2.8-.7 5.6-2 7.7-4.2 1.8-1.8 2.9-4.2 3.3-6.7.6-3.5.2-7.1-.5-10.5-.8-4.3-1.6-8.5-2.4-12.8-.3-3.4-.5-7 1.1-10.1 1.2-2.6 3.5-4.2 6.1-4.8" class="st13"/><path id="path13-9" d="M321.8 152.5c.9-2 3.2-2.8 5.2-3.1 1.9-.2 4-.1 5.6 1.1 1.5 1 2.4 2.6 3.1 4.1 6.6-1.7 13.8-1.8 20 1 4.3 1.9 7.8 5.5 9.7 9.7 1.1 2.1 1.5 4.5 1.9 6.9 1.1 6.4.2 12.8.2 19.2-.2 3.1.2 6.6-1.6 9.3-1.6 2.5-5 3-7.7 2.4-1.9-.4-3.5-1.7-4.2-3.5-1.1-2.7-1.1-5.7-.7-8.6.4-3.9.9-7.8 1.3-11.8.3-3.3-.2-6.9-2.3-9.6-1.8-2.4-4.8-3.5-7.6-3.9-1.9-.3-4 .1-5.3 1.5-1.4 1.5-2 3.6-2.2 5.6-.3 3.3-.5 6.5-.8 9.8-.5 4.5-.2 9-.4 13.6-.4 2.4-1.7 5-4.2 5.7-2.1.5-4.4.4-6.4-.4-2.2-.7-4.3-2.6-4.1-5.1.4-7.7.9-15.5 1.3-23.2.4-4.9-.3-9.8-1.1-14.6-.2-2-.5-4.2.3-6.1" class="st13"/><path id="path15-9" d="M126.2 153.1c.6-.9 1.4-1.9 2.6-2 .9-.1 2.5-.1 3.7-.1 1.1 0 2.3.1 3.3.8 2.2 1.2 3 3.9 3.3 6.3.5 5-1 9.9-1.7 14.8 3 .4 6 .8 8.9 1.2 3.1.5 6.4 1.1 9.1 2.8 1.7 1.1 3 2.9 3.1 5 .1 1.9-.1 3.9-1.5 5.3-1.5 1.6-3.7 2.2-5.7 2.5-5.6.7-11.3-.2-16.8-1.4-.7 4.6-1.5 9.2-2.3 13.7-.5 4.1-.4 8.7 2.4 12.1.8 1.2 2.3 1.6 3.7 1.6 2.3-.3 3.6-2.5 4.5-4.5.8-2.3 2.3-4.4 4.3-5.8 3.1-2.2 7.6-.5 9.1 2.8 1.1 2.1 1.5 4.5 1.6 6.9-.3 3.8-2.7 7-5.4 9.5-2.2 2-4.7 3.8-7.3 5.2-2.5 1-5.2 1.5-8 1.6-5.1-.2-10.3-2-13.8-5.8-3.4-3.5-5.1-8.4-5.8-13.1q-.75-5.25-.3-10.5c.6-5.3.8-10.6 1.6-15.9-4.2-.6-8.6-1.3-12.4-3.4-1.8-1-3.5-2.7-3.8-4.9-.1-2.1.3-4.3 1.8-5.8 1.5-1.4 3.5-2 5.5-2.2 3.9-.5 7.8.4 11.7.8.4-3.5 1-7 1.9-10.4.7-2.4 1.4-4.9 2.7-7.1" class="st13"/><path id="path17-3" d="M248.2 178.1c1.8-.3 3.5.2 5.2.9 1.7.8 3.1 2.4 3.4 4.3.3 2.2-.1 4.5-1.2 6.4-1.5 2.4-4.8 3.3-7.5 2.6-2.3-.4-4.7-1.7-5.7-4-.9-2.2-.9-4.8.2-6.8 1.2-2 3.5-3 5.6-3.4" class="st13"/><path id="path19-4" d="M249.2 200.5c1.9-.3 4.1-.2 5.6 1.1 2 1.7 2.8 4.3 3.1 6.8.8 11.1 1.5 22.1 2.2 33.2.2 2.3-.4 4.6-1.6 6.5-2 3-6.8 3.1-9.4.8-1.7-1.4-2.4-3.6-2.6-5.7-.9-11.2-1.8-22.4-2.4-33.6-.2-2.3.2-4.6 1.3-6.6.9-1.2 2.2-2.2 3.8-2.5" class="st13"/></g></g></svg>