<svg xmlns="http://www.w3.org/2000/svg" fill="none" viewBox="0 0.05 50 47.27"><g fill="#fff" clip-path="url(#a)"><path d="M9.141.05H6.063v8.313H0v2.85h6.063v20.319s-.356 11.264 11.761 6.852l-.552-2.708s-8.123 3.71-8.123-4.184v-20.28h10.467l.024 27.156s-.008.252 0 .687c.016 1.831-.687 6.567-6.939 4.925l-.552 2.803s10.585 3.71 10.585-8.391v-27.18l16.167-.007.008-2.842H9.157V.051z"/><path d="M47.798 33.056s-2.936 3.489-8.446 3.489c-5.123 0-12.117-3.94-12.117-12.654 0-8.723 6.994-12.67 12.117-12.67 5.51 0 8.446 3.49 8.446 3.49l2.203-2.046s-3.237-4.31-10.65-4.31c-6.527 0-15.187 4.334-15.187 15.52s8.66 15.52 15.188 15.52c7.412 0 10.649-4.31 10.649-4.31z"/></g><defs><clipPath id="a"><path fill="#fff" d="M0 0h50v47.368H0z"/></clipPath></defs></svg>