<svg xmlns="http://www.w3.org/2000/svg" viewBox="0 0 264.58 48.33"><path d="M45.957 82.728h2.808v6.74h-4.494c-6.01 0-10.223-2.923-10.223-9.549V67.841h-4.944v-2.527L39.777 54.64h1.517v7.135h7.471v6.066h-7.302v10.393c0 3.537 1.877 4.494 4.494 4.494M65.091 60.91c-8.645 0-14.921 6.03-14.921 14.67 0 8.741 6.644 14.62 14.57 14.62 8.342 0 14.896-5.994 14.896-14.745 0-8.85-7.312-14.546-14.545-14.546m-.326 7.134c3.555 0 7.323 2.135 7.323 7.436 0 4.365-3.012 7.674-7.323 7.674-3.828 0-7.146-3.175-7.146-7.398 0-4.41 2.886-7.712 7.146-7.712M94.953 60.894c-7.908 0-13.62 6.248-13.62 13.956 0 8.531 6.211 13.867 13.656 13.867 4.737 0 7.704-2.619 7.704-2.619 0 3.387-1.59 7.59-6.743 7.59-5.292 0-6.413-3.658-6.413-3.658h-7.453c1.029 6.248 6.722 10.127 13.803 10.127 7.037 0 13.828-3.98 13.828-13.156V61.718h-4.775l-1.102 2.722s-3.352-3.546-8.885-3.546m.759 6.824c3.848 0 6.958 3.401 6.958 7.034 0 3.409-2.676 7.223-7.009 7.223-4.3 0-6.861-3.637-6.861-7.09 0-3.956 2.804-7.167 6.912-7.167M126.393 60.877c-8.568 0-14.204 6.753-14.204 14.63 0 7.689 5.251 14.594 14.08 14.594 9.292 0 13.21-7.334 13.5-9.901h-7.729s-1.307 3.214-5.753 3.214c-5.594 0-6.65-5.742-6.65-5.742h20.693c.923-10.92-6.371-16.795-13.937-16.795m-.16 6.543c5.525 0 6.757 5.196 6.757 5.196h-13.058s.904-5.196 6.302-5.196M171.226 89.469h-7.47V51.832h7.47v12.413s2.675-3.272 8.17-3.272c7.244.06 9.975 5.84 9.975 11.081V89.47H181.9V72.616c0-2.597-1.756-4.91-4.81-4.91-3.567 0-5.864 2.926-5.864 6.595zM206.12 60.877c-8.569 0-14.205 6.753-14.205 14.63 0 7.689 5.251 14.594 14.08 14.594 9.292 0 13.21-7.334 13.5-9.901h-7.729s-1.307 3.214-5.753 3.214c-5.594 0-6.65-5.742-6.65-5.742h20.693c.923-10.92-6.371-16.795-13.937-16.795m-.16 6.543c5.524 0 6.756 5.196 6.756 5.196h-13.058s.905-5.196 6.302-5.196M230.21 89.469h-7.134V61.662h4.71l1.472 3.527c1.714-2.787 5.183-4.238 10.477-3.552v6.094c-6.076-.38-9.525 1.073-9.525 7.694z" style="opacity:1;fill:#fff;fill-opacity:1;stroke:none;stroke-width:.14043701;stroke-linecap:butt;stroke-linejoin:round;stroke-miterlimit:2.61310005;stroke-dasharray:none;stroke-opacity:1" transform="translate(-29.104 -51.832)"/><path d="M256.893 89.469h-6.741V67.84h-7.584v-6.235h21.909v6.235h-7.584zM277.06 89.469l-10.572-27.863h7.774l5.944 18.438 5.853-18.438h7.629l-10.313 27.863z" style="opacity:1;fill:#eb7010;fill-opacity:1;stroke:none;stroke-width:.14043701;stroke-linecap:butt;stroke-linejoin:round;stroke-miterlimit:2.61310005;stroke-dasharray:none;stroke-opacity:1" transform="translate(-29.104 -51.832)"/><path d="M157.635 82.728h2.809v6.74h-4.494c-6.01 0-10.224-2.923-10.224-9.549V67.841h-4.944v-2.527l10.674-10.674h1.516v7.135h7.472v6.066h-7.303v10.393c0 3.537 1.878 4.494 4.494 4.494" style="opacity:1;fill:#fff;fill-opacity:1;stroke:none;stroke-width:.14043701;stroke-linecap:butt;stroke-linejoin:round;stroke-miterlimit:2.61310005;stroke-dasharray:none;stroke-opacity:1" transform="translate(-29.104 -51.832)"/></svg>