<svg xmlns="http://www.w3.org/2000/svg" xml:space="preserve" fill="#fff" viewBox="0 0 500 153.55"><path d="M276.196 29.034V0H0v153.547h276.196v-29.002h-6.723l-.006 22.37H6.711V6.632h262.716v22.402Z"/><path fill="#f4aa00" d="M183.146 81.205V46.308h-20.18v35.593c0 2.834-.214 4.948-1.943 6.792-1.578 1.566-3.486 2.19-5.743 2.19-1.348 0-3.718-.216-5.73-2.19-.617-.606-1.127-1.451-1.479-2.402-.352-.95-.566-2.51-.566-4.39V46.308h-20.02v35.123c0 4.859.558 8.61 1.618 11.701s2.788 5.743 4.996 7.952c2.21 2.208 5.076 3.975 8.61 5.212s7.625 1.926 12.484 1.926c4.86 0 9.162-.69 12.696-1.926 3.534-1.237 6.41-3.004 8.619-5.212 2.208-2.21 3.926-4.86 4.987-7.952s1.651-7.067 1.651-11.927M229.774 107.268V91.365h-24.296v-7.067h22.087V68.66h-22.087v-6.626h23.413V46.308h-43.292v60.96ZM299.736 100.6l-5.743-15.901c-2.382 2.285-6.99 5.563-14.6 5.563-3.453 0-6.603-1.013-8.899-2.715-3.14-2.328-5.042-6.068-5.042-10.952 0-4.353 1.39-8.083 4.226-10.61 2.32-2.067 5.614-3.349 9.716-3.349 6.03 0 11.248 3.366 13.718 5.306l5.311-16.833c-3.501-2.561-7.46-3.969-11.026-4.751-4.019-.881-7.554-.957-9.382-.957-8.66 0-16.28 2.497-22.02 7.177-6.58 5.366-10.616 13.61-10.616 24.282 0 6.97 1.737 12.949 4.82 17.762 5.617 8.769 15.778 13.673 27.87 13.673 3.8 0 7.019-.444 9.727-1.138 6.881-1.762 10.471-5.089 11.94-6.557M356.83 107.268l-13.699-23.162c3.9-2.275 6.334-4.933 7.923-8.09 1.575-3.132 2.17-6.36 2.23-10.271-.034-4.023-1.035-7.168-2.668-9.855-1.963-3.23-4.657-5.42-7.735-6.878-4.476-2.122-9.542-2.704-14.582-2.704H301.57v60.96h19.988v-20.32h2.55l9.72 20.32Zm-23.718-40.64c0 1.836-.609 2.975-1.774 3.887-1.198.937-2.325 1.414-5.36 1.414h-4.529V61.327h5.036c1.302 0 2.747.159 3.884.815.388.224 1.172.737 1.704 1.365.654.773 1.039 1.742 1.039 3.121ZM377.814 107.268v-60.96h-19.968v60.96ZM453.706 107.268l-3.535-60.96H424.55l-7.775 33.13-7.686-33.13h-25.622l-3.534 60.96h19.614l.706-34.897 7.952 34.897h17.228l7.952-34.897.707 34.897ZM500 107.27V91.365h-24.298v-7.068h22.09V68.66h-22.09v-6.627h23.414V46.307h-43.293v60.962ZM72.172 61.857V46.308h-48.68v15.55h14.312v45.41h19.967v-45.41Z"/><path fill="#f4aa00" d="m129.446 107.268-13.7-23.162c3.9-2.275 6.334-4.933 7.923-8.09 1.575-3.132 2.17-6.36 2.23-10.271-.034-4.023-1.035-7.168-2.668-9.855-1.963-3.23-4.657-5.42-7.735-6.878-4.476-2.122-9.542-2.704-14.582-2.704H74.185v60.96h19.988v-20.32h2.55l9.72 20.32Zm-23.72-40.64c0 1.836-.608 2.975-1.773 3.887-1.198.937-2.325 1.414-5.36 1.414h-4.529V61.327H99.1c1.302 0 2.747.159 3.884.815.387.224 1.172.737 1.704 1.365.654.773 1.039 1.742 1.039 3.121Z"/></svg>