<svg xmlns="http://www.w3.org/2000/svg" width="708.097" height="129.507" viewBox="0 0 708.097 129.507"><path fill="#a9dbd2" d="M6.889 0h45.925a6.89 6.89 0 0 1 6.889 6.889v89.553c0 7.609 6.168 13.777 13.777 13.777 7.61 0 13.778-6.168 13.778-13.777V6.889A6.89 6.89 0 0 1 94.147 0h45.925a6.89 6.89 0 0 1 6.889 6.889v52.813c0 47.557-21.33 68.887-68.888 68.887h-9.185C21.33 128.59 0 107.26 0 59.702V6.89A6.89 6.89 0 0 1 6.889 0M657.463 112.964c-16.181 0-25.907-9.182-26.634-27.634h76.54c.454-3.091.728-6.456.728-9.999 0-28.726-18.18-45.634-50.817-45.634-34.268 0-53.177 17.635-53.177 49.36v1.182c0 32.179 18.818 49.268 52.815 49.268 29.271 0 47.087-11.272 51.179-32.179l-25.817-2.636c-2.454 12.18-11.09 18.272-24.817 18.272m.364-66.813c13.999 0 23.363 7.635 23.363 19.361v.092c0 3.09-1.364 4.454-5.091 4.454h-44.907c2-15.454 11.455-23.907 26.635-23.907M606.177 31.878h-49.088v15c13.727 0 15.09 1.273 6.91 19.907l-8.274 18.727c-2.09 4.635-4.817 11.544-8 20.453h-1.908c-3-8.817-5.817-16.18-7.818-20.817l-12.453-27.726c-4.09-9.271-2.909-10.545 10.635-10.545V31.878h-49.997v15c7.456 0 8.454.727 11.91 8.636L530 127.326h32.452l31.816-71.812c3.455-7.909 4.455-8.637 11.909-8.637ZM481.223 105.51V61.967c0-21.363-15.363-32.271-44.907-32.271-30.27 0-51.36 11.635-51.36 27.907 0 7.817 5.18 12.181 16.544 12.181 9 0 14.363-2.727 14.363-7.817 0-3.728-2.818-4.09-2.818-7.455 0-5.726 8.545-9.999 21.089-9.999 14.09 0 20.636 5.272 20.636 16.544v7.091l-26.273 4.364c-26.361 4.453-44.541 12.09-44.541 32.087v.365c0 15.454 11.09 24.542 30.998 24.542 21.726 0 37.542-9.635 43.634-26.451l1.908.454c-3.727 18.362.182 25.997 17.817 25.997 4 0 8-.544 11.09-1.363l2.908-15.544c-9.362.817-11.088-.182-11.088-7.09M454.77 86.783c0 15.452-13.273 26.27-29.181 26.27-9.272 0-14.726-3.817-14.726-10.454v-.364c0-9.543 9.09-14.18 26.544-17.18l17.363-3ZM316.89.063h-65.813v14.998c11.362 0 12.272.638 12.272 8.636v79.994c0 8-.91 8.635-12.272 8.635v15h65.814c39.816 0 59.722-21.18 59.722-63.359v-.363q.001-63.54-59.722-63.54m31.907 66.995c0 28.543-10.544 41.452-33.453 41.452h-25.179V18.789h25.18c22.908 0 33.452 13 33.452 41.633Z"/><path fill="#a9dbd2" d="M227.744 109.078c3.178-3.734 10.396-15.782 12.56-24.237.777-3.029-1.288-6.02-4.414-6.02h-12.716a6.72 6.72 0 0 0-6.415 4.698c-.374 1.196-3.04 8.094-4.91 10.608L200.134 83c4.592-2.785 15.542-9.593 15.542-22.545 0-6.202-2.655-20.48-26.256-20.486-23.59-.005-27.255 13.246-27.255 20.486 0 11.569 6.102 17.346 7.712 19.19-3.454 1.767-16.497 8.993-16.012 23.606.909 27.388 37.697 31.24 57.101 17.895l2.767 2.85a10.93 10.93 0 0 0 7.84 3.312h15.134c3.635 0 5.416-4.428 2.794-6.945ZM189.068 55.04c4.982.004 6.024 3.498 5.886 5.416-.397 5.547-4.65 8.634-6.887 9.89-1.375-1.256-5.363-5.09-5.18-9.125.099-2.195.972-6.185 6.18-6.18m-10.62 50.286c-3.406-7.614 2.881-12.351 3.967-13.023l14.6 14.834c-2.162 2.162-15.113 5.906-18.567-1.81" opacity=".7"/></svg>