<svg xmlns="http://www.w3.org/2000/svg" viewBox="0 0 685.48 128.59"><path d="M286.433.005h-33.926v127.332h33.926c25.285 0 37.11-13.641 37.11-42.837V43.116c0-29.376-11.825-43.111-37.11-43.111m11.733 91.136c0 11.278-4.093 16.46-13.278 16.46h-7.277V19.744h7.277c9.185 0 13.278 5.183 13.278 16.643ZM384.806 63.218V61.76c11.824-2.363 18.192-11.004 18.192-24.83V29.02c0-19.01-10.825-29.014-31.926-29.014h-37.2v127.332h25.104V71.856h5.73c7.093 0 8.308 2.866 10.277 16.919l5.276 38.562h24.132l-5.032-41.2c-1.818-15.734-4.912-20.102-14.553-22.919m-6.73-20.647c0 7.186-2.91 10.278-9.368 10.278h-9.732V19.743h9.732c6.458 0 9.368 3 9.368 10.367ZM433.469.005l-23.194 127.332h24.286l2.546-18.19h23.648l2.637 18.19h26.377L466.03.005Zm6.73 91.316 4.549-27.285c1.454-13.28 2.546-22.738 3.274-36.2h1.908c.82 13.462 1.912 22.92 3.367 36.29l4.457 27.195ZM555.165 39.479c-2.729 17.19-4.638 30.742-6.64 51.386h-1.636c-1.911-20.644-4.003-34.106-6.913-51.386L530.153.005h-33.289v127.332h23.921l-.092-54.57c0-10.369-.272-21.19-1.09-34.015l2.001-.182 15.734 88.767h20.192l16.098-88.678 1.91.182c-.908 12.824-1.273 23.557-1.273 33.926l-.272 54.57h24.649V.005h-33.928ZM661.735.005h-32.561L605.98 127.337h24.285l2.546-18.19h23.649l2.637 18.19h26.378Zm-25.83 91.316 4.548-27.285c1.456-13.28 2.546-22.738 3.274-36.2h1.91c.819 13.462 1.91 22.92 3.365 36.29l4.457 27.195ZM6.889 0h45.925a6.89 6.89 0 0 1 6.889 6.889v89.553c0 7.609 6.168 13.778 13.778 13.778 7.609 0 13.777-6.17 13.777-13.778V6.889A6.89 6.89 0 0 1 94.148 0h45.925a6.89 6.89 0 0 1 6.888 6.889v52.813c0 47.556-21.33 68.887-68.888 68.887h-9.185C21.331 128.59 0 107.26 0 59.702V6.889A6.89 6.89 0 0 1 6.889 0" style="fill:#b986ff"/><path d="M227.745 109.081c3.18-3.735 10.398-15.782 12.562-24.237.775-3.029-1.288-6.02-4.415-6.02h-12.715a6.72 6.72 0 0 0-6.416 4.698c-.374 1.196-3.04 8.094-4.91 10.608l-11.714-11.127c4.591-2.785 15.54-9.594 15.54-22.545 0-6.202-2.653-20.48-26.254-20.486-23.591-.005-27.256 13.246-27.256 20.486 0 11.569 6.102 17.346 7.712 19.19-3.454 1.767-16.498 8.993-16.012 23.606.909 27.387 37.696 31.24 57.101 17.896l2.767 2.848a10.93 10.93 0 0 0 7.84 3.313h15.135c3.634 0 5.416-4.429 2.794-6.945ZM189.07 55.042c4.982.004 6.024 3.498 5.886 5.416-.396 5.547-4.65 8.634-6.887 9.89-1.374-1.256-5.363-5.09-5.18-9.125.1-2.195.972-6.185 6.18-6.18m-10.62 50.286c-3.407-7.614 2.881-12.351 3.967-13.023l14.6 14.834c-2.162 2.161-15.113 5.905-18.566-1.811" opacity=".7" style="fill:#b986ff"/></svg>