<svg xmlns="http://www.w3.org/2000/svg" viewBox="0 0 825.21 172.73"><path fill="#c3eb50" d="M6.889 42.482h45.925a6.89 6.89 0 0 1 6.889 6.889v89.552c0 7.61 6.168 13.778 13.778 13.778 7.609 0 13.777-6.168 13.777-13.778V49.371a6.89 6.89 0 0 1 6.89-6.89h45.925a6.89 6.89 0 0 1 6.888 6.89v52.813c0 47.556-21.33 68.887-68.888 68.887h-9.185C21.331 171.07 0 149.74 0 102.184V49.37a6.89 6.89 0 0 1 6.889-6.89"/><path fill="#c3eb50" d="M227.745 151.563c3.18-3.735 10.398-15.782 12.562-24.237.775-3.03-1.288-6.02-4.415-6.02h-12.715a6.72 6.72 0 0 0-6.416 4.697c-.374 1.197-3.04 8.095-4.91 10.609l-11.714-11.127c4.591-2.785 15.54-9.594 15.54-22.546 0-6.202-2.653-20.48-26.254-20.485-23.591-.005-27.256 13.246-27.256 20.485 0 11.57 6.102 17.347 7.712 19.19-3.454 1.767-16.498 8.994-16.012 23.607.909 27.387 37.696 31.24 57.101 17.895l2.767 2.848a10.93 10.93 0 0 0 7.84 3.313h15.135c3.634 0 5.416-4.428 2.794-6.944ZM189.07 97.524c4.982.004 6.024 3.498 5.886 5.415-.396 5.548-4.65 8.635-6.887 9.89-1.374-1.255-5.363-5.09-5.18-9.124.1-2.195.972-6.185 6.18-6.181m-10.62 50.286c-3.407-7.614 2.881-12.351 3.967-13.023l14.6 14.834c-2.162 2.16-15.113 5.905-18.566-1.811" opacity=".7"/><path fill="#c3eb50" d="M501.78 0v34.563c0 6.548.45 12.772 1.42 18.673.97 5.902 2.545 12.639 4.728 20.077l-2.424 1.054c-2.648-6.718-6.1-12.555-10.354-17.406-7.07-8.063-14.748-11.517-18.914-13.133-6.717-2.606-14.287-3.926-22.855-3.926-12.127 0-22.255 2.462-30.582 7.313-8.546 5.027-13.854 12.188-17.1 18.469-5.135 9.938-7.832 22.617-7.832 38.85v3.03c0 13.835 1.915 24.464 5.365 33.319 4.022 10.32 10.13 17.756 17.729 22.746 9.167 6.019 20.238 8.478 32.52 8.478 8.044 0 16.229-1.323 22.939-3.91 5.32-2.115 9.785-4.826 13.389-7.824 8.708-7.245 12.967-16.164 15.494-22.379l2.57.858c-.672 2.093-2.084 6.82-3.572 12.732-1.441 5.722-2.651 12.133-2.92 18.19h35.652V0Zm-34.975 61.475c7.521 0 13.9 1.606 19.076 4.841q7.885 4.854 11.889 14.317c2.669 6.228 4.003 14.11 4.003 23.25v4.289q0 13.587-4.003 23.05c-2.67 6.31-6.689 11.08-11.946 14.315q-7.764 4.732-19.047 4.733c-7.7 0-13.45-1.536-18.384-4.61q-7.401-4.61-11.163-13.832c-2.507-6.228-3.78-13.951-3.78-23.172v-5.459c0-13.83 2.901-24.336 8.392-31.18 5.661-7.036 13.791-10.542 24.963-10.542M694.025 169.774V42.444h35.385q0 7.155-1.455 14.43-1.455 7.276-5.093 18.07l2.425 1.09c3.719-8.084 7.965-14.753 13.139-20.008 5.255-5.336 11.418-9.317 18.29-11.904 6.953-2.668 14.935-3.957 23.747-3.957 9.702 0 17.829 1.51 24.458 4.583q10.065 4.608 15.158 13.703c3.396 6.064 5.132 13.442 5.132 22.335v88.988h-35.239v-80.47c0-8.247-2.111-14.472-6.234-18.676-4.123-4.284-10.348-6.375-18.675-6.375-7.357 0-13.744 1.828-19.16 5.627-5.336 3.72-9.46 9.155-12.37 16.107-2.83 6.953-4.244 15.22-4.244 24.759v59.028ZM617.334 172.734c-6.239 0-13.173-.358-20.274-1.559-5.052-.854-10.187-2.15-15.216-4.083-8.243-3.17-14.148-7.21-18.494-11.26-14.36-13.379-16.41-31.189-17.043-38.69-.278-3.287-.306-6.608-.306-10.158v-1.695c0-6.869.116-11.426 1.443-18.469.925-4.905 2.596-10.23 5.026-15.167 1.905-3.87 4.401-7.811 7.73-11.556 8.602-9.677 19.832-14.66 29.23-17.227 9.103-2.486 18.646-3.327 28.025-3.327 5.928 0 11.355.443 16.607 1.276 7.319 1.161 14.085 3.13 19.946 5.9 10.067 4.68 17.697 11.519 22.89 20.475 3.086 5.273 5.259 11.297 6.514 17.889.858 4.504 1.288 9.258 1.288 14.276 0 4.518-.336 10.947-1.02 16.06H580.2V93.643h68.898c.034-4.328-.165-7.013-.761-10.06-2.097-10.72-8.102-15.46-11.929-17.714-2.626-1.546-5.428-2.595-8.194-3.291-3.278-.825-7.575-1.25-10.705-1.25-3.667 0-7.021.298-9.98.89-7.596 1.519-12.983 4.82-16.789 8.972-8.321 9.079-9.115 22.274-9.115 30.068l.025 10.24c0 6.196.485 12.966 2.9 19.512 2.524 6.841 7.343 13.122 15.13 16.652 4.675 2.12 10.54 3.377 17.895 3.377a50.6 50.6 0 0 0 9.807-.935c4.685-.91 9.438-2.877 13.239-6.087 2.629-2.22 4.805-5.057 6.603-8.793 1.298-2.697 2.289-5.816 2.928-9.435l35.017 3.65c-3.715 19.271-15.108 29.7-27.182 35.464-3.94 1.88-8.1 3.32-12.264 4.419-6.01 1.585-12.03 2.429-17.413 2.889-4.132.353-7.89.523-10.976.523M321.022 172.549c-6.238 0-13.173-.358-20.273-1.559-5.052-.854-10.188-2.15-15.217-4.083-8.242-3.17-14.147-7.21-18.493-11.26-14.36-13.379-16.41-31.189-17.043-38.69-.278-3.287-.306-6.608-.306-10.158v-1.695c0-6.869.115-11.426 1.443-18.469.924-4.905 2.596-10.23 5.026-15.167 1.905-3.87 4.4-7.811 7.73-11.556 8.601-9.677 19.832-14.66 29.23-17.227 9.102-2.486 18.646-3.327 28.024-3.327 5.929 0 11.355.443 16.608 1.276 7.318 1.161 14.085 3.13 19.946 5.9 10.067 4.68 17.697 11.519 22.89 20.475 3.086 5.273 5.258 11.297 6.514 17.889.858 4.504 1.288 9.258 1.288 14.276 0 4.518-.336 10.947-1.021 16.06H283.889V93.458h68.898c.034-4.328-.166-7.013-.762-10.06-2.097-10.72-8.102-15.46-11.928-17.714-2.626-1.546-5.428-2.595-8.194-3.291-3.278-.825-7.576-1.25-10.705-1.25-3.667 0-7.021.298-9.98.89-7.597 1.519-12.983 4.82-16.79 8.972-8.32 9.079-9.114 22.274-9.114 30.068l.025 10.24c0 6.196.485 12.966 2.9 19.512 2.524 6.841 7.343 13.122 15.13 16.652 4.675 2.12 10.54 3.377 17.894 3.377a50.6 50.6 0 0 0 9.808-.935c4.685-.91 9.437-2.877 13.239-6.087 2.628-2.22 4.805-5.057 6.603-8.793 1.298-2.697 2.288-5.816 2.927-9.435l35.018 3.65c-3.715 19.271-15.108 29.7-27.182 35.464-3.94 1.88-8.1 3.32-12.265 4.419-6.01 1.585-12.03 2.429-17.412 2.889-4.133.353-7.89.523-10.977.523"/></svg>