<svg xmlns="http://www.w3.org/2000/svg" viewBox="0 0 462.93 128.59"><path fill="#ce1235" d="M6.889 0h45.925a6.89 6.89 0 0 1 6.889 6.889v89.553c0 7.609 6.168 13.777 13.777 13.777 7.61 0 13.778-6.168 13.778-13.777V6.889A6.89 6.89 0 0 1 94.147 0h45.925a6.89 6.89 0 0 1 6.889 6.889v52.813c0 47.556-21.331 68.887-68.888 68.887h-9.185C21.33 128.59 0 107.26 0 59.702V6.889A6.89 6.89 0 0 1 6.889 0" style="fill:#ff194b"/><path fill="#ce1235" d="M227.743 109.078c3.18-3.735 10.397-15.782 12.562-24.237.776-3.03-1.289-6.02-4.416-6.02h-12.715a6.715 6.715 0 0 0-6.414 4.698c-.375 1.196-3.042 8.094-4.911 10.608L200.134 83c4.592-2.785 15.542-9.594 15.542-22.546 0-6.201-2.655-20.48-26.255-20.485-23.592-.005-27.256 13.246-27.256 20.485 0 11.57 6.101 17.347 7.711 19.19-3.453 1.768-16.496 8.994-16.01 23.607.908 27.388 37.695 31.24 57.1 17.895l2.767 2.848a10.93 10.93 0 0 0 7.838 3.314h15.136c3.635 0 5.416-4.428 2.794-6.945Zm-38.676-54.039c4.983.004 6.024 3.498 5.887 5.415-.397 5.548-4.65 8.635-6.887 9.89-1.375-1.255-5.363-5.09-5.18-9.124.098-2.195.972-6.185 6.18-6.18m-10.618 50.286c-3.408-7.614 2.88-12.351 3.967-13.023l14.598 14.834c-2.16 2.162-15.112 5.905-18.565-1.811" opacity=".7" style="fill:#ff194b"/><path fill="#ff194b" d="m407.74.053-8.637 54.003c-1.82 11.455-3.274 22.002-4.363 33.092h-2.092c-1.182-11.09-2.999-21.637-5.999-33.092L372.373.053h-46.367l-12.818 54.003a409 409 0 0 0-6.544 33.092h-1.91c-.638-11.09-2.275-22.182-4.273-33.092L290.642.053h-56.73l29.453 127.28h71.008l6.727-30.547c3-13.728 4.998-25.274 6.453-39.82h1.91c1.546 14.546 3.638 26.092 6.638 39.82l6.727 30.547h71.824L462.926.053Z"/></svg>