<svg xmlns="http://www.w3.org/2000/svg" viewBox="0 0 1030.76 132.03"><path d="M227.746 111.375c3.178-3.735 10.396-15.783 12.56-24.238.776-3.029-1.288-6.02-4.415-6.02h-12.715a6.715 6.715 0 0 0-6.414 4.698c-.376 1.196-3.041 8.094-4.91 10.608l-11.716-11.126c4.591-2.786 15.542-9.594 15.542-22.546 0-6.202-2.655-20.48-26.256-20.486-23.591-.005-27.255 13.246-27.255 20.486 0 11.57 6.102 17.346 7.711 19.19-3.453 1.767-16.497 8.994-16.01 23.606.908 27.389 37.695 31.24 57.1 17.896l2.766 2.848a10.93 10.93 0 0 0 7.84 3.314h15.136c3.634 0 5.415-4.429 2.794-6.945Zm-38.677-54.04c4.983.004 6.025 3.499 5.887 5.416-.396 5.547-4.65 8.634-6.887 9.89-1.374-1.256-5.363-5.09-5.18-9.125.1-2.195.971-6.184 6.18-6.18m-10.619 50.287c-3.407-7.614 2.88-12.352 3.968-13.024l14.6 14.835c-2.163 2.161-15.114 5.904-18.568-1.811" opacity=".7" style="fill:#6ee67d"/><path d="M278.084 30.37c-1.908 6.546-3.546 13.457-5.092 21.55h-1.818c-1.636-8.093-3.183-15.004-5.273-21.64l-9.548-27.916H225.8l31.007 80.471v46.827h29.097V82.835l31.006-80.47h-29.643ZM354.487 74.741h36.735v-20.82h-36.735V26.186h40.1V2.364h-69.288v127.298h71.015V105.84h-41.827ZM463.877 56.738l-13.004-7c-13.73-7.274-17.094-12.64-17.094-18.641 0-5.638 4.364-9.455 11.912-9.455 10.638 0 15.912 6.182 16.095 21.64l25.368-3.001C487.608 13.094 473.424 0 446.054 0c-25.641 0-39.735 12.093-39.826 34.827-.183 20.457 12.639 29.55 25.642 36.914l12.639 7.274c12.82 7.274 17.367 13.093 17.367 20.459 0 6.457-4.729 10.82-12.639 10.82-12.549 0-17.004-6.547-17.55-24.095l-27.005 3.455c-.273 28.823 15.184 42.372 43.191 42.372 27.006 0 42.644-13.82 42.644-37.643 0-22.004-13.73-30.643-26.64-37.645M495.274 26.187h26.46v103.475h29.097V26.187h26.37V2.364h-81.927ZM617.793 74.741h36.733v-20.82h-36.733V26.186h40.098V2.364h-69.286v127.298h71.015V105.84h-41.827ZM752.037 105.112 749.58 90.2c-2.456-14.912-6.002-19.55-17.096-22.824V65.74c14.277-2.364 22.096-11.82 22.096-27.096v-4.09c0-20.915-12.91-32.19-37.825-32.19H671.11v127.298h29.188V77.016h8.272c8.638 0 11.277 3.727 12.823 16.547l1.635 12.822c1.637 12.821 2.73 18.913 5.274 23.277h31.553l.362-2.455c-3.546-2.91-5.637-7.274-8.181-22.095m-26.37-61.739c0 8.092-3.728 11.82-11.639 11.82h-13.73V25.37h13.73c7.91 0 11.64 3.638 11.64 11.729ZM809.228 2.364h-40.646v127.298h40.646c30.914 0 45.645-17.186 45.645-53.101V55.648c0-36.099-14.731-53.284-45.645-53.284m16.094 82.653c0 14.821-5.548 21.64-17.64 21.64h-9.912V25.369h9.912c12.092 0 17.64 6.82 17.64 21.64ZM886.05 2.364l-29.825 127.298h28.097l3.456-18.094h31.915l3.455 18.094h30.824L923.603 2.364Zm6.093 88.29 6.364-29.823c1.91-11.276 3.365-20.55 4.273-31.37h1.91c1.091 10.82 2.637 20.094 4.456 31.37l6.274 29.823ZM1001.122 2.364l-9.183 28.006c-1.91 6.546-3.546 13.457-5.092 21.55h-1.819c-1.637-8.093-3.183-15.004-5.274-21.64l-9.548-27.916h-30.551l31.006 80.471v46.827h29.097V82.835l31.006-80.47Z" style="fill:#6ee67d"/><path fill="#6ce57b" d="M6.889 2.296h45.925a6.89 6.89 0 0 1 6.889 6.889v89.553c0 7.61 6.168 13.778 13.777 13.778 7.61 0 13.778-6.169 13.778-13.778V9.185a6.89 6.89 0 0 1 6.889-6.889h45.925a6.89 6.89 0 0 1 6.889 6.889v52.813c0 47.557-21.331 68.887-68.888 68.887h-9.185C21.33 130.885 0 109.555 0 61.998V9.185a6.89 6.89 0 0 1 6.889-6.889" style="fill:#6ee67d"/></svg>