<svg xmlns="http://www.w3.org/2000/svg" width="683" height="382" fill="none"><path fill="#fff" d="M444.283 164.031c-9.43-1.792-19.491-6.674-26.505-12.857l-5.333-4.702 14.245-14.355 4.029 3.536c6.999 6.146 16.112 9.721 24.861 9.748 8.701.026 13.561-2.09 15.897-6.924 3.074-6.361-1.775-12.654-12.85-16.679-25.992-9.449-31.442-12.768-35.581-21.657-6.58-14.136-.815-29.537 13.402-35.804 16.789-7.396 37.595-4.853 52.612 6.433l7.286 5.473-6.723 6.784c-3.698 3.73-6.989 6.784-7.318 6.784-.326 0-3.149-1.92-6.274-4.267-12.177-9.15-27.692-9.388-31.082-.475-2.339 6.153 2.224 10.292 16.554 15.02 24.208 7.986 32.814 15.329 35.191 30.024 1.527 9.434-3.787 21.589-11.883 27.183-9.823 6.788-26.075 9.49-40.516 6.742zm91.352.413c-10.432-1.841-19.053-7.737-22.545-15.428-2.896-6.372-2.656-17.733.518-24.552 5.949-12.778 22.677-20.715 51.364-24.374l10.666-1.36-.251-4.07c-.331-5.367-3.231-10.14-7.786-12.817-2.894-1.7-5.431-2.147-11.694-2.06-8.935.124-13.225 1.629-20.531 7.204l-4.807 3.67-13.595-13.814 4.267-3.737c11.006-9.641 28.811-14.611 43.994-12.287 15.942 2.441 26.404 9.929 31.43 22.5 2.27 5.676 2.398 7.638 2.75 42.481l.37 36.533h-22.548v-9.872l-3.467 2.81c-5.548 4.498-11.184 7.113-18.78 8.723-7.733 1.639-12.012 1.737-19.355.441zm26.46-20.867c9.407-4.686 14.075-12.593 14.075-23.841 0-5.091.178-5.053-13.145-2.73-16.592 2.893-24.454 7.154-27.353 14.823-1.66 4.392.367 9.872 4.608 12.457 5.098 3.108 14.789 2.793 21.815-.709m83.83 20.931c-10.552-2.253-17.091-6.916-21.555-15.371l-2.88-5.461-.619-93.733 10.956-10.994c6.025-6.047 12.08-11.49 12.087-11.04.008.53.51 7.963.51 17.643v17.6h29.949l-.616 18.668-29.333.593v55.559l3.118 3.118c2.564 2.564 4.01 3.119 8.141 3.119 3.273 0 6.312-.797 8.72-2.286l3.697-2.285 14.189 14.291-3.2 2.704c-8.194 6.924-22.124 10.23-33.164 7.875"/><path fill="#E40A22" d="M381.732 0H0v381.732h381.732z"/><path fill="#fff" d="M174.236 322.772c-1.466-.262-5.548-.975-9.067-1.586-27.511-4.769-53.745-21.894-71.433-46.639l-4.018-5.624 18.46-18.909c10.151-10.401 18.791-19.052 19.196-19.226.311.363 1.896 2.63 4.713 6.792 12.446 22.253 34.643 34.794 58.658 33.15 29.496-2.023 48.756-22.953 47.244-51.364-.569-10.843-4.49-19.744-12.597-28.6l-5.688-6.213 37.64-37.641 3.897 3.703c6.055 5.752 15.95 18.512 20.05 25.848 15.859 28.407 15.391 65.046-1.206 94.639-6.841 12.193-23.852 29.367-36.026 36.371-18.331 10.541-32.788 14.695-53.329 15.33-7.627.235-15.066.213-16.532-.048zm-.279-138.86c-9.234-9.249-16.789-17.288-16.789-17.87 0-1.348 101.065-102.463 101.783-101.82.283.267 8.243 8.145 17.688 17.503l17.174 17.015-50.986 50.986c-28.036 28.04-51.212 50.986-51.515 50.986s-8.103-7.567-17.336-16.812zM92.64 59.906h156.775l-47.962 47.999h-60.85z"/></svg>