<svg xmlns="http://www.w3.org/2000/svg" width="94" height="95" fill="none" viewBox="0 0 94 95"><path fill="#7e171d" d="m67.104 10.66 8.908 41.211-18.693-.367-2.979-12.486-23.61-.019-6.599 13.199-18.856.064-.184.669 6.43 15.801c-.789.013-1.578.01-2.368 0-.427-1.243-.927-2.459-1.364-3.698-2.406.068-7.071-.168-7.071-.168S26.249 77.7 39.09 83.942c.052-3.965.024-7.933.011-11.899-1.333-.028-2.665-.008-3.997-.014v-1.977c3.426-.056 6.857-.029 10.284-.011q.01.995-.001 1.991c-1.334.004-2.667-.019-3.999.014.01 4.361-.023 8.722.016 13.082l17.749 9.127L71.661 68.86c-6.899 1.367-12.204-6.101-8.9-12.218 2.905-5.884 11.85-5.711 14.771.077l15.656-32.127zM21.49 68.732c-2.016-2.178-3.977-4.415-6.059-6.531-.052 2.181.03 4.365-.043 6.545a86 86 0 0 0-2.148 0c-.063-5.403-.027-10.808-.01-16.212 0 0 6.33-.737 8.586 1.51 2.782 2.968.834 7.947-3.201 8.337 1.936 2.173 4.006 4.228 5.982 6.365-1.037-.015-2.072.001-3.107-.014m12.794-14.089c-2.015.02-4.028-.015-6.042.019a180 180 0 0 0-.001 4.817c2.014.03 4.026.013 6.039.008q.004 1.058.001 2.117c-2.01.047-4.021.01-6.031.019q-.053 2.494.001 4.989c2.01 0 4.021-.033 6.031.014q0 1.06-.004 2.122a1080 1080 0 0 0-8.249-.004c.015-5.401.02-10.802-.003-16.203 2.752-.02 5.504-.011 8.257-.005q-.002 1.053.001 2.107m1.253 14.085c2.693-4.739 5.67-9.32 8.38-14.05-2.524-.07-5.051-.009-7.576-.031q-.006-1.058.001-2.113c3.784 0 7.567-.023 11.349.011-2.712 4.727-5.703 9.304-8.378 14.05 2.629.034 5.259-.02 7.887.027.03.708.031 1.417-.009 2.126-3.882-.028-7.768.01-11.654-.02m17.412 17.218h-.164l-7.161-15.898h2.6l4.639 10.544 4.658-10.544h2.619zm-.851-19.336c2.653-.001 5.305-.026 7.957.011.03.707.031 1.417-.008 2.126q-5.863-.021-11.726.001c2.799-4.699 5.683-9.352 8.442-14.075-2.527-.057-5.053-.006-7.58-.028a35 35 0 0 1 .003-2.112c3.785-.005 7.569-.013 11.354.004-2.769 4.717-5.656 9.366-8.442 14.073"/><path fill="#7e171d" d="M69.032 54.493c3.199-.59 6.444 1.689 6.959 4.903.062.299-.02.601-.151.871-.812 1.629-1.595 3.272-2.387 4.909-.207.401-.364.893-.806 1.096-2.863 1.464-6.596.077-7.93-2.818-1.809-3.583.298-8.24 4.315-8.961M15.417 54.539c1.749.018 4.117-.413 5.124 1.413.478.885.509 2.011.082 2.921-.981 1.852-3.422 1.603-5.207 1.577q-.001-2.954.001-5.911M4.216 55.908l3.016 7.142-5.932-.055M41.091 24.137c.107-.221.388-.244.579-.133.434.229.804.57 1.154.918.279.273.437.639.585.998.127.376.446.614.689.904.092.1.077.251.084.38-.012.527-.091 1.055-.018 1.58.113.821.411 1.61.851 2.304-.096.329-.222.647-.348.966a3 3 0 0 1-1.331-.318c-1.291-.623-2.742-.619-4.121-.859-.579-.097-1.151.175-1.73.078-.414-.082-.793-.307-1.103-.596-.255-.241-.378-.583-.507-.905.339-.083.68-.17 1.029-.184.652-.026 1.294.122 1.942.168.385.027.781.005 1.156.12.376.111.738.265 1.119.356.762.206 1.558.225 2.34.158-.157-.713-.706-1.21-1.027-1.837-.545-1.007-.999-2.076-1.268-3.198-.057-.293-.145-.601-.075-.9"/><path fill="#7e171d" d="M56.002 15.318a14 14 0 0 1-.292-.162c-.392.669-.878 1.271-1.371 1.863-.71-1.621 1.39-2.597 1.092-4.166-.543.9-1.234 1.683-2.002 2.385-.225-1.442.701-2.559 1.593-3.526-1.624.563-2.803 2.45-2.495 4.221.75 2.751 2.122 6.978-1.782 7.734-1.379-3.666-6.573-4.59-6.888-8.813.652.244 1.371.337 1.953.75.315.2.628.499 1.027.416-.378-.466-.814-.879-1.243-1.294.348.201.705.386 1.081.525-.267-.818-1.102-1.089-1.8-1.395 1.184.17 2.612 1.368 3.544.034-1.806.692-1.574-.464-3.191-.875.773-.1 1.54.036 2.306.128-.455-.509-1.053-.803-1.678-1.023.721.114 1.393.58 2.137.353l-.027-.285c-.788-.177-1.491-.598-2.233-.907.295.066.591.128.886.198a15 15 0 0 0-.14-.468 9 9 0 0 1 1.472.844l.144-.202c-.537-.924-1.563-1.298-2.161-2.149.929.076 1.687 1.169 2.624.549-1.135-.369-1.692-1.521-2.708-2.115.774.462 1.476 1.029 2.206 1.555l.223-.187c-.829-.829-1.303-1.952-2.161-2.751.785.31 1.603.564 2.45.581q-.034-.163-.063-.327a7.9 7.9 0 0 1-1.8-.834 5.06 5.06 0 0 1 2.247.294c-.894-1.322-1.906-.396-2.994-1.857.867.454 1.876.449 2.645 1.12-.117-.976-1.056-1.228-1.746-1.674a10 10 0 0 0-1.018-.688c.453-.149.908-.322 1.268-.653-1.814-.445-1.259.267-3.154-.843-.869-.002-1.359-.633-1.94-1.195h-.089a3.4 3.4 0 0 0-.235 1.164l-.318.053c.221-.522-.046-.912-.499-1.154-.088.21-.171.421-.259.63q.13.145.258.293c-1.497-.317-.943.142-2.052.505l-.074.248c.635-.041 1.287-.018 1.872.271-1.069.643-2.1 1.517-3.391 1.534-.896 1.414-1.324 2.705.876 1.838q-.438.253-.895.473l-.05.333c.461.057.916-.037 1.355-.174.901-.172 1.793.287 2.708.241-.221 1.809-1.259 3.33-2.525 4.533-.347.77-1.043 1.131-1.676 1.604-.428.473-.82.712-1.381.282-.814-.365-1.492-.933-2.219-1.438-1.666-.758-2.198 1.429-2.412 2.689-.47 1.911-1.576 4.054-.802 6.006 1.742-.65.802-2.22.758-3.561.312 1.459.684 2.903.952 4.371.055.376.276.686.516.96.424.489.612 1.147 1.066 1.611 1.083 1.224 1.49-.768 1.033-1.581-.266-.396-.76-.558-.994-.985-.493-.749-.581-1.669-.88-2.5-.112-.365-.337-1.008.159-1.162.689.347 1.372.726 2.055 1.091.632.689 1.402 1.017 2.328.975 1.012 3.099 6.047 3.963 6.287 6.332.194.154.368.342.58.47.291.112.527-.01.712-.264a2.5 2.5 0 0 0 .287-.581q.062-.166.107-.34.025-.091.047-.184c.076-.339.124-.688.175-1.028l.214-.029c-.187.448-.28.927-.37 1.403-.111.622-.579 1.081-.776 1.668a3.4 3.4 0 0 0-.133.56q-.013.085-.023.169c-.066.579.01 1.16.177 1.725.156.445.371.869.541 1.308.201.381.427.744.657 1.08.636.615.298 1.189-.184 1.765-.467.671-1.003 1.271-1.722 1.655-1.23.846.057 1.566.54 1.979.765-1.026 1.419-2.143 2.356-3.02 1.59-1.064 1.724-1.18.71-2.932-.561-2.044 2.911-2.2 3.535-6.289.418.936-.141 2.058.431 2.932.123-.655.122-1.345.404-1.959.445 1.362-.894 2.424-.549 3.773l.323-.024c.479-1.79 1.887-2.863.888-4.915.778.705.367 1.922 1.033 2.692l.124-.089c-.053-1.009.232-2.104-.312-3.015 2.297-.832 2.612-3.535 1.984-5.662-.421-1.28.373-2.344.761-3.491M44.638 9.45c.082-.162.382-.047.275.131-.082.162-.379.046-.275-.131m-12.511 6.077c-.573.132-.808.759-1.083 1.225.08-.299.13-.623.317-.876.289-.309.72-.457.952-.828.152-.328.171-.702.316-1.033.358-.058.557.305.753.547.32.471.765.823 1.189 1.189-.819-.027-1.621-.328-2.444-.224"/><path fill="#7e171d" d="M44.8 7.258c-.138.088.012.32.142.214.137-.088-.013-.319-.142-.214M44.74 7.926q.018.222.183.077-.02-.221-.183-.077M44.714 8.431l-.001.083.069.042.07-.041.001-.083-.07-.042zM44.802 8.813c-.18-.019-.209.285-.013.262.18.021.209-.284.013-.262M44.613 9.439c-.123.209.228.346.325.155.126-.211-.229-.347-.325-.155M44.525 9.854c-.114.146.13.318.227.166.113-.146-.131-.319-.227-.166M44.413 10.461l-.033.083.034.084.081.033.081-.035.033-.084-.034-.083-.081-.034z"/></svg>