<svg xmlns="http://www.w3.org/2000/svg" xml:space="preserve" id="Livello_1" x="0" y="0" viewBox="0 0 789.3 283.6"><style>.st0{fill:#fff}.st3{fill:#0099ce}</style><path d="M365.9 271.2h207.5v7.4H365.9z" class="st0"/><path d="M366.2 278.6H158.7l3.2-7.4h204.3z" style="fill:#009939"/><path d="M573.3 271.2h207.5v7.4H573.3z" style="fill:#ce3232"/><path d="M83.7 102.2H39.3l-6.6 14H4.6v-4.1L55.2 5h12.4l50.8 107v4.1H90.3zM61.3 48.7 48.6 77.9h25.7zM217 9.3l-46.2 81.5h46.6v25.4h-89.9v-4.3l46-81.5h-41.8V5H217zm98.3 0-46.2 81.5h46.6v25.4h-89.9v-4.3l46-81.5H230V5h85.2v4.3zm80.1 69.4V5h27.5v74.2c0 24.5-21.4 38.6-44.5 38.6-23 0-44.7-14.1-44.7-38.6V5h27.5v73.7c0 9.1 8.8 13.5 17.2 13.5 8.3 0 17-4.4 17-13.5m150.5 33.4v4.1h-32.2l-19.3-32.7h-15v32.7h-28.8V5H500c44.2.2 52.3 52.8 23.8 71.8zm-45.8-81.7c-6.8-.2-13.8 0-20.6 0v27.8h20.6c15.6 0 16.4-27.6 0-27.8m158.2 81.7v4.1h-32.2l-19.3-32.7h-15v32.7H563V5h49.4c44.2.2 52.3 52.8 23.8 71.8zm-45.8-81.7c-6.8-.2-13.8 0-20.6 0v27.8h20.6c15.6 0 16.4-27.6 0-27.8m133.3 71.8h-44.4l-6.6 14h-28.1v-4.1L717.3 5h12.4l50.8 107v4.1h-28.1zm-22.4-53.5-12.7 29.2h25.7z" class="st3"/><path d="M130.6 276.6 85.5 174.3h-9.9v102.3h-37V174.3H6.5v-33.9h102.9l29.7 71.8 29-71.8h35.5v7.5l-56.2 128.7z" class="st0"/><path d="M201.6 142.4v5l-55.4 127.1H132L86.9 172.3H73.6v102.3h-33V172.3H8.5v-29.9H108l30.6 73.9h.9l29.9-73.9zm4-4h-38.8l-1 2.5-26.7 66-27.3-66-1-2.5H4.5v37.9h32.1v102.3h41V176.3h6.6l44 99.9 1.1 2.4h19.4l1-2.4L205.2 149l.3-.8v-9.8zM285.5 229.5v26.4h-59.6v-26.4h14.9v-65H227v-26.2h57.2v26.2h-13.8v65zm8-64.3v-26.9h87.3v26.9h-28.7v90.6h-29.7v-90.6zm165.9 75.9H413l-6.9 14.8h-29.4v-4.4l52.9-113.1h12.9l53 113.1v4.4h-29.4zM436 184.5l-13.3 30.9h26.9zm105.1 44.3h42.6v27h-72.9V138.3H541c.1 60.8.1 40.5.1 90.5m113.1.7v26.4h-59.6v-26.4h14.9v-65h-13.8v-26.2h57.2v26.2h-13.8v65zm90.2 11.6H698l-6.9 14.8h-29.4v-4.4l52.9-113.1h12.9l53 113.1v4.4h-29.4zM721 184.5l-13.3 30.9h26.9z" class="st3"/></svg>