<svg xmlns="http://www.w3.org/2000/svg" width="337" height="131" fill="none"><mask id="a" width="338" height="131" x="-.323" y="-.118" fill="#000" maskUnits="userSpaceOnUse"><path fill="#fff" d="M-.323-.118h338v131h-338z"/><path d="M1.677 2.882H33.56q7.97 0 12.22 3.948 4.285 3.947 4.285 9.775 0 4.887-3.045 8.384-2.031 2.33-5.94 3.685 5.94 1.428 8.722 4.925 2.82 3.46 2.82 8.723 0 4.286-1.993 7.707a14.7 14.7 0 0 1-5.451 5.414q-2.144 1.242-6.467 1.805-5.753.752-7.632.752H1.677zM18.86 24.5h7.407q3.986 0 5.527-1.353 1.58-1.391 1.58-3.985 0-2.407-1.58-3.76-1.541-1.353-5.414-1.354h-7.52zm0 21.657h8.685q4.399 0 6.204-1.542 1.805-1.58 1.805-4.21 0-2.445-1.805-3.91-1.767-1.505-6.241-1.505h-8.648zM74.504 31.005l-14.626-1.542q.827-3.835 2.37-6.015 1.578-2.219 4.51-3.835 2.106-1.166 5.79-1.805 3.685-.64 7.971-.64 6.88 0 11.054.79 4.174.753 6.956 3.196 1.955 1.692 3.083 4.813 1.128 3.083 1.128 5.903v17.633q0 2.82.338 4.437.376 1.578 1.579 4.06H90.295q-.865-1.542-1.128-2.331-.262-.827-.526-2.557-3.008 2.895-5.978 4.136-4.06 1.654-9.437 1.654-7.145 0-10.866-3.308-3.685-3.308-3.685-8.159 0-4.55 2.67-7.482t9.85-4.361q8.61-1.73 11.167-2.407a56 56 0 0 0 5.414-1.842q0-2.82-1.166-3.948-1.166-1.127-4.098-1.127-3.759 0-5.64 1.203-1.465.939-2.368 3.534m13.272 8.046a72 72 0 0 1-6.58 1.992q-4.662 1.242-5.903 2.444-1.278 1.241-1.278 2.82 0 1.805 1.24 2.97 1.28 1.128 3.723 1.128a9.4 9.4 0 0 0 4.737-1.24q2.22-1.242 3.12-3.008.941-1.804.94-4.662zM129.021 2.882v15.19h8.421v11.166h-8.421v14.174q0 2.557.488 3.384.753 1.278 2.632 1.278 1.692 0 4.737-.977l1.128 10.565q-5.677 1.24-10.602 1.24-5.715 0-8.422-1.466t-4.023-4.437q-1.278-3.007-1.278-9.7V29.238h-5.64V18.07h5.64V10.74zM163.234 2.882v15.19h8.422v11.166h-8.422v14.174q0 2.557.489 3.384.752 1.278 2.632 1.278 1.692 0 4.737-.977l1.128 10.565q-5.677 1.24-10.602 1.24-5.716 0-8.422-1.466-2.708-1.465-4.023-4.437-1.278-3.007-1.278-9.7V29.238h-5.64V18.07h5.64V10.74zM223.315 41.833h-30.679q.413 3.684 1.992 5.49 2.219 2.593 5.79 2.593 2.256 0 4.287-1.127 1.24-.715 2.669-2.52l15.077 1.392q-3.46 6.015-8.347 8.647-4.887 2.595-14.024 2.594-7.933 0-12.482-2.218-4.55-2.255-7.557-7.106-2.971-4.887-2.971-11.467 0-9.362 5.978-15.152 6.017-5.79 16.581-5.79 8.572 0 13.535 2.594 4.964 2.595 7.557 7.52t2.594 12.82zm-15.565-7.331q-.452-4.437-2.406-6.355-1.918-1.917-5.076-1.917-3.647 0-5.828 2.895-1.39 1.804-1.767 5.377zM230.497 18.071h14.324v6.542q2.068-4.249 4.249-5.827 2.219-1.617 5.451-1.617 3.384 0 7.407 2.105l-4.737 10.904q-2.707-1.128-4.286-1.128-3.007 0-4.662 2.481-2.369 3.497-2.369 13.084V58h-15.377zM265.124 2.882h15.302v10.414h-15.302zm0 15.19h15.302V58h-15.302zM304.15 31.005l-14.625-1.542q.827-3.835 2.369-6.015 1.578-2.219 4.511-3.835 2.106-1.166 5.79-1.805 3.685-.64 7.971-.64 6.88 0 11.054.79 4.173.753 6.955 3.196 1.955 1.692 3.083 4.813 1.128 3.083 1.128 5.903v17.633q0 2.82.339 4.437.375 1.578 1.579 4.06h-14.363q-.864-1.542-1.128-2.331-.262-.827-.526-2.557-3.008 2.895-5.978 4.136-4.06 1.654-9.437 1.654-7.143 0-10.866-3.308-3.684-3.308-3.684-8.159 0-4.55 2.669-7.482t9.851-4.361q8.61-1.73 11.166-2.407a55 55 0 0 0 5.414-1.842q0-2.82-1.165-3.948-1.166-1.127-4.098-1.127-3.76 0-5.64 1.203-1.466.939-2.369 3.534m13.272 8.046a72 72 0 0 1-6.579 1.992q-4.662 1.242-5.903 2.444-1.278 1.241-1.278 2.82 0 1.805 1.24 2.97 1.279 1.128 3.723 1.128a9.4 9.4 0 0 0 4.737-1.24q2.219-1.242 3.12-3.008.94-1.804.94-4.662zM2 69h34.006q8.502 0 13.033 4.228 4.572 4.229 4.572 10.47 0 5.235-3.249 8.98-2.164 2.496-6.336 3.946 6.336 1.53 9.304 5.275 3.008 3.705 3.008 9.343 0 4.59-2.126 8.255-2.125 3.664-5.815 5.798-2.285 1.33-6.897 1.933-6.136.806-8.14.806H2zm18.326 23.154h7.9q4.252 0 5.895-1.45 1.685-1.489 1.685-4.268 0-2.577-1.685-4.027-1.643-1.45-5.774-1.45h-8.02zm0 23.195h9.264q4.692 0 6.616-1.651 1.925-1.692 1.925-4.51 0-2.618-1.925-4.188-1.884-1.611-6.656-1.611h-9.224zM79.677 99.12l-15.6-1.65q.882-4.108 2.526-6.443 1.684-2.376 4.813-4.108 2.245-1.248 6.175-1.932 3.93-.685 8.502-.685 7.338 0 11.79.846 4.45.806 7.418 3.422 2.086 1.813 3.289 5.155 1.203 3.302 1.203 6.322v18.886q0 3.02.361 4.752.4 1.69 1.684 4.349H96.519q-.922-1.651-1.203-2.497-.28-.886-.561-2.738-3.209 3.1-6.376 4.429Q84.047 129 78.313 129q-7.619 0-11.59-3.544-3.93-3.543-3.93-8.738 0-4.872 2.848-8.013t10.507-4.671q9.183-1.852 11.91-2.578a59 59 0 0 0 5.774-1.973q0-3.02-1.243-4.228t-4.37-1.208q-4.011 0-6.016 1.289-1.565 1.006-2.526 3.785m14.155 8.618a76 76 0 0 1-7.017 2.134q-4.973 1.33-6.296 2.618-1.364 1.33-1.364 3.02 0 1.933 1.324 3.181 1.363 1.208 3.97 1.208 2.726 0 5.052-1.329 2.367-1.328 3.329-3.221 1.002-1.933 1.002-4.993zM113.282 85.269h17.003l8.26 27.1 8.542-27.1h16.482l-18.086 42.765h-14.477zM183.219 99.12l-15.6-1.65q.882-4.108 2.526-6.443 1.684-2.376 4.813-4.108 2.245-1.248 6.175-1.932 3.93-.685 8.502-.685 7.338 0 11.79.846 4.45.806 7.418 3.422 2.086 1.813 3.289 5.155 1.203 3.302 1.203 6.322v18.886q0 3.02.361 4.752.4 1.69 1.684 4.349h-15.319q-.923-1.651-1.203-2.497-.28-.886-.561-2.738-3.208 3.1-6.376 4.429Q187.589 129 181.855 129q-7.62 0-11.589-3.544-3.93-3.543-3.93-8.738 0-4.872 2.847-8.013t10.507-4.671q9.183-1.852 11.91-2.578a59 59 0 0 0 5.774-1.973q0-3.02-1.243-4.228t-4.371-1.208q-4.01 0-6.015 1.289-1.565 1.006-2.526 3.785m14.155 8.618a76 76 0 0 1-7.017 2.134q-4.973 1.33-6.296 2.618-1.364 1.33-1.364 3.02 0 1.933 1.324 3.181 1.363 1.208 3.97 1.208 2.727 0 5.052-1.329 2.367-1.328 3.329-3.221 1.002-1.933 1.002-4.993zM223.28 85.269h15.279v7.006q2.205-4.55 4.531-6.241 2.366-1.732 5.815-1.732 3.609 0 7.9 2.255l-5.053 11.678q-2.888-1.208-4.572-1.208-3.207 0-4.972 2.658-2.527 3.744-2.527 14.013v14.336H223.28zM260.213 69h16.322v11.154h-16.322zm0 16.269h16.322v42.765h-16.322zM301.839 99.12l-15.6-1.65q.882-4.108 2.527-6.443 1.683-2.376 4.812-4.108 2.245-1.248 6.175-1.932 3.93-.685 8.502-.685 7.338 0 11.79.846 4.45.806 7.418 3.422 2.086 1.813 3.289 5.155 1.203 3.302 1.203 6.322v18.886q0 3.02.361 4.752.401 1.69 1.684 4.349h-15.319q-.923-1.651-1.203-2.497-.28-.886-.561-2.738-3.208 3.1-6.376 4.429Q306.209 129 300.475 129q-7.619 0-11.589-3.544-3.93-3.543-3.93-8.738 0-4.872 2.847-8.013t10.507-4.671q9.183-1.852 11.91-2.578a59 59 0 0 0 5.774-1.973q0-3.02-1.243-4.228-1.242-1.208-4.371-1.208-4.01 0-6.015 1.289-1.564 1.006-2.526 3.785m14.155 8.618a76 76 0 0 1-7.017 2.134q-4.973 1.33-6.296 2.618-1.364 1.33-1.364 3.02 0 1.933 1.324 3.181 1.363 1.208 3.97 1.208 2.727 0 5.052-1.329 2.366-1.328 3.329-3.221 1.002-1.933 1.002-4.993z"/></mask><path fill="#EB893D" d="M1.677 2.882H33.56q7.97 0 12.22 3.948 4.285 3.947 4.285 9.775 0 4.887-3.045 8.384-2.031 2.33-5.94 3.685 5.94 1.428 8.722 4.925 2.82 3.46 2.82 8.723 0 4.286-1.993 7.707a14.7 14.7 0 0 1-5.451 5.414q-2.144 1.242-6.467 1.805-5.753.752-7.632.752H1.677zM18.86 24.5h7.407q3.986 0 5.527-1.353 1.58-1.391 1.58-3.985 0-2.407-1.58-3.76-1.541-1.353-5.414-1.354h-7.52zm0 21.657h8.685q4.399 0 6.204-1.542 1.805-1.58 1.805-4.21 0-2.445-1.805-3.91-1.767-1.505-6.241-1.505h-8.648zM74.504 31.005l-14.626-1.542q.827-3.835 2.37-6.015 1.578-2.219 4.51-3.835 2.106-1.166 5.79-1.805 3.685-.64 7.971-.64 6.88 0 11.054.79 4.174.753 6.956 3.196 1.955 1.692 3.083 4.813 1.128 3.083 1.128 5.903v17.633q0 2.82.338 4.437.376 1.578 1.579 4.06H90.295q-.865-1.542-1.128-2.331-.262-.827-.526-2.557-3.008 2.895-5.978 4.136-4.06 1.654-9.437 1.654-7.145 0-10.866-3.308-3.685-3.308-3.685-8.159 0-4.55 2.67-7.482t9.85-4.361q8.61-1.73 11.167-2.407a56 56 0 0 0 5.414-1.842q0-2.82-1.166-3.948-1.166-1.127-4.098-1.127-3.759 0-5.64 1.203-1.465.939-2.368 3.534m13.272 8.046a72 72 0 0 1-6.58 1.992q-4.662 1.242-5.903 2.444-1.278 1.241-1.278 2.82 0 1.805 1.24 2.97 1.28 1.128 3.723 1.128a9.4 9.4 0 0 0 4.737-1.24q2.22-1.242 3.12-3.008.941-1.804.94-4.662zM129.021 2.882v15.19h8.421v11.166h-8.421v14.174q0 2.557.488 3.384.753 1.278 2.632 1.278 1.692 0 4.737-.977l1.128 10.565q-5.677 1.24-10.602 1.24-5.715 0-8.422-1.466t-4.023-4.437q-1.278-3.007-1.278-9.7V29.238h-5.64V18.07h5.64V10.74zM163.234 2.882v15.19h8.422v11.166h-8.422v14.174q0 2.557.489 3.384.752 1.278 2.632 1.278 1.692 0 4.737-.977l1.128 10.565q-5.677 1.24-10.602 1.24-5.716 0-8.422-1.466-2.708-1.465-4.023-4.437-1.278-3.007-1.278-9.7V29.238h-5.64V18.07h5.64V10.74zM223.315 41.833h-30.679q.413 3.684 1.992 5.49 2.219 2.593 5.79 2.593 2.256 0 4.287-1.127 1.24-.715 2.669-2.52l15.077 1.392q-3.46 6.015-8.347 8.647-4.887 2.595-14.024 2.594-7.933 0-12.482-2.218-4.55-2.255-7.557-7.106-2.971-4.887-2.971-11.467 0-9.362 5.978-15.152 6.017-5.79 16.581-5.79 8.572 0 13.535 2.594 4.964 2.595 7.557 7.52t2.594 12.82zm-15.565-7.331q-.452-4.437-2.406-6.355-1.918-1.917-5.076-1.917-3.647 0-5.828 2.895-1.39 1.804-1.767 5.377zM230.497 18.071h14.324v6.542q2.068-4.249 4.249-5.827 2.219-1.617 5.451-1.617 3.384 0 7.407 2.105l-4.737 10.904q-2.707-1.128-4.286-1.128-3.007 0-4.662 2.481-2.369 3.497-2.369 13.084V58h-15.377zM265.124 2.882h15.302v10.414h-15.302zm0 15.19h15.302V58h-15.302zM304.15 31.005l-14.625-1.542q.827-3.835 2.369-6.015 1.578-2.219 4.511-3.835 2.106-1.166 5.79-1.805 3.685-.64 7.971-.64 6.88 0 11.054.79 4.173.753 6.955 3.196 1.955 1.692 3.083 4.813 1.128 3.083 1.128 5.903v17.633q0 2.82.339 4.437.375 1.578 1.579 4.06h-14.363q-.864-1.542-1.128-2.331-.262-.827-.526-2.557-3.008 2.895-5.978 4.136-4.06 1.654-9.437 1.654-7.143 0-10.866-3.308-3.684-3.308-3.684-8.159 0-4.55 2.669-7.482t9.851-4.361q8.61-1.73 11.166-2.407a55 55 0 0 0 5.414-1.842q0-2.82-1.165-3.948-1.166-1.127-4.098-1.127-3.76 0-5.64 1.203-1.466.939-2.369 3.534m13.272 8.046a72 72 0 0 1-6.579 1.992q-4.662 1.242-5.903 2.444-1.278 1.241-1.278 2.82 0 1.805 1.24 2.97 1.279 1.128 3.723 1.128a9.4 9.4 0 0 0 4.737-1.24q2.219-1.242 3.12-3.008.94-1.804.94-4.662zM2 69h34.006q8.502 0 13.033 4.228 4.572 4.229 4.572 10.47 0 5.235-3.249 8.98-2.164 2.496-6.336 3.946 6.336 1.53 9.304 5.275 3.008 3.705 3.008 9.343 0 4.59-2.126 8.255-2.125 3.664-5.815 5.798-2.285 1.33-6.897 1.933-6.136.806-8.14.806H2zm18.326 23.154h7.9q4.252 0 5.895-1.45 1.685-1.489 1.685-4.268 0-2.577-1.685-4.027-1.643-1.45-5.774-1.45h-8.02zm0 23.195h9.264q4.692 0 6.616-1.651 1.925-1.692 1.925-4.51 0-2.618-1.925-4.188-1.884-1.611-6.656-1.611h-9.224zM79.677 99.12l-15.6-1.65q.882-4.108 2.526-6.443 1.684-2.376 4.813-4.108 2.245-1.248 6.175-1.932 3.93-.685 8.502-.685 7.338 0 11.79.846 4.45.806 7.418 3.422 2.086 1.813 3.289 5.155 1.203 3.302 1.203 6.322v18.886q0 3.02.361 4.752.4 1.69 1.684 4.349H96.519q-.922-1.651-1.203-2.497-.28-.886-.561-2.738-3.209 3.1-6.376 4.429Q84.047 129 78.313 129q-7.619 0-11.59-3.544-3.93-3.543-3.93-8.738 0-4.872 2.848-8.013t10.507-4.671q9.183-1.852 11.91-2.578a59 59 0 0 0 5.774-1.973q0-3.02-1.243-4.228t-4.37-1.208q-4.011 0-6.016 1.289-1.565 1.006-2.526 3.785m14.155 8.618a76 76 0 0 1-7.017 2.134q-4.973 1.33-6.296 2.618-1.364 1.33-1.364 3.02 0 1.933 1.324 3.181 1.363 1.208 3.97 1.208 2.726 0 5.052-1.329 2.367-1.328 3.329-3.221 1.002-1.933 1.002-4.993zM113.282 85.269h17.003l8.26 27.1 8.542-27.1h16.482l-18.086 42.765h-14.477zM183.219 99.12l-15.6-1.65q.882-4.108 2.526-6.443 1.684-2.376 4.813-4.108 2.245-1.248 6.175-1.932 3.93-.685 8.502-.685 7.338 0 11.79.846 4.45.806 7.418 3.422 2.086 1.813 3.289 5.155 1.203 3.302 1.203 6.322v18.886q0 3.02.361 4.752.4 1.69 1.684 4.349h-15.319q-.923-1.651-1.203-2.497-.28-.886-.561-2.738-3.208 3.1-6.376 4.429Q187.589 129 181.855 129q-7.62 0-11.589-3.544-3.93-3.543-3.93-8.738 0-4.872 2.847-8.013t10.507-4.671q9.183-1.852 11.91-2.578a59 59 0 0 0 5.774-1.973q0-3.02-1.243-4.228t-4.371-1.208q-4.01 0-6.015 1.289-1.565 1.006-2.526 3.785m14.155 8.618a76 76 0 0 1-7.017 2.134q-4.973 1.33-6.296 2.618-1.364 1.33-1.364 3.02 0 1.933 1.324 3.181 1.363 1.208 3.97 1.208 2.727 0 5.052-1.329 2.367-1.328 3.329-3.221 1.002-1.933 1.002-4.993zM223.28 85.269h15.279v7.006q2.205-4.55 4.531-6.241 2.366-1.732 5.815-1.732 3.609 0 7.9 2.255l-5.053 11.678q-2.888-1.208-4.572-1.208-3.207 0-4.972 2.658-2.527 3.744-2.527 14.013v14.336H223.28zM260.213 69h16.322v11.154h-16.322zm0 16.269h16.322v42.765h-16.322zM301.839 99.12l-15.6-1.65q.882-4.108 2.527-6.443 1.683-2.376 4.812-4.108 2.245-1.248 6.175-1.932 3.93-.685 8.502-.685 7.338 0 11.79.846 4.45.806 7.418 3.422 2.086 1.813 3.289 5.155 1.203 3.302 1.203 6.322v18.886q0 3.02.361 4.752.401 1.69 1.684 4.349h-15.319q-.923-1.651-1.203-2.497-.28-.886-.561-2.738-3.208 3.1-6.376 4.429Q306.209 129 300.475 129q-7.619 0-11.589-3.544-3.93-3.543-3.93-8.738 0-4.872 2.847-8.013t10.507-4.671q9.183-1.852 11.91-2.578a59 59 0 0 0 5.774-1.973q0-3.02-1.243-4.228-1.242-1.208-4.371-1.208-4.01 0-6.015 1.289-1.564 1.006-2.526 3.785m14.155 8.618a76 76 0 0 1-7.017 2.134q-4.973 1.33-6.296 2.618-1.364 1.33-1.364 3.02 0 1.933 1.324 3.181 1.363 1.208 3.97 1.208 2.727 0 5.052-1.329 2.366-1.328 3.329-3.221 1.002-1.933 1.002-4.993z"/><path stroke="#000" stroke-width="3" d="M1.677 2.882H33.56q7.97 0 12.22 3.948 4.285 3.947 4.285 9.775 0 4.887-3.045 8.384-2.031 2.33-5.94 3.685 5.94 1.428 8.722 4.925 2.82 3.46 2.82 8.723 0 4.286-1.993 7.707a14.7 14.7 0 0 1-5.451 5.414q-2.144 1.242-6.467 1.805-5.753.752-7.632.752H1.677zM18.86 24.5h7.407q3.986 0 5.527-1.353 1.58-1.391 1.58-3.985 0-2.407-1.58-3.76-1.541-1.353-5.414-1.354h-7.52zm0 21.657h8.685q4.399 0 6.204-1.542 1.805-1.58 1.805-4.21 0-2.445-1.805-3.91-1.767-1.505-6.241-1.505h-8.648zM74.504 31.005l-14.626-1.542q.827-3.835 2.37-6.015 1.578-2.219 4.51-3.835 2.106-1.166 5.79-1.805 3.685-.64 7.971-.64 6.88 0 11.054.79 4.174.753 6.956 3.196 1.955 1.692 3.083 4.813 1.128 3.083 1.128 5.903v17.633q0 2.82.338 4.437.376 1.578 1.579 4.06H90.295q-.865-1.542-1.128-2.331-.262-.827-.526-2.557-3.008 2.895-5.978 4.136-4.06 1.654-9.437 1.654-7.145 0-10.866-3.308-3.685-3.308-3.685-8.159 0-4.55 2.67-7.482t9.85-4.361q8.61-1.73 11.167-2.407a56 56 0 0 0 5.414-1.842q0-2.82-1.166-3.948-1.166-1.127-4.098-1.127-3.759 0-5.64 1.203-1.465.939-2.368 3.534Zm13.272 8.046a72 72 0 0 1-6.58 1.992q-4.662 1.242-5.903 2.444-1.278 1.241-1.278 2.82 0 1.805 1.24 2.97 1.28 1.128 3.723 1.128a9.4 9.4 0 0 0 4.737-1.24q2.22-1.242 3.12-3.008.941-1.804.94-4.662zM129.021 2.882v15.19h8.421v11.166h-8.421v14.174q0 2.557.488 3.384.753 1.278 2.632 1.278 1.692 0 4.737-.977l1.128 10.565q-5.677 1.24-10.602 1.24-5.715 0-8.422-1.466t-4.023-4.437q-1.278-3.007-1.278-9.7V29.238h-5.64V18.07h5.64V10.74zM163.234 2.882v15.19h8.422v11.166h-8.422v14.174q0 2.557.489 3.384.752 1.278 2.632 1.278 1.692 0 4.737-.977l1.128 10.565q-5.677 1.24-10.602 1.24-5.716 0-8.422-1.466-2.708-1.465-4.023-4.437-1.278-3.007-1.278-9.7V29.238h-5.64V18.07h5.64V10.74zM223.315 41.833h-30.679q.413 3.684 1.992 5.49 2.219 2.593 5.79 2.593 2.256 0 4.287-1.127 1.24-.715 2.669-2.52l15.077 1.392q-3.46 6.015-8.347 8.647-4.887 2.595-14.024 2.594-7.933 0-12.482-2.218-4.55-2.255-7.557-7.106-2.971-4.887-2.971-11.467 0-9.362 5.978-15.152 6.017-5.79 16.581-5.79 8.572 0 13.535 2.594 4.964 2.595 7.557 7.52t2.594 12.82zm-15.565-7.331q-.452-4.437-2.406-6.355-1.918-1.917-5.076-1.917-3.647 0-5.828 2.895-1.39 1.804-1.767 5.377zM230.497 18.071h14.324v6.542q2.068-4.249 4.249-5.827 2.219-1.617 5.451-1.617 3.384 0 7.407 2.105l-4.737 10.904q-2.707-1.128-4.286-1.128-3.007 0-4.662 2.481-2.369 3.497-2.369 13.084V58h-15.377zM265.124 2.882h15.302v10.414h-15.302zm0 15.19h15.302V58h-15.302zM304.15 31.005l-14.625-1.542q.827-3.835 2.369-6.015 1.578-2.219 4.511-3.835 2.106-1.166 5.79-1.805 3.685-.64 7.971-.64 6.88 0 11.054.79 4.173.753 6.955 3.196 1.955 1.692 3.083 4.813 1.128 3.083 1.128 5.903v17.633q0 2.82.339 4.437.375 1.578 1.579 4.06h-14.363q-.864-1.542-1.128-2.331-.262-.827-.526-2.557-3.008 2.895-5.978 4.136-4.06 1.654-9.437 1.654-7.143 0-10.866-3.308-3.684-3.308-3.684-8.159 0-4.55 2.669-7.482t9.851-4.361q8.61-1.73 11.166-2.407a55 55 0 0 0 5.414-1.842q0-2.82-1.165-3.948-1.166-1.127-4.098-1.127-3.76 0-5.64 1.203-1.466.939-2.369 3.534Zm13.272 8.046a72 72 0 0 1-6.579 1.992q-4.662 1.242-5.903 2.444-1.278 1.241-1.278 2.82 0 1.805 1.24 2.97 1.279 1.128 3.723 1.128a9.4 9.4 0 0 0 4.737-1.24q2.219-1.242 3.12-3.008.94-1.804.94-4.662zM2 69h34.006q8.502 0 13.033 4.228 4.572 4.229 4.572 10.47 0 5.235-3.249 8.98-2.164 2.496-6.336 3.946 6.336 1.53 9.304 5.275 3.008 3.705 3.008 9.343 0 4.59-2.126 8.255-2.125 3.664-5.815 5.798-2.285 1.33-6.897 1.933-6.136.806-8.14.806H2zm18.326 23.154h7.9q4.252 0 5.895-1.45 1.685-1.489 1.685-4.268 0-2.577-1.685-4.027-1.643-1.45-5.774-1.45h-8.02zm0 23.195h9.264q4.692 0 6.616-1.651 1.925-1.692 1.925-4.51 0-2.618-1.925-4.188-1.884-1.611-6.656-1.611h-9.224zM79.677 99.12l-15.6-1.65q.882-4.108 2.526-6.443 1.684-2.376 4.813-4.108 2.245-1.248 6.175-1.932 3.93-.685 8.502-.685 7.338 0 11.79.846 4.45.806 7.418 3.422 2.086 1.813 3.289 5.155 1.203 3.302 1.203 6.322v18.886q0 3.02.361 4.752.4 1.69 1.684 4.349H96.519q-.922-1.651-1.203-2.497-.28-.886-.561-2.738-3.209 3.1-6.376 4.429Q84.047 129 78.313 129q-7.619 0-11.59-3.544-3.93-3.543-3.93-8.738 0-4.872 2.848-8.013t10.507-4.671q9.183-1.852 11.91-2.578a59 59 0 0 0 5.774-1.973q0-3.02-1.243-4.228t-4.37-1.208q-4.011 0-6.016 1.289-1.565 1.006-2.526 3.785Zm14.155 8.618a76 76 0 0 1-7.017 2.134q-4.973 1.33-6.296 2.618-1.364 1.33-1.364 3.02 0 1.933 1.324 3.181 1.363 1.208 3.97 1.208 2.726 0 5.052-1.329 2.367-1.328 3.329-3.221 1.002-1.933 1.002-4.993zM113.282 85.269h17.003l8.26 27.1 8.542-27.1h16.482l-18.086 42.765h-14.477zM183.219 99.12l-15.6-1.65q.882-4.108 2.526-6.443 1.684-2.376 4.813-4.108 2.245-1.248 6.175-1.932 3.93-.685 8.502-.685 7.338 0 11.79.846 4.45.806 7.418 3.422 2.086 1.813 3.289 5.155 1.203 3.302 1.203 6.322v18.886q0 3.02.361 4.752.4 1.69 1.684 4.349h-15.319q-.923-1.651-1.203-2.497-.28-.886-.561-2.738-3.208 3.1-6.376 4.429Q187.589 129 181.855 129q-7.62 0-11.589-3.544-3.93-3.543-3.93-8.738 0-4.872 2.847-8.013t10.507-4.671q9.183-1.852 11.91-2.578a59 59 0 0 0 5.774-1.973q0-3.02-1.243-4.228t-4.371-1.208q-4.01 0-6.015 1.289-1.565 1.006-2.526 3.785Zm14.155 8.618a76 76 0 0 1-7.017 2.134q-4.973 1.33-6.296 2.618-1.364 1.33-1.364 3.02 0 1.933 1.324 3.181 1.363 1.208 3.97 1.208 2.727 0 5.052-1.329 2.367-1.328 3.329-3.221 1.002-1.933 1.002-4.993zM223.28 85.269h15.279v7.006q2.205-4.55 4.531-6.241 2.366-1.732 5.815-1.732 3.609 0 7.9 2.255l-5.053 11.678q-2.888-1.208-4.572-1.208-3.207 0-4.972 2.658-2.527 3.744-2.527 14.013v14.336H223.28zM260.213 69h16.322v11.154h-16.322zm0 16.269h16.322v42.765h-16.322zM301.839 99.12l-15.6-1.65q.882-4.108 2.527-6.443 1.683-2.376 4.812-4.108 2.245-1.248 6.175-1.932 3.93-.685 8.502-.685 7.338 0 11.79.846 4.45.806 7.418 3.422 2.086 1.813 3.289 5.155 1.203 3.302 1.203 6.322v18.886q0 3.02.361 4.752.401 1.69 1.684 4.349h-15.319q-.923-1.651-1.203-2.497-.28-.886-.561-2.738-3.208 3.1-6.376 4.429Q306.209 129 300.475 129q-7.619 0-11.589-3.544-3.93-3.543-3.93-8.738 0-4.872 2.847-8.013t10.507-4.671q9.183-1.852 11.91-2.578a59 59 0 0 0 5.774-1.973q0-3.02-1.243-4.228-1.242-1.208-4.371-1.208-4.01 0-6.015 1.289-1.564 1.006-2.526 3.785Zm14.155 8.618a76 76 0 0 1-7.017 2.134q-4.973 1.33-6.296 2.618-1.364 1.33-1.364 3.02 0 1.933 1.324 3.181 1.363 1.208 3.97 1.208 2.727 0 5.052-1.329 2.366-1.328 3.329-3.221 1.002-1.933 1.002-4.993z" mask="url(#a)"/></svg>