<svg xmlns="http://www.w3.org/2000/svg" width="482" height="159" fill="none"><path fill="#ED1C24" d="M120.964 46.81c0-2.044-.703-3.165-2.109-3.396h-15.613l-1.975 6.922h15.614q1.43.001 2.761-1.087c.886-.725 1.322-1.549 1.322-2.439m31.594-23.372c0 4.252-2.594 7.367-7.798 9.33 3.351 4.291 4.438 6.44 4.218 13.481-.386 6.478-3.047 11.752-7.949 15.807-3.883 3.231-8.066 5.373-12.501 6.477l-54.856-.098 13.337-44.997zm.686-6.527H81.118L95.594.049 140.258 0c8.752 0 13.137 4.647 13.137 13.961 0 .939-.05 1.912-.151 2.95M212.872 51.326h-30.893l8.234-28.284h-24.567l-12.299 45.491 45.736.05zm-21.287-34.613h-24.616l4.82-16.169 24.599-.149zm44.514 24.922 6.777 27.096h25.186l-9.756-45.49h-48.865l-14.576 18.245zm21.136-24.823L253.655.494h-25.354l-14.844 16.318zM351.678 23.34c0 11.603-2.293 20.701-6.861 27.293-3.664 5.275-7.012 9.05-10.058 11.291-6.041 4.467-13.622 6.707-22.742 6.707h-39.911l13.135-45.292h24.768l-8.334 27.558c1.556.61 3.247.923 5.036.923 3.382 0 6.863-.989 10.444-2.983 5.856-3.247 9.689-7.895 11.48-13.928.953-3.148 1.489-7.005 1.623-11.57zm-1.271-6.627h-69.566L291.616.197h40.5c4.383 0 8.467 1.665 12.25 5.012 3.865 3.427 5.873 7.268 6.041 11.504M419.603 23.34l-4.87 17.998h-32.549l-2.694 9.395h32.415l-4.869 17.701h-58.924l12.251-45.095zm6.51-23.143-4.452 16.516h-65.414L367.04.197zM85.446 112.85c-.552 4.021-2.878 7.812-6.996 11.356-1.941 1.649-3.497 2.686-4.719 3.148 1.54 2.34 2.309 4.83 2.309 7.433 0 1.55-.234 3.709-.685 6.478-.302 1.747-2.058 7.303-5.288 16.681H47.558l8.034-27.197h-23.68l-8.535 27.197H0l13.488-45.096zm1.187-6.626H8.818l10.643-16.516h57.115c1.54 0 3.13.544 4.753 1.649 1.54 1.039 2.711 2.274 3.481 3.691 1.221 2.209 1.823 5.934 1.823 11.176M160.598 112.85l-12.702 45.194h-36.715q-17.27 0-21.387-10.185c-.754-1.863-1.12-3.709-1.12-5.506 0-1.105.133-2.109.384-3.049l7.413-26.454 22.307-.05-7.112 24.593c-.335 1.12-.485 1.943-.485 2.472 0 1.318.669 2.175 2.008 2.554h16.031l8.485-29.569zm-35.493-22.746-4.569 16.219H97.893l4.753-16.219zm41.768.05-4.669 16.169h-22.942l4.668-16.219zM241.018 112.85l-12.215 45.096H203.6l7.749-27.362-14.709-13.152-11.665 40.612h-22.943l12.551-45.194zm6.327-23.142-4.954 16.516h-65.8l4.752-16.516h22.81l14.844 14.011 3.581-14.011zM321.263 112.85l-12.215 45.096h-25.203l7.748-27.362-14.709-13.152-11.664 40.612h-22.943l12.55-45.194zm6.326-23.142-4.953 16.516h-65.801l4.753-16.516h22.81l14.844 14.011 3.581-14.011zM393.791 112.85l-4.87 17.999h-32.548l-2.695 9.395h32.414l-4.868 17.702H322.3l12.25-45.096zm6.51-23.142-4.452 16.516h-65.415l10.794-16.516zM480.812 112.85c-.552 4.021-2.879 7.812-6.995 11.356-1.942 1.649-3.498 2.686-4.719 3.148 1.54 2.34 2.308 4.83 2.308 7.433 0 1.55-.233 3.709-.685 6.478-.302 1.747-2.058 7.303-5.289 16.681h-22.507l8.033-27.197h-23.68l-8.535 27.197h-23.377l13.488-45.096zm1.187-6.626h-77.815l10.644-16.516h57.114c1.54 0 3.13.544 4.754 1.649 1.539 1.039 2.71 2.274 3.48 3.691 1.222 2.209 1.823 5.934 1.823 11.176"/></svg>