<svg xmlns="http://www.w3.org/2000/svg" width="364" height="292" fill="none"><path fill="#0069FF" d="M175.336.305v1.328l32.781 37.654h26.358c36.768 0 58.254 21.041 58.254 50.5s-21.486 52.494-58.254 52.494h-29.901v1.33l104.545 148.18h54.266v-1.33l-89.262-123.373c40.09-7.974 65.119-36.324 65.119-79.516 0-54.487-38.983-87.267-102.773-87.267zM.356.746v291.045h87.269c69.992 0 108.752-35.219 108.752-85.941-.222-38.319-22.37-64.454-66.004-71.541 31.895-7.753 48.506-31.011 48.506-60.912 0-43.635-34.775-72.65-99.008-72.65zm44.742 38.762h32.78c36.769 0 54.267 17.277 54.267 42.084 0 26.136-19.491 45.184-58.252 47.178v21.486c50.057 1.993 75.529 17.275 75.529 51.164s-23.479 51.387-63.791 51.387H45.098z"/></svg>