<svg xmlns="http://www.w3.org/2000/svg" width="512" height="512" fill="none" viewBox="0 0 512 512"><path fill="#fff" d="M512 256c0 141.385-114.615 256-256 256S0 397.385 0 256 114.615 0 256 0s256 114.615 256 256"/><path fill="#153760" d="M456 321.5c0 90.299-77.231 163.5-172.5 163.5S111 411.799 111 321.5 188.231 158 283.5 158 456 231.201 456 321.5"/><path fill="#fff" d="M336 322.5c0 29.547-23.953 53.5-53.5 53.5S229 352.047 229 322.5s23.953-53.5 53.5-53.5 53.5 23.953 53.5 53.5"/><path fill="#153760" d="M111 71h67c26.51 0 48 21.49 48 48v203H111z"/></svg>