<svg xmlns="http://www.w3.org/2000/svg" width="461" height="81"><g fill="none" fill-rule="evenodd"><path fill="#FFF" d="M240.649 16.394c13.31 0 24.13 10.824 24.13 24.133s-10.82 24.134-24.13 24.134-24.138-10.826-24.138-24.134c0-13.31 10.828-24.133 24.138-24.133m0 39.38c8.406 0 15.247-6.84 15.247-15.247s-6.841-15.246-15.247-15.246c-8.41 0-15.25 6.839-15.25 15.246s6.84 15.247 15.25 15.247M26.893 32.106c-1.665-1.992-4.08-3.121-7.192-3.121-6.337 0-11.005 5.164-11.005 12.266 0 7.1 4.668 12.266 10.736 12.266 3.381 0 6.121-1.506 7.837-4.088l6.978 5.218c-3.168 4.52-8.534 6.618-13.744 6.618C8.642 61.265 0 53.462 0 41.25c0-12.214 8.642-20.015 20.503-20.015 4.244 0 9.613 1.454 12.832 5.598l-6.442 5.272zm27.645 1.183L49.92 45.124h9.285L54.54 33.289zm-3.226-11.082h6.927l16.533 38.089h-9.447l-3.277-8.071H47.29l-3.166 8.07H34.89l16.42-38.088zm52.121 9.899c-1.662-1.992-4.077-3.121-7.191-3.121-6.337 0-11.005 5.164-11.005 12.266 0 7.1 4.668 12.266 10.735 12.266 3.384 0 6.118-1.506 7.839-4.088l6.976 5.218c-3.167 4.52-8.535 6.618-13.741 6.618-11.861 0-20.505-7.803-20.505-20.014 0-12.214 8.644-20.015 20.505-20.015 4.241 0 9.607 1.454 12.831 5.598zm36.77 0c-1.67-1.992-4.084-3.121-7.197-3.121-6.332 0-10.999 5.164-10.999 12.266 0 7.1 4.667 12.266 10.732 12.266 3.38 0 6.12-1.506 7.837-4.088l6.978 5.218c-3.163 4.52-8.536 6.618-13.744 6.618-11.858 0-20.502-7.803-20.502-20.014 0-12.214 8.644-20.015 20.502-20.015 4.24 0 9.612 1.454 12.83 5.598l-6.436 5.272zm11.807 28.19h8.372v-38.09h-8.372zm31.72-27.007-4.617 11.835h9.29l-4.672-11.835zm-3.223-11.082h6.926l16.53 38.089h-9.445l-3.274-8.071h-14.76l-3.168 8.07h-9.231zM288.57 38.344h5.582c2.949 0 5.9-1.02 5.9-4.574 0-3.926-3.974-4.464-7.19-4.464h-4.292zm-8.375-16.138h14.116c7.89 0 14.439 2.527 14.439 11.564 0 8.931-6.065 11.676-14.061 11.676h-6.12v14.85h-8.374zm34.135 0h25.822v7.746h-17.45v7.1h16.485V44.8H322.7v7.75h18.415v7.746H314.33zm56.229 9.309c-1.341-1.724-4.026-2.53-6.065-2.53-2.362 0-5.636 1.075-5.636 3.927 0 6.939 17.495 2.475 17.495 15.819 0 8.499-6.811 12.534-14.65 12.534-4.882 0-9.177-1.453-12.777-4.79l5.956-6.563c1.721 2.259 4.513 3.603 7.306 3.603 2.734 0 5.797-1.29 5.797-3.98 0-6.992-17.822-3.228-17.822-15.922 0-8.13 7.032-12.376 14.492-12.376 4.293 0 8.425 1.129 11.647 3.98zm38.848.589c-1.66-1.99-4.076-3.119-7.19-3.119-6.336 0-11.005 5.165-11.005 12.266 0 7.1 4.669 12.266 10.735 12.266 3.384 0 6.12-1.506 7.839-4.088l6.975 5.218c-3.165 4.52-8.534 6.618-13.736 6.618-11.868 0-20.506-7.803-20.506-20.014 0-12.214 8.638-20.014 20.506-20.014 4.237 0 9.603 1.453 12.825 5.596zm30.604 1.185L435.4 45.122h9.285zm-3.217-11.082h6.921l16.534 38.089h-9.446l-3.273-8.071h-14.764l-3.168 8.07h-9.23z"/><path fill="#3B78A6" d="M246.104 40.527 240.708 0l-5.517 40.527z"/><path fill="#808B49" d="m235.19 40.527 5.397 40.525 5.517-40.525z"/></g></svg>