<svg xmlns="http://www.w3.org/2000/svg" width="354" height="91" fill="none"><path fill="#fff" d="M19.014.004c8.67 0 16.06 5.65 18.28 13.57h-7.29c-1.9-4.17-6.07-6.86-10.98-6.86-6.81 0-12.15 5.39-12.15 12.2s5.33 12.2 12.15 12.2c4.7 0 8.77-2.53 10.83-6.55h7.34c-2.32 7.71-9.61 13.26-18.17 13.26-10.41.21-19.23-8.51-19.02-18.91-.21-10.4 8.61-19.12 19.01-18.91M60.844 29.364h-13.94l-2.85 8.03h-7.02l13.4-36.96h6.86l13.41 36.97h-7.02l-2.85-8.03zm-2.27-6.44-4.7-13.2-4.7 13.2zM95.324 20.184c1.11 1.43 1.64 3.43 1.64 5.97 0 7.13-5.86 11.67-13.25 11.67-7.13.11-13.41-5.44-13.26-12.57h6.86c0 3.64 2.64 5.86 6.65 5.86 3.75 0 6.13-1.53 6.13-4.96 0-2.11-1.48-3.48-3.43-4.17-.95-.37-2.27-.79-4.01-1.27-2.38-.69-4.28-1.32-5.76-1.95-1.43-.63-2.69-1.64-3.75-3.01-1-1.37-1.53-3.22-1.53-5.55 0-6.61 4.49-10.2 11.93-10.2s11.93 4.38 11.93 11.62h-6.86c0-3.54-1.69-4.91-5.07-4.91s-5.07 1.32-5.07 3.7c.32 3.33 2.38 3.8 7.18 4.96 4.7 1.06 7.55 1.9 9.66 4.81M119.984 29.364h-13.94l-2.85 8.03h-7.02l13.41-36.96h6.87l13.41 36.97h-7.02l-2.85-8.03zm-2.27-6.44-4.7-13.2-4.7 13.2zM152.724 21.814c1 1.37 1.48 3.22 1.48 5.49 0 6.34-5.07 10.51-11.51 10.51s-11.51-4.65-11.51-10.83h3.38c0 4.49 3.38 7.6 8.24 7.6s8.03-2.69 8.03-7.29c0-3.22-1.74-5.23-4.07-6.34-1.16-.58-2.69-1.16-4.65-1.8-4.28-1.48-6.6-2.43-8.45-4.91-.9-1.21-1.32-2.85-1.32-4.86 0-5.52 4.33-9.38 10.19-9.38s10.19 4.17 10.19 9.88h-3.38c0-4.07-2.8-6.65-6.81-6.65s-6.81 2.59-6.81 6.23c0 2.8 1.58 4.44 3.7 5.44 1.06.47 2.53 1.06 4.38 1.64 4.44 1.43 7.02 2.48 8.92 5.28M179.814 27.464h-18.48l-4.07 9.93h-3.54l15.1-36.96h3.38l15.21 36.97h-3.54l-4.07-9.93zm-1.22-3.16-8.08-19.43-8.03 19.43zM219.254.434v36.96h-3.38l-23.5-31.1v31.1h-3.37V.434h3.37l23.5 31.1V.434zM222.424.434h11.93c6.55 0 11.88 4.96 11.88 11.46 0 6.13-4.7 11.04-10.03 11.67l9.19 13.84h-3.8l-8.87-13.57h-6.92v13.57h-3.38zm11.94 20.38c4.81 0 8.5-4.01 8.5-8.92s-3.7-8.45-8.5-8.45h-8.56v17.37zM252.524 3.654v12.78h16.37v3.22h-16.37v14.52h18.38v3.22h-21.76V.434h21.76v3.22zM312.194.434v36.96h-3.38V7.924l-14.26 29.47h-3.11l-14.26-29.47v29.47h-3.38V.434h3.38l15.84 32.42 15.79-32.42zM334.114.004c10.35-.21 19.22 8.5 19.01 18.9.21 10.4-8.66 19.12-19.01 18.91-10.4.21-19.22-8.5-19.01-18.91-.21-10.4 8.61-19.12 19.01-18.9m0 3.33c-8.5-.16-15.79 6.97-15.63 15.58-.16 8.61 7.13 15.74 15.63 15.58 8.56.16 15.79-6.97 15.63-15.58.16-8.61-7.08-15.74-15.63-15.58M129.274 55.934h-8.52c-4.69.01-8.5-3.78-8.52-8.47v-.05 25.55c0 9.41 7.63 17.04 17.04 17.04s17.04-7.63 17.04-17.04-7.63-17.04-17.04-17.04m-.11 21.01c-1.9 0-3.45-1.53-3.46-3.43v-5.21c0 .95.77 1.72 1.72 1.73h1.73a3.461 3.461 0 0 1 0 6.92M103.284 77.224a6.48 6.48 0 0 1 6.39 6.39v6.39h-6.39c-3.53 0-6.39-2.86-6.39-6.39v-6.39zM165.914 55.934c-9.41.07-16.98 7.74-16.92 17.15.06 9.32 7.6 16.85 16.92 16.92h17.04v-17.03c-.02-9.4-7.63-17.02-17.04-17.04m3.68 20.71h-3.67c-2.03 0-3.67-1.64-3.67-3.67s1.64-3.67 3.67-3.67 3.67 1.64 3.67 3.67zM211.074 55.934c4.67.08 8.44 3.85 8.52 8.52a8.58 8.58 0 0 1-8.52 8.52h8.52v17.04h-25.55c-4.69.01-8.5-3.78-8.52-8.47v-.05a8.58 8.58 0 0 1 8.52-8.52c-4.69.01-8.5-3.78-8.52-8.47v-8.57zM256.234 55.934c.03 9.38-7.55 17.01-16.93 17.04h-.11v8.52a8.58 8.58 0 0 1-8.52 8.52h-8.51v-17.03c-.03-9.38 7.55-17.01 16.93-17.04h17.14z"/></svg>