<svg xmlns="http://www.w3.org/2000/svg" width="150" height="25"><g fill="none" fill-rule="evenodd"><path fill="#6b737b" d="M0 24.802h121.395V0H0z"/><path fill="#0356a0" d="M125.71 24.802h24.175V0H125.71z"/><path fill="#fefefe" d="M17.974 13.933c-.305 1.909-.849 3.452-2.037 4.508-1.172 1.056-3.005 1.645-5.925 1.645-2.904 0-8.285-.244-8.285-7.758 0-7.513 5.381-7.757 8.285-7.757 2.886 0 7.334.447 7.962 6.194h-5.398c-.137-1.036-.714-2.539-2.564-2.539-1.952 0-3.192 1.158-3.192 4.102s1.205 4.102 2.954 4.102c1.511 0 2.41-.751 2.802-2.497zm6.483-2.478h3.395c.934 0 1.324-.446 1.324-1.36 0-1.097-.594-1.361-1.392-1.361h-3.327zM19.669 5.08h10.084c1.376 0 2.208.142 2.87.527.9.529 1.647 1.93 1.647 3.514 0 1.36-.476 2.822-1.868 3.31v.04c.713.244 1.29.975 1.375 2.234l.204 3.168c.05.65.289 1.26.594 1.706h-5.229c-.17-.427-.17-1.056-.254-2.741-.051-1.077-.357-1.727-1.24-1.727h-3.395v4.468h-4.788zm16.329-.001h12.886v3.533h-8.098v1.95h7.521v3.533h-7.52v1.95h8.097v3.533H35.998zm14.462 0h6.74l1.987 8.427h.034l1.986-8.427h6.74v14.499h-4.346V9.221h-.034L61.02 19.578h-3.634L54.841 9.221h-.034v10.357H50.46zM77.927 16.43c1.952 0 3.191-1.157 3.191-4.102s-1.239-4.102-3.191-4.102c-1.953 0-3.192 1.158-3.192 4.102s1.24 4.102 3.192 4.102m0-11.859c2.903 0 8.285.243 8.285 7.757s-5.382 7.758-8.285 7.758-8.285-.244-8.285-7.758 5.382-7.757 8.285-7.757m9.979.508h5.467l4.855 8.041h.051V5.08h4.584v14.499h-5.246l-5.093-8.123h-.034v8.123h-4.584zm23.681 4.386h-.034l-1.426 4.914h2.886zm-2.954-4.386h5.874l5.161 14.5h-5.093l-.51-1.666h-4.99l-.51 1.665h-5.093zm27.514 6.246h-4.43V7.69h.878c2.57-.042 3.908-.606 4.618-2.611h4.41v14.5h-5.476z"/></g></svg>