<svg xmlns="http://www.w3.org/2000/svg" width="349" height="200" fill="none"><path fill="#fff" d="M106.167 139.202h-48.82v-77.28h48.82c21.772 0 44.092 10.949 44.092 38.64 0 27.688-22.32 38.64-44.092 38.64m-5.54-117.28c-43.2 0-78.22 35.02-78.22 78.224 0 43.2 35.02 78.22 78.22 78.22s78.22-35.02 78.22-78.22c0-43.203-35.02-78.224-78.22-78.224"/><path fill="#fff" d="M103.199 84.422H81.671v32.285h21.528c15.64 0 21.168-6.493 21.168-16.141 0-9.652-5.568-16.144-21.168-16.144M273.318 102.734l-12.932-35.312h-17.58l-12.932 35.312-10.364-35.312h-23.1l21.748 68.092h19.584l13.736-32.964 13.976 32.964h19.584l21.744-68.092h-23.096z"/><path fill="#0C2950" d="M285.04 135.512h-19.584l-13.976-32.96-13.736 32.96h-19.588l-21.744-68.088h23.096l10.368 35.308 12.932-35.308h17.576l12.936 35.308 10.364-35.308h23.1zm-184.412 42.856c-43.2 0-78.22-35.024-78.22-78.224s35.02-78.22 78.22-78.22 78.22 35.02 78.22 78.22-35.02 78.224-78.22 78.224M248.652 0c-29.588 0-56.164 12.876-74.436 33.328C155.944 12.876 129.364 0 99.78 0 44.672 0 0 44.672 0 99.78s44.672 99.78 99.78 99.78c29.584 0 56.164-12.876 74.436-33.332 18.272 20.456 44.848 33.332 74.436 33.332 55.104 0 99.776-44.672 99.776-99.78S303.756 0 248.652 0"/><path fill="#0C2950" d="M103.199 116.707H81.671V84.422h21.528c15.6 0 21.168 6.492 21.168 16.144 0 9.648-5.528 16.141-21.168 16.141m2.968-54.785h-48.82v77.28h48.82c21.772 0 44.092-10.948 44.092-38.64s-22.32-38.64-44.092-38.64"/></svg>