<svg xmlns="http://www.w3.org/2000/svg" width="2500" height="1327" fill="none"><path fill="#fff" d="M64.398 516.756q0-16.122-15.658-16.123v-13.101h133.087v165.272h-12.175q-6.087-78.604-19.139-107.328c-8.696-19.148-21.747-29.059-39.14-29.73v171.319q23.487 9.069 24.356-75.582l12.179 1.008v206.596h-12.179q0-81.628-24.356-87.676v214.653c0 19.487 4.058 26.873 12.177 22.168l.87 15.118H51.353l-.873-15.118q14.789 6.05 13.918-21.164zm165.742-16.123v-14.107h69.987l-.91 14.107q-12.727 2.015-12.728 20.158v421.245c.301 19.816 5.154 29.226 14.54 28.216v14.11H230.14v-14.11c8.484 1.35 12.724-8.058 12.724-28.216V520.791q.001-18.143-12.724-20.158m146.66 21.166q2.582-18.144-13.776-22.17v-13.101h61.146l33.592 281.166V517.768q-.002-15.116-10.334-17.131V486.53h52.536v13.101c-7.468 2.016-10.338 16.117-10.338 42.325V983.36h-40.48l-41.341-316.442v283.181q-2.58 22.168 12.921 21.163v12.098h-58.565l.865-11.087c9.759-1.348 14.351-9.069 13.776-23.179zm215.527 325.504h16.974l-8.704-163.258zm13.494 137.061v-7.055c6.963-8.063 9.287-36.95 6.963-86.668h-21.761q-5.226 74.575 6.095 86.668v7.055h-56.585v-7.055c4.641-.669 8.558-2.859 11.75-6.55 3.194-3.691 12.911-164.769 29.163-483.221h45.266c21.473 318.452 33.37 479.532 35.692 483.221 2.32 3.695 5.803 5.881 10.444 6.55v7.055zm125.746-455.513q-.845-26.202-16.856-27.21v-15.115h76.7v14.107q-16.857 2.016-16.858 28.218l.21 423.765c21.21-1.679 37.719-58.952 49.518-171.822h10.955v203.57H713.867v-14.11q16.855-2.019 17.698-24.184zm235.743-12.095q-.001-16.122-15.608-16.123v-13.101h132.668v165.272h-12.14q-6.075-78.604-19.08-107.328c-8.67-19.148-21.68-29.057-39.02-29.73v171.319c15.61 6.045 23.7-19.147 24.28-75.582l12.14 1.008v206.596h-12.14c0-54.419-8.09-83.643-24.28-87.676v214.653c0 19.487 4.05 26.873 12.14 22.168l.87 15.118h-72.833l-.873-15.118c9.83 4.035 14.451-3.022 13.876-21.164zm193.73 330.547h17.08l-8.76-163.258zm13.58 137.061v-7.055c7.01-8.063 9.35-36.95 7.01-86.668h-21.9c-3.51 49.718-1.46 78.605 6.13 86.668v7.055h-56.95v-7.055c4.68-.669 8.62-2.859 11.83-6.55 3.21-3.693 13-164.769 29.35-483.221h45.56c21.61 318.452 33.58 479.532 35.92 483.221 2.33 3.695 5.84 5.881 10.51 6.55v7.055zm121.67-462.565c0-12.095-2.95-19.485-14.17-22.17v-13.101h62.86l34.53 281.166V517.768c0-10.077-3.54-15.788-10.63-17.131V486.53h54.01v13.101q-11.505 3.025-10.62 42.325V983.36h-41.61l-42.5-316.444v283.181c0 14.847 2.66 21.834 13.28 21.163v12.098h-60.2l.88-11.087c10.03-1.348 14.17-9.069 14.17-23.178m308.44-461.653-.18 175.445h-14.54c-2.85-71.888-10.83-114.549-23.95-127.985v413.182c0 16.126 6.28 26.203 18.82 30.235v7.055h-79.55v-7.055c13.69-4.032 19.96-14.444 18.82-31.239V534.9c-14.25 12.768-23.38 55.429-27.37 127.985h-11.97l.09-175.445m210.52 359.863h16.51l-8.46-163.258zm13.12 137.061v-7.055c6.78-8.063 9.03-36.95 6.78-86.668h-21.17c-3.38 49.718-1.41 78.605 5.93 86.668v7.055h-55.03v-7.055c4.51-.669 8.32-2.859 11.43-6.55 3.11-3.693 12.55-164.769 28.36-483.221h44.03c20.88 318.452 32.45 479.532 34.71 483.221 2.26 3.695 5.65 5.881 10.16 6.55v7.055zm121.93-175.352 46.37-28.218c-5.73 104.807-4.15 159.896 4.71 165.272 8.88 5.376 13.88 2.687 15.03-8.061 5.15-40.309 5.15-80.962 0-121.94-1.72-20.827-5.15-35.613-10.3-44.342-32.06-58.449-50.37-102.121-54.95-131.012l-.86-99.769c6.3-34.933 23.47-52.402 51.52-52.402 31.48.672 48.08 24.186 49.79 70.544l2.58 64.498-42.93 32.249c.57-40.308.57-77.935 0-112.87q0-25.194-9.87-25.7c-6.59-.333-9.88 7.56-9.88 23.683l.86 100.777c29.19 55.09 48.94 97.416 59.24 126.976 10.31 29.567 14.03 71.893 11.17 126.979-2.86 61.134-21.47 91.369-55.81 90.7-33.2-2.016-52.09-28.975-56.66-80.875zM2055 494.588v12.093c-14.91.054-16.31 16.966-12 60.971s10.88 75.978 17.25 102.288c8.06-66.512 12.14-112.367 13.68-131.515 1.54-19.15-1.59-31.48-11.54-31.744v-12.093h58.17v13.101c-9.85.673-13.42 5.48-14.77 14.11l-42.47 271.088v149.151c-.62 16.792 4 25.863 13.85 27.208v13.101h-66.48v-14.109c8.61-.669 17.31-9.18 17.31-25.977v-149.59l-20.15-255.759c-1.91-24.162-6.61-31.239-20.25-31.239l-.92-11.085zm79.45 439.267c-3.31 0-6.38.607-9.22 1.801-2.84 1.18-5.45 2.952-7.82 5.334q-3.57 3.558-5.37 7.825c-1.18 2.809-1.76 5.883-1.76 9.219 0 3.301.58 6.375 1.76 9.218 1.2 2.809 2.99 5.408 5.37 7.781 2.34 2.35 4.94 4.115 7.78 5.284 2.87 1.176 5.95 1.763 9.26 1.763 3.36 0 6.44-.571 9.26-1.721 2.81-1.174 5.41-2.952 7.78-5.326 2.38-2.373 4.15-4.972 5.33-7.781q1.8-4.266 1.8-9.218 0-5.005-1.8-9.219c-1.18-2.845-2.95-5.448-5.33-7.825-2.4-2.406-5.02-4.2-7.86-5.37-2.82-1.174-5.88-1.765-9.18-1.765m-2.34 12.089h-1.43v8.484h1.43c2.14 0 3.73-.355 4.8-1.068 1.09-.734 1.63-1.812 1.63-3.239 0-1.418-.53-2.47-1.6-3.146q-1.545-1.032-4.83-1.031m1.52-5.657c4.81 0 8.4.823 10.78 2.46 2.37 1.61 3.56 4.07 3.56 7.37 0 2.357-.73 4.291-2.17 5.818-1.43 1.54-3.45 2.53-6.07 2.993q1.68.907 3.12 2.541c.98 1.096 1.87 2.433 2.66 4.016l4.55 9.053h-9.38l-4.39-8.725c-1.04-2.13-1.95-3.633-2.75-4.51q-1.185-1.351-2.37-1.353h-.49v14.588h-8.73v-34.255zm.82-12.738c4.15 0 8.02.749 11.59 2.254 3.61 1.503 6.9 3.743 9.88 6.719 2.98 2.979 5.2 6.254 6.68 9.834 1.47 3.577 2.21 7.472 2.21 11.682 0 4.148-.74 8.016-2.21 11.594-1.48 3.551-3.7 6.815-6.68 9.789-2.98 2.978-6.27 5.218-9.88 6.723-3.57 1.499-7.44 2.254-11.59 2.254s-8.03-.755-11.64-2.254c-3.58-1.505-6.85-3.745-9.83-6.723-2.98-2.974-5.2-6.238-6.68-9.789-1.48-3.578-2.21-7.444-2.21-11.594 0-4.206.73-8.105 2.21-11.682 1.47-3.58 3.7-6.855 6.68-9.834 2.98-2.976 6.25-5.216 9.83-6.719 3.6-1.505 7.49-2.254 11.64-2.254m141.54-419.862 2.81-15.115h59.9v15.115c-13.1-.67-19.03 7.055-17.78 23.178l-29.01 455.513h-41.19l-43.99-458.535c-1.24-10.077-8.42-17.131-21.52-21.164v-14.107h82.36v15.115q-19.65 1.01-18.72 22.17l22.47 291.242 18.72-290.238c1.24-15.444-3.44-23.174-14.05-23.174m70.46-15.117v13.982c6.43 1.329 9.7 7.956 9.7 19.906v416.081c0 19.914-3.27 29.167-9.7 27.839v13.984h101.16v-13.984c-6.46.996-9.75-8.26-9.96-27.839V526.458c0-11.946 2.86-18.577 8.7-19.906l.62-13.982zm52.4 13.984c5.83 1.329 8.82 7.956 8.82 19.906v416.081c0 18.359-2.47 27.666-7.43 27.967h-1.39c-6.19-.387-9.48-9.732-9.69-27.967V526.458c-.01-11.948 3.26-18.577 9.69-19.904M.37 1028.7h2499.26v24.19H.37z"/><path fill="url(#a)" d="M2185.46 13.125c-9.68 1.148-9.21 4.747-20.41 2.072-9.91-2.655-11.93 3.312-16.12 5.74-6.8 3.92-11.94 4.283-16.13 8.062-2.5 2.25-4.9 8.734-8.06 12.093-4.15 4.398-6.3-2.244-12.1 4.035-4.38 4.743-9.55 2.748-16.12 4.032-5.37 1.046-6.96 12.68-12.09 16.123-5.14 3.45-13.6 4.512-20.16 8.063-15.08 8.168-19.67 17.696-42.07 20.407-18.4 0-33.07 17.208-42.58 11.844-5.55-5.552 14.14-23.246 32.25-26.492 17.12-3.054 30.66-9.76 28.47-13.568-3.36-5.805-43.3 11.843-47.63 7.811-4.44-4.142 60.87-33.161 55.82-40.058-3.61-4.917-29.26 10.612-52.78 19.906-12.51 4.939-10.12 0-14.04 0-3.26 0-5.66 9.316-16.08 16.126-6.17 4.03-9.79 2.952-18.25 8.062-3.76 2.262-4.04-4.034-8.07-4.034-12.45 0-28.68 20.475-36.28 16.125-4.13-2.365 16.13-16.125 12.1-20.155-4.04-4.037-17.12 4.767-27.18 10.057-14.83 7.799-32.56 19.712-48.11 29.226-9.11 5.574-23.73 2.36-38.58 10.824-10.82 6.168-16.02 14.72-24.45 20.868-4.96 3.617-14.85 1.577-18.89 5.615-3.27 3.266-5.9 6.274-9.94 10.313-6.14 6.142-15.87 4.984-22.06 8.082-24.4 10.163-20.41 13.854-32.5 21.917s-29.9 10.436-52.41 24.186c-15.4 9.412-29.98 22.368-48.36 32.249-30.05 16.145-67.83 30.794-76.59 40.308-3.37 3.647-11.09 1.507-16.13 4.034-16.12 8.063-32.79 33.313-44.34 24.186-10.2-8.063 24.19-16.125 36.28-28.22 17.77-17.769 40.47-29.071 60.46-44.342 12.25-9.359 18.65-24.742 24.44-29.982 15.88-14.36 30.1-12.967 44.09-22.423 16.4-11.085 26.36-26.043 24.19-28.217-4.04-4.034-20.16 24.187-28.22 20.156-2.47-1.235 8.06-8.062 4.03-12.093-2.19-2.2-19.29 11.686-40.3 24.186-17.58 10.445-38.16 18.599-52.41 28.217-20.16 16.125-39.68 15.744-60.46 28.218-42.13 25.272-76.59 48.373-80.63 40.31-4.62-9.245 28.22-28.221 60.47-48.372 26.4-16.509 56.43-24.195 52.4-32.255-2.55-5.101-22.73 5.152-42.16 16.125-14.27 8.063-26.37 9.891-42.49 20.158-42.51 27.063-86.85 51.82-88.69 48.37-4.25-7.943 24.19-14.165 24.19-26.256 0-5.993 16.12-22.114 20.15-18.086 4.12 4.119-12.22 12.217-8.06 16.377 3.91 3.907 21.73-12.247 28.22-20.407 8.75-14.275 50.71-33.938 44.34-40.31-2.27-2.269-68.52 40.31-80.62 40.31-20.25 0-94.62 62.613-100.77 56.435-9.94-9.967 24.18-24.186 48.37-40.312 26.27-17.514 57.03-31.684 54.67-35.774-1.37-2.359-58.01 27.364-115.14 55.934-48.37 24.186-92.71 60.466-96.74 56.435-4.04-4.03 32.02-26.51 28.22-30.318-2.65-2.645-43.03 26.961-84.66 50.472-28.77 16.249-59.3 26.597-72.56 30.484-5.6 1.641-11.7 1.685-86.916 1.763-110.604.118-227.505 12.095-308.126 92.714h12.095c72.561-64.498 168.802-76.591 233.803-76.591 35.776 0 63.703 3.502 96.747 14.107 37.677 12.094 54.687 22.23 52.407 26.203-2.83 4.894-22.163-3.997-40.063-4.158-19.782-.176-20.407.016-20.407 1.888 0 2.27 16.125 6.298-8.063 6.298-19.886 0-52.402-4.024-52.402-8.063 0-12.093 64.497 2.027 64.497-12.093 0-4.034-58.449-4.034-84.649-4.034-30.734 0-88.686-4.032-88.686 8.314 0 3.781 7.861 1.573 18.776 3.781 7.774 1.571 17.964 7.484 24.033 8.063 16.443 1.569 30.875-6.458 41.842 4.032 14.223 13.604-28.218 8.063-68.528 8.063-9.4 0-5.637 8.19 1.669 8.19 3.929 0 34.655-3.122 42.673 7.937 10.612 14.643 24.186 9.464 24.186 16.126 0 4.032-18.954 7.016-6.046 12.849 14.109 6.376 16.139 8.812 2.018 11.341-32.554 5.823-64.5 48.37-84.651 56.435v64.5c2.744 0 4.032 1.187 4.032 3.778 0 4.284-4.032 4.556-4.032 8.315 0 12.093 18.171-8.367 18.171 8.062 0 12.447-18.171 3.059-18.171 12.347 0 3.781 4.032 4.34 4.032 8.063 0 3.78-2.314 3.78-4.284 3.653l.252 16.253c8.062-8.063 16.123-24.186 20.155-20.158 4.436 4.434-11.468 24.627-20.155 32.247v12.095c28.216 0 85.124-74.88 133.025-56.435 16.124 6.21-12.093 12.095-20.155 16.123-20.613 10.307-45.867 33.393-64.5 50.323-16.012 14.545-24.184 38.363-48.37 50.452v12.096c1.696 4.032 8.062-4.033 8.062 4.032 0 4.008-8.062 12.097 0 12.097 12.093 0 8.055-6.031 23.045-8.063l2.653-24.186h26.705v16.123c2.611.324 6.102.372 8.063 0 1.92 3.174-6.334 9.395-8.063 16.126 8.063-4.034 17.437-16.126 32.249-16.126 16.121 0 67.468-41.048 84.649-44.341V520.807c0-9.952-10.971-12.096-16.125-12.096v-28.226h22.423c15.86 0-38.87-13.251 1.763-13.251 12.095 0 25.398 7.121 32.247 13.251h92.72v181.398h-28.23l-5.01-40.31-.27 205.585h-28.61s-.37-16.188-.37-25.7c0-1.636.45-6.549-2.27-2.645-4.79 6.766-3.1 13.519-4.66 20.282l-.5 137.056c-.02 5.009 5.37 4.07 11.59 5.54l.88 29.731-87.679-.375-.503-2.643c-10.065 0-11.546 6.837-19.651 13.106-7.723 5.96-18.666 7.05-20.157 19.9l286.21-.76c0-9 12.09-10.47 16.12-28.216l-108.84-.251v-23.935c16.49-2.28 15.27-18.056 16.13-33.506l25.05-454.251h61.13l32 455.512c4.65 6.264 14.84-12.097 14.84 0 0 8.061-16.12 12.093-16.12 19.905 0 8.853 7.28 10.895 12.09 12.344v23.935l-32.25.251c4.04 14.312-9.26 18.992-12.09 28.222h16.13c12.09-10.61 19.79-30.37 24.18-24.187 4.03 5.667-4.03 21.817-12.09 24.187h72.56c8.06-5.76 12.09-21.962 20.15-28.222h-20.15c-7.76 3.725-8.06 20.152-16.13 20.152-10.54 0 6.42-11.2 8.07-20.403l-21.14.251 2.14-28.216c7.32.279 12.56-4.035 14.96-10.331 0-1.678-.67-1.766-4.03-1.766-9.85 0-26.91 35.265-32.25 32.249-6.15-3.472 21.55-33.351 34.27-48.624V520.803c0-5.809-4.5-11.632-14.11-12.096v-28.22h76.59l20.15 149.149V520.801c0-8.734-4.03-12.095-9.94-12.095l-.13-28.217 70.79.252-.25 27.965c-10.86 7.106-12.09 12.073-12.09 24.186v68.528c9.25-1.789 41.68-28.219 56.43-44.342v-16.126c-8.06 0-20.15 20.156-20.15 6.065 0-8.318 16.12-6.065 20.15-18.158v-48.372h72.56c32.25-28.218 101.73-71.261 173.34-124.963 16.12-12.095 15.56-16.479 24.19-24.186 12.34-11.041 24.18-16.124 20.15-20.158-9.36-9.358-73.08 51.373-76.59 44.344-8.06-16.125 48.37-34.455 88.68-66.726 13.74-10.987 33.68-13.682 44.35-25.992 13.97-16.124 24.18-9.448 32.25-20.156 7.82-11.428 17.27-12.48 28.22-16.123 12.09-4.035 4.02 4.283 14.35 4.283 5.22 0 13.86-2.914 13.86-5.956 0-4.194-8.05-2.358-8.06-6.388-.04-7.686 13.21-5.498 24.18-12.095 8.03-4.827 12.59-13.301 17.58-16.124 8-4.521 24.18-10.296 18.7-16.123-5.45-5.801-21.92 12.093-28.22 16.123-13.97 8.941-18.32.224-36.28 16.124-6.46 5.723-16.12 0-22.42 8.062-6.62 8.476-15.53 11.046-17.88 5.67-4.79-10.914 24.18-16.142 36.28-21.793 17.31-8.095 34.16-17.321 32.24-20.156-4-5.897-17.73 8.233-20.15 4.035-2.51-4.326 13.57-19.933 24.43-19.907 9.86.03 15.88-12.346 19.91-8.314 3.29 3.296-12.29 13.682-8.06 16.124 4.93 2.85 24.43-12.09 24.43-19.903 0-3.006-4.03-3.854-4.03-6.046 0-5.484 12.52-8.752 27.97-14.359 20.4-7.414 17.78-16.123 36.28-16.123 6.79 0 5.62-10.359 12.09-12.096 8.19-2.195 21.59-3.565 28.22-8.062 10.46-7.103 18.88-21.745 32.25-26.454 4.35-.7 2.27 2.27 8.06 2.27 7.24 0 7.44-9.872 12.1-12.096 4.03-1.924 4.47.038 8.06 0 5.49-.051 2.53-3.85 8.06-9.382 5.76-5.767 12.64-11.562 20.4-14.554 8.36-3.218 24.09-4.358 32-8.314 8.07-4.033 12.1-11.554 16.37-11.842 3.79-.251 1.41 3.781 5.96 3.781 4.15 0 3.23-3.677 8.15-3.78 6.66-.143 11.85-6.297 9.83-12.345-.63-1.895-13.03-.266-24.18 4.032-7 2.689-14.15 7.625-19.91 8.306m-721.81 108.59c0 20.392 12.09 32.247 28.22 32.247 16.5 0 28.22-12.093 28.22-32.247 0-20.158-8.07-32.249-28.22-32.249-19.37 0-28.22 12.091-28.22 32.249m28.21-28.22c8.06 0 3.92 9.013 0 9.951-6.26 1.501-16.3 9.727-18.51 18.265-1.02 3.899-5.67 12.093-5.67 0 0-16.121 8.06-28.216 24.18-28.216m72.56 386.984 20.54-.128c36.23-26.703 112.74-73.073 108.46-80.491-3.81-6.596-88.82 48.496-129 80.619m40.56-.128 7.81.126c1.76-4.054 4.04-8.063 0-8.063-2.96.002-3.89 1.15-7.81 7.937M572.026 516.756c-35.523 36.279-70.112 100.777-76.591 120.933v8.063c16.88-10.812 27.603-48.373 74.824-112.87zm449.914 8.063-.38 149.149c6.73-16.125 10.77-46.348 10.77-70.915l25.34.798c-3.9-31.624-13.25-69.877-35.73-79.032m453.8 48.374c-21.77 8.314-37.54 30.82-56.43 44.342v16.126l56.68-48.373zm36.41 16.251-1.77 11.968h5.67v-16.126zm-943.275-4.03c-23.487-.024-40.435 36.706-40.435 56.309 0 12.093-21.946 10.554-24.186 30.612-.461 4.13 0 13.73-8.063 17.888v108.964c2.33 4.356 4.803 11.464 8.189 5.92 8.476-13.879 12.648 2.198 15.999-6.172 8.063-20.158 25.833-19.74 28.47-32.125 6.434-30.255 5.139-53.133 14.739-92.84zm154.316 11.963c-6.873 0-9.937 7.095-15.243 13.227-4.382 5.061-10.203 5.755-10.203 10.96 0 6.531-9.194 10.18-9.194 16.125 0 1.938 9.194-6.677 13.226-10.708 8.091-8.09 14.104-18.047 21.416-21.289zm696.119 60.468V678c20-11.687 34.94-31.059 56.68-44.214l-.25-20.281c-22.98 12.093-37.54 30.987-56.43 44.34m-699.772-37.411c-8.933-.406-20.174 13.594-27.714 20.028-7.987 6.817-5.318 17.383-2.142 17.383 4.035 0 3.903-8.063 12.095-8.063 12.094 0-3.421 15.261-13.73 30.987-9.124 13.922-17.658 27.652-14.488 29.478 2.579 1.488 12.281-14.51 24.186-30.733 8.085-11.023 17.132-25.7 25.446-29.48-.733-5.033-4.021-5.141-5.039-8.189l5.039-8.188v-12.095a7.6 7.6 0 0 0-3.653-1.128m699.772 65.629v12.095l56.43-50.332v-6.105c-19.93 12.544-36.01 32.391-56.43 44.342m-696.119-24.186c-12.397 6.464-14.231 18.341-21.415 29.604-5.386 8.44-11.535 6.577-9.7 20.279 1.623 12.157 15.952-21.666 31.115-17.383zm0 64.494c-17.329 13.983-12.153 17.856-17.383 29.48-4.346 9.65-11.912 17.437-11.967 22.924-.126 12.096 20.878-10.288 29.352-16.123zm119.671 108.841c.166 46.824.291 94.268 0 141.089 20.156-12.093 45.661-22.108 68.528-40.31 16.838-13.408 29.362-28.965 48.37-44.342v-8.062c-7.775-2.26-4.519-8.061-12.093-8.061-4.034 0-12.095 7.823-12.095 0 0-2.825 4.134-5.665 8.063-10.139 4.903-5.585 10.278-12.716 16.125-14.045v-20.158c-7.126 0-21.703 34.734-25.699 31.744-2.944-2.204 8.232-15.636 5.769-18.317-6.002-6.548-48.6 59.13-56.66 55.101-13.004-6.5 56.54-56.453 56.435-76.591-.044-7.649 4.03-6.917 4.03-14.105 0-6.07-8.807-14.109-16.122-14.109-7.479 0-8.062-4.032-16.125-4.032-12.091-.004-44.34 32.242-68.526 44.337m493.568-48.374-.37 72.561c4.79.874 7.59-1.392 10.16-4.033zm-388.759 32.251c0 4.032 8.189-1.306 12.219-4.034l-.126-20.156c-4.445 7.807-12.093 15.522-12.093 24.19m-139.449 20.152c-9.698 0-19.14 16.125-25.825 16.125v80.621c12.093-8.062 22.577-78.249 25.825-96.746m527.678 36.281.15 24.186c9.41 0 7.29-12.095 13.93-12.095l-3.87-24.186c-3.39.002-6.84 8.817-10.21 12.095m.01 36.281.19 28.219c10.65 0 10.65-17.621 18.71-20.156l-4.04-24.186c-6.49 5.374-9.73 12.093-14.86 16.123m-169.24-12.095c-1.04 20.186-.87 39.717.4 60.466h5c4.03-19.364 2.63-40.308 1.96-60.466zm-206.906 8.063c-62.403 49.845-93.209 69.658-161.24 112.869h36.279c4.033-16.12 28.219-16.12 40.312-24.185 13.201-8.8 12.093 4.035 0 8.065-9.283 3.09-13.968 11.93-15.872 15.87 11.971.82 27.364.8 40.056.25-2.829-12.09 5.669-14.74 9.7-18.77 10.707-10.703 16.718-21.537 37.035-25.571l-.626-14.612c8.961-3.374 14.39.644 14.358-5.54-.085-15.315-.002-48.376-.002-48.376m376.146 48.374c6.8 0 14.86-4.992 14.86-12.095 0-10.252-11.25 3.364-14.86 4.032zm-879.905 36.279c0 10.006 5.823 20.286 7.937 28.216h4.035c0-8.06-2.653-19.21-4.035-28.216zm24.061 68.526c-.056 18.8 13.365 36.9 24.186 48.25-3.236-16.67-14.291-31.38-16.125-48.25zm108.965 4.03c0 3.76 3.907 3.19 3.907 5.8 0 2.51-2.717 2.28-4.033 2.27-9.769-.13-13.432-7.94-24.062-7.94-5.577 0-12.221 2.05-12.093 6.05.086 2.73 8.063-.41 8.063 4.03s-14.479.9-20.156 8.06c0 5.92 11.965 5.91 11.965 9.95 0 4.03-8.062 6.48-8.062 9.58 0 6.59.227 6.49.125 10.45-.105 4.1 22.436 18.37 24.061 22.67 2.661 7.05 12.095 16.78 12.095 19.91 0 1.96-4.035 2.43-4.035 4.03 0 7.02 6.921 5.92 12.976 5.92 15.243 0 15.243 8.06 19.273 8.06 16.126 0 16.126 4.03 18.391 4.03 1.685 0 2.204-.41 1.765-4.03-.846-6.94-12.129-7.19-12.093-9.57.036-2.47.583-7.56 2.268-6.43 5.799 3.91 21.926 12.1 44.845 12.1 5.298 0 4.781-4.16 9.322-4.16 4.513 0 4.25 5.1 9.32 9.32 3.985 3.32 18.898 6.91 18.898 8.82 0 4.01-11.967 1.79-11.967 6.3 0 3.78 28.219 5.7 28.219 9.44 0 2.4-16.244 4.17-16.126 8.57.158 5.92 36.154-.23 36.154 7.94 0 10.21-40.31 3.41-40.31 14.11 0 12.09 32.552 2.38 32.375 13.1-.118 7.06-20.116 8.28-20.156 13.22-.08 9.96 143.039 6.42 140.709 14.11-4.334 14.31-31.987 12.22-51.145 12.22-15.191 0-44.971-8.32-44.971-.13 0 7.95 36.332 11.21 66.009 28.34 18.868 10.9 40.487 15.88 62.606 15.88 28.218 0 53.706-8.36 72.937-15.62 23.675-8.94 39.933-12.6 47.995-28.73 2.1-4.2 8.22-11.84 13.6-11.84 6.57 0 12.89 7.81 18.65 7.81 16.12 0 53.85-38.64 60.09-32.12 6.67 6.98-46.21 34.93-61.85 44.21-3.26 1.93-8.95 8.07-2.27 8.07 18.34 0 51.67-29.05 68.9-47.37 5.48-5.83-5.81-12.92 7.69-13.1 9.19-.13 36.28-28.22 48.37-40.31 6.12-6.13 25.56-26.63 48.37-52.4 28.7-32.43 64.37-68.18 64.37-84.4l-80.49-.26s-2.02 3.52-2.02 5.92c0 5.74 10.08-3.52 10.08 4.54 0 4.03-20.16 11.36-20.16 25.82 0 8.06 11.12-7.78 14.62-6.67 8.41 2.68-14.18 19.91-14.62 26.83-.39 6.15 4.2 2.57 4.16 9.19-.04 6.92-32.37 17.9-32.37 35.14 0 12.1 12.96-5.85 16.12-4.03 10.03 5.78-12.07 24.31-17.89 24.31-4.92 0-10.31-20.15-18.14-20.15-6.63 0-14.99 20.03-28.47 20.03-20.15 0-27.8 19.67-32.24 16.12-15.71-12.57 88.71-84.66 105.56-136.93l-351.46-.13c-7.406 4.03-24.24 10.58-34.393 12.73-24.821 5.24 2.142-7.89 2.142-12.73H589.031zm169.557 33.39c2.677-.23 3.653 1.17 3.653 6.92 0 7.2-12.027 16.32-21.919 16.26-6.054-.04-15.137-4.27-14.36-8.19 1.597-8.08 11.338-10.89 18.898-11.97 6.673-.95 11.051-2.8 13.728-3.02"/><defs><linearGradient id="a" x1="500.439" x2="1488.05" y1="1131.9" y2="406.308" gradientUnits="userSpaceOnUse"><stop stop-color="#EDEFF3"/><stop offset=".115" stop-color="#C3C8D9"/><stop offset=".27" stop-color="#809CC7"/><stop offset=".601" stop-color="#4A7C75"/><stop offset=".888" stop-color="#284B39"/><stop offset="1" stop-color="#fff"/></linearGradient></defs></svg>