<svg xmlns="http://www.w3.org/2000/svg" width="342" height="317" fill="none"><path fill="#ECC141" d="M225.1 0C142.5 0 0 66.1 0 184.3c0 43.7 40.5 86.6 110.6 86.6 68.5 0 125.7-34.2 125.7-34.2s-1 11.1-1 22.4c0 11.2 5.8 57.6 53.4 57.6s52.8-34.5 52.8-49.7V97.5c0-11.8-2.6-34.4-47.3-31.3 0 0-86.8 4.5-95.4 5.6-8.6 1-41.5 6.3-41.5 33.2 0 14.2 16.1 15.5 26.6 15.5 29.8 0 65-2.8 65-2.8s-35.7 73.2-126.5 73.2c-46.7 0-67.1-23.8-67.1-50.7 0-43.9 58.4-108.9 136.9-108.9 36.4 0 46.1 19.1 72.1 19.1s38.2-11.8 38.2-23.4c-.1-11.9-28-27-77.4-27"/></svg>