<svg xmlns="http://www.w3.org/2000/svg" width="414" height="342" fill="none"><path fill="#F26522" d="M404.7 214.7H8.3v127.2h396.4z"/><path fill="#2B3B46" d="M404.7 8.3H8.3v212.2h396.4z"/><path fill="#fff" d="M154.5 106H94.3v22.6H111c-3.8 4.8-9.3 7.8-15.5 7.8-11.4 0-20.7-10.3-20.7-23s9.3-23 20.7-23 13.2 3.9 17 9.9l34.8-13.8C137.1 70 117.7 58.9 95.6 58.9c-32.9 0-59.5 24.4-59.5 54.5s26.7 54.5 59.5 54.5 59.5-24.4 59.5-54.5-.2-5-.6-7.4M336.7 60.8H281v106.1h36.6v-31.3h19.1c20.7 0 37.4-16.8 37.4-37.4s-16.8-37.4-37.4-37.4m-9.2 47.3h-9.9V88.3h9.9c5.5 0 9.9 4.4 9.9 9.9s-4.4 9.9-9.9 9.9M241 126.5c11.3-5.8 19-17.4 19-31 0-19.2-15.6-34.8-34.8-34.8s-1.6 0-2.4.1c0-.1-18.1-.1-18.1-.1h-37.6v106.1h37.6v-36.5l18.7 36.5h44.1l-26.6-40.4zm-27.5-18.4h-9.9V88.3h9.9c5.5 0 9.9 4.4 9.9 9.9s-4.4 9.9-9.9 9.9"/><path fill="#A7A9AC" d="M413.1 341.9H0V0h413.1zM8.3 333.5h396.4V8.3H8.3z"/><path fill="#A7A9AC" d="M409 220.5H4.2v8.3H409z"/><path fill="#fff" d="m57.5 307.1 8.8-60h10.6l-11.4 73.6H48.3L37 247.1h11.6zM93.8 278.1h15.9v10.5H93.8v21.5h20v10.6H82.2v-73.6h31.6v10.5h-20zM145.1 320.7c-.6-1.9-1.1-3-1.1-9v-11.6c0-6.8-2.3-9.4-7.6-9.4h-4v30h-11.6v-73.6h17.4c12 0 17.1 5.6 17.1 16.9v5.8c0 7.6-2.4 12.5-7.6 14.9 5.8 2.4 7.7 8 7.7 15.7v11.4c0 3.6.1 6.2 1.3 8.9h-11.8zm-12.6-63.1v22.6h4.5c4.3 0 6.9-1.9 6.9-7.8v-7.3c0-5.3-1.8-7.6-5.9-7.6h-5.6zM200.6 320.7h-11.7l-2-13.3h-14.2l-2 13.3h-10.6l11.8-73.6h16.9zm-26.4-23.4h11.1l-5.6-37.2-5.6 37.2zM198.6 247.1h35.7v10.5h-12.1v63.1h-11.5v-63.1h-12.1zM256.8 307.1l8.8-60h10.7l-11.4 73.6h-17.2l-11.4-73.6H248zM322.8 314.1c3 0 5.5 2.4 5.5 5.5s-2.5 5.5-5.5 5.5h-15c-5.9 0-11.3-2.4-15.1-6.3-3.9-3.9-6.3-9.2-6.3-15.1v-46c0-5.9 2.4-11.3 6.3-15.1 3.9-3.9 9.2-6.3 15.1-6.3h46c5.9 0 11.3 2.4 15.1 6.3 3.9 3.9 6.3 9.2 6.3 15.1V273c0 3-2.4 5.5-5.5 5.5s-5.5-2.4-5.5-5.5v-15.3c0-2.9-1.2-5.5-3.1-7.4s-4.5-3.1-7.4-3.1h-46c-2.9 0-5.5 1.2-7.4 3.1s-3.1 4.5-3.1 7.4v46c0 2.9 1.2 5.5 3.1 7.4s4.5 3.1 7.4 3.1h15z"/><path fill="#fff" d="M364.2 288.7c0-3 2.4-5.5 5.5-5.5s5.5 2.4 5.5 5.5v15c0 5.9-2.4 11.3-6.3 15.1-3.9 3.9-9.2 6.3-15.1 6.3h-14.4c-3 0-5.5-2.4-5.5-5.5s2.4-5.5 5.5-5.5h14.4c2.9 0 5.5-1.2 7.4-3.1s3.1-4.5 3.1-7.4v-15z"/><path fill="#fff" fill-rule="evenodd" d="M357.4 307.3c-1.1 1.1-2.5 1.6-3.9 1.6s-2.8-.5-3.9-1.6l-13.7-13.7c-1.6.6-3.3 1-5.1 1-7.7 0-13.9-6.2-13.9-13.9s6.2-13.9 13.9-13.9 13.9 6.2 13.9 13.9-.3 3.5-1 5l13.8 13.8c2.1 2.2 2.1 5.7 0 7.9" clip-rule="evenodd"/></svg>