<svg xmlns="http://www.w3.org/2000/svg" width="335" height="220" fill="none"><path fill="#007396" d="M280.33 66.08V38.87l-12.06 4.39v-9.05l36.4-13.09v36.26l-24.33 8.7zm-155.08 70.84c0-15.55-.97-28.8-12.18-40.01-8.4-8.4-21.29-14.08-40.73-14.08-9.6 0-20.9 1.43-30.06 2.97V21.71L0 24.39v195.57h42.29v-98.21c8.96-1.47 16.17-2.24 22.33-2.24 8.19 0 13 1.26 15.48 3.74 2.89 2.88 2.94 7.44 2.94 17.52v79.19h42.2v-83.04zm61.14.54c0-6.72.61-9.91 2.94-12.23 3.31-3.31 10.69-5.54 43.03-6.42V82.93c-43.82.45-63.75 5.29-76.31 17.86-11.39 11.38-11.95 24.24-11.95 38.57v80.65h42.29zm104.03-57.09c20 0 36.21-16.21 36.21-36.21S310.42 7.95 290.42 7.95s-36.21 16.21-36.21 36.21 16.21 36.21 36.21 36.21M290.43 0c24.39 0 44.15 19.77 44.15 44.15S314.81 88.3 290.43 88.3s-44.15-19.77-44.15-44.15S266.04 0 290.43 0"/></svg>