<svg xmlns="http://www.w3.org/2000/svg" width="169" height="109" fill="none"><path fill="#F08363" d="M19 27.2H0v80.9h19zM33.1 0h19v77.8c0 9 1.7 11.9 9.5 11.9V108c-22 0-28.5-6.5-28.5-29.9z"/><path fill="#E3013D" d="M95.6 108h-19V30.4c0-9-1.7-11.9-9.5-11.9V.3c22 0 28.5 6.5 28.5 29.9z"/><path fill="#F08363" d="M.2 18.3h18.3V0H8.3C3.8 0 .2 3.7.2 8.2z"/><path fill="#E3013D" d="M154.7 51.2c9-4.2 11.8-14.8 11.8-21.6C166.5 9.5 153.2.1 137 .1c-20.5 0-29.9 9.5-29.9 30.6h11.5c3.3 0 6.1-2.2 7-5.4 1.6-5.7 5.9-8.1 11.2-8.1 7.6 0 11.5 4.8 11.5 11.9 0 6.4-2.6 12-9.4 13.5h-6.3c-4.5 0-8.2 3.7-8.2 8.2V60h.3v.1h10.1c7.7 0 14 3.7 14 15.5 0 10.9-4.6 14.7-13 14.7-6.8 0-10.5-4.2-11.6-10.8-.5-3-3.1-5.1-6.1-5.1h-12.7c0 21 8.7 34.2 30.6 34.2 21.3 0 32.1-12.9 32.1-33.1-.1-11.8-2.7-20.4-13.4-24.3"/></svg>