<svg xmlns="http://www.w3.org/2000/svg" width="109" height="56" fill="none"><path fill="#fff" d="M0 0h10.562v14.738L21.637 0h14.037L23.223 14.712 36.233 39h-13.01l-7.205-16.042-5.456 6.518V39H0zM38.868 0h29.891v7.795L49.593 30.62h19.865V39H37.027v-8.087L55.982 8.327H38.868z"/><path fill="#EB111A" d="M95.482 32.562H83.45L81.795 39H71L83.847 0h11.518l12.847 39H97.161zm-2.215-8.433-3.777-14.02-3.754 14.02zM0 42.23h3.613v5.113l3.79-5.112h4.801l-4.26 5.103 4.452 8.426H7.945L5.48 50.195l-1.867 2.261v3.304H0zM13.736 42.23h3.62v13.53h-3.62zM19.981 42.23h3.374l4.403 7.485v-7.484h3.406v13.53h-3.406l-4.379-7.43v7.43h-3.398zM33.27 42.23h10.226v2.705l-6.557 7.918h6.796v2.907H32.64v-2.805l6.485-7.836H33.27zM45.514 42.23h3.621v13.53h-3.621zM59.52 50.232l3.167 1.108q-.318 1.54-1.005 2.574-.686 1.035-1.707 1.56-1.013.526-2.584.526-1.906 0-3.119-.637-1.204-.646-2.082-2.26-.877-1.617-.877-4.135 0-3.36 1.54-5.16Q54.398 42 57.222 42q2.21 0 3.47 1.034 1.269 1.033 1.883 3.174l-3.191.822q-.168-.619-.351-.905a2.2 2.2 0 0 0-.742-.738 1.9 1.9 0 0 0-.98-.258q-1.23 0-1.883 1.144-.495.849-.495 2.667 0 2.252.59 3.092.59.83 1.66.83 1.036 0 1.563-.674.534-.673.774-1.956M71.645 53.527h-4.116l-.566 2.233H63.27l4.395-13.53h3.94L76 55.76h-3.78zm-.758-2.926-1.292-4.863L68.31 50.6z"/><path fill="#fff" d="M82 42h11.373v3.457h-3.816V56h-3.741V45.457H82zM93.876 42h3.915l2.726 10.075L103.201 42H107l-4.493 14h-4.055z"/></svg>