<svg xmlns="http://www.w3.org/2000/svg" width="247" height="139" fill="none"><path fill="#fff" d="M201.9 0c4.4 1.3 8.6 3.1 12.7 5.3 1.8 1 6.5 4 6.8 4.2.5.3.7.8.7 1.3v37.7c0 .9-.7 1.6-1.6 1.6h-29.2c-.7 0-1.2-.4-1.5-1l-.3-.9c-3.8-10.2-7.1-14.5-17.7-14.5-16.6 0-25 11.8-25 35.2 0 21 11.9 34.1 30.9 34.1 8.2 0 16.3-1.4 24-4.2l10.5-3.6c.8-.3 1.7.2 2 1L225 126c.3.7 0 1.5-.6 1.9-7.5 4.9-18 8.7-28.2 11.1h50.4V0z"/><path fill="#fff" d="M99.3 71.4c0-20.2 7.6-38.9 21.3-52.8C129.3 9.8 140.1 3.5 152 0H0v138.8h146.6c-10-2.5-19.2-7.3-26.9-14.1-13.5-12.1-20.4-30.1-20.4-53.3M76 98.2c-.1-1.7-.2-3.4-.2-5h-.1c-2.5 4-5.6 5.8-10.1 5.8-5.6 0-10.8-2.5-11.8-8v7.3H24.7s0-42.9-.1-42.9H36v34.4h17.6v-.9c0-9.8 10.6-10.9 16.5-10.9 1.7 0 3.5.2 5.2.4-.1-4.4-3.3-5.5-7.3-5.5-3.5-.1-7 .7-10.2 2.4l-.2-7.5c4.1-1.6 8.4-2.4 12.8-2.3 8.2 0 15.2 3.5 15.2 13.2v11.9c0 2.5.2 5.1.6 7.5z"/><path fill="#fff" d="M63.7 88c0 2.2 2 3.6 4.6 3.6 4.2 0 6.8-3.8 6.8-7.6-1.4-.1-3-.2-4.7-.2-3.7 0-6.7 1.2-6.7 4.2"/></svg>