<svg xmlns="http://www.w3.org/2000/svg" width="121" height="118" fill="none"><path fill="#fff" d="M120.641 58.2a60 60 0 0 0-1.201-11.228q-.282-1.415-.665-2.808c-.75-2.678-1.587-5.314-2.723-7.864-1.008-2.292-2.102-4.542-3.367-6.685-1.673-2.828-3.56-5.528-5.704-8.035-2.981-3.515-6.305-6.686-9.993-9.45-2.895-2.166-5.962-4.03-9.179-5.658a59.6 59.6 0 0 0-12.416-4.586 63.5 63.5 0 0 0-9.822-1.65C58.388-.407 51.311.28 44.363 2.08c-2.788.707-5.512 1.671-8.15 2.807a63 63 0 0 0-8.105 4.2c-2.788 1.714-5.426 3.621-7.87 5.765-3.003 2.635-5.747 5.486-8.17 8.657a60 60 0 0 0-5.298 8.186 56 56 0 0 0-2.53 5.4A57 57 0 0 0 1.967 43.8c-.515 1.844-.9 3.73-1.222 5.615C.36 51.73.101 54.043.037 56.357c-.064 2.422-.064 4.865.15 7.286.172 1.992.43 3.964.793 5.914.408 2.185.987 4.328 1.652 6.471a57.6 57.6 0 0 0 5.232 11.808 58.5 58.5 0 0 0 8.728 11.4 61 61 0 0 0 7.441 6.47c3.946 2.893 8.17 5.293 12.695 7.157a62 62 0 0 0 8.492 2.786c3.11.772 6.24 1.35 9.415 1.607 1.887.172 3.774.193 5.64.279 3.645.021 7.27-.322 10.85-.964 3.646-.665 7.227-1.608 10.701-2.915s6.82-2.893 9.993-4.8c2.831-1.693 5.512-3.578 8.021-5.743 2.637-2.292 5.125-4.735 7.377-7.434 2.187-2.637 4.16-5.443 5.854-8.443 1.179-2.057 2.187-4.18 3.131-6.364 1.115-2.594 1.973-5.25 2.68-7.973a54 54 0 0 0 1.309-7.178c.3-2.442.493-4.971.45-7.521M86.287 89.937c-.944.557-1.844 1.178-2.767 1.778a6 6 0 0 1-.62.344c-1.438.792-2.96 1.414-4.505 1.971-1.758.644-3.56 1.222-5.425 1.586-.58.108-1.137.258-1.694.407-.772.215-1.544.278-2.316.364-1.008.129-2.06.194-3.046.428-1.115.259-2.23.28-3.366.28h-4.847c-.472 0-.943-.064-1.415-.171-.558-.15-1.158-.172-1.716-.216-.622-.02-1.243.023-1.822-.213a2 2 0 0 0-.6-.108c-1.052 0-2.017-.385-3.025-.578-1.372-.279-2.702-.729-4.03-1.179-1.202-.407-2.36-.922-3.41-1.629-.172-.106-.344-.236-.537-.3-.922-.364-1.608-1.05-2.273-1.713-.407-.407-.836-.814-1.265-1.222-1.673-1.5-2.66-3.428-3.517-5.486-.558-1.35-.836-2.742-1.222-4.114a5 5 0 0 1-.108-.815c-.043-.277-.02-.556-.128-.813-.28-.773-.258-1.544-.258-2.337V40.308c0-.793.022-1.564.258-2.335.193-.642.214-1.35.364-2.014.408-1.95 1.18-3.771 2.102-5.55.965-1.844 2.36-3.258 3.946-4.544 1.158-.963 2.487-1.692 3.86-2.314 1.458-.663 2.937-1.328 4.481-1.756.858-.236 1.737-.364 2.617-.537q1.605-.315 3.216-.6c.3-.064.622-.084.922-.084h10.08c.128 0 .278-.023.407.02 1.008.236 2.037.28 3.045.45 1.523.236 3.024.6 4.503.965 1.802.45 3.603.857 5.297 1.629.9.407 1.866.663 2.788 1.05 1.03.45 2.06.942 3.066 1.435 1.094.558 2.166 1.157 3.26 1.758.536.3.9.75.88 1.414v17.914c0 .471.085.965-.215 1.479-.279.02-.58.086-.88.086H65.38c-.62-.023-.75-.173-.772-.816-.02-.278 0-.556 0-.813v-6.28c0-.213-.02-.406 0-.62.172-1.93-1.35-3.193-2.616-3.815a.9.9 0 0 0-.386-.107c-.965-.022-1.908-.043-2.873 0-.6.042-1.137.386-1.502.814-.643.771-1.157 1.607-1.179 2.678v37.95c-.043 1.437.815 2.359 1.887 3.109.258.17.644.234.987.256q1.286.064 2.573 0c1.03-.043 1.823-.514 2.36-1.415.513-.835.792-1.713.771-2.72a891 891 0 0 1 0-10.693c0-1.394 0-1.394 1.35-1.394h20.18c.408 0 .837-.084 1.201.194.215.406.15.879.15 1.306v21.087c0 .129-.02.278 0 .406.065.922-.387 1.543-1.223 2.036"/></svg>