<svg xmlns="http://www.w3.org/2000/svg" width="308" height="119" fill="none"><path fill="#E42920" d="M304.26 56.7C315.85 21.67 297.2 1 280.23.08c-33.4-1.82-38.85 27.82-38.98 28.55-1.02-.54-27.43-14.21-46.53 12.96-9.77 13.9-5.08 41.34 29.61 53.91l60.62 23.2 19.3-62z"/><path fill="#fff" d="M220.46 46.58v9.7h12.43v33.81h9.83V56.28h9.83l9.83 33.56h15.71l13.27-43.26h-9.24l-9.66 34.44-3.86-.76-9.07-33.6s-39.06.17-39.06-.08zM136.38 38.01H87.16v13.28h27.4L90.85 78.97 78.4 38.01H54.41L40.75 83.52H15.94V38.01H0v59.13h53.09l2.85-10.2h21.32l3.03 10.2h55.94V83.86h-29.46l29.61-32.59zM59.39 75.44l7.24-25.56 7.48 25.56H59.38zM156.5 38.01v59.13h-15.94V38.01zM188.96 36.34c7.58 0 12.99.71 16.24 2.12 5.77 2.53 9.32 7.02 10.64 13.48.54 2.65.81 7.97.81 15.97 0 6.7-.21 11.29-.63 13.75-1.2 7.04-4.54 11.83-10.01 14.39-3.91 1.83-10.28 2.75-19.12 2.75s-14.67-1.11-18.31-3.34c-4.63-2.86-7.49-7.11-8.57-12.76-.45-2.38-.68-6.33-.68-11.86q0-15.51 1.62-21.33c1.5-5.38 5.46-9.2 11.86-11.46 3.19-1.14 8.57-1.71 16.15-1.71m-.48 14.19c-3.82-.03-6.44.26-7.85.86-2.32.96-3.71 3.51-4.2 7.65-.09.69-.13 3.84-.13 9.45 0 6.33.36 10.45 1.08 12.34.69 1.77 2.25 2.91 4.69 3.42 1.14.24 3.22.36 6.23.36s4.9-.16 6.05-.5c2.01-.6 3.42-1.91 4.22-3.94q1.2-3.045 1.2-13.26c0-6.81-.38-10.9-1.13-12.63s-2.2-2.84-4.33-3.35c-1.08-.27-3.02-.41-5.82-.41z"/></svg>