<svg xmlns="http://www.w3.org/2000/svg" width="201" height="42" fill="none"><path fill="#006556" d="M.5 2c0-.3.3-.6.7-.6h7.5c.4 0 .7.2.7.6v31.6c0 .2.1.3.4.3h11.7c.4 0 .7.2.7.6v5.7c0 .3-.3.6-.7.6H1.2c-.4 0-.7-.2-.7-.6zM26.7 2c0-.3.3-.6.7-.6h7.5c.4 0 .7.2.7.6v38.1c0 .3-.3.6-.7.6h-7.5c-.4 0-.7-.2-.7-.6zM41.8 2c0-.3.3-.6.7-.6h20.2c.4 0 .7.2.7.6v5.7c0 .3-.3.6-.7.6H51.2c-.3 0-.4.1-.4.3v8.9c0 .2.1.3.4.3h10c.4 0 .7.2.7.6v5.7c0 .3-.3.6-.7.6h-10c-.3 0-.4.1-.4.3v15.1c0 .3-.3.6-.7.6h-7.5c-.4 0-.7-.2-.7-.6V2zM68.1 2c0-.3.3-.6.7-.6H89c.4 0 .7.2.7.6v5.7c0 .3-.3.6-.7.6H77.4c-.3 0-.4.1-.4.3v8.6c0 .2.1.3.4.3h10c.4 0 .7.2.7.6v5.7c0 .3-.3.6-.7.6h-10c-.3 0-.4.1-.4.3v8.9c0 .2.1.3.4.3H89c.4 0 .7.2.7.6v5.7c0 .3-.3.6-.7.6H68.8c-.4 0-.7-.2-.7-.6zM93.9 21.1c0-10.1.2-11.7.9-13.6 1.7-4.3 5.7-6.6 11.9-6.6 7.5 0 11.8 3.4 12.4 9.8.1.3-.1.6-.5.7l-7.2 1c-.4.1-.7-.1-.7-.5-.2-2.8-1.6-4.2-3.9-4.2-1.6 0-3 .8-3.4 1.8s-.4 1.5-.4 11.6.1 10.6.4 11.4c.4 1.2 1.8 1.9 3.5 1.9s3.1-.8 3.5-1.9c.3-.8.4-1.4.4-7.2 0-.2-.1-.3-.4-.3h-2.9c-.4 0-.7-.2-.7-.6v-5.1c0-.3.3-.6.7-.6h11.2c.4 0 .7.2.7.6V21c0 10.1-.2 11.7-1 13.5-1.7 4.3-5.7 6.6-11.8 6.6-6.2 0-10.2-2.3-11.9-6.6-.6-1.6-.8-3.3-.8-13.4M131.3 2c.1-.3.3-.6.7-.6h8c.4 0 .7.2.7.6l9.9 38.1c.1.3-.1.6-.5.6h-7.5c-.5 0-.7-.2-.7-.6l-1.5-7.1h-8.8l-1.6 7.1c-.1.3-.3.6-.7.6h-7.5c-.4 0-.6-.2-.5-.6zm7.8 25.1-2.9-13.6h-.2l-3 13.6zM158 40.8c-.4 0-.7-.2-.7-.6V8.6c0-.2-.1-.3-.4-.3h-7.3c-.4 0-.7-.2-.7-.6V2c0-.3.3-.6.7-.6h24.3c.4 0 .7.2.7.6v5.7c0 .3-.3.6-.7.6h-7.3c-.3 0-.4.1-.4.3v31.6c0 .3-.3.6-.7.6zM178.7 2c0-.3.3-.6.7-.6h20.2c.4 0 .7.2.7.6v5.7c0 .3-.3.6-.7.6H188c-.3 0-.4.1-.4.3v8.6c0 .2.1.3.4.3h10c.4 0 .7.2.7.6v5.7c0 .3-.3.6-.7.6h-10c-.3 0-.4.1-.4.3v8.9c0 .2.1.3.4.3h11.6c.4 0 .7.2.7.6v5.7c0 .3-.3.6-.7.6h-20.2c-.4 0-.7-.2-.7-.6z"/></svg>