<svg xmlns="http://www.w3.org/2000/svg" width="300" height="117" fill="none"><g fill="#83A9F2" filter="url(#a)"><path d="M47.66 59H15.02C9.036 59 4.14 54.104 4.14 48.12V15.48C4.14 9.496 9.036 4.6 15.02 4.6h32.64c5.984 0 10.88 4.896 10.88 10.88v32.64c0 5.916-4.828 10.88-10.88 10.88M15.02 15.48v32.64h32.64V15.48zM124.084 59H75.056c-6.392 0-11.084-4.692-11.084-11.084V4.6h10.88v43.52h49.232zM295.4 4.6v10.88h-43.52v10.88h43.52v10.88h-43.52v10.88h43.52V59h-43.52C245.896 59 241 54.104 241 48.12V15.48c0-5.984 4.896-10.88 10.88-10.88zM236.4 15.88v10.88c0 5.984-4.896 10.88-10.88 10.88h-10.88l10.88 10.88h10.88V59.4h-13.056a5.45 5.45 0 0 1-3.944-1.632L199.272 37.64h-6.392V59.4H182V5h43.52c5.984 0 10.88 4.896 10.88 10.88m-10.88 0h-32.64v10.88h32.64zM143.876 59.4h10.88V15.88H176.5V5H123v10.88h20.876z"/></g><g fill="#83A9F2" filter="url(#b)"><path d="M73.4 112.4H19v-10.88h21.76V68.88H19V58h54.4v10.88H51.64v32.64H73.4zM177.88 58h32.64c5.984 0 10.88 4.896 10.88 10.88v32.64c0 5.984-4.896 10.88-10.88 10.88H167v-10.88h43.52V90.64h-32.64c-5.984 0-10.88-4.896-10.88-10.88V68.88c0-5.984 4.896-10.88 10.88-10.88m32.64 21.76V68.88h-32.64v10.88zM270.352 112.4h-32.64c-5.984 0-10.88-4.896-10.88-10.88V68.88c0-5.984 4.896-10.88 10.88-10.88h32.64c5.984 0 10.88 4.896 10.88 10.88v32.64c0 5.916-4.828 10.88-10.88 10.88m-32.64-43.52v32.64h32.64V68.88zm21.76 21.76h-10.88V79.76h10.88zM132.4 112.4H88.88c-5.984 0-10.88-4.896-10.88-10.88V58h10.88v43.52h43.52z"/></g><defs><filter id="a" width="299.26" height="62.8" x=".14" y=".6" color-interpolation-filters="sRGB" filterUnits="userSpaceOnUse"><feFlood flood-opacity="0" result="BackgroundImageFix"/><feColorMatrix in="SourceAlpha" result="hardAlpha" values="0 0 0 0 0 0 0 0 0 0 0 0 0 0 0 0 0 0 127 0"/><feOffset/><feGaussianBlur stdDeviation="2"/><feComposite in2="hardAlpha" operator="out"/><feColorMatrix values="0 0 0 0 0.152941 0 0 0 0 0.47451 0 0 0 0 0.913725 0 0 0 0.25 0"/><feBlend in2="BackgroundImageFix" result="effect1_dropShadow_0_1"/><feBlend in="SourceGraphic" in2="effect1_dropShadow_0_1" result="shape"/></filter><filter id="b" width="270.232" height="62.4" x="15" y="54" color-interpolation-filters="sRGB" filterUnits="userSpaceOnUse"><feFlood flood-opacity="0" result="BackgroundImageFix"/><feColorMatrix in="SourceAlpha" result="hardAlpha" values="0 0 0 0 0 0 0 0 0 0 0 0 0 0 0 0 0 0 127 0"/><feOffset/><feGaussianBlur stdDeviation="2"/><feComposite in2="hardAlpha" operator="out"/><feColorMatrix values="0 0 0 0 0.153707 0 0 0 0 0.474794 0 0 0 0 0.913462 0 0 0 0.25 0"/><feBlend in2="BackgroundImageFix" result="effect1_dropShadow_0_1"/><feBlend in="SourceGraphic" in2="effect1_dropShadow_0_1" result="shape"/></filter></defs></svg>