<svg xmlns="http://www.w3.org/2000/svg" width="269" height="84" fill="none"><path fill="#fff" d="M0 0h269v83.896H0z"/><path fill="#000" d="M5.978 4.476h3.985v74.722H5.978zM125.533 4.476h3.986v74.722h-3.986z"/><path fill="#000" d="M5.978 4.476h257.044v4.483H5.978zM5.978 74.715h257.044v4.483H5.978z"/><path fill="#000" d="M259.037 4.476h3.985v74.722h-3.985zM13 42.019q0-6.63 3.538-10.325T26.392 28q6.474 0 9.977 3.639 3.503 3.62 3.503 10.158 0 4.746-1.54 7.794-1.52 3.03-4.422 4.728Q31.027 56 26.71 56q-4.387 0-7.27-1.46-2.867-1.458-4.653-4.617Q13 46.765 13 42.02m8.014.036q0 4.101 1.45 5.892 1.47 1.792 3.98 1.792 2.584 0 3.999-1.755t1.415-6.298q0-3.823-1.486-5.578-1.468-1.773-3.998-1.773-2.424 0-3.892 1.792-1.468 1.791-1.468 5.928M43.71 35.924h6.706v3.195q1.503-1.958 3.042-2.79 1.539-.849 3.75-.849 2.99 0 4.671 1.866 1.698 1.847 1.698 5.725v12.467h-7.235V44.752q0-1.847-.655-2.604-.654-.776-1.84-.776-1.308 0-2.122 1.034t-.814 3.713v9.42h-7.2zM84.31 51.069h-9.128l-1.256 4.47h-8.19l9.747-27.077h8.74l9.747 27.076h-8.386zm-1.68-5.855-2.866-9.734-2.848 9.734zM96.34 28.462h7.2v5.116h-7.2zm0 7.461h7.2v19.615h-7.2zM108.211 35.924h6.74v3.213q.972-2.086 1.999-2.863 1.044-.794 2.565-.794 1.592 0 3.485 1.035l-2.229 5.356q-1.273-.554-2.017-.554-1.415 0-2.193 1.219-1.115 1.717-1.115 6.427v6.575h-7.235z"/><path fill="#2B557F" d="M143 27.73h8.401v27.55H143zM166.02 27.73v7.592h4.146v5.582h-4.146v7.084q0 1.278.241 1.691.37.64 1.295.64.834 0 2.332-.49l.555 5.281q-2.794.62-5.218.62-2.813 0-4.145-.732-1.334-.733-1.98-2.218-.63-1.503-.63-4.848v-7.028h-2.775v-5.582h2.775v-3.664zM180.64 41.787l-7.199-.77q.407-1.918 1.166-3.007.777-1.11 2.221-1.917 1.035-.584 2.849-.902a22.6 22.6 0 0 1 3.923-.32q3.387 0 5.441.395 2.054.376 3.423 1.597.963.846 1.518 2.406.555 1.54.555 2.95v8.813q0 1.41.167 2.218.185.79.777 2.03h-7.069q-.426-.771-.555-1.166-.13-.413-.259-1.277-1.48 1.446-2.943 2.067-1.998.825-4.645.826-3.515 0-5.348-1.653-1.813-1.654-1.813-4.078 0-2.274 1.314-3.74 1.314-1.465 4.848-2.18 4.237-.864 5.496-1.202a27 27 0 0 0 2.665-.921q0-1.41-.574-1.973t-2.017-.564q-1.85 0-2.776.601-.721.47-1.165 1.767m6.532 4.021a35 35 0 0 1-3.238.996q-2.295.62-2.906 1.222-.629.62-.629 1.41 0 .9.611 1.484.629.563 1.832.563 1.258 0 2.331-.62 1.092-.62 1.536-1.503.463-.902.463-2.33zM199.311 27.73h7.55v27.55h-7.55zM211.95 27.73h7.532v5.206h-7.532zm0 7.592h7.532V55.28h-7.532zM231.159 41.787l-7.199-.77q.407-1.918 1.166-3.007.777-1.11 2.221-1.917 1.036-.584 2.85-.902a22.6 22.6 0 0 1 3.923-.32q3.386 0 5.44.395 2.055.376 3.424 1.597.962.846 1.517 2.406.555 1.54.555 2.95v8.813q0 1.41.167 2.218.185.79.777 2.03h-7.069q-.426-.771-.555-1.166-.13-.413-.259-1.277-1.48 1.446-2.943 2.067-1.998.825-4.644.826-3.516 0-5.348-1.653-1.814-1.654-1.814-4.078 0-2.274 1.314-3.74 1.314-1.465 4.848-2.18 4.238-.864 5.496-1.202a27 27 0 0 0 2.665-.921q0-1.41-.574-1.973-.573-.564-2.017-.564-1.85 0-2.775.601-.722.47-1.166 1.767m6.532 4.021a35 35 0 0 1-3.238.996q-2.294.62-2.906 1.222-.629.62-.629 1.41 0 .9.611 1.484.629.563 1.832.563 1.258 0 2.332-.62 1.09-.62 1.536-1.503.462-.902.462-2.33z"/></svg>