<svg xmlns="http://www.w3.org/2000/svg" width="440" height="137" fill="none"><g clip-path="url(#a)"><mask id="b" width="118" height="119" x="0" y="18" maskUnits="userSpaceOnUse" style="mask-type:luminance"><path fill="#fff" d="M42.9 76.6c0-15.9 8.2-22.5 16.4-22.5 11.4 0 15.4 7.5 15.4 23.6 0 14.1-5.7 23.4-16.4 23.4-11.1 0-15.4-7-15.4-24.5M0 81.1C0 121.8 22.3 137 56.1 137c34.1 0 61.6-24.1 61.6-61.8 0-35.9-18.9-56.6-55.9-56.6C27 18.7 0 42.7 0 81.1"/></mask><g mask="url(#b)"><path fill="url(#c)" d="m-38 32.5 141.9-51.7 51.8 142.3-141.9 51.7z"/></g><mask id="d" width="108" height="117" x="125" y="18" maskUnits="userSpaceOnUse" style="mask-type:luminance"><path fill="#fff" d="M162.9 36.4h-.2c.8-5 1.1-10 1.1-15h-38.2v112.9H167v-55c0-12.5 8.6-25.7 17.7-25.7 4.8 0 6.4 3.6 6.4 9.3v71.3h41.3v-80c0-19.3-8.4-35.7-33.4-35.7-17.3.2-29.1 7.9-36.1 17.9"/></mask><g mask="url(#d)"><path fill="url(#e)" d="m88.5 32.2 131.4-47.8 49.6 136.4-131.4 47.8z"/></g><mask id="f" width="108" height="119" x="241" y="18" maskUnits="userSpaceOnUse" style="mask-type:luminance"><path fill="#fff" d="M296.4 48.4c7.3 0 12 4.8 11.6 15.7h-25.4c.4-9.3 5.9-15.7 13.8-15.7M241 79.3c0 40 21.6 57.7 59.5 57.7 13.9 0 30-2.5 43.6-7.9l-3.6-30.9c-10.5 4.6-21.9 7-33.4 7-16.1 0-23.6-6.4-24.3-14.3h64.1c.9-5.9 1.3-11.8 1.4-17.7 0-31.3-15.9-54.7-50.9-54.7-36.6-.1-56.4 25.8-56.4 60.8"/></mask><g mask="url(#f)"><path fill="url(#g)" d="M202.9 32.3 335.7-16l50.6 139.2-132.8 48.3z"/></g><mask id="h" width="79" height="78" x="361" y="0" maskUnits="userSpaceOnUse" style="mask-type:luminance"><path fill="#fff" d="M368.9 39c0-17.7 14.3-32 32-32s32 14.3 32 32-14.3 32-32 32c-17.7-.1-32-14.4-32-32m-7 0c0 21.5 17.4 39 39 39 21.5 0 39-17.4 39-39s-17.4-39-39-39c-21.5 0-39 17.4-39 39"/></mask><g mask="url(#h)"><path fill="url(#i)" d="M336.9 9.1 430.7-25l34.2 93.9L371 103z"/></g><mask id="j" width="33" height="41" x="381" y="18" maskUnits="userSpaceOnUse" style="mask-type:luminance"><path fill="#fff" d="M381.3 30.2v8l10.7-3.9v24l21.5-7.7v-32z"/></mask><g mask="url(#j)"><path fill="url(#k)" d="m368.6 23.3 41.1-15 16.5 45.4-41.1 15z"/></g></g><defs><linearGradient id="c" x1="16.237" x2="150.1" y1="-39.223" y2="328.564" gradientUnits="userSpaceOnUse"><stop stop-color="#F6C617"/><stop offset=".235" stop-color="#F6C617"/><stop offset=".283" stop-color="#F4BD20"/><stop offset=".363" stop-color="#EEA639"/><stop offset=".464" stop-color="#E38062"/><stop offset=".583" stop-color="#D54B9B"/><stop offset=".705" stop-color="#C50DDD"/><stop offset="1" stop-color="#C50DDD"/></linearGradient><linearGradient id="e" x1="122.783" x2="256.646" y1="-77.977" y2="289.81" gradientUnits="userSpaceOnUse"><stop stop-color="#F6C617"/><stop offset=".235" stop-color="#F6C617"/><stop offset=".283" stop-color="#F4BD20"/><stop offset=".363" stop-color="#EEA639"/><stop offset=".464" stop-color="#E38062"/><stop offset=".583" stop-color="#D54B9B"/><stop offset=".705" stop-color="#C50DDD"/><stop offset="1" stop-color="#C50DDD"/></linearGradient><linearGradient id="g" x1="224.483" x2="358.347" y1="-115" y2="252.787" gradientUnits="userSpaceOnUse"><stop stop-color="#F6C617"/><stop offset=".235" stop-color="#F6C617"/><stop offset=".283" stop-color="#F4BD20"/><stop offset=".363" stop-color="#EEA639"/><stop offset=".464" stop-color="#E38062"/><stop offset=".583" stop-color="#D54B9B"/><stop offset=".705" stop-color="#C50DDD"/><stop offset="1" stop-color="#C50DDD"/></linearGradient><linearGradient id="i" x1="330.819" x2="464.682" y1="-153.719" y2="214.068" gradientUnits="userSpaceOnUse"><stop stop-color="#F6C617"/><stop offset=".235" stop-color="#F6C617"/><stop offset=".283" stop-color="#F4BD20"/><stop offset=".363" stop-color="#EEA639"/><stop offset=".464" stop-color="#E38062"/><stop offset=".583" stop-color="#D54B9B"/><stop offset=".705" stop-color="#C50DDD"/><stop offset="1" stop-color="#C50DDD"/></linearGradient><linearGradient id="k" x1="327.848" x2="461.711" y1="-152.635" y2="215.153" gradientUnits="userSpaceOnUse"><stop stop-color="#F6C617"/><stop offset=".235" stop-color="#F6C617"/><stop offset=".283" stop-color="#F4BD20"/><stop offset=".363" stop-color="#EEA639"/><stop offset=".464" stop-color="#E38062"/><stop offset=".583" stop-color="#D54B9B"/><stop offset=".705" stop-color="#C50DDD"/><stop offset="1" stop-color="#C50DDD"/></linearGradient><clipPath id="a"><path fill="#fff" d="M0 0h439.9v137H0z"/></clipPath></defs></svg>