<svg xmlns="http://www.w3.org/2000/svg" width="478" height="500" fill="none"><g clip-path="url(#a)"><path fill="#B11119" d="M256.13.01c8.13 1.4 16.32 2.5 24.36 4.25C354.67 20.4 410.42 84.5 416.24 159.89c1.3 16.88.1 33.52-2.93 50.1-.29 1.58-.94 3.1-1.62 4.57 9.44-81.94-57.28-157.77-137.84-162.58-74.56-4.45-140.32 45.17-155.38 118.41-17.3 84.13 36.74 159.54 110.24 177.03-9.05 0-17.91-1.64-26.65-3.76-81.4-19.73-136.65-92.68-133.67-176.37C71.46 80.94 139.07 9.26 225.25.95c1.27-.12 2.68.19 3.7-.95 9.06.01 18.12.01 27.18.01"/><path fill="#B11119" d="M381.19 203.64c-16.11-64.78-84.55-100.13-145.11-80.16-56.43 18.61-88.16 76.86-74.48 136.84-17.72-25.25-24.86-76.55.03-119.22 26.86-46.06 82.24-68.99 133.31-54.52 51.95 14.71 88.02 63.53 86.25 117.06"/><path fill="#fff" d="M50.48 399.07C22.14 399.2 0 421.21 0 449.24c.06 27.65 22.76 49.66 51.04 49.6 28.03-.13 50.67-22.57 50.6-50.23-.05-27.46-22.94-49.6-51.16-49.54m.19 85.41c-19.25-.06-34.68-15.99-34.55-35.81.06-19.88 15.55-35.49 34.99-35.37 19.25.13 34.43 16.12 34.3 36.06-.19 19.44-15.68 35.12-34.74 35.12M190.44 466.61v-65.19h13.62v98.18c-23.51-22.91-47.24-44.64-70.15-68.01v64.01c-4.84 1.11-9.29.49-14.15.49v-98.45c23.57 23.17 47.35 44.86 70.68 68.97M241.92 414.23v23.81h37.18v13.47h-37.01v30.65h36.54c1.27 4.83.74 9.22.43 13.84h-52.44v-94.51h52.14c1.17 3.96.46 8.02.47 12.75-12.48-.01-24.78-.01-37.31-.01M477.77 401.46c-14.05 32.8-27.97 65.09-42.26 98.51-13.98-32.55-27.59-64.15-41.2-95.75-.31.06-.63.13-.94.19v10.16h-25.08v81.39h-12.48c-.94.25-1.88.38-3.07-.56v-80.89h-24.83v-12.98h81.27c8.59 20.94 18.31 41.95 26.34 63.96 8.03-21.88 17.62-42.64 26.27-64.02h15.98z"/></g><defs><clipPath id="a"><path fill="#fff" d="M0 0h477.77v499.97H0z"/></clipPath></defs></svg>