<svg xmlns="http://www.w3.org/2000/svg" width="1000" height="314" fill="none"><path fill="#EC1B24" d="M0 0h732.412v313.571H0z"/><path fill="#fff" d="M244.744 156.793c0-51.202-41.494-90.717-93.278-90.717-51.799 0-93.293 39.515-93.293 90.717 0 51.187 41.494 90.687 93.293 90.687 51.784 0 93.278-39.5 93.278-90.687m-44.274 0c0 27.536-23.665 49.513-49.004 49.513-25.63 0-49.019-21.977-49.019-49.513 0-27.551 23.389-49.528 49.019-49.528 25.339 0 49.004 21.977 49.004 49.528M306.497 244.147h42.892v-50.911h32.019l33.693 50.911h53.458l-43.154-61.2c20.318-8.908 34.523-28.105 34.523-51.755 0-34.785-25.616-61.768-64.606-61.768h-88.825zm86.321-92.085h-43.429v-41.464h43.429c18.659 0 24.233 9.183 24.233 20.594 0 11.687-5.574 20.87-24.233 20.87M532.044 244.045h42.848v-58.828h80.979v-41.145h-80.979v-33.504h99.347V69.424H532.044z"/><path fill="#E2001A" d="M0 0h732.412v313.571H0z"/><path fill="#fff" d="M244.744 156.793c0-51.202-41.494-90.717-93.278-90.717-51.799 0-93.293 39.515-93.293 90.717 0 51.187 41.494 90.687 93.293 90.687 51.784 0 93.278-39.5 93.278-90.687m-44.274 0c0 27.536-23.665 49.513-49.004 49.513-25.63 0-49.019-21.977-49.019-49.513 0-27.551 23.389-49.528 49.019-49.528 25.339 0 49.004 21.977 49.004 49.528M306.497 244.147h42.892v-50.911h32.019l33.693 50.911h53.458l-43.154-61.2c20.318-8.908 34.523-28.105 34.523-51.755 0-34.785-25.616-61.768-64.606-61.768h-88.825zm86.321-92.085h-43.429v-41.464h43.429c18.659 0 24.233 9.183 24.233 20.594 0 11.687-5.574 20.87-24.233 20.87M532.044 244.045h42.848v-58.828h80.979v-41.145h-80.979v-33.504h99.347V69.424H532.044zM790.829 0H1000v313.57H895.729V104.271h-104.9z"/></svg>