<svg xmlns="http://www.w3.org/2000/svg" width="251" height="35" fill="none"><path fill="#D32824" d="M82.747.007H0v34.987h82.747z"/><path fill="#fff" d="M76.159 12.345v-4.59H60.096v19.483h4.84v-6.564h9.147v-4.59h-9.146v-3.74zm-31.788 4.63h-4.906v-4.627h4.906c2.107 0 2.736 1.025 2.736 2.297s-.63 2.33-2.736 2.33m7.58-2.33c0-3.88-2.893-6.89-7.298-6.89H34.62v19.494h4.845v-5.68h3.617l3.806 5.68h6.038l-4.874-6.828c2.294-.994 3.898-3.136 3.898-5.775m-34.842 8.383c-2.896 0-5.538-2.453-5.538-5.525s2.643-5.527 5.538-5.527 5.535 2.452 5.535 5.527-2.672 5.525-5.535 5.525m0-15.647c-5.852 0-10.539 4.408-10.539 10.122s4.687 10.119 10.539 10.119 10.536-4.408 10.536-10.12c0-5.71-4.687-10.121-10.536-10.121"/><path fill="#FACF00" d="M251 13.036h-11.67V0h-10.01v13.036h-12.013v8.928h12.013V35h10.01V21.964H251z"/><path fill="#FACF00" d="M214.973 24.395c-.013-.02 0-13.706 0-13.706h11.839V.007H82.705V35h144.107V24.395z"/><path fill="#fff" d="M107.713 13.248q-1.27-1.035-3.008-1.581a12.3 12.3 0 0 0-3.698-.546q-3.838 0-3.837 1.935 0 1.528 2.677 2.046l3.947.735q2.898.572 4.622 1.963 1.725 1.388 1.725 3.842 0 1.774-1.007 3.162-1.007 1.391-3.009 2.167-2 .777-5.009.777c-2.004 0-3.698-.283-5.354-.845a13.7 13.7 0 0 1-4.525-2.59l2.097-3.38a10.6 10.6 0 0 0 3.52 2.181q1.999.763 4.346.763 1.82 0 2.842-.518 1.02-.517 1.021-1.636 0-.898-.718-1.363-.717-.462-2.457-.79l-3.614-.654q-2.98-.573-4.554-2.058-1.573-1.485-1.572-3.748-.001-1.744 1.09-3.066 1.088-1.323 3.104-2.071 2.014-.75 4.83-.75 2.4 0 4.416.6 2.014.6 3.945 1.88zM125.568 16.71q1.766 0 2.622-.736t.856-2.045q0-2.561-3.45-2.562h-4.443v5.342zm-9.383-8.94h10.128q3.698 0 5.713 1.662 2.014 1.663 2.014 4.496 0 1.883-.938 3.327t-2.69 2.262q-1.754.817-4.154.817h-5.105v6.896h-4.968zM150.543 11.176q-2.98 0-4.733 1.649t-1.752 4.675q0 3.027 1.738 4.673 1.74 1.65 4.719 1.65c1.988 0 3.542-.554 4.721-1.662q1.765-1.663 1.766-4.716c0-2.035-.585-3.566-1.753-4.647q-1.753-1.623-4.706-1.622m-10.21.886q1.408-2.331 4.015-3.584 2.61-1.254 6.195-1.254c2.391 0 4.426.405 6.156 1.213q2.593 1.212 4.015 3.503 1.42 2.29 1.421 5.477 0 3.189-1.421 5.506t-4.015 3.571q-2.595 1.254-6.183 1.253c-2.391 0-4.424-.404-6.154-1.212q-2.594-1.212-4.015-3.49-1.42-2.275-1.421-5.464 0-3.188 1.407-5.519M177.892 16.41q1.739 0 2.581-.71.842-.708.842-1.934c0-.819-.272-1.417-.815-1.854q-.813-.654-2.608-.654h-4.608v5.151zm-9.493-8.64h10.073q3.753 0 5.755 1.567 2 1.567 1.999 4.374 0 2.045-1.158 3.53-1.158 1.486-3.257 2.167l6.044 7.823h-5.436l-5.437-7.332h-3.698v7.332h-4.885zM198.237 11.64h-7.23V7.77h19.481v3.87h-7.202v15.59h-5.049z"/></svg>