<svg xmlns="http://www.w3.org/2000/svg" width="74" height="32" fill="none"><path fill="url(#a)" d="M44.75.591c-1.278.284-2.461.734-3.55 1.301-.543.284-1.087.615-1.584.923-.26.165-.52.331-.78.52l-.38.26-.33.26a38 38 0 0 0-2.768 2.295c-.875.78-1.703 1.585-2.531 2.342-.828.756-1.656 1.466-2.555 2.057a14.8 14.8 0 0 1-2.862 1.443c-.994.379-2.058.662-3.17.899-1.088.236-2.2.402-3.312.52a78 78 0 0 1-3.383.284l-1.727.071c-.567 0-1.135.024-1.703.024H12.39l-4.637-.024 2.366 1.656c.496.331.97.662 1.466.97.497.307 1.017.615 1.514.922a39 39 0 0 0 3.123 1.585 37.3 37.3 0 0 0 6.623 2.318c1.845.473 3.714.804 5.583 1.017-.284.023-.544.047-.828.047a64 64 0 0 1-9.036-.236 64 64 0 0 1-8.942-1.562 71 71 0 0 1-4.376-1.23 78 78 0 0 1-2.153-.756 33 33 0 0 1-2.105-.852l-.095.213c.686.331 1.396.639 2.105.922.686.284 1.42.568 2.13.828 1.442.497 2.885.97 4.376 1.372 1.466.402 2.957.733 4.447 1.041s3.004.544 4.518.733c3.052.379 6.103.544 9.178.473.757 0 1.538-.047 2.295-.094a75 75 0 0 0 2.294-.19q1.135-.105 2.271-.283c.78-.095 1.538-.237 2.295-.379l-.213-1.159c-.237.047-.544.047-.804.071-.284.024-.568.024-.852.047-.568 0-1.112.024-1.68 0a40 40 0 0 1-3.382-.212 41.4 41.4 0 0 1-6.624-1.254 37 37 0 0 1-3.217-1.064 39 39 0 0 1-3.099-1.301 44 44 0 0 1-2.957-1.585c-.094-.071-.189-.118-.26-.166h2.152c.592 0 1.16-.023 1.751-.047a60 60 0 0 0 3.525-.19c1.16-.094 2.342-.26 3.525-.472a24 24 0 0 0 3.5-.9c1.16-.377 2.295-.921 3.36-1.56 1.04-.639 2.01-1.42 2.91-2.2.898-.78 1.726-1.561 2.578-2.294.851-.757 1.703-1.467 2.602-2.105l.331-.26.331-.237c.213-.166.45-.308.686-.45.45-.283.923-.567 1.396-.827.946-.473 1.916-.9 2.91-1.112.993-.236 1.986-.307 2.956-.142.497.071.97.213 1.443.379.237.094.474.212.71.307.237.142.45.237.662.379.876.52 1.656 1.182 2.224 1.986.591.78.946 1.703 1.065 2.697.141.993.023 2.058-.237 3.098l-.875 3.643 2.412-2.791a1.5 1.5 0 0 1 .19-.213l.236-.237.45-.449c.307-.284.615-.568.946-.828a21 21 0 0 1 2.058-1.49c.733-.45 1.467-.828 2.27-1.112.38-.142.782-.236 1.184-.33.402-.072.804-.143 1.23-.166.402 0 .804 0 1.23.07.236.048.426.072.615.119l.307.07c.095.024.19.072.284.095.402.142.757.308 1.089.544.307.237.59.52.827.876.26.33.497.733.805 1.088.284.354.662.686 1.064.898.426.237.875.379 1.301.474.45.118.9.165 1.349.189l.023-.237a12 12 0 0 1-1.277-.284c-.402-.142-.804-.307-1.136-.544-.355-.213-.638-.496-.898-.851-.237-.331-.426-.71-.663-1.112-.26-.378-.544-.78-.922-1.088a4 4 0 0 0-1.254-.733c-.118-.047-.213-.095-.331-.142l-.332-.095c-.236-.07-.473-.142-.686-.165a7 7 0 0 0-1.395-.213c-.946-.047-1.893.095-2.791.331-.923.26-1.775.615-2.603 1.04-.425.214-.828.45-1.206.687q-.602.39-1.136.78c-.047.024-.094.071-.141.095q.035-.603 0-1.206a7.76 7.76 0 0 0-1.278-3.714c-.733-1.135-1.727-2.01-2.791-2.72-.26-.166-.568-.331-.828-.473-.284-.142-.592-.284-.875-.426-.615-.236-1.23-.45-1.893-.568a8.4 8.4 0 0 0-1.727-.165c-.733 0-1.466.095-2.176.236"/><path fill="url(#b)" d="M69.916 13.07c-.194.058-.406.135-.677.232-.251.096-.541.212-.89.328-.657.271-1.45.62-2.34 1.083a21 21 0 0 0-2.88 1.798c-.986.735-1.992 1.663-2.978 2.688-.986 1.024-1.953 2.107-3.016 3.112a22.8 22.8 0 0 1-3.52 2.784c-.638.426-1.314.812-1.991 1.18l-.522.27c-.174.078-.329.174-.522.271l-.542.252-.251.135-.27.116c-.33.135-.697.27-1.045.387-.174.077-.348.116-.541.174l-.522.154c-.735.194-1.47.348-2.205.445-.754.097-1.489.174-2.223.193a21 21 0 0 1-2.205 0 37 37 0 0 1-2.146-.174c-.696-.077-1.392-.155-2.05-.27a54 54 0 0 1-3.77-.755c-1.16-.27-2.224-.56-3.152-.83a76 76 0 0 1-2.436-.736 39 39 0 0 1-1.586-.522c-.348-.116-.541-.193-.541-.193s.039.039.116.097.193.154.348.251c.329.232.793.541 1.412.909.599.367 1.372.812 2.262 1.256.909.445 1.933.91 3.094 1.354s2.436.87 3.828 1.218c.696.155 1.412.329 2.166.445s1.508.232 2.3.29c.794.058 1.606.096 2.437.077a28 28 0 0 0 2.494-.213c.832-.135 1.663-.31 2.495-.56l.619-.213c.212-.078.406-.136.618-.213.406-.174.793-.348 1.18-.541l.29-.155.29-.135.541-.29c.174-.097.368-.193.542-.31l.56-.309c.716-.425 1.412-.87 2.089-1.372a18 18 0 0 0 1.914-1.528c.31-.27.6-.56.89-.831.29-.29.56-.58.83-.87.523-.561 1.026-1.16 1.49-1.721.464-.58.89-1.14 1.334-1.682a33 33 0 0 1 1.295-1.508c.213-.232.426-.445.638-.677.233-.212.445-.425.658-.618.213-.213.425-.407.657-.58a4 4 0 0 1 .31-.271l.638-.503c.116-.077.212-.155.328-.232.194-.155.407-.31.6-.444.812-.561 1.547-.987 2.146-1.354.31-.174.58-.329.832-.464a7 7 0 0 1 .618-.329c.33-.193.503-.29.503-.29s-.193.078-.541.194"/><defs><linearGradient id="a" x1="-1.519" x2="73.088" y1="15.725" y2="15.725" gradientUnits="userSpaceOnUse"><stop stop-color="#CEA53A"/><stop offset="1" stop-color="#DACB2A"/></linearGradient><linearGradient id="b" x1="47.776" x2="47.776" y1="31.089" y2="11.755" gradientUnits="userSpaceOnUse"><stop stop-color="#CEA53A"/><stop offset="1" stop-color="#DACB2A"/></linearGradient></defs></svg>