<svg xmlns="http://www.w3.org/2000/svg" width="503" height="194" fill="none"><g fill="#fff" filter="url(#a)"><path d="M16.257 79V17.44h19.946q11.338 0 14.781.923 5.292 1.386 8.86 6.047 3.57 4.62 3.57 11.968 0 5.67-2.058 9.532Q59.3 49.774 56.107 52q-3.149 2.184-6.424 2.898-4.452.88-12.892.881h-8.104V79zm12.43-51.146v17.468h6.802q7.35 0 9.826-.966 2.478-.965 3.864-3.023 1.427-2.058 1.427-4.787 0-3.36-1.973-5.543t-4.997-2.73q-2.226-.42-8.945-.42zM73.66 79V17.44h26.161q9.868 0 14.32 1.68 4.493 1.636 7.18 5.878 2.688 4.241 2.688 9.7 0 6.929-4.073 11.464-4.074 4.493-12.178 5.67 4.03 2.35 6.635 5.164 2.645 2.814 7.096 9.994L129.006 79h-14.865l-8.987-13.395q-4.787-7.181-6.55-9.029-1.764-1.89-3.738-2.561-1.973-.714-6.257-.714h-2.52V79zm12.43-35.525h9.196q8.944 0 11.17-.756t3.485-2.604 1.26-4.619q0-3.108-1.68-4.997-1.637-1.932-4.661-2.435-1.511-.21-9.07-.21h-9.7zM133.247 48.598q0-9.406 2.814-15.79a29.2 29.2 0 0 1 5.71-8.44q3.654-3.737 7.979-5.543 5.752-2.435 13.27-2.435 13.605 0 21.751 8.44 8.189 8.44 8.189 23.474 0 14.907-8.105 23.347-8.104 8.4-21.667 8.399-13.732 0-21.836-8.357-8.105-8.398-8.105-23.095m12.808-.42q0 10.456 4.829 15.873 4.828 5.375 12.262 5.375 7.433 0 12.177-5.333 4.788-5.376 4.787-16.083 0-10.582-4.661-15.79-4.619-5.206-12.303-5.206-7.686 0-12.388 5.29-4.703 5.25-4.703 15.874M202.702 79V17.44h19.946q11.338 0 14.782.923 5.29 1.386 8.86 6.047 3.57 4.62 3.569 11.968 0 5.67-2.057 9.532-2.058 3.864-5.249 6.089-3.15 2.184-6.425 2.898-4.452.88-12.892.881h-8.104V79zm12.43-51.146v17.468h6.803q7.348 0 9.826-.966 2.477-.965 3.863-3.023 1.428-2.058 1.428-4.787 0-3.36-1.974-5.543t-4.997-2.73q-2.226-.42-8.944-.42zM257.544 48.598q0-9.406 2.813-15.79a29.2 29.2 0 0 1 5.711-8.44q3.654-3.737 7.979-5.543 5.752-2.435 13.269-2.435 13.606 0 21.752 8.44 8.189 8.44 8.189 23.474 0 14.907-8.105 23.347-8.104 8.4-21.668 8.399-13.731 0-21.836-8.357-8.104-8.398-8.104-23.095m12.808-.42q0 10.456 4.829 15.873 4.829 5.375 12.261 5.375 7.433 0 12.178-5.333 4.788-5.376 4.787-16.083 0-10.582-4.661-15.79-4.619-5.206-12.304-5.206t-12.387 5.29q-4.704 5.25-4.703 15.874M323.85 58.97l12.093-1.176q1.092 6.089 4.41 8.944 3.359 2.856 9.028 2.856 6.005 0 9.028-2.52 3.066-2.56 3.066-5.963 0-2.183-1.302-3.695-1.26-1.554-4.451-2.687-2.184-.756-9.952-2.688-9.994-2.478-14.026-6.089-5.669-5.081-5.669-12.387 0-4.703 2.646-8.777 2.687-4.115 7.684-6.257 5.04-2.14 12.136-2.141 11.59 0 17.427 5.08 5.879 5.082 6.173 13.564l-12.43.546q-.798-4.744-3.443-6.803-2.604-2.1-7.853-2.1-5.417 0-8.482 2.226-1.974 1.428-1.974 3.822 0 2.183 1.848 3.737 2.351 1.974 11.422 4.115 9.07 2.142 13.395 4.451 4.367 2.268 6.803 6.257 2.477 3.948 2.477 9.784 0 5.292-2.939 9.91-2.94 4.62-8.315 6.887-5.375 2.226-13.395 2.226-11.674 0-17.931-5.375-6.257-5.417-7.474-15.747M398.218 79V27.854h-18.267V17.44h48.921v10.414h-18.225V79zM486.065 79h-13.521l-5.375-13.983h-24.607L437.48 79h-13.185l23.977-61.56h13.144zM463.18 54.645 454.697 31.8l-8.314 22.844zM16 86.534h33.026q11.172 0 17.032 1.717 7.876 2.331 13.492 8.282 5.616 5.95 8.546 14.6 2.93 8.589 2.93 21.226 0 11.103-2.746 19.14-3.359 9.814-9.585 15.888-4.7 4.6-12.698 7.178-5.983 1.9-15.994 1.901H16zm18.07 15.213v59.567H47.56q7.57 0 10.928-.859 4.395-1.104 7.264-3.742 2.93-2.638 4.762-8.65 1.83-6.072 1.831-16.502 0-10.428-1.831-16.011t-5.128-8.711q-3.297-3.129-8.364-4.233-3.785-.859-14.834-.859zM102.748 132.052q0-13.741 4.09-23.066a42.7 42.7 0 0 1 8.302-12.33q5.311-5.46 11.599-8.098Q135.103 85 146.03 85q19.78 0 31.622 12.33 11.904 12.331 11.904 34.293 0 21.778-11.782 34.108Q165.992 178 146.274 178q-19.963 0-31.744-12.208-11.782-12.269-11.782-33.74m18.619-.613q0 15.275 7.02 23.188 7.02 7.853 17.826 7.853t17.704-7.791q6.959-7.852 6.959-23.496 0-15.458-6.776-23.066-6.715-7.607-17.887-7.607t-18.009 7.73q-6.837 7.668-6.837 23.189M203.719 176.466V86.534h28.997q16.483 0 21.489 1.35 7.692 2.023 12.881 8.833 5.189 6.748 5.189 17.484 0 8.281-2.991 13.925t-7.631 8.895q-4.579 3.19-9.341 4.233-6.47 1.288-18.741 1.288h-11.782v33.924zm18.07-74.719v25.52h9.89q10.683 0 14.285-1.411 3.602-1.41 5.616-4.417 2.076-3.006 2.076-6.993 0-4.908-2.87-8.098t-7.264-3.987q-3.236-.614-13.003-.614zM287.109 176.466V86.534h28.998q16.482 0 21.488 1.35 7.692 2.023 12.881 8.833 5.189 6.748 5.189 17.484 0 8.281-2.991 13.925t-7.631 8.895q-4.58 3.19-9.34 4.233-6.471 1.288-18.742 1.288h-11.782v33.924zm18.07-74.719v25.52h9.89q10.683 0 14.285-1.411 3.602-1.41 5.616-4.417 2.076-3.006 2.076-6.993 0-4.908-2.87-8.098-2.868-3.19-7.264-3.987-3.236-.614-13.003-.614zM369.95 176.466V86.534h18.07v89.932zM486 176.466h-19.657l-7.814-20.428h-35.774l-7.386 20.428H396.2l34.858-89.932h19.107zm-33.271-35.58-12.331-33.372-12.087 33.372z"/></g><defs><filter id="a" width="502.065" height="193.61" x="0" y=".39" color-interpolation-filters="sRGB" filterUnits="userSpaceOnUse"><feFlood flood-opacity="0" result="BackgroundImageFix"/><feColorMatrix in="SourceAlpha" result="hardAlpha" values="0 0 0 0 0 0 0 0 0 0 0 0 0 0 0 0 0 0 127 0"/><feOffset/><feGaussianBlur stdDeviation="8"/><feComposite in2="hardAlpha" operator="out"/><feColorMatrix values="0 0 0 0 0 0 0 0 0 0 0 0 0 0 0 0 0 0 1 0"/><feBlend in2="BackgroundImageFix" result="effect1_dropShadow_1_7"/><feBlend in="SourceGraphic" in2="effect1_dropShadow_1_7" result="shape"/></filter></defs></svg>