<svg xmlns="http://www.w3.org/2000/svg" width="618" height="321" fill="none"><path fill="#E82429" d="M558.349 45.773c.467 2.638.816 6.471.899 11.328l.133 12.054 8.952-2.303-6.234-11.863c-1.465-2.805-2.986-6.655-3.75-9.216"/><path fill="#E82429" d="m.225 152.453 24.819 96.455L617.543 96.455 592.724 0z"/><path fill="#E82429" d="m495.578 56.092-4.974 1.28 3.633 14.122 5.072-1.305c6.067-1.56 7.414-4.983 6.211-9.656-1.279-4.973-4.373-5.874-9.942-4.44"/><path fill="#fff" d="M333.846 156.024 316.01 86.706l40.278-10.364 2.469 14.952-21.184 5.45 2.994 11.636 17.305-4.452 3.634 14.123-17.305 4.452 3.634 14.122 23.769-6.115 3.813 14.818zM415.896 134.912l-13.867-17.216-4.034 21.822-22.576 5.809 12.318-41.555-27.966-28.326 21.979-5.656 11.684 14.914 2.937-18.676 21.382-5.5-10.406 37.032 30.132 31.799zM472.661 62.091l-16.111 4.146 14.049 54.6-18.001 4.632-14.049-54.6-16.111 4.146-3.787-14.719 52.312-13.46zM525.996 106.583l-12.25-17.524c-4.528-6.47-6.35-6.957-10.228-5.959l7.063 27.449-17.803 4.581-17.836-69.318 23.869-6.142c20.388-5.246 29.075 1.32 32.043 12.856 3.071 11.935-1.634 19.611-9.431 23.104 2.566.082 6.27 2.522 8.881 5.667 3.49 4.086 12.66 15.405 16.277 19.989zM501.478 54.57l-4.972 1.28 3.634 14.122 5.072-1.305c6.066-1.56 7.412-4.982 6.209-9.657-1.279-4.972-4.373-5.873-9.943-4.44"/><path fill="#fff" d="m588.354 90.537-7.01-12.405-16.409 4.222-.351 14.3-18.696 4.811 4.44-75.05 18.498-4.76 38.821 63.92zM568 53.465c-1.464-2.804-2.984-6.654-3.749-9.214.466 2.637.816 6.47.899 11.326l.132 12.053 8.95-2.303z"/><path fill="#000" d="M157.039 6.816C70.305 6.816 0 77.126 0 163.85c0 86.722 70.305 157.034 157.039 157.034 86.722 0 157.036-70.313 157.036-157.034 0-86.724-70.315-157.034-157.036-157.034m0 282.657c-69.388 0-125.635-56.238-125.635-125.623 0-69.387 56.247-125.625 125.635-125.625 69.377 0 125.622 56.238 125.622 125.625 0 69.385-56.245 125.623-125.622 125.623"/><path fill="#E82429" d="M157.039 69.63c-52.04 0-94.221 42.188-94.221 94.22 0 52.039 42.181 94.219 94.221 94.219 52.03 0 94.219-42.18 94.219-94.219-.001-52.032-42.189-94.22-94.219-94.22m0 157.035c-34.694 0-62.817-28.123-62.817-62.814 0-34.686 28.123-62.817 62.817-62.817 34.683 0 62.812 28.132 62.812 62.817-.001 34.691-28.13 62.814-62.812 62.814"/><path fill="#221F1F" d="M157.039 132.446c-17.347 0-31.409 14.065-31.409 31.404 0 17.346 14.063 31.403 31.409 31.403 17.342 0 31.403-14.058 31.403-31.403 0-17.339-14.062-31.404-31.403-31.404"/><path fill="#fff" d="M157.039 38.227c-69.388 0-125.635 56.237-125.635 125.623s56.247 125.624 125.635 125.624c69.377 0 125.622-56.239 125.622-125.624 0-69.387-56.245-125.623-125.622-125.623m0 219.842c-52.04 0-94.221-42.18-94.221-94.219 0-52.032 42.181-94.22 94.221-94.22 52.03 0 94.219 42.187 94.219 94.22-.001 52.039-42.189 94.219-94.219 94.219"/><path fill="#fff" d="M157.039 101.033c-34.694 0-62.817 28.133-62.817 62.818 0 34.691 28.123 62.813 62.817 62.813 34.683 0 62.812-28.122 62.812-62.813-.001-34.685-28.13-62.818-62.812-62.818m0 94.22c-17.347 0-31.409-14.058-31.409-31.403 0-17.339 14.062-31.404 31.409-31.404 17.341 0 31.403 14.065 31.403 31.404 0 17.346-14.062 31.403-31.403 31.403"/><path fill="#221F1F" d="M161.102 272.479c-.255-.082-.438-.146-.712-.138-1.046.036-1.91.84-2.106 1.781l.256 7.79-2.505.083-.269-8.134c-.047-1.457-.237-2.386-.512-3.082l2.281-.669c.29.516.472 1.171.493 1.808.868-1.281 1.762-1.905 2.877-1.94.364-.012.593.026.895.152zM172.152 281.186c-.733-.188-1.386-.663-1.743-1.354-.806 1.148-1.759 1.631-2.98 1.774-2.625.312-3.974-.997-4.21-2.989-.314-2.648 1.52-4.218 5.186-4.654l.771-.09-.073-.611c-.155-1.313-.465-1.988-1.822-1.828-1.652.196-3.263 1.72-3.263 1.72l-1.321-1.658c1.593-1.29 2.962-1.933 4.681-2.137 1.789-.213 3.066.301 3.712 1.488.262.472.336 1.083.514 2.784l.344 3.287c.159 1.542.354 2.022 1.31 2.529zm-3.277-5.579c-2.488.296-3.15 1.109-2.979 2.557.129 1.085.799 1.694 1.794 1.577.793-.093 1.506-.661 1.919-1.442l-.278-2.724s-.276.01-.456.032M183.845 278.312c-.167-.219-.227-.369-.4-.82-.58.929-1.387 1.491-2.496 1.747-2.864.665-5.115-1.177-5.928-4.687-.818-3.53.58-6.381 3.29-7.008.954-.221 1.804-.09 2.657.462 0 0-.269-.852-.494-1.827l-.951-4.109 2.507-.183 2.798 12.08c.514 2.219.91 3.322 1.261 3.824zm-2.517-8.448c-.694-.47-1.432-.627-2.253-.436-1.555.359-1.977 1.766-1.35 4.476.575 2.486 1.352 3.616 3.194 3.191.91-.213 1.524-.893 1.729-1.524zM187.133 263.559c-.867.279-1.771-.217-2.053-1.086-.288-.89.174-1.828 1.063-2.116.847-.276 1.788.187 2.082 1.098a1.68 1.68 0 0 1-1.092 2.104m2.89 12.984-3.5-10.8 2.268-1.212 3.638 11.231zM200.738 272.941c-2.881 1.207-5.596-.198-7.025-3.604-1.428-3.404-.517-6.357 2.3-7.538 3.026-1.271 5.692.256 7.105 3.618 1.435 3.425.498 6.315-2.38 7.524m-3.973-9.408c-1.472.617-1.634 1.997-.55 4.581 1.297 3.091 2.452 3.668 3.841 3.086 1.366-.573 1.654-2.004.535-4.674-1.261-3.005-2.48-3.557-3.826-2.993M216.767 264.777c-1.206.739-2.747 1.146-4.438 1.219l-.181-2c1.185-.029 2.711-.24 3.819-.919.933-.572 1.25-1.538.751-2.356-.464-.759-1.188-.85-2.439-.404l-1.34.47c-1.669.594-3.162.117-4.007-1.264-1.128-1.847-.435-4.034 1.743-5.365 1.342-.82 2.661-1.065 3.771-1.13l.204 1.906c-1.212.073-2.073.278-2.852.754-.913.558-1.188 1.421-.725 2.179.368.604.89.713 2.034.359l1.416-.438c2.293-.706 3.484.062 4.186 1.209 1.213 1.983.43 4.332-1.942 5.78M225.98 258.545c-1.805 1.315-3.209.704-4.177-.621l-4.206-5.761-1.031.752-1.021-1.398 1.031-.753c-.577-.792-1.169-1.602-1.588-2.368l1.717-2.014a32 32 0 0 0 1.878 2.917l2.228-1.625.487 1.788-1.712 1.251 3.816 5.228c.846 1.159 1.346 1.302 2.229.656.276-.201.475-.43.731-.814l1.145 1.025a5.36 5.36 0 0 1-1.527 1.737M235.956 250.405c-.617.056-1.109-.057-1.699-.419-.006 1.274-.546 2.353-1.54 3.225-.979.853-2.033 1.172-2.913 1.032-.704-.112-1.336-.559-2.281-1.641l-5.145-5.885 1.552-1.963 5.085 5.815c.947 1.082 1.792 1.737 2.906.76.636-.554.957-1.744.708-2.615l-5.431-6.213 1.52-1.933 5.716 6.538c1.14 1.302 2.046 1.266 2.046 1.266zM244.659 240.91c-.262-.083-.395-.175-.795-.448.051 1.096-.295 2.017-1.062 2.858-1.982 2.171-4.882 1.935-7.541-.492-2.68-2.444-3.146-5.584-1.272-7.639.66-.724 1.434-1.099 2.449-1.129 0 0-.703-.548-1.444-1.225l-3.114-2.84 1.961-1.576 9.159 8.355c1.685 1.537 2.636 2.218 3.211 2.434zm-6.869-5.524c-.84.006-1.536.295-2.104.919-1.075 1.179-.623 2.578 1.431 4.452 1.886 1.721 3.168 2.209 4.442.812.629-.69.749-1.6.558-2.235zM238.993 226.897c-.555.725-1.582.827-2.305.271-.742-.569-.896-1.604-.327-2.346.542-.707 1.578-.859 2.338-.275a1.68 1.68 0 0 1 .294 2.35m9.744 9.053-9.006-6.907 1.178-2.284 9.367 7.185zM255.51 226.918c-1.688 2.626-4.721 3.01-7.828 1.015-3.106-1.994-4.029-4.944-2.381-7.515 1.772-2.763 4.835-3.018 7.903-1.048 3.127 2.007 3.992 4.922 2.306 7.548m-8.605-5.497c-.861 1.344-.214 2.57 2.145 4.084 2.82 1.811 4.101 1.63 4.912.365.8-1.248.228-2.591-2.209-4.154-2.744-1.759-4.059-1.521-4.848-.295M265.3 207.529c-.274.004-.431-.037-.896-.167.4 1.021.371 2.001-.084 3.048-1.173 2.694-3.991 3.407-7.294 1.971-3.322-1.445-4.781-4.268-3.67-6.816.389-.898 1-1.503 1.951-1.859 0 0-.842-.292-1.761-.693l-3.868-1.681 1.348-2.124 11.369 4.946c2.089.909 3.209 1.247 3.823 1.267zm-8.285-3.007c-.791.276-1.355.775-1.694 1.549-.635 1.465.244 2.641 2.793 3.751 2.342 1.018 3.712 1.067 4.467-.667.373-.857.192-1.757-.194-2.297zM263.449 197.814l.173.053c1.526.469 3.313.399 3.977-1.756.315-1.024.22-2.033-.244-3.081l1.748-.488c.624 1.457.694 2.934.238 4.414-.959 3.115-3.807 4.385-7.334 3.299-1.939-.598-3.098-1.407-3.893-2.701-.748-1.209-.87-2.438-.439-3.831.335-1.089.927-2.007 2.063-2.682 1.167-.688 2.665-.751 5.235.041l.501.153zm-3.967-3.535c-.416 1.35.422 2.419 2.209 2.969l1.255-4.072c-1.787-.551-3.095-.096-3.464 1.103M271.877 186.851c-.545 2.471-2.77 1.98-3.726 1.771l-9.594-2.112c-1.536-.337-2.375-.452-3.344-.502l-.002-2.638c.729-.025 1.668.157 3.139.48l9.548 2.102c1.513.334 1.772.322 2.078.203.23-.092.426-.444.356-.765l1.601-.065c.081.484.067.97-.056 1.526M273.197 179.665c-.341 2.205-1.767 2.769-3.39 2.519l-7.048-1.096-.197 1.262-1.711-.266.196-1.261c-.969-.15-1.96-.305-2.798-.55l-.213-2.64c.905.256 2.265.558 3.393.734l.422-2.725 1.61.919-.324 2.094 6.396.992c1.417.221 1.872-.031 2.04-1.113.052-.337.03-.642-.062-1.094l1.536-.083c.223.796.269 1.541.15 2.308M274.612 166.802c-.32.686-.907 1.239-1.653 1.462.982 1.004 1.276 2.03 1.193 3.257-.183 2.638-1.719 3.719-3.72 3.581-2.661-.183-3.864-2.274-3.61-5.959l.053-.772-.613-.044c-1.319-.089-2.039.09-2.133 1.453-.114 1.659 1.082 3.524 1.082 3.524l-1.873.99c-.973-1.803-1.351-3.269-1.232-4.995.124-1.797.866-2.956 2.151-3.371.515-.17 1.128-.128 2.832.012l3.294.273c1.545.129 2.053.025 2.729-.818zm-6.09 2.184c-.172 2.503.504 3.302 1.96 3.402 1.091.074 1.813-.469 1.883-1.47.055-.795-.369-1.601-1.063-2.151l-2.726-.234s-.04.271-.054.453"/></svg>