<svg xmlns="http://www.w3.org/2000/svg" width="301" height="254" fill="none"><path fill="#F9DC1B" d="M71.732 60.15c-44.133 44.132-44.133 115.686 0 159.818s115.686 44.133 159.819.001 44.133-115.687 0-159.82-115.686-44.132-159.82 0"/><path fill="#0284C7" d="M182.083 95.104c-.265 0-1.157.609-1.663 1.134-.707.74-1.588 2.623-1.875 4.033-.329 1.599.004 3.813.767 5.08.745 1.235 1.372 1.693 2.892 2.097 1.927.518 3.73.136 4.86-1.02l.741-.76-1.194-.113c-3.723-.341-5.239-1.875-5.454-5.522-.095-1.58-.057-1.852.449-3.326.303-.88.518-1.603.477-1.603m-22.507 3.288c-.189.03-.439.136-.775.276-1.021.427-1.111.768-1.111 4.196v3.072l.952.915c.605.578.971 1.096 1.009 1.414.042.355.193.54.518.631l.491.143q.266-.055.514-.162c.609-.231 1.013-1.179 1.013-2.374 0-.869-.053-.971-.964-1.844l-.963-.922-.061-2.665c-.049-2.23-.057-2.782-.623-2.683zm-85.66 3.508a3.2 3.2 0 0 0-.914.302c-.941.446-1.418 1.625-1.248 3.092.072.605.182 2.022.246 3.144l.121 2.041.945.896c.896.851.956.968 1.171 2.272.17 1.028.197 3.156.099 8.447-.132 7.049-.136 7.075-.582 7.846a5 5 0 0 1-1.066 1.247c-.34.265-.794.87-1.005 1.372-.348.809-.386 1.248-.386 4.385 0 1.923.076 3.7.174 3.953.378.99.865 1.115 4.864 1.225 2.026.056 5.972.094 8.776.09l5.091-.011.548-.548c.303-.302.571-.756.601-1.009l.05-.461-7.987-.091c-6.312-.076-8.088-.147-8.485-.348-.933-.48-1.062-1.096-1.058-5.008.004-4.097.102-4.459 1.55-5.835.476-.454.967-1.032 1.096-1.285.317-.631.536-14.771.257-16.366-.197-1.107-.617-1.738-1.622-2.43-.427-.295-.46-.45-.578-2.472-.197-3.401-.352-4.448-.658-4.448m105.468 8.814c-.238 0-.699.09-1.028.204-.934.329-1.111.99-1.111 4.165 0 2.702.004 2.729.48 3.171.264.246.737.816 1.058 1.27l.575.828.151 3.583c.189 4.395.162 6.659-.087 7.604-.121.472-.492 1.017-1.074 1.572-1.08 1.043-1.201 1.606-1.05 4.951.113 2.499.189 2.843.65 3.062.17.083 2.457.2 5.083.257l6.614.143c2.249.046 2.589-.124 2.684-1.322.064-.802.057-.813-.578-.919-.352-.06-2.79-.109-5.416-.109s-5.073-.084-5.435-.189c-.401-.11-.734-.348-.855-.609-.264-.578-.294-5.613-.037-6.289.105-.295.567-.907 1.016-1.368s.9-1.119 1.006-1.47c.121-.409.143-2.465.068-5.776l-.121-5.14-.522-.831a8.7 8.7 0 0 0-1.081-1.365l-.559-.536v-2.446c0-2.441 0-2.441-.431-2.441m-35.475 1.742-.854.699c-3.069 2.514-5.136 7.472-5.412 12.983-.174 3.477.722 7.317 2.343 10.016 1.467 2.445 4.384 4.913 6.618 5.612.605.189 1.984.416 3.062.514 1.081.095 2.676.148 3.541.118 1.429-.046 1.757-.137 3.557-.938l1.984-.888 1.878 1.009 10.897-.113.476-.446a1.36 1.36 0 0 0 .472-1.055v-.608h-9.532l-.676-.461c-.854-.579-.956-.575-2.257.079-2.339 1.183-3.163 1.353-5.896 1.221-4.082-.2-5.48-.544-7.309-1.795-3.991-2.729-6.301-7.193-6.58-12.726a22.3 22.3 0 0 1 3.084-12.208zm-35.263.287c-.049-.045-.642.492-1.322 1.191-1.422 1.459-1.89 2.494-1.388 3.05.635.703 4.831 1.625 7.408 1.625 1.059 0 1.134-.038 2.09-.899.889-.802 1.112-.907 2.109-1.028 1.524-.174 2.45.015 3.474.718 1.069.737 1.693 1.625 1.693 2.411 0 .491.094.635.503.786.279.102.774.189 1.096.2.899.023 1.152-.616 1.02-2.547-.094-1.361-.166-1.599-.654-2.154-1.22-1.395-2.834-1.913-4.807-1.546-.922.17-1.229.34-1.932 1.028-.812.801-.876.828-1.972.828-2.737 0-7.008-.979-7.469-1.709-.132-.204-.125-.54.023-1.084.113-.431.174-.824.128-.87m92.425.31c-.094-.283-2.759 2.65-3.42 3.776-1.361 2.302-2.034 5.114-2.041 8.546 0 2.452.623 7.543 1.096 8.923 1.315 3.829 6.349 7.597 11.179 8.364 1.52.242 5.723.042 7.563-.359 2.809-.612 5.647-1.95 6.709-3.16.348-.397.348-.397-.015-.264-3.504 1.311-5.14 1.617-8.723 1.644-3.383.023-4.354-.159-6.758-1.266-3.738-1.728-6.618-4.63-7.461-7.522-.397-1.36-1.02-6.636-1.02-8.628 0-3.281.756-6.274 2.18-8.618.42-.695.741-1.341.711-1.436m-108.688 1.331c-.718 0-1.557.831-1.72 1.7-.113.605-.06.715.654 1.361 1.002.911 1.04.93 2.608 1.353.832.227 1.663.329 2.211.276.968-.094 2.797-.983 3.455-1.678l.415-.442h-1.277c-2.049 0-3.538-.507-4.762-1.625-.764-.696-1.176-.945-1.584-.945m121.845 1.651c-.575.015-1.191.151-1.852.397-1.013.378-2.079 1.202-2.079 1.603 0 .105.453.177 1.066.17.589-.008 1.368.083 1.731.204 1.425.468 2.94 2.831 3.137 4.883l.238 2.351c.136 1.342-.098 3.148-.643 4.947-.31 1.013-.31 1.055.004 1.055.563 0 1.595-1.081 2.166-2.268.877-1.81 1.183-4.108.926-6.913-.167-1.806-.322-2.532-.718-3.401-.945-2.068-2.261-3.077-3.976-3.028m-58.043.397a4.46 4.46 0 0 0-2.702 1.096c-.465.408-.843.801-.843.877 0 .072.68.129 1.512.125 1.852-.012 2.891.427 3.991 1.674.983 1.115 1.448 2.453 1.64 4.706.144 1.704.121 2.003-.283 3.401q-.29 1.054-.718 2.06l-.272.533.51-.189c1.776-.673 3.402-3.995 3.367-6.875-.037-2.94-.616-4.732-1.954-6.032a4.57 4.57 0 0 0-3.087-1.372 7.5 7.5 0 0 0-1.161-.004m-49.062 6.894-.884.635c-1.648 1.183-2.808 3.492-3.372 6.712-.272 1.539-.007 4.052.598 5.696.525 1.436 2.158 2.978 4.252 4.033 2.487 1.247 2.936 1.372 5.442 1.531 3.591.223 4.759.105 6.425-.647 1.694-.767 2.064-.786 3.198-.185.862.457.873.457 5.987.457 3.363 0 5.276-.068 5.567-.2.657-.302 1.228-1.587.816-1.848-.128-.079-2.207-.151-4.611-.151-4.248 0-4.399-.015-4.959-.416-.854-.608-1.931-.54-3.609.238l-1.38.635-2.936-.045c-3.659-.061-4.487-.219-6.849-1.338-2.124-1.006-3.968-2.578-4.622-3.931-.582-1.202-.987-4.513-.733-5.979.215-1.247.827-3.262 1.36-4.479zm13.932 2.816c-1.803-.004-2.623.242-3.402 1.02-.964.964-.869 1.195.45 1.058 1.209-.128 2.218.171 3.273.972.914.695 1.198 1.398 1.111 2.759-.083 1.342.094 1.459 1.138.748 1.069-.725 1.334-1.258 1.425-2.834.068-1.282.034-1.501-.356-2.079a4.6 4.6 0 0 0-1.353-1.142c-.76-.415-1.134-.498-2.286-.502m110.449 15.639c-3.859-.045-4.282-.022-4.868.295-.881.48-1.021 1.096-.957 4.18l.057 2.582.82.998c.454.548.907 1.285 1.017 1.64.223.748.102 19.17-.147 22.148-.136 1.663-.212 1.924-.703 2.54-1.214 1.527-1.187 1.425-1.187 4.535v2.873l.646.57.65.567h5.273c5.087 0 5.31-.015 6.315-.423 1.735-.707 1.652-.503 1.588-3.968l-.061-3.043-.79-1.126c-1.088-1.546-1.183-2.362-1.156-9.615.015-3.285-.049-9.74-.136-14.351-.159-8.221-.167-8.398-.567-9.048-.756-1.221-1.062-1.293-5.794-1.354m-185.552.076c-1.928.023-2.54.102-3.818.506-2.135.677-2.158.719-3.258 1.21l-1.738.839-1.066 1.032c-.586.567-1.312 1.156-1.614 1.315-.159.25-.25.367-.4.605l.075-.057c.06.061-.382.794-.983 1.633-1.576 2.207-1.81 2.766-2.426 5.783-1.195 5.843-1.081 10.76.378 16.49 1.228 4.83 5.779 9.705 10.9 11.69 7.48 2.891 16.547.691 22.265-5.405 1.342-1.429 1.3-1.784-.34-2.899a5.8 5.8 0 0 0-2.041-.907c-.533-.102-1.724-.556-2.646-1.009-.926-.454-1.852-.824-2.056-.824-.208 0-.9.435-1.538.968-2.283 1.916-2.827 2.154-4.917 2.154-3.428 0-4.4-.885-6.138-5.556-1.22-3.288-1.463-4.626-1.474-8.126-.008-2.585.049-3.296.333-4.131.907-2.657 2.634-4.83 4.61-5.798.998-.484 1.285-.537 2.941-.537 1.625 0 1.962.061 2.937.514 1.304.613 2.54 1.852 3.356 3.372.998 1.867.567 1.712 4.807 1.727 3.395.015 3.78-.015 3.995-.306.367-.503.33-8.72-.045-10.522-.446-2.132-.605-2.298-2.536-2.631-2.324-.401-4.887-.14-6.826.692-1.73.744-2.627.812-3.133.242-.499-.567-2.842-1.614-4.176-1.867a23 23 0 0 0-3.428-.197m-11.895 5.507c-.215.151-.415.321-.62.484l-2.664 4.399c.873-1.194 1.939-2.759 3.284-4.883m114.815-1.856c-4.426 0-4.781.212-4.97 2.978-.14 2.079-.56 3.409-1.361 4.324-1.183 1.349-1.289 1.693-1.289 4.267 0 2.635.102 2.956 1.418 4.373l.82.885-.057 8.39c-.057 8.304-.053 8.391.34 9.12.518.96 1.021 1.535 2.253 2.574 1.875 1.587 2.048 1.636 5.783 1.739 3.802.109 4.766.018 5.144-.473.755-.983 1.062-3.908.627-5.941-.163-.764-.348-1.055-1.024-1.618-2.971-2.472-2.861-2.128-2.782-8.557.053-4.531.079-4.883.416-5.253.34-.378 1.36-.919 2.23-1.183.296-.122.562-.305.782-.537.363-.389.401-.643.438-3.103.053-3.137-.087-3.481-1.625-4.055-1.723-.643-2.048-1.236-2.366-4.286-.374-3.583-.453-3.644-4.777-3.644m109.78 6.244-2.098.102c-1.878.091-2.252.17-3.567.748-1.731.756-4.286 2.393-5.326 3.398-.971.941-2.309 2.948-3.107 4.656-1.851 3.969-2.078 9.491-.559 13.535 1.746 4.649 5.764 8.186 10.73 9.441 1.372.344 1.886.378 4.403.291 2.937-.106 4.657-.431 6.528-1.232.994-.423.665-.087 1.009-.178.533-.022 1.232-.604 3.715-2.925 1.803-1.686 1.482-2.23-2.079-3.496-3.401-1.209-3.401-1.209-4.388-.65-2.782 1.58-3.828 1.818-5.639 1.281-1.342-.4-2.105-.858-2.672-1.874l-.378-1.834h.733v-1.311h-.124l.196-.215h3.912c2.154 0 5.412-.053 7.245-.118l3.338-.121.276.152 1.088-.14c.601-.076 1.179-.223 1.285-.329.314-.314.227-4.464-.125-6.146-.699-3.333-1.224-4.603-3.012-7.279-1.595-2.381-3.046-3.466-6.765-5.061-.805-.34-1.542-.472-1.656-.525zm-177.38.457-1.649.707c-3.292 1.406-5.48 3.137-7.219 5.699-4.138 6.112-3.832 14.96.7 20.334a16.27 16.27 0 0 0 8.746 5.22c.404.087 2.014.128 3.583.091 4.183-.095 7.101-.957 9.747-2.88 1.25-.911 2.921-2.57 2.921-2.899 0-.106-.226-.439-.506-.737-.385-.416-1.138-.775-3.148-1.474-1.456-.507-2.805-.923-2.998-.923-.196 0-.907.325-1.58.726-1.795 1.066-2.683 1.342-3.888 1.198-1.977-.234-3.296-1.202-4.06-2.978-.446-1.047-.438-1.198.102-1.841l.454-.533 6.94-.132c7.959-.147 9.985-.246 10.242-.499.102-.102.215-1.066.245-2.147.065-2.093-.332-4.626-1.096-7.014-.574-1.784-2.37-4.687-3.794-6.135-1.399-1.424-1.958-1.783-4.585-2.948l-1.886-.831h-3.632zm123.771.552c-2.109 0-2.785.068-3.655.367a7.3 7.3 0 0 1-1.451.374c-1.334.019-4.358 1.701-6.085 3.386-1.138 1.104-1.905 2.517-1.682 3.099.272.703 4.793 1.773 7.499 1.773 1.001 0 1.122-.049 1.992-.824 1.081-.96 1.477-1.096 3.212-1.096 1.512 0 2.362.378 3.492 1.546.726.744.737.782.802 2.313.106 2.551-.34 2.869-2.85 2.018a18 18 0 0 0-2.022-.567 20 20 0 0 1-1.871-.472c-1.825-.544-3.454-.469-5.537.264-.96.341-2.079.794-2.494 1.002-1.406.718-3.353 2.366-3.372 2.857q-.124.351-.355.643c-.888 1.255-1.58 4.584-1.406 6.773.238 2.993.869 4.388 2.699 5.93 1.186 1.001 4.414 2.528 5.782 2.736.59.091 2.438.148 4.105.125 3.005-.038 3.042-.042 4.225-.624 1.437-.71 2.192-.74 3.224-.136.771.454.794.454 5.817.469 3.659.007 5.174-.049 5.541-.216.782-.355 1.058-1.111 1.164-3.189.128-2.506-.136-3.576-1.149-4.672a8.6 8.6 0 0 1-.983-1.236c-.132-.257-.215-1.659-.227-3.855q-.026-3.525-.139-7.049l-.125-3.598-.711-1.436a11.7 11.7 0 0 0-1.44-2.238c-1.47-1.587-4.656-3.363-6.916-3.84a33 33 0 0 1-1.852-.438c-.352-.106-1.807-.189-3.232-.189m-80.277.136-1.259.567c-4.527 2.018-5.616 2.305-6.459 1.708-.438-.313-.998-.408-3.277-.57-1.511-.106-3.031-.276-3.378-.375-1.149-.328-3.459-.223-4.332.201-1.24.601-1.561 1.3-1.674 3.651-.114 2.347-.049 2.661.71 3.605 1.059 1.32 1.21 1.92 1.285 5.035.038 1.565.05 4.176.027 5.809l-.045 2.963-.87.971-.877.968-.056 2.835c-.053 2.502.03 3.318.4 3.934.015.023 2.586.087 5.719.144 3.129.056 6.24.124 6.909.143.865.031 1.277-.034 1.432-.215.303-.37.348-5.48.053-6.463a5.7 5.7 0 0 0-.847-1.546c-.888-1.119-1.069-2.226-.978-5.964.087-3.647.385-6.225.786-6.841.393-.601 1.304-1.115 2.211-1.251 1.134-.17 3.288.404 4.059 1.081.994.869 1.156 1.353 1.16 3.466 0 1.92-.329 7.574-.491 8.405-.053.254-.408.756-.794 1.123-1.221 1.16-1.289 1.429-1.289 4.913v3.107l5.919.132c7.896.182 8.032.144 8.247-2.229.072-.794.132-2.151.14-3.02.015-1.459-.027-1.633-.518-2.313-1.115-1.542-1.085-1.316-1.168-7.956-.075-6.305-.234-7.873-.952-9.585a3.7 3.7 0 0 1-.284-1.006c0-.604-1.341-2.279-2.558-3.197-1.274-.96-1.765-1.141-4.997-1.818zm56.413.265c-1.069-.004-2.196.37-3.295 1.152-.503.356-1.134.65-1.403.65-.268 0-.918-.287-1.443-.642-.813-.548-1.112-.643-1.992-.643-.567 0-1.35.087-1.727.193-.56.155-.945.121-2.034-.181-1.72-.484-3.987-.51-4.898-.057-.926.465-1.289 1.33-1.096 2.615.083.556.159 1.622.166 2.363.011 1.292.038 1.379.631 1.927 1.153 1.077 1.13.911 1.096 7.582-.037 6.663-.03 6.614-1.164 7.684-1.02.964-1.1 1.285-1.1 4.297 0 2.797.136 3.534.711 3.817.162.084 2.986.189 6.266.242 7.662.114 7.733.114 8.191-.774.249-.48.287-.976.211-2.797-.113-2.699-.351-3.357-1.708-4.668l-1.013-.975.023-4.407c.007-2.472.102-4.641.208-4.944.381-1.103 1.334-1.179 2.445-.2 1.304 1.145 3.957 1.531 5.11.741 1.727-1.179 2.74-2.65 3.076-4.468.239-1.285-.207-4.161-.835-5.404-1.028-2.022-2.646-3.096-4.426-3.103m77.197 4.989c.805-.057 1.682.151 2.631.635 1.289.653 1.716 1.33 1.867 2.948.128 1.368-.057 2.097-.594 2.343-.514.23-2.959.348-5.344.253l-2.298-.091.038-1.511c.049-1.777.389-2.586 1.501-3.591a3.63 3.63 0 0 1 2.199-.986m-173.476.34q1.229-.102 2.668.623c1.417.715 1.742 1.206 1.856 2.797.117 1.644-.02 2.166-.658 2.495-.393.204-1.266.264-3.715.257-1.761 0-3.345-.046-3.523-.091-.348-.091-.39-.34-.325-1.894.053-1.288.53-2.343 1.44-3.163a3.77 3.77 0 0 1 2.257-1.024m120.737 12.88c.34.061.661.201 1.22.469 1.803.862 2.37 2.011 1.966 4.006-.227 1.127-.779 1.89-1.712 2.374-.492.257-2.759.51-3.152.351a7 7 0 0 0-.877-.189c-.877-.147-1.822-.971-2.317-2.025-.442-.938-.48-1.561-.151-2.48.582-1.621 1.572-2.283 3.734-2.49.605-.057.956-.076 1.289-.016"/><path fill="#262626" d="M185.677 92.81c-1.852 0-3.137 1.21-4.044 3.806-.828 2.381-.673 4.883.404 6.652.711 1.164 1.24 1.557 2.635 1.958 2.967.85 5.14-.076 6.096-2.608.476-1.255.389-5.382-.14-6.61-.748-1.735-3.012-3.198-4.951-3.198m-19.54 3.436c-4.135-.053-4.445-.034-4.997.31-.831.521-1.009 1.371-.937 4.539l.057 2.642.963.922c.911.873.964.975.964 1.844 0 1.149-.404 2.143-.96 2.355-.287.11-.937.049-1.98-.185a43 43 0 0 0-7.159-.786c-2.097.015-4.573 1.285-7.143 3.666-1.931 1.787-3.526 5.102-4.365 9.071-.522 2.471-.439 6.531.189 8.897.827 3.118 2.154 5.461 4.184 7.366 2.452 2.305 4.244 3.039 7.963 3.265 3.647.223 4.653.057 7.09-1.171 1.297-.658 1.403-.662 2.249-.087l.673.453 5.378.016c3.183.007 5.579-.065 5.862-.171.278-.108.515-.3.681-.548.113-.207.192-1.508.192-3.046 0-2.948-.173-3.598-1.292-4.781-1.093-1.149-1.111-1.323-.983-8.035.079-4.279.049-6.732-.106-8.213-.124-1.164-.264-5.246-.313-9.079-.076-5.949-.133-7.082-.401-7.8-.491-1.331-.699-1.38-5.809-1.444m-68.308 3.19c-1.784.018-3.099.48-4.373 1.534-.487.404-1.16.782-1.493.847a2.21 2.21 0 0 1-1.938-.749 4 4 0 0 0-.994-.68c-.828-.42-2.642-.491-3.78-.151-.93.28-1.78.234-3.043-.163-2.294-.718-5.805-.65-6.87.14-.825.605-1.123 1.444-1.002 2.786.06.657.166 2.165.234 3.348.121 2.022.159 2.177.586 2.472 1.001.692 1.421 1.323 1.618 2.427.28 1.598.06 15.738-.254 16.365-.31.472-.678.904-1.096 1.285-1.451 1.38-1.55 1.742-1.553 5.839-.004 3.908.125 4.528 1.058 5.008.393.201 2.177.276 8.485.352q4.116.072 8.232.045a5 5 0 0 1 .707-.049c.287 0 .714-.249 1.111-.646l.646-.65-.094-3.16c-.053-1.739-.2-3.496-.322-3.893-.15-.491-.668-1.194-1.564-2.117-.741-.755-1.425-1.591-1.527-1.852-.227-.604-.068-11.232.185-12.056.131-.372.357-.704.654-.964.779-.616 1.372-.48 2.525.575 1.217 1.111 2.713 1.625 4.724 1.625 1.164 0 1.296-.046 2.43-.836 1.864-1.304 2.945-2.834 3.496-4.951.416-1.598.386-2.131-.298-5.737-.265-1.399-1.312-3.364-2.253-4.233a10 10 0 0 0-1.788-1.259c-.846-.446-1.179-.514-2.449-.502m21.929 7.857a5.3 5.3 0 0 0-1.27.212c-.555.159-1.633.438-2.388.616-2.166.506-4.188 1.663-6.218 3.541-.873.813-1.171 1.232-1.349 1.89-.159.59-.17.937-.038 1.145.461.734 4.732 1.709 7.469 1.709 1.096 0 1.16-.027 1.972-.828.703-.692 1.01-.858 1.932-1.028 1.973-.367 3.587.151 4.807 1.546.492.555.56.793.654 2.154.167 2.408-.397 3.024-2.12 2.321a19 19 0 0 0-2.06-.575 24 24 0 0 1-2.203-.604c-.405-.148-1.478-.303-2.389-.352-1.523-.079-1.788-.038-3.402.529-3.375 1.187-5.578 2.789-6.414 4.653a19.7 19.7 0 0 0-1.285 4.301c-.253 1.466.152 4.773.734 5.975.567 1.176 2.456 2.873 4.134 3.716 2.249 1.13 3.096 1.36 5.5 1.515 3.496.227 4.611.121 6.175-.578 1.645-.737 2.748-.805 3.568-.219.537.385.749.4 5.809.446 6.758.06 6.524.181 6.709-3.553.125-2.423-.189-3.655-1.149-4.528-1.141-1.036-1.13-.964-1.274-8.319-.094-4.958-.2-6.965-.389-7.6-.4-1.331-1.444-3.054-2.358-3.901-1.625-1.497-4.725-3.163-6.354-3.417a15 15 0 0 1-1.648-.377c-.453-.137-1.859-.299-3.121-.36a21 21 0 0 0-2.034-.03m93.808.121c-.661.027-1.361.098-2.166.212-2.702.37-4.512.93-6.16 1.89-.953.555-3.889 3.201-4.195 3.779-.133.246-.53.945-.889 1.55-1.247 2.116-1.976 5.147-1.976 8.232 0 2.014.619 7.286 1.02 8.658 1.179 4.045 6.289 7.937 11.558 8.792 1.051.17 5.699-.057 7.068-.341 2.241-.476 4.58-1.36 5.684-2.158a15.44 15.44 0 0 0 5.9-8.25c.563-1.917.699-6.554.264-8.863-.396-2.124-1.379-5.016-2.127-6.248-1.769-2.921-4.475-5.231-7.019-5.994-3.288-.987-4.97-1.334-6.962-1.259m-27.999.813c-1.92.004-4.233.249-4.875.578a1.7 1.7 0 0 0-.715.767c-.105.276-.181 1.731-.17 3.239l.023 2.74.684.749c1.485 1.614 1.448 1.444 1.58 7.173.076 3.315.053 5.367-.068 5.776-.102.351-.552 1.009-1.002 1.47-.453.457-.907 1.073-1.02 1.368-.253.673-.223 5.707.038 6.278.105.232.276.429.491.567.159.075 2.733.189 5.707.245 2.986.057 6.002.121 6.716.14.813.027 1.406-.045 1.588-.189.23-.185.306-.748.378-2.797.106-3.004-.114-4.055-1.055-5.053-1.308-1.391-1.258-.964-1.307-10.741-.027-4.849-.114-9.392-.197-10.099-.144-1.229-.181-1.3-.794-1.607-.378-.188-1.058-.325-1.655-.325-.556 0-1.739-.086-2.635-.196a14 14 0 0 0-1.712-.083m29.216 7.861a3.56 3.56 0 0 1 2.328 1.191c1.085 1.236 1.576 2.642 1.811 5.185.257 2.805-.049 5.103-.926 6.917-.537 1.111-1.595 2.264-2.083 2.264-.272.047-.534.14-.775.276-1.375.718-3.632-.144-4.97-1.898-.963-1.262-1.186-2.294-1.292-5.941-.091-3.167-.083-3.262.34-3.942.234-.386.68-1.198.986-1.803.492-.979.681-1.172 1.629-1.644a5.34 5.34 0 0 1 2.952-.605m-58.53.359c1.059-.068 2.177.076 2.846.397 1.539.737 2.782 2.544 3.1 4.49.332 2.018.245 3.867-.246 5.273-.907 2.6-1.595 3.477-3.383 4.32-.661.31-1.436.529-1.837.529-1.489-.023-3.401-1.066-4.384-2.404-.899-1.221-1.451-3.84-1.319-6.274.121-2.181.627-3.352 2.098-4.853.929-.952 1.228-1.141 2.109-1.338a6 6 0 0 1 1.016-.14m-35.584 9.733c1.648-.053 1.826-.023 2.676.453 1.262.707 1.75 1.489 1.75 2.789 0 1.826-.491 2.812-1.724 3.451-.653.34-3.061.476-4.044.227-2.88-.718-3.609-4.755-1.156-6.376.642-.424.952-.492 2.498-.544m104.33 17.767a1.85 1.85 0 0 0-1.285.476l-.563.477v6.066l.733.877c1.357 1.617 1.285 1.073 1.285 9.826.004 6.894-.226 14.378-.476 15.655-.045.231-.359.726-.695 1.104-.994 1.115-1.028 1.266-1.028 4.407 0 3.197-.016 3.159 1.19 3.794.465.242 1.315.288 5.326.276 4.618-.015 4.818-.03 6.153-.484 1.632-.555 1.836-.699 1.836-1.273v-.435h-10.639l-1.296-1.138v-2.876c0-3.11-.027-3.008 1.186-4.535.492-.616.567-.881.703-2.544.25-2.974.367-21.396.148-22.144-.106-.352-.567-1.096-1.024-1.652l-.832-1.009v-4.868zm-190.866 3.36c-.17-.174-2.4 2.204-3.428 3.666-1.765 2.495-2.17 3.659-3.016 8.674-.756 4.505.17 12.949 1.784 16.154 1.353 2.699 4.014 5.718 6.44 7.321a19.9 19.9 0 0 0 8.504 3.05 19.54 19.54 0 0 0 9.022-1.096c2.101-.786 4.95-2.445 6.289-3.662l.642-.582-1.375.729c-7.918 4.214-16.77 3.296-22.832-2.37-4.06-3.791-5.643-7.657-6.184-15.137-.219-2.97 0-5.662.749-9.331.616-3.017.85-3.576 2.426-5.783.601-.839 1.04-1.572.979-1.633m109.901.261-.695.113c-.858.14-1.561.643-1.728 1.236a25 25 0 0 0-.34 2.102c-.313 2.407-.484 2.895-1.402 4.021-1.183 1.451-1.372 2.117-1.251 4.381.132 2.456.306 2.959 1.395 4.051l.907.907-.061 8.466c-.075 9.793-.2 9.06 1.89 11.048 1.406 1.334 2.192 1.901 3.077 2.219.827.294 7.578.347 8.11.064.356-.189.753-.832.987-1.603l.128-.415h-3.087c-2.869 0-3.153-.034-4.007-.439-1.561-.741-3.416-2.46-4.18-3.874-.393-.726-.397-.816-.34-9.124l.057-8.39-.821-.881c-1.315-1.417-1.417-1.738-1.417-4.373 0-2.574.106-2.918 1.285-4.267.752-.85 1.172-2.101 1.372-4.067zm-93.025 3.265c-1.64 0-1.955.057-2.877.511-1.243.608-2.921 2.063-2.177 1.886 4.063-.983 7 .298 8.867 3.877.378.726.79 1.361.915 1.418.28.121 7.597.053 7.721-.072.05-.049.114-.507.151-1.009l.065-.919-2.73-.09-2.732-.095-.756-1.323c-1.156-2.025-1.965-2.883-3.37-3.575-1.15-.567-1.362-.609-3.078-.609m111.953 4.638a1.6 1.6 0 0 0-.314.019c-.903.106-1.542.544-1.855 1.27-.254.578-.265.877-.091 1.927.113.681.2 1.731.2 2.325 0 1.039.038 1.118.783 1.829l.778.745.057 6.198c.03 3.409.007 6.387-.049 6.618-.061.23-.514.869-1.009 1.417-1.183 1.304-1.35 1.966-1.263 4.989.076 2.612.166 2.865 1.164 3.3.416.185 2.09.245 6.921.249 6.349.008 6.372.004 6.844-.404.311-.294.517-.682.586-1.104l.114-.688h-5.802c-3.859 0-5.949-.068-6.248-.204-.729-.332-.854-.907-.854-3.855 0-3.012.08-3.333 1.1-4.297 1.134-1.07 1.126-1.021 1.164-7.68.034-6.675.057-6.509-1.096-7.586-.59-.548-.62-.635-.635-1.927a24 24 0 0 0-.136-2.268c-.091-.669-.121-.85-.359-.873m-58.492.756-.461.113a2.98 2.98 0 0 0-1.882 1.637c-.269.589-.34 1.202-.348 2.846v2.094l.726.944c1.3 1.686 1.292 1.645 1.292 7.953v5.661l-1.837 2.17v2.967c0 2.729.031 3.008.382 3.454l.382.488 13.833-.099.098-.952c.087-.847.053-.968-.276-1.054-.204-.053-2.781-.099-5.729-.103-5.787 0-5.791.001-6.04-.997-.057-.235-.076-1.663-.046-3.175l.061-2.744.869-.968.873-.971.046-2.963c.022-1.633.011-4.245-.027-5.809-.075-3.115-.227-3.716-1.285-5.035-.756-.941-.816-1.247-.718-3.533zm142.269.623c-.2.027-.93.586-1.648 1.308-1.772 1.777-3.228 4.294-4.07 7.034-.461 1.5-.499 1.856-.507 5.012-.011 3.016.038 3.56.412 4.852 1.225 4.241 4.12 7.658 8.213 9.706 1.485.745 2.476 1.047 4.033 1.236 4.176.503 8.919-.416 11.981-2.317 1.289-.805 1.64-1.111 1.47-1.281-.049-.045-.476.079-.949.284-1.886.808-3.598 1.133-6.538 1.239-2.521.087-3.035.053-4.407-.291-6.085-1.538-10.413-6.198-11.494-12.378-.381-2.192-.253-5.662.295-7.748.442-1.689 1.573-4.172 2.457-5.405.336-.461.673-.952.756-1.088.068-.125.06-.174-.004-.163m-173.518.322c-.106.06-.276.177-.503.332-2.203 1.516-4.448 5.152-5.321 8.606-.579 2.306-.571 6.811.015 8.962.756 2.766 1.852 4.686 3.862 6.765a15.6 15.6 0 0 0 8.746 4.592c.303.049 1.625.06 2.937.023 2.85-.076 5.276-.631 7.525-1.712 1.368-.662 3.526-2.166 3.352-2.344-.045-.038-.604.167-1.254.454-2.359 1.069-4.147 1.398-7.605 1.398-2.948.004-3.209-.026-4.683-.518-4.112-1.375-7.302-4.089-9.1-7.74-2.662-5.393-2.148-12.544 1.25-17.409.885-1.266 1.104-1.587.779-1.409m119.558.597c-.155-.159-2.548 2.268-2.877 2.914-.612 1.198-.495 1.587.609 2.067.529.235 1.172.473 1.425.529 1.066.257 4.361.681 5.272.681.919 0 1.047-.057 1.898-.851.642-.601 1.133-.892 1.689-1.001 2.086-.401 3.345-.076 4.683 1.217.854.831.964 1.02.964 1.689 0 .654.064.779.506.938.276.102.771.189 1.096.2.938.023 1.206-.556 1.127-2.453-.065-1.531-.076-1.569-.802-2.313-1.134-1.172-1.976-1.542-3.488-1.546-1.739 0-2.136.136-3.213 1.096-.873.775-.994.824-1.995.824-2.733 0-7.231-1.07-7.503-1.788-.06-.151.068-.695.287-1.205.216-.511.36-.96.322-.998m65.461.378c-.831.109-1.58.536-2.313 1.289l-.918.945 1.285.094c1.474.106 2.895.718 3.458 1.5.25.436.404.921.45 1.422l.087.933h.703c1.602 0 2.067-.642 1.889-2.593-.151-1.625-.582-2.298-1.87-2.951-1.04-.53-1.943-.741-2.771-.635zm-172.611.348a4.7 4.7 0 0 0-1.58.147c-.673.219-2.286 1.531-2.286 1.856 0 .087.404.158.9.158 1.133 0 2.773.616 3.412 1.285.329.344.552.862.7 1.629.21 1.112.222 1.127.823 1.127.843 0 1.663-.465 1.807-1.028.215-.858-.042-3.009-.42-3.534-.48-.662-2.267-1.535-3.356-1.64m69.249 3.265c-.208 0-.87.752-1.013 1.145-.152.427.087.408.68-.056.45-.356.673-1.089.333-1.089m-34.005.374a3.77 3.77 0 0 0-2.513 1.002c-.718.714-.798 1.202-.197 1.16.529-.038 2.294.378 2.895.688.254.128.749.533 1.1.899l.643.669-.031 2.79c-.041 4.233-.302 7.869-.589 8.379a4.3 4.3 0 0 1-.805.907c-1.021.862-1.229 1.637-1.232 4.645 0 1.482.045 2.823.106 2.986.098.257.831.291 6.342.291 4.955 0 6.357-.053 6.852-.265.654-.268 1.02-.756 1.02-1.356 0-.344-.223-.363-5.786-.492l-5.783-.14v-3.106c0-3.478.068-3.75 1.285-4.906.39-.371.745-.873.794-1.127.166-.831.495-6.485.491-8.405 0-2.064-.147-2.533-1.069-3.409-.548-.518-2.533-1.202-3.523-1.21m55.88 2.582c-.423.037-.755.351-.956.922-.518 1.481-.075 2.381 1.35 2.744.408.106.824.223.926.257.453.17 1.632.075 2.241-.182.744-.31 2.256-1.485 2.256-1.753 0-.095-.363-.17-.812-.17-1.459 0-2.646-.386-3.5-1.134-.567-.503-1.081-.726-1.505-.684m14.185 4.01c-.159 0-.552.245-1.164.729-1.644 1.3-2.899 4.12-3.099 6.966-.133 1.871.17 4.339.669 5.476.937 2.136 4.94 4.713 8.069 5.197.563.087 2.306.144 3.867.129 2.823-.031 2.857-.038 4.127-.65 1.493-.718 2.592-.734 3.515-.049.54.4.631.408 5.816.351l5.261-.053.462-.457c.277-.299.476-.663.578-1.059l.117-.593-4.566-.007c-4.528-.004-4.573-.012-5.302-.458-.983-.604-1.777-.57-3.213.133-1.141.559-1.311.589-3.817.661-3.768.106-5.19-.132-7.506-1.236-3.931-1.878-5.171-3.594-5.488-7.589-.174-2.192.518-5.518 1.406-6.773q.508-.719.268-.718m79.589 2.524-3.337.121q-3.622.112-7.245.118h-3.908l-.465.506c-.507.544-.597 1.126-.238 1.489.17.17.824.204 2.528.132a431 431 0 0 1 6.607-.204q2.597-.039 5.189-.208l.869-.109zm-64.887.121a4.7 4.7 0 0 0-1.285.023c-1.61.155-2.35.454-3.057 1.232-.832.907-.737 1.032.714.93 1.16-.083 1.349-.045 2.389.506 1.678.896 2.267 2.162 1.803 3.901-.159.589.132.665.937.246.907-.473 1.459-1.248 1.686-2.363.404-1.991-.163-3.144-1.966-4.006a5 5 0 0 0-1.221-.469m-108.498.273c-.129-.038-1.47-.019-2.986.049-1.512.068-4.751.132-7.189.143l-4.437.023-.476.567c-.477.563-.556.839-.378 1.3.098.265 2.766.276 10.896.042 3.685-.102 4.142-.152 4.452-.462.393-.393.477-1.549.117-1.662"/><path fill="#fff" d="M150.09.544c-23.826.306-47.723 7.682-68.234 21.4C58.874 37.314 42.304 58.106 31.7 84.871c-1.27 3.206-2.388 5.752-2.486 5.656-.095-.097-.212-14.171-.26-31.275l-.08-31.099 1.466-2.802c1.744-3.336 1.52-5.105-.792-6.3-2.148-1.11-2.565-1.05-4.099.609-1.687 1.819-1.673 3.145.057 5.642l1.383 1.995.43 70.66-1.331 4.893c-1.442 5.313-3.197 16.928-3.79 25.104-.205 2.823-.49 5.333-.628 5.576-.142.242-.687.051-1.215-.424-1.242-1.124-6.867-2.164-9.27-1.713-3.512.659-5.194 2.73-7.521 9.263-1.167 3.27-2.11 6.677-2.096 7.569 0 .136.014.183.019.285C.519 152.664.01 157.252 0 161.911c0 3.93.355 7.822 1.046 11.453.69 3.632 1.702 6.931 2.978 9.71s2.79 4.983 4.458 6.487c1.667 1.504 3.453 2.277 5.258 2.276 1.435-.02 2.86-.531 4.223-1.512-.054.2-.01.329.226.329 1.854 0 4.587-2.447 6.041-5.404 2.494-5.077 3.177-9.971 3.226-22.728q.011-.305.019-.611l-.005-.381c0-.292.012-.464.012-.763-.012-12.062-.106-13.271-1.506-19.457l-1.49-6.599.928-8.649c1.077-10.037 1.884-14.311 4.388-23.242 5.936-21.184 16.89-40.011 32.387-55.67 18.175-18.361 39.933-30.238 64.362-35.13 41.158-8.243 83.051 4.37 112.874 33.986 9.326 9.258 14.832 16.429 21.356 27.816 9.016 15.74 14.54 33.374 16.584 52.96.824 7.891.817 8.213-.197 10.202-2.537 4.98-2.929 7.474-3.191 20.242-.258 12.691.4 20.062 2.313 25.88.993 3.024 3.675 6.36 5.889 7.322 1.941.847 3.275.965 2.95.49a6.4 6.4 0 0 0 2.252.477c2.319-.004 4.598-1.344 6.614-3.887s3.698-6.202 4.884-10.62c-.106.638-.052.774.306.217.795-1.233 1.689-7.32 1.585-10.774q-.013-.885-.084-1.769.072-1.412.084-2.835a65 65 0 0 0-.141-4.268c.061-.522.118-1.71.148-3.517.078-4.748-.106-6.148-1.171-8.917a1867 1867 0 0 1-2.769-7.256c-2.106-5.543-3.195-6.176-10.141-5.881l-5.258.225-.532-1.675c-.294-.917-.802-4.712-1.131-8.427-1.812-20.434-8.247-39.987-19.288-58.618-18.744-31.63-50.384-53.8-86.722-60.772A117.7 117.7 0 0 0 150.09.544"/><path fill="#EB5C30" d="M9.034 188.6c-2.724-2.593-5.67-8.799-6.776-14.272-1.127-5.601-1.124-19.057.005-24.64 1.421-7.018 5.087-13.831 8.347-15.518 2.75-1.421 5.136-1.05 7.61 1.185 4.533 4.094 7.358 12.585 7.897 23.728.64 13.189-2.414 24.623-7.898 29.578-1.85 1.671-2.6 1.995-4.616 1.995-2.047 0-2.73-.306-4.569-2.056m275.277 1.019c-9.665-5.894-12.736-34.084-5.346-49.043 1.984-4.014 4.736-6.957 7.049-7.538 4.698-1.176 9.712 4.715 12.46 14.646 1.214 4.388 1.67 18.436.779 23.962-1.097 6.807-3.456 12.632-6.456 15.949-2.816 3.115-5.604 3.781-8.486 2.024"/></svg>