<svg xmlns="http://www.w3.org/2000/svg" width="66" height="60" fill="none"><path fill="#FFFFFE" fill-rule="evenodd" d="m60.133 49.04-2.493 6.89q-.042.146-.173.148l-2.527.034q-.132 0-.177-.144l-2.678-6.82q-.045-.145.115-.148l2.717-.036q.175-.002.22.143l1.039 3.327h.029l.89-3.353q.042-.146.217-.15l2.702-.035q.16-.002.118.144m-8.342-.092-2.351.031q-.088.001-.087.089l.094 6.972q.002.145-.145.147l-2.774.038q-.146.001-.148-.145l-.094-6.971q0-.087-.088-.086l-2.352.031q-.145.002-.148-.144l-.032-2.421q-.002-.145.144-.148l7.945-.106q.145-.002.148.144l.032 2.42q.002.146-.144.149M11.576 52.93h-.032c-6.268 0-9.069-2.654-9.079-8.6l.098-19.286c-.01-6.887 1.953-8.275 9.206-9.788 7.12-1.484 30.826-4.087 32.27-4.245 4.834.023 8.911 3.396 8.917 7.393l.035 23.104-8.228.794q.169-.465.275-.9.112-.465.112-.726 0-1.119-.858-1.119-.337 0-.747.299-.411.299-1.008.67a7.7 7.7 0 0 1-1.4.672q-.802.298-1.885.298-1.83 0-2.669-1.044-.84-1.043-.84-3.69 0-.746.094-1.865a9.3 9.3 0 0 1 .448-2.18 4.9 4.9 0 0 1 1.045-1.808q.69-.747 1.847-.746.635 0 .971.26.336.263.504.746.168.486.205 1.193.038.709.038 1.604 0 .335.205.428.205.094.765.093 2.314 0 3.584-.95 1.268-.951 1.269-2.964 0-1.118-.43-2.088a4.7 4.7 0 0 0-1.287-1.696q-.86-.727-2.184-1.156-1.326-.428-3.154-.428-2.24 0-3.864.615t-2.78 1.621a8.1 8.1 0 0 0-1.848 2.293q-.691 1.287-1.102 2.61-.41 1.324-.541 2.572a22 22 0 0 0-.13 2.218q0 2.722.802 4.53.803 1.809 2.034 2.87a7.1 7.1 0 0 0 2.744 1.492q1.503.425 2.913.428a4 4 0 0 0-.015.428l.08 6.008zm52.989-11.037a4.3 4.3 0 0 0-3.03-1.21l-6.08.587-.033-22.87c-.009-5.344-5.241-9.85-11.432-9.85h-.02l-.131.007c-.574.062-8.413.917-16.498 1.928L30.566.775 28.226 0l-3.11 9.37-4.957-4.113-1.575 1.894 4.654 3.861c-4.887.642-9.418 1.303-11.973 1.835C3.38 14.491.085 16.55.098 25.04L0 44.324v.008c.011 7.34 3.895 11.06 11.545 11.06h.035l26.41-.04.005.444a4.23 4.23 0 0 0 1.293 2.993A4.24 4.24 0 0 0 42.26 60h.059l19.472-.261a4.27 4.27 0 0 0 4.208-4.318l-.141-10.534a4.23 4.23 0 0 0-1.293-2.993" clip-rule="evenodd"/><path fill="#FFFFFE" fill-rule="evenodd" d="M23.709 30.024a3.9 3.9 0 0 1-.523 1.386q-.396.647-1.1 1.092-.702.443-1.82.443-.937 0-2.2-.295.144-2.034.235-3.828.09-1.794.162-3.089.612-.074 1.154-.13.54-.054.973-.055 1.802 0 2.524.814.72.814.72 2.33 0 .592-.125 1.332m4.596 11.243-3.028-4.438q2.451-1.184 3.57-3.44 1.117-2.256 1.117-5.141 0-1.885-.487-3.403-.487-1.515-1.514-2.589-1.027-1.073-2.686-1.664T21.31 20q-.757 0-1.713.055-.954.056-2.037.13-1.08.075-2.253.13-1.171.055-2.29.055-.36 0-.468.463-.108.462-.216 2.126l-.198 3.662a278 278 0 0 1-.415 6.065 427 427 0 0 0-.27 3.495l-.235 3.163q-.108 1.443-.162 2.496A33 33 0 0 0 11 43.338q0 1.628.847 2.46.848.832 2.903.832h1.802q.324 0 .433-.13.108-.128.144-.425 0-.147.072-.906a63 63 0 0 0 .144-1.923q.072-1.165.18-2.645.11-1.479.217-3.106.829.186 2.127.258.432 1.813.92 3.477.486 1.665 1.153 2.94.667 1.276 1.514 2.053a2.86 2.86 0 0 0 2.001.777q1.045 0 1.893-.333a5.8 5.8 0 0 0 1.442-.795q.595-.462.901-.925.307-.462.307-.72 0-.334-.433-1.018a134 134 0 0 0-1.262-1.942" clip-rule="evenodd"/></svg>