<svg xmlns="http://www.w3.org/2000/svg" width="1809" height="1062" fill="none"><path fill="#fff" d="M131.2 3.5c-1.7 1.4-3.3 3.4-3.6 4.3S98.2 244.6 63 532C6.1 995.1-1 1054.8.2 1057c.7 1.4 2.5 3 3.8 3.7 2 1 36.9 1.3 164.5 1.3 158.7 0 162.1 0 165.2-2 1.7-1 3.7-2.9 4.4-4.1.6-1.3 9.9-73.1 20.5-159.6 12.4-101 19.8-158.2 20.8-160.1 2.8-5.4 11.7-7.5 15.6-3.6 1.2 1.1 24.9 66.3 59.4 163.3 37.6 105.6 58.2 162.1 59.5 163.5l2.2 2.1 194.2.3c138.9.2 195.3 0 198-.8 4.2-1.2 7.7-5.8 7.7-10.1 0-1.6-42.5-80.8-106.7-199-79.6-146.4-106.7-197.2-106.7-199.6 0-5.4 3.2-8.5 12-11.7 57.8-20.9 93.8-40.8 126.5-69.9 18.3-16.3 38.3-42.2 50.8-65.7 22.5-42.5 37.1-100.6 42.2-167 1.5-20.2.7-64.2-1.6-81-4.8-36.6-13.7-66.9-27.6-94.9C873.4 98.8 818.5 53.7 740.4 27 706.6 15.4 672.9 8.5 626 3.3c-14.1-1.5-37.4-1.7-253.6-2L134.2.9zm385.3 262.9c41.6 6.7 63.8 24.1 71.6 56.1 1.9 7.5 2.2 11.7 2.2 25-.1 38.8-11.2 68.2-33.4 88.8-16.5 15.4-37.5 24.5-67.1 29.2-7.2 1.2-19.8 1.8-41.5 2.2l-31.2.6-3-3.1c-1.7-1.7-3.1-4.1-3.1-5.4 0-2.3 21.5-179.5 22.6-185.7.3-2.1 2-4.9 4-6.9l3.4-3.4 32.8.5c23.2.3 35.6 1 42.7 2.1m443.3 123.7c-5.1 2.6-6.4 5.6-9.8 22.5-2.7 13.2-4.1 19.4-5.6 24.7-.5 1.6 19.3 1.7 416.3 1.5l416.8-.3 5-2.5c7.9-3.9 13.3-10.2 19.8-23 6.7-13.4 7.4-18.1 3.1-22.1l-2.6-2.4-419.6-.2c-416-.2-419.7-.2-423.4 1.8"/><path fill="#fff" d="M940.4 470.5c-6.2 3.1-8.2 5.8-12.9 17.1-5.5 13.4-16.6 34.3-24.8 46.8-10.7 16.3-21.7 29.4-37.3 44.6-21.9 21.4-45.6 38-77.1 54.2l-15.2 7.8h146.5l4.4 2.2c5.4 2.8 8 6.2 8.6 11.4.3 2.1-7.6 70-17.6 150.9-10 80.8-17.9 148.4-17.6 150.2.2 1.8 12.4 25.2 27 52 22.9 42.2 27 49.1 30.2 51.3l3.7 2.5 48.9.3c34.2.2 50.1-.1 53-.9 5.5-1.4 12.2-8 13.7-13.4.6-2.2 11.7-90.6 24.6-196.5 14.1-115.5 24.2-194.2 25.1-196.7 2.1-5.8 8.3-10.9 14.8-12.3 3.4-.8 18.4-1 45.6-.8 38.4.3 40.7.4 43.9 2.3 1.9 1.1 4.2 3.2 5.3 4.6 1.3 1.7 17.3 66.5 50.3 203.4 32.8 136.3 48.9 201.6 50.2 203.3 1.1 1.4 3.2 3.5 4.7 4.6 2.7 2.1 3.6 2.1 76.9 2.1h74.2l4.2-2.2c2.3-1.3 5.3-3.7 6.6-5.5s64-129.9 139.2-284.7c106.9-219.9 136.9-282.5 137.3-286.1.6-6.5-1.7-10.6-7.3-13.1-4.2-1.9-7.3-1.9-88.3-1.7l-84 .3-4.3 3c-2.4 1.7-5.1 4.4-6 6-1 1.7-29 76-62.3 165.2-33.2 89.2-61.9 165.3-63.8 169-4.6 9.4-10.4 15.3-15 15.3-2.4 0-4.2-.8-5.7-2.4-5.9-6.2-5.9-6.8-29.2-180.5-16.2-120.6-22.5-165.5-23.8-168.1-1-1.9-3.5-4.5-5.7-5.7l-3.9-2.3H945.4z"/></svg>