<svg xmlns="http://www.w3.org/2000/svg" width="413" height="98" fill="none" viewBox="0 0 413 98"><path fill="#ff3200" d="M195 3.5c-5.23 4-8.75 8.86-8.75 12.06 0 2.45 3.84 6.4 10.46 10.46 2.45 1.49 4.48 3.41 4.48 4.16 0 1.81-2.67 5.76-7 10.35l-3.63 3.84 7.25-.43a46.3 46.3 0 0 1 11.52.75c5.23 1.49 6.83-.21 6.83-7.15 0-6-1.07-7.89-8.64-15.68s-8.64-10.46-6.72-16a41.5 41.5 0 0 0 1.45-5.12c0-1.62-2.88-.55-7.25 2.76M142.51 24.09c-1.39 3.63-1.81 13.87-.64 17.28 1.28 3.84 5.23 4.8 14.08 3.2 4.37-.64 8.22-.85 8.64-.43s1.07 4.91 1.49 10c.096 2.679.347 5.35.75 8 .32-2.35 7.89-9.92 12.7-12.8 2.45-1.39 4.59-3.31 4.59-4 0-2.13-5.12-7.9-8.64-9.6-1.81-1-6.19-1.6-10.78-1.71-11 0-14.72-1.6-17.39-7-2.99-6.14-3.52-6.46-4.8-2.94M239 22.81c-4.27 1.92-5 5.12-3.09 12.8 2.35 9.07 2.24 10-2.35 11.2a40.8 40.8 0 0 1-9.32 1.19H219l4.37 3.2a45.9 45.9 0 0 1 8.43 8.54c2.13 2.88 4.27 5.33 4.59 5.33a22.2 22.2 0 0 0 4-2.13c5.55-3.31 7-7.57 7.15-19.84.11-12.06.64-13.12 7.36-16.64 2.84-1.46 3.8-2.46 3.1-3.22-1.87-1.82-15.31-2.14-19-.43"/><path fill="#ff3200" d="M186.57 49.16C179.1 52 171 59.51 167.37 67c-2.45 5-3 7.68-3.2 15.15L164 91.2l-26.88.64 4.48-6.51c2.56-3.52 5.23-6.4 6.08-6.4s4.16 2.67 7.57 5.87l6.19 5.87-.53-5.76a33.9 33.9 0 0 1 1.28-11.63c1-3.2 1.71-6.08 1.71-6.29s-1.92-1.07-4.27-1.81c-6.83-2-11.2-.64-18.88 6.4-8.86 8.11-12.59 9.28-18.46 6.29-2.45-1.28-4.69-2-5.12-1.71-.85 1 1.17 4.8 5.55 10.46l3.84 5.12H.62v5.34h411.82v-5.34l-77.56-.21-77.46-.32 5.58-6.08c6.4-7 10.14-8.32 16.43-5.65 3.52 1.49 4 1.49 4 0 0-2.13-8.11-10.88-11.84-12.91-5.87-3-9.18-1.17-13.55 7.68-4.16 8.32-5.65 8.32-15.58.11-3.73-3.09-5.12-3.73-4.48-2.35 2.24 5.76 1.92 19.74-.32 19.74-.53 0-1.07-4.27-1.39-9.39-.32-7.57-1.07-10.67-3.41-15.47-3.63-7.47-11.74-14.83-19.42-17.71s-19.29-2.9-26.87-.02"/></svg>