<svg xmlns="http://www.w3.org/2000/svg" xml:space="preserve" id="Layer_1" x="0" y="0" version="1.1" viewBox="0 0 868.4 283.5"><style>.st0{fill-rule:evenodd;clip-rule:evenodd;fill:#fff}</style><g id="loghi"><path d="M335.3 148.4h9.5c4.4 0 9.8.5 13.7 3.6 2.3 1.8 4.4 4.8 4.4 9.6s-1.9 8.9-4.6 11.4c-4.8 4.4-11.8 5.1-17.4 5.1h-9.2zm5.1-41h4.2c3.4 0 8.8.5 12 3.7 1.6 1.7 3.3 4.4 3.3 8.6 0 5.1-2 9.5-4.9 12.1-2.3 1.9-6.2 4-13.4 4H337zm-13.5-14.2-12.2 99.3h23.2c9.5 0 22.9-.6 31.8-10 4-4.2 7.9-11.2 7.9-21.7 0-4.6-.9-9.3-4.3-13.7-1-1.4-4.4-5.5-10.9-7.7 4.8-2.5 7.5-6.1 8.8-8.6 2.4-4.4 2.8-9.3 2.8-12.9 0-6.2-1.5-11.9-6.2-16.9-6.1-6.1-14.8-7.7-25.9-7.7zM418.6 107.2h5.2c6.6 0 10.9 1 13.6 2.8 3.2 2 5.5 6 5.5 11.2 0 5.3-2.7 10.1-6.1 12.8-4.6 3.7-11.9 4.8-17.2 4.8h-4.8zm-13.3-14L393 192.4h15.2l5.1-40.6h2.7l23.3 40.6h18.3L432 150c6.2-1.2 12.7-4.3 17-8.4 4.4-4.2 8.6-11.3 8.6-21.4 0-10.4-4.8-17.4-9.5-20.9-7.1-5.5-17.2-6.1-25-6.1zM521.6 180.4c-8.4 0-16.5-2-23.5-9.5-3.8-4-9.3-11.8-9.3-24.1 0-13.4 5.5-23.7 12.3-30.3 8.4-8.2 18-11 27.5-11 11 0 19.7 4.4 25.1 10.1 4.2 4.3 8.9 11.8 8.9 23.3s-4.4 23.3-12 30.8c-6.3 6.6-15.9 10.7-29 10.7m10.1-89c-17 0-31.8 5.8-41.7 15.6-10 9.8-16.2 25-16.2 40.8 0 13.8 5.3 25.7 13.2 33.7 9.5 9.8 20.8 12.8 34.4 12.8 12.5 0 27.8-2 41-15.3 7.5-7.6 15.6-20.7 15.6-41.1 0-8.5-1.5-22.4-12.8-33.6-5.7-5.7-16.2-12.9-33.5-12.9M629.4 126.7l-3.7-5.3c-1.4-1.8-2.4-4.1-2.4-7.2 0-3.3 1.4-5.7 2.7-7 2-2 5.3-3.2 7.9-3.2 1.8 0 4.3.6 6 1.9 1.5 1.1 2.8 3.3 2.8 6 0 2-.6 4.2-1.9 6.1-1.8 2.5-4.1 4.2-6 5.3zm11.2 42.9c-2.9 3.2-6.5 6-10.1 8.4-3.2 1.9-6.7 3.7-11.8 3.7-4.3 0-7.5-1.6-10-4.3-2.3-2.4-3.7-5.5-3.7-9.4 0-4.3 1.4-9.2 6.2-14 3.3-3.2 8.9-6.5 12.7-8.2zm24-23.7-12.8 12.8-14.8-21.4 5.3-3.6c4-2.7 7.1-4.6 10.3-8.8 2.7-3.6 4.2-7.5 4.2-12.5 0-7-2.7-11.9-6-15.1-4.8-4.6-10.4-6-15.6-6-9.4 0-15.6 3.3-19.7 7.5-3.7 3.8-6.7 9.4-6.7 16.9 0 6 1.9 10.5 4.4 14.5l3.2 4.8-3.2 1.9c-4.2 2.5-9.5 5.3-14.3 10.1-5.5 5.7-8.8 12.7-8.8 21.3 0 8.9 3.6 15.1 7.2 18.8 4.3 4.3 11.3 7.5 20.2 7.5 6.2 0 13.1-1.6 18.5-4.6 4-2.3 9.3-6.6 12.3-9.5l8.4 12.2h18.5l-15.5-22.9 13.4-13.6zM752.6 108.1c-1.4-3.8-4-8.5-9.4-12-5.8-3.8-12.2-4.6-17.1-4.6-10.5 0-18.3 3.8-23.7 9.5-7.9 8.4-7.9 17.9-7.9 19.2 0 6 2.4 11 5.5 14.6 3.4 3.7 8.2 6.2 11.8 7.9l7.6 3.4c3.3 1.5 7.2 3.3 10.1 6.2 2.4 2.5 3.8 5.3 3.8 9.4 0 5.1-1.8 11.2-5.7 14.6-2.7 2.4-6.5 4.2-11.8 4.2-6.5 0-10.3-2-12.7-5.2-2.7-3.6-3.6-9.5-3.4-13.4l-15.3 3.3c.3 9.5 4.3 17.5 9.3 22.3 5.5 5.3 12.2 7 19.9 7s17.9-1.6 25.9-10c5.1-5.3 9.1-13.1 9.1-24.6 0-6.1-1.2-11.3-5.2-16.2-2.3-2.8-6.1-6.2-12.5-9.1l-8-3.6c-3.7-1.6-6.6-2.4-9.6-5.2-2-1.9-3.6-4.2-3.6-7.6 0-3.6 1.8-6.8 4.2-8.9 1.9-1.8 5.5-3.8 11.3-3.8 2.9 0 7 .8 9.8 2.8 2 1.6 3.7 4.2 4.4 7zM776.1 93.2l-12.2 99.2h15.2l12.2-99.2zM868.4 108.1c-1.4-3.8-4-8.5-9.4-12-5.8-3.8-12.2-4.6-17.1-4.6-10.5 0-18.3 3.8-23.7 9.5-7.9 8.4-7.9 17.9-7.9 19.2 0 6 2.4 11 5.5 14.6 3.4 3.7 8.2 6.2 11.8 7.9l7.6 3.4c3.3 1.5 7.2 3.3 10.1 6.2 2.4 2.5 3.8 5.3 3.8 9.4 0 5.1-1.8 11.2-5.7 14.6-2.7 2.4-6.5 4.2-11.8 4.2-6.5 0-10.3-2-12.7-5.2-2.7-3.6-3.6-9.5-3.4-13.4l-15.3 3.3c.3 9.5 4.3 17.5 9.3 22.3 5.5 5.3 12.2 7 19.9 7s17.9-1.6 25.9-10c5.1-5.3 9.1-13.1 9.1-24.6 0-6.1-1.2-11.3-5.2-16.2-2.3-2.8-6.1-6.2-12.5-9.1l-8-3.6c-3.7-1.6-6.6-2.4-9.6-5.2-2-1.9-3.6-4.2-3.6-7.6 0-3.6 1.8-6.8 4.2-8.9 1.9-1.8 5.5-3.8 11.3-3.8 2.9 0 7 .8 9.8 2.8 2 1.6 3.7 4.2 4.4 7z" class="st0"/><path d="M0 141.5C0 63.4 63.4 0 141.5 0S283 63.4 283 141.5 219.6 283 141.5 283 0 219.6 0 141.5" style="fill:red"/><path d="M27.4 58h228.3L141.5 283.5z" style="fill-rule:evenodd;clip-rule:evenodd"/><path d="M86 96.6h2c4.4 0 8.4.7 8.4 6.1 0 5.3-4.3 6-8.5 6H86zm-28.8 51.9h25.4v-22.9h.4l11.4 23h30l-15.5-23.2c-1.5-2-3.1-3.2-4.3-4.3v-.6c9.6-3.2 13.8-7.8 13.8-18.6 0-18-13.7-24.8-29.8-24.8H57.2zM120.3 100.3l14.3-.7v48.9h26V99.6l14.3.7V77.1h-54.6zM180 148.5h47.8v-22.8H206V77.1h-26zM103.9 171.4c4.6 0 5.7 5.3 5.7 8.8 0 3.3-1.2 9.5-5.7 9.5s-5.7-6.2-5.7-9.5c.1-3.5 1-8.8 5.7-8.8m0-13.4c-13 0-20.6 9.6-20.6 21.8 0 12.9 7.2 22.6 20.6 22.6s20.6-9.7 20.6-22.6c0-12.1-7.6-21.8-20.6-21.8M165.8 202v-13.2l-8.4.6-7.4 1v-.5c7.6-2.4 15.2-7.7 15.2-16.4 0-10.1-9.5-15.3-18.5-15.3-13 0-18.6 5.7-19.8 18.2h15.4c.1-2.6.6-5.4 3.8-5.4 1.9 0 3.5 1.5 3.5 3.4 0 3.8-6.8 10-9.5 12.3l-17 15.3zM179.7 188.3c-4.2 0-8.5 2.7-8.5 7.2s4.3 7.1 8.5 7.1 8.5-2.6 8.5-7.1c-.1-4.6-4.4-7.2-8.5-7.2M57.4 173.1l6.7-.5V202h15.5v-43.3l-22.2.7zM198.7 158.7l-3.7 25.6c3.6-1.2 7.6-1.9 11.4-1.9 2.5 0 8.6.8 8.6 4.3 0 3.4-5 4.3-7.6 4.3-3.5 0-9.7-1.8-12.9-3.5l-1.7 11.7c4.1 2 12.7 3.5 17.2 3.5 9.2 0 20.7-5 20.7-15.6 0-8.3-6.9-13.5-14.8-13.5-2.2 0-5.9.5-7.4 2.3h-.5c.8-1.6 1.1-3.3 1.4-5h18.5v-12.1z" class="st0"/></g></svg>