<svg xmlns="http://www.w3.org/2000/svg" xmlns:xlink="http://www.w3.org/1999/xlink" xml:space="preserve" id="Layer_1" x="0" y="0" version="1.1" viewBox="0 0 1626.9 523.1"><style>.st12{fill:#fff}</style><g id="Layer_2_00000178164123972318458780000004869005945531924916_"><defs><path id="SVGID_1_" d="M.8.1h523v523H.8z"/></defs><clipPath id="SVGID_00000056426274376658818320000001496294665274730887_"><use xlink:href="#SVGID_1_" style="overflow:visible"/></clipPath><path d="M.8 261.5C.8 117.1 117.9 0 262.3 0s261.5 117.1 261.5 261.5S406.7 523 262.3 523 .8 406 .8 261.5" style="clip-path:url(#SVGID_00000056426274376658818320000001496294665274730887_);fill:#e52521"/><defs><circle id="SVGID_00000104700815232380817360000003524367196192250287_" cx="262.3" cy="261.5" r="261.5"/></defs><clipPath id="SVGID_00000050653071155889629610000006095363118194467492_"><use xlink:href="#SVGID_00000104700815232380817360000003524367196192250287_" style="overflow:visible"/></clipPath><path d="M51.4 107.2h421.9L262.4 523.9z" style="clip-path:url(#SVGID_00000050653071155889629610000006095363118194467492_);fill-rule:evenodd;clip-rule:evenodd;fill:#020203"/><defs><path id="SVGID_00000083778911138922934280000009382260478273827498_" d="M.8.1h523v523H.8z"/></defs><clipPath id="SVGID_00000180357581696967828500000017207595038015644334_"><use xlink:href="#SVGID_00000083778911138922934280000009382260478273827498_" style="overflow:visible"/></clipPath><path d="M159.8 178.6h3.7c8.2 0 15.4 1.2 15.4 11.4 0 9.8-7.9 11-15.8 11h-3.3zm-53.4 95.9h46.9v-42.4h.9l21 42.4h55.3l-28.7-42.9c-2.6-3.9-5.6-6-8-7.9v-1c17.9-6 25.6-14.4 25.6-34.3 0-33.3-25.2-45.9-55-45.9h-58z" style="clip-path:url(#SVGID_00000180357581696967828500000017207595038015644334_);fill-rule:evenodd;clip-rule:evenodd;fill:#fff"/><defs><path id="SVGID_00000038372091744912893610000003163969127844398241_" d="M.8.1h523v523H.8z"/></defs><clipPath id="SVGID_00000074411610428294432350000001990015547278310036_"><use xlink:href="#SVGID_00000038372091744912893610000003163969127844398241_" style="overflow:visible"/></clipPath><path d="m223.2 185.4 26.4-1.2v90.3h48v-90.3l26.5 1.2v-42.9H223.2z" style="clip-path:url(#SVGID_00000074411610428294432350000001990015547278310036_);fill-rule:evenodd;clip-rule:evenodd;fill:#fff"/><defs><path id="SVGID_00000173863812514978452650000011604099611657971371_" d="M.8.1h523v523H.8z"/></defs><clipPath id="SVGID_00000004507845548393259720000010432495485580028810_"><use xlink:href="#SVGID_00000173863812514978452650000011604099611657971371_" style="overflow:visible"/></clipPath><path d="M333.4 274.5h88.3v-42.3h-40.3v-89.7h-48z" style="clip-path:url(#SVGID_00000004507845548393259720000010432495485580028810_);fill-rule:evenodd;clip-rule:evenodd;fill:#fff"/><defs><path id="SVGID_00000104689881297747774380000004538990374018085022_" d="M.8.1h523v523H.8z"/></defs><clipPath id="SVGID_00000056427801209564569740000006276923106577032336_"><use xlink:href="#SVGID_00000104689881297747774380000004538990374018085022_" style="overflow:visible"/></clipPath><path d="M192.8 316.9c8.7 0 10.4 9.8 10.4 16.4 0 6.1-2.2 17.6-10.4 17.6s-10.4-11.4-10.4-17.6c0-6.6 1.7-16.4 10.4-16.4m0-24.8c-24.1 0-38.1 17.8-38.1 40.4 0 23.9 13.4 41.9 38.1 41.9s38.1-18 38.1-41.9c0-22.6-14-40.4-38.1-40.4" style="clip-path:url(#SVGID_00000056427801209564569740000006276923106577032336_);fill-rule:evenodd;clip-rule:evenodd;fill:#fff"/><defs><path id="SVGID_00000137111149122522243440000006698363988592735656_" d="M.8.1h523v523H.8z"/></defs><clipPath id="SVGID_00000039821995873127345310000012528051654109177223_"><use xlink:href="#SVGID_00000137111149122522243440000006698363988592735656_" style="overflow:visible"/></clipPath><path d="M307.3 373.2v-24.6l-15.6 1-13.7 1.9v-.8c14.1-4.4 28.1-14.3 28.1-30.4 0-18.5-17.6-28.1-34.2-28.1-24 0-34.4 10.5-36.5 33.8h28.4c.2-4.9.9-10.1 7.1-10.1 3.6 0 6.6 2.8 6.6 6.4 0 7.1-12.6 18.3-17.6 22.7L228 373.3h79.3z" style="clip-path:url(#SVGID_00000039821995873127345310000012528051654109177223_);fill-rule:evenodd;clip-rule:evenodd;fill:#fff"/><defs><path id="SVGID_00000039119644827436480040000002426325342346189234_" d="M.8.1h523v523H.8z"/></defs><clipPath id="SVGID_00000080904044069451532660000003822550664797927605_"><use xlink:href="#SVGID_00000039119644827436480040000002426325342346189234_" style="overflow:visible"/></clipPath><path d="M332.7 347.9c-7.7 0-15.8 5-15.8 13.4s8 13.1 15.8 13.1c7.7 0 15.8-4.8 15.8-13.1 0-8.5-8.1-13.4-15.8-13.4" style="clip-path:url(#SVGID_00000080904044069451532660000003822550664797927605_);fill-rule:evenodd;clip-rule:evenodd;fill:#fff"/><defs><path id="SVGID_00000030473494137834104450000008578729708592663936_" d="M.8.1h523v523H.8z"/></defs><clipPath id="SVGID_00000183236202866517739400000001042591025376573826_"><use xlink:href="#SVGID_00000030473494137834104450000008578729708592663936_" style="overflow:visible"/></clipPath><path d="m106.9 319.8 12.3-.8v54.2H148v-79.8l-41.1 1.2z" style="clip-path:url(#SVGID_00000183236202866517739400000001042591025376573826_);fill-rule:evenodd;clip-rule:evenodd;fill:#fff"/><defs><path id="SVGID_00000062186270976842352750000014705207641926010800_" d="M.8.1h523v523H.8z"/></defs><clipPath id="SVGID_00000120539281651101860310000000540970743577256069_"><use xlink:href="#SVGID_00000062186270976842352750000014705207641926010800_" style="overflow:visible"/></clipPath><path d="m368 293.4-7 47.2c6.7-2.3 14-3.5 21.2-3.5 4.5 0 16 1.5 16 7.9 0 6.3-9.2 7.9-14.1 7.9-6.6 0-18-3.4-23.8-6.6l-3.2 21.6c7.5 3.7 23.5 6.5 31.9 6.5 16.9 0 38.2-9.2 38.2-28.8 0-15.3-12.7-25-27.3-25-4 0-10.9.8-13.5 4.2h-.7c1.4-2.9 2-6.1 2.5-9.2h34.2v-22.3z" style="clip-path:url(#SVGID_00000120539281651101860310000000540970743577256069_);fill-rule:evenodd;clip-rule:evenodd;fill:#fff"/><path d="m728.4 188.5-4.2 28.7c-6.5-6.8-13.6-11.9-21.2-15.2s-15.9-5-24.8-5q-13.8 0-25.5 4.8c-11.7 4.8-14.5 7.7-20 13.7q-9.75 10.5-15 24c-3.5 9.1-5.2 18.5-5.2 28.2 0 17.3 5.3 31.4 15.9 42.2 10.6 10.9 24.3 16.3 41.1 16.3 8.4 0 16.5-1.5 24.3-4.4s15.3-7.2 22.5-13l-5.9 32.1c-7.7 3-15 5.2-22 6.7s-13.8 2.2-20.3 2.2c-24.5 0-44.2-7.5-59.3-22.4-15-15-22.5-34.6-22.5-58.9q0-20.25 7.2-38.4c7.2-18.15 11.6-22.6 20.4-31.4 8.2-8.2 17.6-14.4 28.1-18.7 10.6-4.3 21.9-6.4 34-6.4 10.9 0 20.6 1.2 29.3 3.7 8.6 2.5 16.3 6.2 23.1 11.2M719.7 345.5 817 170.9l61.4 174.6h-27.3l-13.7-39.7h-66.9l-22.1 39.7zm61.4-62h49.1l-13-41.5c-.6-2-1.3-4.6-2-7.9s-1.5-7.6-2.5-13c-1.7 4-3.3 7.7-5 11.3-1.6 3.6-3.3 6.9-4.9 10zM887.1 345.5l22-168h26.4l-18.6 142.2h62.8l-3.6 25.8zM997.9 345.5l22-168h26.9l-22.4 168zM1062.9 345.5l22.1-168h94.3l-3 23.8h-68.2l-5.4 42.2h68l-3.1 23.5h-68.2l-7 54.3h68.2l-3.3 24.2zM1190.7 345.5l22.7-174.6 91.7 105.1c3.3 3.8 6.3 7.5 9 10.9s5.2 6.8 7.5 10.2c0-3.5.2-7.2.5-11.2.3-3.9.9-8.9 1.7-14.9l12.6-93.5h24.7L1338.4 352l-91.9-105q-6.15-7.05-9.9-12c-2.5-3.2-4.6-6.4-6.5-9.4-.2 5.2-.9 13.2-2.3 23.9q-.3 1.65-.3 2.4l-11.9 93.5zM1403.6 345.5l19-143.8h-45.3l3.2-24.2h114.7l-3.3 24.2h-42.8l-19 143.8zM1496.7 345.5l22.1-168h94.3l-3 23.8h-68.2l-5.4 42.2h68l-3.1 23.5h-68.2l-7 54.3h68.2l-3.3 24.2z" class="st12"/></g></svg>