<svg xmlns="http://www.w3.org/2000/svg" xml:space="preserve" id="Layer_1" x="0" y="0" version="1.1" viewBox="0 0 776.9 283.5"><style>.st0,.st3{fill:#fff}.st3{fill-rule:evenodd;clip-rule:evenodd}</style><g id="loghi"><path d="m408 95.8-12.2 99.1-56.3-71.8-8 65.5h-13.7l12-97.8 56.2 71.8 8.3-66.8zM436.6 166.8l-11.3 21.8h-14.9l51.3-99.4 32 99.4h-14.4l-6.7-21.8zm5.9-11.9h26.2l-10-32.9zM516 95.8h18.8c8.2 0 14.4 1.4 18.7 4.1 3.5 2.2 6.3 5.3 8.3 9.3 2 4.1 3.1 8.5 3.1 13 0 6.7-1.8 12.5-5.5 17.5-5.5 7.5-14.3 11.2-26.2 11.2H523l-4.6 37.6h-13.8zm12.2 12.8-3.7 30.2h8.9c5.7 0 10-1.5 13-4.3 3.1-2.9 4.5-7.1 4.5-12.6 0-8.8-5.7-13.2-17-13.2h-5.8v-.1zM653.9 95.8l-6.7 54.9c-1.5 12.1-4.4 20.9-8.5 26.6-6.7 8.7-16 13.1-27.8 13.1-9.5 0-17.4-2.8-23.9-8.6-6.3-5.9-9.5-13.1-9.5-21.7 0-1.8.1-3.7.2-5.8.1-2 .3-4.2.7-6.5l6.3-51.8h13.7l-6.6 53.5c-.2 1.6-.3 3.1-.5 4.4-.1 1.4-.1 2.6-.1 3.7 0 6.1 1.7 11 5.2 14.6s8.3 5.3 14.2 5.3c7 0 12.2-2.3 15.8-6.7 3.6-4.5 6-11.9 7.4-22.1l6.5-53zM689.9 95.8l-9.9 80h26.3l-1.6 12.8h-40l11.5-92.8zM776.9 95.8l-1.6 12.8h-34.1l-2.9 24h34.1l-1.5 11.9h-34.1l-3.8 31.2h34.1l-1.6 12.8h-47.8l11.4-92.7zM740 70.4l10.4-6.7 11.9 18.9-7.2 4.4z" class="st0"/><path d="M0 141.5C0 63.4 63.4 0 141.5 0S283 63.4 283 141.5 219.6 283 141.5 283 0 219.6 0 141.5" style="fill:red"/><path d="M27.4 58h228.3L141.5 283.5z" style="fill-rule:evenodd;clip-rule:evenodd"/><path d="M86 96.6h2c4.4 0 8.4.7 8.4 6.1 0 5.3-4.3 6-8.5 6H86zm-28.8 51.9h25.4v-22.9h.4l11.4 23h30l-15.5-23.2c-1.5-2-3.1-3.2-4.3-4.3v-.6c9.6-3.2 13.8-7.8 13.8-18.6 0-18-13.7-24.8-29.8-24.8H57.2zM120.3 100.3l14.3-.7v48.9h26V99.6l14.3.7V77.1h-54.6zM180 148.5h47.8v-22.8H206V77.1h-26zM103.9 171.4c4.6 0 5.7 5.3 5.7 8.8 0 3.3-1.2 9.5-5.7 9.5s-5.7-6.2-5.7-9.5c.1-3.5 1-8.8 5.7-8.8m0-13.4c-13 0-20.6 9.6-20.6 21.8 0 12.9 7.2 22.6 20.6 22.6s20.6-9.7 20.6-22.6c0-12.1-7.6-21.8-20.6-21.8M165.8 202v-13.2l-8.4.6-7.4 1v-.5c7.6-2.4 15.2-7.7 15.2-16.4 0-10.1-9.5-15.3-18.5-15.3-13 0-18.6 5.7-19.8 18.2h15.4c.1-2.6.6-5.4 3.8-5.4 1.9 0 3.5 1.5 3.5 3.4 0 3.8-6.8 10-9.5 12.3l-17 15.3zM179.7 188.3c-4.2 0-8.5 2.7-8.5 7.2s4.3 7.1 8.5 7.1 8.5-2.6 8.5-7.1c-.1-4.6-4.4-7.2-8.5-7.2M57.4 173.1l6.7-.5V202h15.5v-43.3l-22.2.7zM198.7 158.7l-3.7 25.6c3.6-1.2 7.6-1.9 11.4-1.9 2.5 0 8.6.8 8.6 4.3 0 3.4-5 4.3-7.6 4.3-3.5 0-9.7-1.8-12.9-3.5l-1.7 11.7c4.1 2 12.7 3.5 17.2 3.5 9.2 0 20.7-5 20.7-15.6 0-8.3-6.9-13.5-14.8-13.5-2.2 0-5.9.5-7.4 2.3h-.5c.8-1.6 1.1-3.3 1.4-5h18.5v-12.1z" class="st3"/></g></svg>