<svg xmlns="http://www.w3.org/2000/svg" id="Layer_1" version="1.1" viewBox="0 0 795.8 283.5"><defs><style>.st0,.st1{fill:#fff}.st1,.st2{fill-rule:evenodd}.st4{isolation:isolate}</style></defs><g id="loghi"><path d="M0 141.5C0 63.4 63.4 0 141.5 0S283 63.4 283 141.5 219.6 283 141.5 283 0 219.6 0 141.5" style="fill:red"/><path d="M27.4 58h228.3L141.5 283.5z" class="st2"/><path d="M86 96.6h2c4.4 0 8.4.7 8.4 6.1s-4.3 6-8.5 6H86zm-28.8 51.9h25.4v-22.9h.4l11.4 23h30l-15.5-23.2c-1.5-2-3.1-3.2-4.3-4.3v-.6c9.6-3.2 13.8-7.8 13.8-18.6 0-18-13.7-24.8-29.8-24.8H57.2zM120.3 100.3l14.3-.7v48.9h26V99.6l14.3.7V77.1h-54.6zM180 148.5h47.8v-22.8H206V77.1h-26zM103.9 171.4c4.6 0 5.7 5.3 5.7 8.8s-1.2 9.5-5.7 9.5-5.7-6.2-5.7-9.5 1-8.8 5.7-8.8m0-13.4c-13 0-20.6 9.6-20.6 21.8s7.2 22.6 20.6 22.6 20.6-9.7 20.6-22.6-7.6-21.8-20.6-21.8M165.8 202v-13.2l-8.4.6-7.4 1v-.5c7.6-2.4 15.2-7.7 15.2-16.4s-9.5-15.3-18.5-15.3c-13 0-18.6 5.7-19.8 18.2h15.4c.1-2.6.6-5.4 3.8-5.4s3.5 1.5 3.5 3.4c0 3.8-6.8 10-9.5 12.3l-17 15.3zM179.7 188.3c-4.2 0-8.5 2.7-8.5 7.2s4.3 7.1 8.5 7.1 8.5-2.6 8.5-7.1-4.4-7.2-8.5-7.2M57.4 173.1l6.7-.5V202h15.5v-43.3l-22.2.7zM198.7 158.7l-3.7 25.6c3.6-1.2 7.6-1.9 11.4-1.9s8.6.8 8.6 4.3-5 4.3-7.6 4.3-9.7-1.8-12.9-3.5l-1.7 11.7c4.1 2 12.7 3.5 17.2 3.5 9.2 0 20.7-5 20.7-15.6s-6.9-13.5-14.8-13.5-5.9.5-7.4 2.3h-.5c.8-1.6 1.1-3.3 1.4-5h18.5v-12.1h-29.2Z" class="st1"/></g><g class="st4"><g class="st4"><g class="st4"><path d="m335.5 188.2 10.5-79.3h-25l1.8-13.4h63.3l-1.8 13.4h-23.6l-10.5 79.3h-14.6ZM401.2 188.2h-14.4l12.1-92.6h16.7c7.4 0 12.7.4 15.9 1.3 3.2.8 6.1 2.3 8.7 4.3 2.8 2.2 5 4.9 6.5 8.2s2.2 6.9 2.2 10.9c0 7.6-2.1 13.9-6.3 18.7q-6.3 7.2-17.7 9l25.6 40.2h-16.3l-24.5-39.7h-3.4l-5.3 39.7Zm6.7-51.4h2.9c9.1 0 15.3-1.1 18.6-3.4s4.9-6.2 4.9-11.8-1.4-8-4.1-9.9c-2.8-1.9-8.2-2.8-16.2-2.8h-2.3l-3.8 28Z" class="st0"/><path d="m447.6 188.2 53.7-96.3 33.9 96.3h-15.1l-7.5-21.9h-36.9l-12.2 21.9h-15.8Zm33.9-34.2h27.1l-7.2-22.9c-.3-1.1-.7-2.6-1.1-4.4s-.8-4.2-1.4-7.2c-.9 2.2-1.8 4.3-2.8 6.2-.9 2-1.8 3.8-2.7 5.5l-12 22.7ZM539.9 188.2l12.2-92.6h52l-1.6 13.1h-37.6l-3 23.3h37.5l-1.7 13h-37.6l-5.6 43.3H540ZM609.3 188.2l12.1-92.6h52l-1.6 13.1h-37.6l-3 23.3h37.5l-1.7 13h-37.6l-5.6 43.3h-14.5ZM678.8 188.2 691 95.6h14.8l-12.3 92.6h-14.6ZM794.8 101.6l-2.3 15.8c-3.6-3.8-7.5-6.5-11.7-8.4-4.2-1.8-8.8-2.8-13.7-2.8s-9.8.9-14.1 2.6c-4.3 1.8-8 4.3-11 7.6-3.6 3.8-6.3 8.3-8.3 13.3-1.9 5-2.9 10.2-2.9 15.5 0 9.5 2.9 17.3 8.8 23.3 5.8 6 13.4 9 22.7 9s9.1-.8 13.4-2.4 8.4-4 12.4-7.2l-3.2 17.7c-4.2 1.6-8.3 2.9-12.2 3.7s-7.6 1.2-11.2 1.2c-13.5 0-24.4-4.1-32.7-12.4-8.3-8.2-12.4-19.1-12.4-32.5s1.3-14.5 4-21.2c2.6-6.7 6.4-12.5 11.2-17.3s9.7-8 15.5-10.3c5.8-2.4 12.1-3.5 18.7-3.5s11.4.7 16.2 2c4.8 1.4 9.1 3.4 12.8 6.1Z" class="st0"/></g></g></g></svg>