<svg xmlns="http://www.w3.org/2000/svg" width="40" height="40" fill="none" viewBox="0 0 40 40"><path fill="#fff" fill-rule="evenodd" d="M0 0h40v40H0z" clip-rule="evenodd"/><path fill="url(#a)" d="M24.267 12.033H23.7v-.866h.567q.25 0 .4.1c.1.066.133.2.133.333a.43.43 0 0 1-.133.333.7.7 0 0 1-.4.1m-2.9-.733-.434 1.133h.867zm-10.667 0-.433 1.133h.866zm1.267 7.033c-.5-.366-1.167-.566-2.067-.566H7.067v4.4H9.9c.9 0 1.567-.167 2.067-.567.5-.367.733-.933.733-1.633s-.233-1.234-.733-1.634M40 0v40H0V0zm-9.933 12.133c0 .2.033.4.1.567.066.133.166.3.3.433.133.134.266.234.466.3.167.067.367.1.567.1s.4-.033.567-.1c.342-.134.617-.397.766-.733.067-.167.1-.367.1-.567s-.033-.4-.1-.566c-.066-.167-.166-.334-.3-.434a1.1 1.1 0 0 0-.466-.3 1.6 1.6 0 0 0-.567-.1c-.2 0-.4.034-.567.1a1.4 1.4 0 0 0-.766.734c-.067.166-.1.366-.1.566m-3 1.334h.5V11.5l1.4 1.967h.533v-2.7h-.467v1.966L27.6 10.767h-.533zm-1.134.033h.467v-2.733h-.467zm-2.666-.033h.466v-1.034h.567l.6 1.034h.533l-.633-1.1a.9.9 0 0 0 .4-.3c.1-.134.133-.3.133-.467a.77.77 0 0 0-.133-.467.95.95 0 0 0-.333-.3 1.3 1.3 0 0 0-.534-.1h-1.066zm-3.267 0h.5l.267-.634h1.2l.233.634h.5l-1.1-2.734h-.5zm-3.3 0h.467v-2.034L17.933 13h.367l.767-1.567v2.034h.466v-2.7h-.6L18.1 12.5l-.8-1.733h-.6zm-4.167 0H13V11.5l1.433 1.967h.534v-2.7H14.5v1.966l-1.433-1.966h-.534zm-3.2 0h.5l.267-.634h1.2l.233.634h.5l-1.1-2.734h-.5zm-.8-.667c0 .067-.033.133-.066.2a.5.5 0 0 0-.2.067C8.2 13.1 8.1 13.1 8 13.1c-.067 0-.167 0-.233-.033-.067-.034-.167-.067-.234-.1A1 1 0 0 1 7.3 12.8l-.233.367c.133.1.3.2.466.266.331.134.702.134 1.033 0a.7.7 0 0 0 .334-.266c.067-.134.133-.267.133-.4a.7.7 0 0 0-.066-.3.6.6 0 0 0-.167-.234c-.067-.066-.167-.1-.267-.166-.1-.034-.166-.1-.266-.134A1 1 0 0 1 8 11.8c-.067-.033-.133-.1-.2-.133-.033-.067-.067-.134-.067-.2 0-.067.034-.134.067-.167.033-.067.1-.1.167-.1.066-.033.133-.033.233-.033s.167 0 .267.033.2.067.266.133l.2-.4a2 2 0 0 0-.4-.133c-.133-.033-.266-.033-.366-.033a1.06 1.06 0 0 0-.467.1 1.3 1.3 0 0 0-.333.266.7.7 0 0 0-.1.4c0 .134.033.234.066.3.034.1.1.167.167.2.067.067.167.1.233.167.1.033.167.067.267.133.1.034.2.067.267.134.1.033.166.1.2.133.066.067.066.133.066.2M15.7 29.3l-3.233-5.533c.866-.3 1.533-.8 2-1.434q.7-.999.7-2.4c0-.933-.2-1.666-.6-2.3s-1-1.133-1.734-1.466c-.766-.334-1.666-.5-2.733-.5H4.667V29.3h2.4v-5.133h2.966l3 5.133zM21 17.767h4.133l-.833-2.134h-9.967l1.234 2.134H18.6V29.3H21zm14.333-2.134H32.8L28.567 26.6l-3.1-8h-2.5l4.3 10.7h2.566zm-4.5-2.8c.1.067.2.167.3.2.1.034.234.067.367.067s.267-.033.367-.067c.133-.033.2-.1.3-.2a.49.49 0 0 0 .2-.3 1.7 1.7 0 0 0 .066-.4c0-.133-.033-.266-.066-.4-.067-.1-.1-.2-.2-.3-.1-.066-.2-.166-.3-.2a1.2 1.2 0 0 0-.367-.066 1.2 1.2 0 0 0-.367.066c-.133.034-.2.1-.3.2a.49.49 0 0 0-.2.3c-.033.1-.066.234-.066.4 0 .134.033.267.066.4.067.1.1.2.2.3"/><defs><radialGradient id="a" cx="0" cy="0" r="1" gradientTransform="translate(-5.403 -2.737)scale(46.03)" gradientUnits="userSpaceOnUse"><stop offset=".22" stop-color="#80cef3"/><stop offset=".34" stop-color="#7ac8ef"/><stop offset=".49" stop-color="#69b8e4"/><stop offset=".66" stop-color="#4e9ed1"/><stop offset=".85" stop-color="#2879b7"/><stop offset="1" stop-color="#03559e"/></radialGradient></defs></svg>