<svg xmlns="http://www.w3.org/2000/svg" width="276" height="245" fill="none"><path fill="#fff" d="M19.913 11.419c-.849-1.197-2.2-1.936-4.237-1.936s-3.137.731-4.064 1.841C10.51 12.701 10 14.913 10 17.77c0 5.336.762 6.996 5 8.837l7.115 3.132c7.2 3.133 9.15 7.358 9.15 18.407 0 6.72-.849 11.23-3.899 14.448-2.453 2.573-6.438 4.328-11.776 4.328S6.438 65.355 3.9 62.593C1.021 59.461 0 55.416 0 48.515h9.489c0 3.494.338 5.705 1.698 7.358.85 1.015 2.288 1.747 4.403 1.747s3.64-.646 4.575-1.842c1.274-1.566 1.612-3.77 1.612-7.271 0-6.996-1.015-8.648-5.677-10.765l-7.2-3.219C2.798 31.761.51 28.173.51 18.053c0-5.887 1.612-10.68 4.914-13.898C8.05 1.668 11.439.197 15.762.197c4.828 0 8.389 1.377 10.842 3.958 3.136 3.313 4.237 8.003 4.237 14.26h-9.489c0-2.944-.173-5.25-1.439-6.996M54.638.748h-9.237l-14.827 65.52h10l2.374-12.977h13.978l2.453 12.977h9.913zm-9.827 43.25 5.165-27.425 5.165 27.425H44.803zM94.81 37.183c5.504-3.219 7.029-9.018 7.029-17.116C101.839 6.539 97.437.74 86.423.74H71.17v65.52h9.489V39.394h5.338l7.877 26.866h9.914zM86.51 30.1h-5.841V10.041h5.84c5.087 0 5.85 4.604 5.85 10.034s-.763 10.033-5.85 10.033zM133.097 6.177c-2.453-3.037-5.928-5.43-11.69-5.43h-15.338v65.521h15.338c5.762 0 9.237-2.392 11.69-5.43 4.489-5.43 4.402-14.723 4.402-27.33s.087-21.9-4.402-27.33M125.982 54.3c-.936 1.566-2.539 2.668-4.827 2.668h-5.59V10.034h5.59c2.288 0 3.899 1.101 4.827 2.667 1.777 3.038 2.036 9.294 2.036 20.705s-.251 17.855-2.036 20.893M165.801 56.967v9.293h-25.33V.748h25.33v9.293H149.96V28.63h13.64v9.294h-13.64v19.044zM182.916 39.119V30.65h15.416v18.131c0 11.867-6.438 18.218-15.416 18.218-5.763 0-9.151-2.392-11.691-5.524-4.489-5.525-4.402-15.094-4.402-27.976s-.087-22.451 4.402-27.976C173.765 2.4 177.153 0 182.916 0c4.662 0 8.215 1.653 10.762 4.415 2.964 3.313 4.489 8.097 4.662 13.708h-9.489c-.086-3.683-.849-8.837-5.928-8.837-2.287 0-3.639 1.015-4.488 2.487-1.777 3.132-2.115 9.75-2.115 21.72 0 11.968.338 18.587 2.115 21.719.849 1.471 2.201 2.486 4.488 2.486 4.065 0 5.928-3.864 5.928-8.373V39.111h-5.928zM225.101 66.26l-14.23-38.922V66.26h-9.488V.748h8.466L224 39.67V.748h9.489V66.26zM259.346.748h-9.237l-14.827 65.52h10l2.374-12.977h13.978l2.453 12.977H274zm-9.827 43.25 5.165-27.425 5.165 27.425h-10.338z"/><path fill="#E4032F" d="M0 245V77h25.934v144.161h43.323V245zm74.124 0V77h25.934v168zm92.6 0H139.86L103.718 77h28.486l21.088 127.406L174.597 77h28.486zM276 221.161V245h-69.257V77H276v23.839h-43.323v47.659h37.289v23.839h-37.289v48.843H276z"/></svg>