<svg xmlns="http://www.w3.org/2000/svg" width="1730" height="1000" fill="none" viewBox="0 0 1730 1000"><path fill="#af001e" d="M656.8 0H0v1000h656.8z"/><path fill="#fff" d="M298.7 254.5h-65.8V127.7c0-9.7-3.4-12.6-13.1-12.6h-33.9c-9.7 0-13 2.8-13 12.6v183.9c0 9.7 3.3 12.5 13 12.5h285c9.7 0 13.1-2.8 13.1-12.5V267c0-9.7-3.4-12.6-13.1-12.6H358.6V139.3c0-9.7-3.4-12.6-13.1-12.6h-33.8c-9.7 0-13.1 2.9-13.1 12.6v115.2zM323.3 504.5l20.4 4.9c5.8 1.4 8.7 1.9 10.6 1.9 4.9 0 8.7-1.4 14.5-4.8l103.6-57.6c8.2-4.8 11.6-8.7 11.6-20.3v-52.8c0-6.7-4.4-14.9-16.5-7.3l-117.1 70.7c-14.9-23.7-36.3-50.3-83.2-50.3-60.5 0-94.4 33.8-94.4 108.4v107.9c0 9.7 3.4 12.7 13.1 12.7h285c9.7 0 13.1-2.9 13.1-12.7v-44.5c0-9.7-3.4-12.6-13.1-12.6H230.4v-46c0-29 10.7-43 37.8-43 24.7 0 32.4 11.1 37.3 22.2 5.7 14-.6 18.9 17.8 23.2M434.1 878.8l37.3 5.8c7.2 1 10.1-2.5 11.1-8.8 1.9-14 4.4-49.3 4.4-83.7 0-76.9-25.2-133.1-96.8-133.1-42.1 0-73.5 18.4-90 82.3l-9.2 35.8c-6.3 24.1-14 35.3-31.9 35.3-25.2 0-30-23.3-30-45.5 0-29.9 2.4-60.5 3.3-72.5 1-12.7-.5-16-11.1-17.9l-36.3-5.8c-7.2-1-10.1 2.4-11.1 8.7-1.9 14-4.4 45-4.4 84.2 0 79.9 34.8 118.5 90 118.5 49.8 0 79.4-27 91.5-74l9.2-35.8c7.8-29.5 16.5-42.1 34.8-42.1 27.2 0 32 18.4 32 63 0 20.3-2.9 55.6-3.9 67.7-.9 12.5.5 16 11.1 17.9"/><path fill="#af001e" d="M1729.3 0h-1000v1000h1000z"/><path fill="#fff" d="M1131.7 263v576.3h195.7V125.7z"/></svg>