<svg xmlns="http://www.w3.org/2000/svg" width="428" height="102" fill="none"><path fill="#DA0812" d="M409.01 24.05h18.94L403.62 99h-18.6l-24.19-74.95h19.8l14.04 55.28zM227.25.19h-21.14v99.86h21.14z"/><path fill="#DA0812" fill-rule="evenodd" d="M253.9 66.71h55.53a54.5 54.5 0 0 0-1.49-17.12A41.1 41.1 0 0 0 301.09 35a32.74 32.74 0 0 0-11.91-10.12A36 36 0 0 0 272.06 21 40.5 40.5 0 0 0 256 24.13a37.5 37.5 0 0 0-12.35 8.64 36.7 36.7 0 0 0-8 12.8 44.8 44.8 0 0 0-2.83 16.08A47.9 47.9 0 0 0 235.44 78a38 38 0 0 0 7.89 12.81 34.7 34.7 0 0 0 12.36 8.33 44.8 44.8 0 0 0 16.37 2.86q13.1 0 22.33-5.95t13.7-19.8h-18.61q-1.05 3.57-5.66 6.84a19.14 19.14 0 0 1-11 3.13q-8.93 0-13.69-4.61t-5.23-14.9m34.39-13.4H253.9c.135-1.711.433-3.406.89-5.06a17.4 17.4 0 0 1 2.83-5.36 16.2 16.2 0 0 1 5.38-4.17 18.2 18.2 0 0 1 8.48-1.79q7.74 0 11.47 4.17t5.34 12.21" clip-rule="evenodd"/><path fill="#DA0812" d="M156.39 23.09V0h-21.14v23.09h-12.8v14.14h12.8v45.41a19.7 19.7 0 0 0 1.93 9.36 14 14 0 0 0 5.22 5.51 21.4 21.4 0 0 0 7.73 2.52c3.1.51 6.238.76 9.38.75q3.13 0 6.4-.15a50 50 0 0 0 6-.6V83.68a29 29 0 0 1-3.13.45q-1.63.15-3.42.15-5.35 0-7.15-1.79c-1.19-1.19-1.78-3.58-1.78-7.14V37.23h15.48V23.09zM196.29 23.09h-21.14v76.97h21.14zM196.29.2h-21.14v16.87h21.14zM341.4 23.09V0h-21.14v23.09h-12.8v14.14h12.8v45.41A19.7 19.7 0 0 0 322.2 92a13.9 13.9 0 0 0 5.21 5.51 21.4 21.4 0 0 0 7.74 2.52c3.1.51 6.238.761 9.38.75 2.08 0 4.22 0 6.4-.15 2.01-.08 4.014-.28 6-.6V83.68a30 30 0 0 1-3.13.45c-1.09.1-2.23.15-3.43.15q-5.35 0-7.14-1.79c-1.19-1.19-1.79-3.58-1.79-7.14V37.23h15.49V23.09zM73.23 74.92H53a26.9 26.9 0 0 0 3.44 13 27.1 27.1 0 0 0 8.22 8.23 35.5 35.5 0 0 0 11.52 4.48 64 64 0 0 0 13.2 1.37 61 61 0 0 0 12.87-1.35 31.7 31.7 0 0 0 11.36-4.33 24.1 24.1 0 0 0 7.93-8.23 24.63 24.63 0 0 0 3.14-12.86 17.65 17.65 0 0 0-2.09-9 18.24 18.24 0 0 0-5.54-6.13 28.1 28.1 0 0 0-7.92-4 86 86 0 0 0-9-2.54q-4.5-1.05-8.83-2c-2.89-.59-5.49-1.24-7.78-1.94a17.4 17.4 0 0 1-5.39-3A5.84 5.84 0 0 1 76.07 42a5.44 5.44 0 0 1 1.2-3.74A7.75 7.75 0 0 1 80.11 36a12.3 12.3 0 0 1 3.89-.9 27.6 27.6 0 0 1 3.89-.3 20.5 20.5 0 0 1 9.86 2.25c2.8 1.39 4.34 4.13 4.65 8.22h20.19a24.4 24.4 0 0 0-3.74-11.81 23.2 23.2 0 0 0-7.63-7.63 32.4 32.4 0 0 0-10.62-4 60 60 0 0 0-12.12-1.19 62.2 62.2 0 0 0-12.26 1.19 31.5 31.5 0 0 0-10.77 3.89 21.5 21.5 0 0 0-7.77 7.48q-2.85 4.8-2.85 12.25a16.87 16.87 0 0 0 2.1 8.67A19.2 19.2 0 0 0 62.46 60a35.5 35.5 0 0 0 7.78 3.74c3 .9 6 1.69 9.12 2.39A125 125 0 0 1 97 70.88q6.43 2.39 6.43 7.18a8.1 8.1 0 0 1-1.35 4.78 11.1 11.1 0 0 1-3.43 3 18.4 18.4 0 0 1-4.49 1.64 24.9 24.9 0 0 1-10.77-.3 17 17 0 0 1-5.08-2.24 14.6 14.6 0 0 1-3.75-4 12.7 12.7 0 0 1-1.34-6"/><path fill="#DA0812" d="M52 62.21a10.6 10.6 0 0 1-3.44 1.94 40 40 0 0 1-4.34 1c-1.5.3-3.09.55-4.79.74s-3.39.45-5.08.75a42 42 0 0 0-4.79 1.2 14.3 14.3 0 0 0-4 2.09 9.4 9.4 0 0 0-2.69 3.14 10.36 10.36 0 0 0-1.05 4.94 10 10 0 0 0 1.05 4.79A8.7 8.7 0 0 0 25.7 86a13 13 0 0 0 4.19 1.49 26.6 26.6 0 0 0 4.93.45q6.28 0 9.73-2.09a14.2 14.2 0 0 0 5.08-4.94 15.6 15.6 0 0 0 1.95-6c.253-1.581.393-3.179.42-4.78zm3.25-22.3a29.2 29.2 0 0 0-1 7.88 16.93 16.93 0 0 0 2.09 8.68 19.3 19.3 0 0 0 5.54 5.83A35.4 35.4 0 0 0 69.7 66l3.56 1v7.87H53c.2 5.18.26 9.26 2.71 14.13a26.6 26.6 0 0 1-2.83 3.52l-1 1a25.3 25.3 0 0 1-4.7 3.46A40.85 40.85 0 0 1 28.91 102h-2a37.9 37.9 0 0 1-10.32-1.35 23.7 23.7 0 0 1-8.38-4.18 20.24 20.24 0 0 1-5.68-7.18A25 25 0 0 1 .57 79a22.65 22.65 0 0 1 2.25-10.81 20.15 20.15 0 0 1 6-6.88 26.5 26.5 0 0 1 8.38-3.74 80 80 0 0 1 9.57-2.09q4.78-.75 9.42-1.2a57 57 0 0 0 8.23-1.35 14.9 14.9 0 0 0 5.68-2.54 6 6 0 0 0 2-5.09c.1-1.87-.316-3.73-1.2-5.38a7.06 7.06 0 0 0-3-3.14 9.8 9.8 0 0 0-4.34-1.5 28.4 28.4 0 0 0-5.23-.44q-6.29 0-9.88 2.69t-4.18 9H3a24.6 24.6 0 0 1 3.74-12.41 25.5 25.5 0 0 1 8.37-7.93A35.4 35.4 0 0 1 26.45 22a62.4 62.4 0 0 1 12.86-1.34c3.956.007 7.907.304 11.82.89a34.9 34.9 0 0 1 10.92 3.14 23 23 0 0 1 2.63 1.5 21.5 21.5 0 0 0-7 7 20 20 0 0 0-2.4 6.72z" opacity=".3"/></svg>