<svg xmlns="http://www.w3.org/2000/svg" width="815" height="240" fill="none"><path fill="#6135B8" d="m588.418 240 119-120-119-120v78l41.9 42-42 42v78zm-284.8-93.2 21.7-133.8h50.3l-38.1 216h-56.5l-24.3-138.5-24.4 138.7h-56.4L137.818 13h50.2l21.8 133.7 21.8-133.7h50.2zm185.8-11.4 16.7 24.3 45.6 69.4h-60.6l-51.5-84.4h-1.9V229h-49.9V13c18.3-1.3 41.6-1.6 67.6-1.6 51 0 80.8 18.3 80.8 64.1 0 29.1-18 52.8-46.8 59.8zm-39.2-26.2c21.3 0 34.8-11.2 34.8-29.4 0-17-10-27.2-33.5-27.2-5.1 0-11 .3-13.8.6v55.3c2.6.3 7.7.7 12.5.7m-310.4 50c0 41.9-33.5 73-88.6 73-15 0-30.8-1.6-44.5-4.8l2.2-47.3c12.1 4.5 30.4 9.1 46 9.1 18.4 0 31.5-7.7 31.5-23 0-15.4-14.8-21.2-32.2-28-24.2-9.2-53.2-20.5-54.2-62.2-.9-40.7 32-67.5 86.1-67.5 11.5 0 26 1.3 39.4 3.9l-.1 44a162 162 0 0 0-41.2-6.7c-20.9 0-30.8 9-30.8 21.1 0 14 14.8 19.9 32.1 26.9 24.6 9.9 54.3 21.9 54.3 61.5m555.5-81.2V0l119 120-119 120v-78l41.9-42-42-42z"/></svg>