<svg xmlns="http://www.w3.org/2000/svg" width="70" height="70" fill="none"><path fill="url(#a)" d="M35 0C15.67 0 0 15.67 0 35s15.67 35 35 35 35-15.67 35-35S54.33 0 35 0m0 7c15.464 0 28 12.536 28 28S50.464 63 35 63 7 50.464 7 35 19.536 7 35 7"/><path fill="#003496" fill-rule="evenodd" d="M24.313 22.281c-1.407 0-2.848.141-4.313.407-1.465.253-2.97.629-4.469 1.125v5.656c1.407-.877 2.735-1.53 3.969-1.969 1.234-.45 2.368-.687 3.406-.687 1.35 0 2.443.386 3.25 1.125.82.738 1.219 1.695 1.219 2.906 0 .784-.19 1.554-.594 2.281s-1.033 1.458-1.875 2.219l-9.437 8.343v4.876H34.25v-4.876H22.875l5.531-4.843c2.33-2.041 3.836-3.664 4.563-4.875A7.7 7.7 0 0 0 34.062 30c0-2.433-.844-4.327-2.562-5.687-1.707-1.361-4.097-2.032-7.187-2.032m22.125.469L36.094 38.156v5.719H47.53v4.688h6.313v-4.688H57.5v-4.844h-3.656V22.75zm1.093 5.469V39.03H40.22z" clip-rule="evenodd"/><defs><linearGradient id="a" x1="-23.046" x2="5.119" y1="14.689" y2="-13.475" gradientUnits="userSpaceOnUse"><stop stop-color="#003496"/><stop offset="1" stop-color="#003496" stop-opacity="0"/></linearGradient></defs></svg>