<svg xmlns="http://www.w3.org/2000/svg" width="2065" height="304" fill="none"><path fill="#B92B2A" fill-rule="evenodd" d="M1761 304c-12.09-6.07-14.61-13.991-8.46-26.085 32.22-63.433 64.42-126.882 96.63-190.321 12.65-24.9 25.41-49.746 37.92-74.714 3.26-6.507 8.47-10.293 14.91-12.88h11c7.13.833 11.49 5.352 14.88 11.165a51 51 0 0 1 1.65 3.083c14.97 30.479 30.7 60.573 46.03 90.867 23.01 45.438 46.1 90.829 69.14 136.252 5.26 10.386 10.54 20.773 15.95 31.094 1.93 3.684 3.52 7.457 4.35 11.539v9c-1.31 6.022-4.98 9.689-11 11h-9c-10.32-2.412-19.29-8.015-28.64-12.556-30.39-14.76-60.95-29.177-91.14-44.351-11.87-5.967-23.7-6.026-35.9.063-36.48 18.208-73.42 35.483-109.95 53.607-3.01 1.495-6.32 1.947-9.37 3.236z" clip-rule="evenodd"/><path fill="#fff" d="M123.393 70.806c2.178-2.556.721-8.264.754-12.577.055-7.065.014-7.058-7.175-7.067Q58.485 51.083 0 51v21c14.828-.055 29.659.053 44.481-.262 4.409-.093 5.815.895 5.8 5.621-.181 57.99-.074 115.981-.209 173.973-.01 4.194.701 6.136 5.372 5.594 3.782-.438 7.655-.088 11.488-.089 6.505-.002 6.509-.002 6.509-6.331.001-57.824.045-115.648-.094-173.473-.01-4.105.955-5.414 5.178-5.295 10.656.3 21.329.207 31.991.047 4.431-.066 10.328 2.011 12.877-.979M760.439 135.316c-12.813-41.656-63.312-47.188-89.126-26.256-5.31 4.306-9.62 9.478-13.673 15.16-19.176-35.681-67.328-33.757-87.201-6.787 0-4.097-.17-7.371.049-10.619.212-3.165-.77-4.377-4.145-4.324-11.662.183-23.33.176-34.992.002-3.269-.049-4.261.91-4.254 4.223q.144 72.988-.001 145.979c-.007 3.276.902 4.264 4.2 4.216 12.329-.182 24.666-.256 36.991.028 4.218.098 5.273-1.174 5.244-5.293-.182-25.828-.137-51.659-.063-77.488.021-7.519.621-14.981 4.386-21.785 4.78-8.638 13.6-12.624 25.202-11.349 8.579.943 14.572 6.383 17.375 15.671 1.411 4.68 1.742 9.467 1.739 14.314-.016 26.995.083 53.991-.105 80.985-.028 4.042 1.164 5.008 5.033 4.932 12.16-.239 24.332-.267 36.49.012 4.09.094 4.95-1.289 4.93-5.093-.147-26.662-.095-53.325-.066-79.988.008-7.047.751-13.977 4.394-20.236 5.444-9.354 14.219-11.27 24.08-10.621 8.943.589 14.835 5.221 17.84 13.618 1.994 5.572 2.411 11.354 2.406 17.211-.02 26.663.055 53.326-.081 79.988-.02 3.696.606 5.242 4.83 5.133a709 709 0 0 1 36.489-.004c4.394.112 5.134-1.481 5.112-5.423-.153-28.328.021-56.658-.135-84.986-.057-10.471.172-21.08-2.948-31.22M951.887 106.606c.004-2.905-.645-4.147-3.844-4.109-12.826.153-25.655.136-38.481.009-2.951-.029-4.266.735-4.053 3.9.232 3.46.053 6.946.053 11.793-5.489-6.327-10.495-11.444-17.134-14.435-25.339-11.413-49.644-8.054-71.926 7.205-26.038 17.832-35.046 44.221-33.465 74.739 2.029 39.188 27.474 72.06 68.356 75.774 20.636 1.875 39.531-1.729 53.244-19.307.09-.115.581.081.923.139 0 3.507.15 7.012-.047 10.497-.166 2.934.643 4.135 3.864 4.093 12.825-.168 25.655-.146 38.481-.012 2.938.03 4.049-.661 4.043-3.854-.093-48.809-.086-97.621-.014-146.432m-85.178 112.232c-21.343-.223-37.94-17.627-37.709-39.544.234-22.186 17.121-39.305 38.31-38.838 22.058.486 38.559 17.29 38.246 38.946-.33 22.831-16.911 39.663-38.847 39.436M1714.16 107.996c0-.833-.06-1.672.01-2.498.18-2.094-.64-2.972-2.84-2.962-13.49.063-26.99.062-40.48-.002-2.15-.01-2.95.737-2.88 2.892.12 3.811.04 7.629.04 12.671-7.48-9.436-15.94-15.434-26.41-18.125-25.53-6.563-48.73-1.288-68.64 15.688-21.53 18.356-28.96 42.837-27.18 70.377 1.74 26.865 12.31 49.168 35.34 64.431 23.13 15.341 66.51 18.152 86.88-8.868 0 3.991.22 7.432-.06 10.83-.29 3.44.78 4.56 4.36 4.493 12.16-.225 24.33-.304 36.48.029 4.45.122 5.5-1.106 5.49-5.497-.17-47.82-.11-95.64-.11-143.459m-84.26 110.842c-21.53.024-38.08-16.948-38.06-39.021.02-22.476 16.12-39.323 37.62-39.369 21.92-.047 38.63 16.553 38.7 38.436.07 22.761-16.37 39.929-38.26 39.954M1310.37 97.568c-47.37-.08-82.92 35.144-82.81 81.99.11 47.009 35.65 82.083 82.95 81.881 48.91-.209 82.94-34.935 82.63-84.507-.21-33.811-24.6-79.265-82.77-79.364m-.04 120.59c-20.56-.029-36.53-16.97-36.49-38.729.03-21.679 16.18-38.662 36.68-38.586 20.51.076 36.66 17.174 36.61 38.762-.05 21.591-16.27 38.582-36.8 38.553M1122.01 164.926c0-6.335-.33-12.641-1.03-18.938-2.96-26.413-18.57-44-43.43-47.677-21.14-3.126-40.69-.36-55.11 20.214 0-5.149-.18-8.62.05-12.063.21-3.111-.97-3.997-4-3.96-11.82.145-23.655.15-35.482-.003-3.137-.04-3.901 1.091-3.896 4.059.075 48.815.082 97.631-.013 146.446-.006 3.157 1.011 3.929 4.008 3.894 12.494-.146 24.993-.235 37.483.039 4.09.09 4.95-1.287 4.93-5.091-.15-26.156-.12-52.314-.05-78.471.02-6.832.45-13.646 3.43-20.007 4.34-9.268 13.44-13.512 26.58-12.345 9.54.847 16.06 6.501 18.54 16.166 1.46 5.682 1.8 11.505 1.8 17.336.04 25.823.11 51.648-.07 77.471-.03 4.004 1.12 5.01 5.01 4.932 12.16-.247 24.33-.283 36.48.016 4.12.102 4.86-1.289 4.84-5.05-.15-28.989-.09-57.979-.07-86.968M1542.2 102.513c-12.83.116-25.67.216-38.49-.055-3.93-.083-5.42 1.314-6.51 4.923-9.03 29.742-18.26 59.422-27.51 89.412-1.43-1.003-1.46-2.214-1.81-3.319-8.93-28.903-17.93-57.785-26.76-86.718-.92-2.996-2.06-4.324-5.41-4.275-13.16.193-26.33.137-39.49.037-3.13-.023-4.51.189-3.13 4.026 17.62 48.774 35.1 97.602 52.56 146.434.83 2.349 1.53 3.993 4.67 3.942 12.49-.203 25-.158 37.49-.023 2.64.028 3.77-.92 4.63-3.333 17.56-48.986 35.16-97.956 52.88-146.881 1.35-3.704.2-4.201-3.12-4.17M1223.04 102.526c-5 .126-10.01-.163-15 .102-3.36.179-4.15-1.029-4.11-4.245.16-14.327-.01-28.658.13-42.986.03-3.081-.54-4.377-4.03-4.317-12.66.215-25.33.231-37.99-.006-3.76-.07-4.3 1.406-4.26 4.646.14 13.994-.11 27.994.16 41.985.08 4.095-1.25 5.167-5.08 4.925-4.64-.293-9.33.103-13.99-.13-3.04-.151-4.01.791-3.94 3.903.2 9.16.24 18.332-.01 27.488-.1 3.543 1.31 4.144 4.34 3.998 4.33-.206 8.7.281 12.99-.142 4.69-.462 5.72 1.264 5.69 5.763-.18 36.155-.04 72.312-.19 108.468-.02 3.967 1.07 5.034 4.99 4.952 12.16-.254 24.32-.209 36.48-.02 3.47.054 4.94-.462 4.89-4.503-.25-18.325-.11-36.655-.11-54.983 0-18.494.08-36.989-.07-55.483-.03-3.229.81-4.359 4.13-4.176 4.98.276 10-.028 14.99.112 2.42.068 3.17-.83 3.15-3.187q-.15-14.495 0-28.991c.02-2.372-.78-3.232-3.16-3.173M408.746 104.707c-30.073 5.636-50.415 23.965-59.392 53.033-9.187 29.75-3.278 57.413 18.403 80.104 21.083 22.065 47.801 27.298 76.786 20.306 24.975-6.025 41.759-22.22 52.562-46.148-6.677 0-12.509.127-18.332-.06-2.508-.08-3.719.847-4.985 2.986-12.743 21.521-36.273 31.81-61.116 26.906-25.165-4.967-42.427-23.411-46.139-48.763-.664-4.529.615-5.17 4.71-5.156 41.996.138 83.992.02 125.988.188 4.019.016 4.877-1.234 5.002-4.95 1.664-49.33-40.519-88.372-93.487-78.446m66.185 66.455h-50.92q-25.71.002-51.419-.001c-6.586-.001-6.71-.036-5.011-6.728 5.696-22.428 20.23-36.215 42.336-41.827 31.519-8.002 63.239 10.992 70.517 41.769 1.605 6.784 1.605 6.786-5.503 6.787M158.836 109.413c-39.423 16.507-57.536 61.897-41.631 102.798 15.181 39.037 58.697 58.533 99.306 44.309 21.942-7.687 37.003-22.739 46.535-44.519-6.391 0-12.169.141-17.936-.062-2.692-.095-4.039.843-5.414 3.19-12.491 21.32-36.56 31.72-61.214 26.662-25.275-5.185-42.537-23.728-45.936-48.94-.549-4.071.416-4.956 4.416-4.94 38.493.146 76.987.088 115.48.088 17.924 0 17.951-.004 15.27-18.031-8.338-56.079-64.111-79.299-108.876-60.555m82.492 61.748q-25.713.002-51.425.001c-17.309 0-34.617.004-51.925-.002-5.716-.003-5.989-.203-4.603-5.917 5.605-23.114 20.477-37.279 43.212-42.812 31.45-7.652 62.953 11.605 69.921 42.107 1.511 6.619 1.511 6.623-5.18 6.623M311.951 51.095c-3.126.349-6.36.373-9.48-.004-4.627-.561-5.748 1.148-5.736 5.703.155 61.646.097 123.293.119 184.939.002 4.813-1.622 11.224.811 14.018 2.806 3.223 9.413.549 14.313 1.139 4.381.527 5.601-.967 5.573-5.435-.201-32.321-.108-64.645-.108-96.968v-16.494c0-27.158-.113-54.316.111-81.473.036-4.51-1.263-5.91-5.603-5.425"/></svg>