<svg xmlns="http://www.w3.org/2000/svg" width="57" height="53" fill="none"><path fill="#ACB3B8" d="M26.415 52.697a26.74 26.74 0 0 1-14.768-4.4 26.5 26.5 0 0 1-3.908-3.144 26 26 0 0 1-3.228-3.806 25.23 25.23 0 0 1-2.435-24.414 25.5 25.5 0 0 1 2.435-4.374 26 26 0 0 1 3.227-3.81 26.5 26.5 0 0 1 8.398-5.517 26.91 26.91 0 0 1 25.623 2.76l-.03.04c-.78 1.035-1.423 1.893-1.99 2.649-1.904 2.54-1.59-.617-5.775 4.892-.066.086-2.158-.543-2.222-.455-1.68-1.1-2.024.182-4.048.182-5.589 0-11.41 8.244-11.41 13.652a9.97 9.97 0 0 0 3.037 6.994 10 10 0 0 0 7.1 2.813h8.082l.01-18.187h1.775c3.607 0 12.072-.014 14.457-.014h.643l.4 1.212a25.26 25.26 0 0 1-1.033 17.209 25.6 25.6 0 0 1-2.435 4.373 26 26 0 0 1-3.226 3.81 26.5 26.5 0 0 1-8.396 5.517 26.8 26.8 0 0 1-10.283 2.018"/><path fill="#E50700" d="M30.444 50.049a26 26 0 0 1-14.35-4.272 25.7 25.7 0 0 1-3.8-3.06 25.3 25.3 0 0 1-3.132-3.7 25 25 0 0 1-2.367-4.248 24.52 24.52 0 0 1 0-19.474 25 25 0 0 1 2.367-4.25 25.3 25.3 0 0 1 3.132-3.7 25.8 25.8 0 0 1 8.159-5.361 26.15 26.15 0 0 1 24.895 2.682l-.03.039c-.757 1.006-1.381 1.839-1.933 2.574-1.853 2.469-3.191 4.253-7.258 9.606l-.186.249a10 10 0 0 0-5.499-1.631 9.73 9.73 0 0 0-6.899 2.733 9.68 9.68 0 0 0-2.95 6.797 9.68 9.68 0 0 0 2.95 6.796 9.73 9.73 0 0 0 6.9 2.734h7.85l.009-17.673h1.724c3.508 0 11.732-.013 14.05-.013h.624l.389 1.178a24.55 24.55 0 0 1-1.002 16.722 25 25 0 0 1-2.36 4.24 25.4 25.4 0 0 1-3.135 3.7 25.8 25.8 0 0 1-8.159 5.362 26.1 26.1 0 0 1-9.989 1.97"/></svg>