<svg xmlns="http://www.w3.org/2000/svg" width="598" height="560" fill="none" viewBox="0 0 598 560"><path fill="#fff" d="M392.609 50.52c12.486.033 25.096.916 37.764 2.697 47.644 6.696 90.706 25.062 126.891 51.824l1.809 1.616c-116.157 6.659-215.318 94.42-232.129 214.038-2.363 16.808-3.171 33.528-2.145 49.849-23.948-21.637-51.751-39.264-82.518-51.652a268 268 0 0 1-2.292-21.024c-7.656-109.471 56.635-207.355 152.62-247.348"/><path fill="#fff" d="M482.611 150.244a175.2 175.2 0 0 1 34.314 5.024c29.606 7.381 55.547 21.819 76.596 41.096l1.034 1.139c-73.703-3.499-142.06 45.281-160.591 119.609-2.604 10.445-4.221 20.937-4.657 31.3-18.378-20.48-41.628-36.851-68.587-47.084 14.683-68.761 61.332-123.657 121.891-151.084M92.465 315.051c6.733 126.874 105.074 229.346 230.071 242.82a261 261 0 0 1-28.925 1.6c-136.078 0-251.996-104.995-262.215-238.474a281 281 0 0 1 38.028-5.276 282 282 0 0 1 23.04-.67"/><path fill="#fff" d="M328.591 551.123C188.417 533.912 87.75 408.717 100.013 269.151l33.236-.01c-14.238 137.82 82.022 261.778 218.278 283.795a266 266 0 0 1-22.936-1.813"/><path fill="#fff" d="M586.997 375.94a292 292 0 0 1-14.85 43.293l-10.894 4.728c-128.19 62.011-298.217 27.748-380.585-76.872a228 228 0 0 1-12.292-17.176c84.391 98.902 248.732 130.494 373.9 69.944z"/><path fill="#fff" d="M596.924 291.724q.167 4.997.168 10.035c0 11.685-.681 23.21-2.008 34.538-6.119 4.307-12.899 9.1-20.399 14.427-117.358 83.356-284.256 80.956-389.989-6.733a250 250 0 0 1-16.159-14.618c106.322 81.719 277.67 83.04 381.788 1.148z"/><path fill="#fff" d="m510.585 466.253 42.44-12.314a295 295 0 0 1-28.368 38.362l-3.12.703c-144.654 36.257-299.893-28.083-347.426-144.189a193 193 0 0 1-6.603-18.836c51.307 110.961 201.833 171.677 343.077 136.274"/><path fill="#fff" d="m470.445 526.027 22.11-2.155a295 295 0 0 1-44.131 30.813c-140.023-2.081-262.237-89.192-279.656-203.808a183 183 0 0 1-1.913-19.548c23.45 117.402 156.426 203.727 303.59 194.698M142.072 259.779l-.241.001-48.281.011a357 357 0 0 0-1.345 35.817 282 282 0 0 0-26.972.596c-22.2 1.553-43.61 5.665-63.962 12.029l-.14-1.545a285 285 0 0 1-.454-5.672C-10.058 147.512 108.136 11.426 261.64.689 309.636-2.667 355.575 6.344 396.533 25l2.106 1.204C286.404 56.868 207.657 163.329 216.084 283.829c1.185 16.931 3.871 33.455 8.268 49.206-20.655-11.971-42.915-21.359-66.325-27.75a276 276 0 0 1-.667-24.936l-15.317-20.288z"/></svg>