<svg xmlns="http://www.w3.org/2000/svg" width="37" height="25" fill="none"><path fill="#fff" d="M15.746 6.488c.73-.24 1.2.12 1.64.59 1.72 1.83 3.44 3.65 5.16 5.48.31.33.67.71 1.14.43.3-.17.54-.61.63-.96.4-1.5.72-3.01 1.11-4.51.19-.71.05-1.29-.41-1.79-1.14-1.22-2.24-2.48-3.44-3.65-2.03-1.96-4.52-2.55-7.33-1.7s-4.71 2.74-5.45 5.58c-1.11 4.28-2.09 8.58-3.12 12.87-.35 1.44-.69 2.88-1.03 4.25-.07.76.32 1.18 1.07 1.19 1.22.02 2.44 0 3.66 0 .93 0 1.38-.36 1.6-1.28 1.21-5.02 2.44-10.04 3.63-15.07.16-.67.42-1.2 1.12-1.43z"/><path fill="#fff" d="M34.996.568h-3.79c-.78 0-1.23.36-1.42 1.13-1.23 5.07-2.45 10.13-3.66 15.2-.15.64-.42 1.2-1.08 1.4-.67.21-1.2-.04-1.67-.54-1.75-1.89-3.52-3.76-5.32-5.6-.22-.23-.69-.44-.96-.35-.27.08-.56.52-.65.85-.43 1.56-.79 3.13-1.17 4.7-.17.7.01 1.28.49 1.78 1.08 1.13 2.13 2.28 3.21 3.41 1.4 1.47 3.17 2.18 5.04 2.23 3.85 0 7.1-2.52 7.98-6.13 1.36-5.57 2.69-11.15 4.02-16.73.21-.88-.15-1.35-1.03-1.36zM7.466 4.938c.3-1.17.58-2.34.85-3.52.19-.82-.18-1.34-1.01-1.36-1.69-.03-3.38-.03-5.08 0-.63.01-1.15.31-1.32 1-.3 1.25-.62 2.48-.87 3.73-.16.78.22 1.18 1.01 1.19h5.08c.71 0 1.18-.35 1.35-1.04z"/></svg>