<svg xmlns="http://www.w3.org/2000/svg" width="285" height="261" fill="none"><path fill="#EEF7F5" d="M199.21 154.46c25.94 20.09 55.5 48.8 81.48 52.86 0 0-132.65 32.17-185.29-21.25-17.26-17.51 95.93-37.73 103.81-31.61"/><path fill="#12120D" d="M196.26 219.43c-47.44 0-81.93-10.61-102.61-31.61-3.34-3.38-3.36-7.44-.08-11.15 8.88-10 42-17.57 55.77-20.36 1.83-.37 44.79-9 51.43-3.82 5.39 4.17 10.81 8.61 16.55 13.31 21.55 17.67 43.85 35.93 63.79 39.05a2.502 2.502 0 0 1 1.609 3.976 2.5 2.5 0 0 1-1.409.924 410.5 410.5 0 0 1-73.41 9.47c-3.96.14-7.85.21-11.64.21m-4.07-63.6c-8.11 0-24 1.69-43.3 5.68-27.32 5.63-47.2 12.86-51.9 18.86-1.21 1.56-1.16 2.55.22 3.94C139.85 227.59 238 213.15 269.89 207c-18.21-6.61-37.24-22.2-55.74-37.36-5.7-4.67-11.09-9.08-16.41-13.21-.72-.41-2.63-.63-5.53-.63z"/><path fill="#477797" d="M234.6 92.79c-8.15 7.25-28.08 13.65-28.08 13.65C233 84 230.66 50.1 230.66 50.1c-14.44 32.05-54.4 60.28-89.14 73.39 4.81 7.32 8.56 29.33 17 34 9.84 5.42 30.81-10.71 41.27-11.91 6.48-7.33 30.08-27.72 34.81-52.79"/><path fill="#12120D" d="M163.42 161.11a12.2 12.2 0 0 1-6.06-1.43c-6.23-3.43-9.87-13.86-13.08-23.06-1.68-4.81-3.27-9.35-4.85-11.76a2.5 2.5 0 0 1 .7-3.45q.243-.153.51-.26c32.07-12.1 73.21-39.82 87.74-72.08a2.517 2.517 0 0 1 3.33-1.22 2.48 2.48 0 0 1 1.45 2.07c.08 1.27 1.71 28.1-16.81 50.18 5.86-2.43 12.72-5.73 16.59-9.18a2.5 2.5 0 0 1 4.12 2.33c-4.12 21.83-21.75 39.91-31.22 49.62-1.69 1.74-3.15 3.24-4.13 4.36-.41.468-.981.764-1.6.83-3.55.41-8.86 2.93-14.47 5.6-7.75 3.68-15.64 7.45-22.22 7.45m-18.33-36.32A107 107 0 0 1 149 135c2.77 7.94 6.21 17.82 10.77 20.32 5 2.75 14.94-2 23.72-6.16 5.57-2.64 10.85-5.15 15.08-5.91 1-1.08 2.26-2.38 3.69-3.85 8.13-8.33 22.5-23.08 28.22-40.62-9.42 5.6-22.52 9.85-23.2 10.06a2.5 2.5 0 0 1-2.954-1.166 2.5 2.5 0 0 1 .574-3.124c16.19-13.68 21.2-32 22.7-43.43-7.43 12-18.44 23.81-32.35 34.76a205.7 205.7 0 0 1-50.16 28.91"/><path fill="#EEF7F5" d="M143.27 86.77c15.45 27.77 54.64 66.83 72.83 90.09-36.42 25.43-96.8 27.22-120.67 9.21a90.3 90.3 0 0 1-26.31-49.88c-.89-5.32-7.13-53.73-10.07-66.19l-1.83-6.7c-1.66-7-4.41-10.29-11.07-11.08l-13.9-1.11c9.58-8.09 14-10.2 19.43-18.08 14.7-21.47 28-36.22 52.75-28.23 18.18 5.87 22.92 21.09 24.58 35.92a122.45 122.45 0 0 0 14.26 46.05"/><path fill="#12120D" d="M142.57 200.56c-20.31 0-38.09-4.48-48.65-12.45l-.23-.2a92.12 92.12 0 0 1-27-51.26c-.25-1.45-.86-5.86-1.7-12-2.32-16.85-6.21-45-8.34-54.06L54.84 64c-1.53-6.48-3.62-8.62-9-9.26l-13.8-1.1a2.49 2.49 0 0 1-2.28-2.69 2.52 2.52 0 0 1 .87-1.71c2.7-2.28 5-4.09 7-5.68 5.17-4.07 8.3-6.53 12-11.9 14.46-21.13 28.62-37.9 55.58-29.2 20.26 6.54 24.7 23.76 26.29 38a119.5 119.5 0 0 0 14 45.1c10.09 18.14 30.54 41.27 48.58 61.67 9.17 10.38 17.83 20.17 24 28.1a2.517 2.517 0 0 1-.44 3.53l-.1.06c-17.26 12.05-41.43 19.83-66.32 21.34-2.93.17-5.81.3-8.65.3m-45.52-16.35c22.24 16.62 79 16 115.41-7.86-5.95-7.42-13.85-16.36-22.17-25.76-18.21-20.6-38.85-43.94-49.2-62.56a124.4 124.4 0 0 1-14.57-47C125 27.46 121.1 12.84 103.66 7.21c-21.63-7-33.78 3.7-49.91 27.26-4.11 6-7.84 8.94-13 13l-2.09 1.66c7.68.61 7.75.62 7.8.63 7.41.88 11.23 4.64 13.2 13l1.81 6.62c2.21 9.34 6.12 37.67 8.45 54.6.81 5.84 1.45 10.44 1.68 11.82a87.26 87.26 0 0 0 25.45 48.36z"/><path fill="#A3D7D7" d="M6.84 170.56c2.52-8.58 24.68 5.8 24.68 5.8l7.4 16.66c-.41-.46-34.58-12.57-32.08-22.46"/><path fill="#12120D" d="M38.92 195.56a2.43 2.43 0 0 1-1.28-.36l-1.64-.68C20.05 188 2 179.37 4.42 170v-.09a6 6 0 0 1 3.73-4c7.09-2.62 21.83 6.58 24.71 8.45.406.265.729.639.93 1.08l7.4 16.66a2.51 2.51 0 0 1-2.29 3.52zM9.21 171.23c-1.17 5.09 16.2 13.31 24.82 17L29.5 178c-10.15-6.46-17.57-8.31-19.63-7.55a1 1 0 0 0-.66.78"/><path fill="#A3D7D7" d="M8 68.56c7.82 0 12.56 19.81 12.56 19.81l-.2 22.28c-.13-.56-21.23-29.24-16.39-39.44A4.5 4.5 0 0 1 8 68.56"/><path fill="#12120D" d="M20.32 113.19a2.52 2.52 0 0 1-2.23-1.37c-.13-.21-.41-.62-.81-1.21C3.52 90.26-1.58 77 1.67 70.18a7 7 0 0 1 6.27-4.08c4.32 0 8.18 3.87 11.48 11.42a67 67 0 0 1 3.49 10.31q.072.295.07.6l-.2 22.29a2.49 2.49 0 0 1-2.23 2.46zM7.89 71.1a2 2 0 0 0-1.75 1.22c-1 2.12-1.67 9.16 11.71 30.13L18 88.7c-2.94-12-7.73-17.59-10.07-17.6z"/><path fill="#A3D7D7" d="M40.31 114.28c-6.73-5.89-17.58 18-17.58 18l2.88 17.27c.11-.55 22.1-28.28 14.7-35.27"/><path fill="#12120D" d="M25.61 152.06a2.49 2.49 0 0 1-2.46-2.06l-2.89-17.26a2.6 2.6 0 0 1 .19-1.45c1.41-3.11 8.82-18.68 16.18-20.27A5.997 5.997 0 0 1 42 112.4l.07.06c7 6.66-3.34 23.17-13.18 36.81-.42.58-.85 1.19-1 1.42a2.49 2.49 0 0 1-2.28 1.37m-.29-19.41c.78 4.69 1.35 8.06 1.75 10.5 14.59-21 12.63-25.94 11.56-27a.93.93 0 0 0-.94-.25c-3.48.73-9.29 10.17-12.37 16.74z"/><path fill="#A3D7D7" d="M56.08 185.56c-8.84-1.34-5.15 24.82-5.15 24.82l11 14.4c-.23-.6 4.16-37.35-5.85-39.22"/><path fill="#12120D" d="M62 227.25a2.45 2.45 0 0 1-2-1l-11-14.4a2.5 2.5 0 0 1-.49-1.17c-.48-3.4-2.6-20.65 2.77-26a5.9 5.9 0 0 1 2.408-1.485A5.9 5.9 0 0 1 56.51 183h.1c7.44 1.42 9.91 13.63 8 39.6-.06.77-.12 1.57-.13 1.87a2.5 2.5 0 0 1-2.28 2.71h-.21zm-8.64-17.89 6.57 8.57c.362-5.393.408-10.802.14-16.2-.6-9.55-2.64-13.35-4.36-13.74a1 1 0 0 0-.92.3c-1.58 1.56-3.07 9.1-1.48 21.07z"/><path fill="#A3D7D7" d="M52 252.07c-3.81-8.08 24.11-13.48 24.11-13.48l14.34 8.07c-.57-.1-33.71 14.45-38.45 5.41"/><path fill="#12120D" d="M59.47 257.56c-4.55 0-8-1.22-9.64-4.32a1 1 0 0 1 0-.08 5.91 5.91 0 0 1 .09-5.34c3.57-7 22.12-10.95 25.8-11.66a2.5 2.5 0 0 1 1.7.28l14.35 8.07a2.501 2.501 0 0 1-.7 4.62c-.28.09-1 .38-1.72.65-10.35 3.91-21.78 7.78-29.88 7.78M54.28 251c2.57 4.68 21.91-1.73 30.27-4.77l-8.82-5c-8.14 1.67-19.65 5.37-21.41 8.83a.94.94 0 0 0 0 .92z"/><path fill="#A3D7D7" d="M105.46 241c-2.87 3.43.75 6.92 5 9.57a34.9 34.9 0 0 0 15.39 5c4 .36 9.3.89 15.61 1.64.65-.4-29.18-23.78-36-16.21"/><path fill="#12120D" d="M141.51 259.71h-.3c-5.3-.64-10.52-1.19-15.53-1.64a37.7 37.7 0 0 1-16.48-5.36c-4.38-2.7-6.73-5.37-7.19-8.17a6.3 6.3 0 0 1 1.53-5.14l.06-.07c2.25-2.49 6-3 11.06-1.47 6.19 1.85 13.52 6.33 18.58 9.77 10.42 7.07 10.65 8.55 10.75 9.18a2.507 2.507 0 0 1-2.08 2.88 3 3 0 0 1-.4 0zm-34.17-17.07c-.47.59-.42.92-.39 1.09.07.44.64 2.1 4.87 4.71a32.9 32.9 0 0 0 14.3 4.64c2.37.21 4.78.45 7.23.7-6.93-5-17.87-11.78-23.85-11.79a3 3 0 0 0-2.16.65"/><path fill="#12120D" d="M143.26 260.36c-31.41 0-57.46-9.24-77.69-27.61-15.31-13.9-35.36-40.9-43.9-90.61A260 260 0 0 1 18 88.26a2.505 2.505 0 0 1 5 .31c-.06.93-5.25 94 45.92 140.49 19.28 17.5 44.22 26.3 74.37 26.3 9.659-.039 19.3-.851 28.83-2.43a2.501 2.501 0 0 1 .79 4.94 187 187 0 0 1-29.65 2.49"/><path fill="#D44049" d="M79.53 165.56c-7.84-30.16 37.55-35.82 63.36-29.09 31.22 8.14 47.11 4.05 56.73 1.53 31.53-8.25 63.52-22.27 82.46-40.26 0 0-42.19 59.92-66 62.2 0 0 21.71 9.52 32.62 4.65-10.05 21-53.21 45.64-88.42 45.64-24.44-.04-61.48-7.62-80.75-44.67"/><path fill="#12120D" d="M160.3 212.69c-22.07 0-62.19-6-83-46a3 3 0 0 1-.2-.52c-2.33-9-.42-16.85 5.52-22.79C95 131 123.86 128.9 143.51 134c30.73 8 46.21 4 55.47 1.54 34.77-9.11 64.43-23.57 81.37-39.67a2.52 2.52 0 0 1 3.54 0 2.49 2.49 0 0 1 .23 3.23c-.11.15-10.79 15.27-24.25 30.46-14.25 16.15-26.26 26.44-35.87 30.66 7.47 2.41 17.81 4.68 23.66 2.07a2.5 2.5 0 0 1 1.916-.045 2.52 2.52 0 0 1 1.384 1.325 2.44 2.44 0 0 1 0 2.08c-5.1 10.65-18.5 22.54-35.85 31.81-18.11 9.68-38.11 15.23-54.81 15.23m-78.42-48.07c19.62 37.47 57.54 43.07 78.42 43.07 32.19 0 70-20.58 83.28-39.38-12 1-27.7-5.78-28.49-6.12a2.5 2.5 0 0 1-1.29-3.29 2.54 2.54 0 0 1 2.06-1.49c14.17-1.36 37.36-26.7 52.68-45.92-17.65 11.71-41.52 21.88-68.29 28.89-9.72 2.55-26 6.81-58-1.53-18.4-4.8-45.33-2.71-56.09 8.05q-6.93 7-4.28 17.72M78.7 39.94a3.75 3.75 0 1 0 0-7.5 3.75 3.75 0 0 0 0 7.5"/></svg>