<svg xmlns="http://www.w3.org/2000/svg" width="316" height="304" fill="none"><path fill="#B92B2A" fill-rule="evenodd" d="M11.693 304c-12.087-6.07-14.61-13.991-8.465-26.085 32.23-63.433 64.424-126.882 96.64-190.321 12.645-24.9 25.4-49.746 37.911-74.714C141.04 6.373 146.25 2.587 152.693 0h11c7.128.833 11.488 5.352 14.88 11.165a49 49 0 0 1 1.646 3.083c14.969 30.479 30.702 60.573 46.037 90.867 23.003 45.438 46.101 90.829 69.134 136.252 5.267 10.386 10.547 20.773 15.949 31.094 1.929 3.684 3.527 7.457 4.354 11.539v9q-1.967 9.033-11 11h-9c-10.316-2.412-19.29-8.015-28.64-12.556-30.39-14.76-60.949-29.177-91.139-44.351-11.87-5.967-23.7-6.026-35.9.063-36.481 18.208-73.422 35.483-109.947 53.607-3.013 1.495-6.324 1.947-9.374 3.236z" clip-rule="evenodd"/></svg>