<svg xmlns="http://www.w3.org/2000/svg" width="894" height="720" fill="none" viewBox="0 0 894 720"><path fill="#fff" d="M0 0h894v720H0z"/><path fill="#da0001" d="M55.938 533.375H142V556h-28.875v69H84.813v-69H55.936zM153.66 533.375h75.875v19.563h-47.5V567.5h44.063v18.688h-44.063v18.062h48.875V625h-77.25zM245.071 533.375h28.312v69.063h44.188V625h-72.5zM329.232 533.375h75.875v19.563h-47.5V567.5h44.062v18.688h-44.062v18.062h48.875V625h-77.25zM421.767 533.375h28.375V625h-28.375zM469.427 533.375h53q13.251 0 20.313 6.563 7.125 6.561 7.125 16.25 0 8.124-5.063 13.937-3.375 3.875-9.875 6.125 9.876 2.374 14.5 8.188 4.688 5.75 4.688 14.5 0 7.124-3.313 12.812-3.312 5.688-9.062 9-3.562 2.063-10.75 3-9.562 1.25-12.688 1.25h-48.875zm28.563 35.937h12.312q6.626 0 9.188-2.25 2.625-2.312 2.625-6.624 0-4-2.625-6.25-2.562-2.25-9-2.25h-12.5zm0 36h14.437q7.313 0 10.313-2.562 3-2.625 3-7 0-4.062-3-6.5-2.937-2.5-10.375-2.5H497.99zM567.838 533.375h28.313v69.063h44.187V625h-72.5zM651.998 533.375h75.875v19.563h-47.5V567.5h44.063v18.688h-44.063v18.062h48.875V625h-77.25zM799.784 609.875h-32.25L763.096 625h-28.937l34.437-91.625h30.875L833.909 625h-29.625zm-5.938-19.813-10.125-32.937-10.062 32.937zM210.306 271.236q-22.266-11.828-32.471-26.44-13.916-19.947-13.916-45.923 0-42.675 40.125-69.812 31.311-20.874 82.8-20.874 68.189 0 100.659 25.977 32.703 25.976 32.703 65.405 0 22.96-12.988 42.908-9.741 14.843-30.615 28.759 27.6 13.221 41.052 35.022 13.684 21.803 13.684 48.242 0 25.513-11.829 47.779-11.596 22.034-28.76 34.094-16.93 12.06-42.443 17.627-25.281 5.798-54.041 5.798-54.04 0-82.568-12.756t-43.372-37.573-14.844-55.432q0-29.92 13.916-50.562 13.917-20.874 42.908-32.239m42.444-66.797q0 17.628 10.901 28.528 11.133 10.67 29.455 10.669 16.236 0 26.673-10.669 10.437-10.668 10.437-27.6 0-17.626-10.901-28.528-10.901-11.132-27.832-11.132-17.163 0-28.064 10.9-10.67 10.67-10.669 27.832m-5.103 146.351q0 22.497 13.685 36.877 13.683 14.148 31.311 14.148 16.93 0 30.383-14.38 13.452-14.612 13.452-36.877 0-22.498-13.684-36.878-13.452-14.38-31.311-14.38-17.627 0-30.847 13.916-12.989 13.917-12.989 37.574M473.054 377.694l93.933-11.829q3.71 19.714 12.524 27.832t21.57 8.118q22.729 0 35.486-22.961 9.277-16.932 13.916-71.668-16.932 17.395-34.79 25.513-17.86 8.118-41.284 8.117-45.692 0-77.234-32.47-31.311-32.471-31.311-82.105 0-33.862 16.003-61.694 16.004-27.832 44.067-41.98 28.064-14.38 70.508-14.38 51.025 0 81.873 17.627 30.848 17.395 49.17 55.664 18.554 38.037 18.554 100.659 0 92.077-38.733 134.986-38.732 42.675-107.385 42.675-40.589 0-64.013-9.277-23.426-9.51-38.965-27.6t-23.889-45.227m173.95-151.685q0-27.6-13.916-43.139-13.917-15.772-33.863-15.772-18.786 0-31.311 14.148-12.292 14.148-12.292 42.444 0 28.528 12.756 43.603 12.988 15.076 32.239 15.076 19.947 0 33.167-14.612t13.22-41.748"/></svg>