<svg xmlns="http://www.w3.org/2000/svg" xmlns:xlink="http://www.w3.org/1999/xlink" xml:space="preserve" id="Livello_1" x="0" y="0" version="1.1" viewBox="0 0 293.65 120"><style>.st2{fill:#fff}</style><g id="logo-2"><path id="Rettangolo_21" d="M0 0h156.82v120H0z" style="fill:#045020"/><path id="Rettangolo_22" d="M156.82 0h136.82v120H156.82z" style="fill:#081441"/><g id="Raggruppa_19" transform="translate(18.676 27.423)"><path id="Tracciato_1" d="M69.03 3.75c-1.23.75-2.41 1.59-3.53 2.51V0H0v18.99h22.49v46.22h20.46V18.99l13.64.01-.46 1.04a33.1 33.1 0 0 0-2.25 12.68c0 6.85 1.5 13.25 4.21 18.03 2.5 4.62 6.28 8.41 10.9 10.91 4.51 2.37 10.86 3.57 18.88 3.57h31.18V31.35H99.56v14.26H88.49c-3.83 0-5.46-.32-7.13-.92-2.43-.82-4.51-2.44-5.9-4.59a13.85 13.85 0 0 1-2.11-7.7c-.05-2.37.53-4.72 1.68-6.8.99-1.94 2.52-3.55 4.4-4.64 2.27-1.26 4.82-1.94 7.41-1.98.15 0 31.24.02 32.21.01v-19H87.9C78.74 0 73.16 1.47 69.03 3.75" class="st2"/><path id="Tracciato_2" d="M118.96 19.73" class="st2"/></g><g id="Raggruppa_22"><g transform="translate(173.105 26.69)"><defs><path id="SVGID_1_" d="M.85 0h98.08v66.56H.85z"/></defs><clipPath id="SVGID_00000088122454665642286080000011489171581140082584_"><use xlink:href="#SVGID_1_" style="overflow:visible"/></clipPath><g id="Raggruppa_20" style="clip-path:url(#SVGID_00000088122454665642286080000011489171581140082584_)"><path id="Tracciato_3" d="M22.53 41.58c1.86-3.29 3.82-6.76 4.09-7.21.22-.31.35-.67.36-1.05h.08c.01.38.14.74.36 1.05.27.46 2.23 3.92 4.09 7.21zm12.48 6.22h2.89l-9.58-16.48h-2.54L16.37 47.5v-2.31H3.78V31.32H.85V47.8h18.17s.88-1.55 2.04-3.6h11.92c1.15 2.05 2.03 3.6 2.03 3.6" class="st2"/></g></g><g transform="translate(173.105 26.69)"><defs><path id="SVGID_00000114786928668948868430000005124536793458206625_" d="M.85 0h98.08v66.56H.85z"/></defs><clipPath id="SVGID_00000013192479111426961440000008857250572666089654_"><use xlink:href="#SVGID_00000114786928668948868430000005124536793458206625_" style="overflow:visible"/></clipPath><g id="Raggruppa_21" style="clip-path:url(#SVGID_00000013192479111426961440000008857250572666089654_)"><path id="Tracciato_4" d="m42.78 56.33 20.73-35.89H22.07V0s76.85.03 76.85 0L60.49 66.56z" class="st2"/></g></g></g></g></svg>