<svg xmlns="http://www.w3.org/2000/svg" width="48" height="41" fill="none"><path fill="#fff" d="M34.325 13.402c0-1.384 1.448-2.054 3.674-2.054s3.523.822 3.523 2.702a.757.757 0 0 0 .8.778l4.496-.26a.756.756 0 0 0 .713-.626q.072-.495.065-.994c0-3.783-3.934-6.506-9.575-6.506H23.885c-5.188.043-9.511 3.22-10.31 7.24 0 .066-.022.13-.022.195s-.022.13-.044.195-.064.627-.064.93c0 2.074.929 3.998 2.42 5.49a6 6 0 0 0-3.026 3.89 4.21 4.21 0 0 1-2.356-2.918 7 7 0 0 1-.13-1.254v-8.862h2.854c1.145-2.161 3.242-3.934 5.88-4.885h-8.733V.606A.605.605 0 0 0 9.727 0L4.43.195A.605.605 0 0 0 3.847.8v5.663H.605A.627.627 0 0 0 0 7.07v3.674a.605.605 0 0 0 .605.605l3.22-.108v9.1c0 .757.066 2.637.066 2.896a7.133 7.133 0 0 0 7.133 7.133h3.782a7.414 7.414 0 0 0 6.917 10.03h7.414a7.414 7.414 0 0 0 0-14.806H19.39l-.238-.044a1.47 1.47 0 0 1-1.254-1.448 1.49 1.49 0 0 1 1.21-1.47 12.2 12.2 0 0 0 4.843.973c3.588 0 6.765-1.47 8.646-3.74 3.76 1.557 8.494 1.643 8.494 3.891 0 1.146-.692 1.838-3.07 1.838h-4.69a8.34 8.34 0 0 1 3.805 4.733c6.354-.021 10.915-2.767 10.85-6.96-.043-8.97-13.66-5.274-13.66-9.964m-10.376 5.295c-2.27 0-4.128-1.642-4.128-3.674s1.859-3.675 4.128-3.675 4.107 1.643 4.107 3.675-1.837 3.674-4.107 3.674"/><path fill="#FCBF00" fill-rule="evenodd" d="M17.184 28.727H32.66a.54.54 0 0 1 .476.778l-4.561 9.186a.54.54 0 0 1-.821.173l-10.916-9.208a.54.54 0 0 1 .346-.93" clip-rule="evenodd"/></svg>