<svg xmlns="http://www.w3.org/2000/svg" width="443" height="780" fill="none"><path fill="#fff" d="M10.905.305C4.385.343.84.534.495.801.116 1.144 0 4.386 0 17.352v16.094l1.182.267c.648.114 5.872.229 11.592.229h10.37l.23 60.142c.152 33.064.267 81.041.267 106.592v46.451H67.49v-88.973c0-48.892.114-96.792.267-106.402l.228-17.429H91.13V.076L55.975.114C36.605.153 16.32.23 10.905.305M96.469 247.127h43.849l.19-108.499 6.597-.115 6.558-.076v108.69h43.85V0h-43.85v104.495l-6.558-.076-6.597-.115L140.318 0h-43.85zM203.995 247.127h76.259v-33.942h-32.41v-74.748h29.36v-33.942h-29.36l.076-35.2.115-35.162 16.129-.115 16.09-.076V0h-76.259zM244.603 259.75c-16.968.878-25.623 8.619-28.636 25.514-.533 3.051-.686 7.284-.8 27.077-.115 12.891 0 27.573.228 32.607.305 8.238.458 9.458 1.373 12.357 1.449 4.576 3.584 9.038 6.406 13.309 4.652 7.132 8.541 11.289 22.382 23.912 11.401 10.412 17.311 16.399 19.942 20.06 2.517 3.547 4.804 8.543 5.262 11.441.229 1.488.343 11.747.267 26.277-.114 23.034-.153 23.873-.877 25.132-.991 1.716-2.974 2.708-5.262 2.708-2.059 0-3.432-.61-4.804-2.022-.763-.839-.915-1.563-1.221-5.11-.152-2.25-.305-14.873-.305-28.069l-.038-23.912h-41.943v25.438c.039 30.7.306 38.137 1.64 43.247 3.05 11.67 8.16 17.467 18.531 20.937 3.203 1.068 4.385 1.259 10.486 1.602 3.965.229 14.299.305 24.25.152 19.828-.228 20.552-.305 27.073-3.546 6.1-2.975 10.104-7.818 12.544-15.179 2.441-7.322 2.441-7.208 2.479-44.62.038-31.081 0-34.209-.648-37.069-1.526-7.093-4.08-13.195-8.16-19.335-3.203-4.882-13.727-15.522-23.374-23.683-3.66-3.128-9.075-8.085-12.049-11.022-5.757-5.797-8.198-9.191-9.723-13.577-.877-2.44-.877-2.707-1.029-25.094-.115-17.085-.039-22.92.305-23.759.686-1.602 3.164-3.699 4.728-4.004 3.012-.534 5.529.724 6.749 3.432.648 1.449.724 3.013.724 25.094v23.569h41.295l-.229-27.955c-.229-29.708-.267-30.09-2.212-36.115-2.63-8.162-6.596-13.12-12.964-16.171-5.147-2.517-8.541-3.279-15.976-3.661-7.359-.419-28.75-.381-36.414.038M132.501 262.763l-6.863.191-.305 2.098c-.153 1.144-1.945 18.496-3.966 38.518-5.3 53.277-5.49 55.146-9.456 95.914-2.021 20.556-4.614 46.794-5.796 58.35-1.144 11.517-2.249 23.301-2.44 26.123s-.724 7.704-1.144 10.869c-.915 7.132-1.487 12.204-1.487 13.806v1.258h42.248l.229-2.211c.152-1.183.839-10.412 1.563-20.48.763-10.068 1.678-22.806 2.097-28.336.42-5.491.763-10.182.763-10.373 0-.229 3.775-.381 10.104-.381 5.567 0 10.105.114 10.105.267 0 1.106 4.651 60.675 4.766 61.019.114.381 4.728.495 21.2.495h21.048l-.229-1.83c-.267-1.983-6.863-71.698-9.418-99.042-.839-9.458-1.983-20.937-2.479-25.551-.495-4.615-.991-10.03-1.144-12.013s-.915-10.336-1.753-18.497c-.801-8.199-3.127-31.768-5.11-52.362-1.983-20.632-3.737-37.679-3.851-37.87-.191-.343-46.366-.343-58.682.038m26.462 61.973c.42 5.873.877 12.471.992 14.682s1.41 19.527 2.859 38.519c1.487 18.992 2.67 34.743 2.67 34.971 0 .382-1.793.496-7.626.496h-7.588l.152-1.068c.305-1.907.992-11.822.953-14.263 0-1.335.153-3.509.382-4.881.305-2.212 2.783-34.858 4.957-65.596.762-11.098 1.182-15.217 1.41-14.111.039.305.42 5.378.839 11.251M22.84 314.706c-.038 28.602-.115 52.4-.19 52.934-.23 1.754.342 141.45.571 141.831.153.229 13.727.419 37.52.496l37.253.114v-34.132H66.537l.266-213.186H22.879zM316.478 296.705l11.744.076 11.706.115.19 212.994h43.849V296.705h23.641v-33.942h-91.13zM372.109 526.709c-11.82 1.258-19.255 5.72-23.373 14.072-4.157 8.505-4.576 13.119-4.309 51.485.152 26.391.19 27.382.953 30.243 2.479 9.076 7.435 17.314 15.519 25.742 2.326 2.441 8.389 8.238 13.536 12.967 15.481 14.225 21.048 20.632 24.022 27.763 1.754 4.272 2.059 9.535 1.754 33.866-.267 22.272-.191 21.624-3.089 23.302-3.05 1.83-6.406.991-8.465-2.06l-.877-1.296v-19.107c0-10.526-.114-22.844-.266-27.382l-.229-8.314h-41.943l.229 30.242c.305 36.345.457 37.794 4.385 46.032 1.449 3.089 2.173 4.118 4.995 6.864 4.88 4.882 9.494 6.979 17.578 8.009 3.622.458 32.944.725 40.608.343 7.626-.381 14.87-2.555 17.845-5.377.762-.687 2.211-2.021 3.317-2.937 1.068-.915 2.25-2.212 2.593-2.898s1.144-2.136 1.716-3.203c.61-1.106 1.029-2.289.953-2.632s.076-.839.343-1.03c.724-.534 2.021-5.873 2.288-9.267.114-1.487.381-2.746.572-2.746s.305-13.958.19-34.209c-.152-37.412-.038-35.391-2.402-42.637-1.716-5.186-4.232-9.686-8.998-16.093-4.462-5.988-9.037-10.336-28.636-27.04-1.525-1.296-4.08-3.699-5.681-5.415-5.758-6.064-8.351-10.373-9.113-15.293-.61-4.004-.687-43.628-.077-45.612 1.564-5.148 8.885-5.873 11.477-1.22.572 1.106.649 3.318.763 24.942l.114 23.759h41.143v-24.293c0-22.73-.267-31.158-1.144-34.438-.191-.725-.534-2.441-.801-3.814-1.106-6.14-5.224-12.661-10.066-16.017-4.652-3.204-9.457-4.729-16.854-5.339-5.567-.458-36.299-.42-40.57.038M49.378 527.205c-9.57 1.525-15.938 5.491-20.056 12.623-3.47 5.987-4.423 10.411-4.919 23.454-.42 10.335-.343 180.731.076 186.299.42 5.644 2.593 12.661 5.339 17.238.686 1.144 2.402 3.165 3.774 4.462 5.072 4.652 10.562 7.093 18.76 8.275 4.118.611 39.808.573 44.88 0 8.273-.991 13.878-3.089 17.768-6.597 4.651-4.272 7.13-8.886 8.884-16.704l.953-4.386.153-93.245c.076-61.171-.039-95.342-.267-99.346-.496-7.284-1.525-11.67-4.08-16.933-1.411-2.898-2.326-4.157-4.843-6.712-2.593-2.593-3.736-3.432-6.749-4.92-3.927-1.907-7.854-3.051-12.697-3.661-4.576-.572-43.125-.419-46.976.153m27.415 32.416c.687.305 1.754 1.182 2.364 1.983l1.106 1.411.267 10.145c.115 5.568.267 45.802.267 89.392.038 72.27 0 79.363-.572 80.469-2.478 4.882-7.816 5.53-10.981 1.335-.725-.991-.763-1.83-1.03-12.776-.381-16.094-.381-161.7 0-165.285.42-3.966 1.45-5.377 4.805-6.712 1.563-.61 2.287-.572 3.774.038M236.329 600.351c-.153 96.334-.038 137.026.419 145.721.458 8.467 1.22 11.823 4.118 17.81 1.487 3.051 2.25 4.119 5.033 6.865 4.69 4.653 9.647 6.979 17.654 8.238 5.529.877 47.777.572 51.361-.382 6.368-1.64 11.439-4.576 14.604-8.39 3.775-4.5 6.33-11.822 7.13-20.441.687-7.208.877-48.51.572-135.005l-.267-85.045h-43.62l-.267 86.151c-.153 47.366-.153 95.075 0 105.982l.267 19.87-1.22 1.907c-1.602 2.44-3.89 3.699-6.254 3.318-1.754-.306-4.27-1.831-4.918-3.051-.839-1.602-1.03-20.671-1.03-116.28l-.038-98.279h-43.468zM131.548 582.999c0 29.137.114 84.74.267 123.564l.229 70.667h43.735V668.921h28.978v-33.865l-.839-.229c-.495-.153-7.016-.381-14.489-.496l-13.65-.229v-69.561l8.083-.229c4.423-.153 11.744-.267 16.243-.267h8.198l-.228-3.738c-.153-2.021-.267-9.648-.267-16.97v-13.234h-76.26z"/></svg>