<svg xmlns="http://www.w3.org/2000/svg" width="345" height="178" fill="none"><path fill="#1C6AFF" d="M267.639 99.746h-1.323V77.028h1.323c7.773 0 12.509 3.499 12.509 11.73 0 7.715-5.438 10.98-12.509 10.98m-.929-41.074h-21.695v58.654h26.972c17.176 0 29.456-11.053 29.456-28.47 0-21.553-15.079-30.184-34.736-30.184M304.835 58.664v58.652h40.028v-16.031h-18.575v-5.758h16.399V80.285h-16.399v-5.598h17.954v-16.03zM220.206 91.17l-17.969-32.506h-20.435v58.639h20.424v-30.81l17.97 30.81h20.356V58.664h-20.356zM83.76 58.664 74.047 84.09l-9.827-25.425zM83.76 0l-9.714 33.178L64.21 0H0v18.552h13.672v40.112h22.056V18.445h13.099l15.384 40.217h-20.47l-9.479 58.641h20.593l3.036-32.132 9.954 32.132H80.28l9.941-32.132 2.883 32.132H113.7l-9.629-58.641h-20.31L106.29 0z"/><path fill="#1C6AFF" d="M145.718 100.158a12.18 12.18 0 0 1-11.247-7.518 12.176 12.176 0 1 1 23.425-4.66 12.18 12.18 0 0 1-12.178 12.178m0-44.196c-.634 0-1.273.023-1.886.058a19.35 19.35 0 0 0 12.781-17.302c.764-12.105-12.163-18.341-19.387-18.341-9.045 0-12.61 2.252-12.61 2.252l1.214-6.176h27.007V0h-42.659l-5.758 34.878a77.4 77.4 0 0 1 14.114-2.39c7.537-.45 15.212 1.329 15.013 6.298-.165 4.267-9.351 6.38-16.636 4.886a68.5 68.5 0 0 1-13.12-4.27l-2.587 15.56s13.87 4.799 23.997 4.552a70 70 0 0 0 6.847-.491 32.024 32.024 0 0 0-2 56.91 32.02 32.02 0 0 0 41.696-9.315 32.021 32.021 0 0 0-26.026-50.648M40.358 136.411v40.299h-5.32v-40.299zM55.176 136.411h5.83l21.28 32.715v-32.715h5.151v40.299h-6L60.27 144.391v32.319h-5.095zM128.737 136.411v4.641h-21.168v12.565h18.678v4.472h-18.678v18.621h-5.32v-40.299zM157.616 135.449q9.17 0 14.263 5.773c3.396 3.849 5.094 8.829 5.094 14.999 0 6.226-1.698 11.376-5.037 15.395-3.396 4.075-8.151 6.056-14.264 6.056-3.169 0-5.943-.566-8.433-1.698s-4.528-2.66-6.113-4.698c-1.585-1.981-2.773-4.245-3.566-6.848q-1.188-3.821-1.188-8.32c0-6.283 1.698-11.32 5.207-15.056s8.15-5.603 14.037-5.603m0 4.641q-6.792 0-10.358 4.754c-2.377 3.17-3.622 7.019-3.622 11.66 0 5.094 1.301 9.112 3.848 12.112s5.943 4.472 10.188 4.472 7.641-1.472 10.188-4.528c2.491-3 3.793-7.019 3.793-12.056 0-4.981-1.302-8.943-3.849-11.943-2.547-2.943-5.943-4.471-10.188-4.471"/></svg>