<svg xmlns="http://www.w3.org/2000/svg" width="163" height="88" fill="none"><path fill="url(#a)" d="m151.2 87.4-140.1.4A11.14 11.14 0 0 1 0 76.7V11.5A11.14 11.14 0 0 1 11.1.4L151.2 0a11.14 11.14 0 0 1 11.1 11.1v65.2a11.2 11.2 0 0 1-11.1 11.1"/><path fill="#fff" d="m56.3 31-12.7.2v-6.1a1.6 1.6 0 0 0-.3-.9 1.56 1.56 0 0 0-.8-.6 3.2 3.2 0 0 0-1.4-.3c-.5 0-1.2-.1-2.1-.1a11 11 0 0 0-2 .1 3.5 3.5 0 0 0-1.4.3 2.36 2.36 0 0 0-.9.6c-.2.217-.308.504-.3.8v6.1h-3a1.9 1.9 0 0 0-.8.2 1.34 1.34 0 0 0-.6.7l-.3 1.2a9.7 9.7 0 0 0-.1 1.7 6.8 6.8 0 0 0 .4 2.8 1.41 1.41 0 0 0 1.4 1h3.1v14.6a19.6 19.6 0 0 0 .5 4.8 7.96 7.96 0 0 0 1.8 3.4 8.25 8.25 0 0 0 3.2 2c1.41.5 2.908.703 4.4.6q.954.02 1.9-.1c.6-.1 1.2-.2 1.7-.3a5.8 5.8 0 0 0 1.4-.5c.39-.138.736-.38 1-.7a3.1 3.1 0 0 0 .6-1.3q.174-1.144.2-2.3a9 9 0 0 0-.1-1.6 3.6 3.6 0 0 0-.2-1c-.07-.289-.25-.54-.5-.7a1.48 1.48 0 0 0-1.3 0l-.6.4a3 3 0 0 1-.9.2c-.36.083-.73.116-1.1.1a2.52 2.52 0 0 1-2.3-1 6.36 6.36 0 0 1-.7-3.3V38.7h11l7.6 22.9c.105.36.275.7.5 1 .3.323.68.564 1.1.7a5.7 5.7 0 0 0 1.8.3q1.447.136 2.9.1 1.453.04 2.9-.1a5.7 5.7 0 0 0 1.8-.3c.42-.136.8-.377 1.1-.7.225-.3.395-.64.5-1l8.8-26.5a3 3 0 0 0 .2-.8c0-.2.1-.5.1-.7s.1-.4.1-.6v-.4a1.9 1.9 0 0 0-.2-.8 1.56 1.56 0 0 0-.8-.6c-.4-.1-.9-.2-1.3-.3-.5 0-1.2-.1-2-.1a15 15 0 0 0-2.1.1c-.44.018-.876.085-1.3.2a1.8 1.8 0 0 0-.9.6 2 2 0 0 0-.4.8l-6.3 20.7-6.4-20.7a3 3 0 0 0-.4-.8 1.46 1.46 0 0 0-.9-.6c-.5-.1-.9-.2-1.4-.3h-3.2zM107.6 32.4a1.4 1.4 0 0 0-.2-.6 1 1 0 0 0-.4-.5 2.5 2.5 0 0 0-.7-.4c-.3-.1-.7-.2-1-.3s-.7-.1-1.1-.2a9.3 9.3 0 0 0-2.9.2c-.709.196-1.383.5-2 .9a16.3 16.3 0 0 0-2 1.7c-.4.5-.9 1-1.4 1.6v-2.3a1.9 1.9 0 0 0-.2-.8 1.34 1.34 0 0 0-.7-.6 2.66 2.66 0 0 0-1.2-.3c-1.165-.1-2.335-.1-3.5 0-.418.004-.83.107-1.2.3a1.56 1.56 0 0 0-.8.6 1.08 1.08 0 0 0-.2.8v29.2c.008.323.112.637.3.9a1.05 1.05 0 0 0 .9.5c.4.1.9.2 1.4.3 1.365.1 2.735.1 4.1 0 .451.008.898-.096 1.3-.3.32-.128.623-.296.9-.5a1.22 1.22 0 0 0 .3-.9V43.8c.5-.8 1-1.5 1.6-2.3a5.4 5.4 0 0 1 1.5-1.5 5.7 5.7 0 0 1 1.3-.8 3.33 3.33 0 0 1 2.2-.1c.288.114.591.181.9.2l.7.2a1.375 1.375 0 0 0 1.9-.6.36.36 0 0 0 .1-.3c.123-.423.19-.86.2-1.3 0-.5.1-1.2.1-2v-1.9a1.64 1.64 0 0 1-.2-1M131.9 50a7.8 7.8 0 0 0-1.7-2.6 8.4 8.4 0 0 0-2.4-1.8 22 22 0 0 0-2.7-1.3c-.9-.4-1.8-.7-2.7-1a15 15 0 0 1-2.2-1 5.8 5.8 0 0 1-1.5-1.1 2.4 2.4 0 0 1-.5-1.4c.008-.342.076-.68.2-1a2.7 2.7 0 0 1 .7-.8 2.7 2.7 0 0 1 1.2-.6 5.5 5.5 0 0 1 1.8-.2c.908 0 1.814.101 2.7.3q1.072.282 2.1.7c.5.2 1 .5 1.5.7.9.5 1.4.5 1.8.2.221-.19.393-.43.5-.7a3.6 3.6 0 0 0 .2-1v-1.5a5.7 5.7 0 0 0-.1-1.3c0-.3-.1-.6-.1-.9a1.45 1.45 0 0 0-.2-.7 1.17 1.17 0 0 0-.6-.6 2.4 2.4 0 0 0-1.1-.6 13 13 0 0 0-1.8-.7 21 21 0 0 0-2.4-.5 25 25 0 0 0-2.7-.2 18 18 0 0 0-5.1.7 12 12 0 0 0-3.9 2 8.7 8.7 0 0 0-2.5 3.2 9.3 9.3 0 0 0-.9 4 11.5 11.5 0 0 0 .6 3.7c.41.99.985 1.903 1.7 2.7.712.71 1.52 1.315 2.4 1.8.9.5 1.7.9 2.6 1.3s1.8.7 2.6 1q1.141.41 2.2 1a5.8 5.8 0 0 1 1.5 1.1c.311.402.486.892.5 1.4a3.1 3.1 0 0 1-.3 1.3c-.184.364-.46.674-.8.9-.417.3-.895.505-1.4.6-.618.17-1.26.238-1.9.2a10.3 10.3 0 0 1-3-.4 11.7 11.7 0 0 1-2.4-.9 8.7 8.7 0 0 1-1.7-.9 1.96 1.96 0 0 0-2-.3 1.8 1.8 0 0 0-.5.7 3.6 3.6 0 0 0-.2 1 8.6 8.6 0 0 0-.1 1.6 9 9 0 0 0 .2 2.3c.09.496.335.951.7 1.3.395.324.833.593 1.3.8.641.327 1.311.594 2 .8.876.295 1.781.496 2.7.6 1.052.216 2.129.283 3.2.2a18.6 18.6 0 0 0 5.2-.7 13.5 13.5 0 0 0 4.2-2 9.9 9.9 0 0 0 2.8-3.3 10.3 10.3 0 0 0 1-4.6 13.6 13.6 0 0 0-.7-3.5"/><defs><linearGradient id="a" x1="0" x2="162.3" y1="46.095" y2="46.095" gradientUnits="userSpaceOnUse"><stop stop-color="#55AF33"/><stop offset="1" stop-color="#315AA6"/></linearGradient></defs></svg>