<svg xmlns="http://www.w3.org/2000/svg" width="3648" height="1050" fill="none"><path fill="#fff" d="M2006.5 523.607c-21.24 9.042-43.61 16.089-66.79 21.025-.68.149-1.34.365-2.01.498-10.39 2.144-21 3.673-31.7 4.92-1.63.183-3.18.548-4.81.698a364 364 0 0 1-37.06 1.911h-.09c-1.09 0-2.14-.149-3.23-.149-11.01-.1-21.94-.532-32.69-1.596-9.59-.931-19-2.493-28.35-4.155-2.16-.382-4.37-.532-6.52-.947a361 361 0 0 1-33.45-8.244.6.6 0 0 1-.17-.033 362 362 0 0 1-31.55-11.052c-.26-.1-.48-.25-.72-.349V1035.4h279.14zM499.724 1026.27v-91.929c-31.911 41.534-68.144 71.169-108.733 88.979-40.624 17.77-85.12 26.68-133.402 26.68-82.267 0-145.744-23.95-190.5-71.915C22.37 930.153 0 860.183 0 768.257V247.785h279.198v477.493c0 40.57 7.709 67.993 23.112 82.319s37.011 21.473 64.756 21.473c34.953 0 64.808-11.335 89.476-34.087 10.268-10.887 18.756-23.235 25.446-37.08 6.655-13.844 9.991-33.605 9.991-59.3V247.785h279.146v778.495H499.724zM3386.81 1026.27v-84.533c-32.93 33.639-68.65 59.563-107.23 77.863-38.51 18.25-84.57 27.42-138.03 27.42-36.01 0-70.45-4.45-103.33-13.36-32.93-8.91-61.95-22.97-87.14-42.229-25.22-19.262-45.26-43.511-60.12-72.663-14.95-29.151-22.39-64.502-22.39-106.035 0-47.45 9.99-87.206 30.08-119.349 20.04-32.093 47.5-58.336 82.51-78.562 34.95-20.277 76.08-35.102 123.36-44.492s98.19-15.557 152.71-18.565l121.8-5.9v-31.129c0-38.575-9.77-65.25-29.3-80.075-19.53-14.859-44.2-22.271-74.02-22.271-63.76 0-100.25 25.711-109.51 77.117l-251.37-19.263c14.4-83.067 52.92-144.794 115.67-185.38 62.7-40.519 148.58-60.796 257.55-60.796 67.87 0 124.69 7.679 170.41 22.969 45.78 15.341 82.55 36.863 110.29 64.536 27.75 27.689 47.78 61.062 60.13 100.086 12.37 39.057 18.53 82.8 18.53 131.264V1026.3h-260.63zm-9.27-329.196-89.47 4.454c-58.6 2.959-98.47 12.382-119.5 28.171-21.09 15.822-31.6 36.597-31.6 62.259s7.93 44.01 23.89 54.896c15.92 10.886 38.29 16.32 67.09 16.32 43.14 0 78.87-11.634 107.17-34.868 28.25-23.185 42.42-58.021 42.42-104.54v-26.692"/><path fill="#fff" d="M499.724 1026.27v-91.929c-31.911 41.534-68.144 71.169-108.733 88.979-40.624 17.77-85.12 26.68-133.402 26.68-82.267 0-145.744-23.95-190.5-71.915C22.37 930.153 0 860.183 0 768.257V247.785h279.198v477.493c0 40.57 7.709 67.993 23.112 82.319s37.011 21.473 64.756 21.473c34.953 0 64.808-11.335 89.476-34.087 10.268-10.887 18.756-23.235 25.446-37.08 6.655-13.844 9.991-33.605 9.991-59.3V247.785h279.146v778.495H499.724zM1135 252.717v91.959c32.88-41.484 73.24-71.184 113.88-88.95 40.59-17.817 102.46 0 151.81 0 17.25 27.832 34.58 77.52 80.34 124.505s62.22 69.749 129.14 103.87v547.119l-246.92.01V553.772q0-60.779-23.94-82.269c-15.92-14.326-38.29-21.523-67.05-21.523-37.06 0-67.87 11.369-92.56 34.121-11.32 10.886-20.31 23.235-27.01 37.03-6.69 13.894-10 33.639-10 59.3v450.789H863.548V252.717zM2856.3 726.757c-5.19 47.451-15.96 91.178-32.38 131.215-16.46 40.038-40.12 74.126-70.94 102.297-30.86 28.17-69.17 50.221-114.93 66.001-45.77 15.79-99.46 23.71-161.14 23.71-69.94 0-130.62-10.13-181.98-30.38-51.46-20.274-93.33-47.963-125.71-83.065-32.43-35.051-56.82-77.815-73.28-128.256-16.45-50.392-24.67-105.255-24.67-164.588 0-65.217-6.8-103.56 11.73-155.464 46.43-30.381 118.56-61.112 153.5-97.227 34.95-36.065 58.43-114.5 72.5-143.979 51.41-19.263 109.79-22.969 175.6-22.969 59.62 0 111.03 7.678 154.23 22.969 43.2 15.34 79.43 36.115 108.74 62.325 29.3 26.193 52.18 57.106 68.61 92.673 16.45 35.583 26.74 73.145 30.85 112.7l-266.82 25.18c-4.13-27.639-13.9-51.639-29.3-71.915-15.4-20.243-40.09-30.382-74.02-30.382-42.2 0-73.28 16.836-93.33 50.625-20.04 33.722-30.08 83.815-30.08 150.311 0 62.475 9.54 111.105 28.58 145.858 18.98 34.736 50.63 52.07 94.83 52.07 64.76 0 101.27-36.547 109.51-109.692h269.88zM3386.81 1026.27v-84.533c-32.93 33.639-68.65 59.563-107.23 77.863-38.51 18.25-84.57 27.42-138.03 27.42-36.01 0-70.45-4.45-103.33-13.36-32.93-8.91-61.95-22.97-87.14-42.229-25.22-19.262-45.26-43.511-60.12-72.663-14.95-29.151-22.39-64.502-22.39-106.035 0-47.45 9.99-87.206 30.08-119.349 20.04-32.093 47.5-58.336 82.51-78.562 34.95-20.277 76.08-35.102 123.36-44.492s98.19-15.557 152.71-18.565l121.8-5.9v-31.129c0-38.575-9.77-65.25-29.3-80.075-19.53-14.859-44.2-22.271-74.02-22.271-63.76 0-100.25 25.711-109.51 77.117l-251.37-19.263c14.4-83.067 52.92-144.794 115.67-185.38 62.7-40.519 148.58-60.796 257.55-60.796 67.87 0 124.69 7.679 170.41 22.969 45.78 15.341 82.55 36.863 110.29 64.536 27.75 27.689 47.78 61.062 60.13 100.086 12.37 39.057 18.53 82.8 18.53 131.264V1026.3h-260.63zm-9.27-329.196-89.47 4.454c-58.6 2.959-98.47 12.382-119.5 28.171-21.09 15.822-31.6 36.597-31.6 62.259s7.93 44.01 23.89 54.896c15.92 10.886 38.29 16.32 67.09 16.32 43.14 0 78.87-11.634 107.17-34.868 28.25-23.185 42.42-58.021 42.42-104.54v-26.692M1866.94 0C1756.51 0 1667 86.058 1667 192.227s89.51 192.227 199.94 192.227 199.92-86.058 199.92-192.227S1977.37 0 1866.94 0m-7.23 154.832h-41.31v106.202h-38.48V154.832h-41.28v-31.395h121.07zm93 106.185h-43.28l-48.34-137.597h41.29l29.09 93.853 29.08-93.853h40.5z"/></svg>