<svg xmlns="http://www.w3.org/2000/svg" width="1007" height="293" fill="none"><path fill="#0071B9" d="M615.023 292.453h73.578v-94.111h5.62c8.381 0 29.505-.467 40.991 18.117l45.207 75.994h79.173l-41.189-69.19c-13.606-23.195-24.797-35.619-33.596-42.003v-.765c24.821-8.8 51.985-30.023 51.985-73.257 0-53.563-38.379-81.17-106.361-81.17H615.023v92.459h-.739C600.307 62.746 553.252 26.068 467.3 26.068H304.566l-24.797 108.777c-5.201 22.406-9.613 50.827-9.613 50.827h-.789s-5.595-31.601-10.796-54.031L237.348 26.068h-89.329l-21.223 105.573C121.595 154.071 116 185.672 116 185.672h-.814s-4.388-28.421-9.589-50.827L80.8 26.068H0l71.187 266.384h81.268l40.4-170.794h.791l40.4 170.794h79.987l59.256-221.177h.789v221.177h90.832c87.16 0 135.251-39.981 149.399-97.143h.714zm-144.124-60.391h-22.381V86.459h20.385c48.805 0 70.792 21.593 70.792 71.212 0 48.781-21.987 74.391-68.796 74.391m257.929-90.019h-40.227V82.466h37.812c25.216 0 35.618 9.983 35.618 29.974 0 18.413-10.797 29.603-33.203 29.603M965.515 96.354V27.68l-68.673 24.797v17.057l22.727-8.257v51.591zM938.105 0c37.664 0 68.205 30.713 68.205 68.574 0 37.886-30.541 68.574-68.205 68.574s-68.204-30.688-68.204-68.574C869.901 30.713 900.441 0 938.105 0m0 10.057c-32.143 0-58.197 26.202-58.197 58.517s26.054 58.517 58.197 58.517 58.221-26.202 58.221-58.517-26.079-58.517-58.221-58.517"/></svg>