<svg xmlns="http://www.w3.org/2000/svg" width="616" height="215" fill="none"><path fill="url(#a)" d="M559.109.062A28 28 0 0 0 553.2 1.16c-3.861 1.135-7.348 3.194-10.36 5.648-2.988 2.497-5.539 5.394-7.685 8.503-2.168 3.102-3.951 6.41-5.472 9.809a72 72 0 0 0-3.71 10.495 69 69 0 0 0-.655 2.626l-.153-.065c-.865-.358-1.731-.712-2.584-1.15-6.876-3.38-14.116-6.398-21.519-8.721-7.416-2.307-15.118-3.94-22.967-4.169-3.918-.08-7.875.183-11.734 1.051-3.852.857-7.625 2.299-10.952 4.494-3.353 2.15-6.179 5.082-8.323 8.405-2.122 3.348-3.554 7.071-4.415 10.882-.855 3.819-1.194 7.721-1.143 11.597.041 3.878.422 7.738 1.062 11.545 1.289 7.616 3.491 15.031 6.21 22.22a180 180 0 0 0 4.429 10.641 237 237 0 0 0 5.062 10.346 236 236 0 0 1-4.828-10.449 182 182 0 0 1-4.183-10.712c-2.55-7.224-4.574-14.647-5.68-22.203-.55-3.777-.839-7.587-.794-11.386.034-3.797.452-7.585 1.357-11.243.909-3.652 2.358-7.16 4.42-10.259 2.085-3.075 4.766-5.733 7.927-7.662 3.133-1.969 6.681-3.238 10.327-3.966 3.652-.737 7.42-.907 11.167-.747 7.51.385 14.941 2.123 22.114 4.532a134 134 0 0 1 10.606 4.109 162 162 0 0 1 10.324 4.927c.846.458 1.747.853 2.647 1.249l.891.407a59 59 0 0 0-.6 4.688c-.153 1.877-.213 3.776-.075 5.728.085.982.194 1.968.432 2.993.252 1.025.563 2.087 1.283 3.208.095.139.182.276.286.415l.37.416c.226.273.586.529.916.764.356.215.775.414 1.192.525.43.101.873.182 1.275.148.202-.009.419-.012.606-.042l.539-.122c.38-.078.658-.215.965-.343.319-.124.558-.28.816-.43q.398-.225.715-.477c1.768-1.323 2.974-2.823 4.122-4.339l.069-.09c.138-.184.237-.399.284-.641l.313-1.612c.044-.57.125-1.123.122-1.707-.031-.591-.005-1.172-.145-1.776-.056-.298-.103-.598-.176-.893l-.299-.875a4.4 4.4 0 0 0-.374-.839c-.144-.269-.28-.547-.44-.802-.353-.474-.678-1.001-1.088-1.394l-.593-.626-.63-.544c-.414-.378-.855-.671-1.288-.984-1.141-.784-2.304-1.431-3.47-2.016q.398-1.678.886-3.334a67 67 0 0 1 3.67-9.694c2.941-6.209 6.886-12.015 12.041-16.117 2.587-2.004 5.442-3.592 8.5-4.412a22.3 22.3 0 0 1 4.663-.76 26.3 26.3 0 0 1 4.76.26q.07.009.14.015l.203.014c.572.04 1.273.12 1.976.237.706.112 1.419.253 2.136.41.715.145 1.43.35 2.145.519l2.131.621a53.6 53.6 0 0 1 8.227 3.339c5.281 2.654 10.114 6.148 14.051 10.443 1.032 1.03 1.897 2.204 2.818 3.329.475.55.836 1.188 1.261 1.776.4.607.846 1.182 1.209 1.812 1.475 2.503 2.836 5.082 3.834 7.83 2.092 5.449 3.21 11.291 3.585 17.217l.176 3.34-.102 5.606c-.255 2.997-.423 5.992-.931 8.981-.35 2.995-1.038 5.963-1.618 8.937-.286 1.488-.731 2.954-1.089 4.432-.397 1.471-.712 2.957-1.174 4.415-1.746 5.841-3.702 11.686-6.013 17.329-1.176 2.809-2.267 5.656-3.651 8.368l-1.972 4.114c-.669 1.364-1.447 2.672-2.162 4.01-11.587 21.375-28.659 39.497-48.937 52.759-10.1 6.696-20.998 12.189-32.282 16.633a176 176 0 0 1-17.245 5.737 169 169 0 0 1-8.784 2.18c-1.468.312-2.936.616-4.398.88-.734.142-1.456.252-2.183.378-.697.108-1.487.229-2.044.296l-.089.009-.119.017a6.337 6.337 0 0 0 1.794 12.545c.996-.143 1.75-.281 2.598-.43.813-.159 1.635-.305 2.437-.478 1.613-.329 3.204-.695 4.793-1.07a183 183 0 0 0 9.4-2.555 188 188 0 0 0 18.265-6.531c11.916-4.998 23.387-11.106 34.017-18.494 21.334-14.626 39.218-34.499 51.015-57.487.73-1.438 1.521-2.846 2.198-4.309l1.996-4.405c1.396-2.908 2.49-5.939 3.664-8.936 2.302-6.004 4.193-12.099 5.896-18.3.449-1.538.755-3.128 1.139-4.69.345-1.574.773-3.122 1.046-4.716.553-3.187 1.205-6.346 1.517-9.587.169-1.614.446-3.209.499-4.845l.287-4.879c.012-1.636-.011-3.276-.018-4.912l-.008-1.227-.089-1.231-.184-2.462c-.562-6.553-1.956-13.126-4.496-19.324-1.218-3.116-2.847-6.071-4.623-8.917-.437-.715-.962-1.376-1.44-2.066-.505-.67-.947-1.388-1.505-2.017-1.087-1.28-2.125-2.602-3.332-3.768-4.649-4.84-10.232-8.673-16.199-11.506a60 60 0 0 0-9.249-3.514l-2.394-.641c-.813-.176-1.611-.381-2.434-.531a42 42 0 0 0-2.488-.42c-.804-.112-1.619-.2-2.551-.241A33 33 0 0 0 561.037 0q-.963 0-1.928.062m-29.591 56.446c-.019-.046-.054-.021-.102-.109a.6.6 0 0 0-.078-.085l-.086-.145c-.246-.395-.476-1.073-.625-1.789-.153-.727-.226-1.529-.279-2.334-.078-1.629.007-3.325.184-5.017q.16-1.466.404-2.932c.715.408 1.399.836 2.031 1.294 1.376 1.014 2.504 2.148 2.919 3.446.413 1.172.392 2.566.042 4.047-.965 1.207-2.017 2.344-3.065 3.077-.547.397-1.124.601-1.264.571l-.033.003c-.038 0-.009-.023-.048-.027"/><path fill="#fff" d="M72.456 132.394h-14.88L45.25 90.224h-.263l-12.326 42.17H17.696L0 70.063h16.197l9.862 41.466h.263l11.094-41.466h15.672l11.179 41.466h.266l10.036-41.466h15.668zM96.665 132.394V70.063h41.905V82.74h-27.38v11.798h25.885V106.6H111.19v12.94h28.964v12.854zM192.626 101.052q-.001-5.28-1.718-8.759-1.716-3.479-4.577-5.547c-1.907-1.378-4.081-2.362-6.513-2.95a32.2 32.2 0 0 0-7.53-.88h-7.481v36.448h7.129q4.048 0 7.793-.925 3.74-.924 6.602-3.036t4.577-5.634q1.717-3.522 1.718-8.717m15.668 0q0 8.188-3.036 14.13-3.036 5.944-8.012 9.772-4.974 3.83-11.225 5.635a45.5 45.5 0 0 1-12.677 1.804h-23.24v-62.33h22.537q6.604 0 13.028 1.54c4.283 1.028 8.101 2.73 11.446 5.107q5.017 3.566 8.1 9.551 3.08 5.99 3.079 14.791M260.768 101.052q-.002-5.28-1.719-8.759-1.715-3.479-4.577-5.547c-1.907-1.378-4.081-2.362-6.513-2.95a32.2 32.2 0 0 0-7.529-.88h-7.482v36.448h7.13q4.047 0 7.792-.925 3.74-.924 6.602-3.036t4.577-5.634q1.717-3.522 1.719-8.717m15.668 0q0 8.188-3.036 14.13-3.036 5.944-8.012 9.772-4.974 3.83-11.225 5.635a45.5 45.5 0 0 1-12.678 1.804h-23.24v-62.33h22.537q6.605 0 13.029 1.54 6.426 1.542 11.446 5.107 5.017 3.566 8.1 9.551 3.08 5.99 3.079 14.791M286.383 70.062h15.143v62.331h-15.143zM353.999 132.394l-25.093-40.761h-.263l.352 40.761h-14.614V70.063h17.167l25.001 40.674h.266l-.351-40.674h14.613v62.331zM428.607 132.483q-6.12 1.495-13.338 1.495-7.484 0-13.779-2.376-6.293-2.377-10.828-6.69-4.533-4.315-7.085-10.345-2.554-6.03-2.553-13.425-.002-7.484 2.596-13.56c1.729-4.05 4.123-7.496 7.173-10.344q4.58-4.269 10.743-6.56c4.105-1.524 8.541-2.288 13.292-2.288q7.398 0 13.736 2.246 6.337 2.246 10.299 6.03l-9.507 10.83q-2.204-2.554-5.809-4.184-3.613-1.627-8.19-1.628-3.963 0-7.308 1.453a17.6 17.6 0 0 0-5.81 4.05q-2.465 2.596-3.828 6.163c-.913 2.376-1.364 4.974-1.364 7.792q-.001 4.314 1.232 7.922 1.232 3.612 3.651 6.206 2.424 2.6 5.987 4.05 3.569 1.454 8.143 1.453 2.643 0 5.018-.396 2.38-.396 4.404-1.277v-11.357h-11.886v-12.15h25.707v33.016c-3.05 1.583-6.619 2.876-10.696 3.874"/><path fill="#EF3A38" d="M502.821 82.178v48.718h-14.823V82.178h-17.337V69.523h49.497v12.655z"/><path fill="#EF3A38" d="M557.346 130.895h-14.823l-23.231-61.373h16.645l14.214 43.516h.346l14.13-43.516h16.384z"/><defs><linearGradient id="a" x1="-.198" x2="614.38" y1="107.171" y2="107.171" gradientUnits="userSpaceOnUse"><stop stop-color="#ED2775"/><stop offset="1" stop-color="#EC1E2A"/></linearGradient></defs></svg>