<svg xmlns="http://www.w3.org/2000/svg" width="500" height="293" fill="none"><path fill="#FA7D19" d="M451.2 104.2H500V81h-58.7c-31.6 0-44.6 17.7-44.6 45.4v2.7C391.4 96.5 372 81 336.5 81H277C253 33 203.5 0 146.1 0 65.5 0 0 65.5 0 146.2s65.5 146.1 146.1 146.1c57 0 106.3-32.5 130.4-80h60.7c14.5 0 27.6-.9 40.9-11.5 9.6-7.6 15.6-18.4 18.4-32.5v43.8h27.8v-51.5H490v-22.9h-65.8l.4-9.3c.1-15.1 4.7-24.2 26.6-24.2m-115.3 84.9h-30.7v-84.9h30.7c24.1 0 32.8 10.3 32.8 42.5 0 32.1-8.6 42.4-32.8 42.4"/><path fill="#fff" d="M210.8 135.3H229c14.4 0 22.9-2.9 22.9-15.1 0-12.6-8.5-16.1-23.3-16.1h-61.5V81h71.6c36.3 0 41.5 25.4 41.5 39.6 0 15.1-6.2 39-41.5 39h-17.6c-22 0-26.7 7.9-26.7 23v7h82.2V212H166.3v-32.5c0-27.8 13-44.2 44.5-44.2"/></svg>