<svg xmlns="http://www.w3.org/2000/svg" width="544" height="289" fill="none"><path fill="#fff" d="M270.186 288.483c-9.645-.859-15.536-5.755-17.096-14.207-.326-1.769-.274-6.26.102-8.549.357-2.177 1.273-5.764 1.843-7.209.21-.533.382-1.065.382-1.182s-.454.215-1.008.738c-2.72 2.564-6.807 4.491-11.43 5.388-.977.189-1.777.408-1.777.487 0 .078.309.548.688 1.044 1.829 2.396 3.8 7.581 5.427 14.278.588 2.418 1.761 7.927 1.761 8.269 0 .114-3.408.183-9.016.183h-9.015l-.221-1.104c-2.018-10.065-3.919-17.529-5.009-19.672-.742-1.459-2.266-2.276-4.245-2.276h-1.046l-9.005 23.042-33.334.015.101-.72c.055-.396.229-2.06.386-3.698.158-1.638.338-3.389.4-3.892l.115-.914-18.338.099-5.946 9.125h-16.136c-12.832 0-16.117-.049-16.04-.24.388-.969 18.059-42.726 18.128-42.839.049-.079.004-.144-.093-.144-.1 0-6.61 9.724-14.467 21.608l-14.285 21.609-6.291.003c-3.658.002-6.291-.07-6.291-.172 0-.243 5.353-41.868 5.468-42.52.051-.291.03-.528-.046-.527-.077 0-3.727 9.724-8.112 21.608l-7.972 21.607-14.266.006 3.24-8.212 11.167-28.335 7.927-20.122h10.422c10.184 0 10.422.008 10.422.372 0 .205-.998 8.256-2.216 17.891s-2.178 17.557-2.131 17.604c.106.105.835-.961 13.95-20.373l10.468-15.496h10.819c5.95 0 10.781.065 10.735.145-.247.426-21.675 54.64-21.618 54.695.038.038 9.188-12.285 20.334-27.38l20.267-27.445 18.375-.015-.119 2.833c-.216 5.133-1.463 51.003-1.392 51.214.076.23-.145.785 12.341-31.039l9.024-23 16.329-.002c9.645-.002 17.036.076 18.058.19 3.369.375 5.947 1.448 7.547 3.142 1.97 2.086 2.958 4.66 2.995 7.804.015 1.109-.04 2.536-.119 3.17l-.142 1.152.43-.574c5.286-7.054 11.572-11.717 18.992-14.09 6.487-2.074 14.651-2.269 20.129-.48 5.356 1.748 9.118 5.603 10.579 10.839.513 1.84.906 5.862.658 6.729l-.184.641-7.006.791-7.907.892-.901.101.11-1.567c.151-2.142-.245-3.488-1.387-4.709-1.265-1.352-2.693-1.985-4.708-2.087-2.058-.104-3.526.244-5.852 1.386-2.186 1.074-3.825 2.314-5.722 4.33-5.031 5.349-9.311 15.854-8.575 21.051.433 3.057 2.065 5.083 4.648 5.771 2.295.611 5.332.21 7.708-1.018 1.911-.988 4.797-3.892 6.604-6.645.75-1.142 1.391-2.149 1.424-2.238.056-.152 15.321 2.232 15.52 2.424.288.278-2.756 5.201-4.613 7.461-1.361 1.655-4.654 4.87-6.332 6.18-6.736 5.258-15.277 7.606-24.614 6.775m-89.796-22.708c.057-.343.492-4.644.967-9.557s.91-9.265.967-9.671c.062-.443.027-.712-.085-.672-.183.063-13.269 20.199-13.269 20.416 0 .06 2.546.109 5.659.109h5.658zm57.174-12.312c2.064-.39 3.525-1.139 4.9-2.514 3.03-3.031 3.091-6.8.127-7.907-.784-.293-1.778-.351-7.153-.417l-6.244-.076-2.165 5.538c-1.19 3.046-2.163 5.615-2.161 5.709 0 .274 11.009-.016 12.696-.333m61.162 33.926c.071-.186 5.113-12.938 11.204-28.337l11.075-27.999h17.205l-.284.72-3.911 9.941-3.626 9.221 9.232.05c5.077.027 9.296-.015 9.375-.096.079-.08 1.886-4.468 4.015-9.751a8272 8272 0 0 1 3.97-9.845c.078-.187 1.991-.241 8.65-.241 8.053 0 8.545.019 8.453.337-.141.488-22.205 56.18-22.291 56.266-.04.039-3.914.05-8.61.023l-8.537-.05 9.053-22.861-9.304-.05c-5.118-.026-9.338-.019-9.378.023-.04.04-2.09 5.206-4.555 11.48l-4.481 11.407-8.692.05c-8.229.047-8.685.031-8.563-.288m57.547.191c0-.08 4.997-12.809 11.1-28.288l11.098-28.143 22.726-.049c14.078-.03 22.703.023 22.663.131a1593 1593 0 0 1-2.37 6.049l-2.305 5.868-28.264.006-1.662 4.178a697 697 0 0 0-1.785 4.515c-.116.318.604.336 13.441.336 7.46 0 13.564.064 13.564.143s-1.011 2.671-2.246 5.762l-2.245 5.619-27.255.098-4.348 10.95 15.261.049c8.394.027 15.26.114 15.259.192 0 .079-1.117 2.953-2.48 6.387l-2.478 6.243-23.838.049c-13.111.026-23.837-.014-23.836-.095m-253.715-68.678 3.458-8.526c1.849-4.557 3.418-8.462 3.486-8.678.088-.277-.833.248-3.146 1.791-4.054 2.705-7.313 4.553-12.345 6.999-15.792 7.676-31.934 9.921-49.62 6.9-15.472-2.643-27.797-9.982-35.285-21.01-4.804-7.076-7.824-15.969-8.84-26.03-.54-5.352-.236-13.951.727-20.555 2.336-16.021 8.901-32.01 18.42-44.856 9.08-12.256 19.768-21.3 33.134-28.038 9.553-4.816 17.904-7.53 28.055-9.117 8.15-1.275 19.775-1.394 28.432-.293 17.998 2.29 28.947 9.089 32.633 20.266 2.585 7.84 1.309 19.287-3.148 28.244-6.599 13.261-20.652 23.507-39.763 28.993-16.84 4.833-23.48 6.327-35.347 7.954a390 390 0 0 1-14.504 1.66c-1.32.123-2.501.251-2.624.286-.733.206-.472 11.455.43 18.509.341 2.664 1.346 6.972 2.08 8.924 2.608 6.928 7.722 11.935 14.234 13.934 2.74.842 5.063 1.174 9.125 1.306 8.853.287 17.407-1.372 24.587-4.769 7.523-3.559 15.267-9.811 22.982-18.555l1.734-1.966 7.173-17.724c3.945-9.749 7.259-17.92 7.364-18.157l.192-.433h64.87v.481c0 .264-.087.48-.193.48-.105 0-.192.131-.192.291s-.077.441-.17.624c-.157.31-.333.724-.771 1.823-.095.237-.314.754-.487 1.148a51 51 0 0 0-.803 2.017c-.269.716-.62 1.604-.781 1.973a45 45 0 0 0-.465 1.105c-.096.238-.271.67-.391.961-.119.29-.281.701-.359.912-.079.211-.337.816-.575 1.345a31 31 0 0 0-.575 1.344c-.079.212-.23.601-.338.865-.211.522-.776 1.978-1.006 2.593-.079.212-.241.622-.361.913-.12.29-.292.723-.383.96-.091.238-.35.808-.576 1.267-.227.459-.412 1-.412 1.201s-.086.366-.192.366-.192.131-.192.291-.079.441-.176.624c-.298.564-.719 1.584-1.635 3.955a114 114 0 0 1-1.186 2.978 41 41 0 0 0-.82 1.998 48 48 0 0 1-.877 2.109 50 50 0 0 0-.803 2.017c-.269.715-.62 1.603-.781 1.973a45 45 0 0 0-.465 1.105l-.365.912c-.106.264-.268.675-.36.913-.092.237-.362.864-.601 1.392a39 39 0 0 0-.6 1.393c-.272.7-.54 1.363-.737 1.825-.649 1.521-1.544 3.908-1.544 4.12 0 .138-.086.25-.193.25-.105 0-.192.131-.192.291s-.076.441-.17.625c-.157.309-.333.723-.771 1.822-.095.238-.314.754-.487 1.148a51 51 0 0 0-.803 2.017c-.269.716-.62 1.604-.781 1.974s-.359.845-.44 1.056-.245.622-.364.913c-.12.29-.296.723-.391.96-.095.238-.355.842-.577 1.343-.524 1.184-.517 1.648.031 1.781.237.058 11.808.081 25.712.052 20.587-.044 25.337-.101 25.586-.308.167-.139.361-.506.429-.816s.203-.563.3-.563.177-.121.177-.269.259-.761.576-1.364c.318-.602.577-1.216.577-1.364s.086-.269.192-.269.192-.173.192-.384.087-.384.193-.384c.105 0 .192-.105.192-.233 0-.129.335-.928.745-1.777s1.025-2.149 1.367-2.889 1.26-2.66 2.04-4.267c.781-1.607 1.419-2.967 1.419-3.021s.656-1.462 1.457-3.129c.801-1.666 1.742-3.635 2.092-4.375a1729 1729 0 0 1 3.611-7.588c.582-1.215 1.38-2.901 1.773-3.746.394-.845 1.216-2.574 1.827-3.842.612-1.268 1.389-2.91 1.727-3.65s.779-1.685.98-2.101.364-.87.364-1.009.087-.252.193-.252c.105 0 .192-.172.192-.384 0-.211.086-.384.193-.384.105 0 .192-.173.192-.384s.065-.385.145-.385.261-.28.404-.624c.449-1.085.833-1.925 1.593-3.487.407-.835.74-1.635.74-1.777s.086-.259.192-.259c.105 0 .192-.172.192-.384 0-.211.087-.384.193-.384.105 0 .192-.173.192-.384s.086-.385.193-.385c.105 0 .192-.11.192-.245 0-.136.463-1.194 1.028-2.354.565-1.159 1.144-2.431 1.287-2.828s.328-.72.413-.72.154-.133.154-.295.139-.508.31-.768l.31-.474h13.675c10.38 0 13.731.056 13.905.231.127.127.231.424.231.661s.086.484.192.549.193.288.193.494.078.526.173.709c.095.184.277.723.403 1.199.126.475.308 1.014.403 1.198s.173.502.173.709.086.429.192.494.193.324.193.576.086.511.192.576c.106.066.193.288.193.495 0 .206.079.525.175.709s.403 1.111.683 2.062c.936 3.181 2.055 6.72 2.232 7.057.096.184.176.503.176.709 0 .207.085.429.192.495.105.065.192.324.192.576s.086.511.193.576c.105.065.192.288.192.494s.079.526.175.71.405 1.111.685 2.062c1.125 3.815 1.679 5.587 1.846 5.905.097.183.176.502.176.709s.086.429.192.494.193.325.193.576c0 .252.086.511.192.576.105.066.192.288.192.495 0 .206.078.525.174.709s.278.722.406 1.198c.128.475.297 1.037.376 1.248s.235.687.345 1.057c.875 2.927 1.643 5.337 1.79 5.616.096.184.176.503.176.71s.086.428.192.494c.105.065.192.373.192.683s.087.565.193.565c.105 0 .192.26.192.577s.086.576.192.576.193.254.193.565.086.618.192.684c.106.065.193.287.193.494 0 .206.079.525.175.709s.406 1.112.688 2.062l.713 2.402c.11.369.276.822.368 1.006.093.183.168.502.168.709s.087.429.193.494c.105.065.192.288.192.494s.078.526.174.709c.095.184.276.723.403 1.198.126.476.307 1.015.402 1.198s.174.503.174.709c0 .207.086.429.192.495.106.065.193.287.193.494 0 .206.078.525.173.709s.284.722.419 1.198c.135.475.327.973.428 1.106.144.191 4.342.241 20.184.24 11.001 0 24.714-.056 30.472-.123l10.47-.123.96-.997c.528-.548 1.128-1.206 1.332-1.462.204-.257.896-1.061 1.537-1.789l2.222-2.524c.581-.662 1.603-1.813 2.27-2.559.667-.745 1.399-1.597 1.626-1.893a9 9 0 0 1 .71-.826c.164-.159.902-.98 1.64-1.825s1.385-1.58 1.438-1.633.658-.744 1.345-1.535a182 182 0 0 1 1.857-2.113c.335-.371.808-.934 1.052-1.251.243-.317.661-.792.928-1.057.266-.264.788-.83 1.157-1.258a379 379 0 0 1 3.846-4.4 236 236 0 0 0 2.113-2.409 81 81 0 0 1 1.63-1.845c.21-.222.557-.62.768-.885.391-.489 1.975-2.293 3.573-4.069a206 206 0 0 0 3.914-4.518c.313-.38.974-1.122 1.467-1.651a39 39 0 0 0 1.443-1.632c.3-.37.678-.802.841-.961s.812-.893 1.444-1.633c.632-.739 1.282-1.474 1.443-1.633.161-.158.767-.848 1.345-1.532s1.366-1.591 1.75-2.017c.385-.425.946-1.076 1.246-1.445.302-.37.766-.889 1.032-1.153.267-.264.733-.783 1.037-1.153a84 84 0 0 1 1.757-2.017c.663-.739 2.186-2.468 3.384-3.842 2.671-3.063 2.904-3.329 3.462-3.965.245-.279.921-1.051 1.502-1.717.582-.665 1.489-1.693 2.018-2.283 2.637-2.948 4.226-4.85 4.226-5.058 0-.179-4.171-.243-18.277-.281l-18.277-.049-.549.636a26 26 0 0 0-1.03 1.287 31 31 0 0 1-.972 1.238c-.271.323-.7.89-.952 1.259-.252.37-.597.802-.765.961s-.517.591-.775.96c-.471.676-.64.896-1.536 1.997a67 67 0 0 0-1.344 1.749c-.472.634-.911 1.196-.974 1.249-.122.101-1.002 1.24-2.821 3.65-.599.792-1.14 1.484-1.204 1.537-.063.053-.71.874-1.436 1.825l-1.906 2.497c-.323.422-.719.898-.881 1.057s-.806.979-1.431 1.825c-.625.845-1.185 1.58-1.244 1.633s-.343.412-.631.799-.635.82-.771.961c-.135.141-.736.905-1.336 1.697-2.234 2.955-2.711 3.556-2.87 3.618-.09.034-.164.18-.164.321s-.068.285-.151.32c-.083.034-.45.453-.816.928s-.881 1.133-1.145 1.462c-.965 1.197-1.071 1.335-1.531 1.996-.258.37-.604.802-.77.961-.165.158-.817.979-1.449 1.825-.632.845-1.193 1.58-1.247 1.632-.053.053-.333.413-.621.8s-.635.82-.771.961c-.135.141-.736.905-1.336 1.697-1.888 2.497-2.703 3.551-2.823 3.65-.063.053-.496.597-.962 1.209s-.905 1.045-.977.961c-.161-.188-.457-1.025-.766-2.17-.128-.475-.311-1.014-.406-1.198s-.173-.545-.173-.805c0-.259-.086-.525-.192-.59s-.193-.325-.193-.576c0-.252-.086-.511-.192-.577s-.193-.367-.193-.672-.086-.607-.192-.672c-.105-.065-.192-.331-.192-.591s-.078-.621-.174-.805c-.095-.183-.268-.679-.383-1.102-.114-.422-.375-1.33-.579-2.017a223 223 0 0 1-.693-2.401 79 79 0 0 0-.474-1.633 45 45 0 0 1-.386-1.345 18 18 0 0 0-.385-1.248 18 18 0 0 1-.381-1.249c-.128-.476-.311-1.015-.406-1.198a1.9 1.9 0 0 1-.173-.723c0-.214-.078-.54-.173-.723-.095-.184-.268-.68-.383-1.102s-.376-1.33-.579-2.017c-.204-.687-.516-1.768-.694-2.402a80 80 0 0 0-.474-1.632c-.083-.265-.255-.87-.383-1.345-.129-.476-.311-1.015-.406-1.198s-.174-.546-.174-.805c0-.26-.086-.525-.192-.591-.105-.065-.192-.324-.192-.576s-.087-.511-.193-.576c-.105-.066-.192-.368-.192-.673 0-.304-.086-.607-.192-.672s-.193-.331-.193-.59-.078-.622-.173-.805-.279-.723-.406-1.198a16 16 0 0 0-.385-1.249c-.083-.211-.295-.946-.469-1.633a37 37 0 0 0-.476-1.729 33 33 0 0 1-.393-1.344c-.128-.476-.311-1.015-.406-1.199-.095-.183-.174-.545-.174-.805 0-.259-.086-.525-.192-.59-.105-.065-.192-.325-.192-.576 0-.252-.086-.511-.193-.577-.105-.065-.192-.367-.192-.672s-.086-.607-.192-.672-.195-.308-.199-.54c0-.231-.121-.572-.261-.757-.243-.319-5.202-.336-99.408-.336-55.434 0-99.152-.073-99.152-.166 0-.091 1.609-4.132 3.575-8.981 1.967-4.848 3.618-8.923 3.671-9.055.076-.192 30.615-.24 151.789-.243 83.431-.001 151.886-.055 152.123-.118.613-.164.339-.456-.43-.456-.357 0-.703-.086-.769-.192-.065-.106-.41-.192-.768-.192-.357 0-.703-.086-.768-.192s-.411-.192-.769-.192c-.357 0-.703-.086-.768-.193-.065-.105-.368-.192-.673-.192-.304 0-.607-.086-.672-.192-.065-.105-.368-.192-.672-.192s-.607-.086-.673-.192c-.065-.105-.33-.192-.59-.192s-.621-.079-.805-.175c-.286-.15-1.88-.654-4.464-1.41-.76-.223-1.475-.493-1.966-.743a1.7 1.7 0 0 0-.627-.169c-.162 0-.465-.087-.675-.193l-.763-.384a2.1 2.1 0 0 0-.769-.192c-.213 0-.387-.086-.387-.192 0-.105-.133-.192-.297-.192s-.656-.173-1.093-.385c-.437-.21-.863-.384-.946-.384s-.622-.216-1.2-.48c-.577-.264-1.099-.48-1.16-.48s-.52-.182-1.021-.404l-1.679-.745c-.744-.33-1.618-.731-4.765-2.19-.824-.383-1.543-.696-1.597-.696-.091 0-.557-.21-3.915-1.772a123 123 0 0 0-3.362-1.511c-.212-.089-.892-.38-1.513-.648s-1.208-.487-1.306-.487-.535-.173-.973-.384-.946-.384-1.132-.384-.39-.086-.455-.192-.33-.192-.588-.192-.469-.086-.469-.193c0-.105-.259-.192-.576-.192s-.576-.086-.576-.192c0-.105-.254-.192-.565-.192s-.619-.086-.684-.192c-.065-.105-.368-.192-.672-.192s-.602-.077-.66-.17c-.057-.095-.387-.22-.731-.279a40 40 0 0 1-1.587-.32c-4.365-.974-10.081-1.13-13.639-.372-.529.113-1.286.252-1.682.309-.397.057-.77.181-.828.276-.058.094-.356.171-.66.171s-.607.086-.672.192-.373.192-.684.192-.565.086-.565.192-.211.192-.469.192-.522.086-.588.193c-.065.105-.287.192-.494.192-.206 0-.525.076-.709.17-.183.093-.55.257-.814.364-.522.212-1.508.631-2.641 1.123-1.128.49-5.896 2.829-6.003 2.945-.053.058-.658.398-1.345.757s-1.681.921-2.209 1.25c-.529.33-1.199.72-1.489.869s-.528.342-.528.43-.084.16-.186.16c-.103 0-1.323.756-2.712 1.68a246 246 0 0 1-2.84 1.874c-.173.105-.357.24-.41.297-.053.058-.399.313-.768.567-.37.254-.716.512-.769.574s-.658.511-1.344.999c-.687.488-1.422 1.052-1.633 1.252-.449.425-1.862 1.402-2.029 1.402-.063 0-.076-.26-.03-.577s.161-.576.255-.576c.093 0 .17-.166.17-.368 0-.203.065-.397.144-.432.08-.034.494-.756.921-1.601.991-1.96 1.882-3.623 2.007-3.746.054-.053.206-.291.338-.529.596-1.073.741-1.3 1.056-1.659.186-.21.336-.488.336-.618s.066-.265.145-.3c.08-.034.576-.712 1.104-1.504 1.006-1.508 3.053-4.283 3.914-5.308.278-.33 1.11-1.322 1.849-2.205 1.542-1.84 5.335-5.69 7.273-7.38 1.442-1.257 2.135-1.813 4.063-3.262A102 102 0 0 0 377.405 73c.298-.238.623-.433.723-.433.101 0 .339-.172.53-.384.191-.211.464-.384.606-.384s.259-.076.259-.169.259-.276.576-.407.577-.315.577-.408.083-.168.183-.168c.101 0 .598-.245 1.105-.543 1.437-.847 6.034-3.12 7.548-3.733 5.491-2.22 12.462-3.661 17.674-3.651 1.647.003 5.647.333 7.492.617.687.106 1.638.242 2.113.304s1.038.188 1.249.28.643.213.96.269c1.238.216 3.018.637 4.995 1.183.634.175 1.434.362 1.779.416.344.053.673.174.732.269.057.094.311.17.563.17s.511.087.576.193c.065.105.325.192.576.192.252 0 .511.086.577.192.065.105.324.192.576.192s.511.086.576.192c.065.105.288.192.494.192s.569.1.806.222c.902.467 1.105.547 1.39.547.161 0 .443.076.627.17.544.276 1.234.549 2.254.888.529.177 1.09.385 1.249.463.158.079.699.263 1.201.41.501.146.912.334.912.416 0 .083.211.15.469.15s.522.087.588.192.286.192.491.192.373.087.373.192.156.192.348.192.706.173 1.144.385c.437.21.911.384 1.054.384.142 0 .341.075.442.167s1.047.489 2.103.882c1.867.694 2.206.825 3.314 1.282.673.277 1.371.556 1.921.768.238.092.67.264.961.384s.722.293.96.385c.238.091.627.248.864.347.238.1 1.34.492 2.45.872 1.109.38 2.167.774 2.35.875.184.102.508.185.721.185s.387.086.387.192c0 .105.211.192.469.192s.522.086.587.192c.065.105.325.192.577.192s.51.087.576.192.329.192.587.192c.259 0 .469.087.469.192s.26.193.577.193.576.086.576.192c0 .105.174.192.387.192s.537.078.72.173.723.28 1.198.412c.476.131 1.251.361 1.723.511.893.283 2.822.785 3.656.95.264.053.653.169.865.259s.643.216.96.282.922.207 1.345.313c1.251.316 2.452.572 3.169.676.37.053.846.173 1.057.266s.73.215 1.153.271c.422.056 1.33.194 2.017.306 7.825 1.28 17.263 1.423 24.973.376.793-.108 1.873-.245 2.402-.304.528-.06 1.042-.187 1.143-.283s.549-.175.997-.175.868-.086.933-.192c.065-.105.411-.192.769-.192.357 0 .703-.086.768-.192.065-.105.411-.192.768-.192s.704-.086.769-.192.368-.192.672-.192.607-.086.673-.192c.065-.106.287-.192.494-.192.206 0 .525-.077.709-.172s1.068-.41 1.966-.702c1.776-.578 2.753-.977 4.494-1.834.622-.307 1.249-.558 1.392-.558.144 0 .262-.086.262-.192 0-.105.173-.192.384-.192s.384-.086.384-.192c0-.105.165-.192.368-.192s.397-.066.432-.147.843-.544 1.794-1.03a141 141 0 0 0 2.785-1.46c2.717-1.486 4.409-2.348 5.379-2.74l1.537-.62c.264-.108.63-.272.814-.365a2 2 0 0 1 .778-.17c.244 0 .526-.075.627-.168.1-.092.553-.214 1.006-.27.774-.097.816-.079.698.311-.182.598-1.687 3.477-1.858 3.553-.08.034-.145.153-.145.261 0 .183-2.537 3.953-3.24 4.814-2.741 3.358-5.955 6.697-8.766 9.105-1.162.996-2.33 2.003-2.596 2.238-.265.235-.784.639-1.152.897-.369.257-.713.52-.766.585s-.702.543-1.441 1.062c-.74.52-1.374 1.012-1.409 1.093-.034.082-.17.148-.3.148s-.407.151-.616.336c-.49.434-1.57 1.2-1.692 1.2-.052 0-.466.248-.92.55-.455.303-1.215.767-1.691 1.03-.475.264-1.21.681-1.633.927-.965.562-5.345 2.714-6.243 3.067-.37.145-.956.42-1.303.611-.346.191-.758.347-.915.347a1.7 1.7 0 0 0-.618.17c-.306.155-.863.396-1.871.807-.795.324-2.365.806-4.13 1.267-4.081 1.065-5.491 1.361-8.741 1.835-1.837.268-15.304.325-16.675.071-.854-.158-.932-.14-1.031.241-.059.227-.184.412-.277.412s-.17.17-.17.378-.173.686-.384 1.062-.384.855-.384 1.063-.086.378-.192.378-.193.168-.193.373-.086.427-.192.492c-.105.065-.192.329-.192.587 0 .259-.087.469-.193.469-.105 0-.192.131-.192.291s-.087.463-.192.673l-.384.763c-.106.21-.193.47-.193.578 0 .109-.161.564-.358 1.012-.562 1.277-1.371 3.489-1.371 3.748 0 .13-.086.236-.192.236s-.193.13-.193.291-.076.441-.169.624c-.179.353-.539 1.198-.816 1.918l-.333.865a72 72 0 0 1-1.255 3.055c-.169.385-.307.797-.307.914s-.182.623-.404 1.124a54 54 0 0 0-.989 2.351c-.104.264-.265.63-.359.814a1.7 1.7 0 0 0-.169.624c0 .16-.086.291-.193.291-.105 0-.192.17-.192.379 0 .208-.173.686-.384 1.062s-.384.803-.384.948c0 .146-.169.597-.376 1.003-.38.745-1.501 3.829-1.683 4.629-.054.237-.175.432-.269.432-.093 0-.169.13-.169.291s-.076.441-.169.624c-.158.31-.333.724-.772 1.822-.095.238-.304.735-.465 1.105s-.689 1.697-1.173 2.949a112 112 0 0 1-1.186 2.977 42 42 0 0 0-.819 1.998c-.223.578-.501 1.25-.856 2.065-.161.37-.561 1.364-.889 2.21-.329.845-.682 1.731-.784 1.969a25 25 0 0 0-.353.864c-.277.721-.637 1.566-.817 1.919a1.7 1.7 0 0 0-.169.624c0 .16-.087.291-.192.291s-.193.165-.193.366c0 .202-.185.742-.411 1.201a20 20 0 0 0-.576 1.267l-.334.864-.504 1.297c-.183.475-.421 1.08-.528 1.345s-.27.674-.362.912l-.334.865c-.092.237-.362.864-.601 1.392a39 39 0 0 0-.6 1.393c-.092.238-.266.67-.386.961-.119.29-.292.722-.384.96a78 78 0 0 1-.79 1.969c-.153.37-.389.975-.523 1.345a28 28 0 0 1-.605 1.487c-.199.447-.361.944-.361 1.104s-.087.29-.192.29-.193.131-.193.291-.076.441-.169.625c-.157.309-.333.724-.771 1.822a44 44 0 0 1-.488 1.149 52 52 0 0 0-.803 2.017c-.269.715-.62 1.603-.781 1.973a53 53 0 0 0-.855 2.065 52 52 0 0 1-1.436 3.391c-.147.307-.267.629-.267.715s-.203.613-.45 1.171a33 33 0 0 0-.695 1.687 29 29 0 0 1-.607 1.486c-.198.448-.361.889-.361.98s-.12.415-.267.722c-.278.581-.8 1.783-1.097 2.527l-.364.912-.365.913a95 95 0 0 1-.452 1.104c-.153.37-.392.975-.53 1.345-.139.37-.324.755-.413.855a.76.76 0 0 0-.162.434c0 .139-.181.662-.403 1.163-.222.5-.469 1.083-.55 1.294a50 50 0 0 1-.366.913c-.119.29-.295.722-.39.96s-.342.821-.548 1.297l-.729 1.681-.353.816H265.739c-130.541 0-163.252-.048-163.175-.24zM51.691 142.68c9.416-1.192 16.954-2.7 21.602-4.322 3.023-1.055 6.71-2.917 9.71-4.908 3.329-2.207 6.833-5.593 8.716-8.422 3.383-5.084 5.425-11.371 6.4-19.707.137-1.171.246-4.169.245-6.724-.002-3.998-.06-4.895-.433-6.755-1.508-7.533-4.829-11.81-10.122-13.038-1.703-.395-4.283-.401-5.921-.015-7.101 1.676-14.935 10.468-21.93 24.61-4.341 8.777-7.364 17.254-10.011 28.076-.975 3.983-2.387 10.674-2.387 11.31 0 .375.42.365 4.13-.105m82.028-74.042c-.423-.239-5.998-3.29-12.391-6.78s-16.593-9.063-22.668-12.384-15.93-8.704-21.9-11.963-11.586-6.408-12.482-6.998c-4.05-2.67-6.887-6.374-8.186-10.688-.72-2.39-.769-5.787-.116-8.05 1.492-5.17 5.424-8.856 11.098-10.407 1.662-.454 2.263-.521 4.691-.523 2.41-.002 3.065.069 4.86.525 2.397.61 4.292 1.377 6.079 2.46 3.093 1.875 4.782 3.586 9.068 9.185 4.045 5.283 6.777 8.848 10.822 14.12 5.63 7.338 24.626 32.098 27.927 36.403 1.742 2.272 3.419 4.455 3.727 4.85.637.82.554.86-.529.25"/></svg>