<svg xmlns="http://www.w3.org/2000/svg" width="544" height="296" fill="none"><path fill="#fff" d="M73.825 295.108c.001-.223 5.59-15.405 12.42-33.739l12.417-33.334 22.739-.136c25.154-.152 26.331-.034 30.102 3.056 7.349 6.02 6.309 19.175-2.193 27.745-3.449 3.477-8.136 5.919-13.772 7.177l-3.702.827 1.722 2.529c.947 1.392 2.453 4.266 3.346 6.388 1.727 4.103 5.079 14.634 5.7 17.906l.372 1.963h-22.759l-.957-4.013c-1.447-6.067-4.997-17.484-6.224-20.017-1.239-2.557-3.43-3.932-5.886-3.691l-1.654.162-10.169 27.297-10.752.142c-5.914.078-10.751-.04-10.75-.262m49.709-40.53c7.463-.714 11.099-3.147 11.738-7.856.322-2.375-.498-4.122-2.241-4.777-.697-.262-4.924-.515-9.394-.563l-8.127-.087-2.506 6.494c-1.378 3.571-2.513 6.671-2.523 6.887-.022.528 7.071.475 13.053-.098m22.112 40.256 12.652-33.859 12.405-33.202h57.55l-2.604 6.909c-1.431 3.801-2.603 6.99-2.603 7.087 0 .098-8.093.177-17.984.177h-17.983l-1.931 5.047c-1.062 2.776-1.93 5.257-1.93 5.512 0 .26 7.577.465 17.214.465h17.213l-2.61 6.677c-1.435 3.673-2.61 6.74-2.61 6.817s-7.815.203-17.367.279l-17.367.138-2.274 6.037c-1.25 3.32-2.277 6.214-2.281 6.431-.003.216 8.595.393 19.109.393 12.201 0 19.118.187 19.118.518 0 .284-1.227 3.827-2.727 7.874l-2.727 7.357h-30.254c-23.982 0-30.204-.137-30.009-.657m83.377 0c.137-.361 4.376-11.64 9.42-25.066 5.045-13.425 9.285-24.705 9.424-25.066.196-.512-2.168-.656-10.748-.656s-10.945-.144-10.75-.656c.138-.361 1.507-4.022 3.042-8.137l2.791-7.48h66.619l-5.943 16.256-22.985.015-.779 1.969c-.428 1.083-4.794 12.658-9.701 25.722l-8.921 23.754h-10.859c-8.466 0-10.804-.143-10.61-.655m49.34.198c.097-.253 5.793-15.487 12.657-33.854l12.479-33.395 57.592-.006-1.637 4.331c-.9 2.381-2.051 5.511-2.559 6.955l-.923 2.625-36.155.276-1.919 5.282c-1.056 2.904-1.919 5.378-1.919 5.497s7.732.278 17.183.355l17.184.138-5.008 13.124-34.776.525-1.993 5.25c-1.097 2.887-2.164 5.78-2.373 6.43l-.378 1.181h19.153c14.964 0 19.155.143 19.161.656.004.361-1.22 3.905-2.722 7.874l-2.73 7.218h-30.247c-17.023 0-30.169-.2-30.07-.458zm74.789-.198c.001-1.416 6.956-14.602 10.452-19.816 6.564-9.79 17.449-21.47 26.66-28.61l3.387-2.624-32.936-.278 2.857-7.698c1.571-4.234 2.856-7.774 2.856-7.867s12.785-.168 28.411-.168 28.411.189 28.411.421c0 .787-4.172 11.787-4.61 12.154-.239.202-1.749 1.281-3.356 2.399-5.967 4.155-13.724 10.774-18.751 16-8.635 8.977-17.798 22.369-21.97 32.108l-1.986 4.635h-9.712c-7.417 0-9.713-.155-9.713-.656m-249.566-81.822a809 809 0 0 1 3.476-8.455c1.323-3.172 2.298-5.873 2.167-6.002-.13-.129-2.117.983-4.413 2.471-9.037 5.858-21.283 10.83-31.81 12.916-6.427 1.273-21.232 1.26-28.39-.027-25.55-4.589-40.737-19.845-44.094-44.289-1.251-9.109-.211-22.039 2.668-33.193 5.176-20.049 17.87-39.507 33.725-51.692 5.601-4.305 9.201-6.524 16.08-9.912 15.352-7.562 28.22-10.214 46.723-9.627 15.292.486 24.69 2.874 32.418 8.239 6.909 4.796 10.152 10.837 10.592 19.73.923 18.652-9.932 34.177-30.801 44.05-12.487 5.908-35.076 11.443-55.629 13.633-11.874 1.265-10.62.596-10.62 5.668 0 10.358 1.744 20.729 4.323 25.727 1.576 3.053 6.342 7.827 9.247 9.261 4.17 2.058 7.501 2.654 14.84 2.653 16.497-.002 27.699-4.949 40.89-18.062l6.373-6.334 6.313-15.486c3.473-8.517 6.865-16.726 7.539-18.242l1.224-2.756h32.158c22.919 0 32.157.165 32.157.574 0 .316-5.735 14.512-12.745 31.546s-12.745 31.185-12.745 31.447c0 .278 10.69.476 25.743.476h25.744l.744-1.181c.409-.65 7.38-15.059 15.491-32.021l14.747-30.841h27.382l2.738 8.531a4901 4901 0 0 0 5.046 15.617 4011 4011 0 0 1 5.324 16.535 3258 3258 0 0 0 4.985 15.486l1.968 6.037 61.632.271 2.869-3.344c1.579-1.838 15.416-17.468 30.75-34.731 33.198-37.377 31.332-35.254 31.332-35.64 0-.171-8.305-.296-18.454-.279l-18.454.03-9.293 11.86a9820 9820 0 0 1-19.875 25.255l-10.581 13.395-1.807-5.994c-1.635-5.422-9.996-33.399-12.303-41.165l-.935-3.15-99.446-.132c-94.398-.127-99.429-.179-99.106-1.05.188-.505 1.826-4.636 3.641-9.181l3.3-8.263 152.366-.003c83.801-.002 152.237-.131 152.08-.286s-2.527-.873-5.266-1.594c-8.701-2.291-11.693-3.437-31.97-12.24-8.557-3.714-12.771-5.008-18.811-5.776-10.788-1.373-24.376 3.85-40.357 15.511-2.115 1.543-3.988 2.806-4.164 2.806-.499 0 3.912-7.772 6.555-11.549 7.649-10.928 16.203-18.457 27.11-23.863 13.447-6.665 25.951-6.938 44.119-.965 2.222.73 7.983 2.858 12.802 4.728 22.383 8.683 32.091 11.588 43.546 13.026 7.748.973 12.623.973 20.079 0 8.851-1.153 14.239-2.877 23.732-7.593 8.291-4.12 12.937-6.053 13.412-5.584.457.452-2.693 5.528-5.975 9.631-7.719 9.65-21.139 18.783-33.989 23.133-6.996 2.368-14.046 3.354-22.501 3.147l-7.1-.174-13.966 34.383c-7.681 18.911-17.767 43.597-22.414 54.857l-8.448 20.472-326.76.265zm-45.164-74.009c12.135-1.853 18.446-3.952 24.767-8.235 10.15-6.878 15.075-17.864 15.117-33.725.023-8.586-1.604-14.05-5.184-17.407-3.599-3.375-9.608-4.055-14.505-1.643-8.38 4.128-18.83 19.945-24.912 37.705-1.865 5.447-5.133 17.892-6.1 23.233l-.31 1.71 2.244-.312c1.235-.172 5.232-.768 8.883-1.326m43.631-89.45c-17.331-9.375-32.951-17.805-34.711-18.732-4.595-2.421-8.06-5.713-9.951-9.455-3.02-5.974-1.81-13.712 2.736-17.493C63.396 1.154 65.836.292 70.903.064c3.934-.177 5.306-.019 7.756.894 4.308 1.605 7.391 3.803 10.167 7.248 7.267 9.02 45.408 58.409 45.101 58.403-.199-.003-14.541-7.68-31.873-17.055"/></svg>