<svg xmlns="http://www.w3.org/2000/svg" width="1001" height="854" fill="none" viewBox="0 0 1001 854"><path fill="#0082fc" d="M322.25 550.867c0 88.987-72.138 161.126-161.125 161.126S0 639.854 0 550.867c0-88.986 72.138-161.125 161.125-161.125S322.25 461.881 322.25 550.867"/><path fill="#fff" d="m406.872 722.964 116.878-97.482c17.62 24.656 40.02 44.922 67.232 60.768s56.859 23.785 88.972 23.785c19.965 0 39.449-3.818 58.422-11.456 19.004-7.637 35.844-18.1 50.517-31.421s26.43-29.378 35.24-48.171 13.199-39.358 13.199-61.669c0-21.529-4.211-41.795-12.63-60.768s-19.965-35.541-34.638-49.613c-14.674-14.072-32.292-24.957-52.858-32.594q-30.85-11.456-65.489-11.456c-35.24 0-68.917 8.028-101 24.084v-95.736L728.096 144.48H446.803V0h510.924v96.31L805.039 284.235c57.551 22.311 104.427 57.372 140.659 105.12 36.203 47.779 54.332 103.766 54.332 167.962 0 45.012-8.235 85.755-24.652 122.138q-24.672 54.62-66.663 93.092c-27.994 25.648-61.281 45.612-99.829 59.895-38.548 14.282-79.559 21.439-123.037 21.439-52.861 0-103.166-11.155-150.944-33.466-47.779-22.28-90.478-54.755-128.033-97.452"/></svg>