<svg xmlns="http://www.w3.org/2000/svg" width="1890" height="786" fill="none" viewBox="0 0 1890 786"><path fill="#fff" d="M1890 315H0v471h1890z"/><path fill="#da291c" d="m211.029 636.092 86.894-.197-17.93 43.14H106.992l89.062-215.112h-32.117l17.93-42.943h118.224zM1585.18 421.177l-17.93 42.943h32.31l-89.25 215.309h173.19l17.74-43.14-86.9.197 26.8-65.007h87.09l17.54-42.549h-86.9l26.8-64.81h86.89l17.94-42.943zM1201.55 679.035h-85.91l89.25-215.309h-32.11l17.53-42.352 118.03-.197zM1465.38 504.109c-2.56 6.107-12.41 30.139-12.41 30.139-10.25 24.23-29.56 25.806-37.24 25.806-10.64 0-26.6.197-26.6.197l40-96.131h13c16.95 0 34.09 13.79 23.05 39.989m3.35-82.932h-139.3l-17.93 42.549h31.92l-89.07 214.718h85.72l31.72-76.628h66.21c40.78 0 85.51-31.125 102.26-73.477 17.14-43.338 5.12-107.359-71.72-107.359M1038.79 602.013c-10.05 25.214-22.66 33.291-38.22 33.291-28.97 0-27.393-28.761-22.073-41.762l70.933-172.168H932.587l-17.143 42.352h30.738s-14.778 38.216-40.59 99.677c-34.285 81.553 27.98 117.996 73.299 117.996 60.099 0 90.839-20.093 113.099-74.462 23.84-58.308 76.65-185.563 76.65-185.563h-54.19s-58.52 138.089-75.46 180.442M332.011 420.98l-17.733 42.943h21.871l-25.024 60.279s71.328-17.532 105.416-103.419h-84.333zM635.846 464.12l17.93-42.746h-75.86l8.867-21.866h-53.792l-9.064 21.866h-73.889l-17.931 42.943h32.117l-89.258 214.521h172.606l17.733-42.943h-86.697l26.798-64.81 85.909.394 18.521-42.746h-86.697l26.6-64.613zM807.664 503.518c-5.123 11.82-35.467 85.099-42.561 102.631l-12.61-18.32-35.27 24.624 15.763 22.457c-1.774.197-3.547.394-5.32.394-22.266 0-30.935-20.29-22.266-40.974 4.729-11.228 37.832-91.206 43.349-104.404s18.325-26.2 36.255-26.2c26.403 0 28.965 26.2 23.054 39.595m42.757-59.096c-46.698-43.338-126.893-31.322-179.503 26.79-52.412 58.309-57.338 140.65-10.639 183.988 26.6 24.82 64.234 31.518 101.278 21.865l18.324 26.397 35.27-24.624-13.201-19.108a174.8 174.8 0 0 0 37.634-31.321c52.413-58.309 57.339-140.65 10.64-184.184"/><path fill="#fff" d="M459.375 237.013C447.891 228.199 441 214.404 441 192.369V0h36.942v190.262c0 16.478 8.039 24.717 25.074 24.717v33.147c-17.035 0-31.391-1.724-43.449-11.113zM596.041 248.126v-15.711c-3.063 4.598-6.891 9.388-11.102 12.262-5.551 3.832-11.484 6.323-20.863 6.323-15.313 0-25.075-4.598-34.454-15.328-7.273-8.622-11.102-22.609-11.102-41.195 0-16.669 5.934-31.423 17.036-41.195 8.996-8.047 20.863-12.645 42.11-12.645h16.461v-25.484c0-13.603-6.317-21.268-17.801-21.268-5.551 0-9.379 2.108-12.25 5.174-3.829 4.215-5.551 9.388-5.551 17.052h-36.942c0-14.561 4.211-28.165 15.695-39.661 8.614-8.623 23.735-14.945 38.665-14.945s29.668 3.832 39.047 13.603c9.762 9.772 16.079 23.376 16.079 43.303v129.715zm-2.106-81.24h-12.25c-8.039 0-13.973.767-19.141 5.557-4.593 4.215-7.273 13.22-7.273 20.501 0 16.478 6.699 25.483 19.141 25.483 11.101 0 19.523-9.388 19.523-24.333zM793.766 237.396C784.387 246.785 771.18 251 754.718 251c-17.418 0-32.73-4.598-43.449-19.543-11.485-15.712-12.825-44.261-12.825-75.301s1.34-59.205 12.825-75.3c10.719-14.944 26.031-19.16 43.449-19.16 15.696 0 27.946 3.066 38.665 13.22 11.485 11.114 15.313 26.825 16.461 43.303h-36.559c-.383-5.94-.957-12.262-4.785-17.053-2.871-4.215-7.656-6.706-13.59-6.706-5.551 0-11.102 2.874-14.356 7.664-4.785 8.431-5.168 26.825-5.168 54.032 0 27.208.383 45.602 5.168 54.416 3.063 4.79 8.614 7.281 14.356 7.281 5.934 0 10.719-2.491 13.59-6.323 3.828-5.174 4.594-10.73 4.785-17.436h36.559c-.957 17.436-5.934 33.147-16.078 43.302M910.716 248.126V115.92c0-14.37-8.039-21.268-18.183-21.268s-18.184 6.898-18.184 21.268v132.206h-36.942V0h36.942v76.258c2.871-3.832 6.891-7.664 10.719-9.772 5.168-3.065 11.867-4.79 18.375-4.79 14.93 0 25.074 4.599 33.496 14.37 7.274 8.43 10.528 18.394 10.528 39.662v132.398h-36.942zM1051.78 248.126v-15.711c-3.06 4.598-6.89 9.388-11.1 12.262-5.55 3.832-11.48 6.323-20.86 6.323-15.31 0-25.075-4.598-34.454-15.328-7.274-8.622-11.102-22.609-11.102-41.195 0-16.669 5.934-31.423 17.035-41.195 9.001-8.047 20.861-12.645 42.111-12.645h16.46v-25.484c0-13.603-6.32-21.268-17.8-21.268-5.55 0-9.38 2.108-12.25 5.174-3.83 4.215-5.55 9.388-5.55 17.052h-36.943c0-14.561 4.211-28.165 15.695-39.661 8.618-8.623 23.738-14.945 38.668-14.945s29.66 3.832 39.04 13.603c9.77 9.772 16.08 23.376 16.08 43.303v129.715zm-2.1-81.24h-12.25c-8.04 0-13.97.767-19.14 5.557-4.6 4.215-7.28 13.22-7.28 20.501 0 16.478 6.7 25.483 19.15 25.483 11.1 0 19.52-9.388 19.52-24.333zM1119.73 41.003V.192h40.77v40.811zm2.11 207.123V69.36h36.94v178.766zM1268.08 248.126V115.92c0-14.37-8.04-21.268-18.19-21.268-10.14 0-18.18 6.898-18.18 21.268v132.206h-36.94V64.379h35.6v13.603c3.06-4.215 7.65-9.005 12.25-11.496 5.17-3.065 11.87-4.79 18.37-4.79 14.93 0 25.08 4.599 33.5 14.37 7.27 8.43 10.53 18.394 10.53 39.662v132.398zM1371.63 166.886c0 20.885.96 36.596 5.55 43.494 2.87 4.215 7.66 7.281 14.35 7.281 5.94 0 10.72-2.491 13.98-6.898 3.06-3.832 4.59-10.538 4.59-16.669h36.94c-.76 16.478-4.59 30.273-15.69 42.153-9.76 10.538-22.59 14.561-39.62 14.561-17.04 0-28.52-3.448-39.63-14.945-15.31-16.094-17.03-46.368-17.03-79.898 0-33.531 1.72-63.804 17.03-79.899 11.11-11.496 24.31-14.561 39.43-14.561 15.13 0 27.95 3.065 39.43 14.561 14.55 14.562 17.04 46.752 17.04 90.629h-75.99zm33.69-65.145c-3.07-4.598-7.28-7.28-14.36-7.28s-11.1 2.873-14.36 7.28c-3.82 5.557-5.16 16.478-5.16 37.938h39.04c0-21.652-1.34-32.381-5.16-37.938"/></svg>