<svg xmlns="http://www.w3.org/2000/svg" width="4000" height="4008" fill="none" viewBox="0 0 4000 4008"><path fill="#0e3497" d="M1710.68 0 4000 1718.75l-1718.62 2289.2L0 2285.42z"/><path fill="#000" d="M1710.65 3577.02 0 2285.42 1710.65.027z"/><path fill="#fff" d="M3128.08 2554c-53.3 0-105.41-15.72-149.82-45.18a270.9 270.9 0 0 1-99.86-120.46 270.8 270.8 0 0 1-16.58-155.57 270.88 270.88 0 0 1 72.21-138.79 244.4 244.4 0 0 1-49.23-124.81 244.354 244.354 0 0 1 114.24-231.36 244.5 244.5 0 0 1 129.04-36.83c45.61 0 90.31 12.76 129.05 36.83a244.4 244.4 0 0 1 90.15 99.38 244.34 244.34 0 0 1 24.09 131.98 244.4 244.4 0 0 1-49.23 124.81 270.74 270.74 0 0 1 72.3 138.8c9.92 52.37 4.16 106.5-16.56 155.61a270.9 270.9 0 0 1-99.91 120.48 270.94 270.94 0 0 1-149.89 45.11m0-364.18a93.3 93.3 0 0 0-51.83 15.72 93.3 93.3 0 0 0-34.36 41.86 93.287 93.287 0 0 0 20.23 101.64 93.3 93.3 0 0 0 47.76 25.52c18.1 3.6 36.86 1.75 53.9-5.31a93.26 93.26 0 0 0 57.59-86.16 93.4 93.4 0 0 0-27.35-65.92 93.44 93.44 0 0 0-65.94-27.35m0-328.65c-16.69 0-33.01 4.95-46.89 14.22a84.5 84.5 0 0 0-31.09 37.87 84.34 84.34 0 0 0-4.8 48.76 84.4 84.4 0 0 0 23.1 43.2 84.35 84.35 0 0 0 43.22 23.1 84.5 84.5 0 0 0 48.76-4.8 84.41 84.41 0 0 0 52.11-77.96 84.48 84.48 0 0 0-24.76-59.64 84.51 84.51 0 0 0-59.65-24.75M2528.36 2554v-657.3h-133.27v-195.41h310.96V2554zM1710.66 3084.9V1598.85h578.06v1486.02zM1132.6 1598.85v-577.91h1717.68v577.91z"/></svg>