<svg xmlns="http://www.w3.org/2000/svg" width="328" height="417" fill="none" viewBox="0 0 328 417"><path fill="url(#a)" d="M142.921 330.351c-.155-.458-.504-.677-.776-.487-.271.19-1.268-.473-2.214-1.473s-2.137-1.971-2.646-2.156c-.51-.185-1.936-1.382-3.169-2.661s-2.951-2.723-3.819-3.209-2.436-1.88-3.486-3.097c-1.051-1.216-3.096-3.287-4.546-4.601-2.988-2.709-5.449-5.494-8.736-9.886-1.247-1.666-2.705-3.553-3.241-4.193-.536-.641-2.189-3.309-3.673-5.931s-2.707-4.488-2.719-4.148c-.042 1.245-4.374-8.147-5.49-11.903-.632-2.128-1.49-4.257-1.908-4.73-1.02-1.154-3.426-10.654-4.2-16.576-.343-2.634-.82-4.789-1.059-4.789s-.434-5.978-.434-13.284c0-8.444.198-13.284.545-13.284.3 0 .546-.77.546-1.711 0-3.661 2.835-13.193 4.571-15.367.336-.421 1.225-1.767 1.975-2.991 3.253-5.306 5-7.734 5.565-7.734.332 0 1.448-1.116 2.478-2.48s3.51-3.79 5.508-5.392c1.999-1.601 3.879-3.223 4.179-3.604s1.498-1.335 2.662-2.122l2.116-1.43-.339-4.128c-.933-11.371-1.528-26.892-1.232-32.127.708-12.508 5.769-24.99 11.956-29.491 1.262-.918 2.418-1.688 2.568-1.712.15-.023.763-.341 1.364-.707.964-.588 2.486-1.137 5.182-1.87 2.82-.766 6.502-1.103 12.002-1.099 5.938.005 18.506.8 19.094 1.208.325.225.068-18.587-.28-20.444-.187-1.002-.943-1.465-3.39-2.077-1.732-.434-3.395-1.008-3.695-1.277s-1.589-.805-2.864-1.19c-2.245-.68-2.318-.782-2.318-3.21 0-1.378.429-3.245.954-4.149 1.778-3.058 2.32-4.105 2.858-5.514.294-.774.908-1.568 1.362-1.766s.827-.684.827-1.082c0-1.867 2.367-2.879 5.182-2.216 1.827.43 2.588-.214 3.64-3.082 1.121-3.055 1.139-3.07 6.107-5.09 2.741-1.115 5.351-2.028 5.801-2.029.68 0 .819 1.192.819 7.036v7.037l2.182.864c4.199 1.663 10.567 3.334 13.182 3.46 2.466.119 2.65.243 2.817 1.892.098.976-.048 1.606-.328 1.41-.279-.195-.815.813-1.193 2.24-.377 1.427-1.15 3.263-1.718 4.08-.567.816-1.033 1.794-1.036 2.173-.008 1.237-3.852 5.321-5.076 5.395-.656.039-1.561.108-2.011.154s-1.908-.267-3.241-.695c-1.526-.49-2.614-.562-2.939-.193-.285.322-.673 4.15-.864 8.509-.284 6.481-.568 8.402-1.562 10.56-1.439 3.128-1.45 3.218-.395 3.218.45 0 .818.217.818.483s1.166.848 2.591 1.294 3.696 1.187 5.046 1.646c4.365 1.483 21.459 5.28 22.241 4.94 1.172-.509 5.037.36 5.037 1.133 0 .985-3.934 9.926-4.478 10.177-.25.116-.797.958-1.214 1.872-.775 1.698-1.013 1.777-6.583 2.189-2.362.175-39.515-5.954-43.098-7.109-1.2-.388-6.478-1.453-11.729-2.369-8.506-1.483-9.586-1.559-9.906-.7-.197.53-1.241 1.89-2.319 3.022l-1.959 2.059v6.821c0 3.751.378 11.521.841 17.266s.705 10.696.538 11.002-1.221.893-2.342 1.305-3.25 1.406-4.731 2.208c-1.482.802-2.955 1.458-3.274 1.458-1.181.002-6.824 6.635-9.519 11.189-3.075 5.197-4.058 7.57-5.609 13.525-1.415 5.436-2.009 24.377-1.003 32.029 1.146 8.73 4.861 19.462 10.115 29.227 1.711 3.18 3.313 6.383 3.56 7.118s1.63 3.052 3.072 5.149 3.038 4.554 3.545 5.46c.506.906 1.243 2.052 1.636 2.545.394.495 1.408 1.885 2.254 3.09 2.462 3.508 8.098 10.512 10.408 12.935 1.17 1.227 2.398 2.599 2.728 3.048 1.107 1.505 2.303 2.877 4.186 4.803 1.029 1.052 2.806 3.074 3.949 4.493l2.08 2.581-4.807 6.624c-2.644 3.644-5.175 7.07-5.625 7.616a304 304 0 0 0-2.844 3.551c-2.076 2.626-4.427 3.311-5.05 1.471m39.176-4.092c-.329-.373-1.258-1.217-2.063-1.875a47 47 0 0 1-2.606-2.317c-.627-.616-1.287-1.12-1.467-1.12-.179 0-1.513-1.251-2.963-2.78-1.449-1.529-2.838-2.781-3.085-2.781-.474 0-15.28-16.593-15.28-17.125 0-.316-1.287-2.025-3.955-5.252-.825-.998-1.5-1.983-1.5-2.19s-.525-1.009-1.167-1.783-1.44-1.927-1.773-2.563c-1.13-2.156-4.875-8.465-5.209-8.776-.743-.691-2.216-3.723-2.216-4.561 0-.493-.204-.99-.453-1.103-.716-.326-7.185-15.442-7.185-16.789 0-.383-.709-2.315-2.758-7.513-1.007-2.554-1.436-28.584-.527-32.017 1.165-4.408 7.442-18.127 10.045-21.959 2.434-3.582 8.629-10.282 9.508-10.282.227 0 2.245-1.462 4.484-3.249 10.701-8.543 14.34-10.804 16.411-10.199 2.434.711 6.467 3.966 9.168 7.397 4.627 5.881 7.678 14.804 7.678 22.46v3.873l-4.228 4.704c-5.852 6.509-9.234 9.515-10.223 9.085-.561-.244-.824-1.218-.824-3.048 0-5.1-3.29-13.895-7.62-20.372-3.241-4.848-3.588-5.163-6.736-6.116-3.54-1.073-5.71.24-7.665 4.638-1.215 2.732-1.465 4.283-1.754 10.908-.415 9.491.369 19.989 1.892 25.332l1.761 6.179c.96 3.362 7.986 20.443 8.641 21.007.197.17.682 1.212 1.076 2.317.394 1.104.933 2.008 1.197 2.008.263 0 .479.522.479 1.16s.368 1.506.818 1.929.819 1.118.819 1.545.393 1.145.875 1.598c.481.452 1.094 1.39 1.362 2.084.514 1.33 1.667 3.52 2.127 4.041.775.877 2.728 4.351 2.728 4.852 0 .317.368.737.818.932s.818.758.818 1.251.184.987.409 1.1 1.388 1.596 2.583 3.296c3.565 5.066 12.252 14.994 16.921 19.336 2.4 2.232 4.578 4.264 4.84 4.516s-.045 1.287-.682 2.3-1.158 2.024-1.158 2.247c0 .474-3.462 5.806-7.637 11.761-1.746 2.49-3.565 3.227-4.724 1.914m17.271-28.47c0-.29 2.079-5.385 6.879-16.859 1.317-3.149 2.395-6.138 2.395-6.642s.206-.916.458-.916.779-1.182 1.17-2.626a57 57 0 0 1 1.691-5.097c.54-1.36 1.157-3.287 1.371-4.284s.717-2.526 1.119-3.398.733-2.351.734-3.285.22-1.699.485-1.699c.264 0 .759-1.182 1.1-2.626a392 392 0 0 1 1.49-6.025c.478-1.869 1.06-4.649 1.293-6.178a297 297 0 0 1 1.092-6.488c.968-5.367-.266-18.861-2.147-23.478-.277-.68-.925-2.765-1.439-4.634-.515-1.869-2.096-6.179-3.514-9.577-2.87-6.876-3.812-9.384-3.812-10.152 0-1.244 8.744-10.546 9.914-10.546.778 0 3.736 4.063 4.947 6.796.678 1.529 1.373 2.92 1.543 3.089 1.13 1.125 4.454 14.031 5.442 21.126.931 6.693.384 21.136-1.014 26.758-.591 2.379-1.497 5.994-2.013 8.033-1.084 4.285-6.243 19.004-6.821 19.462-.215.17-1.568 3.089-3.007 6.488-1.439 3.398-2.79 6.317-3.002 6.487-.213.17-.939 1.561-1.613 3.09-.675 1.529-1.777 3.614-2.45 4.634-.672 1.019-1.767 3.065-2.433 4.545-.666 1.481-1.929 3.487-2.807 4.459s-1.596 2.193-1.596 2.714-.184.961-.409.977-1.268 1.403-2.318 3.082c-1.667 2.666-2.728 3.743-2.728 2.77m-11.502-33.376c.313-.68 1.265-2.904 2.115-4.943s1.817-4.263 2.148-4.943c1.974-4.044 4.9-12.836 5.965-17.918 2.916-13.921 2.011-24.671-3.017-35.835-1.377-3.059-2.878-6.084-3.334-6.723-3.079-4.308-5.182-7.003-6.123-7.846-1.062-.951-1.007-1.082 2.226-5.252 1.823-2.352 4.408-5.503 5.742-7.002 2.329-2.616 2.479-2.688 3.695-1.766 1.89 1.432 7.09 7.294 8.526 9.612 1.938 3.126 5.015 10.063 5.015 11.305 0 .611.224 1.268.497 1.459 1.038.726 1.82 9.322 1.547 16.999-.219 6.136-.585 8.843-1.762 13.001-2.816 9.946-7.505 19.258-15.557 30.894-2.225 3.216-8.299 10.298-7.683 8.958m9.593-100.402c-.6-.292-2.424-.551-4.053-.574-1.629-.024-3.716-.302-4.637-.617-2.45-.837-11.315-2.516-13.283-2.516-.932 0-1.825-.239-1.984-.531s-1.678-.716-3.376-.942c-5.632-.749-7.317-3.431-5.408-8.606.749-2.028 5.736-8.678 5.736-7.647 0 .25.562.037 1.249-.472.907-.673 2.213-.848 4.773-.64 4.494.365 15.147 2.386 21.255 4.033 10.866 2.929 18.089 4.439 24.959 5.215 4.664.528 4.958 1.229 2.331 5.554-3.24 5.332-5.052 6.74-9.709 7.542-4.909.846-16.266.973-17.853.201"/><path fill="url(#b)" d="M140.613 326.156c-.158-.448-.515-.662-.793-.476-.277.186-1.295-.462-2.261-1.441s-2.184-1.927-2.704-2.108c-.521-.18-1.978-1.351-3.238-2.602-1.259-1.25-3.015-2.662-3.901-3.138s-2.489-1.838-3.562-3.028-3.163-3.214-4.644-4.499c-3.053-2.649-5.567-5.372-8.925-9.667-1.273-1.629-2.763-3.474-3.311-4.1s-2.236-3.236-3.752-5.799-2.766-4.388-2.778-4.056c-.043 1.218-4.469-7.967-5.609-11.639-.646-2.082-1.523-4.163-1.95-4.625-1.04-1.129-3.5-10.418-4.29-16.209-.35-2.576-.838-4.683-1.082-4.683s-.444-5.845-.444-12.989c0-8.257.203-12.989.558-12.989.306 0 .557-.753.557-1.674 0-3.579 2.897-12.9 4.67-15.026.344-.412 1.252-1.728 2.018-2.924 3.323-5.189 5.108-7.563 5.685-7.563.34 0 1.479-1.091 2.532-2.425s3.585-3.706 5.627-5.272 3.963-3.152 4.27-3.524c.306-.373 1.53-1.306 2.719-2.076l2.162-1.398-.347-4.037c-.953-11.118-1.561-26.295-1.258-31.413.723-12.231 5.893-24.437 12.215-28.838 1.289-.898 2.469-1.651 2.622-1.674s.781-.334 1.394-.691c.985-.575 2.541-1.112 5.295-1.828 2.881-.75 6.642-1.08 12.261-1.075 6.066.004 18.906.782 19.507 1.181.333.22.069-18.175-.286-19.991-.191-.98-.963-1.432-3.463-2.031-1.77-.424-3.468-.985-3.775-1.248s-1.623-.787-2.926-1.165c-2.293-.664-2.369-.764-2.369-3.137 0-1.349.439-3.174.976-4.058 1.815-2.99 2.37-4.014 2.919-5.392.301-.756.927-1.533 1.392-1.726s.844-.67.844-1.059c0-1.825 2.419-2.814 5.295-2.166 1.867.42 2.643-.21 3.718-3.014 1.146-2.988 1.164-3.002 6.24-4.978 2.8-1.09 5.467-1.982 5.926-1.983.695 0 .836 1.166.836 6.88v6.88l2.23.845c4.29 1.627 10.795 3.26 13.467 3.384 2.519.116 2.708.237 2.878 1.85.101.954-.049 1.57-.335 1.379-.285-.19-.833.795-1.219 2.19-.385 1.395-1.175 3.19-1.755 3.989s-1.055 1.755-1.058 2.126c-.009 1.209-3.936 5.203-5.186 5.274-.67.038-1.595.106-2.055.151s-1.949-.26-3.311-.68c-1.559-.479-2.67-.548-3.003-.188-.29.315-.687 4.059-.883 8.32-.29 6.338-.58 8.216-1.595 10.326-1.47 3.059-1.482 3.147-.404 3.147.46 0 .836.212.836.472s1.191.829 2.647 1.266c1.457.436 3.776 1.16 5.156 1.608 4.459 1.451 21.923 5.164 22.722 4.831 1.197-.497 5.145.353 5.145 1.108 0 .964-4.019 9.706-4.574 9.952-.256.113-.814.937-1.241 1.83-.791 1.66-1.035 1.737-6.725 2.141-2.413.171-40.37-5.822-44.03-6.952-1.227-.379-6.619-1.421-11.983-2.316-8.691-1.45-9.794-1.525-10.121-.685-.201.518-1.267 1.848-2.368 2.955l-2.002 2.013v6.67c0 3.668.386 11.266.859 16.884.473 5.617.72 10.458.55 10.757-.171.299-1.247.873-2.393 1.277s-3.32 1.374-4.833 2.158-3.019 1.426-3.345 1.427c-1.206.001-6.972 6.487-9.724 10.94-3.142 5.082-4.147 7.402-5.731 13.225-1.446 5.316-2.052 23.836-1.025 31.319 1.171 8.536 4.966 19.03 10.334 28.579 1.748 3.109 3.385 6.241 3.637 6.96.253.718 1.665 2.984 3.139 5.035 1.474 2.05 3.103 4.453 3.621 5.339s1.27 2.006 1.672 2.489 1.438 1.842 2.302 3.021c2.516 3.43 8.274 10.279 10.634 12.648 1.195 1.2 2.449 2.541 2.787 2.98 1.131 1.472 2.352 2.813 4.276 4.697 1.051 1.028 2.867 3.006 4.035 4.394l2.124 2.523-4.911 6.477c-2.701 3.563-5.287 6.914-5.747 7.447s-1.767 2.096-2.904 3.473c-2.122 2.567-4.523 3.237-5.16 1.438m40.024-4.001c-.336-.365-1.285-1.19-2.109-1.834a47 47 0 0 1-2.661-2.266c-.641-.602-1.315-1.095-1.499-1.095s-1.546-1.223-3.027-2.718c-1.481-1.496-2.9-2.719-3.152-2.719-.485 0-15.61-16.226-15.61-16.745 0-.31-1.315-1.981-4.041-5.136-.843-.976-1.533-1.94-1.533-2.142s-.536-.987-1.192-1.743-1.471-1.885-1.811-2.507c-1.154-2.107-4.98-8.277-5.322-8.581-.759-.675-2.264-3.64-2.264-4.459 0-.483-.209-.968-.463-1.079-.732-.318-7.34-15.099-7.34-16.417 0-.374-.725-2.263-2.818-7.346-1.029-2.498-1.467-27.951-.539-31.308 1.191-4.309 7.604-17.724 10.263-21.471 2.487-3.503 8.816-10.054 9.714-10.054.232 0 2.293-1.429 4.58-3.177 10.934-8.354 14.651-10.565 16.767-9.973 2.486.695 6.607 3.878 9.366 7.233 4.727 5.75 7.844 14.476 7.844 21.962v3.788l-4.319 4.598c-5.979 6.366-9.434 9.304-10.444 8.884-.573-.238-.843-1.191-.843-2.98 0-4.987-3.361-13.587-7.784-19.92-3.311-4.741-3.666-5.049-6.882-5.981-3.616-1.049-5.833.235-7.831 4.535-1.241 2.672-1.496 4.188-1.792 10.666-.423 9.281.377 19.546 1.933 24.771l1.8 6.042c.98 3.287 8.158 19.99 8.827 20.541.202.166.697 1.186 1.1 2.266.403 1.079.953 1.963 1.222 1.963s.49.51.49 1.134.376 1.473.836 1.887.836 1.093.836 1.51.402 1.12.894 1.563 1.118 1.359 1.392 2.037c.525 1.301 1.703 3.443 2.173 3.952.791.858 2.786 4.255 2.786 4.744 0 .311.377.721.836.912.46.191.836.742.836 1.223s.188.965.418 1.076 1.418 1.561 2.639 3.222c3.642 4.954 12.517 14.662 17.287 18.908 2.452 2.182 4.677 4.17 4.945 4.416.267.246-.046 1.258-.697 2.248s-1.183 1.98-1.183 2.198c0 .463-3.537 5.677-7.803 11.5-1.783 2.435-3.642 3.156-4.825 1.872m17.644-27.839c0-.284 2.124-5.265 7.028-16.485 1.346-3.08 2.447-6.002 2.447-6.495s.211-.896.468-.896c.258 0 .795-1.155 1.194-2.567a55 55 0 0 1 1.729-4.985c.551-1.329 1.181-3.214 1.4-4.189.218-.974.733-2.47 1.144-3.322.41-.853.748-2.299.75-3.212s.224-1.662.494-1.662.776-1.155 1.124-2.568a379 379 0 0 1 1.522-5.89c.489-1.828 1.084-4.546 1.322-6.042.237-1.495.739-4.35 1.115-6.343.989-5.249-.271-18.444-2.193-22.958-.283-.665-.945-2.704-1.47-4.532-.526-1.827-2.142-6.041-3.591-9.364-2.931-6.724-3.893-9.176-3.893-9.927 0-1.216 8.933-10.312 10.128-10.312.795 0 3.817 3.973 5.054 6.645.693 1.496 1.402 2.855 1.576 3.021 1.154 1.1 4.55 13.719 5.559 20.657.952 6.544.393 20.668-1.035 26.166-.604 2.326-1.53 5.86-2.057 7.854-1.107 4.189-6.378 18.582-6.969 19.03-.219.167-1.601 3.021-3.071 6.344s-2.85 6.178-3.067 6.344-.959 1.525-1.648 3.021c-.69 1.495-1.816 3.534-2.503 4.531s-1.806 2.997-2.486 4.445c-.68 1.447-1.97 3.409-2.867 4.359s-1.63 2.145-1.63 2.654c0 .51-.189.94-.418.955-.23.016-1.296 1.372-2.369 3.015-1.703 2.606-2.787 3.66-2.787 2.708m-11.75-32.636c.319-.665 1.291-2.84 2.16-4.833.868-1.994 1.856-4.169 2.195-4.833 2.016-3.955 5.006-12.552 6.093-17.521 2.979-13.612 2.055-24.124-3.082-35.041-1.407-2.991-2.94-5.949-3.406-6.574-3.146-4.213-5.294-6.847-6.256-7.671-1.084-.93-1.028-1.058 2.275-5.136 1.863-2.3 4.503-5.381 5.866-6.847 2.379-2.558 2.533-2.628 3.774-1.727 1.931 1.4 7.244 7.132 8.712 9.399 1.979 3.057 5.123 9.84 5.123 11.054 0 .598.229 1.24.508 1.427 1.06.71 1.859 9.115 1.58 16.622-.223 6-.598 8.647-1.8 12.713-2.877 9.725-7.667 18.831-15.893 30.209-2.274 3.144-8.479 10.069-7.849 8.759m9.799-98.176c-.613-.285-2.476-.538-4.14-.561s-3.796-.295-4.738-.603c-2.502-.818-11.559-2.461-13.57-2.461-.952 0-1.864-.233-2.026-.519-.163-.285-1.715-.699-3.449-.92-5.754-.733-7.476-3.355-5.525-8.416.764-1.983 5.86-8.486 5.86-7.478 0 .245.574.037 1.275-.461.927-.658 2.261-.829 4.877-.626 4.591.357 15.475 2.333 21.715 3.944 11.101 2.864 18.48 4.34 25.499 5.1 4.764.515 5.065 1.201 2.381 5.43-3.31 5.214-5.161 6.591-9.919 7.375-5.015.827-16.618.952-18.24.196"/><path fill="url(#c)" d="M10.037 413.745c-12.639-5.058-13.509-10.637-1.659-10.637 5.894 0 68.957-19.781 140.14-43.958 101.454-34.459 132.376-45.895 138.464-52.916 8.84-10.195 9.2-28.76 8.25-90.667-.204-13.265-.468-28.519-.721-46.107-.518-35.958-.077-56.14-.174-68.352-.098-12.284-.742-16.506-3.455-20.61-6.843-10.35-3.918-12.677-150.153-55.67C94.636 11.275 59.585.104 62.838.002c15.381-.48 236.466 52.72 245.069 58.972 20.998 15.259 19.271 20.585 19.277 141.718.006 122.203 1.451 129.516-18.823 141.746-6.109 3.685-32.283 11.92-58.165 18.298-25.882 6.379-85.463 21.706-132.401 34.06-87.366 22.995-94.51 24.251-107.758 18.948"/><defs><linearGradient id="a" x1="236.087" x2="342.584" y1="150.418" y2="80.26" gradientUnits="userSpaceOnUse"><stop stop-color="#ad0202"/><stop offset=".275" stop-color="#bf0101"/><stop offset=".366" stop-color="#d20000"/><stop offset="1" stop-color="red" stop-opacity=".66"/></linearGradient><linearGradient id="c" x1="192.125" x2="342.464" y1="272.82" y2="-1.047" gradientUnits="userSpaceOnUse"><stop stop-color="#e11"/><stop offset=".5" stop-color="red" stop-opacity=".796"/><stop offset="1" stop-color="#ca0000"/></linearGradient><radialGradient id="b" cx="0" cy="0" r="1" gradientTransform="matrix(84.3335 79.6996 -190.72 197.809 123.442 223.12)" gradientUnits="userSpaceOnUse"><stop stop-color="red"/><stop offset=".5" stop-color="#ff0202" stop-opacity=".794"/><stop offset="1" stop-color="#a90808" stop-opacity="0"/></radialGradient></defs></svg>