<svg width="687" height="304" viewBox="0 0 687 304" fill="none" xmlns="http://www.w3.org/2000/svg">
<path d="M305.18 64.67C305.18 55.82 304.63 49.84 303.53 46.73C302.43 43.62 300.27 40.67 297.05 37.88C293.83 35.09 289.46 33.04 283.94 31.72C278.41 30.41 272.35 29.75 265.76 29.75C245.66 29.75 232.45 35.61 226.12 47.32V30.23C224.14 30.02 222.58 29.91 221.45 29.91C210.3 29.91 203.19 36.05 200.13 48.33V31.44H173.43V113.25H204.16V75.77C204.16 63.92 209.47 57.99 220.09 57.99C221.86 57.99 223.87 58.26 226.12 58.8V55.71L252.33 58.16C253.19 52.21 257.32 49.23 264.72 49.23C267.88 49.23 270.28 49.82 271.92 51C273.56 52.18 274.37 54.57 274.37 58.16V60.01C254.37 61.08 240.44 64.29 232.58 69.62C224.72 74.96 220.8 81.94 220.8 90.57C220.8 96.95 223.2 102.61 228 107.54C232.8 112.47 240.02 114.94 249.68 114.94C261.42 114.94 270.19 110.57 275.98 101.83C275.98 105.96 276.36 109.77 277.11 113.25H307.68C306.02 108.85 305.19 103.54 305.19 97.32V64.66L305.18 64.67ZM274.37 78.91C274.37 85.88 273.16 90.39 270.75 92.42C268.34 94.46 265.41 95.48 261.98 95.48C256.56 95.48 253.85 93.01 253.85 88.08C253.85 80.79 260.69 76.41 274.36 74.97V78.91H274.37Z" fill="white"/>
<path d="M359.05 38.13C353.79 31.96 347.12 28.88 339.02 28.88C329.31 28.88 321.51 32.74 315.61 40.46C309.71 48.18 306.76 58.61 306.76 71.75C306.76 85.8 309.7 96.51 315.57 103.88C321.44 111.25 329.09 114.94 338.53 114.94C348.77 114.94 356.12 110.76 360.57 102.39V113.25H390.65V3.46H359.04V38.13H359.05ZM359.05 80.92C359.05 85.21 358.15 88.4 356.35 90.49C354.55 92.58 352.37 93.63 349.79 93.63C343.03 93.63 339.65 87.01 339.65 73.76C339.65 67 340.31 61.29 341.62 56.63C342.93 51.96 345.71 49.63 349.94 49.63C356 49.63 359.03 53.31 359.03 60.65V80.92H359.05Z" fill="white"/>
<path d="M428.62 0H396.52V25.42H428.62V0Z" fill="white"/>
<path d="M428.62 31.45H396.52V113.26H428.62V31.45Z" fill="white"/>
<path d="M507.63 41.83C499.45 33.79 488.63 29.76 475.17 29.76C461.71 29.76 450.97 33.84 442.63 41.99C434.29 50.14 430.12 60.33 430.12 72.55C430.12 83.92 434.11 93.83 442.11 102.27C450.1 110.72 460.88 114.94 474.45 114.94C488.02 114.94 499.18 110.85 507.47 102.67C515.76 94.49 519.9 84.29 519.9 72.06C519.9 59.83 515.81 49.86 507.63 41.82V41.83ZM484.06 87.72C482.96 92.89 479.92 95.48 474.93 95.48C471.39 95.48 468.74 93.97 466.96 90.94C465.19 87.91 464.31 81.7 464.31 72.32C464.31 64.33 465.17 58.59 466.88 55.11C468.59 51.63 471.31 49.88 475.01 49.88C479.03 49.88 481.82 51.57 483.38 54.95C484.93 58.33 485.71 63.85 485.71 71.52C485.71 77.15 485.16 82.55 484.06 87.73V87.72Z" fill="white"/>
<path d="M170.22 299.5H101.83V189.79C101.83 180.76 100.43 174.99 97.63 172.48C94.83 169.97 91.31 168.71 87.09 168.71C74.63 168.71 68.41 177.4 68.41 194.77V299.5H0V125.17H63.43V149.86C72.8 131 89.54 121.58 113.66 121.58C126.34 121.58 137.06 124.01 145.8 128.86C154.54 133.72 160.8 140 164.57 147.72C168.34 155.44 170.23 168.84 170.23 187.92V299.51L170.22 299.5Z" fill="white"/>
<path d="M267.89 303.1C238.98 303.1 216.01 294.1 198.98 276.1C181.95 258.1 173.44 236.99 173.44 212.76C173.44 186.7 182.32 165 200.1 147.62C217.87 130.25 240.98 121.57 269.43 121.57C297.88 121.57 321.17 130.14 338.6 147.28C356.03 164.42 364.74 185.91 364.74 211.73C364.74 237.55 355.91 259.53 338.26 276.95C320.6 294.38 297.15 303.09 267.89 303.09V303.1ZM268.92 261.62C279.55 261.62 286.03 256.11 288.38 245.08C290.72 234.05 291.89 222.54 291.89 210.54C291.89 194.2 290.23 182.43 286.92 175.23C283.6 168.03 277.66 164.43 269.09 164.43C261.2 164.43 255.43 168.14 251.78 175.57C248.12 183 246.3 195.23 246.3 212.25C246.3 232.25 248.19 245.48 251.96 251.93C255.73 258.39 261.39 261.62 268.93 261.62H268.92Z" fill="white"/>
<path d="M523.13 125.17L459.28 299.5H408.2L342.89 125.17H413.17L438.13 199.21C440.19 205.27 442.03 211.26 443.64 217.2C444.21 215.14 445.06 212.52 446.2 209.32C446.42 208.86 447.16 206.69 448.42 202.81L474.03 125.17H523.14H523.13Z" fill="white"/>
<path d="M686.75 299.5H621.61C620.01 292.07 619.2 283.96 619.2 275.16C606.86 293.79 588.18 303.1 563.15 303.1C542.58 303.1 527.18 297.84 516.95 287.33C506.72 276.82 501.61 264.76 501.61 251.16C501.61 232.76 509.98 217.88 526.72 206.5C543.46 195.13 573.14 188.3 615.77 186.02V182.08C615.77 174.43 614.03 169.34 610.54 166.83C607.05 164.32 601.94 163.06 595.2 163.06C579.43 163.06 570.63 169.4 568.8 182.09L506.4 176.26C515.31 139.81 545.65 121.58 597.42 121.58C611.47 121.58 624.38 122.98 636.16 125.78C647.92 128.58 657.25 132.95 664.1 138.89C670.95 144.83 675.56 151.12 677.9 157.75C680.24 164.38 681.42 177.12 681.42 195.97V265.57C681.42 278.83 683.19 290.14 686.73 299.51L686.75 299.5ZM615.79 217.91C586.64 220.99 572.08 230.31 572.08 245.85C572.08 256.36 577.85 261.62 589.4 261.62C596.71 261.62 602.94 259.45 608.08 255.11C613.22 250.77 615.79 241.17 615.79 226.31V217.91Z" fill="white"/>
</svg>
