<svg width="80" height="56" viewBox="0 0 80 56" fill="none" xmlns="http://www.w3.org/2000/svg">
<path d="M80 0H0V55.768H80V0Z" fill="#E00D1D"/>
<path d="M63.429 40.707V8.261H54.263V47.838H71.271V40.707H63.429Z" fill="white"/>
<path d="M31.761 12.486C30.961 9.842 26.754 8.261 21.188 8.261H10.39V47.838H19.363V30.174H20.946C22.526 30.174 24.634 31.217 24.634 34.381V44.154C24.634 46.515 26.215 47.838 26.215 47.838H34.928C34.928 47.838 33.091 46.797 33.091 44.154V34.117C33.091 30.433 29.923 28.05 28.339 27.528C29.659 26.731 31.502 25.947 32.564 24.102C33.57 22.335 33.605 16.174 33.091 15.39H38.353V47.836H47.329V15.391H53.469V8.262H31.761V12.486ZM21.206 24.102H19.363V15.129H21.206C23.406 15.129 24.634 16.715 24.634 19.614C24.633 22.783 23.533 24.102 21.206 24.102Z" fill="white"/>
</svg>
