<svg width="487" height="307" viewBox="0 0 487 307" fill="none" xmlns="http://www.w3.org/2000/svg">
<path d="M255.221 305.608L228.589 263.377V305.608H208.727V229.203H231.908L258.421 271.344V229.203H278.305V305.608H255.221Z" fill="#FF4600"/>
<path d="M372.51 276.42H336.36V305.558L314.814 305.51V229.153H380.907V248.4H336.36V258.242H372.51V276.42Z" fill="#FF4600"/>
<path d="M150.122 285.618V249.193H172.538V229.203H105.75V249.193H128.165V285.618H105.75V305.608H172.538V285.618H150.122Z" fill="#FF4600"/>
<path d="M487 273.069C487 278.007 486.193 282.564 484.586 286.724C482.978 290.892 480.648 294.469 477.608 297.47C474.567 300.47 470.859 302.804 466.49 304.485C462.121 306.16 457.69 307 452.214 307C446.738 307 441.381 306.16 437.117 304.485C432.859 302.811 429.269 300.464 426.361 297.449C423.446 294.435 421.234 290.85 419.71 286.704C418.187 282.557 417.428 278.014 417.428 273.076V261.851C417.428 256.912 418.187 252.356 419.71 248.196C421.234 244.035 423.446 240.444 426.361 237.422C429.269 234.408 432.852 232.054 437.089 230.359C441.326 228.664 446.738 227.816 452.214 227.816C457.69 227.816 462.128 228.664 466.49 230.359C470.859 232.054 474.567 234.408 477.608 237.422C480.648 240.437 482.978 244.028 484.586 248.196C486.193 252.363 487 256.912 487 261.851V273.076V273.069ZM465.071 267.144C465.071 264.282 464.82 261.643 464.319 259.233C463.819 256.822 463.032 254.746 461.968 253.009C460.897 251.273 459.526 249.918 457.856 248.932C456.179 247.952 454.593 247.459 452.214 247.459C449.835 247.459 447.463 247.952 445.876 248.932C444.29 249.912 443.01 251.273 442.05 253.009C441.083 254.746 440.394 256.822 439.976 259.233C439.559 261.643 439.357 264.282 439.357 267.144V267.505C439.357 270.332 439.566 272.958 439.976 275.368C440.394 277.778 441.083 279.869 442.05 281.64C443.017 283.411 444.29 284.793 445.876 285.787C447.463 286.787 449.835 287.28 452.214 287.28C454.593 287.28 456.179 286.78 457.856 285.787C459.526 284.793 460.89 283.418 461.947 281.661C462.997 279.911 463.784 277.827 464.299 275.416C464.813 273.006 465.078 270.367 465.078 267.505V267.144H465.071Z" fill="#FF4600"/>
<path d="M279.544 47.3017C279.544 18.3512 236.388 27.8601 236.388 27.8601L238.12 20.164L274.632 20.1224V0L220.032 0.0347296L212.024 44.9123C213.743 44.572 256.355 35.6256 256.355 47.2809C256.355 66.0072 210.702 52.3028 210.702 52.3028L207.488 70.3206C207.488 70.3206 219.914 76.405 236.479 76.405C262.979 76.405 279.544 65.3266 279.544 47.3017Z" fill="#FFF7F4"/>
<path d="M69.5839 19.9904H47.8639V76.3979H21.7328L21.7676 19.9834H0.0125147V0H69.5839V19.9904Z" fill="#FFF7F4"/>
<path d="M153.874 76.405L175.991 0H152.141L139.117 48.1075L126.1 0H102.251L124.368 76.405H153.874Z" fill="#FFF7F4"/>
<path d="M28.3365 165.536L19.8696 151.102V191.007H0V114.601H23.1813L34.7859 136.689L46.3904 114.601H69.5717V191.007H49.702V151.102L41.2351 165.536H28.3365Z" fill="#FFF7F4"/>
<path d="M255.215 191.007L228.583 148.775V191.007H208.72V114.601H231.902L258.416 156.743V114.601H278.299V191.007H255.215Z" fill="#FFF7F4"/>
<path d="M476.594 161.903H440.445V171.732H484.992V191.007H418.899V114.601H484.992V133.855H440.445V143.705H476.594V161.903Z" fill="#FFF7F4"/>
<path d="M174.277 158.467C174.277 163.406 173.47 167.963 171.863 172.123C170.255 176.291 167.925 179.868 164.884 182.868C161.844 185.869 158.136 188.203 153.767 189.884C149.398 191.558 144.966 192.398 139.491 192.398C134.016 192.398 128.658 191.558 124.394 189.884C120.136 188.21 116.546 185.862 113.638 182.848C110.723 179.833 108.511 176.249 106.987 172.102C105.464 167.956 104.705 163.413 104.705 158.475V147.25C104.705 142.311 105.464 137.755 106.987 133.594C108.511 129.433 110.723 125.843 113.638 122.821C116.546 119.806 120.129 117.452 124.366 115.757C128.603 114.062 134.016 113.215 139.491 113.215C144.966 113.215 149.405 114.062 153.767 115.757C158.136 117.452 161.844 119.806 164.884 122.821C167.925 125.836 170.255 129.427 171.863 133.594C173.47 137.761 174.277 142.311 174.277 147.25V158.475V158.467ZM152.348 152.543C152.348 149.681 152.097 147.041 151.596 144.631C151.096 142.221 150.31 140.144 149.245 138.407C148.174 136.671 146.803 135.317 145.133 134.331C143.456 133.351 141.87 132.858 139.491 132.858C137.112 132.858 134.739 133.351 133.153 134.331C131.567 135.31 130.287 136.671 129.327 138.407C128.359 140.144 127.671 142.221 127.253 144.631C126.836 147.041 126.634 149.681 126.634 152.543V152.904C126.634 155.731 126.843 158.356 127.253 160.767C127.671 163.177 128.359 165.268 129.327 167.039C130.294 168.81 131.567 170.192 133.153 171.186C134.739 172.186 137.112 172.679 139.491 172.679C141.87 172.679 143.456 172.179 145.133 171.186C146.803 170.192 148.167 168.817 149.224 167.06C150.274 165.309 151.061 163.225 151.576 160.815C152.09 158.405 152.355 155.766 152.355 152.904V152.543H152.348Z" fill="#FFF7F4"/>
<path d="M313.049 114.652H348.162C358.132 114.61 367.308 117.799 374.098 124.494C380.707 131.086 383.894 140.136 383.866 149.763V156.063C383.908 165.67 380.694 174.664 374.182 181.277C371.121 184.375 367.448 186.778 363.155 188.494C358.862 190.21 351.578 191.064 346.395 191.064H313.049V114.652ZM336.349 134.406V171.213C340.432 171.094 347.627 171.768 351.244 169.983C357.909 167.191 360.441 160.162 360.386 153.09C360.601 145.916 357.951 138.567 351.063 135.719C347.466 133.899 340.481 134.489 336.356 134.406H336.349Z" fill="#FFF7F4"/>
</svg>
