<svg width="94" height="95" viewBox="0 0 94 95" fill="none" xmlns="http://www.w3.org/2000/svg">
<path d="M67.104 10.66L76.012 51.871L57.319 51.504L54.34 39.018L30.73 38.999L24.131 52.198L5.275 52.262L5.091 52.931L11.521 68.732C10.732 68.745 9.943 68.742 9.153 68.732C8.726 67.489 8.226 66.273 7.789 65.034C5.383 65.102 0.718002 64.866 0.718002 64.866C0.718002 64.866 26.249 77.7 39.09 83.942C39.142 79.977 39.114 76.009 39.101 72.043C37.768 72.015 36.436 72.035 35.104 72.029C35.105 71.37 35.105 70.712 35.104 70.052C38.53 69.996 41.961 70.023 45.388 70.041C45.394 70.704 45.394 71.369 45.387 72.032C44.053 72.036 42.72 72.013 41.388 72.046C41.398 76.407 41.365 80.768 41.404 85.128L59.153 94.255L71.661 68.86C64.762 70.227 59.457 62.759 62.761 56.642C65.666 50.758 74.611 50.931 77.532 56.719L93.188 24.592L67.104 10.66ZM21.49 68.732C19.474 66.554 17.513 64.317 15.431 62.201C15.379 64.382 15.461 66.566 15.388 68.746C14.672 68.737 13.956 68.737 13.24 68.746C13.177 63.343 13.213 57.938 13.23 52.534C13.23 52.534 19.56 51.797 21.816 54.044C24.598 57.012 22.65 61.991 18.615 62.381C20.551 64.554 22.621 66.609 24.597 68.746C23.56 68.731 22.525 68.747 21.49 68.732ZM34.284 54.643C32.269 54.663 30.256 54.628 28.242 54.662C28.219 56.267 28.221 57.873 28.241 59.479C30.255 59.509 32.267 59.492 34.28 59.487C34.283 60.192 34.283 60.898 34.281 61.604C32.271 61.651 30.26 61.614 28.25 61.623C28.215 63.286 28.215 64.949 28.251 66.612C30.261 66.612 32.272 66.579 34.282 66.626C34.282 67.333 34.281 68.04 34.278 68.748C31.528 68.733 28.779 68.738 26.029 68.744C26.044 63.343 26.049 57.942 26.026 52.541C28.778 52.521 31.53 52.53 34.283 52.536C34.282 53.237 34.282 53.941 34.284 54.643ZM35.537 68.728C38.23 63.989 41.207 59.408 43.917 54.678C41.393 54.608 38.866 54.669 36.341 54.647C36.337 53.942 36.337 53.237 36.342 52.534C40.126 52.534 43.909 52.511 47.691 52.545C44.979 57.272 41.988 61.849 39.313 66.595C41.942 66.629 44.572 66.575 47.2 66.622C47.23 67.33 47.231 68.039 47.191 68.748C43.309 68.72 39.423 68.758 35.537 68.728ZM52.949 85.946H52.785L45.624 70.048H48.224L52.863 80.592L57.521 70.048H60.14L52.949 85.946ZM52.098 66.61C54.751 66.609 57.403 66.584 60.055 66.621C60.085 67.328 60.086 68.038 60.047 68.747C56.139 68.734 52.229 68.732 48.321 68.748C51.12 64.049 54.004 59.396 56.763 54.673C54.236 54.616 51.71 54.667 49.183 54.645C49.163 53.941 49.164 53.237 49.186 52.533C52.971 52.528 56.755 52.52 60.54 52.537C57.771 57.254 54.884 61.903 52.098 66.61Z" fill="#7E171D"/>
<path d="M69.032 54.493C72.231 53.903 75.476 56.182 75.991 59.396C76.053 59.695 75.971 59.997 75.84 60.267C75.028 61.896 74.245 63.539 73.453 65.176C73.246 65.577 73.089 66.069 72.647 66.272C69.784 67.736 66.051 66.349 64.717 63.454C62.908 59.871 65.015 55.214 69.032 54.493Z" fill="#7E171D"/>
<path d="M15.417 54.539C17.166 54.557 19.534 54.126 20.541 55.952C21.019 56.837 21.05 57.963 20.623 58.873C19.642 60.725 17.201 60.476 15.416 60.45C15.416 58.481 15.415 56.51 15.417 54.539Z" fill="#7E171D"/>
<path d="M4.216 55.908L7.232 63.05L1.3 62.995" fill="#7E171D"/>
<path d="M41.091 24.137C41.198 23.916 41.479 23.893 41.67 24.004C42.104 24.233 42.474 24.574 42.824 24.922C43.103 25.195 43.261 25.561 43.409 25.92C43.536 26.296 43.855 26.534 44.098 26.824C44.19 26.924 44.175 27.075 44.182 27.204C44.17 27.731 44.091 28.259 44.164 28.784C44.277 29.605 44.575 30.394 45.015 31.088C44.919 31.417 44.793 31.735 44.667 32.054C44.206 32.046 43.75 31.949 43.336 31.736C42.045 31.113 40.594 31.117 39.215 30.877C38.636 30.78 38.064 31.052 37.485 30.955C37.071 30.873 36.692 30.648 36.382 30.359C36.127 30.118 36.004 29.776 35.875 29.454C36.214 29.371 36.555 29.284 36.904 29.27C37.556 29.244 38.198 29.392 38.846 29.438C39.231 29.465 39.627 29.443 40.002 29.558C40.378 29.669 40.74 29.823 41.121 29.914C41.883 30.12 42.679 30.139 43.461 30.072C43.304 29.359 42.755 28.862 42.434 28.235C41.889 27.228 41.435 26.159 41.166 25.037C41.109 24.744 41.021 24.436 41.091 24.137Z" fill="#7E171D"/>
<path d="M56.002 15.318C55.904 15.265 55.806 15.211 55.71 15.156C55.318 15.825 54.832 16.427 54.339 17.019C53.629 15.398 55.729 14.422 55.431 12.853C54.888 13.753 54.197 14.536 53.429 15.238C53.204 13.796 54.13 12.679 55.022 11.712C53.398 12.275 52.219 14.162 52.527 15.933C53.277 18.684 54.649 22.911 50.745 23.667C49.366 20.001 44.172 19.077 43.857 14.854C44.509 15.098 45.228 15.191 45.81 15.604C46.125 15.804 46.438 16.103 46.837 16.02C46.459 15.554 46.023 15.141 45.594 14.726C45.942 14.927 46.299 15.112 46.675 15.251C46.408 14.433 45.573 14.162 44.875 13.856C46.059 14.026 47.487 15.224 48.419 13.89C46.613 14.582 46.845 13.426 45.228 13.015C46.001 12.915 46.768 13.051 47.534 13.143C47.079 12.634 46.481 12.34 45.856 12.12C46.577 12.234 47.249 12.7 47.993 12.473C47.986 12.402 47.972 12.259 47.966 12.188C47.178 12.011 46.475 11.59 45.733 11.281C46.028 11.347 46.324 11.409 46.619 11.479C46.575 11.322 46.528 11.166 46.479 11.011C46.998 11.237 47.483 11.534 47.951 11.855C47.987 11.805 48.059 11.703 48.095 11.653C47.558 10.729 46.532 10.355 45.934 9.504C46.863 9.58 47.621 10.673 48.558 10.053C47.423 9.684 46.866 8.532 45.85 7.938C46.624 8.4 47.326 8.967 48.056 9.493C48.111 9.446 48.223 9.352 48.279 9.306C47.45 8.477 46.976 7.354 46.118 6.555C46.903 6.865 47.721 7.119 48.568 7.136C48.546 7.027 48.524 6.919 48.505 6.809C47.875 6.607 47.267 6.33 46.705 5.975C47.475 5.9 48.225 6.004 48.952 6.269C48.058 4.947 47.046 5.873 45.958 4.412C46.825 4.866 47.834 4.861 48.603 5.532C48.486 4.556 47.547 4.304 46.857 3.858C46.528 3.612 46.195 3.372 45.839 3.17C46.292 3.021 46.747 2.848 47.107 2.517C45.293 2.072 45.848 2.784 43.953 1.674C43.084 1.672 42.594 1.041 42.013 0.479004H41.924C41.78 0.850004 41.695 1.242 41.689 1.643C41.583 1.66 41.476 1.678 41.371 1.696C41.592 1.174 41.325 0.784004 40.872 0.542004C40.784 0.752004 40.701 0.963004 40.613 1.172C40.7 1.269 40.785 1.366 40.871 1.465C39.374 1.148 39.928 1.607 38.819 1.97C38.801 2.032 38.764 2.156 38.745 2.218C39.38 2.177 40.032 2.2 40.617 2.489C39.548 3.132 38.517 4.006 37.226 4.023C36.33 5.437 35.902 6.728 38.102 5.861C37.811 6.031 37.51 6.186 37.207 6.334C37.194 6.417 37.17 6.583 37.157 6.667C37.618 6.724 38.073 6.63 38.512 6.493C39.413 6.321 40.305 6.78 41.22 6.734C40.999 8.543 39.961 10.064 38.695 11.267C38.348 12.037 37.652 12.398 37.019 12.871C36.591 13.344 36.199 13.583 35.638 13.153C34.824 12.788 34.146 12.22 33.419 11.715C31.753 10.957 31.221 13.144 31.007 14.404C30.537 16.315 29.431 18.458 30.205 20.41C31.947 19.76 31.007 18.19 30.963 16.849C31.275 18.308 31.647 19.752 31.915 21.22C31.97 21.596 32.191 21.906 32.431 22.18C32.855 22.669 33.043 23.327 33.497 23.791C34.58 25.015 34.987 23.023 34.53 22.21C34.264 21.814 33.77 21.652 33.536 21.225C33.043 20.476 32.955 19.556 32.656 18.725C32.544 18.36 32.319 17.717 32.815 17.563C33.504 17.91 34.187 18.289 34.87 18.654C35.502 19.343 36.272 19.671 37.198 19.629C38.21 22.728 43.245 23.592 43.485 25.961C43.679 26.115 43.853 26.303 44.065 26.431C44.356 26.543 44.592 26.421 44.777 26.167C44.869 26.031 44.943 25.887 45.006 25.739C45.026 25.69 45.045 25.638 45.064 25.586C45.105 25.475 45.141 25.362 45.171 25.246C45.188 25.185 45.203 25.124 45.218 25.062C45.294 24.723 45.342 24.374 45.393 24.034C45.447 24.027 45.554 24.012 45.607 24.005C45.42 24.453 45.327 24.932 45.237 25.408C45.126 26.03 44.658 26.489 44.461 27.076C44.398 27.261 44.358 27.448 44.328 27.636C44.319 27.692 44.312 27.749 44.305 27.805C44.239 28.384 44.315 28.965 44.482 29.53C44.638 29.975 44.853 30.399 45.023 30.838C45.224 31.219 45.45 31.582 45.68 31.918C46.316 32.533 45.978 33.107 45.496 33.683C45.029 34.354 44.493 34.954 43.774 35.338C42.544 36.184 43.831 36.904 44.314 37.317C45.079 36.291 45.733 35.174 46.67 34.297C48.26 33.233 48.394 33.117 47.38 31.365C46.819 29.321 50.291 29.165 50.915 25.076C51.333 26.012 50.774 27.134 51.346 28.008C51.469 27.353 51.468 26.663 51.75 26.049C52.195 27.411 50.856 28.473 51.201 29.822C51.308 29.814 51.416 29.806 51.524 29.798C52.003 28.008 53.411 26.935 52.412 24.883C53.19 25.588 52.779 26.805 53.445 27.575C53.476 27.553 53.538 27.509 53.569 27.486C53.516 26.477 53.801 25.382 53.257 24.471C55.554 23.639 55.869 20.936 55.241 18.809C54.82 17.529 55.614 16.465 56.002 15.318ZM44.638 9.45C44.72 9.288 45.02 9.403 44.913 9.581C44.831 9.743 44.534 9.627 44.638 9.45ZM32.127 15.527C31.554 15.659 31.319 16.286 31.044 16.752C31.124 16.453 31.174 16.129 31.361 15.876C31.65 15.567 32.081 15.419 32.313 15.048C32.465 14.72 32.484 14.346 32.629 14.015C32.987 13.957 33.186 14.32 33.382 14.562C33.702 15.033 34.147 15.385 34.571 15.751C33.752 15.724 32.95 15.423 32.127 15.527Z" fill="#7E171D"/>
<path d="M44.8 7.258C44.662 7.346 44.812 7.578 44.942 7.472C45.079 7.384 44.929 7.153 44.8 7.258Z" fill="#7E171D"/>
<path d="M44.74 7.926C44.752 8.074 44.813 8.099 44.923 8.003C44.91 7.855 44.849 7.83 44.74 7.926Z" fill="#7E171D"/>
<path d="M44.714 8.431L44.713 8.514L44.782 8.556L44.852 8.515L44.853 8.432L44.783 8.39L44.714 8.431Z" fill="#7E171D"/>
<path d="M44.802 8.813C44.622 8.794 44.593 9.098 44.789 9.075C44.969 9.096 44.998 8.791 44.802 8.813Z" fill="#7E171D"/>
<path d="M44.613 9.439C44.49 9.648 44.841 9.785 44.938 9.594C45.064 9.383 44.709 9.247 44.613 9.439Z" fill="#7E171D"/>
<path d="M44.525 9.854C44.411 10 44.655 10.172 44.752 10.02C44.865 9.874 44.621 9.701 44.525 9.854Z" fill="#7E171D"/>
<path d="M44.413 10.461L44.38 10.544L44.414 10.628L44.495 10.661L44.576 10.626L44.609 10.542L44.575 10.459L44.494 10.425L44.413 10.461Z" fill="#7E171D"/>
</svg>
