<svg width="94" height="95" viewBox="0 0 94 95" fill="none" xmlns="http://www.w3.org/2000/svg">
<path d="M78 52L77.53 56.72L71.66 68.86L59.5 71.5L62 52H78Z" fill="white"/>
<path d="M34 69.5H47L41.4 85.13L39.09 83.94L34 69.5Z" fill="white"/>
<path d="M5.28 52.26L7.5 57.5L13.5 71L0.720215 64.8711V63L5.09 52.93L5.28 52.26Z" fill="white"/>
<path d="M4.21577 55.908L7.23177 63.05L1.29977 62.995" fill="white"/>
<path d="M41.0908 24.137C41.1978 23.916 41.4788 23.893 41.6698 24.004C42.1038 24.233 42.4738 24.574 42.8238 24.922C43.1028 25.195 43.2608 25.561 43.4088 25.92C43.5358 26.296 43.8548 26.534 44.0978 26.824C44.1898 26.924 44.1748 27.075 44.1818 27.204C44.1698 27.731 44.0908 28.259 44.1638 28.784C44.2768 29.605 44.5748 30.394 45.0148 31.088C44.9188 31.417 44.7928 31.735 44.6668 32.054C44.2058 32.046 43.7498 31.949 43.3358 31.736C42.0448 31.113 40.5938 31.117 39.2148 30.877C38.6358 30.78 38.0638 31.052 37.4848 30.955C37.0708 30.873 36.6918 30.648 36.3818 30.359C36.1268 30.118 36.0038 29.776 35.8748 29.454C36.2138 29.371 36.5548 29.284 36.9038 29.27C37.5558 29.244 38.1978 29.392 38.8458 29.438C39.2308 29.465 39.6268 29.443 40.0018 29.558C40.3778 29.669 40.7398 29.823 41.1208 29.914C41.8828 30.12 42.6788 30.139 43.4608 30.072C43.3038 29.359 42.7548 28.862 42.4338 28.235C41.8888 27.228 41.4348 26.159 41.1658 25.037C41.1088 24.744 41.0208 24.436 41.0908 24.137Z" fill="white"/>
<path d="M56.0018 15.318C55.9038 15.265 55.8058 15.211 55.7098 15.156C55.3178 15.825 54.8318 16.427 54.3388 17.019C53.6288 15.398 55.7288 14.422 55.4308 12.853C54.8878 13.753 54.1968 14.536 53.4288 15.238C53.2038 13.796 54.1298 12.679 55.0218 11.712C53.3978 12.275 52.2188 14.162 52.5268 15.933C53.2768 18.684 54.6488 22.911 50.7448 23.667C49.3658 20.001 44.1718 19.077 43.8568 14.854C44.5088 15.098 45.2278 15.191 45.8098 15.604C46.1248 15.804 46.4378 16.103 46.8368 16.02C46.4588 15.554 46.0228 15.141 45.5938 14.726C45.9418 14.927 46.2988 15.112 46.6748 15.251C46.4078 14.433 45.5728 14.162 44.8748 13.856C46.0588 14.026 47.4868 15.224 48.4188 13.89C46.6128 14.582 46.8448 13.426 45.2278 13.015C46.0008 12.915 46.7678 13.051 47.5338 13.143C47.0788 12.634 46.4808 12.34 45.8558 12.12C46.5768 12.234 47.2488 12.7 47.9928 12.473C47.9858 12.402 47.9718 12.259 47.9658 12.188C47.1778 12.011 46.4748 11.59 45.7328 11.281C46.0278 11.347 46.3238 11.409 46.6188 11.479C46.5748 11.322 46.5278 11.166 46.4788 11.011C46.9978 11.237 47.4828 11.534 47.9508 11.855C47.9868 11.805 48.0588 11.703 48.0948 11.653C47.5578 10.729 46.5318 10.355 45.9338 9.504C46.8628 9.58 47.6208 10.673 48.5578 10.053C47.4228 9.684 46.8658 8.532 45.8498 7.938C46.6238 8.4 47.3258 8.967 48.0558 9.493C48.1108 9.446 48.2228 9.352 48.2788 9.306C47.4498 8.477 46.9758 7.354 46.1178 6.555C46.9028 6.865 47.7208 7.119 48.5678 7.136C48.5458 7.027 48.5238 6.919 48.5048 6.809C47.8748 6.607 47.2668 6.33 46.7048 5.975C47.4748 5.9 48.2248 6.004 48.9518 6.269C48.0578 4.947 47.0458 5.873 45.9578 4.412C46.8248 4.866 47.8338 4.861 48.6028 5.532C48.4858 4.556 47.5468 4.304 46.8568 3.858C46.5278 3.612 46.1948 3.372 45.8388 3.17C46.2918 3.021 46.7468 2.848 47.1068 2.517C45.2928 2.072 45.8478 2.784 43.9528 1.674C43.0838 1.672 42.5938 1.041 42.0128 0.479004H41.9238C41.7798 0.850004 41.6948 1.242 41.6888 1.643C41.5828 1.66 41.4758 1.678 41.3708 1.696C41.5918 1.174 41.3248 0.784004 40.8718 0.542004C40.7838 0.752004 40.7008 0.963004 40.6128 1.172C40.6998 1.269 40.7848 1.366 40.8708 1.465C39.3738 1.148 39.9278 1.607 38.8188 1.97C38.8008 2.032 38.7638 2.156 38.7448 2.218C39.3798 2.177 40.0318 2.2 40.6168 2.489C39.5478 3.132 38.5168 4.006 37.2258 4.023C36.3298 5.437 35.9018 6.728 38.1018 5.861C37.8108 6.031 37.5098 6.186 37.2068 6.334C37.1938 6.417 37.1698 6.583 37.1568 6.667C37.6178 6.724 38.0728 6.63 38.5118 6.493C39.4128 6.321 40.3048 6.78 41.2198 6.734C40.9988 8.543 39.9608 10.064 38.6948 11.267C38.3478 12.037 37.6518 12.398 37.0188 12.871C36.5908 13.344 36.1988 13.583 35.6378 13.153C34.8238 12.788 34.1458 12.22 33.4188 11.715C31.7528 10.957 31.2208 13.144 31.0068 14.404C30.5368 16.315 29.4308 18.458 30.2048 20.41C31.9468 19.76 31.0068 18.19 30.9628 16.849C31.2748 18.308 31.6468 19.752 31.9148 21.22C31.9698 21.596 32.1908 21.906 32.4308 22.18C32.8548 22.669 33.0428 23.327 33.4968 23.791C34.5798 25.015 34.9868 23.023 34.5298 22.21C34.2638 21.814 33.7698 21.652 33.5358 21.225C33.0428 20.476 32.9548 19.556 32.6558 18.725C32.5438 18.36 32.3188 17.717 32.8148 17.563C33.5038 17.91 34.1868 18.289 34.8698 18.654C35.5018 19.343 36.2718 19.671 37.1978 19.629C38.2098 22.728 43.2448 23.592 43.4848 25.961C43.6788 26.115 43.8528 26.303 44.0648 26.431C44.3558 26.543 44.5918 26.421 44.7768 26.167C44.8688 26.031 44.9428 25.887 45.0058 25.739C45.0258 25.69 45.0448 25.638 45.0638 25.586C45.1048 25.475 45.1408 25.362 45.1708 25.246C45.1878 25.185 45.2028 25.124 45.2178 25.062C45.2938 24.723 45.3418 24.374 45.3928 24.034C45.4468 24.027 45.5538 24.012 45.6068 24.005C45.4198 24.453 45.3268 24.932 45.2368 25.408C45.1258 26.03 44.6578 26.489 44.4608 27.076C44.3978 27.261 44.3578 27.448 44.3278 27.636C44.3188 27.692 44.3118 27.749 44.3048 27.805C44.2388 28.384 44.3148 28.965 44.4818 29.53C44.6378 29.975 44.8528 30.399 45.0228 30.838C45.2238 31.219 45.4498 31.582 45.6798 31.918C46.3158 32.533 45.9778 33.107 45.4958 33.683C45.0288 34.354 44.4928 34.954 43.7738 35.338C42.5438 36.184 43.8308 36.904 44.3138 37.317C45.0788 36.291 45.7328 35.174 46.6698 34.297C48.2598 33.233 48.3938 33.117 47.3798 31.365C46.8188 29.321 50.2908 29.165 50.9148 25.076C51.3328 26.012 50.7738 27.134 51.3458 28.008C51.4688 27.353 51.4678 26.663 51.7498 26.049C52.1948 27.411 50.8558 28.473 51.2008 29.822C51.3078 29.814 51.4158 29.806 51.5238 29.798C52.0028 28.008 53.4108 26.935 52.4118 24.883C53.1898 25.588 52.7788 26.805 53.4448 27.575C53.4758 27.553 53.5378 27.509 53.5688 27.486C53.5158 26.477 53.8008 25.382 53.2568 24.471C55.5538 23.639 55.8688 20.936 55.2408 18.809C54.8198 17.529 55.6138 16.465 56.0018 15.318ZM44.6378 9.45C44.7198 9.288 45.0198 9.403 44.9128 9.581C44.8308 9.743 44.5338 9.627 44.6378 9.45ZM32.1268 15.527C31.5538 15.659 31.3188 16.286 31.0438 16.752C31.1238 16.453 31.1738 16.129 31.3608 15.876C31.6498 15.567 32.0808 15.419 32.3128 15.048C32.4648 14.72 32.4838 14.346 32.6288 14.015C32.9868 13.957 33.1858 14.32 33.3818 14.562C33.7018 15.033 34.1468 15.385 34.5708 15.751C33.7518 15.724 32.9498 15.423 32.1268 15.527Z" fill="white"/>
<path d="M44.7998 7.258C44.6618 7.346 44.8118 7.578 44.9418 7.472C45.0788 7.384 44.9288 7.153 44.7998 7.258Z" fill="white"/>
<path d="M44.7398 7.926C44.7518 8.074 44.8128 8.099 44.9228 8.003C44.9098 7.855 44.8488 7.83 44.7398 7.926Z" fill="white"/>
<path d="M44.7138 8.431L44.7128 8.514L44.7818 8.556L44.8518 8.515L44.8528 8.432L44.7828 8.39L44.7138 8.431Z" fill="white"/>
<path d="M44.8018 8.813C44.6218 8.794 44.5928 9.098 44.7888 9.075C44.9688 9.096 44.9978 8.791 44.8018 8.813Z" fill="white"/>
<path d="M44.6128 9.439C44.4898 9.648 44.8408 9.785 44.9378 9.594C45.0638 9.383 44.7088 9.247 44.6128 9.439Z" fill="white"/>
<path d="M44.5248 9.854C44.4108 10 44.6548 10.172 44.7518 10.02C44.8648 9.874 44.6208 9.701 44.5248 9.854Z" fill="white"/>
<path d="M44.4128 10.461L44.3798 10.544L44.4138 10.628L44.4948 10.661L44.5758 10.626L44.6088 10.542L44.5748 10.459L44.4938 10.425L44.4128 10.461Z" fill="white"/>
<path fill-rule="evenodd" clip-rule="evenodd" d="M21.4898 68.732C19.4738 66.554 17.5128 64.317 15.4308 62.201C15.3788 64.382 15.4608 66.566 15.3878 68.746C14.6718 68.737 13.9558 68.737 13.2398 68.746C13.1768 63.343 13.2128 57.938 13.2298 52.534C13.2298 52.534 19.5598 51.797 21.8158 54.044C24.5978 57.012 22.6498 61.991 18.6148 62.381C20.5508 64.554 22.6208 66.609 24.5968 68.746C23.5598 68.731 22.5248 68.747 21.4898 68.732ZM20.5408 55.952C19.5338 54.126 17.1658 54.557 15.4168 54.539C15.4148 56.51 15.4158 58.481 15.4158 60.45C17.2008 60.476 19.6418 60.725 20.6228 58.873C21.0498 57.963 21.0188 56.837 20.5408 55.952Z" fill="white"/>
<path d="M34.2838 54.643C32.2688 54.663 30.2558 54.628 28.2418 54.662C28.2188 56.267 28.2208 57.873 28.2408 59.479C30.2548 59.509 32.2668 59.492 34.2798 59.487C34.2828 60.192 34.2828 60.898 34.2808 61.604C32.2708 61.651 30.2598 61.614 28.2498 61.623C28.2148 63.286 28.2148 64.949 28.2508 66.612C30.2608 66.612 32.2718 66.579 34.2818 66.626C34.2818 67.333 34.2808 68.04 34.2778 68.748C31.5278 68.733 28.7788 68.738 26.0288 68.744C26.0438 63.343 26.0488 57.942 26.0258 52.541C28.7778 52.521 31.5298 52.53 34.2828 52.536C34.2818 53.237 34.2818 53.941 34.2838 54.643Z" fill="white"/>
<path d="M35.5368 68.728C38.2298 63.989 41.2068 59.408 43.9168 54.678C41.3928 54.608 38.8658 54.669 36.3408 54.647C36.3368 53.942 36.3368 53.237 36.3418 52.534C40.1258 52.534 43.9088 52.511 47.6908 52.545C44.9788 57.272 41.9878 61.849 39.3128 66.595C41.9418 66.629 44.5718 66.575 47.1998 66.622C47.2298 67.33 47.2308 68.039 47.1908 68.748C43.3088 68.72 39.4228 68.758 35.5368 68.728Z" fill="white"/>
<path d="M52.0978 66.61C54.7508 66.609 57.4028 66.584 60.0548 66.621C60.0848 67.328 60.0858 68.038 60.0468 68.747C56.1388 68.734 52.2288 68.732 48.3208 68.748C51.1198 64.049 54.0038 59.396 56.7628 54.673C54.2358 54.616 51.7098 54.667 49.1828 54.645C49.1628 53.941 49.1638 53.237 49.1858 52.533C52.9708 52.528 56.7548 52.52 60.5398 52.537C57.7708 57.254 54.8838 61.903 52.0978 66.61Z" fill="white"/>
<path d="M52.9488 85.946H52.7848L45.6238 70.048H48.2238L52.8628 80.592L57.5208 70.048H60.1398L52.9488 85.946Z" fill="white"/>
<path d="M67.1038 10.66L76.0118 51.871L57.3188 51.504L54.3398 39.018L30.7298 38.999L24.1308 52.198L5.27477 52.262L5.09077 52.931L11.5208 68.732C10.7318 68.745 9.94277 68.742 9.15277 68.732C8.72577 67.489 8.22577 66.273 7.78877 65.034C5.38277 65.102 0.717773 64.866 0.717773 64.866C0.717773 64.866 26.2488 77.7 39.0898 83.942C39.1418 79.977 39.1138 76.009 39.1008 72.043C37.7678 72.015 36.4358 72.035 35.1038 72.029C35.1048 71.37 35.1048 70.712 35.1038 70.052C38.5298 69.996 41.9608 70.023 45.3878 70.041C45.3938 70.704 45.3938 71.369 45.3868 72.032C44.0528 72.036 42.7198 72.013 41.3878 72.046C41.3978 76.407 41.3648 80.768 41.4038 85.128L59.1528 94.255L71.66 68.86C64.761 70.227 59.4568 62.759 62.7608 56.642C65.6658 50.758 74.6108 50.931 77.5318 56.719L93.1878 24.592L67.1038 10.66ZM21.4898 68.732C19.4738 66.554 17.5128 64.317 15.4308 62.201C15.3788 64.382 15.4608 66.566 15.3878 68.746C14.6718 68.737 13.9558 68.737 13.2398 68.746C13.1768 63.343 13.2128 57.938 13.2298 52.534C13.2298 52.534 19.5598 51.797 21.8158 54.044C24.5978 57.012 22.6498 61.991 18.6148 62.381C20.5508 64.554 22.6208 66.609 24.5968 68.746C23.5598 68.731 22.5248 68.747 21.4898 68.732ZM34.2838 54.643C32.2688 54.663 30.2558 54.628 28.2418 54.662C28.2188 56.267 28.2208 57.873 28.2408 59.479C30.2548 59.509 32.2668 59.492 34.2798 59.487C34.2828 60.192 34.2828 60.898 34.2808 61.604C32.2708 61.651 30.2598 61.614 28.2498 61.623C28.2148 63.286 28.2148 64.949 28.2508 66.612C30.2608 66.612 32.2718 66.579 34.2818 66.626C34.2818 67.333 34.2808 68.04 34.2778 68.748C31.5278 68.733 28.7788 68.738 26.0288 68.744C26.0438 63.343 26.0488 57.942 26.0258 52.541C28.7778 52.521 31.5298 52.53 34.2828 52.536C34.2818 53.237 34.2818 53.941 34.2838 54.643ZM35.5368 68.728C38.2298 63.989 41.2068 59.408 43.9168 54.678C41.3928 54.608 38.8658 54.669 36.3408 54.647C36.3368 53.942 36.3368 53.237 36.3418 52.534C40.1258 52.534 43.9088 52.511 47.6908 52.545C44.9788 57.272 41.9878 61.849 39.3128 66.595C41.9418 66.629 44.5718 66.575 47.1998 66.622C47.2298 67.33 47.2308 68.039 47.1908 68.748C43.3088 68.72 39.4228 68.758 35.5368 68.728ZM52.9488 85.946H52.7848L45.6238 70.048H48.2238L52.8628 80.592L57.5208 70.048H60.1398L52.9488 85.946ZM52.0978 66.61C54.7508 66.609 57.4028 66.584 60.0548 66.621C60.0848 67.328 60.0858 68.038 60.0468 68.747C56.1388 68.734 52.2288 68.732 48.3208 68.748C51.1198 64.049 54.0038 59.396 56.7628 54.673C54.2358 54.616 51.7098 54.667 49.1828 54.645C49.1628 53.941 49.1638 53.237 49.1858 52.533C52.9708 52.528 56.7548 52.52 60.5398 52.537C57.7708 57.254 54.8838 61.903 52.0978 66.61Z" fill="#7E171D"/>
<path d="M69.0318 54.493C72.2308 53.903 75.4758 56.182 75.9908 59.396C76.0528 59.695 75.9708 59.997 75.8398 60.267C75.0278 61.896 74.2448 63.539 73.4528 65.176C73.2458 65.577 73.0888 66.069 72.6468 66.272C69.7838 67.736 66.0508 66.349 64.7168 63.454C62.9078 59.871 65.0148 55.214 69.0318 54.493Z" fill="#7E171D"/>
<path d="M15.4168 54.539C17.1658 54.557 19.5338 54.126 20.5408 55.952C21.0188 56.837 21.0498 57.963 20.6228 58.873C19.6418 60.725 17.2008 60.476 15.4158 60.45C15.4158 58.481 15.4148 56.51 15.4168 54.539Z" fill="#7E171D"/>
<path d="M4.21577 55.908L7.23177 63.05L1.29977 62.995" fill="#7E171D"/>
<path d="M41.0908 24.137C41.1978 23.916 41.4788 23.893 41.6698 24.004C42.1038 24.233 42.4738 24.574 42.8238 24.922C43.1028 25.195 43.2608 25.561 43.4088 25.92C43.5358 26.296 43.8548 26.534 44.0978 26.824C44.1898 26.924 44.1748 27.075 44.1818 27.204C44.1698 27.731 44.0908 28.259 44.1638 28.784C44.2768 29.605 44.5748 30.394 45.0148 31.088C44.9188 31.417 44.7928 31.735 44.6668 32.054C44.2058 32.046 43.7498 31.949 43.3358 31.736C42.0448 31.113 40.5938 31.117 39.2148 30.877C38.6358 30.78 38.0638 31.052 37.4848 30.955C37.0708 30.873 36.6918 30.648 36.3818 30.359C36.1268 30.118 36.0038 29.776 35.8748 29.454C36.2138 29.371 36.5548 29.284 36.9038 29.27C37.5558 29.244 38.1978 29.392 38.8458 29.438C39.2308 29.465 39.6268 29.443 40.0018 29.558C40.3778 29.669 40.7398 29.823 41.1208 29.914C41.8828 30.12 42.6788 30.139 43.4608 30.072C43.3038 29.359 42.7548 28.862 42.4338 28.235C41.8888 27.228 41.4348 26.159 41.1658 25.037C41.1088 24.744 41.0208 24.436 41.0908 24.137Z" fill="#7E171D"/>
<path d="M56.0018 15.318C55.9038 15.265 55.8058 15.211 55.7098 15.156C55.3178 15.825 54.8318 16.427 54.3388 17.019C53.6288 15.398 55.7288 14.422 55.4308 12.853C54.8878 13.753 54.1968 14.536 53.4288 15.238C53.2038 13.796 54.1298 12.679 55.0218 11.712C53.3978 12.275 52.2188 14.162 52.5268 15.933C53.2768 18.684 54.6488 22.911 50.7448 23.667C49.3658 20.001 44.1718 19.077 43.8568 14.854C44.5088 15.098 45.2278 15.191 45.8098 15.604C46.1248 15.804 46.4378 16.103 46.8368 16.02C46.4588 15.554 46.0228 15.141 45.5938 14.726C45.9418 14.927 46.2988 15.112 46.6748 15.251C46.4078 14.433 45.5728 14.162 44.8748 13.856C46.0588 14.026 47.4868 15.224 48.4188 13.89C46.6128 14.582 46.8448 13.426 45.2278 13.015C46.0008 12.915 46.7678 13.051 47.5338 13.143C47.0788 12.634 46.4808 12.34 45.8558 12.12C46.5768 12.234 47.2488 12.7 47.9928 12.473C47.9858 12.402 47.9718 12.259 47.9658 12.188C47.1778 12.011 46.4748 11.59 45.7328 11.281C46.0278 11.347 46.3238 11.409 46.6188 11.479C46.5748 11.322 46.5278 11.166 46.4788 11.011C46.9978 11.237 47.4828 11.534 47.9508 11.855C47.9868 11.805 48.0588 11.703 48.0948 11.653C47.5578 10.729 46.5318 10.355 45.9338 9.504C46.8628 9.58 47.6208 10.673 48.5578 10.053C47.4228 9.684 46.8658 8.532 45.8498 7.938C46.6238 8.4 47.3258 8.967 48.0558 9.493C48.1108 9.446 48.2228 9.352 48.2788 9.306C47.4498 8.477 46.9758 7.354 46.1178 6.555C46.9028 6.865 47.7208 7.119 48.5678 7.136C48.5458 7.027 48.5238 6.919 48.5048 6.809C47.8748 6.607 47.2668 6.33 46.7048 5.975C47.4748 5.9 48.2248 6.004 48.9518 6.269C48.0578 4.947 47.0458 5.873 45.9578 4.412C46.8248 4.866 47.8338 4.861 48.6028 5.532C48.4858 4.556 47.5468 4.304 46.8568 3.858C46.5278 3.612 46.1948 3.372 45.8388 3.17C46.2918 3.021 46.7468 2.848 47.1068 2.517C45.2928 2.072 45.8478 2.784 43.9528 1.674C43.0838 1.672 42.5938 1.041 42.0128 0.479004H41.9238C41.7798 0.850004 41.6948 1.242 41.6888 1.643C41.5828 1.66 41.4758 1.678 41.3708 1.696C41.5918 1.174 41.3248 0.784004 40.8718 0.542004C40.7838 0.752004 40.7008 0.963004 40.6128 1.172C40.6998 1.269 40.7848 1.366 40.8708 1.465C39.3738 1.148 39.9278 1.607 38.8188 1.97C38.8008 2.032 38.7638 2.156 38.7448 2.218C39.3798 2.177 40.0318 2.2 40.6168 2.489C39.5478 3.132 38.5168 4.006 37.2258 4.023C36.3298 5.437 35.9018 6.728 38.1018 5.861C37.8108 6.031 37.5098 6.186 37.2068 6.334C37.1938 6.417 37.1698 6.583 37.1568 6.667C37.6178 6.724 38.0728 6.63 38.5118 6.493C39.4128 6.321 40.3048 6.78 41.2198 6.734C40.9988 8.543 39.9608 10.064 38.6948 11.267C38.3478 12.037 37.6518 12.398 37.0188 12.871C36.5908 13.344 36.1988 13.583 35.6378 13.153C34.8238 12.788 34.1458 12.22 33.4188 11.715C31.7528 10.957 31.2208 13.144 31.0068 14.404C30.5368 16.315 29.4308 18.458 30.2048 20.41C31.9468 19.76 31.0068 18.19 30.9628 16.849C31.2748 18.308 31.6468 19.752 31.9148 21.22C31.9698 21.596 32.1908 21.906 32.4308 22.18C32.8548 22.669 33.0428 23.327 33.4968 23.791C34.5798 25.015 34.9868 23.023 34.5298 22.21C34.2638 21.814 33.7698 21.652 33.5358 21.225C33.0428 20.476 32.9548 19.556 32.6558 18.725C32.5438 18.36 32.3188 17.717 32.8148 17.563C33.5038 17.91 34.1868 18.289 34.8698 18.654C35.5018 19.343 36.2718 19.671 37.1978 19.629C38.2098 22.728 43.2448 23.592 43.4848 25.961C43.6788 26.115 43.8528 26.303 44.0648 26.431C44.3558 26.543 44.5918 26.421 44.7768 26.167C44.8688 26.031 44.9428 25.887 45.0058 25.739C45.0258 25.69 45.0448 25.638 45.0638 25.586C45.1048 25.475 45.1408 25.362 45.1708 25.246C45.1878 25.185 45.2028 25.124 45.2178 25.062C45.2938 24.723 45.3418 24.374 45.3928 24.034C45.4468 24.027 45.5538 24.012 45.6068 24.005C45.4198 24.453 45.3268 24.932 45.2368 25.408C45.1258 26.03 44.6578 26.489 44.4608 27.076C44.3978 27.261 44.3578 27.448 44.3278 27.636C44.3188 27.692 44.3118 27.749 44.3048 27.805C44.2388 28.384 44.3148 28.965 44.4818 29.53C44.6378 29.975 44.8528 30.399 45.0228 30.838C45.2238 31.219 45.4498 31.582 45.6798 31.918C46.3158 32.533 45.9778 33.107 45.4958 33.683C45.0288 34.354 44.4928 34.954 43.7738 35.338C42.5438 36.184 43.8308 36.904 44.3138 37.317C45.0788 36.291 45.7328 35.174 46.6698 34.297C48.2598 33.233 48.3938 33.117 47.3798 31.365C46.8188 29.321 50.2908 29.165 50.9148 25.076C51.3328 26.012 50.7738 27.134 51.3458 28.008C51.4688 27.353 51.4678 26.663 51.7498 26.049C52.1948 27.411 50.8558 28.473 51.2008 29.822C51.3078 29.814 51.4158 29.806 51.5238 29.798C52.0028 28.008 53.4108 26.935 52.4118 24.883C53.1898 25.588 52.7788 26.805 53.4448 27.575C53.4758 27.553 53.5378 27.509 53.5688 27.486C53.5158 26.477 53.8008 25.382 53.2568 24.471C55.5538 23.639 55.8688 20.936 55.2408 18.809C54.8198 17.529 55.6138 16.465 56.0018 15.318ZM44.6378 9.45C44.7198 9.288 45.0198 9.403 44.9128 9.581C44.8308 9.743 44.5338 9.627 44.6378 9.45ZM32.1268 15.527C31.5538 15.659 31.3188 16.286 31.0438 16.752C31.1238 16.453 31.1738 16.129 31.3608 15.876C31.6498 15.567 32.0808 15.419 32.3128 15.048C32.4648 14.72 32.4838 14.346 32.6288 14.015C32.9868 13.957 33.1858 14.32 33.3818 14.562C33.7018 15.033 34.1468 15.385 34.5708 15.751C33.7518 15.724 32.9498 15.423 32.1268 15.527Z" fill="#7E171D"/>
<path d="M44.7998 7.258C44.6618 7.346 44.8118 7.578 44.9418 7.472C45.0788 7.384 44.9288 7.153 44.7998 7.258Z" fill="#7E171D"/>
<path d="M44.7398 7.926C44.7518 8.074 44.8128 8.099 44.9228 8.003C44.9098 7.855 44.8488 7.83 44.7398 7.926Z" fill="#7E171D"/>
<path d="M44.7138 8.431L44.7128 8.514L44.7818 8.556L44.8518 8.515L44.8528 8.432L44.7828 8.39L44.7138 8.431Z" fill="#7E171D"/>
<path d="M44.8018 8.813C44.6218 8.794 44.5928 9.098 44.7888 9.075C44.9688 9.096 44.9978 8.791 44.8018 8.813Z" fill="#7E171D"/>
<path d="M44.6128 9.439C44.4898 9.648 44.8408 9.785 44.9378 9.594C45.0638 9.383 44.7088 9.247 44.6128 9.439Z" fill="#7E171D"/>
<path d="M44.5248 9.854C44.4108 10 44.6548 10.172 44.7518 10.02C44.8648 9.874 44.6208 9.701 44.5248 9.854Z" fill="#7E171D"/>
<path d="M44.4128 10.461L44.3798 10.544L44.4138 10.628L44.4948 10.661L44.5758 10.626L44.6088 10.542L44.5748 10.459L44.4938 10.425L44.4128 10.461Z" fill="#7E171D"/>
</svg>
