<svg width="111" height="454" viewBox="0 0 111 454" fill="none" xmlns="http://www.w3.org/2000/svg">
<path d="M0.000464576 204.132V159.266C6.64043 159.226 13.2804 159.213 19.9337 159.293C20.0804 150.399 19.9604 141.493 20.0004 132.586C29.427 132.573 38.8536 132.573 48.2802 132.586C48.3336 141.479 48.2669 150.373 48.3336 159.253C68.6668 159.333 89 159.159 109.333 158.999C109.907 169.386 111.107 179.959 108.88 190.239C107.533 197.439 100.893 203.266 93.5067 203.359C78.4801 204.346 63.4002 204.119 48.3336 204.092C48.2936 210.226 48.2936 216.359 48.2936 222.492C38.8669 222.532 29.4403 222.519 20.0004 222.506C20.0004 216.346 20.0937 210.186 19.8537 204.026C13.2404 204.186 6.61377 204.119 0.000464576 204.132Z" fill="#FA481C"/>
<path d="M18.5204 400.998C16.5204 383.291 17.3604 364.332 25.9203 348.332C30.267 339.598 39.0803 332.345 49.2669 332.865C69.3868 333.132 89.4934 332.425 109.613 332.585C109.653 347.545 109.627 362.492 109.627 377.438C101.187 377.465 92.7333 377.491 84.2801 377.411C86.1334 384.331 88.0267 391.305 91.04 397.811C93.0933 401.651 96.52 405.945 101.4 405.371C104.627 404.625 107.053 402.238 109.587 400.278C109.707 414.265 109.587 428.238 109.653 442.211C110.267 447.411 105.4 451.091 101.04 452.664C94.3333 453.931 86.6534 453.624 81.1067 449.158C71.7734 442.251 69.1335 430.118 66.9335 419.398C66.2801 411.585 64.4402 403.945 63.4935 396.171C62.8802 391.051 61.8802 385.958 60.2135 381.065C58.8002 377.505 54.1202 376.611 51.0269 378.438C48.1469 379.891 47.0802 383.305 46.4802 386.251C45.6669 391.691 45.8802 397.785 49.1469 402.438C51.0535 405.011 54.3869 405.585 57.3068 406.198C57.3469 420.531 57.3335 434.865 57.3202 449.184C47.2536 447.811 37.3069 443.251 30.8803 435.185C22.8004 425.691 20.107 413.025 18.5204 400.998Z" fill="#FA481C"/>
<path d="M30.6003 267.305C18.8004 260.585 15.5337 244.745 20.0404 232.626C29.467 232.519 38.8803 232.586 48.2936 232.586C48.4936 240.052 47.4936 247.839 50.2136 254.985C52.6669 260.852 59.0002 264.212 65.1868 264.239C80.0001 264.412 94.8267 264.199 109.64 264.345C109.493 279.505 109.92 294.679 109.427 309.839C79.7601 309.665 50.0802 309.772 20.4137 309.785C20.467 295.839 20.4404 281.892 20.427 267.945C23.827 268.039 27.307 268.305 30.6003 267.305Z" fill="#FA481C"/>
<path d="M22.2137 89.6662C16.7204 72.1063 16.2271 52.6264 22.4537 35.1865C25.7337 25.0265 32.267 15.9599 41.0536 9.85329C54.2535 0.573332 71.2801 -1.13333 86.9467 0.613332C86.9867 26.9065 86.9867 53.2131 86.9467 79.5063C94.4 79.5863 101.867 79.5329 109.333 79.5463C109.213 90.6929 109.573 101.853 109.173 112.973C107.013 115.853 103.6 117.333 100.547 119.013C86.9067 126.546 70.1201 127.533 55.3202 123.106C39.4003 118.786 26.9203 105.253 22.2137 89.6662ZM47.3736 70.733C49.6002 77.533 56.8402 81.2929 63.7335 80.9729C63.8802 68.653 63.4268 56.3597 63.4268 44.0531C59.4135 45.0398 55.0402 45.6531 51.8935 48.5998C45.3336 53.7731 45.2402 63.3597 47.3736 70.733Z" fill="#FA481C"/>
</svg>
