<svg width="304" height="40" viewBox="0 0 304 40" fill="none" xmlns="http://www.w3.org/2000/svg">
<path d="M124 0C112.7 0 103.4 8.6 103.4 19.2C103.4 31.1 112 39.7 124 39.7C135.9 39.7 144.6 31.1 144.6 19.2C144.5 8.6 135.3 0 124 0ZM133.3 19.2C133.3 24.8 129.2 29.1 123.9 29.1C118.7 29.1 114.5 24.7 114.5 19.2C114.5 14.6 118.9 10.5 123.9 10.5C128.9 10.5 133.3 14.6 133.3 19.2ZM63.5 22.4C63.5 24.4 63.4 26.1 62.1 27.3C61.1 28.3 59.4 28.8 57.5 28.8C55.6 28.8 53.9 28.3 52.9 27.3C51.6 26 51.5 24.4 51.5 22.4V0H40.5V21.6C40.5 26.9 40.8 31.6 44.6 35.3C48.5 39.1 54.3 39.7 57.5 39.7C60.7 39.7 66.5 39.1 70.4 35.3C74.2 31.6 74.5 26.9 74.5 21.6V0H63.5V22.4ZM103.6 0H76.5V9.7H84.5V39.7H95.6V9.7H103.6V0ZM214.6 0C203.2 0 194 8.6 194 19.2C194 31.1 202.6 39.7 214.6 39.7C226.5 39.7 235.2 31.1 235.2 19.2C235.1 8.6 225.9 0 214.6 0ZM214.6 29.1C209.4 29.1 205.2 24.7 205.2 19.2C205.2 14.6 209.6 10.5 214.6 10.5C219.6 10.5 224 14.6 224 19.2C223.9 24.8 219.8 29.1 214.6 29.1ZM262.2 0H235.1V9.7H243.1V39.7H254.2V9.7H262.2V0ZM282.7 0C271.4 0 262.1 8.6 262.1 19.2C262.1 31.1 270.7 39.7 282.7 39.7C294.6 39.7 303.3 31.1 303.3 19.2C303.3 8.6 294.1 0 282.7 0ZM292.1 19.2C292.1 24.8 288 29.1 282.7 29.1C277.4 29.1 273.3 24.7 273.3 19.2C273.3 14.6 277.7 10.5 282.7 10.5C287.7 10.5 292.1 14.6 292.1 19.2ZM0 39.7H12.1L14.2 34.6L1.4 36.1L0 39.7ZM27.1 0H15.3L13.5 4.6L26.9 6.4L12.1 8.2L10.2 13.1L25.9 15.2L8.6 17.4L7 21.6L18.5 23.3L21.1 16.7L24.1 24.1L5 26.7L3.8 29.9L27.4 32.9L29.9 39.7H42.1L27.1 0ZM146 30.2L157 31.6L157.8 26L146.5 27.4L146 30.2Z" fill="white"/>
<path d="M177 0L169.2 16.1L165.6 8L149.5 10L148.9 13.5L169.2 16.1L148 18.7L147.4 21.8L158.2 23.2L158.8 19.3L161 23.6L169.2 24.7L162 25.5L165.7 32.8L169.2 33.2L166.1 33.6L169.2 39.7L180 19.3L182.5 39.7H194L188 0H177ZM145 36.2L144.6 38.6L144.4 39.7H155.8L156.5 34.8L145 36.2Z" fill="white"/>
<path d="M151.1 0L150.9 1.2L150.3 5.1L165.2 7L162.1 0H151.1Z" fill="white"/>
</svg>
