<svg width="337" height="131" viewBox="0 0 337 131" fill="none" xmlns="http://www.w3.org/2000/svg">
<mask id="path-1-outside-1_1_6" maskUnits="userSpaceOnUse" x="-0.322754" y="-0.118164" width="338" height="131" fill="black">
<rect fill="white" x="-0.322754" y="-0.118164" width="338" height="131"/>
<path d="M1.67725 2.88184H33.5601C38.8739 2.88184 42.9469 4.19775 45.7793 6.82959C48.6367 9.46143 50.0654 12.7199 50.0654 16.605C50.0654 19.8634 49.0503 22.6582 47.02 24.9893C45.6665 26.5433 43.6864 27.7715 41.0796 28.6738C45.0399 29.6263 47.9474 31.2681 49.8022 33.5991C51.6821 35.9051 52.6221 38.8127 52.6221 42.3218C52.6221 45.1792 51.9578 47.7484 50.6294 50.0293C49.3009 52.3102 47.4837 54.1149 45.1777 55.4434C43.749 56.2705 41.5934 56.8721 38.7109 57.248C34.876 57.7493 32.3319 58 31.0786 58H1.67725V2.88184ZM18.8594 24.5005H26.2661C28.923 24.5005 30.7653 24.0493 31.793 23.147C32.8457 22.2196 33.3721 20.8911 33.3721 19.1616C33.3721 17.5575 32.8457 16.3042 31.793 15.4019C30.7653 14.4995 28.9606 14.0483 26.3789 14.0483H18.8594V24.5005ZM18.8594 46.1567H27.5444C30.4771 46.1567 32.5449 45.6429 33.748 44.6152C34.9512 43.5625 35.5527 42.1589 35.5527 40.4043C35.5527 38.7751 34.9512 37.4717 33.748 36.4941C32.57 35.4915 30.4896 34.9902 27.5068 34.9902H18.8594V46.1567Z"/>
<path d="M74.5039 31.0049L59.8784 29.4634C60.4299 26.9067 61.2194 24.9015 62.2471 23.4478C63.2998 21.9689 64.8037 20.6906 66.7588 19.6128C68.1624 18.8358 70.0924 18.2342 72.5488 17.8081C75.0052 17.382 77.6621 17.1689 80.5195 17.1689C85.1064 17.1689 88.791 17.4321 91.5732 17.9585C94.3555 18.4598 96.674 19.5251 98.5288 21.1543C99.8322 22.2822 100.86 23.8864 101.612 25.9668C102.364 28.0221 102.74 29.9897 102.74 31.8696V49.5029C102.74 51.3828 102.853 52.8617 103.078 53.9395C103.329 54.9922 103.855 56.3457 104.657 58H90.2949C89.7184 56.9723 89.3424 56.1953 89.167 55.6689C88.9915 55.1175 88.8161 54.2653 88.6406 53.1123C86.6354 55.0423 84.6427 56.4209 82.6626 57.248C79.9556 58.3509 76.8099 58.9023 73.2256 58.9023C68.4632 58.9023 64.8413 57.7995 62.3599 55.5938C59.9035 53.388 58.6753 50.6685 58.6753 47.4351C58.6753 44.4022 59.5651 41.9082 61.3447 39.9531C63.1243 37.998 66.4079 36.5443 71.1953 35.5918C76.9352 34.4388 80.6574 33.6367 82.3618 33.1855C84.0662 32.7093 85.8709 32.0952 87.7759 31.3433C87.7759 29.4634 87.3874 28.1475 86.6104 27.3955C85.8333 26.6436 84.4673 26.2676 82.5122 26.2676C80.0057 26.2676 78.1258 26.6686 76.8726 27.4707C75.895 28.0973 75.1055 29.2754 74.5039 31.0049ZM87.7759 39.0508C85.6704 39.8027 83.4772 40.467 81.1963 41.0435C78.0882 41.8706 76.1206 42.6852 75.2935 43.4873C74.4412 44.3145 74.0151 45.2544 74.0151 46.3071C74.0151 47.5103 74.4287 48.5003 75.2559 49.2773C76.1081 50.0293 77.3488 50.4053 78.978 50.4053C80.6825 50.4053 82.2616 49.9917 83.7153 49.1646C85.1942 48.3374 86.2344 47.3348 86.8359 46.1567C87.4626 44.9536 87.7759 43.3996 87.7759 41.4946V39.0508Z"/>
<path d="M129.021 2.88184V18.0713H137.442V29.2378H129.021V43.4121C129.021 45.1165 129.183 46.2445 129.509 46.7959C130.011 47.6481 130.888 48.0742 132.141 48.0742C133.269 48.0742 134.848 47.7484 136.878 47.0967L138.006 57.6616C134.222 58.4888 130.687 58.9023 127.404 58.9023C123.594 58.9023 120.787 58.4136 118.982 57.436C117.177 56.4585 115.836 54.9797 114.959 52.9995C114.107 50.9943 113.681 47.7609 113.681 43.2993V29.2378H108.041V18.0713H113.681V10.7397L129.021 2.88184Z"/>
<path d="M163.234 2.88184V18.0713H171.656V29.2378H163.234V43.4121C163.234 45.1165 163.397 46.2445 163.723 46.7959C164.224 47.6481 165.102 48.0742 166.355 48.0742C167.483 48.0742 169.062 47.7484 171.092 47.0967L172.22 57.6616C168.435 58.4888 164.901 58.9023 161.618 58.9023C157.808 58.9023 155 58.4136 153.196 57.436C151.391 56.4585 150.05 54.9797 149.173 52.9995C148.321 50.9943 147.895 47.7609 147.895 43.2993V29.2378H142.255V18.0713H147.895V10.7397L163.234 2.88184Z"/>
<path d="M223.315 41.833H192.636C192.911 44.2894 193.576 46.1191 194.628 47.3223C196.107 49.0518 198.037 49.9165 200.418 49.9165C201.922 49.9165 203.351 49.5405 204.705 48.7886C205.532 48.3123 206.422 47.4727 207.374 46.2695L222.451 47.6606C220.145 51.6711 217.362 54.5535 214.104 56.3081C210.846 58.0376 206.171 58.9023 200.08 58.9023C194.791 58.9023 190.631 58.1629 187.598 56.6841C184.565 55.1802 182.046 52.8115 180.041 49.5781C178.06 46.3197 177.07 42.4972 177.07 38.1108C177.07 31.8696 179.063 26.819 183.048 22.959C187.059 19.099 192.586 17.1689 199.629 17.1689C205.344 17.1689 209.855 18.0337 213.164 19.7632C216.473 21.4927 218.992 23.9992 220.721 27.2827C222.451 30.5662 223.315 34.8398 223.315 40.1035V41.833ZM207.75 34.5015C207.449 31.5438 206.647 29.4258 205.344 28.1475C204.065 26.8691 202.374 26.23 200.268 26.23C197.837 26.23 195.894 27.195 194.44 29.125C193.513 30.3281 192.924 32.1203 192.673 34.5015H207.75Z"/>
<path d="M230.497 18.0713H244.821V24.6133C246.2 21.7809 247.616 19.8384 249.07 18.7856C250.549 17.7078 252.366 17.1689 254.521 17.1689C256.777 17.1689 259.246 17.8708 261.928 19.2744L257.191 30.1777C255.386 29.4258 253.958 29.0498 252.905 29.0498C250.9 29.0498 249.346 29.877 248.243 31.5312C246.664 33.8623 245.874 38.2236 245.874 44.6152V58H230.497V18.0713Z"/>
<path d="M265.124 2.88184H280.426V13.2964H265.124V2.88184ZM265.124 18.0713H280.426V58H265.124V18.0713Z"/>
<path d="M304.15 31.0049L289.525 29.4634C290.076 26.9067 290.866 24.9015 291.894 23.4478C292.946 21.9689 294.45 20.6906 296.405 19.6128C297.809 18.8358 299.739 18.2342 302.195 17.8081C304.652 17.382 307.309 17.1689 310.166 17.1689C314.753 17.1689 318.438 17.4321 321.22 17.9585C324.002 18.4598 326.32 19.5251 328.175 21.1543C329.479 22.2822 330.506 23.8864 331.258 25.9668C332.01 28.0221 332.386 29.9897 332.386 31.8696V49.5029C332.386 51.3828 332.499 52.8617 332.725 53.9395C332.975 54.9922 333.502 56.3457 334.304 58H319.941C319.365 56.9723 318.989 56.1953 318.813 55.6689C318.638 55.1175 318.463 54.2653 318.287 53.1123C316.282 55.0423 314.289 56.4209 312.309 57.248C309.602 58.3509 306.456 58.9023 302.872 58.9023C298.11 58.9023 294.488 57.7995 292.006 55.5938C289.55 53.388 288.322 50.6685 288.322 47.4351C288.322 44.4022 289.212 41.9082 290.991 39.9531C292.771 37.998 296.054 36.5443 300.842 35.5918C306.582 34.4388 310.304 33.6367 312.008 33.1855C313.713 32.7093 315.517 32.0952 317.422 31.3433C317.422 29.4634 317.034 28.1475 316.257 27.3955C315.48 26.6436 314.114 26.2676 312.159 26.2676C309.652 26.2676 307.772 26.6686 306.519 27.4707C305.542 28.0973 304.752 29.2754 304.15 31.0049ZM317.422 39.0508C315.317 39.8027 313.124 40.467 310.843 41.0435C307.735 41.8706 305.767 42.6852 304.94 43.4873C304.088 44.3145 303.662 45.2544 303.662 46.3071C303.662 47.5103 304.075 48.5003 304.902 49.2773C305.755 50.0293 306.995 50.4053 308.625 50.4053C310.329 50.4053 311.908 49.9917 313.362 49.1646C314.841 48.3374 315.881 47.3348 316.482 46.1567C317.109 44.9536 317.422 43.3996 317.422 41.4946V39.0508Z"/>
<path d="M2 69H36.006C41.6737 69 46.018 70.4094 49.039 73.2282C52.0867 76.047 53.6106 79.5369 53.6106 83.698C53.6106 87.1879 52.5278 90.1812 50.3624 92.6778C48.9187 94.3423 46.8067 95.6577 44.0263 96.6242C48.2504 97.6443 51.3515 99.4027 53.3299 101.899C55.3349 104.369 56.3375 107.483 56.3375 111.242C56.3375 114.302 55.629 117.054 54.2121 119.497C52.7952 121.94 50.8569 123.872 48.3974 125.295C46.8735 126.181 44.5744 126.826 41.4999 127.228C37.4096 127.765 34.6961 128.034 33.3593 128.034H2V69ZM20.3264 92.1544H28.2264C31.0602 92.1544 33.0252 91.6711 34.1213 90.7047C35.2441 89.7114 35.8055 88.2886 35.8055 86.4362C35.8055 84.7181 35.2441 83.3758 34.1213 82.4094C33.0252 81.443 31.1003 80.9597 28.3467 80.9597H20.3264V92.1544ZM20.3264 115.349H29.5898C32.7177 115.349 34.9233 114.799 36.2065 113.698C37.4898 112.57 38.1314 111.067 38.1314 109.188C38.1314 107.443 37.4898 106.047 36.2065 105C34.95 103.926 32.7311 103.389 29.5497 103.389H20.3264V115.349Z"/>
<path d="M79.6765 99.1208L64.0771 97.4698C64.6652 94.7315 65.5073 92.5839 66.6035 91.0268C67.7263 89.443 69.3304 88.0738 71.4156 86.9195C72.9127 86.0872 74.9713 85.443 77.5913 84.9866C80.2112 84.5302 83.0451 84.302 86.0928 84.302C90.9851 84.302 94.9151 84.5839 97.8826 85.1477C100.85 85.6846 103.323 86.8255 105.301 88.5705C106.692 89.7785 107.788 91.4966 108.59 93.7248C109.392 95.9262 109.793 98.0336 109.793 100.047V118.933C109.793 120.946 109.913 122.53 110.154 123.685C110.421 124.812 110.982 126.262 111.838 128.034H96.5191C95.9043 126.933 95.5032 126.101 95.3161 125.537C95.129 124.946 94.9418 124.034 94.7547 122.799C92.6159 124.866 90.4906 126.342 88.3785 127.228C85.4912 128.409 82.1361 129 78.3131 129C73.2336 129 69.3705 127.819 66.7238 125.456C64.1038 123.094 62.7938 120.181 62.7938 116.718C62.7938 113.47 63.7429 110.799 65.641 108.705C67.5392 106.611 71.0414 105.054 76.1476 104.034C82.2698 102.799 86.2398 101.94 88.0577 101.456C89.8757 100.946 91.8005 100.289 93.8323 99.4832C93.8323 97.4698 93.418 96.0604 92.5892 95.255C91.7604 94.4497 90.3034 94.047 88.2181 94.047C85.5447 94.047 83.5396 94.4765 82.2029 95.3356C81.1603 96.0067 80.3182 97.2685 79.6765 99.1208ZM93.8323 107.738C91.5867 108.544 89.2474 109.255 86.8146 109.872C83.4995 110.758 81.4009 111.631 80.5187 112.49C79.6097 113.376 79.1552 114.383 79.1552 115.51C79.1552 116.799 79.5963 117.859 80.4786 118.691C81.3875 119.497 82.7109 119.899 84.4486 119.899C86.2665 119.899 87.9508 119.456 89.5014 118.57C91.0787 117.685 92.1882 116.611 92.8298 115.349C93.4982 114.06 93.8323 112.396 93.8323 110.356V107.738Z"/>
<path d="M113.282 85.2685H130.285L138.545 112.369L147.087 85.2685H163.569L145.483 128.034H131.006L113.282 85.2685Z"/>
<path d="M183.219 99.1208L167.619 97.4698C168.207 94.7315 169.049 92.5839 170.145 91.0268C171.268 89.443 172.872 88.0738 174.958 86.9195C176.455 86.0872 178.513 85.443 181.133 84.9866C183.753 84.5302 186.587 84.302 189.635 84.302C194.527 84.302 198.457 84.5839 201.425 85.1477C204.392 85.6846 206.865 86.8255 208.843 88.5705C210.234 89.7785 211.33 91.4966 212.132 93.7248C212.934 95.9262 213.335 98.0336 213.335 100.047V118.933C213.335 120.946 213.455 122.53 213.696 123.685C213.963 124.812 214.524 126.262 215.38 128.034H200.061C199.446 126.933 199.045 126.101 198.858 125.537C198.671 124.946 198.484 124.034 198.297 122.799C196.158 124.866 194.033 126.342 191.921 127.228C189.033 128.409 185.678 129 181.855 129C176.776 129 172.912 127.819 170.266 125.456C167.646 123.094 166.336 120.181 166.336 116.718C166.336 113.47 167.285 110.799 169.183 108.705C171.081 106.611 174.583 105.054 179.69 104.034C185.812 102.799 189.782 101.94 191.6 101.456C193.418 100.946 195.343 100.289 197.374 99.4832C197.374 97.4698 196.96 96.0604 196.131 95.255C195.302 94.4497 193.845 94.047 191.76 94.047C189.087 94.047 187.082 94.4765 185.745 95.3356C184.702 96.0067 183.86 97.2685 183.219 99.1208ZM197.374 107.738C195.129 108.544 192.789 109.255 190.357 109.872C187.042 110.758 184.943 111.631 184.061 112.49C183.152 113.376 182.697 114.383 182.697 115.51C182.697 116.799 183.138 117.859 184.021 118.691C184.93 119.497 186.253 119.899 187.991 119.899C189.809 119.899 191.493 119.456 193.043 118.57C194.621 117.685 195.73 116.611 196.372 115.349C197.04 114.06 197.374 112.396 197.374 110.356V107.738Z"/>
<path d="M223.28 85.2685H238.559V92.2752C240.029 89.2416 241.539 87.1611 243.09 86.0336C244.667 84.8792 246.606 84.302 248.905 84.302C251.311 84.302 253.944 85.0537 256.805 86.557L251.752 98.2349C249.827 97.4295 248.303 97.0268 247.18 97.0268C245.042 97.0268 243.384 97.9128 242.208 99.6846C240.523 102.181 239.681 106.852 239.681 113.698V128.034H223.28V85.2685Z"/>
<path d="M260.213 69H276.535V80.1544H260.213V69ZM260.213 85.2685H276.535V128.034H260.213V85.2685Z"/>
<path d="M301.839 99.1208L286.239 97.4698C286.827 94.7315 287.669 92.5839 288.766 91.0268C289.888 89.443 291.492 88.0738 293.578 86.9195C295.075 86.0872 297.133 85.443 299.753 84.9866C302.373 84.5302 305.207 84.302 308.255 84.302C313.147 84.302 317.077 84.5839 320.045 85.1477C323.012 85.6846 325.485 86.8255 327.463 88.5705C328.854 89.7785 329.95 91.4966 330.752 93.7248C331.554 95.9262 331.955 98.0336 331.955 100.047V118.933C331.955 120.946 332.075 122.53 332.316 123.685C332.583 124.812 333.145 126.262 334 128.034H318.681C318.066 126.933 317.665 126.101 317.478 125.537C317.291 124.946 317.104 124.034 316.917 122.799C314.778 124.866 312.653 126.342 310.541 127.228C307.653 128.409 304.298 129 300.475 129C295.396 129 291.533 127.819 288.886 125.456C286.266 123.094 284.956 120.181 284.956 116.718C284.956 113.47 285.905 110.799 287.803 108.705C289.701 106.611 293.203 105.054 298.31 104.034C304.432 102.799 308.402 101.94 310.22 101.456C312.038 100.946 313.963 100.289 315.994 99.4832C315.994 97.4698 315.58 96.0604 314.751 95.255C313.923 94.4497 312.466 94.047 310.38 94.047C307.707 94.047 305.702 94.4765 304.365 95.3356C303.322 96.0067 302.48 97.2685 301.839 99.1208ZM315.994 107.738C313.749 108.544 311.41 109.255 308.977 109.872C305.662 110.758 303.563 111.631 302.681 112.49C301.772 113.376 301.317 114.383 301.317 115.51C301.317 116.799 301.758 117.859 302.641 118.691C303.55 119.497 304.873 119.899 306.611 119.899C308.429 119.899 310.113 119.456 311.663 118.57C313.241 117.685 314.35 116.611 314.992 115.349C315.66 114.06 315.994 112.396 315.994 110.356V107.738Z"/>
</mask>
<path d="M1.67725 2.88184H33.5601C38.8739 2.88184 42.9469 4.19775 45.7793 6.82959C48.6367 9.46143 50.0654 12.7199 50.0654 16.605C50.0654 19.8634 49.0503 22.6582 47.02 24.9893C45.6665 26.5433 43.6864 27.7715 41.0796 28.6738C45.0399 29.6263 47.9474 31.2681 49.8022 33.5991C51.6821 35.9051 52.6221 38.8127 52.6221 42.3218C52.6221 45.1792 51.9578 47.7484 50.6294 50.0293C49.3009 52.3102 47.4837 54.1149 45.1777 55.4434C43.749 56.2705 41.5934 56.8721 38.7109 57.248C34.876 57.7493 32.3319 58 31.0786 58H1.67725V2.88184ZM18.8594 24.5005H26.2661C28.923 24.5005 30.7653 24.0493 31.793 23.147C32.8457 22.2196 33.3721 20.8911 33.3721 19.1616C33.3721 17.5575 32.8457 16.3042 31.793 15.4019C30.7653 14.4995 28.9606 14.0483 26.3789 14.0483H18.8594V24.5005ZM18.8594 46.1567H27.5444C30.4771 46.1567 32.5449 45.6429 33.748 44.6152C34.9512 43.5625 35.5527 42.1589 35.5527 40.4043C35.5527 38.7751 34.9512 37.4717 33.748 36.4941C32.57 35.4915 30.4896 34.9902 27.5068 34.9902H18.8594V46.1567Z" fill="#EB893D"/>
<path d="M74.5039 31.0049L59.8784 29.4634C60.4299 26.9067 61.2194 24.9015 62.2471 23.4478C63.2998 21.9689 64.8037 20.6906 66.7588 19.6128C68.1624 18.8358 70.0924 18.2342 72.5488 17.8081C75.0052 17.382 77.6621 17.1689 80.5195 17.1689C85.1064 17.1689 88.791 17.4321 91.5732 17.9585C94.3555 18.4598 96.674 19.5251 98.5288 21.1543C99.8322 22.2822 100.86 23.8864 101.612 25.9668C102.364 28.0221 102.74 29.9897 102.74 31.8696V49.5029C102.74 51.3828 102.853 52.8617 103.078 53.9395C103.329 54.9922 103.855 56.3457 104.657 58H90.2949C89.7184 56.9723 89.3424 56.1953 89.167 55.6689C88.9915 55.1175 88.8161 54.2653 88.6406 53.1123C86.6354 55.0423 84.6427 56.4209 82.6626 57.248C79.9556 58.3509 76.8099 58.9023 73.2256 58.9023C68.4632 58.9023 64.8413 57.7995 62.3599 55.5938C59.9035 53.388 58.6753 50.6685 58.6753 47.4351C58.6753 44.4022 59.5651 41.9082 61.3447 39.9531C63.1243 37.998 66.4079 36.5443 71.1953 35.5918C76.9352 34.4388 80.6574 33.6367 82.3618 33.1855C84.0662 32.7093 85.8709 32.0952 87.7759 31.3433C87.7759 29.4634 87.3874 28.1475 86.6104 27.3955C85.8333 26.6436 84.4673 26.2676 82.5122 26.2676C80.0057 26.2676 78.1258 26.6686 76.8726 27.4707C75.895 28.0973 75.1055 29.2754 74.5039 31.0049ZM87.7759 39.0508C85.6704 39.8027 83.4772 40.467 81.1963 41.0435C78.0882 41.8706 76.1206 42.6852 75.2935 43.4873C74.4412 44.3145 74.0151 45.2544 74.0151 46.3071C74.0151 47.5103 74.4287 48.5003 75.2559 49.2773C76.1081 50.0293 77.3488 50.4053 78.978 50.4053C80.6825 50.4053 82.2616 49.9917 83.7153 49.1646C85.1942 48.3374 86.2344 47.3348 86.8359 46.1567C87.4626 44.9536 87.7759 43.3996 87.7759 41.4946V39.0508Z" fill="#EB893D"/>
<path d="M129.021 2.88184V18.0713H137.442V29.2378H129.021V43.4121C129.021 45.1165 129.183 46.2445 129.509 46.7959C130.011 47.6481 130.888 48.0742 132.141 48.0742C133.269 48.0742 134.848 47.7484 136.878 47.0967L138.006 57.6616C134.222 58.4888 130.687 58.9023 127.404 58.9023C123.594 58.9023 120.787 58.4136 118.982 57.436C117.177 56.4585 115.836 54.9797 114.959 52.9995C114.107 50.9943 113.681 47.7609 113.681 43.2993V29.2378H108.041V18.0713H113.681V10.7397L129.021 2.88184Z" fill="#EB893D"/>
<path d="M163.234 2.88184V18.0713H171.656V29.2378H163.234V43.4121C163.234 45.1165 163.397 46.2445 163.723 46.7959C164.224 47.6481 165.102 48.0742 166.355 48.0742C167.483 48.0742 169.062 47.7484 171.092 47.0967L172.22 57.6616C168.435 58.4888 164.901 58.9023 161.618 58.9023C157.808 58.9023 155 58.4136 153.196 57.436C151.391 56.4585 150.05 54.9797 149.173 52.9995C148.321 50.9943 147.895 47.7609 147.895 43.2993V29.2378H142.255V18.0713H147.895V10.7397L163.234 2.88184Z" fill="#EB893D"/>
<path d="M223.315 41.833H192.636C192.911 44.2894 193.576 46.1191 194.628 47.3223C196.107 49.0518 198.037 49.9165 200.418 49.9165C201.922 49.9165 203.351 49.5405 204.705 48.7886C205.532 48.3123 206.422 47.4727 207.374 46.2695L222.451 47.6606C220.145 51.6711 217.362 54.5535 214.104 56.3081C210.846 58.0376 206.171 58.9023 200.08 58.9023C194.791 58.9023 190.631 58.1629 187.598 56.6841C184.565 55.1802 182.046 52.8115 180.041 49.5781C178.06 46.3197 177.07 42.4972 177.07 38.1108C177.07 31.8696 179.063 26.819 183.048 22.959C187.059 19.099 192.586 17.1689 199.629 17.1689C205.344 17.1689 209.855 18.0337 213.164 19.7632C216.473 21.4927 218.992 23.9992 220.721 27.2827C222.451 30.5662 223.315 34.8398 223.315 40.1035V41.833ZM207.75 34.5015C207.449 31.5438 206.647 29.4258 205.344 28.1475C204.065 26.8691 202.374 26.23 200.268 26.23C197.837 26.23 195.894 27.195 194.44 29.125C193.513 30.3281 192.924 32.1203 192.673 34.5015H207.75Z" fill="#EB893D"/>
<path d="M230.497 18.0713H244.821V24.6133C246.2 21.7809 247.616 19.8384 249.07 18.7856C250.549 17.7078 252.366 17.1689 254.521 17.1689C256.777 17.1689 259.246 17.8708 261.928 19.2744L257.191 30.1777C255.386 29.4258 253.958 29.0498 252.905 29.0498C250.9 29.0498 249.346 29.877 248.243 31.5312C246.664 33.8623 245.874 38.2236 245.874 44.6152V58H230.497V18.0713Z" fill="#EB893D"/>
<path d="M265.124 2.88184H280.426V13.2964H265.124V2.88184ZM265.124 18.0713H280.426V58H265.124V18.0713Z" fill="#EB893D"/>
<path d="M304.15 31.0049L289.525 29.4634C290.076 26.9067 290.866 24.9015 291.894 23.4478C292.946 21.9689 294.45 20.6906 296.405 19.6128C297.809 18.8358 299.739 18.2342 302.195 17.8081C304.652 17.382 307.309 17.1689 310.166 17.1689C314.753 17.1689 318.438 17.4321 321.22 17.9585C324.002 18.4598 326.32 19.5251 328.175 21.1543C329.479 22.2822 330.506 23.8864 331.258 25.9668C332.01 28.0221 332.386 29.9897 332.386 31.8696V49.5029C332.386 51.3828 332.499 52.8617 332.725 53.9395C332.975 54.9922 333.502 56.3457 334.304 58H319.941C319.365 56.9723 318.989 56.1953 318.813 55.6689C318.638 55.1175 318.463 54.2653 318.287 53.1123C316.282 55.0423 314.289 56.4209 312.309 57.248C309.602 58.3509 306.456 58.9023 302.872 58.9023C298.11 58.9023 294.488 57.7995 292.006 55.5938C289.55 53.388 288.322 50.6685 288.322 47.4351C288.322 44.4022 289.212 41.9082 290.991 39.9531C292.771 37.998 296.054 36.5443 300.842 35.5918C306.582 34.4388 310.304 33.6367 312.008 33.1855C313.713 32.7093 315.517 32.0952 317.422 31.3433C317.422 29.4634 317.034 28.1475 316.257 27.3955C315.48 26.6436 314.114 26.2676 312.159 26.2676C309.652 26.2676 307.772 26.6686 306.519 27.4707C305.542 28.0973 304.752 29.2754 304.15 31.0049ZM317.422 39.0508C315.317 39.8027 313.124 40.467 310.843 41.0435C307.735 41.8706 305.767 42.6852 304.94 43.4873C304.088 44.3145 303.662 45.2544 303.662 46.3071C303.662 47.5103 304.075 48.5003 304.902 49.2773C305.755 50.0293 306.995 50.4053 308.625 50.4053C310.329 50.4053 311.908 49.9917 313.362 49.1646C314.841 48.3374 315.881 47.3348 316.482 46.1567C317.109 44.9536 317.422 43.3996 317.422 41.4946V39.0508Z" fill="#EB893D"/>
<path d="M2 69H36.006C41.6737 69 46.018 70.4094 49.039 73.2282C52.0867 76.047 53.6106 79.5369 53.6106 83.698C53.6106 87.1879 52.5278 90.1812 50.3624 92.6778C48.9187 94.3423 46.8067 95.6577 44.0263 96.6242C48.2504 97.6443 51.3515 99.4027 53.3299 101.899C55.3349 104.369 56.3375 107.483 56.3375 111.242C56.3375 114.302 55.629 117.054 54.2121 119.497C52.7952 121.94 50.8569 123.872 48.3974 125.295C46.8735 126.181 44.5744 126.826 41.4999 127.228C37.4096 127.765 34.6961 128.034 33.3593 128.034H2V69ZM20.3264 92.1544H28.2264C31.0602 92.1544 33.0252 91.6711 34.1213 90.7047C35.2441 89.7114 35.8055 88.2886 35.8055 86.4362C35.8055 84.7181 35.2441 83.3758 34.1213 82.4094C33.0252 81.443 31.1003 80.9597 28.3467 80.9597H20.3264V92.1544ZM20.3264 115.349H29.5898C32.7177 115.349 34.9233 114.799 36.2065 113.698C37.4898 112.57 38.1314 111.067 38.1314 109.188C38.1314 107.443 37.4898 106.047 36.2065 105C34.95 103.926 32.7311 103.389 29.5497 103.389H20.3264V115.349Z" fill="#EB893D"/>
<path d="M79.6765 99.1208L64.0771 97.4698C64.6652 94.7315 65.5073 92.5839 66.6035 91.0268C67.7263 89.443 69.3304 88.0738 71.4156 86.9195C72.9127 86.0872 74.9713 85.443 77.5913 84.9866C80.2112 84.5302 83.0451 84.302 86.0928 84.302C90.9851 84.302 94.9151 84.5839 97.8826 85.1477C100.85 85.6846 103.323 86.8255 105.301 88.5705C106.692 89.7785 107.788 91.4966 108.59 93.7248C109.392 95.9262 109.793 98.0336 109.793 100.047V118.933C109.793 120.946 109.913 122.53 110.154 123.685C110.421 124.812 110.982 126.262 111.838 128.034H96.5191C95.9043 126.933 95.5032 126.101 95.3161 125.537C95.129 124.946 94.9418 124.034 94.7547 122.799C92.6159 124.866 90.4906 126.342 88.3785 127.228C85.4912 128.409 82.1361 129 78.3131 129C73.2336 129 69.3705 127.819 66.7238 125.456C64.1038 123.094 62.7938 120.181 62.7938 116.718C62.7938 113.47 63.7429 110.799 65.641 108.705C67.5392 106.611 71.0414 105.054 76.1476 104.034C82.2698 102.799 86.2398 101.94 88.0577 101.456C89.8757 100.946 91.8005 100.289 93.8323 99.4832C93.8323 97.4698 93.418 96.0604 92.5892 95.255C91.7604 94.4497 90.3034 94.047 88.2181 94.047C85.5447 94.047 83.5396 94.4765 82.2029 95.3356C81.1603 96.0067 80.3182 97.2685 79.6765 99.1208ZM93.8323 107.738C91.5867 108.544 89.2474 109.255 86.8146 109.872C83.4995 110.758 81.4009 111.631 80.5187 112.49C79.6097 113.376 79.1552 114.383 79.1552 115.51C79.1552 116.799 79.5963 117.859 80.4786 118.691C81.3875 119.497 82.7109 119.899 84.4486 119.899C86.2665 119.899 87.9508 119.456 89.5014 118.57C91.0787 117.685 92.1882 116.611 92.8298 115.349C93.4982 114.06 93.8323 112.396 93.8323 110.356V107.738Z" fill="#EB893D"/>
<path d="M113.282 85.2685H130.285L138.545 112.369L147.087 85.2685H163.569L145.483 128.034H131.006L113.282 85.2685Z" fill="#EB893D"/>
<path d="M183.219 99.1208L167.619 97.4698C168.207 94.7315 169.049 92.5839 170.145 91.0268C171.268 89.443 172.872 88.0738 174.958 86.9195C176.455 86.0872 178.513 85.443 181.133 84.9866C183.753 84.5302 186.587 84.302 189.635 84.302C194.527 84.302 198.457 84.5839 201.425 85.1477C204.392 85.6846 206.865 86.8255 208.843 88.5705C210.234 89.7785 211.33 91.4966 212.132 93.7248C212.934 95.9262 213.335 98.0336 213.335 100.047V118.933C213.335 120.946 213.455 122.53 213.696 123.685C213.963 124.812 214.524 126.262 215.38 128.034H200.061C199.446 126.933 199.045 126.101 198.858 125.537C198.671 124.946 198.484 124.034 198.297 122.799C196.158 124.866 194.033 126.342 191.921 127.228C189.033 128.409 185.678 129 181.855 129C176.776 129 172.912 127.819 170.266 125.456C167.646 123.094 166.336 120.181 166.336 116.718C166.336 113.47 167.285 110.799 169.183 108.705C171.081 106.611 174.583 105.054 179.69 104.034C185.812 102.799 189.782 101.94 191.6 101.456C193.418 100.946 195.343 100.289 197.374 99.4832C197.374 97.4698 196.96 96.0604 196.131 95.255C195.302 94.4497 193.845 94.047 191.76 94.047C189.087 94.047 187.082 94.4765 185.745 95.3356C184.702 96.0067 183.86 97.2685 183.219 99.1208ZM197.374 107.738C195.129 108.544 192.789 109.255 190.357 109.872C187.042 110.758 184.943 111.631 184.061 112.49C183.152 113.376 182.697 114.383 182.697 115.51C182.697 116.799 183.138 117.859 184.021 118.691C184.93 119.497 186.253 119.899 187.991 119.899C189.809 119.899 191.493 119.456 193.043 118.57C194.621 117.685 195.73 116.611 196.372 115.349C197.04 114.06 197.374 112.396 197.374 110.356V107.738Z" fill="#EB893D"/>
<path d="M223.28 85.2685H238.559V92.2752C240.029 89.2416 241.539 87.1611 243.09 86.0336C244.667 84.8792 246.606 84.302 248.905 84.302C251.311 84.302 253.944 85.0537 256.805 86.557L251.752 98.2349C249.827 97.4295 248.303 97.0268 247.18 97.0268C245.042 97.0268 243.384 97.9128 242.208 99.6846C240.523 102.181 239.681 106.852 239.681 113.698V128.034H223.28V85.2685Z" fill="#EB893D"/>
<path d="M260.213 69H276.535V80.1544H260.213V69ZM260.213 85.2685H276.535V128.034H260.213V85.2685Z" fill="#EB893D"/>
<path d="M301.839 99.1208L286.239 97.4698C286.827 94.7315 287.669 92.5839 288.766 91.0268C289.888 89.443 291.492 88.0738 293.578 86.9195C295.075 86.0872 297.133 85.443 299.753 84.9866C302.373 84.5302 305.207 84.302 308.255 84.302C313.147 84.302 317.077 84.5839 320.045 85.1477C323.012 85.6846 325.485 86.8255 327.463 88.5705C328.854 89.7785 329.95 91.4966 330.752 93.7248C331.554 95.9262 331.955 98.0336 331.955 100.047V118.933C331.955 120.946 332.075 122.53 332.316 123.685C332.583 124.812 333.145 126.262 334 128.034H318.681C318.066 126.933 317.665 126.101 317.478 125.537C317.291 124.946 317.104 124.034 316.917 122.799C314.778 124.866 312.653 126.342 310.541 127.228C307.653 128.409 304.298 129 300.475 129C295.396 129 291.533 127.819 288.886 125.456C286.266 123.094 284.956 120.181 284.956 116.718C284.956 113.47 285.905 110.799 287.803 108.705C289.701 106.611 293.203 105.054 298.31 104.034C304.432 102.799 308.402 101.94 310.22 101.456C312.038 100.946 313.963 100.289 315.994 99.4832C315.994 97.4698 315.58 96.0604 314.751 95.255C313.923 94.4497 312.466 94.047 310.38 94.047C307.707 94.047 305.702 94.4765 304.365 95.3356C303.322 96.0067 302.48 97.2685 301.839 99.1208ZM315.994 107.738C313.749 108.544 311.41 109.255 308.977 109.872C305.662 110.758 303.563 111.631 302.681 112.49C301.772 113.376 301.317 114.383 301.317 115.51C301.317 116.799 301.758 117.859 302.641 118.691C303.55 119.497 304.873 119.899 306.611 119.899C308.429 119.899 310.113 119.456 311.663 118.57C313.241 117.685 314.35 116.611 314.992 115.349C315.66 114.06 315.994 112.396 315.994 110.356V107.738Z" fill="#EB893D"/>
<path d="M1.67725 2.88184H33.5601C38.8739 2.88184 42.9469 4.19775 45.7793 6.82959C48.6367 9.46143 50.0654 12.7199 50.0654 16.605C50.0654 19.8634 49.0503 22.6582 47.02 24.9893C45.6665 26.5433 43.6864 27.7715 41.0796 28.6738C45.0399 29.6263 47.9474 31.2681 49.8022 33.5991C51.6821 35.9051 52.6221 38.8127 52.6221 42.3218C52.6221 45.1792 51.9578 47.7484 50.6294 50.0293C49.3009 52.3102 47.4837 54.1149 45.1777 55.4434C43.749 56.2705 41.5934 56.8721 38.7109 57.248C34.876 57.7493 32.3319 58 31.0786 58H1.67725V2.88184ZM18.8594 24.5005H26.2661C28.923 24.5005 30.7653 24.0493 31.793 23.147C32.8457 22.2196 33.3721 20.8911 33.3721 19.1616C33.3721 17.5575 32.8457 16.3042 31.793 15.4019C30.7653 14.4995 28.9606 14.0483 26.3789 14.0483H18.8594V24.5005ZM18.8594 46.1567H27.5444C30.4771 46.1567 32.5449 45.6429 33.748 44.6152C34.9512 43.5625 35.5527 42.1589 35.5527 40.4043C35.5527 38.7751 34.9512 37.4717 33.748 36.4941C32.57 35.4915 30.4896 34.9902 27.5068 34.9902H18.8594V46.1567Z" stroke="black" stroke-width="3" mask="url(#path-1-outside-1_1_6)"/>
<path d="M74.5039 31.0049L59.8784 29.4634C60.4299 26.9067 61.2194 24.9015 62.2471 23.4478C63.2998 21.9689 64.8037 20.6906 66.7588 19.6128C68.1624 18.8358 70.0924 18.2342 72.5488 17.8081C75.0052 17.382 77.6621 17.1689 80.5195 17.1689C85.1064 17.1689 88.791 17.4321 91.5732 17.9585C94.3555 18.4598 96.674 19.5251 98.5288 21.1543C99.8322 22.2822 100.86 23.8864 101.612 25.9668C102.364 28.0221 102.74 29.9897 102.74 31.8696V49.5029C102.74 51.3828 102.853 52.8617 103.078 53.9395C103.329 54.9922 103.855 56.3457 104.657 58H90.2949C89.7184 56.9723 89.3424 56.1953 89.167 55.6689C88.9915 55.1175 88.8161 54.2653 88.6406 53.1123C86.6354 55.0423 84.6427 56.4209 82.6626 57.248C79.9556 58.3509 76.8099 58.9023 73.2256 58.9023C68.4632 58.9023 64.8413 57.7995 62.3599 55.5938C59.9035 53.388 58.6753 50.6685 58.6753 47.4351C58.6753 44.4022 59.5651 41.9082 61.3447 39.9531C63.1243 37.998 66.4079 36.5443 71.1953 35.5918C76.9352 34.4388 80.6574 33.6367 82.3618 33.1855C84.0662 32.7093 85.8709 32.0952 87.7759 31.3433C87.7759 29.4634 87.3874 28.1475 86.6104 27.3955C85.8333 26.6436 84.4673 26.2676 82.5122 26.2676C80.0057 26.2676 78.1258 26.6686 76.8726 27.4707C75.895 28.0973 75.1055 29.2754 74.5039 31.0049ZM87.7759 39.0508C85.6704 39.8027 83.4772 40.467 81.1963 41.0435C78.0882 41.8706 76.1206 42.6852 75.2935 43.4873C74.4412 44.3145 74.0151 45.2544 74.0151 46.3071C74.0151 47.5103 74.4287 48.5003 75.2559 49.2773C76.1081 50.0293 77.3488 50.4053 78.978 50.4053C80.6825 50.4053 82.2616 49.9917 83.7153 49.1646C85.1942 48.3374 86.2344 47.3348 86.8359 46.1567C87.4626 44.9536 87.7759 43.3996 87.7759 41.4946V39.0508Z" stroke="black" stroke-width="3" mask="url(#path-1-outside-1_1_6)"/>
<path d="M129.021 2.88184V18.0713H137.442V29.2378H129.021V43.4121C129.021 45.1165 129.183 46.2445 129.509 46.7959C130.011 47.6481 130.888 48.0742 132.141 48.0742C133.269 48.0742 134.848 47.7484 136.878 47.0967L138.006 57.6616C134.222 58.4888 130.687 58.9023 127.404 58.9023C123.594 58.9023 120.787 58.4136 118.982 57.436C117.177 56.4585 115.836 54.9797 114.959 52.9995C114.107 50.9943 113.681 47.7609 113.681 43.2993V29.2378H108.041V18.0713H113.681V10.7397L129.021 2.88184Z" stroke="black" stroke-width="3" mask="url(#path-1-outside-1_1_6)"/>
<path d="M163.234 2.88184V18.0713H171.656V29.2378H163.234V43.4121C163.234 45.1165 163.397 46.2445 163.723 46.7959C164.224 47.6481 165.102 48.0742 166.355 48.0742C167.483 48.0742 169.062 47.7484 171.092 47.0967L172.22 57.6616C168.435 58.4888 164.901 58.9023 161.618 58.9023C157.808 58.9023 155 58.4136 153.196 57.436C151.391 56.4585 150.05 54.9797 149.173 52.9995C148.321 50.9943 147.895 47.7609 147.895 43.2993V29.2378H142.255V18.0713H147.895V10.7397L163.234 2.88184Z" stroke="black" stroke-width="3" mask="url(#path-1-outside-1_1_6)"/>
<path d="M223.315 41.833H192.636C192.911 44.2894 193.576 46.1191 194.628 47.3223C196.107 49.0518 198.037 49.9165 200.418 49.9165C201.922 49.9165 203.351 49.5405 204.705 48.7886C205.532 48.3123 206.422 47.4727 207.374 46.2695L222.451 47.6606C220.145 51.6711 217.362 54.5535 214.104 56.3081C210.846 58.0376 206.171 58.9023 200.08 58.9023C194.791 58.9023 190.631 58.1629 187.598 56.6841C184.565 55.1802 182.046 52.8115 180.041 49.5781C178.06 46.3197 177.07 42.4972 177.07 38.1108C177.07 31.8696 179.063 26.819 183.048 22.959C187.059 19.099 192.586 17.1689 199.629 17.1689C205.344 17.1689 209.855 18.0337 213.164 19.7632C216.473 21.4927 218.992 23.9992 220.721 27.2827C222.451 30.5662 223.315 34.8398 223.315 40.1035V41.833ZM207.75 34.5015C207.449 31.5438 206.647 29.4258 205.344 28.1475C204.065 26.8691 202.374 26.23 200.268 26.23C197.837 26.23 195.894 27.195 194.44 29.125C193.513 30.3281 192.924 32.1203 192.673 34.5015H207.75Z" stroke="black" stroke-width="3" mask="url(#path-1-outside-1_1_6)"/>
<path d="M230.497 18.0713H244.821V24.6133C246.2 21.7809 247.616 19.8384 249.07 18.7856C250.549 17.7078 252.366 17.1689 254.521 17.1689C256.777 17.1689 259.246 17.8708 261.928 19.2744L257.191 30.1777C255.386 29.4258 253.958 29.0498 252.905 29.0498C250.9 29.0498 249.346 29.877 248.243 31.5312C246.664 33.8623 245.874 38.2236 245.874 44.6152V58H230.497V18.0713Z" stroke="black" stroke-width="3" mask="url(#path-1-outside-1_1_6)"/>
<path d="M265.124 2.88184H280.426V13.2964H265.124V2.88184ZM265.124 18.0713H280.426V58H265.124V18.0713Z" stroke="black" stroke-width="3" mask="url(#path-1-outside-1_1_6)"/>
<path d="M304.15 31.0049L289.525 29.4634C290.076 26.9067 290.866 24.9015 291.894 23.4478C292.946 21.9689 294.45 20.6906 296.405 19.6128C297.809 18.8358 299.739 18.2342 302.195 17.8081C304.652 17.382 307.309 17.1689 310.166 17.1689C314.753 17.1689 318.438 17.4321 321.22 17.9585C324.002 18.4598 326.32 19.5251 328.175 21.1543C329.479 22.2822 330.506 23.8864 331.258 25.9668C332.01 28.0221 332.386 29.9897 332.386 31.8696V49.5029C332.386 51.3828 332.499 52.8617 332.725 53.9395C332.975 54.9922 333.502 56.3457 334.304 58H319.941C319.365 56.9723 318.989 56.1953 318.813 55.6689C318.638 55.1175 318.463 54.2653 318.287 53.1123C316.282 55.0423 314.289 56.4209 312.309 57.248C309.602 58.3509 306.456 58.9023 302.872 58.9023C298.11 58.9023 294.488 57.7995 292.006 55.5938C289.55 53.388 288.322 50.6685 288.322 47.4351C288.322 44.4022 289.212 41.9082 290.991 39.9531C292.771 37.998 296.054 36.5443 300.842 35.5918C306.582 34.4388 310.304 33.6367 312.008 33.1855C313.713 32.7093 315.517 32.0952 317.422 31.3433C317.422 29.4634 317.034 28.1475 316.257 27.3955C315.48 26.6436 314.114 26.2676 312.159 26.2676C309.652 26.2676 307.772 26.6686 306.519 27.4707C305.542 28.0973 304.752 29.2754 304.15 31.0049ZM317.422 39.0508C315.317 39.8027 313.124 40.467 310.843 41.0435C307.735 41.8706 305.767 42.6852 304.94 43.4873C304.088 44.3145 303.662 45.2544 303.662 46.3071C303.662 47.5103 304.075 48.5003 304.902 49.2773C305.755 50.0293 306.995 50.4053 308.625 50.4053C310.329 50.4053 311.908 49.9917 313.362 49.1646C314.841 48.3374 315.881 47.3348 316.482 46.1567C317.109 44.9536 317.422 43.3996 317.422 41.4946V39.0508Z" stroke="black" stroke-width="3" mask="url(#path-1-outside-1_1_6)"/>
<path d="M2 69H36.006C41.6737 69 46.018 70.4094 49.039 73.2282C52.0867 76.047 53.6106 79.5369 53.6106 83.698C53.6106 87.1879 52.5278 90.1812 50.3624 92.6778C48.9187 94.3423 46.8067 95.6577 44.0263 96.6242C48.2504 97.6443 51.3515 99.4027 53.3299 101.899C55.3349 104.369 56.3375 107.483 56.3375 111.242C56.3375 114.302 55.629 117.054 54.2121 119.497C52.7952 121.94 50.8569 123.872 48.3974 125.295C46.8735 126.181 44.5744 126.826 41.4999 127.228C37.4096 127.765 34.6961 128.034 33.3593 128.034H2V69ZM20.3264 92.1544H28.2264C31.0602 92.1544 33.0252 91.6711 34.1213 90.7047C35.2441 89.7114 35.8055 88.2886 35.8055 86.4362C35.8055 84.7181 35.2441 83.3758 34.1213 82.4094C33.0252 81.443 31.1003 80.9597 28.3467 80.9597H20.3264V92.1544ZM20.3264 115.349H29.5898C32.7177 115.349 34.9233 114.799 36.2065 113.698C37.4898 112.57 38.1314 111.067 38.1314 109.188C38.1314 107.443 37.4898 106.047 36.2065 105C34.95 103.926 32.7311 103.389 29.5497 103.389H20.3264V115.349Z" stroke="black" stroke-width="3" mask="url(#path-1-outside-1_1_6)"/>
<path d="M79.6765 99.1208L64.0771 97.4698C64.6652 94.7315 65.5073 92.5839 66.6035 91.0268C67.7263 89.443 69.3304 88.0738 71.4156 86.9195C72.9127 86.0872 74.9713 85.443 77.5913 84.9866C80.2112 84.5302 83.0451 84.302 86.0928 84.302C90.9851 84.302 94.9151 84.5839 97.8826 85.1477C100.85 85.6846 103.323 86.8255 105.301 88.5705C106.692 89.7785 107.788 91.4966 108.59 93.7248C109.392 95.9262 109.793 98.0336 109.793 100.047V118.933C109.793 120.946 109.913 122.53 110.154 123.685C110.421 124.812 110.982 126.262 111.838 128.034H96.5191C95.9043 126.933 95.5032 126.101 95.3161 125.537C95.129 124.946 94.9418 124.034 94.7547 122.799C92.6159 124.866 90.4906 126.342 88.3785 127.228C85.4912 128.409 82.1361 129 78.3131 129C73.2336 129 69.3705 127.819 66.7238 125.456C64.1038 123.094 62.7938 120.181 62.7938 116.718C62.7938 113.47 63.7429 110.799 65.641 108.705C67.5392 106.611 71.0414 105.054 76.1476 104.034C82.2698 102.799 86.2398 101.94 88.0577 101.456C89.8757 100.946 91.8005 100.289 93.8323 99.4832C93.8323 97.4698 93.418 96.0604 92.5892 95.255C91.7604 94.4497 90.3034 94.047 88.2181 94.047C85.5447 94.047 83.5396 94.4765 82.2029 95.3356C81.1603 96.0067 80.3182 97.2685 79.6765 99.1208ZM93.8323 107.738C91.5867 108.544 89.2474 109.255 86.8146 109.872C83.4995 110.758 81.4009 111.631 80.5187 112.49C79.6097 113.376 79.1552 114.383 79.1552 115.51C79.1552 116.799 79.5963 117.859 80.4786 118.691C81.3875 119.497 82.7109 119.899 84.4486 119.899C86.2665 119.899 87.9508 119.456 89.5014 118.57C91.0787 117.685 92.1882 116.611 92.8298 115.349C93.4982 114.06 93.8323 112.396 93.8323 110.356V107.738Z" stroke="black" stroke-width="3" mask="url(#path-1-outside-1_1_6)"/>
<path d="M113.282 85.2685H130.285L138.545 112.369L147.087 85.2685H163.569L145.483 128.034H131.006L113.282 85.2685Z" stroke="black" stroke-width="3" mask="url(#path-1-outside-1_1_6)"/>
<path d="M183.219 99.1208L167.619 97.4698C168.207 94.7315 169.049 92.5839 170.145 91.0268C171.268 89.443 172.872 88.0738 174.958 86.9195C176.455 86.0872 178.513 85.443 181.133 84.9866C183.753 84.5302 186.587 84.302 189.635 84.302C194.527 84.302 198.457 84.5839 201.425 85.1477C204.392 85.6846 206.865 86.8255 208.843 88.5705C210.234 89.7785 211.33 91.4966 212.132 93.7248C212.934 95.9262 213.335 98.0336 213.335 100.047V118.933C213.335 120.946 213.455 122.53 213.696 123.685C213.963 124.812 214.524 126.262 215.38 128.034H200.061C199.446 126.933 199.045 126.101 198.858 125.537C198.671 124.946 198.484 124.034 198.297 122.799C196.158 124.866 194.033 126.342 191.921 127.228C189.033 128.409 185.678 129 181.855 129C176.776 129 172.912 127.819 170.266 125.456C167.646 123.094 166.336 120.181 166.336 116.718C166.336 113.47 167.285 110.799 169.183 108.705C171.081 106.611 174.583 105.054 179.69 104.034C185.812 102.799 189.782 101.94 191.6 101.456C193.418 100.946 195.343 100.289 197.374 99.4832C197.374 97.4698 196.96 96.0604 196.131 95.255C195.302 94.4497 193.845 94.047 191.76 94.047C189.087 94.047 187.082 94.4765 185.745 95.3356C184.702 96.0067 183.86 97.2685 183.219 99.1208ZM197.374 107.738C195.129 108.544 192.789 109.255 190.357 109.872C187.042 110.758 184.943 111.631 184.061 112.49C183.152 113.376 182.697 114.383 182.697 115.51C182.697 116.799 183.138 117.859 184.021 118.691C184.93 119.497 186.253 119.899 187.991 119.899C189.809 119.899 191.493 119.456 193.043 118.57C194.621 117.685 195.73 116.611 196.372 115.349C197.04 114.06 197.374 112.396 197.374 110.356V107.738Z" stroke="black" stroke-width="3" mask="url(#path-1-outside-1_1_6)"/>
<path d="M223.28 85.2685H238.559V92.2752C240.029 89.2416 241.539 87.1611 243.09 86.0336C244.667 84.8792 246.606 84.302 248.905 84.302C251.311 84.302 253.944 85.0537 256.805 86.557L251.752 98.2349C249.827 97.4295 248.303 97.0268 247.18 97.0268C245.042 97.0268 243.384 97.9128 242.208 99.6846C240.523 102.181 239.681 106.852 239.681 113.698V128.034H223.28V85.2685Z" stroke="black" stroke-width="3" mask="url(#path-1-outside-1_1_6)"/>
<path d="M260.213 69H276.535V80.1544H260.213V69ZM260.213 85.2685H276.535V128.034H260.213V85.2685Z" stroke="black" stroke-width="3" mask="url(#path-1-outside-1_1_6)"/>
<path d="M301.839 99.1208L286.239 97.4698C286.827 94.7315 287.669 92.5839 288.766 91.0268C289.888 89.443 291.492 88.0738 293.578 86.9195C295.075 86.0872 297.133 85.443 299.753 84.9866C302.373 84.5302 305.207 84.302 308.255 84.302C313.147 84.302 317.077 84.5839 320.045 85.1477C323.012 85.6846 325.485 86.8255 327.463 88.5705C328.854 89.7785 329.95 91.4966 330.752 93.7248C331.554 95.9262 331.955 98.0336 331.955 100.047V118.933C331.955 120.946 332.075 122.53 332.316 123.685C332.583 124.812 333.145 126.262 334 128.034H318.681C318.066 126.933 317.665 126.101 317.478 125.537C317.291 124.946 317.104 124.034 316.917 122.799C314.778 124.866 312.653 126.342 310.541 127.228C307.653 128.409 304.298 129 300.475 129C295.396 129 291.533 127.819 288.886 125.456C286.266 123.094 284.956 120.181 284.956 116.718C284.956 113.47 285.905 110.799 287.803 108.705C289.701 106.611 293.203 105.054 298.31 104.034C304.432 102.799 308.402 101.94 310.22 101.456C312.038 100.946 313.963 100.289 315.994 99.4832C315.994 97.4698 315.58 96.0604 314.751 95.255C313.923 94.4497 312.466 94.047 310.38 94.047C307.707 94.047 305.702 94.4765 304.365 95.3356C303.322 96.0067 302.48 97.2685 301.839 99.1208ZM315.994 107.738C313.749 108.544 311.41 109.255 308.977 109.872C305.662 110.758 303.563 111.631 302.681 112.49C301.772 113.376 301.317 114.383 301.317 115.51C301.317 116.799 301.758 117.859 302.641 118.691C303.55 119.497 304.873 119.899 306.611 119.899C308.429 119.899 310.113 119.456 311.663 118.57C313.241 117.685 314.35 116.611 314.992 115.349C315.66 114.06 315.994 112.396 315.994 110.356V107.738Z" stroke="black" stroke-width="3" mask="url(#path-1-outside-1_1_6)"/>
</svg>
