<svg width="380" height="226" viewBox="0 0 380 226" fill="none" xmlns="http://www.w3.org/2000/svg">
<path d="M207.33 103.67C207.332 83.1652 201.253 63.1203 189.863 46.0703C178.472 29.0203 162.281 15.7311 143.337 7.88333C124.394 0.035552 103.548 -2.0183 83.4374 1.98151C63.3265 5.98132 44.8534 15.8551 30.3542 30.3542C15.8551 44.8534 5.98132 63.3265 1.98151 83.4374C-2.0183 103.548 0.035552 124.394 7.88333 143.337C15.7311 162.281 29.0203 178.472 46.0703 189.863C63.1203 201.253 83.1652 207.332 103.67 207.33C131.162 207.33 157.529 196.409 176.969 176.969C196.409 157.529 207.33 131.162 207.33 103.67Z" fill="#F8CD05"/>
<path d="M232.34 112.94H205.67V91.35H283.65V112.94H256.98V180.25H232.34V112.94Z" fill="#F8CD05"/>
<path d="M284.66 91.35H312.22L332.42 147.61L352.61 91.35H379.66L343.59 180.88H320.73L284.66 91.35Z" fill="#F8CD05"/>
<path d="M104 225.08H86V187.31H103.54C111.25 187.31 116 191.14 116 197.08V197.19C116.043 198.885 115.593 200.556 114.706 202.001C113.818 203.445 112.531 204.602 111 205.33C115.37 207 118.07 209.54 118.07 214.61V214.72C118.07 221.63 112.45 225.08 103.93 225.08M107.71 198.48C107.71 196 105.71 194.6 102.26 194.6H94.06V202.6H101.72C105.39 202.6 107.72 201.41 107.72 198.6V198.49M109.82 213.6C109.82 211.06 107.93 209.5 103.67 209.5H94.07V217.81H104C107.67 217.81 109.88 216.51 109.88 213.71V213.6" fill="white"/>
<path d="M122.08 225.08V187.31H150.56V194.7H130.33V202.37H148.14V209.76H130.33V217.69H150.84V225.08H122.08Z" fill="white"/>
<path d="M178.25 225.08L170.15 213H163.62V225.09H155.32V187.31H172.58C181.48 187.31 186.83 192.01 186.83 199.78V199.88C186.949 202.45 186.221 204.987 184.758 207.103C183.294 209.219 181.177 210.795 178.73 211.59L188 225.08H178.29M178.45 200.21C178.45 196.65 175.97 194.81 171.92 194.81H163.66V205.66H172C176.05 205.66 178.37 203.5 178.37 200.31V200.21" fill="white"/>
<path d="M209.6 225.73C197.83 225.73 189.74 217.47 189.74 206.3V206.2C189.719 203.606 190.219 201.035 191.21 198.638C192.201 196.24 193.663 194.067 195.509 192.245C197.356 190.423 199.549 188.99 201.959 188.03C204.369 187.071 206.947 186.605 209.54 186.66C216.34 186.66 220.44 188.5 224.38 191.84L219.15 198.16C216.23 195.73 213.64 194.33 209.27 194.33C203.27 194.33 198.43 199.67 198.43 206.09V206.2C198.43 213.1 203.18 218.2 209.87 218.2C212.649 218.287 215.385 217.496 217.69 215.94V210.54H209.33V203.37H225.73V219.77C221.254 223.652 215.525 225.783 209.6 225.77" fill="white"/>
<path d="M258.92 225.08L255.46 216.61H239.46L236 225.08H227.53L243.71 187.08H251.38L267.56 225.08H258.88M247.48 197L242.48 209.25H252.48L247.48 197Z" fill="white"/>
<path d="M300.03 225.08V200.42L289.4 216.56H289.19L278.67 200.59V225.08H270.52V187.31H279.48L289.4 203.28L299.33 187.31H308.29V225.08H300.03Z" fill="white"/>
<path d="M332.79 225.73C321.13 225.73 312.79 217.04 312.79 206.3V206.2C312.79 195.46 321.26 186.66 332.91 186.66C344.56 186.66 352.91 195.35 352.91 206.09V206.2C352.91 216.93 344.44 225.73 332.79 225.73ZM344.22 206.2C344.22 199.72 339.48 194.33 332.79 194.33C326.1 194.33 321.46 199.61 321.46 206.09V206.2C321.46 212.67 326.2 218.07 332.89 218.07C339.58 218.07 344.22 212.78 344.22 206.3V206.2Z" fill="white"/>
<path d="M116 196.25H107C106.14 195.18 104.53 194.6 102.28 194.6H94.08V196.25H86V187.31H103.54C110.89 187.31 115.54 190.79 115.97 196.25" fill="white"/>
<path d="M130.33 196.25H122.08V187.31H150.56V194.7H130.33V196.25Z" fill="white"/>
<path d="M186.41 196.25H176.76C175.352 195.214 173.625 194.704 171.88 194.81H163.62V196.25H155.32V187.31H172.58C180.04 187.31 185 190.61 186.41 196.25Z" fill="white"/>
<path d="M85.82 62.65H146.52C161.4 62.65 171.89 66.35 178.82 73.24C181.324 75.7154 183.292 78.6797 184.601 81.9484C185.911 85.2172 186.533 88.7204 186.43 92.24V92.58C186.43 106.18 178.65 114.25 168.17 118.78C182.54 123.49 191.67 131.55 191.67 147.51V147.85C191.67 168.01 175.1 180.27 146.86 180.27H85.86V62.65M138.45 109.52C148.45 109.52 154 106.16 154 99.28V98.94C154 92.56 148.93 88.86 139.12 88.86H117.82V109.52H138.45ZM143.14 154C153.14 154 158.87 150.14 158.87 143.25V143C158.87 136.61 153.79 132.41 142.8 132.41H117.8V154H143.14Z" fill="white"/>
</svg>
