<svg width="482" height="159" viewBox="0 0 482 159" fill="none" xmlns="http://www.w3.org/2000/svg">
<path d="M120.964 46.81C120.964 44.766 120.261 43.645 118.855 43.414H103.242L101.267 50.336H116.881C117.834 50.336 118.754 49.975 119.642 49.249C120.528 48.524 120.964 47.7 120.964 46.81ZM152.558 23.438C152.558 27.69 149.964 30.805 144.76 32.768C148.111 37.059 149.198 39.208 148.978 46.249C148.592 52.727 145.931 58.001 141.029 62.056C137.146 65.287 132.963 67.429 128.528 68.533L73.6716 68.435L87.0086 23.438H152.558ZM153.244 16.911H81.1176L95.5936 0.0490036L140.258 0C149.01 0 153.395 4.64701 153.395 13.961C153.395 14.9 153.345 15.873 153.244 16.911Z" fill="#ED1C24"/>
<path d="M212.872 51.3261H181.979L190.213 23.0421H165.646L153.347 68.5331L199.083 68.5821L212.872 51.3261ZM191.585 16.7131H166.969L171.789 0.544106L196.388 0.395111L191.585 16.7131ZM236.099 41.6351L242.876 68.7311H268.062L258.306 23.2401H209.441L194.865 41.4861L236.099 41.6351ZM257.235 16.8121L253.655 0.49411H228.301L213.457 16.8121H257.235Z" fill="#ED1C24"/>
<path d="M351.678 23.3393C351.678 34.9433 349.385 44.0413 344.817 50.6333C341.153 55.9083 337.805 59.6823 334.759 61.9243C328.718 66.3913 321.137 68.6313 312.017 68.6313H272.106L285.241 23.3393H310.009L301.675 50.8973C303.231 51.5073 304.922 51.8203 306.711 51.8203C310.093 51.8203 313.574 50.8313 317.155 48.8373C323.011 45.5903 326.844 40.9423 328.635 34.9093C329.588 31.7613 330.124 27.9043 330.258 23.3393H351.678ZM350.407 16.7133H280.841L291.616 0.197334H332.116C336.499 0.197334 340.583 1.86234 344.366 5.20934C348.231 8.63634 350.239 12.4773 350.407 16.7133Z" fill="#ED1C24"/>
<path d="M419.603 23.3393L414.733 41.3383H382.184L379.49 50.7333H411.905L407.036 68.4343H348.112L360.363 23.3393H419.603ZM426.113 0.197327L421.661 16.7133H356.247L367.04 0.197327H426.113Z" fill="#ED1C24"/>
<path d="M85.446 112.85C84.894 116.871 82.568 120.662 78.45 124.206C76.509 125.855 74.953 126.892 73.731 127.354C75.271 129.694 76.04 132.184 76.04 134.787C76.04 136.337 75.806 138.496 75.355 141.265C75.053 143.012 73.297 148.568 70.067 157.946H47.558L55.592 130.749H31.912L23.377 157.946H0L13.488 112.85H85.446ZM86.633 106.224H8.818L19.461 89.708H76.576C78.116 89.708 79.706 90.252 81.329 91.357C82.869 92.396 84.04 93.631 84.81 95.048C86.031 97.257 86.633 100.982 86.633 106.224Z" fill="#ED1C24"/>
<path d="M160.598 112.85L147.896 158.044H111.181C99.6683 158.044 92.5383 154.649 89.7943 147.859C89.0403 145.996 88.6733 144.15 88.6733 142.353C88.6733 141.248 88.8073 140.244 89.0583 139.304L96.4713 112.85L118.778 112.8L111.666 137.393C111.331 138.513 111.181 139.336 111.181 139.865C111.181 141.183 111.85 142.04 113.189 142.419H129.22L137.705 112.85H160.598ZM125.105 90.104L120.536 106.323H97.8933L102.646 90.104H125.105ZM166.873 90.154L162.204 106.323H139.262L143.93 90.104L166.873 90.154Z" fill="#ED1C24"/>
<path d="M241.018 112.85L228.803 157.946H203.6L211.349 130.584L196.64 117.432L184.975 158.044H162.032L174.583 112.85H241.018ZM247.345 89.708L242.391 106.224H176.591L181.343 89.708H204.153L218.997 103.719L222.578 89.708H247.345Z" fill="#ED1C24"/>
<path d="M321.263 112.85L309.048 157.946H283.845L291.593 130.584L276.884 117.432L265.22 158.044H242.277L254.827 112.85H321.263ZM327.589 89.708L322.636 106.224H256.835L261.588 89.708H284.398L299.242 103.719L302.823 89.708H327.589Z" fill="#ED1C24"/>
<path d="M393.791 112.85L388.921 130.849H356.373L353.678 140.244H386.092L381.224 157.946H322.3L334.55 112.85H393.791ZM400.301 89.708L395.849 106.224H330.434L341.228 89.708H400.301Z" fill="#ED1C24"/>
<path d="M480.812 112.85C480.26 116.871 477.933 120.662 473.817 124.206C471.875 125.855 470.319 126.892 469.098 127.354C470.638 129.694 471.406 132.184 471.406 134.787C471.406 136.337 471.173 138.496 470.721 141.265C470.419 143.012 468.663 148.568 465.432 157.946H442.925L450.958 130.749H427.278L418.743 157.946H395.366L408.854 112.85H480.812ZM481.999 106.224H404.184L414.828 89.708H471.942C473.482 89.708 475.072 90.252 476.696 91.357C478.235 92.396 479.406 93.631 480.176 95.048C481.398 97.257 481.999 100.982 481.999 106.224Z" fill="#ED1C24"/>
</svg>
