<svg width="251" height="94" viewBox="0 0 251 94" fill="none" xmlns="http://www.w3.org/2000/svg">
<path fill-rule="evenodd" clip-rule="evenodd" d="M235.6 0C227.431 0 220.819 6.6317 220.819 14.781C220.819 22.9785 227.431 29.625 235.6 29.625C243.766 29.625 250.381 22.9787 250.381 14.781C250.391 6.632 243.77 0 235.6 0ZM235.6 2.1875C242.534 2.1875 248.225 7.8276 248.225 14.7815C248.225 21.7823 242.534 27.4695 235.6 27.4695C228.666 27.4695 222.975 21.7828 222.975 14.7815C222.975 7.8277 228.666 2.1875 235.6 2.1875ZM67.79 5.844C67.23 5.844 66.79 6.30054 66.79 6.844V69.656C66.79 70.1995 67.2311 70.656 67.79 70.656H76.665C77.2252 70.656 77.665 70.1984 77.665 69.656V6.844C77.665 6.30054 77.2252 5.844 76.665 5.844H67.79ZM135.448 5.875C134.888 5.875 134.448 6.33154 134.448 6.875V69.656C134.448 70.2139 134.888 70.656 135.448 70.656H144.354C144.913 70.656 145.354 70.2129 145.354 69.656V50.25C145.354 42.8326 149.697 36.531 155.229 36.531C159.232 36.531 160.417 39.1629 160.417 43.5935L160.385 69.6555C160.385 70.2134 160.844 70.6555 161.385 70.6555H170.229C170.771 70.6555 171.229 70.2124 171.229 69.6555V40.9675C171.229 33.5636 168.167 27.4365 158.635 27.4365C152.09 27.4365 147.23 30.5834 144.76 35.3427L144.56 35.2497C145.16 32.7772 145.342 29.2144 145.342 26.6559V6.8749C145.342 6.33144 144.9 5.8749 144.342 5.8749H135.435L135.448 5.875ZM241.608 5.96875L226.67 11.3438V15.0312L231.607 13.25V24.375L241.607 20.8125L241.608 5.96875ZM25.758 25.9058C17.5701 25.9058 9.712 33.9864 5.539 40.7178C3.5964 44.133 1.0004 49.5622 0.2578 54.9367C-0.48874 60.2955 0.38656 66.1117 5.7578 69.1557C13.8907 73.7865 22.5608 69.7698 28.6328 65.1245C29.1783 64.7387 29.7229 64.2473 30.3516 63.7184C31.9103 62.3889 33.23 61.0834 34.2578 59.9684C34.2867 59.925 34.3537 59.8546 34.3828 59.8121C35.6522 58.4826 36.976 57.0327 38.289 55.5309L38.4453 55.8434C42.8614 63.7327 48.6783 71.3264 57.5393 70.6554C58.6106 70.4698 58.5883 69.5494 58.6018 68.4054C58.6162 66.1756 58.5393 61.1554 58.5393 61.1554C58.5682 60.3557 57.9566 59.9435 56.9143 59.8429C56.4278 59.8003 55.4932 59.7877 54.9768 59.5304C52.6204 58.373 51.4985 56.2397 49.5706 53.1242C48.2971 51.0657 47.113 48.8285 45.8831 46.4992C48.3855 43.4262 58.1951 31.0302 58.1951 31.0302C60.9541 27.2562 59.4281 26.9982 56.9141 26.9982L48.9453 26.9669C47.7889 27.024 47.0117 27.4383 46.7265 27.8107C46.0534 28.6538 44.9632 30.1024 43.8203 31.5607C42.5914 33.1619 41.4161 34.7331 40.2265 36.2482C36.7252 30.5608 32.6483 25.9042 25.7574 25.9042L25.758 25.9058ZM203.538 26.3433C195.336 26.3433 187.526 34.4239 183.35 41.1553C181.392 44.5705 178.798 50.0176 178.069 55.4053C177.326 60.7641 178.195 66.5482 183.569 69.5932C194.801 75.9809 207.053 65.9077 212.069 60.4057C212.426 60.0199 212.596 59.0833 212.194 58.4683L207.475 52.4058C206.618 51.3904 205.698 51.2763 204.538 52.4058C201.552 55.3211 199.949 57.7401 195.163 59.812C191.647 61.3273 189.678 60.5319 188.975 59.3745C187.146 56.4012 192.236 48.1174 192.85 47.0304C196.765 40.757 200.879 37.7527 203.506 37.6242C204.05 37.5951 205.05 37.9047 206.037 38.9054C207.007 39.8773 208.031 41.3405 209.131 43.1554C211.363 46.8714 213.681 51.709 216.256 56.3115C220.657 64.1998 226.286 71.3584 235.162 70.6864C236.219 70.5153 236.193 69.6117 236.193 68.4677C236.208 66.2244 236.131 61.1864 236.131 61.1864C236.174 60.4002 235.565 59.9904 234.537 59.9053C234.05 59.8617 233.116 59.8366 232.599 59.5928C230.229 58.4354 229.404 56.6937 227.474 53.5928C225.429 50.277 223.803 46.2924 221.631 42.4048C217.145 34.3434 212.742 26.3428 203.537 26.3428L203.538 26.3433ZM111.288 27.0308C104.9 27.0308 100.396 29.9919 98.007 34.937H97.8195C98.0643 33.3076 98.1966 31.3388 98.2257 29.6245C98.2402 29.5809 98.2257 28.687 98.2257 28.687C98.2257 28.1301 97.8025 27.687 97.257 27.687H89.132C88.5761 27.687 88.132 28.1301 88.132 28.687V92.031C88.132 92.5879 88.5761 93.031 89.132 93.031H98.007C98.5669 93.031 99.0382 92.5879 99.0382 92.031V70.4371C100.839 70.6944 102.432 70.7809 104.476 70.7809C119.111 70.7809 126.788 61.5016 126.788 46.7809C126.787 34.2619 121.336 27.0308 111.288 27.0308ZM108.132 35.9683C113.06 35.9683 115.382 40.0511 115.382 47.9683C115.382 58.4443 110.858 62.3432 104.726 62.3432C102.527 62.3432 100.751 62.1076 99.0383 61.5932V49.8433C99.0383 42.6115 102.429 35.9683 108.132 35.9683ZM25.6998 37.1862C26.2268 37.1571 27.2437 37.4667 28.231 38.4674C29.2039 39.4393 30.3171 40.8878 31.4185 42.7174C31.9339 43.574 32.4822 44.4956 33.0123 45.4674C31.0106 47.8828 29.0704 50.1087 27.1373 52.1236C24.1919 54.9965 22.1019 57.3151 17.3561 59.3736C13.8403 60.8889 11.8987 60.0791 11.1999 58.9361C9.385 55.9628 14.461 47.6481 15.0749 46.5611C18.9932 40.2875 23.0843 37.3147 25.6998 37.1862Z" fill="#DB502B"/>
</svg>
