<svg width="512" height="512" viewBox="0 0 512 512" fill="none" xmlns="http://www.w3.org/2000/svg">
<path d="M512 256C512 397.385 397.385 512 256 512C114.615 512 0 397.385 0 256C0 114.615 114.615 0 256 0C397.385 0 512 114.615 512 256Z" fill="white"/>
<path d="M456 321.5C456 411.799 378.769 485 283.5 485C188.231 485 111 411.799 111 321.5C111 231.201 188.231 158 283.5 158C378.769 158 456 231.201 456 321.5Z" fill="#153760"/>
<path d="M336 322.5C336 352.047 312.047 376 282.5 376C252.953 376 229 352.047 229 322.5C229 292.953 252.953 269 282.5 269C312.047 269 336 292.953 336 322.5Z" fill="white"/>
<path d="M111 71H178C204.51 71 226 92.4903 226 119V322H111V71Z" fill="#153760"/>
</svg>
