<svg width="49" height="82" viewBox="0 0 49 82" fill="none" xmlns="http://www.w3.org/2000/svg">
<path fill-rule="evenodd" clip-rule="evenodd" d="M24.649 16.394C37.959 16.394 48.779 27.218 48.779 40.527C48.779 53.835 37.959 64.661 24.649 64.661C11.339 64.661 0.511002 53.835 0.511002 40.527C0.511002 27.217 11.339 16.394 24.649 16.394ZM24.649 55.774C33.055 55.774 39.896 48.934 39.896 40.527C39.896 32.12 33.055 25.281 24.649 25.281C16.239 25.281 9.399 32.12 9.399 40.527C9.399 48.935 16.239 55.774 24.649 55.774Z" fill="white"/>
<path fill-rule="evenodd" clip-rule="evenodd" d="M30.104 40.527L24.708 0L19.191 40.527H30.104Z" fill="#3B78A6"/>
<path fill-rule="evenodd" clip-rule="evenodd" d="M19.191 40.527L24.587 81.052L30.104 40.527H19.191Z" fill="#808B49"/>
</svg>
