<svg width="47" height="47" viewBox="0 0 47 47" fill="none" xmlns="http://www.w3.org/2000/svg">
<path fill-rule="evenodd" clip-rule="evenodd" d="M22.5941 0.0100193C16.5398 0.190015 10.7939 2.72191 6.57562 7.06845C2.35735 11.415 -0.00137395 17.2341 6.00426e-07 23.291C0.126244 29.382 2.63453 35.1809 6.98682 39.4439C11.3391 43.7069 17.1887 46.0945 23.281 46.0945C29.3733 46.0945 35.2229 43.7069 39.5752 39.4439C43.9275 35.1809 46.4358 29.382 46.562 23.291C46.5627 20.1752 45.938 17.0908 44.725 14.2208C43.512 11.3507 41.7353 8.75327 39.5002 6.58233C37.2651 4.41139 34.6171 2.71109 31.7129 1.58216C28.8087 0.453231 25.7075 -0.0813722 22.593 0.0100193H22.5941ZM32.5628 9.47882V32.5728L17.0318 38.2603V20.8223L9.4693 23.4785V17.791L32.5628 9.47882Z" fill="white"/>
</svg>
