<svg width="129" height="85" viewBox="0 0 129 85" fill="none" xmlns="http://www.w3.org/2000/svg">
<rect width="129" height="85" fill="#1E1E1E"/>
<rect width="129" height="85" fill="white"/>
<rect width="129" height="43" fill="black"/>
<rect y="48" width="39" height="37" fill="black"/>
<rect x="45" y="48" width="39" height="37" fill="black"/>
<rect x="90" y="48" width="39" height="37" fill="black"/>
<path d="M26.093 24.2882C26.093 26.336 25.6428 28.1921 24.7422 29.8566C23.8518 31.5211 22.663 32.8123 21.1756 33.7303C20.1435 34.3658 18.9901 34.8248 17.7152 35.1072C16.4504 35.3897 14.7809 35.5309 12.7067 35.5309H7V13H12.646C14.8517 13 16.6022 13.1614 17.8973 13.4842C19.2025 13.7969 20.3054 14.2307 21.2059 14.7855C22.7439 15.7439 23.9429 17.02 24.803 18.6138C25.663 20.2077 26.093 22.0991 26.093 24.2882ZM22.9513 24.2428C22.9513 22.4774 22.6427 20.9895 22.0255 19.7789C21.4083 18.5684 20.4875 17.6151 19.2632 16.9191C18.3728 16.4147 17.4268 16.0667 16.4251 15.875C15.4234 15.6732 14.2244 15.5724 12.8281 15.5724H10.0051V32.9586H12.8281C14.275 32.9586 15.5347 32.8526 16.6072 32.6408C17.6899 32.4289 18.6815 32.0355 19.582 31.4605C20.7051 30.7443 21.5449 29.8011 22.1014 28.6309C22.668 27.4607 22.9513 25.998 22.9513 24.2428Z" fill="white"/>
<path d="M45.0616 35.5309H30.1727V13H45.0616V15.6632H33.1778V21.8368H45.0616V24.5H33.1778V32.8678H45.0616V35.5309Z" fill="white"/>
<path d="M63.3624 35.5309H49.0654V13H52.0705V32.8678H63.3624V35.5309Z" fill="white"/>
<path d="M82.6041 26.4822C82.6041 28.1164 82.422 29.5439 82.0578 30.7645C81.7036 31.975 81.1168 32.9838 80.2972 33.7908C79.5181 34.5575 78.6075 35.1173 77.5653 35.4704C76.5231 35.8235 75.3089 36 73.9227 36C72.5062 36 71.2718 35.8134 70.2195 35.4401C69.1672 35.0669 68.2818 34.5171 67.5634 33.7908C66.7439 32.9636 66.152 31.9649 65.7877 30.7947C65.4336 29.6246 65.2565 28.1871 65.2565 26.4822V13H68.2616V26.6336C68.2616 27.8542 68.3425 28.8175 68.5044 29.5237C68.6764 30.2298 68.9598 30.8704 69.3544 31.4454C69.7996 32.1011 70.4016 32.5954 71.1605 32.9283C71.9294 33.2612 72.8502 33.4276 73.9227 33.4276C75.0054 33.4276 75.9261 33.2662 76.685 32.9434C77.4439 32.6105 78.051 32.1112 78.5063 31.4454C78.9009 30.8704 79.1791 30.2147 79.341 29.4783C79.513 28.7318 79.599 27.8088 79.599 26.7092V13H82.6041V26.4822Z" fill="white"/>
<path d="M104.821 13L97.0195 24.1368L104.805 35.5309H101.33L95.1679 26.2553L88.8541 35.5309H85.5758L93.4529 24.273L85.758 13H89.2184L95.3045 22.1546L101.527 13H104.821Z" fill="white"/>
<path d="M123 35.5309H108.111V13H123V15.6632H111.116V21.8368H123V24.5H111.116V32.8678H123V35.5309Z" fill="white"/>
<path d="M28 80H12V75.9946H17.0543V63.8707H12V60.1273C12.7726 60.1273 13.5131 60.0862 14.2213 60.004C14.9296 59.9116 15.5198 59.7575 15.992 59.5419C16.55 59.2851 16.9685 58.9513 17.2475 58.5405C17.5265 58.1297 17.6875 57.6162 17.7304 57H23.0584V75.9946H28V80Z" fill="white"/>
<path d="M71.8609 69.1896C72.3613 69.6048 72.7596 70.0892 73.0557 70.6428C73.3519 71.1964 73.5 71.9329 73.5 72.8524C73.5 73.8904 73.2855 74.8592 72.8566 75.7589C72.4379 76.6585 71.7894 77.4296 70.9111 78.0722C70.0532 78.695 69.0421 79.1745 67.8779 79.5106C66.7238 79.8369 65.3196 80 63.6651 80C61.7757 80 60.1519 79.8567 58.7936 79.57C57.4455 79.2833 56.3477 78.962 55.5 78.6061V73.7569H56.0974C56.9757 74.271 58.0226 74.7159 59.2379 75.0916C60.4634 75.4672 61.5817 75.6551 62.5928 75.6551C63.1851 75.6551 63.8285 75.6106 64.523 75.5216C65.2174 75.4227 65.8047 75.2151 66.2847 74.8988C66.6626 74.6516 66.9638 74.355 67.1885 74.009C67.4132 73.6531 67.5255 73.144 67.5255 72.4816C67.5255 71.839 67.3723 71.3447 67.066 70.9987C66.7596 70.6428 66.3562 70.3907 65.8557 70.2424C65.3553 70.0842 64.7528 70.0002 64.0481 69.9903C63.3434 69.9706 62.6898 69.9607 62.0872 69.9607H60.8311V66.0161H62.1332C62.9298 66.0161 63.6345 65.9914 64.2472 65.942C64.86 65.8925 65.3809 65.7789 65.8098 65.6009C66.2591 65.4131 66.5962 65.1659 66.8209 64.8594C67.0455 64.5431 67.1579 64.0834 67.1579 63.4803C67.1579 63.0355 67.0404 62.6796 66.8055 62.4126C66.5706 62.1358 66.2745 61.9183 65.917 61.7602C65.5187 61.5822 65.0489 61.4636 64.5077 61.4043C63.9664 61.3449 63.5017 61.3153 63.1136 61.3153C62.1536 61.3153 61.1119 61.4784 59.9885 61.8046C58.8651 62.121 57.7774 62.5807 56.7255 63.1838H56.1587V58.3939C56.9962 58.0677 58.1349 57.7563 59.5749 57.4597C61.0149 57.1532 62.4753 57 63.9562 57C65.3962 57 66.6574 57.1236 67.74 57.3707C68.8226 57.608 69.7162 57.9293 70.4209 58.3346C71.2583 58.819 71.8813 59.4073 72.2898 60.0993C72.6983 60.7913 72.9026 61.602 72.9026 62.5313C72.9026 63.7571 72.5094 64.8545 71.723 65.8233C70.9366 66.7823 69.9 67.3952 68.6132 67.6622V67.8698C69.134 67.939 69.6855 68.0774 70.2677 68.285C70.8498 68.4926 71.3809 68.7941 71.8609 69.1896Z" fill="white"/>
<path d="M118.937 67.4595C118.937 69.3465 118.694 71.1024 118.21 72.7271C117.726 74.3517 116.989 75.7191 116 76.8291C114.93 78.0299 113.603 78.9331 112.019 79.5386C110.435 80.134 108.588 80.4316 106.479 80.4316C105.732 80.4316 104.925 80.3862 104.057 80.2954C103.189 80.2046 102.619 80.1239 102.347 80.0532V75.6182H102.952C103.255 75.7594 103.684 75.9108 104.239 76.0723C104.804 76.2337 105.571 76.3145 106.54 76.3145C107.327 76.3145 108.099 76.2186 108.855 76.0269C109.612 75.825 110.263 75.5122 110.808 75.0884C111.403 74.6343 111.893 74.0692 112.276 73.3931C112.66 72.7069 112.917 71.8844 113.048 70.9258C112.17 71.4303 111.353 71.8188 110.596 72.0913C109.849 72.3537 108.916 72.4849 107.796 72.4849C106.948 72.4849 106.136 72.384 105.359 72.1821C104.592 71.9702 103.891 71.6473 103.255 71.2134C102.417 70.618 101.746 69.8359 101.242 68.8672C100.747 67.8883 100.5 66.6572 100.5 65.1738C100.5 62.762 101.338 60.7993 103.013 59.2856C104.698 57.7619 106.903 57 109.627 57C111.03 57 112.271 57.1867 113.351 57.5601C114.441 57.9233 115.379 58.4834 116.167 59.2402C117.085 60.1081 117.776 61.2131 118.24 62.5552C118.704 63.8973 118.937 65.5321 118.937 67.4595ZM113.139 66.6118C113.139 65.3807 113.018 64.3716 112.776 63.5845C112.544 62.7873 112.221 62.1717 111.807 61.7378C111.514 61.4149 111.176 61.1828 110.793 61.0415C110.41 60.9002 110.006 60.8296 109.582 60.8296C109.188 60.8296 108.81 60.9002 108.447 61.0415C108.094 61.1727 107.75 61.4048 107.417 61.7378C107.105 62.0607 106.847 62.4845 106.646 63.0093C106.454 63.534 106.358 64.1597 106.358 64.8862C106.358 65.5926 106.464 66.188 106.676 66.6724C106.888 67.1466 107.18 67.5251 107.554 67.8076C107.907 68.0801 108.321 68.2718 108.795 68.3828C109.279 68.4938 109.804 68.5493 110.369 68.5493C110.823 68.5493 111.318 68.4938 111.853 68.3828C112.387 68.2617 112.801 68.1406 113.094 68.0195C113.094 67.9085 113.099 67.7521 113.109 67.5503C113.129 67.3384 113.139 67.0256 113.139 66.6118Z" fill="white"/>
</svg>
