<svg width="38" height="32" viewBox="0 0 38 32" fill="none" xmlns="http://www.w3.org/2000/svg">
<path d="M13.3398 0.513672H15.1855C16.377 0.513672 17.1816 0.568359 17.5996 0.677734C18.0215 0.787109 18.3418 0.966797 18.5605 1.2168C18.7793 1.4668 18.916 1.74609 18.9707 2.05469C19.0254 2.35938 19.0527 2.96094 19.0527 3.85938V7.18164C19.0527 8.0332 19.0117 8.60352 18.9297 8.89258C18.8516 9.17773 18.7129 9.40234 18.5137 9.56641C18.3145 9.72656 18.0684 9.83984 17.7754 9.90625C17.4824 9.96875 17.041 10 16.4512 10H13.3398V0.513672ZM15.8066 2.13672V8.37695C16.1621 8.37695 16.3809 8.30664 16.4629 8.16602C16.5449 8.02148 16.5859 7.63281 16.5859 7V3.31445C16.5859 2.88477 16.5723 2.60938 16.5449 2.48828C16.5176 2.36719 16.4551 2.2793 16.3574 2.22461C16.2598 2.16602 16.0762 2.13672 15.8066 2.13672Z" fill="white"/>
<path d="M22.2695 2.22461L22.1758 3.24414C22.5195 2.51367 23.0176 2.12695 23.6699 2.08398V4.82031C23.2363 4.82031 22.918 4.87891 22.7148 4.99609C22.5117 5.11328 22.3867 5.27734 22.3398 5.48828C22.293 5.69531 22.2695 6.17578 22.2695 6.92969V10H19.9023V2.22461H22.2695Z" fill="white"/>
<path d="M24.9355 8.06641V10H23.1484V8.06641H24.9355Z" fill="white"/>
<path d="M0.847656 11.5137H3.33203C4.00391 11.5137 4.51953 11.5664 4.87891 11.6719C5.24219 11.7773 5.51367 11.9297 5.69336 12.1289C5.87695 12.3281 6 12.5703 6.0625 12.8555C6.12891 13.1367 6.16211 13.5742 6.16211 14.168V14.9941C6.16211 15.5996 6.09961 16.041 5.97461 16.3184C5.84961 16.5957 5.61914 16.8086 5.2832 16.957C4.95117 17.1055 4.51562 17.1797 3.97656 17.1797H3.31445V21H0.847656V11.5137ZM3.31445 13.1367V15.5508C3.38477 15.5547 3.44531 15.5566 3.49609 15.5566C3.72266 15.5566 3.87891 15.502 3.96484 15.3926C4.05469 15.2793 4.09961 15.0469 4.09961 14.6953V13.916C4.09961 13.5918 4.04883 13.3809 3.94727 13.2832C3.8457 13.1855 3.63477 13.1367 3.31445 13.1367Z" fill="white"/>
<path d="M10.8262 11.5137L12.2383 21H9.71289L9.58984 19.2949H8.70508L8.55859 21H6.00391L7.25781 11.5137H10.8262ZM9.51953 17.6133C9.39453 16.5391 9.26953 15.2129 9.14453 13.6348C8.89453 15.4473 8.73828 16.7734 8.67578 17.6133H9.51953Z" fill="white"/>
<path d="M15.127 11.5137V19.1016H16.627V21H12.6602V11.5137H15.127Z" fill="white"/>
<path d="M24.8418 11.5137V21H22.6855V14.5957L21.8242 21H20.2949L19.3867 14.7422V21H17.2305V11.5137H20.4238C20.5176 12.084 20.6172 12.7559 20.7227 13.5293L21.0625 15.9434L21.625 11.5137H24.8418Z" fill="white"/>
<path d="M30.0918 11.5137L31.5039 21H28.9785L28.8555 19.2949H27.9707L27.8242 21H25.2695L26.5234 11.5137H30.0918ZM28.7852 17.6133C28.6602 16.5391 28.5352 15.2129 28.4102 13.6348C28.1602 15.4473 28.0039 16.7734 27.9414 17.6133H28.7852Z" fill="white"/>
<path d="M37.1523 14.3848H34.8613V13.6816C34.8613 13.3535 34.832 13.1445 34.7734 13.0547C34.7148 12.9648 34.6172 12.9199 34.4805 12.9199C34.332 12.9199 34.2188 12.9805 34.1406 13.1016C34.0664 13.2227 34.0293 13.4062 34.0293 13.6523C34.0293 13.9688 34.0723 14.207 34.1582 14.3672C34.2402 14.5273 34.4727 14.7207 34.8555 14.9473C35.9531 15.5996 36.6445 16.1348 36.9297 16.5527C37.2148 16.9707 37.3574 17.6445 37.3574 18.5742C37.3574 19.25 37.2773 19.748 37.1172 20.0684C36.9609 20.3887 36.6562 20.6582 36.2031 20.877C35.75 21.0918 35.2227 21.1992 34.6211 21.1992C33.9609 21.1992 33.3965 21.0742 32.9277 20.8242C32.4629 20.5742 32.1582 20.2559 32.0137 19.8691C31.8691 19.4824 31.7969 18.9336 31.7969 18.2227V17.6016H34.0879V18.7559C34.0879 19.1113 34.1191 19.3398 34.1816 19.4414C34.248 19.543 34.3633 19.5938 34.5273 19.5938C34.6914 19.5938 34.8125 19.5293 34.8906 19.4004C34.9727 19.2715 35.0137 19.0801 35.0137 18.8262C35.0137 18.2676 34.9375 17.9023 34.7852 17.7305C34.6289 17.5586 34.2441 17.2715 33.6309 16.8691C33.0176 16.4629 32.6113 16.168 32.4121 15.9844C32.2129 15.8008 32.0469 15.5469 31.9141 15.2227C31.7852 14.8984 31.7207 14.4844 31.7207 13.9805C31.7207 13.2539 31.8125 12.7227 31.9961 12.3867C32.1836 12.0508 32.4844 11.7891 32.8984 11.6016C33.3125 11.4102 33.8125 11.3145 34.3984 11.3145C35.0391 11.3145 35.584 11.418 36.0332 11.625C36.4863 11.832 36.7852 12.0938 36.9297 12.4102C37.0781 12.7227 37.1523 13.2559 37.1523 14.0098V14.3848Z" fill="white"/>
<path d="M18.4023 22.5137V24.4121H16.9375V32H14.4707V24.4121H13.0117V22.5137H18.4023Z" fill="white"/>
<path d="M25.1289 22.5137L23.875 32H20.1309L18.707 22.5137H21.3086C21.6094 25.127 21.8242 27.3359 21.9531 29.1406C22.082 27.3164 22.2168 25.6953 22.3574 24.2773L22.5273 22.5137H25.1289Z" fill="white"/>
</svg>
