<svg width="2500" height="1327" viewBox="0 0 2500 1327" fill="none" xmlns="http://www.w3.org/2000/svg">
<path d="M64.398 516.756C64.398 506.009 59.1779 500.633 48.7397 500.633V487.532H181.827V652.804H169.652C165.594 600.402 159.214 564.625 150.513 545.476C141.817 526.328 128.766 516.417 111.373 515.746V687.065C127.031 693.11 135.15 667.918 135.729 611.483L147.908 612.491V819.087H135.729C135.729 764.668 127.61 735.444 111.373 731.411V946.064C111.373 965.551 115.431 972.937 123.55 968.232L124.42 983.35H51.3527L50.4804 968.232C60.3377 972.267 64.9809 965.21 64.398 947.068V516.756ZM230.14 500.633V486.526H300.127L299.217 500.633C290.733 501.976 286.489 508.696 286.489 520.791V942.036C286.79 961.852 291.643 971.262 301.029 970.252V984.362H230.14V970.252C238.624 971.602 242.864 962.194 242.864 942.036V520.791C242.864 508.696 238.624 501.976 230.14 500.633ZM376.8 521.799C378.522 509.704 373.929 502.312 363.024 499.629V486.528H424.17L457.762 767.694V517.768C457.762 507.691 454.315 501.98 447.428 500.637V486.53H499.964V499.631C492.496 501.647 489.626 515.748 489.626 541.956V983.36H449.146L407.805 666.918V950.099C406.086 964.877 410.392 971.933 420.726 971.262V983.36H362.161L363.026 972.273C372.785 970.925 377.377 963.204 376.802 949.094L376.8 521.799ZM592.327 847.303H609.301L600.597 684.045L592.327 847.303ZM605.821 984.364V977.309C612.784 969.246 615.108 940.359 612.784 890.641H591.023C587.54 940.359 589.57 969.246 597.118 977.309V984.364H540.533V977.309C545.174 976.64 549.091 974.45 552.283 970.759C555.477 967.068 565.194 805.99 581.446 487.538H626.712C648.185 805.99 660.082 967.07 662.404 970.759C664.724 974.454 668.207 976.64 672.848 977.309V984.364H605.821ZM731.567 528.851C731.004 511.384 725.385 502.312 714.711 501.641V486.526H791.411V500.633C780.173 501.976 774.553 511.384 774.553 528.851L774.763 952.616C795.973 950.937 812.482 893.664 824.281 780.794H835.236V984.364H713.867V970.254C725.105 968.909 731.002 960.846 731.565 946.07L731.567 528.851ZM967.31 516.756C967.31 506.009 962.106 500.633 951.702 500.633V487.532H1084.37V652.804H1072.23C1068.18 600.402 1061.82 564.625 1053.15 545.476C1044.48 526.328 1031.47 516.419 1014.13 515.746V687.065C1029.74 693.11 1037.83 667.918 1038.41 611.483L1050.55 612.491V819.087H1038.41C1038.41 764.668 1030.32 735.444 1014.13 731.411V946.064C1014.13 965.551 1018.18 972.937 1026.27 968.232L1027.14 983.35H954.307L953.434 968.232C963.264 972.267 967.885 965.21 967.31 947.068V516.756ZM1161.04 847.303H1178.12L1169.36 684.045L1161.04 847.303ZM1174.62 984.364V977.309C1181.63 969.246 1183.97 940.359 1181.63 890.641H1159.73C1156.22 940.359 1158.27 969.246 1165.86 977.309V984.364H1108.91V977.309C1113.59 976.64 1117.53 974.45 1120.74 970.759C1123.95 967.066 1133.74 805.99 1150.09 487.538H1195.65C1217.26 805.99 1229.23 967.07 1231.57 970.759C1233.9 974.454 1237.41 976.64 1242.08 977.309V984.364H1174.62ZM1296.29 521.799C1296.29 509.704 1293.34 502.314 1282.12 499.629V486.528H1344.98L1379.51 767.694V517.768C1379.51 507.691 1375.97 501.98 1368.88 500.637V486.53H1422.89V499.631C1415.22 501.647 1411.68 515.756 1412.27 541.956V983.36H1370.66L1328.16 666.916V950.097C1328.16 964.944 1330.82 971.931 1341.44 971.26V983.358H1281.24L1282.12 972.271C1292.15 970.923 1296.29 963.202 1296.29 949.093M1604.73 487.44L1604.55 662.885H1590.01C1587.16 590.997 1579.18 548.336 1566.06 534.9V948.082C1566.06 964.208 1572.34 974.285 1584.88 978.317V985.372H1505.33V978.317C1519.02 974.285 1525.29 963.873 1524.15 947.078V534.9C1509.9 547.668 1500.77 590.329 1496.78 662.885H1484.81L1484.9 487.44M1695.42 847.303H1711.93L1703.47 684.045L1695.42 847.303ZM1708.54 984.364V977.309C1715.32 969.246 1717.57 940.359 1715.32 890.641H1694.15C1690.77 940.359 1692.74 969.246 1700.08 977.309V984.364H1645.05V977.309C1649.56 976.64 1653.37 974.45 1656.48 970.759C1659.59 967.066 1669.03 805.99 1684.84 487.538H1728.87C1749.75 805.99 1761.32 967.07 1763.58 970.759C1765.84 974.454 1769.23 976.64 1773.74 977.309V984.364H1708.54ZM1830.47 809.012L1876.84 780.794C1871.11 885.601 1872.69 940.69 1881.55 946.066C1890.43 951.442 1895.43 948.753 1896.58 938.005C1901.73 897.696 1901.73 857.043 1896.58 816.065C1894.86 795.238 1891.43 780.452 1886.28 771.723C1854.22 713.274 1835.91 669.602 1831.33 640.711L1830.47 540.942C1836.77 506.009 1853.94 488.54 1881.99 488.54C1913.47 489.212 1930.07 512.726 1931.78 559.084L1934.36 623.582L1891.43 655.831C1892 615.523 1892 577.896 1891.43 542.961C1891.43 526.164 1888.14 517.599 1881.56 517.261C1874.97 516.928 1871.68 524.821 1871.68 540.944L1872.54 641.721C1901.73 696.811 1921.48 739.137 1931.78 768.697C1942.09 798.264 1945.81 840.59 1942.95 895.676C1940.09 956.81 1921.48 987.045 1887.14 986.376C1853.94 984.36 1835.05 957.401 1830.48 905.501L1830.47 809.012ZM2055 494.588V506.681C2040.09 506.735 2038.69 523.647 2043 567.652C2047.31 611.656 2053.88 643.63 2060.25 669.94C2068.31 603.428 2072.39 557.573 2073.93 538.425C2075.47 519.275 2072.34 506.945 2062.39 506.681V494.588H2120.56V507.689C2110.71 508.362 2107.14 513.169 2105.79 521.799L2063.32 792.887V942.038C2062.7 958.83 2067.32 967.901 2077.17 969.246V982.347H2010.69V968.238C2019.3 967.569 2028 959.058 2028 942.261V792.671L2007.85 536.912C2005.94 512.75 2001.24 505.673 1987.6 505.673L1986.68 494.588H2055ZM2134.45 933.855C2131.14 933.855 2128.07 934.462 2125.23 935.656C2122.39 936.836 2119.78 938.608 2117.41 940.99C2115.03 943.363 2113.24 945.97 2112.04 948.815C2110.86 951.624 2110.28 954.698 2110.28 958.034C2110.28 961.335 2110.86 964.409 2112.04 967.252C2113.24 970.061 2115.03 972.66 2117.41 975.033C2119.75 977.383 2122.35 979.148 2125.19 980.317C2128.06 981.493 2131.14 982.08 2134.45 982.08C2137.81 982.08 2140.89 981.509 2143.71 980.359C2146.52 979.185 2149.12 977.407 2151.49 975.033C2153.87 972.66 2155.64 970.061 2156.82 967.252C2158.02 964.409 2158.62 961.335 2158.62 958.034C2158.62 954.698 2158.02 951.624 2156.82 948.815C2155.64 945.97 2153.87 943.367 2151.49 940.99C2149.09 938.584 2146.47 936.79 2143.63 935.62C2140.81 934.446 2137.75 933.855 2134.45 933.855ZM2132.11 945.944H2130.68V954.428H2132.11C2134.25 954.428 2135.84 954.073 2136.91 953.36C2138 952.626 2138.54 951.548 2138.54 950.121C2138.54 948.703 2138.01 947.651 2136.94 946.975C2135.91 946.286 2134.3 945.944 2132.11 945.944ZM2133.63 940.287C2138.44 940.287 2142.03 941.11 2144.41 942.747C2146.78 944.357 2147.97 946.817 2147.97 950.117C2147.97 952.474 2147.24 954.408 2145.8 955.935C2144.37 957.475 2142.35 958.465 2139.73 958.928C2140.85 959.533 2141.89 960.379 2142.85 961.469C2143.83 962.565 2144.72 963.902 2145.51 965.485L2150.06 974.538H2140.68L2136.29 965.813C2135.25 963.683 2134.34 962.18 2133.54 961.303C2132.75 960.403 2131.96 959.95 2131.17 959.95H2130.68V974.538H2121.95V940.283L2133.63 940.287ZM2134.45 927.549C2138.6 927.549 2142.47 928.298 2146.04 929.803C2149.65 931.306 2152.94 933.546 2155.92 936.522C2158.9 939.501 2161.12 942.776 2162.6 946.356C2164.07 949.933 2164.81 953.828 2164.81 958.038C2164.81 962.186 2164.07 966.054 2162.6 969.632C2161.12 973.183 2158.9 976.447 2155.92 979.421C2152.94 982.399 2149.65 984.639 2146.04 986.144C2142.47 987.643 2138.6 988.398 2134.45 988.398C2130.3 988.398 2126.42 987.643 2122.81 986.144C2119.23 984.639 2115.96 982.399 2112.98 979.421C2110 976.447 2107.78 973.183 2106.3 969.632C2104.82 966.054 2104.09 962.188 2104.09 958.038C2104.09 953.832 2104.82 949.933 2106.3 946.356C2107.77 942.776 2110 939.501 2112.98 936.522C2115.96 933.546 2119.23 931.306 2122.81 929.803C2126.41 928.298 2130.3 927.549 2134.45 927.549ZM2275.99 507.687L2278.8 492.572H2338.7V507.687C2325.6 507.017 2319.67 514.742 2320.92 530.865L2291.91 986.378H2250.72L2206.73 527.843C2205.49 517.766 2198.31 510.712 2185.21 506.679V492.572H2267.57V507.687C2254.47 508.36 2248.23 515.75 2248.85 529.857L2271.32 821.099L2290.04 530.861C2291.28 515.417 2286.6 507.687 2275.99 507.687ZM2346.45 492.57V506.552C2352.88 507.881 2356.15 514.508 2356.15 526.458V942.539C2356.15 962.453 2352.88 971.706 2346.45 970.378V984.362H2447.61V970.378C2441.15 971.374 2437.86 962.118 2437.65 942.539V526.458C2437.65 514.512 2440.51 507.881 2446.35 506.552L2446.97 492.57H2346.45ZM2398.85 506.554C2404.68 507.883 2407.67 514.51 2407.67 526.46V942.541C2407.67 960.9 2405.2 970.207 2400.24 970.508H2398.85C2392.66 970.121 2389.37 960.776 2389.16 942.541V526.458C2389.15 514.51 2392.42 507.881 2398.85 506.554ZM0.369385 1028.7H2499.63V1052.89H0.369385V1028.7Z" fill="white"/>
<path d="M2185.46 13.1251C2175.78 14.273 2176.25 17.8721 2165.05 15.1972C2155.14 12.5422 2153.12 18.5089 2148.93 20.9363C2142.13 24.8569 2136.99 25.2202 2132.8 28.999C2130.3 31.2488 2127.9 37.7325 2124.74 41.0921C2120.59 45.4898 2118.44 38.8484 2112.64 45.1265C2108.26 49.8695 2103.09 47.8752 2096.52 49.1588C2091.15 50.2048 2089.56 61.8388 2084.43 65.2822C2079.29 68.7317 2070.83 69.7937 2064.27 73.345C2049.19 81.5135 2044.6 91.0414 2022.2 93.7523C2003.8 93.7523 1989.13 110.96 1979.62 105.596C1974.07 100.044 1993.76 82.3499 2011.87 79.104C2028.99 76.0498 2042.53 69.3446 2040.34 65.5358C2036.98 59.7308 1997.04 77.3793 1992.71 73.347C1988.27 69.2048 2053.58 40.1858 2048.53 33.2889C2044.92 28.3722 2019.27 43.9008 1995.75 53.1952C1983.24 58.1338 1985.63 53.1952 1981.71 53.1952C1978.45 53.1952 1976.05 62.5115 1965.63 69.3206C1959.46 73.351 1955.84 72.273 1947.38 77.3833C1943.62 79.645 1943.34 73.349 1939.31 73.349C1926.86 73.349 1910.63 93.8241 1903.03 89.4744C1898.9 87.1089 1919.16 73.3489 1915.13 69.3186C1911.09 65.2822 1898.01 74.0856 1887.95 79.3755C1873.12 87.1747 1855.39 99.0882 1839.84 108.602C1830.73 114.176 1816.11 110.962 1801.26 119.426C1790.44 125.594 1785.24 134.146 1776.81 140.294C1771.85 143.911 1761.96 141.871 1757.92 145.909C1754.65 149.175 1752.02 152.183 1747.98 156.222C1741.84 162.364 1732.11 161.206 1725.92 164.304C1701.52 174.467 1705.51 178.158 1693.42 186.221C1681.33 194.284 1663.52 196.657 1641.01 210.407C1625.61 219.819 1611.03 232.775 1592.65 242.656C1562.6 258.801 1524.82 273.45 1516.06 282.964C1512.69 286.611 1504.97 284.471 1499.93 286.998C1483.81 295.061 1467.14 320.311 1455.59 311.184C1445.39 303.121 1479.78 295.059 1491.87 282.964C1509.64 265.195 1532.34 253.893 1552.33 238.622C1564.58 229.263 1570.98 213.88 1576.77 208.64C1592.65 194.28 1606.87 195.673 1620.86 186.217C1637.26 175.132 1647.22 160.174 1645.05 158C1641.01 153.966 1624.89 182.187 1616.83 178.156C1614.36 176.921 1624.89 170.094 1620.86 166.063C1618.67 163.863 1601.57 177.749 1580.56 190.249C1562.98 200.694 1542.4 208.848 1528.15 218.466C1507.99 234.591 1488.47 234.21 1467.69 246.684C1425.56 271.956 1391.1 295.057 1387.06 286.994C1382.44 277.749 1415.28 258.773 1447.53 238.622C1473.93 222.113 1503.96 214.427 1499.93 206.367C1497.38 201.266 1477.2 211.519 1457.77 222.492C1443.5 230.555 1431.4 232.383 1415.28 242.65C1372.77 269.713 1328.43 294.47 1326.59 291.02C1322.34 283.077 1350.78 276.855 1350.78 264.764C1350.78 258.771 1366.9 242.65 1370.93 246.678C1375.05 250.797 1358.71 258.895 1362.87 263.055C1366.78 266.962 1384.6 250.808 1391.09 242.648C1399.84 228.373 1441.8 208.71 1435.43 202.338C1433.16 200.069 1366.91 242.648 1354.81 242.648C1334.56 242.648 1260.19 305.261 1254.04 299.083C1244.1 289.116 1278.22 274.897 1302.41 258.771C1328.68 241.257 1359.44 227.087 1357.08 222.997C1355.71 220.638 1299.07 250.361 1241.94 278.931C1193.57 303.117 1149.23 339.397 1145.2 335.366C1141.16 331.336 1177.22 308.856 1173.42 305.048C1170.77 302.403 1130.39 332.009 1088.76 355.52C1059.99 371.769 1029.46 382.117 1016.2 386.004C1010.6 387.645 1004.5 387.689 929.284 387.767C818.68 387.885 701.779 399.862 621.158 480.481H633.253C705.814 415.983 802.055 403.89 867.056 403.89C902.832 403.89 930.759 407.392 963.803 417.997C1001.48 430.091 1018.49 440.227 1016.21 444.2C1013.38 449.094 994.047 440.203 976.147 440.042C956.365 439.866 955.74 440.058 955.74 441.93C955.74 444.2 971.865 448.228 947.677 448.228C927.791 448.228 895.275 444.204 895.275 440.165C895.275 428.072 959.772 442.192 959.772 428.072C959.772 424.038 901.323 424.038 875.123 424.038C844.389 424.038 786.437 420.006 786.437 432.352C786.437 436.133 794.298 433.925 805.213 436.133C812.987 437.704 823.177 443.617 829.246 444.196C845.689 445.765 860.121 437.738 871.088 448.228C885.311 461.832 842.87 456.291 802.56 456.291C793.16 456.291 796.923 464.481 804.229 464.481C808.158 464.481 838.884 461.359 846.902 472.418C857.514 487.061 871.088 481.882 871.088 488.544C871.088 492.576 852.134 495.56 865.042 501.393C879.151 507.769 881.181 510.205 867.06 512.734C834.506 518.557 802.56 561.104 782.409 569.169V633.669C785.153 633.669 786.441 634.856 786.441 637.447C786.441 641.731 782.409 642.003 782.409 645.762C782.409 657.855 800.58 637.395 800.58 653.824C800.58 666.271 782.409 656.883 782.409 666.171C782.409 669.952 786.441 670.511 786.441 674.234C786.441 678.014 784.127 678.014 782.157 677.887L782.409 694.14C790.471 686.077 798.532 669.954 802.564 673.982C807 678.416 791.096 698.609 782.409 706.229V718.324C810.625 718.324 867.533 643.444 915.434 661.889C931.558 668.099 903.341 673.984 895.279 678.012C874.666 688.319 849.412 711.405 830.779 728.335C814.767 742.88 806.595 766.698 782.409 778.787V790.883C784.105 794.915 790.471 786.85 790.471 794.915C790.471 798.923 782.409 807.012 790.471 807.012C802.564 807.012 798.526 800.981 813.516 798.949L816.169 774.763H842.874V790.886C845.485 791.21 848.976 791.258 850.937 790.886C852.857 794.06 844.603 800.281 842.874 807.012C850.937 802.978 860.311 790.886 875.123 790.886C891.244 790.886 942.591 749.838 959.772 746.545V520.807C959.772 510.855 948.801 508.711 943.647 508.711V480.485H966.07C981.93 480.485 927.2 467.234 967.833 467.234C979.928 467.234 993.231 474.355 1000.08 480.485H1092.8V661.883H1064.57L1059.56 621.573L1059.29 827.158H1030.68C1030.68 827.158 1030.31 810.97 1030.31 801.458C1030.31 799.822 1030.76 794.909 1028.04 798.813C1023.25 805.579 1024.94 812.332 1023.38 819.095L1022.88 956.151C1022.86 961.16 1028.25 960.221 1034.47 961.691L1035.35 991.422L947.671 991.047L947.168 988.404C937.103 988.404 935.622 995.241 927.517 1001.51C919.794 1007.47 908.851 1008.56 907.36 1021.41L1193.57 1020.65C1193.57 1011.65 1205.66 1010.18 1209.69 992.434L1100.85 992.183V968.248C1117.34 965.968 1116.12 950.192 1116.98 934.742L1142.03 480.491H1203.16L1235.16 936.003C1239.81 942.267 1250 923.906 1250 936.003C1250 944.064 1233.88 948.096 1233.88 955.908C1233.88 964.761 1241.16 966.803 1245.97 968.252V992.187L1213.72 992.438C1217.76 1006.75 1204.46 1011.43 1201.63 1020.66H1217.76C1229.85 1010.05 1237.55 990.29 1241.94 996.473C1245.97 1002.14 1237.91 1018.29 1229.85 1020.66H1302.41C1310.47 1014.9 1314.5 998.698 1322.56 992.438H1302.41C1294.65 996.163 1294.35 1012.59 1286.28 1012.59C1275.74 1012.59 1292.7 1001.39 1294.35 992.187L1273.21 992.438L1275.35 964.222C1282.67 964.501 1287.91 960.187 1290.31 953.891C1290.31 952.213 1289.64 952.125 1286.28 952.125C1276.43 952.125 1259.37 987.39 1254.03 984.374C1247.88 980.902 1275.58 951.023 1288.3 935.75V520.803C1288.3 514.994 1283.8 509.171 1274.19 508.707V480.487H1350.78L1370.93 629.636V520.801C1370.93 512.067 1366.9 508.706 1360.99 508.706L1360.86 480.489L1431.65 480.741L1431.4 508.706C1420.54 515.812 1419.31 520.779 1419.31 532.892L1419.31 601.42C1428.56 599.631 1460.99 573.201 1475.74 557.078V540.952C1467.68 540.952 1455.59 561.108 1455.59 547.017C1455.59 538.699 1471.71 540.952 1475.74 528.859V480.487H1548.3C1580.55 452.269 1650.03 409.226 1721.64 355.524C1737.76 343.429 1737.2 339.045 1745.83 331.338C1758.17 320.297 1770.01 315.214 1765.98 311.18C1756.62 301.822 1692.9 362.553 1689.39 355.524C1681.33 339.399 1737.76 321.069 1778.07 288.798C1791.81 277.811 1811.75 275.116 1822.42 262.806C1836.39 246.682 1846.6 253.358 1854.67 242.65C1862.49 231.222 1871.94 230.17 1882.89 226.527C1894.98 222.492 1886.91 230.81 1897.24 230.81C1902.46 230.81 1911.1 227.896 1911.1 224.854C1911.1 220.66 1903.05 222.496 1903.04 218.466C1903 210.78 1916.25 212.968 1927.22 206.371C1935.25 201.544 1939.81 193.07 1944.8 190.247C1952.8 185.726 1968.98 179.951 1963.5 174.124C1958.05 168.323 1941.58 186.217 1935.28 190.247C1921.31 199.188 1916.96 190.471 1899 206.371C1892.54 212.094 1882.88 206.371 1876.58 214.433C1869.96 222.909 1861.05 225.479 1858.7 220.103C1853.91 209.189 1882.88 203.961 1894.98 198.31C1912.29 190.215 1929.14 180.989 1927.22 178.154C1923.22 172.257 1909.49 186.387 1907.07 182.189C1904.56 177.863 1920.64 162.256 1931.5 162.282C1941.36 162.312 1947.38 149.936 1951.41 153.968C1954.7 157.264 1939.12 167.65 1943.35 170.092C1948.28 172.942 1967.78 158.002 1967.78 150.189C1967.78 147.183 1963.75 146.335 1963.75 144.143C1963.75 138.659 1976.27 135.391 1991.72 129.784C2012.12 122.37 2009.5 113.661 2028 113.661C2034.79 113.661 2033.62 103.302 2040.09 101.565C2048.28 99.3696 2061.68 98.0002 2068.31 93.5027C2078.77 86.4002 2087.19 71.758 2100.56 67.0489C2104.91 66.3482 2102.83 69.3186 2108.62 69.3186C2115.86 69.3186 2116.06 59.4473 2120.72 57.2235C2124.75 55.2992 2125.19 57.2615 2128.78 57.2235C2134.27 57.1716 2131.31 53.3728 2136.84 47.8413C2142.6 42.0742 2149.48 36.2792 2157.24 33.2869C2165.6 30.069 2181.33 28.9292 2189.24 24.9727C2197.31 20.9403 2201.34 13.4186 2205.61 13.1311C2209.4 12.8796 2207.02 16.912 2211.57 16.912C2215.72 16.912 2214.8 13.2349 2219.72 13.1311C2226.38 12.9894 2231.57 6.83506 2229.55 0.786532C2228.92 -1.10788 2216.52 0.521034 2205.37 4.81889C2198.37 7.50779 2191.22 12.4444 2185.46 13.1251ZM1463.65 121.715C1463.65 142.107 1475.74 153.962 1491.87 153.962C1508.37 153.962 1520.09 141.869 1520.09 121.715C1520.09 101.557 1512.02 89.4664 1491.87 89.4664C1472.5 89.4664 1463.65 101.557 1463.65 121.715ZM1491.86 93.4948C1499.92 93.4948 1495.78 102.508 1491.86 103.446C1485.6 104.947 1475.56 113.173 1473.35 121.711C1472.33 125.61 1467.68 133.804 1467.68 121.711C1467.68 105.59 1475.74 93.4948 1491.86 93.4948ZM1564.42 480.479L1584.96 480.351C1621.19 453.648 1697.7 407.278 1693.42 399.86C1689.61 393.264 1604.6 448.356 1564.42 480.479ZM1604.98 480.351L1612.79 480.477C1614.55 476.423 1616.83 472.414 1612.79 472.414C1609.83 472.416 1608.9 473.564 1604.98 480.351ZM572.026 516.756C536.503 553.035 501.914 617.533 495.435 637.689V645.752C512.315 634.94 523.038 597.379 570.259 532.882L572.026 516.756ZM1021.94 524.819L1021.56 673.968C1028.29 657.843 1032.33 627.62 1032.33 603.053L1057.67 603.851C1053.77 572.227 1044.42 533.974 1021.94 524.819ZM1475.74 573.193C1453.97 581.507 1438.2 604.013 1419.31 617.535V633.661L1475.99 585.288L1475.74 573.193ZM1512.15 589.444L1510.38 601.412H1516.05V585.286L1512.15 589.444ZM568.875 585.414C545.388 585.39 528.44 622.12 528.44 641.723C528.44 653.816 506.494 652.277 504.254 672.335C503.793 676.465 504.254 686.065 496.191 690.223V799.187C498.521 803.543 500.994 810.651 504.38 805.107C512.856 791.228 517.028 807.305 520.379 798.935C528.442 778.777 546.212 779.195 548.849 766.81C555.283 736.555 553.988 713.677 563.588 673.97L568.875 585.414ZM723.191 597.377C716.318 597.377 713.254 604.472 707.948 610.604C703.566 615.665 697.745 616.359 697.745 621.564C697.745 628.095 688.551 631.744 688.551 637.689C688.551 639.627 697.745 631.012 701.777 626.981C709.868 618.891 715.881 608.934 723.193 605.692L723.191 597.377ZM1419.31 657.845V678C1439.31 666.313 1454.25 646.941 1475.99 633.786L1475.74 613.505C1452.76 625.598 1438.2 644.492 1419.31 657.845ZM719.538 620.434C710.605 620.028 699.364 634.028 691.824 640.462C683.837 647.279 686.506 657.845 689.682 657.845C693.717 657.845 693.585 649.782 701.777 649.782C713.871 649.782 698.356 665.043 688.047 680.769C678.923 694.691 670.389 708.421 673.559 710.247C676.138 711.735 685.84 695.737 697.745 679.514C705.83 668.491 714.877 653.814 723.191 650.034C722.458 645.001 719.17 644.893 718.152 641.845L723.191 633.657V621.562C722.089 620.88 720.832 620.492 719.538 620.434ZM1419.31 686.063V698.158L1475.74 647.826V641.721C1455.81 654.265 1439.73 674.112 1419.31 686.063ZM723.191 661.877C710.794 668.341 708.96 680.218 701.776 691.481C696.39 699.921 690.241 698.058 692.076 711.76C693.699 723.917 708.028 690.094 723.191 694.377V661.877ZM723.191 726.371C705.862 740.354 711.038 744.227 705.808 755.851C701.462 765.501 693.896 773.288 693.841 778.775C693.715 790.871 714.719 768.487 723.193 762.652L723.191 726.371ZM842.862 835.212C843.028 882.036 843.153 929.48 842.862 976.301C863.018 964.208 888.523 954.193 911.39 935.991C928.228 922.583 940.752 907.026 959.76 891.649V883.587C951.985 881.327 955.241 875.526 947.667 875.526C943.633 875.526 935.572 883.349 935.572 875.526C935.572 872.701 939.706 869.861 943.635 865.387C948.538 859.802 953.913 852.671 959.76 851.342V831.184C952.634 831.184 938.057 865.918 934.061 862.928C931.117 860.724 942.293 847.292 939.83 844.611C933.828 838.063 891.23 903.741 883.17 899.712C870.166 893.212 939.71 843.259 939.605 823.121C939.561 815.472 943.635 816.204 943.635 809.016C943.635 802.946 934.828 794.907 927.513 794.907C920.034 794.907 919.451 790.875 911.388 790.875C899.297 790.871 867.048 823.117 842.862 835.212ZM1336.43 786.838L1336.06 859.399C1340.85 860.273 1343.65 858.007 1346.22 855.366L1336.43 786.838ZM947.671 819.089C947.671 823.121 955.86 817.783 959.89 815.055L959.764 794.899C955.319 802.706 947.671 810.421 947.671 819.089ZM808.222 839.241C798.524 839.241 789.082 855.366 782.397 855.366V935.987C794.49 927.925 804.974 857.738 808.222 839.241ZM1335.9 875.522L1336.05 899.708C1345.46 899.708 1343.34 887.613 1349.98 887.613L1346.11 863.427C1342.72 863.429 1339.27 872.244 1335.9 875.522ZM1335.91 911.803L1336.1 940.022C1346.75 940.022 1346.75 922.401 1354.81 919.866L1350.77 895.68C1344.28 901.054 1341.04 907.773 1335.91 911.803H1335.91ZM1166.67 899.708C1165.63 919.894 1165.8 939.425 1167.07 960.174H1172.07C1176.1 940.81 1174.7 919.866 1174.03 899.708H1166.67ZM959.764 907.771C897.361 957.616 866.555 977.429 798.524 1020.64H834.803C838.836 1004.52 863.022 1004.52 875.115 996.455C888.316 987.655 887.208 1000.49 875.115 1004.52C865.832 1007.61 861.147 1016.45 859.243 1020.39C871.214 1021.21 886.607 1021.19 899.299 1020.64C896.47 1008.55 904.968 1005.9 908.999 1001.87C919.706 991.167 925.717 980.333 946.034 976.299L945.408 961.687C954.369 958.313 959.798 962.331 959.766 956.147C959.681 940.832 959.764 907.771 959.764 907.771ZM1335.91 956.145C1342.71 956.145 1350.77 951.153 1350.77 944.05C1350.77 933.798 1339.52 947.414 1335.91 948.082V956.145ZM456.005 992.424C456.005 1002.43 461.828 1012.71 463.942 1020.64H467.977C467.977 1012.58 465.324 1001.43 463.942 992.424H456.005ZM480.066 1060.95C480.01 1079.75 493.431 1097.85 504.252 1109.2C501.016 1092.53 489.961 1077.82 488.127 1060.95H480.066ZM589.031 1064.98C589.031 1068.74 592.938 1068.17 592.938 1070.78C592.938 1073.29 590.221 1073.06 588.905 1073.05C579.136 1072.92 575.473 1065.11 564.843 1065.11C559.266 1065.11 552.622 1067.16 552.75 1071.16C552.836 1073.89 560.813 1070.75 560.813 1075.19C560.813 1079.63 546.334 1076.09 540.657 1083.25C540.657 1089.17 552.622 1089.16 552.622 1093.2C552.622 1097.23 544.56 1099.68 544.56 1102.78C544.56 1109.37 544.787 1109.27 544.685 1113.23C544.58 1117.33 567.121 1131.6 568.746 1135.9C571.407 1142.95 580.841 1152.68 580.841 1155.81C580.841 1157.77 576.806 1158.24 576.806 1159.84C576.806 1166.86 583.727 1165.76 589.782 1165.76C605.025 1165.76 605.025 1173.82 609.055 1173.82C625.181 1173.82 625.181 1177.85 627.446 1177.85C629.131 1177.85 629.65 1177.44 629.211 1173.82C628.365 1166.88 617.082 1166.63 617.118 1164.25C617.154 1161.78 617.701 1156.69 619.386 1157.82C625.185 1161.73 641.312 1169.92 664.231 1169.92C669.529 1169.92 669.012 1165.76 673.553 1165.76C678.066 1165.76 677.803 1170.86 682.873 1175.08C686.858 1178.4 701.771 1181.99 701.771 1183.9C701.771 1187.91 689.804 1185.69 689.804 1190.2C689.804 1193.98 718.023 1195.9 718.023 1199.64C718.023 1202.04 701.779 1203.81 701.897 1208.21C702.055 1214.13 738.051 1207.98 738.051 1216.15C738.051 1226.36 697.741 1219.56 697.741 1230.26C697.741 1242.35 730.293 1232.64 730.116 1243.36C729.998 1250.42 710 1251.64 709.96 1256.58C709.88 1266.54 852.999 1263 850.669 1270.69C846.335 1285 818.682 1282.91 799.524 1282.91C784.333 1282.91 754.553 1274.59 754.553 1282.78C754.553 1290.73 790.885 1293.99 820.562 1311.12C839.43 1322.02 861.049 1327 883.168 1327C911.386 1327 936.874 1318.64 956.105 1311.38C979.78 1302.44 996.038 1298.78 1004.1 1282.65C1006.2 1278.45 1012.32 1270.81 1017.7 1270.81C1024.27 1270.81 1030.59 1278.62 1036.35 1278.62C1052.47 1278.62 1090.2 1239.98 1096.44 1246.5C1103.11 1253.48 1050.23 1281.43 1034.59 1290.71C1031.33 1292.64 1025.64 1298.78 1032.32 1298.78C1050.66 1298.78 1083.99 1269.73 1101.22 1251.41C1106.7 1245.58 1095.41 1238.49 1108.91 1238.31C1118.1 1238.18 1145.19 1210.09 1157.28 1198C1163.4 1191.87 1182.84 1171.37 1205.65 1145.6C1234.35 1113.17 1270.02 1077.42 1270.02 1061.2L1189.53 1060.94C1189.53 1060.94 1187.51 1064.46 1187.51 1066.86C1187.51 1072.6 1197.59 1063.34 1197.59 1071.4C1197.59 1075.43 1177.43 1082.76 1177.43 1097.22C1177.43 1105.28 1188.55 1089.44 1192.05 1090.55C1200.46 1093.23 1177.87 1110.46 1177.43 1117.38C1177.04 1123.53 1181.63 1119.95 1181.59 1126.57C1181.55 1133.49 1149.22 1144.47 1149.22 1161.71C1149.22 1173.81 1162.18 1155.86 1165.34 1157.68C1175.37 1163.46 1153.27 1181.99 1147.45 1181.99C1142.53 1181.99 1137.14 1161.84 1129.31 1161.84C1122.68 1161.84 1114.32 1181.87 1100.84 1181.87C1080.69 1181.87 1073.04 1201.54 1068.6 1197.99C1052.89 1185.42 1157.31 1113.33 1174.16 1061.06L822.7 1060.93C815.294 1064.96 798.46 1071.51 788.307 1073.66C763.486 1078.9 790.449 1065.77 790.449 1060.93H589.031V1064.98ZM758.588 1098.37C761.265 1098.14 762.241 1099.54 762.241 1105.29C762.241 1112.49 750.214 1121.61 740.322 1121.55C734.268 1121.51 725.185 1117.28 725.962 1113.36C727.559 1105.28 737.3 1102.47 744.86 1101.39C751.533 1100.44 755.911 1098.59 758.588 1098.37Z" fill="url(#paint0_linear_3_58)"/>
<defs>
<linearGradient id="paint0_linear_3_58" x1="500.439" y1="1131.9" x2="1488.05" y2="406.308" gradientUnits="userSpaceOnUse">
<stop stop-color="#EDEFF3"/>
<stop offset="0.115" stop-color="#C3C8D9"/>
<stop offset="0.27" stop-color="#809CC7"/>
<stop offset="0.601" stop-color="#4A7C75"/>
<stop offset="0.888" stop-color="#284B39"/>
<stop offset="1" stop-color="white"/>
</linearGradient>
</defs>
</svg>
