<svg width="590" height="172" viewBox="0 0 590 172" fill="none" xmlns="http://www.w3.org/2000/svg">
<path d="M581.698 7.10021H582.582C583.563 7.10021 584.025 6.36955 584.025 5.23488C584.025 4.10021 583.37 3.69755 582.523 3.69755H581.698V7.10021ZM579.447 3.31088H582.966C584.178 3.31088 585.313 3.88955 585.313 5.15755C585.313 6.19755 584.619 6.96421 583.697 7.27355L584.851 8.88821C585.39 9.60021 586.025 10.3309 586.407 10.5789V10.7522H585.177C584.505 10.7522 584.025 9.42555 582.678 7.46421H581.698V9.46421C581.698 10.3309 581.719 10.3682 582.678 10.4455V10.7522H579.447V10.4455C580.39 10.3682 580.43 10.3309 580.43 9.46421V4.62155C580.43 3.73621 580.39 3.67888 579.447 3.60021V3.31088ZM576.969 7.17755C576.969 10.4069 579.545 13.2509 582.678 13.2509C585.831 13.2509 588.389 10.4069 588.389 7.15755C588.389 3.88955 585.85 1.02421 582.678 1.02421C579.526 1.02421 576.969 3.90821 576.969 7.15755V7.17755ZM589.485 7.17755C589.485 10.9842 586.485 14.0989 582.678 14.0989C578.891 14.0989 575.873 10.9842 575.873 7.15755C575.873 3.31088 578.891 0.178879 582.678 0.178879C586.485 0.178879 589.485 3.29355 589.485 7.15755V7.17755Z" fill="#E2001A"/>
<path d="M44.4024 74.9855V108.296C44.4024 108.296 38.9824 121.456 27.6424 121.456C7.09573 121.456 0.149063 100.539 0.149063 63.0255C0.149063 38.4442 5.87039 0.85619 25.2651 0.85619C32.0344 0.85619 38.4477 8.69485 38.4477 8.69485L40.5651 0.85619H44.4024V40.2242H37.9131C37.2011 14.7509 31.2931 8.33886 25.4437 8.33886C19.7437 8.33886 12.8237 21.7629 12.6184 63.9482C12.4144 104.536 20.1851 114.33 27.4037 114.33C31.3784 114.33 33.6384 110.055 33.6384 110.055L33.9944 74.9855C34.0917 65.9602 27.4037 65.9588 27.4037 65.9588V60.7108H51.0957V65.9588C51.0957 65.9588 44.4024 69.6122 44.4024 74.9855Z" fill="#E2001A"/>
<path d="M61.6621 66.8136C64.6115 43.1003 68.0181 15.6163 68.0181 15.6163C68.0181 15.6163 72.2208 44.307 75.5314 66.8136H61.6621ZM90.5714 89.9896C89.7474 85.3803 73.9435 2.06963 73.9435 2.06963H65.5488C65.5488 2.06963 53.9915 92.6603 52.5435 100.563C51.0955 108.463 46.9461 109.946 46.9461 109.946V113.566L63.5728 106.159V103.524C63.5728 103.524 56.6595 106.487 57.4821 100.231C57.7888 97.9056 59.3221 85.6163 61.1301 71.0936H76.1608C77.7661 82.003 79.0581 90.0616 79.3768 92.1283C80.3648 98.5496 75.0968 99.867 75.0968 99.867V102.502L96.1688 95.7509V93.2189C96.1688 93.2189 91.3941 94.6003 90.5714 89.9896Z" fill="#E2001A"/>
<path d="M99.1328 94.6743V92.1583C99.1328 92.1583 103.337 91.9849 103.337 87.3356V14.2996C103.337 7.92626 96.2741 6.03292 96.2741 6.03292V2.07025H114.533L124.351 71.1436L134.17 2.41559H151.05V6.03292C151.05 6.03292 146.573 5.68759 146.573 12.0609V76.4836C146.573 81.1343 151.598 80.8303 151.598 80.8303V82.2809L132.055 86.2636V84.0623C132.055 84.0623 137.591 83.1529 137.591 78.5276V12.2329L126.225 87.5889L122.279 88.5223L108.159 15.8503V84.5796C108.159 90.7796 114.533 88.1969 114.533 88.1969V90.4489L99.1328 94.6743Z" fill="#E2001A"/>
<path d="M201.258 2.07019V6.03286C201.258 6.03286 208.087 5.20485 208.087 14.3515V63.5729C208.087 67.6969 201.258 71.3049 201.258 71.3049V74.9235L243.138 71.3609V51.9769H240.945C240.945 51.9769 241.459 67.9542 228.446 67.9542C217.365 67.9542 218.782 59.7075 218.782 51.8475V38.9635C218.782 38.9635 223.034 38.7062 226.899 38.7062C232.054 38.7062 232.054 51.5902 232.054 51.5902H234.245V21.9542H231.925C231.925 21.9542 231.409 34.5822 226.642 34.5822H218.782V6.03286H228.574C234.63 6.03286 238.882 20.2795 238.882 20.2795H241.073V2.07019H201.258Z" fill="#E2001A"/>
<path d="M414.612 77.5663C409.308 77.5663 403.564 68.7357 403.564 43.2543C403.564 17.7677 408.204 5.82232 414.612 5.82232C421.021 5.82232 425.661 17.7677 425.661 43.2543C425.661 68.7357 419.916 77.5663 414.612 77.5663ZM436.819 43.2543C436.819 15.2703 426.544 1.24899 414.612 1.24899C402.681 1.24899 392.405 12.7477 392.405 43.2543C392.405 71.289 403.896 82.7863 414.612 82.7863C423.12 82.7863 436.819 71.289 436.819 43.2543Z" fill="#E2001A"/>
<path d="M552.105 113.262C545.64 113.262 538.635 100.302 538.635 62.9003C538.635 25.495 544.295 7.96166 552.105 7.96166C559.917 7.96166 565.577 25.495 565.577 62.9003C565.577 100.302 558.572 113.262 552.105 113.262ZM579.181 62.9003C579.181 21.831 566.653 1.24832 552.105 1.24832C537.557 1.24832 525.031 18.127 525.031 62.9003C525.031 104.05 539.039 120.924 552.105 120.924C562.479 120.924 579.181 104.05 579.181 62.9003Z" fill="#E2001A"/>
<path d="M470.841 2.07012C470.841 2.07012 470.501 6.63945 468.799 6.63945C467.096 6.63945 462.784 0.96478 457.108 0.96478C450.184 0.96478 440.083 10.1568 440.083 26.6154C440.083 42.1661 445.757 49.2048 452.227 53.7448C458.697 58.2848 466.075 62.5981 466.075 72.3594C466.075 83.2554 461.091 86.9994 457.34 86.9994C453.589 86.9994 448.373 83.9314 445.535 75.1941C442.693 66.4568 441.784 59.7594 441.784 59.7594H439.175V91.4288H441.557C441.557 91.4288 442.125 86.0941 444.963 88.0234C447.801 89.9514 451.888 93.5848 456.881 93.5848C461.875 93.5848 475.609 90.0661 475.609 64.4141C475.609 49.8848 469.835 44.2808 462.344 38.4901C454.853 32.7021 449.503 31.3834 449.503 20.9408C449.503 10.4981 455.073 6.75278 457.34 6.75278C459.605 6.75278 464.597 8.22745 467.323 17.6501C470.048 27.0701 470.841 33.4274 470.841 33.4274H473.793V2.07012H470.841Z" fill="#E2001A"/>
<path d="M515.801 2.78241C515.801 2.78241 515.414 7.83841 513.491 7.83841C511.563 7.83841 506.687 1.55841 500.269 1.55841C492.439 1.55841 481.014 11.7344 481.014 29.9491C481.014 47.1584 487.433 54.9477 494.749 59.9731C502.065 64.9984 510.409 69.7704 510.409 80.5757C510.409 92.6357 504.051 97.4984 499.81 97.4984C495.57 97.4984 490.391 93.3824 487.179 83.7131C483.967 74.0424 482.939 66.6304 482.939 66.6304H479.989V101.68H482.683C482.683 101.68 483.325 95.7757 486.535 97.9117C489.743 100.046 494.365 104.066 500.011 104.066C505.661 104.066 521.191 100.173 521.191 71.7824C521.191 55.7011 514.662 49.4984 506.189 43.0904C497.718 36.6837 491.667 35.2264 491.667 23.6677C491.667 12.1104 497.967 7.96641 500.53 7.96641C503.093 7.96641 508.738 9.59707 511.821 20.0251C514.902 30.4517 515.801 37.4851 515.801 37.4851H519.138V2.78241H515.801Z" fill="#E2001A"/>
<path d="M300.276 171.032C314.733 171.032 327.132 168.838 330.737 168.17C336.043 167.186 326.611 165.418 326.611 165.418C326.611 165.418 343.313 157.163 343.313 151.856C343.313 148.908 324.559 149.892 314.58 151.268C314.58 151.268 294.773 152.839 294.773 158.932V166.792C294.773 169.546 296.543 171.032 300.276 171.032Z" fill="#E2001A"/>
<path d="M259.219 169.659C268.245 171.639 280.219 171.653 285.615 171.653C290.477 171.653 291.039 167.579 291.825 162.667C292.611 157.753 291.628 153.431 284.751 151.072C277.872 148.713 276.684 148.4 273.096 147.023C269.892 145.795 267.209 147.503 264.508 150.679C261.8 153.864 259.932 156.775 256.451 161.684C253.552 165.771 256.656 169.096 259.219 169.659Z" fill="#E2001A"/>
<path d="M233.275 158.678C234.808 159.826 240.936 163.601 245.615 165.588C248.528 166.822 252.068 165.589 253.961 160.896C255.855 156.205 262.521 148.55 264.085 146.985C265.649 145.422 266.224 143.693 264.085 142.706C261.945 141.717 262.192 141.801 260.217 140.894C258.241 139.988 257.5 140.73 253.303 142.788C249.105 144.845 238.441 151.496 235.231 153.144C232.021 154.789 231.741 157.532 233.275 158.678Z" fill="#E2001A"/>
<path d="M219.472 135.133C219.472 139.661 221.907 146.227 225.189 150.742C227.165 152.717 229.256 153.217 233.743 150.326C238.229 147.435 246.963 141.747 254.179 139.161C255.427 138.713 257.069 138.063 257.069 138.063V135.97C257.069 135.97 242.207 136.165 234.939 135.545C229.103 135.046 224.412 131.834 221.613 131.834C219.415 131.834 219.472 135.133 219.472 135.133Z" fill="#E2001A"/>
<path d="M225.473 110.941C223.997 112.948 220.206 117.093 219.459 124.089C219.459 124.089 218.814 127.232 222.435 128.712C226.057 130.193 237.581 133.321 246.799 133.321C256.019 133.321 257.171 133.651 257.83 131.757C258.489 129.864 257.171 129.043 254.619 127.477C252.067 125.913 246.223 123.033 240.626 118.341C235.029 113.649 232.725 111.591 231.326 110.192C229.927 108.795 227.234 108.545 225.473 110.941Z" fill="#E2001A"/>
<path d="M268.642 93.1678C256.053 94.1878 245.25 97.1251 234.855 102.189C234.855 102.189 230.005 105.581 234.855 108.806C239.706 112.033 260.679 127.874 260.679 127.874C260.679 127.874 264.199 127.729 266.987 126.409C269.774 125.086 273.514 123.401 270.581 120.468C268.673 118.56 264.933 115.553 264.933 110.126C264.933 104.7 268.642 93.1678 268.642 93.1678Z" fill="#E2001A"/>
<path d="M312.732 121.798H340.882L362.12 138.342L340.882 124.267H312.732V121.798Z" fill="#E2001A"/>
<path d="M292.236 127.23H321.004L332.239 148.466L319.77 129.7H289.519L292.236 127.23Z" fill="#E2001A"/>
<path d="M260.381 133.651L271.247 128.712L292.236 146.244L270.999 131.492L261.76 135.816L260.381 133.651Z" fill="#E2001A"/>
<path d="M266.308 138.095L272.384 135.528L286.309 146.244L272.235 138.202L267.851 140.132L266.308 138.095Z" fill="#E2001A"/>
<path d="M424.324 132.93C390.064 132.9 354.971 113.487 336.678 113.562V114.707V111.583C355.955 111.656 390.639 130.982 424.324 130.954C448.883 130.915 457.58 115.067 457.632 103.886C457.648 99.187 456.532 94.6083 454.216 93.247L455.235 91.559C458.47 93.551 459.594 98.787 459.61 103.886C459.606 109.974 457.207 117.22 451.568 122.98C445.936 128.738 437.07 132.93 424.351 132.93H424.324Z" fill="#E2001A"/>
<path d="M426.815 127.253C408.983 127.253 394.584 124.64 382.724 122.867C358.881 119.293 344.911 114.108 333.135 113.189L333.288 111.221C345.409 112.181 359.283 117.361 383.016 120.911C394.923 122.696 409.175 125.277 426.815 125.277C445.479 125.276 454.836 120.617 459.549 115.871C464.263 111.12 464.475 106.141 464.477 105.117C464.48 104.016 464.367 101.715 463.336 99.5587C462.292 97.408 460.663 94.4208 456.881 93.5848L456.673 94.548L457.299 91.6534C461.66 92.5787 463.908 96.1214 465.121 98.712C466.347 101.299 466.451 103.884 466.453 105.117C466.457 106.423 466.156 112.02 460.952 117.263C455.748 122.503 445.791 127.253 426.84 127.253H426.815Z" fill="#E2001A"/>
<path d="M327.96 105.006C326.05 105.006 324.502 103.458 324.502 101.549C324.502 99.6409 326.05 98.0916 327.96 98.0916C329.869 98.0916 331.417 99.6409 331.417 101.549C331.417 103.458 329.869 105.006 327.96 105.006ZM369.218 104.701C369.218 104.701 364.672 106.166 358.952 106.166C351.692 106.166 344.844 101.326 336.07 101.326C334.308 101.326 333.729 100.598 333.729 99.2782C333.729 98.2209 334.906 97.6596 336.08 97.6596C337.254 97.6596 344.284 99.5662 349.124 99.5662C353.965 99.5662 360.796 98.9822 360.796 98.9822C360.796 98.9822 352.749 98.4036 343.512 95.4556C334.274 92.5076 332.898 90.3462 326.806 90.3462C320.713 90.3462 311.673 93.2942 302.241 93.2942C298.776 93.2942 286.594 92.1276 272.566 92.9009C272.566 92.9009 269.334 102.354 269.334 108.514C269.334 114.674 273.366 118.76 275.932 122.181C278.132 125.114 282.314 125.161 294.268 123.768C307.525 122.224 322.722 112.914 331.23 112.914C331.23 112.914 336.95 113.941 346.044 113.941C355.138 113.941 367.458 111.886 367.458 111.886L361.885 109.688C361.885 109.688 363.938 109.246 366.578 107.78C369.218 106.313 369.218 104.701 369.218 104.701Z" fill="#E2001A"/>
<path d="M272.821 33.6117C269.433 36.5877 264.55 36.2717 264.55 36.2717V6.87574C264.55 6.87574 269.553 6.04641 272.881 8.69441C275.521 10.7971 276.649 15.5557 276.649 21.3157C276.649 26.8917 275.357 31.3837 272.821 33.6117ZM290.63 62.6557C287.606 57.4091 278.03 36.8437 278.03 36.8437C278.03 36.8437 287.989 30.6784 287.989 19.2517C287.989 6.48774 279.672 2.0704 271.481 2.0704H247.79V6.03174C247.79 6.03174 253.965 6.03174 253.965 10.6157V58.0424C253.965 66.6184 247.79 66.2371 247.79 66.2371V71.1011L271.006 70.1904V66.2371C271.006 66.2371 264.702 66.1131 264.702 57.2237V39.0744H266.801L280.384 70.0037H296.805V66.6064C296.805 66.6064 293.656 67.9037 290.63 62.6557Z" fill="#E2001A"/>
<path d="M373.185 34.8241C369.934 37.8001 365.249 37.4841 365.249 37.4841V6.87607C365.249 6.87607 370.049 6.04674 373.244 8.69474C375.777 10.7961 376.858 15.5561 376.858 21.3161C376.858 26.8921 375.62 32.5947 373.185 34.8241ZM389.082 66.4161C386.742 60.8947 376.985 38.0427 376.985 38.0427C376.985 38.0427 387.742 33.2734 387.742 19.2521C387.742 6.48807 379.76 2.07074 371.9 2.07074H349.162V6.03207C349.162 6.03207 355.089 6.03207 355.089 10.6161V58.0427C355.089 67.8747 349.162 68.6641 349.162 68.6641V71.1014L371.442 73.5361V69.5814C371.442 69.5814 365.394 69.1894 365.394 61.6907V41.5627H367.409L379.826 74.3734L396.202 76.2854V72.8881C396.202 72.8881 391.986 73.2681 389.082 66.4161Z" fill="#E2001A"/>
<path d="M178.827 75.0806C174.829 75.8539 173.283 72.8872 173.283 67.8606V42.0739C173.283 42.0739 187.981 38.9792 187.981 58.5766C187.981 71.4699 182.824 74.3072 178.827 75.0806ZM173.283 6.87656C173.283 6.87656 178.401 6.04723 181.807 8.69523C184.508 10.7966 185.66 15.5552 185.66 21.3166C185.66 26.8912 184.34 31.3846 181.745 33.6112C178.279 36.5886 173.283 36.2726 173.283 36.2726V6.87656ZM184.757 39.1086C184.757 39.1086 197.264 33.5646 197.264 19.2526C197.264 6.48856 188.755 2.0699 180.375 2.0699H156.135V6.03256C156.135 6.03256 162.453 6.03256 162.453 10.6152V68.5046C162.453 79.4632 156.135 78.5606 156.135 78.5606V81.5619C156.135 81.5619 178.799 77.7206 185.579 76.8539C194.331 75.7339 199.843 69.6646 199.843 58.4486C199.843 41.4299 184.757 39.1086 184.757 39.1086Z" fill="#E2001A"/>
<path d="M314.579 65.7642C309.275 65.7642 303.531 58.2988 303.531 36.7548C303.531 15.2095 308.171 5.11083 314.579 5.11083C320.987 5.11083 325.627 15.2095 325.627 36.7548C325.627 58.2988 319.883 65.7642 314.579 65.7642ZM336.786 36.7548C336.786 13.0988 326.511 1.24283 314.579 1.24283C302.647 1.24283 292.373 10.9655 292.373 36.7548C292.373 60.4575 303.862 70.1775 314.579 70.1775C323.087 70.1775 336.786 60.4575 336.786 36.7548Z" fill="#E2001A"/>
</svg>
