<svg width="342" height="317" viewBox="0 0 342 317" fill="none" xmlns="http://www.w3.org/2000/svg">
<path d="M225.1 0C142.5 0 0 66.1 0 184.3C0 228 40.5 270.9 110.6 270.9C179.1 270.9 236.3 236.7 236.3 236.7C236.3 236.7 235.3 247.8 235.3 259.1C235.3 270.3 241.1 316.7 288.7 316.7C336.3 316.7 341.5 282.2 341.5 267C341.5 251.8 341.5 109.3 341.5 97.5C341.5 85.7 338.9 63.1 294.2 66.2C294.2 66.2 207.4 70.7 198.8 71.8C190.2 72.8 157.3 78.1 157.3 105C157.3 119.2 173.4 120.5 183.9 120.5C213.7 120.5 248.9 117.7 248.9 117.7C248.9 117.7 213.2 190.9 122.4 190.9C75.7 190.9 55.3 167.1 55.3 140.2C55.3 96.3 113.7 31.3 192.2 31.3C228.6 31.3 238.3 50.4 264.3 50.4C290.3 50.4 302.5 38.6 302.5 27C302.4 15.1 274.5 0 225.1 0Z" fill="#ECC141"/>
</svg>
