<svg width="667" height="1012" viewBox="0 0 667 1012" fill="none" xmlns="http://www.w3.org/2000/svg">
<path d="M14.9 416.3C14.9 419.8 12.3 422.4 8.8 422.4C5.3 422.4 2.7 419.8 2.7 416.3V321.8C2.7 318.3 5.3 315.7 8.8 315.7C12.3 315.7 14.9 318.3 14.9 321.8V416.3ZM49.3 341.6V416.3C49.3 419.8 46.7 422.4 43.2 422.4C39.7 422.4 37.1 419.8 37.1 416.3V321.8C37.1 318.3 39.7 315.7 43.2 315.7C45.5 315.7 47.2 316.6 48.2 318.4L101.1 396.5V321.8C101.1 318.3 103.7 315.7 107.2 315.7C110.7 315.7 113.3 318.3 113.3 321.8V416.3C113.3 419.8 110.7 422.4 107.2 422.4C104.9 422.4 103.2 421.5 102.2 419.7L49.3 341.6ZM158.7 495.3C151.5 495.3 145.9 489.7 145.9 482.5V328.5C145.9 321.3 151.5 315.7 158.7 315.7H210C238 315.7 261.3 339.1 261.3 367C261.3 379.6 256.7 391.1 249.2 400.1C264.3 409.1 274.1 425.3 274.1 444C274.1 472.8 250.7 495.3 222.8 495.3H158.7ZM210 392.6C224.4 392.6 235.7 381.3 235.7 366.9C235.7 352.5 224.4 341.2 210 341.2H171.5V392.5H210V392.6ZM222.9 469.6C237.3 469.6 248.6 458.3 248.6 443.9C248.6 429.5 237.3 418.2 222.9 418.2H171.6V469.5H222.9V469.6ZM304.9 495.3C297.7 495.3 292.1 489.7 292.1 482.5V328.5C292.1 321.3 297.7 315.7 304.9 315.7C312.1 315.7 317.7 321.3 317.7 328.5V469.7H407.6C414.8 469.7 420.4 475.3 420.4 482.5C420.4 489.7 414.8 495.3 407.6 495.3H304.9ZM524.9 328.4C524.9 321.2 530.5 315.6 537.7 315.6C544.9 315.6 550.5 321.2 550.5 328.4V431.1C550.5 466.8 522 495.3 486.3 495.3C450.6 495.3 422.1 466.8 422.1 431.1V328.4C422.1 321.2 427.7 315.6 434.9 315.6C442.1 315.6 447.7 321.2 447.7 328.4V431.1C447.7 452.4 464.9 469.6 486.2 469.6C507.5 469.6 524.7 452.4 524.7 431.1V328.4H524.9Z" fill="white"/>
<path d="M666.8 506C666.8 319.8 612 146.3 517.7 0.900024C571.7 159.3 601 329.2 601 506C601 682.7 571.7 852.6 517.7 1011.1C612.1 865.6 666.8 692.2 666.8 506Z" fill="white"/>
<path d="M9.3 737.3C4 737.3 0 733.3 0 728C0 725.8 0.6 724 2.2 722.1L92.5 613.3C99.6 604.6 105.2 594.8 105.2 582.7C105.2 558.9 85.7 539.4 61.9 539.4C38.1 539.4 18.6 558.9 18.6 582.7C18.6 588 14.6 592 9.3 592C4 592 0 588 0 582.7C0 549 27.2 520.9 61.8 520.9C95.5 520.9 123.6 549 123.6 582.7C123.6 600 116.2 614.2 105.4 626.3L29 718.7H114.3C119.6 718.7 123.6 722.7 123.6 728C123.6 733.3 119.6 737.3 114.3 737.3H9.3ZM265.9 675.4C265.9 710 237.8 737.2 204.1 737.2C169.5 737.2 142.3 710 142.3 675.4V582.7C142.3 549 169.5 520.9 204.1 520.9C237.8 520.9 265.9 549 265.9 582.7V675.4ZM247.3 582.7C247.3 558.9 227.8 539.4 204 539.4C180.2 539.4 160.7 558.9 160.7 582.7V675.4C160.7 699.2 180.2 718.7 204 718.7C227.8 718.7 247.3 699.2 247.3 675.4V582.7ZM408.1 675.4C408.1 710 380 737.2 346.3 737.2C311.7 737.2 284.5 710 284.5 675.4V582.7C284.5 549 311.7 520.9 346.3 520.9C380 520.9 408.1 549 408.1 582.7V675.4ZM389.5 582.7C389.5 558.9 370 539.4 346.2 539.4C322.4 539.4 302.9 558.9 302.9 582.7V675.4C302.9 699.2 322.4 718.7 346.2 718.7C370 718.7 389.5 699.2 389.5 675.4V582.7ZM550.3 675.4C550.3 710 522.2 737.2 488.5 737.2C453.9 737.2 426.7 710 426.7 675.4V582.7C426.7 549 453.9 520.9 488.5 520.9C522.2 520.9 550.3 549 550.3 582.7V675.4ZM531.7 582.7C531.7 558.9 512.2 539.4 488.4 539.4C464.6 539.4 445.1 558.9 445.1 582.7V675.4C445.1 699.2 464.6 718.7 488.4 718.7C512.2 718.7 531.7 699.2 531.7 675.4V582.7Z" fill="white"/>
</svg>
