<svg width="616" height="215" viewBox="0 0 616 215" fill="none" xmlns="http://www.w3.org/2000/svg">
<path d="M21 0C8.64792 0 0 12.0892 0 22V192C0 206.056 10.0023 215 23 215H80V171L126 211C129.354 213.897 132.421 215 138 215H164.812C172.824 215 179.523 211.439 183.625 206.25C187.531 211.466 193.797 215 202 215H220C224.358 215 229.42 212.73 234 209L250 195.969V215H307C321.335 215 330 204.271 330 192V171L374 209C377.899 212.367 381.892 215 388 215H414.812C422.529 215 428.992 211.471 433.125 206.156C436.933 211.512 443.453 215 453 215H508V152H537V215H593C607.112 215 616 206.111 616 192V22C616 9.72589 607.541 0 594 0H489L438 40.6562V22C438 11.4497 428.603 0 416 0H388C381.672 0 378.562 2.05986 374 6L330 44V22C330 11.4318 320.413 0 308 0H201C193.506 0 187.298 3.30041 183.406 8.46875C179.414 3.31291 173.157 0 166 0H138C133.259 0 129.123 1.28468 126 4L80 44V0H21ZM508 60H537V87H508V60ZM429 63.25V151.562L374 107.5L429 63.25ZM179 63.3437V151.469L125 107.5L179 63.3437Z" fill="#015B63"/>
<path d="M21 8C14.4455 8 8 14.8895 8 22V192C8 201.824 13.1761 207 23 207H72V153L132 205C133.503 206.31 135.595 207 138 207H164.812C173.779 207 180 201.948 180 192V162.781L111 107.5L180 52V22C180 12.7722 173.842 8 166 8H138C135.11 8 133.606 8.60833 132 10L72 62V8H21ZM201 8C192.874 8 187 13.6935 187 22V52H251V8H201ZM258 8V207H307C317.367 207 322 200.568 322 192V153L382 205C383.503 206.31 385.595 207 388 207H414.812C423.779 207 430 201.948 430 192V162.781L361 107.5L430 52V22C430 13.0366 423.049 8 416 8H388C385.11 8 383.606 8.60833 382 10L322 62V22C322 14.3411 317.245 8 308 8H258ZM491 8L437 51.8438V192C437 200.845 442.795 207 453 207H500V144H545V207H593C603.118 207 608 201.292 608 192V22C608 14.2221 601.724 8 594 8H491ZM500 52H545V95H500V52ZM187 60V192C187 200.79 191.172 207 202 207H220C222.242 207 224.281 206.376 226 205L251 185V74C251 65.6935 245.126 60 237 60H187Z" fill="#FFEB1B"/>
</svg>
