<svg width="109" height="56" viewBox="0 0 109 56" fill="none" xmlns="http://www.w3.org/2000/svg">
<path d="M0 0H10.5622V14.7381L21.6373 0H35.6736L23.2228 14.7115L36.2332 39H23.2228L16.0181 22.9584L10.5622 29.4761V39H0V0Z" fill="white"/>
<path d="M38.8679 0H68.7591V7.79468L49.5933 30.6201H69.4585V39H37.0259V30.9127L55.9819 8.32674H38.8679V0Z" fill="white"/>
<path d="M95.4819 32.5621H83.4508L81.7953 39H71L83.8471 0H95.3653L108.212 39H97.1606L95.4819 32.5621ZM93.2668 24.1289L89.4896 10.1091L85.7357 24.1289H93.2668Z" fill="#EB111A"/>
<path d="M0 42.2307H3.61335V47.3434L7.40218 42.2307H12.204L7.94458 47.3342L12.3955 55.7601H7.94458L5.47985 50.1951L3.61335 52.4562V55.7601H0V42.2307Z" fill="#EB111A"/>
<path d="M13.7355 42.2307H17.3568V55.7601H13.7355V42.2307Z" fill="#EB111A"/>
<path d="M19.9811 42.2307H23.3552L27.7582 49.7152V42.2307H31.1641V55.7601H27.7582L23.3791 48.3309V55.7601H19.9811V42.2307Z" fill="#EB111A"/>
<path d="M33.2699 42.2307H43.4958V44.9347L36.9391 52.853H43.7351V55.7601H32.6398V52.9545L39.1247 45.1193H33.2699V42.2307Z" fill="#EB111A"/>
<path d="M45.5139 42.2307H49.1352V55.7601H45.5139V42.2307Z" fill="#EB111A"/>
<path d="M59.5206 50.232L62.6872 51.3395C62.4745 52.367 62.1395 53.2252 61.6822 53.9143C61.2249 54.6034 60.6559 55.1233 59.9752 55.474C59.2999 55.8247 58.4384 56 57.3908 56C56.1199 56 55.0803 55.7877 54.272 55.3632C53.4691 54.9325 52.7751 54.1789 52.1902 53.1022C51.6052 52.0255 51.3128 50.6473 51.3128 48.9677C51.3128 46.7282 51.8259 45.0086 52.8522 43.8088C53.8839 42.6029 55.3409 42 57.2233 42C58.6963 42 59.8529 42.3445 60.6931 43.0336C61.5386 43.7227 62.1661 44.7809 62.5756 46.2083L59.385 47.0297C59.2733 46.6174 59.1563 46.316 59.034 46.1252C58.8319 45.8053 58.5847 45.5592 58.2922 45.3869C57.9997 45.2147 57.6727 45.1285 57.3111 45.1285C56.4922 45.1285 55.8647 45.51 55.4286 46.2729C55.0989 46.8389 54.9341 47.728 54.9341 48.94C54.9341 50.4412 55.1308 51.4718 55.5243 52.0316C55.9179 52.5854 56.4709 52.8622 57.1835 52.8622C57.8748 52.8622 58.3959 52.6377 58.7469 52.1885C59.1031 51.7394 59.361 51.0872 59.5206 50.232Z" fill="#EB111A"/>
<path d="M71.6448 53.5267H67.529L66.9626 55.7601H63.2695L67.6646 42.2307H71.605L76 55.7601H72.2191L71.6448 53.5267ZM70.8871 50.6012L69.5949 45.7376L68.3107 50.6012H70.8871Z" fill="#EB111A"/>
<path d="M82 42H93.3726V45.457H89.557V56H85.8157V45.457H82V42Z" fill="white"/>
<path d="M93.8764 42H97.7912L100.517 52.075L103.201 42H107L102.507 56H98.4519L93.8764 42Z" fill="white"/>
</svg>
