<svg width="246" height="184" viewBox="0 0 246 184" fill="none" xmlns="http://www.w3.org/2000/svg">
<path d="M201.1 0C205.2 1.2 209.3 2.9 213.7 5.3C215.4 6.2 220.2 9.3 220.4 9.4C220.8 9.7 221.1 10.2 221.1 10.7V48.3C221.1 49.2 220.4 49.9 219.5 49.9H190.5C189.8 49.9 189.2 49.5 189 48.9L188.7 48C184.9 37.8 181.7 33.5 171.1 33.5C154.6 33.5 146.2 45.3 146.2 68.5C146.2 89.5 158 102.5 177 102.5C185.4 102.5 192.6 101.3 200.9 98.3L211.4 94.7C212.2 94.4 213.1 94.8 213.4 95.7L224.1 125.4C224.4 126.1 224.1 126.9 223.5 127.3C216 132.2 205.6 136 195.4 138.4H245.6V0H201.1Z" fill="white"/>
<path d="M63.5 87.7C63.5 89.9 65.5 91.2 68 91.2C72.2 91.2 74.8 87.4 74.8 83.7C73.4 83.6 71.8 83.5 70.2 83.5C66.5 83.5 63.5 84.6 63.5 87.7Z" fill="white"/>
<path d="M98.9 71.1C98.9 51 106.4 32.3 120.1 18.5C128.8 9.7 139.5 3.5 151.4 0H0V138.3H146.1C135.5 135.5 126.5 130.8 119.3 124.2C105.7 112 98.9 94.1 98.9 71.1ZM75.7 97.8C75.6 96.1 75.5 94.4 75.5 92.8H75.4C72.9 96.8 69.8 98.5 65.3 98.5C59.6 98.5 54.5 96 53.6 90.5V97.8H24.6V55.1H35.9V89.3H53.4C53.4 89 53.4 88.7 53.4 88.4C53.4 78.7 64 77.5 69.8 77.5C71.6 77.5 73.5 77.7 74.9 77.9C74.8 73.6 71.6 72.4 67.6 72.4C64.1 72.4 60.5 73.1 57.5 74.8L57.3 67.3C61.2 65.7 65.3 65 70 65C78.1 65 85.2 68.5 85.2 78.2V90.1C85.2 92.6 85.3 95.1 85.8 97.6H75.7V97.8Z" fill="white"/>
<path d="M24.4 150.8H35.3L46.2 172.6H46.3L46.2 150.8H53.9V182.9H43.3L32.1 161H32L32.3 182.9H24.4V150.8Z" fill="white"/>
<path d="M65.9 173.3C66.4 176.6 68.9 177.9 72.9 177.9C75.2 177.9 77.7 177.4 80.2 176.1V181.9C77.5 183 74.5 183.4 71.4 183.4C63.5 183.4 57.5 178.8 57.5 170.8C57.5 162.9 62.9 158.3 70.3 158.3C79.2 158.3 82.4 164.6 82.4 171.7V173.2H65.9V173.3ZM75 168.6C75 165.8 73.7 163.6 70.4 163.6C67.4 163.6 66 165.9 65.8 168.6H75Z" fill="white"/>
<path d="M83.8 158.9H88.7V153.5L96.8 151V158.9H102.6V164.7H96.8V173.5C96.8 176.4 97.5 177.9 100.1 177.9C100.9 177.9 101.8 177.7 102.6 177.6L102.9 183C101.3 183.2 99.8 183.5 97.7 183.5C90.3 183.5 88.5 180.2 88.5 174.5V164.7H83.8V158.9Z" fill="white"/>
<path d="M103.3 158.9H111.9L115.8 176.1H115.9L120 158.9H129.9L133.9 176.1H134L137.8 158.9H145.8L138.5 182.9H128.9L124.9 165.6H124.8L120.2 182.9H110.6L103.3 158.9Z" fill="white"/>
<path d="M146.8 170.9C146.8 162.9 152.8 158.3 160.7 158.3C168.6 158.3 174.6 162.9 174.6 170.9C174.6 178.8 168.6 183.4 160.7 183.4C152.8 183.4 146.8 178.8 146.8 170.9ZM166.1 170.9C166.1 167.3 164.5 164.1 160.7 164.1C156.9 164.1 155.3 167.3 155.3 170.9C155.3 174.4 156.9 177.6 160.7 177.6C164.5 177.6 166.1 174.5 166.1 170.9Z" fill="white"/>
<path d="M194.9 165.6C194 165.3 193.1 165.3 192.1 165.3C188.2 165.3 186.1 168.1 186.1 172.8V182.9H177.8V158.9H185.3V163.3H185.4C186.8 160.3 188.9 158.3 192.5 158.3C193.5 158.3 194.5 158.4 195.3 158.6L194.9 165.6Z" fill="white"/>
<path d="M197.4 148.4H205.7V169H205.8L212.7 158.9H221.8L213.5 169.9L222.5 182.9H212.5L205.9 171H205.8V182.9H197.5V148.4H197.4Z" fill="white"/>
</svg>
