<svg width="300" height="353" viewBox="0 0 300 353" fill="none" xmlns="http://www.w3.org/2000/svg">
<path d="M299.7 184H0V352.5H299.7V184Z" fill="url(#paint0_linear_1_24)"/>
<path d="M67.7 242.7C84.6 242.7 93.5 252.8 93.5 269.2C93.5 285.5 84.5 295.7 67.7 295.7C50.9 295.7 41.9 285.5 41.9 269.2C41.9 252.8 50.7 242.7 67.7 242.7ZM67.7 285.7C76 285.7 79.4 277.8 79.4 269.3C79.4 260.4 76.1 252.9 67.7 252.9C59.4 252.9 56 260.4 56 269.3C56 277.7 59.3 285.7 67.7 285.7Z" fill="white"/>
<path d="M112.3 256.6V263.6H112.4C115.1 258.1 120.3 255.7 126.4 255.7C136.8 255.7 141 263 141 271V295H127.8V276.5C127.8 269.3 125.2 266.9 121.7 266.9C116.2 266.9 113.4 270.7 113.4 278.9V295.1H100.2V256.6H112.3Z" fill="white"/>
<path d="M165.2 243.6H182L201.8 294.9H186.9L183.1 284H163.9L159.9 294.9H146L165.2 243.6ZM173.6 254.2H173.5L166.9 274.2H179.8L173.6 254.2Z" fill="white"/>
<path d="M221.2 250.3H208V240.6H221.2V250.3ZM208 256.6H221.2V294.9H208V256.6Z" fill="white"/>
<path d="M258.4 267.2C256.9 266.7 255.5 266.7 253.9 266.7C247.7 266.7 244.3 271.2 244.3 278.7V294.9H231.1V256.6H243.1V263.6H243.2C245.5 258.7 248.8 255.7 254.5 255.7C256.1 255.7 257.7 255.9 259 256.2L258.4 267.2Z" fill="white"/>
<path d="M260.8 6.89999C255.4 4.09999 250.4 2 245.4 0.5H299.8V168.9H238.6C251.1 166 263.7 161.3 272.9 155.4C273.7 154.9 274 154 273.7 153.1L260.6 117C260.2 116 259.1 115.4 258.1 115.8L245.4 120.2C235.2 123.8 226.4 125.3 216.2 125.3C193 125.3 178.6 109.4 178.6 83.9C178.6 55.6 188.8 41.2 208.9 41.2C221.8 41.2 225.8 46.4 230.4 58.8L230.8 59.9C231.1 60.7 231.8 61.2 232.6 61.2H268C269 61.2 269.9 60.4 269.9 59.3V13.5C269.9 12.9 269.5 12.3 269 11.9C268.949 11.8746 268.53 11.6101 267.899 11.2116L267.897 11.2107C266.044 10.0413 262.366 7.72016 260.8 6.89999Z" fill="white"/>
<path d="M91.3 102.4C91.3 107 88.1 111.6 83 111.6C79.9 111.6 77.5 110 77.5 107.3C77.5 103.6 81.1 102.2 85.6 102.2C87.6 102.2 89.6 102.3 91.3 102.4Z" fill="white"/>
<path fill-rule="evenodd" clip-rule="evenodd" d="M146.6 23.1C129.9 39.8 120.7 62.6 120.7 87.1C120.7 115.2 129 137 145.5 151.9C154.3 159.9 165.3 165.6 178.2 169H1.52588e-05V0.600006H184.8C170.3 4.80001 157.2 12.4 146.6 23.1ZM43.8 67.6H30V119.6H65.3V110.694C66.4757 117.425 72.6737 120.5 79.6 120.5C85.1 120.5 88.8 118.3 91.9 113.5H92C92 114.805 92.0851 116.11 92.1721 117.442C92.2184 118.152 92.2653 118.87 92.3 119.6L104.5 119.5C103.9 116.4 103.8 113.4 103.8 110.3V95.9C103.8 84 95.2 79.8 85.3 79.8C79.6 79.8 74.6 80.7 69.8 82.6L70 91.7C73.8 89.6 78.1 88.8 82.4 88.8C87.3 88.8 91.2 90.2 91.3 95.5C89.5 95.2 87.2 95 85 95C77.9 95 65 96.5 65.1 108.3C65.1 108.641 65.1112 108.974 65.1332 109.3H43.8V67.6Z" fill="white"/>
<defs>
<linearGradient id="paint0_linear_1_24" x1="266.9" y1="151.2" x2="32.8001" y2="385.3" gradientUnits="userSpaceOnUse">
<stop stop-color="#00A6E6"/>
<stop offset="0.00335719" stop-color="#00A5E5"/>
<stop offset="0.1113" stop-color="#007DC4"/>
<stop offset="0.1973" stop-color="#0065AF"/>
<stop offset="0.25" stop-color="#005CA8"/>
<stop offset="0.5161" stop-color="#522974"/>
<stop offset="0.75" stop-color="#82256C"/>
<stop offset="0.7929" stop-color="#8B226C"/>
<stop offset="0.8628" stop-color="#A3186A"/>
<stop offset="0.9505" stop-color="#CB0A68"/>
<stop offset="1" stop-color="#E40067"/>
</linearGradient>
</defs>
</svg>
