<svg width="121" height="118" viewBox="0 0 121 118" fill="none" xmlns="http://www.w3.org/2000/svg">
<path d="M120.641 58.2005C120.595 54.4283 120.193 50.669 119.44 46.9725C119.252 46.0289 119.03 45.0923 118.775 44.1645C118.025 41.4865 117.188 38.8505 116.052 36.3005C115.044 34.0075 113.95 31.7575 112.685 29.6145C111.012 26.7865 109.125 24.0865 106.981 21.5795C104 18.0645 100.676 14.8935 96.9883 12.1295C94.0933 9.96446 91.0262 8.10046 87.8092 6.47246C83.8538 4.48738 79.6894 2.94922 75.3932 1.88646C72.1675 1.08019 68.8834 0.52849 65.5713 0.23646C58.3883 -0.40654 51.3113 0.27946 44.3633 2.07946C41.5753 2.78646 38.8513 3.75046 36.2133 4.88646C33.4137 6.0888 30.7049 7.49248 28.1083 9.08646C25.3203 10.8005 22.6823 12.7075 20.2383 14.8505C17.2353 17.4865 14.4913 20.3365 12.0683 23.5075C10.0829 26.0877 8.31102 28.8254 6.77025 31.6935C5.83191 33.4474 4.98739 35.2499 4.24025 37.0935C3.34527 39.2802 2.58616 41.5201 1.96725 43.8005C1.45225 45.6435 1.06725 47.5295 0.745253 49.4145C0.359253 51.7295 0.101253 54.0435 0.0372531 56.3575C-0.0267469 58.7795 -0.0267468 61.2225 0.187253 63.6435C0.359253 65.6365 0.616253 67.6075 0.980253 69.5575C1.38825 71.7435 1.96725 73.8865 2.63225 76.0295C3.92788 80.1489 5.68292 84.1095 7.86425 87.8365C10.2944 91.9804 13.2258 95.8093 16.5923 99.2365C18.8939 101.591 21.3824 103.755 24.0333 105.707C27.9793 108.6 32.2033 111 36.7283 112.864C39.4886 113.995 42.3266 114.926 45.2203 115.65C48.3303 116.422 51.4603 117 54.6353 117.257C56.5223 117.429 58.4093 117.45 60.2753 117.536C63.9203 117.557 67.5453 117.214 71.1253 116.572C74.7713 115.907 78.3522 114.964 81.8262 113.657C85.3002 112.35 88.6463 110.764 91.8193 108.857C94.6503 107.164 97.3312 105.279 99.8402 103.114C102.477 100.822 104.965 98.3795 107.217 95.6795C109.404 93.0435 111.377 90.2365 113.071 87.2365C114.25 85.1795 115.258 83.0575 116.202 80.8725C117.317 78.2795 118.175 75.6225 118.882 72.9005C119.48 70.54 119.917 68.1418 120.191 65.7225C120.491 63.2795 120.684 60.7505 120.641 58.2005ZM86.2873 89.9365C85.3433 90.4935 84.4432 91.1145 83.5202 91.7145C83.3272 91.8435 83.1133 91.9505 82.8993 92.0575C81.4623 92.8505 79.9392 93.4725 78.3952 94.0295C76.6372 94.6725 74.8353 95.2505 72.9703 95.6145C72.3903 95.7225 71.8333 95.8725 71.2763 96.0225C70.5043 96.2365 69.7323 96.3005 68.9603 96.3865C67.9523 96.5145 66.9003 96.5795 65.9143 96.8145C64.7993 97.0725 63.6842 97.0935 62.5482 97.0935H57.7013C57.2293 97.0935 56.7583 97.0295 56.2863 96.9225C55.7283 96.7725 55.1283 96.7505 54.5703 96.7075C53.9483 96.6865 53.3273 96.7295 52.7483 96.4935C52.555 96.427 52.3526 96.3909 52.1483 96.3865C51.0963 96.3865 50.1313 96.0005 49.1233 95.8075C47.7513 95.5295 46.4213 95.0795 45.0923 94.6295C43.8913 94.2225 42.7333 93.7075 41.6823 93.0005C41.5113 92.8935 41.3393 92.7645 41.1463 92.7005C40.2243 92.3365 39.5383 91.6505 38.8733 90.9865C38.4663 90.5795 38.0373 90.1725 37.6083 89.7645C35.9353 88.2645 34.9483 86.3365 34.0913 84.2795C33.5333 82.9295 33.2553 81.5365 32.8693 80.1645C32.8108 79.8966 32.7747 79.6243 32.7613 79.3505C32.7183 79.0725 32.7403 78.7935 32.6333 78.5365C32.3533 77.7645 32.3753 76.9935 32.3753 76.2005V40.3075C32.3753 39.5145 32.3973 38.7435 32.6333 37.9725C32.8263 37.3295 32.8473 36.6225 32.9973 35.9575C33.4053 34.0075 34.1773 32.1865 35.0993 30.4075C36.0643 28.5645 37.4582 27.1505 39.0452 25.8645C40.2032 24.9005 41.5323 24.1725 42.9053 23.5505C44.3633 22.8865 45.8423 22.2225 47.3863 21.7935C48.2443 21.5575 49.1233 21.4295 50.0033 21.2575C51.0733 21.0471 52.1453 20.8471 53.2193 20.6575C53.5193 20.5935 53.8413 20.5725 54.1413 20.5725H64.2213C64.3493 20.5725 64.4993 20.5505 64.6283 20.5935C65.6363 20.8295 66.6652 20.8725 67.6732 21.0435C69.1962 21.2795 70.6973 21.6435 72.1763 22.0075C73.9783 22.4575 75.7793 22.8645 77.4733 23.6365C78.3733 24.0435 79.3393 24.3005 80.2613 24.6865C81.2913 25.1365 82.3203 25.6295 83.3273 26.1225C84.4213 26.6795 85.4932 27.2795 86.5872 27.8795C87.1232 28.1795 87.4873 28.6295 87.4673 29.2935V47.2075C87.4673 47.6795 87.5523 48.1725 87.2523 48.6865C86.9733 48.7075 86.6723 48.7725 86.3723 48.7725H65.3792C64.7582 48.7505 64.6293 48.6005 64.6073 47.9575C64.5863 47.6795 64.6073 47.4005 64.6073 47.1435V40.8645C64.6073 40.6505 64.5863 40.4575 64.6073 40.2435C64.7793 38.3145 63.2572 37.0505 61.9912 36.4295C61.8726 36.3644 61.7405 36.3278 61.6053 36.3225C60.6403 36.3005 59.6973 36.2795 58.7323 36.3225C58.1323 36.3645 57.5953 36.7075 57.2303 37.1365C56.5873 37.9075 56.0733 38.7435 56.0513 39.8145V77.7645C56.0083 79.2005 56.8663 80.1225 57.9383 80.8725C58.1963 81.0435 58.5823 81.1075 58.9253 81.1295C59.7823 81.1725 60.6403 81.1725 61.4983 81.1295C62.5283 81.0865 63.3213 80.6145 63.8573 79.7145C64.3713 78.8795 64.6502 78.0005 64.6292 76.9935C64.6078 73.4292 64.6078 69.8648 64.6292 66.3005C64.6292 64.9075 64.6292 64.9075 65.9792 64.9075H86.1592C86.5672 64.9075 86.9963 64.8225 87.3603 65.1005C87.5753 65.5075 87.5103 65.9795 87.5103 66.4075V87.4935C87.5103 87.6225 87.4893 87.7725 87.5103 87.9005C87.5753 88.8225 87.1233 89.4435 86.2873 89.9365Z" fill="white"/>
</svg>
