<svg width="308" height="119" viewBox="0 0 308 119" fill="none" xmlns="http://www.w3.org/2000/svg">
<path d="M304.26 56.7C315.85 21.67 297.2 1 280.23 0.0800004C246.83 -1.74 241.38 27.9 241.25 28.63C240.23 28.09 213.82 14.42 194.72 41.59C184.95 55.49 189.64 82.93 224.33 95.5L284.95 118.7L304.25 56.7H304.26Z" fill="#E42920"/>
<path d="M220.46 46.58V56.28H232.89V90.09H242.72V56.28H252.55L262.38 89.84H278.09L291.36 46.58H282.12L272.46 81.02L268.6 80.26L259.53 46.66C259.53 46.66 220.47 46.83 220.47 46.58H220.46Z" fill="white"/>
<path d="M136.38 38.01H87.16V51.29H114.56L90.85 78.97L78.4 38.01H54.41L40.75 83.52H15.94V38.01H0V97.14H53.09L55.94 86.94H77.26L80.29 97.14H136.23V83.86H106.77L136.38 51.27V38.01ZM59.39 75.44L66.63 49.88L74.11 75.44H59.38H59.39Z" fill="white"/>
<path d="M156.5 38.01V97.14H140.56V38.01H156.5Z" fill="white"/>
<path d="M188.96 36.34C196.54 36.34 201.95 37.05 205.2 38.46C210.97 40.99 214.52 45.48 215.84 51.94C216.38 54.59 216.65 59.91 216.65 67.91C216.65 74.61 216.44 79.2 216.02 81.66C214.82 88.7 211.48 93.49 206.01 96.05C202.1 97.88 195.73 98.8 186.89 98.8C178.05 98.8 172.22 97.69 168.58 95.46C163.95 92.6 161.09 88.35 160.01 82.7C159.56 80.32 159.33 76.37 159.33 70.84C159.33 60.5 159.87 53.39 160.95 49.51C162.45 44.13 166.41 40.31 172.81 38.05C176 36.91 181.38 36.34 188.96 36.34ZM188.48 50.53C184.66 50.5 182.04 50.79 180.63 51.39C178.31 52.35 176.92 54.9 176.43 59.04C176.34 59.73 176.3 62.88 176.3 68.49C176.3 74.82 176.66 78.94 177.38 80.83C178.07 82.6 179.63 83.74 182.07 84.25C183.21 84.49 185.29 84.61 188.3 84.61C191.31 84.61 193.2 84.45 194.35 84.11C196.36 83.51 197.77 82.2 198.57 80.17C199.37 78.14 199.77 73.72 199.77 66.91C199.77 60.1 199.39 56.01 198.64 54.28C197.89 52.55 196.44 51.44 194.31 50.93C193.23 50.66 191.29 50.52 188.49 50.52L188.48 50.53Z" fill="white"/>
</svg>
