<svg width="201" height="42" viewBox="0 0 201 42" fill="none" xmlns="http://www.w3.org/2000/svg">
<path d="M0.5 2C0.5 1.7 0.800001 1.4 1.2 1.4H8.7C9.1 1.4 9.4 1.6 9.4 2V33.6C9.4 33.8 9.5 33.9 9.8 33.9H21.5C21.9 33.9 22.2 34.1 22.2 34.5V40.2C22.2 40.5 21.9 40.8 21.5 40.8H1.2C0.800001 40.8 0.5 40.6 0.5 40.2V2Z" fill="#006556"/>
<path d="M26.7 2C26.7 1.7 27 1.4 27.4 1.4H34.9C35.3 1.4 35.6 1.6 35.6 2V40.1C35.6 40.4 35.3 40.7 34.9 40.7H27.4C27 40.7 26.7 40.5 26.7 40.1V2Z" fill="#006556"/>
<path d="M41.8 2C41.8 1.7 42.1 1.4 42.5 1.4H62.7C63.1 1.4 63.4 1.6 63.4 2V7.7C63.4 8 63.1 8.3 62.7 8.3H51.2C50.9 8.3 50.8 8.4 50.8 8.6V17.5C50.8 17.7 50.9 17.8 51.2 17.8H61.2C61.6 17.8 61.9 18 61.9 18.4V24.1C61.9 24.4 61.6 24.7 61.2 24.7H51.2C50.9 24.7 50.8 24.8 50.8 25V40.1C50.8 40.4 50.5 40.7 50.1 40.7H42.6C42.2 40.7 41.9 40.5 41.9 40.1V2H41.8Z" fill="#006556"/>
<path d="M68.1 2C68.1 1.7 68.4 1.4 68.8 1.4H89C89.4 1.4 89.7 1.6 89.7 2V7.7C89.7 8 89.4 8.3 89 8.3H77.4C77.1 8.3 77 8.4 77 8.6V17.2C77 17.4 77.1 17.5 77.4 17.5H87.4C87.8 17.5 88.1 17.7 88.1 18.1V23.8C88.1 24.1 87.8 24.4 87.4 24.4H77.4C77.1 24.4 77 24.5 77 24.7V33.6C77 33.8 77.1 33.9 77.4 33.9H89C89.4 33.9 89.7 34.1 89.7 34.5V40.2C89.7 40.5 89.4 40.8 89 40.8H68.8C68.4 40.8 68.1 40.6 68.1 40.2V2Z" fill="#006556"/>
<path d="M93.9 21.1C93.9 11 94.1 9.4 94.8 7.5C96.5 3.2 100.5 0.9 106.7 0.9C114.2 0.9 118.5 4.3 119.1 10.7C119.2 11 119 11.3 118.6 11.4L111.4 12.4C111 12.5 110.7 12.3 110.7 11.9C110.5 9.1 109.1 7.7 106.8 7.7C105.2 7.7 103.8 8.5 103.4 9.5C103 10.5 103 11 103 21.1C103 31.2 103.1 31.7 103.4 32.5C103.8 33.7 105.2 34.4 106.9 34.4C108.6 34.4 110 33.6 110.4 32.5C110.7 31.7 110.8 31.1 110.8 25.3C110.8 25.1 110.7 25 110.4 25H107.5C107.1 25 106.8 24.8 106.8 24.4V19.3C106.8 19 107.1 18.7 107.5 18.7H118.7C119.1 18.7 119.4 18.9 119.4 19.3V21C119.4 31.1 119.2 32.7 118.4 34.5C116.7 38.8 112.7 41.1 106.6 41.1C100.4 41.1 96.4 38.8 94.7 34.5C94.1 32.9 93.9 31.2 93.9 21.1Z" fill="#006556"/>
<path d="M131.3 2C131.4 1.7 131.6 1.4 132 1.4H140C140.4 1.4 140.7 1.6 140.7 2L150.6 40.1C150.7 40.4 150.5 40.7 150.1 40.7H142.6C142.1 40.7 141.9 40.5 141.9 40.1L140.4 33H131.6L130 40.1C129.9 40.4 129.7 40.7 129.3 40.7H121.8C121.4 40.7 121.2 40.5 121.3 40.1L131.3 2ZM139.1 27.1L136.2 13.5H136L133 27.1H139.1Z" fill="#006556"/>
<path d="M158 40.8C157.6 40.8 157.3 40.6 157.3 40.2V8.6C157.3 8.4 157.2 8.3 156.9 8.3H149.6C149.2 8.3 148.9 8.1 148.9 7.7V2C148.9 1.7 149.2 1.4 149.6 1.4H173.9C174.3 1.4 174.6 1.6 174.6 2V7.7C174.6 8 174.3 8.3 173.9 8.3H166.6C166.3 8.3 166.2 8.4 166.2 8.6V40.2C166.2 40.5 165.9 40.8 165.5 40.8H158Z" fill="#006556"/>
<path d="M178.7 2C178.7 1.7 179 1.4 179.4 1.4H199.6C200 1.4 200.3 1.6 200.3 2V7.7C200.3 8 200 8.3 199.6 8.3H188C187.7 8.3 187.6 8.4 187.6 8.6V17.2C187.6 17.4 187.7 17.5 188 17.5H198C198.4 17.5 198.7 17.7 198.7 18.1V23.8C198.7 24.1 198.4 24.4 198 24.4H188C187.7 24.4 187.6 24.5 187.6 24.7V33.6C187.6 33.8 187.7 33.9 188 33.9H199.6C200 33.9 200.3 34.1 200.3 34.5V40.2C200.3 40.5 200 40.8 199.6 40.8H179.4C179 40.8 178.7 40.6 178.7 40.2V2Z" fill="#006556"/>
</svg>
