<svg width="773" height="250" viewBox="0 0 773 250" fill="none" xmlns="http://www.w3.org/2000/svg">
<path d="M243.51 65.396C243.51 27.25 219.885 0 181.719 0C143.563 0 119.938 27.25 119.938 65.417C119.938 74.084 121.167 82.188 123.5 89.542L131.083 88.813C135.135 101.573 142.541 112.053 152.75 119.261L145.146 119.99C154.927 126.917 167.281 130.823 181.719 130.823C200.729 130.823 216.115 124.042 226.792 112.531L234.334 111.843C242.667 102.885 248.115 91.031 250.167 77.26L242.594 77.989C243.188 73.947 243.511 69.76 243.511 65.406L243.51 65.396ZM181.719 21.792C205.344 21.792 218.073 39.959 218.073 65.396C218.073 70.813 217.479 75.886 216.344 80.531L223.917 79.802C219.719 97 207.875 108.25 189.292 108.25C173.157 108.25 162.104 99.76 156.73 86.271L149.147 87.011C146.657 80.761 145.376 73.459 145.376 65.396C145.376 39.959 158.095 21.792 181.73 21.792H181.719ZM107.219 3.646L105.396 1.823H83.594L81.771 3.646V87.229H79.959L30.896 3.635L27.25 1.813H1.823L0 3.646V101.5L7.573 100.771V126.438L9.386 128.261H31.199L33.012 126.438V98.271L25.438 99V43.604H27.261L57.949 95.885L65.532 95.156L83.459 125.698L114.792 122.823V90.354L107.219 91.083V3.646ZM399.792 3.646L397.969 1.823H376.167L374.344 3.646V65.271L381.917 64.542V86.459H380.105L368 65.833L360.417 66.583L323.469 3.646L319.823 1.823H294.385L292.573 3.646V73.177L300.146 72.448V105L292.573 105.729V127.198L294.385 129.01H316.197L318.009 127.198V104.146L325.582 103.458V69.958L318.009 70.687V43.604H319.832L334.78 69.083L342.374 68.354L360.447 99.156L352.864 99.885L368.895 127.187L372.53 129H397.968L399.791 127.187V96.635L407.353 95.947V62.042L399.791 62.771L399.792 3.646ZM665.104 3.646L663.281 1.823H636.021L634.209 3.646L618.709 41.615L626.271 40.886L612.438 74.782L604.876 75.511L597.866 92.688H596.043L590.522 79.146L598.116 78.448L584.428 44.917L576.845 45.646L559.699 3.646L557.887 1.823H530.627L528.815 3.646V50.313L536.388 49.584V82.136L528.815 82.865V127.198L530.627 129.01H552.44L554.252 127.198V82.458L561.825 81.76V55.573H563.637L573.085 78.573L565.502 79.302L585.148 127.187L586.96 128.999H606.96L608.772 127.187L629.979 75.5L637.521 74.802L645.417 55.573H647.229V71.406L639.656 72.135V127.187L641.479 128.999H663.281L665.104 127.187V72.292L672.666 71.594V36.354L665.104 37.083V3.646ZM518.365 85.75L505.209 52.562L497.626 53.291L477.927 3.646L476.115 1.823H452.49L450.667 3.646L428.302 60.042L435.865 59.313L422.438 93.167L414.876 93.896L408.876 109.031V127.198L410.688 129.01H427.042L428.865 127.198L437.948 103.573L441.583 101.761H487.01L490.656 103.573L499.729 127.198L501.552 129.01H517.906L519.718 127.198V109.031L510.77 86.458L518.374 85.76L518.365 85.75ZM465.208 34.521L473.146 55.698L480.729 54.969L489.135 77.365L487.312 79.188H456.427L454.604 77.376L462.354 56.709L454.791 57.438L463.385 34.521H465.208ZM706.896 74.5H763.229L765.052 72.677V63.094L772.614 62.406V53.76L770.801 51.937H714.468L712.656 50.114V32.5L705.083 33.229V25.448L706.895 23.635H766.864L768.677 21.812V3.646L766.875 1.813H681.458L679.646 3.636V35.719L687.219 34.979V67.531L679.646 68.26V127.187L681.469 129H766.875L768.688 127.187V109.02L766.875 107.197H706.906L705.093 105.385V76.313L706.906 74.501L706.896 74.5ZM76.323 127.188L79.958 129H105.396L107.219 127.187V123.666L76.031 126.687L76.323 127.188Z" fill="url(#paint0_linear_1_2)"/>
<path d="M526.167 144.677H553.375C564.552 144.677 574.063 149.812 574.063 161C574.063 167.281 570.844 171.729 565.105 174.333V174.562C569.543 176.25 571.845 179.302 572.761 183.593C574.219 190.187 573.001 198.072 574.99 198.614V199.458H559.198C557.667 198.385 558.292 191.646 557.125 186.739C556.125 182.52 554.292 180.385 549.625 180.385H542.177V199.458H526.167V144.666V144.677ZM542.177 168.969H550.76C555.354 168.969 557.885 166.969 557.885 163.136C557.885 159.542 555.593 157.24 550.989 157.24H542.177V168.969Z" fill="white"/>
<path d="M596.51 144.677H612.833L633.145 199.469H616.124L613.447 191.417H594.905L592.218 199.469H576.28L596.51 144.677ZM598.5 180.385H609.844L606.406 169.656C605.552 166.969 604.323 162.604 604.323 162.604H604.177C604.177 162.604 603.031 166.979 602.115 169.656L598.5 180.385Z" fill="white"/>
<path d="M636.115 144.677H661.407C677.188 144.677 688.147 154.781 688.147 172.187C688.147 189.656 677.73 199.468 660.709 199.468H636.105V144.676L636.115 144.677ZM659.417 186.198C666.771 186.198 671.917 181.458 671.917 172.177C671.917 163.146 667.073 157.927 659.417 157.927H652.136V186.198H659.417Z" fill="white"/>
<path d="M708.604 144.677H692.583V199.469H708.604V144.677Z" fill="white"/>
<path d="M713.042 172.26C713.042 155.854 723.771 143.677 740.792 143.677C757.802 143.677 768.677 155.865 768.677 172.26C768.677 188.655 757.802 200.76 740.792 200.76C723.771 200.76 713.042 188.656 713.042 172.26ZM752.438 172.26C752.438 163.302 748.532 156.468 740.876 156.468C733.209 156.468 729.303 163.291 729.303 172.26C729.303 181.218 733.209 187.968 740.865 187.968C748.531 187.969 752.438 181.229 752.438 172.26Z" fill="white"/>
<path d="M528.375 220.667H533.208V223.032H533.312C534.572 221.196 536.669 220.116 538.895 220.157C543.916 220.157 547.124 224.251 547.124 230.157C547.124 236.282 543.791 240.157 538.936 240.157C536.269 240.157 534.54 239.095 533.478 237.459H533.395V245.803H528.374L528.375 220.667ZM542.021 230.302C542.021 226.719 540.771 224.219 537.677 224.219C534.542 224.219 533.281 226.907 533.281 230.302C533.281 233.74 534.875 235.99 537.864 235.99C540.406 235.99 542.031 233.886 542.031 230.302H542.021Z" fill="white"/>
<path d="M548.521 230.156C548.521 224.51 552.542 220.156 558.417 220.156C564.292 220.156 568.313 224.51 568.313 230.156C568.313 235.802 564.303 240.156 558.417 240.156C552.552 240.156 548.521 235.802 548.521 230.156ZM563.208 230.156C563.208 226.458 561.479 223.958 558.416 223.958C555.312 223.958 553.614 226.468 553.614 230.156C553.614 233.844 555.312 236.323 558.406 236.323C561.479 236.323 563.218 233.844 563.218 230.156H563.208Z" fill="white"/>
<path d="M568.604 220.677H573.594L575.875 229.458C576.292 231.01 576.719 233 576.719 233H576.802C576.802 233 577.208 230.969 577.614 229.417L579.968 220.667H584.26L586.729 229.417C587.146 231 587.614 233 587.614 233H587.697C587.697 233 588.135 231.01 588.541 229.458L590.937 220.666H595.822L590.166 239.604H585.593L583.083 230.302C582.666 228.781 582.239 227.01 582.239 227.01H582.156L581.271 230.302L578.688 239.604H574.146L568.604 220.666V220.677Z" fill="white"/>
<path d="M596.104 230.125C596.104 224.5 599.906 220.156 605.448 220.156C611.531 220.156 614.781 224.802 614.781 231.562H601.041C601.416 234.479 603.031 236.281 605.885 236.281C607.833 236.281 608.979 235.396 609.531 233.958H614.479C613.781 237.323 610.791 240.156 605.917 240.156C599.646 240.156 596.104 235.771 596.104 230.125ZM601.125 228.094H609.552C609.396 225.698 607.812 224.032 605.521 224.032C602.865 224.031 601.573 225.615 601.125 228.094Z" fill="white"/>
<path d="M621.958 223.698H622.062C623.208 221.552 624.5 220.448 626.708 220.448C627.26 220.448 627.593 220.49 627.896 220.594V224.99H627.781C624.489 224.657 622.135 226.386 622.135 230.375V239.604H617.114V220.666H621.947V223.697L621.958 223.698Z" fill="white"/>
<path d="M628.594 230.115C628.594 224.511 632.396 220.157 637.938 220.157C644.021 220.157 647.271 224.803 647.271 231.563H633.531C633.906 234.48 635.521 236.282 638.375 236.282C640.323 236.282 641.469 235.397 642.021 233.959H646.969C646.271 237.324 643.281 240.157 638.407 240.157C632.136 240.157 628.595 235.772 628.595 230.126L628.594 230.115ZM633.615 228.094H642.042C641.886 225.698 640.302 224.032 638.021 224.032C635.354 224.031 634.062 225.615 633.615 228.094Z" fill="white"/>
<path d="M648.677 230.156C648.677 224.25 652.042 220.156 656.76 220.156C659.416 220.156 661.083 221.375 662.114 222.969H662.229V213.219H667.25V239.615H662.417V237.136H662.334C661.142 239.095 658.98 240.252 656.688 240.157C651.927 240.156 648.677 236.281 648.677 230.156ZM662.333 230.26C662.333 226.645 661.156 224.208 657.948 224.208C655.177 224.208 653.781 226.645 653.781 230.145C653.781 233.801 655.208 235.937 657.791 235.937C660.781 235.948 662.333 233.74 662.333 230.26Z" fill="white"/>
<path d="M681.604 237.24H681.531V239.605H676.687V213.209H681.708V222.959H681.823C682.865 221.365 684.479 220.147 687.104 220.147C691.864 220.147 695.26 224.241 695.26 230.147C695.26 236.272 692.01 240.147 687.239 240.147C684.593 240.157 682.708 239.012 681.614 237.241L681.604 237.24ZM690.167 230.156C690.167 226.656 688.771 224.218 685.959 224.218C682.792 224.218 681.605 226.76 681.605 230.27C681.605 233.739 683.345 235.958 686.147 235.958C688.729 235.958 690.167 233.802 690.167 230.156Z" fill="white"/>
<path d="M697.437 241.854H699.208C701.198 241.854 702.02 240.812 702.02 239.271C702.02 238.229 701.645 237.021 700.582 234.136L695.478 220.667H700.759L703.571 229.198C704.165 230.927 704.79 233.333 704.79 233.333H704.863C704.863 233.333 705.384 230.937 705.967 229.198L708.623 220.667H713.685L707.07 240.084C705.632 244.292 704.237 245.813 700.403 245.813H697.445V241.855L697.437 241.854Z" fill="white"/>
<path d="M768.667 207.656H726.323V250H768.667V207.656Z" fill="white"/>
<path d="M761.725 219.311C760.493 219.311 759.481 220.323 759.481 221.554C759.481 222.785 760.493 223.797 761.725 223.797C762.957 223.797 763.968 222.785 763.968 221.554C763.968 220.323 762.957 219.311 761.725 219.311Z" fill="black"/>
<path d="M763.726 225.887H759.723V237.169H763.726V225.887Z" fill="black"/>
<path d="M739.752 230.374C742.105 229.956 743.38 227.976 743.38 225.689C743.38 222.148 740.895 220.587 737.619 220.587H731.174V237.169H735.485V230.791H735.529L739.597 237.169H744.963L739.752 230.374ZM735.903 228.02H735.486V223.885H735.903C737.31 223.885 738.894 224.149 738.894 225.952C738.894 227.756 737.31 228.02 735.903 228.02Z" fill="black"/>
<path d="M753.417 225.887V226.987C752.581 225.997 751.218 225.514 749.92 225.514C746.577 225.514 744.268 228.285 744.268 231.518C744.268 234.751 746.621 237.543 749.964 237.543C751.283 237.543 752.669 237.037 753.373 235.916H753.417V237.169H757.419V225.887H753.417ZM750.976 234.068C749.349 234.068 748.403 232.968 748.403 231.539C748.403 230.153 749.349 228.988 750.976 228.988C752.603 228.988 753.549 230.153 753.549 231.539C753.549 232.968 752.603 234.068 750.976 234.068Z" fill="black"/>
<defs>
<linearGradient id="paint0_linear_1_2" x1="0" y1="125" x2="772.614" y2="125" gradientUnits="userSpaceOnUse">
<stop stop-color="#1101D4"/>
<stop offset="1" stop-color="#FF026C"/>
</linearGradient>
</defs>
</svg>
