<svg width="478" height="500" viewBox="0 0 478 500" fill="none" xmlns="http://www.w3.org/2000/svg">
<g clip-path="url(#clip0_1_2)">
<path d="M256.13 0.00999832C264.26 1.41 272.45 2.51 280.49 4.26C354.67 20.4 410.42 84.5 416.24 159.89C417.54 176.77 416.34 193.41 413.31 209.99C413.02 211.57 412.37 213.09 411.69 214.56C421.13 132.62 354.41 56.79 273.85 51.98C199.29 47.53 133.53 97.15 118.47 170.39C101.17 254.52 155.21 329.93 228.71 347.42C219.66 347.42 210.8 345.78 202.06 343.66C120.66 323.93 65.41 250.98 68.39 167.29C71.46 80.94 139.07 9.26 225.25 0.949997C226.52 0.829997 227.93 1.14 228.95 0C238.01 0.01 247.07 0.00999832 256.13 0.00999832Z" fill="#B11119"/>
<path d="M381.19 203.64C365.08 138.86 296.64 103.51 236.08 123.48C179.65 142.09 147.92 200.34 161.6 260.32C143.88 235.07 136.74 183.77 161.63 141.1C188.49 95.04 243.87 72.11 294.94 86.58C346.89 101.29 382.96 150.11 381.19 203.64Z" fill="#B11119"/>
<path d="M50.48 399.07C22.14 399.2 0 421.21 0 449.24C0.06 476.89 22.76 498.9 51.04 498.84C79.07 498.71 101.71 476.27 101.64 448.61C101.59 421.15 78.7 399.01 50.48 399.07ZM50.67 484.48C31.42 484.42 15.99 468.49 16.12 448.67C16.18 428.79 31.67 413.18 51.11 413.3C70.36 413.43 85.54 429.42 85.41 449.36C85.22 468.8 69.73 484.48 50.67 484.48Z" fill="white"/>
<path d="M190.44 466.61V401.42H204.06V499.6C180.55 476.69 156.82 454.96 133.91 431.59V495.6C129.07 496.71 124.62 496.09 119.76 496.09V397.64C143.33 420.81 167.11 442.5 190.44 466.61Z" fill="white"/>
<path d="M241.92 414.23V438.04H279.1V451.51H242.09V482.16H278.63C279.9 486.99 279.37 491.38 279.06 496H226.62V401.49H278.76C279.93 405.45 279.22 409.51 279.23 414.24C266.75 414.23 254.45 414.23 241.92 414.23Z" fill="white"/>
<path d="M477.77 401.46C463.72 434.26 449.8 466.55 435.51 499.97C421.53 467.42 407.92 435.82 394.31 404.22C394 404.28 393.68 404.35 393.37 404.41V414.57H368.29V495.96H355.81C354.87 496.21 353.93 496.34 352.74 495.4V414.51H327.91V401.53H409.18C417.77 422.47 427.49 443.48 435.52 465.49C443.55 443.61 453.14 422.85 461.79 401.47H477.77V401.46Z" fill="white"/>
</g>
<defs>
<clipPath id="clip0_1_2">
<rect width="477.77" height="499.97" fill="white"/>
</clipPath>
</defs>
</svg>
