<svg width="1027" height="305" viewBox="0 0 1027 305" fill="none" xmlns="http://www.w3.org/2000/svg">
<path d="M0.95076 1.01254H709.64V304.439H0.95076V1.01254Z" fill="#EC1B24"/>
<path d="M237.775 152.651C237.775 103.146 197.635 64.9388 147.535 64.9388C97.4348 64.9388 57.295 103.146 57.295 152.651C57.295 202.157 97.4348 240.364 147.535 240.364C197.635 240.513 237.775 202.306 237.775 152.651ZM194.959 152.651C194.959 179.263 172.065 200.522 147.535 200.522C122.708 200.522 100.111 179.263 100.111 152.651C100.111 126.04 122.708 104.781 147.535 104.781C172.065 104.781 194.959 126.04 194.959 152.651Z" fill="white"/>
<path d="M297.539 237.242H339.016V188.034H369.939L402.497 237.242H454.232L412.457 178.073C432.081 169.451 445.907 150.867 445.907 127.973C445.907 94.3746 421.08 68.2094 383.467 68.2094H297.539V237.242ZM381.089 148.191H339.016V108.052H381.089C399.077 108.052 404.578 116.972 404.578 127.973C404.578 139.272 399.077 148.191 381.089 148.191Z" fill="white"/>
<path d="M515.78 237.094H557.258V180.155H635.604V140.312H557.258V108.052H653.444V68.2094H515.928C515.78 68.2094 515.78 237.094 515.78 237.094Z" fill="white"/>
<path d="M817.8 304.3C817.2 304 808.2 300 797.8 295.5C787.4 291 778.1 286.9 777.2 286.5C776.3 286.1 775.5 285.8 775.5 285.8C775.5 285.8 774.6 285.4 773.6 285C772.6 284.5 770.8 283.7 769.6 283.2C768.4 282.6 767.3 282.2 767.2 282.2C766.8 282.2 758.7 278.4 758.3 278C757.8 277.6 757.8 271.3 757.8 153C757.8 45.9 757.9 28.4 758.2 28C758.4 27.8 760.7 26.7 763.3 25.5C765.9 24.4 768.2 23.4 768.3 23.2C768.4 23 768.9 22.9 769.3 22.8C769.7 22.7 770.8 22.2 771.7 21.8C772.6 21.4 774.4 20.6 775.6 20C776.8 19.4 777.9 19 777.9 19C778 19 779.9 18.2 781.8 17.3C786.8 15 818.6 1.2 819 1.1C819.6 1.1 819.6 1.3 819.6 153C819.7 297.6 819.6 304.9 819.2 304.9C819 304.8 818.3 304.6 817.8 304.3ZM921.9 304.6C921.7 304.5 919.7 303.5 917.3 302.4C914.9 301.4 912.3 300.2 911.5 299.8C910.7 299.4 910 299.1 909.9 299.1C909.8 299.1 909 298.7 908 298.3C904 296.5 901.8 295.5 901.7 295.5C901.6 295.5 900.9 295.2 900.1 294.8C899.3 294.4 890.2 290.4 879.9 285.9C869.6 281.4 861.1 277.6 860.9 277.5C860.5 277.1 860.6 28.5 861 28C861.2 27.8 861.4 27.6 861.6 27.6C861.8 27.6 862.8 27.2 864 26.6C865.2 26.1 866.2 25.6 866.3 25.6C866.4 25.6 867.1 25.3 867.9 24.9C868.7 24.5 877.5 20.7 887.4 16.3C905.2 8.5 907.2 7.6 910.5 6.1C911.4 5.7 912.5 5.2 912.9 5.1C913.3 5 914.9 4.3 916.4 3.6C921.9 1 923.1 0.6 923.3 1.1C923.5 1.3 924.7 62.7 923.5 153.1L923.4 304.7L922.8 304.8C922.4 304.8 922.1 304.8 921.9 304.6ZM1024.9 304.6C1024.7 304.5 1022.8 303.5 1020.5 302.6C1018.2 301.7 1015.6 300.5 1014.7 300C1013.8 299.5 1012.9 299.2 1012.8 299.2C1012.7 299.2 1011.8 298.8 1010.9 298.4C1009.9 297.9 1007.9 297.1 1006.4 296.4C1002.5 294.7 999.5 293.3 997.4 292.4C996.4 292 995.6 291.6 995.5 291.6C995.4 291.6 994.8 291.3 994.2 291C993.6 290.7 986.5 287.6 978.5 284.1C970.5 280.6 963.9 277.7 963.8 277.5C963.7 277.4 963.6 221.6 963.6 152.8C963.6 53.4 963.7 28.3 964 28C964.2 27.8 972.7 24 982.9 19.6C993.1 15.2 1002.3 11.1 1003.3 10.7C1004.3 10.2 1005.7 9.6 1006.4 9.3C1007.1 9 1007.7 8.8 1007.7 8.8C1007.7 8.8 1008.9 8.3 1010.3 7.6C1011.7 7 1013.5 6.1 1014.5 5.7C1015.4 5.3 1016.8 4.7 1017.5 4.4C1022.6 2.1 1025.8 0.8 1026.1 0.9C1026.4 1 1026.5 25.5 1026.4 152.8L1026.3 304.6L1025.7 304.7C1025.4 304.8 1025.1 304.8 1024.9 304.6Z" fill="white"/>
</svg>
