<svg width="74" height="32" viewBox="0 0 74 32" fill="none" xmlns="http://www.w3.org/2000/svg">
<path d="M44.7491 0.591448C43.4717 0.875284 42.2889 1.32469 41.2008 1.89236C40.6567 2.17619 40.1126 2.50733 39.6158 2.81482C39.3556 2.98039 39.0954 3.14596 38.8352 3.33518L38.4567 3.59537L38.1256 3.85555C37.1557 4.58879 36.2331 5.34568 35.3579 6.14988C34.4826 6.93042 33.6547 7.73462 32.8267 8.49151C31.9988 9.24841 31.1709 9.95799 30.272 10.5493C29.3967 11.117 28.4268 11.6137 27.4097 11.9921C26.4161 12.3706 25.3516 12.6544 24.2398 12.891C23.1517 13.1275 22.0399 13.293 20.9281 13.4113C19.8163 13.5296 18.6808 13.6242 17.5454 13.6951C16.9776 13.7188 16.3863 13.7425 15.8185 13.7661C15.2508 13.7661 14.6831 13.7898 14.1153 13.7898L12.3885 13.7898L7.75203 13.7661L10.1176 15.4218C10.6143 15.753 11.0874 16.0841 11.5842 16.3916C12.081 16.6991 12.6014 17.0066 13.0982 17.314C14.1153 17.8817 15.1562 18.4257 16.2207 18.8988C18.3733 19.8922 20.5733 20.6491 22.8442 21.2168C24.6893 21.6898 26.5581 22.021 28.4268 22.2338C28.143 22.2575 27.8828 22.2811 27.5989 22.2811C24.5947 22.4231 21.5668 22.3285 18.5625 22.0446C15.5583 21.7371 12.5541 21.2168 9.62081 20.4835C8.15417 20.1287 6.68754 19.703 5.24456 19.2536C4.5349 19.017 3.80158 18.7569 3.09192 18.4967C2.38226 18.2365 1.6726 17.9527 0.986595 17.6452L0.891968 17.8581C1.57797 18.1892 2.28764 18.4967 2.9973 18.7805C3.6833 19.0644 4.41662 19.3482 5.12628 19.6084C6.56926 20.1051 8.01225 20.5781 9.50253 20.9802C10.9692 21.3823 12.4595 21.7135 13.9497 22.021C15.44 22.3285 16.954 22.565 18.4679 22.7542C21.5195 23.1326 24.571 23.2982 27.6462 23.2273C28.4032 23.2273 29.1838 23.18 29.9408 23.1327C30.6978 23.0853 31.4784 23.0144 32.2354 22.9434C32.9923 22.8725 33.7493 22.7779 34.5063 22.6596C35.2869 22.565 36.0439 22.4231 36.8009 22.2811L36.588 21.1222C36.3514 21.1695 36.0439 21.1695 35.7837 21.1931C35.4998 21.2168 35.2159 21.2168 34.9321 21.2404C34.3643 21.2404 33.8203 21.2641 33.2525 21.2404C32.1171 21.2168 30.9816 21.1458 29.8698 21.0275C27.6226 20.791 25.399 20.3653 23.2463 19.7739C22.1582 19.4665 21.07 19.1117 20.0292 18.7096C18.9883 18.3311 17.9475 17.8817 16.9303 17.4087C15.9131 16.9119 14.9433 16.3916 13.9734 15.8239C13.8788 15.753 13.7842 15.7056 13.7132 15.6583H14.1153C14.7067 15.6583 15.2744 15.6583 15.8658 15.6583C16.4572 15.6583 17.0249 15.6347 17.6163 15.611C18.7754 15.5874 19.9582 15.5164 21.141 15.4218C22.3001 15.3272 23.4829 15.1616 24.6656 14.9488C25.8248 14.7359 27.0075 14.452 28.1666 14.0499C29.3258 13.6715 30.4612 13.1275 31.5257 12.4889C32.5665 11.8502 33.5364 11.0697 34.4353 10.2891C35.3342 9.50859 36.1622 8.72804 37.0138 7.9948C37.8653 7.23791 38.7169 6.52832 39.6158 5.8897L39.947 5.62951L40.2782 5.39298C40.4911 5.22742 40.7276 5.0855 40.9642 4.94358C41.4137 4.65975 41.8868 4.37591 42.3599 4.11573C43.3061 3.64267 44.276 3.21692 45.2695 3.00404C46.263 2.76751 47.2565 2.69656 48.2264 2.86213C48.7232 2.93308 49.1963 3.075 49.6694 3.24057C49.9059 3.33518 50.1425 3.45345 50.379 3.54806C50.6156 3.68998 50.8285 3.78459 51.0414 3.92651C51.9166 4.44687 52.6973 5.10915 53.265 5.91335C53.8564 6.69389 54.2112 7.61636 54.3295 8.60978C54.4714 9.6032 54.3532 10.6676 54.0929 11.7083L53.2177 15.3508L55.6305 12.5598C55.6779 12.4889 55.7488 12.4179 55.8198 12.3469L56.0563 12.1104C56.1983 11.9685 56.3402 11.8266 56.5058 11.661C56.8133 11.3772 57.1208 11.0933 57.452 10.8331C58.1144 10.2891 58.8004 9.79242 59.51 9.34302C60.2433 8.89361 60.9767 8.51516 61.7809 8.23133C62.1594 8.08941 62.5616 7.9948 62.9637 7.90019C63.3659 7.82923 63.768 7.75827 64.1938 7.73462C64.5959 7.73462 64.9981 7.73462 65.4239 7.80558C65.6604 7.85288 65.8497 7.87654 66.0389 7.92384L66.3464 7.9948C66.4411 8.01845 66.5357 8.06576 66.6303 8.08941C67.0324 8.23133 67.3873 8.3969 67.7185 8.63343C68.026 8.86996 68.3098 9.15379 68.5464 9.50859C68.8066 9.83973 69.0432 10.2418 69.3507 10.5966C69.6345 10.9514 70.013 11.2826 70.4152 11.4954C70.841 11.732 71.2904 11.8739 71.7162 11.9685C72.1657 12.0868 72.6151 12.1341 73.0646 12.1577L73.0882 11.9212C72.6624 11.8502 72.2366 11.7556 71.8108 11.6373C71.4087 11.4954 71.0066 11.3299 70.6754 11.0933C70.3205 10.8805 70.0367 10.5966 69.7765 10.2418C69.5399 9.91068 69.3507 9.53224 69.1141 9.13014C68.8539 8.75169 68.57 8.34959 68.1916 8.04211C67.8131 7.71097 67.3873 7.47444 66.9378 7.30887C66.8196 7.26156 66.7249 7.21426 66.6067 7.16695L66.2755 7.07234C66.0389 7.00138 65.8024 6.93042 65.5895 6.90677C65.14 6.7885 64.6669 6.71755 64.1938 6.69389C63.2476 6.64659 62.3014 6.78851 61.4025 7.02503C60.4799 7.28521 59.6283 7.64001 58.8004 8.06576C58.3746 8.27864 57.9724 8.51517 57.5939 8.75169C57.1918 9.01188 56.8133 9.27206 56.4585 9.53224C56.4112 9.55589 56.3639 9.6032 56.3166 9.62685C56.3402 9.22475 56.3402 8.82265 56.3166 8.42055C56.2219 7.11965 55.7725 5.79508 55.0392 4.70705C54.3058 3.57171 53.3123 2.69656 52.2478 1.98697C51.9876 1.8214 51.6801 1.65583 51.4199 1.51391C51.136 1.37199 50.8285 1.23008 50.5446 1.08816C49.9296 0.851631 49.3146 0.638756 48.6522 0.520491C48.0845 0.402227 47.5167 0.354919 46.9254 0.354919C46.192 0.354919 45.4587 0.449532 44.7491 0.591448Z" fill="url(#paint0_linear_1_2)"/>
<path d="M69.9157 13.0697C69.7223 13.1277 69.5096 13.2051 69.2389 13.3017C68.9876 13.3984 68.6975 13.5144 68.3495 13.6304C67.6921 13.9011 66.8993 14.2491 66.0098 14.7131C65.1204 15.1771 64.1343 15.7571 63.1288 16.5112C62.1427 17.2459 61.1372 18.1739 60.1511 19.1986C59.1649 20.2233 58.1981 21.306 57.1347 22.3113C56.0712 23.336 54.911 24.2641 53.6155 25.0954C52.9774 25.5208 52.3007 25.9074 51.6239 26.2748L51.1019 26.5454C50.9278 26.6228 50.7731 26.7195 50.5798 26.8161L50.0384 27.0675L49.787 27.2028L49.5163 27.3188C49.1876 27.4541 48.8202 27.5895 48.4722 27.7055C48.2981 27.7828 48.1241 27.8215 47.9308 27.8795L47.4087 28.0342C46.6739 28.2275 45.9392 28.3822 45.2044 28.4788C44.4503 28.5755 43.7155 28.6528 42.9808 28.6722C42.2267 28.7108 41.4919 28.7108 40.7765 28.6722C40.0417 28.6335 39.3263 28.5755 38.6302 28.4982C37.9341 28.4208 37.238 28.3435 36.5806 28.2275C35.2464 28.0148 33.9702 27.7442 32.8101 27.4735C31.6499 27.2028 30.5864 26.9128 29.6583 26.6421C28.7109 26.3714 27.8794 26.1201 27.222 25.9074C26.5452 25.6948 26.0038 25.5208 25.6364 25.3854C25.2884 25.2694 25.095 25.1921 25.095 25.1921C25.095 25.1921 25.1337 25.2307 25.2111 25.2887C25.2884 25.3467 25.4044 25.4434 25.5591 25.5401C25.8878 25.7721 26.3519 26.0814 26.9706 26.4488C27.57 26.8161 28.3435 27.2608 29.2329 27.7055C30.1417 28.1502 31.1665 28.6142 32.3267 29.0589C33.4868 29.5035 34.763 29.9289 36.1552 30.2769C36.8513 30.4316 37.5667 30.6056 38.3208 30.7216C39.0749 30.8376 39.829 30.9536 40.6218 31.0116C41.4146 31.0696 42.2267 31.1082 43.0581 31.0889C43.8702 31.0502 44.7017 30.9922 45.5524 30.8762C46.3839 30.7409 47.2153 30.5669 48.0468 30.3156L48.6655 30.1029C48.8782 30.0255 49.0716 29.9675 49.2843 29.8902C49.6903 29.7162 50.077 29.5422 50.4638 29.3489L50.7538 29.1942L51.0438 29.0589L51.5853 28.7688C51.7593 28.6722 51.9526 28.5755 52.1267 28.4595L52.6874 28.1502C53.4028 27.7248 54.0989 27.2801 54.7757 26.7775C55.4524 26.3134 56.0905 25.7914 56.6899 25.2501C56.9993 24.9794 57.2893 24.6894 57.5794 24.4187C57.8694 24.1287 58.1401 23.8387 58.4108 23.5487C58.9329 22.988 59.4356 22.3887 59.8997 21.828C60.3638 21.248 60.7891 20.6873 61.2339 20.1459C61.6593 19.6239 62.0847 19.1212 62.5294 18.6379C62.7421 18.4059 62.9548 18.1932 63.1675 17.9612C63.3995 17.7485 63.6122 17.5359 63.8249 17.3425C64.0376 17.1299 64.2503 16.9365 64.4823 16.7625C64.579 16.6658 64.695 16.5692 64.7917 16.4918L65.4298 15.9892C65.5458 15.9118 65.6425 15.8345 65.7585 15.7571C65.9518 15.6025 66.1645 15.4478 66.3579 15.3125C67.17 14.7518 67.9048 14.3264 68.5042 13.9591C68.8136 13.7851 69.0843 13.6304 69.3356 13.4951C69.5677 13.3597 69.7804 13.2437 69.9544 13.1664C70.2831 12.9731 70.4571 12.8764 70.4571 12.8764C70.4571 12.8764 70.2637 12.9537 69.9157 13.0697Z" fill="url(#paint1_linear_1_2)"/>
<defs>
<linearGradient id="paint0_linear_1_2" x1="-1.51947" y1="15.7245" x2="73.0882" y2="15.7245" gradientUnits="userSpaceOnUse">
<stop stop-color="#CEA53A"/>
<stop offset="1" stop-color="#DACB2A"/>
</linearGradient>
<linearGradient id="paint1_linear_1_2" x1="47.7763" y1="31.0889" x2="47.7763" y2="11.755" gradientUnits="userSpaceOnUse">
<stop stop-color="#CEA53A"/>
<stop offset="1" stop-color="#DACB2A"/>
</linearGradient>
</defs>
</svg>
