<svg width="307" height="66" viewBox="0 0 307 66" fill="none" xmlns="http://www.w3.org/2000/svg">
<mask id="path-1-outside-1_2_8" maskUnits="userSpaceOnUse" x="0.751999" y="0.391998" width="306" height="66" fill="black">
<rect fill="white" x="0.751999" y="0.391998" width="306" height="66"/>
<path d="M37.472 18.946C37.472 21.8807 36.6453 24.526 34.992 26.882C33.38 29.238 31.272 31.0773 28.668 32.4C27.1387 33.1853 25.568 33.702 23.956 33.95C22.344 34.198 20.67 34.322 18.934 34.322C18.562 34.322 18.128 34.3013 17.632 34.26C17.136 34.2187 16.888 33.9293 16.888 33.392C16.888 32.9373 17.012 32.6273 17.26 32.462C17.508 32.2553 17.7973 32.1313 18.128 32.09C18.4587 32.0487 18.81 32.0487 19.182 32.09C19.5953 32.1313 19.9673 32.152 20.298 32.152C21.9927 32.152 23.5013 31.842 24.824 31.222C26.188 30.5607 27.3453 29.6927 28.296 28.618C29.2467 27.5433 29.97 26.2827 30.466 24.836C30.962 23.3893 31.21 21.86 31.21 20.248C31.21 18.7187 31.0033 17.2513 30.59 15.846C30.1767 14.3993 29.536 13.1387 28.668 12.064C27.8413 10.948 26.7873 10.08 25.506 9.46C24.266 8.79866 22.8193 8.468 21.166 8.468C20.5047 8.468 19.678 8.57133 18.686 8.778C17.694 8.98466 16.9293 9.274 16.392 9.646C15.9373 9.97666 15.6273 10.4313 15.462 11.01C15.338 11.5887 15.2553 12.126 15.214 12.622C15.1313 13.9447 15.0693 15.288 15.028 16.652C15.028 18.016 15.0073 19.4007 14.966 20.806C14.8833 24.154 14.8007 27.4813 14.718 30.788C14.6767 34.0533 14.656 37.36 14.656 40.708C14.656 41.7413 14.656 42.7953 14.656 43.87C14.656 44.9033 14.7387 45.9367 14.904 46.97C15.028 47.6727 15.1933 48.1687 15.4 48.458C15.6067 48.706 16.082 48.83 16.826 48.83C17.7353 48.83 18.5827 48.706 19.368 48.458C20.1947 48.21 20.918 48.086 21.538 48.086C21.9927 48.086 22.22 48.3753 22.22 48.954C22.22 49.2847 22.1373 49.4913 21.972 49.574C21.848 49.6567 21.6827 49.7393 21.476 49.822C21.1453 49.9047 20.794 49.9667 20.422 50.008C20.05 50.008 19.678 50.0493 19.306 50.132C18.6447 50.256 18.004 50.4007 17.384 50.566C16.764 50.69 16.1233 50.8347 15.462 51C14.5527 51.2067 13.664 51.434 12.796 51.682C11.928 51.9713 11.06 52.2813 10.192 52.612C9.90267 52.6947 9.46867 52.8393 8.89 53.046C8.35267 53.294 7.93933 53.418 7.65 53.418C7.278 53.418 7.092 53.232 7.092 52.86C7.092 52.6533 7.154 52.4467 7.278 52.24C7.44333 52.0747 7.588 51.93 7.712 51.806C8.12533 51.31 8.394 50.814 8.518 50.318C8.642 49.7807 8.74533 49.2227 8.828 48.644C8.91067 47.9 8.97267 47.156 9.014 46.412C9.05533 45.668 9.09667 44.924 9.138 44.18C9.262 40.9147 9.40667 37.67 9.572 34.446C9.73733 31.1807 9.84067 27.936 9.882 24.712C9.882 23.1413 9.84067 21.5913 9.758 20.062C9.71667 18.5327 9.65467 16.9827 9.572 15.412C9.572 15.2467 9.572 14.916 9.572 14.42C9.61333 13.8827 9.61333 13.3453 9.572 12.808C9.53067 12.2707 9.448 11.7953 9.324 11.382C9.2 10.9687 8.99333 10.762 8.704 10.762C8.24933 10.762 7.75333 10.8447 7.216 11.01C6.72 11.1753 6.20333 11.3613 5.666 11.568C5.17 11.7747 4.69467 11.9607 4.24 12.126C3.82667 12.2913 3.496 12.374 3.248 12.374C2.91733 12.374 2.752 12.1673 2.752 11.754C2.752 11.2993 2.95867 10.9893 3.372 10.824C4.07467 10.4107 4.83933 10.0387 5.666 9.708C6.534 9.336 7.34 8.98467 8.084 8.654C10.192 7.82733 12.3827 7.166 14.656 6.67C16.9707 6.13266 19.244 5.864 21.476 5.864C22.7987 5.864 24.2453 5.988 25.816 6.236C27.3867 6.44267 28.792 6.81467 30.032 7.352C32.388 8.38533 34.2067 9.93533 35.488 12.002C36.8107 14.0273 37.472 16.342 37.472 18.946Z"/>
<path d="M42.1976 9.15C41.5362 9.15 41.2056 8.86067 41.2056 8.282C41.2056 7.82733 41.4329 7.57933 41.8876 7.538C42.3422 7.45533 42.7349 7.414 43.0656 7.414C44.1402 7.414 45.2149 7.414 46.2896 7.414C47.3642 7.37266 48.4389 7.352 49.5136 7.352C50.5882 7.352 51.6629 7.352 52.7376 7.352C53.8536 7.31066 54.9696 7.29 56.0856 7.29C57.4496 7.29 58.8136 7.26933 60.1776 7.228C61.5416 7.14533 62.9056 7.104 64.2696 7.104C64.3936 7.104 64.6829 7.104 65.1376 7.104C65.6336 7.104 66.1296 7.14533 66.6256 7.228C67.1629 7.26933 67.6382 7.352 68.0516 7.476C68.4649 7.6 68.6716 7.786 68.6716 8.034C68.6716 8.158 68.6096 8.42666 68.4856 8.84C68.4029 9.212 68.2789 9.60467 68.1136 10.018C67.9896 10.4313 67.8242 10.8033 67.6176 11.134C67.4522 11.4233 67.3076 11.568 67.1836 11.568C67.1009 11.568 66.9976 11.5267 66.8736 11.444C66.7909 11.32 66.7082 11.258 66.6256 11.258C66.0882 10.886 65.3442 10.6587 64.3936 10.576C63.4429 10.4933 62.6576 10.452 62.0376 10.452C60.3842 10.452 58.7309 10.4727 57.0776 10.514C55.4656 10.514 53.8329 10.576 52.1796 10.7C51.9316 13.3453 51.7869 15.9907 51.7456 18.636C51.7456 21.2813 51.7249 23.9267 51.6836 26.572C53.2129 26.572 54.7216 26.5307 56.2096 26.448C57.7389 26.3653 59.2682 26.324 60.7976 26.324C61.9962 26.324 63.1949 26.3447 64.3936 26.386C65.6336 26.386 66.8529 26.386 68.0516 26.386C68.2169 26.386 68.3616 26.4067 68.4856 26.448C68.6096 26.448 68.6716 26.5513 68.6716 26.758C68.6716 26.9647 68.5682 27.316 68.3616 27.812C68.1549 28.2667 67.9896 28.5973 67.8656 28.804C67.7416 29.0107 67.5969 29.2173 67.4316 29.424C67.3076 29.6307 67.1009 29.734 66.8116 29.734C65.4889 29.734 64.1869 29.734 62.9056 29.734C61.6242 29.6927 60.3429 29.672 59.0616 29.672C57.8216 29.672 56.5816 29.6927 55.3416 29.734C54.1016 29.7753 52.8616 29.858 51.6216 29.982C51.5389 32.214 51.4769 34.4253 51.4356 36.616C51.3942 38.8067 51.3736 41.018 51.3736 43.25C51.3736 43.9527 51.3736 44.6347 51.3736 45.296C51.3736 45.9573 51.4149 46.6393 51.4976 47.342C53.6056 47.714 55.6929 47.962 57.7596 48.086C59.8676 48.21 61.9756 48.272 64.0836 48.272C65.4062 48.272 66.7082 48.2513 67.9896 48.21C69.3122 48.1687 70.6349 48.0653 71.9576 47.9C72.4949 47.8173 73.0322 47.7347 73.5696 47.652C74.1482 47.528 74.7062 47.466 75.2436 47.466C75.4916 47.466 75.6156 47.59 75.6156 47.838C75.6156 48.0447 75.5122 48.2513 75.3056 48.458C75.1402 48.6233 75.0162 48.768 74.9336 48.892C74.5616 49.264 74.1896 49.5947 73.8176 49.884C73.4869 50.1733 73.0529 50.38 72.5156 50.504C71.9369 50.628 71.3169 50.7313 70.6556 50.814C70.0356 50.8967 69.4362 50.9793 68.8576 51.062C66.2536 51.2687 63.6909 51.3927 61.1696 51.434C58.6482 51.4753 56.0856 51.496 53.4816 51.496C52.2002 51.496 50.9189 51.4547 49.6376 51.372C48.3976 51.3307 47.1369 51.2067 45.8556 51C46.1862 45.916 46.4342 40.894 46.5996 35.934C46.7649 30.9327 46.8476 25.8693 46.8476 20.744C46.8476 20.372 46.8269 19.6693 46.7856 18.636C46.7856 17.5613 46.7649 16.4453 46.7236 15.288C46.7236 14.1307 46.6822 13.056 46.5996 12.064C46.5582 11.072 46.4962 10.4313 46.4136 10.142C46.3309 9.894 46.2069 9.66667 46.0416 9.46C45.9176 9.25333 45.6902 9.15 45.3596 9.15H42.1976Z"/>
<path d="M130.871 15.66C130.871 20.9507 130.706 26.1173 130.375 31.16C130.044 36.2027 129.548 41.328 128.887 46.536C128.804 47.3627 128.722 48.1893 128.639 49.016C128.556 49.8013 128.432 50.6073 128.267 51.434C128.143 52.302 127.606 52.736 126.655 52.736C126.366 52.736 126.138 52.6947 125.973 52.612C125.849 52.5293 125.684 52.426 125.477 52.302C125.064 52.0127 124.609 51.6613 124.113 51.248C123.617 50.8347 123.121 50.4007 122.625 49.946C122.129 49.4913 121.654 49.0367 121.199 48.582C120.744 48.1273 120.331 47.714 119.959 47.342C118.595 46.102 117.272 44.8413 115.991 43.56C114.71 42.2787 113.408 40.9767 112.085 39.654C109.233 36.802 106.443 34.012 103.715 31.284C101.028 28.5147 98.3211 25.6833 95.5931 22.79C95.5105 22.7487 95.2625 22.5007 94.8491 22.046C94.4358 21.55 93.9811 21.0333 93.4851 20.496C92.9891 19.9587 92.5345 19.4627 92.1211 19.008C91.7078 18.5533 91.4805 18.326 91.4391 18.326C91.3151 18.326 91.2531 18.4087 91.2531 18.574C91.0878 19.07 90.9431 19.5867 90.8191 20.124C90.7365 20.62 90.6331 21.0953 90.5091 21.55C89.5998 25.518 88.6078 29.4033 87.5331 33.206C86.4998 37.0087 85.4251 40.8527 84.3091 44.738C83.7305 46.846 83.1311 48.9127 82.5111 50.938C81.8911 52.9633 81.1885 54.9887 80.4031 57.014C80.2791 57.3447 80.0931 57.6547 79.8451 57.944C79.6385 58.2747 79.3491 58.44 78.9771 58.44C78.5638 58.44 78.3571 58.2127 78.3571 57.758C78.3571 57.634 78.4191 57.2827 78.5431 56.704C78.7085 56.1667 78.8738 55.5467 79.0391 54.844C79.2045 54.1827 79.3491 53.5627 79.4731 52.984C79.6385 52.4053 79.7418 52.0127 79.7831 51.806C80.2791 49.698 80.7958 47.652 81.3331 45.668C81.8705 43.6427 82.3665 41.576 82.8211 39.468C83.3998 36.8227 83.9785 34.198 84.5571 31.594C85.1358 28.99 85.6938 26.324 86.2311 23.596L87.8431 14.668C87.1818 13.552 86.4378 12.498 85.6111 11.506C84.8258 10.514 83.9991 9.54267 83.1311 8.592C82.8831 8.344 82.7591 8.13733 82.7591 7.972C82.7591 7.848 82.9038 7.6 83.1931 7.228C83.5238 6.856 83.8751 6.484 84.2471 6.112C84.6191 5.69867 84.9911 5.34733 85.3631 5.058C85.7351 4.72733 85.9831 4.562 86.1071 4.562C86.2725 4.562 86.4791 4.686 86.7271 4.934C86.9751 5.182 87.2231 5.47133 87.4711 5.802C87.7191 6.09133 87.9465 6.38066 88.1531 6.67C88.4011 6.95933 88.5871 7.166 88.7111 7.29C88.9178 7.49666 89.2898 7.6 89.8271 7.6C90.3645 7.55866 90.9018 7.538 91.4391 7.538C92.0178 7.49667 92.5138 7.538 92.9271 7.662C93.3818 7.74466 93.6091 8.01333 93.6091 8.468C93.6091 9.04666 93.5265 9.646 93.3611 10.266C93.1958 10.8447 93.0305 11.4027 92.8651 11.94C93.3198 12.6013 93.8158 13.2213 94.3531 13.8C94.8905 14.3787 95.4485 14.9573 96.0271 15.536C97.5978 17.1893 99.1271 18.8427 100.615 20.496C102.144 22.1493 103.694 23.8027 105.265 25.456C108.613 28.9693 111.94 32.4207 115.247 35.81C118.595 39.158 122.026 42.506 125.539 45.854C125.622 45.9367 125.704 46.04 125.787 46.164C125.911 46.2467 126.014 46.288 126.097 46.288C126.18 46.288 126.242 46.1847 126.283 45.978C126.324 45.73 126.366 45.5027 126.407 45.296C126.655 42.816 126.841 40.3153 126.965 37.794C127.13 35.2727 127.213 32.772 127.213 30.292C127.213 29.3413 127.213 27.936 127.213 26.076C127.213 24.216 127.172 22.294 127.089 20.31C127.048 18.2847 126.944 16.4247 126.779 14.73C126.614 12.994 126.386 11.7747 126.097 11.072C125.849 10.4933 125.456 10.08 124.919 9.832C124.423 9.54267 123.865 9.398 123.245 9.398C122.708 9.398 122.191 9.522 121.695 9.77C121.199 10.018 120.765 10.142 120.393 10.142C120.104 10.142 119.938 9.99733 119.897 9.708C119.856 9.37733 119.835 9.10867 119.835 8.902C119.835 8.57133 119.938 8.36467 120.145 8.282C120.393 8.19933 120.662 8.096 120.951 7.972C121.447 7.80667 122.067 7.6 122.811 7.352C123.555 7.06267 124.32 6.794 125.105 6.546C125.932 6.298 126.717 6.09133 127.461 5.926C128.205 5.71933 128.804 5.616 129.259 5.616C129.714 5.616 129.982 5.71933 130.065 5.926C130.189 6.09133 130.292 6.36 130.375 6.732C130.499 7.352 130.582 8.05466 130.623 8.84C130.706 9.584 130.768 10.3693 130.809 11.196C130.85 11.9813 130.871 12.7667 130.871 13.552C130.871 14.3373 130.871 15.04 130.871 15.66Z"/>
<path d="M187.34 47.094C187.34 47.2593 187.195 47.4453 186.906 47.652C186.658 47.8587 186.348 48.086 185.976 48.334C185.604 48.582 185.19 48.8507 184.736 49.14C184.281 49.388 183.868 49.6567 183.496 49.946C182.71 50.5247 182.07 51 181.574 51.372C181.119 51.7853 180.747 52.116 180.458 52.364C180.168 52.612 179.92 52.798 179.714 52.922C179.548 53.046 179.383 53.108 179.218 53.108C179.094 53.108 178.99 53.0873 178.908 53.046C178.825 53.046 178.722 52.984 178.598 52.86C178.432 52.6947 178.226 52.3433 177.978 51.806C177.73 51.2687 177.482 50.752 177.234 50.256C176.531 48.892 175.932 47.6933 175.436 46.66C174.94 45.5853 174.402 44.4487 173.824 43.25C173.162 41.8447 172.522 40.4393 171.902 39.034C171.323 37.6287 170.744 36.2233 170.166 34.818C169.546 34.7767 168.926 34.756 168.306 34.756C167.686 34.7147 167.066 34.694 166.446 34.694C166.074 34.694 165.33 34.7147 164.214 34.756C163.139 34.756 161.878 34.7973 160.432 34.88C159.026 34.9213 157.538 35.004 155.968 35.128C154.438 35.252 153.033 35.438 151.752 35.686C151.049 35.81 150.326 35.996 149.582 36.244C148.879 36.4507 148.238 36.7813 147.66 37.236C147.412 37.4427 147.122 37.7113 146.792 38.042C146.461 38.3727 146.13 38.7033 145.8 39.034C145.51 39.3647 145.221 39.6953 144.932 40.026C144.684 40.3567 144.498 40.6047 144.374 40.77C143.588 41.886 142.741 43.064 141.832 44.304C140.964 45.5027 140.096 46.6807 139.228 47.838C138.36 48.954 137.554 49.9873 136.81 50.938C136.066 51.8887 135.446 52.6533 134.95 53.232C134.784 53.3973 134.557 53.666 134.268 54.038C133.978 54.41 133.689 54.596 133.4 54.596C132.904 54.596 132.656 54.3687 132.656 53.914C132.656 53.6247 132.759 53.294 132.966 52.922C133.131 52.5913 133.338 52.24 133.586 51.868C133.792 51.5373 134.02 51.2273 134.268 50.938C134.516 50.6073 134.702 50.3387 134.826 50.132C136.066 48.396 137.244 46.66 138.36 44.924C139.517 43.188 140.654 41.452 141.77 39.716C144.622 35.3347 147.391 30.9327 150.078 26.51C152.806 22.0873 155.306 17.4993 157.58 12.746C157.91 12.0847 158.2 11.3613 158.448 10.576C158.737 9.74933 158.923 9.10866 159.006 8.654C159.047 8.44733 159.088 8.24067 159.13 8.034C159.171 7.786 159.233 7.55866 159.316 7.352C159.44 7.02133 159.584 6.81467 159.75 6.732C159.956 6.608 160.225 6.44267 160.556 6.236C160.928 6.02933 161.403 5.802 161.982 5.554C162.56 5.306 163.036 5.182 163.408 5.182C163.656 5.182 163.821 5.22333 163.904 5.306C164.028 5.34733 164.193 5.492 164.4 5.74C164.441 5.82267 164.503 5.988 164.586 6.236C164.71 6.44267 164.813 6.69067 164.896 6.98C165.02 7.26933 165.123 7.55867 165.206 7.848C165.33 8.13733 165.412 8.36467 165.454 8.53C167.024 13.6553 168.76 18.5327 170.662 23.162C171.984 26.51 173.328 29.796 174.692 33.02C176.056 36.244 177.564 39.4267 179.218 42.568C179.466 43.064 179.755 43.56 180.086 44.056C180.416 44.552 180.768 45.0067 181.14 45.42C181.553 45.792 182.008 46.1227 182.504 46.412C183 46.66 183.558 46.784 184.178 46.784C184.798 46.784 185.294 46.7013 185.666 46.536C186.038 46.3293 186.389 46.226 186.72 46.226C186.968 46.226 187.133 46.3293 187.216 46.536C187.298 46.7013 187.34 46.8873 187.34 47.094ZM168.678 31.408C167.355 28.68 166.177 25.89 165.144 23.038C164.152 20.1447 163.222 17.2513 162.354 14.358C162.271 14.0687 162.188 13.7793 162.106 13.49C162.023 13.2007 161.878 12.9527 161.672 12.746C161.589 12.7873 161.527 12.8287 161.486 12.87C161.486 12.9113 161.444 12.9733 161.362 13.056C160.948 13.8827 160.556 14.73 160.184 15.598C159.812 16.466 159.398 17.334 158.944 18.202C157.745 20.558 156.443 22.8313 155.038 25.022C153.632 27.1713 152.227 29.362 150.822 31.594C152.434 31.8007 154.046 31.9453 155.658 32.028C157.27 32.1107 158.861 32.152 160.432 32.152C161.796 32.152 163.18 32.1313 164.586 32.09C165.991 32.0073 167.355 31.78 168.678 31.408Z"/>
<path d="M222.611 47.838C222.611 48.086 222.405 48.458 221.991 48.954C221.578 49.4087 221.268 49.7187 221.061 49.884C220.772 50.0907 220.111 50.2767 219.077 50.442C218.085 50.566 216.887 50.69 215.481 50.814C214.117 50.938 212.629 51.0207 211.017 51.062C209.405 51.1447 207.855 51.2067 206.367 51.248C204.921 51.2893 203.598 51.31 202.399 51.31C201.242 51.3513 200.415 51.372 199.919 51.372C198.845 51.372 197.729 51.3513 196.571 51.31C195.455 51.31 194.36 51.2273 193.285 51.062C193.657 46.722 193.905 42.4027 194.029 38.104C194.112 36.6987 194.174 35.314 194.215 33.95C194.298 32.5447 194.381 31.16 194.463 29.796C194.546 26.944 194.608 24.092 194.649 21.24C194.691 18.388 194.711 15.536 194.711 12.684C194.711 12.436 194.711 11.9813 194.711 11.32C194.753 10.6587 194.732 9.99733 194.649 9.336C194.567 8.63333 194.422 8.01333 194.215 7.476C194.009 6.93867 193.657 6.67 193.161 6.67C192.955 6.67 192.748 6.71133 192.541 6.794C192.335 6.87666 192.128 6.918 191.921 6.918C191.673 6.918 191.508 6.856 191.425 6.732C191.384 6.608 191.363 6.44267 191.363 6.236C191.363 5.988 191.487 5.802 191.735 5.678C191.983 5.51267 192.211 5.38867 192.417 5.306C193.575 4.89266 194.732 4.47933 195.889 4.066C197.088 3.65267 198.225 3.15667 199.299 2.578C199.547 2.454 199.754 2.392 199.919 2.392C200.25 2.392 200.477 2.53667 200.601 2.826C200.725 3.11533 200.787 3.40467 200.787 3.694C200.787 4.02466 200.705 4.562 200.539 5.306C200.415 6.05 200.353 6.64933 200.353 7.104C200.105 10.4107 199.919 13.6967 199.795 16.962C199.671 20.8473 199.568 24.6913 199.485 28.494C199.403 32.2967 199.361 36.1407 199.361 40.026C199.361 42.258 199.423 44.49 199.547 46.722C201.903 47.094 204.073 47.3833 206.057 47.59C208.083 47.7553 210.273 47.838 212.629 47.838C213.911 47.838 215.171 47.7967 216.411 47.714C217.693 47.6313 218.974 47.5487 220.255 47.466C220.586 47.4247 220.896 47.404 221.185 47.404C221.516 47.3627 221.847 47.342 222.177 47.342C222.467 47.342 222.611 47.5073 222.611 47.838Z"/>
<path d="M219.868 7.414C223.092 7.414 226.254 7.43467 229.354 7.476C232.496 7.51733 235.678 7.538 238.902 7.538C242.002 7.538 245.102 7.51733 248.202 7.476C251.344 7.43467 254.485 7.352 257.626 7.228C258.164 7.18667 258.68 7.166 259.176 7.166C259.714 7.166 260.251 7.166 260.788 7.166C261.202 7.166 261.553 7.24867 261.842 7.414C262.132 7.538 262.276 7.82733 262.276 8.282C262.276 8.86067 262.111 9.23267 261.78 9.398C261.491 9.522 261.098 9.62533 260.602 9.708C260.148 9.79067 259.672 9.85266 259.176 9.894C258.68 9.894 258.205 9.91466 257.75 9.956L253.1 10.328C251.86 10.452 250.62 10.5967 249.38 10.762C248.182 10.886 246.983 11.0307 245.784 11.196C245.412 11.2787 245.04 11.32 244.668 11.32C244.296 11.32 243.924 11.32 243.552 11.32C243.387 11.3613 243.242 11.4027 243.118 11.444C243.036 11.4853 242.994 11.6093 242.994 11.816C242.994 12.4773 242.953 13.1387 242.87 13.8C242.829 14.42 242.788 15.04 242.746 15.66C242.664 17.148 242.581 18.636 242.498 20.124C242.416 21.612 242.354 23.1 242.312 24.588C242.23 27.936 242.106 31.284 241.94 34.632C241.816 37.9387 241.754 41.266 241.754 44.614C241.754 45.6473 241.982 46.5153 242.436 47.218C242.891 47.9207 243.676 48.272 244.792 48.272C245.206 48.272 245.598 48.2513 245.97 48.21C246.342 48.1273 246.735 48.086 247.148 48.086C247.314 48.086 247.438 48.1687 247.52 48.334C247.603 48.458 247.644 48.582 247.644 48.706C247.644 49.0367 247.562 49.264 247.396 49.388C247.231 49.512 246.983 49.6153 246.652 49.698C245.454 49.9047 244.255 50.1733 243.056 50.504C241.858 50.8347 240.7 51.2273 239.584 51.682C239.419 51.7647 239.171 51.8887 238.84 52.054C238.51 52.2193 238.158 52.364 237.786 52.488C237.456 52.6533 237.146 52.798 236.856 52.922C236.567 53.046 236.36 53.108 236.236 53.108C235.74 53.108 235.492 52.9013 235.492 52.488C235.492 52.364 235.534 52.1573 235.616 51.868C235.699 51.5787 235.782 51.2687 235.864 50.938C235.947 50.566 236.03 50.194 236.112 49.822C236.236 49.45 236.319 49.1193 236.36 48.83C236.567 46.97 236.67 45.1513 236.67 43.374C236.712 41.5553 236.774 39.716 236.856 37.856C236.98 34.4667 237.042 31.0567 237.042 27.626C237.042 27.378 237.042 26.8613 237.042 26.076C237.042 25.2907 237.022 24.3813 236.98 23.348C236.98 22.3147 236.98 21.24 236.98 20.124C236.98 18.9667 236.96 17.892 236.918 16.9C236.877 15.8667 236.815 14.978 236.732 14.234C236.691 13.49 236.629 13.0147 236.546 12.808C236.464 12.6013 236.381 12.436 236.298 12.312C236.216 12.1467 236.071 12.002 235.864 11.878C235.658 11.754 235.286 11.6507 234.748 11.568C234.252 11.444 233.715 11.3613 233.136 11.32C232.558 11.2787 232 11.258 231.462 11.258C230.925 11.2167 230.512 11.196 230.222 11.196C228.817 11.196 227.391 11.2373 225.944 11.32C224.539 11.3613 223.175 11.568 221.852 11.94C221.026 12.1467 220.385 12.3947 219.93 12.684C219.476 12.932 218.98 13.3867 218.442 14.048C218.36 14.172 218.236 14.3167 218.07 14.482C217.946 14.6473 217.781 14.73 217.574 14.73C217.202 14.73 217.016 14.5027 217.016 14.048C217.016 13.552 217.016 13.18 217.016 12.932C217.016 12.1053 216.996 11.2787 216.954 10.452C216.913 9.584 216.892 8.73667 216.892 7.91C216.892 7.57933 217.016 7.414 217.264 7.414H219.868Z"/>
<path d="M304.387 9.956C304.387 10.4107 304.367 10.8653 304.325 11.32C304.284 11.7747 304.201 12.2087 304.077 12.622C303.871 13.366 303.519 14.11 303.023 14.854C302.527 15.598 302.073 16.3213 301.659 17.024C300.337 19.1733 299.055 21.3227 297.815 23.472C296.617 25.58 295.356 27.75 294.033 29.982C288.247 39.7367 282.708 49.512 277.417 59.308C277.087 59.8867 276.756 60.486 276.425 61.106C276.095 61.726 275.723 62.3253 275.309 62.904C275.103 63.1933 274.896 63.338 274.689 63.338C274.524 63.3793 274.276 63.4 273.945 63.4C273.821 63.4 273.656 63.3793 273.449 63.338C273.243 63.338 273.139 63.2347 273.139 63.028C273.139 62.9867 273.181 62.8213 273.263 62.532C273.387 62.284 273.511 61.9947 273.635 61.664C273.759 61.3747 273.883 61.0853 274.007 60.796C274.173 60.548 274.297 60.362 274.379 60.238C275.578 57.51 276.88 54.8233 278.285 52.178C279.691 49.574 281.055 46.908 282.377 44.18C282.501 43.932 282.646 43.6013 282.811 43.188C283.018 42.7333 283.121 42.3613 283.121 42.072C283.121 41.3693 282.894 40.398 282.439 39.158C281.985 37.918 281.385 36.554 280.641 35.066C279.939 33.5367 279.153 31.9453 278.285 30.292C277.417 28.6387 276.549 27.068 275.681 25.58C274.813 24.0507 274.007 22.6453 273.263 21.364C272.561 20.0827 272.003 19.07 271.589 18.326C271.217 17.6647 270.825 17.024 270.411 16.404C269.998 15.7427 269.585 15.0813 269.171 14.42C268.841 13.8413 268.51 13.2627 268.179 12.684C267.849 12.1053 267.477 11.568 267.063 11.072C266.691 10.576 266.237 10.1627 265.699 9.832C265.162 9.50133 264.583 9.336 263.963 9.336C263.591 9.336 263.219 9.35667 262.847 9.398C262.475 9.43933 262.103 9.46 261.731 9.46C261.194 9.46 260.925 9.17067 260.925 8.592C260.925 8.096 261.153 7.80667 261.607 7.724C262.062 7.64133 262.475 7.57933 262.847 7.538C263.633 7.45533 264.397 7.39333 265.141 7.352C265.927 7.26933 266.712 7.18667 267.497 7.104C268.076 7.02133 268.696 6.918 269.357 6.794C270.06 6.62867 270.68 6.546 271.217 6.546C271.548 6.546 271.775 6.67 271.899 6.918C272.023 7.166 272.147 7.39333 272.271 7.6L273.387 10.018C274.917 13.1593 276.487 16.28 278.099 19.38C279.711 22.48 281.385 25.5387 283.121 28.556C283.493 29.2173 283.865 29.858 284.237 30.478C284.651 31.0567 285.064 31.656 285.477 32.276C285.519 32.3587 285.622 32.524 285.787 32.772C285.953 33.02 286.118 33.2887 286.283 33.578C286.49 33.8673 286.676 34.1153 286.841 34.322C287.007 34.5287 287.11 34.632 287.151 34.632C287.234 34.632 287.337 34.5493 287.461 34.384C287.585 34.1773 287.709 33.95 287.833 33.702C287.957 33.454 288.061 33.2267 288.143 33.02C288.267 32.772 288.35 32.6067 288.391 32.524C290.499 28.5147 292.587 24.5467 294.653 20.62C296.72 16.6933 298.869 12.7253 301.101 8.716C301.184 8.55066 301.308 8.30266 301.473 7.972C301.639 7.6 301.825 7.24867 302.031 6.918C302.279 6.58733 302.527 6.298 302.775 6.05C303.023 5.76066 303.251 5.616 303.457 5.616C303.705 5.616 303.891 5.82266 304.015 6.236C304.139 6.608 304.222 7.042 304.263 7.538C304.346 8.034 304.387 8.53 304.387 9.026C304.387 9.48067 304.387 9.79067 304.387 9.956Z"/>
</mask>
<path d="M37.472 18.946C37.472 21.8807 36.6453 24.526 34.992 26.882C33.38 29.238 31.272 31.0773 28.668 32.4C27.1387 33.1853 25.568 33.702 23.956 33.95C22.344 34.198 20.67 34.322 18.934 34.322C18.562 34.322 18.128 34.3013 17.632 34.26C17.136 34.2187 16.888 33.9293 16.888 33.392C16.888 32.9373 17.012 32.6273 17.26 32.462C17.508 32.2553 17.7973 32.1313 18.128 32.09C18.4587 32.0487 18.81 32.0487 19.182 32.09C19.5953 32.1313 19.9673 32.152 20.298 32.152C21.9927 32.152 23.5013 31.842 24.824 31.222C26.188 30.5607 27.3453 29.6927 28.296 28.618C29.2467 27.5433 29.97 26.2827 30.466 24.836C30.962 23.3893 31.21 21.86 31.21 20.248C31.21 18.7187 31.0033 17.2513 30.59 15.846C30.1767 14.3993 29.536 13.1387 28.668 12.064C27.8413 10.948 26.7873 10.08 25.506 9.46C24.266 8.79866 22.8193 8.468 21.166 8.468C20.5047 8.468 19.678 8.57133 18.686 8.778C17.694 8.98466 16.9293 9.274 16.392 9.646C15.9373 9.97666 15.6273 10.4313 15.462 11.01C15.338 11.5887 15.2553 12.126 15.214 12.622C15.1313 13.9447 15.0693 15.288 15.028 16.652C15.028 18.016 15.0073 19.4007 14.966 20.806C14.8833 24.154 14.8007 27.4813 14.718 30.788C14.6767 34.0533 14.656 37.36 14.656 40.708C14.656 41.7413 14.656 42.7953 14.656 43.87C14.656 44.9033 14.7387 45.9367 14.904 46.97C15.028 47.6727 15.1933 48.1687 15.4 48.458C15.6067 48.706 16.082 48.83 16.826 48.83C17.7353 48.83 18.5827 48.706 19.368 48.458C20.1947 48.21 20.918 48.086 21.538 48.086C21.9927 48.086 22.22 48.3753 22.22 48.954C22.22 49.2847 22.1373 49.4913 21.972 49.574C21.848 49.6567 21.6827 49.7393 21.476 49.822C21.1453 49.9047 20.794 49.9667 20.422 50.008C20.05 50.008 19.678 50.0493 19.306 50.132C18.6447 50.256 18.004 50.4007 17.384 50.566C16.764 50.69 16.1233 50.8347 15.462 51C14.5527 51.2067 13.664 51.434 12.796 51.682C11.928 51.9713 11.06 52.2813 10.192 52.612C9.90267 52.6947 9.46867 52.8393 8.89 53.046C8.35267 53.294 7.93933 53.418 7.65 53.418C7.278 53.418 7.092 53.232 7.092 52.86C7.092 52.6533 7.154 52.4467 7.278 52.24C7.44333 52.0747 7.588 51.93 7.712 51.806C8.12533 51.31 8.394 50.814 8.518 50.318C8.642 49.7807 8.74533 49.2227 8.828 48.644C8.91067 47.9 8.97267 47.156 9.014 46.412C9.05533 45.668 9.09667 44.924 9.138 44.18C9.262 40.9147 9.40667 37.67 9.572 34.446C9.73733 31.1807 9.84067 27.936 9.882 24.712C9.882 23.1413 9.84067 21.5913 9.758 20.062C9.71667 18.5327 9.65467 16.9827 9.572 15.412C9.572 15.2467 9.572 14.916 9.572 14.42C9.61333 13.8827 9.61333 13.3453 9.572 12.808C9.53067 12.2707 9.448 11.7953 9.324 11.382C9.2 10.9687 8.99333 10.762 8.704 10.762C8.24933 10.762 7.75333 10.8447 7.216 11.01C6.72 11.1753 6.20333 11.3613 5.666 11.568C5.17 11.7747 4.69467 11.9607 4.24 12.126C3.82667 12.2913 3.496 12.374 3.248 12.374C2.91733 12.374 2.752 12.1673 2.752 11.754C2.752 11.2993 2.95867 10.9893 3.372 10.824C4.07467 10.4107 4.83933 10.0387 5.666 9.708C6.534 9.336 7.34 8.98467 8.084 8.654C10.192 7.82733 12.3827 7.166 14.656 6.67C16.9707 6.13266 19.244 5.864 21.476 5.864C22.7987 5.864 24.2453 5.988 25.816 6.236C27.3867 6.44267 28.792 6.81467 30.032 7.352C32.388 8.38533 34.2067 9.93533 35.488 12.002C36.8107 14.0273 37.472 16.342 37.472 18.946Z" fill="white"/>
<path d="M42.1976 9.15C41.5362 9.15 41.2056 8.86067 41.2056 8.282C41.2056 7.82733 41.4329 7.57933 41.8876 7.538C42.3422 7.45533 42.7349 7.414 43.0656 7.414C44.1402 7.414 45.2149 7.414 46.2896 7.414C47.3642 7.37266 48.4389 7.352 49.5136 7.352C50.5882 7.352 51.6629 7.352 52.7376 7.352C53.8536 7.31066 54.9696 7.29 56.0856 7.29C57.4496 7.29 58.8136 7.26933 60.1776 7.228C61.5416 7.14533 62.9056 7.104 64.2696 7.104C64.3936 7.104 64.6829 7.104 65.1376 7.104C65.6336 7.104 66.1296 7.14533 66.6256 7.228C67.1629 7.26933 67.6382 7.352 68.0516 7.476C68.4649 7.6 68.6716 7.786 68.6716 8.034C68.6716 8.158 68.6096 8.42666 68.4856 8.84C68.4029 9.212 68.2789 9.60467 68.1136 10.018C67.9896 10.4313 67.8242 10.8033 67.6176 11.134C67.4522 11.4233 67.3076 11.568 67.1836 11.568C67.1009 11.568 66.9976 11.5267 66.8736 11.444C66.7909 11.32 66.7082 11.258 66.6256 11.258C66.0882 10.886 65.3442 10.6587 64.3936 10.576C63.4429 10.4933 62.6576 10.452 62.0376 10.452C60.3842 10.452 58.7309 10.4727 57.0776 10.514C55.4656 10.514 53.8329 10.576 52.1796 10.7C51.9316 13.3453 51.7869 15.9907 51.7456 18.636C51.7456 21.2813 51.7249 23.9267 51.6836 26.572C53.2129 26.572 54.7216 26.5307 56.2096 26.448C57.7389 26.3653 59.2682 26.324 60.7976 26.324C61.9962 26.324 63.1949 26.3447 64.3936 26.386C65.6336 26.386 66.8529 26.386 68.0516 26.386C68.2169 26.386 68.3616 26.4067 68.4856 26.448C68.6096 26.448 68.6716 26.5513 68.6716 26.758C68.6716 26.9647 68.5682 27.316 68.3616 27.812C68.1549 28.2667 67.9896 28.5973 67.8656 28.804C67.7416 29.0107 67.5969 29.2173 67.4316 29.424C67.3076 29.6307 67.1009 29.734 66.8116 29.734C65.4889 29.734 64.1869 29.734 62.9056 29.734C61.6242 29.6927 60.3429 29.672 59.0616 29.672C57.8216 29.672 56.5816 29.6927 55.3416 29.734C54.1016 29.7753 52.8616 29.858 51.6216 29.982C51.5389 32.214 51.4769 34.4253 51.4356 36.616C51.3942 38.8067 51.3736 41.018 51.3736 43.25C51.3736 43.9527 51.3736 44.6347 51.3736 45.296C51.3736 45.9573 51.4149 46.6393 51.4976 47.342C53.6056 47.714 55.6929 47.962 57.7596 48.086C59.8676 48.21 61.9756 48.272 64.0836 48.272C65.4062 48.272 66.7082 48.2513 67.9896 48.21C69.3122 48.1687 70.6349 48.0653 71.9576 47.9C72.4949 47.8173 73.0322 47.7347 73.5696 47.652C74.1482 47.528 74.7062 47.466 75.2436 47.466C75.4916 47.466 75.6156 47.59 75.6156 47.838C75.6156 48.0447 75.5122 48.2513 75.3056 48.458C75.1402 48.6233 75.0162 48.768 74.9336 48.892C74.5616 49.264 74.1896 49.5947 73.8176 49.884C73.4869 50.1733 73.0529 50.38 72.5156 50.504C71.9369 50.628 71.3169 50.7313 70.6556 50.814C70.0356 50.8967 69.4362 50.9793 68.8576 51.062C66.2536 51.2687 63.6909 51.3927 61.1696 51.434C58.6482 51.4753 56.0856 51.496 53.4816 51.496C52.2002 51.496 50.9189 51.4547 49.6376 51.372C48.3976 51.3307 47.1369 51.2067 45.8556 51C46.1862 45.916 46.4342 40.894 46.5996 35.934C46.7649 30.9327 46.8476 25.8693 46.8476 20.744C46.8476 20.372 46.8269 19.6693 46.7856 18.636C46.7856 17.5613 46.7649 16.4453 46.7236 15.288C46.7236 14.1307 46.6822 13.056 46.5996 12.064C46.5582 11.072 46.4962 10.4313 46.4136 10.142C46.3309 9.894 46.2069 9.66667 46.0416 9.46C45.9176 9.25333 45.6902 9.15 45.3596 9.15H42.1976Z" fill="white"/>
<path d="M130.871 15.66C130.871 20.9507 130.706 26.1173 130.375 31.16C130.044 36.2027 129.548 41.328 128.887 46.536C128.804 47.3627 128.722 48.1893 128.639 49.016C128.556 49.8013 128.432 50.6073 128.267 51.434C128.143 52.302 127.606 52.736 126.655 52.736C126.366 52.736 126.138 52.6947 125.973 52.612C125.849 52.5293 125.684 52.426 125.477 52.302C125.064 52.0127 124.609 51.6613 124.113 51.248C123.617 50.8347 123.121 50.4007 122.625 49.946C122.129 49.4913 121.654 49.0367 121.199 48.582C120.744 48.1273 120.331 47.714 119.959 47.342C118.595 46.102 117.272 44.8413 115.991 43.56C114.71 42.2787 113.408 40.9767 112.085 39.654C109.233 36.802 106.443 34.012 103.715 31.284C101.028 28.5147 98.3211 25.6833 95.5931 22.79C95.5105 22.7487 95.2625 22.5007 94.8491 22.046C94.4358 21.55 93.9811 21.0333 93.4851 20.496C92.9891 19.9587 92.5345 19.4627 92.1211 19.008C91.7078 18.5533 91.4805 18.326 91.4391 18.326C91.3151 18.326 91.2531 18.4087 91.2531 18.574C91.0878 19.07 90.9431 19.5867 90.8191 20.124C90.7365 20.62 90.6331 21.0953 90.5091 21.55C89.5998 25.518 88.6078 29.4033 87.5331 33.206C86.4998 37.0087 85.4251 40.8527 84.3091 44.738C83.7305 46.846 83.1311 48.9127 82.5111 50.938C81.8911 52.9633 81.1885 54.9887 80.4031 57.014C80.2791 57.3447 80.0931 57.6547 79.8451 57.944C79.6385 58.2747 79.3491 58.44 78.9771 58.44C78.5638 58.44 78.3571 58.2127 78.3571 57.758C78.3571 57.634 78.4191 57.2827 78.5431 56.704C78.7085 56.1667 78.8738 55.5467 79.0391 54.844C79.2045 54.1827 79.3491 53.5627 79.4731 52.984C79.6385 52.4053 79.7418 52.0127 79.7831 51.806C80.2791 49.698 80.7958 47.652 81.3331 45.668C81.8705 43.6427 82.3665 41.576 82.8211 39.468C83.3998 36.8227 83.9785 34.198 84.5571 31.594C85.1358 28.99 85.6938 26.324 86.2311 23.596L87.8431 14.668C87.1818 13.552 86.4378 12.498 85.6111 11.506C84.8258 10.514 83.9991 9.54267 83.1311 8.592C82.8831 8.344 82.7591 8.13733 82.7591 7.972C82.7591 7.848 82.9038 7.6 83.1931 7.228C83.5238 6.856 83.8751 6.484 84.2471 6.112C84.6191 5.69867 84.9911 5.34733 85.3631 5.058C85.7351 4.72733 85.9831 4.562 86.1071 4.562C86.2725 4.562 86.4791 4.686 86.7271 4.934C86.9751 5.182 87.2231 5.47133 87.4711 5.802C87.7191 6.09133 87.9465 6.38066 88.1531 6.67C88.4011 6.95933 88.5871 7.166 88.7111 7.29C88.9178 7.49666 89.2898 7.6 89.8271 7.6C90.3645 7.55866 90.9018 7.538 91.4391 7.538C92.0178 7.49667 92.5138 7.538 92.9271 7.662C93.3818 7.74466 93.6091 8.01333 93.6091 8.468C93.6091 9.04666 93.5265 9.646 93.3611 10.266C93.1958 10.8447 93.0305 11.4027 92.8651 11.94C93.3198 12.6013 93.8158 13.2213 94.3531 13.8C94.8905 14.3787 95.4485 14.9573 96.0271 15.536C97.5978 17.1893 99.1271 18.8427 100.615 20.496C102.144 22.1493 103.694 23.8027 105.265 25.456C108.613 28.9693 111.94 32.4207 115.247 35.81C118.595 39.158 122.026 42.506 125.539 45.854C125.622 45.9367 125.704 46.04 125.787 46.164C125.911 46.2467 126.014 46.288 126.097 46.288C126.18 46.288 126.242 46.1847 126.283 45.978C126.324 45.73 126.366 45.5027 126.407 45.296C126.655 42.816 126.841 40.3153 126.965 37.794C127.13 35.2727 127.213 32.772 127.213 30.292C127.213 29.3413 127.213 27.936 127.213 26.076C127.213 24.216 127.172 22.294 127.089 20.31C127.048 18.2847 126.944 16.4247 126.779 14.73C126.614 12.994 126.386 11.7747 126.097 11.072C125.849 10.4933 125.456 10.08 124.919 9.832C124.423 9.54267 123.865 9.398 123.245 9.398C122.708 9.398 122.191 9.522 121.695 9.77C121.199 10.018 120.765 10.142 120.393 10.142C120.104 10.142 119.938 9.99733 119.897 9.708C119.856 9.37733 119.835 9.10867 119.835 8.902C119.835 8.57133 119.938 8.36467 120.145 8.282C120.393 8.19933 120.662 8.096 120.951 7.972C121.447 7.80667 122.067 7.6 122.811 7.352C123.555 7.06267 124.32 6.794 125.105 6.546C125.932 6.298 126.717 6.09133 127.461 5.926C128.205 5.71933 128.804 5.616 129.259 5.616C129.714 5.616 129.982 5.71933 130.065 5.926C130.189 6.09133 130.292 6.36 130.375 6.732C130.499 7.352 130.582 8.05466 130.623 8.84C130.706 9.584 130.768 10.3693 130.809 11.196C130.85 11.9813 130.871 12.7667 130.871 13.552C130.871 14.3373 130.871 15.04 130.871 15.66Z" fill="white"/>
<path d="M187.34 47.094C187.34 47.2593 187.195 47.4453 186.906 47.652C186.658 47.8587 186.348 48.086 185.976 48.334C185.604 48.582 185.19 48.8507 184.736 49.14C184.281 49.388 183.868 49.6567 183.496 49.946C182.71 50.5247 182.07 51 181.574 51.372C181.119 51.7853 180.747 52.116 180.458 52.364C180.168 52.612 179.92 52.798 179.714 52.922C179.548 53.046 179.383 53.108 179.218 53.108C179.094 53.108 178.99 53.0873 178.908 53.046C178.825 53.046 178.722 52.984 178.598 52.86C178.432 52.6947 178.226 52.3433 177.978 51.806C177.73 51.2687 177.482 50.752 177.234 50.256C176.531 48.892 175.932 47.6933 175.436 46.66C174.94 45.5853 174.402 44.4487 173.824 43.25C173.162 41.8447 172.522 40.4393 171.902 39.034C171.323 37.6287 170.744 36.2233 170.166 34.818C169.546 34.7767 168.926 34.756 168.306 34.756C167.686 34.7147 167.066 34.694 166.446 34.694C166.074 34.694 165.33 34.7147 164.214 34.756C163.139 34.756 161.878 34.7973 160.432 34.88C159.026 34.9213 157.538 35.004 155.968 35.128C154.438 35.252 153.033 35.438 151.752 35.686C151.049 35.81 150.326 35.996 149.582 36.244C148.879 36.4507 148.238 36.7813 147.66 37.236C147.412 37.4427 147.122 37.7113 146.792 38.042C146.461 38.3727 146.13 38.7033 145.8 39.034C145.51 39.3647 145.221 39.6953 144.932 40.026C144.684 40.3567 144.498 40.6047 144.374 40.77C143.588 41.886 142.741 43.064 141.832 44.304C140.964 45.5027 140.096 46.6807 139.228 47.838C138.36 48.954 137.554 49.9873 136.81 50.938C136.066 51.8887 135.446 52.6533 134.95 53.232C134.784 53.3973 134.557 53.666 134.268 54.038C133.978 54.41 133.689 54.596 133.4 54.596C132.904 54.596 132.656 54.3687 132.656 53.914C132.656 53.6247 132.759 53.294 132.966 52.922C133.131 52.5913 133.338 52.24 133.586 51.868C133.792 51.5373 134.02 51.2273 134.268 50.938C134.516 50.6073 134.702 50.3387 134.826 50.132C136.066 48.396 137.244 46.66 138.36 44.924C139.517 43.188 140.654 41.452 141.77 39.716C144.622 35.3347 147.391 30.9327 150.078 26.51C152.806 22.0873 155.306 17.4993 157.58 12.746C157.91 12.0847 158.2 11.3613 158.448 10.576C158.737 9.74933 158.923 9.10866 159.006 8.654C159.047 8.44733 159.088 8.24067 159.13 8.034C159.171 7.786 159.233 7.55866 159.316 7.352C159.44 7.02133 159.584 6.81467 159.75 6.732C159.956 6.608 160.225 6.44267 160.556 6.236C160.928 6.02933 161.403 5.802 161.982 5.554C162.56 5.306 163.036 5.182 163.408 5.182C163.656 5.182 163.821 5.22333 163.904 5.306C164.028 5.34733 164.193 5.492 164.4 5.74C164.441 5.82267 164.503 5.988 164.586 6.236C164.71 6.44267 164.813 6.69067 164.896 6.98C165.02 7.26933 165.123 7.55867 165.206 7.848C165.33 8.13733 165.412 8.36467 165.454 8.53C167.024 13.6553 168.76 18.5327 170.662 23.162C171.984 26.51 173.328 29.796 174.692 33.02C176.056 36.244 177.564 39.4267 179.218 42.568C179.466 43.064 179.755 43.56 180.086 44.056C180.416 44.552 180.768 45.0067 181.14 45.42C181.553 45.792 182.008 46.1227 182.504 46.412C183 46.66 183.558 46.784 184.178 46.784C184.798 46.784 185.294 46.7013 185.666 46.536C186.038 46.3293 186.389 46.226 186.72 46.226C186.968 46.226 187.133 46.3293 187.216 46.536C187.298 46.7013 187.34 46.8873 187.34 47.094ZM168.678 31.408C167.355 28.68 166.177 25.89 165.144 23.038C164.152 20.1447 163.222 17.2513 162.354 14.358C162.271 14.0687 162.188 13.7793 162.106 13.49C162.023 13.2007 161.878 12.9527 161.672 12.746C161.589 12.7873 161.527 12.8287 161.486 12.87C161.486 12.9113 161.444 12.9733 161.362 13.056C160.948 13.8827 160.556 14.73 160.184 15.598C159.812 16.466 159.398 17.334 158.944 18.202C157.745 20.558 156.443 22.8313 155.038 25.022C153.632 27.1713 152.227 29.362 150.822 31.594C152.434 31.8007 154.046 31.9453 155.658 32.028C157.27 32.1107 158.861 32.152 160.432 32.152C161.796 32.152 163.18 32.1313 164.586 32.09C165.991 32.0073 167.355 31.78 168.678 31.408Z" fill="white"/>
<path d="M222.611 47.838C222.611 48.086 222.405 48.458 221.991 48.954C221.578 49.4087 221.268 49.7187 221.061 49.884C220.772 50.0907 220.111 50.2767 219.077 50.442C218.085 50.566 216.887 50.69 215.481 50.814C214.117 50.938 212.629 51.0207 211.017 51.062C209.405 51.1447 207.855 51.2067 206.367 51.248C204.921 51.2893 203.598 51.31 202.399 51.31C201.242 51.3513 200.415 51.372 199.919 51.372C198.845 51.372 197.729 51.3513 196.571 51.31C195.455 51.31 194.36 51.2273 193.285 51.062C193.657 46.722 193.905 42.4027 194.029 38.104C194.112 36.6987 194.174 35.314 194.215 33.95C194.298 32.5447 194.381 31.16 194.463 29.796C194.546 26.944 194.608 24.092 194.649 21.24C194.691 18.388 194.711 15.536 194.711 12.684C194.711 12.436 194.711 11.9813 194.711 11.32C194.753 10.6587 194.732 9.99733 194.649 9.336C194.567 8.63333 194.422 8.01333 194.215 7.476C194.009 6.93867 193.657 6.67 193.161 6.67C192.955 6.67 192.748 6.71133 192.541 6.794C192.335 6.87666 192.128 6.918 191.921 6.918C191.673 6.918 191.508 6.856 191.425 6.732C191.384 6.608 191.363 6.44267 191.363 6.236C191.363 5.988 191.487 5.802 191.735 5.678C191.983 5.51267 192.211 5.38867 192.417 5.306C193.575 4.89266 194.732 4.47933 195.889 4.066C197.088 3.65267 198.225 3.15667 199.299 2.578C199.547 2.454 199.754 2.392 199.919 2.392C200.25 2.392 200.477 2.53667 200.601 2.826C200.725 3.11533 200.787 3.40467 200.787 3.694C200.787 4.02466 200.705 4.562 200.539 5.306C200.415 6.05 200.353 6.64933 200.353 7.104C200.105 10.4107 199.919 13.6967 199.795 16.962C199.671 20.8473 199.568 24.6913 199.485 28.494C199.403 32.2967 199.361 36.1407 199.361 40.026C199.361 42.258 199.423 44.49 199.547 46.722C201.903 47.094 204.073 47.3833 206.057 47.59C208.083 47.7553 210.273 47.838 212.629 47.838C213.911 47.838 215.171 47.7967 216.411 47.714C217.693 47.6313 218.974 47.5487 220.255 47.466C220.586 47.4247 220.896 47.404 221.185 47.404C221.516 47.3627 221.847 47.342 222.177 47.342C222.467 47.342 222.611 47.5073 222.611 47.838Z" fill="white"/>
<path d="M219.868 7.414C223.092 7.414 226.254 7.43467 229.354 7.476C232.496 7.51733 235.678 7.538 238.902 7.538C242.002 7.538 245.102 7.51733 248.202 7.476C251.344 7.43467 254.485 7.352 257.626 7.228C258.164 7.18667 258.68 7.166 259.176 7.166C259.714 7.166 260.251 7.166 260.788 7.166C261.202 7.166 261.553 7.24867 261.842 7.414C262.132 7.538 262.276 7.82733 262.276 8.282C262.276 8.86067 262.111 9.23267 261.78 9.398C261.491 9.522 261.098 9.62533 260.602 9.708C260.148 9.79067 259.672 9.85266 259.176 9.894C258.68 9.894 258.205 9.91466 257.75 9.956L253.1 10.328C251.86 10.452 250.62 10.5967 249.38 10.762C248.182 10.886 246.983 11.0307 245.784 11.196C245.412 11.2787 245.04 11.32 244.668 11.32C244.296 11.32 243.924 11.32 243.552 11.32C243.387 11.3613 243.242 11.4027 243.118 11.444C243.036 11.4853 242.994 11.6093 242.994 11.816C242.994 12.4773 242.953 13.1387 242.87 13.8C242.829 14.42 242.788 15.04 242.746 15.66C242.664 17.148 242.581 18.636 242.498 20.124C242.416 21.612 242.354 23.1 242.312 24.588C242.23 27.936 242.106 31.284 241.94 34.632C241.816 37.9387 241.754 41.266 241.754 44.614C241.754 45.6473 241.982 46.5153 242.436 47.218C242.891 47.9207 243.676 48.272 244.792 48.272C245.206 48.272 245.598 48.2513 245.97 48.21C246.342 48.1273 246.735 48.086 247.148 48.086C247.314 48.086 247.438 48.1687 247.52 48.334C247.603 48.458 247.644 48.582 247.644 48.706C247.644 49.0367 247.562 49.264 247.396 49.388C247.231 49.512 246.983 49.6153 246.652 49.698C245.454 49.9047 244.255 50.1733 243.056 50.504C241.858 50.8347 240.7 51.2273 239.584 51.682C239.419 51.7647 239.171 51.8887 238.84 52.054C238.51 52.2193 238.158 52.364 237.786 52.488C237.456 52.6533 237.146 52.798 236.856 52.922C236.567 53.046 236.36 53.108 236.236 53.108C235.74 53.108 235.492 52.9013 235.492 52.488C235.492 52.364 235.534 52.1573 235.616 51.868C235.699 51.5787 235.782 51.2687 235.864 50.938C235.947 50.566 236.03 50.194 236.112 49.822C236.236 49.45 236.319 49.1193 236.36 48.83C236.567 46.97 236.67 45.1513 236.67 43.374C236.712 41.5553 236.774 39.716 236.856 37.856C236.98 34.4667 237.042 31.0567 237.042 27.626C237.042 27.378 237.042 26.8613 237.042 26.076C237.042 25.2907 237.022 24.3813 236.98 23.348C236.98 22.3147 236.98 21.24 236.98 20.124C236.98 18.9667 236.96 17.892 236.918 16.9C236.877 15.8667 236.815 14.978 236.732 14.234C236.691 13.49 236.629 13.0147 236.546 12.808C236.464 12.6013 236.381 12.436 236.298 12.312C236.216 12.1467 236.071 12.002 235.864 11.878C235.658 11.754 235.286 11.6507 234.748 11.568C234.252 11.444 233.715 11.3613 233.136 11.32C232.558 11.2787 232 11.258 231.462 11.258C230.925 11.2167 230.512 11.196 230.222 11.196C228.817 11.196 227.391 11.2373 225.944 11.32C224.539 11.3613 223.175 11.568 221.852 11.94C221.026 12.1467 220.385 12.3947 219.93 12.684C219.476 12.932 218.98 13.3867 218.442 14.048C218.36 14.172 218.236 14.3167 218.07 14.482C217.946 14.6473 217.781 14.73 217.574 14.73C217.202 14.73 217.016 14.5027 217.016 14.048C217.016 13.552 217.016 13.18 217.016 12.932C217.016 12.1053 216.996 11.2787 216.954 10.452C216.913 9.584 216.892 8.73667 216.892 7.91C216.892 7.57933 217.016 7.414 217.264 7.414H219.868Z" fill="white"/>
<path d="M304.387 9.956C304.387 10.4107 304.367 10.8653 304.325 11.32C304.284 11.7747 304.201 12.2087 304.077 12.622C303.871 13.366 303.519 14.11 303.023 14.854C302.527 15.598 302.073 16.3213 301.659 17.024C300.337 19.1733 299.055 21.3227 297.815 23.472C296.617 25.58 295.356 27.75 294.033 29.982C288.247 39.7367 282.708 49.512 277.417 59.308C277.087 59.8867 276.756 60.486 276.425 61.106C276.095 61.726 275.723 62.3253 275.309 62.904C275.103 63.1933 274.896 63.338 274.689 63.338C274.524 63.3793 274.276 63.4 273.945 63.4C273.821 63.4 273.656 63.3793 273.449 63.338C273.243 63.338 273.139 63.2347 273.139 63.028C273.139 62.9867 273.181 62.8213 273.263 62.532C273.387 62.284 273.511 61.9947 273.635 61.664C273.759 61.3747 273.883 61.0853 274.007 60.796C274.173 60.548 274.297 60.362 274.379 60.238C275.578 57.51 276.88 54.8233 278.285 52.178C279.691 49.574 281.055 46.908 282.377 44.18C282.501 43.932 282.646 43.6013 282.811 43.188C283.018 42.7333 283.121 42.3613 283.121 42.072C283.121 41.3693 282.894 40.398 282.439 39.158C281.985 37.918 281.385 36.554 280.641 35.066C279.939 33.5367 279.153 31.9453 278.285 30.292C277.417 28.6387 276.549 27.068 275.681 25.58C274.813 24.0507 274.007 22.6453 273.263 21.364C272.561 20.0827 272.003 19.07 271.589 18.326C271.217 17.6647 270.825 17.024 270.411 16.404C269.998 15.7427 269.585 15.0813 269.171 14.42C268.841 13.8413 268.51 13.2627 268.179 12.684C267.849 12.1053 267.477 11.568 267.063 11.072C266.691 10.576 266.237 10.1627 265.699 9.832C265.162 9.50133 264.583 9.336 263.963 9.336C263.591 9.336 263.219 9.35667 262.847 9.398C262.475 9.43933 262.103 9.46 261.731 9.46C261.194 9.46 260.925 9.17067 260.925 8.592C260.925 8.096 261.153 7.80667 261.607 7.724C262.062 7.64133 262.475 7.57933 262.847 7.538C263.633 7.45533 264.397 7.39333 265.141 7.352C265.927 7.26933 266.712 7.18667 267.497 7.104C268.076 7.02133 268.696 6.918 269.357 6.794C270.06 6.62867 270.68 6.546 271.217 6.546C271.548 6.546 271.775 6.67 271.899 6.918C272.023 7.166 272.147 7.39333 272.271 7.6L273.387 10.018C274.917 13.1593 276.487 16.28 278.099 19.38C279.711 22.48 281.385 25.5387 283.121 28.556C283.493 29.2173 283.865 29.858 284.237 30.478C284.651 31.0567 285.064 31.656 285.477 32.276C285.519 32.3587 285.622 32.524 285.787 32.772C285.953 33.02 286.118 33.2887 286.283 33.578C286.49 33.8673 286.676 34.1153 286.841 34.322C287.007 34.5287 287.11 34.632 287.151 34.632C287.234 34.632 287.337 34.5493 287.461 34.384C287.585 34.1773 287.709 33.95 287.833 33.702C287.957 33.454 288.061 33.2267 288.143 33.02C288.267 32.772 288.35 32.6067 288.391 32.524C290.499 28.5147 292.587 24.5467 294.653 20.62C296.72 16.6933 298.869 12.7253 301.101 8.716C301.184 8.55066 301.308 8.30266 301.473 7.972C301.639 7.6 301.825 7.24867 302.031 6.918C302.279 6.58733 302.527 6.298 302.775 6.05C303.023 5.76066 303.251 5.616 303.457 5.616C303.705 5.616 303.891 5.82266 304.015 6.236C304.139 6.608 304.222 7.042 304.263 7.538C304.346 8.034 304.387 8.53 304.387 9.026C304.387 9.48067 304.387 9.79067 304.387 9.956Z" fill="white"/>
<path d="M37.472 18.946C37.472 21.8807 36.6453 24.526 34.992 26.882C33.38 29.238 31.272 31.0773 28.668 32.4C27.1387 33.1853 25.568 33.702 23.956 33.95C22.344 34.198 20.67 34.322 18.934 34.322C18.562 34.322 18.128 34.3013 17.632 34.26C17.136 34.2187 16.888 33.9293 16.888 33.392C16.888 32.9373 17.012 32.6273 17.26 32.462C17.508 32.2553 17.7973 32.1313 18.128 32.09C18.4587 32.0487 18.81 32.0487 19.182 32.09C19.5953 32.1313 19.9673 32.152 20.298 32.152C21.9927 32.152 23.5013 31.842 24.824 31.222C26.188 30.5607 27.3453 29.6927 28.296 28.618C29.2467 27.5433 29.97 26.2827 30.466 24.836C30.962 23.3893 31.21 21.86 31.21 20.248C31.21 18.7187 31.0033 17.2513 30.59 15.846C30.1767 14.3993 29.536 13.1387 28.668 12.064C27.8413 10.948 26.7873 10.08 25.506 9.46C24.266 8.79866 22.8193 8.468 21.166 8.468C20.5047 8.468 19.678 8.57133 18.686 8.778C17.694 8.98466 16.9293 9.274 16.392 9.646C15.9373 9.97666 15.6273 10.4313 15.462 11.01C15.338 11.5887 15.2553 12.126 15.214 12.622C15.1313 13.9447 15.0693 15.288 15.028 16.652C15.028 18.016 15.0073 19.4007 14.966 20.806C14.8833 24.154 14.8007 27.4813 14.718 30.788C14.6767 34.0533 14.656 37.36 14.656 40.708C14.656 41.7413 14.656 42.7953 14.656 43.87C14.656 44.9033 14.7387 45.9367 14.904 46.97C15.028 47.6727 15.1933 48.1687 15.4 48.458C15.6067 48.706 16.082 48.83 16.826 48.83C17.7353 48.83 18.5827 48.706 19.368 48.458C20.1947 48.21 20.918 48.086 21.538 48.086C21.9927 48.086 22.22 48.3753 22.22 48.954C22.22 49.2847 22.1373 49.4913 21.972 49.574C21.848 49.6567 21.6827 49.7393 21.476 49.822C21.1453 49.9047 20.794 49.9667 20.422 50.008C20.05 50.008 19.678 50.0493 19.306 50.132C18.6447 50.256 18.004 50.4007 17.384 50.566C16.764 50.69 16.1233 50.8347 15.462 51C14.5527 51.2067 13.664 51.434 12.796 51.682C11.928 51.9713 11.06 52.2813 10.192 52.612C9.90267 52.6947 9.46867 52.8393 8.89 53.046C8.35267 53.294 7.93933 53.418 7.65 53.418C7.278 53.418 7.092 53.232 7.092 52.86C7.092 52.6533 7.154 52.4467 7.278 52.24C7.44333 52.0747 7.588 51.93 7.712 51.806C8.12533 51.31 8.394 50.814 8.518 50.318C8.642 49.7807 8.74533 49.2227 8.828 48.644C8.91067 47.9 8.97267 47.156 9.014 46.412C9.05533 45.668 9.09667 44.924 9.138 44.18C9.262 40.9147 9.40667 37.67 9.572 34.446C9.73733 31.1807 9.84067 27.936 9.882 24.712C9.882 23.1413 9.84067 21.5913 9.758 20.062C9.71667 18.5327 9.65467 16.9827 9.572 15.412C9.572 15.2467 9.572 14.916 9.572 14.42C9.61333 13.8827 9.61333 13.3453 9.572 12.808C9.53067 12.2707 9.448 11.7953 9.324 11.382C9.2 10.9687 8.99333 10.762 8.704 10.762C8.24933 10.762 7.75333 10.8447 7.216 11.01C6.72 11.1753 6.20333 11.3613 5.666 11.568C5.17 11.7747 4.69467 11.9607 4.24 12.126C3.82667 12.2913 3.496 12.374 3.248 12.374C2.91733 12.374 2.752 12.1673 2.752 11.754C2.752 11.2993 2.95867 10.9893 3.372 10.824C4.07467 10.4107 4.83933 10.0387 5.666 9.708C6.534 9.336 7.34 8.98467 8.084 8.654C10.192 7.82733 12.3827 7.166 14.656 6.67C16.9707 6.13266 19.244 5.864 21.476 5.864C22.7987 5.864 24.2453 5.988 25.816 6.236C27.3867 6.44267 28.792 6.81467 30.032 7.352C32.388 8.38533 34.2067 9.93533 35.488 12.002C36.8107 14.0273 37.472 16.342 37.472 18.946Z" stroke="white" stroke-width="4" mask="url(#path-1-outside-1_2_8)"/>
<path d="M42.1976 9.15C41.5362 9.15 41.2056 8.86067 41.2056 8.282C41.2056 7.82733 41.4329 7.57933 41.8876 7.538C42.3422 7.45533 42.7349 7.414 43.0656 7.414C44.1402 7.414 45.2149 7.414 46.2896 7.414C47.3642 7.37266 48.4389 7.352 49.5136 7.352C50.5882 7.352 51.6629 7.352 52.7376 7.352C53.8536 7.31066 54.9696 7.29 56.0856 7.29C57.4496 7.29 58.8136 7.26933 60.1776 7.228C61.5416 7.14533 62.9056 7.104 64.2696 7.104C64.3936 7.104 64.6829 7.104 65.1376 7.104C65.6336 7.104 66.1296 7.14533 66.6256 7.228C67.1629 7.26933 67.6382 7.352 68.0516 7.476C68.4649 7.6 68.6716 7.786 68.6716 8.034C68.6716 8.158 68.6096 8.42666 68.4856 8.84C68.4029 9.212 68.2789 9.60467 68.1136 10.018C67.9896 10.4313 67.8242 10.8033 67.6176 11.134C67.4522 11.4233 67.3076 11.568 67.1836 11.568C67.1009 11.568 66.9976 11.5267 66.8736 11.444C66.7909 11.32 66.7082 11.258 66.6256 11.258C66.0882 10.886 65.3442 10.6587 64.3936 10.576C63.4429 10.4933 62.6576 10.452 62.0376 10.452C60.3842 10.452 58.7309 10.4727 57.0776 10.514C55.4656 10.514 53.8329 10.576 52.1796 10.7C51.9316 13.3453 51.7869 15.9907 51.7456 18.636C51.7456 21.2813 51.7249 23.9267 51.6836 26.572C53.2129 26.572 54.7216 26.5307 56.2096 26.448C57.7389 26.3653 59.2682 26.324 60.7976 26.324C61.9962 26.324 63.1949 26.3447 64.3936 26.386C65.6336 26.386 66.8529 26.386 68.0516 26.386C68.2169 26.386 68.3616 26.4067 68.4856 26.448C68.6096 26.448 68.6716 26.5513 68.6716 26.758C68.6716 26.9647 68.5682 27.316 68.3616 27.812C68.1549 28.2667 67.9896 28.5973 67.8656 28.804C67.7416 29.0107 67.5969 29.2173 67.4316 29.424C67.3076 29.6307 67.1009 29.734 66.8116 29.734C65.4889 29.734 64.1869 29.734 62.9056 29.734C61.6242 29.6927 60.3429 29.672 59.0616 29.672C57.8216 29.672 56.5816 29.6927 55.3416 29.734C54.1016 29.7753 52.8616 29.858 51.6216 29.982C51.5389 32.214 51.4769 34.4253 51.4356 36.616C51.3942 38.8067 51.3736 41.018 51.3736 43.25C51.3736 43.9527 51.3736 44.6347 51.3736 45.296C51.3736 45.9573 51.4149 46.6393 51.4976 47.342C53.6056 47.714 55.6929 47.962 57.7596 48.086C59.8676 48.21 61.9756 48.272 64.0836 48.272C65.4062 48.272 66.7082 48.2513 67.9896 48.21C69.3122 48.1687 70.6349 48.0653 71.9576 47.9C72.4949 47.8173 73.0322 47.7347 73.5696 47.652C74.1482 47.528 74.7062 47.466 75.2436 47.466C75.4916 47.466 75.6156 47.59 75.6156 47.838C75.6156 48.0447 75.5122 48.2513 75.3056 48.458C75.1402 48.6233 75.0162 48.768 74.9336 48.892C74.5616 49.264 74.1896 49.5947 73.8176 49.884C73.4869 50.1733 73.0529 50.38 72.5156 50.504C71.9369 50.628 71.3169 50.7313 70.6556 50.814C70.0356 50.8967 69.4362 50.9793 68.8576 51.062C66.2536 51.2687 63.6909 51.3927 61.1696 51.434C58.6482 51.4753 56.0856 51.496 53.4816 51.496C52.2002 51.496 50.9189 51.4547 49.6376 51.372C48.3976 51.3307 47.1369 51.2067 45.8556 51C46.1862 45.916 46.4342 40.894 46.5996 35.934C46.7649 30.9327 46.8476 25.8693 46.8476 20.744C46.8476 20.372 46.8269 19.6693 46.7856 18.636C46.7856 17.5613 46.7649 16.4453 46.7236 15.288C46.7236 14.1307 46.6822 13.056 46.5996 12.064C46.5582 11.072 46.4962 10.4313 46.4136 10.142C46.3309 9.894 46.2069 9.66667 46.0416 9.46C45.9176 9.25333 45.6902 9.15 45.3596 9.15H42.1976Z" stroke="white" stroke-width="4" mask="url(#path-1-outside-1_2_8)"/>
<path d="M130.871 15.66C130.871 20.9507 130.706 26.1173 130.375 31.16C130.044 36.2027 129.548 41.328 128.887 46.536C128.804 47.3627 128.722 48.1893 128.639 49.016C128.556 49.8013 128.432 50.6073 128.267 51.434C128.143 52.302 127.606 52.736 126.655 52.736C126.366 52.736 126.138 52.6947 125.973 52.612C125.849 52.5293 125.684 52.426 125.477 52.302C125.064 52.0127 124.609 51.6613 124.113 51.248C123.617 50.8347 123.121 50.4007 122.625 49.946C122.129 49.4913 121.654 49.0367 121.199 48.582C120.744 48.1273 120.331 47.714 119.959 47.342C118.595 46.102 117.272 44.8413 115.991 43.56C114.71 42.2787 113.408 40.9767 112.085 39.654C109.233 36.802 106.443 34.012 103.715 31.284C101.028 28.5147 98.3211 25.6833 95.5931 22.79C95.5105 22.7487 95.2625 22.5007 94.8491 22.046C94.4358 21.55 93.9811 21.0333 93.4851 20.496C92.9891 19.9587 92.5345 19.4627 92.1211 19.008C91.7078 18.5533 91.4805 18.326 91.4391 18.326C91.3151 18.326 91.2531 18.4087 91.2531 18.574C91.0878 19.07 90.9431 19.5867 90.8191 20.124C90.7365 20.62 90.6331 21.0953 90.5091 21.55C89.5998 25.518 88.6078 29.4033 87.5331 33.206C86.4998 37.0087 85.4251 40.8527 84.3091 44.738C83.7305 46.846 83.1311 48.9127 82.5111 50.938C81.8911 52.9633 81.1885 54.9887 80.4031 57.014C80.2791 57.3447 80.0931 57.6547 79.8451 57.944C79.6385 58.2747 79.3491 58.44 78.9771 58.44C78.5638 58.44 78.3571 58.2127 78.3571 57.758C78.3571 57.634 78.4191 57.2827 78.5431 56.704C78.7085 56.1667 78.8738 55.5467 79.0391 54.844C79.2045 54.1827 79.3491 53.5627 79.4731 52.984C79.6385 52.4053 79.7418 52.0127 79.7831 51.806C80.2791 49.698 80.7958 47.652 81.3331 45.668C81.8705 43.6427 82.3665 41.576 82.8211 39.468C83.3998 36.8227 83.9785 34.198 84.5571 31.594C85.1358 28.99 85.6938 26.324 86.2311 23.596L87.8431 14.668C87.1818 13.552 86.4378 12.498 85.6111 11.506C84.8258 10.514 83.9991 9.54267 83.1311 8.592C82.8831 8.344 82.7591 8.13733 82.7591 7.972C82.7591 7.848 82.9038 7.6 83.1931 7.228C83.5238 6.856 83.8751 6.484 84.2471 6.112C84.6191 5.69867 84.9911 5.34733 85.3631 5.058C85.7351 4.72733 85.9831 4.562 86.1071 4.562C86.2725 4.562 86.4791 4.686 86.7271 4.934C86.9751 5.182 87.2231 5.47133 87.4711 5.802C87.7191 6.09133 87.9465 6.38066 88.1531 6.67C88.4011 6.95933 88.5871 7.166 88.7111 7.29C88.9178 7.49666 89.2898 7.6 89.8271 7.6C90.3645 7.55866 90.9018 7.538 91.4391 7.538C92.0178 7.49667 92.5138 7.538 92.9271 7.662C93.3818 7.74466 93.6091 8.01333 93.6091 8.468C93.6091 9.04666 93.5265 9.646 93.3611 10.266C93.1958 10.8447 93.0305 11.4027 92.8651 11.94C93.3198 12.6013 93.8158 13.2213 94.3531 13.8C94.8905 14.3787 95.4485 14.9573 96.0271 15.536C97.5978 17.1893 99.1271 18.8427 100.615 20.496C102.144 22.1493 103.694 23.8027 105.265 25.456C108.613 28.9693 111.94 32.4207 115.247 35.81C118.595 39.158 122.026 42.506 125.539 45.854C125.622 45.9367 125.704 46.04 125.787 46.164C125.911 46.2467 126.014 46.288 126.097 46.288C126.18 46.288 126.242 46.1847 126.283 45.978C126.324 45.73 126.366 45.5027 126.407 45.296C126.655 42.816 126.841 40.3153 126.965 37.794C127.13 35.2727 127.213 32.772 127.213 30.292C127.213 29.3413 127.213 27.936 127.213 26.076C127.213 24.216 127.172 22.294 127.089 20.31C127.048 18.2847 126.944 16.4247 126.779 14.73C126.614 12.994 126.386 11.7747 126.097 11.072C125.849 10.4933 125.456 10.08 124.919 9.832C124.423 9.54267 123.865 9.398 123.245 9.398C122.708 9.398 122.191 9.522 121.695 9.77C121.199 10.018 120.765 10.142 120.393 10.142C120.104 10.142 119.938 9.99733 119.897 9.708C119.856 9.37733 119.835 9.10867 119.835 8.902C119.835 8.57133 119.938 8.36467 120.145 8.282C120.393 8.19933 120.662 8.096 120.951 7.972C121.447 7.80667 122.067 7.6 122.811 7.352C123.555 7.06267 124.32 6.794 125.105 6.546C125.932 6.298 126.717 6.09133 127.461 5.926C128.205 5.71933 128.804 5.616 129.259 5.616C129.714 5.616 129.982 5.71933 130.065 5.926C130.189 6.09133 130.292 6.36 130.375 6.732C130.499 7.352 130.582 8.05466 130.623 8.84C130.706 9.584 130.768 10.3693 130.809 11.196C130.85 11.9813 130.871 12.7667 130.871 13.552C130.871 14.3373 130.871 15.04 130.871 15.66Z" stroke="white" stroke-width="4" mask="url(#path-1-outside-1_2_8)"/>
<path d="M187.34 47.094C187.34 47.2593 187.195 47.4453 186.906 47.652C186.658 47.8587 186.348 48.086 185.976 48.334C185.604 48.582 185.19 48.8507 184.736 49.14C184.281 49.388 183.868 49.6567 183.496 49.946C182.71 50.5247 182.07 51 181.574 51.372C181.119 51.7853 180.747 52.116 180.458 52.364C180.168 52.612 179.92 52.798 179.714 52.922C179.548 53.046 179.383 53.108 179.218 53.108C179.094 53.108 178.99 53.0873 178.908 53.046C178.825 53.046 178.722 52.984 178.598 52.86C178.432 52.6947 178.226 52.3433 177.978 51.806C177.73 51.2687 177.482 50.752 177.234 50.256C176.531 48.892 175.932 47.6933 175.436 46.66C174.94 45.5853 174.402 44.4487 173.824 43.25C173.162 41.8447 172.522 40.4393 171.902 39.034C171.323 37.6287 170.744 36.2233 170.166 34.818C169.546 34.7767 168.926 34.756 168.306 34.756C167.686 34.7147 167.066 34.694 166.446 34.694C166.074 34.694 165.33 34.7147 164.214 34.756C163.139 34.756 161.878 34.7973 160.432 34.88C159.026 34.9213 157.538 35.004 155.968 35.128C154.438 35.252 153.033 35.438 151.752 35.686C151.049 35.81 150.326 35.996 149.582 36.244C148.879 36.4507 148.238 36.7813 147.66 37.236C147.412 37.4427 147.122 37.7113 146.792 38.042C146.461 38.3727 146.13 38.7033 145.8 39.034C145.51 39.3647 145.221 39.6953 144.932 40.026C144.684 40.3567 144.498 40.6047 144.374 40.77C143.588 41.886 142.741 43.064 141.832 44.304C140.964 45.5027 140.096 46.6807 139.228 47.838C138.36 48.954 137.554 49.9873 136.81 50.938C136.066 51.8887 135.446 52.6533 134.95 53.232C134.784 53.3973 134.557 53.666 134.268 54.038C133.978 54.41 133.689 54.596 133.4 54.596C132.904 54.596 132.656 54.3687 132.656 53.914C132.656 53.6247 132.759 53.294 132.966 52.922C133.131 52.5913 133.338 52.24 133.586 51.868C133.792 51.5373 134.02 51.2273 134.268 50.938C134.516 50.6073 134.702 50.3387 134.826 50.132C136.066 48.396 137.244 46.66 138.36 44.924C139.517 43.188 140.654 41.452 141.77 39.716C144.622 35.3347 147.391 30.9327 150.078 26.51C152.806 22.0873 155.306 17.4993 157.58 12.746C157.91 12.0847 158.2 11.3613 158.448 10.576C158.737 9.74933 158.923 9.10866 159.006 8.654C159.047 8.44733 159.088 8.24067 159.13 8.034C159.171 7.786 159.233 7.55866 159.316 7.352C159.44 7.02133 159.584 6.81467 159.75 6.732C159.956 6.608 160.225 6.44267 160.556 6.236C160.928 6.02933 161.403 5.802 161.982 5.554C162.56 5.306 163.036 5.182 163.408 5.182C163.656 5.182 163.821 5.22333 163.904 5.306C164.028 5.34733 164.193 5.492 164.4 5.74C164.441 5.82267 164.503 5.988 164.586 6.236C164.71 6.44267 164.813 6.69067 164.896 6.98C165.02 7.26933 165.123 7.55867 165.206 7.848C165.33 8.13733 165.412 8.36467 165.454 8.53C167.024 13.6553 168.76 18.5327 170.662 23.162C171.984 26.51 173.328 29.796 174.692 33.02C176.056 36.244 177.564 39.4267 179.218 42.568C179.466 43.064 179.755 43.56 180.086 44.056C180.416 44.552 180.768 45.0067 181.14 45.42C181.553 45.792 182.008 46.1227 182.504 46.412C183 46.66 183.558 46.784 184.178 46.784C184.798 46.784 185.294 46.7013 185.666 46.536C186.038 46.3293 186.389 46.226 186.72 46.226C186.968 46.226 187.133 46.3293 187.216 46.536C187.298 46.7013 187.34 46.8873 187.34 47.094ZM168.678 31.408C167.355 28.68 166.177 25.89 165.144 23.038C164.152 20.1447 163.222 17.2513 162.354 14.358C162.271 14.0687 162.188 13.7793 162.106 13.49C162.023 13.2007 161.878 12.9527 161.672 12.746C161.589 12.7873 161.527 12.8287 161.486 12.87C161.486 12.9113 161.444 12.9733 161.362 13.056C160.948 13.8827 160.556 14.73 160.184 15.598C159.812 16.466 159.398 17.334 158.944 18.202C157.745 20.558 156.443 22.8313 155.038 25.022C153.632 27.1713 152.227 29.362 150.822 31.594C152.434 31.8007 154.046 31.9453 155.658 32.028C157.27 32.1107 158.861 32.152 160.432 32.152C161.796 32.152 163.18 32.1313 164.586 32.09C165.991 32.0073 167.355 31.78 168.678 31.408Z" stroke="white" stroke-width="4" mask="url(#path-1-outside-1_2_8)"/>
<path d="M222.611 47.838C222.611 48.086 222.405 48.458 221.991 48.954C221.578 49.4087 221.268 49.7187 221.061 49.884C220.772 50.0907 220.111 50.2767 219.077 50.442C218.085 50.566 216.887 50.69 215.481 50.814C214.117 50.938 212.629 51.0207 211.017 51.062C209.405 51.1447 207.855 51.2067 206.367 51.248C204.921 51.2893 203.598 51.31 202.399 51.31C201.242 51.3513 200.415 51.372 199.919 51.372C198.845 51.372 197.729 51.3513 196.571 51.31C195.455 51.31 194.36 51.2273 193.285 51.062C193.657 46.722 193.905 42.4027 194.029 38.104C194.112 36.6987 194.174 35.314 194.215 33.95C194.298 32.5447 194.381 31.16 194.463 29.796C194.546 26.944 194.608 24.092 194.649 21.24C194.691 18.388 194.711 15.536 194.711 12.684C194.711 12.436 194.711 11.9813 194.711 11.32C194.753 10.6587 194.732 9.99733 194.649 9.336C194.567 8.63333 194.422 8.01333 194.215 7.476C194.009 6.93867 193.657 6.67 193.161 6.67C192.955 6.67 192.748 6.71133 192.541 6.794C192.335 6.87666 192.128 6.918 191.921 6.918C191.673 6.918 191.508 6.856 191.425 6.732C191.384 6.608 191.363 6.44267 191.363 6.236C191.363 5.988 191.487 5.802 191.735 5.678C191.983 5.51267 192.211 5.38867 192.417 5.306C193.575 4.89266 194.732 4.47933 195.889 4.066C197.088 3.65267 198.225 3.15667 199.299 2.578C199.547 2.454 199.754 2.392 199.919 2.392C200.25 2.392 200.477 2.53667 200.601 2.826C200.725 3.11533 200.787 3.40467 200.787 3.694C200.787 4.02466 200.705 4.562 200.539 5.306C200.415 6.05 200.353 6.64933 200.353 7.104C200.105 10.4107 199.919 13.6967 199.795 16.962C199.671 20.8473 199.568 24.6913 199.485 28.494C199.403 32.2967 199.361 36.1407 199.361 40.026C199.361 42.258 199.423 44.49 199.547 46.722C201.903 47.094 204.073 47.3833 206.057 47.59C208.083 47.7553 210.273 47.838 212.629 47.838C213.911 47.838 215.171 47.7967 216.411 47.714C217.693 47.6313 218.974 47.5487 220.255 47.466C220.586 47.4247 220.896 47.404 221.185 47.404C221.516 47.3627 221.847 47.342 222.177 47.342C222.467 47.342 222.611 47.5073 222.611 47.838Z" stroke="white" stroke-width="4" mask="url(#path-1-outside-1_2_8)"/>
<path d="M219.868 7.414C223.092 7.414 226.254 7.43467 229.354 7.476C232.496 7.51733 235.678 7.538 238.902 7.538C242.002 7.538 245.102 7.51733 248.202 7.476C251.344 7.43467 254.485 7.352 257.626 7.228C258.164 7.18667 258.68 7.166 259.176 7.166C259.714 7.166 260.251 7.166 260.788 7.166C261.202 7.166 261.553 7.24867 261.842 7.414C262.132 7.538 262.276 7.82733 262.276 8.282C262.276 8.86067 262.111 9.23267 261.78 9.398C261.491 9.522 261.098 9.62533 260.602 9.708C260.148 9.79067 259.672 9.85266 259.176 9.894C258.68 9.894 258.205 9.91466 257.75 9.956L253.1 10.328C251.86 10.452 250.62 10.5967 249.38 10.762C248.182 10.886 246.983 11.0307 245.784 11.196C245.412 11.2787 245.04 11.32 244.668 11.32C244.296 11.32 243.924 11.32 243.552 11.32C243.387 11.3613 243.242 11.4027 243.118 11.444C243.036 11.4853 242.994 11.6093 242.994 11.816C242.994 12.4773 242.953 13.1387 242.87 13.8C242.829 14.42 242.788 15.04 242.746 15.66C242.664 17.148 242.581 18.636 242.498 20.124C242.416 21.612 242.354 23.1 242.312 24.588C242.23 27.936 242.106 31.284 241.94 34.632C241.816 37.9387 241.754 41.266 241.754 44.614C241.754 45.6473 241.982 46.5153 242.436 47.218C242.891 47.9207 243.676 48.272 244.792 48.272C245.206 48.272 245.598 48.2513 245.97 48.21C246.342 48.1273 246.735 48.086 247.148 48.086C247.314 48.086 247.438 48.1687 247.52 48.334C247.603 48.458 247.644 48.582 247.644 48.706C247.644 49.0367 247.562 49.264 247.396 49.388C247.231 49.512 246.983 49.6153 246.652 49.698C245.454 49.9047 244.255 50.1733 243.056 50.504C241.858 50.8347 240.7 51.2273 239.584 51.682C239.419 51.7647 239.171 51.8887 238.84 52.054C238.51 52.2193 238.158 52.364 237.786 52.488C237.456 52.6533 237.146 52.798 236.856 52.922C236.567 53.046 236.36 53.108 236.236 53.108C235.74 53.108 235.492 52.9013 235.492 52.488C235.492 52.364 235.534 52.1573 235.616 51.868C235.699 51.5787 235.782 51.2687 235.864 50.938C235.947 50.566 236.03 50.194 236.112 49.822C236.236 49.45 236.319 49.1193 236.36 48.83C236.567 46.97 236.67 45.1513 236.67 43.374C236.712 41.5553 236.774 39.716 236.856 37.856C236.98 34.4667 237.042 31.0567 237.042 27.626C237.042 27.378 237.042 26.8613 237.042 26.076C237.042 25.2907 237.022 24.3813 236.98 23.348C236.98 22.3147 236.98 21.24 236.98 20.124C236.98 18.9667 236.96 17.892 236.918 16.9C236.877 15.8667 236.815 14.978 236.732 14.234C236.691 13.49 236.629 13.0147 236.546 12.808C236.464 12.6013 236.381 12.436 236.298 12.312C236.216 12.1467 236.071 12.002 235.864 11.878C235.658 11.754 235.286 11.6507 234.748 11.568C234.252 11.444 233.715 11.3613 233.136 11.32C232.558 11.2787 232 11.258 231.462 11.258C230.925 11.2167 230.512 11.196 230.222 11.196C228.817 11.196 227.391 11.2373 225.944 11.32C224.539 11.3613 223.175 11.568 221.852 11.94C221.026 12.1467 220.385 12.3947 219.93 12.684C219.476 12.932 218.98 13.3867 218.442 14.048C218.36 14.172 218.236 14.3167 218.07 14.482C217.946 14.6473 217.781 14.73 217.574 14.73C217.202 14.73 217.016 14.5027 217.016 14.048C217.016 13.552 217.016 13.18 217.016 12.932C217.016 12.1053 216.996 11.2787 216.954 10.452C216.913 9.584 216.892 8.73667 216.892 7.91C216.892 7.57933 217.016 7.414 217.264 7.414H219.868Z" stroke="white" stroke-width="4" mask="url(#path-1-outside-1_2_8)"/>
<path d="M304.387 9.956C304.387 10.4107 304.367 10.8653 304.325 11.32C304.284 11.7747 304.201 12.2087 304.077 12.622C303.871 13.366 303.519 14.11 303.023 14.854C302.527 15.598 302.073 16.3213 301.659 17.024C300.337 19.1733 299.055 21.3227 297.815 23.472C296.617 25.58 295.356 27.75 294.033 29.982C288.247 39.7367 282.708 49.512 277.417 59.308C277.087 59.8867 276.756 60.486 276.425 61.106C276.095 61.726 275.723 62.3253 275.309 62.904C275.103 63.1933 274.896 63.338 274.689 63.338C274.524 63.3793 274.276 63.4 273.945 63.4C273.821 63.4 273.656 63.3793 273.449 63.338C273.243 63.338 273.139 63.2347 273.139 63.028C273.139 62.9867 273.181 62.8213 273.263 62.532C273.387 62.284 273.511 61.9947 273.635 61.664C273.759 61.3747 273.883 61.0853 274.007 60.796C274.173 60.548 274.297 60.362 274.379 60.238C275.578 57.51 276.88 54.8233 278.285 52.178C279.691 49.574 281.055 46.908 282.377 44.18C282.501 43.932 282.646 43.6013 282.811 43.188C283.018 42.7333 283.121 42.3613 283.121 42.072C283.121 41.3693 282.894 40.398 282.439 39.158C281.985 37.918 281.385 36.554 280.641 35.066C279.939 33.5367 279.153 31.9453 278.285 30.292C277.417 28.6387 276.549 27.068 275.681 25.58C274.813 24.0507 274.007 22.6453 273.263 21.364C272.561 20.0827 272.003 19.07 271.589 18.326C271.217 17.6647 270.825 17.024 270.411 16.404C269.998 15.7427 269.585 15.0813 269.171 14.42C268.841 13.8413 268.51 13.2627 268.179 12.684C267.849 12.1053 267.477 11.568 267.063 11.072C266.691 10.576 266.237 10.1627 265.699 9.832C265.162 9.50133 264.583 9.336 263.963 9.336C263.591 9.336 263.219 9.35667 262.847 9.398C262.475 9.43933 262.103 9.46 261.731 9.46C261.194 9.46 260.925 9.17067 260.925 8.592C260.925 8.096 261.153 7.80667 261.607 7.724C262.062 7.64133 262.475 7.57933 262.847 7.538C263.633 7.45533 264.397 7.39333 265.141 7.352C265.927 7.26933 266.712 7.18667 267.497 7.104C268.076 7.02133 268.696 6.918 269.357 6.794C270.06 6.62867 270.68 6.546 271.217 6.546C271.548 6.546 271.775 6.67 271.899 6.918C272.023 7.166 272.147 7.39333 272.271 7.6L273.387 10.018C274.917 13.1593 276.487 16.28 278.099 19.38C279.711 22.48 281.385 25.5387 283.121 28.556C283.493 29.2173 283.865 29.858 284.237 30.478C284.651 31.0567 285.064 31.656 285.477 32.276C285.519 32.3587 285.622 32.524 285.787 32.772C285.953 33.02 286.118 33.2887 286.283 33.578C286.49 33.8673 286.676 34.1153 286.841 34.322C287.007 34.5287 287.11 34.632 287.151 34.632C287.234 34.632 287.337 34.5493 287.461 34.384C287.585 34.1773 287.709 33.95 287.833 33.702C287.957 33.454 288.061 33.2267 288.143 33.02C288.267 32.772 288.35 32.6067 288.391 32.524C290.499 28.5147 292.587 24.5467 294.653 20.62C296.72 16.6933 298.869 12.7253 301.101 8.716C301.184 8.55066 301.308 8.30266 301.473 7.972C301.639 7.6 301.825 7.24867 302.031 6.918C302.279 6.58733 302.527 6.298 302.775 6.05C303.023 5.76066 303.251 5.616 303.457 5.616C303.705 5.616 303.891 5.82266 304.015 6.236C304.139 6.608 304.222 7.042 304.263 7.538C304.346 8.034 304.387 8.53 304.387 9.026C304.387 9.48067 304.387 9.79067 304.387 9.956Z" stroke="white" stroke-width="4" mask="url(#path-1-outside-1_2_8)"/>
</svg>
