<svg width="395" height="528" viewBox="0 0 395 528" fill="none" xmlns="http://www.w3.org/2000/svg">
<path d="M394.236 277.86C394.236 305.118 390.178 332.381 380.44 360.237C370.719 388.057 355.338 416.434 332.695 445.93H332.692C329.159 450.576 324.776 455.51 319.74 460.549C314.689 465.606 308.994 470.768 302.85 475.865C271.133 502.185 226.942 527.24 197.326 527.24H197.325V527.234C186.95 527.234 174.809 524.187 162.052 519.101C155.818 516.617 149.478 513.669 143.157 510.376C110.516 493.36 77.261 466.612 61.539 445.923C39.101 416.421 23.723 388.044 13.952 360.235C4.165 332.388 0 305.118 0 277.86V0H394.19L394.231 277.86H394.236Z" fill="#013765"/>
<path d="M376.875 358.995C386.452 331.591 390.448 304.731 390.448 277.86H390.454L390.416 3.79H3.79V277.86C3.79 304.731 7.887 331.585 17.519 358.995C27.164 386.446 42.36 414.477 64.543 443.645C79.96 463.936 112.698 490.227 144.903 507.014C151.192 510.295 157.417 513.196 163.442 515.592C175.783 520.514 187.454 523.461 197.325 523.461V523.455H197.326C226.019 523.455 269.259 498.822 300.436 472.953C306.524 467.902 312.131 462.822 317.062 457.889C322.001 452.944 326.276 448.139 329.683 443.657H329.68L329.683 443.651L329.689 443.639C352.087 414.46 367.283 386.435 376.875 358.995Z" fill="white"/>
<path d="M11.846 12.604V241.878L39.77 228.728C39.77 228.728 52.753 238.061 69.391 238.603C83.226 239.054 91.082 234.872 94.781 230.41C95.843 229.279 96.797 227.31 96.816 227.269L96.801 227.27C97.271 226.13 97.538 224.891 97.538 223.587C97.538 218.073 92.899 213.601 87.176 213.601C81.448 213.601 76.811 218.073 76.811 223.587C76.811 227.056 78.645 230.107 81.431 231.897L81.365 231.928C81.365 231.928 76.156 234.03 70.67 233.484C65.187 232.935 59.52 231.473 50.925 226.536C42.334 221.599 40.684 219.04 40.684 219.04C40.684 219.04 37.121 186.769 57.689 168.396C78.545 149.765 101.935 144.261 127.528 145.358C153.125 146.458 169.396 153.403 189.142 166.934C208.885 180.462 218.943 185.948 236.316 187.591C253.68 189.237 269.952 179.912 290.43 187.043C310.903 194.174 314.925 201.12 314.925 201.12C314.925 201.12 287.685 206.971 295.185 233.483C302.679 259.992 318.584 275.896 339.792 287.416C350.89 293.445 368.04 295.039 381.877 295.191V12.604H11.846Z" fill="#013765"/>
<path d="M69.406 436.38C93 467.423 158.653 513.032 197.177 513.032C235.702 513.032 300.967 467.423 324.554 436.38C343.556 411.624 357.135 387.718 366.375 364.286C361.286 364.368 355.603 364.362 349.21 364.21C303.686 363.108 259.307 316.491 227.719 310.726C204.279 306.455 194.933 315.419 190.423 324.443C185.213 334.867 189.877 345.83 189.877 345.83C189.877 345.83 163.053 345.584 140.465 309.361C121.317 278.646 113.364 270.414 94.44 267.947C76.361 265.591 71.678 270.144 29.171 261.639C21.973 260.201 16.305 259.011 11.848 258.031V294.882C15.101 340.655 31.708 386.81 69.406 436.38Z" fill="#0972CE"/>
<path d="M375.519 334.104C375.853 332.762 376.175 331.42 376.48 330.073C370.366 330.143 358.389 328.948 339.941 321.425C311.699 309.905 270.059 275.511 257.438 267.396C238.243 255.058 189.932 230.65 155.652 227.085C128.753 224.289 124.662 226.262 124.662 226.262V229.552C124.662 229.552 136.647 227.914 157.845 233.941C185.818 241.895 216.806 259.993 249.991 282.209C269.081 294.988 314.163 322.797 342.136 329.377C358.878 333.313 369.586 334.104 375.519 334.104Z" fill="#013765"/>
<path d="M38.505 46.828C39.236 46.61 39.967 46.447 40.698 46.447C42.967 46.447 44.851 47.642 44.851 51.225C44.851 57.688 41.083 58.121 38.505 58.121V46.828ZM31.545 79.189H38.504V63.986H42.582C48.772 63.986 52.272 58.231 52.272 50.41C52.272 42.701 49.158 39.931 43.965 39.931H31.545V79.189ZM54.888 39.93H73.885V46.447H62.31V56.004H71.81V61.868H62.31V72.674H74.808V79.189H54.888V39.93ZM76.384 71.316C78.77 72.674 81.345 73.652 83.922 73.652C85.883 73.652 88.538 72.892 88.538 69.363C88.538 63.009 76.156 62.357 76.156 49.976C76.156 42.104 81.156 38.953 86.039 38.953C88.806 38.953 91.576 39.442 94.307 40.147V47.587C92.038 46.447 89.615 45.47 87.192 45.47C85.73 45.47 83.578 46.284 83.578 48.836C83.578 54.755 96.422 55.514 96.422 68.33C96.422 72.294 94.96 80.166 85.039 80.166C81.462 80.166 78.424 79.678 76.385 79.189L76.384 71.316ZM121.841 47.804C119.187 46.392 116.42 45.471 113.573 45.471C106.842 45.471 104.727 52.259 104.727 59.317C104.727 68.113 107.997 73.653 114.342 73.653C116.995 73.653 119.879 72.458 122.302 70.827V78.05C119.148 79.516 115.764 80.167 111.919 80.167C102.882 80.167 96.843 72.62 96.843 59.589C96.843 46.556 102.883 38.954 111.919 38.954C115.61 38.954 118.804 39.335 121.84 40.256V47.804H121.841Z" fill="white"/>
<path d="M131.301 63.009L135.07 49.108L138.839 63.009H131.301ZM121.957 79.189H126.917L129.647 69.199H140.531L143.223 79.189H150.683L140.03 39.93H132.608L121.957 79.189ZM159.453 46.447H161.721C165.029 46.447 165.875 48.24 165.875 50.9C165.875 53.778 164.491 57.632 161.914 57.632H159.453V46.447ZM152.492 79.189H159.453V63.497H162.068L168.067 79.19H177.027L168.106 60.945C171.105 58.937 173.297 54.538 173.297 49.759C173.297 42.7 169.182 39.93 165.721 39.93H152.492V79.189Z" fill="white"/>
<path d="M185.41 63.009L189.181 49.108L192.95 63.009H185.41ZM176.065 79.189H181.026L183.755 69.199H194.642L197.331 79.189H204.793L194.14 39.93H186.716L176.065 79.189ZM241.02 47.804C238.366 46.392 235.597 45.471 232.749 45.471C226.022 45.471 223.907 52.259 223.907 59.317C223.907 68.113 227.174 73.653 233.519 73.653C236.173 73.653 239.056 72.458 241.482 70.827V78.05C238.324 79.516 234.94 80.167 231.096 80.167C222.058 80.167 216.023 72.62 216.023 59.589C216.023 46.556 222.058 38.954 231.096 38.954C234.787 38.954 237.981 39.335 241.019 40.256V47.804H241.02Z" fill="white"/>
<path d="M250.479 63.009L254.247 49.108L258.015 63.009H250.479ZM241.134 79.189H246.094L248.827 69.199H259.705L262.4 79.189H269.859L259.21 39.93H251.786L241.134 79.189ZM271.67 39.93H279.091V72.674H291.589V79.189H271.67V39.93ZM316.74 47.804C314.086 46.392 311.314 45.471 308.469 45.471C301.74 45.471 299.624 52.259 299.624 59.317C299.624 68.113 302.894 73.653 309.239 73.653C311.893 73.653 314.776 72.458 317.199 70.827V78.05C314.047 79.516 310.666 80.167 306.816 80.167C297.778 80.167 291.74 72.62 291.74 59.589C291.74 46.556 297.778 38.954 306.816 38.954C310.507 38.954 313.701 39.335 316.739 40.256L316.74 47.804ZM319.585 39.93H327.009V79.189H319.585V39.93ZM337.582 59.588C337.582 53.289 339.507 45.47 344.774 45.47C350.003 45.47 351.928 53.289 351.928 59.588C351.928 65.887 350.003 73.652 344.774 73.652C339.507 73.652 337.582 65.887 337.582 59.588ZM329.701 59.588C329.701 72.619 335.739 80.166 344.774 80.166C353.812 80.166 359.809 72.619 359.809 59.588C359.809 46.555 353.812 38.953 344.774 38.953C335.739 38.953 329.701 46.556 329.701 59.588Z" fill="white"/>
<path d="M155.914 393.952H152.222V388.679L163.336 387.056V427.292H155.914V393.952ZM181.411 392.915C184.219 392.915 185.41 396.935 185.41 400.356C185.41 403.672 184.103 407.475 181.449 407.475C178.565 407.475 177.528 403.344 177.528 399.922C177.527 396.337 178.564 392.915 181.411 392.915ZM185.871 409.315C185.796 412.901 184.717 422.405 178.682 422.405C176.259 422.405 173.797 421.479 171.604 420.014V426.905C174.296 427.778 177.066 428.264 179.835 428.264C189.254 428.264 193.294 417.676 193.294 406.93C193.294 394.983 189.102 387.055 181.105 387.055C172.796 387.055 170.105 395.961 170.105 401.065C170.105 408.172 173.95 413.335 178.948 413.335C181.371 413.335 184.179 412.14 185.409 409.315H185.871ZM198.871 403.89H201.483C205.64 403.89 207.908 401.663 207.908 397.48C207.908 394.169 205.869 392.916 203.639 392.916C201.254 392.916 198.87 393.678 196.677 395.148V389.007C199.447 387.759 202.33 387.056 205.254 387.056C210.946 387.056 215.329 389.933 215.329 396.501C215.329 401.88 212.443 405.19 209.024 406.386V406.497C212.712 407.358 216.635 411.436 216.635 417.085C216.635 421.315 214.868 428.265 204.984 428.265C202.06 428.265 199.14 427.943 196.295 426.964V420.068C198.719 421.427 201.255 422.406 203.833 422.406C206.215 422.406 208.752 420.883 208.752 417.027C208.752 411.871 205.254 409.75 201.369 409.75H198.871V403.89ZM230.288 422.405C227.481 422.405 226.292 418.385 226.292 414.964C226.292 411.653 227.599 407.851 230.25 407.851C233.136 407.851 234.173 411.976 234.173 415.398C234.173 418.983 233.136 422.405 230.288 422.405ZM225.829 406.005C225.905 402.419 226.983 392.915 233.018 392.915C235.444 392.915 237.902 393.841 240.096 395.306V388.41C237.404 387.543 234.635 387.056 231.867 387.056C222.445 387.056 218.408 397.644 218.408 408.396C218.408 420.343 222.597 428.265 230.596 428.265C238.905 428.265 241.597 419.365 241.597 414.261C241.597 407.142 237.75 401.986 232.752 401.986C230.329 401.986 227.52 403.181 226.292 406.006H225.829V406.005Z" fill="#013765"/>
<path d="M357.589 277.767C356.516 277.773 355.453 277.566 354.462 277.158C353.47 276.75 352.568 276.149 351.81 275.391C351.052 274.632 350.452 273.731 350.044 272.739C349.637 271.747 349.43 270.684 349.436 269.611C349.433 268.541 349.643 267.481 350.052 266.492C350.461 265.503 351.062 264.605 351.82 263.85C352.578 263.094 353.478 262.496 354.468 262.09C355.458 261.684 356.519 261.478 357.589 261.484C358.658 261.48 359.716 261.688 360.704 262.095C361.692 262.502 362.59 263.1 363.346 263.856C364.102 264.611 364.701 265.508 365.109 266.496C365.516 267.484 365.725 268.542 365.722 269.611C365.728 270.682 365.522 271.743 365.116 272.734C364.709 273.725 364.111 274.625 363.355 275.384C362.599 276.142 361.7 276.743 360.71 277.152C359.721 277.561 358.66 277.77 357.589 277.767ZM357.589 279.653C363.1 279.653 367.609 275.147 367.609 269.61C367.609 264.105 363.1 259.596 357.589 259.596C352.034 259.596 347.549 264.105 347.549 269.61C347.549 275.147 352.034 279.653 357.589 279.653ZM359.953 270.501C361.866 270.372 362.889 269.558 362.889 267.565C362.889 266.44 362.599 265.39 361.629 264.761C360.815 264.288 359.61 264.261 358.693 264.261H353.452V275.064H355.573V270.5H357.694L360.108 275.064H362.572L359.953 270.501ZM355.573 268.878V265.811H358.192C359.244 265.811 360.788 265.811 360.788 267.255C360.788 268.614 359.953 268.907 358.746 268.878H355.573Z" fill="white"/>
</svg>
