<svg width="351" height="91" viewBox="0 0 351 91" fill="none" xmlns="http://www.w3.org/2000/svg">
<path d="M12.9 19.8V25.5C15 23.4 17.7 21.6 20.4 20.4C23.1 19.2 26.1 18.6 29.1 18.6C35.7 18.6 42 21.3 46.2 26.1C51 31.5 53.4 38.4 53.1 45.6C53.4 52.8 50.7 59.7 45.9 64.8C41.4 69.6 35.1 72.6 28.5 72.6C25.8 72.6 22.8 72 20.1 71.1C17.4 69.9 14.7 68.1 12.6 66V90.3H0V19.8H12.9ZM26.4 30.6C22.5 30.6 18.9 32.1 16.5 34.8C13.8 37.8 12.3 41.7 12.6 45.6C12.3 49.8 13.8 53.7 16.5 56.7C19.2 59.4 22.8 61.2 26.4 60.9C30.3 60.9 33.9 59.4 36.3 56.7C39 53.7 40.5 49.8 40.2 45.6C40.5 41.7 39 37.8 36.3 34.8C33.9 32.1 30.3 30.3 26.4 30.6ZM59.4 71.4H72V50.7C72 47.1 72 43.5 72.6 40.2C73.2 37.5 74.4 35.1 76.5 33.3C78.3 31.5 80.7 30.6 83.1 30.6C84.9 30.6 86.7 31.2 88.2 32.1C89.7 33.3 90.6 34.8 91.2 36.9C91.8 40.8 92.1 45 92.1 48.9V71.4H105V37.5C105.3 32.7 103.8 27.6 100.5 24C97.2 20.4 92.4 18.6 87.6 18.6C84.9 18.6 82.2 19.2 79.8 20.1C77.1 21.3 74.4 23.1 72.3 24.9V0H59.4V71.4ZM136.8 18.6C141.6 18.6 146.4 19.8 150.6 22.2C154.8 24.6 158.1 27.9 160.5 32.1C162.9 36.3 164.1 40.8 164.1 45.6C164.1 50.4 162.9 55.2 160.5 59.4C158.1 63.6 154.8 66.9 150.6 69.3C146.4 71.7 141.6 72.9 136.8 72.9C129.6 72.9 122.7 70.2 117.9 65.1C112.8 60 109.8 53.1 110.1 45.9C109.8 38.1 113.1 30.9 119.1 25.8C123.6 21 130.2 18.6 136.8 18.6ZM137.1 30.6C133.2 30.6 129.6 32.1 127.2 34.8C124.5 37.8 123 41.7 123.3 45.6C123 49.5 124.5 53.4 127.2 56.4C129.9 59.1 133.5 60.6 137.1 60.6C141 60.6 144.6 59.1 147.3 56.4C150 53.4 151.5 49.5 151.2 45.6C151.5 41.7 150 37.8 147.3 34.8C144.6 32.1 140.7 30.6 137.1 30.6ZM222.3 49.5H180.9C181.2 52.8 183 56.1 185.7 58.2C188.4 60.6 192 61.5 195.6 61.5C200.4 61.5 204.9 59.7 208.2 56.4L219 61.5C216.6 65.1 213.3 68.1 209.1 69.9C204.9 71.7 200.4 72.9 195.6 72.6C188.1 72.9 181.2 70.2 175.8 65.1C170.7 60 168 53.1 168.3 45.9C168 38.7 170.7 31.5 175.8 26.4C180.9 21.3 187.8 18.3 195 18.6C202.5 18.3 209.7 21 214.8 26.4C219.9 31.8 222.9 39.3 222.3 47.1V49.5ZM209.4 39.3C208.5 36.3 206.7 33.9 204.3 32.4C201.6 30.6 198.6 29.7 195.6 29.7C192.3 29.7 188.7 30.6 186 32.7C183.9 34.5 182.4 36.9 181.2 39.3H209.4ZM228 71.4H240.9V50.7C240.9 47.1 240.9 43.8 241.5 40.2C242.1 37.5 243.3 34.8 245.4 33C247.2 31.2 249.6 30.3 252 30.6C253.8 30.6 255.6 31.2 257.1 32.1C258.6 33.3 259.5 35.1 260.1 36.9C260.7 40.8 261 45 261 49.2V71.7H273.9V37.5C274.2 32.7 272.7 27.9 269.4 24C266.1 20.4 261.3 18.6 256.5 18.6C254.1 18.6 251.4 19.2 249.3 20.1C246.3 21.3 243.6 23.1 241.2 25.2V19.8H228V71.4ZM280.5 71.4H293.4V19.8H280.5V71.4ZM316.2 44.4L296.7 71.4H311.4L323.7 54.6L336 71.4H351L331.2 44.1L348.6 19.8H333.9L323.7 33.9L313.5 19.8H298.5L316.2 44.4Z" fill="#00687C"/>
</svg>
