<svg width="153" height="153" viewBox="0 0 153 153" fill="none" xmlns="http://www.w3.org/2000/svg">
<path d="M76.5 153C118.75 153 153 118.75 153 76.5C153 34.2502 118.75 0 76.5 0C34.2502 0 0 34.2502 0 76.5C0 118.75 34.2502 153 76.5 153Z" fill="#E72F56"/>
<path d="M76.5 137.2C43 137.2 15.7 109.9 15.7 76.4C15.7 42.9 43 15.6 76.5 15.6C110 15.6 137.3 42.9 137.3 76.4C137.3 109.9 110 137.2 76.5 137.2ZM76.5 22.7C46.8 22.7 22.7 46.8 22.7 76.5C22.7 106.2 46.8 130.3 76.5 130.3C106.2 130.3 130.3 106.2 130.3 76.5C130.3 46.8 106.1 22.7 76.5 22.7Z" fill="white"/>
<path d="M106.6 50.6H97.5C97 50.6 96 51.1 95.9 51.5L78.9 87.7L86.2 99.2C89.4 92.8 92.6 86.3 95.8 79.9V106.3C95.8 107 96.5 107.7 97.6 107.7H106.6C107.7 107.7 108.4 107 108.4 106.3V52.1C108.4 51.3 107.6 50.6 106.6 50.6Z" fill="white"/>
<path d="M86.6 105.5L73.9 85.2V85.3L72 82.3L71.6 81.7C71.5 81.5 71.5 81.3 71.5 81.1V80.8C71.5 80.3 71.8 79.8 72.2 79.5C72.5 79.3 72.8 79.2 73.2 79.2H73.8C74.4 79.2 77.2 79.2 77.8 79.2C78.6 79.2 79.4 79.2 80.3 79.2C80.4 79.2 80.4 79.2 80.5 79.2C81 79.2 81.2 79 81.2 78.5C81.2 78.4 81.2 78.2 81.2 78.1C81.2 77.6 81.2 77.1 81.2 76.5C81.2 75.9 81.2 75.4 81.2 74.8C81.2 73.9 81.2 73 81.2 72.1C81.2 71.1 81.7 70.5 82.6 70.2C82.7 70.2 82.9 70.1 83.1 70.1C83.4 70.1 83.8 70 84.1 69.9H84.2C84.8 69.8 84.9 69.5 84.6 69C84.5 68.8 84.3 68.5 84.2 68.3C83.8 67.7 83.4 67 83 66.4C82.9 66.3 82.9 66.2 82.8 66.1C82.5 65.6 82.2 65 82.1 64.4C82.1 63 81.8 61.7 81.4 60.4C80.9 58.7 80 57.2 78.9 55.9C78.6 55.6 78.3 55.2 78 54.9C77.9 54.8 77.8 54.7 77.7 54.6L77.5 54.4C77 53.9 76.4 53.5 75.8 53.1C74.4 52.2 73 51.6 71.4 51.2C71.3 51.2 71.2 51.2 71.1 51.2C70.5 51.1 69.8 51 69.2 50.9H46.2C45.2 50.9 44.5 51.6 44.5 52.4V61.6L48.7 68.3C49.8 70.1 51.1 71.7 52.1 73.5H46.2C45.2 73.5 44.5 74.2 44.5 75V106.6C44.5 107.3 45.2 108 46.2 108H55.2C56.3 108 56.9 107.3 56.9 106.6V85.1H59.3L73 106.9L72.9 106.8C73.1 107.2 74 107.6 74.4 107.6H85.1C86.6 107.7 87.3 106.5 86.6 105.5ZM66.7 75.3L64.1 71.1C64.3 71.1 64.5 71.2 64.8 71.2C66.9 71.2 68.7 69.5 68.7 67.3C68.7 65.1 67 63.4 64.8 63.4C63 63.4 61.5 64.6 61.1 66.2L58.4 61.9C59.9 60.1 62.2 58.9 64.8 58.9C69.4 58.9 73.1 62.6 73.1 67.2C73 71.1 70.4 74.4 66.7 75.3Z" fill="white"/>
</svg>
