<svg width="323" height="233" viewBox="0 0 323 233" fill="none" xmlns="http://www.w3.org/2000/svg">
<path d="M177.6 74.8C177.6 33.5 144.1 0 102.8 0C98.1 0 93.4 0.400003 88.9 1.3C123.4 7.9 149.5 38.3 149.5 74.7C149.5 109.9 125.2 139.4 92.5 147.3L141.8 196.6L153.2 179.9L120.7 147.4C153.4 139.4 177.6 109.9 177.6 74.8Z" fill="#FFFF50"/>
<path d="M74.8 28.2C49.1 28.2 28.2 49 28.2 74.8V218.7C28.2 219.1 28.2 219.6 28.1 220C28.7 227.2 34.8 232.9 42.1 232.9C49.9 232.9 56.2 226.6 56.2 218.8V151.1L50.3 145.2C47.9 142.7 46.4 139.3 46.4 135.5C46.4 129.2 50.5 123.9 56.2 122.1V74.9C56.3 53.9 70 36.3 88.9 30.4C84.4 28.9 79.7 28.2 74.8 28.2Z" fill="#FFFF50"/>
<path d="M321.8 16.7C320.4 9 313 4 305.3 5.5C301.5 6.2 298.3 8.4 296.3 11.4L293.5 15.6C293.6 16 293.7 16.3 293.8 16.7C294.5 20.5 293.6 24.3 291.6 27.3L157.3 224L162 228.7C164.5 231.2 168.1 232.8 172 232.8C176.8 232.8 181.1 230.4 183.7 226.6L319.6 27.3C321.6 24.3 322.5 20.5 321.8 16.7Z" fill="#FFFF50"/>
<path d="M89 1.3C84.4 0.400003 79.7 0 74.8 0C33.5 0 0 33.4 0 74.7V218.6C0 226.4 6.3 232.7 14.1 232.7C21.5 232.7 27.5 227.1 28.1 219.9C28.1 219.5 28 219.1 28 218.6V74.8C28.1 38.2 54.3 7.8 89 1.3Z" fill="#0037FF"/>
<path d="M277.2 5.4C273.4 6.1 270.2 8.3 268.2 11.3L153.2 180L169.9 196.7L293.4 15.5C291.5 8.5 284.5 4 277.2 5.4Z" fill="#0037FF"/>
<path d="M78.5 145.2C76.1 142.6 74.7 139.2 74.7 135.5C74.7 128.2 80.3 122.1 87.5 121.5H87.6C88 121.5 88.4 121.4 88.9 121.4C89.3 121.4 89.6 121.4 90 121.4H103.1C128.8 121.4 149.7 100.6 149.7 74.8C149.7 49.1 128.9 28.2 103.1 28.2C98.2 28.2 93.5 29 89.1 30.3C107.9 36.3 121.5 53.9 121.5 74.7C121.5 100.4 100.7 121.3 74.9 121.3H61.8C61.4 121.3 61.1 121.3 60.7 121.3C60.3 121.3 59.9 121.3 59.4 121.4H59.3C58.3 121.5 57.3 121.7 56.3 122V151.1L133.9 228.7C136.4 231.2 140 232.8 143.9 232.8C148.7 232.8 153 230.4 155.6 226.6L157.3 224.1L78.5 145.2Z" fill="#0037FF"/>
<path d="M46.6 135.4C46.6 139.2 48.1 142.6 50.5 145.1L56.4 151V121.9C50.7 123.8 46.6 129.1 46.6 135.4Z" fill="#8CC63F"/>
<path d="M293.7 16.6C293.6 16.2 293.5 15.9 293.4 15.5L169.9 196.7L153.2 180L141.8 196.7L92.5 147.4C125.2 139.4 149.5 109.9 149.5 74.8C149.5 38.4 123.4 8 88.9 1.4C54.2 7.9 28 38.3 28 74.9V218.8C28 219.2 28 219.6 28.1 220.1C28.1 219.7 28.2 219.2 28.2 218.8V74.7C28.2 49 49 28.1 74.8 28.1C79.7 28.1 84.5 28.9 88.9 30.3C93.3 28.9 98 28.2 102.9 28.2C128.6 28.2 149.5 49 149.5 74.8C149.5 100.5 128.7 121.4 102.9 121.4H89.8C89.4 121.4 89.1 121.4 88.7 121.4C88.3 121.4 87.9 121.4 87.4 121.5H87.3C80.1 122.2 74.5 128.2 74.5 135.5C74.5 139.3 76 142.7 78.4 145.2L157.2 224L291.4 27.2C293.5 24.2 294.4 20.4 293.7 16.6Z" fill="#8CC63F"/>
</svg>
