<svg width="127" height="97" viewBox="0 0 127 97" fill="none" xmlns="http://www.w3.org/2000/svg">
<path fill-rule="evenodd" clip-rule="evenodd" d="M60.8 12.4C60.8 11.2 60.5 7.9 60.4 6.9C60.3 5.9 60.5 6 60 5.4C59.5 4.8 59.5 4.2 58.9 3.8C58.3 3.4 57.1 3.1 56 2.9C54.9 2.7 54.7 2.6 53.9 2.9C53.1 3.2 53.2 3.6 52.6 3.2C52 2.8 51.2 2.4 50.7 2.6C50.2 2.8 49.8 3.3 49.6 3.5C49.4 3.6 49 3.2 48.6 3.4C48.3 3.7 48.2 3.9 47.8 4.1C47.5 4.2 47.6 4 47 4.5C46.4 5 45.8 5.6 45.5 5.9C45.2 6.3 45 6.5 44.7 7.1C44.4 7.7 44.2 8.7 44 9.3C43.7 9.9 43.4 10.4 43 10.7C42.6 11 42 11.4 41.5 12.2C41 13.1 40.7 14.9 40.7 16.3C40.7 17.7 39.2 21.1 38.9 23C38.6 24.9 34.8 52.5 34.7 53.3C34.6 54.1 32.9 62.6 32.6 64.3C32.3 66 31 72.1 31 73.6C31 75.1 31 75.8 31.3 75.3C31.6 74.8 32 72.5 32.2 72.1C32.4 71.7 32.6 71.4 32.5 72C32.4 72.6 32 74.5 32 74.9C32 75.3 32.5 74.7 32.7 74.2C32.9 73.7 32.9 73.4 33.1 73C33.3 72.6 33.4 72.4 33.2 73.5C33 74.6 32.4 76.1 32.4 76.4C32.4 76.7 32.5 77.3 32.4 77.6C32.3 78 32.2 78.5 32.3 78.7C32.4 78.9 33 78.3 33 78C33.1 77.7 33.2 77.2 33.3 76.6C33.4 76 33.2 76.3 33.4 75.5C33.6 74.7 33.8 74.4 33.8 74.4C33.8 74.4 33.9 75.1 33.9 75.5C33.9 75.9 33.7 76.4 33.8 76.7C33.9 77.1 34.1 77 34.1 77.4C34.1 77.7 33.4 80.6 33.4 81C33.4 81.4 33.2 81.8 33.4 81.6C33.6 81.4 33.8 80.5 33.9 80.4C34 80.3 33.9 81.2 33.8 81.5C33.7 81.9 32.7 87.7 32.6 88.1C32.5 88.5 32.5 89.2 32.7 88.9C32.8 88.6 33.7 85.5 33.7 85.2C33.7 84.9 34.6 80.3 34.7 79.9C34.8 79.5 34.9 80.4 34.8 80.6C34.8 80.8 34.9 81.1 35.3 80.6C35.7 80.1 36.1 80 36.5 79.6C36.9 79.2 36.9 78.9 36.9 78.9C36.9 78.9 36.8 79.8 36.8 80C36.7 80.2 36.7 80.1 36.7 80.5C36.7 81 36.7 81.2 36.6 81.6C36.6 82 36.9 81.1 37 80.5C37.2 80 37.2 79.8 37.4 79.5C37.6 79.2 37.4 79.9 37.3 80.3C37.2 81 37 81.8 37 82C37 82.2 37 82 37 82.5C37 83 37 83.3 37 83.6C37 83.9 37 83.9 37.2 83.7C37.4 83.5 37.6 83.5 37.3 83.9C37.1 84.3 37 84 37.2 84.5C37.4 85 37.3 85.6 37.3 85.7C37.3 85.9 37.2 86.2 37.4 86.2C37.6 86.2 37.6 85.9 37.7 85.6C37.8 85.3 37.9 84.5 38 84.3C38.1 84.1 38.1 84.3 38.1 84.7C38.1 85.1 38.2 85.2 38.2 85.4C38.2 85.6 38.1 85.8 37.9 86.1C37.8 86.4 37.8 86.9 37.9 87.1C38 87.3 38.1 87.5 38.2 87.5C38.3 87.6 38.4 87.7 38.4 87.9C38.4 88.1 38.3 88.5 38.5 88.8C38.6 89.1 38.8 88.6 38.9 88.2C39 87.8 39.1 86.7 39.3 86.4C39.4 86 39.5 86.1 39.5 86.6C39.4 87.1 39.3 88.6 39.3 88.9C39.3 89.2 39.4 89 39.6 88.4C39.8 87.8 39.8 87 39.9 86.8C40.1 86.5 40.3 86.4 40.4 85.6C40.5 84.8 40.4 84.5 40.6 84.1C40.8 83.7 40.8 83.6 40.8 84.1C40.8 84.6 40.2 87 40.2 87.3C40.2 87.6 40.4 87.7 40.6 87.2C40.7 86.6 40.8 86 41 85.3C41.2 84.7 41.3 84.1 41.3 84.1C41.3 84.1 41.4 84.4 41.6 84.4C41.8 84.4 41.8 84.2 41.9 83.9C42 83.6 42 83.3 42.2 82.9C42.4 82.5 42.3 83.1 42.3 83.7C42.3 84.3 42.6 84.5 42.2 84.9C41.7 85.3 41.7 85.6 41.8 86C41.9 86.4 41.9 87.4 41.9 87.7C41.9 88 41.5 90.1 41.7 90.4C41.8 90.7 41.9 90.5 42 90.2C42.1 89.9 42.6 89.4 42.8 88.8C43 88.2 43 87.8 43.1 87.4C43.2 87.1 43.4 87 43.3 87.5C43.2 88.1 43.1 88.8 43.1 89C43.1 89.3 43.3 89.5 43.5 88.6C43.7 87.7 43.8 87.3 43.9 86.8C43.9 86.3 43.7 86.9 44 86C44.3 85.1 44.5 84.2 44.6 83.7C44.8 83.2 44.8 83.9 44.7 84.5C44.6 85.1 44.6 85.9 44.5 86.2C44.4 86.5 44.4 86.9 44.3 87.2C44.3 87.5 44.2 88 44.2 88.3C44.3 88.6 44.5 88.7 44.8 87.9C45.1 87.1 45.2 86.3 45.3 86.1C45.4 85.8 45.5 85.8 45.7 85.1C45.9 84.4 45.8 84.4 45.9 84.2C46 84 46.1 84.6 46 84.9C46 85.2 46 85.7 46.2 85.3C46.4 84.8 46.7 84.5 46.8 83.9C46.9 83.3 49.3 72.5 49.5 71.1C49.7 69.7 51.5 55.5 51.5 54.6C51.5 53.7 52.6 46.8 52.8 46.3C52.9 45.8 56 40.2 56.1 39.6C56.1 39 57.5 31.3 57.7 30.7C57.9 30.1 58.7 26.4 59.3 24.8C59.9 23.2 60.6 20.7 60.8 19.7C60.9 18.7 61 13.2 60.8 12.4ZM33.3 66.5C33.3 66.9 33.2 67.1 33.3 67.8C33.4 68.5 33.5 67.6 33.7 67.8C33.9 68 33.7 68.2 33.4 68.5C33.2 68.8 32.9 68.8 32.7 68.9C32.5 69 32.5 68.6 32.6 68C32.7 67.4 32.9 66.6 33 66.3C33.4 65.4 33.4 66.1 33.3 66.5ZM32.7 70.4C32.6 71 32.5 70.9 32.3 71.2C32.1 71.5 32.1 70.7 32.4 69.9C32.7 68.8 32.8 69.8 32.7 70.4ZM33.6 70C33.6 70.7 33.3 70.5 33.2 70.4C33.1 70.3 33.2 69.7 33.3 69.3C33.4 68.8 33.7 69.3 33.6 70ZM34.5 73.8C34.4 74.4 34.2 74.7 34.2 74.1C34.2 73.5 34.1 73.7 34 73.5C33.9 73.3 34 73.4 34.2 73.1C34.7 72.3 34.5 73.2 34.5 73.8ZM38.5 81.4C38.5 82.1 38.3 82.1 38 82.4C37.7 82.8 37.6 82.2 37.7 81.9C37.8 81.5 38 81.3 38.1 80.9C38.4 80.2 38.5 80.7 38.5 81.4ZM39.8 79.7C39.9 80 39.8 80.3 39.7 80.7C39.6 81 39.5 80.6 39.6 79.9C39.6 79.2 39.7 79.4 39.8 79.7ZM41.6 82.6C41.7 82.9 41.4 83.4 41.2 83.6C41.1 83.7 41 83.4 41 83C41 82.2 41.5 82.3 41.6 82.6ZM43.1 91.1C43.1 92.3 42.8 91.8 42.6 91.6C42.4 91.4 42.6 90.5 42.7 90.3C42.8 89.9 43.1 89.9 43.1 91.1ZM36.5 88.9C36.7 89 36.6 89.3 36.5 89.5C36.4 89.7 35.9 89.3 36.1 88.8C36.1 88.6 36.3 88.8 36.5 88.9ZM37.7 88.2C37.8 88.3 37.7 88.5 37.6 88.8C37.5 89.1 37.3 88.9 37.3 88.6C37.2 88.2 37.6 88.1 37.7 88.2ZM36.8 87.3C36.8 87.9 36.5 88.2 36.5 88C36.4 87.8 36.5 87.2 36.5 87C36.6 86.1 36.8 86.6 36.8 87.3ZM37 85C37.1 85.2 37 85.4 36.8 85.6C36.6 85.8 36.6 85.4 36.7 85C36.6 84.3 36.8 84.8 37 85ZM32.6 80.4C32.6 80.7 32.1 81.6 32 81.4C31.9 81.2 32.2 80.1 32.3 79.8C32.6 78.9 32.6 80.1 32.6 80.4ZM36 90.1C36.1 90.4 35.9 90.7 35.9 91C35.9 91.3 35.6 91.7 35.5 91.4C35.4 91.1 35.7 90.2 35.7 90C35.7 89.2 35.9 89.9 36 90.1ZM34.3 89.1C34.4 89.2 34.6 89.5 34.5 89.8C34.5 90.2 34.2 90 34.1 89.7C34.1 89.3 34.2 88.9 34.3 89.1ZM37.8 91.1C37.9 91.4 37.9 91.5 37.9 92.2C37.9 92.9 37.9 93.8 37.7 95.1C37.4 96.4 37.3 96 37.1 96.3C36.9 96.6 36.9 95.6 37 95.1C37.1 94.6 37.1 94.4 37.2 94C37.3 93.6 37.4 93.4 37.5 92.7C37.5 91.9 37.7 90.8 37.8 91.1ZM36.8 93.4C36.8 94.3 36.5 94.3 36.3 94.4C36.1 94.5 36.3 93.8 36.5 93.3C36.7 92.8 36.9 92.6 36.8 93.4ZM35.4 93.4C35.6 93.5 35.8 93.4 35.7 94.1C35.7 94.8 35.4 94.4 35.3 94.1C35.3 93.8 35.2 93.3 35.4 93.4ZM30.9 77.3C31 77.6 30.9 77.9 30.9 78.1C30.9 78.3 30.4 80 30.2 80.2C30 80.4 30.2 78.6 30.3 77.7C30.5 76.9 30.8 77 30.9 77.3ZM67.7 59.5C68 57.5 75.2 16.2 75.5 14.3C75.8 12.4 78.7 7.6 79.2 6.6C79.7 5.6 80.6 4.7 81.1 4.2C81.6 3.6 81.8 3.9 82.2 3.7C82.6 3.5 82.7 3.4 83.1 3.4C83.5 3.4 83.4 3.7 83.7 3.6C83.9 3.4 84.2 3 84.4 2.8C84.7 2.6 85.6 3.1 85.8 3.2C86 3.3 87.7 2.9 88.8 2.7C89.9 2.5 91 3 91.6 3.2C92.2 3.5 93 4 93.3 4.5C93.6 5 93.8 5.3 94 5.6C94.2 5.9 94.2 7.2 94.2 7.8C94.3 8.4 94.5 8.1 94.9 7.7C95.3 7.3 96.1 6.7 96.5 6.7C96.9 6.7 96.7 7.5 96.8 8.3C96.9 9.1 96.5 10.2 96.1 10.5C95.7 10.8 95.3 10.9 95.2 11.4C95.1 11.9 94.6 15.6 94.7 15.6C94.8 15.6 95.1 15.4 95.2 15.5C95.3 15.6 95.2 15.9 95.2 16.3C95.2 16.7 95.3 16.4 95.6 17C95.9 17.6 96 17.2 96.2 17C96.4 16.8 96.7 17.3 96.8 17.7C96.9 18.1 96.8 18.8 96.7 19.5C96.6 20.2 96.9 19.5 97.1 19.3C97.2 19 97.7 18.7 97.7 18.9C97.8 19.1 97.3 20.6 97.2 21.2C97.1 21.8 97 22.3 96.8 23C96.6 23.7 95.5 25.1 95.3 25.5C95.1 25.9 89.1 52.9 89 53.1C88.9 53.3 88.8 54.2 88.7 54.8C88.6 55.4 88.5 56.3 88.6 56.8C88.7 57.3 88.2 58.8 88.1 59.2C88 59.6 87.3 61.4 87.3 62.3C87.3 63.2 86.8 63.7 86.8 63.1C86.8 62.5 86.7 61.9 86.6 62.3C86.5 62.7 86.4 63 86 63.8C85.6 64.7 86 64.8 85.8 64.8C85.6 64.8 85.5 64.8 85.4 65C85.3 65.2 85.2 66.2 85.2 66.5C85.2 66.8 84.6 68.1 84.5 68.5C84.4 68.9 83.8 71 83.7 71.2C83.6 71.5 82.2 77.3 81.7 79C81.2 80.6 81.3 79.8 81.1 80.4C80.9 80.9 80.5 83.2 80.2 84.1C79.9 85 79.7 85.4 79.7 85.2C79.7 85 79.6 84.2 79.5 84.3C79.4 84.4 79.4 84.7 79.3 85.3C79.2 85.8 78.9 86.3 78.8 86.7C78.7 87.1 78.5 87.9 78.1 88.6C77.6 89.3 78.1 88.3 78.1 88C78.1 87.7 78.1 87.1 78.2 86.5C78.3 85.9 78.2 85.7 78.3 85.1C78.4 84.5 78.4 83.4 78.2 84C78 84.6 77.9 85.2 77.7 86.1C77.5 87 77.6 86.9 77.5 87.5C77.4 88 77.2 89.2 77 89.3C76.8 89.4 77 88.6 77 88C77 87.4 76.9 87.2 76.9 87.2C76.9 87.2 76.8 88 76.6 88.8C76.4 89.5 76 89.6 75.9 89.7C75.8 89.8 75.4 90.9 75.4 90.5C75.4 90.1 75.4 88.7 75.5 88.5C75.5 88.3 75.7 86.5 75.7 86.2C75.7 85.9 75.9 85.2 76 85C76.1 84.8 76.3 84 76.3 83.3C76.3 82.6 76 82.9 75.9 83.2C75.8 83.5 75.8 84.4 75.7 84.6C75.6 84.8 75.5 84.7 75.2 84.5C74.9 84.3 75 84.6 74.9 85C74.8 85.4 74.6 86.6 74.6 87.2C74.6 87.9 74.2 87.9 74.2 87.5C74.2 87.1 74.6 85.2 74.6 84.6C74.6 84 74.6 83.6 74.3 84.2C74 84.7 74.2 84.8 74.1 85.4C74 86 74 86.3 73.8 86.9C73.6 87.5 73.7 87.4 73.6 87.7C73.6 88 73.2 89.2 73.1 89C73 88.8 73 88 73.1 87.3C73.2 86.6 73.3 86.1 73.2 86.3C73.1 86.6 72.7 88.3 72.5 88.6C72.3 89 72.2 89.3 72.1 88.9C72 88.5 72.1 88 71.9 87.8C71.7 87.6 71.6 87.2 71.6 86.7C71.7 86.2 71.8 85.7 71.8 85.3C71.8 85 71.6 84.4 71.5 84.6C71.4 84.8 71.3 86 71.3 86.2C71.2 86.4 71.1 86.3 71.1 85.8C71.1 85.3 71.2 85 71.2 84.6C71.1 84.2 71.3 84.1 71.3 84.1C71.3 84.1 71.4 83.6 71.2 83.7C71 83.9 70.9 84 70.8 83.7C70.8 83.5 70.8 83.1 70.9 82.7C71 82.3 70.8 82.2 70.8 82C70.8 81.8 71.1 80.7 71.2 80.1C71.3 79.5 71.1 79.7 70.8 80.4C70.5 81.2 70.3 82.2 70.1 82.2C69.9 82.2 70.1 81.6 70.1 81.3C70.2 81 70.1 80.2 70.2 80C70.2 79.8 70.6 78.8 70.4 78.9C70.2 79 70 79.6 69.6 80C69.2 80.4 69.2 80.3 69.1 80.6C69 80.8 68.6 81.5 68.4 81.5C68.2 81.5 68.2 80.1 68.2 79.6C67.2 78.5 67.4 61.4 67.7 59.5ZM70.9 87C71.1 87.5 70.9 88.1 70.6 88.5C70.3 88.9 70.4 87.6 70.5 87.2C70.5 86.5 70.6 86.5 70.9 87ZM70.3 85.2C70.3 84.8 70.6 84.8 70.8 85.1C71 85.4 70.8 85.6 70.7 85.8C70.6 85.9 70.4 85.7 70.4 85.4C70.4 85.3 70.3 85.6 70.3 85.2ZM72.4 80.9C72.5 81.1 72.2 81.9 72 82.6C71.9 83.2 71.5 82.5 71.5 82.3C71.4 82.1 71.7 81.8 71.8 81.5C71.9 80.9 72.3 80.7 72.4 80.9ZM73.7 79.4C73.8 79.7 73.6 79.9 73.5 80.2C73.4 80.5 73.3 80.2 73.3 79.8C73.4 79.3 73.6 79.1 73.7 79.4ZM76.4 80C76.4 80.3 76.3 80.2 76.1 80.4C75.9 80.5 76 80.2 76.1 79.7C76.2 79.3 76.4 79.7 76.4 80ZM75.7 82.5C75.8 82.8 75.3 83.5 75.3 83.5C75.3 83.5 75.2 83.1 75.3 82.9C75.2 82.1 75.6 82.2 75.7 82.5ZM70.6 89.1C70.7 89.3 70.5 89.3 70.4 89.5C70.2 89.7 70.2 89.3 70.3 89C70.2 88.5 70.5 89 70.6 89.1ZM71.8 88.6C71.9 88.8 71.8 88.8 71.5 89C71.2 89.1 71.3 88.8 71.3 88.6C71.4 88.1 71.8 88.4 71.8 88.6ZM71.7 91.5C71.8 92 71.7 92.2 71.7 92.7C71.7 93.2 71.6 95.5 71.2 96.1C70.8 96.7 71.2 95.7 71.1 95.2C71 94.7 71.1 94.4 71.1 94C71.1 93.6 71.2 93 71.3 92.7C71.4 91.3 71.6 91 71.7 91.5ZM70.7 93.2C70.8 93.4 70.5 94.3 70.3 94.4C70 94.4 70 94 70.1 93.5C70.1 92.7 70.6 93 70.7 93.2ZM69.7 93.7C69.8 93.9 69.8 94.4 69.7 94.6C69.6 94.8 69.5 94.5 69.4 94.2C69.4 93.8 69.6 93.5 69.7 93.7ZM70.1 90.6C70.1 90.8 69.7 91.6 69.5 91.5C69.4 91.4 69.5 90.8 69.6 90.3C69.7 89.4 70.1 90.4 70.1 90.6ZM77 90.4C77.2 90.8 77 90.5 76.9 91C76.8 91.4 76.6 91.9 76.5 92C76.3 92.1 76.4 91.3 76.5 90.6C76.5 90.2 76.8 90 77 90.4ZM86.4 68.6C86.4 69 85.5 70.1 85.2 70C84.9 69.9 85.5 68.4 85.6 68.1C86.1 66.9 86.5 68.3 86.4 68.6ZM87.1 64.1C87.2 64.2 87.2 64.4 87.2 64.7C87.2 65 87 65.9 86.5 65.7C86 65.5 86.5 64.8 86.6 64.5C86.9 63.6 87 63.9 87.1 64.1ZM88.3 62.6C88.4 63.1 87.8 63.7 87.6 63.6C87.4 63.6 87.6 62.8 87.6 62.3C87.7 61.7 88.2 62.1 88.3 62.6ZM91.4 51.8C91.5 52.1 91.4 51.9 91.4 52.4C91.4 52.9 91.1 54 91 54.3C90.9 54.6 90.4 57.6 90.2 57.9C90.1 58.2 89.4 59.3 89.2 59.2C89 59 89.4 58 89.6 56.6C89.9 55.3 90.4 53.2 90.4 53.1C90.7 52 91.3 51.5 91.4 51.8ZM90.5 59.7C90.5 60.1 90 60.1 89.8 60.1C89.6 60.1 89.7 59.7 90 59C90.1 58.7 90.4 59.3 90.5 59.7Z" fill="#00A3CB"/>
<path fill-rule="evenodd" clip-rule="evenodd" d="M48.9 85.7C48.7 85.8 48.5 86 48.7 86.1C48.9 86.2 48.9 86.2 49 86.2C49.1 86.2 49.3 86.4 49.3 86.1C49.3 85.8 49.3 85.6 49.3 85.6L48.9 85.7ZM71.7 71C71.7 71.4 71.6 71.2 71.5 71.2C71.4 71.2 71.4 70.7 71.5 70.6C71.6 70.5 71.7 70.7 71.7 71ZM71.5 72.1C71.5 72.2 71.3 72.4 71.2 72.5C71.1 72.6 71.2 72.2 71.3 71.9C71.4 71.8 71.5 72 71.5 72.1ZM65.2 87.9C65.1 89.4 64.9 88.6 64.7 88.8C64.5 88.9 64.6 88.5 64.7 88.1C64.8 87.7 65.2 86.1 65.3 85.6C65.6 85.2 65.3 86.4 65.2 87.9ZM65.9 83.5C65.9 83.7 65.9 84 65.7 84.1C65.5 84.2 65.6 83.9 65.6 83.6C65.7 83.5 65.8 83.4 65.9 83.5ZM66.5 81C66.5 81.5 66.4 81.4 66.4 81.6C66.4 81.8 66.2 82.5 66.1 82.6C66 82.7 66 82.1 66 81.7C66 81.3 66.2 80.7 66.3 80.5C66.4 80.2 66.5 80.5 66.5 81ZM65.4 82.7C65.2 83 65.3 82.7 65.3 82.5C65.3 82.3 65.4 81.6 65.5 81.4C65.7 80.8 65.6 82.4 65.4 82.7ZM64.7 82.4C64.6 82.5 64.6 82.3 64.7 82C65 81.7 64.8 82.3 64.7 82.4ZM64.6 82.9C64.7 83.1 64.6 83.1 64.5 83.3C64.3 83.4 64.3 83 64.4 82.9C64.5 82.7 64.6 82.7 64.6 82.9ZM62.6 81.4C62.5 81.8 62.5 81.8 62.4 81.9C62.3 82 62.1 81.9 62 81.7C61.9 81.5 62.2 81.3 62.4 80.9C62.8 80.4 62.6 81 62.6 81.4ZM62.4 80C62.6 80.3 62.3 80.3 62.3 80.5C62.3 80.7 62 80.6 62 80.2C62 79.5 62.2 79.7 62.4 80ZM62.8 75.7C62.9 76 62.9 76 62.9 76.1C62.9 76.2 63.1 76 63.3 75.9C63.5 75.8 63.5 76.3 63.5 76.5C63.5 76.7 63.2 77.5 63 78C62.8 78.5 62.9 78.3 62.6 78.6C62.3 78.9 62.1 78.6 62.1 78.5C62.1 78.3 62.3 76.2 62.4 75.7C62.4 75.3 62.7 75.5 62.8 75.7ZM64.6 75.1C64.7 75.2 64.5 75.4 64.4 75.9C64.2 76.4 64.2 76.4 64 76.4C63.9 76.4 64 75.9 64.1 75.4C64.2 74.8 64.4 75 64.6 75.1ZM65.6 73.7C65.5 74.2 65.5 75.1 65.4 75.5C65.3 75.9 64.8 78.3 64.8 78.2C64.8 78.1 64.8 77.7 64.9 77.3C64.9 76.8 65.2 73.3 65.7 72.4C65.9 72.1 65.7 73.3 65.6 73.7ZM65.5 66.1C65.6 65.8 66 65.1 65.9 66.1C65.8 67.1 65.5 68.9 65.5 69.3C65.4 69.8 65 72.3 64.9 72.9C64.8 73.6 65 73.6 64.7 74C64.3 74.4 64.2 74.4 63.8 74.4C63.5 74.5 63.7 74.7 63 74.6C62.4 74.5 62.3 74.3 62.3 74.1C62.3 73.9 62.6 73.2 62.7 73.1C62.8 73 62.8 73.2 62.8 73.6C62.8 74 62.5 74.3 63.1 74.1C63.7 73.9 64.3 73.9 64.4 73.6C64.6 73.3 64.7 72.2 64.7 71.4C64.7 70.7 64.6 70.7 64.8 69.9C65.1 69.1 65.2 68.3 65.2 67.9C65.3 67.6 65.4 66.4 65.5 66.1ZM64.8 67.2C64.9 67.7 64.6 67.5 64.4 67.3C64.2 67.2 64 66.9 64.3 66.3C64.6 65.8 64.7 66.7 64.8 67.2ZM64.3 68.1C64.5 68.3 64.7 68.5 64.6 68.8C64.6 69.1 64.3 69 64.2 69.2C64.2 69.4 64.4 69.6 64.5 70C64.5 70.5 63.8 70.7 63.8 70.4C63.8 70.1 63.9 69.5 63.9 69.1C64 68.3 64.1 68 64.3 68.1ZM63.5 69.3C63.5 69.5 63.4 69.5 63.1 69.6C62.8 69.8 63 69.5 63.2 69.2C63.4 69 63.5 69.1 63.5 69.3ZM63.4 70.4C63.5 70.6 63.3 70.7 63.2 70.9C63.1 71.1 63 70.9 63.1 70.4C63.1 70.1 63.3 70.1 63.4 70.4ZM62.5 84.6C62.5 85.2 62.1 85.9 62.1 85.8C62.1 85.7 62.1 85.2 62.2 84.6C62.3 84.2 62.5 84 62.5 84.6ZM57.4 12.6C57.8 11.6 57.8 11 57.9 10.3C58 9.6 58 8.4 58.2 8.1C58.4 7.7 59.5 7.1 59.7 6.8C59.9 6.5 59.7 6.2 59.8 5.6C59.9 5 62.3 2.6 63.8 1.7C65.3 0.800003 69.2 1 70.2 0.800003C71.2 0.600003 70.9 0.700003 72.2 0.700003C73.5 0.700003 77.5 1 77.9 1C78.3 1 78.6 1 79.4 1C80.2 1 80.9 1.4 81.7 1.7C82.5 2 83.3 2.8 83.8 3.3C84.3 3.7 85.1 4.8 85.4 5.1C85.7 5.4 85.9 5.8 86.1 6.3C86.3 6.7 85.8 8.3 85.5 9.1C85.2 9.9 85.1 9.8 84.9 9.6C84.7 9.4 84.2 8.7 84 8.4C83.8 8.1 83.7 8 83.3 7.8C82.9 7.6 82.1 7.3 81.3 7.2C80.5 7.1 80 7.4 79.8 7.6C79.6 7.8 79.1 8.1 78.8 8.4C78.5 8.6 77.9 9.1 77.9 9.2C77.9 9.3 77.5 10.9 77.5 11.2C77.4 11.5 76.9 12.8 76.8 12.9C76.7 13 76.9 13.3 76.9 13.9C77 14.5 76.9 15.2 76.8 15.6C76.7 16 76.8 16.4 76.7 16.9C76.6 17.4 76.5 17.4 76.3 17.7C76.2 18 76.3 18.4 76.4 18.6C76.5 18.8 76.7 18.7 77.5 18.7C78.3 18.7 88.1 18.7 89.6 18.7C91.1 18.7 104.1 18.4 107.5 18.4C110.9 18.4 117.7 18.4 119 18.6C120.3 18.8 124.4 18.5 124.9 18.5C125.4 18.5 126.6 18.8 126.8 18.9C127 19 127 19.3 126.5 19.6C126 20 125.3 19.9 125 20.2C124.7 20.5 124.3 21.1 123.6 21.5C122.9 21.9 122.5 22 122 22.4C121.5 22.8 121 23 121.2 23.1C121.4 23.2 122.3 23 122.3 23.1C122.3 23.2 121.8 23.8 121.4 23.8C121 23.8 120.1 24 119.4 24.2C118.8 24.4 115.1 24.7 113.7 24.6C112.3 24.5 106.9 24.5 105.4 24.5C103.9 24.5 100.2 24.5 99.5 24.5C98.8 24.5 98.5 24.5 98.3 24.7C98.1 24.9 98.5 25.2 99 25.3C99.5 25.4 102.2 25.7 103.5 25.7C104.7 25.7 112 26.2 112.6 26.2C113.3 26.2 116.5 26.3 119 26.4C121.5 26.5 125.5 26.5 125.7 26.6C126 26.7 125.8 27.1 125.2 27.2C124.6 27.3 123.5 27.4 123.2 27.5C122.8 27.5 121.5 27.7 121.2 27.6C120.9 27.6 120.3 27.6 119.9 27.6C119.5 27.6 119 27.7 120.3 27.8C121.6 27.9 124 27.8 124.4 27.8C124.8 27.8 125.1 28.1 124.8 28.3C124.5 28.5 124.4 28.5 124.1 28.4C123.8 28.4 123 28.4 122.6 28.4C122.2 28.4 122 28.4 121.7 28.5C121.4 28.6 121.5 28.7 122.2 28.7C122.8 28.7 123.3 28.9 123.5 28.9C123.7 29 123.7 29.1 123.3 29.2C122.9 29.3 122.7 29.4 122.5 29.5C122.3 29.6 122.1 29.9 122.3 30C122.5 30.1 122.6 30.4 122.4 30.6C122.1 30.8 120.8 31.5 120.5 31.6C120.2 31.8 120 32 119.6 32.2C119.2 32.4 119.8 32.4 118.6 32.6C117.4 32.7 117.1 32.6 116.5 32.8C116 33 116.4 33 115.5 33.1C114.6 33.2 108.2 33.3 107.7 33.4C107.2 33.5 105 33.5 104.5 33.5C104 33.5 101.8 33.6 101.4 33.5C101 33.5 100.2 33.4 99.9 33.4C99.6 33.4 98.4 34 98.8 34.1C99.2 34.2 100.4 34.5 101.2 34.7C102.1 34.8 104.4 34.8 105.7 34.8C107 34.8 112.7 35.1 113.3 35.1C113.9 35.1 116.2 35 116.9 35C117.6 35 121.5 34.9 122.9 35.1C124.3 35.3 124.2 35.4 124.2 35.6C124.1 35.8 124.2 36.3 123.7 36.8C123.2 37.3 122.6 37.6 122.3 37.6C122 37.6 119.1 37.7 118.7 37.7C118.3 37.7 116.3 37.7 116 37.8C115.6 37.9 115.3 37.9 115.6 38C115.9 38.1 119.3 38.2 119.7 38.2C120.1 38.2 119.3 38.6 118.6 38.6C117.8 38.6 115.4 38.6 115.2 38.6C115 38.6 114.9 38.7 115.1 38.8C115.4 38.9 116.3 39 117.2 39C118 39 120.3 38.9 120.7 39C121.1 39 122.1 39.1 121.6 39.5C121.1 39.9 120.3 40.6 119.8 40.7C119.4 40.8 119.2 40.6 118.7 40.7C118.3 40.8 117.2 41 116.8 41.1C116.5 41.2 116.3 41.2 115.7 41.3C115.1 41.4 112.4 41.7 111.7 41.7C111 41.7 106.5 41.6 106 41.6C105.5 41.6 103.3 41.6 102.7 41.6C102.1 41.6 101.1 41.6 100.6 41.6C100.1 41.6 98.9 41.7 98.5 41.9C98.1 42.1 97.8 42.1 98.5 42.3C99.3 42.5 100.4 42.7 102.3 42.8C104.2 42.9 106.1 43 106.3 43C106.5 43 112.2 43.1 112.9 43.2C113.6 43.3 114.1 43.2 114.6 43.2C115.1 43.2 115.5 43.2 115.8 43.2C116.2 43.2 119.8 43.4 120.7 43.4C121.6 43.4 123.1 43.4 123.4 43.5C123.7 43.6 124 43.9 123.4 44.1C122.8 44.3 122.6 44.2 121.9 44.2C121.2 44.2 120.3 44.2 119.7 44.3C119.1 44.3 118.8 44.4 119 44.5C119.2 44.6 119.6 44.8 120.2 44.8C120.7 44.8 122.7 44.8 122.8 44.9C122.9 45 123.2 45.4 122.4 46C121.6 46.6 121.1 47.1 120.8 47.4C120.5 47.6 119.8 47.8 119.4 47.9C119 48 118.2 48.1 118.8 48.3C119.4 48.5 119.9 48.7 119.5 48.9C119.1 49.1 118.3 49.3 117.7 49.6C117.1 49.9 116.9 50 116.5 50.1C116.2 50.2 111.5 50.3 109.6 50.3C107.7 50.3 102.5 50.3 101.9 50.3C101.6 50.3 99.1 50.2 97 50.2C95.1 50.2 93.5 50.3 92.8 50.3C91.4 50.3 89 50.3 88.7 50.4C88.3 50.4 83.6 50.2 81.7 50C79.8 49.8 76 49.9 75.4 50C74.7 50.1 74.9 50.2 74.7 50.6C74.6 51 74.5 51.8 74.4 52.1C74.3 52.4 73.7 54.9 73.6 55.2C73.5 55.5 72.7 57.4 72.6 57.7C72.5 58 72 63.8 71.9 64.4C71.9 65 71.6 65.9 71.5 66.7C71.4 67.5 70.6 68.3 70.2 69C69.8 69.7 69.8 70.1 69.5 70.8C69.2 71.5 67.8 76.3 67.7 76.7C67.6 77.1 65.5 87.1 65.4 87.5C65.3 87.8 64.8 88.7 64.7 88.7C64.6 88.7 64.7 88.4 64.9 87.7C65.1 87 64.8 87.1 64.8 87.1C64.8 87.1 64.7 87.3 64.6 87.5C64.5 87.7 64 90.1 63.8 90.3C63.6 90.5 63.7 90.2 63.8 89.8C63.9 89.5 63.7 89.6 63.7 89.6C63.7 89.6 63.3 90.1 63.1 90.3C62.9 90.5 63.1 89.5 63.1 89.2C63.1 88.9 63.5 87 63.6 86.5C63.7 86 63.7 85.5 63.2 86.1C62.7 86.7 63 86.3 62.8 86.5C62.6 86.7 62.7 86.8 62.8 87.7C62.9 88.7 62.9 88.5 62.7 88.7C62.6 88.8 62.6 88.9 62.3 89.1C63 89.5 63.1 89.3 63 89C62.9 88.7 63.6 85.1 63.7 84.3C63.9 83.5 63.7 83.4 63.7 83.6C63.6 83.9 63.2 86.2 63 86.7C62.9 87.2 62.6 87.7 62.6 87.5C62.6 87.3 62.6 86.9 62.6 86.6C62.6 86.3 62.7 85.3 62.7 85C62.7 84.7 63.1 84.3 63.3 83.8C63.4 83.3 64 79.6 64.2 78.2C64.4 76.8 64 77.1 64 77.2C64 77.3 63.3 79.9 63.2 80.4C63.1 80.9 63.2 81.3 63.1 81.9C63 82.5 62.9 82.4 62.6 82.6C62.3 82.9 62.1 82.5 62 82.6C61.9 82.7 62 82.8 62 83C62 83.2 61.8 83.6 61.6 84.1C61.4 84.6 61.5 84.7 61.4 85.1C61.3 85.5 61.1 85.9 60.9 86.2C60.7 86.5 60.2 87.5 60 87.6C59.8 87.7 59.9 87.1 60 86.4C60.1 85.7 60.1 85.1 60.1 84.9C60 84.9 60 84 60.1 84C60.2 84 60.4 84.7 60.5 84.5C60.6 84.3 60.6 83.7 60.6 83.2C60.6 82.7 60.6 82.6 60.5 82.3C60.4 82 60.7 81.8 60.6 81.6C60.6 81.4 60.3 81.2 60 81.8C59.8 82.4 59.5 83.6 59.2 84.3C58.9 85 58.5 85.9 58.3 86.3C58.1 86.7 58.3 86.8 58.3 87.4C58.3 88 57.9 88.3 57.9 88.4C57.9 88.5 58.1 88.7 58.1 89.1C58.1 89.5 57.9 90.3 57.8 90.2C57.7 90.1 57.6 89.8 57.4 90C57.2 90.2 57.2 90.4 57.2 90.7C57.2 91 57.3 91.2 57.6 91.4C57.9 91.6 57.9 91.9 57.5 92.2C57.1 92.5 57.1 92.3 57 92.3C56.9 92.3 56.9 91.7 56.9 90.9C56.9 90.1 57.1 89 57.2 88.8C57.2 88.5 57.3 88.3 57.3 88.1C57.3 88 57 88.2 56.9 88.4C56.8 88.6 56.9 88.7 56.9 88.8C56.9 89 56.9 89.9 56.8 90.2C56.8 90.5 56.6 91.5 56.5 90.9C56.4 90.3 56.4 89.2 56.4 89.1C56.4 89 56.3 88.7 56.1 88.9C55.9 89 55.4 89.4 55.3 89.4C55.2 89.5 53.5 90.1 53.4 90.2C53.2 90.3 52.4 91 52.2 91.2C52 91.4 51.4 91.4 51.2 91.3C51.1 91.2 51 90.3 50.9 90C50.8 89.7 50.7 89.9 50.5 90.2C50.4 90.5 50.1 91.1 50 91.5C49.8 91.9 49.8 92.1 49.3 92.1C48.8 92.1 49.2 91.8 49.2 91.4C49.2 91 49.5 90.6 49.4 90.4C49.3 90.2 49.5 89.7 49.6 89.5C49.7 89.3 49.7 89.7 49.7 89.9C49.7 90 49.8 89.9 49.9 89.7C50 89.5 50.2 89 50.1 88.8C50.1 88.6 49.9 88.3 49.6 88.1C49.3 87.9 49 88 49.5 87.6C50 87.2 50 87.1 49.9 87.1C49.8 87.1 48.8 87 48.7 87C48.6 87 48.2 87.5 48 87.5C47.8 87.5 47.3 86.6 47.1 86.1C47 85.6 47.3 85.7 47.2 85.5C47.1 85.3 47 85.3 46.9 85C46.8 84.7 46.8 84.2 46.6 83.9C46.4 83.6 46.3 82.9 46.4 82.7C46.5 82.4 47 82.7 47.3 82.7C47.6 82.7 47.7 82.9 47.8 83.4C47.9 83.9 48 83.8 48.1 83.7C48.2 83.6 48.3 82.3 48.3 82.1C48.3 81.9 48 81.9 47.7 82C47.4 82.1 47.5 82.1 47.2 82C46.9 81.9 46.2 81.5 46.2 80.8C46.2 80.2 46.3 79.6 46.3 79.1C46.3 78.6 46.1 78.3 46.1 77.8C46.2 77.3 46.6 77.2 46.6 77.1C46.6 77 46.7 76.2 46.7 75.7C46.8 75.1 47.5 70.6 47.5 70.2C47.4 69.8 47.7 67.4 47.6 66.7C47.5 65.9 47.6 63.3 47.6 62.9C47.7 62.5 48.2 58.3 48.1 58C48 57.7 48.3 56.9 48.4 56.4C48.5 55.9 49.4 50.9 49.5 50.6C49.6 50.3 49.4 50.3 49.3 50.2C49.2 50.1 47.5 50.2 47.3 50.2C47.1 50.2 42.9 50.3 41.4 50.5C39.9 50.6 35.1 50.5 34.7 50.5C34.3 50.5 32 50.5 30.6 50.4C29.9 50.4 28.4 50.3 26.5 50.3C24.4 50.3 21.9 50.4 21.6 50.4C21 50.4 15.7 50.4 13.9 50.4C12.1 50.4 7.39999 50.3 6.99999 50.2C6.69999 50.1 6.49999 50 5.89999 49.7C5.29999 49.4 4.49999 49.2 4.19999 49C3.89999 48.8 4.49999 48.6 5.09999 48.4C5.69999 48.2 4.89999 48 4.49999 47.9C4.09999 47.8 3.49999 47.7 3.19999 47.4C2.89999 47.2 2.49999 46.6 1.89999 46C1.29999 45.4 1.49999 45 1.69999 44.9C1.89999 44.8 3.79999 44.8 4.29999 44.8C4.79999 44.8 5.29999 44.6 5.49999 44.5C5.69999 44.4 5.39999 44.3 4.79999 44.3C4.19999 44.3 3.29999 44.3 2.59999 44.2C1.89999 44.1 1.69999 44.3 1.09999 44.1C0.699991 44 0.999991 43.7 1.39999 43.6C1.79999 43.5 3.19999 43.5 4.09999 43.5C4.99999 43.5 8.59999 43.3 8.99999 43.3C9.39999 43.3 9.79999 43.2 10.2 43.3C10.7 43.3 11.2 43.4 11.9 43.3C12.6 43.2 18.3 43.1 18.6 43.1C18.8 43.1 20.7 43 22.6 42.9C24.5 42.8 27.7 42.6 28.5 42.4C29.3 42.2 29 42.2 28.6 42C28.2 41.8 27 41.7 26.5 41.7C26 41.7 25 41.7 24.4 41.7C23.8 41.7 19.6 41.7 19 41.7C18.5 41.7 14 41.8 13.3 41.8C12.6 41.8 9.99999 41.5 9.39999 41.4C8.79999 41.3 8.59999 41.3 8.29999 41.2C7.99999 41.1 6.89999 40.9 6.49999 40.8C6.09999 40.7 5.79999 40.9 5.39999 40.8C5.09999 40.7 4.39999 40 3.99999 39.6C3.59999 39.2 4.49999 39.1 4.99999 39.1C5.39999 39.1 7.69999 39.2 8.49999 39.1C9.39999 39.1 10.4 39 10.6 38.9C10.9 38.8 10.8 38.7 10.5 38.7C10.3 38.7 7.89999 38.7 7.09999 38.7C6.29999 38.7 5.69999 38.3 6.09999 38.3C6.49999 38.3 9.89999 38.2 10.2 38.1C10.5 38 10.3 38 9.89999 37.9C9.49999 37.8 7.59999 37.9 7.19999 37.8C6.79999 37.8 3.99999 37.8 3.69999 37.7C3.39999 37.7 2.89999 37.4 2.49999 36.9C2.09999 36.4 2.29999 35.9 2.19999 35.7C2.19999 35.5 2.09999 35.4 3.59999 35.2C4.99999 35 8.99999 35.1 9.69999 35.1C10.4 35.1 12.6 35.2 13.3 35.2C14 35.2 19.7 34.9 21 34.9C22.3 34.9 25.5 34.9 26.4 34.8C27.3 34.7 28.5 34.4 28.9 34.2C29.4 34.1 28.3 33.5 27.9 33.5C27.5 33.5 26.8 33.6 26.4 33.6C26 33.6 23.8 33.5 23.3 33.6C22.8 33.6 19.7 33.5 19.2 33.5C18.7 33.4 12.3 33.3 11.4 33.2C10.5 33.1 11 33.1 10.4 32.9C9.89999 32.7 9.59999 32.9 8.39999 32.7C7.19999 32.5 7.79999 32.6 7.39999 32.3C6.99999 32.1 6.89999 31.9 6.59999 31.7C6.29999 31.5 5.19999 30.9 4.89999 30.7C4.69999 30.5 4.89999 30.3 5.09999 30.1C5.29999 29.9 5.09999 29.7 4.99999 29.6C4.79999 29.5 4.69999 29.4 4.29999 29.3C3.99999 29.3 4.09999 29.1 4.19999 29C4.29999 28.9 4.89999 28.8 5.49999 28.8C6.09999 28.8 6.29999 28.7 5.99999 28.6C5.69999 28.5 5.49999 28.5 5.09999 28.5C4.69999 28.5 3.89999 28.4 3.59999 28.5C3.29999 28.5 3.19999 28.5 2.99999 28.4C2.79999 28.2 3.09999 27.9 3.49999 27.9C3.89999 27.9 6.19999 28 7.59999 27.9C8.89999 27.8 8.49999 27.7 8.09999 27.7C7.69999 27.7 7.19999 27.6 6.89999 27.7C6.59999 27.7 5.29999 27.6 4.99999 27.6C4.59999 27.6 3.59999 27.5 2.99999 27.3C2.39999 27.2 2.29999 26.8 2.59999 26.7C2.89999 26.6 6.89999 26.6 9.39999 26.5C11.9 26.4 15.2 26.3 15.9 26.3C16.6 26.3 23.9 25.8 25.1 25.8C26.3 25.8 28.9 25.4 29.3 25.4C29.8 25.3 30.2 25 30.1 24.8C30 24.6 29.7 24.6 28.9 24.6C28.1 24.6 24.8 24.6 23.3 24.6C21.8 24.6 16.3 24.7 15 24.7C13.6 24.8 9.99999 24.5 9.39999 24.3C8.79999 24.1 7.89999 23.9 7.49999 23.9C7.09999 23.8 6.69999 23.3 6.79999 23.2C6.89999 23.1 7.69999 23.3 7.89999 23.2C8.09999 23.1 7.59999 22.9 7.29999 22.5C6.99999 22 6.59999 21.9 5.99999 21.5C5.39999 21.1 5.09999 20.5 4.89999 20.2C4.59999 19.9 3.89999 20 3.49999 19.6C2.99999 19.2 3.09999 19 3.29999 18.9C3.49999 18.8 4.79999 18.5 5.29999 18.5C5.79999 18.5 9.89999 18.8 11.2 18.6C12.5 18.4 19.4 18.4 22.8 18.4C26.2 18.4 39.2 18.7 40.6 18.7C42.1 18.7 56.1 18.5 56.4 18.5C56.7 18.5 57.5 18.3 57.6 18.2C57.7 18.1 57.8 18 57.9 17.8C58 17.6 58.2 16.2 58.4 15.7C58.6 15.2 59.2 13.7 59.2 13.3C59.3 12.9 59.2 12.9 59.2 12.9C59.2 12.9 58.9 12.8 58.8 12.8C58.7 12.8 58.4 13.1 58.4 13.1C58.4 13.1 58.5 14 58.4 14.5C58.3 15 57.8 16.1 57.7 16.4C57.6 16.7 57.5 16.9 57.5 17.1C57.5 17.3 57.3 17.8 57.2 17.9C57 18 56.7 18 56.6 17.9C56.5 17.8 56.5 17.3 56.5 16.9C56.5 16.5 57 13.6 57.4 12.6ZM58.8 11.9C58.6 11.8 59 10.3 59.2 10.2C59.4 10 59.9 9.9 59.9 10.4C59.9 10.9 59.5 11.7 59.5 11.7C59.5 11.7 59.1 12 58.8 11.9ZM72 2.9C72.2 2.9 73.2 2.8 74.4 2.8C76 2.8 77.9 2.9 78.2 2.9C78.6 3 77.7 3.3 77.3 3.5C76.9 3.7 76.6 4.3 76.3 4.4C76 4.5 75.7 4.3 75.5 4.2C75.3 4.1 75.4 3.9 75 3.9C74.6 3.9 74.4 3.9 74.2 3.8C74 3.7 72.6 3 72 2.9Z" fill="white"/>
<path d="M52.6 26.1L52 29.2L51.8 30.3H49.4L49.6 29.2L51.1 20.6L51.3 19.5H54.2C56.8 19.5 57.1 21 56.8 22.9C56.6 24 56.2 24.9 55.2 25.5L55.7 30.3H53.2L52.9 26.1H52.6ZM53 24.2H53.3C54.2 24.2 54.5 23.6 54.6 22.9C54.7 22.2 54.6 21.5 53.8 21.5H53.5L53 24.2Z" fill="#16182F"/>
<path d="M58.3 30.4H56L59.7 19.6H63L62.9 30.4H60.6L60.7 28.4H59L58.3 30.4ZM59.6 26.3H60.8L60.9 23.9C60.9 23.3 61 22.6 61 22.1H60.9C60.8 22.6 60.6 23.3 60.4 23.9L59.6 26.3Z" fill="#16182F"/>
<path d="M70.5 20.2C71 20.7 71.2 21.5 70.9 23.1L70.3 26.7C70 28.4 69.6 29.1 68.9 29.6C68.3 30.1 67.5 30.3 66.7 30.3H63.5L63.7 29.2L65.2 20.6L65.4 19.5H68.6C69.4 19.5 70.1 19.7 70.5 20.2ZM67.4 21.5L66.2 28.5H66.7C67.5 28.5 67.8 27.7 67.9 27L68.6 23.1C68.7 22.5 68.8 21.6 67.9 21.6H67.4V21.5Z" fill="#16182F"/>
<path d="M75 19.5L74.8 20.6L73.3 29.2L73 30.4H70.6L70.8 29.3L72.3 20.7L72.5 19.6H75V19.5Z" fill="#16182F"/>
<path d="M75.1 29.9C74.6 29.3 74.4 28.3 74.8 26.2L75.3 23.6C75.7 21.5 76.2 20.5 76.9 20C77.4 19.6 78.2 19.3 79.2 19.3C80.2 19.3 80.8 19.5 81.2 20C81.7 20.6 81.9 21.6 81.5 23.6L81 26.2C80.6 28.3 80.1 29.3 79.4 29.9C78.8 30.3 78.1 30.6 77.1 30.6C76.1 30.5 75.5 30.3 75.1 29.9ZM78.5 26.7L79.1 23.2C79.3 22.2 79.4 21.5 78.7 21.5C78 21.5 77.8 22.3 77.7 23.2L77 26.7C76.8 27.7 76.7 28.4 77.4 28.4C78.2 28.4 78.3 27.7 78.5 26.7Z" fill="#16182F"/>
<path d="M30 48.3L30.3 46.6L32.7 33.2L33 31.5H36.7L36.4 33.2L34.3 45.3H37.9L37.3 48.4H30V48.3Z" fill="#16182F"/>
<path d="M41.9 48.3H38.3L44.1 31.4H49.1L49 48.3H45.4L45.5 45.2H42.8L41.9 48.3ZM43.9 42.1H45.7L45.8 38.4C45.8 37.5 45.9 36.4 46 35.7H45.9C45.7 36.4 45.4 37.6 45.1 38.4L43.9 42.1Z" fill="#16182F"/>
<path d="M58.7 48.3H50L50.5 45.3L57.1 34.5H53L53.6 31.4H61.8L61.3 34.4L54.8 45.2H59.4L58.7 48.3Z" fill="#16182F"/>
<path d="M67.4 31.4L67.1 33.1L64.7 46.5L64.4 48.2H60.7L61 46.5L63.4 33.1L63.7 31.4H67.4Z" fill="#16182F"/>
<path d="M69.6 48.3H66L71.8 31.4H76.8L76.7 48.3H73.1L73.2 45.2H70.5L69.6 48.3ZM71.6 42.1H73.4L73.5 38.4C73.5 37.5 73.6 36.4 73.7 35.7H73.6C73.4 36.4 73.1 37.6 72.8 38.4L71.6 42.1Z" fill="#16182F"/>
<path d="M78.3 48.3L78.6 46.6L81 33.2L81.3 31.5H85L84.7 33.2L82.6 45.3H86.2L85.6 48.4H78.3V48.3Z" fill="#16182F"/>
<path d="M92.3 41.1L91.6 45.2H95.6L95 48.3H87.3L87.6 46.6L90 33.2L90.3 31.5H98L97.4 34.6H93.5L92.9 38H96.2L95.6 41.2H92.3V41.1Z" fill="#16182F"/>
<path d="M85.7 51.3H82.7C82.2 51.3 81.7 51.6 81.5 52.1L81.4 52.3C81.3 51.7 80.8 51.3 80.2 51.3H77.1C77 51.3 76.9 51.3 76.8 51.3C76.7 51.3 76.6 51.3 76.5 51.3H71.7C71.2 51.3 70.7 51.6 70.5 52.1C69.8 51.4 68.9 51.1 67.7 51.1C66.5 51.1 65.5 51.5 64.7 52.1C64.5 52.3 64.2 52.5 64.1 52.7C64 52.5 63.9 52.4 63.7 52.2C63 51.4 62 51 60.8 51C59.7 51 58.6 51.3 57.8 52C57.6 51.5 57.2 51.1 56.6 51.1H55.1C54.7 51.1 54.2 51.3 54 51.7C53.9 51.9 53.4 52.4 52 52.9C51.6 53 51.3 53.4 51.2 53.9L51 55.2C50.9 55.6 51 55.9 51.3 56.2C51.5 56.5 51.9 56.6 52.2 56.6L51.6 59.9C51.6 60 51.3 60 51.1 60H49.7C49.8 59 49.6 58.3 49.3 57.8C49.8 57.2 50.2 56.5 50.3 55.6V55.5C50.6 53.7 50 52.6 49.4 52.1C48.8 51.5 47.9 51.2 46.8 51.2C45.8 51.2 44.9 51.5 44.1 52C43.8 52.2 43.5 52.4 43.3 52.7C43.1 52.5 43 52.3 42.8 52.1C42.2 51.5 41.3 51.2 40.2 51.2C39.2 51.2 38.3 51.5 37.5 52C36.5 52.7 35.9 53.7 35.6 55.1V55.2C35.5 56 35.5 56.8 35.9 57.4C35.3 58 34.8 58.8 34.6 60V60.2C34.3 61.8 34.6 63 35.5 63.9C36.1 64.6 37.1 64.9 38.2 64.9C39.3 64.9 40.3 64.6 41 64C41.2 63.8 41.4 63.7 41.6 63.5C41.7 63.6 41.8 63.8 42 63.9C42.6 64.6 43.6 64.9 44.7 64.9C45.7 64.9 46.6 64.6 47.4 64.1L47.5 64.2C47.7 64.5 48.1 64.6 48.4 64.6H50.5C50.8 64.6 51.1 64.5 51.3 64.3C51.5 64.5 51.8 64.6 52.1 64.6H54.4C55 64.6 55.5 64.2 55.6 63.6C56.1 64.1 56.9 64.8 58.5 64.8C59.7 64.8 60.7 64.5 61.5 63.8C61.7 63.6 62 63.4 62.1 63.1C62.2 63.3 62.3 63.4 62.5 63.6C63 64.1 63.8 64.8 65.4 64.8C66.5 64.8 67.5 64.5 68.3 63.9C68.3 64 68.4 64.1 68.5 64.2C68.7 64.5 69.1 64.6 69.5 64.6H71.9C72.5 64.6 73 64.2 73.1 63.6L73.3 62.5L73.7 60.1H74.3L74 62V63.2C73.9 63.6 74 63.9 74.3 64.2C74.6 64.5 74.9 64.6 75.3 64.6H77.4C77.7 64.6 77.9 64.5 78.1 64.4C78.3 64.5 78.5 64.6 78.8 64.6H80.5C80.7 64.6 81 64.5 81.2 64.4C81.4 64.5 81.6 64.6 81.9 64.6H84C84.6 64.6 85.1 64.2 85.2 63.6L85.4 62.5L86.9 53.9L87.1 52.8C87.1 52.7 87.1 52.6 87.1 52.5C86.9 51.9 86.4 51.3 85.7 51.3Z" fill="white"/>
<path d="M36.4 63C36 62.6 35.6 61.8 35.9 60.4V60.2C36.1 58.9 36.8 58 37.8 57.7V57.6C37.1 57.2 36.7 56.5 36.9 55.4V55.3C37.1 54.1 37.7 53.4 38.3 53C38.8 52.7 39.4 52.4 40.2 52.4C41 52.4 41.6 52.6 42 53C42.4 53.4 42.8 54 42.5 55.3V55.4C42.3 56.5 41.7 57.2 40.8 57.6V57.7C41.7 58.1 42.1 58.9 41.8 60.2V60.4C41.6 61.8 40.9 62.6 40.4 63C39.9 63.4 39.2 63.6 38.3 63.6C37.4 63.6 36.8 63.4 36.4 63ZM39.7 60.3V60.2C39.8 59.7 40 58.8 39.2 58.8C38.4 58.8 38.3 59.7 38.2 60.2V60.3C38.1 60.9 38 61.7 38.7 61.7C39.4 61.7 39.6 60.9 39.7 60.3ZM40.4 55.5C40.5 55 40.6 54.2 40 54.2C39.4 54.2 39.3 54.9 39.2 55.4V55.5C39.1 55.9 39 56.7 39.6 56.7C40.2 56.7 40.3 56 40.4 55.5Z" fill="#16182F"/>
<path d="M42.9999 63C42.5999 62.6 42.1999 61.8 42.4999 60.4V60.2C42.6999 58.9 43.3999 58 44.3999 57.7V57.6C43.6999 57.2 43.2999 56.5 43.4999 55.4V55.3C43.6999 54.1 44.2999 53.4 44.8999 53C45.3999 52.7 45.9999 52.4 46.7999 52.4C47.5999 52.4 48.1999 52.6 48.5999 53C48.9999 53.4 49.3999 54 49.0999 55.3V55.4C48.8999 56.5 48.2999 57.2 47.3999 57.6V57.7C48.2999 58.1 48.6999 58.9 48.3999 60.2V60.4C48.1999 61.8 47.4999 62.6 46.9999 63C46.4999 63.4 45.7999 63.6 44.8999 63.6C43.9999 63.6 43.3999 63.4 42.9999 63ZM46.1999 60.3V60.2C46.2999 59.7 46.4999 58.8 45.6999 58.8C44.8999 58.8 44.7999 59.7 44.6999 60.2V60.3C44.5999 60.9 44.4999 61.7 45.1999 61.7C45.8999 61.7 46.0999 60.9 46.1999 60.3ZM46.8999 55.5C46.9999 55 47.0999 54.2 46.4999 54.2C45.8999 54.2 45.7999 54.9 45.6999 55.4V55.5C45.5999 55.9 45.4999 56.7 46.0999 56.7C46.6999 56.7 46.8999 56 46.8999 55.5Z" fill="#16182F"/>
<path d="M49 61.2H51.1L50.7 63.4H48.6L49 61.2Z" fill="#16182F"/>
<path d="M52.3 55.6L52.5 54.3C54 53.8 54.8 53.1 55.1 52.5H56.6L56.4 53.6L54.9 62.3L54.7 63.4H52.4L52.6 62.3L53.8 55.6H52.3Z" fill="#16182F"/>
<path d="M56.9 62.9C56.4 62.3 56.3 61.4 56.6 59.4L57.1 56.7C57.5 54.6 57.9 53.8 58.6 53.2C59.2 52.7 60 52.5 60.8 52.5C61.7 52.5 62.3 52.7 62.8 53.2C63.3 53.8 63.4 54.7 63.1 56.7L62.6 59.4C62.2 61.5 61.8 62.3 61.1 62.9C60.5 63.4 59.7 63.6 58.9 63.6C57.9 63.6 57.3 63.4 56.9 62.9ZM60.2 59.8L60.8 56.2C61 55.1 61.1 54.3 60.4 54.3C59.7 54.3 59.6 55 59.4 56.2L58.8 59.8C58.6 60.9 58.5 61.7 59.2 61.7C59.9 61.7 60 60.9 60.2 59.8Z" fill="#16182F"/>
<path d="M63.8 62.9C63.3 62.3 63.2 61.4 63.5 59.4L64 56.7C64.4 54.6 64.8 53.8 65.5 53.2C66.1 52.7 66.9 52.5 67.7 52.5C68.6 52.5 69.2 52.7 69.7 53.2C70.2 53.8 70.3 54.7 70 56.7L69.5 59.4C69.1 61.5 68.7 62.3 68 62.9C67.4 63.4 66.6 63.6 65.8 63.6C64.9 63.6 64.2 63.4 63.8 62.9ZM67.1 59.8L67.7 56.2C67.9 55.1 68 54.3 67.3 54.3C66.6 54.3 66.5 55 66.3 56.2L65.7 59.8C65.5 60.9 65.4 61.7 66.1 61.7C66.8 61.7 66.9 60.9 67.1 59.8Z" fill="#16182F"/>
<path d="M72.9 58.9L72.3 62.3L72.1 63.4H69.7L69.9 62.3L71.4 53.7L71.6 52.6H76.4L76 54.6H73.6L73.2 56.9H75.2L74.8 58.9H72.9Z" fill="#16182F"/>
<path d="M75.4 62.3L76.9 53.7L77.1 52.6H80.2L80.3 57.3C80.3 57.7 80.3 58.3 80.3 58.7H80.4C80.5 58.3 80.7 57.7 80.9 57.3L82.7 52.6H85.7L85.5 53.7L84 62.3L83.8 63.4H81.7L81.9 62.3L82.7 58C82.8 57.6 82.9 57 83 56.6H82.9C82.8 57 82.5 57.6 82.4 58L80.4 63.4H78.7L78.5 58C78.5 57.6 78.5 57 78.5 56.6H78.4C78.3 57 78.3 57.6 78.2 58L77.4 62.3L77.2 63.4H75.1L75.4 62.3Z" fill="#16182F"/>
</svg>
