<svg width="301" height="254" viewBox="0 0 301 254" fill="none" xmlns="http://www.w3.org/2000/svg">
<path d="M71.7318 60.1496C27.5991 104.282 27.5992 175.836 71.7319 219.968C115.865 264.101 187.418 264.101 231.551 219.969C275.684 175.836 275.684 104.282 231.551 60.1496C187.418 16.0169 115.865 16.0169 71.7318 60.1496Z" fill="#F9DC1B"/>
<path d="M182.083 95.1043C181.818 95.1043 180.926 95.7128 180.42 96.2381C179.713 96.9789 178.832 98.8611 178.545 100.271C178.216 101.87 178.549 104.084 179.312 105.351C180.057 106.586 180.684 107.044 182.204 107.448C184.131 107.966 185.934 107.584 187.064 106.428L187.805 105.668L186.611 105.555C182.888 105.214 181.372 103.68 181.157 100.033C181.062 98.4529 181.1 98.1808 181.606 96.7068C181.909 95.8261 182.124 95.1043 182.083 95.1043ZM159.576 98.3924C159.387 98.4227 159.137 98.5285 158.801 98.6684C157.78 99.0954 157.69 99.4356 157.69 102.864V105.936L158.642 106.851C159.247 107.429 159.613 107.947 159.651 108.265C159.693 108.62 159.844 108.805 160.169 108.896L160.66 109.039C160.837 109.002 161.009 108.948 161.174 108.877C161.783 108.646 162.187 107.698 162.187 106.503C162.187 105.634 162.134 105.532 161.223 104.659L160.26 103.737L160.199 101.072C160.15 98.8422 160.142 98.2904 159.576 98.3887V98.3924ZM73.9163 101.9C73.5978 101.954 73.2893 102.055 73.0016 102.202C72.0605 102.648 71.5843 103.827 71.7544 105.294C71.8262 105.899 71.9358 107.316 72 108.438L72.121 110.479L73.0659 111.375C73.9616 112.226 74.0221 112.343 74.2375 113.647C74.4076 114.675 74.4341 116.803 74.3358 122.094C74.2035 129.143 74.1997 129.169 73.7537 129.94C73.4691 130.411 73.109 130.833 72.6879 131.187C72.3478 131.452 71.8942 132.057 71.6826 132.559C71.3348 133.368 71.297 133.807 71.297 136.944C71.297 138.867 71.3726 140.644 71.4709 140.897C71.8489 141.887 72.3364 142.012 76.3352 142.122C78.361 142.178 82.3068 142.216 85.1112 142.212L90.2022 142.201L90.7503 141.653C91.0526 141.351 91.321 140.897 91.3512 140.644L91.4004 140.183L83.4142 140.092C77.1024 140.016 75.326 139.945 74.9292 139.744C73.9956 139.264 73.8671 138.648 73.8709 134.736C73.8747 130.639 73.9729 130.277 75.4205 128.901C75.8967 128.447 76.3881 127.869 76.5166 127.616C76.8341 126.985 77.0533 112.845 76.7736 111.25C76.5771 110.143 76.1575 109.512 75.1522 108.82C74.7251 108.525 74.6911 108.37 74.5739 106.348C74.3774 102.947 74.2224 101.9 73.9163 101.9ZM179.384 110.714C179.146 110.714 178.685 110.804 178.356 110.918C177.422 111.247 177.245 111.908 177.245 115.083C177.245 117.785 177.249 117.812 177.725 118.254C177.989 118.5 178.462 119.07 178.783 119.524L179.358 120.352L179.509 123.935C179.698 128.33 179.671 130.594 179.422 131.539C179.301 132.011 178.93 132.556 178.348 133.111C177.268 134.154 177.147 134.717 177.298 138.062C177.411 140.561 177.487 140.905 177.948 141.124C178.118 141.207 180.405 141.324 183.031 141.381L189.645 141.524C191.894 141.57 192.234 141.4 192.329 140.202C192.393 139.4 192.386 139.389 191.751 139.283C191.399 139.223 188.961 139.174 186.335 139.174C183.708 139.174 181.262 139.09 180.9 138.985C180.499 138.875 180.166 138.637 180.045 138.376C179.781 137.798 179.751 132.763 180.008 132.087C180.113 131.792 180.575 131.18 181.024 130.719C181.474 130.258 181.924 129.6 182.03 129.249C182.151 128.84 182.173 126.784 182.098 123.473L181.977 118.333L181.455 117.502C181.142 117.012 180.779 116.555 180.374 116.137L179.815 115.601V113.155C179.815 110.714 179.815 110.714 179.384 110.714ZM143.909 112.456L143.055 113.155C139.986 115.669 137.919 120.627 137.643 126.138C137.469 129.615 138.365 133.455 139.986 136.154C141.453 138.599 144.37 141.067 146.604 141.766C147.209 141.955 148.588 142.182 149.666 142.28C150.747 142.375 152.342 142.428 153.207 142.398C154.636 142.352 154.964 142.261 156.764 141.46L158.748 140.572L159.689 141.078L160.626 141.581L171.523 141.468L171.999 141.022C172.15 140.891 172.271 140.729 172.352 140.547C172.434 140.365 172.474 140.167 172.471 139.967V139.359H162.939L162.263 138.898C161.409 138.319 161.307 138.323 160.006 138.977C157.667 140.16 156.843 140.33 154.11 140.198C150.028 139.998 148.63 139.654 146.801 138.403C142.81 135.674 140.5 131.21 140.221 125.677C140.055 121.396 141.126 117.158 143.305 113.469L143.909 112.456ZM108.646 112.743C108.597 112.698 108.004 113.235 107.324 113.934C105.902 115.393 105.434 116.428 105.936 116.984C106.571 117.687 110.767 118.609 113.344 118.609C114.403 118.609 114.478 118.571 115.434 117.71C116.323 116.908 116.546 116.803 117.543 116.682C119.067 116.508 119.993 116.697 121.017 117.4C122.086 118.137 122.71 119.025 122.71 119.811C122.71 120.302 122.804 120.446 123.213 120.597C123.492 120.699 123.987 120.786 124.309 120.797C125.208 120.82 125.461 120.181 125.329 118.25C125.235 116.889 125.163 116.651 124.675 116.096C123.455 114.701 121.841 114.183 119.868 114.55C118.946 114.72 118.639 114.89 117.936 115.578C117.124 116.379 117.06 116.406 115.964 116.406C113.227 116.406 108.956 115.427 108.495 114.697C108.363 114.493 108.37 114.157 108.518 113.613C108.631 113.182 108.692 112.789 108.646 112.743ZM201.071 113.053C200.977 112.77 198.312 115.703 197.651 116.829C196.29 119.131 195.617 121.943 195.61 125.375C195.61 127.827 196.233 132.918 196.706 134.298C198.021 138.127 203.055 141.895 207.885 142.662C209.405 142.904 213.608 142.704 215.448 142.303C218.257 141.691 221.095 140.353 222.157 139.143C222.505 138.746 222.505 138.746 222.142 138.879C218.638 140.19 217.002 140.496 213.419 140.523C210.036 140.546 209.065 140.364 206.661 139.257C202.923 137.529 200.043 134.627 199.2 131.735C198.803 130.375 198.18 125.099 198.18 123.107C198.18 119.826 198.936 116.833 200.36 114.489C200.78 113.794 201.101 113.148 201.071 113.053ZM92.383 114.384C91.6649 114.384 90.8259 115.215 90.6634 116.084C90.55 116.689 90.6029 116.799 91.3172 117.445C92.3188 118.356 92.3566 118.375 93.9251 118.798C94.7566 119.025 95.5881 119.127 96.1361 119.074C97.1037 118.98 98.933 118.091 99.5906 117.396L100.006 116.954H98.7289C96.6804 116.954 95.1912 116.447 93.9667 115.329C93.2032 114.633 92.7912 114.384 92.383 114.384ZM214.228 116.035C213.653 116.05 213.037 116.186 212.376 116.432C211.363 116.81 210.297 117.634 210.297 118.035C210.297 118.14 210.75 118.212 211.363 118.205C211.952 118.197 212.731 118.288 213.094 118.409C214.519 118.877 216.034 121.24 216.231 123.292L216.469 125.643C216.605 126.985 216.371 128.791 215.826 130.59C215.516 131.603 215.516 131.645 215.83 131.645C216.393 131.645 217.425 130.564 217.996 129.377C218.873 127.567 219.179 125.269 218.922 122.464C218.755 120.658 218.6 119.932 218.204 119.063C217.259 116.995 215.943 115.986 214.228 116.035ZM156.185 116.432C155.187 116.484 154.235 116.87 153.483 117.528C153.018 117.936 152.64 118.329 152.64 118.405C152.64 118.477 153.32 118.534 154.152 118.53C156.004 118.518 157.043 118.957 158.143 120.204C159.126 121.319 159.591 122.657 159.783 124.91C159.927 126.614 159.904 126.913 159.5 128.311C159.307 129.013 159.067 129.701 158.782 130.371L158.51 130.904L159.02 130.715C160.796 130.042 162.422 126.72 162.387 123.84C162.35 120.9 161.771 119.108 160.433 117.808C159.617 116.973 158.512 116.482 157.346 116.436C156.959 116.406 156.571 116.402 156.185 116.432ZM107.123 123.326L106.239 123.961C104.591 125.144 103.431 127.453 102.867 130.673C102.595 132.212 102.86 134.725 103.465 136.369C103.99 137.805 105.623 139.347 107.717 140.402C110.204 141.649 110.653 141.774 113.159 141.933C116.75 142.156 117.918 142.038 119.584 141.286C121.278 140.519 121.648 140.5 122.782 141.101C123.644 141.558 123.655 141.558 128.769 141.558C132.132 141.558 134.045 141.49 134.336 141.358C134.993 141.056 135.564 139.771 135.152 139.51C135.024 139.431 132.945 139.359 130.541 139.359C126.293 139.359 126.142 139.344 125.582 138.943C124.728 138.335 123.651 138.403 121.973 139.181L120.593 139.816L117.657 139.771C113.998 139.71 113.17 139.552 110.808 138.433C108.684 137.427 106.84 135.855 106.186 134.502C105.604 133.3 105.199 129.989 105.453 128.523C105.668 127.276 106.28 125.261 106.813 124.044L107.123 123.326ZM121.055 126.142C119.252 126.138 118.432 126.384 117.653 127.162C116.689 128.126 116.784 128.357 118.103 128.22C119.312 128.092 120.321 128.391 121.376 129.192C122.29 129.887 122.574 130.59 122.487 131.951C122.404 133.293 122.581 133.41 123.625 132.699C124.694 131.974 124.959 131.441 125.05 129.865C125.118 128.583 125.084 128.364 124.694 127.786C124.322 127.321 123.862 126.933 123.341 126.644C122.581 126.229 122.207 126.146 121.055 126.142ZM231.504 141.781C227.645 141.736 227.222 141.759 226.636 142.076C225.755 142.556 225.615 143.172 225.679 146.256L225.736 148.838L226.556 149.836C227.01 150.384 227.463 151.121 227.573 151.476C227.796 152.224 227.675 170.646 227.426 173.624C227.29 175.287 227.214 175.548 226.723 176.164C225.509 177.691 225.536 177.589 225.536 180.699V183.572L226.182 184.142L226.832 184.709H232.105C237.192 184.709 237.415 184.694 238.42 184.286C240.155 183.579 240.072 183.783 240.008 180.318L239.947 177.275L239.157 176.149C238.069 174.603 237.974 173.787 238.001 166.534C238.016 163.249 237.952 156.794 237.865 152.183C237.706 143.962 237.698 143.785 237.298 143.135C236.542 141.914 236.236 141.842 231.504 141.781ZM45.9515 141.857C44.024 141.88 43.4117 141.959 42.1342 142.363C39.9988 143.04 39.9761 143.082 38.8762 143.573L37.1376 144.412L36.0718 145.444C35.486 146.011 34.7603 146.6 34.458 146.759C34.2992 147.009 34.2085 147.126 34.0573 147.364L34.1329 147.307C34.1934 147.368 33.7512 148.101 33.1502 148.94C31.5742 151.147 31.3398 151.706 30.7238 154.723C29.5295 160.566 29.6428 165.483 31.1017 171.213C32.3301 176.043 36.8806 180.918 42.0019 182.903C49.4816 185.794 58.5487 183.594 64.2671 177.498C65.6088 176.069 65.5673 175.714 63.927 174.599C63.3113 174.168 62.6184 173.86 61.886 173.692C61.3531 173.59 60.1625 173.136 59.2403 172.683C58.3144 172.229 57.3884 171.859 57.1843 171.859C56.9764 171.859 56.2847 172.294 55.646 172.827C53.3632 174.743 52.8189 174.981 50.7288 174.981C47.3008 174.981 46.3295 174.096 44.5909 169.425C43.3701 166.137 43.1282 164.799 43.1169 161.299C43.1093 158.714 43.166 158.003 43.4495 157.168C44.3566 154.511 46.0838 152.338 48.0605 151.37C49.0583 150.886 49.3455 150.833 51.001 150.833C52.6262 150.833 52.9625 150.894 53.9377 151.347C55.2416 151.96 56.4775 153.199 57.2939 154.719C58.2917 156.586 57.8608 156.431 62.1014 156.446C65.4955 156.461 65.881 156.431 66.0964 156.14C66.463 155.637 66.4252 147.42 66.0511 145.618C65.6051 143.486 65.4463 143.32 63.515 142.987C61.1906 142.586 58.6281 142.847 56.6892 143.679C54.9581 144.423 54.0624 144.491 53.5559 143.921C53.057 143.354 50.7137 142.307 49.3796 142.054C48.2432 141.904 47.0974 141.836 45.9515 141.857ZM34.0573 147.364C33.8419 147.515 33.6416 147.685 33.4375 147.848L30.7729 152.247C31.646 151.053 32.7118 149.488 34.0573 147.364ZM148.872 145.508C144.446 145.508 144.091 145.72 143.902 148.486C143.762 150.565 143.342 151.895 142.541 152.81C141.358 154.159 141.252 154.503 141.252 157.077C141.252 159.712 141.354 160.033 142.67 161.45L143.49 162.335L143.433 170.725C143.376 179.029 143.38 179.116 143.773 179.845C144.291 180.805 144.794 181.38 146.026 182.419C147.901 184.006 148.074 184.055 151.809 184.158C155.611 184.267 156.575 184.176 156.953 183.685C157.708 182.702 158.015 179.777 157.58 177.744C157.417 176.98 157.232 176.689 156.556 176.126C153.585 173.654 153.695 173.998 153.774 167.569C153.827 163.038 153.853 162.686 154.19 162.316C154.53 161.938 155.55 161.397 156.42 161.133C156.716 161.011 156.982 160.828 157.202 160.596C157.565 160.207 157.603 159.953 157.64 157.493C157.693 154.356 157.553 154.012 156.015 153.438C154.292 152.795 153.967 152.202 153.649 149.152C153.275 145.569 153.196 145.508 148.872 145.508ZM258.652 151.752L256.554 151.854C254.676 151.945 254.302 152.024 252.987 152.602C251.256 153.358 248.701 154.995 247.661 156C246.69 156.941 245.352 158.948 244.554 160.656C242.703 164.625 242.476 170.147 243.995 174.191C245.741 178.84 249.759 182.377 254.725 183.632C256.097 183.976 256.611 184.01 259.128 183.923C262.065 183.817 263.785 183.492 265.656 182.691C266.65 182.268 266.321 182.604 266.665 182.513C267.198 182.491 267.897 181.909 270.38 179.588C272.183 177.902 271.862 177.358 268.301 176.092C264.9 174.883 264.9 174.883 263.913 175.442C261.131 177.022 260.085 177.26 258.274 176.723C256.932 176.323 256.169 175.865 255.602 174.849L255.224 173.015H255.957V171.704H255.833L256.029 171.489H259.941C262.095 171.489 265.353 171.436 267.186 171.371L270.524 171.25L270.8 171.402L271.888 171.262C272.489 171.186 273.067 171.039 273.173 170.933C273.487 170.619 273.4 166.469 273.048 164.787C272.349 161.454 271.824 160.184 270.036 157.508C268.441 155.127 266.99 154.042 263.271 152.447C262.466 152.107 261.729 151.975 261.615 151.922L258.652 151.752ZM81.2712 152.209L79.6233 152.916C76.3314 154.322 74.143 156.053 72.4044 158.615C68.2659 164.727 68.572 173.575 73.1037 178.949C75.3851 181.58 78.4507 183.41 81.8495 184.169C82.2539 184.256 83.864 184.297 85.4325 184.26C89.6164 184.165 92.5342 183.303 95.1799 181.38C96.4309 180.469 98.1015 178.81 98.1015 178.481C98.1015 178.375 97.8747 178.042 97.595 177.744C97.2095 177.328 96.4574 176.969 94.4467 176.27C92.9915 175.763 91.6423 175.347 91.4495 175.347C91.253 175.347 90.5424 175.672 89.8697 176.073C88.0744 177.139 87.1862 177.415 85.9805 177.271C84.0038 177.037 82.6848 176.069 81.9213 174.293C81.4753 173.246 81.4829 173.095 82.0234 172.452L82.4769 171.919L89.4161 171.787C97.3758 171.64 99.4016 171.541 99.6586 171.288C99.7607 171.186 99.8741 170.222 99.9043 169.141C99.9686 167.048 99.5717 164.515 98.8082 162.127C98.2338 160.343 96.4385 157.44 95.0136 155.992C93.6152 154.568 93.0558 154.209 90.429 153.044L88.543 152.213H84.9109L81.2712 152.209ZM205.043 152.761C202.934 152.761 202.258 152.829 201.388 153.128C200.919 153.302 200.433 153.427 199.937 153.502C198.603 153.521 195.579 155.203 193.852 156.888C192.714 157.992 191.947 159.405 192.17 159.987C192.442 160.69 196.963 161.76 199.669 161.76C200.67 161.76 200.791 161.711 201.661 160.936C202.742 159.976 203.138 159.84 204.873 159.84C206.385 159.84 207.235 160.218 208.365 161.386C209.091 162.13 209.102 162.168 209.167 163.699C209.273 166.25 208.827 166.568 206.317 165.717C205.655 165.489 204.98 165.299 204.295 165.15C203.664 165.022 203.04 164.865 202.424 164.678C200.599 164.134 198.97 164.209 196.887 164.942C195.927 165.283 194.808 165.736 194.393 165.944C192.987 166.662 191.04 168.31 191.021 168.801C190.939 169.034 190.819 169.251 190.666 169.444C189.778 170.699 189.086 174.028 189.26 176.217C189.498 179.21 190.129 180.605 191.959 182.147C193.145 183.148 196.373 184.675 197.741 184.883C198.331 184.974 200.179 185.031 201.846 185.008C204.851 184.97 204.888 184.966 206.071 184.384C207.508 183.674 208.263 183.644 209.295 184.248C210.066 184.702 210.089 184.702 215.112 184.717C218.771 184.724 220.286 184.668 220.653 184.501C221.435 184.146 221.711 183.39 221.817 181.312C221.945 178.806 221.681 177.736 220.668 176.64C220.303 176.259 219.974 175.846 219.685 175.404C219.553 175.147 219.47 173.745 219.458 171.549C219.441 169.199 219.394 166.849 219.319 164.5L219.194 160.902L218.483 159.466C218.09 158.667 217.607 157.917 217.043 157.228C215.573 155.641 212.387 153.865 210.127 153.388C209.505 153.26 208.888 153.114 208.275 152.95C207.923 152.844 206.468 152.761 205.043 152.761ZM124.766 152.897L123.507 153.464C118.98 155.482 117.891 155.769 117.048 155.172C116.61 154.859 116.05 154.764 113.771 154.602C112.26 154.496 110.74 154.326 110.393 154.227C109.244 153.899 106.934 154.004 106.061 154.428C104.821 155.029 104.5 155.728 104.387 158.079C104.273 160.426 104.338 160.74 105.097 161.684C106.156 163.004 106.307 163.604 106.382 166.719C106.42 168.284 106.432 170.895 106.409 172.528L106.364 175.491L105.494 176.462L104.617 177.43L104.561 180.265C104.508 182.767 104.591 183.583 104.961 184.199C104.976 184.222 107.547 184.286 110.68 184.343C113.809 184.399 116.92 184.467 117.589 184.486C118.454 184.517 118.866 184.452 119.021 184.271C119.324 183.901 119.369 178.791 119.074 177.808C118.874 177.252 118.589 176.73 118.227 176.262C117.339 175.143 117.158 174.036 117.249 170.298C117.336 166.651 117.634 164.073 118.035 163.457C118.428 162.856 119.339 162.342 120.246 162.206C121.38 162.036 123.534 162.61 124.305 163.287C125.299 164.156 125.461 164.64 125.465 166.753C125.465 168.673 125.136 174.327 124.974 175.158C124.921 175.412 124.566 175.914 124.18 176.281C122.959 177.441 122.891 177.71 122.891 181.194V184.301L128.81 184.433C136.706 184.615 136.842 184.577 137.057 182.204C137.129 181.41 137.189 180.053 137.197 179.184C137.212 177.725 137.17 177.551 136.679 176.871C135.564 175.329 135.594 175.555 135.511 168.915C135.436 162.61 135.277 161.042 134.559 159.33C134.417 159.01 134.321 158.671 134.275 158.324C134.275 157.72 132.934 156.045 131.717 155.127C130.443 154.167 129.952 153.986 126.72 153.309L124.766 152.897ZM181.179 153.162C180.11 153.158 178.983 153.532 177.884 154.314C177.381 154.67 176.75 154.964 176.481 154.964C176.213 154.964 175.563 154.677 175.038 154.322C174.225 153.774 173.926 153.679 173.046 153.679C172.479 153.679 171.696 153.766 171.319 153.872C170.759 154.027 170.374 153.993 169.285 153.691C167.565 153.207 165.298 153.181 164.387 153.634C163.461 154.099 163.098 154.964 163.291 156.249C163.374 156.805 163.45 157.871 163.457 158.612C163.468 159.904 163.495 159.991 164.088 160.539C165.241 161.616 165.218 161.45 165.184 168.121C165.147 174.784 165.154 174.735 164.02 175.805C163 176.769 162.92 177.09 162.92 180.102C162.92 182.899 163.056 183.636 163.631 183.919C163.793 184.003 166.617 184.108 169.897 184.161C177.559 184.275 177.63 184.275 178.088 183.387C178.337 182.907 178.375 182.411 178.299 180.59C178.186 177.891 177.948 177.233 176.591 175.922L175.578 174.947L175.601 170.54C175.608 168.068 175.703 165.899 175.809 165.596C176.19 164.493 177.143 164.417 178.254 165.396C179.558 166.541 182.211 166.927 183.364 166.137C185.091 164.958 186.104 163.487 186.44 161.669C186.679 160.384 186.233 157.508 185.605 156.265C184.577 154.243 182.959 153.169 181.179 153.162ZM258.376 158.151C259.181 158.094 260.058 158.302 261.007 158.786C262.296 159.439 262.723 160.116 262.874 161.734C263.002 163.102 262.817 163.831 262.28 164.077C261.766 164.307 259.321 164.425 256.936 164.33L254.638 164.239L254.676 162.728C254.725 160.951 255.065 160.142 256.177 159.137C256.776 158.569 257.552 158.218 258.376 158.151ZM84.8996 158.491C85.7197 158.423 86.6079 158.631 87.5679 159.114C88.9852 159.829 89.3103 160.32 89.4237 161.911C89.5408 163.555 89.4048 164.077 88.766 164.406C88.373 164.61 87.4999 164.67 85.0508 164.663C83.2895 164.663 81.7059 164.617 81.5282 164.572C81.1805 164.481 81.1389 164.232 81.2032 162.678C81.2561 161.39 81.7323 160.335 82.6432 159.515C83.2583 158.929 84.0535 158.568 84.8996 158.491ZM205.637 171.371C205.977 171.432 206.298 171.572 206.857 171.84C208.66 172.702 209.227 173.851 208.823 175.846C208.596 176.973 208.044 177.736 207.111 178.22C206.619 178.477 204.352 178.73 203.959 178.571C203.671 178.489 203.378 178.426 203.082 178.382C202.205 178.235 201.26 177.411 200.765 176.357C200.323 175.419 200.285 174.796 200.614 173.877C201.196 172.256 202.186 171.594 204.348 171.387C204.953 171.33 205.304 171.311 205.637 171.371Z" fill="#0284C7"/>
<path d="M185.677 92.8101C183.825 92.8101 182.54 94.0195 181.633 96.6161C180.805 98.9972 180.96 101.499 182.037 103.268C182.748 104.432 183.277 104.825 184.672 105.226C187.639 106.076 189.812 105.15 190.768 102.618C191.244 101.363 191.157 97.2359 190.628 96.0075C189.88 94.2727 187.616 92.8101 185.677 92.8101ZM166.137 96.2457C162.002 96.1927 161.692 96.2116 161.14 96.5556C160.309 97.0772 160.131 97.9275 160.203 101.095L160.26 103.737L161.223 104.659C162.134 105.532 162.187 105.634 162.187 106.503C162.187 107.652 161.783 108.646 161.227 108.858C160.94 108.968 160.29 108.907 159.247 108.673C156.887 108.212 154.492 107.949 152.088 107.887C149.991 107.902 147.515 109.172 144.945 111.553C143.014 113.34 141.419 116.655 140.58 120.624C140.058 123.095 140.141 127.155 140.769 129.521C141.596 132.639 142.923 134.982 144.953 136.887C147.405 139.192 149.197 139.926 152.916 140.152C156.563 140.375 157.569 140.209 160.006 138.981C161.303 138.323 161.409 138.319 162.255 138.894L162.928 139.347L168.306 139.363C171.489 139.37 173.885 139.298 174.168 139.192C174.446 139.084 174.683 138.892 174.849 138.644C174.962 138.437 175.041 137.136 175.041 135.598C175.041 132.65 174.868 132 173.749 130.817C172.656 129.668 172.638 129.494 172.766 122.782C172.845 118.503 172.815 116.05 172.66 114.569C172.536 113.405 172.396 109.323 172.347 105.49C172.271 99.5414 172.214 98.4075 171.946 97.6894C171.455 96.359 171.247 96.3099 166.137 96.2457ZM97.8293 99.4356C96.0454 99.4545 94.7301 99.9156 93.4564 100.97C92.9689 101.374 92.2961 101.752 91.9635 101.817C91.6038 101.86 91.2389 101.815 90.9008 101.684C90.5628 101.554 90.2619 101.342 90.0246 101.068C89.7292 100.793 89.3941 100.564 89.0306 100.388C88.2029 99.9685 86.3887 99.8967 85.2511 100.237C84.3213 100.517 83.4709 100.471 82.2085 100.074C79.9144 99.3562 76.4032 99.4242 75.3374 100.214C74.5134 100.819 74.2148 101.658 74.3358 103C74.3963 103.657 74.5021 105.165 74.5701 106.348C74.6911 108.37 74.7289 108.525 75.1559 108.82C76.1575 109.512 76.5771 110.143 76.7736 111.247C77.0533 112.845 76.8341 126.985 76.5204 127.612C76.2098 128.084 75.8416 128.516 75.4243 128.897C73.9729 130.277 73.8747 130.639 73.8709 134.736C73.8671 138.644 73.9956 139.264 74.9292 139.744C75.3222 139.945 77.1062 140.02 83.4142 140.096C86.1579 140.144 88.902 140.159 91.646 140.141C91.7821 140.115 92.0996 140.092 92.3528 140.092C92.64 140.092 93.0671 139.843 93.464 139.446L94.1103 138.796L94.0158 135.636C93.9629 133.897 93.8155 132.14 93.6945 131.743C93.5433 131.252 93.0256 130.549 92.1298 129.626C91.389 128.871 90.7049 128.035 90.6029 127.774C90.3761 127.17 90.5349 116.542 90.7881 115.718C90.9194 115.346 91.1446 115.014 91.4419 114.754C92.2205 114.138 92.8139 114.274 93.9667 115.329C95.1837 116.44 96.6804 116.954 98.6911 116.954C99.8552 116.954 99.9874 116.908 101.121 116.118C102.985 114.814 104.066 113.284 104.617 111.167C105.033 109.569 105.003 109.036 104.319 105.43C104.054 104.031 103.007 102.066 102.066 101.197C101.518 100.714 100.918 100.292 100.278 99.9383C99.4319 99.4923 99.0993 99.4242 97.8293 99.4356ZM119.758 107.293C119.259 107.32 118.889 107.388 118.488 107.505C117.933 107.664 116.855 107.943 116.1 108.121C113.934 108.627 111.912 109.784 109.882 111.662C109.009 112.475 108.711 112.894 108.533 113.552C108.374 114.142 108.363 114.489 108.495 114.697C108.956 115.431 113.227 116.406 115.964 116.406C117.06 116.406 117.124 116.379 117.936 115.578C118.639 114.886 118.946 114.72 119.868 114.55C121.841 114.183 123.455 114.701 124.675 116.096C125.167 116.651 125.235 116.889 125.329 118.25C125.496 120.658 124.932 121.274 123.209 120.571C122.534 120.34 121.846 120.148 121.149 119.996C120.405 119.83 119.67 119.628 118.946 119.392C118.541 119.244 117.468 119.089 116.557 119.04C115.034 118.961 114.769 119.002 113.155 119.569C109.78 120.756 107.577 122.358 106.741 124.222C106.15 125.602 105.719 127.045 105.456 128.523C105.203 129.989 105.608 133.296 106.19 134.498C106.757 135.674 108.646 137.371 110.324 138.214C112.573 139.344 113.42 139.574 115.824 139.729C119.32 139.956 120.435 139.85 121.999 139.151C123.644 138.414 124.747 138.346 125.567 138.932C126.104 139.317 126.316 139.332 131.376 139.378C138.134 139.438 137.9 139.559 138.085 135.825C138.21 133.402 137.896 132.17 136.936 131.297C135.795 130.261 135.806 130.333 135.662 122.978C135.568 118.02 135.462 116.013 135.273 115.378C134.873 114.047 133.829 112.324 132.915 111.477C131.29 109.98 128.19 108.314 126.561 108.06C126.005 107.966 125.455 107.84 124.913 107.683C124.46 107.546 123.054 107.384 121.792 107.323C121.115 107.28 120.436 107.27 119.758 107.293ZM213.566 107.414C212.905 107.441 212.205 107.512 211.4 107.626C208.698 107.996 206.888 108.556 205.24 109.516C204.287 110.071 201.351 112.717 201.045 113.295C200.912 113.541 200.515 114.24 200.156 114.845C198.909 116.961 198.18 119.992 198.18 123.077C198.18 125.091 198.799 130.363 199.2 131.735C200.379 135.78 205.489 139.672 210.758 140.527C211.809 140.697 216.457 140.47 217.826 140.186C220.067 139.71 222.406 138.826 223.51 138.028C226.349 136.021 228.428 133.114 229.41 129.778C229.973 127.861 230.109 123.224 229.674 120.915C229.278 118.791 228.295 115.899 227.547 114.667C225.778 111.746 223.072 109.436 220.528 108.673C217.24 107.686 215.558 107.339 213.566 107.414ZM185.567 108.227C183.647 108.231 181.334 108.476 180.692 108.805C180.379 108.98 180.13 109.248 179.977 109.572C179.872 109.848 179.796 111.303 179.807 112.811L179.83 115.551L180.514 116.3C181.999 117.914 181.962 117.744 182.094 123.473C182.17 126.788 182.147 128.84 182.026 129.249C181.924 129.6 181.474 130.258 181.024 130.719C180.571 131.176 180.117 131.792 180.004 132.087C179.751 132.76 179.781 137.794 180.042 138.365C180.147 138.597 180.318 138.794 180.533 138.932C180.692 139.007 183.266 139.121 186.24 139.177C189.226 139.234 192.242 139.298 192.956 139.317C193.769 139.344 194.362 139.272 194.544 139.128C194.774 138.943 194.85 138.38 194.922 136.331C195.028 133.327 194.808 132.276 193.867 131.278C192.559 129.887 192.609 130.314 192.56 120.537C192.533 115.688 192.446 111.145 192.363 110.438C192.219 109.209 192.182 109.138 191.569 108.831C191.191 108.643 190.511 108.506 189.914 108.506C189.358 108.506 188.175 108.42 187.279 108.31C186.711 108.248 186.139 108.221 185.567 108.227ZM214.783 116.088C215.682 116.176 216.514 116.601 217.111 117.279C218.196 118.515 218.687 119.921 218.922 122.464C219.179 125.269 218.873 127.567 217.996 129.381C217.459 130.492 216.401 131.645 215.913 131.645C215.641 131.692 215.379 131.785 215.138 131.921C213.763 132.639 211.506 131.777 210.168 130.023C209.205 128.761 208.982 127.729 208.876 124.082C208.785 120.915 208.793 120.82 209.216 120.14C209.45 119.754 209.896 118.942 210.202 118.337C210.694 117.358 210.883 117.165 211.831 116.693C212.736 116.212 213.763 116.002 214.783 116.088ZM156.253 116.447C157.312 116.379 158.43 116.523 159.099 116.844C160.638 117.581 161.881 119.388 162.199 121.334C162.531 123.352 162.444 125.201 161.953 126.607C161.046 129.207 160.358 130.084 158.57 130.927C157.909 131.237 157.134 131.456 156.733 131.456C155.244 131.433 153.332 130.39 152.349 129.052C151.45 127.831 150.898 125.212 151.03 122.778C151.151 120.597 151.657 119.426 153.128 117.925C154.057 116.973 154.356 116.784 155.237 116.587C155.554 116.511 155.902 116.47 156.253 116.447ZM120.669 126.18C122.317 126.127 122.495 126.157 123.345 126.633C124.607 127.34 125.095 128.122 125.095 129.422C125.095 131.248 124.604 132.234 123.371 132.873C122.718 133.213 120.31 133.349 119.327 133.1C116.447 132.382 115.718 128.345 118.171 126.724C118.813 126.3 119.123 126.232 120.669 126.18ZM224.999 143.947C224.526 143.935 224.065 144.105 223.714 144.423L223.151 144.9V150.966L223.884 151.843C225.241 153.46 225.169 152.916 225.169 161.669C225.173 168.563 224.943 176.047 224.693 177.324C224.648 177.555 224.334 178.05 223.998 178.428C223.004 179.543 222.97 179.694 222.97 182.835C222.97 186.032 222.954 185.994 224.16 186.629C224.625 186.871 225.475 186.917 229.486 186.905C234.104 186.89 234.304 186.875 235.639 186.421C237.271 185.866 237.475 185.722 237.475 185.148V184.713H226.836L225.54 183.575V180.699C225.54 177.589 225.513 177.691 226.726 176.164C227.218 175.548 227.293 175.283 227.429 173.62C227.679 170.646 227.796 152.224 227.577 151.476C227.471 151.124 227.01 150.38 226.553 149.824L225.721 148.815V143.947H224.999ZM34.1329 147.307C33.9628 147.133 31.7329 149.511 30.7049 150.973C28.9399 153.468 28.5354 154.632 27.6888 159.647C26.9329 164.152 27.8589 172.596 29.4728 175.801C30.8258 178.5 33.4866 181.519 35.9131 183.122C38.4758 184.778 41.3857 185.822 44.417 186.172C47.4686 186.521 50.5595 186.145 53.4388 185.076C55.5402 184.29 58.3899 182.631 59.7279 181.414L60.3704 180.832L58.9947 181.561C51.0766 185.775 42.2249 184.857 36.1625 179.191C32.1033 175.4 30.5197 171.534 29.9792 164.054C29.76 161.084 29.9792 158.392 30.7276 154.723C31.3436 151.706 31.578 151.147 33.154 148.94C33.755 148.101 34.1934 147.368 34.1329 147.307ZM144.034 147.568L143.339 147.681C142.481 147.821 141.778 148.324 141.611 148.917C141.468 149.612 141.354 150.314 141.271 151.019C140.958 153.426 140.787 153.914 139.869 155.04C138.686 156.491 138.497 157.157 138.618 159.421C138.75 161.877 138.924 162.38 140.013 163.472L140.92 164.379L140.859 172.845C140.784 182.638 140.659 181.905 142.749 183.893C144.155 185.227 144.941 185.794 145.826 186.112C146.653 186.406 153.404 186.459 153.936 186.176C154.292 185.987 154.689 185.344 154.923 184.573L155.051 184.158H151.964C149.095 184.158 148.811 184.124 147.957 183.719C146.396 182.978 144.541 181.259 143.777 179.845C143.384 179.119 143.38 179.029 143.437 170.721L143.494 162.331L142.673 161.45C141.358 160.033 141.256 159.712 141.256 157.077C141.256 154.503 141.362 154.159 142.541 152.81C143.293 151.96 143.713 150.709 143.913 148.743L144.034 147.568ZM51.0085 150.833C49.3682 150.833 49.0545 150.89 48.1323 151.344C46.8888 151.952 45.2107 153.407 45.9553 153.23C50.0183 152.247 52.955 153.528 54.8221 157.107C55.2 157.833 55.612 158.468 55.7367 158.525C56.0164 158.646 63.3336 158.578 63.4583 158.453C63.5074 158.404 63.5717 157.946 63.6095 157.444L63.6737 156.525L60.9449 156.435L58.2123 156.34L57.4564 155.017C56.2999 152.992 55.491 152.134 54.0851 151.442C52.9361 150.875 52.7244 150.833 51.0085 150.833ZM162.962 155.471C162.857 155.467 162.752 155.473 162.648 155.49C161.745 155.596 161.106 156.034 160.793 156.76C160.539 157.338 160.528 157.637 160.702 158.687C160.815 159.368 160.902 160.418 160.902 161.012C160.902 162.051 160.94 162.13 161.685 162.841L162.463 163.586L162.52 169.784C162.55 173.193 162.527 176.171 162.471 176.402C162.41 176.632 161.957 177.271 161.462 177.819C160.279 179.123 160.112 179.785 160.199 182.808C160.275 185.42 160.365 185.673 161.363 186.108C161.779 186.293 163.453 186.353 168.284 186.357C174.633 186.365 174.656 186.361 175.128 185.953C175.439 185.659 175.645 185.271 175.714 184.849L175.828 184.161H170.026C166.167 184.161 164.077 184.093 163.778 183.957C163.049 183.625 162.924 183.05 162.924 180.102C162.924 177.09 163.004 176.769 164.024 175.805C165.158 174.735 165.15 174.784 165.188 168.125C165.222 161.45 165.245 161.616 164.092 160.539C163.502 159.991 163.472 159.904 163.457 158.612C163.448 157.854 163.403 157.097 163.321 156.344C163.23 155.675 163.2 155.494 162.962 155.471ZM104.47 156.227L104.009 156.34C103.596 156.462 103.214 156.671 102.889 156.953C102.564 157.235 102.304 157.585 102.127 157.977C101.858 158.566 101.787 159.179 101.779 160.823V162.917L102.505 163.861C103.805 165.547 103.797 165.506 103.797 171.814V177.475L101.96 179.645V182.612C101.96 185.341 101.991 185.62 102.342 186.066L102.724 186.554L116.557 186.455L116.655 185.503C116.742 184.656 116.708 184.535 116.379 184.449C116.175 184.396 113.598 184.35 110.65 184.346C104.863 184.346 104.859 184.347 104.61 183.349C104.553 183.114 104.534 181.686 104.564 180.174L104.625 177.43L105.494 176.462L106.367 175.491L106.413 172.528C106.435 170.895 106.424 168.283 106.386 166.719C106.311 163.604 106.159 163.003 105.101 161.684C104.345 160.743 104.285 160.437 104.383 158.151L104.47 156.227ZM246.739 156.85C246.539 156.877 245.809 157.436 245.091 158.158C243.319 159.935 241.863 162.452 241.021 165.192C240.56 166.692 240.522 167.048 240.514 170.204C240.503 173.22 240.552 173.764 240.926 175.056C242.151 179.297 245.046 182.714 249.139 184.762C250.624 185.507 251.615 185.809 253.172 185.998C257.348 186.501 262.091 185.582 265.153 183.681C266.442 182.876 266.793 182.57 266.623 182.4C266.574 182.355 266.147 182.479 265.674 182.684C263.788 183.492 262.076 183.817 259.136 183.923C256.615 184.01 256.101 183.976 254.729 183.632C248.644 182.094 244.316 177.434 243.235 171.254C242.854 169.062 242.982 165.592 243.53 163.506C243.972 161.817 245.103 159.334 245.987 158.101C246.323 157.64 246.66 157.149 246.743 157.013C246.811 156.888 246.803 156.839 246.739 156.85ZM73.2208 157.172C73.115 157.232 72.9449 157.349 72.7181 157.504C70.5147 159.02 68.2696 162.656 67.3966 166.11C66.8183 168.416 66.8259 172.921 67.4117 175.072C68.1676 177.838 69.2637 179.758 71.2744 181.837C73.6157 184.274 76.6847 185.885 80.0202 186.429C80.3226 186.478 81.6454 186.489 82.9569 186.452C85.8067 186.376 88.2331 185.821 90.4819 184.74C91.8501 184.078 94.0082 182.574 93.8344 182.396C93.789 182.358 93.2297 182.563 92.5796 182.85C90.2211 183.919 88.4334 184.248 84.9752 184.248C82.0271 184.252 81.7663 184.222 80.2923 183.73C76.1802 182.355 72.9903 179.641 71.1912 175.99C68.5304 170.597 69.0444 163.446 72.4422 158.581C73.3267 157.315 73.5459 156.994 73.2208 157.172ZM192.779 157.769C192.624 157.61 190.231 160.037 189.902 160.683C189.29 161.881 189.407 162.27 190.511 162.75C191.04 162.985 191.683 163.223 191.936 163.279C193.002 163.536 196.297 163.96 197.208 163.96C198.127 163.96 198.255 163.903 199.106 163.109C199.748 162.508 200.239 162.217 200.795 162.108C202.881 161.707 204.14 162.032 205.478 163.325C206.332 164.156 206.442 164.345 206.442 165.014C206.442 165.668 206.506 165.793 206.948 165.952C207.224 166.054 207.719 166.141 208.044 166.152C208.982 166.175 209.25 165.596 209.171 163.699C209.106 162.168 209.095 162.13 208.369 161.386C207.235 160.214 206.393 159.844 204.881 159.84C203.142 159.84 202.745 159.976 201.668 160.936C200.795 161.711 200.674 161.76 199.673 161.76C196.94 161.76 192.442 160.69 192.17 159.972C192.11 159.821 192.238 159.277 192.457 158.767C192.673 158.256 192.817 157.807 192.779 157.769ZM258.24 158.147C257.409 158.256 256.66 158.683 255.927 159.436L255.009 160.381L256.294 160.475C257.768 160.581 259.189 161.193 259.752 161.975C260.002 162.411 260.156 162.896 260.202 163.397L260.289 164.33H260.992C262.594 164.33 263.059 163.688 262.881 161.737C262.73 160.112 262.299 159.439 261.011 158.786C259.971 158.256 259.068 158.045 258.24 158.151V158.147ZM85.629 158.495C85.0979 158.453 84.5635 158.503 84.0492 158.642C83.3764 158.861 81.7626 160.173 81.7626 160.498C81.7626 160.585 82.167 160.656 82.6621 160.656C83.796 160.656 85.4363 161.272 86.075 161.941C86.4038 162.285 86.6268 162.803 86.7742 163.57C86.9859 164.682 86.9972 164.697 87.5982 164.697C88.441 164.697 89.2611 164.232 89.4048 163.669C89.6202 162.811 89.3632 160.66 88.9852 160.135C88.5052 159.473 86.7175 158.6 85.629 158.495ZM154.878 161.76C154.67 161.76 154.008 162.512 153.865 162.905C153.713 163.332 153.952 163.313 154.545 162.849C154.995 162.493 155.218 161.76 154.878 161.76ZM120.873 162.134C119.94 162.146 119.045 162.503 118.36 163.136C117.642 163.85 117.562 164.338 118.163 164.296C118.692 164.258 120.457 164.674 121.058 164.984C121.312 165.112 121.807 165.517 122.158 165.883L122.801 166.552L122.77 169.342C122.729 173.575 122.468 177.211 122.181 177.721C121.957 178.06 121.686 178.366 121.376 178.628C120.355 179.49 120.147 180.265 120.144 183.273C120.144 184.755 120.189 186.096 120.25 186.259C120.348 186.516 121.081 186.55 126.592 186.55C131.547 186.55 132.949 186.497 133.444 186.285C134.098 186.017 134.464 185.529 134.464 184.929C134.464 184.585 134.241 184.566 128.678 184.437L122.895 184.297V181.191C122.895 177.713 122.963 177.441 124.18 176.285C124.57 175.914 124.925 175.412 124.974 175.158C125.14 174.327 125.469 168.673 125.465 166.753C125.465 164.689 125.318 164.22 124.396 163.344C123.848 162.826 121.863 162.142 120.873 162.134ZM176.753 164.716C176.33 164.753 175.998 165.067 175.797 165.638C175.279 167.119 175.722 168.019 177.147 168.382C177.555 168.488 177.971 168.605 178.073 168.639C178.526 168.809 179.705 168.714 180.314 168.457C181.058 168.147 182.57 166.972 182.57 166.704C182.57 166.609 182.207 166.534 181.758 166.534C180.299 166.534 179.112 166.148 178.258 165.4C177.691 164.897 177.177 164.674 176.753 164.716ZM190.938 168.726C190.779 168.726 190.386 168.971 189.774 169.455C188.13 170.755 186.875 173.575 186.675 176.421C186.542 178.292 186.845 180.76 187.344 181.897C188.281 184.033 192.284 186.61 195.413 187.094C195.976 187.181 197.719 187.238 199.28 187.223C202.103 187.192 202.137 187.185 203.407 186.573C204.9 185.855 205.999 185.839 206.922 186.524C207.462 186.924 207.553 186.932 212.738 186.875L217.999 186.822L218.461 186.365C218.738 186.066 218.937 185.702 219.039 185.306L219.156 184.713L214.59 184.706C210.062 184.702 210.017 184.694 209.288 184.248C208.305 183.644 207.511 183.678 206.075 184.381C204.934 184.94 204.764 184.97 202.258 185.042C198.49 185.148 197.068 184.91 194.752 183.806C190.821 181.928 189.581 180.212 189.264 176.217C189.09 174.025 189.782 170.699 190.67 169.444C191.01 168.964 191.097 168.726 190.938 168.726ZM270.527 171.25L267.19 171.371C264.776 171.446 262.36 171.485 259.945 171.489H256.037L255.572 171.995C255.065 172.539 254.975 173.121 255.334 173.484C255.504 173.654 256.158 173.688 257.862 173.616C259.125 173.56 262.095 173.469 264.469 173.412C266.2 173.386 267.93 173.317 269.658 173.204L270.527 173.095V171.25ZM205.64 171.371C205.213 171.32 204.781 171.328 204.355 171.394C202.745 171.549 202.005 171.848 201.298 172.626C200.466 173.533 200.561 173.658 202.012 173.556C203.172 173.473 203.361 173.511 204.401 174.062C206.079 174.958 206.668 176.224 206.204 177.963C206.045 178.552 206.336 178.628 207.141 178.209C208.048 177.736 208.6 176.961 208.827 175.846C209.231 173.855 208.664 172.702 206.861 171.84C206.477 171.63 206.066 171.473 205.64 171.371ZM97.1415 171.644C97.013 171.606 95.6712 171.625 94.1556 171.693C92.6438 171.761 89.4048 171.825 86.967 171.836L82.5298 171.859L82.0536 172.426C81.5774 172.989 81.498 173.265 81.6756 173.726C81.7739 173.991 84.4423 174.002 92.572 173.768C96.2571 173.666 96.7144 173.616 97.0243 173.306C97.4174 172.913 97.5005 171.757 97.1415 171.644Z" fill="#262626"/>
<path d="M117.641 47.4063H185.641V83.5781H117.641V47.4063Z" fill="#0284C7"/>
<path d="M139.096 63.4751H133.348C133.302 63.4751 133.278 63.4461 133.278 63.3882L133.296 51.1881C133.296 51.1302 133.325 51.1012 133.383 51.1012H135.362C135.42 51.1012 135.449 51.1302 135.449 51.1881L135.432 61.2868H139.096C139.154 61.2868 139.183 61.3158 139.183 61.3737V63.3882C139.183 63.4461 139.154 63.4751 139.096 63.4751ZM143.629 63.6487C142.998 63.6487 142.416 63.4866 141.884 63.1624C141.357 62.8381 140.931 62.4069 140.607 61.8686C140.289 61.3245 140.13 60.7283 140.13 60.08L140.147 54.4444C140.147 53.7845 140.306 53.1911 140.624 52.6643C140.937 52.1318 141.36 51.7062 141.892 51.3877C142.425 51.0637 143.004 50.9016 143.629 50.9016C144.277 50.9016 144.859 51.0608 145.374 51.3791C145.895 51.6975 146.312 52.1259 146.625 52.6643C146.943 53.1969 147.102 53.7902 147.102 54.4444L147.12 60.0797C147.12 60.7282 146.963 61.3216 146.651 61.8598C146.332 62.404 145.91 62.8382 145.383 63.1626C144.856 63.4865 144.272 63.6487 143.629 63.6487ZM143.629 61.504C143.988 61.504 144.3 61.3593 144.567 61.0698C144.833 60.7745 144.966 60.4445 144.966 60.0797L144.949 54.4444C144.949 54.0506 144.824 53.7177 144.576 53.4457C144.327 53.1738 144.011 53.0378 143.629 53.0378C143.264 53.0378 142.952 53.1709 142.691 53.4372C142.431 53.7034 142.3 54.0392 142.3 54.4444V60.0797C142.3 60.4676 142.431 60.8035 142.691 61.0872C142.952 61.3651 143.264 61.504 143.629 61.504ZM151.73 63.6487C151.088 63.6487 150.5 63.4866 149.968 63.1624C149.441 62.8381 149.021 62.404 148.709 61.8598C148.402 61.31 148.249 60.6993 148.249 60.0278L148.266 54.4792C148.266 53.8191 148.416 53.2229 148.717 52.6905C149.018 52.1521 149.432 51.7208 149.959 51.3965C150.492 51.0666 151.082 50.9016 151.73 50.9016C152.39 50.9016 152.978 51.0608 153.493 51.3791C154.014 51.6975 154.428 52.1288 154.735 52.6729C155.048 53.2113 155.204 53.8134 155.204 54.4792V55.2954C155.204 55.3416 155.181 55.3647 155.134 55.3647H153.137C153.091 55.3647 153.068 55.3416 153.068 55.2954V54.4792C153.068 54.0854 152.94 53.7467 152.686 53.4631C152.431 53.1796 152.113 53.0378 151.731 53.0378C151.308 53.0378 150.984 53.1825 150.758 53.4719C150.532 53.7612 150.419 54.097 150.419 54.4792V60.0278C150.419 60.4619 150.547 60.8179 150.801 61.0958C151.056 61.3679 151.366 61.504 151.73 61.504C152.113 61.504 152.431 61.3535 152.685 61.0524C152.94 60.7455 153.068 60.404 153.068 60.0278V59.2028C153.068 59.1564 153.091 59.1333 153.137 59.1333H155.152C155.198 59.1333 155.221 59.1564 155.221 59.2028V60.0278C155.221 60.6934 155.065 61.3012 154.752 61.8512C154.434 62.3954 154.014 62.8324 153.493 63.1624C152.972 63.4866 152.385 63.6487 151.73 63.6487ZM155.907 63.3882L158.113 51.1707C158.124 51.1244 158.153 51.1012 158.2 51.1012H160.778C160.825 51.1012 160.854 51.1244 160.865 51.1707L162.984 63.3882C162.99 63.4461 162.967 63.4751 162.915 63.4751H160.943C160.886 63.4751 160.854 63.4461 160.848 63.3882L160.657 62.0856H158.234L158.043 63.3882C158.037 63.4461 158.008 63.4751 157.956 63.4751H155.977C155.93 63.4751 155.907 63.4461 155.907 63.3882ZM159.571 55.1911L159.467 54.5313L159.389 55.1911L158.59 60.1841H160.301L159.571 55.1911ZM169.913 63.4751H164.165C164.119 63.4751 164.095 63.4461 164.095 63.3882L164.113 51.1881C164.113 51.1302 164.142 51.1012 164.2 51.1012H166.179C166.237 51.1012 166.266 51.1302 166.266 51.1881L166.249 61.2868H169.913C169.971 61.2868 170 61.3158 170 61.3737V63.3882C170 63.4461 169.971 63.4751 169.913 63.4751Z" fill="#F9DC1B"/>
<path d="M124.451 79.9099H122.671C122.578 79.9099 122.532 79.8693 122.532 79.7882L122.515 67.6749C122.515 67.5823 122.561 67.536 122.653 67.536H124.26L127.264 74.5435L127.177 67.6751C127.177 67.5824 127.229 67.536 127.334 67.536H129.096C129.166 67.536 129.201 67.5824 129.201 67.6751L129.218 79.8056C129.218 79.875 129.189 79.9097 129.131 79.9097H127.568L124.486 73.3624L124.616 79.7708C124.616 79.8634 124.561 79.9099 124.451 79.9099ZM136.581 79.9099H130.833C130.787 79.9099 130.764 79.8809 130.764 79.823L130.781 67.6056C130.781 67.5592 130.804 67.536 130.85 67.536H136.564C136.61 67.536 136.633 67.565 136.633 67.6229V69.6114C136.633 69.6576 136.61 69.6807 136.564 69.6807H132.917V72.4595H136.564C136.61 72.4595 136.633 72.4827 136.633 72.529L136.651 74.5435C136.651 74.5898 136.628 74.613 136.581 74.613H132.917V77.7216H136.581C136.627 77.7216 136.651 77.7505 136.651 77.8083V79.8404C136.651 79.8866 136.628 79.9099 136.581 79.9099ZM142.026 79.9099H140.02C139.968 79.9099 139.942 79.8809 139.942 79.823V69.6805H137.632C137.574 69.6805 137.545 69.6516 137.545 69.5938L137.563 67.6051C137.563 67.559 137.586 67.536 137.632 67.536H144.388C144.451 67.536 144.483 67.559 144.483 67.6051V69.5938C144.483 69.6516 144.46 69.6805 144.414 69.6805H142.078L142.095 79.8227C142.095 79.8805 142.072 79.9099 142.026 79.9099ZM149.138 79.9099H146.984C146.932 79.9099 146.903 79.8809 146.897 79.823L144.796 67.6056C144.784 67.5592 144.802 67.536 144.848 67.536H146.845C146.891 67.536 146.92 67.5592 146.932 67.6056L148.069 75.6376L149.242 67.6056C149.253 67.5592 149.288 67.536 149.346 67.536H150.952C150.999 67.536 151.028 67.5592 151.039 67.6056L152.194 75.6376L153.349 67.6056C153.36 67.5592 153.389 67.536 153.436 67.536H155.415C155.473 67.536 155.496 67.5592 155.485 67.6056L153.366 79.823C153.36 79.8461 153.343 79.8664 153.314 79.8837L153.279 79.9099H151.126C151.091 79.9099 151.062 79.8809 151.039 79.823L150.127 73.4407L149.224 79.823C149.218 79.8808 149.19 79.9099 149.138 79.9099ZM159.818 80.0835C159.187 80.0835 158.605 79.9214 158.073 79.5972C157.546 79.273 157.12 78.8417 156.796 78.3034C156.478 77.7593 156.318 77.1631 156.318 76.5148L156.336 70.8792C156.336 70.2192 156.495 69.6258 156.813 69.0991C157.126 68.5666 157.549 68.1411 158.081 67.8225C158.614 67.4985 159.193 67.3364 159.818 67.3364C160.466 67.3364 161.048 67.4956 161.563 67.814C162.084 68.1323 162.501 68.5607 162.814 69.0991C163.132 69.6317 163.291 70.225 163.291 70.8792L163.309 76.5145C163.309 77.163 163.152 77.7564 162.84 78.2946C162.521 78.8388 162.099 79.273 161.572 79.5972C161.045 79.9214 160.46 80.0835 159.818 80.0835ZM159.818 77.9386C160.177 77.9386 160.489 77.7938 160.756 77.5044C161.022 77.2092 161.155 76.8793 161.155 76.5145L161.138 70.8792C161.138 70.4854 161.013 70.1526 160.764 69.8806C160.515 69.6084 160.2 69.4723 159.818 69.4723C159.453 69.4723 159.141 69.6056 158.88 69.872C158.62 70.1383 158.489 70.474 158.489 70.8792V76.5145C158.489 76.9024 158.62 77.2383 158.88 77.522C159.141 77.7999 159.453 77.9386 159.818 77.9386ZM166.48 79.9097H164.465C164.419 79.9097 164.396 79.8808 164.396 79.823L164.43 67.6056C164.43 67.5592 164.453 67.536 164.5 67.536H168.095C168.737 67.536 169.328 67.6923 169.866 68.005C170.404 68.3176 170.833 68.7373 171.151 69.2639C171.475 69.7908 171.638 70.387 171.638 71.0526C171.638 71.4869 171.571 71.8806 171.438 72.2339C171.305 72.5869 171.148 72.8849 170.969 73.128C170.795 73.3713 170.636 73.5507 170.491 73.6663C171.134 74.3784 171.455 75.2149 171.455 76.1759L171.473 79.823C171.473 79.8808 171.444 79.9097 171.386 79.9097H169.371C169.325 79.9097 169.302 79.8924 169.302 79.8577V76.1759C169.302 75.7475 169.151 75.377 168.85 75.0646C168.549 74.7518 168.179 74.5954 167.739 74.5954H166.566L166.549 79.823C166.549 79.8808 166.526 79.9097 166.48 79.9097ZM168.095 69.6636H166.566V72.4597H168.095C168.46 72.4597 168.784 72.3236 169.067 72.0515C169.357 71.7793 169.501 71.4464 169.501 71.0528C169.501 70.6765 169.362 70.3524 169.085 70.0804C168.807 69.8025 168.477 69.6636 168.095 69.6636ZM175.3 79.9097H173.286C173.239 79.9097 173.216 79.8808 173.216 79.823L173.251 67.6229C173.251 67.565 173.274 67.536 173.32 67.536H175.318C175.364 67.536 175.387 67.565 175.387 67.6229V71.8343L178.174 67.6056C178.221 67.5592 178.264 67.536 178.305 67.536H180.345C180.397 67.536 180.409 67.5592 180.38 67.6056L177.306 72.5116L180.753 79.8401C180.782 79.8865 180.753 79.9097 180.666 79.9097H178.496C178.438 79.9097 178.403 79.8866 178.391 79.8404L175.986 74.613L175.37 75.5854V79.823C175.37 79.8808 175.347 79.9097 175.3 79.9097Z" fill="#F9DC1B"/>
<path d="M150.09 0.544015C126.264 0.849869 102.367 8.22568 81.8558 21.9444C58.8743 37.3148 42.3041 58.1059 31.7003 84.8706C30.4298 88.0773 29.3123 90.623 29.2135 90.5265C29.1194 90.4301 29.0017 76.356 28.9547 59.2517L28.8747 28.1533L30.3404 25.3512C32.0838 22.015 31.8603 20.2458 29.5476 19.0506C27.3995 17.9401 26.9831 18.0013 25.4491 19.6599C23.7622 21.4786 23.7763 22.8055 25.5056 25.3018L26.889 27.2969L27.3195 97.9564L25.9879 102.85C24.5457 108.163 22.7905 119.778 22.1976 127.954C21.9929 130.777 21.7083 133.287 21.5695 133.53C21.4283 133.772 20.8825 133.581 20.3554 133.106C19.1132 131.982 13.4878 130.942 11.0857 131.393C7.57306 132.052 5.89086 134.123 3.56401 140.656C2.39706 143.926 1.45361 147.333 1.46772 148.225C1.46772 148.361 1.48184 148.408 1.48654 148.51C0.518879 152.664 0.00972752 157.252 -0.00038147 161.911C-0.000381496 165.841 0.355034 169.733 1.04556 173.364C1.73609 176.996 2.7482 180.295 4.0241 183.074C5.30001 185.853 6.8147 188.057 8.48169 189.561C10.1487 191.065 11.9353 191.838 13.7396 191.837C15.1749 191.817 16.5999 191.306 17.9627 190.325C17.9086 190.525 17.9533 190.654 18.1886 190.654C20.0425 190.654 22.7764 188.207 24.2304 185.25C26.7243 180.173 27.4066 175.279 27.456 162.522C27.4632 162.319 27.4695 162.115 27.4748 161.911C27.4736 161.784 27.472 161.657 27.4701 161.53C27.4701 161.238 27.4819 161.066 27.4819 160.767C27.4701 148.705 27.376 147.496 25.9761 141.31L24.4868 134.711L25.4138 126.062C26.4914 116.025 27.2983 111.751 29.8016 102.82C35.7376 81.6356 46.6919 62.809 62.1893 47.1492C80.3642 28.7885 102.122 16.912 126.551 12.0206C167.709 3.77667 209.602 16.3896 239.425 46.0058C248.751 55.2638 254.257 62.4349 260.781 73.8222C269.797 89.5619 275.321 107.196 277.365 126.782C278.189 134.673 278.182 134.995 277.168 136.984C274.631 141.964 274.239 144.458 273.977 157.226C273.719 169.917 274.377 177.288 276.29 183.106C277.283 186.13 279.965 189.466 282.179 190.428C284.12 191.275 285.454 191.393 285.129 190.918C285.872 191.217 286.626 191.377 287.381 191.395C289.7 191.391 291.979 190.051 293.995 187.508C296.011 184.965 297.693 181.306 298.879 176.888C298.773 177.526 298.827 177.662 299.185 177.105C299.98 175.872 300.874 169.785 300.77 166.331C300.761 165.741 300.733 165.151 300.686 164.562C300.734 163.621 300.762 162.675 300.77 161.727C300.77 160.299 300.722 158.873 300.629 157.459C300.69 156.937 300.747 155.749 300.777 153.942C300.855 149.194 300.671 147.794 299.606 145.025C298.678 142.608 297.755 140.19 296.837 137.769C294.731 132.226 293.642 131.593 286.696 131.888L281.438 132.113L280.906 130.438C280.612 129.521 280.104 125.726 279.775 122.011C277.963 101.577 271.528 82.0238 260.487 63.3925C241.743 31.7624 210.103 9.59261 173.765 2.62147C165.964 1.13178 158.031 0.435748 150.09 0.544015Z" fill="white"/>
<path d="M9.0341 188.6C6.30964 186.007 3.36403 179.801 2.25824 174.328C1.13129 168.727 1.13364 155.271 2.26295 149.688C3.684 142.67 7.34955 135.857 10.6104 134.17C13.3608 132.749 15.7464 133.12 18.2192 135.355C22.7529 139.449 25.5785 147.94 26.1173 159.083C26.7572 172.272 23.7034 183.706 18.2192 188.661C16.3699 190.332 15.6194 190.656 13.6031 190.656C11.5562 190.656 10.8739 190.35 9.0341 188.6ZM284.311 189.619C274.646 183.725 271.575 155.535 278.965 140.576C280.949 136.562 283.701 133.619 286.014 133.038C290.712 131.862 295.726 137.753 298.474 147.684C299.688 152.072 300.144 166.12 299.253 171.646C298.156 178.453 295.797 184.278 292.797 187.595C289.981 190.71 287.193 191.376 284.311 189.619Z" fill="#EB5C30"/>
</svg>
