<svg width="66" height="60" viewBox="0 0 66 60" fill="none" xmlns="http://www.w3.org/2000/svg">
<path fill-rule="evenodd" clip-rule="evenodd" d="M60.1325 49.0399L57.6396 55.9297C57.6117 56.0273 57.5539 56.0767 57.4667 56.0776L54.9399 56.1116C54.8523 56.1129 54.7934 56.0652 54.7626 55.9682L52.0854 49.1477C52.0551 49.0514 52.0931 49.002 52.2001 49.0002L54.9168 48.9641C55.0337 48.9626 55.1072 49.0103 55.1377 49.107L56.1758 52.4337L56.2048 52.4333L57.0946 49.0806C57.1227 48.9833 57.1952 48.9336 57.3118 48.9319L60.0137 48.8957C60.1208 48.8944 60.1605 48.9427 60.1325 49.0399ZM51.7908 48.9478L49.4396 48.9793C49.3812 48.98 49.3524 49.0094 49.3533 49.0678L49.4468 56.0397C49.4481 56.1366 49.3997 56.1858 49.3024 56.1871L46.5282 56.2246C46.4309 56.2259 46.3814 56.1775 46.3803 56.0804L46.2863 49.1087C46.2857 49.0506 46.2556 49.0218 46.1978 49.0227L43.8462 49.054C43.7487 49.0553 43.6998 49.0074 43.6981 48.9103L43.6658 46.489C43.6643 46.392 43.7125 46.3426 43.81 46.3413L51.7546 46.2346C51.8514 46.2335 51.9007 46.2816 51.9025 46.3788L51.935 48.7996C51.9363 48.8974 51.8883 48.9462 51.7908 48.9478ZM11.5759 52.931H11.5437C5.27591 52.931 2.47504 50.2774 2.46501 44.3314L2.56315 25.0446C2.5529 18.1583 4.51567 16.7696 11.7694 15.257C18.8899 13.7726 42.5946 11.1699 44.0387 11.012C48.873 11.0348 52.9503 14.408 52.9562 18.4049L52.9911 41.5089L44.7632 42.3032C44.8751 41.9933 44.9684 41.6929 45.038 41.4039C45.1126 41.0935 45.1501 40.8509 45.1501 40.6766C45.1501 39.9311 44.8635 39.5584 44.2915 39.5584C44.0673 39.5584 43.8185 39.6582 43.5448 39.8566C43.2707 40.0559 42.9348 40.2796 42.537 40.5279C42.1388 40.7764 41.6721 41.0001 41.1373 41.1987C40.6017 41.398 39.9736 41.4969 39.2522 41.4969C38.0323 41.4969 37.1429 41.1493 36.5833 40.453C36.0233 39.7577 35.743 38.5274 35.743 36.7625C35.743 36.2657 35.7742 35.6441 35.8366 34.8983C35.8985 34.1528 36.0477 33.426 36.2847 32.7177C36.5207 32.0091 36.869 31.4071 37.3298 30.9097C37.7897 30.4124 38.4058 30.1639 39.1772 30.1639C39.6003 30.1639 39.9239 30.2512 40.1481 30.4248C40.3721 30.5989 40.54 30.8478 40.6521 31.1704C40.7638 31.4938 40.832 31.8915 40.8573 32.3633C40.8818 32.8357 40.8946 33.3702 40.8946 33.9665C40.8946 34.1902 40.9629 34.3333 41.0998 34.3952C41.2364 34.4577 41.492 34.4884 41.8651 34.4884C43.408 34.4884 44.6021 34.1715 45.4487 33.5379C46.2944 32.9041 46.7179 31.9161 46.7179 30.574C46.7179 29.8285 46.5742 29.1328 46.2885 28.4864C46.0019 27.8404 45.573 27.2745 45.0007 26.7901C44.428 26.3053 43.6998 25.9202 42.817 25.6344C41.9331 25.3489 40.8817 25.2058 39.6629 25.2058C38.1694 25.2058 36.8819 25.4108 35.7991 25.8207C34.7167 26.2308 33.7892 26.7714 33.0183 27.4424C32.2465 28.1137 31.6308 28.878 31.1707 29.735C30.7098 30.5925 30.3432 31.4631 30.0693 32.3448C29.7952 33.2273 29.6151 34.0846 29.528 34.917C29.4408 35.7499 29.3976 36.4894 29.3976 37.1352C29.3976 38.9499 29.6646 40.4595 30.1997 41.6648C30.7349 42.8706 31.4132 43.8267 32.2345 44.535C33.0556 45.2438 33.9702 45.7412 34.978 46.0266C35.9801 46.3101 36.9508 46.4528 37.8912 46.4545C37.8789 46.5955 37.8735 46.7386 37.8755 46.8834L37.9561 52.8911L11.5759 52.931ZM64.5649 41.8942C63.7464 41.099 62.668 40.6821 61.5344 40.6841L55.4557 41.271L55.4215 18.4007C55.4134 13.0574 50.1809 8.55011 43.9899 8.55011H43.9709L43.839 8.55752C43.2654 8.62003 35.4261 9.47469 27.3413 10.4864L30.5663 0.774729L28.2267 0L25.1153 9.36906L20.1589 5.25692L18.5841 7.15072L23.238 11.012C18.351 11.654 13.82 12.3149 11.2654 12.8474C3.37988 14.4914 0.0854893 16.5501 0.0981382 25.0401L0 44.3238V44.3323C0.0113404 51.6716 3.89478 55.3926 11.5452 55.3926H11.5797L37.9891 55.3527L37.9952 55.7962C38.0107 56.9309 38.4695 57.9938 39.2878 58.7894C40.0921 59.5711 41.1458 60 42.2598 60C42.2795 60 42.2986 60 42.3185 60L61.7906 59.7389C64.1427 59.7073 66.0306 57.7706 65.9992 55.4213L65.8575 44.8872C65.8422 43.7527 65.3834 42.6898 64.5649 41.8942Z" fill="#FFFFFE"/>
<path fill-rule="evenodd" clip-rule="evenodd" d="M23.7085 30.0236C23.624 30.5169 23.4501 30.9794 23.1859 31.4104C22.9212 31.842 22.5551 32.2054 22.0862 32.5017C21.6175 32.7975 21.0105 32.9453 20.2655 32.9453C19.6405 32.9453 18.9075 32.8472 18.0664 32.6495C18.162 31.2935 18.2404 30.0178 18.3006 28.8215C18.3605 27.6257 18.4146 26.5965 18.4628 25.733C18.8713 25.6839 19.2559 25.6407 19.6167 25.6036C19.9771 25.5668 20.3017 25.548 20.59 25.548C21.7915 25.548 22.6328 25.8196 23.1139 26.3618C23.5943 26.9046 23.8347 27.681 23.8347 28.6921C23.8347 29.0867 23.7926 29.5303 23.7085 30.0236ZM28.3054 41.267L25.2769 36.8286C26.9112 36.0401 28.1011 34.8933 28.8461 33.3891C29.5909 31.8852 29.9638 30.1714 29.9638 28.248C29.9638 26.9906 29.8016 25.8568 29.4774 24.8453C29.1528 23.8349 28.6479 22.9716 27.9629 22.2564C27.2779 21.5413 26.3821 20.9869 25.2769 20.5919C24.1711 20.1979 22.8489 20 21.3113 20C20.8066 20 20.2351 20.0188 19.5984 20.0555C18.9616 20.0927 18.2827 20.1359 17.5615 20.185C16.8405 20.2349 16.089 20.2777 15.3081 20.3148C14.5269 20.3514 13.7635 20.3702 13.0187 20.3702C12.7782 20.3702 12.6221 20.5244 12.5501 20.8326C12.4782 21.1409 12.4062 21.8495 12.3337 22.9591C12.2855 23.8468 12.2196 25.0674 12.1357 26.6207C12.0511 28.1743 11.9133 30.1963 11.7208 32.6864C11.6245 33.8699 11.5346 35.0351 11.4508 36.1814C11.3661 37.3282 11.2884 38.3823 11.2161 39.3438C11.1441 40.3056 11.0899 41.1378 11.0541 41.8405C11.0179 42.5432 11 43.0426 11 43.3384C11 44.4236 11.282 45.2432 11.8474 45.7981C12.4115 46.3528 13.3796 46.6303 14.7495 46.6303H16.5519C16.7685 46.6303 16.9128 46.5875 16.9848 46.5008C17.0568 46.4148 17.1049 46.2729 17.1289 46.0751C17.1289 45.977 17.1525 45.675 17.2013 45.1693C17.2489 44.6639 17.297 44.0225 17.3452 43.2459C17.3932 42.4693 17.4535 41.5879 17.5255 40.6015C17.5978 39.6155 17.6698 38.58 17.7418 37.4946C18.2945 37.6186 19.0037 37.7044 19.869 37.7534C20.1574 38.962 20.4641 40.1205 20.7883 41.2305C21.1128 42.3399 21.4968 43.3198 21.9421 44.1706C22.3868 45.0211 22.891 45.7054 23.4564 46.2234C24.0207 46.7411 24.6878 47 25.4572 47C26.1538 47 26.7853 46.8889 27.35 46.6674C27.9145 46.4453 28.3954 46.1808 28.792 45.872C29.1891 45.5639 29.489 45.256 29.6933 44.9474C29.8976 44.6395 30 44.3992 30 44.2261C30 44.0042 29.8557 43.6654 29.5674 43.2092C29.2788 42.7528 28.8579 42.1056 28.3054 41.267Z" fill="#FFFFFE"/>
</svg>
