<svg width="331" height="140" viewBox="0 0 331 140" fill="none" xmlns="http://www.w3.org/2000/svg">
<path d="M301.3 113.5L306.3 123.1H296L301.3 113.5ZM328.5 139.1C329.2 139.1 329.7 138.9 330 138.4C330.3 137.9 330.3 137.3 330 136.7L308.7 96.9C308.6 96.6 308.3 96.4 308 96.2C307.7 96 307.4 95.9 307.2 95.9H297.5C297.3 95.9 297 96 296.7 96.2C296.4 96.4 296.1 96.6 296 96.8L273.4 136.6C273 137.2 273 137.8 273.3 138.3C273.6 138.8 274.2 139.1 274.9 139.1H286.3C286.6 139.1 286.9 139 287.2 138.8C287.5 138.6 287.7 138.4 287.9 138.1L290.7 132.7H311.4L314.2 138.1C314.3 138.4 314.5 138.6 314.8 138.8C315.1 139 315.4 139.1 315.7 139.1H328.5ZM275.4 95.9C275.1 95.9 274.8 96 274.5 96.2C274.2 96.4 274 96.6 273.9 96.9L264.3 118.3L254.3 96.9C254.2 96.6 253.9 96.4 253.6 96.2C253.3 96 253 95.9 252.7 95.9H240.2C239.5 95.9 239 96.1 238.7 96.6C238.4 97.1 238.4 97.6 238.6 98.3L258.5 138.8C258.6 139.1 258.8 139.3 259.2 139.5C259.5 139.7 259.8 139.8 260.1 139.8H267.3C267.6 139.8 267.8 139.7 268.2 139.5C268.5 139.3 268.7 139.1 268.9 138.8L288.9 98.3C289.2 97.7 289.2 97.1 288.9 96.6C288.6 96.1 288.1 95.9 287.4 95.9H275.4ZM235.4 139.1C235.8 139.1 236.1 138.9 236.4 138.6C236.7 138.3 236.8 137.9 236.8 137.4V97.5C236.8 97.1 236.7 96.7 236.4 96.3C236.1 96 235.8 95.8 235.4 95.8H225.2C224.8 95.8 224.5 96 224.2 96.3C223.9 96.6 223.8 97 223.8 97.5V137.4C223.8 137.8 223.9 138.2 224.2 138.6C224.5 138.9 224.8 139.1 225.2 139.1H235.4ZM207.7 139.1C208.2 139.1 208.6 138.9 208.9 138.6C209.2 138.3 209.4 137.9 209.4 137.4V106.7H220.7C221.2 106.7 221.6 106.5 221.9 106.2C222.2 105.9 222.4 105.5 222.4 105V97.5C222.4 97.1 222.2 96.7 221.9 96.3C221.6 96 221.2 95.8 220.7 95.8H182.6C182.1 95.8 181.7 96 181.4 96.3C181.1 96.6 180.9 97 180.9 97.5V105C180.9 105.5 181.1 105.9 181.4 106.2C181.7 106.5 182.1 106.7 182.6 106.7H194V137.4C194 137.8 194.2 138.2 194.5 138.6C194.8 138.9 195.2 139.1 195.7 139.1H207.7ZM157.8 105.8C159.8 105.8 161.4 106.1 162.4 106.7C163.5 107.3 164 108.3 164 109.7C164 111.3 163.3 112.4 161.9 113.1C160.5 113.8 158.5 114 155.8 114H149.2V105.8H157.8ZM154.9 123.9C156.9 123.9 158 124 158.3 124.2C158.5 124.3 158.7 124.5 158.8 124.6C159 124.8 159.1 125 159.3 125.2L159.2 125.1L166.2 138.2C166.3 138.5 166.6 138.7 166.8 138.9C167.1 139.1 167.4 139.2 167.7 139.2H181.7C182.4 139.2 182.9 138.9 183.2 138.4C183.5 137.9 183.5 137.3 183.1 136.7L175.6 124C175 123.3 174.4 122.5 173.5 121.8C172.7 121.1 171.7 120.4 170.5 119.8C171.5 119.5 172.4 119.1 173.2 118.7C174 118.3 174.8 117.8 175.4 117.4C177.9 115.5 179.2 112.5 179.2 108.3C179.2 104.6 177.7 101.6 174.6 99.3C171.7 97.2 167.9 96.2 163.2 96.2H135.6C135.2 96.2 134.8 96.4 134.4 96.7C134.1 97 133.9 97.4 133.9 97.9V137.8C133.9 138.2 134.1 138.6 134.4 139C134.7 139.3 135.1 139.5 135.6 139.5H147.8C148.3 139.5 148.7 139.3 149 139C149.3 138.7 149.5 138.3 149.5 137.8V124.2H154.9V123.9ZM117 117.5C117 120.7 116.1 123 114.3 124.6C112.5 126.2 109.8 127 106.4 127C102.9 127 100.3 126.2 98.5 124.6C96.7 123 95.8 120.6 95.8 117.5C95.8 114.4 96.7 112 98.5 110.4C100.3 108.8 102.9 108 106.4 108C109.9 108 112.5 108.8 114.3 110.4C116.1 112 117 114.3 117 117.5ZM132.2 117.5C132.2 110 130 104.4 125.6 100.7C121.2 97 114.8 95.2 106.3 95.2C97.8 95.2 91.3 97 87 100.7C82.6 104.4 80.4 110 80.4 117.5C80.4 125 82.6 130.6 87 134.3C91.4 138 97.8 139.8 106.3 139.8C114.8 139.8 121.3 138 125.6 134.3C130.1 130.6 132.2 125 132.2 117.5ZM58.5 105.8C60.5 105.7 62 106 63.1 106.7C64.2 107.5 64.8 108.5 64.8 109.9C64.8 112.8 62.6 114.1 58.1 113.9L55.3 113.8V106L58.5 105.8ZM61 123.8C67 123.9 71.6 122.8 74.7 120.5C77.8 118.2 79.3 114.6 79.3 109.7C79.3 107.2 78.9 105.1 78 103.4C77.1 101.7 75.8 100.2 74 99.1C72.2 98 70 97.2 67.4 96.7C64.8 96.2 61.7 96 58.2 96H42C41.6 96 41.2 96.2 40.8 96.5C40.5 96.8 40.3 97.2 40.3 97.7V137.6C40.3 138 40.5 138.4 40.8 138.8C41.1 139.1 41.5 139.3 42 139.3H53.7C54.2 139.3 54.6 139.1 54.9 138.8C55.2 138.5 55.4 138.1 55.4 137.6V123.8H61ZM38.6 125.2C38.6 121.5 37.4 118.5 34.9 116.2C32.7 114 28.6 112.3 22.7 111.1C21 110.8 19.6 110.5 18.4 110.1C17.2 109.8 16.2 109.4 15.3 109.1C14.4 108.8 13.9 108.3 13.9 107.7C13.9 107.1 14.3 106.6 15.2 106.4C16.1 106.1 17.4 106 19 106C21.2 106 23.6 106.4 26.3 107.2C27.7 107.6 29 108 30.2 108.5C31.4 109 32.6 109.5 33.8 110C34.4 110.3 35 110.3 35.5 109.9C36 109.5 36.2 109 36.2 108.3L35.1 98.7C35.1 98.4 34.9 98.1 34.7 97.8C34.5 97.5 34.2 97.3 33.9 97.2C33.2 97 32.3 96.8 31.3 96.5C30.3 96.3 29 96 27.6 95.8C24.7 95.3 22 95 19.4 95C13.5 95 8.89998 96.2 5.69998 98.6C2.39998 101 0.799988 104.5 0.799988 109.1C0.799988 113.1 2.09999 116.1 4.79999 118.4C7.29999 120.5 11.7 122.1 18 123.4C21.4 124.1 23.5 124.7 24.5 125.3C25.1 125.7 25.4 126.1 25.4 126.5C25.4 127.3 24.9 127.9 23.9 128.3C22.9 128.7 21.6 128.9 19.9 128.9C17.2 128.9 14.2 128.3 10.9 127.2C7.69999 126.1 5.19999 125.1 3.39999 124.2C2.79999 123.9 2.19998 123.9 1.69998 124.3C1.19998 124.6 0.999985 125.2 0.999985 125.9L1.89999 136.4C1.89999 136.7 2.09999 137 2.29999 137.3C2.59999 137.6 2.89998 137.8 3.19998 137.9C3.59998 138 4.19999 138.1 4.89999 138.3C5.69999 138.5 6.59998 138.6 7.59998 138.8V138.7C7.89998 138.8 8.19998 138.8 8.49998 138.9C8.79998 138.9 9.09998 139 9.49998 139.1C11.1 139.4 12.7 139.5 14.3 139.7C15.9 139.8 17.5 139.9 19.1 139.9C22.1 139.9 24.8 139.6 27.2 138.9C29.6 138.3 31.6 137.3 33.3 136.1C35 134.9 36.3 133.3 37.2 131.5C38.1 129.6 38.6 127.5 38.6 125.2ZM163 76.8C163 78.9 162.5 80.5 161.5 81.6C160.5 82.8 159 83.3 157.1 83.3C155.3 83.3 153.8 82.7 152.8 81.6C151.8 80.4 151.3 78.8 151.3 76.8C151.3 74.7 151.8 73.1 152.8 72C153.8 70.8 155.3 70.3 157.1 70.3C159 70.3 160.4 70.9 161.5 72C162.5 73.2 163 74.8 163 76.8ZM174.7 76.8C174.7 71.7 173.1 67.6 169.9 64.6C166.7 61.7 162.4 60.2 157.1 60.2C151.8 60.2 147.6 61.7 144.4 64.6C141.2 67.6 139.6 71.6 139.6 76.8C139.6 81.9 141.2 85.9 144.4 88.9C147.6 91.8 151.8 93.3 157.1 93.3C162.5 93.3 166.7 91.8 169.9 88.9C173.1 86 174.7 81.9 174.7 76.8ZM126.8 53.1C126.8 54.7 127.3 56 128.2 56.9C129.1 57.8 130.4 58.3 132 58.3C133.7 58.3 134.9 57.8 135.9 56.9C136.8 56 137.3 54.7 137.3 53.1C137.3 51.5 136.8 50.2 135.9 49.3C135 48.4 133.7 47.9 132 47.9C130.4 47.9 129.1 48.4 128.2 49.3C127.3 50.2 126.8 51.5 126.8 53.1ZM136.5 92.7C136.9 92.7 137.2 92.5 137.4 92.2C137.7 91.9 137.8 91.5 137.8 91V61.8C137.8 61.6 137.7 61.4 137.5 61.2C137.3 61 137.1 60.8 136.8 60.7C136.5 60.6 136.3 60.4 136 60.3C135.7 60.2 135.5 60.2 135.3 60.2H127.5C127.1 60.2 126.8 60.4 126.5 60.7C126.2 61 126.1 61.4 126.1 61.9V91C126.1 91.4 126.2 91.8 126.5 92.2C126.8 92.5 127.1 92.7 127.5 92.7H136.5ZM106.4 83C105.2 83.8 104.1 84.2 103.1 84.2C101.4 84.2 100.2 83.6 99.3 82.3C98.4 81 98 79.3 98 77.1C98 74.6 98.5 72.6 99.5 71.1C100.5 69.6 102 68.9 104 68.9C105.1 68.9 106.1 69.2 106.9 69.7C107.2 69.8 107.5 70 107.7 70.1C107.9 70.2 108.1 70.3 108.3 70.4V81.7C108.1 81.8 107.9 82 107.6 82.2C107.3 82.4 106.9 82.7 106.4 83ZM112.9 91.8C113 92 113.2 92.2 113.5 92.4C113.8 92.6 114.1 92.7 114.4 92.7H119.5C119.9 92.7 120.3 92.5 120.7 92.2C121 91.9 121.2 91.5 121.2 91V51.1C121.2 50.7 121 50.3 120.7 49.9C120.4 49.6 120 49.4 119.5 49.4H110C109.5 49.4 109.1 49.6 108.8 49.9C108.5 50.2 108.3 50.6 108.3 51.1V61.6C108 61.4 107.6 61.3 107.3 61.1C107 61 106.6 60.8 106.3 60.6C104.4 59.8 102.4 59.3 100.4 59.3C95.8 59.3 92.2 60.9 89.6 64C87.1 67 85.8 71.1 85.8 76.2C85.8 81.3 87.1 85.4 89.7 88.4C92.4 91.6 96 93.1 100.5 93.1C103.7 93.1 106.3 92.4 108.3 91.1C108.9 90.7 109.4 90.3 110 89.9C110.5 89.5 111 89.1 111.5 88.7L112.9 91.8ZM69.3 84C68.1 84.5 66.8 84.7 65.3 84.7C63.4 84.7 62.5 84.2 62.5 83.3C62.5 81.5 65.3 80.6 70.9 80.6H71.1V83.2C70.8 83.3 70.6 83.4 70.3 83.6C70 83.7 69.6 83.9 69.3 84ZM85 88.4C85.2 88.1 85.5 87.8 85.6 87.5C85.7 87.2 85.7 86.9 85.5 86.6C85.4 86.3 85.2 86.1 84.9 85.9C84.6 85.7 84.3 85.6 83.9 85.6C83.9 85.6 83.8 85.5 83.5 85.3C83.2 85.1 83.1 85 83.1 85V73.7C83.1 71.3 82.8 69.2 82.2 67.5C81.6 65.8 80.6 64.4 79.3 63.3C78 62.2 76.4 61.5 74.4 61C72.4 60.5 70.1 60.3 67.4 60.3C65.7 60.3 64.1 60.4 62.6 60.7C61.1 61 59.6 61.4 58.2 61.9C56.8 62.5 55.7 63 54.8 63.4C53.9 63.9 53.3 64.3 52.9 64.6C52.7 64.8 52.6 65.1 52.5 65.4C52.4 65.8 52.4 66.1 52.5 66.4L54.6 71.2C54.8 71.6 55.1 71.9 55.6 72.1C56.1 72.3 56.5 72.2 56.9 72C57.5 71.7 58.2 71.4 58.9 71.1C59.6 70.8 60.4 70.5 61.2 70.2C62.1 69.8 63 69.6 63.9 69.4C64.8 69.3 65.7 69.2 66.7 69.2C68 69.2 69 69.5 69.7 70C70.4 70.6 70.8 71.4 70.9 72.5L66.3 72.3C64 72.2 61.9 72.4 60 72.9C58.1 73.4 56.4 74.2 54.9 75.2C51.9 77.3 50.3 80 50.3 83.2C50.3 86.2 51.3 88.7 53.3 90.5C55.3 92.3 58.2 93.2 62 93.2C63.9 93.2 65.9 92.9 67.7 92.4C76.4 90 78 98.4 85 88.4ZM24.7 59.4C26.7 59.4 28.3 59.7 29.3 60.3C30.4 60.9 30.9 61.9 30.9 63.3C30.9 64.9 30.2 66 28.8 66.7C27.4 67.3 25.4 67.6 22.7 67.6H16.1V59.4H24.7ZM21.7 77.4C23.7 77.4 24.8 77.5 25.1 77.7C25.3 77.8 25.5 78 25.6 78.1C25.8 78.3 25.9 78.5 26.1 78.7L26 78.6L33 91.7C33.1 92 33.4 92.2 33.6 92.4C33.9 92.6 34.2 92.7 34.5 92.7H48.5C49.2 92.7 49.7 92.4 50 91.9C50.3 91.4 50.3 90.8 49.9 90.2L42.4 77.5C41.8 76.8 41.2 76 40.3 75.3C39.5 74.6 38.5 73.9 37.3 73.3C38.3 73 39.2 72.6 40 72.2C40.8 71.8 41.6 71.3 42.2 70.9C44.7 69 46 66 46 61.8C46 58.1 44.5 55.1 41.4 52.8C38.5 50.7 34.7 49.7 30 49.7H2.49998C2.09998 49.7 1.69999 49.9 1.29999 50.2C0.999988 50.5 0.799988 50.9 0.799988 51.4V91C0.799988 91.4 0.999988 91.8 1.29999 92.2C1.59999 92.5 1.99998 92.7 2.49998 92.7H14.7C15.2 92.7 15.6 92.5 15.9 92.2C16.2 91.9 16.4 91.5 16.4 91V77.4H21.7Z" fill="white"/>
<path fill-rule="evenodd" clip-rule="evenodd" d="M208.4 44.3C199.8 44.3 192.8 37.3 192.8 28.7C192.8 20.1 199.8 13.1 208.4 13.1C217 13.1 224 20.1 224 28.7C223.9 37.4 216.9 44.3 208.4 44.3Z" fill="#F58221"/>
<path fill-rule="evenodd" clip-rule="evenodd" d="M216.5 70.3C210.9 70.3 206.3 65.7 206.3 60.1C206.3 54.5 210.9 49.9 216.5 49.9C222.1 49.9 226.7 54.5 226.7 60.1C226.7 65.8 222.1 70.3 216.5 70.3Z" fill="#EE1C25"/>
<path fill-rule="evenodd" clip-rule="evenodd" d="M244.9 48.1C240.4 48.1 236.8 44.5 236.8 40C236.8 35.5 240.4 31.9 244.9 31.9C249.4 31.9 253 35.5 253 40C253 44.5 249.4 48.1 244.9 48.1Z" fill="#919BC3"/>
<path fill-rule="evenodd" clip-rule="evenodd" d="M244 18C241.1 18 238.7 15.6 238.7 12.7C238.7 9.8 241.1 7.4 244 7.4C246.9 7.4 249.3 9.8 249.3 12.7C249.3 15.6 246.9 18 244 18Z" fill="#00ADEE"/>
<path fill-rule="evenodd" clip-rule="evenodd" d="M258.9 23.8C257 23.8 255.5 22.3 255.5 20.4C255.5 18.5 257 17 258.9 17C260.8 17 262.3 18.5 262.3 20.4C262.3 22.3 260.8 23.8 258.9 23.8Z" fill="#EC008D"/>
<path fill-rule="evenodd" clip-rule="evenodd" d="M233.4 32.5C231.5 32.5 230 31 230 29.1C230 27.2 231.5 25.7 233.4 25.7C235.3 25.7 236.8 27.2 236.8 29.1C236.8 31 235.3 32.5 233.4 32.5Z" fill="#FFE700"/>
<path fill-rule="evenodd" clip-rule="evenodd" d="M230 51.8C227.3 51.8 225 49.6 225 46.8C225 44.1 227.2 41.8 230 41.8C232.7 41.8 235 44 235 46.8C235 49.6 232.7 51.8 230 51.8Z" fill="#6BCACD"/>
<path fill-rule="evenodd" clip-rule="evenodd" d="M261.7 5.5C260.3 5.5 259.2 4.4 259.2 3C259.2 1.6 260.3 0.5 261.7 0.5C263.1 0.5 264.2 1.6 264.2 3C264.2 4.4 263.1 5.5 261.7 5.5Z" fill="#8DD8F8"/>
<path fill-rule="evenodd" clip-rule="evenodd" d="M209.2 75.8C214.3 81.4 217.2 85 215.2 86.5C213.2 88 206.7 87.1 199.2 83.3C181.6 74.3 170 54.3 171 34.5C171.4 26.1 173.9 20.1 176.2 19.1C178.5 18.1 180.2 22.4 182.5 29.6C188.2 47.3 196.8 62.2 209.2 75.8Z" fill="white"/>
</svg>
