<svg width="651" height="585" viewBox="0 0 651 585" fill="none" xmlns="http://www.w3.org/2000/svg">
<path d="M0 137.691V2.30871H69.8557C82.8091 2.30871 92.7092 3.41689 99.556 5.63325C106.403 7.8496 111.923 11.9745 116.118 18.0079C120.312 23.9798 122.409 31.2753 122.409 39.8945C122.409 47.4055 120.806 53.9006 117.598 59.3799C114.391 64.7977 109.98 69.1997 104.367 72.5858C100.79 74.7405 95.8859 76.5259 89.6559 77.942C94.6522 79.6042 98.2915 81.2665 100.574 82.9288C102.116 84.0369 104.336 86.4072 107.236 90.0396C110.196 93.6719 112.17 96.4732 113.157 98.4433L133.42 137.691H86.0475L63.6566 96.3193C60.8192 90.9631 58.2902 87.4846 56.0696 85.8839C53.0472 83.7907 49.6238 82.7441 45.7995 82.7441H42.0985V137.691H0ZM42.0985 57.1636H59.7706C61.6828 57.1636 65.3837 56.5479 70.8735 55.3166C73.6492 54.7625 75.9007 53.3465 77.6278 51.0686C79.4166 48.7907 80.311 46.1741 80.311 43.219C80.311 38.8478 78.9231 35.4925 76.1474 33.153C73.3717 30.8135 68.1595 29.6438 60.5108 29.6438H42.0985V57.1636Z" fill="white"/>
<path d="M230.385 115.343H182.643L176.073 137.691H133.235L184.216 2.30871H229.923L280.903 137.691H237.047L230.385 115.343ZM221.595 86.0686L206.606 37.4011L191.71 86.0686H221.595Z" fill="white"/>
<path d="M294.967 2.30871H357.236C369.511 2.30871 379.411 3.97098 386.936 7.29551C394.523 10.6201 400.784 15.3914 405.718 21.6095C410.653 27.8276 414.231 35.0616 416.451 43.3113C418.672 51.5611 419.782 60.3034 419.782 69.5383C419.782 84.0062 418.117 95.2419 414.786 103.245C411.517 111.187 406.952 117.867 401.092 123.285C395.232 128.641 388.941 132.212 382.217 133.997C373.027 136.46 364.699 137.691 357.236 137.691H294.967V2.30871ZM336.88 32.9683V106.939H347.151C355.91 106.939 362.14 105.985 365.841 104.077C369.541 102.106 372.441 98.7203 374.538 93.9182C376.635 89.0545 377.684 81.2049 377.684 70.3694C377.684 56.0246 375.34 46.2049 370.652 40.9103C365.964 35.6157 358.192 32.9683 347.336 32.9683H336.88Z" fill="white"/>
<path d="M443.561 2.30871H485.567V137.691H443.561V2.30871Z" fill="white"/>
<path d="M510.456 70.0923C510.456 47.9903 516.624 30.7828 528.961 18.4697C541.297 6.15655 558.476 0 580.497 0C603.072 0 620.467 6.0642 632.68 18.1926C644.893 30.2595 651 47.19 651 68.9842C651 84.8065 648.317 97.7968 642.95 107.955C637.646 118.052 629.935 125.932 619.819 131.596C609.765 137.199 597.213 140 582.162 140C566.865 140 554.189 137.568 544.135 132.704C534.142 127.841 526.031 120.145 519.801 109.617C513.571 99.0897 510.456 85.9147 510.456 70.0923ZM552.369 70.277C552.369 83.9446 554.898 93.7643 559.956 99.7361C565.076 105.708 572.015 108.694 580.774 108.694C589.78 108.694 596.75 105.77 601.685 99.9208C606.619 94.0721 609.087 83.5752 609.087 68.4301C609.087 55.686 606.496 46.3896 601.315 40.5409C596.195 34.6306 589.225 31.6755 580.404 31.6755C571.954 31.6755 565.168 34.6614 560.049 40.6332C554.929 46.6051 552.369 56.4864 552.369 70.277Z" fill="white"/>
<path d="M69.6789 353.863C51.4771 344.197 38.2049 333.394 29.8624 321.453C18.4862 305.153 12.7982 286.389 12.7982 265.162C12.7982 230.287 29.1988 201.763 62 179.587C87.5963 162.529 121.44 154 163.532 154C219.275 154 260.419 164.614 286.963 185.842C313.697 207.069 327.064 233.794 327.064 266.015C327.064 284.778 321.755 302.31 311.138 318.61C303.174 330.74 290.661 342.491 273.596 353.863C296.159 364.667 312.939 378.977 323.936 396.793C335.122 414.609 340.716 434.321 340.716 455.927C340.716 476.776 335.881 496.298 326.211 514.493C316.731 532.499 304.976 546.43 290.945 556.286C277.104 566.141 259.755 573.344 238.899 577.893C218.232 582.631 196.144 585 172.633 585C128.456 585 94.7064 579.788 71.3853 569.363C48.0642 558.939 30.3364 543.587 18.2018 523.307C6.06728 503.027 0 480.377 0 455.359C0 430.909 5.68807 410.25 17.0642 393.381C28.4404 376.323 45.9786 363.151 69.6789 353.863ZM121.725 271.985C121.725 286.389 126.18 298.046 135.092 306.954C144.193 315.672 156.232 320.032 171.211 320.032C184.483 320.032 195.385 315.672 203.917 306.954C212.45 298.235 216.716 286.958 216.716 273.122C216.716 258.717 212.26 247.061 203.349 238.153C194.437 229.055 183.061 224.507 169.22 224.507C155.19 224.507 143.719 228.961 134.807 237.869C126.086 246.587 121.725 257.959 121.725 271.985ZM115.468 451.379C115.468 469.763 121.061 484.831 132.248 496.582C143.434 508.144 156.232 513.925 170.642 513.925C184.483 513.925 196.902 508.049 207.899 496.298C218.896 484.358 224.394 469.29 224.394 451.094C224.394 432.71 218.801 417.642 207.615 405.891C196.618 394.139 183.82 388.264 169.22 388.264C154.81 388.264 142.202 393.95 131.395 405.322C120.777 416.694 115.468 432.046 115.468 451.379Z" fill="#048BAB"/>
<path d="M651 154V577.893H533.826V300.131C514.865 314.535 496.474 326.192 478.651 335.1C461.018 344.008 438.835 352.537 412.101 360.687V265.73C451.538 253.031 482.159 237.774 503.963 219.958C525.768 202.142 542.832 180.156 555.156 154H651Z" fill="#048BAB"/>
</svg>
