<svg width="128" height="75" viewBox="0 0 128 75" fill="none" xmlns="http://www.w3.org/2000/svg">
<path fill-rule="evenodd" clip-rule="evenodd" d="M20.27 0L18.682 8.746L10.681 8.764L0 69.835L55.316 69.837L54.384 74.969L116.266 75L127.895 8.764L100.189 8.746L101.751 0H20.27Z" fill="#EF3824"/>
<path fill-rule="evenodd" clip-rule="evenodd" d="M27.387 13.368V28.046H29.87C31.588 28.036 32.828 27.383 33.588 26.086C34.35 24.79 34.723 22.921 34.708 20.476C34.686 17.847 34.24 15.996 33.368 14.924C32.498 13.849 31.331 13.33 29.87 13.368H27.387ZM18.627 56.789L18.62 8.837L19.308 5.254H29.87C32.19 5.217 34.104 5.372 35.615 5.719C37.125 6.066 38.436 6.839 39.546 8.037C40.872 9.567 41.823 11.167 42.398 12.843C42.974 14.52 43.323 16.053 43.449 17.445C43.574 18.837 43.624 19.873 43.599 20.552C43.566 23.762 43.225 26.297 42.576 28.159C41.924 30.02 41.162 31.421 40.286 32.366C39.412 33.308 38.619 34.006 37.911 34.46L44.515 56.79H35.1L30.196 36.546H27.386V56.79H18.626L18.627 56.789ZM56.147 14.196V47.728H58.761C59.306 47.798 60.128 47.658 61.228 47.302C62.328 46.948 63.185 45.957 63.795 44.328C64.096 43.248 64.328 41.888 64.49 40.242C64.652 38.596 64.763 36.96 64.821 35.332C64.879 33.704 64.91 32.375 64.905 31.347C64.903 26.223 64.662 22.429 64.185 19.964C63.707 17.502 63.011 15.904 62.097 15.174C61.183 14.445 60.072 14.119 58.761 14.196H56.147ZM47.386 56.767V5.234H55.753C58.243 5.181 60.456 5.344 62.388 5.727C64.323 6.107 66.142 7.025 67.848 8.477C69.842 10.311 71.308 12.612 72.242 15.384C73.18 18.155 73.78 20.908 74.04 23.644C74.302 26.38 74.417 28.613 74.384 30.344C74.407 35.425 73.92 39.922 72.921 43.836C71.923 47.747 70.275 50.95 67.979 53.444C67.172 54.294 66.043 55.05 64.588 55.714C63.134 56.379 61.301 56.731 59.088 56.767H47.386ZM100.454 16.361L93.785 19.838C93.24 17.391 92.517 15.758 91.62 14.942C90.723 14.126 89.788 13.749 88.817 13.812C87.639 13.858 86.777 14.229 86.235 14.926C85.695 15.62 85.351 16.364 85.209 17.154C85.066 17.944 85.006 18.504 85.024 18.834C85.002 20.061 85.201 21.058 85.618 21.827C86.035 22.595 86.81 23.347 87.94 24.082C89.07 24.816 90.691 25.745 92.804 26.869C93.752 27.353 94.864 28.104 96.148 29.12C97.43 30.14 98.566 31.616 99.551 33.554C100.535 35.49 101.055 38.079 101.106 41.317C101.084 46.187 99.937 50.102 97.666 53.061C95.397 56.019 92.141 57.539 87.901 57.62C84.629 57.541 82.109 56.71 80.337 55.13C78.567 53.55 77.305 51.688 76.551 49.549C75.797 47.409 75.311 45.465 75.088 43.713L82.214 40.778C82.714 43.491 83.398 45.439 84.274 46.62C85.148 47.799 86.358 48.375 87.901 48.349C89.233 48.305 90.216 47.929 90.856 47.221C91.495 46.512 91.908 45.736 92.096 44.891C92.284 44.045 92.367 43.395 92.347 42.94C92.301 41.233 91.904 39.934 91.155 39.048C90.405 38.161 89.583 37.5 88.687 37.068C85.982 35.527 83.855 34.187 82.304 33.05C80.751 31.913 79.526 30.496 78.618 28.8C78.021 27.7 77.548 26.407 77.198 24.918C76.844 23.432 76.665 21.868 76.658 20.225C76.661 17.575 77.118 15.063 78.028 12.69C78.938 10.318 80.275 8.378 82.042 6.872C83.809 5.367 85.982 4.59 88.555 4.541C91.509 4.633 93.811 5.436 95.462 6.951C97.112 8.469 98.303 10.15 99.038 11.991C99.775 13.835 100.246 15.291 100.454 16.361ZM103.824 19.315C103.828 19.834 103.94 20.29 104.16 20.684C104.38 21.079 104.675 21.388 105.048 21.609C105.42 21.832 105.838 21.946 106.302 21.949C106.762 21.946 107.177 21.832 107.551 21.609C107.923 21.388 108.219 21.079 108.442 20.684C108.664 20.29 108.778 19.834 108.783 19.315C108.778 18.796 108.664 18.338 108.443 17.945C108.219 17.551 107.923 17.242 107.551 17.021C107.177 16.797 106.761 16.684 106.302 16.681C105.839 16.684 105.42 16.797 105.048 17.021C104.675 17.242 104.379 17.551 104.16 17.945C103.94 18.338 103.828 18.796 103.824 19.315ZM103.04 19.315C103.049 18.641 103.202 18.052 103.502 17.55C103.803 17.047 104.198 16.655 104.69 16.374C105.182 16.095 105.72 15.954 106.302 15.948C106.887 15.953 107.423 16.095 107.915 16.374C108.407 16.654 108.803 17.047 109.102 17.55C109.402 18.052 109.557 18.641 109.566 19.315C109.556 19.989 109.402 20.578 109.102 21.08C108.802 21.584 108.407 21.975 107.915 22.255C107.423 22.535 106.887 22.677 106.302 22.681C105.721 22.677 105.182 22.535 104.69 22.255C104.198 21.975 103.803 21.584 103.502 21.08C103.202 20.578 103.049 19.989 103.04 19.315ZM105.708 18.064V19.109H106.338C106.558 19.117 106.74 19.089 106.885 19.02C107.032 18.955 107.107 18.803 107.112 18.564C107.102 18.355 107.019 18.219 106.862 18.154C106.707 18.088 106.536 18.059 106.346 18.064H105.708ZM105.032 21.199V17.547H106.419C106.864 17.543 107.202 17.626 107.436 17.794C107.669 17.964 107.786 18.238 107.788 18.619C107.781 18.945 107.692 19.185 107.519 19.337C107.349 19.49 107.131 19.577 106.873 19.6L107.85 21.199H107.121L106.205 19.629H105.708V21.199H105.032ZM19.192 65.94V61.361H18.005V60.341H18.069C18.498 60.341 18.84 60.251 19.095 60.073C19.349 59.895 19.519 59.627 19.605 59.27H20.515V65.94H19.192ZM21.715 64.419C21.756 64.791 21.825 65.063 21.922 65.238C22.072 65.511 22.277 65.718 22.54 65.862C22.803 66.006 23.108 66.077 23.453 66.077C23.869 66.077 24.23 65.969 24.534 65.752C24.839 65.532 25.03 65.247 25.107 64.894C25.158 64.664 25.193 64.37 25.215 64.008C25.237 63.65 25.248 63.108 25.248 62.383C25.248 61.718 25.225 61.213 25.18 60.873C25.134 60.534 25.057 60.269 24.954 60.079C24.807 59.819 24.606 59.618 24.347 59.479C24.086 59.34 23.789 59.269 23.453 59.269C23.116 59.269 22.819 59.339 22.558 59.477C22.298 59.614 22.095 59.812 21.948 60.072C21.84 60.258 21.763 60.532 21.718 60.892C21.675 61.252 21.653 61.846 21.653 62.672C21.653 63.468 21.673 64.048 21.715 64.419ZM22.994 62.196C22.994 61.426 23.027 60.944 23.092 60.746C23.156 60.545 23.275 60.446 23.453 60.446C23.627 60.446 23.745 60.541 23.809 60.734C23.874 60.927 23.905 61.378 23.905 62.088V63.165C23.905 63.924 23.875 64.403 23.809 64.603C23.745 64.803 23.627 64.903 23.453 64.903C23.275 64.903 23.156 64.803 23.092 64.603C23.027 64.403 22.994 63.923 22.994 63.165V62.196ZM26.026 64.419C26.067 64.791 26.137 65.063 26.234 65.238C26.381 65.511 26.588 65.718 26.851 65.862C27.114 66.006 27.418 66.077 27.764 66.077C28.179 66.077 28.541 65.969 28.847 65.752C29.15 65.532 29.341 65.247 29.417 64.894C29.469 64.664 29.506 64.37 29.527 64.008C29.548 63.65 29.558 63.108 29.558 62.383C29.558 61.718 29.537 61.213 29.49 60.873C29.445 60.534 29.37 60.269 29.264 60.079C29.118 59.819 28.917 59.618 28.657 59.479C28.398 59.34 28.1 59.269 27.764 59.269C27.427 59.269 27.131 59.339 26.87 59.477C26.61 59.614 26.407 59.812 26.259 60.072C26.15 60.258 26.075 60.532 26.031 60.892C25.986 61.252 25.964 61.846 25.964 62.672C25.964 63.468 25.986 64.048 26.026 64.419ZM27.306 62.196C27.306 61.426 27.337 60.944 27.403 60.746C27.466 60.545 27.588 60.446 27.764 60.446C27.939 60.446 28.056 60.541 28.121 60.734C28.186 60.927 28.219 61.378 28.219 62.088V63.165C28.219 63.924 28.186 64.403 28.121 64.603C28.056 64.803 27.939 64.903 27.764 64.903C27.588 64.903 27.466 64.803 27.403 64.603C27.337 64.403 27.306 63.923 27.306 63.165V62.196ZM30.574 62.327C30.772 62.593 31.104 62.727 31.567 62.727C32.026 62.727 32.356 62.593 32.555 62.327C32.756 62.061 32.855 61.615 32.855 60.992C32.855 60.37 32.756 59.93 32.558 59.665C32.36 59.401 32.028 59.27 31.567 59.27C31.103 59.27 30.772 59.401 30.574 59.665C30.376 59.93 30.277 60.37 30.277 60.992C30.277 61.615 30.376 62.061 30.574 62.327ZM31.286 60.297C31.339 60.166 31.433 60.099 31.566 60.099C31.696 60.099 31.789 60.166 31.844 60.296C31.899 60.427 31.927 60.659 31.927 60.994C31.927 61.33 31.899 61.566 31.844 61.698C31.789 61.83 31.696 61.897 31.567 61.897C31.433 61.897 31.339 61.83 31.286 61.697C31.231 61.566 31.203 61.33 31.203 60.994C31.203 60.659 31.231 60.428 31.286 60.297ZM32.192 66.06L35.018 59.27H34.265L31.431 66.06H32.192ZM33.894 65.665C34.092 65.928 34.424 66.06 34.887 66.06C35.351 66.06 35.683 65.928 35.88 65.665C36.077 65.402 36.176 64.959 36.176 64.335C36.176 63.711 36.076 63.266 35.878 63.002C35.678 62.738 35.348 62.604 34.888 62.604C34.426 62.604 34.096 62.738 33.897 63.002C33.694 63.266 33.596 63.712 33.596 64.336C33.596 64.959 33.694 65.401 33.894 65.665ZM34.604 63.633C34.658 63.502 34.751 63.434 34.883 63.434C35.016 63.434 35.109 63.502 35.163 63.637C35.219 63.774 35.247 64.005 35.247 64.337C35.247 64.669 35.219 64.899 35.164 65.032C35.109 65.164 35.016 65.231 34.883 65.231C34.751 65.231 34.658 65.166 34.604 65.037C34.551 64.907 34.524 64.673 34.524 64.337C34.524 64.001 34.551 63.767 34.604 63.633ZM42.891 62.311V65.94H41.936L41.876 65.53C41.735 65.71 41.58 65.843 41.413 65.929C41.243 66.017 41.053 66.059 40.842 66.059C40.599 66.059 40.375 66.011 40.171 65.911C39.967 65.809 39.789 65.664 39.638 65.475C39.448 65.242 39.317 64.929 39.239 64.535C39.163 64.143 39.124 63.477 39.124 62.535C39.124 61.867 39.151 61.331 39.206 60.929C39.259 60.526 39.342 60.225 39.455 60.024C39.62 59.734 39.837 59.514 40.11 59.369C40.382 59.223 40.702 59.15 41.073 59.15C41.659 59.15 42.1 59.327 42.394 59.682C42.69 60.036 42.839 60.565 42.839 61.271L42.835 61.39C42.832 61.443 42.83 61.485 42.83 61.516H41.516V61.434C41.516 61.048 41.478 60.771 41.406 60.607C41.333 60.442 41.212 60.358 41.047 60.358C40.852 60.358 40.717 60.46 40.643 60.662C40.571 60.864 40.534 61.339 40.534 62.082V63.194C40.534 63.935 40.568 64.402 40.635 64.595C40.705 64.789 40.835 64.886 41.022 64.886C41.21 64.886 41.347 64.801 41.432 64.63C41.516 64.46 41.559 64.185 41.559 63.802C41.559 63.715 41.557 63.649 41.556 63.602C41.555 63.557 41.552 63.512 41.549 63.469H40.998V62.311H42.891ZM45.248 65.94V63.278H45.536C45.782 63.278 45.953 63.354 46.05 63.504C46.146 63.653 46.194 63.932 46.194 64.336C46.194 64.384 46.19 64.481 46.186 64.633C46.179 64.783 46.179 64.913 46.179 65.018C46.179 65.192 46.186 65.355 46.201 65.506C46.219 65.656 46.244 65.801 46.281 65.94H47.896C47.694 65.748 47.59 65.28 47.578 64.532L47.57 64.17V64.148C47.547 63.351 47.32 62.846 46.89 62.633C47.138 62.466 47.324 62.256 47.442 61.997C47.562 61.738 47.621 61.417 47.621 61.037C47.621 60.725 47.578 60.456 47.495 60.23C47.411 60.003 47.285 59.813 47.115 59.658C46.974 59.528 46.786 59.438 46.555 59.385C46.324 59.331 45.95 59.305 45.436 59.305H43.872V65.94H45.248ZM45.248 60.453C45.27 60.453 45.301 60.453 45.34 60.45C45.379 60.447 45.406 60.446 45.423 60.446C45.711 60.446 45.916 60.504 46.034 60.623C46.151 60.74 46.21 60.943 46.21 61.225C46.21 61.53 46.15 61.748 46.034 61.877C45.916 62.005 45.711 62.069 45.424 62.069C45.406 62.069 45.379 62.068 45.34 62.065C45.3 62.062 45.27 62.06 45.248 62.06V60.453ZM49.55 65.94L49.72 64.662H50.816L50.986 65.94H52.378L51.098 59.304H49.443L48.147 65.94H49.55ZM50.267 60.575L50.665 63.469H49.868L50.268 60.574L50.267 60.575ZM52.996 65.94V59.304H54.442L55.592 63.397C55.545 62.709 55.51 62.115 55.488 61.614C55.466 61.114 55.456 60.692 55.456 60.348V59.304H56.693V65.94H55.248L54.093 61.722C54.145 62.272 54.183 62.802 54.211 63.318C54.238 63.834 54.251 64.334 54.251 64.819V65.94H52.996ZM59.274 65.94C59.832 65.94 60.246 65.885 60.514 65.777C60.784 65.671 61 65.486 61.158 65.223C61.282 65.018 61.368 64.753 61.418 64.433C61.471 64.11 61.497 63.506 61.497 62.623C61.497 61.737 61.471 61.133 61.419 60.811C61.369 60.488 61.282 60.224 61.159 60.02C61 59.759 60.785 59.574 60.515 59.467C60.246 59.358 59.832 59.304 59.274 59.304H57.748V65.94H59.274ZM59.21 60.534L59.324 60.532C59.487 60.532 59.621 60.556 59.724 60.601C59.828 60.647 59.906 60.717 59.957 60.812C60.009 60.884 60.042 61.017 60.06 61.212C60.078 61.405 60.086 61.781 60.086 62.333V62.634C60.086 63.309 60.076 63.761 60.058 63.991C60.04 64.222 60.005 64.377 59.954 64.459C59.891 64.559 59.808 64.633 59.711 64.679C59.611 64.724 59.489 64.747 59.341 64.747H59.222C59.196 64.747 59.168 64.745 59.14 64.738V60.539C59.16 60.537 59.183 60.534 59.21 60.534Z" fill="#FEFEFE"/>
<path fill-rule="evenodd" clip-rule="evenodd" d="M62.428 65.94H63.821V59.304H62.428V65.94ZM66.865 63.693H68.138V63.887C68.138 64.253 68.178 64.512 68.254 64.662C68.331 64.812 68.461 64.886 68.644 64.886C68.791 64.886 68.904 64.829 68.99 64.716C69.074 64.602 69.117 64.446 69.117 64.251C69.117 63.929 68.907 63.62 68.491 63.323C68.424 63.271 68.373 63.233 68.335 63.207C68.324 63.197 68.303 63.182 68.272 63.158C67.715 62.74 67.369 62.423 67.232 62.211C67.136 62.051 67.062 61.869 67.011 61.669C66.959 61.468 66.934 61.249 66.934 61.009C66.934 60.43 67.084 59.975 67.383 59.645C67.683 59.314 68.098 59.15 68.626 59.15C69.198 59.15 69.635 59.311 69.938 59.635C70.238 59.96 70.388 60.429 70.388 61.042C70.388 61.069 70.388 61.104 70.386 61.15C70.382 61.195 70.381 61.23 70.381 61.256H69.135V61.176C69.135 60.884 69.092 60.665 69.012 60.515C68.929 60.365 68.812 60.289 68.66 60.289C68.529 60.289 68.424 60.342 68.344 60.446C68.264 60.552 68.223 60.691 68.223 60.864C68.223 61.146 68.453 61.444 68.909 61.762C68.989 61.822 69.052 61.869 69.099 61.899L69.249 62.007C69.733 62.352 70.043 62.641 70.181 62.876C70.263 63.028 70.328 63.202 70.373 63.395C70.417 63.59 70.441 63.799 70.441 64.025C70.441 64.688 70.287 65.198 69.979 65.557C69.669 65.915 69.228 66.096 68.656 66.096C68.056 66.096 67.604 65.924 67.303 65.582C66.998 65.239 66.848 64.73 66.848 64.054C66.848 64.012 66.848 63.967 66.85 63.918C66.85 63.871 66.856 63.796 66.865 63.693ZM71.275 59.304H72.687V63.46C72.687 64.09 72.72 64.478 72.791 64.628C72.861 64.776 72.985 64.852 73.165 64.852C73.347 64.852 73.475 64.774 73.543 64.619C73.614 64.463 73.65 64.078 73.65 63.459V59.304H75.025V63.538C75.025 64.018 75.005 64.375 74.969 64.612C74.933 64.849 74.87 65.056 74.784 65.23C74.644 65.527 74.439 65.746 74.171 65.887C73.902 66.025 73.551 66.096 73.125 66.096C72.727 66.096 72.404 66.03 72.155 65.899C71.907 65.768 71.71 65.561 71.565 65.273C71.457 65.07 71.382 64.808 71.34 64.489C71.297 64.171 71.275 63.633 71.275 62.875V59.304ZM78.487 63.366H79.845C79.851 63.406 79.855 63.448 79.857 63.495C79.861 63.54 79.861 63.61 79.861 63.702C79.861 64.512 79.702 65.114 79.386 65.506C79.069 65.899 78.583 66.096 77.927 66.096C77.541 66.096 77.211 66.023 76.937 65.88C76.664 65.736 76.442 65.52 76.27 65.228C76.154 65.021 76.07 64.734 76.017 64.368C75.965 63.998 75.94 63.416 75.94 62.617C75.94 61.82 75.965 61.239 76.017 60.873C76.07 60.506 76.153 60.219 76.27 60.013C76.438 59.726 76.657 59.511 76.929 59.366C77.201 59.222 77.525 59.15 77.901 59.15C78.551 59.15 79.037 59.35 79.359 59.752C79.683 60.152 79.845 60.754 79.845 61.555V61.62L78.505 61.617C78.5 61.165 78.453 60.849 78.366 60.667C78.279 60.485 78.131 60.394 77.927 60.394C77.705 60.394 77.554 60.504 77.472 60.727C77.392 60.95 77.351 61.538 77.351 62.491V62.617C77.351 63.643 77.392 64.272 77.472 64.504C77.552 64.736 77.705 64.852 77.924 64.852C78.131 64.852 78.276 64.767 78.36 64.599C78.445 64.429 78.487 64.116 78.487 63.659V63.366ZM83.271 63.366H84.631C84.635 63.406 84.641 63.448 84.644 63.495C84.647 63.54 84.648 63.61 84.648 63.702C84.648 64.512 84.488 65.114 84.173 65.506C83.855 65.899 83.369 66.096 82.713 66.096C82.327 66.096 81.998 66.023 81.724 65.88C81.449 65.736 81.228 65.52 81.056 65.228C80.938 65.021 80.856 64.734 80.803 64.368C80.751 63.998 80.726 63.416 80.726 62.617C80.726 61.82 80.751 61.239 80.803 60.873C80.853 60.506 80.938 60.219 81.055 60.013C81.224 59.726 81.443 59.511 81.714 59.366C81.986 59.222 82.311 59.15 82.687 59.15C83.337 59.15 83.822 59.35 84.147 59.752C84.468 60.152 84.631 60.754 84.631 61.555V61.62L83.289 61.617C83.287 61.165 83.24 60.849 83.152 60.667C83.064 60.485 82.919 60.394 82.713 60.394C82.491 60.394 82.34 60.504 82.258 60.727C82.178 60.95 82.136 61.538 82.136 62.491V62.617C82.136 63.643 82.177 64.272 82.258 64.504C82.338 64.736 82.488 64.852 82.711 64.852C82.919 64.852 83.062 64.767 83.145 64.599C83.23 64.429 83.271 64.116 83.271 63.659V63.366ZM85.632 65.94V59.304H88.866V60.584H87.009V61.81H88.724V63.141H87.009V64.593H88.866V65.94H85.632ZM89.612 63.693H90.883V63.887C90.883 64.253 90.923 64.512 91 64.662C91.078 64.812 91.208 64.886 91.392 64.886C91.539 64.886 91.654 64.829 91.739 64.716C91.823 64.602 91.866 64.446 91.866 64.251C91.866 63.929 91.656 63.62 91.239 63.323C91.171 63.271 91.121 63.233 91.084 63.207L91.018 63.158C90.463 62.74 90.117 62.423 89.98 62.211C89.883 62.051 89.81 61.869 89.759 61.669C89.707 61.468 89.679 61.249 89.679 61.009C89.679 60.43 89.831 59.975 90.131 59.645C90.431 59.314 90.845 59.15 91.374 59.15C91.948 59.15 92.384 59.311 92.684 59.635C92.987 59.96 93.137 60.429 93.137 61.042C93.137 61.069 93.137 61.104 93.133 61.15C93.131 61.195 93.128 61.23 93.128 61.256H91.883V61.176C91.883 60.884 91.841 60.665 91.761 60.515C91.678 60.365 91.561 60.289 91.408 60.289C91.275 60.289 91.17 60.342 91.091 60.446C91.011 60.552 90.971 60.691 90.971 60.864C90.971 61.146 91.2 61.444 91.656 61.762C91.739 61.822 91.801 61.869 91.849 61.899L91.997 62.007C92.482 62.352 92.791 62.641 92.928 62.876C93.012 63.028 93.075 63.202 93.121 63.395C93.167 63.59 93.189 63.799 93.189 64.025C93.189 64.688 93.035 65.198 92.726 65.557C92.418 65.915 91.976 66.096 91.403 66.096C90.803 66.096 90.351 65.924 90.049 65.582C89.747 65.239 89.595 64.73 89.595 64.054L89.597 63.918C89.599 63.871 89.604 63.796 89.612 63.693ZM93.834 63.693H95.107V63.887C95.107 64.253 95.147 64.512 95.223 64.662C95.3 64.812 95.43 64.886 95.614 64.886C95.76 64.886 95.877 64.829 95.962 64.716C96.045 64.602 96.088 64.446 96.088 64.251C96.088 63.929 95.88 63.62 95.462 63.323C95.396 63.271 95.342 63.233 95.306 63.207L95.242 63.158C94.686 62.74 94.34 62.423 94.203 62.211C94.106 62.051 94.032 61.869 93.979 61.669C93.929 61.468 93.904 61.249 93.904 61.009C93.904 60.43 94.054 59.975 94.354 59.645C94.653 59.314 95.067 59.15 95.596 59.15C96.17 59.15 96.607 59.311 96.91 59.635C97.21 59.96 97.361 60.429 97.361 61.042L97.357 61.15C97.354 61.195 97.352 61.23 97.352 61.256H96.105V61.176C96.105 60.884 96.064 60.665 95.983 60.515C95.903 60.365 95.783 60.289 95.631 60.289C95.498 60.289 95.394 60.342 95.313 60.446C95.233 60.552 95.194 60.691 95.194 60.864C95.194 61.146 95.423 61.444 95.88 61.762C95.962 61.822 96.025 61.869 96.071 61.899L96.221 62.007C96.704 62.352 97.015 62.641 97.151 62.876C97.234 63.028 97.297 63.202 97.343 63.395C97.39 63.59 97.412 63.799 97.412 64.025C97.412 64.688 97.257 65.198 96.948 65.557C96.641 65.915 96.2 66.096 95.627 66.096C95.025 66.096 94.574 65.924 94.271 65.582C93.969 65.239 93.817 64.73 93.817 64.054L93.82 63.918C93.821 63.871 93.826 63.796 93.834 63.693ZM98.246 65.94H99.64V59.304H98.246V65.94Z" fill="#FEFEFE"/>
</svg>
