<svg width="413" height="98" viewBox="0 0 413 98" fill="none" xmlns="http://www.w3.org/2000/svg">
<path d="M195 3.5C189.77 7.5 186.25 12.36 186.25 15.56C186.25 18.01 190.09 21.96 196.71 26.02C199.16 27.51 201.19 29.43 201.19 30.18C201.19 31.99 198.52 35.94 194.19 40.53L190.56 44.37L197.81 43.94C201.666 43.7087 205.536 43.9607 209.33 44.69C214.56 46.18 216.16 44.48 216.16 37.54C216.16 31.54 215.09 29.65 207.52 21.86C199.95 14.07 198.88 11.4 200.8 5.86C201.392 4.18615 201.877 2.47596 202.25 0.74C202.25 -0.88 199.37 0.19 195 3.5Z" fill="#FF3200"/>
<path d="M142.51 24.09C141.12 27.72 140.7 37.96 141.87 41.37C143.15 45.21 147.1 46.17 155.95 44.57C160.32 43.93 164.17 43.72 164.59 44.14C165.01 44.56 165.66 49.05 166.08 54.14C166.176 56.8188 166.427 59.4899 166.83 62.14C167.15 59.79 174.72 52.22 179.53 49.34C181.98 47.95 184.12 46.03 184.12 45.34C184.12 43.21 179 37.44 175.48 35.74C173.67 34.74 169.29 34.14 164.7 34.03C153.7 34.03 149.98 32.43 147.31 27.03C144.32 20.89 143.79 20.57 142.51 24.09Z" fill="#FF3200"/>
<path d="M239 22.81C234.73 24.73 234 27.93 235.91 35.61C238.26 44.68 238.15 45.61 233.56 46.81C230.509 47.5639 227.382 47.9632 224.24 48H219L223.37 51.2C226.542 53.6652 229.376 56.5364 231.8 59.74C233.93 62.62 236.07 65.07 236.39 65.07C237.792 64.4982 239.133 63.7845 240.39 62.94C245.94 59.63 247.39 55.37 247.54 43.1C247.65 31.04 248.18 29.98 254.9 26.46C257.74 25 258.7 24 258 23.24C256.13 21.42 242.69 21.1 239 22.81Z" fill="#FF3200"/>
<path d="M186.57 49.16C179.1 52 171 59.51 167.37 67C164.92 72 164.37 74.68 164.17 82.15L164 91.2L137.12 91.84L141.6 85.33C144.16 81.81 146.83 78.93 147.68 78.93C148.53 78.93 151.84 81.6 155.25 84.8L161.44 90.67L160.91 84.91C160.658 80.9884 161.092 77.053 162.19 73.28C163.19 70.08 163.9 67.2 163.9 66.99C163.9 66.78 161.98 65.92 159.63 65.18C152.8 63.18 148.43 64.54 140.75 71.58C131.89 79.69 128.16 80.86 122.29 77.87C119.84 76.59 117.6 75.87 117.17 76.16C116.32 77.16 118.34 80.96 122.72 86.62L126.56 91.74H0.619995V97.08H412.44V91.74L334.88 91.53L257.42 91.21L263 85.13C269.4 78.13 273.14 76.81 279.43 79.48C282.95 80.97 283.43 80.97 283.43 79.48C283.43 77.35 275.32 68.6 271.59 66.57C265.72 63.57 262.41 65.4 258.04 74.25C253.88 82.57 252.39 82.57 242.46 74.36C238.73 71.27 237.34 70.63 237.98 72.01C240.22 77.77 239.9 91.75 237.66 91.75C237.13 91.75 236.59 87.48 236.27 82.36C235.95 74.79 235.2 71.69 232.86 66.89C229.23 59.42 221.12 52.06 213.44 49.18C205.76 46.3 194.15 46.28 186.57 49.16Z" fill="#FF3200"/>
</svg>
