<svg width="1135" height="300" viewBox="0 0 1135 300" fill="none" xmlns="http://www.w3.org/2000/svg">
<path d="M199.9 127.5C200 133.3 198.4 138.9 195.4 143.8C192.4 148.6 188 152.5 182.9 155C177.3 157.8 171.1 159.2 164.9 159.1H135.5V94.5H164.9C171.2 94.4 177.4 95.8 183 98.7C188.2 101.4 192.5 105.4 195.4 110.4C198.4 115.6 199.9 121.5 199.9 127.5Z" fill="#CE2886"/>
<path d="M315.4 159.2C312.1 153 307.1 147.9 301.1 144.4C288.3 137.2 272.7 137.2 259.8 144.4C253.7 147.9 248.7 153.1 245.3 159.2C238.3 172.5 238.3 188.4 245.3 201.8C248.7 208 253.7 213.1 259.8 216.6C272.6 223.8 288.2 223.8 301.1 216.6C307.1 213.1 312.1 207.9 315.4 201.8C322.3 188.5 322.3 172.6 315.4 159.2ZM296.3 182.6L271.7 195.1C270.1 195.9 268.2 195.3 267.4 193.8C267.2 193.3 267 192.8 267 192.3V167.7C267 165.9 268.4 164.5 270.2 164.5C270.7 164.5 271.1 164.6 271.5 164.8L296.1 177C297.7 177.7 298.4 179.6 297.6 181.2C297.4 181.7 296.9 182.3 296.3 182.6ZM315.4 159.2C312.1 153 307.1 147.9 301.1 144.4C288.3 137.2 272.7 137.2 259.8 144.4C253.7 147.9 248.7 153.1 245.3 159.2C238.3 172.5 238.3 188.4 245.3 201.8C248.7 208 253.7 213.1 259.8 216.6C272.6 223.8 288.2 223.8 301.1 216.6C307.1 213.1 312.1 207.9 315.4 201.8C322.3 188.5 322.3 172.6 315.4 159.2ZM296.3 182.6L271.7 195.1C270.1 195.9 268.2 195.3 267.4 193.8C267.2 193.3 267 192.8 267 192.3V167.7C267 165.9 268.4 164.5 270.2 164.5C270.7 164.5 271.1 164.6 271.5 164.8L296.1 177C297.7 177.7 298.4 179.6 297.6 181.2C297.4 181.7 296.9 182.3 296.3 182.6ZM315.4 159.2C312.1 153 307.1 147.9 301.1 144.4C288.3 137.2 272.7 137.2 259.8 144.4C253.7 147.9 248.7 153.1 245.3 159.2C238.3 172.5 238.3 188.4 245.3 201.8C248.7 208 253.7 213.1 259.8 216.6C272.6 223.8 288.2 223.8 301.1 216.6C307.1 213.1 312.1 207.9 315.4 201.8C322.3 188.5 322.3 172.6 315.4 159.2ZM296.3 182.6L271.7 195.1C270.1 195.9 268.2 195.3 267.4 193.8C267.2 193.3 267 192.8 267 192.3V167.7C267 165.9 268.4 164.5 270.2 164.5C270.7 164.5 271.1 164.6 271.5 164.8L296.1 177C297.7 177.7 298.4 179.6 297.6 181.2C297.4 181.7 296.9 182.3 296.3 182.6ZM315.4 159.2C312.1 153 307.1 147.9 301.1 144.4C288.3 137.2 272.7 137.2 259.8 144.4C253.7 147.9 248.7 153.1 245.3 159.2C238.3 172.5 238.3 188.4 245.3 201.8C248.7 208 253.7 213.1 259.8 216.6C272.6 223.8 288.2 223.8 301.1 216.6C307.1 213.1 312.1 207.9 315.4 201.8C322.3 188.5 322.3 172.6 315.4 159.2ZM296.3 182.6L271.7 195.1C270.1 195.9 268.2 195.3 267.4 193.8C267.2 193.3 267 192.8 267 192.3V167.7C267 165.9 268.4 164.5 270.2 164.5C270.7 164.5 271.1 164.6 271.5 164.8L296.1 177C297.7 177.7 298.4 179.6 297.6 181.2C297.4 181.7 296.9 182.3 296.3 182.6ZM315.4 159.2C312.1 153 307.1 147.9 301.1 144.4C288.3 137.2 272.7 137.2 259.8 144.4C253.7 147.9 248.7 153.1 245.3 159.2C238.3 172.5 238.3 188.4 245.3 201.8C248.7 208 253.7 213.1 259.8 216.6C272.6 223.8 288.2 223.8 301.1 216.6C307.1 213.1 312.1 207.9 315.4 201.8C322.3 188.5 322.3 172.6 315.4 159.2ZM296.3 182.6L271.7 195.1C270.1 195.9 268.2 195.3 267.4 193.8C267.2 193.3 267 192.8 267 192.3V167.7C267 165.9 268.4 164.5 270.2 164.5C270.7 164.5 271.1 164.6 271.5 164.8L296.1 177C297.7 177.7 298.4 179.6 297.6 181.2C297.4 181.7 296.9 182.3 296.3 182.6ZM315.4 159.2C312.1 153 307.1 147.9 301.1 144.4C288.3 137.2 272.7 137.2 259.8 144.4C253.7 147.9 248.7 153.1 245.3 159.2C238.3 172.5 238.3 188.4 245.3 201.8C248.7 208 253.7 213.1 259.8 216.6C272.6 223.8 288.2 223.8 301.1 216.6C307.1 213.1 312.1 207.9 315.4 201.8C322.3 188.5 322.3 172.6 315.4 159.2ZM296.3 182.6L271.7 195.1C270.1 195.9 268.2 195.3 267.4 193.8C267.2 193.3 267 192.8 267 192.3V167.7C267 165.9 268.4 164.5 270.2 164.5C270.7 164.5 271.1 164.6 271.5 164.8L296.1 177C297.7 177.7 298.4 179.6 297.6 181.2C297.4 181.7 296.9 182.3 296.3 182.6ZM315.4 159.2C312.1 153 307.1 147.9 301.1 144.4C288.3 137.2 272.7 137.2 259.8 144.4C253.7 147.9 248.7 153.1 245.3 159.2C238.3 172.5 238.3 188.4 245.3 201.8C248.7 208 253.7 213.1 259.8 216.6C272.6 223.8 288.2 223.8 301.1 216.6C307.1 213.1 312.1 207.9 315.4 201.8C322.3 188.5 322.3 172.6 315.4 159.2ZM296.3 182.6L271.7 195.1C270.1 195.9 268.2 195.3 267.4 193.8C267.2 193.3 267 192.8 267 192.3V167.7C267 165.9 268.4 164.5 270.2 164.5C270.7 164.5 271.1 164.6 271.5 164.8L296.1 177C297.7 177.7 298.4 179.6 297.6 181.2C297.4 181.7 296.9 182.3 296.3 182.6ZM315.4 159.2C312.1 153 307.1 147.9 301.1 144.4C288.3 137.2 272.7 137.2 259.8 144.4C253.7 147.9 248.7 153.1 245.3 159.2C238.3 172.5 238.3 188.4 245.3 201.8C248.7 208 253.7 213.1 259.8 216.6C272.6 223.8 288.2 223.8 301.1 216.6C307.1 213.1 312.1 207.9 315.4 201.8C322.3 188.5 322.3 172.6 315.4 159.2ZM296.3 182.6L271.7 195.1C270.1 195.9 268.2 195.3 267.4 193.8C267.2 193.3 267 192.8 267 192.3V167.7C267 165.9 268.4 164.5 270.2 164.5C270.7 164.5 271.1 164.6 271.5 164.8L296.1 177C297.7 177.7 298.4 179.6 297.6 181.2C297.4 181.7 296.9 182.3 296.3 182.6ZM315.4 159.2C312.1 153 307.1 147.9 301.1 144.4C288.3 137.2 272.7 137.2 259.8 144.4C253.7 147.9 248.7 153.1 245.3 159.2C238.3 172.5 238.3 188.4 245.3 201.8C248.7 208 253.7 213.1 259.8 216.6C272.6 223.8 288.2 223.8 301.1 216.6C307.1 213.1 312.1 207.9 315.4 201.8C322.3 188.5 322.3 172.6 315.4 159.2ZM296.3 182.6L271.7 195.1C270.1 195.9 268.2 195.3 267.4 193.8C267.2 193.3 267 192.8 267 192.3V167.7C267 165.9 268.4 164.5 270.2 164.5C270.7 164.5 271.1 164.6 271.5 164.8L296.1 177C297.7 177.7 298.4 179.6 297.6 181.2C297.4 181.7 296.9 182.3 296.3 182.6Z" fill="#CE2886"/>
<path d="M243.7 31.9C205.5 31.9 162.9 43.1 124.2 60.5L171.7 18.2C171.3 17.8 170.9 17.3 170.5 16.8L68.3 91.8C27.9 119.6 0 153 0 182.5C0 248.2 85.3 295.4 190.6 295.4C295.9 295.4 339.3 247.8 351.7 183.3C364.7 115.5 349 31.9 243.7 31.9ZM216.6 233.1C214.9 234.3 212.9 235 210.8 234.9C209.4 235 208 234.6 206.8 233.9C205.6 233.1 204.7 232.1 204 230.9L168.2 174H135.4V227.1C135.5 231.4 132.2 235 127.9 235.1C123.6 235.2 120 231.9 119.9 227.6C119.9 227.4 119.9 227.3 119.9 227.1V87.3C119.8 83.2 123 79.7 127.2 79.5C127.4 79.5 127.5 79.5 127.7 79.5H164.9C173.9 79.3 182.8 81.4 190.8 85.6C198.2 89.5 204.4 95.4 208.6 102.6C213 110.1 215.2 118.7 215.1 127.5C215.5 147.1 203.1 164.7 184.5 170.9L217 223C218.1 224.6 218.7 226.5 218.8 228.4C218.8 230.2 218 232 216.6 233.1ZM328.5 209C323.9 217.3 317 224.1 308.7 228.8C291 238.4 269.7 238.4 252 228.8C243.7 224.2 236.9 217.3 232.2 209C222.7 191.3 222.7 169.9 232.2 152.2C236.8 143.9 243.7 137 252 132.3C260.7 127.5 270.4 125 280.3 125.1C290.2 124.9 299.9 127.4 308.5 132.3C316.8 137 323.6 143.9 328.3 152.2C338.1 169.9 338.1 191.2 328.5 209Z" fill="#CE2886"/>
<path d="M190 13.1C188.7 18.9 183 22.6 177.2 21.3C175.1 20.8 173.2 19.8 171.7 18.2C171.3 17.8 170.9 17.3 170.5 16.8C167.2 11.9 168.6 5.2 173.5 1.9C178.4 -1.4 185.1 2.38419e-06 188.4 4.9C190.1 7.2 190.6 10.2 190 13.1Z" fill="#CE2886"/>
<path d="M515 146.3C511.9 139.8 507 134.3 500.9 130.5C494.6 126.7 487.4 124.8 480.1 124.9C472.9 124.8 465.7 126.5 459.3 129.9C453.2 133.2 448 138 444.3 143.8C441 138 436.2 133.2 430.4 129.9C419.2 123.8 405.8 123.3 394.1 128.4C389 130.7 384.5 134 380.9 138.3V133.9C381 131.8 380.2 129.8 378.8 128.3C377.4 126.8 375.4 126 373.3 126.1C369.2 126 365.7 129.2 365.5 133.4C365.5 133.6 365.5 133.7 365.5 133.9V227.4C365.4 229.5 366.2 231.4 367.7 232.9C369.2 234.3 371.2 235.1 373.3 235C377.3 235.2 380.7 232.2 380.9 228.2C380.9 227.9 380.9 227.7 380.9 227.4V168.6C380.6 160.8 383.5 153.3 388.9 147.7C394.2 142.3 401.6 139.3 409.2 139.5C416.4 139.3 423.4 142.3 428.2 147.8C433 153.3 435.5 160.8 435.5 170.2V227.5C435.4 229.6 436.2 231.5 437.7 233C439.2 234.4 441.2 235.2 443.3 235.1C447.3 235.3 450.7 232.3 450.9 228.3C450.9 228 450.9 227.8 450.9 227.5V169.8C450.4 161.8 453.1 153.9 458.5 147.9C463.7 142.3 471.1 139.3 478.8 139.5C486 139.3 493 142.3 497.8 147.8C502.6 153.3 505.1 160.8 505.1 170.2V227.5C505 229.6 505.8 231.5 507.3 233C508.8 234.4 510.8 235.2 512.9 235.1C516.9 235.3 520.2 232.3 520.5 228.3C520.5 228 520.5 227.8 520.5 227.5V170.2C520.2 161.9 518.5 153.7 515 146.3Z" fill="#CE2886"/>
<path d="M646.4 152.4C641.7 144.1 634.8 137.2 626.5 132.4C609 122.7 587.7 122.7 570.2 132.4C561.9 137.1 555 144 550.3 152.4C540.7 170 540.6 191.2 550.1 208.8C559.4 225.8 577.4 236.2 596.7 236C604.9 236.1 613 234.2 620.4 230.5C627.4 227 633.5 221.8 638.1 215.5V227.4C638 229.5 638.8 231.4 640.3 232.9C641.8 234.3 643.8 235.1 645.9 235C648 235.1 650 234.3 651.5 232.8C652.9 231.4 653.7 229.4 653.7 227.4V180.7C653.8 170.7 651.3 161 646.4 152.4ZM633.3 201.8C629.9 207.9 624.9 213.1 618.9 216.6C612.7 220.2 605.6 222.1 598.4 222C591.2 222.1 584.1 220.2 577.8 216.6C571.7 213.1 566.7 208 563.3 201.8C556.3 188.6 556.3 172.7 563.3 159.4C566.7 153.2 571.7 148.1 577.8 144.5C584 140.8 591.2 138.9 598.4 139C612.9 138.8 626.3 146.7 633.3 159.4C640.3 172.7 640.3 188.6 633.3 201.8Z" fill="#CE2886"/>
<path d="M773 148.3C769 140.9 762.9 134.8 755.4 130.9C747.6 126.8 738.8 124.8 730 124.9C723 124.8 716.1 126.3 709.7 129.1C703.6 131.8 698.2 135.7 693.8 140.6V133.8C693.9 131.7 693.1 129.7 691.7 128.2C690.3 126.7 688.3 125.9 686.2 126C682.1 125.9 678.6 129.1 678.4 133.3C678.4 133.5 678.4 133.6 678.4 133.8V227.3C678.3 229.4 679.1 231.3 680.6 232.8C682.1 234.2 684.1 235 686.2 234.9C690.2 235.1 693.5 232.1 693.8 228.1C693.8 227.8 693.8 227.6 693.8 227.3V168.5C693.8 163.2 695.4 158 698.4 153.7C701.5 149.2 705.8 145.6 710.8 143.3C716.3 140.7 722.3 139.4 728.4 139.5C737.9 139.1 747.1 142.4 754.2 148.8C760.8 155 764 163.9 764 175.7V227.4C764 229.4 764.8 231.4 766.2 232.8C767.7 234.3 769.7 235 771.8 235C775.9 235 779.3 231.7 779.4 227.6C779.4 227.5 779.4 227.5 779.4 227.4V175.7C779.6 166.1 777.4 156.7 773 148.3Z" fill="#CE2886"/>
<path d="M856.3 221.8C855 220.3 853.1 219.5 851.1 219.6H845.7C839.9 219.8 834.3 217.4 830.4 213.1C826.3 208.6 824.2 202.6 824.4 196.5V143.4H847C848.9 143.5 850.7 142.8 852.1 141.5C853.3 140.3 854 138.6 854 136.8C854.1 135 853.4 133.2 852.1 131.9C850.7 130.6 848.9 129.9 847 130H824.5V99.3C824.6 95.2 821.4 91.7 817.3 91.5C817.1 91.5 816.9 91.5 816.8 91.5C814.8 91.4 812.8 92.2 811.3 93.7C809.9 95.2 809.1 97.2 809.2 99.3V130.2H796.3C794.4 130.1 792.6 130.8 791.2 132.1C789.9 133.4 789.2 135.2 789.3 137C789.3 138.8 789.9 140.4 791.2 141.7C792.6 143 794.4 143.7 796.3 143.6H809.2V196.7C809.1 203.5 810.7 210.2 813.9 216.3C820.2 228.1 832.5 235.3 845.8 235.1H850C852.2 235.2 854.3 234.4 856 232.9C857.5 231.5 858.4 229.6 858.4 227.5C858.4 225.3 857.7 223.3 856.3 221.8Z" fill="#CE2886"/>
<path d="M889.6 128.3C888.2 126.8 886.2 126 884.1 126.1C880 126 876.5 129.2 876.3 133.4C876.3 133.6 876.3 133.7 876.3 133.9V227.2C876.1 231.3 879.4 234.8 883.5 235C883.7 235 883.9 235 884.1 235C886.2 235.1 888.1 234.3 889.6 232.8C891 231.3 891.8 229.3 891.7 227.2V133.9C891.8 131.8 891.1 129.8 889.6 128.3ZM891.7 86.8C889.7 84.8 887 83.8 884.1 83.8C881.2 83.7 878.4 84.8 876.3 86.8C874.2 88.8 873 91.6 873.1 94.5C873 97.4 874.1 100.2 876.2 102.3C878.2 104.4 881 105.6 883.8 105.5C889.8 105.5 894.7 100.7 894.7 94.7V94.6C895 91.6 893.9 88.8 891.7 86.8Z" fill="#CE2886"/>
<path d="M1004.7 212.9C1003.5 211.9 1001.9 211.3 1000.3 211.3C998.3 211.4 996.4 212.1 994.9 213.5C988.4 219.2 979.8 222.1 969.2 222.1C962 222.2 954.9 220.4 948.7 216.7C942.8 213.2 937.9 208 934.8 201.9C931.4 195.4 929.7 188.1 929.8 180.7C929.7 173.3 931.3 165.9 934.5 159.2C937.4 153.1 942 147.9 947.7 144.4C953.6 140.8 960.3 139 967.2 139.1C972.7 139 978.1 140.2 983.1 142.4C988.1 144.8 992.6 148.1 996.2 152.3C997.6 154.1 999.7 155.1 1002 155.3C1003.4 155.3 1004.7 154.9 1005.8 154.1C1007.8 152.9 1009.1 150.8 1009.2 148.5C1009.2 147 1008.6 145.5 1007.6 144.3C997.9 131.9 983 124.8 967.2 125.2C957.8 125.1 948.5 127.5 940.4 132.4C932.5 137.1 926 144 921.7 152.2C917.1 161 914.8 170.8 914.9 180.7C914.8 190.5 917.2 200.2 922 208.8C926.5 217.1 933.3 223.9 941.4 228.7C949.9 233.6 959.5 236.1 969.2 236C983.8 236 995.8 231.6 1005.4 222.7C1006.7 221.6 1007.4 220 1007.4 218.4C1007.4 216.1 1006.4 214.1 1004.7 212.9Z" fill="#CE2886"/>
<path d="M1126.9 152.4C1122.2 144.1 1115.3 137.2 1107 132.4C1089.5 122.7 1068.2 122.7 1050.7 132.4C1042.4 137.1 1035.5 144 1030.8 152.4C1025.9 161 1023.4 170.8 1023.6 180.6C1023.5 190.4 1025.9 200.1 1030.7 208.7C1040 225.7 1058 236.1 1077.3 235.9C1085.5 236 1093.6 234.1 1101 230.4C1108 226.9 1114.1 221.7 1118.7 215.4V227.3C1118.6 229.4 1119.4 231.3 1120.9 232.8C1122.4 234.2 1124.4 235 1126.5 234.9C1128.6 235 1130.6 234.2 1132.1 232.7C1133.5 231.3 1134.3 229.3 1134.3 227.3V180.6C1134.3 170.7 1131.8 161 1126.9 152.4ZM1113.8 201.8C1110.4 208 1105.4 213.1 1099.4 216.6C1093.2 220.2 1086.1 222.1 1078.9 222C1071.7 222.1 1064.6 220.2 1058.3 216.6C1052.2 213.1 1047.2 208 1043.8 201.8C1036.8 188.6 1036.8 172.7 1043.8 159.4C1047.2 153.2 1052.2 148.1 1058.3 144.5C1064.5 140.8 1071.7 138.9 1078.9 139C1093.4 138.8 1106.8 146.7 1113.8 159.4C1120.8 172.7 1120.8 188.6 1113.8 201.8Z" fill="#CE2886"/>
<path d="M370.8 252.1C368.9 251.4 367 251.1 365 251.2C362 251.2 359.1 251.9 356.5 253.2C353.9 254.5 351.7 256.5 350 258.9V255C349.9 253.1 348.3 251.6 346.4 251.7C345.6 251.7 344.8 252 344.2 252.6C343.6 253.3 343.3 254.1 343.3 255V296.2C343.1 297.9 344.4 299.4 346 299.5C346.2 299.5 346.4 299.5 346.6 299.5C348.3 299.7 349.8 298.5 349.9 296.8C349.9 296.6 349.9 296.4 349.9 296.2V270.1C349.8 266.6 351.3 263.2 354.1 261C357.1 258.6 360.9 257.3 364.8 257.5C365.5 257.5 366.2 257.5 366.9 257.6C368.2 257.7 369.1 257.8 369.6 257.8C370.3 257.8 371 257.7 371.6 257.4C372.2 257 372.6 256.4 372.7 255.7C372.8 255.4 372.8 255.2 372.8 254.9C372.9 253.6 372 252.5 370.8 252.1Z" fill="#CE2886"/>
<path d="M416.8 263.2C414.7 259.5 411.7 256.5 408 254.4C400.3 250.1 390.9 250.1 383.2 254.4C379.5 256.5 376.5 259.5 374.4 263.2C370.2 270.9 370.2 280.3 374.3 288C378.4 295.5 386.3 300.1 394.8 299.9C398.4 299.9 402 299.1 405.2 297.5C408.3 296 411 293.7 413 290.9V296.1C413 297 413.3 297.9 414 298.5C414.7 299.1 415.5 299.5 416.4 299.4C417.3 299.4 418.2 299.1 418.8 298.4C419.4 297.8 419.8 296.9 419.8 296V275.4C420.1 271.3 419 267 416.8 263.2ZM411.1 285C409.6 287.7 407.4 290 404.8 291.5C399.2 294.6 392.3 294.6 386.7 291.5C384 290 381.8 287.7 380.3 285C377.2 279.2 377.2 272.2 380.3 266.4C385.2 257.8 396.2 254.9 404.7 259.8C407.4 261.4 409.5 263.7 411 266.4C414.2 272.2 414.2 279.2 411.1 285Z" fill="#CE2886"/>
<path d="M474.2 254.2V234.6C474.2 233.7 473.9 232.8 473.3 232.1C472.7 231.5 471.8 231.1 470.9 231.2C469.1 231.1 467.6 232.5 467.5 234.3C467.5 234.4 467.5 234.5 467.5 234.6V260.2C465.5 257.4 462.8 255.1 459.7 253.6C456.5 252 452.9 251.1 449.3 251.2C440.8 251.1 432.9 255.7 428.8 263.1C426.7 266.9 425.6 271.2 425.7 275.5C425.6 279.8 426.8 284.1 428.9 287.9C431 291.6 434 294.6 437.7 296.7C445.4 301 454.8 301 462.5 296.7C466.2 294.6 469.2 291.6 471.3 287.9C473.5 284.1 474.6 279.8 474.5 275.5V255C474.3 254.7 474.3 254.5 474.2 254.2ZM465.3 284.9C460.5 293.4 449.8 296.4 441.3 291.7C438.5 290.1 436.1 287.8 434.5 284.9C431.4 279.1 431.4 272.1 434.5 266.3C436 263.6 438.2 261.3 440.9 259.8C443.7 258.2 446.8 257.4 450 257.4C454.3 257.3 458.5 258.9 461.8 261.8C465 264.7 467.1 268.7 467.5 273C467.5 273.1 467.5 273.3 467.6 273.4C467.7 274.1 467.7 274.9 467.7 275.6C467.7 278.8 466.9 282 465.3 284.9Z" fill="#CE2886"/>
<path d="M492.3 252.6C491.7 251.9 490.8 251.6 489.9 251.6C488.1 251.5 486.6 253 486.5 254.8C486.5 254.9 486.5 255 486.5 255V296C486.4 297.8 487.9 299.3 489.7 299.4C489.8 299.4 489.9 299.4 489.9 299.4C490.8 299.4 491.7 299.1 492.3 298.4C492.9 297.7 493.3 296.9 493.2 296V255C493.2 254.2 492.9 253.3 492.3 252.6ZM493.2 234.4C492.3 233.5 491.1 233.1 489.9 233.1C488.6 233.1 487.4 233.5 486.5 234.4C485.6 235.3 485.1 236.5 485.1 237.8C485.1 239.1 485.6 240.3 486.4 241.2C487.3 242.1 488.5 242.6 489.8 242.6C492.4 242.6 494.6 240.5 494.6 237.8C494.6 236.5 494.1 235.2 493.2 234.4Z" fill="#CE2886"/>
<path d="M548.3 263.1C546.2 259.4 543.2 256.4 539.6 254.3C535.8 252.2 531.5 251.1 527.2 251.2C522.8 251.1 518.5 252.2 514.7 254.3C511 256.4 508 259.4 506 263.1C503.9 266.9 502.8 271.2 502.9 275.6C502.8 280 503.9 284.3 506 288.1C508 291.7 511.1 294.8 514.7 296.8C522.5 301 531.9 301 539.6 296.8C543.2 294.8 546.3 291.7 548.3 288.1C552.5 280.3 552.5 270.9 548.3 263.1ZM542.5 285C541 287.7 538.9 290 536.2 291.5C530.6 294.6 523.7 294.6 518 291.5C515.3 289.9 513.1 287.7 511.6 285C508.5 279.1 508.5 272.1 511.6 266.3C513.1 263.6 515.3 261.3 518 259.8C523.6 256.7 530.5 256.7 536.2 259.8C538.9 261.4 541 263.6 542.5 266.3C545.6 272.1 545.6 279.1 542.5 285Z" fill="#CE2886"/>
</svg>
