<svg width="43" height="27" viewBox="0 0 43 27" fill="none" xmlns="http://www.w3.org/2000/svg">
<path d="M23.2 5.5C23.5 5.5 25.5 5.5 25.8 5.5C27.6 5.5 29.3 5.5 31.1 5.5C31.2 5.5 31.3 5.6 31.3 5.7C31.3 6.3 31.3 6.8 31.3 7.4C31.3 7.5 31.3 7.5 31.3 7.6C32.2 7.1 33.2 7 34.1 7C34.7 7 35.3 7 35.9 7.1C38.6 7.6 40.9 9.9 41.7 12.6C41.7 12.7 41.9 13.6 42 13.9V14.1C42.1 14.4 42 14.6 42.1 14.9C42 16.7 42 16.7 41.7 17.8C41.3 19.1 40 20.6 39.9 20.7C39.3 21.3 38.5 21.9 37.8 22.3C36.9 22.7 36 23 35 23C34.4 23 33.7 23 33.1 22.9C32.6 22.8 32 22.7 31.5 22.4H31.4C31.4 23.6 31.4 24.9 31.4 26.1C31.4 26.2 31.3 26.3 31.2 26.3C28.7 26.3 26.2 26.3 23.7 26.3C23.6 26.3 23.5 26.3 23.3 26.3C23.2 26.3 23.2 26.2 23.2 26.1M31.3 12C31.2 13.4 31.3 14.7 31.3 16C31.3 16.1 31.3 16.1 31.3 16.2C31.5 16.3 31.6 16.3 31.8 16.3C32.4 16.3 33 16.3 33.5 16C33.9 15.8 34.4 15.5 34.6 15.1C34.8 14.7 34.8 14.2 34.8 13.8C34.8 13.4 34.6 13 34.3 12.8C33.9 12.4 33.4 12.2 32.9 12.2C32.6 12 32.3 12 32 12C31.8 12 31.5 12 31.3 12Z" fill="#0087D9"/>
<path d="M22 0C22 1.3 22 2.6 22 3.9C23 3.9 24 3.9 25 3.9C25 4.4 25 5 25 5.5C25 6.6 25 7.8 25 8.9C24.4 8.9 23.8 8.9 23.2 8.9C22.8 8.9 22.4 8.9 22 8.9C22 10.2 22 11.5 22 12.8C22 12.9 22 13.1 22.1 13.2C22.4 13.6 22.7 14 23.2 14C23.4 14 23.7 13.8 23.8 13.7C24.2 13.2 24.5 12.7 24.9 12.3C24.9 14.6 24.9 17 24.9 19.3C24.9 19.4 24.8 19.5 24.7 19.5C24.2 19.8 23.6 20.2 23.1 20.5C20.6 21.4 18.3 21 16.7 20.6C15.1 20.2 13.8 19.1 13 17.7C12.5 16.7 12.2 15.6 12.2 14.4C12.2 12.9 12.2 11.5 12.2 10C11 10 9.8 10 8.6 10C8.6 9.8 8.6 9.6 8.6 9.5C9.3 8.9 20.2 1.3 22 0Z" fill="#00D60F"/>
<path d="M0 0C2.8 0 5.6 0 8.4 0C8.4 1 8.4 2.1 8.4 3.1C8.6 3.1 8.7 3 8.9 3C9.2 2.3 9.7 1.7 10.3 1.2C11.1 0.7 12.1 0.5 13 0.5C13.8 0.5 14.6 0.8 15.2 1.3C15.9 1.9 16.4 2.8 16.6 3.7C16.7 4 16.7 4.3 16.7 4.6C16.7 4.9 16.6 5.2 16.5 5.4C16.3 6.2 15.9 7 15.2 7.6C14.6 8.2 13.6 8.6 12.8 8.6C12 8.6 11.1 8.5 10.4 8.1C10.1 7.9 9.8 7.6 9.7 7.3C9.4 7.2 9 7.1 8.7 7.3C8.5 7.4 8.5 7.6 8.5 7.8C8.5 11 8.5 14.1 8.5 17.3C5.7 17.3 2.9 17.3 0 17.3C0 17.1 0 16.9 0 16.7V16.6C0 16.3 0 16.1 0 15.8V15.7C0 15.4 0 15.2 0 14.9V14.8C0 14.5 0 14.3 0 14V13.9C0 13.6 0 13.4 0 13.1V13C0 12.7 0 12.5 0 12.2V12.1C0 11.8 0 11.6 0 11.3V11.2C0 10.9 0 10.7 0 10.4V10.3C0 10 0 9.7 0 9.4V9.3C0 9 0 8.8 0 8.5V8.4C0 8.1 0 7.9 0 7.6V7.5C0 7.2 0 7 0 6.7V6.6C0 6.3 0 6 0 5.8V5.7C0 5.4 0 5.2 0 4.9V4.8C0 4.5 0 4.2 0 4V3.9C0 3.6 0 3.3 0 3V2.9C0 2.6 0 2.4 0 2.1V2C0 1.7 0 1.5 0 1.2V1.1C0 0.8 0 0.6 0 0.3V0.2C0 0.1 0 0.1 0 0Z" fill="#FE0000"/>
</svg>
