<svg width="78" height="40" viewBox="0 0 78 40" fill="none" xmlns="http://www.w3.org/2000/svg">
<path fill-rule="evenodd" clip-rule="evenodd" d="M0 0H40V40H0V0Z" fill="url(#paint0_radial_3_43)"/>
<path d="M24.267 12.033H23.7V11.167H24.267C24.433 11.167 24.567 11.2 24.667 11.267C24.767 11.333 24.8 11.467 24.8 11.6C24.8032 11.6618 24.793 11.7236 24.7701 11.7811C24.7471 11.8386 24.7119 11.8904 24.667 11.933C24.5465 12.0052 24.4073 12.04 24.267 12.033ZM21.367 11.3L20.933 12.433H21.8L21.367 11.3ZM10.7 11.3L10.267 12.433H11.133L10.7 11.3ZM11.967 18.333C11.467 17.967 10.8 17.767 9.9 17.767H7.067V22.167H9.9C10.8 22.167 11.467 22 11.967 21.6C12.467 21.233 12.7 20.667 12.7 19.967C12.7 19.267 12.467 18.733 11.967 18.333ZM40 0V40H0V0H40ZM30.067 12.133C30.067 12.333 30.1 12.533 30.167 12.7C30.233 12.833 30.333 13 30.467 13.133C30.6 13.267 30.733 13.367 30.933 13.433C31.1 13.5 31.3 13.533 31.5 13.533C31.7 13.533 31.9 13.5 32.067 13.433C32.4088 13.2989 32.684 13.0356 32.833 12.7C32.9 12.533 32.933 12.333 32.933 12.133C32.933 11.933 32.9 11.733 32.833 11.567C32.767 11.4 32.667 11.233 32.533 11.133C32.405 10.9959 32.2448 10.8928 32.067 10.833C31.8858 10.7648 31.6936 10.7308 31.5 10.733C31.3 10.733 31.1 10.767 30.933 10.833C30.7592 10.9009 30.6008 11.0029 30.467 11.133C30.3377 11.255 30.2354 11.4029 30.167 11.567C30.1 11.733 30.067 11.933 30.067 12.133ZM27.067 13.467H27.567V11.5L28.967 13.467H29.5V10.767H29.033V12.733L27.6 10.767H27.067V13.467ZM25.933 13.5H26.4V10.767H25.933V13.5ZM23.267 13.467H23.733V12.433H24.3L24.9 13.467H25.433L24.8 12.367C24.9587 12.3063 25.0973 12.2024 25.2 12.067C25.3 11.933 25.333 11.767 25.333 11.6C25.3406 11.434 25.2939 11.2701 25.2 11.133C25.1146 11.0078 25.0004 10.9049 24.867 10.833C24.6983 10.7615 24.5161 10.7274 24.333 10.733H23.267V13.467ZM20 13.467H20.5L20.767 12.833H21.967L22.2 13.467H22.7L21.6 10.733H21.1L20 13.467ZM16.7 13.467H17.167V11.433L17.933 13H18.3L19.067 11.433V13.467H19.533V10.767H18.933L18.1 12.5L17.3 10.767H16.7V13.467ZM12.533 13.467H13V11.5L14.433 13.467H14.967V10.767H14.5V12.733L13.067 10.767H12.533V13.467ZM9.333 13.467H9.833L10.1 12.833H11.3L11.533 13.467H12.033L10.933 10.733H10.433L9.333 13.467ZM8.533 12.8C8.533 12.867 8.5 12.933 8.467 13C8.39614 13.007 8.32777 13.0299 8.267 13.067C8.2 13.1 8.1 13.1 8 13.1C7.933 13.1 7.833 13.1 7.767 13.067C7.7 13.033 7.6 13 7.533 12.967C7.44782 12.9226 7.36937 12.8664 7.3 12.8L7.067 13.167C7.2 13.267 7.367 13.367 7.533 13.433C7.86437 13.5666 8.23463 13.5666 8.566 13.433C8.70245 13.3815 8.81929 13.2885 8.9 13.167C8.967 13.033 9.033 12.9 9.033 12.767C9.03471 12.6632 9.01211 12.5605 8.967 12.467C8.93119 12.3766 8.87387 12.2963 8.8 12.233C8.733 12.167 8.633 12.133 8.533 12.067C8.433 12.033 8.367 11.967 8.267 11.933C8.17183 11.9023 8.08182 11.8575 8 11.8C7.933 11.767 7.867 11.7 7.8 11.667C7.767 11.6 7.733 11.533 7.733 11.467C7.733 11.4 7.767 11.333 7.8 11.3C7.833 11.233 7.9 11.2 7.967 11.2C8.033 11.167 8.1 11.167 8.2 11.167C8.3 11.167 8.367 11.167 8.467 11.2C8.567 11.233 8.667 11.267 8.733 11.333L8.933 10.933C8.80507 10.8738 8.6709 10.8292 8.533 10.8C8.4 10.767 8.267 10.767 8.167 10.767C8 10.767 7.833 10.8 7.7 10.867C7.567 10.933 7.467 11.033 7.367 11.133C7.3 11.233 7.267 11.367 7.267 11.533C7.267 11.667 7.3 11.767 7.333 11.833C7.367 11.933 7.433 12 7.5 12.033C7.567 12.1 7.667 12.133 7.733 12.2C7.833 12.233 7.9 12.267 8 12.333C8.1 12.367 8.2 12.4 8.267 12.467C8.367 12.5 8.433 12.567 8.467 12.6C8.533 12.667 8.533 12.733 8.533 12.8ZM15.7 29.3L12.467 23.767C13.333 23.467 14 22.967 14.467 22.333C14.933 21.667 15.167 20.867 15.167 19.933C15.167 19 14.967 18.267 14.567 17.633C14.167 17 13.567 16.5 12.833 16.167C12.067 15.833 11.167 15.667 10.1 15.667H4.667V29.3H7.067V24.167H10.033L13.033 29.3H15.7ZM21 17.767H25.133L24.3 15.633H14.333L15.567 17.767H18.6V29.3H21V17.767ZM35.333 15.633H32.8L28.567 26.6L25.467 18.6H22.967L27.267 29.3H29.833L35.333 15.633ZM30.833 12.833C30.933 12.9 31.033 13 31.133 13.033C31.233 13.067 31.367 13.1 31.5 13.1C31.633 13.1 31.767 13.067 31.867 13.033C32 13 32.067 12.933 32.167 12.833C32.2697 12.7624 32.3414 12.655 32.367 12.533C32.4 12.4 32.433 12.267 32.433 12.133C32.433 12 32.4 11.867 32.367 11.733C32.3 11.633 32.267 11.533 32.167 11.433C32.067 11.367 31.967 11.267 31.867 11.233C31.7489 11.192 31.625 11.1697 31.5 11.167C31.375 11.1697 31.2511 11.192 31.133 11.233C31 11.267 30.933 11.333 30.833 11.433C30.7303 11.5037 30.6587 11.6111 30.633 11.733C30.6 11.833 30.567 11.967 30.567 12.133C30.567 12.267 30.6 12.4 30.633 12.533C30.7 12.633 30.733 12.733 30.833 12.833Z" fill="white"/>
<path d="M45.8947 28.6383H44.0123V25.5275H46.2196C46.3178 26.4206 46.606 26.8342 47.1885 26.8342C47.7342 26.8342 48.145 26.4445 48.145 25.9531C48.145 25.6473 47.9794 25.3656 47.7219 25.2038C47.2743 24.94 46.6979 24.8022 46.097 24.5505C44.699 23.975 44 23.0939 44 21.9071C44 20.2647 45.2938 19 47.0045 19C47.5747 19 48.053 19.1618 48.519 19.5095V19.2457H50.3034V21.949H48.286C48.1756 21.2957 47.8384 20.9481 47.3479 20.9481C46.8696 20.9481 46.514 21.2957 46.514 21.7093C46.514 22.0569 46.6795 22.3207 46.9371 22.4585C47.5502 22.7642 48.2431 22.8841 48.844 23.2078C50.0336 23.8192 50.6161 24.6643 50.6161 25.7552C50.6161 27.4635 49.2119 28.8601 47.5441 28.8601C46.9739 28.8601 46.4404 28.6863 45.8947 28.3387V28.6383Z" fill="white"/>
<path d="M51.7136 23.2677H50.892V21.3497H53.7555V22.2547C54.2889 21.5774 54.994 21.2298 56.0487 21.2298C58.1518 21.2298 59.7032 22.8062 59.7032 25.006C59.7032 27.2058 58.1518 28.7822 56.0487 28.7822C55.0799 28.7822 54.3564 28.4885 53.8535 27.8651V29.0639H54.5894V31H50.892V29.0639H51.7136V23.2677ZM55.6379 26.8282C56.6741 26.8282 57.4406 26.0669 57.4406 25C57.4406 23.9331 56.6802 23.1718 55.6379 23.1718C54.6016 23.1718 53.8351 23.9331 53.8351 25C53.8351 26.0669 54.6016 26.8282 55.6379 26.8282Z" fill="white"/>
<path d="M61.2606 22.2667C62.0087 21.5474 63.0204 21.1458 64.1118 21.1458C65.2032 21.1458 66.1964 21.5474 66.9507 22.2667C67.6987 22.986 68.0974 23.9211 68.0974 25C68.0974 26.0669 67.6987 27.014 66.9507 27.7333C66.1964 28.4526 65.2032 28.8422 64.1118 28.8422C63.0204 28.8422 62.0087 28.4526 61.2606 27.7333C60.5126 27.014 60.114 26.0669 60.114 25C60.114 23.9331 60.5126 22.986 61.2606 22.2667ZM64.1118 26.8162C65.0684 26.8162 65.8471 26.019 65.8471 25C65.8471 23.975 65.0806 23.1838 64.1118 23.1838C63.1553 23.1838 62.3643 23.9691 62.3643 25C62.3643 26.013 63.1553 26.8162 64.1118 26.8162Z" fill="white"/>
<path d="M69.3239 23.2677H68.4653V21.3497H71.3287V22.4166C71.7518 21.6014 72.4079 21.2538 73.15 21.2298V23.2677C71.9544 23.3337 71.427 23.9211 71.427 25.2518V26.7323H72.2851V28.6683H68.3734V26.7323H69.3239V23.2677Z" fill="white"/>
<path d="M74.511 23.2677H73.8305V21.3497H74.511V19.1858H76.6694V21.3497H78V23.2677H76.6694V26.7323H77.7794V28.6683H74.511V23.2677Z" fill="white"/>
<defs>
<radialGradient id="paint0_radial_3_43" cx="0" cy="0" r="1" gradientUnits="userSpaceOnUse" gradientTransform="translate(-5.403 -2.737) scale(46.03)">
<stop offset="0.22" stop-color="#80CEF3"/>
<stop offset="0.34" stop-color="#7AC8EF"/>
<stop offset="0.49" stop-color="#69B8E4"/>
<stop offset="0.66" stop-color="#4E9ED1"/>
<stop offset="0.85" stop-color="#2879B7"/>
<stop offset="1" stop-color="#03559E"/>
</radialGradient>
</defs>
</svg>
