<svg width="1252" height="500" viewBox="0 0 1252 500" fill="none" xmlns="http://www.w3.org/2000/svg">
<path d="M500 0H0V500H500V0Z" fill="#FF510C"/>
<path d="M219.6 315.6H156.6L108.2 240.6V315.6H57.6V120.8H136.4C147.2 120.8 159.2 122.4 167.2 125.6C175.2 128.8 182 133.2 187.2 138.6C192.4 144.2 196.4 150.4 199 157.8C201.6 165 203 172.8 203 181C203 195.8 199.4 209.2 192.2 218.6C185 227.8 174 235 160 238.4L219.6 315.6ZM108.2 207.8H118.8C128.8 207.8 136.4 205.8 141.8 201.6C147.2 197.4 149.8 191.6 149.8 183.8C149.8 176 147.2 170.2 141.8 166C136.4 161.8 128.8 159.8 118.8 159.8H108.2V207.8Z" fill="white"/>
<path d="M392.2 182.6L362.4 259.6L332.6 182.6H275.8V141.8H229.2V182.6H208.8V216.2H229.2V315.6H275.8V216.2H297.8L342.8 315.6H380.2L441.6 182.6H392.2Z" fill="white"/>
<path d="M82 349C80.8 348 79.6 347.4 78.4 346.8C77.2 346.4 76 346.2 75 346.2C73.6 346.2 72.4 346.6 71.6 347.2C70.8 347.8 70.2 348.8 70.2 349.8C70.2 350.6 70.4 351.2 70.8 351.6C71.2 352 71.8 352.6 72.6 352.8C73.4 353.2 74.2 353.4 75 353.8C76 354 76.8 354.4 77.6 354.6C81.2 355.8 83.8 357.4 85.4 359.4C87 361.4 87.8 364 87.8 367.2C87.8 369.4 87.4 371.4 86.8 373C86 374.8 85 376.2 83.6 377.4C82.2 378.6 80.6 379.6 78.4 380.2C76.4 380.8 74 381.2 71.6 381.2C66.2 381.2 61.4 379.6 56.8 376.4L61.4 367.6C63 369 64.6 370.2 66.2 370.8C67.8 371.6 69.4 371.8 71 371.8C72.8 371.8 74.2 371.4 75 370.6C75.8 369.8 76.4 368.8 76.4 367.8C76.4 367.2 76.2 366.6 76 366.2C75.8 365.8 75.4 365.4 74.8 365C74.2 364.6 73.6 364.2 72.8 364C72 363.6 71 363.2 69.8 362.8C68.4 362.4 67 361.8 65.6 361.4C64.2 360.8 63 360.2 62 359.2C61 358.4 60 357.2 59.4 355.8C58.8 354.4 58.4 352.8 58.4 350.6C58.4 348.6 58.8 346.6 59.4 345C60 343.4 61 341.8 62.2 340.6C63.4 339.4 65 338.4 66.8 337.8C68.6 337.2 70.6 336.8 72.8 336.8C74.8 336.8 77 337 79.4 337.6C81.6 338.2 83.8 339 86 340.2L82 349Z" fill="white"/>
<path d="M117 373H101.4L98.8 380.2H87.2L103.2 338.2H115.2L131.2 380.2H119.6L117 373ZM114 364.6L109.2 350.6L104.4 364.6H114Z" fill="white"/>
<path d="M133.4 338.2H144.4L164.6 364V338.4H175.4V380.4H164.6L144.4 354.8V380.4H133.4V338.2Z" fill="white"/>
<path d="M195.8 380.2L203 338.2H213.8L222.2 360.6L230.6 338.2H241.4L248.6 380.2H237.8L234.2 356L224.2 380.2H219.8L210.4 356L206.8 380.2H195.8Z" fill="white"/>
<path d="M279 373H263.4L260.8 380.2H249.2L265.2 338.2H277.2L293.2 380.2H281.6L279 373ZM276.2 364.6L271.4 350.6L266.6 364.6H276.2Z" fill="white"/>
<path d="M330 380.2H316.4L306 364V380.2H295V338.2H312C314.4 338.2 316.4 338.6 318.2 339.2C320 339.8 321.4 340.8 322.6 342C323.8 343.2 324.6 344.6 325.2 346.2C325.8 347.8 326 349.4 326 351.2C326 354.4 325.2 357 323.6 359C322 361 319.8 362.4 316.8 363L330 380.2ZM306 357H308C310.2 357 311.8 356.6 313 355.6C314.2 354.8 314.8 353.4 314.8 351.8C314.8 350.2 314.2 348.8 313 348C311.8 347.2 310.2 346.6 308 346.6H306V357Z" fill="white"/>
<path d="M343 338.2V380.2H332V338.2H343Z" fill="white"/>
<path d="M349.2 380.2V338.2H360.2L380.4 363.8V338.2H391.2V380.2H380.4L360 354.6V380.2H349.2Z" fill="white"/>
<path d="M395.6 359.2C395.6 356 396.2 353.2 397.4 350.4C398.6 347.8 400.2 345.4 402.2 343.4C404.2 341.4 406.6 339.8 409.6 338.6C412.4 337.4 415.6 337 419 337C422.4 337 425.4 337.6 428.4 338.6C431.2 339.8 433.8 341.2 435.8 343.4C437.8 345.4 439.4 347.8 440.6 350.4C441.8 353 442.4 356 442.4 359.2C442.4 362.4 441.8 365.2 440.6 368C439.4 370.6 437.8 373 435.8 375C433.8 377 431.2 378.6 428.4 379.8C425.6 381 422.4 381.4 419 381.4C415.6 381.4 412.4 380.8 409.6 379.8C406.8 378.6 404.4 377.2 402.2 375C400.2 373 398.6 370.6 397.4 368C396.2 365.4 395.6 362.4 395.6 359.2ZM407 359.2C407 360.8 407.4 362.4 408 363.8C408.6 365.2 409.4 366.4 410.6 367.4C411.6 368.4 413 369.2 414.4 369.8C415.8 370.4 417.4 370.6 419 370.6C420.6 370.6 422.2 370.4 423.6 369.8C425 369.2 426.2 368.4 427.4 367.4C428.4 366.4 429.4 365.2 430 363.8C430.6 362.4 431 360.8 431 359.2C431 357.6 430.6 356 430 354.6C429.4 353.2 428.6 352 427.4 351C426.4 350 425 349.2 423.6 348.6C422.2 348 420.6 347.8 419 347.8C417.4 347.8 415.8 348 414.4 348.6C413 349.2 411.8 350 410.6 351C409.6 352 408.6 353.2 408 354.6C407.4 356 407 357.6 407 359.2Z" fill="white"/>
<path d="M595.729 317.602H557.251V252.533H602.372C604.378 271.214 610.269 279.865 622.176 279.865C633.331 279.865 641.729 271.715 641.729 261.435C641.729 255.04 638.344 249.148 633.08 245.763C623.931 240.246 612.149 237.363 599.866 232.097C571.289 220.061 557 201.631 557 176.807C557 142.454 583.446 116 618.416 116C630.072 116 639.849 119.385 649.374 126.657V121.14H685.848V177.684H644.611C642.355 164.018 635.462 156.747 625.435 156.747C615.658 156.747 608.389 164.018 608.389 172.669C608.389 179.941 611.773 185.458 617.037 188.341C629.571 194.735 643.734 197.243 656.017 204.013C680.333 216.801 692.24 234.479 692.24 257.297C692.24 293.029 663.537 322.241 629.445 322.241C617.789 322.241 606.885 318.605 595.729 311.334V317.602Z" fill="#FF510C"/>
<path d="M714.675 205.267H697.88V165.147H756.413V184.078C767.317 169.911 781.731 162.639 803.289 162.639C846.28 162.639 877.991 195.613 877.991 241.625C877.991 287.638 846.28 320.611 803.289 320.611C783.486 320.611 768.696 314.468 758.418 301.429V326.504H773.459V367H697.88V326.504H714.675V205.267ZM794.892 279.739C816.074 279.739 831.741 263.817 831.741 241.5C831.741 219.183 816.199 203.261 794.892 203.261C773.71 203.261 758.042 219.183 758.042 241.5C758.042 263.817 773.71 279.739 794.892 279.739Z" fill="#FF510C"/>
<path d="M909.827 184.329C925.118 169.284 945.799 160.884 968.109 160.884C990.419 160.884 1010.72 169.284 1026.14 184.329C1041.43 199.374 1049.58 218.933 1049.58 241.5C1049.58 263.817 1041.43 283.626 1026.14 298.671C1010.72 313.716 990.419 321.865 968.109 321.865C945.799 321.865 925.118 313.716 909.827 298.671C894.536 283.626 886.389 263.817 886.389 241.5C886.389 219.183 894.536 199.374 909.827 184.329ZM968.109 279.489C987.662 279.489 1003.58 262.814 1003.58 241.5C1003.58 220.061 987.912 203.512 968.109 203.512C948.556 203.512 932.388 219.936 932.388 241.5C932.388 262.688 948.556 279.489 968.109 279.489Z" fill="#FF510C"/>
<path d="M1074.65 205.267H1057.1V165.147H1115.63V187.464C1124.28 170.413 1137.69 163.141 1152.86 162.639V205.267C1128.42 206.646 1117.64 218.933 1117.64 246.766V277.733H1135.18V318.229H1055.22V277.733H1074.65V205.267Z" fill="#FF510C"/>
<path d="M1180.68 205.267H1166.77V165.147H1180.68V119.887H1224.8V165.147H1252V205.267H1224.8V277.733H1247.49V318.229H1180.68V205.267Z" fill="#FF510C"/>
</svg>
