<svg width="1144" height="506" viewBox="0 0 1144 506" fill="none" xmlns="http://www.w3.org/2000/svg">
<path d="M461.54 3.83C467.92 5.83 473.83 8.63 478.19 13.41C483.95 19.74 482.74 28.15 480.45 35.08C474.53 52.96 460.84 63.93 444.35 71.89C432.49 77.62 419.98 81.66 407.43 85.31C398.52 87.9 388.95 86.65 379.66 85.92C378.83 85.85 377.66 85.76 377.77 84.76C378.26 79.56 373.5 79.23 370.77 77.08C369.57 76.14 366.94 76.08 367.96 73.89C368.91 71.89 369.46 68.63 372.51 68.75C381.946 68.9912 391.363 67.7597 400.42 65.1C414.034 61.5136 426.901 55.5337 438.42 47.44C440.92 45.67 443.33 43.63 446.09 42.44C448.45 41.44 450.79 41.03 450.75 37.72C450.75 33.72 450.46 29.61 446.75 27.21C444.668 25.9179 442.318 25.1176 439.88 24.87C429.39 23.5 418.96 23.87 408.54 25.06C402.12 25.76 396.16 28.32 390.17 30.56C383.17 33.19 375.76 35.34 369.43 39.18C361.01 44.29 351.77 47.71 344.08 54.62C337.08 60.95 335.02 70.09 328.41 76.31C326.41 78.23 327.2 81.93 327.82 84.5C329.26 90.44 330.25 96.5 331.65 102.4C333.94 112.14 341.06 118.82 347.38 125.98C353.38 132.75 361.46 136.82 368.21 142.64C375.6 149.02 383.58 154.74 391.44 160.57C397.44 165.04 404.7 168.04 409.44 174.13C417.7 184.78 427.68 194 434.75 205.66C441.41 216.66 444.38 228.73 445.32 241.19C446.14 252.39 446.14 263.59 442.14 274.53C438.065 285.433 431.934 295.451 424.08 304.04C411.308 318.265 395.794 329.765 378.47 337.85C362.36 345.36 345.52 350.31 328.41 354.77C310.912 359.224 292.978 361.739 274.93 362.27C259.313 362.771 243.701 361.129 228.53 357.39C215.61 354.27 202.9 350.67 190.65 345.58C175.65 339.33 162.38 330.84 153.43 316.58C148.24 308.28 142.52 300.38 139.14 291.05C136.44 283.6 135.96 275.81 135.01 268.13C133.139 252.435 135.598 236.528 142.12 222.13C147.329 210.597 154.426 200.015 163.12 190.82C175.39 177.58 190.64 168.53 205.32 158.59C210.66 154.97 216.93 153.91 222.85 152.18C228.77 150.45 234.68 148.29 240.67 146.59C243.88 145.68 246.97 144.75 250.38 144.79C259.72 144.91 259.66 144.79 258.46 154.22C258.22 156.08 257.55 156.55 255.74 156.89C243.44 159.16 232.65 164.84 222.45 171.89C212.099 179.101 202.692 187.58 194.45 197.13C187.67 204.91 182.37 213.99 177.76 223.31C168.54 241.91 166.55 261.06 174.83 280.45C183.01 299.62 195.23 315.83 213.74 326C225.82 332.64 238.8 337.66 253.02 337.58C256.58 337.58 259.53 340.31 263.56 339.37C259.25 335.72 254.03 334.21 249.5 331.51C241.55 326.76 236.39 319.75 231.6 312.27C225.6 302.85 220.72 292.78 218.35 281.83C216.35 272.45 215.18 262.96 216.48 253.19C218.15 240.69 220.7 228.63 226.55 217.3C236.81 197.41 252.04 182.92 272.55 174.18C274.55 173.31 276.88 172.69 279.26 171.9C281.26 180.06 282.47 187.63 277.57 195.62C275.441 198.992 273.029 202.177 270.36 205.14C265.62 210.62 263.36 217.76 258.51 223.4C251.51 231.6 247.4 241.86 245.11 251.91C243.134 261.217 243.498 270.869 246.17 280C249.74 292.43 255.86 303.15 266.32 311.16C275.039 317.746 285.278 322.028 296.09 323.61C311.21 326.04 326.32 324.95 341.09 321.47C359 317.24 375.77 310.16 390.28 298.33C400.015 290.616 408.749 281.717 416.28 271.84C426.55 258.04 426.4 244.2 418.28 229.58C409.01 212.86 396.4 199.24 381.37 187.58C364.5 174.48 346.16 163.45 329.37 150.14C314.23 138.14 303.37 123.38 299.88 104.37C296.7 87.09 300.48 70.79 310.16 55.81C319.64 41.15 332.6 30.89 347.89 22.94C357.16 18.11 366.49 13.51 376.35 10.07C388.661 5.82744 401.453 3.13995 414.43 2.06999C416.24 1.91999 426.3 -0.150013 436.63 0.0699873C444.998 0.363336 453.302 1.64218 461.37 3.88" fill="#BD1212"/>
<path d="M1143.54 404.45C1134.73 403.14 1126.79 402.1 1118.9 400.7C1116.12 400.205 1113.3 399.987 1110.48 400.05C1108.93 400.05 1106.86 399.4 1106.27 401.62C1106 402.492 1105.94 403.419 1106.12 404.317C1106.29 405.215 1106.69 406.054 1107.27 406.76C1109.5 409.52 1111.54 412.43 1113.88 415.58C1110.16 416.58 1107.88 414.29 1105.44 413.41C1092.68 408.69 1079.32 406.82 1066.16 403.88C1053.16 400.99 1039.85 400.24 1027.16 395.22C1019.57 392.22 1010.71 391.93 1002.51 392.87C992.74 393.99 983.85 390.58 974.51 389.38C964.84 388.13 955.28 386.57 945.41 386.57C935.33 386.57 925.27 384.69 915.17 383.93C894.29 382.35 873.39 381.13 852.44 380.49C841.73 380.16 831.11 377.7 820.44 376.71C813.18 376.04 805.9 376.51 799.33 380.4C798.314 380.992 797.174 381.34 796.001 381.414C794.827 381.489 793.653 381.289 792.57 380.83C787.36 378.23 782.57 379.71 777.81 381.41C773.81 382.83 770.32 381.41 766.94 379.81C763.36 378.15 759.94 376.16 755.87 376.04C755.22 376.04 754.25 376.11 753.97 375.73C750.18 370.68 748.97 374.51 747.63 377.56C746.55 380.05 745.08 380.64 742.63 379.3C740.959 378.343 739.072 377.829 737.147 377.806C735.222 377.783 733.323 378.253 731.63 379.17C726.9 381.6 721.83 380.4 716.98 381.17C702.29 383.58 687.43 382.61 672.68 383.78C666.94 384.24 661.68 385.22 656.86 388.32C654.91 389.58 653.03 390.06 650.86 389.1C645.09 386.58 639.3 387.1 633.58 389.23C632.004 389.743 630.358 390.01 628.7 390.02C614.02 390.72 599.34 390.79 584.64 390.79C570.52 390.79 556.07 390.58 542.38 393.44C523.06 397.44 503.38 396.74 484.16 400.13C472.79 402.13 461.25 402.89 450.06 406.44C437.77 410.33 424.74 411.1 411.99 412.81C397.73 414.72 383.45 416.47 369.31 419.09C359.25 420.95 349.31 423.39 339.21 425.02C330.56 426.41 322.13 428.64 313.62 430.59C312.163 430.779 310.684 430.691 309.26 430.33C305.56 429.82 301.87 429.04 298.45 432.11C296.6 433.77 293.73 434.32 290.95 434.18C281.76 433.71 272.95 436.05 264.14 438.18C255.14 440.34 246.14 442.18 237.14 444.18C228.33 446.11 219.46 448 210.84 450.94C199.03 454.94 187.11 458.87 174.42 458.94C172.453 459.068 170.514 459.472 168.66 460.14C166.66 460.69 164.29 463.43 162.9 459.24C162.8 458.94 161.01 458.97 160.07 459.18C147.563 461.98 135.23 465.367 123.07 469.34C102.2 476.14 81.98 484.79 61.07 491.44C44.07 496.85 26.87 501.95 9.12 504.6C6.39 505.01 2.69 506.22 1.32 503.34C-0.22 500.07 3.84 498.94 5.82 497.39C8.38 495.39 11.82 494.84 14.68 493.39C26.29 487.29 38.87 483.93 51.13 479.61C66.13 474.33 81.49 471.15 96.91 467.69C109.64 464.82 122.16 460.8 134.65 456.77C151.11 451.45 167.18 445.08 183.65 439.77C192.85 436.77 202.11 433.9 211.35 431.03C221.82 427.78 232.66 425.68 243.35 423.1C251.18 421.21 259.01 419.31 266.86 417.49C279.03 414.67 291.22 411.94 303.38 409.11C311.25 407.29 319.04 405.11 326.94 403.52C340.65 400.74 354.19 397.18 368.04 395.02C378.04 393.47 387.77 390.83 397.71 389.18C414 386.46 430.15 382.85 446.61 381.18C453.2 380.5 459.61 378.91 466.19 377.89C480.43 375.68 494.77 374.31 508.97 371.75C521.5 369.49 534.3 368.75 546.97 367.19C556.33 366.01 565.64 364.42 574.97 363.19C590.06 361.19 605.23 359.57 620.26 357.19C637.15 354.47 654.26 353.53 671.14 351.04C680.32 349.69 689.62 348.96 698.9 348.41C727.29 346.71 755.68 345.01 784.13 345.02C811.41 345.02 838.65 346.12 865.89 347.95C884.62 349.21 903.22 351.44 921.89 353.44C936.37 355 950.75 357.51 965.16 359.68C977.24 361.5 989.37 363.12 1001.36 365.39C1019.36 368.8 1037.26 372.39 1055.05 376.52C1069.59 379.94 1084.05 383.6 1098.46 387.8C1113.22 392.12 1127.46 397.8 1141.96 402.8C1142.34 402.93 1142.57 403.5 1143.58 404.73" fill="white"/>
<path d="M671.7 252.01C675.53 247.37 677.15 241.92 678.6 236.75C680.6 229.51 685.12 223.67 688.11 217.02C691.72 209.02 696.11 201.37 700.29 193.63C712.43 171.2 725.54 149.49 746.98 134.4C748.64 133.23 750.17 131.5 752.57 131.62C755.35 131.75 758.66 131.22 757.16 135.91C757.034 136.231 757.034 136.589 757.16 136.91C762.59 145.31 755.54 150.75 751.47 155.6C743.47 165.09 738.47 176.21 731.92 186.44C729.522 189.931 727.408 193.61 725.6 197.44C724.6 199.73 715.67 214.69 711.9 222.71C707.9 231.31 703 247.45 699.64 255.59C695.31 266.08 691.49 277.08 683.55 285.65C678.77 290.8 673.5 295.44 665.55 294.04C664.223 293.881 662.885 293.827 661.55 293.88C649.92 293.66 644.88 288.68 643.81 276.88C641.67 253.14 641.5 229.47 644.51 205.75C646.62 189.16 648.51 188.58 653.81 172.75C654.209 171.597 654.894 170.565 655.802 169.75C656.709 168.935 657.808 168.364 658.997 168.09C660.185 167.816 661.424 167.848 662.596 168.184C663.769 168.52 664.837 169.148 665.7 170.01C666.125 170.368 666.416 170.861 666.523 171.406C666.631 171.952 666.548 172.518 666.29 173.01C665.629 174.599 665.254 176.291 665.18 178.01C664.99 179.57 665.04 182.01 665.99 182.74C671.47 187.02 667.33 196.9 668.99 201.91C672.22 211.91 668.93 207.22 671.58 216.5C675.04 228.61 669.99 239.83 671.72 251.98" fill="white"/>
<path d="M692.36 139.39C688.52 134.15 659.89 132.45 637.06 143.21C618.2 152.09 611.95 158.48 611.06 160.47C610.74 161.14 611.9 156.4 611.21 153.82C610.88 152.59 608.13 152.94 606.6 153.04C604.24 153.2 604.5 152.12 601.35 153.69C600.35 154.2 596.76 151.85 596.35 153.75C595.35 158.81 594.65 173.56 590.35 186.23C582.95 207.87 559.7 243.33 537.45 265.71C530.45 272.71 507.82 294.61 490.45 283.71C486.45 281.23 486.35 275.38 485.96 270.43C484.68 253.77 489.96 243.12 496.4 228.24C497.57 225.55 498.66 225.38 501.34 224.24C505.34 222.51 509.4 220.7 513.48 219.07C524.84 214.53 535.33 209.87 545.19 202.57C556.38 194.28 565.55 188.22 574.64 172.99C582.45 159.88 583.92 135.17 563.54 133.17C543.75 131.17 517.84 147.01 504.54 161.41C488.25 179.11 488.03 187.05 479.12 205.1C478.748 205.872 478.281 206.594 477.73 207.25C474.94 211 470.07 212.72 466.11 213.61C463.11 214.27 458.64 216.18 461.11 218.47C464.63 221.74 462.42 225.54 466.29 225.54C471.22 225.54 467.44 232.15 466.73 234.66C461.97 251.47 459.83 268.41 464.11 285.66C466.26 294.32 471.18 301.11 479.48 305.08C490.89 310.54 510.27 306.89 521.14 302.28C549.2 290.38 580.5 246.08 581.33 239.95C578.41 257.8 574.19 272.73 571.93 289.16C571.04 295.6 577.3 298.73 585.25 300.56C588.54 301.32 595.11 294.56 597.76 297.56C598.76 298.67 601 296.3 600.94 294.63C600.81 291.24 600.13 290.86 599.62 282.69C599.681 276.547 600.169 270.416 601.08 264.34C601.7 261.34 605.88 240.86 605.55 237.26C605.03 231.64 606.72 231.07 607.36 223.21C609.61 195.87 623.2 180.35 629.36 174.45C661.27 144.11 688.67 150.85 690.08 151.9C694.03 154.83 695.61 146.49 693.53 144.48C691.23 142.27 692.72 139.96 692.32 139.4M555.64 153.89C574.06 171.39 501.71 208.65 508.89 192.89C521.38 165.51 550.11 148.64 555.64 153.89Z" fill="white"/>
<path d="M815.14 181.63C815.72 177.63 815.5 173.14 816.14 169.31C817.48 160.87 825.37 153.69 831.59 148.22C834.46 145.7 836.07 142.08 839.38 139.71C841.85 137.94 844.38 136.9 846.51 138.25C848.64 139.6 846.99 173.63 838.08 203.73C828.37 236.28 825.14 246.29 818.64 264.39C816.81 269.54 819.71 269.39 821.97 268.31C828.97 265.02 851.29 229.72 858.97 212.78C864.5 200.54 875.13 178.78 881.13 162.66C884.04 154.82 887.02 146.06 893.07 137.54C894.48 135.54 898.13 129.21 916.91 128.89C920.24 128.83 916.78 138.11 922.4 135.99C924.16 135.99 922.08 140.19 916.85 145.06C907.59 153.69 902.75 169.57 906.04 181.86C909.17 193.57 924.27 207 932.65 215.48C946.11 229.09 947.88 245.74 945.65 263.1C944.34 273.41 937.39 281.32 929.12 287.52C920.85 293.72 911.3 298.07 901.91 301.82C892.27 305.67 882.18 308.62 872.4 312.35C870.899 312.885 869.306 313.109 867.715 313.01C866.125 312.91 864.572 312.488 863.15 311.77C859.54 309.95 855.88 310.2 852.05 311.34C848.56 312.34 844.94 312.74 841.05 310.88C845.05 305.07 851.05 303.06 856.72 300.88C874.58 294.12 890.6 284.36 905.67 272.73C909.757 269.42 913.244 265.432 915.98 260.94C922.13 251.5 920.46 240.78 911.78 229.17C904.45 219.38 894.51 211.47 888.89 200.5C887.321 197.283 885.984 193.958 884.89 190.55C881.11 198.83 878.27 204.67 874.56 212.75C850.96 273.39 825.05 292.2 816.31 286.25C813.91 284.89 813.58 280.76 809.61 280.74C805.47 280.74 806.09 283.09 801.61 286.57C797.13 290.05 791.87 292.96 773.41 293.47C768.54 293.61 761.3 292.94 754.85 289.14C747.289 284.808 741.616 277.812 738.94 269.52C734.16 254.24 732.74 239.29 736.34 223.26C740.41 205.15 743.55 193.92 753.98 177.26L756.76 171.97C759.31 165.92 763.61 160.97 765.87 154.66C767.92 148.95 772.87 144.66 777.97 141.19C781.28 138.92 785.3 139.1 788.97 140.93C791.57 142.24 791.6 144.93 791.65 147.44C791.694 148.094 791.594 148.75 791.357 149.362C791.121 149.973 790.753 150.526 790.28 150.98C783.9 157.47 779.49 165.09 778.59 174.25C778.28 177.51 775.2 178.83 773.25 183.25C772.81 184.25 771.93 186.43 771.59 187.02C771.08 187.92 771.41 189.34 770.59 191.12C767.59 197.5 762.39 206.38 759.13 217.28C757.82 221.69 757.89 227.58 756.95 232.02C753.55 248.11 753.29 274.12 772.88 274.77C788.56 275.29 812.72 197.97 815.08 181.63" fill="white"/>
<path d="M255.77 156.91C256.237 156.835 256.694 156.704 257.13 156.52C256.669 156.622 256.215 156.753 255.77 156.91C252.909 157.44 250.086 158.158 247.32 159.06C238.43 161.93 230.32 166.51 222.48 171.87C212.124 179.078 202.717 187.561 194.48 197.12C187.69 204.89 182.4 213.97 177.78 223.29C168.57 241.89 166.58 261.04 174.85 280.43C183.03 299.6 195.26 315.81 213.77 325.98C225.84 332.62 238.82 337.64 253.05 337.56C256.6 337.56 259.56 340.29 263.59 339.35C259.27 335.7 254.05 334.19 249.52 331.49C241.57 326.74 236.41 319.73 231.62 312.26C225.62 302.83 220.74 292.76 218.38 281.81C216.38 272.43 215.2 262.94 216.51 253.17C218.17 240.67 220.73 228.61 226.57 217.28C236.83 197.39 252.06 182.91 272.57 174.16C274.57 173.3 276.9 172.67 279.29 171.88C279.175 171.488 279.034 171.104 278.87 170.73C278.87 170.73 273.78 160.66 268.76 158.14C265.214 156.202 261.081 155.626 257.14 156.52" fill="#E9E9E9"/>
<path d="M1067.08 191.62L1053.08 236.79C1051.23 242.31 1050.76 247.72 1049.54 253.23H1049.22C1047.84 247.84 1047.06 242.45 1045.07 237.04L1031.14 191.62H955.41V209.19H973.41V286.19H996.41V209.19H1012.8L1040.15 286.19H1058.93L1091.14 191.62H1067.08Z" fill="white"/>
</svg>
