<svg width="396" height="181" viewBox="0 0 396 181" fill="none" xmlns="http://www.w3.org/2000/svg">
<path fill-rule="evenodd" clip-rule="evenodd" d="M19.1 2.9C17.8 4.2 14 8.2 11.8 12.3C11.4 13 10.4 15.1 10.3 15.3C10.2 15.4 9.90001 16.2 9.50001 16.9C9.10001 17.6 8.90001 18.3 8.90001 18.4C8.90001 18.5 8.80001 18.6 8.70001 18.6C8.60001 18.6 8.60001 18.6 8.60001 18.7C8.70001 18.8 8.40001 19.5 8.00001 20.5C7.60001 21.4 7.30001 22.3 7.30001 22.4C7.30001 22.5 7.00001 23.3 6.70001 24.2C6.40001 25.1 6.10001 25.9 6.10001 26.1C6.10001 26.3 5.70001 27.5 5.30001 28.8C4.90001 30.1 4.50001 31.3 4.50001 31.5C4.50001 31.7 4.20001 32.9 3.90001 34.1C3.60001 35.4 3.30001 36.7 3.20001 37.2C3.20001 37.6 2.90001 38.9 2.70001 40C2.20001 42.4 2.10001 43.3 2.00001 43.7C2.00001 43.8 1.90001 44.2 1.90001 44.5C1.80001 44.8 1.80001 45.8 1.70001 46.6C1.60001 47.4 1.50001 49.2 1.30001 50.6C0.700008 56.2 0.800008 65.5 1.50001 70.5C1.60001 71.5 1.70001 72.5 1.60001 72.7C1.50001 73 1.60001 73.2 1.70001 73.2C1.80001 73.2 1.90001 73.3 1.80001 73.5C1.70001 73.8 2.30001 77.4 2.80001 79.2C2.90001 79.7 3.10001 80.5 3.10001 80.9C3.10001 81.3 3.50001 82.7 3.80001 83.9C4.20001 85.1 4.40001 86.2 4.40001 86.3C4.40001 86.4 4.40001 86.4 4.50001 86.4C4.60001 86.4 4.60001 86.5 4.60001 86.6C4.50001 86.7 4.80001 87.6 5.20001 88.6C5.60001 89.6 5.90001 90.6 6.00001 90.9C6.00001 91.1 6.40001 92 6.70001 92.8C7.10001 93.6 7.40001 94.4 7.40001 94.5C7.40001 94.6 7.70001 95.3 8.10001 96C8.50001 96.7 8.70001 97.4 8.70001 97.4C8.60001 97.5 8.70001 97.5 8.80001 97.5C8.90001 97.5 9.00001 97.5 8.90001 97.6C8.80001 97.7 9.10001 98.3 9.50001 99.1C9.90001 99.8 10.2 100.5 10.2 100.6C10.2 100.7 10.5 101.3 10.9 101.9C11.3 102.5 11.5 103 11.5 103.1C11.5 103.2 11.5 103.2 11.6 103.2C11.7 103.2 11.7 103.3 11.7 103.4C11.7 103.5 12 104 12.3 104.6C12.6 105.1 12.9 105.6 12.9 105.7C12.9 105.8 13 105.9 13.1 105.9C13.2 105.9 13.3 106 13.2 106C13.2 106.1 13.5 106.9 13.7 107C13.8 107 14.2 107.7 14.6 108.4C15.1 109.1 15.5 109.8 15.6 109.8C15.7 109.8 15.7 110 15.7 110.1C15.7 110.2 15.8 110.3 15.9 110.3C16 110.3 16 110.3 16 110.4C16 110.5 16.3 110.9 16.7 111.5C17.2 112 17.5 112.6 17.4 112.6C17.3 112.7 17.4 112.8 17.5 112.8C17.6 112.8 18 113.2 18.4 113.8C21.2 117.7 27.7 124.1 31 126.3C31.2 126.4 32.1 127.1 32.9 127.7C34.8 129.2 35.6 129.7 37.5 131C38.3 131.6 39 132.1 39.1 132.2C39.2 132.3 39.2 132.3 39.3 132.3C39.4 132.3 39.5 132.4 39.7 132.5C39.9 132.6 40.6 133.1 41.3 133.6C42 134.1 42.9 134.6 43.2 134.8C43.5 135 43.8 135.2 43.8 135.2C43.8 135.2 44.2 135.4 44.6 135.6C45 135.8 45.5 136.1 45.7 136.2C45.9 136.3 46.1 136.5 46.1 136.6C46.1 136.7 46.1 136.7 46.2 136.7C46.3 136.6 46.5 136.7 46.7 136.9C46.9 137.1 47.7 137.5 48.3 137.8C48.9 138.1 50.3 138.9 51.3 139.4C52.3 139.9 53.2 140.4 53.3 140.4C53.4 140.4 53.5 140.5 53.5 140.5C53.5 140.6 53.6 140.6 53.6 140.6C53.8 140.6 56.7 142 56.8 142.2C56.9 142.3 56.9 142.3 56.9 142.2C56.9 142.1 57.5 142.4 58.2 142.7C58.9 143.1 59.6 143.3 59.6 143.3C59.7 143.2 59.7 143.3 59.7 143.4C59.7 143.5 59.7 143.6 59.8 143.5C59.9 143.4 60.6 143.7 61.5 144.1C62.4 144.5 63.1 144.8 63.2 144.7C63.3 144.6 63.3 144.7 63.3 144.8C63.3 144.9 63.4 145 63.4 144.9C63.5 144.9 64.2 145.1 64.9 145.4C65.7 145.7 66.4 146 66.5 146C66.6 146 66.7 146.1 66.7 146.1L66.8 146.2C66.9 146.2 67.7 146.4 68.7 146.8C69.7 147.2 70.6 147.5 70.7 147.5C70.9 147.5 71 147.5 71 147.6C71 147.7 71.1 147.7 71.3 147.7C71.5 147.7 72.3 148 73.1 148.2C73.9 148.5 74.7 148.7 74.9 148.8C75.1 148.8 75.2 148.9 75.2 149C75.2 149.1 75.3 149.1 75.4 149.1C75.5 149.1 76.6 149.3 77.7 149.7C78.8 150.1 80 150.4 80.3 150.4C80.6 150.4 81.8 150.7 83 151.1C84.2 151.4 85.2 151.7 85.3 151.6C85.4 151.5 85.5 151.6 85.5 151.7C85.5 151.8 85.6 151.9 85.8 151.8C86 151.8 86.1 151.8 86.1 151.9C86.1 152 86.2 152 86.3 152C86.4 152 87.6 152.2 88.8 152.5C90.1 152.8 91.2 153 91.3 153C91.4 153 91.5 153 91.5 153.1C91.5 153.2 91.7 153.2 91.9 153.2C92.1 153.1 92.3 153.2 92.3 153.2C92.3 153.2 92.5 153.3 92.8 153.3C93.1 153.3 94.5 153.6 96.1 153.9C97.6 154.2 99 154.5 99 154.4C99.1 154.3 99.2 154.4 99.3 154.5C99.4 154.6 99.5 154.6 99.7 154.6C99.8 154.5 100 154.6 100.1 154.6C100.2 154.7 100.5 154.7 100.7 154.7C100.9 154.7 102.5 155 104.2 155.3C105.9 155.6 107.3 155.9 107.4 155.8C107.5 155.7 107.6 155.8 107.7 155.9C107.8 156 107.9 156 108 156C108.1 156 109.6 156.2 111.2 156.5C112.8 156.8 114.5 157.1 114.9 157.1C115.3 157.1 115.7 157.2 115.8 157.3C115.9 157.4 116 157.4 116.1 157.3C116.2 157.3 118.2 157.5 120.6 157.9C123 158.3 125.1 158.5 125.3 158.5C125.5 158.5 125.8 158.5 125.9 158.6C126.1 158.7 126.3 158.7 126.5 158.6C126.6 158.5 126.9 158.6 127 158.7C127.1 158.8 127.4 158.8 127.6 158.8C127.8 158.8 129.9 159 132.4 159.4C134.8 159.8 137 160 137.1 160C137.3 159.9 137.4 160 137.4 160.1C137.4 160.2 137.6 160.3 137.9 160.3C138.5 160.3 138.7 160.3 142.7 160.9C144.2 161.1 145.5 161.3 145.5 161.2C145.5 161.2 145.8 161.2 146 161.3C146.3 161.5 146.5 161.5 146.6 161.3C146.7 161.1 146.8 161.1 146.9 161.3C147 161.4 147.2 161.5 147.5 161.4C147.8 161.3 147.9 161.4 147.9 161.5C147.9 161.6 148.1 161.7 148.3 161.6C148.5 161.6 150.4 161.8 152.4 162.1C154.4 162.4 156.2 162.6 156.3 162.6C156.4 162.6 156.6 162.6 156.6 162.7C156.7 162.8 156.9 162.8 157.3 162.8C157.6 162.7 157.9 162.8 157.9 162.8C157.9 162.9 158.3 163 158.7 163C159.1 163 161.6 163.3 164.2 163.6C166.8 163.9 169.1 164.2 169.3 164.1C169.5 164 169.7 164.1 169.7 164.2C169.7 164.3 170.2 164.4 170.7 164.4C171.3 164.4 173.9 164.7 176.6 165C179.3 165.3 181.8 165.6 182.1 165.6C182.5 165.6 182.8 165.7 182.8 165.8C182.8 165.9 183 165.9 183.3 165.9C183.6 165.9 185.7 166.1 188.1 166.5C190.5 166.9 192.5 167.1 192.6 167.1C192.7 167 192.9 167.1 193 167.2C193.1 167.3 193.4 167.4 193.6 167.3C193.8 167.3 195.8 167.5 198.1 167.8C200.4 168.1 202.3 168.3 202.4 168.3C202.5 168.3 202.7 168.3 202.7 168.4C202.8 168.5 203 168.5 203.4 168.5C203.8 168.4 204 168.5 204 168.6C204 168.7 204.2 168.8 204.6 168.7C205 168.6 205.2 168.7 205.2 168.8C205.2 168.9 205.4 168.9 205.7 168.9C205.9 168.9 207.7 169.1 209.6 169.4C211.5 169.7 213.1 169.9 213.2 169.9C213.3 169.8 213.4 169.9 213.4 170C213.4 170.1 213.6 170.2 213.8 170.2C214 170.2 214.3 170.2 214.5 170.3C214.7 170.4 214.9 170.4 214.9 170.3C215 170.2 216.4 170.5 218 170.9C219.6 171.3 221.2 171.6 221.6 171.6C221.9 171.6 223.3 171.9 224.7 172.3C226.1 172.6 227.4 172.9 227.6 172.9C227.8 172.9 228 173 228 173C228 173.1 228.2 173.1 228.5 173.1C228.8 173.1 229.9 173.4 231 173.7C232.1 174 233 174.3 233.1 174.2C233.2 174.1 233.3 174.2 233.3 174.3C233.3 174.4 233.4 174.4 233.5 174.4C233.6 174.3 234.4 174.6 235.2 174.9C236.1 175.2 236.9 175.5 237 175.5C237.1 175.5 237.3 175.6 237.3 175.7C237.4 175.8 237.6 175.9 237.8 175.9C238.7 176.1 248.6 180.6 248.6 180.6V83.3C248.6 83.3 238.9 81.3 235.7 80.7C233.7 80.3 227.6 79.4 227.5 79.5C227.4 79.6 227.2 79.5 227.1 79.4C227 79.3 226.7 79.2 226.6 79.3C226.5 79.4 224.3 79.1 221.7 78.7C219.2 78.3 217 78.1 216.9 78.1C216.8 78.1 216.6 78.1 216.5 78C216.4 77.9 216.1 77.8 215.9 77.9C215.7 77.9 213.5 77.7 211 77.3C208.5 76.9 206.4 76.7 206.3 76.7C206.2 76.8 206 76.7 205.9 76.6C205.8 76.5 205.5 76.5 205.2 76.5C204.9 76.6 204.8 76.5 204.8 76.4C204.8 76.3 204.7 76.2 204.4 76.3C204.2 76.4 202.1 76.1 199.8 75.7C197.5 75.3 195.5 75.1 195.4 75.1C195.3 75.2 195.1 75.1 195 75C194.9 74.9 194.7 74.8 194.6 74.9C194.5 75 192.7 74.7 190.6 74.3C188.5 73.9 186.7 73.7 186.6 73.7C186.6 73.7 186.4 73.7 186.3 73.6C186.2 73.5 186 73.5 185.9 73.5C185.8 73.5 185.3 73.5 184.9 73.4C182.3 72.9 178.6 72.2 178.2 72.2C177.9 72.2 177.7 72.1 177.6 72.1C177.6 72.1 177.5 72.1 177.4 72.1C177.3 72.1 175.8 71.8 174.1 71.5C172.3 71.1 170.8 70.9 170.8 70.9C170.7 70.9 170.6 70.9 170.6 70.8C170.5 70.7 170.4 70.7 170.3 70.7C170.2 70.7 168.8 70.5 167.1 70.1C165.5 69.7 164.1 69.5 164 69.5C163.9 69.5 163.8 69.5 163.8 69.4C163.7 69.3 163.5 69.3 163.4 69.3C163.2 69.4 163.1 69.3 163.1 69.2C163.1 69.1 163 69 162.8 69.1C162.7 69.2 161.3 68.9 159.7 68.5C158.1 68.1 156.7 67.9 156.6 67.9C156.5 67.9 156.4 67.9 156.4 67.8C156.4 67.7 156.1 67.6 155.8 67.6C155.5 67.6 154.3 67.3 153.3 67C152.2 66.7 151.2 66.4 151 66.3C150.4 66.2 148.8 65.5 148.8 65.3C148.8 65.2 148.8 65.2 148.7 65.2C148.6 65.3 148.4 65.2 148.1 65.1C147.8 65 147.6 64.9 147.5 65C147.4 65.1 147.4 65 147.4 64.9C147.4 64.8 147.4 64.7 147.3 64.8C147.2 64.9 146.1 64.3 145.9 64C145.8 63.9 145.8 63.9 145.7 63.9C145.6 63.9 144.6 63.5 143.8 63C143.6 62.9 143.4 62.7 143.4 62.7C143.4 62.7 143.3 62.6 143.2 62.6C142 62.6 136.1 56.2 136 54.7C136 54.5 135.8 54.1 135.7 53.7C134.8 51.6 134.7 48.5 135.5 45.9C135.8 45.1 136 44.4 136 44.2C136.1 43.8 137 42.1 137.3 41.8C137.4 41.7 137.5 41.5 137.4 41.5C137.4 41.4 137.5 41.2 137.6 41.1C138 40.6 138.7 39.7 138.6 39.7C138.6 39.7 138.8 39.4 139.2 39C139.6 38.6 139.9 38.2 139.9 38.2C139.9 38.1 140 38.1 140.1 38.2C140.2 38.3 140.2 38.2 140.2 38.1C140.1 37.9 141.7 36.3 143.3 35.1C143.9 34.6 144.5 34.2 144.6 34.1C144.7 34 144.9 33.9 145 33.9C145.1 33.9 145.4 33.8 145.6 33.6C146.4 33 150 31.3 150.7 31.2C150.9 31.2 151.9 30.9 152.9 30.5C153.9 30.2 154.9 29.9 155.2 29.9C155.5 29.9 155.7 29.8 155.7 29.7C155.7 29.6 155.8 29.6 155.8 29.6C155.9 29.6 156.8 29.5 157.9 29.3C160.8 28.7 164.1 28.2 164.5 28.3C164.7 28.3 164.9 28.3 165.1 28.2C165.2 28.1 165.4 28.1 165.4 28.1C165.4 28.1 166.8 28 168.5 27.9C177.5 26.9 187.4 26.9 196.1 27.8C197.4 27.9 198.7 28.1 199 28.2C199.4 28.3 199.5 28.3 199.5 28.2C199.5 28.1 199.6 28.1 199.7 28.2C199.8 28.3 200.1 28.4 200.3 28.3C200.6 28.2 203.8 28.7 206.4 29.3C207.1 29.4 207.7 29.5 207.8 29.5C207.9 29.4 208 29.5 208 29.6C208 29.7 208.1 29.8 208.4 29.7C208.7 29.6 208.8 29.7 208.8 29.8C208.8 29.9 208.9 29.9 209 29.9C209.1 29.9 210.2 30.1 211.5 30.4C212.7 30.7 213.9 31 214.1 31C214.3 31 214.5 31.1 214.5 31.2C214.5 31.3 214.6 31.3 214.7 31.3C214.8 31.3 215.7 31.5 216.7 31.9C217.7 32.2 218.6 32.5 218.7 32.4C218.8 32.4 218.8 32.4 218.8 32.5C218.8 32.6 218.9 32.6 218.9 32.6C219 32.6 219.9 32.9 220.9 33.3C221.9 33.7 222.8 34.1 222.8 34C222.8 33.9 225 35 225.9 35.5C227.5 36.4 229.1 37.3 229.4 37.6C229.6 37.8 229.9 37.9 230 37.9C230.1 37.9 230.2 38 230.2 38.1C230.2 38.2 230.3 38.3 230.4 38.3C230.5 38.3 230.8 38.5 231.1 38.8C231.4 39.1 231.7 39.3 231.7 39.3C231.9 39.3 233.9 41.2 235 42.4C236.1 43.5 237.4 45.2 237.2 45.2C237.1 45.2 237.2 45.3 237.4 45.5C237.9 46.1 238.5 46.8 238.7 47.2C238.8 47.4 239 47.7 239.1 47.9C239.4 48.2 241.3 52.2 241.4 52.6C241.4 52.7 241.8 53.7 242.1 54.6C242.5 55.6 242.9 57.1 242.9 57.1H248.5V2.9" fill="white"/>
<path fill-rule="evenodd" clip-rule="evenodd" d="M273.2 84.3V180.6L395.4 180.8V108.8C395.4 108.8 391.5 106.7 390.1 106.1C389.7 105.9 389.2 105.8 388.3 105.4C387.5 105.1 386.6 104.8 386.5 104.7C386.3 104.7 385.4 104.3 384.5 104C383.6 103.6 382.8 103.3 382.6 103.3C382.5 103.3 381.6 103 380.7 102.6C379.8 102.2 378.8 101.9 378.5 101.8C378.2 101.8 377.3 101.4 376.5 101.1C375.6 100.8 374.8 100.5 374.7 100.5C374.5 100.5 374.4 100.4 374.4 100.3C374.4 100.2 374.3 100.2 374.3 100.2C374.2 100.3 373.3 100 372.3 99.6C371.3 99.2 370.2 98.9 370 98.9C369.8 98.9 368.8 98.6 367.8 98.2C366.8 97.9 365.8 97.6 365.6 97.6C365.4 97.6 364.3 97.3 363.2 96.9C362.1 96.5 361.1 96.2 360.9 96.2C360.7 96.2 360.6 96.1 360.6 96.1C360.6 96.1 360.4 96 360.2 96C360 96 358.8 95.7 357.7 95.3C356.6 95 355.4 94.7 355 94.6C354.6 94.5 353.2 94.2 351.7 93.8C350.2 93.4 348.9 93.2 348.7 93.2C348.6 93.3 348.4 93.2 348.4 93.1C348.4 93 348.2 92.9 347.9 92.9C347.6 92.9 346.1 92.6 344.6 92.3C343 92 341.6 91.7 341.5 91.8C341.4 91.9 341.2 91.8 341.2 91.7C341.2 91.6 340.9 91.5 340.6 91.5C340.3 91.5 338.3 91.2 336.3 90.9C334.3 90.6 332.6 90.3 332.5 90.4C332.4 90.5 332.2 90.4 332.1 90.3C332 90.2 331.8 90.1 331.6 90.2C331.5 90.3 329.3 90 326.7 89.6C324.2 89.2 322 88.9 321.9 89C321.8 89.1 321.6 89 321.5 88.9C321.4 88.8 321.2 88.7 321.1 88.8C321 88.9 319 88.6 316.7 88.2C314.4 87.8 312.3 87.6 312.2 87.6C312 87.7 311.9 87.6 311.9 87.5C311.9 87.4 311.7 87.3 311.5 87.4C311.3 87.4 308.8 87.2 306 86.8C303.2 86.4 300.8 86.1 300.7 86.2C300.5 86.3 300.3 86.2 300.2 86.2C300.1 86.1 299.7 86.1 299.2 86C298.8 86 296.2 85.7 293.4 85.4C290.6 85.1 288.2 84.8 288 84.9C287.8 85 287.6 84.9 287.4 84.8C287.3 84.7 287 84.6 286.7 84.7C286.4 84.7 284.7 84.7 282.8 84.5C280.9 84.3 278.6 84.1 277.6 84.1C276.6 84 275.4 84 275 83.9C274.6 83.9 273.9 83.9 273.6 84" fill="white"/>
<path d="M328.9 77.4C363.97 77.4 392.4 60.0734 392.4 38.7C392.4 17.3266 363.97 0 328.9 0C293.83 0 265.4 17.3266 265.4 38.7C265.4 60.0734 293.83 77.4 328.9 77.4Z" fill="white"/>
</svg>
