<svg width="445" height="339" viewBox="0 0 445 339" fill="none" xmlns="http://www.w3.org/2000/svg">
<path d="M338.607 58.3617L64.0336 0L0 301.255L304.194 338.605L338.607 58.3617Z" fill="#007796"/>
<path d="M203.854 139.97C203.854 139.97 208.602 139.591 212.969 139.591C226.639 139.591 232.524 146.425 232.524 156.298C232.524 167.31 224.739 173.386 212.208 173.386C208.032 173.386 203.854 173.197 203.854 173.197L203.854 139.97ZM272.587 244.396L247.335 203.765C243.348 197.119 238.03 189.716 238.03 189.716C252.839 184.779 263.663 173.197 263.663 153.831C263.663 126.489 245.436 115.288 214.678 115.288C192.463 115.288 174.235 116.237 174.235 116.237V244.396H203.854V195.222H208.79L236.702 244.396H272.587ZM147.467 116.806C138.734 115.097 130 113.958 121.455 113.958C91.2667 113.958 73.0394 130.476 73.0394 152.882C73.0394 194.652 125.633 188.195 125.633 208.892C125.633 217.056 119.367 221.043 108.924 221.043C98.8609 221.043 86.7093 218.004 78.1664 214.398L74.9405 242.498C84.0531 244.777 96.0126 246.674 107.594 246.674C138.924 246.674 156.961 229.398 156.961 206.043C156.961 164.083 104.179 170.728 104.179 150.034C104.179 142.437 109.873 138.452 120.316 138.452C128.1 138.452 136.646 140.161 144.619 142.818L147.467 116.806Z" fill="white"/>
<path d="M400.202 57.6105C375.687 57.6105 355.815 77.484 355.815 101.998C355.815 126.513 375.687 146.387 400.202 146.387C424.718 146.387 444.59 126.513 444.59 101.998C444.59 77.484 424.718 57.6105 400.202 57.6105ZM400.202 138.405C380.095 138.405 363.795 122.105 363.795 101.998C363.795 81.8911 380.095 65.5925 400.202 65.5925C420.309 65.5925 436.609 81.8911 436.609 101.998C436.609 122.105 420.309 138.405 400.202 138.405Z" fill="#007796"/>
<path d="M414.516 115.288V78.8342L377.924 91.9969V101.094L390.051 96.6827V124.041L414.516 115.288Z" fill="#007796"/>
</svg>
