<svg width="428" height="102" viewBox="0 0 428 102" fill="none" xmlns="http://www.w3.org/2000/svg">
<path d="M409.01 24.05H427.95L403.62 99H385.02L360.83 24.05H380.63L394.67 79.33L409.01 24.05Z" fill="#DA0812"/>
<path d="M227.25 0.19H206.11V100.05H227.25V0.19Z" fill="#DA0812"/>
<path fill-rule="evenodd" clip-rule="evenodd" d="M253.9 66.71H309.43C309.841 60.9604 309.339 55.182 307.94 49.59C306.642 44.3224 304.313 39.3638 301.09 35C297.995 30.7147 293.909 27.2424 289.18 24.88C283.881 22.1938 277.999 20.8609 272.06 21C266.55 20.9404 261.085 22.0054 256 24.13C251.34 26.1435 247.139 29.083 243.65 32.77C240.126 36.4372 237.402 40.7958 235.65 45.57C233.729 50.7113 232.77 56.1619 232.82 61.65C232.738 67.2107 233.625 72.7433 235.44 78C237.19 82.7532 239.873 87.1085 243.33 90.81C246.799 94.4484 251.016 97.2906 255.69 99.14C260.921 101.105 266.473 102.075 272.06 102C280.793 102 288.237 100.017 294.39 96.05C300.543 92.0833 305.11 85.4833 308.09 76.25H289.48C288.78 78.63 286.893 80.91 283.82 83.09C280.558 85.23 276.72 86.3221 272.82 86.22C266.867 86.22 262.303 84.6833 259.13 81.61C255.957 78.5367 254.213 73.57 253.9 66.71ZM288.29 53.31H253.9C254.035 51.5989 254.333 49.9045 254.79 48.25C255.413 46.3117 256.371 44.4976 257.62 42.89C259.098 41.1347 260.932 39.7133 263 38.72C265.641 37.4488 268.55 36.8347 271.48 36.93C276.64 36.93 280.463 38.32 282.95 41.1C285.437 43.88 287.217 47.95 288.29 53.31Z" fill="#DA0812"/>
<path d="M156.39 23.09V0H135.25V23.09H122.45V37.23H135.25V82.64C135.114 85.8712 135.777 89.0861 137.18 92C138.379 94.2823 140.186 96.189 142.4 97.51C144.792 98.8363 147.416 99.6917 150.13 100.03C153.23 100.54 156.368 100.79 159.51 100.78C161.597 100.78 163.73 100.73 165.91 100.63C167.92 100.551 169.924 100.351 171.91 100.03V83.68C170.876 83.8867 169.831 84.0369 168.78 84.13C167.693 84.23 166.553 84.28 165.36 84.28C161.793 84.28 159.41 83.6833 158.21 82.49C157.02 81.3 156.43 78.91 156.43 75.35V37.23H171.91V23.09H156.39Z" fill="#DA0812"/>
<path d="M196.29 23.09H175.15V100.06H196.29V23.09Z" fill="#DA0812"/>
<path d="M196.29 0.2H175.15V17.07H196.29V0.2Z" fill="#DA0812"/>
<path d="M341.4 23.09V0H320.26V23.09H307.46V37.23H320.26V82.64C320.127 85.8721 320.794 89.087 322.2 92C323.393 94.2834 325.197 96.1909 327.41 97.51C329.805 98.8377 332.432 99.6932 335.15 100.03C338.25 100.54 341.388 100.791 344.53 100.78C346.61 100.78 348.75 100.78 350.93 100.63C352.94 100.55 354.944 100.35 356.93 100.03V83.68C355.895 83.8852 354.851 84.0354 353.8 84.13C352.71 84.23 351.57 84.28 350.37 84.28C346.803 84.28 344.423 83.6833 343.23 82.49C342.04 81.3 341.44 78.91 341.44 75.35V37.23H356.93V23.09H341.4Z" fill="#DA0812"/>
<path d="M73.23 74.92H53C53.0289 79.4745 54.2125 83.9473 56.44 87.92C58.5523 91.2258 61.3568 94.0337 64.66 96.15C68.2085 98.3055 72.1076 99.8218 76.18 100.63C80.5206 101.543 84.9444 102.002 89.38 102C93.7057 102.007 98.0199 101.554 102.25 100.65C106.281 99.9531 110.138 98.4827 113.61 96.32C116.874 94.2516 119.594 91.429 121.54 88.09C123.741 84.1702 124.826 79.7229 124.68 75.23C124.795 72.0976 124.073 68.9912 122.59 66.23C121.237 63.7898 119.341 61.6927 117.05 60.1C114.638 58.3562 111.965 57.0061 109.13 56.1C106.178 55.0904 103.174 54.2425 100.13 53.56C97.13 52.86 94.1867 52.1933 91.3 51.56C88.41 50.97 85.81 50.32 83.52 49.62C81.5586 48.95 79.733 47.9339 78.13 46.62C77.4622 46.0536 76.9304 45.3443 76.5738 44.5446C76.2172 43.7449 76.0451 42.8752 76.07 42C75.9903 40.6474 76.4182 39.3137 77.27 38.26C78.0244 37.2925 78.9978 36.5179 80.11 36C81.349 35.4901 82.663 35.1861 84 35.1C85.288 34.9082 86.5879 34.808 87.89 34.8C91.3131 34.7139 94.7031 35.4875 97.75 37.05C100.55 38.44 102.09 41.18 102.4 45.27H122.59C122.38 41.0772 121.091 37.0096 118.85 33.46C116.942 30.3521 114.328 27.738 111.22 25.83C107.943 23.8817 104.348 22.5276 100.6 21.83C96.6108 21.0233 92.5499 20.6246 88.48 20.64C84.364 20.6302 80.2573 21.0289 76.22 21.83C72.4223 22.4569 68.7718 23.7754 65.45 25.72C62.2663 27.5123 59.592 30.0867 57.68 33.2C55.78 36.4 54.83 40.4833 54.83 45.45C54.7394 48.4761 55.4647 51.4708 56.93 54.12C58.3361 56.4495 60.221 58.4538 62.46 60C64.8916 61.5584 67.5042 62.8144 70.24 63.74C73.24 64.64 76.24 65.43 79.36 66.13C85.3481 67.2804 91.2439 68.868 97 70.88C101.287 72.4733 103.43 74.8667 103.43 78.06C103.492 79.7555 103.02 81.4276 102.08 82.84C101.156 84.0664 99.9885 85.088 98.65 85.84C97.2312 86.5799 95.7217 87.1312 94.16 87.48C90.5912 88.1685 86.9149 88.0661 83.39 87.18C81.5854 86.7167 79.8691 85.96 78.31 84.94C76.8186 83.8555 75.5462 82.4982 74.56 80.94C73.6279 79.0802 73.1677 77.0196 73.22 74.94" fill="#DA0812"/>
<path opacity="0.3" d="M52 62.21C50.985 63.0665 49.8181 63.7245 48.56 64.15C47.1329 64.5634 45.684 64.8972 44.22 65.15C42.72 65.45 41.13 65.7 39.43 65.89C37.73 66.08 36.04 66.34 34.35 66.64C32.7311 66.9456 31.1317 67.3462 29.56 67.84C28.1246 68.321 26.7746 69.0264 25.56 69.93C24.4409 70.7636 23.5219 71.8363 22.87 73.07C22.1178 74.6048 21.7571 76.3019 21.82 78.01C21.767 79.6691 22.1279 81.3152 22.87 82.8C23.5317 84.086 24.5045 85.1861 25.7 86C27.0007 86.7336 28.4181 87.2377 29.89 87.49C31.5157 87.793 33.1662 87.9436 34.82 87.94C39.0067 87.94 42.25 87.2433 44.55 85.85C46.6338 84.6594 48.3817 82.9598 49.63 80.91C50.6829 79.0641 51.3465 77.0222 51.58 74.91C51.833 73.3286 51.9734 71.7313 52 70.13V62.21ZM55.25 39.91C54.5592 42.4788 54.2227 45.13 54.25 47.79C54.1575 50.8182 54.8792 53.8158 56.34 56.47C57.7575 58.7803 59.645 60.7666 61.88 62.3C64.3257 63.8482 66.9519 65.0908 69.7 66L73.26 67V74.87H53C53.2 80.05 53.26 84.13 55.71 89C54.8681 90.2514 53.9213 91.429 52.88 92.52L51.88 93.52C50.452 94.8508 48.8749 96.0118 47.18 96.98C41.5677 100.062 35.3093 101.782 28.91 102H26.91C23.4242 102.027 19.9515 101.573 16.59 100.65C13.5461 99.8289 10.6969 98.4077 8.20999 96.47C5.79312 94.5419 3.85008 92.0857 2.52999 89.29C1.15733 86.0369 0.48934 82.5299 0.569985 79C0.416757 75.2662 1.18972 71.5526 2.81999 68.19C4.26732 65.4679 6.31999 63.1141 8.81998 61.31C11.3748 59.5859 14.2105 58.3202 17.2 57.57C20.3443 56.6783 23.5403 55.9803 26.77 55.48C29.9567 54.98 33.0967 54.58 36.19 54.28C38.9627 54.0324 41.7135 53.5812 44.42 52.93C46.471 52.4925 48.4065 51.627 50.1 50.39C50.8128 49.7607 51.3659 48.9711 51.7136 48.0861C52.0614 47.2011 52.1938 46.2462 52.1 45.3C52.1993 43.4307 51.7842 41.5699 50.9 39.92C50.2547 38.5841 49.2051 37.4855 47.9 36.78C46.5929 35.9427 45.1052 35.4285 43.56 35.28C41.8339 34.9724 40.0832 34.8251 38.33 34.84C34.1367 34.84 30.8433 35.7367 28.45 37.53C26.0567 39.3233 24.6633 42.3233 24.27 46.53H2.99999C3.11585 42.1335 4.40727 37.8484 6.73998 34.12C8.88741 30.8718 11.7507 28.1591 15.11 26.19C18.6216 24.1531 22.4576 22.7357 26.45 22C30.6787 21.1094 34.9885 20.6603 39.31 20.66C43.2665 20.6667 47.2171 20.9641 51.13 21.55C54.9171 21.9929 58.606 23.0537 62.05 24.69C62.9583 25.1324 63.8368 25.6334 64.68 26.19C61.8335 27.9465 59.4365 30.3435 57.68 33.19C56.4836 35.268 55.6707 37.5442 55.28 39.91H55.25Z" fill="#DA0812"/>
</svg>
