<svg width="939" height="842" viewBox="0 0 939 842" fill="none" xmlns="http://www.w3.org/2000/svg">
<path d="M523.96 695.58C604.99 695.58 682.27 629.89 696.56 548.85C710.85 467.82 698.12 539.56 698.12 539.56L716.92 432.95H491.76L502.32 373.05H787.38L756.71 547.03L754.62 559.58C735.54 667.77 632.37 755.48 524.18 755.48H430.9C322.71 755.48 250.47 667.77 269.55 559.58L342.3 147.07H15.26L25.82 87.17H924.3L913.74 147.07H402.19L332.93 539.84L331.26 548.85C316.97 629.88 371.08 695.58 452.11 695.58C533.14 695.58 456.96 695.58 456.96 695.58H515.49C515.49 695.58 442.92 695.58 523.96 695.58Z" fill="#005095"/>
<path d="M777.99 577.25L818.69 346.44H507.01L517.57 286.54H889.15L832.84 605.9C809.85 736.29 685.5 842 555.11 842H384.9C384.9 842 499.82 842 369.43 842C239.04 842 151.97 736.29 174.96 605.9L176.26 598.08L240.53 233.59H0L10.56 173.69H310.97L242.79 560.41C215.32 716.22 290.3 782.11 425.4 782.11C547.84 782.11 539.22 782.11 539.22 782.11H545.94C654.13 782.11 757.3 694.4 776.38 586.21L778 577.26L777.99 577.25Z" fill="#005095"/>
<path d="M614.8 521.37L615.09 519.75H476.45L487.01 459.85H685.55L675.05 519.38L674.99 519.75L674.55 522.24C660.26 603.27 582.99 668.97 501.95 668.97H483.72C402.69 668.97 348.58 603.28 362.87 522.24L424.33 173.7H909.05L898.49 233.6H473.67L428.88 487.63C428.88 487.63 433.16 463.35 424.03 515.18C414.89 567.01 449.5 609.02 501.32 609.02L505.4 609.07H506.34C553.82 609.07 599.28 573.81 613.6 528.05L614.81 521.38L614.8 521.37Z" fill="#009EE2"/>
<path d="M612.81 39.08C593.46 47.3 584.54 54.14 569.53 57.33C586.52 58.55 607.41 46.75 641.47 48.42C664.5 49.55 695.54 59.77 706.67 60.18C689.52 55.3 682.39 46.3 663.77 38.06C651.77 32.75 630.19 31.71 612.82 39.09L612.81 39.08Z" fill="#005095"/>
<path d="M516.24 50.24C516.38 50.23 516.52 50.2 516.65 50.19C516.45 50.2 516.31 50.22 516.24 50.24Z" fill="#009EE2"/>
<path d="M608.24 17.98C587.21 23.59 579.74 30.78 562.28 40.36C553.13 45.38 534.7 55.19 517.69 56.93C520.83 56.71 537.43 56.83 557.22 52.4C577.21 47.92 586.59 42.01 603.01 35.97C622.2 28.91 619.98 28.52 635.43 24.87C656.1 19.99 675 22.45 684.98 24.63C684.98 24.63 644.3 8.36 608.23 17.98H608.24Z" fill="#009EE2"/>
<path d="M529.69 26.43C515.14 30.66 509.22 29.8 494.83 30.06C507.86 33.51 515.96 36.27 533.18 34.94C546.74 33.9 558.94 28.56 574.86 22.79C593.58 16 613.17 7.95 644.31 8.35C644.31 8.35 605.85 1.84 567.24 12.01C555.65 15.06 536.38 24.48 529.69 26.42V26.43Z" fill="#005095"/>
<path d="M511.3 12.92C497.12 12.86 487.57 8.32 474.61 5.64C456.85 1.98 447.04 5.28 433.51 7.27C447.1 8.23 472.85 23.86 502.79 22.15C530.12 20.59 560.75 4.04 581.11 4.04C562.47 0.99 535.63 13.03 511.29 12.92H511.3Z" fill="#005095"/>
<path d="M509.95 41.87C494.24 41.08 480.17 34.85 460.99 33.52C442.6 32.25 436.01 32.61 418.17 37.8C443.46 35.96 453.85 42.32 463.67 47.97C476.38 55.29 489.78 56.25 501.12 54.47C514.4 52.39 518.9 50.5 529.54 46.87C540.12 43.25 552.11 39.03 562.24 33.85C562.24 33.85 539.56 43.37 509.96 41.87H509.95Z" fill="#009EE2"/>
<path d="M457.07 21.13C449.47 18.55 442.14 15.44 434.46 13.01C427.08 10.67 408.88 2.87 387.6 9.71C366.53 14.61 348.86 13.78 339.64 12.67C328.61 11.34 316.97 6.92 296.58 0C296.46 0 327.02 17.45 354.85 24.57C359.82 25.84 374.74 28.28 384.71 26.19C393.29 24.45 401.89 22.75 410.45 21.85C418.66 20.99 426.75 20.89 434.68 21.66C441.95 22.37 448.97 23.86 456.07 25.12C462.92 26.35 476.41 28.95 488.16 28.64C479.16 28.39 464.14 23.54 457.05 21.13H457.07Z" fill="#005095"/>
<path d="M379.93 52.95C392.56 52.52 401.62 47.41 408.76 45.35C423.49 41.09 435.18 43.28 445.97 47.17C455.51 50.61 464.64 58.92 481.06 59.77C455.61 63.43 452.94 57.14 420.81 58.35C405.72 58.92 396.47 62.85 378.74 59.69C352.22 54.21 347.87 47.92 336.65 41.82C342.34 44.91 361.47 53.56 379.88 52.95H379.93Z" fill="#005095"/>
<path d="M443.38 27.42C434.79 25.89 425.54 24.8 406.69 28.33C399.49 29.68 388.23 31.81 383.52 32.91C361.84 37.18 356.2 34.27 339.22 32.1C330.18 30.94 329.46 29.61 311.28 27.86C327.45 33.11 331.39 35.27 344.05 39.9C357.48 44.81 363.6 48.39 380.94 47.66C410.66 42.06 413.77 28.58 443.38 27.43V27.42Z" fill="#009EE2"/>
<path d="M264.73 39.08C245.37 47.3 236.46 54.14 221.45 57.33C238.44 58.55 259.33 46.75 293.39 48.42C316.42 49.55 347.46 59.77 358.59 60.18C341.45 55.3 334.31 46.3 315.69 38.06C303.69 32.75 282.11 31.71 264.74 39.09L264.73 39.08Z" fill="#005095"/>
<path d="M168.16 50.24C168.3 50.23 168.44 50.2 168.57 50.19C168.37 50.2 168.23 50.22 168.16 50.24Z" fill="#009EE2"/>
<path d="M260.16 17.98C239.13 23.59 231.66 30.78 214.2 40.36C205.05 45.38 186.62 55.19 169.62 56.93C172.76 56.71 189.36 56.83 209.15 52.4C229.14 47.92 238.52 42.01 254.94 35.97C274.13 28.91 271.91 28.52 287.36 24.87C308.02 19.99 326.92 22.45 336.91 24.63C336.91 24.63 296.23 8.36 260.16 17.98Z" fill="#009EE2"/>
<path d="M181.61 26.43C167.06 30.66 161.14 29.8 146.74 30.06C159.78 33.51 167.87 36.27 185.09 34.94C198.66 33.9 210.86 28.56 226.77 22.79C245.49 16 265.08 7.95 296.22 8.35C296.22 8.35 257.76 1.84 219.15 12.01C207.56 15.06 188.29 24.48 181.6 26.42L181.61 26.43Z" fill="#005095"/>
<path d="M163.22 12.92C149.04 12.86 139.49 8.32 126.53 5.64C108.77 1.98 98.96 5.28 85.43 7.27C99.02 8.23 124.76 23.86 154.71 22.15C182.04 20.59 212.67 4.04 233.03 4.04C214.39 0.99 187.56 13.03 163.21 12.92H163.22Z" fill="#005095"/>
<path d="M161.87 41.87C146.16 41.08 132.09 34.85 112.91 33.52C94.52 32.25 87.93 32.61 70.09 37.8C95.38 35.96 105.77 42.32 115.59 47.97C128.3 55.29 141.7 56.25 153.04 54.47C166.32 52.39 170.82 50.5 181.46 46.87C192.04 43.25 204.03 39.03 214.16 33.85C214.16 33.85 191.48 43.37 161.88 41.87H161.87Z" fill="#009EE2"/>
<path d="M86.61 21.66C93.88 22.37 100.9 23.86 108 25.12C114.85 26.35 128.34 28.95 140.09 28.64C131.09 28.39 116.07 23.54 108.98 21.13C101.38 18.55 94.05 15.44 86.37 13.01C78.99 10.67 60.78 2.87 39.51 9.71L36.6 26.19C45.18 24.45 53.79 22.76 62.36 21.85C70.57 20.99 78.66 20.89 86.59 21.66H86.61Z" fill="#009EE2"/>
<path d="M58.61 28.33C51.41 29.68 40.15 31.81 35.44 32.91L32.84 47.65C62.58 42.06 65.68 28.57 95.3 27.42C86.71 25.89 77.46 24.8 58.61 28.33Z" fill="#005095"/>
<path d="M72.73 58.35C104.86 57.13 107.53 63.43 132.98 59.77C116.56 58.92 107.43 50.61 97.89 47.17C87.1 43.28 75.41 41.09 60.68 45.35C53.53 47.41 44.47 52.52 31.85 52.95L30.66 59.69C48.39 62.85 57.64 58.92 72.73 58.35Z" fill="#005095"/>
<path d="M864.39 50.24C864.53 50.23 864.67 50.2 864.8 50.19C864.6 50.2 864.46 50.22 864.39 50.24Z" fill="#009EE2"/>
<path d="M938.31 7.73C930.88 8.62 923.14 9.98 915.39 12.02C903.8 15.07 884.53 24.49 877.84 26.43C863.29 30.66 857.37 29.8 842.97 30.06C856.01 33.51 864.1 36.27 881.32 34.94C894.89 33.9 907.09 28.56 923 22.79C927.41 21.19 931.87 19.52 936.51 17.91L938.31 7.72V7.73Z" fill="#009EE2"/>
<path d="M859.45 12.92C845.27 12.86 835.72 8.32 822.76 5.64C805 1.98 795.19 5.28 781.66 7.27C795.25 8.23 820.99 23.86 850.94 22.15C878.27 20.59 908.9 4.04 929.26 4.04C910.62 0.99 883.79 13.03 859.44 12.92H859.45Z" fill="#005095"/>
<path d="M858.1 41.87C842.39 41.08 828.32 34.85 809.14 33.52C790.75 32.25 784.16 32.61 766.32 37.8C791.61 35.96 802 42.32 811.82 47.97C824.53 55.29 837.93 56.25 849.27 54.47C862.55 52.39 867.05 50.5 877.69 46.87C888.27 43.25 900.26 39.03 910.39 33.85C910.39 33.85 887.71 43.37 858.11 41.87H858.1Z" fill="#009EE2"/>
<path d="M805.22 21.13C797.62 18.55 790.29 15.44 782.61 13.01C775.23 10.67 757.02 2.87 735.75 9.71V9.73C714.71 14.6 697.08 13.78 687.87 12.67C676.84 11.34 665.2 6.92 644.81 0C644.69 0 675.25 17.45 703.08 24.57C708.05 25.84 722.98 28.28 732.94 26.19V26.17C741.49 24.44 750.07 22.75 758.6 21.85C766.81 20.99 774.9 20.89 782.83 21.66C790.1 22.37 797.12 23.86 804.22 25.12C811.07 26.35 824.56 28.95 836.31 28.64C827.31 28.39 812.29 23.54 805.2 21.13H805.22Z" fill="#005095"/>
<path d="M729.01 47.65C758.81 41.98 761.99 28.57 791.52 27.42C782.93 25.89 773.68 24.8 754.83 28.33C747.63 29.68 736.39 31.8 731.37 32.95C709.88 37.15 704.22 34.26 687.29 32.09C678.25 30.93 677.53 29.6 659.36 27.85C675.53 33.1 679.47 35.26 692.13 39.89C705.49 44.78 711.62 48.34 728.76 47.66V47.7C728.84 47.68 728.91 47.67 729 47.65C729 47.65 729 47.65 729.01 47.65Z" fill="#009EE2"/>
<path d="M794.12 47.17C783.33 43.28 771.65 41.09 756.91 45.35C749.78 47.41 740.3 52.5 727.72 52.95C709.38 53.48 690.4 44.9 684.73 41.82C695.96 47.93 700.3 54.22 726.89 59.69C744.62 62.85 753.87 58.92 768.96 58.35C801.09 57.13 803.76 63.43 829.21 59.77C812.79 58.92 803.66 50.61 794.12 47.17Z" fill="#005095"/>
<path d="M935.08 26.07C927.19 30.15 920.46 34.86 910.43 40.36C901.28 45.38 882.85 55.19 865.85 56.93C868.99 56.71 885.59 56.83 905.38 52.4C916.51 49.91 924.35 46.97 931.95 43.81L935.08 26.07Z" fill="#005095"/>
<path d="M930.26 53.42C926.32 55.02 922.29 56.35 917.68 57.33C921.46 57.6 925.45 57.23 929.72 56.5L930.26 53.43V53.42Z" fill="#005095"/>
</svg>
