<svg width="67" height="42" viewBox="0 0 67 42" fill="none" xmlns="http://www.w3.org/2000/svg">
<path fill-rule="evenodd" clip-rule="evenodd" d="M25.8668 0C27.244 2.52594 28.4344 5.24211 29.6455 7.9442C26.7146 7.79976 23.8735 7.55667 21.0637 7.28189C22.6243 4.81232 24.3476 2.51537 25.8702 0" fill="white"/>
<path fill-rule="evenodd" clip-rule="evenodd" d="M13.3885 2.38145C15.7969 3.93859 18.1777 5.54152 20.5412 7.14797C18.1396 8.63464 15.4786 9.85358 12.8694 11.1183C13.0493 8.21189 13.1497 5.22093 13.3919 2.37793" fill="white"/>
<path fill-rule="evenodd" clip-rule="evenodd" d="M37.7054 13.1018C35.2204 11.5799 32.8326 9.89946 30.5522 8.07458C33.1198 6.89793 35.6594 5.68604 38.0854 4.37199C38.2204 4.34733 38.3484 4.39665 38.3484 4.49881C38.4694 7.01418 37.6084 10.2905 37.7054 13.1018Z" fill="white"/>
<path fill-rule="evenodd" clip-rule="evenodd" d="M4.156 10.5934C7.0386 10.7907 9.8934 11.0197 12.7414 11.2522C11.2188 13.757 9.4989 16.0715 7.9313 18.5341C6.5679 15.994 5.3706 13.2884 4.1595 10.5934" fill="white"/>
<path fill-rule="evenodd" clip-rule="evenodd" d="M7.2808 27.6656C4.7546 26.1719 2.4569 24.4527 0 22.8991C2.3254 21.43 5.028 20.3414 7.4123 18.9323C8.0248 21.4511 7.1493 24.7416 7.2842 27.6656" fill="white"/>
<path fill-rule="evenodd" clip-rule="evenodd" d="M60.3224 23.1703C60.5094 23.2231 60.3084 23.283 60.3224 23.4275C57.8724 26.813 54.3154 30.0189 48.8824 30.4522C38.4664 31.2624 25.147 29.2438 16.9008 32.425C19.5307 28.74 22.7108 25.6258 28.7285 25.1537C33.4382 24.7767 39.4554 25.2805 45.1104 25.0198C50.6124 24.7591 57.1834 24.9705 60.3224 23.1738" fill="white"/>
<path fill-rule="evenodd" clip-rule="evenodd" d="M7.1493 28.0565C8.5335 30.5331 9.5716 33.355 10.9177 35.8704C8.1874 36.0853 5.1423 35.4899 2.3393 35.3419C3.8515 32.8195 5.6233 30.5648 7.1493 28.0565Z" fill="white"/>
<path fill-rule="evenodd" clip-rule="evenodd" d="M54.0794 31.9C54.2734 31.9599 54.0694 32.0128 54.0794 32.1678C51.6194 35.6555 47.9754 38.7662 42.3804 39.1819C32.0436 39.9499 18.759 37.9418 10.6582 41.1688C13.3158 37.6177 16.3229 34.3555 22.2229 33.894C26.9222 33.5241 33.0402 33.8412 38.7364 33.7531C44.0374 33.665 51.1384 33.4889 54.0794 31.9035" fill="white"/>
<path fill-rule="evenodd" clip-rule="evenodd" d="M66.6964 14.4264C66.8414 14.4581 66.7624 14.5603 66.6964 14.5603C64.5064 18.1748 60.9144 20.6761 56.8104 21.4441C53.4884 22.1205 49.6744 21.5321 45.3694 21.7118C37.5874 22.0183 29.2199 21.3842 23.3995 23.8291C24.9463 20.8029 27.2371 19.0555 30.2857 17.7344C33.5178 16.3429 37.2754 16.4133 41.9894 16.4133C46.0134 16.4133 50.5744 16.4204 54.9894 16.2865C59.3154 16.1456 64.1734 15.8285 66.6934 14.4264" fill="white"/>
</svg>
