<svg width="457" height="52" viewBox="0 0 457 52" fill="none" xmlns="http://www.w3.org/2000/svg">
<path d="M139.852 51.1425V0.85752H161.333C166.735 0.85752 170.654 1.31486 173.09 2.22955C175.55 3.12137 177.515 4.72208 178.986 7.03166C180.458 9.34125 181.193 11.9824 181.193 14.9551C181.193 18.7282 180.078 21.8496 177.849 24.3193C175.619 26.766 172.286 28.3096 167.849 28.9499C170.056 30.2304 171.872 31.6368 173.297 33.1689C174.745 34.701 176.688 37.4222 179.124 41.3325L185.296 51.1425H173.09L165.712 40.2005C163.091 36.2902 161.298 33.832 160.333 32.8259C159.367 31.7968 158.344 31.0994 157.264 30.7335C156.184 30.3448 154.471 30.1504 152.126 30.1504H150.058V51.1425H139.852ZM150.058 22.124H157.609C162.505 22.124 165.562 21.9182 166.781 21.5066C167.999 21.095 168.953 20.3861 169.642 19.3799C170.332 18.3738 170.677 17.1161 170.677 15.6069C170.677 13.9147 170.217 12.5541 169.298 11.5251C168.401 10.4732 167.125 9.81003 165.47 9.53562C164.643 9.42128 162.16 9.36412 158.023 9.36412H150.058V22.124Z" fill="white"/>
<path d="M190.848 51.1425V0.85752H228.328V9.36412H201.054V20.5119H226.431V28.9842H201.054V42.6702H229.293V51.1425H190.848Z" fill="white"/>
<path d="M261.463 32.6544V24.1821H283.461V44.2137C281.324 46.2718 278.22 48.0897 274.152 49.6675C270.106 51.2225 266.003 52 261.842 52C256.555 52 251.947 50.9024 248.016 48.7071C244.085 46.489 241.131 43.3333 239.154 39.2401C237.178 35.124 236.189 30.6535 236.189 25.8285C236.189 20.5919 237.292 15.9384 239.499 11.8681C241.706 7.79771 244.936 4.67634 249.188 2.50396C252.429 0.834653 256.463 0 261.291 0C267.566 0 272.462 1.31486 275.979 3.94459C279.519 6.55145 281.795 10.1645 282.806 14.7836L272.669 16.6702C271.956 14.2005 270.612 12.2568 268.635 10.839C266.681 9.39842 264.233 8.6781 261.291 8.6781C256.831 8.6781 253.28 10.0844 250.636 12.8971C248.016 15.7098 246.706 19.883 246.706 25.4169C246.706 31.3852 248.039 35.8672 250.705 38.8628C253.372 41.8355 256.866 43.3219 261.187 43.3219C263.325 43.3219 265.463 42.9103 267.601 42.0871C269.761 41.241 271.612 40.2234 273.152 39.0343V32.6544H261.463Z" fill="white"/>
<path d="M292.599 51.1425V0.85752H302.805V51.1425H292.599Z" fill="white"/>
<path d="M310.494 26.3087C310.494 21.1865 311.264 16.8874 312.804 13.4116C313.953 10.8505 315.516 8.55233 317.493 6.51715C319.493 4.48197 321.677 2.97274 324.045 1.98945C327.194 0.663149 330.826 0 334.94 0C342.388 0 348.342 2.29815 352.801 6.89446C357.283 11.4908 359.525 17.8821 359.525 26.0686C359.525 34.1865 357.306 40.5435 352.87 45.1398C348.433 49.7133 342.503 52 335.078 52C327.561 52 321.585 49.7247 317.148 45.1741C312.712 40.6007 310.494 34.3122 310.494 26.3087ZM321.01 25.9657C321.01 31.6596 322.332 35.9815 324.975 38.9314C327.619 41.8584 330.975 43.3219 335.044 43.3219C339.112 43.3219 342.445 41.8698 345.043 38.9657C347.663 36.0387 348.974 31.6596 348.974 25.8285C348.974 20.066 347.698 15.7669 345.146 12.9314C342.618 10.0959 339.25 8.6781 335.044 8.6781C330.837 8.6781 327.447 10.1187 324.872 13C322.298 15.8584 321.01 20.1803 321.01 25.9657Z" fill="white"/>
<path d="M367.627 51.1425V0.85752H377.558L398.246 34.438V0.85752H407.728V51.1425H397.487L377.109 18.3509V51.1425H367.627Z" fill="white"/>
<path d="M418.555 51.1425V0.85752H456.035V9.36412H428.761V20.5119H454.138V28.9842H428.761V42.6702H457V51.1425H418.555Z" fill="white"/>
<path d="M14.9989 51.1425V9.36412H0V0.85752H40.1694V9.36412H25.205V51.1425H14.9989Z" fill="#0D63AE"/>
<path d="M62.6849 39.5488L72.3394 41.1609C71.0981 44.6825 69.1327 47.3694 66.4433 49.2216C63.7768 51.051 60.4322 51.9657 56.4095 51.9657C50.0422 51.9657 45.3299 49.8962 42.2727 45.7573C39.8591 42.4415 38.6523 38.2568 38.6523 33.2032C38.6523 27.1662 40.2383 22.4442 43.4105 19.0369C46.5827 15.6069 50.5939 13.8918 55.4441 13.8918C60.892 13.8918 65.1905 15.6869 68.3397 19.277C71.4889 22.8443 72.9945 28.321 72.8566 35.7071H48.5825C48.6515 38.5655 49.4331 40.7951 50.9272 42.3958C52.4213 43.9736 54.2833 44.7625 56.513 44.7625C58.0301 44.7625 59.3059 44.3509 60.3403 43.5277C61.3747 42.7045 62.1562 41.3782 62.6849 39.5488ZM63.2366 29.8074C63.1676 27.0176 62.4436 24.9024 61.0644 23.4617C59.6852 21.9982 58.0071 21.2665 56.0303 21.2665C53.9155 21.2665 52.1685 22.0325 50.7893 23.5646C49.4101 25.0967 48.732 27.1777 48.7549 29.8074H63.2366Z" fill="#0D63AE"/>
<path d="M80.787 51.1425V0.85752H90.4759V51.1425H80.787Z" fill="#0D63AE"/>
<path d="M121.646 39.5488L131.3 41.1609C130.059 44.6825 128.094 47.3694 125.404 49.2216C122.738 51.051 119.393 51.9657 115.371 51.9657C109.003 51.9657 104.291 49.8962 101.234 45.7573C98.8201 42.4415 97.6133 38.2568 97.6133 33.2032C97.6133 27.1662 99.1994 22.4442 102.372 19.0369C105.544 15.6069 109.555 13.8918 114.405 13.8918C119.853 13.8918 124.152 15.6869 127.301 19.277C130.45 22.8443 131.956 28.321 131.818 35.7071H107.544C107.613 38.5655 108.394 40.7951 109.888 42.3958C111.382 43.9736 113.244 44.7625 115.474 44.7625C116.991 44.7625 118.267 44.3509 119.301 43.5277C120.336 42.7045 121.117 41.3782 121.646 39.5488ZM122.198 29.8074C122.129 27.0176 121.405 24.9024 120.025 23.4617C118.646 21.9982 116.968 21.2665 114.991 21.2665C112.877 21.2665 111.13 22.0325 109.75 23.5646C108.371 25.0967 107.693 27.1777 107.716 29.8074H122.198Z" fill="#0D63AE"/>
</svg>
