<svg width="2065" height="304" viewBox="0 0 2065 304" fill="none" xmlns="http://www.w3.org/2000/svg">
<path fill-rule="evenodd" clip-rule="evenodd" d="M1761 304C1748.91 297.93 1746.39 290.009 1752.54 277.915C1784.76 214.482 1816.96 151.033 1849.17 87.594C1861.82 62.694 1874.58 37.848 1887.09 12.88C1890.35 6.373 1895.56 2.587 1902 0C1905.67 0 1909.33 0 1913 0C1920.13 0.833 1924.49 5.352 1927.88 11.165C1928.47 12.172 1929.01 13.202 1929.53 14.248C1944.5 44.727 1960.23 74.821 1975.56 105.115C1998.57 150.553 2021.66 195.944 2044.7 241.367C2049.96 251.753 2055.24 262.14 2060.65 272.461C2062.58 276.145 2064.17 279.918 2065 284C2065 287 2065 290 2065 293C2063.69 299.022 2060.02 302.689 2054 304C2051 304 2048 304 2045 304C2034.68 301.588 2025.71 295.985 2016.36 291.444C1985.97 276.684 1955.41 262.267 1925.22 247.093C1913.35 241.126 1901.52 241.067 1889.32 247.156C1852.84 265.364 1815.9 282.639 1779.37 300.763C1776.36 302.258 1773.05 302.71 1770 303.999C1767 304 1764 304 1761 304Z" fill="#B92B2A"/>
<path d="M123.393 70.806C125.571 68.25 124.114 62.542 124.147 58.229C124.202 51.164 124.161 51.171 116.972 51.162C77.981 51.11 38.99 51.055 0 51C0 58 0 65 0 72C14.828 71.945 29.659 72.053 44.481 71.738C48.89 71.645 50.296 72.633 50.281 77.359C50.1 135.349 50.207 193.34 50.072 251.332C50.062 255.526 50.773 257.468 55.444 256.926C59.226 256.488 63.099 256.838 66.932 256.837C73.437 256.835 73.441 256.835 73.441 250.506C73.442 192.682 73.486 134.858 73.347 77.033C73.337 72.928 74.302 71.619 78.525 71.738C89.181 72.038 99.854 71.945 110.516 71.785C114.947 71.719 120.844 73.796 123.393 70.806Z" fill="white"/>
<path d="M760.439 135.316C747.626 93.66 697.127 88.128 671.313 109.06C666.003 113.366 661.693 118.538 657.64 124.22C638.464 88.539 590.312 90.463 570.439 117.433C570.439 113.336 570.269 110.062 570.488 106.814C570.7 103.649 569.718 102.437 566.343 102.49C554.681 102.673 543.013 102.666 531.351 102.492C528.082 102.443 527.09 103.402 527.097 106.715C527.193 155.374 527.193 204.033 527.096 252.694C527.089 255.97 527.998 256.958 531.296 256.91C543.625 256.728 555.962 256.654 568.287 256.938C572.505 257.036 573.56 255.764 573.531 251.645C573.349 225.817 573.394 199.986 573.468 174.157C573.489 166.638 574.089 159.176 577.854 152.372C582.634 143.734 591.454 139.748 603.056 141.023C611.635 141.966 617.628 147.406 620.431 156.694C621.842 161.374 622.173 166.161 622.17 171.008C622.154 198.003 622.253 224.999 622.065 251.993C622.037 256.035 623.229 257.001 627.098 256.925C639.258 256.686 651.43 256.658 663.588 256.937C667.678 257.031 668.538 255.648 668.518 251.844C668.371 225.182 668.423 198.519 668.452 171.856C668.46 164.809 669.203 157.879 672.846 151.62C678.29 142.266 687.065 140.35 696.926 140.999C705.869 141.588 711.761 146.22 714.766 154.617C716.76 160.189 717.177 165.971 717.172 171.828C717.152 198.491 717.227 225.154 717.091 251.816C717.071 255.512 717.697 257.058 721.921 256.949C734.078 256.634 746.253 256.634 758.41 256.945C762.804 257.057 763.544 255.464 763.522 251.522C763.369 223.194 763.543 194.864 763.387 166.536C763.33 156.065 763.559 145.456 760.439 135.316Z" fill="white"/>
<path d="M951.887 106.606C951.891 103.701 951.242 102.459 948.043 102.497C935.217 102.65 922.388 102.633 909.562 102.506C906.611 102.477 905.296 103.241 905.509 106.406C905.741 109.866 905.562 113.352 905.562 118.199C900.073 111.872 895.067 106.755 888.428 103.764C863.089 92.351 838.784 95.71 816.502 110.969C790.464 128.801 781.456 155.19 783.037 185.708C785.066 224.896 810.511 257.768 851.393 261.482C872.029 263.357 890.924 259.753 904.637 242.175C904.727 242.06 905.218 242.256 905.56 242.314C905.56 245.821 905.71 249.326 905.513 252.811C905.347 255.745 906.156 256.946 909.377 256.904C922.202 256.736 935.032 256.758 947.858 256.892C950.796 256.922 951.907 256.231 951.901 253.038C951.808 204.229 951.815 155.417 951.887 106.606ZM866.709 218.838C845.366 218.615 828.769 201.211 829 179.294C829.234 157.108 846.121 139.989 867.31 140.456C889.368 140.942 905.869 157.746 905.556 179.402C905.226 202.233 888.645 219.065 866.709 218.838Z" fill="white"/>
<path d="M1714.16 107.996C1714.16 107.163 1714.1 106.324 1714.17 105.498C1714.35 103.404 1713.53 102.526 1711.33 102.536C1697.84 102.599 1684.34 102.598 1670.85 102.534C1668.7 102.524 1667.9 103.271 1667.97 105.426C1668.09 109.237 1668.01 113.055 1668.01 118.097C1660.53 108.661 1652.07 102.663 1641.6 99.972C1616.07 93.409 1592.87 98.684 1572.96 115.66C1551.43 134.016 1544 158.497 1545.78 186.037C1547.52 212.902 1558.09 235.205 1581.12 250.468C1604.25 265.809 1647.63 268.62 1668 241.6C1668 245.591 1668.22 249.032 1667.94 252.43C1667.65 255.87 1668.72 256.99 1672.3 256.923C1684.46 256.698 1696.63 256.619 1708.78 256.952C1713.23 257.074 1714.28 255.846 1714.27 251.455C1714.1 203.635 1714.16 155.815 1714.16 107.996ZM1629.9 218.838C1608.37 218.862 1591.82 201.89 1591.84 179.817C1591.86 157.341 1607.96 140.494 1629.46 140.448C1651.38 140.401 1668.09 157.001 1668.16 178.884C1668.23 201.645 1651.79 218.813 1629.9 218.838Z" fill="white"/>
<path d="M1310.37 97.568C1263 97.488 1227.45 132.712 1227.56 179.558C1227.67 226.567 1263.21 261.641 1310.51 261.439C1359.42 261.23 1393.45 226.504 1393.14 176.932C1392.93 143.121 1368.54 97.667 1310.37 97.568ZM1310.33 218.158C1289.77 218.129 1273.8 201.188 1273.84 179.429C1273.87 157.75 1290.02 140.767 1310.52 140.843C1331.03 140.919 1347.18 158.017 1347.13 179.605C1347.08 201.196 1330.86 218.187 1310.33 218.158Z" fill="white"/>
<path d="M1122.01 164.926C1122.01 158.591 1121.68 152.285 1120.98 145.988C1118.02 119.575 1102.41 101.988 1077.55 98.311C1056.41 95.185 1036.86 97.951 1022.44 118.525C1022.44 113.376 1022.26 109.905 1022.49 106.462C1022.7 103.351 1021.52 102.465 1018.49 102.502C1006.67 102.647 994.835 102.652 983.008 102.499C979.871 102.459 979.107 103.59 979.112 106.558C979.187 155.373 979.194 204.189 979.099 253.004C979.093 256.161 980.11 256.933 983.107 256.898C995.601 256.752 1008.1 256.663 1020.59 256.937C1024.68 257.027 1025.54 255.65 1025.52 251.846C1025.37 225.69 1025.4 199.532 1025.47 173.375C1025.49 166.543 1025.92 159.729 1028.9 153.368C1033.24 144.1 1042.34 139.856 1055.48 141.023C1065.02 141.87 1071.54 147.524 1074.02 157.189C1075.48 162.871 1075.82 168.694 1075.82 174.525C1075.86 200.348 1075.93 226.173 1075.75 251.996C1075.72 256 1076.87 257.006 1080.76 256.928C1092.92 256.681 1105.09 256.645 1117.24 256.944C1121.36 257.046 1122.1 255.655 1122.08 251.894C1121.93 222.905 1121.99 193.915 1122.01 164.926Z" fill="white"/>
<path d="M1542.2 102.513C1529.37 102.629 1516.53 102.729 1503.71 102.458C1499.78 102.375 1498.29 103.772 1497.2 107.381C1488.17 137.123 1478.94 166.803 1469.69 196.793C1468.26 195.79 1468.23 194.579 1467.88 193.474C1458.95 164.571 1449.95 135.689 1441.12 106.756C1440.2 103.76 1439.06 102.432 1435.71 102.481C1422.55 102.674 1409.38 102.618 1396.22 102.518C1393.09 102.495 1391.71 102.707 1393.09 106.544C1410.71 155.318 1428.19 204.146 1445.65 252.978C1446.48 255.327 1447.18 256.971 1450.32 256.92C1462.81 256.717 1475.32 256.762 1487.81 256.897C1490.45 256.925 1491.58 255.977 1492.44 253.564C1510 204.578 1527.6 155.608 1545.32 106.683C1546.67 102.979 1545.52 102.482 1542.2 102.513Z" fill="white"/>
<path d="M1223.04 102.526C1218.04 102.652 1213.03 102.363 1208.04 102.628C1204.68 102.807 1203.89 101.599 1203.93 98.383C1204.09 84.056 1203.92 69.725 1204.06 55.397C1204.09 52.316 1203.52 51.02 1200.03 51.08C1187.37 51.295 1174.7 51.311 1162.04 51.074C1158.28 51.004 1157.74 52.48 1157.78 55.72C1157.92 69.714 1157.67 83.714 1157.94 97.705C1158.02 101.8 1156.69 102.872 1152.86 102.63C1148.22 102.337 1143.53 102.733 1138.87 102.5C1135.83 102.349 1134.86 103.291 1134.93 106.403C1135.13 115.563 1135.17 124.735 1134.92 133.891C1134.82 137.434 1136.23 138.035 1139.26 137.889C1143.59 137.683 1147.96 138.17 1152.25 137.747C1156.94 137.285 1157.97 139.011 1157.94 143.51C1157.76 179.665 1157.9 215.822 1157.75 251.978C1157.73 255.945 1158.82 257.012 1162.74 256.93C1174.9 256.676 1187.06 256.721 1199.22 256.91C1202.69 256.964 1204.16 256.448 1204.11 252.407C1203.86 234.082 1204 215.752 1204 197.424C1204 178.93 1204.08 160.435 1203.93 141.941C1203.9 138.712 1204.74 137.582 1208.06 137.765C1213.04 138.041 1218.06 137.737 1223.05 137.877C1225.47 137.945 1226.22 137.047 1226.2 134.69C1226.1 125.027 1226.1 115.362 1226.2 105.699C1226.22 103.327 1225.42 102.467 1223.04 102.526Z" fill="white"/>
<path d="M408.746 104.707C378.673 110.343 358.331 128.672 349.354 157.74C340.167 187.49 346.076 215.153 367.757 237.844C388.84 259.909 415.558 265.142 444.543 258.15C469.518 252.125 486.302 235.93 497.105 212.002C490.428 212.002 484.596 212.129 478.773 211.942C476.265 211.862 475.054 212.789 473.788 214.928C461.045 236.449 437.515 246.738 412.672 241.834C387.507 236.867 370.245 218.423 366.533 193.071C365.869 188.542 367.148 187.901 371.243 187.915C413.239 188.053 455.235 187.935 497.231 188.103C501.25 188.119 502.108 186.869 502.233 183.153C503.897 133.823 461.714 94.781 408.746 104.707ZM474.931 171.162C457.958 171.163 440.984 171.162 424.011 171.162C406.871 171.162 389.732 171.164 372.592 171.161C366.006 171.16 365.882 171.125 367.581 164.433C373.277 142.005 387.811 128.218 409.917 122.606C441.436 114.604 473.156 133.598 480.434 164.375C482.039 171.159 482.039 171.161 474.931 171.162Z" fill="white"/>
<path d="M158.836 109.413C119.413 125.92 101.3 171.31 117.205 212.211C132.386 251.248 175.902 270.744 216.511 256.52C238.453 248.833 253.514 233.781 263.046 212.001C256.655 212.001 250.877 212.142 245.11 211.939C242.418 211.844 241.071 212.782 239.696 215.129C227.205 236.449 203.136 246.849 178.482 241.791C153.207 236.606 135.945 218.063 132.546 192.851C131.997 188.78 132.962 187.895 136.962 187.911C175.455 188.057 213.949 187.999 252.442 187.999C270.366 187.999 270.393 187.995 267.712 169.968C259.374 113.889 203.601 90.669 158.836 109.413ZM241.328 171.161C224.186 171.163 207.044 171.162 189.903 171.162C172.594 171.162 155.286 171.166 137.978 171.16C132.262 171.157 131.989 170.957 133.375 165.243C138.98 142.129 153.852 127.964 176.587 122.431C208.037 114.779 239.54 134.036 246.508 164.538C248.019 171.157 248.019 171.161 241.328 171.161Z" fill="white"/>
<path d="M311.951 51.095C308.825 51.444 305.591 51.468 302.471 51.091C297.844 50.53 296.723 52.239 296.735 56.794C296.89 118.44 296.832 180.087 296.854 241.733C296.856 246.546 295.232 252.957 297.665 255.751C300.471 258.974 307.078 256.3 311.978 256.89C316.359 257.417 317.579 255.923 317.551 251.455C317.35 219.134 317.443 186.81 317.443 154.487C317.443 148.989 317.443 143.491 317.443 137.993C317.443 110.835 317.33 83.677 317.554 56.52C317.59 52.01 316.291 50.61 311.951 51.095Z" fill="white"/>
</svg>
