<svg width="1557" height="451" viewBox="0 0 1557 451" fill="none" xmlns="http://www.w3.org/2000/svg">
<path d="M26 127H1541V337H26V127Z" fill="white"/>
<path d="M0 0H1557V451H0V0ZM551.138 290.558C560.364 288.603 571.509 283.755 577.854 278.938C580.798 276.703 583.444 275.11 583.732 275.399C584.021 275.688 582.849 278.118 581.129 280.8C579.408 283.481 578 286.208 578 286.86C578 287.74 582.677 287.975 596.164 287.773L614.328 287.5L621.646 275.5C625.67 268.9 629.733 262.938 630.673 262.25C633.141 260.445 680.307 260.46 681.806 262.265C682.384 262.962 683.576 267.799 684.454 273.015C685.332 278.231 686.3 283.736 686.605 285.249L687.159 287.999H704.079C717.855 287.999 721 287.74 721 286.609C721 284.436 696.008 152.821 695.413 151.857C694.632 150.594 664.624 150.775 663.348 152.051C662.769 152.629 645.917 178.94 625.898 210.52C605.879 242.099 589.037 267.951 588.47 267.968C587.904 267.983 583.879 263.724 579.526 258.499C575.173 253.274 571.183 248.999 570.659 248.999C570.135 248.999 567.86 250.51 565.603 252.357C545.567 268.76 517.935 264.728 508.673 244.049C506.159 238.437 505.284 224.764 506.931 216.83C509.923 202.421 521.563 186.835 533.371 181.429C547.821 174.813 562.734 176.343 572.846 185.478C575.101 187.516 577.379 189.029 577.908 188.841C580.555 187.899 600 169.506 600 167.944C600 165.469 591.745 158.643 584.342 154.997C566.075 146 540.78 145.553 520.967 153.877C496.336 164.226 478.235 186.735 472.458 214.199C470.585 223.101 470.611 240.722 472.508 248.768C477.381 269.439 492.381 284.259 514.22 289.981C523.159 292.323 541.458 292.61 551.138 290.558ZM646.423 233.659C645.852 232.172 670.073 190.5 671.508 190.5C672.914 190.5 678.856 232.744 677.623 233.976C675.979 235.621 647.062 235.327 646.423 233.659ZM1190.19 289.548C1219.22 283.394 1241.48 261.931 1250.03 231.826C1252.96 221.54 1253.7 203.835 1251.62 194C1247.1 172.68 1233.3 157.875 1211.5 150.982C1201.6 147.85 1181.52 147.106 1169.98 149.444C1138.36 155.852 1114.17 180.185 1107.58 212.208C1105.56 222.077 1105.52 239.718 1107.52 247.54C1113.13 269.51 1129.17 284.152 1153.5 289.518C1161.56 291.296 1181.86 291.313 1190.19 289.548ZM1163 260.108C1149.04 255.606 1141.05 244.855 1140.21 229.469C1139.12 209.396 1149.8 190.151 1166.64 181.851C1172.65 178.89 1174.55 178.461 1182.97 178.167C1195.67 177.723 1202.34 180.052 1209.62 187.469C1216.51 194.491 1218.54 200.395 1218.39 213C1218.15 233.411 1208.23 249.86 1191.43 257.72C1186.35 260.099 1184.07 260.524 1175.5 260.705C1170 260.82 1164.37 260.552 1163 260.108ZM86.9002 282.75C87.4733 279.863 91.7978 255.691 96.5103 229.035C101.463 201.017 105.589 180.245 106.289 179.8C106.955 179.377 115.236 179.024 124.691 179.015C134.987 179.008 142.128 178.601 142.496 178.006C143.176 176.906 146.983 155.527 146.993 152.75C147.001 151.105 143.791 151 93.5591 151C57.6836 151 39.9071 151.341 39.4762 152.039C38.6685 153.345 35.0001 173.532 35.0001 176.669V179L52.2501 179.015C61.7375 179.023 70.0843 179.401 70.7986 179.854C71.8304 180.509 70.2384 191.278 63.0486 232.278C58.0719 260.658 54 284.805 54 285.939C54 287.934 54.5094 288 69.9291 288H85.8582L86.9002 282.75ZM230.466 287.054C231.237 285.807 235 265.268 235 262.307V260L205.75 259.985C189.663 259.977 175.889 259.583 175.143 259.11C174.015 258.395 174.157 256.16 175.98 245.875C177.187 239.069 178.634 232.945 179.196 232.267C179.948 231.359 187.126 230.963 206.359 230.767L232.5 230.5L234.182 222C235.107 217.325 236.007 211.7 236.182 209.5L236.5 205.5L210.712 205.233C188.282 205.001 184.845 204.76 184.317 203.385C183.574 201.447 186.914 180.98 188.254 179.266C188.969 178.352 196.388 177.963 216.86 177.766L244.5 177.5L246.172 169C247.091 164.325 248.146 158.363 248.516 155.75L249.188 151H205.653C178.869 151 161.889 151.37 161.524 151.962C160.703 153.289 138.027 281.841 138.012 285.25L138.001 288H183.942C211.732 288 230.113 287.626 230.466 287.054ZM337.346 287.249C337.906 286.342 342 263.735 342 261.547C342 260.191 338.856 260 316.623 260C297.509 260 291.003 259.691 290.266 258.75C289.604 257.904 292.293 240.534 298.579 205.049C303.689 176.201 307.648 152.239 307.376 151.799C306.664 150.646 276.241 150.801 275.524 151.961C274.703 153.289 252.027 281.84 252.012 285.25L252.001 288H294.442C317.784 288 337.091 287.662 337.346 287.249ZM445.466 287.054C446.237 285.807 450 265.268 450 262.307V260L420.75 259.985C404.663 259.977 390.889 259.583 390.143 259.11C389.015 258.395 389.157 256.16 390.98 245.875C392.187 239.069 393.634 232.945 394.196 232.267C394.948 231.359 402.126 230.963 421.359 230.767L447.5 230.5L449.182 222C450.107 217.325 451.007 211.7 451.182 209.5L451.5 205.5L425.712 205.233C403.282 205.001 399.845 204.76 399.317 203.385C398.574 201.447 401.914 180.98 403.254 179.266C403.969 178.352 411.388 177.963 431.86 177.766L459.5 177.5L461.172 169C462.091 164.325 463.146 158.363 463.515 155.75L464.188 151H420.653C393.869 151 376.889 151.37 376.524 151.962C375.703 153.289 353.027 281.841 353.012 285.25L353.001 288H398.942C426.732 288 445.113 287.626 445.466 287.054ZM764.409 285.25C764.721 283.738 768.16 263.15 772.051 239.5C779.498 194.236 779.67 193.337 780.691 194.358C781.045 194.712 785.198 215.814 789.918 241.251L798.502 287.5H822.143L846.975 241.646C860.633 216.427 872.301 195.299 872.904 194.696C873.699 193.901 873.986 193.999 873.95 195.05C873.923 195.847 870.18 216.525 865.634 241C861.089 265.475 857.559 286.062 857.792 286.75C858.105 287.677 862.181 288 873.588 288C888.704 288 888.971 287.962 889.503 285.75C892.035 275.217 912.834 152.434 912.194 151.794C911.737 151.337 900.855 151.083 888.014 151.231L864.666 151.5L842.788 193.494C821.673 234.027 819.531 237.875 818.61 236.933C818.377 236.695 814.989 218.5 811.081 196.5C807.173 174.5 803.721 155.262 803.409 153.75L802.841 151H780.479C767.247 151 757.876 151.392 757.524 151.961C756.703 153.289 734.027 281.84 734.012 285.25L734.001 288H763.842L764.409 285.25ZM949.413 287.141C949.704 286.669 951.834 275.531 954.145 262.391C956.456 249.251 958.74 238.05 959.22 237.5C959.7 236.95 967.835 236.238 977.297 235.919C988.866 235.528 996.629 234.766 1001 233.591C1021.29 228.141 1033.05 216.018 1036.02 197.5C1039.73 174.368 1027.88 157.471 1004.48 152.514C996.292 150.779 942.546 150.307 941.524 151.962C940.703 153.289 918.027 281.84 918.012 285.25L918.001 288H933.442C941.935 288 949.121 287.614 949.413 287.141ZM965.191 209.203C964.128 208.477 964.357 205.636 966.412 194.105C967.804 186.293 969.207 179.474 969.53 178.951C970.307 177.694 989.51 177.736 994.074 179.004C1001.02 180.934 1004.84 188.321 1003.03 196.355C1001.85 201.609 997.863 205.466 991.67 207.344C985.575 209.192 967.075 210.491 965.191 209.203ZM1073.43 285.25C1076.03 273.144 1096.8 152.491 1096.4 151.839C1095.67 150.659 1065.26 150.776 1064.52 151.961C1063.7 153.289 1041.03 281.84 1041.01 285.25L1041 288H1072.84L1073.43 285.25ZM1301.74 245C1305.72 221.625 1309.22 201.862 1309.52 201.083C1309.84 200.251 1310.41 200.044 1310.89 200.583C1311.35 201.087 1319.5 220.4 1329.01 243.5C1338.52 266.6 1346.73 286.063 1347.27 286.75C1348.55 288.386 1382.54 288.55 1383.55 286.925C1384.49 285.392 1407.65 153.439 1407.2 152.105C1406.95 151.363 1401.81 151 1391.52 151C1378.76 151 1376.12 151.253 1375.63 152.518C1375.1 153.909 1361 235.714 1361 237.421C1361 241.379 1356.26 231.158 1341.07 194.477L1323.28 151.5L1305.46 151.226C1295.67 151.076 1287.27 151.327 1286.82 151.785C1285.89 152.712 1263.03 280.894 1263.01 285.276L1263 288.051L1294.5 287.5L1301.74 245ZM1507.47 287.054C1508.24 285.807 1512 265.268 1512 262.307V260L1482.75 259.985C1466.66 259.977 1452.89 259.583 1452.14 259.11C1451.02 258.395 1451.16 256.16 1452.98 245.875C1454.19 239.069 1455.63 232.945 1456.2 232.267C1456.95 231.359 1464.13 230.963 1483.36 230.767L1509.5 230.5L1511.18 222C1512.11 217.325 1513.01 211.7 1513.18 209.5L1513.5 205.5L1487.71 205.233C1465.28 205.001 1461.85 204.76 1461.32 203.385C1460.57 201.447 1463.91 180.98 1465.25 179.266C1465.97 178.352 1473.39 177.963 1493.86 177.766L1521.5 177.5L1523.17 169C1524.09 164.325 1525.15 158.363 1525.52 155.75L1526.19 151H1482.65C1455.87 151 1438.89 151.37 1438.52 151.962C1437.7 153.289 1415.03 281.841 1415.01 285.25L1415 288H1460.94C1488.73 288 1507.11 287.626 1507.47 287.054Z" fill="#0D469D"/>
</svg>
