<svg width="155" height="107" viewBox="0 0 155 107" fill="none" xmlns="http://www.w3.org/2000/svg">
<path d="M68.8041 48.5145V35.453H72.1969C72.1969 35.453 68.974 42.0687 68.8041 48.5145ZM143.253 67.3055C143.253 67.3055 136.129 64.7439 129.515 67.2594C125.84 68.6576 122.255 71.1248 117.342 70.5798C115.778 70.4054 113.865 70.2272 110.389 68.6629C110.389 68.6629 100.889 64.4042 101.936 50.0977C101.936 50.0977 102.032 36.6073 118.237 35.2129C118.237 35.2129 124.751 35.0181 129.454 38.1436C131.982 39.8234 134.767 40.5988 138.949 40.7581C138.949 40.7581 143.873 40.5588 148.392 36.7341C149.087 36.2132 153.689 30.8786 153.689 23.5774C153.863 20.4481 152.803 16.3494 150.89 13.393C150.369 12.5248 144.111 0.174396 123.252 0H17.9281C17.9281 0 0.52851 0.0128345 0.00758703 17.3958C0.00758703 17.3958 -0.861374 33.5663 15.9999 35.1306H35.4688V91.9693C35.4688 91.9693 36.1642 106.569 51.8085 106.918C51.8085 106.918 66.5838 107.792 68.6697 92.3204V59.4494C68.6697 59.4494 70.9293 101.517 113.344 106.731L117.689 106.905L122.383 106.731C122.383 106.731 152.108 103.428 154.193 83.9599C154.02 83.6119 156.639 72.5208 143.253 67.3055Z" fill="white"/>
</svg>
