<svg width="202" height="201" viewBox="0 0 202 201" fill="none" xmlns="http://www.w3.org/2000/svg">
<path d="M202 100.5C202 156.005 156.781 201 101 201C45.2192 201 0 156.005 0 100.5C0 44.9954 45.2192 0 101 0C156.781 0 202 44.9954 202 100.5Z" fill="#FF5A01"/>
<path d="M180 100.5C180 143.854 144.63 179 101 179C57.3695 179 22 143.854 22 100.5C22 57.1456 57.3695 22 101 22C144.63 22 180 57.1456 180 100.5Z" fill="black"/>
<path d="M159 100.5C159 132.256 133.033 158 101 158C68.9675 158 43 132.256 43 100.5C43 68.7436 68.9675 43 101 43C133.033 43 159 68.7436 159 100.5Z" fill="white"/>
<path d="M140 100.5C140 121.763 122.539 139 101 139C79.4609 139 62 121.763 62 100.5C62 79.237 79.4609 62 101 62C122.539 62 140 79.237 140 100.5Z" fill="black"/>
<path d="M85 75L128.5 100.5L85 126V75Z" fill="white"/>
</svg>
