<svg width="742" height="742" viewBox="0 0 742 742" fill="none" xmlns="http://www.w3.org/2000/svg">
<path d="M39 292.5C39 303.27 30.2696 312 19.5 312C8.73045 312 0 303.27 0 292.5C0 281.73 8.73045 273 19.5 273C30.2696 273 39 281.73 39 292.5Z" fill="#C11A12"/>
<path d="M39 449.5C39 460.27 30.2696 469 19.5 469C8.73045 469 0 460.27 0 449.5C0 438.73 8.73045 430 19.5 430C30.2696 430 39 438.73 39 449.5Z" fill="#C11A12"/>
<path d="M742 292.5C742 303.27 733.27 312 722.5 312C711.73 312 703 303.27 703 292.5C703 281.73 711.73 273 722.5 273C733.27 273 742 281.73 742 292.5Z" fill="#C11A12"/>
<path d="M742 449.5C742 460.27 733.27 469 722.5 469C711.73 469 703 460.27 703 449.5C703 438.73 711.73 430 722.5 430C733.27 430 742 438.73 742 449.5Z" fill="#C11A12"/>
<path d="M292.5 0C303.27 0 312 8.73045 312 19.5C312 30.2696 303.27 39 292.5 39C281.73 39 273 30.2696 273 19.5C273 8.73045 281.73 0 292.5 0Z" fill="#C11A12"/>
<path d="M449.5 0C460.27 0 469 8.73045 469 19.5C469 30.2696 460.27 39 449.5 39C438.73 39 430 30.2696 430 19.5C430 8.73045 438.73 0 449.5 0Z" fill="#C11A12"/>
<path d="M292.5 703C303.27 703 312 711.73 312 722.5C312 733.27 303.27 742 292.5 742C281.73 742 273 733.27 273 722.5C273 711.73 281.73 703 292.5 703Z" fill="#C11A12"/>
<path d="M449.5 703C460.27 703 469 711.73 469 722.5C469 733.27 460.27 742 449.5 742C438.73 742 430 733.27 430 722.5C430 711.73 438.73 703 449.5 703Z" fill="#C11A12"/>
<path d="M175 293C175 314.539 157.763 332 136.5 332C115.237 332 98 314.539 98 293C98 271.461 115.237 254 136.5 254C157.763 254 175 271.461 175 293Z" fill="#FE3F34"/>
<path d="M175 449C175 470.539 157.763 488 136.5 488C115.237 488 98 470.539 98 449C98 427.461 115.237 410 136.5 410C157.763 410 175 427.461 175 449Z" fill="#FE3F34"/>
<path d="M293 98C314.539 98 332 115.237 332 136.5C332 157.763 314.539 175 293 175C271.461 175 254 157.763 254 136.5C254 115.237 271.461 98 293 98Z" fill="#FE3F34"/>
<path d="M449 98C470.539 98 488 115.237 488 136.5C488 157.763 470.539 175 449 175C427.461 175 410 157.763 410 136.5C410 115.237 427.461 98 449 98Z" fill="#FE3F34"/>
<path d="M293 567C314.539 567 332 584.237 332 605.5C332 626.763 314.539 644 293 644C271.461 644 254 626.763 254 605.5C254 584.237 271.461 567 293 567Z" fill="#FE3F34"/>
<path d="M449 567C470.539 567 488 584.237 488 605.5C488 626.763 470.539 644 449 644C427.461 644 410 626.763 410 605.5C410 584.237 427.461 567 449 567Z" fill="#FE3F34"/>
<path d="M644 449C644 427.461 626.763 410 605.5 410C584.237 410 567 427.461 567 449C567 470.539 584.237 488 605.5 488C626.763 488 644 470.539 644 449Z" fill="#FE3F34"/>
<path d="M644 293C644 271.461 626.763 254 605.5 254C584.237 254 567 271.461 567 293C567 314.539 584.237 332 605.5 332C626.763 332 644 314.539 644 293Z" fill="#FE3F34"/>
<path d="M176 136.5C176 157.763 158.539 175 137 175C115.461 175 98 157.763 98 136.5C98 115.237 115.461 98 137 98C158.539 98 176 115.237 176 136.5Z" fill="#C11A12"/>
<path d="M176 605.5C176 626.763 158.539 644 137 644C115.461 644 98 626.763 98 605.5C98 584.237 115.461 567 137 567C158.539 567 176 584.237 176 605.5Z" fill="#C11A12"/>
<path d="M644 136.5C644 157.763 626.539 175 605 175C583.461 175 566 157.763 566 136.5C566 115.237 583.461 98 605 98C626.539 98 644 115.237 644 136.5Z" fill="#C11A12"/>
<path d="M644 605.5C644 626.763 626.539 644 605 644C583.461 644 566 626.763 566 605.5C566 584.237 583.461 567 605 567C626.539 567 644 584.237 644 605.5Z" fill="#C11A12"/>
<path d="M351 293C351 325.033 324.809 351 292.5 351C260.191 351 234 325.033 234 293C234 260.967 260.191 235 292.5 235C324.809 235 351 260.967 351 293Z" fill="#FE5543"/>
<path d="M351 449C351 481.033 324.809 507 292.5 507C260.191 507 234 481.033 234 449C234 416.967 260.191 391 292.5 391C324.809 391 351 416.967 351 449Z" fill="#FE5543"/>
<path d="M508 293C508 325.033 481.809 351 449.5 351C417.191 351 391 325.033 391 293C391 260.967 417.191 235 449.5 235C481.809 235 508 260.967 508 293Z" fill="#FE5543"/>
<path d="M508 449C508 481.033 481.809 507 449.5 507C417.191 507 391 481.033 391 449C391 416.967 417.191 391 449.5 391C481.809 391 508 416.967 508 449Z" fill="#FE5543"/>
</svg>
