<svg width="909" height="386" viewBox="0 0 909 386" fill="none" xmlns="http://www.w3.org/2000/svg">
<path d="M672.111 0.0138147C637.121 -0.172856 602.251 1.50983 567.631 6.42983C549.391 9.02316 531.29 12.5114 513.369 16.7794C498.138 20.4074 483.046 24.5961 468.125 29.3361C462.697 31.3134 457.844 34.4405 453.852 38.4298C449.864 42.4192 446.737 47.272 444.76 52.7013C443.54 59.12 442.446 65.5629 441.486 72.0255C435.833 109.99 434.68 148.423 434.74 186.795C434.774 209.319 435.228 231.871 436.35 254.338C437.451 276.366 439.192 298.353 443.332 320.059C443.78 322.405 444.257 324.746 444.76 327.082C446.737 332.512 449.864 337.365 453.852 341.356C457.844 345.345 462.697 348.471 468.125 350.447C473.093 352.261 478.086 354.002 483.107 355.664C543.622 375.714 607.145 384.619 670.881 385.014C731.917 385.395 792.906 377.956 851.041 359.303C859.512 356.586 867.905 353.63 876.213 350.447C881.642 348.471 886.494 345.345 890.484 341.356C894.475 337.365 897.6 332.512 899.576 327.082C900.623 322.244 901.541 317.376 902.33 312.488C905.467 293.074 906.574 273.469 907.314 253.848C908.126 232.22 908.495 210.532 908.719 188.869C909.141 148.215 909.063 107.412 902.33 67.297C901.51 62.413 900.592 57.5466 899.576 52.7013C897.6 47.272 894.475 42.4192 890.484 38.4298C886.494 34.4405 881.642 31.3134 876.213 29.3361C853.814 22.3028 831.028 16.5788 807.965 12.1935C763.205 3.68418 717.671 0.256479 672.111 0.0138147ZM182.721 74.3341L288.139 310.944H307.549L411.965 74.3341H361.096C350.388 97.9861 339.729 121.805 329.135 145.787C318.536 169.773 307.994 193.7 297.51 217.57L233.588 74.3341H182.721ZM0 74.3361V120.854H64.0879V310.944H110.607V120.854H174.027V74.3361H0ZM509.486 79.9533H665.666V118.182L607.031 173.875C614.941 175.194 622.598 177.282 630.008 180.135C637.413 182.994 644.05 186.948 649.91 192C655.769 197.056 660.465 203.369 664.008 210.947C667.545 218.527 669.316 227.704 669.316 238.467V239.125C669.316 250.113 667.38 260.163 663.508 269.277C659.634 278.396 654.111 286.363 646.922 293.17C639.735 299.982 630.961 305.254 620.6 308.988C610.236 312.722 598.679 314.59 585.939 314.59C565.065 314.59 547.326 310.883 532.717 303.473C518.105 296.059 505.86 286.378 495.975 274.426L530.906 241.102C538.817 250.114 547.106 256.977 555.787 261.699C564.463 266.425 574.737 268.783 586.6 268.783C596.265 268.783 604.118 266.27 610.162 261.24C616.202 256.208 619.225 249.427 619.225 240.901V240.242C619.225 230.84 615.269 223.625 607.361 218.596C599.452 213.564 588.357 211.047 574.078 211.047H552.986L545.076 178.895L600.111 123.783H509.486V79.9533ZM691.391 79.9533H847.57V118.182L788.936 173.875C796.845 175.194 804.503 177.282 811.912 180.135C819.316 182.994 825.956 186.948 831.814 192C837.674 197.056 842.369 203.369 845.912 210.947C849.449 218.527 851.221 227.704 851.221 238.467V239.125C851.221 250.113 849.286 260.163 845.414 269.277C841.541 278.396 836.016 286.363 828.826 293.17C821.64 299.982 812.865 305.254 802.504 308.988C792.14 312.722 780.586 314.59 767.846 314.59C746.971 314.59 729.232 310.883 714.623 303.473C700.01 296.059 687.766 286.378 677.881 274.426L712.811 241.102C720.721 250.114 729.01 256.977 737.691 261.699C746.367 266.425 756.641 268.783 768.504 268.783C778.169 268.783 786.022 266.27 792.066 261.24C798.106 256.208 801.129 249.427 801.129 240.901V240.242C801.129 230.84 797.176 223.625 789.268 218.596C781.358 213.564 770.261 211.047 755.982 211.047H734.891L726.982 178.895L782.016 123.783H691.391V79.9533Z" fill="white"/>
</svg>
