<svg width="345" height="178" viewBox="0 0 345 178" fill="none" xmlns="http://www.w3.org/2000/svg">
<path d="M267.639 99.7456H266.316V77.028H267.639C275.412 77.028 280.148 80.5267 280.148 88.7583C280.148 96.4733 274.71 99.7379 267.639 99.7379M266.71 58.6641H245.015V117.318H271.987C289.163 117.318 301.443 106.265 301.443 88.8473C301.443 67.2952 286.364 58.6641 266.707 58.6641" fill="#1C6AFF"/>
<path d="M304.835 58.6641V117.316H344.863V101.285H326.288V95.5267H342.687V80.285H326.288V74.687H344.242V58.6565L304.835 58.6641Z" fill="#1C6AFF"/>
<path d="M220.206 91.1705L202.237 58.6641H181.802V117.303H202.226V86.4936L220.196 117.303H240.552V58.6641H220.196L220.206 91.1705Z" fill="#1C6AFF"/>
<path d="M83.7608 58.6641L74.0458 84.0891L64.2188 58.6641H83.7608ZM83.7608 0L74.0458 33.1781L64.2112 0H0V18.5522H13.6718V58.6641H35.7277V18.4453H48.827L64.2112 58.6616H43.7405L34.2621 117.303H54.855L57.8906 85.1705L67.8448 117.303H80.2799L90.2214 85.1705L93.1043 117.303H113.7L104.071 58.6616H83.7608L106.29 0H83.7608Z" fill="#1C6AFF"/>
<path d="M145.718 100.158C143.31 100.157 140.956 99.4428 138.954 98.1047C136.952 96.7667 135.392 94.8651 134.471 92.6404C133.55 90.4157 133.309 87.9678 133.779 85.6062C134.248 83.2446 135.408 81.0754 137.111 79.3728C138.813 77.6701 140.983 76.5106 143.344 76.0407C145.706 75.5708 148.154 75.8117 150.378 76.7329C152.603 77.6542 154.505 79.2143 155.843 81.2162C157.181 83.2181 157.895 85.5718 157.896 87.9796C157.896 89.5789 157.581 91.1625 156.969 92.64C156.357 94.1175 155.46 95.46 154.329 96.5909C153.198 97.7217 151.855 98.6188 150.378 99.2308C148.9 99.8428 147.317 100.158 145.718 100.158ZM145.718 55.9618C145.084 55.9618 144.445 55.9847 143.832 56.0204C147.435 54.7242 150.573 52.3883 152.848 49.3083C155.123 46.2282 156.434 42.5425 156.613 38.7176C157.377 26.6132 144.45 20.3766 137.226 20.3766C128.181 20.3766 124.616 22.6285 124.616 22.6285L125.83 16.4529H152.837V0H110.178L104.42 34.8779C109.041 33.6469 113.766 32.847 118.534 32.4885C126.071 32.0382 133.746 33.8168 133.547 38.7863C133.382 43.0534 124.196 45.1654 116.911 43.6718C112.405 42.6939 108.01 41.2634 103.791 39.402L101.204 54.9618C101.204 54.9618 115.074 59.7608 125.201 59.514C127.176 59.4656 129.527 59.3359 132.048 59.0229C124.917 62.3823 119.275 68.2541 116.204 75.514C113.132 82.7739 112.846 90.9117 115.4 98.3694C117.955 105.827 123.17 112.08 130.048 115.932C136.926 119.784 144.983 120.964 152.676 119.245C160.37 117.526 167.159 113.031 171.744 106.618C176.329 100.206 178.388 92.3274 177.526 84.4917C176.664 76.6559 172.943 69.4133 167.074 64.1506C161.205 58.8879 153.601 55.975 145.718 55.9695" fill="#1C6AFF"/>
<path d="M40.3582 136.411V176.71H35.0378V136.411H40.3582Z" fill="#1C6AFF"/>
<path d="M55.1755 136.411H61.0053L82.2869 169.126V136.411H87.4375V176.71H81.4379L60.2695 144.391V176.71H55.1755V136.411Z" fill="#1C6AFF"/>
<path d="M128.737 136.411V141.052H107.569V153.617H126.247V158.089H107.569V176.71H102.249V136.411H128.737Z" fill="#1C6AFF"/>
<path d="M157.616 135.449C163.729 135.449 168.483 137.373 171.879 141.222C175.275 145.071 176.973 150.051 176.973 156.221C176.973 162.447 175.275 167.597 171.936 171.616C168.54 175.691 163.785 177.672 157.672 177.672C154.503 177.672 151.729 177.106 149.239 175.974C146.749 174.842 144.711 173.314 143.126 171.276C141.541 169.295 140.353 167.031 139.56 164.428C138.768 161.881 138.372 159.107 138.372 156.108C138.372 149.825 140.07 144.788 143.579 141.052C147.088 137.316 151.729 135.449 157.616 135.449ZM157.616 140.09C153.088 140.09 149.635 141.675 147.258 144.844C144.881 148.014 143.636 151.863 143.636 156.504C143.636 161.598 144.937 165.616 147.484 168.616C150.031 171.616 153.427 173.088 157.672 173.088C161.917 173.088 165.313 171.616 167.86 168.56C170.351 165.56 171.653 161.541 171.653 156.504C171.653 151.523 170.351 147.561 167.804 144.561C165.257 141.618 161.861 140.09 157.616 140.09Z" fill="#1C6AFF"/>
</svg>
