<svg width="345" height="178" viewBox="0 0 345 178" fill="none" xmlns="http://www.w3.org/2000/svg">
<path d="M267.639 99.7456H266.316V77.028H267.639C275.412 77.028 280.148 80.5267 280.148 88.7583C280.148 96.4733 274.71 99.7379 267.639 99.7379M266.71 58.6641H245.015V117.318H271.987C289.163 117.318 301.443 106.265 301.443 88.8473C301.443 67.2952 286.364 58.6641 266.707 58.6641" fill="#1C6AFF"/>
<path d="M304.835 58.6641V117.316H344.863V101.285H326.288V95.5267H342.687V80.285H326.288V74.687H344.242V58.6565L304.835 58.6641Z" fill="#1C6AFF"/>
<path d="M220.206 91.1705L202.237 58.6641H181.802V117.303H202.226V86.4936L220.196 117.303H240.552V58.6641H220.196L220.206 91.1705Z" fill="#1C6AFF"/>
<path d="M83.7608 58.6641L74.0458 84.0891L64.2188 58.6641H83.7608ZM83.7608 0L74.0458 33.1781L64.2112 0H0V18.5522H13.6718V58.6641H35.7277V18.4453H48.827L64.2112 58.6616H43.7405L34.2621 117.303H54.855L57.8906 85.1705L67.8448 117.303H80.2799L90.2214 85.1705L93.1043 117.303H113.7L104.071 58.6616H83.7608L106.29 0H83.7608Z" fill="#1C6AFF"/>
<path d="M145.718 100.158C143.31 100.157 140.956 99.4428 138.954 98.1047C136.952 96.7667 135.392 94.8651 134.471 92.6404C133.55 90.4157 133.309 87.9678 133.779 85.6062C134.248 83.2446 135.408 81.0754 137.111 79.3728C138.813 77.6701 140.983 76.5106 143.344 76.0407C145.706 75.5708 148.154 75.8117 150.378 76.7329C152.603 77.6542 154.505 79.2143 155.843 81.2162C157.181 83.2181 157.895 85.5718 157.896 87.9796C157.896 89.5789 157.581 91.1625 156.969 92.64C156.357 94.1175 155.46 95.46 154.329 96.5909C153.198 97.7217 151.855 98.6188 150.378 99.2308C148.9 99.8428 147.317 100.158 145.718 100.158ZM145.718 55.9618C145.084 55.9618 144.445 55.9847 143.832 56.0204C147.435 54.7242 150.573 52.3883 152.848 49.3083C155.123 46.2282 156.434 42.5425 156.613 38.7176C157.377 26.6132 144.45 20.3766 137.226 20.3766C128.181 20.3766 124.616 22.6285 124.616 22.6285L125.83 16.4529H152.837V0H110.178L104.42 34.8779C109.041 33.6469 113.766 32.847 118.534 32.4885C126.071 32.0382 133.746 33.8168 133.547 38.7863C133.382 43.0534 124.196 45.1654 116.911 43.6718C112.405 42.6939 108.01 41.2634 103.791 39.402L101.204 54.9618C101.204 54.9618 115.074 59.7608 125.201 59.514C127.176 59.4656 129.527 59.3359 132.048 59.0229C124.917 62.3823 119.275 68.2541 116.204 75.514C113.132 82.7739 112.846 90.9117 115.4 98.3694C117.955 105.827 123.17 112.08 130.048 115.932C136.926 119.784 144.983 120.964 152.676 119.245C160.37 117.526 167.159 113.031 171.744 106.618C176.329 100.206 178.388 92.3274 177.526 84.4917C176.664 76.6559 172.943 69.4133 167.074 64.1506C161.205 58.8879 153.601 55.975 145.718 55.9695" fill="#1C6AFF"/>
<path d="M34.8127 136.412V176.97H62.9911V172.426H40.2098V158.395H61.2867V153.851H40.2098V140.957H62.8206V136.412H34.8127Z" fill="#1C6AFF"/>
<path d="M107.596 162.315V136.412H102.199V162.315C102.199 165.95 101.29 168.715 99.4717 170.608C97.6916 172.464 95.0783 173.392 91.6318 173.392C87.9959 173.392 85.2121 172.464 83.2805 170.608C81.349 168.715 80.3832 165.95 80.3832 162.315V136.412H74.9861V162.315C74.9861 167.73 76.4443 171.688 79.3606 174.187C82.3147 176.648 86.4051 177.879 91.6318 177.879C96.7448 177.879 100.684 176.592 103.448 174.016C106.213 171.403 107.596 167.503 107.596 162.315Z" fill="#1C6AFF"/>
<path d="M121.939 136.412V176.97H127.336V159.645H140.516C141.841 159.645 142.902 159.853 143.697 160.27C144.493 160.649 145.137 161.179 145.629 161.86C146.121 162.504 146.481 163.281 146.708 164.189C146.936 165.06 147.125 165.988 147.276 166.973C147.466 167.957 147.579 168.961 147.617 169.983C147.655 171.006 147.693 171.972 147.731 172.88C147.769 173.751 147.845 174.547 147.958 175.266C148.11 175.986 148.375 176.554 148.754 176.97H154.775C154.207 176.289 153.772 175.512 153.469 174.641C153.204 173.732 152.995 172.786 152.844 171.801C152.692 170.817 152.598 169.813 152.56 168.791C152.522 167.768 152.465 166.765 152.389 165.78C152.276 164.795 152.105 163.849 151.878 162.94C151.689 162.031 151.367 161.217 150.912 160.497C150.496 159.74 149.909 159.096 149.151 158.566C148.432 158.036 147.485 157.657 146.311 157.43V157.316C148.772 156.635 150.553 155.366 151.651 153.51C152.787 151.655 153.355 149.496 153.355 147.035C153.355 143.74 152.257 141.146 150.06 139.253C147.901 137.359 144.89 136.412 141.027 136.412H121.939ZM138.584 155.101H127.336V140.957H140.743C143.281 140.957 145.118 141.601 146.254 142.888C147.39 144.176 147.958 145.842 147.958 147.887C147.958 149.364 147.693 150.575 147.163 151.522C146.67 152.431 145.989 153.17 145.118 153.738C144.284 154.268 143.3 154.627 142.163 154.817C141.027 155.006 139.834 155.101 138.584 155.101Z" fill="#1C6AFF"/>
<path d="M169.68 156.691C169.68 154.646 169.945 152.639 170.476 150.67C171.006 148.663 171.839 146.864 172.975 145.274C174.112 143.683 175.57 142.415 177.35 141.468C179.13 140.483 181.251 139.991 183.713 139.991C186.174 139.991 188.295 140.483 190.076 141.468C191.856 142.415 193.314 143.683 194.45 145.274C195.586 146.864 196.419 148.663 196.95 150.67C197.48 152.639 197.745 154.646 197.745 156.691C197.745 158.736 197.48 160.762 196.95 162.769C196.419 164.739 195.586 166.518 194.45 168.109C193.314 169.699 191.856 170.987 190.076 171.972C188.295 172.918 186.174 173.392 183.713 173.392C181.251 173.392 179.13 172.918 177.35 171.972C175.57 170.987 174.112 169.699 172.975 168.109C171.839 166.518 171.006 164.739 170.476 162.769C169.945 160.762 169.68 158.736 169.68 156.691ZM164.283 156.691C164.283 159.456 164.681 162.126 165.476 164.701C166.31 167.238 167.54 169.491 169.169 171.46C170.798 173.429 172.824 175.001 175.248 176.175C177.672 177.311 180.493 177.879 183.713 177.879C186.932 177.879 189.754 177.311 192.178 176.175C194.601 175.001 196.628 173.429 198.256 171.46C199.885 169.491 201.097 167.238 201.892 164.701C202.725 162.126 203.142 159.456 203.142 156.691C203.142 153.927 202.725 151.276 201.892 148.739C201.097 146.164 199.885 143.892 198.256 141.922C196.628 139.953 194.601 138.382 192.178 137.208C189.754 136.034 186.932 135.447 183.713 135.447C180.493 135.447 177.672 136.034 175.248 137.208C172.824 138.382 170.798 139.953 169.169 141.922C167.54 143.892 166.31 146.164 165.476 148.739C164.681 151.276 164.283 153.927 164.283 156.691Z" fill="#1C6AFF"/>
<path d="M220.786 155.839V140.957H231.353C234.421 140.957 236.656 141.601 238.057 142.888C239.496 144.138 240.216 145.974 240.216 148.398C240.216 150.822 239.496 152.677 238.057 153.965C236.656 155.252 234.421 155.877 231.353 155.839H220.786ZM215.389 136.412V176.97H220.786V160.384H233.171C237.262 160.421 240.348 159.38 242.431 157.259C244.552 155.139 245.613 152.185 245.613 148.398C245.613 144.611 244.552 141.676 242.431 139.593C240.348 137.473 237.262 136.412 233.171 136.412H215.389Z" fill="#1C6AFF"/>
<path d="M257.898 136.412V176.97H286.076V172.426H263.295V158.395H284.372V153.851H263.295V140.957H285.906V136.412H257.898Z" fill="#1C6AFF"/>
</svg>
