<svg width="163" height="88" viewBox="0 0 163 88" fill="none" xmlns="http://www.w3.org/2000/svg">
<path d="M151.2 87.4L11.1 87.8C8.15926 87.7897 5.3419 86.617 3.26247 84.5375C1.18304 82.4581 0.0102783 79.6407 0 76.7V11.5C0.0102783 8.55926 1.18304 5.7419 3.26247 3.66247C5.3419 1.58304 8.15926 0.410278 11.1 0.4L151.2 0C154.141 0.0102783 156.958 1.18304 159.038 3.26247C161.117 5.3419 162.29 8.15926 162.3 11.1V76.3C162.274 79.2358 161.096 82.044 159.02 84.12C156.944 86.1961 154.136 87.3739 151.2 87.4Z" fill="url(#paint0_linear_1_2)"/>
<path d="M56.3 31L43.6 31.2V25.1C43.5925 24.7767 43.488 24.4631 43.3 24.2C43.1067 23.9174 42.8255 23.7065 42.5 23.6C42.062 23.3953 41.5834 23.2928 41.1 23.3C40.6 23.3 39.9 23.2 39 23.2C38.3317 23.1721 37.6622 23.2056 37 23.3C36.5177 23.3033 36.0413 23.4054 35.6 23.6C35.2576 23.7277 34.9495 23.933 34.7 24.2C34.4996 24.4174 34.392 24.7044 34.4 25V31.1H31.4C31.1218 31.1068 30.8486 31.1751 30.6 31.3C30.3237 31.4553 30.1112 31.7032 30 32L29.7 33.2C29.6169 33.7626 29.5834 34.3315 29.6 34.9C29.5358 35.851 29.6721 36.805 30 37.7C30.0906 37.9976 30.2769 38.257 30.5301 38.4378C30.7833 38.6187 31.0891 38.7108 31.4 38.7H34.5V53.3C34.4682 54.9145 34.6361 56.5267 35 58.1C35.3128 59.3635 35.9309 60.531 36.8 61.5C37.6978 62.4049 38.7932 63.0895 40 63.5C41.4101 63.9991 42.9077 64.2033 44.4 64.1C45.0349 64.114 45.67 64.0806 46.3 64C46.9 63.9 47.5 63.8 48 63.7C48.4862 63.5943 48.9568 63.4262 49.4 63.2C49.7906 63.0616 50.1363 62.8197 50.4 62.5C50.6987 62.1194 50.9042 61.6742 51 61.2C51.1162 60.4385 51.183 59.6702 51.2 58.9C51.2135 58.3648 51.1801 57.8294 51.1 57.3C51.0818 56.9588 51.0144 56.622 50.9 56.3C50.8295 56.0111 50.6504 55.7604 50.4 55.6C50.1975 55.5013 49.9753 55.45 49.75 55.45C49.5247 55.45 49.3025 55.5013 49.1 55.6L48.5 56C48.2125 56.1139 47.9087 56.1814 47.6 56.2C47.2395 56.2828 46.8695 56.3164 46.5 56.3C46.0626 56.3491 45.6201 56.2826 45.2165 56.1072C44.8129 55.9317 44.4624 55.6534 44.2 55.3C43.6737 54.2831 43.4318 53.143 43.5 52V38.7H54.5L62.1 61.6C62.2053 61.9607 62.3746 62.2994 62.6 62.6C62.9009 62.9234 63.2796 63.1643 63.7 63.3C64.2798 63.4967 64.8877 63.598 65.5 63.6C66.4638 63.6907 67.4322 63.7241 68.4 63.7C69.3678 63.7262 70.3363 63.6928 71.3 63.6C71.9123 63.598 72.5202 63.4967 73.1 63.3C73.5204 63.1643 73.8991 62.9234 74.2 62.6C74.4254 62.2994 74.5947 61.9607 74.7 61.6L83.5 35.1C83.6021 34.8435 83.6694 34.5744 83.7 34.3C83.7 34.1 83.8 33.8 83.8 33.6C83.8 33.4 83.9 33.2 83.9 33V32.6C83.8932 32.3218 83.8249 32.0486 83.7 31.8C83.5067 31.5174 83.2255 31.3065 82.9 31.2C82.5 31.1 82 31 81.6 30.9C81.1 30.9 80.4 30.8 79.6 30.8C78.8985 30.7834 78.1967 30.8168 77.5 30.9C77.0605 30.9176 76.6244 30.9847 76.2 31.1C75.8456 31.203 75.5314 31.4125 75.3 31.7C75.1083 31.9332 74.9716 32.2067 74.9 32.5L68.6 53.2L62.2 32.5C62.1075 32.2148 61.9726 31.9451 61.8 31.7C61.5882 31.3919 61.2659 31.177 60.9 31.1C60.4 31 60 30.9 59.5 30.8H56.3V31Z" fill="white"/>
<path d="M107.6 32.4C107.579 32.1875 107.511 31.9824 107.4 31.8C107.325 31.594 107.185 31.4183 107 31.3C106.79 31.1298 106.553 30.9947 106.3 30.9C106 30.8 105.6 30.7 105.3 30.6C105 30.5 104.6 30.5 104.2 30.4C103.229 30.3135 102.25 30.381 101.3 30.6C100.591 30.7964 99.9169 31.0999 99.3 31.5C98.5888 32.012 97.9199 32.5806 97.3 33.2C96.9 33.7 96.4 34.2 95.9 34.8V32.5C95.8932 32.2218 95.8249 31.9486 95.7 31.7C95.5447 31.4237 95.2968 31.2112 95 31.1C94.6291 30.9072 94.218 30.8044 93.8 30.8C92.6355 30.7 91.4645 30.7 90.3 30.8C89.882 30.8044 89.4709 30.9072 89.1 31.1C88.7745 31.2065 88.4933 31.4174 88.3 31.7C88.2158 31.8137 88.1547 31.9428 88.1204 32.0801C88.0861 32.2174 88.0792 32.3601 88.1 32.5V61.7C88.1075 62.0233 88.212 62.3369 88.4 62.6C88.4945 62.7536 88.6269 62.8803 88.7845 62.9679C88.9421 63.0555 89.1197 63.101 89.3 63.1C89.7 63.2 90.2 63.3 90.7 63.4C92.0648 63.5 93.4352 63.5 94.8 63.4C95.2513 63.4075 95.6976 63.3045 96.1 63.1C96.42 62.9723 96.7225 62.8042 97 62.6C97.1075 62.4776 97.1894 62.3349 97.2409 62.1803C97.2924 62.0257 97.3125 61.8624 97.3 61.7V43.8C97.8 43 98.3 42.3 98.9 41.5C99.295 40.905 99.805 40.395 100.4 40C100.795 39.676 101.233 39.4069 101.7 39.2C102.401 38.9181 103.177 38.8829 103.9 39.1C104.188 39.2139 104.491 39.2814 104.8 39.3L105.5 39.5C105.663 39.5901 105.843 39.646 106.028 39.6645C106.214 39.683 106.401 39.6636 106.579 39.6075C106.756 39.5514 106.921 39.4597 107.062 39.3381C107.203 39.2165 107.318 39.0674 107.4 38.9C107.438 38.8606 107.467 38.8132 107.484 38.7613C107.501 38.7094 107.507 38.6543 107.5 38.6C107.623 38.1772 107.69 37.7402 107.7 37.3C107.7 36.8 107.8 36.1 107.8 35.3V33.4C107.629 33.0963 107.559 32.7461 107.6 32.4Z" fill="white"/>
<path d="M131.9 50C131.513 49.0284 130.935 48.1443 130.2 47.4C129.514 46.6608 128.702 46.0511 127.8 45.6C126.93 45.107 126.028 44.6727 125.1 44.3C124.2 43.9 123.3 43.6 122.4 43.3C121.641 43.0275 120.905 42.6931 120.2 42.3C119.644 42.016 119.138 41.6446 118.7 41.2C118.389 40.7984 118.214 40.308 118.2 39.8C118.208 39.4576 118.276 39.1192 118.4 38.8C118.578 38.4896 118.816 38.2176 119.1 38C119.444 37.7031 119.856 37.4969 120.3 37.4C120.885 37.235 121.493 37.1674 122.1 37.2C123.008 37.2009 123.914 37.3015 124.8 37.5C125.514 37.6881 126.216 37.9219 126.9 38.2C127.4 38.4 127.9 38.7 128.4 38.9C129.3 39.4 129.8 39.4 130.2 39.1C130.421 38.9107 130.593 38.6704 130.7 38.4C130.814 38.078 130.882 37.7412 130.9 37.4V35.9C130.916 35.4643 130.883 35.0281 130.8 34.6C130.8 34.3 130.7 34 130.7 33.7C130.694 33.4534 130.625 33.2124 130.5 33C130.382 32.7318 130.168 32.5176 129.9 32.4C129.593 32.1055 129.214 31.8983 128.8 31.8C128.218 31.5235 127.616 31.2896 127 31.1C126.211 30.8856 125.409 30.7186 124.6 30.6C123.704 30.4837 122.803 30.4169 121.9 30.4C120.175 30.3867 118.457 30.6225 116.8 31.1C115.389 31.5225 114.067 32.2004 112.9 33.1C111.826 33.9545 110.969 35.0511 110.4 36.3C109.807 37.5502 109.5 38.9165 109.5 40.3C109.496 41.5579 109.699 42.8079 110.1 44C110.51 44.9896 111.085 45.9025 111.8 46.7C112.512 47.4091 113.32 48.0149 114.2 48.5C115.1 49 115.9 49.4 116.8 49.8C117.7 50.2 118.6 50.5 119.4 50.8C120.16 51.0725 120.895 51.4069 121.6 51.8C122.156 52.084 122.662 52.4554 123.1 52.9C123.411 53.3016 123.586 53.792 123.6 54.3C123.596 54.75 123.494 55.1938 123.3 55.6C123.116 55.9641 122.84 56.2742 122.5 56.5C122.083 56.8002 121.605 57.005 121.1 57.1C120.482 57.2704 119.84 57.338 119.2 57.3C118.186 57.3148 117.175 57.18 116.2 56.9C115.37 56.6886 114.565 56.3868 113.8 56C113.202 55.7636 112.632 55.4618 112.1 55.1C111.826 54.8725 111.494 54.7243 111.142 54.6715C110.789 54.6186 110.429 54.663 110.1 54.8C109.879 54.9893 109.707 55.2296 109.6 55.5C109.486 55.822 109.418 56.1588 109.4 56.5C109.317 57.0291 109.283 57.5647 109.3 58.1C109.267 58.8721 109.334 59.6452 109.5 60.4C109.59 60.8964 109.835 61.3514 110.2 61.7C110.595 62.024 111.033 62.2931 111.5 62.5C112.141 62.8265 112.811 63.0942 113.5 63.3C114.376 63.5947 115.281 63.7958 116.2 63.9C117.252 64.1158 118.329 64.1831 119.4 64.1C121.158 64.1134 122.908 63.8777 124.6 63.4C126.105 62.9809 127.526 62.3043 128.8 61.4C129.966 60.5206 130.922 59.3935 131.6 58.1C132.284 56.6644 132.626 55.09 132.6 53.5C132.522 52.3076 132.286 51.1308 131.9 50Z" fill="white"/>
<defs>
<linearGradient id="paint0_linear_1_2" x1="0" y1="46.095" x2="162.3" y2="46.095" gradientUnits="userSpaceOnUse">
<stop stop-color="#55AF33"/>
<stop offset="1" stop-color="#315AA6"/>
</linearGradient>
</defs>
</svg>
