<svg width="987" height="568" viewBox="0 0 987 568" fill="none" xmlns="http://www.w3.org/2000/svg">
<path d="M0.319946 335.87L103.84 245.61C190.53 169.63 216.03 147.7 216.03 110.98C216.03 72.22 184.92 44.18 135.46 44.18C86 44.18 55.9099 73.25 46.2199 119.14H3.37995C13.5799 48.26 65.0799 3.88998 137.5 3.88998C209.92 3.88998 258.36 49.79 258.36 109.45C258.36 162.48 220.62 195.12 138.52 266.51L70.1899 325.66H268.05V366.46H0.319946V335.86V335.87Z" fill="white"/>
<path d="M312.93 243.57C312.93 181.35 350.67 132.4 442.97 9.5H492.44L390.96 145.66C409.83 134.44 430.74 126.28 457.76 126.28C521.5 126.28 579.64 168.61 579.64 245.1C579.64 321.59 521 372.08 446.03 372.08C371.06 372.08 312.93 324.65 312.93 243.57ZM537.3 245.1C537.3 191.56 497.01 159.43 446.53 159.43C396.05 159.43 355.76 192.07 355.76 245.61C355.76 299.15 396.05 331.79 446.02 331.79C495.99 331.79 537.3 297.62 537.3 245.1Z" fill="white"/>
<path d="M147.09 382V491.414C147.09 542.096 115.387 567.035 73.5452 567.035C31.703 567.035 0 542.082 0 491.414V382H29.8813V489.592C29.8813 524.939 48.3382 538.975 73.5452 538.975C98.7522 538.975 117.209 524.939 117.209 489.592V382H147.09Z" fill="white"/>
<path d="M188.41 382H263.523C303.021 382 325.375 405.385 325.375 439.687C325.375 469.836 308.486 489.07 279.636 494.521L333.947 563.914H297.824L246.111 496.088H217.783V563.914H188.41V382ZM260.402 470.105C284.578 470.105 295.748 457.635 295.748 439.955C295.748 422.275 284.31 410.074 260.402 410.074H217.783V470.105H260.402Z" fill="white"/>
<path d="M420.484 382H457.907L528.331 563.914H497.15L478.693 515.054H399.683L381.226 563.914H350.046L420.47 382H420.484ZM468.032 487.248L439.181 410.85L410.331 487.248H468.018H468.032Z" fill="white"/>
<path d="M681.917 522.594L679.319 458.144V382H708.692V563.914H673.868L582.911 423.32L585.763 487.771V563.914H556.39V382H590.96L681.917 522.594Z" fill="white"/>
<path d="M749.997 382H779.37V563.914H749.997V382Z" fill="white"/>
<path d="M879.153 382H916.576L987 563.914H955.819L937.363 515.054H858.352L839.895 563.914H808.715L879.139 382H879.153ZM926.715 487.248L897.865 410.85L869.014 487.248H926.701H926.715Z" fill="white"/>
<path d="M972.91 119.23C1012.07 218.36 966.47 322.61 868.78 361.21C771.09 399.8 666.07 355.06 626.9 255.93C587.74 156.8 634.3 52.17 731.51 13.76C829.2 -24.83 933.74 20.1 972.91 119.23ZM649.19 234.78C682.28 318.55 770.57 356.44 851.98 324.28C932.91 292.31 971.94 204.12 938.37 120.54C905.75 36.58 816.99 -1.12001 736.06 30.85C654.66 63.01 616.1 151.01 649.2 234.78H649.19Z" fill="white"/>
<path d="M903.61 171.99C860.45 222.11 804.32 260.69 740.38 282.48C718.73 219.86 713.44 151.8 726.69 85.33C791.58 97.75 852.92 127.32 903.61 171.99Z" fill="url(#paint0_linear_2_3)"/>
<defs>
<linearGradient id="paint0_linear_2_3" x1="719" y1="184" x2="904" y2="173" gradientUnits="userSpaceOnUse">
<stop stop-color="#58ABDB"/>
<stop offset="1" stop-color="#1B3D73"/>
</linearGradient>
</defs>
</svg>
