<svg width="579" height="579" viewBox="0 0 579 579" fill="none" xmlns="http://www.w3.org/2000/svg">
<path d="M0 0V578.574L578.395 578.572V0H0Z" fill="#197AE9"/>
<path d="M367.089 155.025C357.822 121.31 342.459 93.893 301.187 82.99C300.029 82.684 298.57 81.888 297.592 81.501C297.011 81.271 296.63 80.711 296.63 80.086V69.471C296.63 68.635 297.305 67.955 298.141 67.95L307.391 67.889C308.227 67.884 308.902 67.204 308.902 66.368V53.288C308.902 52.448 308.221 51.767 307.381 51.767H298.151C297.311 51.767 296.63 51.086 296.63 50.246V42.102C296.63 41.262 295.949 40.581 295.109 40.581H282.525C281.685 40.581 281.004 41.262 281.004 42.102V50.246C281.004 51.086 280.323 51.767 279.483 51.767H270.868C270.028 51.767 269.347 52.448 269.347 53.288V66.439C269.347 67.279 270.028 67.96 270.868 67.96H279.581C280.421 67.96 281.102 68.641 281.102 69.481V80.117C281.102 80.724 280.743 81.272 280.186 81.513C279.33 81.882 278.165 82.605 277.482 82.782C242.954 91.765 214.827 120.364 210.216 155.291C263.28 144.236 314.953 145.222 367.089 155.025Z" fill="white"/>
<path d="M243.773 259.906C273.742 260.029 303.711 260.029 333.68 259.921C335.045 259.916 337.224 259.01 337.641 257.969C342.323 246.3 346.734 234.523 351.653 221.633C309.406 214.711 268.413 214.736 226.182 221.648C231.037 234.528 235.351 246.196 239.928 257.758C240.358 258.842 242.449 259.901 243.773 259.906Z" fill="white"/>
<path d="M478.788 266.619L468.601 276.806L456.37 264.575L466.557 254.388L456.021 243.852L468.807 231.066L479.343 241.602L489.53 231.415L501.761 243.646L491.574 253.833L514.598 276.857C524.322 267.027 534.233 257.02 538.276 252.977C516.629 231.586 495.006 210.218 473.253 188.723C475.513 186.227 477.387 184.158 479.033 182.34C473.957 177.089 469.126 172.092 464.03 166.821C461.037 169.647 458.161 172.361 454.707 175.622C450.383 167.334 444.597 161.55 436.811 157.874C412.788 146.53 381.839 153.638 365.418 174.478C363.528 176.876 361.881 177.126 359.099 176.646C334.956 172.479 310.628 168.689 286.138 169.832C263.582 170.885 241.138 174.289 218.633 176.533C217.134 176.682 214.859 176.295 214.076 175.283C203.054 161.031 188.268 153.824 170.651 152.917C151.534 151.934 134.463 156.301 124.3 174.8C124.108 175.15 123.51 175.276 122.964 175.584C119.829 172.67 116.732 169.791 113.653 166.93C108.339 172.108 103.469 176.854 98.362 181.83C100.516 184.304 102.439 186.512 105.031 189.489C83.415 210.927 40.634 253.356 40.634 253.356L63.33 276.324L85.82 253.834L75.633 243.647L87.864 231.416L98.051 241.603L108.587 231.067L121.373 243.853L110.837 254.389L121.024 264.576L108.793 276.807L98.606 266.62L76.04 289.186L99.807 313.237C99.807 313.237 142.64 270.017 164.33 248.132C165.995 249.754 167.286 251.012 169.051 252.732C164.102 258.274 159.51 263.485 154.845 268.63C141.578 283.258 129.309 298.583 122.254 317.328C109.537 351.115 122.632 380.988 155.987 394.7C156.926 395.086 157.768 395.705 158.992 396.409C111.656 412.754 98.017 462.886 115.656 497.675C134.192 534.233 178.14 548.457 213.61 529.96C249.217 511.391 266.501 463.955 239.478 423.646C256.083 406.969 272.605 390.375 288.83 374.08C305.193 390.364 321.779 406.87 338.391 423.401C312.323 461.786 327.506 508.354 360.349 527.859C392.218 546.786 434.882 538.253 456.064 507.871C469.999 487.884 473.386 466.016 465.696 442.777C458.046 419.66 441.704 404.928 418.155 396.261C429.449 392.615 438.437 387.617 445.55 379.844C463.161 360.599 465.036 338.753 455.513 315.316C448.317 297.606 436.597 282.912 423.912 268.896C419.034 263.507 414.279 258.007 409.333 252.405C411.064 250.763 412.229 249.658 413.479 248.471C414.21 249.058 414.76 249.421 415.216 249.877C434.753 269.43 454.284 288.989 473.811 308.553C476.165 310.911 478.487 313.111 478.487 313.111C478.487 313.111 480.761 310.993 483.019 308.715C485.717 305.993 488.459 303.316 491.148 300.586C492.291 299.425 496.445 295.218 501.883 289.715L478.788 266.619ZM374.137 183.077C380.563 172.879 390.695 169.247 400.218 172.235C396.294 177.636 391.119 182.788 388.338 189.01C383.164 200.59 384.424 213.086 385.996 225.371C386.122 226.357 387.709 231.328 388.141 232.186C393.612 243.048 376.343 256.45 374.39 258.113C366.171 233.271 359.079 206.974 374.137 183.077ZM376.606 285.811C380.051 290.657 383.539 295.815 387.285 300.779C394.195 309.937 401.638 318.718 408.135 328.154C413.433 335.85 416.223 344.581 413.571 354.168C411.701 360.928 409.86 361.869 403.367 359.364C387.664 353.304 375.868 342.106 365.052 329.764C360.025 324.027 355.553 317.805 350.564 311.466C359.454 302.709 367.856 294.432 376.606 285.811ZM341.633 320.773C349.418 329.751 356.559 339.225 364.992 347.361C373.244 355.323 382.812 361.922 391.676 369.017C362.934 372.049 344.898 354.525 328.355 334.614C333.146 329.62 337.48 325.102 341.633 320.773ZM326.771 303.834C322.974 307.752 319.146 311.641 314.594 316.292C309.196 307.177 304.2 298.743 298.893 289.782C306.138 288.527 312.446 287.291 318.807 286.459C320.022 286.3 321.985 287.392 322.675 288.49C325.137 292.407 327.199 296.574 329.462 300.738C328.506 301.844 327.689 302.888 326.771 303.834ZM214.023 262.964C222.569 242.856 226.88 222.113 223.964 199.196C267.521 192.463 310.725 192.463 354.531 199.307C351.583 221.981 355.96 242.397 364.221 262.224C364.762 263.523 364.462 265.963 363.552 266.951C355.788 275.386 347.792 283.609 339.043 292.754C335.724 286.492 332.887 281.684 330.599 276.627C329.156 273.439 327.804 272.103 323.926 272.982C315.997 274.78 307.882 275.737 299.881 277.239C285.885 279.867 272.458 275.938 258.864 273.899C257.222 273.653 255.521 273.483 253.987 272.905C250.876 271.731 249.584 273.245 248.348 275.834C245.78 281.215 242.922 286.458 239.812 292.476C237.89 290.638 236.379 289.243 234.922 287.793C228.435 281.333 221.863 274.951 215.576 268.301C214.411 267.068 213.447 264.319 214.023 262.964ZM279.62 289.74C274.277 298.774 269.186 307.383 263.473 317.044C259.586 312.893 256.89 309.156 253.384 306.479C248.54 302.78 249.196 299.451 252.038 294.903C257.58 286.033 257.379 285.903 267.506 287.634C271.245 288.274 274.982 288.933 279.62 289.74ZM235.967 320.903C240.681 325.642 244.981 329.966 249.415 334.424C240.922 354.65 207.208 373.04 185.3 368.369C207.086 357.201 222.171 339.672 235.967 320.903ZM173.639 360.052C169.235 361.789 167.204 360.278 165.73 356.47C162.561 348.283 163.767 340.322 167.74 332.905C170.546 327.666 174.127 322.798 177.717 318.031C185.611 307.549 193.731 297.237 202.376 286.056C210.202 293.988 218.045 301.863 225.743 309.879C226.383 310.545 226.583 312.548 226.066 313.276C212.176 332.862 196.896 350.879 173.639 360.052ZM204.772 183.405C213.066 195.604 214.268 209.341 212.281 223.178C210.782 233.618 207.18 243.757 204.464 254.017C204.313 254.586 203.712 255.036 202.462 256.649C198.223 251.975 194.042 247.685 190.314 243.032C189.371 241.854 189.327 239.362 189.796 237.742C193.124 226.254 194.254 214.56 193.388 202.681C192.5 190.491 188.303 179.981 176.42 172.931C187.895 169.183 197.845 173.216 204.772 183.405ZM138.135 175.601C142.497 170.102 150.359 166.34 160.566 165.466C149.617 172.479 144.214 182.015 140.736 192.959C132.118 186.219 131.794 183.596 138.135 175.601ZM151.765 204.46C151.191 203.871 150.815 202.488 151.096 201.764C153.416 195.778 155.649 189.727 158.54 184.015C159.263 182.588 162.392 181.435 164.214 181.676C170.883 182.557 176.054 186.144 178.613 192.509C183.675 205.095 181.604 217.753 178.918 232.023C169.146 222.137 160.414 213.339 151.765 204.46ZM144.889 374.274C130.782 362.095 126.425 346.378 131.482 328.241C136.156 311.477 145.915 297.684 156.975 284.69C163.548 276.967 170.412 269.491 177.145 261.903C182.108 266.98 187.076 272.045 192.896 277.979C185.169 288.165 177.257 299.008 168.896 309.493C161.357 318.947 154.418 328.572 152.506 340.911C149.384 361.065 160.054 376.385 180.179 380.176C185.371 381.154 190.719 381.306 197.174 381.956C177.547 389.222 160.055 387.367 144.889 374.274ZM179.915 514.524C152.952 514.336 131.466 492.359 131.638 465.141C131.807 438.47 153.777 416.896 180.638 417.024C207.372 417.151 229.7 439.411 229.392 465.628C229.071 493.032 207.131 514.713 179.915 514.524ZM222.344 406.125C214.999 402.687 206.927 398.908 198.013 394.735C225.133 385.628 241.82 364.339 258.653 343.057C263.505 348.127 267.845 352.662 271.818 356.814C255.571 373.007 239.015 389.509 222.344 406.125ZM288.522 340.568C283.78 335.677 278.605 330.339 273.052 324.613C278.258 315.992 283.657 307.051 289.289 297.723C294.773 306.831 300.067 315.624 305.417 324.51C299.733 329.913 294.119 335.248 288.522 340.568ZM305.215 356.929C309.678 352.788 314.492 348.322 319.703 343.488C322.87 347.099 326.715 350.975 329.976 355.292C342.838 372.319 358.161 386.177 378.375 393.968C378.916 394.176 379.373 394.6 379.713 394.821C371.223 398.776 362.885 402.66 354.637 406.501C338.413 390.229 321.904 373.669 305.215 356.929ZM446.399 465.343C446.615 491.932 424.709 514.274 398.185 514.517C371.4 514.762 348.957 493.438 348.642 467.444C348.298 439.101 369.315 417.359 397.353 417.051C423.844 416.76 446.184 438.756 446.399 465.343ZM445.54 323.308C452.11 341.501 450 358.335 435.925 372.152C420.906 386.897 402.855 389.439 383.246 382.673C382.845 382.535 382.535 382.131 382.669 382.237C389.356 381.169 396.621 380.948 403.245 378.774C423.255 372.207 431.802 353.828 424.108 333.564C421.383 326.388 416.946 319.715 412.489 313.376C404.554 302.089 396.058 291.194 387.684 280.221C385.533 277.402 385.854 275.502 388.453 273.089C392.565 269.271 396.258 265.002 400.342 260.699C417.706 280.741 436.563 298.45 445.54 323.308ZM419.766 210.888C413.383 217.375 407.209 224.068 400.941 230.669C400.378 230.335 399.814 230.001 399.251 229.667C396.639 217.967 395.616 206.161 399.049 194.455C399.971 191.311 402.159 187.844 404.798 186.021C415.265 178.793 419.064 179.192 423.722 190.198C428.68 201.914 428.696 201.814 419.766 210.888ZM437.68 192.3C433.855 181.627 428.641 172.35 419.381 165.813C428.572 166.717 436.534 169.724 441.729 177.69C446.278 184.665 446.008 185.445 437.68 192.3Z" fill="white"/>
</svg>
