<svg width="194" height="51" viewBox="0 0 194 51" fill="none" xmlns="http://www.w3.org/2000/svg">
<path d="M12.5 40.5L17.5 6.30001H23.5L17 48.2H7.2L0.799999 6.40001H7.4L12.5 40.5Z" fill="white"/>
<path d="M33.2 24H42.2V30H33.2V42.3H44.6V48.3H26.6V6.40001H44.6V12.4H33.2V24Z" fill="white"/>
<path d="M62.4 48.3C62 47.2 61.8 46.6 61.8 43.2V36.6C61.8 32.7 60.5 31.3 57.5 31.3H55.2V48.4H48.6V6.40001H58.5C65.3 6.40001 68.3 9.60001 68.3 16V19.3C68.3 23.6 66.9 26.4 64 27.8C67.3 29.2 68.4 32.3 68.4 36.7V43.2C68.4 45.2 68.5 46.7 69.1 48.3H62.4ZM55.2 12.4V25.3H57.8C60.3 25.3 61.8 24.2 61.8 20.9V16.8C61.8 13.8 60.8 12.5 58.4 12.5H55.2V12.4Z" fill="white"/>
<path d="M94 48.3H87.4L86.3 40.7H78.2L77 48.3H71L77.7 6.40001H87.3L94 48.3ZM79 35H85.3L82.1 13.8L79 35Z" fill="white"/>
<path d="M92.8 6.40001H113.2V12.4H106.3V48.3H99.7V12.4H92.8V6.40001Z" fill="#009CDE"/>
<path d="M126 40.5L131 6.30001H137L130.5 48.2H120.7L114.2 6.30001H120.8L126 40.5Z" fill="#009CDE"/>
<path d="M163.5 44.6C165.2 44.6 166.6 46 166.6 47.7C166.6 49.4 165.2 50.8 163.5 50.8H155C151.6 50.8 148.6 49.4 146.4 47.2C144.2 45 142.8 41.9 142.8 38.6V12.4C142.8 9.00001 144.2 6.00001 146.4 3.80001C148.6 1.60001 151.7 0.200012 155 0.200012H181.2C184.6 0.200012 187.6 1.60001 189.8 3.80001C192 6.00001 193.4 9.10001 193.4 12.4V21.1C193.4 22.8 192 24.2 190.3 24.2C188.6 24.2 187.2 22.8 187.2 21.1V12.4C187.2 10.8 186.5 9.30001 185.4 8.20001C184.3 7.10001 182.8 6.40001 181.2 6.40001H155C153.4 6.40001 151.9 7.10001 150.8 8.20001C149.7 9.30001 149 10.8 149 12.4V38.6C149 40.2 149.7 41.7 150.8 42.8C151.9 43.9 153.4 44.6 155 44.6H163.5Z" fill="white"/>
<path d="M187.2 30.1C187.2 28.4 188.6 27 190.3 27C192 27 193.4 28.4 193.4 30.1V38.6C193.4 42 192 45 189.8 47.2C187.6 49.4 184.5 50.8 181.2 50.8H173C171.3 50.8 169.9 49.4 169.9 47.7C169.9 46 171.3 44.6 173 44.6H181.2C182.8 44.6 184.3 43.9 185.4 42.8C186.5 41.7 187.2 40.2 187.2 38.6V30.1Z" fill="#009CDE"/>
<path fill-rule="evenodd" clip-rule="evenodd" d="M183.3 40.7C182.7 41.3 181.9 41.6 181.1 41.6C180.3 41.6 179.5 41.3 178.9 40.7L171.1 32.9C170.2 33.3 169.2 33.5 168.2 33.5C163.8 33.5 160.3 30 160.3 25.6C160.3 21.2 163.8 17.7 168.2 17.7C172.6 17.7 176.1 21.2 176.1 25.6C176.1 26.6 175.9 27.6 175.6 28.5L183.4 36.3C184.5 37.5 184.5 39.5 183.3 40.7Z" fill="#009CDE"/>
</svg>
