<svg xmlns="http://www.w3.org/2000/svg" xmlns:xlink="http://www.w3.org/1999/xlink" id="teleradio-regione" x="0px" y="0px" viewBox="0 0 100 53" style="enable-background:new 0 0 100 53;" xml:space="preserve"><style type="text/css">	.st0{fill:#D6222A;}	.st1{fill:#FFFFFF;}	.st2{fill:#EE8822;}</style><g>	<polygon class="st0" points="80.57,34.54 80.57,30 89.72,11.67 94.9,11.67 85.76,29.91 91.68,29.91 91.68,22.93 96.37,21.35   96.37,29.91 99,29.91 99,34.54 96.37,34.54 96.37,41.13 91.68,41.13 91.68,34.54  "></polygon>	<polygon class="st0" points="70.87,11.82 77.13,11.82 77.13,41.11 71.84,41.11 71.84,19.44 67.67,19.44  "></polygon>	<g>		<g>			<path class="st1" d="M62.46,19.8c0-0.35,0-0.71,0-1.06c-0.03-2.64-0.17-5.27-0.54-7.89c-0.17-1.2-0.38-2.39-0.69-3.57    c-0.18-0.67-0.4-1.32-0.7-1.94c-0.23-0.46-0.53-0.86-0.94-1.18c-0.62-0.5-1.29-0.9-2.01-1.24c-1.39-0.65-2.85-1.05-4.35-1.35    c-1.23-0.25-2.47-0.42-3.72-0.54c-1.1-0.11-2.19-0.19-3.29-0.22c-1.16-0.03-2.31-0.02-3.47-0.03c-1.26-0.01-2.51,0.06-3.77,0.13    C38,0.98,37.03,1.07,36.06,1.15c-0.73,0.06-1.46,0.12-2.19,0.2c-1.04,0.12-2.07,0.25-3.11,0.39c-1.21,0.17-2.43,0.34-3.64,0.54    c-1.83,0.31-3.66,0.66-5.48,1.06c-3.07,0.67-6.11,1.47-9.09,2.47C10.52,6.5,8.51,7.28,6.59,8.26C5.54,8.79,4.53,9.37,3.6,10.09    c-0.56,0.43-1.08,0.9-1.52,1.46c-0.31,0.4-0.57,0.84-0.71,1.34c-0.35,1.21-0.44,2.44-0.33,3.69c0.11,1.26,0.42,2.47,0.87,3.65    c0.65,1.71,1.53,3.29,2.55,4.8c1.26,1.86,2.71,3.57,4.26,5.2c2.43,2.54,5.09,4.84,7.88,6.98c5,3.82,10.32,7.12,15.96,9.91    c2.78,1.38,5.62,2.61,8.56,3.59c2.04,0.68,4.1,1.24,6.25,1.44c0.83,0.08,1.66,0.08,2.49-0.07c1.12-0.21,2.16-0.64,3.11-1.27    c0.93-0.61,1.73-1.36,2.44-2.21c1.02-1.2,1.82-2.54,2.51-3.95c1.03-2.11,1.77-4.32,2.37-6.59c0.69-2.61,1.16-5.25,1.51-7.92    c0.23-1.78,0.39-3.56,0.5-5.35C62.41,23.13,62.45,21.47,62.46,19.8z"></path>			<path class="st0" d="M62.46,19.8c-0.01,1.66-0.04,3.33-0.14,4.99c-0.11,1.79-0.27,3.57-0.5,5.35c-0.35,2.67-0.82,5.32-1.51,7.92    c-0.6,2.26-1.35,4.48-2.37,6.59c-0.69,1.41-1.49,2.75-2.51,3.95c-0.71,0.85-1.51,1.6-2.44,2.21c-0.95,0.63-1.99,1.06-3.11,1.27    c-0.82,0.15-1.66,0.15-2.49,0.07c-2.15-0.2-4.21-0.76-6.25-1.44c-2.95-0.98-5.79-2.21-8.56-3.59    c-5.64-2.79-10.96-6.09-15.96-9.91c-2.79-2.14-5.45-4.44-7.88-6.98c-1.55-1.62-3-3.34-4.26-5.2c-1.02-1.51-1.91-3.09-2.55-4.8    c-0.44-1.18-0.76-2.39-0.87-3.65c-0.11-1.25-0.02-2.48,0.33-3.69c0.14-0.49,0.39-0.93,0.71-1.34c0.44-0.56,0.96-1.03,1.52-1.46    c0.93-0.71,1.94-1.3,2.99-1.83c1.93-0.98,3.93-1.76,5.98-2.44c2.98-1,6.02-1.8,9.09-2.47c1.82-0.4,3.64-0.75,5.48-1.06    c1.21-0.2,2.42-0.37,3.64-0.54c1.03-0.14,2.07-0.27,3.11-0.39c0.73-0.08,1.46-0.14,2.19-0.2c0.97-0.08,1.94-0.17,2.91-0.22    c1.25-0.07,2.51-0.13,3.77-0.13c1.16,0,2.31,0,3.47,0.03c1.1,0.03,2.2,0.11,3.29,0.22c1.25,0.12,2.49,0.29,3.72,0.54    c1.49,0.3,2.96,0.7,4.35,1.35c0.72,0.33,1.39,0.74,2.01,1.24c0.4,0.33,0.71,0.72,0.94,1.18c0.31,0.62,0.52,1.28,0.7,1.94    c0.32,1.17,0.53,2.36,0.69,3.57c0.36,2.62,0.5,5.25,0.54,7.89C62.46,19.1,62.46,19.45,62.46,19.8z M58.52,31.91    c-0.01-1.31-0.09-2.4-0.2-3.48c-0.17-1.77-0.43-3.53-0.76-5.27c-0.58-3.09-1.34-6.14-2.29-9.14c-0.65-2.06-1.36-4.09-2.25-6.06    c-0.36-0.8-0.75-1.58-1.22-2.32c-0.36-0.56-0.83-0.99-1.4-1.32c-0.56-0.33-1.17-0.55-1.8-0.71c-1.08-0.26-2.17-0.35-3.27-0.33    c-1.77,0.03-3.51,0.27-5.25,0.61c-2.16,0.43-4.27,1.02-6.36,1.7c-4.22,1.39-8.31,3.11-12.26,5.13c-2.49,1.27-4.91,2.65-7.22,4.22    c-1.2,0.82-2.37,1.68-3.45,2.66c-0.65,0.59-1.26,1.21-1.8,1.91c-0.7,0.91-1,1.94-1.03,3.07c-0.02,0.89,0.15,1.74,0.46,2.56    c0.37,0.97,0.93,1.83,1.58,2.64c0.78,0.96,1.67,1.8,2.62,2.58c1.6,1.3,3.34,2.4,5.15,3.4c2.83,1.56,5.79,2.84,8.82,3.97    c3.56,1.33,7.2,2.44,10.89,3.36c3.19,0.79,6.41,1.45,9.67,1.82c1.14,0.13,2.27,0.24,3.42,0.25c0.73,0.01,1.47,0,2.2-0.09    c1.57-0.2,2.82-0.93,3.76-2.19c0.41-0.56,0.73-1.17,0.98-1.82c0.55-1.39,0.79-2.85,0.93-4.33C58.52,33.71,58.54,32.7,58.52,31.91    z"></path>			<path class="st1" d="M58.52,31.91c0.02,0.79,0,1.8-0.09,2.82c-0.14,1.48-0.38,2.93-0.93,4.33c-0.25,0.65-0.57,1.26-0.98,1.82    c-0.94,1.27-2.19,2-3.76,2.19c-0.73,0.09-1.46,0.09-2.2,0.09c-1.14-0.01-2.28-0.12-3.42-0.25c-3.27-0.38-6.48-1.04-9.67-1.82    c-3.69-0.91-7.33-2.02-10.89-3.36c-3.02-1.13-5.98-2.41-8.82-3.97c-1.81-0.99-3.55-2.09-5.15-3.4c-0.95-0.78-1.84-1.62-2.62-2.58    c-0.65-0.8-1.2-1.67-1.58-2.64c-0.32-0.82-0.49-1.68-0.46-2.56c0.03-1.13,0.33-2.16,1.03-3.07c0.54-0.69,1.15-1.32,1.8-1.91    c1.08-0.97,2.25-1.84,3.45-2.66c2.31-1.57,4.74-2.95,7.22-4.22c3.96-2.02,8.04-3.75,12.26-5.13c2.09-0.69,4.21-1.27,6.36-1.7    c1.73-0.35,3.48-0.58,5.25-0.61c1.1-0.02,2.2,0.07,3.27,0.33c0.63,0.15,1.24,0.38,1.8,0.71c0.57,0.33,1.04,0.76,1.4,1.32    c0.47,0.74,0.86,1.52,1.22,2.32c0.89,1.97,1.6,4,2.25,6.06c0.94,3,1.7,6.05,2.29,9.14c0.33,1.75,0.59,3.5,0.76,5.27    C58.43,29.51,58.51,30.6,58.52,31.91z M30.6,11.46c-1.62,0-3.24,0.03-4.86,0.17c-1.32,0.11-2.64,0.27-3.94,0.54    c-0.88,0.18-1.76,0.41-2.6,0.74c-0.43,0.17-0.85,0.38-1.23,0.65c-0.54,0.38-0.91,0.87-1.12,1.5c-0.14,0.45-0.24,0.9-0.26,1.37    c-0.05,0.86,0.05,1.72,0.22,2.56c0.27,1.31,0.75,2.54,1.35,3.72c0.9,1.77,2.03,3.38,3.29,4.91c2.15,2.6,4.59,4.89,7.25,6.96    c2.12,1.65,4.35,3.13,6.74,4.36c1.32,0.68,2.67,1.27,4.1,1.69c0.76,0.22,1.53,0.38,2.32,0.44c0.88,0.07,1.74-0.09,2.58-0.35    c1.2-0.38,2.26-1.01,3.24-1.78c1.17-0.92,2.19-2,3.07-3.2c2.77-3.77,4.57-7.95,5.25-12.59c0.16-1.08,0.19-2.16,0.06-3.25    c-0.15-1.21-0.63-2.24-1.57-3.04c-0.51-0.43-1.05-0.81-1.62-1.15c-0.96-0.55-1.96-0.99-3-1.37c-2.67-0.97-5.44-1.57-8.24-2.02    c-1.14-0.18-2.29-0.33-3.44-0.45c-1.16-0.13-2.33-0.22-3.5-0.3C33.34,11.49,31.97,11.45,30.6,11.46z"></path>			<path class="st2" d="M30.6,11.46c1.37-0.01,2.74,0.03,4.1,0.12c1.17,0.07,2.33,0.17,3.5,0.3c1.15,0.13,2.3,0.27,3.44,0.45    c2.8,0.45,5.57,1.05,8.24,2.02c1.03,0.38,2.04,0.81,3,1.37c0.58,0.33,1.11,0.71,1.62,1.15c0.94,0.8,1.42,1.83,1.57,3.04    c0.13,1.09,0.1,2.17-0.06,3.25c-0.69,4.64-2.48,8.82-5.25,12.59c-0.88,1.2-1.89,2.28-3.07,3.2c-0.98,0.77-2.04,1.4-3.24,1.78    c-0.84,0.26-1.7,0.42-2.58,0.35c-0.79-0.06-1.56-0.22-2.32-0.44c-1.43-0.42-2.78-1.01-4.1-1.69c-2.39-1.23-4.62-2.71-6.74-4.36    c-2.66-2.07-5.11-4.36-7.25-6.96c-1.26-1.53-2.39-3.14-3.29-4.91c-0.6-1.19-1.08-2.42-1.35-3.72c-0.17-0.85-0.27-1.7-0.22-2.56    c0.03-0.47,0.12-0.92,0.26-1.37c0.2-0.63,0.58-1.12,1.12-1.5c0.38-0.27,0.8-0.48,1.23-0.65c0.84-0.34,1.71-0.56,2.6-0.74    c1.3-0.26,2.61-0.42,3.94-0.54C27.36,11.49,28.98,11.46,30.6,11.46z M42.74,26.64c0.06,0.16,0.11,0.29,0.16,0.42    c0.66,1.77,1.31,3.54,1.97,5.31c0.04,0.11,0.08,0.21,0.12,0.32c0.03,0.09,0.1,0.13,0.2,0.13c0.07,0,0.14,0,0.21,0    c1.52,0,3.05,0,4.57,0c0.08,0,0.17,0,0.25-0.01c0.07-0.01,0.09-0.06,0.07-0.12c-0.05-0.12-0.11-0.23-0.16-0.34    c-0.91-1.83-1.83-3.66-2.74-5.49c-0.09-0.18-0.18-0.35-0.26-0.53c-0.1-0.21-0.09-0.24,0.13-0.29c0.42-0.09,0.82-0.22,1.2-0.41    c1.41-0.68,2.39-1.76,3.03-3.18c0.39-0.86,0.61-1.76,0.59-2.71c-0.04-1.36-0.67-2.33-1.92-2.88c-0.21-0.09-0.42-0.17-0.64-0.23    c-0.64-0.18-1.3-0.25-1.97-0.25c-2.95,0-5.9,0-8.85,0c-0.08,0-0.17,0-0.25,0c-0.09,0-0.16,0.04-0.21,0.11    c-0.05,0.08-0.11,0.16-0.16,0.25c-0.75,1.13-1.5,2.25-2.26,3.38c-1.26,1.89-2.52,3.78-3.78,5.66c-0.1,0.15-0.18,0.32-0.32,0.43    c-0.11-0.05-0.09-0.15-0.1-0.23c-0.04-0.32-0.08-0.64-0.12-0.97c-0.16-1.2-0.32-2.4-0.47-3.61c-0.18-1.41-0.36-2.82-0.54-4.24    c-0.02-0.18-0.05-0.36-0.07-0.54c-0.03-0.24-0.04-0.24-0.3-0.25c-0.01,0-0.03,0-0.04,0c-1.36,0-2.71,0-4.07,0    c-0.08,0-0.17-0.02-0.25,0.06c0.01,0.09,0,0.19,0.02,0.28c0.06,0.42,0.13,0.84,0.19,1.25c0.19,1.21,0.37,2.42,0.56,3.64    c0.19,1.21,0.37,2.42,0.56,3.64c0.18,1.2,0.36,2.4,0.55,3.6c0.18,1.18,0.36,2.37,0.54,3.55c0.01,0.1,0.04,0.19,0.05,0.29    c0.01,0.06,0.05,0.1,0.11,0.1c0.11,0.01,0.23,0.01,0.34,0.01c0.82,0,1.64,0,2.46,0c0.53,0,0.39,0.05,0.67-0.36    c1.75-2.51,3.5-5.02,5.24-7.54c0.85-1.22,1.69-2.43,2.54-3.65c0.06-0.08,0.09-0.2,0.23-0.21c0.03,0.11-0.01,0.2-0.03,0.3    c-0.54,2-1.07,4-1.61,6c-0.45,1.67-0.9,3.35-1.35,5.02c-0.04,0.13-0.1,0.26-0.05,0.4c0.15,0.05,0.29,0.03,0.43,0.03    c1.12,0,2.23,0,3.35,0c0.51,0,0.42,0.06,0.55-0.43c0.5-1.82,1.01-3.64,1.51-5.46C42.62,26.84,42.62,26.73,42.74,26.64z"></path>			<path class="st1" d="M42.74,26.64c-0.12,0.09-0.12,0.2-0.15,0.29c-0.5,1.82-1,3.64-1.51,5.46c-0.14,0.49-0.05,0.42-0.55,0.43    c-1.12,0-2.23,0-3.35,0c-0.14,0-0.28,0.02-0.43-0.03c-0.04-0.14,0.02-0.27,0.05-0.4c0.45-1.67,0.9-3.35,1.35-5.02    c0.54-2,1.07-4,1.61-6c0.03-0.09,0.07-0.19,0.03-0.3c-0.13,0.01-0.17,0.13-0.23,0.21c-0.85,1.21-1.69,2.43-2.54,3.65    c-1.75,2.51-3.49,5.03-5.24,7.54c-0.29,0.41-0.15,0.36-0.67,0.36c-0.82,0-1.64,0-2.46,0c-0.11,0-0.23,0-0.34-0.01    c-0.06,0-0.1-0.04-0.11-0.1c-0.02-0.1-0.04-0.19-0.05-0.29c-0.18-1.18-0.36-2.37-0.54-3.55c-0.18-1.2-0.36-2.4-0.55-3.6    c-0.18-1.21-0.37-2.42-0.56-3.64c-0.19-1.21-0.37-2.42-0.56-3.64c-0.06-0.42-0.13-0.84-0.19-1.25c-0.01-0.1-0.01-0.2-0.02-0.28    c0.08-0.08,0.17-0.06,0.25-0.06c1.36,0,2.71,0,4.07,0c0.01,0,0.03,0,0.04,0c0.26,0.01,0.27,0.01,0.3,0.25    c0.03,0.18,0.05,0.36,0.07,0.54c0.18,1.41,0.36,2.82,0.54,4.24c0.16,1.2,0.32,2.4,0.47,3.61c0.04,0.32,0.08,0.64,0.12,0.97    c0.01,0.08,0,0.17,0.1,0.23c0.15-0.11,0.22-0.28,0.32-0.43c1.26-1.89,2.52-3.78,3.78-5.66c0.75-1.13,1.5-2.25,2.26-3.38    c0.05-0.08,0.11-0.16,0.16-0.25c0.05-0.08,0.12-0.12,0.21-0.11c0.08,0,0.17,0,0.25,0c2.95,0,5.9,0,8.85,0    c0.67,0,1.32,0.08,1.97,0.25c0.22,0.06,0.43,0.14,0.64,0.23c1.25,0.55,1.89,1.52,1.92,2.88c0.02,0.95-0.2,1.85-0.59,2.71    c-0.64,1.41-1.62,2.5-3.03,3.18c-0.38,0.18-0.78,0.32-1.2,0.41c-0.22,0.05-0.23,0.08-0.13,0.29c0.08,0.18,0.17,0.35,0.26,0.53    c0.91,1.83,1.83,3.66,2.74,5.49c0.06,0.11,0.11,0.23,0.16,0.34c0.03,0.06,0,0.11-0.07,0.12c-0.08,0.01-0.17,0.01-0.25,0.01    c-1.52,0-3.05,0-4.57,0c-0.07,0-0.14,0-0.21,0c-0.09,0-0.16-0.04-0.2-0.13c-0.04-0.11-0.08-0.21-0.12-0.32    c-0.66-1.77-1.31-3.54-1.97-5.31C42.86,26.92,42.8,26.79,42.74,26.64z M43.46,23.74c0.35,0,0.69,0.02,1.03-0.01    c0.46-0.04,0.92-0.12,1.35-0.3c1-0.43,1.48-1.23,1.56-2.27c0.05-0.54-0.21-0.95-0.7-1.19c-0.15-0.07-0.31-0.13-0.48-0.17    c-0.52-0.13-1.06-0.12-1.6-0.11c-0.1,0-0.15,0.05-0.17,0.15c-0.01,0.07-0.04,0.13-0.06,0.2c-0.31,1.14-0.61,2.28-0.92,3.43    C43.46,23.53,43.43,23.62,43.46,23.74z"></path>			<path class="st2" d="M43.46,23.74c-0.03-0.12,0-0.2,0.02-0.28c0.31-1.14,0.61-2.28,0.92-3.43c0.02-0.07,0.05-0.13,0.06-0.2    c0.02-0.1,0.08-0.15,0.17-0.15c0.54-0.01,1.07-0.02,1.6,0.11c0.16,0.04,0.32,0.1,0.48,0.17c0.5,0.24,0.75,0.65,0.7,1.19    c-0.09,1.05-0.56,1.84-1.56,2.27c-0.43,0.19-0.89,0.27-1.35,0.3C44.15,23.76,43.82,23.74,43.46,23.74z"></path>		</g>	</g></g></svg>