<svg width="197" height="100" viewBox="0 0 197 100" fill="none" xmlns="http://www.w3.org/2000/svg">
<path d="M30.329 49.07L17.608 68.126L4.769 49.07H0L17.37 74.391H17.683L34.7 49.07H30.329ZM50.262 49.068H54.325V73.647H50.262V49.068ZM97.853 73.646H102.697L93.675 63.681C99.15 63.011 102.066 60.562 102.066 56.392C102.066 51.232 98.006 49.067 90.251 49.067H73.074V73.646H77.132V63.872H88.983L97.853 73.646ZM77.132 52.417H89.814C95.448 52.417 97.89 53.324 97.89 56.547C97.89 59.77 95.172 60.724 89.814 60.724H77.132V52.417ZM132.433 63.37H142.953V68.407C141.025 69.752 137.953 70.932 132.553 70.932C124.553 70.932 119.985 68.016 119.985 61.358C119.985 54.858 124.553 51.828 132.553 51.828C138.734 51.828 141.453 53.128 143.701 55.015L145.866 52.297C142.796 49.816 138.695 48.636 132.631 48.636C123.062 48.636 115.731 52.928 115.731 61.436C115.731 70.106 122.981 74.121 132.631 74.121C139.049 74.121 143.664 72.621 146.697 70.03V60.018H135.781L132.433 63.37ZM179.354 48.631C169.981 48.631 162.064 52.923 162.064 61.431C162.064 70.101 169.902 74.116 179.354 74.116C188.806 74.116 196.485 70.022 196.485 61.355C196.485 52.847 188.691 48.631 179.354 48.631ZM179.278 70.931C171.361 70.931 166.316 67.736 166.316 61.357C166.316 55.129 171.361 51.827 179.278 51.827C187.195 51.827 192.232 55.213 192.232 61.431C192.232 67.813 187.195 70.931 179.278 70.931ZM88.86 12.107L91.66 11.969L85.35 5.663C85.2949 7.02865 85.3956 8.39613 85.65 9.739C86.077 12.379 88.863 12.108 88.863 12.108M110.84 9.739C111.094 8.39613 111.193 7.02845 111.134 5.663L104.834 11.969L107.634 12.107C107.634 12.107 110.42 12.378 110.847 9.738" fill="#D5AA41"/>
<path d="M97.378 34.15C97.858 34.629 98.634 34.629 99.113 34.15L117.236 16.031C123.336 9.918 120.727 3.27 118.053 0.005L115.385 2.705C116.065 3.635 116.583 4.675 116.917 5.777C117.699 8.49 116.912 11.043 114.577 13.377L98.246 29.72L81.91 13.384C79.575 11.049 78.788 8.495 79.57 5.784C79.903 4.68 80.42 3.64 81.102 2.71L78.436 0C75.783 3.216 73.123 9.892 79.262 16.031L97.378 34.15ZM70.066 95.177H67.374V99.8H65.894V87.982H70.373C70.8668 87.9504 71.3618 88.0204 71.8275 88.1876C72.2931 88.3549 72.7196 88.6158 73.0805 88.9543C73.4414 89.2928 73.729 89.7017 73.9257 90.1557C74.1224 90.6097 74.2239 91.0992 74.224 91.594C74.2317 92.3716 73.9796 93.1296 73.5074 93.7475C73.0353 94.3655 72.3703 94.8081 71.618 95.005L74.445 99.8H72.775L70.066 95.177ZM67.374 93.77H70.3C70.604 93.7968 70.9103 93.7601 71.1993 93.6621C71.4884 93.5641 71.7539 93.4071 71.979 93.201C72.204 92.9949 72.3838 92.7442 72.5067 92.4649C72.6297 92.1856 72.6932 91.8837 72.6932 91.5785C72.6932 91.2733 72.6297 90.9715 72.5067 90.6921C72.3838 90.4128 72.204 90.1621 71.979 89.956C71.7539 89.7499 71.4884 89.5929 71.1993 89.4949C70.9103 89.3969 70.604 89.3602 70.3 89.387H67.374V93.77ZM87.101 96.97H81.423L80.266 99.8H78.694L83.53 87.982H84.911L89.883 99.8H88.274L87.101 96.97ZM81.975 95.612H86.543L84.237 90.019L81.975 95.612ZM105.102 93.889C105.125 94.6783 104.984 95.4637 104.69 96.1965C104.396 96.9292 103.954 97.5936 103.392 98.1482C102.83 98.7029 102.16 99.1359 101.424 99.4205C100.687 99.705 99.8999 99.8348 99.111 99.802H95.171V87.982H99.111C99.8995 87.9486 100.686 88.0779 101.423 88.3618C102.159 88.6458 102.829 89.0783 103.391 89.6324C103.953 90.1865 104.395 90.8504 104.69 91.5827C104.984 92.315 105.124 93.1001 105.102 93.889ZM103.591 93.889C103.613 93.289 103.512 92.6908 103.292 92.1319C103.072 91.5731 102.74 91.0656 102.315 90.6413C101.89 90.2171 101.382 89.8852 100.823 89.6664C100.263 89.4476 99.665 89.3467 99.065 89.37H96.649V98.41H99.062C99.6622 98.4333 100.261 98.3323 100.82 98.1134C101.379 97.8945 101.887 97.5624 102.312 97.138C102.737 96.7135 103.07 96.2058 103.289 95.6467C103.509 95.0876 103.611 94.4892 103.588 93.889M110.934 87.982H112.414V99.802H110.934V87.982ZM118.22 93.895C118.203 92.668 118.551 91.4637 119.22 90.4351C119.89 89.4066 120.85 88.6003 121.979 88.1189C123.107 87.6375 124.354 87.5027 125.559 87.7316C126.765 87.9604 127.875 88.5427 128.749 89.4043C129.623 90.2659 130.22 91.3679 130.466 92.5702C130.712 93.7724 130.594 95.0206 130.129 96.156C129.663 97.2913 128.871 98.2626 127.852 98.9462C126.832 99.6298 125.633 99.9949 124.406 99.995C123.593 100.023 122.783 99.8853 122.026 99.5899C121.268 99.2944 120.579 98.8475 120 98.2766C119.421 97.7056 118.964 97.0226 118.658 96.2692C118.352 95.5159 118.203 94.708 118.22 93.895ZM129.079 93.895C129.082 92.9698 128.811 92.0644 128.299 91.2934C127.788 90.5225 127.059 89.9208 126.205 89.5645C125.351 89.2082 124.411 89.1133 123.503 89.2919C122.595 89.4705 121.761 89.9145 121.105 90.5677C120.45 91.2209 120.003 92.0538 119.822 92.9611C119.64 93.8684 119.732 94.8091 120.086 95.6641C120.439 96.5191 121.039 97.25 121.808 97.7641C122.577 98.2782 123.482 98.5524 124.407 98.552C125.024 98.5696 125.638 98.4613 126.212 98.2337C126.786 98.006 127.307 97.6639 127.744 97.2281C128.182 96.7923 128.525 96.272 128.755 95.699C128.984 95.1259 129.095 94.5121 129.079 93.895Z" fill="#D5AA41"/>
</svg>
