<svg width="942" height="794" viewBox="0 0 942 794" fill="none" xmlns="http://www.w3.org/2000/svg">
<path d="M0 108.7V793.7L432 701.7V793.7L942 685V124L510 216V0L0 108.7Z" fill="white"/>
<path d="M387 104.3C402 101.1 422 101.8 422 101.8V135.8L398 140.8V129.8C398 129.8 393 129 388 130C383 131 378 137.2 378 142.2V167.2L409 160.6V188.6L380 194.6V267.6L398 263.9V291.9L331 305.9V277.9L343 275.2V202.2L330 205V177L343 174.3V153.3C343 119.3 360 109.7 387 104V104.3ZM254 135.6L302 125.4V276.4C302 281.4 305 283.7 310 282.7L315 281.7V309.7L290 314.9C276 317.9 271 310.9 271 300.9C271 300.9 264 321.2 239 326.5C200 334.8 188 307.5 188 273.5C188 232.5 200 202.8 234 195.5C259 190.2 266 204.7 266 204.7V159.7L254 162.2V135.6ZM71 232.6L168 211.9V239.9L113 323.4L146 316.4V300.4L172 294.8V339.8L71 361.3V332.3L126 248.6L95 255V269L71 274V232.6ZM246 221.3C232 224.3 226.4 241.3 226 261.3V265.8C226.4 285.8 232 300.3 246 297.3C260 294.3 265.6 277.3 266 257.3V252.8C265.6 233 260 218.3 246 221.3ZM272.4 378.6C273.4 378.6 274.1 378.3 275 378.1C315 370.9 335 396.6 335 441.6V611.6L225 635V500C225 476 221 475.7 200 480.2V640.2L90 663.8V503.8L70 508V427L155 409C190 401.4 188 433 188 433C188 433 219 390 272.4 378.8V378.6ZM472.4 336C551 319.3 596 360.7 596 434.7C596 442.3 595.5 449.7 594.6 457L458 486C460 518.4 492 523.7 522 488.5L585 475V529.2C555 554.4 536.6 572.4 472.5 586C394 602.7 349 561.4 349 487.4C349 413.4 394 352.7 472.5 336H472.4ZM735 280C815 263 861 304.2 861 378.2C861 452.2 815 513 735 530.2C655 547.2 609 505.9 609 431.9C609 357.9 655 296.9 735 279.9V280ZM735.7 354.2C723.1 356.9 715.9 380.4 715.9 412.2C715.9 444.2 722.9 464.5 735.4 461.9C748 458.9 755.2 435.4 755.2 403.5C755.2 371.5 748 351.2 735.4 353.9L735.7 354.2ZM476 410.2C465.7 412.5 457.3 427.6 457 444.2L495 436.2C494.7 419.6 486.3 408.2 476 410.2ZM622 610.2L852 561.2V604.2L622 653.2V610.2Z" fill="black"/>
</svg>
