<svg width="544" height="296" viewBox="0 0 544 296" fill="none" xmlns="http://www.w3.org/2000/svg">
<path d="M73.8251 295.108C73.8265 294.885 79.4153 279.703 86.2447 261.369L98.6615 228.035L121.401 227.899C146.555 227.747 147.732 227.865 151.503 230.955C158.852 236.975 157.812 250.13 149.31 258.7C145.861 262.177 141.174 264.619 135.538 265.877L131.836 266.704L133.558 269.233C134.505 270.625 136.011 273.499 136.904 275.621C138.631 279.724 141.983 290.255 142.604 293.527L142.976 295.49H120.217L119.26 291.477C117.813 285.41 114.263 273.993 113.036 271.46C111.797 268.903 109.606 267.528 107.15 267.769L105.496 267.931L95.3272 295.228L84.5747 295.37C78.6608 295.448 73.8237 295.33 73.8251 295.108ZM123.534 254.578C130.997 253.864 134.633 251.431 135.272 246.722C135.594 244.347 134.774 242.6 133.031 241.945C132.334 241.683 128.107 241.43 123.637 241.382L115.51 241.295L113.004 247.789C111.626 251.36 110.491 254.46 110.481 254.676C110.459 255.204 117.552 255.151 123.534 254.578ZM145.646 294.834C145.781 294.473 151.475 279.237 158.298 260.975L170.703 227.773H228.253L225.649 234.682C224.218 238.483 223.046 241.672 223.046 241.769C223.046 241.867 214.953 241.946 205.062 241.946H187.079L185.148 246.993C184.086 249.769 183.218 252.25 183.218 252.505C183.218 252.765 190.795 252.97 200.432 252.97H217.645L215.035 259.647C213.6 263.32 212.425 266.387 212.425 266.464C212.425 266.541 204.61 266.667 195.058 266.743L177.691 266.881L175.417 272.918C174.167 276.238 173.14 279.132 173.136 279.349C173.133 279.565 181.731 279.742 192.245 279.742C204.446 279.742 211.363 279.929 211.363 280.26C211.363 280.544 210.136 284.087 208.636 288.134L205.909 295.491H175.655C151.673 295.491 145.451 295.354 145.646 294.834ZM229.023 294.834C229.16 294.473 233.399 283.194 238.443 269.768C243.488 256.343 247.728 245.063 247.867 244.702C248.063 244.19 245.699 244.046 237.119 244.046C228.539 244.046 226.174 243.902 226.369 243.39C226.507 243.029 227.876 239.368 229.411 235.253L232.202 227.773H298.821L292.878 244.029L269.893 244.044L269.114 246.013C268.686 247.096 264.32 258.671 259.413 271.735L250.492 295.489H239.633C231.167 295.489 228.829 295.346 229.023 294.834ZM278.363 295.032C278.46 294.779 284.156 279.545 291.02 261.178L303.499 227.783L361.091 227.777L359.454 232.108C358.554 234.489 357.403 237.619 356.895 239.063L355.972 241.688L319.817 241.964L317.898 247.246C316.842 250.15 315.979 252.624 315.979 252.743C315.979 252.862 323.711 253.021 333.162 253.098L350.346 253.236L345.338 266.36L310.562 266.885L308.569 272.135C307.472 275.022 306.405 277.915 306.196 278.565L305.818 279.746H324.971C339.935 279.746 344.126 279.889 344.132 280.402C344.136 280.763 342.912 284.307 341.41 288.276L338.68 295.494H308.433C291.41 295.494 278.264 295.294 278.363 295.036L278.363 295.032ZM353.152 294.834C353.153 293.418 360.108 280.232 363.604 275.018C370.168 265.228 381.053 253.548 390.264 246.408L393.651 243.784L360.715 243.506L363.572 235.808C365.143 231.574 366.428 228.034 366.428 227.941C366.428 227.849 379.213 227.773 394.839 227.773C410.465 227.773 423.25 227.962 423.25 228.194C423.25 228.981 419.078 239.981 418.64 240.348C418.401 240.55 416.891 241.629 415.284 242.747C409.317 246.902 401.56 253.521 396.533 258.747C387.898 267.724 378.735 281.116 374.563 290.855L372.577 295.49H362.865C355.448 295.49 353.152 295.335 353.152 294.834ZM103.586 213.012C104.176 211.533 105.74 207.728 107.062 204.557C108.385 201.385 109.36 198.684 109.229 198.555C109.099 198.426 107.112 199.538 104.816 201.026C95.7786 206.884 83.5332 211.856 73.0066 213.942C66.5794 215.215 51.7739 215.202 44.6151 213.915C19.0667 209.326 3.87906 194.07 0.521928 169.626C-0.728982 160.517 0.310654 147.587 3.19005 136.433C8.3663 116.384 21.0608 96.9262 36.9149 84.7411C42.5164 80.4359 46.1163 78.2167 52.9946 74.8285C68.3466 67.2665 81.2156 64.6151 99.718 65.2024C115.01 65.6878 124.408 68.0762 132.136 73.441C139.045 78.2372 142.288 84.2779 142.728 93.1705C143.651 111.823 132.796 127.348 111.927 137.221C99.4396 143.129 76.8506 148.664 56.298 150.854C44.4237 152.119 45.6771 151.45 45.6776 156.522C45.6787 166.88 47.4216 177.251 50.0009 182.249C51.5765 185.302 56.3433 190.076 59.2476 191.51C63.4171 193.568 66.7494 194.164 74.088 194.163C90.5851 194.161 101.787 189.214 114.978 176.101L121.351 169.767L127.664 154.281C131.137 145.764 134.529 137.555 135.203 136.039L136.427 133.283H168.585C191.504 133.283 200.742 133.448 200.742 133.857C200.742 134.173 195.007 148.369 187.997 165.403C180.987 182.437 175.252 196.588 175.252 196.85C175.252 197.128 185.942 197.326 200.995 197.326H226.739L227.483 196.145C227.892 195.495 234.863 181.086 242.974 164.124L257.721 133.283H285.103L287.841 141.814C289.347 146.505 291.618 153.533 292.887 157.431C294.155 161.328 296.551 168.77 298.211 173.966C299.87 179.163 302.113 186.132 303.196 189.452L305.164 195.489L366.796 195.76L369.665 192.416C371.244 190.578 385.081 174.948 400.415 157.685C433.613 120.308 431.747 122.431 431.747 122.045C431.747 121.874 423.442 121.749 413.293 121.766L394.839 121.796L385.546 133.656C380.434 140.18 371.491 151.544 365.671 158.911L355.09 172.306L353.283 166.312C351.648 160.89 343.287 132.913 340.98 125.147L340.045 121.997L240.599 121.865C146.201 121.738 141.17 121.686 141.493 120.815C141.681 120.31 143.319 116.179 145.134 111.634L148.434 103.371L300.8 103.368C384.601 103.366 453.037 103.237 452.88 103.082C452.723 102.927 450.353 102.209 447.614 101.488C438.913 99.1966 435.921 98.0511 415.644 89.2489C407.087 85.5344 402.873 84.2402 396.833 83.4715C386.045 82.0986 372.457 87.3214 356.476 98.9832C354.361 100.526 352.488 101.789 352.312 101.789C351.813 101.789 356.224 94.0169 358.867 90.2403C366.516 79.3124 375.07 71.7827 385.977 66.3766C399.424 59.7121 411.928 59.4386 430.096 65.4118C432.318 66.1423 438.079 68.2698 442.898 70.1396C465.281 78.8235 474.989 81.7275 486.444 83.1659C494.192 84.1386 499.067 84.1388 506.523 83.1669C515.374 82.013 520.762 80.2887 530.255 75.5726C538.546 71.4537 543.192 69.5196 543.667 69.9892C544.124 70.4407 540.974 75.517 537.692 79.6203C529.973 89.2692 516.553 98.4033 503.703 102.753C496.707 105.121 489.657 106.107 481.202 105.9L474.102 105.726L460.136 140.109C452.455 159.02 442.369 183.706 437.722 194.966L429.274 215.438L102.514 215.703L103.586 213.012ZM58.4222 139.003C70.5569 137.15 76.8681 135.051 83.1886 130.768C93.3392 123.89 98.2637 112.904 98.3063 97.0427C98.329 88.457 96.702 82.9925 93.1224 79.6361C89.5232 76.2614 83.5141 75.5808 78.6168 77.9932C70.2371 82.121 59.7871 97.9376 53.7054 115.698C51.84 121.145 48.5723 133.59 47.6049 138.931L47.295 140.641L49.5395 140.329C50.774 140.157 54.7713 139.561 58.4222 139.003ZM102.053 49.5538C84.7217 40.1777 69.1015 31.7478 67.3415 30.8205C62.7468 28.3997 59.2825 25.1081 57.3907 21.3657C54.3707 15.3915 55.5811 7.65434 60.1275 3.87273C63.3959 1.15412 65.8348 0.29197 70.9017 0.0639507C74.8359 -0.113309 76.2076 0.0450577 78.6578 0.957851C82.9664 2.56302 86.0495 4.76089 88.8251 8.20593C96.0923 17.2258 134.233 66.6149 133.926 66.6086C133.727 66.606 119.385 58.9299 102.053 49.5538Z" fill="white"/>
</svg>
